<svg xmlns="http://www.w3.org/2000/svg" xmlns:xlink="http://www.w3.org/1999/xlink" width="224.695" height="127.532"><defs><path id="a" d="M6.188-4.937c0-.97-.985-1.844-2.344-1.844h-3.5v.312h.234c.766 0 .797.11.797.469v5.219c0 .36-.031.469-.797.469H.344V0c.344-.031 1.078-.031 1.469-.031.375 0 1.109 0 1.468.031v-.312h-.25c-.765 0-.781-.11-.781-.47V-3.14h1.672c1.203 0 2.266-.796 2.266-1.796m-1.016 0c0 .468 0 1.546-1.578 1.546H2.219v-2.687c0-.328.031-.39.484-.39h.89c1.579 0 1.579 1.046 1.579 1.53m0 0"/><path id="b" d="M7.11-6.469v-.312l-1.173.031-1.156-.031v.312c1.016 0 1.016.469 1.016.735V-1.5l-3.5-5.14c-.078-.126-.094-.141-.281-.141H.328v.312H.61c.157 0 .36.016.5.016.235.031.235.047.235.234v5.172c0 .266 0 .734-1.016.734V0l1.156-.031L2.656 0v-.312c-1.031 0-1.031-.47-1.031-.735v-5.156a.376.376 0 0 1 .094.125L5.78-.125c.078.11.094.125.157.125.14 0 .14-.062.14-.266v-5.468c0-.266 0-.735 1.031-.735m0 0"/><path id="f" d="M6.36-2.531c0-1.64-1.344-2.89-2.891-2.89-1.64 0-2.89 1.343-2.89 2.89 0 1.64 1.343 2.875 2.89 2.875a2.87 2.87 0 0 0 2.89-2.875M3.468-.11a2.424 2.424 0 0 1-2.422-2.422 2.424 2.424 0 0 1 2.422-2.422 2.427 2.427 0 0 1 2.437 2.422c0 1.375-1.14 2.422-2.437 2.422m.219-.266v-1.922h1.937a.24.24 0 0 0 .234-.234.24.24 0 0 0-.234-.235H3.688v-1.921c0-.125-.094-.235-.22-.235a.24.24 0 0 0-.234.234v1.922H1.313a.24.24 0 0 0-.235.235c0 .125.11.234.234.234h1.922v1.922c0 .11.11.219.235.219.125 0 .219-.11.219-.219m0 0"/><path id="g" d="M6.36-2.531c0-1.64-1.344-2.89-2.891-2.89-1.64 0-2.89 1.343-2.89 2.89 0 1.64 1.343 2.875 2.89 2.875a2.87 2.87 0 0 0 2.89-2.875M3.468-.11a2.424 2.424 0 0 1-2.422-2.422 2.424 2.424 0 0 1 2.422-2.422 2.427 2.427 0 0 1 2.437 2.422c0 1.375-1.14 2.422-2.437 2.422M1.313-2.297h4.312a.24.24 0 0 0 .234-.234.24.24 0 0 0-.234-.235H1.313a.24.24 0 0 0-.235.235c0 .125.11.234.234.234m0 0"/><clipPath id="c"><path d="M.258 28H221v45H.258Zm0 0"/></clipPath><clipPath id="d"><path d="M91 95h39v32.066H91Zm0 0"/></clipPath><clipPath id="e"><path d="M118 106h1v21.066h-1Zm0 0"/></clipPath></defs><use xlink:href="#a" x="41.112" y="10.088"/><use xlink:href="#b" x="172.871" y="10.088"/><path fill="#7F7F7F" d="M88.527 72.75V28.715h44.036V72.75Zm0 0"/><g clip-path="url(#c)"><path fill="none" stroke="#000" stroke-miterlimit="10" stroke-width=".39753966" d="M.457 72.75V28.715h220.172V72.75Zm0 0"/></g><path fill="none" stroke="#000" stroke-miterlimit="10" stroke-width=".39753966" d="M66.508 116.785h36.129m15.816 0h36.125"/><g clip-path="url(#d)"><path fill="none" stroke="#000" stroke-miterlimit="10" stroke-width=".79408298" d="m118.453 116.785-15.816-9.887v19.77Zm0 0"/></g><path fill="none" stroke="#000" stroke-miterlimit="10" stroke-width=".39753966" d="M118.453 116.785h-15.816"/><g clip-path="url(#e)"><path fill="none" stroke="#000" stroke-miterlimit="10" stroke-width=".79408298" d="M118.453 126.668v-19.77"/></g><use xlink:href="#f" x="7.992" y="42.26"/><use xlink:href="#f" x="7.992" y="64.277"/><use xlink:href="#f" x="30.01" y="42.26"/><use xlink:href="#f" x="30.01" y="64.277"/><use xlink:href="#f" x="52.027" y="42.26"/><use xlink:href="#f" x="52.027" y="64.277"/><use xlink:href="#f" x="74.044" y="42.26"/><use xlink:href="#f" x="74.044" y="64.277"/><use xlink:href="#g" x="140.095" y="42.26"/><use xlink:href="#g" x="140.095" y="64.277"/><use xlink:href="#g" x="162.112" y="42.26"/><use xlink:href="#g" x="162.112" y="64.277"/><use xlink:href="#g" x="184.129" y="42.26"/><use xlink:href="#g" x="184.129" y="64.277"/><use xlink:href="#g" x="206.146" y="42.26"/><use xlink:href="#g" x="206.146" y="64.277"/></svg>