<svg xmlns="http://www.w3.org/2000/svg" xmlns:xlink="http://www.w3.org/1999/xlink" width="224.695" height="127.532"><defs><path id="a" d="M4.563-3.172c0-.797-.047-1.594-.391-2.328-.469-.953-1.281-1.11-1.688-1.11-.593 0-1.328.266-1.734 1.188-.312.672-.36 1.453-.36 2.25 0 .735.032 1.64.438 2.39.438.798 1.156 1 1.64 1C3 .219 3.767.017 4.204-.936c.313-.688.36-1.454.36-2.235m-.829-.125c0 .75 0 1.422-.109 2.063C3.485-.297 2.922 0 2.469 0c-.39 0-.969-.25-1.156-1.203-.11-.594-.11-1.5-.11-2.094 0-.625 0-1.281.094-1.828.187-1.172.922-1.266 1.172-1.266.328 0 .984.172 1.172 1.157.093.562.093 1.312.093 1.937m0 0"/><path id="b" d="M7.25-6.469v-.312c-.312.031-.719.031-.969.031l-1.125-.031v.312c.516.016.719.266.719.5 0 .078-.031.14-.047.188L4.016-.984 2.109-6c-.062-.14-.062-.187-.062-.187 0-.282.578-.282.828-.282v-.312c-.36.031-1.047.031-1.422.031L.188-6.781v.312c.64 0 .828 0 .968.375L3.47 0c.062.188.11.219.234.219.172 0 .203-.047.25-.188l2.203-5.828c.14-.375.407-.656 1.094-.672m0 0"/><path id="c" d="M7.156-2.484c0-.188-.187-.188-.328-.188H4.062v-2.781c0-.14 0-.328-.203-.328s-.203.187-.203.328v2.781H.891c-.141 0-.328 0-.328.188 0 .203.187.203.328.203h2.765V.5c0 .14 0 .328.203.328.204 0 .204-.187.204-.328v-2.781h2.765c.14 0 .328 0 .328-.203m0 0"/><path id="d" d="M4.453-2c0-1.172-.812-2.172-1.89-2.172a1.7 1.7 0 0 0-1.25.516v-1.938c.203.063.515.125.843.125 1.219 0 1.906-.906 1.906-1.031 0-.062-.03-.11-.093-.11 0 0-.031 0-.078.032a3.26 3.26 0 0 1-1.344.281c-.406 0-.86-.062-1.328-.266-.078-.03-.125-.03-.125-.03C1-6.594 1-6.517 1-6.36v2.937c0 .172 0 .25.14.25.063 0 .094-.015.126-.078.109-.156.484-.703 1.28-.703.517 0 .767.453.845.64.156.36.187.75.187 1.25 0 .344 0 .938-.25 1.36-.234.39-.594.64-1.062.64-.72 0-1.282-.515-1.453-1.109.03.016.062.016.171.016.329 0 .5-.25.5-.485a.48.48 0 0 0-.5-.484c-.14 0-.484.078-.484.531C.5-.75 1.188.22 2.297.22 3.437.219 4.453-.734 4.453-2m0 0"/><path id="e" d="M6.188-4.937c0-.97-.985-1.844-2.344-1.844h-3.5v.312h.234c.766 0 .797.11.797.469v5.219c0 .36-.031.469-.797.469H.344V0c.344-.031 1.078-.031 1.469-.031.375 0 1.109 0 1.468.031v-.312h-.25c-.765 0-.781-.11-.781-.47V-3.14h1.672c1.203 0 2.266-.796 2.266-1.796m-1.016 0c0 .468 0 1.546-1.578 1.546H2.219v-2.687c0-.328.031-.39.484-.39h.89c1.579 0 1.579 1.046 1.579 1.53m0 0"/><path id="f" d="M7.11-6.469v-.312l-1.173.031-1.156-.031v.312c1.016 0 1.016.469 1.016.735V-1.5l-3.5-5.14c-.078-.126-.094-.141-.281-.141H.328v.312H.61c.157 0 .36.016.5.016.235.031.235.047.235.234v5.172c0 .266 0 .734-1.016.734V0l1.156-.031L2.656 0v-.312c-1.031 0-1.031-.47-1.031-.735v-5.156a.376.376 0 0 1 .094.125L5.78-.125c.078.11.094.125.157.125.14 0 .14-.062.14-.266v-5.468c0-.266 0-.735 1.031-.735m0 0"/><path id="j" d="M6.36-2.531c0-1.64-1.344-2.89-2.891-2.89-1.64 0-2.89 1.343-2.89 2.89 0 1.64 1.343 2.875 2.89 2.875a2.87 2.87 0 0 0 2.89-2.875M3.468-.11a2.424 2.424 0 0 1-2.422-2.422 2.424 2.424 0 0 1 2.422-2.422 2.427 2.427 0 0 1 2.437 2.422c0 1.375-1.14 2.422-2.437 2.422m.219-.266v-1.922h1.937a.24.24 0 0 0 .234-.234.24.24 0 0 0-.234-.235H3.688v-1.921c0-.125-.094-.235-.22-.235a.24.24 0 0 0-.234.234v1.922H1.313a.24.24 0 0 0-.235.235c0 .125.11.234.234.234h1.922v1.922c0 .11.11.219.235.219.125 0 .219-.11.219-.219m0 0"/><path id="k" d="M6.36-2.531c0-1.64-1.344-2.89-2.891-2.89-1.64 0-2.89 1.343-2.89 2.89 0 1.64 1.343 2.875 2.89 2.875a2.87 2.87 0 0 0 2.89-2.875M3.468-.11a2.424 2.424 0 0 1-2.422-2.422 2.424 2.424 0 0 1 2.422-2.422 2.427 2.427 0 0 1 2.437 2.422c0 1.375-1.14 2.422-2.437 2.422M1.313-2.297h4.312a.24.24 0 0 0 .234-.234.24.24 0 0 0-.234-.235H1.313a.24.24 0 0 0-.235.235c0 .125.11.234.234.234m0 0"/><clipPath id="g"><path d="M.258 28H221v45H.258Zm0 0"/></clipPath><clipPath id="h"><path d="M91 95h39v32.066H91Zm0 0"/></clipPath><clipPath id="i"><path d="M118 106h1v21.066h-1Zm0 0"/></clipPath></defs><use xlink:href="#a" x="37.46" y="120.064"/><use xlink:href="#b" x="44.071" y="120.064"/><use xlink:href="#c" x="165.702" y="119.762"/><use xlink:href="#d" x="173.424" y="119.762"/><use xlink:href="#b" x="180.035" y="119.762"/><use xlink:href="#e" x="41.112" y="10.088"/><use xlink:href="#f" x="172.871" y="10.088"/><path fill="#7F7F7F" d="M88.527 72.75V28.715h44.036V72.75Zm0 0"/><g clip-path="url(#g)"><path fill="none" stroke="#000" stroke-miterlimit="10" stroke-width=".39753966" d="M.457 72.75V28.715h220.172V72.75Zm0 0"/></g><path fill="none" stroke="#000" stroke-miterlimit="10" stroke-width=".39753966" d="M66.508 116.785h36.129m15.816 0h36.125"/><g clip-path="url(#h)"><path fill="none" stroke="#000" stroke-miterlimit="10" stroke-width=".79408298" d="m118.453 116.785-15.816-9.887v19.77Zm0 0"/></g><path fill="none" stroke="#000" stroke-miterlimit="10" stroke-width=".39753966" d="M118.453 116.785h-15.816"/><g clip-path="url(#i)"><path fill="none" stroke="#000" stroke-miterlimit="10" stroke-width=".79408298" d="M118.453 126.668v-19.77"/></g><use xlink:href="#j" x="7.992" y="42.26"/><use xlink:href="#j" x="7.992" y="64.277"/><use xlink:href="#j" x="30.01" y="42.26"/><use xlink:href="#j" x="30.01" y="64.277"/><use xlink:href="#j" x="52.027" y="42.26"/><use xlink:href="#j" x="52.027" y="64.277"/><use xlink:href="#j" x="74.044" y="42.26"/><use xlink:href="#j" x="74.044" y="64.277"/><use xlink:href="#k" x="140.095" y="42.26"/><use xlink:href="#k" x="140.095" y="64.277"/><use xlink:href="#k" x="162.112" y="42.26"/><use xlink:href="#k" x="162.112" y="64.277"/><use xlink:href="#k" x="184.129" y="42.26"/><use xlink:href="#k" x="184.129" y="64.277"/><use xlink:href="#k" x="206.146" y="42.26"/><use xlink:href="#k" x="206.146" y="64.277"/></svg>