<svg xmlns="http://www.w3.org/2000/svg" xmlns:xlink="http://www.w3.org/1999/xlink" width="236.138" height="127.231"><defs><path id="c" d="m3.984-3.828 1.36-1.985c.218-.312.547-.64 1.437-.64v-.313c-.39.016-.86.032-1.11.032-.39 0-.874 0-1.265-.032v.313c.39 0 .61.219.61.453 0 .094-.016.11-.079.219l-1.14 1.687L2.53-6.016c-.031-.03-.078-.109-.078-.14 0-.125.219-.297.64-.297v-.313c-.343.032-1.062.032-1.437.032-.312 0-.922-.016-1.297-.032v.313h.204c.53 0 .718.062.906.344l1.828 2.75L1.672-.953c-.14.187-.438.64-1.438.64V0c.36-.016.782-.031 1.11-.031.36 0 .906 0 1.265.031v-.312c-.453 0-.625-.266-.625-.454 0-.093.032-.125.094-.234l1.406-2.078 1.563 2.36c.031.046.062.077.062.109 0 .125-.218.297-.656.297V0c.344-.031 1.078-.031 1.453-.031.407 0 .875.015 1.282.031v-.312H7c-.516 0-.719-.047-.922-.344Zm0 0"/><path id="d" d="M2.328-4.406c0-.188-.015-.203-.219-.203-.437.437-1.062.453-1.359.453v.25c.172 0 .625 0 1.016-.203v3.547c0 .218 0 .312-.703.312h-.25V0c.109 0 .968-.031 1.234-.031C2.25-.031 3.125 0 3.28 0v-.25h-.265c-.688 0-.688-.094-.688-.312Zm0 0"/><path id="e" d="M3.5-1.266h-.234c-.016.157-.094.563-.172.641-.063.031-.594.031-.688.031H1.125c.734-.64.969-.828 1.39-1.156.516-.422.985-.844.985-1.5 0-.844-.734-1.36-1.625-1.36-.86 0-1.437.61-1.437 1.25 0 .344.296.391.375.391.156 0 .359-.125.359-.375 0-.125-.047-.375-.406-.375.218-.484.687-.64 1.015-.64.688 0 1.047.547 1.047 1.109 0 .594-.422 1.078-.656 1.328L.5-.266C.438-.203.438-.187.438 0h2.859Zm0 0"/><path id="f" d="M1.89-2.312c.548 0 .938.374.938 1.109 0 .86-.5 1.125-.906 1.125-.281 0-.89-.078-1.172-.484a.38.38 0 0 0 .39-.391c0-.219-.156-.39-.374-.39-.203 0-.391.124-.391.406C.375-.281 1.094.14 1.938.14c.968 0 1.625-.641 1.625-1.344 0-.531-.438-1.078-1.204-1.234.735-.266.985-.782.985-1.22 0-.546-.625-.952-1.39-.952-.782 0-1.36.375-1.36.937 0 .235.156.36.36.36.218 0 .343-.157.343-.344 0-.203-.125-.36-.344-.375.235-.297.719-.375.969-.375.312 0 .75.156.75.75 0 .297-.094.625-.266.828-.234.265-.422.281-.781.297-.172.015-.187.015-.219.031-.015 0-.062.016-.062.078 0 .11.062.11.172.11Zm0 0"/><path id="g" d="M3.672-1.14v-.25h-.766v-3.094c0-.141 0-.188-.156-.188-.094 0-.11 0-.187.094L.265-1.391v.25h2.047v.579c0 .234 0 .312-.563.312h-.187V0c.343-.016.796-.031 1.046-.031s.688.015 1.047.031v-.25H3.47c-.563 0-.563-.078-.563-.312v-.579ZM2.359-3.923v2.531H.531Zm0 0"/><path id="h" d="M1.078-3.875c.344.094.563.094.672.094.906 0 1.453-.625 1.453-.735 0-.062-.047-.093-.078-.093-.016 0-.031 0-.062.03a2.87 2.87 0 0 1-1.047.188c-.188 0-.563 0-1.016-.187C.938-4.61.922-4.61.922-4.61c-.094 0-.094.078-.094.187v2.047c0 .125 0 .203.11.203.062 0 .062-.015.14-.094.297-.39.719-.437.969-.437.406 0 .594.328.625.39.125.22.172.485.172.891 0 .203 0 .61-.203.922a.984.984 0 0 1-.813.422c-.453 0-.922-.25-1.094-.719.266.031.391-.14.391-.328 0-.297-.25-.36-.344-.36-.015 0-.343 0-.343.376C.438-.484 1 .14 1.844.14 2.719.14 3.5-.516 3.5-1.391c0-.78-.594-1.515-1.453-1.515-.313 0-.672.078-.969.344Zm0 0"/><path id="i" d="M2.734-1.86v-.562H.11v.563Zm0 0"/><path id="j" d="M7.11 0v-.312h-.188c-.594 0-.734-.063-.844-.391l-2.14-6.188c-.047-.14-.063-.203-.22-.203-.155 0-.187.063-.234.203L1.422-.969c-.172.5-.563.657-1.11.657V0l1.016-.031L2.468 0v-.312c-.5 0-.75-.25-.75-.5 0-.032.016-.125.032-.141l.453-1.313h2.438L5.17-.75a.58.58 0 0 1 .032.14c0 .298-.562.298-.828.298V0c.36-.031 1.047-.031 1.438-.031ZM4.53-2.562H2.313l1.109-3.22Zm0 0"/><path id="k" d="M7.14-2.484c0-.188-.187-.188-.327-.188H4.047v-2.781c0-.14 0-.328-.188-.328-.203 0-.203.187-.203.328v2.781H.875c-.125 0-.312 0-.312.188 0 .203.187.203.312.203h2.781V.5c0 .14 0 .328.203.328.188 0 .188-.187.188-.328v-2.781h2.766c.14 0 .328 0 .328-.203m0 0"/><path id="m" d="M4.563-3.172c0-.797-.063-1.578-.407-2.312-.453-.953-1.265-1.11-1.672-1.11-.609 0-1.328.25-1.734 1.172-.312.688-.36 1.453-.36 2.25 0 .75.032 1.64.438 2.39.438.798 1.156 1 1.64 1C3 .219 3.75.017 4.189-.936c.312-.672.375-1.454.375-2.235m-.829-.11c0 .735 0 1.407-.109 2.048C3.485-.297 2.906 0 2.469 0c-.39 0-.969-.25-1.156-1.203-.11-.594-.11-1.5-.11-2.078 0-.64 0-1.297.078-1.828.188-1.188.938-1.266 1.188-1.266.328 0 .984.172 1.172 1.156.093.547.093 1.313.093 1.938m0 0"/><path id="n" d="M2.047-3.969h.922c.203 0 .297 0 .297-.187 0-.11-.094-.11-.282-.11h-.859c.36-1.406.406-1.609.406-1.671 0-.172-.125-.266-.297-.266-.03 0-.296.016-.39.36l-.39 1.577H.53c-.203 0-.297 0-.297.188 0 .11.078.11.266.11h.875C.656-1.157.625-.985.625-.798c0 .531.375.906.906.906C2.547.11 3.11-1.344 3.11-1.42c0-.095-.078-.095-.125-.095-.078 0-.093.032-.14.141C2.422-.344 1.89-.109 1.563-.109c-.22 0-.313-.125-.313-.453 0-.235.016-.313.063-.485Zm0 0"/><path id="o" d="M6.297-5.719c.094-.406.266-.703 1.062-.734.047 0 .172-.016.172-.203 0-.016 0-.11-.125-.11-.328 0-.687.032-1.015.032-.344 0-.703-.032-1.032-.032-.062 0-.171 0-.171.204 0 .109.093.109.171.109.563 0 .672.219.672.437 0 .016-.015.172-.031.204l-.89 3.53C4.78-.952 3.64-.093 2.64-.093c-.671 0-1.203-.437-1.203-1.281 0-.016 0-.344.11-.781L2.5-6c.094-.36.11-.453.844-.453.25 0 .328 0 .328-.203 0-.11-.11-.11-.14-.11-.266 0-.985.032-1.266.032-.282 0-.985-.032-1.282-.032-.078 0-.187 0-.187.204 0 .109.094.109.281.109.016 0 .203 0 .375.016.188.015.266.03.266.156 0 .062-.11.468-.157.703l-.218.875c-.094.39-.578 2.25-.61 2.437-.078.282-.078.438-.078.579C.656-.47 1.563.218 2.61.218c1.25 0 2.47-1.125 2.797-2.422Zm0 0"/><clipPath id="a"><path d="M225 62h10v16h-10Zm0 0"/></clipPath><clipPath id="b"><path d="M24 16h1v110.465h-1Zm0 0"/></clipPath><clipPath id="l"><path d="M24.324 21H227v98H24.324Zm0 0"/></clipPath></defs><path fill="none" stroke="#BFBFBF" stroke-miterlimit="10" stroke-width=".19780401000000003" d="M24.324 107.484h210.48M24.325 32.348h210.48"/><path fill="none" stroke="#000" stroke-miterlimit="10" stroke-width=".7922100300000001" d="M62.594 72.031v-4.226m38.27 4.226v-4.226m38.269 4.226v-4.226m38.27 4.226v-4.226m38.269 4.226v-4.226M22.21 107.484h4.227m-4.226-75.136h4.226"/><path fill="none" stroke="#000" stroke-miterlimit="10" stroke-width=".39660201000000006" d="M24.324 69.918h207.028"/><path d="m234.41 69.918-2.957-1.754v3.504Zm0 0"/><g clip-path="url(#a)"><path fill="none" stroke="#000" stroke-miterlimit="10" stroke-width=".39660201000000006" d="m234.41 69.918-2.957-1.754v3.504Zm0 0"/></g><g clip-path="url(#b)"><path fill="none" stroke="#000" stroke-miterlimit="10" stroke-width=".39660201000000006" d="M24.324 126.27V17.016"/></g><path stroke="#000" stroke-miterlimit="10" stroke-width=".39660201000000006" d="m24.324 13.96-1.754 2.958h3.508Zm0 0"/><use xlink:href="#c" x="56.658" y="82.296"/><use xlink:href="#d" x="64.085" y="83.781"/><use xlink:href="#c" x="94.927" y="82.296"/><use xlink:href="#e" x="102.354" y="83.781"/><use xlink:href="#c" x="133.196" y="82.296"/><use xlink:href="#f" x="140.623" y="83.781"/><use xlink:href="#c" x="174.762" y="82.296"/><use xlink:href="#g" x="182.189" y="83.781"/><use xlink:href="#c" x="209.733" y="82.296"/><use xlink:href="#h" x="217.16" y="83.781"/><use xlink:href="#i" x="7.988" y="111.03"/><use xlink:href="#j" x="11.286" y="111.03"/><use xlink:href="#k" x="3.582" y="35.484"/><use xlink:href="#j" x="11.286" y="35.484"/><g clip-path="url(#l)"><path fill="none" stroke="#000" stroke-miterlimit="10" stroke-width=".7922100300000001" d="m24.324 69.918.383-.594c.11-.164.277-.426.383-.59.11-.164.277-.425.387-.59.105-.164.277-.425.382-.59.106-.163.278-.425.383-.59.106-.163.278-.425.383-.589.105-.164.277-.426.383-.59.11-.16.277-.422.383-.586l.386-.586c.106-.164.278-.422.383-.586l.383-.582.383-.582.383-.578.382-.578c.11-.16.278-.418.387-.578l.383-.574c.105-.157.277-.41.383-.57.105-.157.277-.41.383-.57.105-.157.277-.407.382-.567l.383-.563c.11-.156.278-.406.387-.558.105-.157.277-.407.383-.559.105-.156.277-.402.383-.555l.382-.55.383-.551c.106-.149.277-.39.383-.543.11-.149.277-.39.387-.54.105-.152.277-.39.382-.538.106-.149.278-.383.383-.532.106-.148.278-.382.383-.527.106-.148.277-.383.383-.527.105-.145.277-.375.383-.52.11-.144.277-.37.386-.515l.383-.512c.106-.14.278-.363.383-.504l.383-.504.383-.496c.105-.137.277-.356.383-.488.109-.137.277-.356.386-.489l.383-.48.383-.477.383-.468c.105-.13.277-.336.382-.461.106-.13.278-.332.383-.461.11-.125.278-.328.387-.45.105-.125.277-.324.383-.449l.383-.437c.105-.121.277-.317.382-.434a42.482 42.482 0 0 1 .766-.847c.11-.118.277-.301.387-.415.105-.117.277-.296.383-.41l.382-.398c.106-.11.278-.285.383-.395.106-.109.278-.28.383-.386.106-.106.277-.278.383-.38l.387-.374c.105-.102.277-.262.382-.364a32.276 32.276 0 0 1 .766-.707c.105-.097.277-.25.383-.343.105-.094.277-.243.383-.336.109-.094.277-.239.386-.328.106-.09.278-.23.383-.32l.383-.313c.105-.082.277-.219.383-.301.105-.086.277-.215.383-.297.105-.082.277-.21.382-.289.11-.078.278-.203.387-.277a23.208 23.208 0 0 1 .766-.535c.105-.075.277-.188.383-.254.105-.07.277-.18.382-.25.106-.067.278-.172.383-.235.11-.066.278-.168.387-.23.105-.063.273-.16.383-.223l.383-.21c.105-.06.277-.15.382-.204.106-.055.278-.14.383-.195L55 34.16c.11-.05.277-.129.387-.18l.383-.167.382-.157.383-.152c.106-.04.277-.102.383-.14.105-.036.277-.094.383-.134.11-.035.277-.09.386-.12.106-.032.274-.083.383-.114a13.956 13.956 0 0 1 .766-.2c.105-.026.277-.066.383-.085.105-.023.277-.059.383-.078.109-.02.277-.051.386-.067.106-.02.274-.046.383-.058.106-.016.277-.04.383-.051.105-.012.277-.031.383-.039.105-.012.277-.023.383-.031.105-.008.277-.016.382-.024l.387-.011c.106 0 .273-.004.383 0 .105 0 .277 0 .383.003l.382.016.383.027.383.032c.11.011.277.031.387.047a14.799 14.799 0 0 1 .765.113l.383.07c.106.024.278.059.383.082a13.556 13.556 0 0 1 .77.192c.105.027.273.074.382.105.106.031.278.086.383.117.106.035.278.09.383.13.106.034.277.093.383.132l.383.145c.11.042.277.113.386.156.106.043.274.117.383.16l.383.172c.105.05.277.129.383.18.105.054.277.136.383.19.105.056.277.142.382.2.11.055.278.149.387.207a42.932 42.932 0 0 1 .766.438c.105.062.277.168.383.234l.382.238c.106.07.278.18.383.25.11.07.278.188.387.258l.383.27c.105.074.277.195.383.273l.382.281c.106.082.278.211.383.293.106.082.278.215.383.301.11.082.277.219.387.305l.383.316c.105.086.277.23.382.32.106.094.278.239.383.333.106.093.278.242.383.34.105.093.277.245.383.343.11.098.277.254.387.356.105.097.273.257.382.359l.383.367c.106.106.277.27.383.375l.383.383c.105.11.277.281.383.39.109.11.277.286.386.399.106.11.274.29.383.402.106.114.277.293.383.41l.383.418c.105.114.277.305.383.422.105.118.277.309.382.43.11.121.278.313.387.438.106.12.274.316.383.441.105.121.277.324.383.45.105.124.277.323.383.452.105.125.277.332.382.461l.383.465c.11.129.277.34.387.473.105.133.273.343.383.476.105.133.277.348.382.485.106.132.278.351.383.488.106.137.278.355.383.492l.383.5c.11.137.277.363.387.5l.382.512c.106.14.278.367.383.512.106.14.278.37.383.515l.383.524c.105.144.277.379.383.527.11.145.277.383.386.527.106.149.274.387.383.535l.383.54c.106.148.277.39.383.543.105.148.277.394.383.542l.382.551c.11.153.278.399.387.555l.383.555.383.558.383.563.382.562c.106.16.278.41.383.57.11.157.278.41.387.57.105.157.273.411.383.571.105.16.277.414.383.574.105.16.277.418.382.579.106.16.278.417.383.578.106.16.278.418.383.582.11.16.277.418.387.582.105.16.273.422.383.582.105.164.277.422.382.586.106.164.278.422.383.586.106.164.278.425.383.59.105.16.277.421.383.585.11.164.277.426.387.59.105.164.273.426.382.59.106.164.278.426.383.59l.383.594c.105.164.277.425.383.59.105.164.277.425.383.59.109.163.277.429.386.593.106.164.274.426.383.59l.383.59c.105.164.277.426.383.59.105.164.277.425.383.59.105.164.277.425.382.59.11.163.278.425.387.585.106.164.274.426.383.59l.383.586.383.582c.105.164.277.422.382.582.106.164.278.422.383.582.11.16.278.418.387.578.105.16.273.418.383.578.105.16.277.414.383.575.105.16.277.414.382.574.106.156.278.41.383.57l.383.567c.11.16.277.41.387.566.105.156.273.406.382.562.106.157.278.407.383.559.106.156.278.402.383.559l.383.55c.105.157.277.399.383.551.11.153.277.395.386.547.106.152.274.395.383.543.106.148.278.39.383.54l.383.534c.105.149.277.383.383.532.105.148.277.382.383.527.109.144.277.379.386.523.106.145.274.375.383.516.106.144.277.375.383.516l.383.507c.105.141.277.368.382.504l.383.5c.11.14.278.36.387.496.105.137.273.352.383.489.105.136.277.351.383.484.105.133.277.348.382.477l.383.472c.106.133.278.34.383.469.11.129.277.336.387.46.105.13.273.333.383.458.105.125.277.324.382.45.106.124.278.32.383.444l.383.438c.106.117.277.309.383.43.11.117.277.308.387.425.105.118.273.301.382.418l.383.41.383.407c.105.11.277.285.383.394.105.11.277.286.383.395.109.105.277.277.386.383.106.105.274.273.383.375.106.105.278.27.383.37.105.102.277.263.383.364.105.098.277.258.383.352.105.097.277.254.382.347.11.098.278.25.387.34.106.094.274.242.383.332.105.094.277.238.383.324.105.09.277.23.383.32.105.087.277.223.382.31.106.081.278.214.383.3.11.082.278.211.387.29.105.081.273.206.383.284.105.078.277.203.383.278l.382.27.383.257.383.254c.11.066.277.176.387.242.105.066.273.168.383.234l.382.227.383.215.383.21.383.2.386.191c.106.051.274.133.383.18.106.05.278.129.383.176.106.047.277.117.383.164l.383.156c.105.04.277.106.383.145.109.039.277.101.386.136.106.04.274.094.383.13.106.035.277.085.383.12.105.032.277.079.383.11l.383.101c.105.024.277.067.382.09.11.024.278.063.387.082a11.07 11.07 0 0 0 .766.137c.105.02.277.043.382.055a12.788 12.788 0 0 0 .766.082c.11.011.277.023.387.027a11.944 11.944 0 0 0 .765.027h.383l.383-.011c.106-.004.277-.012.383-.02l.387-.027.382-.04c.106-.011.278-.03.383-.046.106-.016.278-.04.383-.059.106-.015.277-.047.383-.066.105-.02.277-.05.383-.074.109-.02.277-.059.386-.082.106-.028.274-.067.383-.094.106-.027.278-.074.383-.106.105-.027.277-.078.383-.109.105-.035.277-.086.383-.121.105-.035.277-.094.382-.133.11-.035.278-.098.383-.137.11-.043.278-.105.387-.148l.383-.156.383-.168c.105-.047.277-.125.382-.176l.383-.184a18.392 18.392 0 0 0 .77-.395c.105-.058.277-.148.383-.21.105-.059.277-.156.382-.219l.383-.226c.106-.067.278-.168.383-.235.11-.07.277-.176.383-.246.11-.07.277-.183.387-.254.105-.07.277-.187.382-.262.106-.074.278-.19.383-.27.106-.073.278-.198.383-.276l.383-.286c.11-.082.277-.21.383-.296.109-.082.277-.215.386-.301.106-.086.278-.223.383-.309.106-.09.277-.23.383-.32l.383-.324c.105-.094.277-.243.383-.336.109-.094.277-.246.382-.34.11-.098.278-.25.387-.352a32.765 32.765 0 0 0 .766-.719c.105-.101.277-.265.383-.37.105-.102.277-.274.382-.38.11-.105.278-.277.383-.382.11-.11.278-.285.387-.395.105-.11.277-.285.383-.398.105-.113.277-.293.383-.406.105-.114.277-.297.382-.415.106-.113.278-.3.383-.417.11-.118.277-.31.383-.426.11-.121.277-.313.387-.434l.382-.437c.106-.121.278-.32.383-.446.106-.125.278-.324.383-.449.106-.129.277-.332.383-.457.11-.129.277-.336.383-.465.11-.129.277-.336.386-.469.106-.128.278-.34.383-.472l.383-.48c.106-.133.277-.348.383-.485.105-.137.277-.352.383-.488.11-.137.277-.36.383-.496.109-.141.277-.364.386-.5l.383-.508.383-.508c.105-.145.277-.371.383-.516.105-.144.277-.375.382-.52.11-.144.278-.378.383-.523.11-.144.278-.379.387-.527.105-.148.277-.383.383-.531.105-.149.277-.387.383-.535.105-.153.277-.391.382-.543.106-.149.278-.391.383-.543.11-.153.278-.395.383-.547.11-.153.277-.399.387-.551.105-.152.277-.398.383-.555l.382-.554.383-.563c.106-.156.278-.406.383-.562.11-.157.277-.407.383-.567.11-.156.277-.41.387-.566.105-.16.277-.414.382-.57.106-.16.278-.415.383-.575l.383-.578c.105-.16.277-.414.383-.574.11-.164.277-.422.383-.582.109-.16.277-.418.386-.582.106-.16.278-.418.383-.582l.383-.582c.105-.164.277-.426.383-.586.105-.164.277-.426.383-.59.109-.16.277-.422.382-.586.11-.164.278-.426.387-.59l.383-.59c.105-.164.277-.425.383-.59l.383-.59.382-.593c.11-.164.278-.426.383-.59.11-.164.278-.426.387-.59l.383-.593c.105-.164.277-.426.383-.59l.382-.59c.106-.164.278-.426.383-.59.11-.164.278-.426.383-.59.11-.164.277-.426.387-.59l.383-.586c.105-.164.277-.421.382-.586.106-.164.278-.421.383-.585l.383-.582c.11-.165.277-.422.383-.583.11-.16.277-.417.386-.582l.383-.578c.106-.16.278-.414.383-.574.106-.16.277-.418.383-.574.105-.16.277-.414.383-.574.11-.157.277-.41.383-.567l.386-.57c.106-.156.278-.406.383-.563l.383-.562c.105-.156.277-.402.383-.559l.383-.554c.109-.153.277-.399.382-.551.11-.152.278-.399.387-.55l.383-.544c.105-.152.277-.39.383-.543l.382-.535.383-.535c.11-.149.278-.383.383-.527.11-.149.277-.383.387-.528l.383-.52c.105-.144.277-.374.382-.519.106-.14.278-.367.383-.512l.383-.504c.11-.14.277-.367.383-.503.11-.141.277-.36.387-.497.105-.14.277-.359.382-.492l.383-.488.383-.48c.106-.133.277-.348.383-.477.11-.133.277-.344.383-.473.109-.129.277-.336.386-.465l.383-.457c.106-.128.278-.328.383-.453.105-.125.277-.324.383-.449.105-.125.277-.32.383-.441.109-.121.277-.317.382-.434.11-.121.278-.312.387-.43l.383-.421c.105-.118.277-.301.383-.415.105-.117.277-.296.383-.41.105-.113.277-.293.382-.402.11-.11.278-.285.383-.395.11-.109.278-.28.387-.386.105-.11.277-.278.383-.383.105-.106.277-.27.383-.375l.382-.367c.106-.098.278-.258.383-.36.11-.097.278-.254.383-.351.11-.094.277-.25.387-.344.105-.094.277-.242.383-.336.105-.094.277-.238.382-.328l.383-.324.383-.313c.11-.086.277-.222.383-.304.11-.082.277-.215.386-.297.106-.082.278-.211.383-.29.106-.077.278-.206.383-.28.106-.079.277-.2.383-.274.105-.074.277-.191.383-.266.11-.07.277-.187.383-.257.109-.067.277-.18.386-.247.106-.066.278-.175.383-.238.106-.066.277-.168.383-.234.105-.063.277-.16.383-.219.105-.062.277-.156.383-.215.109-.058.277-.148.382-.207l.387-.195c.106-.055.277-.137.383-.188.105-.05.277-.129.383-.18.105-.046.277-.12.382-.167.106-.047.278-.118.383-.16.11-.043.278-.114.383-.153a15.527 15.527 0 0 1 .77-.277l.382-.125c.106-.031.278-.086.383-.113.106-.032.278-.079.383-.11l.383-.097c.11-.024.277-.063.387-.086.105-.024.277-.059.382-.079.106-.023.278-.054.383-.07.106-.02.278-.047.383-.062.106-.016.277-.036.383-.051.11-.012.277-.031.383-.04.11-.01.277-.027.386-.034.106-.008.278-.016.383-.024.106-.004.278-.012.383-.012.105-.003.383-.007.383-.007"/></g><use xlink:href="#m" x="27.823" y="80.011"/><use xlink:href="#n" x="227.727" y="79.506"/><use xlink:href="#o" x="12.985" y="10.067"/></svg>