<svg xmlns="http://www.w3.org/2000/svg" xmlns:xlink="http://www.w3.org/1999/xlink" width="232.267" height="127.231"><defs><path id="d" d="M4.781-.875v-.562h-.25v.562c0 .563-.234.625-.343.625-.329 0-.375-.437-.375-.5v-1.969c0-.422 0-.812-.36-1.172-.375-.39-.875-.546-1.36-.546-.812 0-1.484.468-1.484 1.125 0 .296.188.453.454.453.28 0 .453-.188.453-.453 0-.11-.047-.438-.5-.454.265-.343.75-.453 1.062-.453.485 0 1.047.39 1.047 1.266v.375c-.5.015-1.187.047-1.812.344-.75.343-1 .859-1 1.297 0 .796.968 1.046 1.593 1.046.657 0 1.11-.39 1.297-.859.031.39.297.813.766.813.219 0 .812-.141.812-.938m-1.656-.516c0 .938-.703 1.282-1.156 1.282-.485 0-.89-.344-.89-.844 0-.547.421-1.36 2.046-1.422Zm0 0"/><path id="f" d="M5.156-2.14c0-1.25-.968-2.235-2.093-2.235-.782 0-1.204.469-1.36.64v-3.14l-1.422.11v.312c.688 0 .766.062.766.547V0h.25l.36-.61c.14.22.562.72 1.296.72 1.172 0 2.203-.97 2.203-2.25m-.812-.016c0 .375-.032.969-.313 1.406-.203.313-.578.64-1.125.64-.437 0-.797-.234-1.031-.609-.14-.203-.14-.234-.14-.406v-2.047c0-.187 0-.203.109-.36a1.45 1.45 0 0 1 1.172-.624c.437 0 .797.25 1.03.625.266.406.298.969.298 1.375m0 0"/><path id="g" d="M4.563-3.172c0-.797-.063-1.578-.407-2.312-.453-.953-1.265-1.11-1.672-1.11-.609 0-1.328.25-1.734 1.172-.312.688-.36 1.453-.36 2.25 0 .75.032 1.64.438 2.39.438.798 1.156 1 1.64 1C3 .219 3.75.017 4.189-.936c.312-.672.375-1.454.375-2.235m-.829-.11c0 .735 0 1.407-.109 2.048C3.485-.297 2.906 0 2.469 0c-.39 0-.969-.25-1.156-1.203-.11-.594-.11-1.5-.11-2.078 0-.64 0-1.297.078-1.828.188-1.188.938-1.266 1.188-1.266.328 0 .984.172 1.172 1.156.093.547.093 1.313.093 1.938m0 0"/><path id="h" d="M2.047-3.969h.922c.203 0 .297 0 .297-.187 0-.11-.094-.11-.282-.11h-.859c.36-1.406.406-1.609.406-1.671 0-.172-.125-.266-.297-.266-.03 0-.296.016-.39.36l-.39 1.577H.53c-.203 0-.297 0-.297.188 0 .11.078.11.266.11h.875C.656-1.157.625-.985.625-.798c0 .531.375.906.906.906C2.547.11 3.11-1.344 3.11-1.42c0-.095-.078-.095-.125-.095-.078 0-.093.032-.14.141C2.422-.344 1.89-.109 1.563-.109c-.22 0-.313-.125-.313-.453 0-.235.016-.313.063-.485Zm0 0"/><path id="i" d="M6.297-5.719c.094-.406.266-.703 1.062-.734.047 0 .172-.016.172-.203 0-.016 0-.11-.125-.11-.328 0-.687.032-1.015.032-.344 0-.703-.032-1.032-.032-.062 0-.171 0-.171.204 0 .109.093.109.171.109.563 0 .672.219.672.437 0 .016-.015.172-.031.204l-.89 3.53C4.78-.952 3.64-.093 2.64-.093c-.671 0-1.203-.437-1.203-1.281 0-.016 0-.344.11-.781L2.5-6c.094-.36.11-.453.844-.453.25 0 .328 0 .328-.203 0-.11-.11-.11-.14-.11-.266 0-.985.032-1.266.032-.282 0-.985-.032-1.282-.032-.078 0-.187 0-.187.204 0 .109.094.109.281.109.016 0 .203 0 .375.016.188.015.266.03.266.156 0 .062-.11.468-.157.703l-.218.875c-.094.39-.578 2.25-.61 2.437-.078.282-.078.438-.078.579C.656-.47 1.563.218 2.61.218c1.25 0 2.47-1.125 2.797-2.422Zm0 0"/><clipPath id="a"><path d="M222 62h9.203v16H222Zm0 0"/></clipPath><clipPath id="b"><path d="M14 16h2v110.465h-2Zm0 0"/></clipPath><clipPath id="c"><path d="M14.973 21h216.035v98H14.973Zm0 0"/></clipPath><clipPath id="e"><path d="M14.973 21h216.035v98H14.973Zm0 0"/></clipPath></defs><path fill="none" stroke="#000" stroke-miterlimit="10" stroke-width=".7922100300000001" d="M38.977 72.031v-4.226M62.98 72.03v-4.226m24.004 4.226v-4.226m24.004 4.226v-4.226m24.004 4.226v-4.226m24.004 4.226v-4.226M183 72.03v-4.226m24.004 4.226v-4.226"/><path fill="none" stroke="#000" stroke-miterlimit="10" stroke-width=".39660201000000006" d="M14.973 69.918h212.586"/><path d="m230.613 69.918-2.957-1.754v3.504Zm0 0"/><g clip-path="url(#a)"><path fill="none" stroke="#000" stroke-miterlimit="10" stroke-width=".39660201000000006" d="m230.613 69.918-2.957-1.754v3.504Zm0 0"/></g><g clip-path="url(#b)"><path fill="none" stroke="#000" stroke-miterlimit="10" stroke-width=".39660201000000006" d="M14.973 126.27V17.016"/></g><path stroke="#000" stroke-miterlimit="10" stroke-width=".39660201000000006" d="m14.973 13.96-1.75 2.958h3.504Zm0 0"/><g clip-path="url(#c)"><path fill="none" stroke="#000" stroke-miterlimit="10" stroke-width=".7922100300000001" d="M14.973 43.352s.308-.262.425-.364l.422-.36c.117-.1.305-.257.422-.355.117-.097.309-.253.426-.351.117-.094.305-.25.422-.344.117-.094.305-.246.426-.34.117-.093.304-.242.421-.332a30.887 30.887 0 0 1 .848-.648c.117-.09.305-.23.422-.317.117-.09.305-.226.422-.312.117-.086.308-.223.426-.305.117-.082.304-.219.422-.3.117-.083.304-.211.421-.294.122-.078.309-.207.426-.285l.422-.28c.117-.079.309-.2.426-.278l.422-.266.422-.266.425-.253c.118-.07.305-.184.422-.25a23.56 23.56 0 0 1 .848-.48c.117-.067.305-.169.422-.235.117-.063.304-.16.426-.223.117-.062.304-.16.421-.219l.422-.21c.118-.06.309-.149.426-.204.117-.058.305-.144.422-.199.117-.055.305-.14.422-.191.117-.051.308-.137.426-.184.117-.05.304-.133.422-.18l.421-.172c.121-.046.309-.117.426-.164l.422-.156c.117-.043.305-.11.426-.152.117-.04.305-.106.422-.145.117-.039.304-.097.422-.136l.425-.13c.118-.034.305-.09.422-.12.117-.036.305-.086.422-.118.117-.03.309-.078.426-.109.117-.027.305-.074.422-.102.117-.027.304-.07.422-.093l.425-.086c.118-.024.305-.063.422-.082.117-.02.309-.055.426-.074.117-.02.305-.047.422-.067.117-.016.305-.043.422-.058.117-.016.308-.04.426-.051.117-.012.304-.035.421-.047.118-.008.305-.027.422-.035.121-.012.309-.024.426-.032.117-.007.305-.015.422-.023l.426-.016c.117-.004.304-.007.422-.007.117 0 .304-.004.422 0 .117 0 .308 0 .425.003l.422.012c.117.008.305.016.422.024.117.004.309.015.426.027l.422.031.422.043c.12.012.308.035.425.051.118.012.305.039.422.055.117.015.309.043.426.062l.422.07c.117.02.305.055.422.079.117.023.308.058.426.086.117.023.304.062.421.09l.422.097c.118.031.309.078.426.11.117.027.305.078.422.109.117.035.305.086.426.12.117.036.304.09.422.13.117.035.304.094.422.133l.425.14c.117.04.305.106.422.149l.422.152c.117.047.309.117.426.164l.422.168c.117.047.304.125.422.176.12.047.308.129.425.18.118.054.305.136.422.19.117.052.305.142.426.196l.422.2.422.21c.117.059.308.153.426.215.117.059.304.16.421.223.118.062.305.164.422.226.117.067.309.168.426.235l.422.242c.117.066.305.18.422.246.12.07.308.184.426.254.117.074.304.188.421.262.118.074.31.191.426.265.117.075.305.196.422.274.117.074.305.199.422.277l.426.285.422.293c.117.078.304.211.422.293.12.086.308.219.425.305l.422.309c.117.085.305.226.426.312.117.09.305.23.422.32l.422.325c.117.093.308.242.426.332l.421.336c.118.097.305.246.422.343.117.094.309.25.426.348l.422.351c.117.102.305.258.422.36l.426.363.421.367c.118.106.31.27.426.375l.422.38c.117.105.305.273.422.382.117.106.309.277.426.387l.422.394c.117.11.304.285.422.399.117.11.308.289.425.402.117.11.305.293.422.406.117.114.305.297.426.41l.422.415.422.421c.117.118.308.305.425.422.118.121.305.313.422.43.118.121.305.312.422.434.117.12.309.312.426.433.117.125.305.32.422.442.117.125.305.32.422.445.12.121.308.32.426.445l.421.453c.118.125.305.328.426.453.117.13.305.332.422.461.117.125.305.332.422.461.117.13.309.336.426.465.117.13.304.336.422.469l.421.469c.118.132.31.343.426.476l.422.477c.117.133.305.347.426.48l.422.48.422.489c.117.133.308.352.425.488.118.133.305.352.422.489.118.136.305.355.422.492l.426.496.422.496c.117.14.305.363.422.5l.426.5.421.504c.118.14.305.367.426.504l.422.508.422.507c.117.141.309.368.426.512a59 59 0 0 1 .422.512 59 59 0 0 1 .421.512l.426.511c.117.145.305.371.422.516.117.144.305.371.422.516.121.144.309.375.426.515l.422.52c.117.144.308.375.425.515l.422.52.422.52c.117.144.309.374.426.519l.422.52c.117.144.305.378.422.519l.425.523.422.52c.118.144.305.375.426.52l.422.519.422.52.426.519.422.52.421.52.426.515.422.52c.117.14.305.37.422.515.121.14.309.371.426.512.117.144.304.375.422.515l.425.512a59 59 0 0 0 .422.512c.117.14.305.37.422.511l.426.508.422.508.422.504c.117.14.308.363.425.504.118.14.305.363.422.5.118.14.305.363.426.5.117.14.305.363.422.5l.422.496c.117.137.308.355.426.492.117.137.304.356.422.492.117.133.304.352.421.489.118.132.309.351.426.484.117.133.305.352.422.484l.422.48.426.477.422.477c.117.129.304.34.425.473.118.128.305.336.422.468l.422.465c.117.13.309.332.426.461l.422.461c.117.125.304.328.422.453.117.13.308.328.425.453l.422.45c.117.125.305.32.422.445.121.12.309.316.426.441l.422.438.426.433.421.426c.118.121.305.309.422.426l.426.422c.117.117.305.3.422.418l.422.41c.121.113.308.297.426.41.117.11.304.29.422.402.117.11.304.29.425.399l.422.394c.117.106.305.282.422.387.117.11.309.281.426.387l.422.379.422.375.425.367c.118.101.305.266.422.367.117.098.305.258.422.36.121.097.309.253.426.351l.422.352.426.34c.117.097.304.246.421.34.118.093.305.241.422.331l.426.328c.117.09.305.23.422.32.117.09.305.227.422.317l.426.309c.117.086.304.218.422.304.117.082.304.215.425.297l.422.293.422.285c.117.079.309.204.426.282.117.074.305.199.422.273.117.074.304.195.422.266.117.074.308.191.425.261a24.452 24.452 0 0 0 .844.504l.426.243.422.238c.117.066.304.168.426.23l.421.223c.118.062.305.156.422.215.117.062.309.156.426.21.117.06.305.15.422.204.117.058.305.144.422.2.117.054.308.136.426.187.117.054.304.136.421.183.118.05.305.13.426.18.117.047.305.12.422.168.117.047.305.12.422.164l.426.156c.117.043.304.11.422.149a17.786 17.786 0 0 0 .848.277c.117.039.304.094.421.129.117.035.305.09.422.12a23.813 23.813 0 0 0 1.274.325l.421.094c.118.023.305.062.422.086.117.023.309.058.426.078.117.023.305.055.422.074.117.016.305.047.422.063.117.02.308.043.426.058.117.016.304.04.421.051l.422.043c.121.012.309.027.426.035a15.52 15.52 0 0 0 .848.05c.117.009.304.013.422.017.117.003.304.007.422.007h.425c.117 0 .305-.004.422-.007.117-.004.305-.008.422-.016.117-.004.309-.012.426-.02l.422-.027c.117-.012.304-.027.425-.039.118-.008.305-.027.422-.043.118-.012.305-.035.422-.047l.426-.058c.117-.016.305-.047.422-.067.117-.015.305-.05.422-.07.117-.02.308-.055.426-.078l.421-.086c.118-.024.305-.067.422-.094.121-.027.309-.07.426-.102.117-.027.305-.074.422-.105.117-.031.305-.082.426-.113.117-.035.304-.086.422-.121l.421-.13c.118-.034.31-.097.426-.136.117-.04.305-.102.422-.14.117-.04.305-.106.422-.15l.426-.155c.117-.043.304-.117.422-.164l.425-.168c.118-.051.305-.13.422-.176.118-.05.305-.133.422-.184.117-.054.309-.136.426-.191l.422-.195c.117-.059.305-.149.422-.204l.426-.21c.117-.06.304-.157.421-.215l.422-.227c.121-.062.309-.164.426-.226l.422-.239c.117-.066.305-.172.426-.242.117-.066.304-.18.422-.246.117-.07.304-.184.421-.258.118-.07.309-.187.426-.262.117-.07.305-.191.422-.265.117-.074.305-.195.422-.274l.426-.28c.117-.079.304-.204.422-.286.117-.078.304-.211.422-.293.12-.082.308-.21.425-.297.117-.082.305-.219.422-.3l.426-.313.422-.313.422-.324.425-.324c.118-.094.305-.238.422-.332.118-.094.305-.242.422-.34l.426-.34.422-.351a34.436 34.436 0 0 0 .848-.71c.117-.103.304-.263.421-.365a36.365 36.365 0 0 0 .848-.746c.117-.101.305-.273.422-.379l.426-.382c.117-.11.304-.282.422-.391.117-.11.304-.281.421-.395.122-.109.31-.285.426-.398.117-.11.305-.29.422-.402.117-.114.309-.293.426-.407.117-.113.305-.296.422-.414.117-.113.304-.297.422-.414.117-.117.308-.304.425-.422.118-.117.305-.304.422-.425l.422-.426c.117-.121.309-.313.426-.434l.422-.437c.117-.121.305-.32.426-.442.117-.125.304-.32.422-.445l.421-.45c.118-.124.309-.323.426-.448.117-.13.305-.329.422-.457.117-.125.305-.332.422-.457.117-.13.309-.336.426-.465l.422-.465.421-.469c.122-.129.309-.34.426-.473.117-.128.305-.34.422-.472.117-.133.305-.348.426-.48.117-.133.305-.344.422-.481.117-.133.304-.348.422-.48.117-.137.308-.352.425-.489.118-.133.305-.351.422-.488.117-.133.305-.352.422-.488.117-.137.309-.356.426-.497l.422-.492c.117-.14.305-.36.426-.5.117-.136.304-.36.421-.5.118-.136.305-.36.422-.5.118-.14.309-.363.426-.504l.422-.504.422-.507.426-.508c.117-.14.304-.371.422-.512.117-.14.304-.367.421-.512.122-.14.309-.37.426-.511.117-.141.305-.371.422-.516.117-.14.305-.371.426-.512.117-.144.305-.375.422-.515l.422-.52c.117-.14.308-.37.425-.515l.422-.52.422-.52c.117-.144.309-.375.426-.52l.422-.519.422-.52c.12-.144.308-.374.425-.519l.422-.52c.117-.144.309-.374.426-.519l.422-.523.422-.52.426-.52.421-.519.422-.52c.118-.14.309-.37.426-.515l.422-.52.426-.515c.117-.145.304-.371.422-.516l.422-.515.425-.512a59 59 0 0 1 .422-.512 59 59 0 0 1 .422-.511c.117-.145.309-.372.426-.512l.422-.508.422-.508c.12-.14.308-.363.425-.504l.422-.504c.117-.136.305-.363.426-.5.117-.14.305-.363.422-.5l.422-.496.426-.496.421-.492.422-.492c.118-.133.309-.352.426-.488l.422-.485.426-.484.422-.477.422-.48.425-.473c.117-.133.305-.34.422-.473.117-.128.305-.34.422-.468.117-.13.309-.336.426-.465l.422-.461c.117-.129.304-.332.422-.457l.425-.457.422-.45c.117-.124.305-.324.426-.449.117-.125.305-.32.422-.445l.422-.437c.117-.125.308-.317.426-.438l.421-.433c.118-.118.305-.31.422-.43l.426-.422.422-.422c.117-.113.305-.3.422-.414.12-.117.308-.297.426-.414l.421-.406c.118-.11.31-.29.426-.403.117-.109.305-.285.422-.398.117-.11.305-.281.422-.39.117-.11.309-.282.426-.391.117-.106.304-.278.422-.383l.422-.379c.117-.106.308-.27.425-.371a35.876 35.876 0 0 1 .848-.735c.117-.101.305-.257.422-.359l.422-.351c.117-.098.308-.25.426-.348.117-.098.304-.25.421-.344l.422-.336c.117-.094.309-.238.426-.332l.422-.324c.117-.09.305-.234.422-.32.12-.09.308-.227.426-.317l.421-.308c.118-.082.31-.22.426-.301l.422-.297.422-.293.426-.281c.117-.082.304-.203.422-.281.117-.075.304-.2.422-.274.117-.074.308-.191.425-.266.117-.074.305-.187.422-.261.117-.07.305-.184.426-.254.117-.07.305-.18.422-.246.117-.07.305-.176.422-.242.117-.067.308-.172.425-.235.118-.066.305-.168.422-.23.118-.063.305-.16.422-.223l.426-.215c.117-.058.305-.152.422-.207a20.764 20.764 0 0 1 .848-.398c.117-.055.304-.137.421-.192l.426-.18c.117-.05.305-.128.422-.175.117-.047.305-.125.422-.168.117-.047.309-.117.426-.164.117-.043.304-.113.422-.153.117-.042.304-.109.421-.148.118-.043.31-.105.426-.14.117-.04.305-.102.422-.137.117-.035.305-.094.422-.125.121-.035.309-.09.426-.121.117-.036.304-.082.422-.114.117-.03.308-.078.425-.105.118-.031.305-.074.422-.102.118-.027.305-.066.422-.09.117-.027.426-.085.426-.085"/></g><use xlink:href="#d" x="38.76" y="28.647"/><g clip-path="url(#e)"><path fill="none" stroke="#7F7F7F" stroke-miterlimit="10" stroke-width=".7922100300000001" d="M14.973 69.918s.308-.375.425-.52c.118-.144.305-.378.422-.523l.422-.52c.117-.144.309-.375.426-.52l.422-.519c.117-.144.305-.375.426-.515l.421-.52.422-.52c.118-.14.309-.37.426-.515.117-.144.305-.371.422-.516.117-.144.305-.37.422-.515l.426-.512.422-.515.421-.508c.122-.145.309-.371.426-.512l.422-.508.426-.508.422-.504.422-.503c.117-.141.308-.364.425-.5.118-.141.305-.364.422-.5.117-.141.305-.36.422-.5.117-.137.309-.356.426-.493l.422-.496c.117-.136.304-.351.426-.488.117-.137.304-.355.421-.488l.422-.489.426-.48.422-.48c.117-.133.305-.348.422-.477.117-.133.308-.344.426-.477.117-.129.304-.34.422-.472.117-.13.304-.336.421-.469.121-.129.309-.336.426-.465l.422-.46c.117-.13.305-.333.426-.458.117-.129.305-.332.422-.457.117-.125.304-.328.422-.453.117-.125.308-.324.425-.445.118-.125.305-.325.422-.446.117-.12.305-.32.422-.441.117-.121.309-.316.426-.438.117-.117.305-.312.422-.43.117-.12.304-.312.422-.429.12-.117.308-.309.425-.426.118-.117.305-.304.422-.418.117-.117.309-.304.426-.418l.422-.41.422-.41c.117-.11.308-.289.426-.402.117-.11.304-.29.421-.399.118-.11.305-.285.422-.39.121-.11.309-.282.426-.391l.422-.383c.117-.105.305-.273.426-.379.117-.105.304-.273.422-.375l.422-.367.425-.367c.118-.098.305-.258.422-.356.117-.101.305-.257.422-.355.117-.098.309-.25.426-.348.117-.097.305-.25.422-.343l.422-.336c.12-.094.308-.243.425-.332l.422-.325.426-.324.422-.312.422-.309c.117-.086.308-.219.426-.305l.421-.296.422-.293.426-.286c.117-.078.305-.199.422-.277.117-.078.305-.2.426-.273.117-.075.304-.196.422-.266.117-.074.304-.191.422-.262l.425-.254.422-.25.422-.242c.117-.066.309-.172.426-.234.117-.067.305-.168.422-.23.117-.063.304-.16.422-.223.12-.059.308-.157.425-.215l.422-.211.426-.203c.117-.055.305-.14.422-.196.117-.05.305-.136.422-.187l.426-.184c.117-.05.304-.129.421-.175.118-.047.305-.125.422-.168.117-.047.309-.121.426-.164l.422-.157c.117-.043.305-.105.422-.148l.426-.14c.117-.04.304-.098.421-.137.118-.036.31-.09.426-.125.117-.036.305-.09.422-.122.117-.035.305-.082.422-.113.117-.031.309-.078.426-.11l.422-.097c.117-.027.304-.066.422-.094.12-.023.308-.062.425-.086.118-.02.305-.054.422-.078l.426-.07c.117-.02.305-.047.422-.063.117-.019.305-.042.422-.058.117-.016.308-.035.426-.05l.421-.044c.118-.008.305-.023.422-.035l.426-.027c.117-.008.305-.016.422-.02l.422-.016.426-.003c.117-.004.304 0 .421 0 .118 0 .31.003.426.007.117.004.305.008.422.016.117.004.305.016.422.02.117.007.309.023.426.03a15.346 15.346 0 0 1 .844.083c.117.012.308.035.425.05.117.012.305.04.422.055.117.02.305.047.426.067.117.02.305.05.422.074.117.02.305.055.422.078l.425.086c.118.027.305.066.422.094.118.027.305.074.422.101.117.032.309.078.426.11.117.03.305.082.422.113l.422.125c.12.031.308.09.426.129.117.035.304.094.421.133.118.039.305.105.426.144.117.04.305.106.422.149l.422.156c.117.047.309.117.426.164.117.047.304.125.422.172.117.047.304.129.421.176.118.05.31.132.426.183.117.055.305.137.422.192.117.054.305.144.426.199.117.055.305.144.422.203l.422.21c.117.06.308.157.425.22.118.058.305.16.422.222.118.063.305.164.422.23a23.01 23.01 0 0 1 .848.481 23.575 23.575 0 0 1 .848.504c.117.07.304.188.421.262.118.074.305.191.426.27.117.074.305.195.422.273.117.078.305.199.422.281.117.078.309.203.426.285.117.078.304.211.422.293l.421.297c.118.086.309.219.426.305l.422.308c.117.09.305.23.422.317.121.09.309.234.426.324l.422.324c.117.094.308.242.425.336.118.09.305.242.422.336.117.094.305.25.422.344.117.097.309.25.426.347l.422.356c.117.102.305.262.422.36l.425.367c.118.101.305.265.422.367.118.105.305.273.426.375.117.105.305.273.422.383l.422.382c.117.11.308.282.426.391l.422.394c.117.11.304.286.421.399.118.11.309.289.426.402l.422.41.422.41c.121.118.309.301.426.419l.422.421c.117.118.308.305.425.426.118.117.305.309.422.43.117.117.305.312.422.433.117.122.309.313.426.438.117.121.305.316.422.441.117.121.304.32.422.446.117.12.308.32.425.445.118.125.305.328.422.453.118.125.305.328.426.457.117.125.305.332.422.461.117.125.305.332.422.461l.426.465c.117.129.304.34.422.469.117.132.304.343.421.472.118.133.309.344.426.477l.422.476.422.48.426.485c.117.133.304.352.422.485.117.136.304.355.425.492.118.133.305.351.422.488.117.137.305.356.422.496.117.137.309.356.426.496l.422.496c.117.137.304.36.422.5.117.141.308.364.425.5l.422.504.422.508c.121.14.309.363.426.508l.422.508.426.508c.117.144.304.37.421.511.118.145.305.371.422.516.118.14.309.371.426.512.117.144.305.37.422.515.117.145.305.371.422.516.121.144.308.375.426.515l.422.52c.117.145.304.375.425.52.118.14.305.375.422.515.117.145.305.38.422.52l.426.523c.117.14.305.375.422.52l.422.52c.117.144.308.374.425.519l.422.52.422.519c.121.144.309.379.426.523.117.14.305.375.422.52.117.14.308.375.426.515l.421.52.422.52.426.515.422.52c.117.14.305.37.422.515l.426.512.422.516c.117.14.304.37.425.511.117.14.305.371.422.512l.422.508.426.508.422.507.422.504c.117.141.308.364.425.504.118.14.305.364.422.5.117.14.305.364.422.5.121.137.309.36.426.496.117.141.305.36.422.496.117.137.304.356.426.493l.421.492c.118.133.305.351.422.484.117.137.309.352.426.488l.422.48.422.481c.117.133.308.344.426.477l.421.477c.118.128.305.34.426.468l.422.469.422.465c.117.129.309.332.426.46.117.13.304.333.422.458.117.129.304.328.422.457.117.125.308.324.425.45l.422.448c.117.121.305.32.422.442l.426.441c.117.121.305.317.422.434.117.12.304.316.426.433.117.121.304.309.421.43l.422.422.426.422c.117.113.305.3.422.414l.422.41c.117.113.308.293.426.406.117.114.304.293.421.403.118.109.305.289.422.398.121.11.309.285.426.39.117.11.305.282.422.391l.426.383c.117.106.304.274.422.375.117.106.304.274.422.375l.425.367.422.364c.117.101.305.257.422.359.117.098.309.254.426.351.117.098.305.25.422.348.117.094.304.246.425.34.118.094.305.246.422.336.118.094.305.242.422.332l.426.324c.117.09.305.23.422.32l.422.313.426.309c.117.086.304.218.421.3.118.086.305.215.422.297.121.082.309.211.426.293l.422.281c.117.079.305.204.426.282l.422.27c.117.073.304.195.421.265.118.074.31.191.426.262l.422.253c.117.067.305.18.422.247l.426.242c.117.062.304.168.422.234.117.063.304.164.425.227l.422.222c.118.059.305.153.422.215.117.059.309.149.426.207l.422.2c.117.058.305.144.422.195.117.054.308.136.426.191l.421.18a19.305 19.305 0 0 0 .848.344c.117.043.305.117.422.16.117.043.305.113.426.152.117.043.304.11.422.149l.421.14c.118.04.309.098.426.133.117.039.305.094.422.129.117.031.305.086.422.117l.426.113c.117.032.304.078.422.106l.422.097c.12.028.308.067.425.094.117.024.305.059.422.082.117.024.309.059.426.078l.422.07c.117.016.305.048.422.063l.425.055c.118.016.305.035.422.047.118.015.305.031.422.043.117.011.309.027.426.035l.422.027c.117.004.305.012.426.02l.422.011c.117 0 .304.004.421.004h.426l.422-.011.422-.016c.117-.004.309-.016.426-.023.117-.008.304-.02.422-.032.117-.007.304-.027.421-.039.122-.011.31-.031.426-.043l.422-.054c.117-.012.309-.04.426-.059.117-.016.305-.047.422-.066.117-.02.304-.051.422-.075a16.258 16.258 0 0 0 .847-.168c.118-.023.305-.066.422-.093l.426-.102c.117-.031.305-.078.422-.11.117-.03.305-.085.426-.116.117-.036.304-.09.422-.125l.421-.13c.118-.038.309-.097.426-.136.117-.04.305-.106.422-.145l.422-.152.426-.156c.117-.047.304-.121.422-.164l.421-.172a19.903 19.903 0 0 0 .848-.367c.117-.051.305-.137.426-.192.117-.054.305-.14.422-.199.117-.055.304-.144.422-.203l.425-.211c.118-.062.305-.156.422-.219l.422-.226c.117-.063.309-.164.426-.23l.422-.24c.117-.065.305-.175.426-.241l.421-.254.422-.254c.118-.074.309-.191.426-.266.117-.074.305-.191.422-.27.117-.073.305-.195.422-.273l.426-.28c.117-.079.304-.208.422-.29.117-.078.304-.21.421-.293.122-.082.309-.215.426-.3.117-.083.305-.22.422-.305.117-.086.305-.223.426-.309.117-.09.305-.23.422-.32.117-.086.304-.23.422-.32l.425-.329.422-.336c.117-.09.305-.242.422-.336.117-.097.309-.25.426-.347.117-.094.305-.25.422-.348.117-.098.304-.258.422-.355l.425-.36c.118-.101.305-.265.422-.367l.426-.371c.117-.106.305-.27.422-.375l.422-.383.426-.383c.117-.11.304-.285.421-.39.118-.11.305-.285.422-.399.118-.11.309-.285.426-.398.117-.113.305-.293.422-.403.117-.113.305-.296.426-.41.117-.113.304-.297.422-.414.117-.113.304-.3.422-.418.117-.117.308-.304.425-.422.118-.117.305-.308.422-.425.117-.118.305-.309.422-.43.117-.121.309-.313.426-.434l.422-.437c.117-.125.304-.32.422-.445.12-.122.308-.32.425-.446.118-.12.305-.324.422-.449l.426-.453c.117-.125.305-.328.422-.457.117-.125.305-.332.422-.457.117-.13.308-.336.426-.465l.421-.465c.118-.133.305-.34.422-.473.118-.128.309-.34.426-.472.117-.13.305-.34.422-.473.117-.133.305-.347.426-.48.117-.133.304-.348.422-.48l.422-.485c.117-.133.308-.352.425-.488a185605.87 185605.87 0 0 0 .844-.98c.117-.138.309-.356.426-.493l.422-.496c.117-.137.304-.36.422-.5.12-.137.308-.36.425-.5.118-.137.305-.36.422-.5.117-.14.305-.363.426-.504l.422-.508c.117-.14.305-.363.422-.508l.426-.508.421-.507c.118-.145.305-.371.422-.516.117-.14.309-.367.426-.512.117-.14.305-.37.422-.511.117-.145.305-.375.422-.516.12-.145.308-.375.426-.516l.421-.52.426-.515.422-.52.422-.519c.117-.144.309-.375.426-.52l.422-.519.422-.52c.117-.144.308-.374.425-.519l.422-.523c.117-.145.305-.375.426-.52l.422-.52.422-.519c.117-.145.308-.375.426-.52l.421-.52.422-.519c.117-.144.309-.375.426-.515l.422-.52c.117-.14.305-.37.422-.515.12-.145.308-.371.426-.516.117-.145.304-.371.421-.516.118-.14.31-.37.426-.511l.422-.512c.117-.14.305-.371.422-.512l.426-.508c.117-.14.304-.367.422-.507.117-.141.304-.368.422-.508l.425-.504.422-.504c.117-.137.305-.36.426-.5.117-.137.305-.36.422-.5l.422-.496c.117-.137.308-.356.425-.492l.422-.493c.118-.136.305-.355.422-.492l.426-.484c.117-.137.305-.352.422-.488l.422-.48.426-.481.421-.477c.118-.129.305-.34.426-.473.117-.128.305-.34.422-.468.117-.133.305-.34.422-.469l.426-.465.422-.46c.117-.126.304-.329.421-.458.118-.125.31-.328.426-.453l.422-.45.422-.448c.121-.121.309-.32.426-.442.117-.12.304-.32.422-.441.117-.121.308-.313.425-.434l.422-.43.422-.43.426-.421"/></g><use xlink:href="#f" x="59.582" y="28.552" fill="#7F7F7F"/><use xlink:href="#g" x="18.473" y="80.011"/><use xlink:href="#h" x="223.932" y="79.506"/><use xlink:href="#i" x="3.634" y="10.067"/></svg>