<svg xmlns="http://www.w3.org/2000/svg" xmlns:xlink="http://www.w3.org/1999/xlink" width="228.063" height="127.231"><defs><path id="d" d="M6.594-6.703H.547L.359-4.484h.25C.75-6.078.891-6.406 2.391-6.406c.172 0 .437 0 .53.031.204.031.204.14.204.375v5.219c0 .328 0 .469-1.031.469h-.406V0c.406-.031 1.421-.031 1.875-.031.453 0 1.484 0 1.89.031v-.312h-.406c-1.031 0-1.031-.141-1.031-.47V-6c0-.203 0-.344.172-.375.109-.031.375-.031.562-.031 1.5 0 1.656.328 1.781 1.922h.25Zm0 0"/><path id="e" d="M1.266-.766 2.313-1.78c1.546-1.375 2.14-1.906 2.14-2.89 0-1.141-.89-1.923-2.11-1.923C1.235-6.594.5-5.687.5-4.797c0 .547.484.547.516.547a.516.516 0 0 0 .515-.531c0-.25-.172-.516-.515-.516-.079 0-.11 0-.141.016.234-.64.766-1.016 1.344-1.016.906 0 1.328.813 1.328 1.625 0 .781-.5 1.578-1.047 2.188L.61-.36C.5-.25.5-.234.5 0h3.672l.281-1.719h-.25c-.047.297-.125.735-.219.875-.078.078-.718.078-.937.078Zm0 0"/><path id="f" d="M2.875-3.484c.813-.266 1.39-.97 1.39-1.75 0-.813-.874-1.36-1.827-1.36-1 0-1.75.594-1.75 1.344 0 .328.218.516.5.516.312 0 .5-.22.5-.5 0-.5-.454-.5-.61-.5.313-.485.969-.61 1.313-.61.406 0 .953.219.953 1.11 0 .109-.016.687-.266 1.125-.297.468-.64.5-.89.515-.079 0-.313.031-.391.031-.078 0-.14.016-.14.11 0 .11.062.11.234.11h.437c.813 0 1.172.671 1.172 1.656 0 1.343-.672 1.625-1.11 1.625-.421 0-1.171-.172-1.515-.75.344.046.656-.172.656-.547 0-.36-.265-.547-.562-.547-.235 0-.547.14-.547.562 0 .907.922 1.563 2 1.563 1.203 0 2.11-.906 2.11-1.906 0-.813-.626-1.594-1.657-1.797m0 0"/><path id="h" d="M2.047-3.969h.922c.203 0 .297 0 .297-.187 0-.11-.094-.11-.282-.11h-.859c.36-1.406.406-1.609.406-1.671 0-.172-.125-.266-.297-.266-.03 0-.296.016-.39.36l-.39 1.577H.53c-.203 0-.297 0-.297.188 0 .11.078.11.266.11h.875C.656-1.157.625-.985.625-.798c0 .531.375.906.906.906C2.547.11 3.11-1.344 3.11-1.42c0-.095-.078-.095-.125-.095-.078 0-.093.032-.14.141C2.422-.344 1.89-.109 1.563-.109c-.22 0-.313-.125-.313-.453 0-.235.016-.313.063-.485Zm0 0"/><path id="i" d="M6.297-5.719c.094-.406.266-.703 1.062-.734.047 0 .172-.016.172-.203 0-.016 0-.11-.125-.11-.328 0-.687.032-1.015.032-.344 0-.703-.032-1.032-.032-.062 0-.171 0-.171.204 0 .109.093.109.171.109.563 0 .672.219.672.437 0 .016-.015.172-.031.204l-.89 3.53C4.78-.952 3.64-.093 2.64-.093c-.671 0-1.203-.437-1.203-1.281 0-.016 0-.344.11-.781L2.5-6c.094-.36.11-.453.844-.453.25 0 .328 0 .328-.203 0-.11-.11-.11-.14-.11-.266 0-.985.032-1.266.032-.282 0-.985-.032-1.282-.032-.078 0-.187 0-.187.204 0 .109.094.109.281.109.016 0 .203 0 .375.016.188.015.266.03.266.156 0 .062-.11.468-.157.703l-.218.875c-.094.39-.578 2.25-.61 2.437-.078.282-.078.438-.078.579C.656-.47 1.563.218 2.61.218c1.25 0 2.47-1.125 2.797-2.422Zm0 0"/><clipPath id="a"><path d="M.219 75H221v1H.219Zm0 0"/></clipPath><clipPath id="b"><path d="M214 68h12.914v15H214Zm0 0"/></clipPath><clipPath id="c"><path d="M26 16h2v110.465h-2Zm0 0"/></clipPath><clipPath id="g"><path d="M.418 33H33v85H.418Zm0 0"/></clipPath></defs><path fill="none" stroke="#7F7F7F" stroke-miterlimit="10" stroke-width=".19780401000000003" d="M80.062 77.484v-4.226m53.094 4.226v-4.226m53.098 4.226v-4.226"/><g clip-path="url(#a)"><path fill="none" stroke="#000" stroke-miterlimit="10" stroke-width=".39660201000000006" d="M.418 75.371h219.55"/></g><path d="m223.023 75.371-2.957-1.754v3.504Zm0 0"/><g clip-path="url(#b)"><path fill="none" stroke="#000" stroke-miterlimit="10" stroke-width=".39660201000000006" d="m223.023 75.371-2.957-1.754v3.504Zm0 0"/></g><g clip-path="url(#c)"><path fill="none" stroke="#000" stroke-miterlimit="10" stroke-width=".39660201000000006" d="M26.965 126.27V17.016"/></g><path stroke="#000" stroke-miterlimit="10" stroke-width=".39660201000000006" d="m26.965 13.96-1.754 2.958h3.508Zm0 0"/><use xlink:href="#d" x="76.484" y="87.75"/><use xlink:href="#e" x="127.103" y="87.75"/><use xlink:href="#d" x="132.055" y="87.75"/><use xlink:href="#f" x="180.199" y="87.75"/><use xlink:href="#d" x="185.15" y="87.75"/><g clip-path="url(#g)"><path fill="none" stroke="#000" stroke-dasharray="2.9708671317000004 2.9708671317000004" stroke-miterlimit="10" stroke-width=".39660201000000006" d="M-26.129 39.012s.383.035.531.074c.145.039.383.133.528.215.148.078.386.238.53.355.15.121.388.34.532.5.149.157.383.442.531.637.149.195.383.539.532.773.148.235.383.637.53.907.15.27.384.73.532 1.039.149.304.383.82.531 1.16.149.34.383.914.532 1.285.148.371.383.996.53 1.398.145.407.384 1.079.532 1.512.145.434.383 1.153.531 1.613.145.465.383 1.227.532 1.715.144.489.383 1.293.527 1.805.148.512.387 1.355.531 1.89.149.532.387 1.41.532 1.965.148.555.386 1.461.53 2.036.15.574.384 1.507.532 2.093.148.59.383 1.547.531 2.153.149.601.383 1.578.532 2.191.148.613.382 1.606.53 2.23.15.622.384 1.626.532 2.255.148.628.383 1.64.531 2.273.145.633.383 1.648.532 2.285.144.633.382 1.649.53 2.281.145.633.384 1.645.532 2.274.145.629.383 1.633.527 2.258.149.62.387 1.613.532 2.226.148.613.386 1.594.53 2.195.15.602.388 1.56.532 2.149.149.59.383 1.523.531 2.094.149.574.383 1.48.532 2.035.148.558.382 1.433.53 1.969.15.535.384 1.375.532 1.886a132.754 132.754 0 0 0 1.062 3.52c.15.46.383 1.18.532 1.613a60.92 60.92 0 0 0 1.062 2.91c.145.375.383.946.528 1.285.148.34.386.86.531 1.164.148.305.387.766.531 1.036.149.27.387.675.531.906.149.234.383.578.532.773.148.196.383.48.531.64.148.157.383.38.531.497.149.117.383.277.531.36.149.078.383.171.532.214.148.04.383.07.531.07.148 0 .383-.03.531-.07a3.52 3.52 0 0 0 .531-.215c.145-.082.383-.242.532-.359.144-.117.383-.34.527-.496.148-.16.387-.445.531-.64.149-.196.387-.54.532-.774.148-.23.386-.637.53-.906.15-.27.384-.73.532-1.036a37.38 37.38 0 0 0 1.063-2.449c.148-.37.382-.996.53-1.398a82.587 82.587 0 0 0 1.063-3.125c.149-.461.383-1.227.532-1.715.144-.488.382-1.29.53-1.805.145-.511.384-1.351.532-1.886.145-.536.383-1.41.531-1.97.145-.554.383-1.46.528-2.034.148-.57.386-1.504.53-2.094.15-.59.388-1.547.532-2.149.149-.601.383-1.582.531-2.195.149-.613.383-1.605.532-2.226.148-.625.382-1.63.53-2.258.15-.63.384-1.64.532-2.274.149-.632.383-1.648.531-2.28.149-.638.383-1.653.532-2.286.148-.633.382-1.645.53-2.273.145-.63.384-1.633.532-2.254.145-.625.383-1.618.531-2.23.145-.614.383-1.59.532-2.192.144-.606.382-1.563.527-2.153.148-.586.387-1.52.531-2.093l.531-2.036A202.743 202.743 0 0 1 19 54c.15-.512.384-1.316.532-1.805.149-.488.383-1.25.531-1.715.149-.46.383-1.18.532-1.613.148-.433.383-1.105.531-1.512.148-.402.383-1.027.531-1.398.145-.371.383-.945.531-1.285.145-.34.383-.856.532-1.16a20.72 20.72 0 0 1 1.059-1.945c.148-.235.386-.579.53-.774.149-.195.387-.48.532-.637.148-.16.387-.379.531-.5.149-.117.383-.277.531-.355.149-.082.383-.176.532-.215.148-.04.53-.074.53-.074"/></g><path fill="none" stroke="#000" stroke-miterlimit="10" stroke-width=".39660201000000006" d="M26.965 39.012s.383.035.531.074c.149.039.383.133.531.215.149.078.383.238.532.355.148.121.382.34.53.5.145.157.384.442.532.637.145.195.383.539.531.773a20.719 20.719 0 0 1 1.059 1.946c.148.304.387.82.531 1.16.149.34.387.914.531 1.285.149.371.383.996.532 1.398.148.407.382 1.079.53 1.512.15.434.384 1.153.532 1.613.149.465.383 1.227.531 1.715.149.489.383 1.293.532 1.805.148.512.382 1.355.53 1.89.15.532.384 1.41.532 1.965.145.555.383 1.461.531 2.036l.532 2.093c.144.59.382 1.547.53 2.153.145.601.384 1.578.528 2.191.149.613.387 1.606.532 2.23.148.622.386 1.626.53 2.255.15.628.384 1.64.532 2.273l.531 2.285c.149.633.383 1.649.532 2.281.148.633.382 1.645.53 2.274.15.629.384 1.633.532 2.258.148.62.383 1.613.531 2.226.149.613.383 1.594.532 2.195.144.602.382 1.56.53 2.149.145.59.384 1.523.532 2.094.145.574.383 1.48.531 2.035.145.558.383 1.433.528 1.969.148.535.386 1.375.53 1.886.15.516.388 1.317.532 1.805.149.488.387 1.254.531 1.715a82.587 82.587 0 0 0 1.062 3.125c.15.402.384 1.027.532 1.398a37.38 37.38 0 0 0 1.062 2.45c.15.304.383.765.532 1.035.144.27.383.675.531.906.145.234.383.578.531.773.145.196.383.48.532.64.144.157.382.38.527.497.148.117.387.277.531.36.149.078.387.171.531.214.149.04.387.07.532.07.148 0 .383-.03.531-.07.148-.043.383-.136.531-.215.149-.082.383-.242.531-.359a6.17 6.17 0 0 0 .532-.496c.148-.16.383-.445.531-.64.148-.196.383-.54.531-.774.149-.23.383-.637.531-.906.145-.27.383-.73.532-1.036.144-.304.383-.824.531-1.164.144-.34.383-.91.527-1.285a60.92 60.92 0 0 0 1.062-2.91 78.41 78.41 0 0 0 .532-1.613 132.754 132.754 0 0 0 1.063-3.52 201.58 201.58 0 0 0 1.593-5.89c.149-.57.383-1.504.532-2.094.148-.59.382-1.547.53-2.149l.532-2.195c.145-.613.383-1.605.531-2.226.145-.625.383-1.63.528-2.258.148-.63.386-1.64.53-2.274.15-.632.388-1.648.532-2.28.149-.638.387-1.653.531-2.286.149-.633.383-1.645.532-2.273.148-.63.382-1.633.53-2.254.15-.625.384-1.618.532-2.23.149-.614.383-1.59.531-2.192.149-.606.383-1.563.532-2.153.148-.586.382-1.52.53-2.093.15-.575.384-1.48.532-2.036.145-.554.383-1.433.531-1.964.145-.536.383-1.38.532-1.891a113.8 113.8 0 0 1 .53-1.805c.145-.488.384-1.25.528-1.715.149-.46.387-1.18.531-1.613.149-.433.387-1.105.532-1.512a67.2 67.2 0 0 1 .531-1.398c.148-.371.383-.945.531-1.285.149-.34.383-.856.531-1.16.149-.309.383-.77.532-1.04.148-.269.383-.671.531-.906.148-.234.383-.578.531-.773.149-.195.383-.48.531-.637.145-.16.383-.379.532-.5.144-.117.383-.277.531-.355.145-.082.383-.176.531-.215.145-.04.383-.074.528-.074.148 0 .386.035.53.074.15.039.388.133.532.215.149.078.387.238.531.355.149.121.383.34.532.5.148.157.382.442.53.637.15.195.384.539.532.773.149.235.383.637.531.907.149.27.383.73.532 1.039.148.304.382.82.53 1.16.145.34.384.914.532 1.285.145.371.383.996.531 1.398.145.407.383 1.079.532 1.512a113.028 113.028 0 0 1 1.058 3.328c.149.489.387 1.293.531 1.805.149.512.387 1.355.532 1.89.148.532.382 1.41.53 1.965.15.555.384 1.461.532 2.036.149.574.383 1.507.531 2.093.149.59.383 1.547.532 2.153.148.601.382 1.578.53 2.191.15.613.384 1.606.532 2.23.149.622.383 1.626.531 2.255.145.628.383 1.64.532 2.273.144.633.382 1.648.53 2.285.145.633.384 1.649.528 2.281.149.633.387 1.645.532 2.274.148.629.386 1.633.53 2.258.15.62.387 1.613.532 2.226.148.613.383 1.594.531 2.195.149.602.383 1.56.532 2.149.148.59.382 1.523.53 2.094.15.574.384 1.48.532 2.035a201.58 201.58 0 0 0 1.062 3.855c.149.516.383 1.317.532 1.805.144.488.383 1.254.531 1.715a78.415 78.415 0 0 0 1.59 4.523c.148.375.387.946.531 1.285.149.34.387.86.531 1.164.149.305.383.766.532 1.036.148.27.382.675.53.906.15.234.384.578.532.773.149.196.383.48.531.64.149.157.383.38.532.497.148.117.382.277.53.36.15.078.384.171.532.214.145.04.383.07.531.07.145 0 .383-.03.532-.07a3.52 3.52 0 0 0 .53-.215c.145-.082.384-.242.528-.359.149-.117.387-.34.531-.496.149-.16.387-.445.532-.64.148-.196.386-.54.53-.774.15-.23.384-.637.532-.906.149-.27.383-.73.531-1.036a37.377 37.377 0 0 0 1.063-2.449c.148-.37.383-.996.531-1.398a82.58 82.58 0 0 0 1.063-3.125c.144-.461.383-1.227.53-1.715.145-.488.384-1.29.532-1.805.145-.511.383-1.351.528-1.886.148-.536.386-1.41.53-1.97.15-.554.388-1.46.532-2.034.148-.57.387-1.504.531-2.094.149-.59.383-1.547.532-2.149.148-.601.382-1.582.53-2.195.15-.613.384-1.605.532-2.226l.531-2.258c.149-.63.383-1.64.532-2.274.148-.632.382-1.648.53-2.28.15-.638.384-1.653.532-2.286.145-.633.383-1.645.531-2.273.145-.63.383-1.633.532-2.254.144-.625.382-1.618.527-2.23.148-.614.387-1.59.531-2.192.149-.606.387-1.563.531-2.153l.532-2.093c.148-.575.382-1.48.53-2.036.15-.554.384-1.433.532-1.964.149-.536.383-1.38.531-1.891.149-.512.383-1.316.532-1.805.148-.488.382-1.25.53-1.715.15-.46.384-1.18.532-1.613.149-.433.383-1.105.531-1.512a50.569 50.569 0 0 1 1.063-2.683 29.833 29.833 0 0 1 1.058-2.2c.149-.269.387-.671.532-.906.148-.234.386-.578.531-.773.148-.195.383-.48.531-.637.149-.16.383-.379.531-.5.149-.117.383-.277.532-.355.148-.082.383-.176.531-.215.148-.04.383-.074.531-.074.149 0 .383.035.531.074.149.039.383.133.532.215.144.078.383.238.531.355.145.121.383.34.531.5.145.157.383.442.531.637.145.195.383.539.528.773.148.235.387.637.531.907a29.833 29.833 0 0 1 1.062 2.2c.149.339.383.913.532 1.284.148.371.383.996.531 1.398.149.407.383 1.079.531 1.512.149.434.383 1.153.532 1.613.148.465.382 1.227.53 1.715.15.489.384 1.293.532 1.805.145.512.383 1.355.531 1.89.145.532.383 1.41.532 1.965.144.555.382 1.461.53 2.036.145.574.384 1.507.528 2.093.149.59.387 1.547.531 2.153.149.601.387 1.578.532 2.191.148.613.386 1.606.53 2.23.15.622.384 1.626.532 2.255.149.628.383 1.64.531 2.273.149.633.383 1.648.532 2.285.148.633.382 1.649.53 2.281.15.633.384 1.645.532 2.274.149.629.383 1.633.531 2.258.145.62.383 1.613.532 2.226.144.613.382 1.594.53 2.195.145.602.384 1.56.532 2.149.145.59.383 1.523.528 2.094.148.574.386 1.48.53 2.035l.532 1.969c.148.535.387 1.375.531 1.886a132.739 132.739 0 0 0 1.062 3.52c.15.46.384 1.18.532 1.613.148.434.383 1.11.531 1.512.149.402.383 1.027.532 1.398a37.382 37.382 0 0 0 1.062 2.45c.145.304.383.765.531 1.035.145.27.383.675.532.906.144.234.382.578.527.773.148.196.387.48.531.64.149.157.387.38.531.497.149.117.387.277.532.36.148.078.382.171.53.214.15.04.384.07.532.07.149 0 .383-.03.531-.07.149-.043.383-.136.532-.215.148-.082.382-.242.53-.359a6.17 6.17 0 0 0 .532-.496c.149-.16.383-.445.531-.64.145-.196.383-.54.532-.774.144-.23.382-.637.53-.906.145-.27.384-.73.532-1.036.145-.304.383-.824.527-1.164a50.568 50.568 0 0 0 1.062-2.684 82.58 82.58 0 0 0 1.063-3.124 132.739 132.739 0 0 0 1.063-3.52 201.55 201.55 0 0 0 1.594-5.89c.144-.57.382-1.504.53-2.094.145-.59.384-1.547.532-2.149l.531-2.195c.145-.613.383-1.605.528-2.226.148-.625.386-1.63.531-2.258.148-.63.387-1.64.531-2.274.149-.632.387-1.648.532-2.28.148-.638.382-1.653.53-2.286.15-.633.384-1.645.532-2.273.148-.63.383-1.633.531-2.254.149-.625.383-1.618.532-2.23.148-.614.382-1.59.53-2.192.15-.606.384-1.563.532-2.153.145-.586.383-1.52.531-2.093.145-.575.383-1.48.532-2.036.144-.554.382-1.433.53-1.964.145-.536.384-1.38.528-1.891.149-.512.387-1.316.531-1.805.149-.488.387-1.25.532-1.715.148-.46.386-1.18.53-1.613.15-.433.384-1.105.532-1.512.149-.402.383-1.027.531-1.398.149-.371.383-.945.532-1.285.148-.34.382-.856.53-1.16.15-.309.384-.77.532-1.04.149-.269.383-.671.531-.906.149-.234.383-.578.532-.773a8.18 8.18 0 0 1 .53-.637c.145-.16.384-.379.532-.5.145-.117.383-.277.527-.355.149-.082.387-.176.532-.215.148-.04.531-.074.531-.074"/><path fill="none" stroke="#000" stroke-dasharray="2.9708671317000004 2.9708671317000004" stroke-miterlimit="10" stroke-width=".39660201000000006" d="M186.25 39.012s.387.035.531.074c.149.039.383.133.531.215.149.078.383.238.532.355.148.121.383.34.531.5.148.157.383.442.531.637.149.195.383.539.531.773.149.235.383.637.532.907.148.27.383.73.531 1.039.144.304.383.82.531 1.16.145.34.383.914.531 1.285.145.371.383.996.532 1.398a94.862 94.862 0 0 1 1.59 4.84c.148.489.382 1.293.53 1.805.15.512.384 1.355.532 1.89.148.532.383 1.41.531 1.965.149.555.383 1.461.532 2.036.148.574.382 1.507.53 2.093.15.59.384 1.547.532 2.153.148.601.383 1.578.531 2.191.145.613.383 1.606.532 2.23.144.622.382 1.626.53 2.255.145.628.384 1.64.532 2.273.145.633.383 1.648.527 2.285.149.633.387 1.649.532 2.281.148.633.386 1.645.53 2.274.15.629.388 1.633.532 2.258.149.62.383 1.613.531 2.226.149.613.383 1.594.532 2.195.148.602.382 1.56.53 2.149.15.59.384 1.523.532 2.094.149.574.383 1.48.531 2.035.149.558.383 1.433.532 1.969.144.535.382 1.375.53 1.886.145.516.384 1.317.532 1.805a113.011 113.011 0 0 0 1.059 3.328c.148.434.386 1.11.531 1.512.148.402.387 1.027.531 1.398.149.375.387.946.531 1.285.149.34.383.86.532 1.164.148.305.383.766.531 1.036.148.27.383.675.531.906.149.234.383.578.531.773.149.196.383.48.532.64.148.157.383.38.531.497.145.117.383.277.531.36.145.078.383.171.531.214.145.04.532.07.532.07"/><use xlink:href="#h" x="216.342" y="84.96"/><use xlink:href="#i" x="15.625" y="10.067"/></svg>