<svg xmlns="http://www.w3.org/2000/svg" width="198.381" height="162.185"><defs><clipPath id="a"><path d="M.188 0H194v161.375H.188Zm0 0"/></clipPath><clipPath id="b"><path d="M.188 0H195v161.375H.188Zm0 0"/></clipPath><clipPath id="c"><path d="M.586.395h193.297v160.582H.586Zm0 0"/></clipPath></defs><g fill="none" stroke="#000" stroke-miterlimit="10" stroke-width=".199" clip-path="url(#a)"><path stroke-width=".19800500000000001" d="M.586 160.977V.395m27.613 160.582V.395m27.613 160.582V.395m27.614 160.582V.395m27.613 160.582V.395m27.613 160.582V.395m27.618 160.582V.395m27.613 160.582V.395M.586 160.977h193.297M.586 134.215h193.297M.586 107.449h193.297M.586 80.688h193.297M.586 53.922h193.297M.586 27.16h193.297M.586.395h193.297"/></g><g clip-path="url(#b)"><path fill="none" stroke="#000" stroke-miterlimit="10" stroke-width=".793015" d="M.586 160.977V.395h193.297v160.582Zm0 0"/></g><g clip-path="url(#c)"><path fill="none" stroke="#000" stroke-miterlimit="10" stroke-width="1.58603" d="M.586 80.688s.7-9.891.969-13.567c.27-3.68.703-9.52.972-12.941.27-3.422.7-8.711.97-11.73.269-3.02.702-7.54.972-10.044.27-2.504.703-6.093.972-8.008.27-1.918.7-4.5.97-5.796.269-1.301.702-2.868.972-3.567.27-.7.703-1.316.972-1.476.27-.164.7.03.97.312.269.281.702 1.102.972 1.703.27.602.703 1.84.973 2.633.27.793.699 2.223.968 3.074.27.848.703 2.258.973 3.047.27.79.703 2 .973 2.629.27.633.699 1.512.968 1.922.27.41.703.875.973 1.031.27.156.703.188.973.094s.699-.457.968-.766c.27-.308.704-.988.973-1.453.27-.469.703-1.351.973-1.898.27-.547.699-1.5.968-2.051.27-.55.704-1.441.973-1.918.27-.48.703-1.188.973-1.535.27-.344.699-.79.969-.961.27-.172.703-.297.972-.281.27.02.703.21.973.406.27.2.7.676.969 1.02.27.343.703 1.023.972 1.464.27.442.703 1.235.973 1.707.27.473.7 1.262.969 1.7.27.44.703 1.117.972 1.46.27.344.703.82.973 1.028.27.203.7.41.969.445.27.035.703-.055.972-.195.27-.137.704-.508.973-.801.27-.293.7-.898.969-1.309.27-.406.703-1.164.972-1.628.27-.47.704-1.274.973-1.735.27-.46.7-1.2.969-1.59.27-.39.703-.96.973-1.222.269-.262.703-.575.972-.664.27-.094.7-.098.969 0 .27.093.703.414.973.695.27.277.703.887.972 1.32.27.43.7 1.258.969 1.79.27.53.703 1.476.973 2.034.27.559.703 1.485.972 1.993.27.507.7 1.285.969 1.664.27.379.703.886.973 1.07.27.187.703.32.972.27.27-.055.7-.348.97-.657.269-.308.702-1.031.972-1.578.27-.547.703-1.64.972-2.375.27-.734.7-2.082.97-2.922.269-.836.702-2.285.972-3.117.27-.828.703-2.172.972-2.863.27-.696.7-1.711.97-2.137.269-.426.702-.898.972-.926.27-.027.703.242.973.715.27.477.699 1.649.968 2.703.27 1.051.703 3.219.973 4.887.27 1.668.703 4.86.973 7.133.27 2.273.699 6.437.968 9.262.27 2.824.703 7.824.973 11.101.27 3.277.7 8.922.969 12.52.27 3.593.703 9.636.972 13.386.27 3.75.704 9.91.973 13.645.27 3.73.7 9.723.969 13.265.27 3.543.703 9.082.972 12.282.27 3.195.704 8.047.973 10.77.27 2.722.7 6.698.969 8.859.27 2.156.703 5.152.973 6.699.27 1.547.703 3.515.972 4.45.27.937.7 1.92.969 2.292.27.367.703.477.973.363.27-.117.703-.71.972-1.199.27-.488.7-1.586.969-2.316.27-.735.703-2.114.973-2.957.27-.84.703-2.282.972-3.11.27-.824.7-2.136.97-2.84.269-.703.702-1.73.972-2.234s.703-1.14.972-1.402c.27-.258.7-.461.97-.465.269-.008.702.207.972.433.27.227.703.793.972 1.208.27.41.7 1.23.97 1.753.269.524.702 1.465.972 2.024.27.558.703 1.484.972 2 .27.515.7 1.312.97 1.719.269.406.702.964.972 1.207.27.246.703.504.973.562.27.059.699-.008.968-.137.27-.128.703-.496.973-.785.27-.293.703-.902.973-1.312.27-.407.699-1.168.968-1.637.27-.469.704-1.27.973-1.73.27-.461.703-1.196.973-1.582.27-.391.699-.961.968-1.223.27-.266.704-.586.973-.692a1.88 1.88 0 0 1 .973-.066c.27.07.699.332.968.566.27.235.704.754.973 1.125.27.368.703 1.075.973 1.528.27.449.699 1.25.969 1.719.27.472.703 1.25.972 1.675.27.426.703 1.075.973 1.395.27.316.7.742.969.91.27.164.703.293.972.273.27-.02.703-.21.973-.417.27-.208.7-.708.969-1.083.27-.375.703-1.128.972-1.628.27-.497.703-1.41.973-1.97.27-.554.7-1.5.969-2.038.27-.54.703-1.39.972-1.832.27-.438.704-1.07.973-1.34.27-.27.7-.563.969-.61.27-.042.703.07.972.278.27.207.704.758.973 1.215.27.453.7 1.406.969 2.074.27.668.703 1.934.973 2.742.27.809.703 2.238.972 3.086.27.848.7 2.258.969 3.023.27.766.703 1.938.973 2.489.27.547.699 1.265.968 1.468.27.204.703.25.973-.011.27-.258.703-1.055.973-1.867.27-.813.699-2.575.968-3.993.27-1.421.704-4.203.973-6.238.27-2.035.703-5.816.973-8.43.27-2.613.699-7.293.968-10.406.27-3.11.704-8.523.973-12.008.27-3.484.703-9.402.973-13.109.27-3.707.699-9.855.969-13.617.27-3.762.703-9.852.972-13.492.27-3.641.703-9.391.973-12.746.27-3.356.7-8.504.969-11.434.27-2.926.703-7.274.972-9.668.27-2.395.703-5.79.973-7.586.27-1.793.7-4.176.969-5.352.27-1.18.703-2.55.972-3.14.27-.59.703-1.035.973-1.102.27-.066.7.266.969.621.27.352.703 1.274.972 1.926.27.649.703 1.942.973 2.754.27.813.7 2.254.969 3.102.27.843.703 2.234.972 2.996.27.765.704 1.922.973 2.511.27.594.7 1.395.969 1.754.27.364.703.743.973.848.269.11.703.059.972-.082.27-.137.7-.574.969-.918.27-.344.703-1.078.973-1.562.27-.489.703-1.395.972-1.95.27-.554.7-1.504.969-2.047.27-.543.703-1.406.973-1.863.27-.457.703-1.121.972-1.433.27-.317.7-.696.969-.832.27-.133.703-.196.973-.141.27.05.703.3.972.531.27.23.7.754.97 1.121.269.371.702 1.082.972 1.531.27.454.703 1.25.972 1.723.27.469.7 1.246.97 1.672.269.426.702 1.07.972 1.395.27.32.703.746.972.918.27.171.7.32.97.32.269 0 .702-.145.972-.317.27-.168.703-.593.973-.91.27-.32.699-.965.968-1.39.27-.422.703-1.2.973-1.672.27-.469.703-1.27.973-1.719.27-.453.699-1.164.968-1.535.27-.371.703-.899.973-1.13.27-.23.703-.483.973-.538.27-.055.699.004.968.137.27.132.704.511.973.824.27.312.703.972.973 1.43.27.457.699 1.316.968 1.859.27.539.704 1.488.973 2.043.27.555.703 1.465.973 1.953s.699 1.223.969 1.57c.27.348.703.785.972.926.27.14.703.195.973.09.27-.102.7-.477.969-.836.27-.36.703-1.156.972-1.746.27-.59.703-1.742.973-2.504.27-.766.7-2.148.969-2.996.27-.844.703-2.29.972-3.102.27-.812.7-2.11.97-2.761.269-.653.702-1.582.972-1.938.27-.355.703-.695.972-.633.27.063.7.496.97 1.082.269.582.702 1.946.972 3.118.27 1.171.703 3.539.972 5.328.27 1.789.7 5.175.97 7.566.269 2.387.702 6.727.972 9.648.27 2.922.703 8.063.972 11.415.27 3.351.7 9.097.97 12.738.269 3.637.972 13.484.972 13.484"/></g></svg>