<svg xmlns="http://www.w3.org/2000/svg" xmlns:xlink="http://www.w3.org/1999/xlink" width="228.063" height="84.715"><defs><path id="c" d="M6.61-6.719H.546L.359-4.484h.25C.75-6.078.891-6.406 2.391-6.406c.172 0 .437 0 .53.015.22.047.22.157.22.375V-.78c0 .328 0 .469-1.047.469h-.39V0c.405-.031 1.405-.031 1.874-.031.453 0 1.469 0 1.875.031v-.312h-.39c-1.047 0-1.047-.141-1.047-.47v-5.234c0-.203 0-.328.187-.375.11-.015.375-.015.563-.015 1.5 0 1.64.328 1.78 1.922h.25Zm0 0"/><path id="d" d="M1.266-.766 2.313-1.78c1.546-1.375 2.14-1.906 2.14-2.907 0-1.125-.89-1.921-2.11-1.921C1.235-6.61.5-5.687.5-4.812c0 .562.484.562.516.562a.516.516 0 0 0 .515-.531c0-.266-.172-.516-.515-.516-.079 0-.11 0-.125.016.218-.657.75-1.016 1.328-1.016.906 0 1.328.797 1.328 1.61 0 .796-.485 1.578-1.031 2.203L.609-.36C.5-.266.5-.234.5 0h3.672l.281-1.719h-.25c-.047.297-.11.735-.219.875-.062.078-.718.078-.937.078Zm0 0"/><path id="e" d="M2.875-3.5c.813-.266 1.39-.953 1.39-1.734 0-.813-.874-1.375-1.827-1.375-1 0-1.75.593-1.75 1.343 0 .329.218.516.5.516.312 0 .515-.203.515-.5 0-.5-.469-.5-.625-.5.313-.484.969-.61 1.328-.61.406 0 .953.22.953 1.11 0 .125-.03.703-.28 1.125-.298.484-.642.516-.892.516a3.306 3.306 0 0 1-.374.03c-.094.017-.157.032-.157.126 0 .11.063.11.235.11h.437c.813 0 1.188.671 1.188 1.64 0 1.36-.688 1.64-1.125 1.64-.422 0-1.172-.171-1.516-.75.344.047.656-.171.656-.546 0-.36-.265-.563-.562-.563-.235 0-.547.14-.547.578 0 .907.922 1.563 2 1.563 1.203 0 2.11-.906 2.11-1.922 0-.813-.626-1.578-1.657-1.797m0 0"/><path id="g" d="M2.047-3.969h.922c.203 0 .312 0 .312-.203 0-.11-.11-.11-.281-.11h-.875c.36-1.405.406-1.609.406-1.655a.27.27 0 0 0-.281-.282c-.031 0-.312.016-.406.36l-.39 1.578H.53c-.203 0-.297 0-.297.187 0 .125.078.125.266.125h.875C.672-1.156.625-.984.625-.797c0 .531.375.906.906.906C2.547.11 3.11-1.344 3.11-1.42c0-.095-.078-.095-.109-.095-.094 0-.11.032-.156.141C2.422-.344 1.89-.109 1.563-.109c-.22 0-.313-.125-.313-.453 0-.235.016-.313.063-.485Zm0 0"/><path id="h" d="M6.297-5.734c.11-.407.281-.703 1.078-.735.047 0 .172-.015.172-.203 0 0 0-.11-.14-.11-.329 0-.673.032-1 .032-.344 0-.72-.031-1.032-.031-.062 0-.187 0-.187.203 0 .11.093.11.187.11.563.015.672.218.672.437 0 .031-.031.172-.031.203l-.891 3.547C4.781-.953 3.641-.094 2.656-.094c-.687 0-1.219-.437-1.219-1.281 0-.031 0-.344.11-.781l.969-3.86c.078-.359.109-.453.828-.453.265 0 .344 0 .344-.203 0-.11-.11-.11-.141-.11-.281 0-1 .032-1.281.032-.282 0-.985-.031-1.282-.031-.078 0-.187 0-.187.203 0 .11.094.11.281.11.016 0 .219 0 .375.015.188.031.266.031.266.156 0 .063-.094.484-.157.703l-.218.875c-.094.39-.563 2.266-.61 2.453-.062.282-.062.438-.062.579 0 1.218.89 1.906 1.937 1.906 1.25 0 2.485-1.125 2.813-2.438Zm0 0"/><clipPath id="a"><path d="M214 44h13.129v16H214Zm0 0"/></clipPath><clipPath id="b"><path d="M26 16h1v68.398h-1Zm0 0"/></clipPath><clipPath id="f"><path d="M.2 23H33v58H.2Zm0 0"/></clipPath></defs><path fill="none" stroke="#7F7F7F" stroke-miterlimit="10" stroke-width=".19818609" d="M79.996 54.445v-4.234m53.2 4.234v-4.234m53.195 4.234v-4.234"/><path fill="none" stroke="#000" stroke-miterlimit="10" stroke-width=".39736809" d="M.2 52.328h219.972"/><path d="m223.234 52.328-2.964-1.758v3.512Zm0 0"/><g clip-path="url(#a)"><path fill="none" stroke="#000" stroke-miterlimit="10" stroke-width=".39736809" d="m223.234 52.328-2.964-1.758v3.512Zm0 0"/></g><g clip-path="url(#b)"><path fill="none" stroke="#000" stroke-miterlimit="10" stroke-width=".39736809" d="M26.797 84.203v-67.12"/></g><path stroke="#000" stroke-miterlimit="10" stroke-width=".39736809" d="m26.797 14.02-1.754 2.96h3.512Zm0 0"/><use xlink:href="#c" x="83.02" y="64.731"/><use xlink:href="#d" x="140.344" y="64.731"/><use xlink:href="#c" x="145.305" y="64.731"/><use xlink:href="#e" x="193.542" y="64.731"/><use xlink:href="#c" x="198.503" y="64.731"/><g clip-path="url(#f)"><path fill="none" stroke="#000" stroke-dasharray="2.9766056853 2.9766056853" stroke-miterlimit="10" stroke-width=".39736809" d="M-26.402 52.328s.386-1.035.535-1.43c.144-.394.383-1.03.531-1.425.149-.391.383-1.02.531-1.41.149-.391.383-1.012.532-1.399l.53-1.371a243.134 243.134 0 0 1 1.067-2.66c.149-.36.383-.926.531-1.274.149-.347.383-.894.532-1.23.148-.336.383-.863.531-1.184.148-.32.387-.824.531-1.129.149-.304.387-.785.535-1.074a40.593 40.593 0 0 1 1.063-1.957c.148-.254.383-.644.531-.875a32.1 32.1 0 0 1 .531-.805c.149-.214.387-.539.536-.73.144-.187.382-.48.53-.648.15-.168.384-.422.532-.567.148-.148.383-.363.531-.484a5.424 5.424 0 0 1 1.066-.71c.145-.075.384-.177.532-.224.144-.05.383-.113.531-.137.149-.023.383-.042.531-.042.149 0 .383.019.532.042.148.024.386.086.53.137.15.047.388.149.536.223a5.867 5.867 0 0 1 1.063.71c.148.122.382.337.53.485.15.145.388.399.532.567.149.168.387.46.535.648.145.191.383.516.532.73a28.713 28.713 0 0 1 1.062 1.68c.148.254.387.676.531.945.149.274.387.723.535 1.012.145.29.383.77.532 1.074.144.305.382.809.53 1.13a87.683 87.683 0 0 1 1.063 2.413c.149.348.387.914.532 1.274.148.36.386.945.535 1.312.144.371.383.97.531 1.348.149.375.383.988.531 1.371.149.387.383 1.008.532 1.399.148.39.386 1.019.53 1.41.15.394.388 1.03.536 1.425.145.395.383 1.032.531 1.43.149.395.383 1.035.531 1.43.149.394.383 1.031.532 1.422.148.394.386 1.023.531 1.414.148.39.387 1.011.531 1.394a256.027 256.027 0 0 0 1.067 2.719c.148.371.382.957.53 1.316.15.356.384.926.532 1.274.149.348.387.894.531 1.23a87.373 87.373 0 0 0 1.067 2.313c.148.305.383.785.531 1.074.148.29.383.738.531 1.012.149.27.387.691.532.945.148.25.386.64.535.875a19.161 19.161 0 0 0 1.062 1.531c.149.192.383.48.531.653.149.168.383.422.532.566.148.145.386.363.53.484.15.122.388.301.536.399a4.39 4.39 0 0 0 1.062.535c.149.05.383.11.532.137.148.023.387.043.531.043.149 0 .387-.02.535-.043a4.62 4.62 0 0 0 .531-.137 4.39 4.39 0 0 0 .532-.223c.148-.074.383-.214.531-.312.148-.098.387-.277.531-.399.149-.12.387-.34.535-.484.145-.144.383-.398.532-.566.144-.172.382-.461.53-.653.15-.191.384-.515.532-.726.149-.211.383-.57.531-.805.149-.234.387-.625.532-.875.148-.254.386-.676.535-.945.144-.274.383-.723.531-1.012a69.12 69.12 0 0 0 1.063-2.203 128.437 128.437 0 0 0 1.066-2.414l.531-1.274c.149-.359.383-.945.531-1.316a161.54 161.54 0 0 0 1.063-2.719 551.155 551.155 0 0 0 1.066-2.809c.145-.39.383-1.027.532-1.421.148-.395.53-1.43.53-1.43"/></g><path fill="none" stroke="#000" stroke-miterlimit="10" stroke-width=".39736809" d="M26.797 52.328s.383-1.035.531-1.43c.149-.394.387-1.03.531-1.425l.536-1.41c.144-.391.382-1.012.53-1.399.15-.383.384-.996.532-1.371.148-.379.383-.977.531-1.348l.532-1.312a140.11 140.11 0 0 1 1.066-2.504c.148-.336.383-.863.531-1.184.149-.32.383-.824.531-1.129.149-.304.383-.785.532-1.074.148-.289.386-.738.53-1.012.15-.269.388-.69.536-.945.145-.254.383-.644.531-.875a19.723 19.723 0 0 1 1.062-1.535c.15-.187.388-.48.532-.648.149-.168.387-.422.535-.567.145-.148.383-.363.531-.484.149-.125.383-.301.532-.399.148-.101.383-.238.531-.312a3.843 3.843 0 0 1 1.066-.36c.145-.023.383-.042.532-.042.148 0 .382.019.53.042a3.793 3.793 0 0 1 1.063.36c.149.074.387.21.532.312a6.767 6.767 0 0 1 1.066.883c.148.145.383.399.531.567.149.168.383.46.532.648a23.98 23.98 0 0 1 1.598 2.41c.148.254.382.676.53.945a45.908 45.908 0 0 1 1.063 2.086c.148.305.387.809.535 1.13.145.32.383.847.531 1.183l.532 1.23c.148.348.382.914.53 1.274.15.36.384.945.532 1.312.149.371.387.97.531 1.348.149.375.387.988.536 1.371.144.387.382 1.008.53 1.399.15.39.384 1.019.532 1.41.148.394.383 1.03.531 1.425.149.395.387 1.032.532 1.43.148.395.386 1.035.535 1.43.144.394.382 1.031.53 1.422.15.394.384 1.023.532 1.414.149.39.383 1.011.531 1.394.149.387.387.996.532 1.375.148.38.386.977.53 1.344a152.481 152.481 0 0 0 1.067 2.59 87.665 87.665 0 0 0 1.063 2.414c.148.32.387.824.531 1.129.149.305.387.785.535 1.074a40.591 40.591 0 0 0 1.063 1.957c.148.25.383.64.531.875.148.234.387.594.531.805.149.21.387.535.535.726.145.192.383.48.532.653.148.168.382.422.53.566.15.145.384.363.532.484.149.122.387.301.531.399.149.098.387.238.532.312.148.075.386.176.535.223.144.05.383.11.531.137.148.023.383.043.531.043.149 0 .383-.02.532-.043.148-.028.386-.086.53-.137a4.44 4.44 0 0 0 .536-.223 6.95 6.95 0 0 0 .531-.312c.149-.098.383-.277.531-.399a9.948 9.948 0 0 0 1.063-1.05c.148-.172.387-.461.535-.653.145-.191.383-.515.531-.726.149-.211.383-.57.532-.805.148-.234.382-.625.53-.875a40.591 40.591 0 0 0 1.062-1.957c.15-.289.388-.77.537-1.074.144-.305.382-.809.53-1.13a87.677 87.677 0 0 0 1.063-2.413 152.545 152.545 0 0 0 1.066-2.59l.532-1.344c.148-.379.383-.988.531-1.375.149-.383.383-1.004.531-1.394.149-.39.387-1.02.532-1.414.148-.39.386-1.028.535-1.422.144-.395.383-1.035.531-1.43.145-.398.383-1.035.531-1.43.149-.394.383-1.03.532-1.425.148-.391.382-1.02.53-1.41.15-.391.388-1.012.532-1.399.149-.383.387-.996.535-1.371.145-.379.383-.977.531-1.348.149-.367.383-.953.532-1.312.148-.36.383-.926.531-1.274.148-.347.387-.894.531-1.23a87.366 87.366 0 0 1 1.067-2.313c.148-.304.382-.785.53-1.074.15-.289.384-.738.532-1.012.149-.269.387-.69.531-.945a23.982 23.982 0 0 1 1.066-1.68c.145-.214.384-.539.532-.73.148-.187.383-.48.531-.648.149-.168.383-.422.532-.567a6.767 6.767 0 0 1 1.066-.883 4.39 4.39 0 0 1 1.062-.535c.149-.05.383-.113.532-.137.148-.023.386-.042.53-.042.15 0 .388.019.536.042a3.936 3.936 0 0 1 1.063.36c.148.074.382.21.53.312.15.098.388.274.532.399.149.12.387.336.531.484.149.145.387.399.536.567.144.168.382.46.53.648a19.724 19.724 0 0 1 1.063 1.535c.149.23.387.621.532.875.148.254.386.676.535.945.144.274.382.723.53 1.012a69.111 69.111 0 0 1 1.063 2.203 128.387 128.387 0 0 1 1.066 2.414c.145.348.384.914.532 1.274l.531 1.312c.149.371.383.97.532 1.348.148.375.382.988.53 1.371.15.387.388 1.008.532 1.399l.535 1.41c.145.394.383 1.03.531 1.425.149.395.383 1.032.532 1.43.148.395.383 1.035.531 1.43.148.394.387 1.031.531 1.422a551.527 551.527 0 0 0 1.598 4.183c.148.38.383.977.531 1.344l.531 1.316c.149.356.387.926.536 1.274.144.348.382.894.53 1.23a77.978 77.978 0 0 0 1.063 2.312c.149.306.383.786.532 1.075.148.29.386.738.53 1.012.15.27.387.691.536.945.144.25.383.64.531.875.149.234.383.594.531.805.149.21.383.535.532.726.148.192.386.48.53.653.15.168.388.422.536.566.145.145.383.363.531.484.149.122.383.301.532.399.148.098.382.238.53.312.15.075.388.176.532.223.149.05.387.11.531.137.149.023.387.043.535.043.145 0 .383-.02.532-.043.148-.028.383-.086.531-.137a4.39 4.39 0 0 0 1.062-.535c.149-.098.387-.277.536-.399.144-.12.382-.34.53-.484.15-.144.384-.398.532-.566.149-.172.383-.461.531-.653.149-.191.387-.515.532-.726.148-.211.386-.57.535-.805.144-.234.383-.625.531-.875.148-.254.383-.676.531-.945.149-.274.383-.723.532-1.012a69.111 69.111 0 0 0 1.597-3.387c.145-.336.383-.882.531-1.23.149-.348.383-.918.532-1.274.148-.359.383-.945.531-1.316a256.027 256.027 0 0 0 1.066-2.719c.145-.383.383-1.004.532-1.394.148-.39.382-1.02.53-1.414.15-.39.384-1.028.532-1.422a567.303 567.303 0 0 1 1.066-2.86c.145-.394.383-1.03.532-1.425.144-.391.383-1.02.531-1.41.148-.391.383-1.012.531-1.399.149-.383.383-.996.532-1.371.148-.379.386-.977.53-1.348.15-.367.387-.953.536-1.312.144-.36.383-.926.531-1.274.149-.347.383-.894.531-1.23.149-.336.383-.863.532-1.184.148-.32.386-.824.53-1.129.15-.304.388-.785.536-1.074a40.593 40.593 0 0 1 1.063-1.957c.148-.254.382-.644.53-.875.15-.234.388-.594.532-.805.149-.214.387-.539.535-.73.145-.187.383-.48.531-.648.145-.168.383-.422.532-.567.148-.148.383-.363.531-.484.148-.125.383-.301.531-.399.149-.101.387-.238.531-.312a4.44 4.44 0 0 1 .536-.223c.144-.05.382-.113.53-.137.15-.023.384-.042.532-.042.149 0 .383.019.531.042.149.024.387.086.532.137.148.047.386.149.535.223a5.867 5.867 0 0 1 1.062.71c.149.122.383.337.532.485.148.145.386.399.53.567.15.168.388.46.532.648.148.191.387.516.535.73.145.211.383.57.531.805.149.23.383.621.532.875a40.593 40.593 0 0 1 1.063 1.957c.148.29.386.77.534 1.074.145.305.383.809.532 1.13a87.67 87.67 0 0 1 1.062 2.413 226.95 226.95 0 0 1 1.066 2.586c.145.371.383.97.532 1.348.148.375.383.988.531 1.371.148.387.383 1.008.531 1.399.149.39.383 1.019.532 1.41.148.394.386 1.03.53 1.425a566.917 566.917 0 0 1 1.067 2.86c.149.394.383 1.031.531 1.422.149.394.383 1.023.532 1.414.148.39.386 1.011.53 1.394a256.111 256.111 0 0 0 1.599 4.035c.148.356.382.926.53 1.274.15.348.388.894.532 1.23a87.36 87.36 0 0 0 1.066 2.313 45.904 45.904 0 0 0 1.594 3.031c.149.25.387.64.531.875.149.234.387.594.536.805.144.21.382.535.53.726.15.192.384.48.532.653.149.168.383.422.531.566.149.145.387.363.532.484a5.712 5.712 0 0 0 1.066.71c.148.076.383.177.531.224.149.05.383.11.532.137.148.023.386.043.53.043.15 0 .388-.02.536-.043a4.62 4.62 0 0 0 .531-.137c.145-.047.383-.148.531-.223.149-.074.383-.214.532-.312.148-.098.383-.277.53-.399.15-.12.388-.34.532-.484.149-.144.387-.398.535-.566.145-.172.383-.461.532-.653.148-.191.382-.515.53-.726.15-.211.384-.57.532-.805.149-.234.387-.625.531-.875.149-.254.387-.676.536-.945.144-.274.382-.723.53-1.012a69.12 69.12 0 0 0 1.063-2.203c.149-.32.387-.848.532-1.184.148-.336.386-.882.53-1.23.15-.348.387-.918.536-1.274.144-.359.383-.945.531-1.316a161.506 161.506 0 0 0 1.063-2.719c.148-.383.386-1.004.53-1.394.15-.39.388-1.02.536-1.414l.531-1.422c.149-.395.532-1.43.532-1.43"/><path fill="none" stroke="#000" stroke-dasharray="2.9766056853 2.9766056853" stroke-miterlimit="10" stroke-width=".39736809" d="M186.39 52.328s.383-1.035.532-1.43c.148-.394.387-1.03.531-1.425l.535-1.41c.145-.391.383-1.012.531-1.399.149-.383.383-.996.532-1.371.148-.379.383-.977.531-1.348.148-.367.383-.953.531-1.312l.531-1.274a128.412 128.412 0 0 1 1.067-2.414 69.111 69.111 0 0 1 1.062-2.203c.149-.289.387-.738.532-1.012.148-.269.386-.69.535-.945.144-.254.383-.644.531-.875a19.723 19.723 0 0 1 1.062-1.535c.149-.187.387-.48.532-.648.148-.168.387-.422.535-.567.144-.148.383-.363.531-.484.145-.125.383-.301.531-.399a4.39 4.39 0 0 1 1.063-.535c.148-.05.387-.113.531-.137.149-.023.387-.042.535-.042.145 0 .383.019.532.042a3.793 3.793 0 0 1 1.062.36c.149.074.387.21.531.312a6.767 6.767 0 0 1 1.067.883c.148.145.383.399.531.567.148.168.383.46.531.648.149.191.387.516.532.73a23.98 23.98 0 0 1 1.066 1.68c.144.254.383.676.531.945.149.274.383.723.531 1.012a69.111 69.111 0 0 1 1.598 3.387c.145.336.383.883.531 1.23.149.348.383.914.532 1.274.148.36.382.945.53 1.312.15.371.388.97.532 1.348.148.375.387.988.535 1.371.145.387.383 1.008.531 1.399.149.39.383 1.019.532 1.41.148.394.383 1.03.531 1.425.148.395.531 1.43.531 1.43"/><use xlink:href="#g" x="216.539" y="61.936"/><use xlink:href="#h" x="15.436" y="10.119"/></svg>