<svg xmlns="http://www.w3.org/2000/svg" xmlns:xlink="http://www.w3.org/1999/xlink" width="228.063" height="84.715"><defs><clipPath id="a"><path d="M214 44h13.129v16H214Zm0 0"/></clipPath><clipPath id="b"><path d="M26 16h1v68.398h-1Zm0 0"/></clipPath><clipPath id="f"><path d="M.2 18H39v66.203H.2Zm0 0"/></clipPath><clipPath id="g"><path d="M15 18h183v66.203H15Zm0 0"/></clipPath><clipPath id="h"><path d="M175 41h48.629v43.203H175Zm0 0"/></clipPath><path id="c" d="M6.61-6.719H.546L.359-4.484h.25C.75-6.078.891-6.406 2.391-6.406c.172 0 .437 0 .53.015.22.047.22.157.22.375V-.78c0 .328 0 .469-1.047.469h-.39V0c.405-.031 1.405-.031 1.874-.031.453 0 1.469 0 1.875.031v-.312h-.39c-1.047 0-1.047-.141-1.047-.47v-5.234c0-.203 0-.328.187-.375.11-.015.375-.015.563-.015 1.5 0 1.64.328 1.78 1.922h.25Zm0 0"/><path id="d" d="M1.266-.766 2.313-1.78c1.546-1.375 2.14-1.906 2.14-2.907 0-1.125-.89-1.921-2.11-1.921C1.235-6.61.5-5.687.5-4.812c0 .562.484.562.516.562a.516.516 0 0 0 .515-.531c0-.266-.172-.516-.515-.516-.079 0-.11 0-.125.016.218-.657.75-1.016 1.328-1.016.906 0 1.328.797 1.328 1.61 0 .796-.485 1.578-1.031 2.203L.609-.36C.5-.266.5-.234.5 0h3.672l.281-1.719h-.25c-.047.297-.11.735-.219.875-.062.078-.718.078-.937.078Zm0 0"/><path id="e" d="M2.875-3.5c.813-.266 1.39-.953 1.39-1.734 0-.813-.874-1.375-1.827-1.375-1 0-1.75.593-1.75 1.343 0 .329.218.516.5.516.312 0 .515-.203.515-.5 0-.5-.469-.5-.625-.5.313-.484.969-.61 1.328-.61.406 0 .953.22.953 1.11 0 .125-.03.703-.28 1.125-.298.484-.642.516-.892.516a3.306 3.306 0 0 1-.374.03c-.094.017-.157.032-.157.126 0 .11.063.11.235.11h.437c.813 0 1.188.671 1.188 1.64 0 1.36-.688 1.64-1.125 1.64-.422 0-1.172-.171-1.516-.75.344.047.656-.171.656-.546 0-.36-.265-.563-.562-.563-.235 0-.547.14-.547.578 0 .907.922 1.563 2 1.563 1.203 0 2.11-.906 2.11-1.922 0-.813-.626-1.578-1.657-1.797m0 0"/><path id="i" d="M2.047-3.969h.922c.203 0 .312 0 .312-.203 0-.11-.11-.11-.281-.11h-.875c.36-1.405.406-1.609.406-1.655a.27.27 0 0 0-.281-.282c-.031 0-.312.016-.406.36l-.39 1.578H.53c-.203 0-.297 0-.297.187 0 .125.078.125.266.125h.875C.672-1.156.625-.984.625-.797c0 .531.375.906.906.906C2.547.11 3.11-1.344 3.11-1.42c0-.095-.078-.095-.109-.095-.094 0-.11.032-.156.141C2.422-.344 1.89-.109 1.563-.109c-.22 0-.313-.125-.313-.453 0-.235.016-.313.063-.485Zm0 0"/><path id="j" d="M6.297-5.734c.11-.407.281-.703 1.078-.735.047 0 .172-.015.172-.203 0 0 0-.11-.14-.11-.329 0-.673.032-1 .032-.344 0-.72-.031-1.032-.031-.062 0-.187 0-.187.203 0 .11.093.11.187.11.563.015.672.218.672.437 0 .031-.031.172-.031.203l-.891 3.547C4.781-.953 3.641-.094 2.656-.094c-.687 0-1.219-.437-1.219-1.281 0-.031 0-.344.11-.781l.969-3.86c.078-.359.109-.453.828-.453.265 0 .344 0 .344-.203 0-.11-.11-.11-.141-.11-.281 0-1 .032-1.281.032-.282 0-.985-.031-1.282-.031-.078 0-.187 0-.187.203 0 .11.094.11.281.11.016 0 .219 0 .375.015.188.031.266.031.266.156 0 .063-.094.484-.157.703l-.218.875c-.094.39-.563 2.266-.61 2.453-.062.282-.062.438-.062.579 0 1.218.89 1.906 1.937 1.906 1.25 0 2.485-1.125 2.813-2.438Zm0 0"/></defs><path fill="none" stroke="#7F7F7F" stroke-miterlimit="10" stroke-width=".19818609" d="M79.996 54.445v-4.234m53.2 4.234v-4.234m53.195 4.234v-4.234"/><path fill="none" stroke="#000" stroke-miterlimit="10" stroke-width=".39736809" d="M.2 52.328h219.972"/><path d="m223.234 52.328-2.964-1.758v3.512Zm0 0"/><g clip-path="url(#a)"><path fill="none" stroke="#000" stroke-miterlimit="10" stroke-width=".39736809" d="m223.234 52.328-2.964-1.758v3.512Zm0 0"/></g><g clip-path="url(#b)"><path fill="none" stroke="#000" stroke-miterlimit="10" stroke-width=".39736809" d="M26.797 84.203v-67.12"/></g><path stroke="#000" stroke-miterlimit="10" stroke-width=".39736809" d="m26.797 14.02-1.754 2.96h3.512Zm0 0"/><use xlink:href="#c" x="83.02" y="64.731"/><use xlink:href="#d" x="135.389" y="64.731"/><use xlink:href="#c" x="140.35" y="64.731"/><use xlink:href="#e" x="188.586" y="64.731"/><use xlink:href="#c" x="193.547" y="64.731"/><g clip-path="url(#f)"><path fill="none" stroke="#000" stroke-dasharray="2.9766056853 2.9766056853" stroke-miterlimit="10" stroke-width=".79374027" d="m-26.402 75.094.535-.453.531-.457.531-.454 1.063-.914.535-.453.531-.457.531-.453.532-.457.531-.453.531-.457.535-.457.532-.453.53-.457.532-.453.531-.457.536-.454 1.062-.914.531-.453.532-.457.535-.453.53-.457.532-.453.531-.457.532-.453.53-.457.536-.457.531-.453.532-.457.53-.454.532-.457.535-.453 1.063-.914.531-.453.531-.457.535-.453.532-.457.53-.453 1.063-.914.532-.453.535-.457.531-.454.531-.457.532-.453.53-.457.536-.457.531-.453.531-.457.532-.453.531-.457.531-.453.535-.457.532-.453 1.062-.914.531-.454.536-.457.53-.453.532-.457.531-.453.532-.457.535-.457.53-.453.532-.457.531-.453.532-.457.53-.453.536-.457.531-.457.532-.454.53-.457.532-.453.535-.457.531-.453 1.063-.914.531-.453.535-.457.532-.453.53-.457.532-.453 1.063-.914.535-.454.531-.457.531-.453.532-.457.53-.453.536-.457.531-.453 1.063-.914.531-.453.531-.457.535-.453.532-.457.53 45.078"/></g><g clip-path="url(#g)"><path fill="none" stroke="#000" stroke-miterlimit="10" stroke-width=".79374027" d="m26.797 75.094.531-.453.531-.457.536-.454 1.062-.914.531-.453.532-.457.535-.453.53-.457.532-.453 1.063-.914.53-.453.536-.457.531-.453.532-.457.53-.454.532-.457.535-.457.531-.453.532-.457.531-.453.531-.457.535-.453.532-.457.53-.453 1.063-.914.532-.453.535-.457.531-.454.531-.457.532-.453.53-.457.536-.457.531-.453.531-.457.532-.453.531-.457.535-.453 1.063-.914.53-.453.532-.457.531-.454.536-.457.53-.453 1.063-.914.532-.453.535-.457.53-.453.532-.457.531-.453.532-.457.53-.453.536-.457.531-.457.532-.454.53-.457.532-.453.535-.457.531-.453 1.063-.914.531-.453.535-.457.532-.453.53-.457.532-.453 1.063-.914.535-.454.531-.457.531-.453.532-.457.53-.453.536-.457.531-.457.531-.453.532-.457.53-.453.536-.457.531-.453 1.063-.914.531-.454.531-.457.536-.453.53-.457.532-.453.531-.457.532-.453.535-.457.53-.457.532-.453.531-.457.532-.453.535-.457.531 45.078.531-.453.532-.457.53-.454.532-.457.535-.457.531-.453.532-.457.531-.453.531-.457.535-.453 1.063-.914.531-.453.531-.457.532-.453.535-.457.531-.454 1.063-.914.53-.453.536-.457.531-.453.531-.457.532-.453.53-.457.536-.453 1.063-.914.53-.453.532-.457.531-.454.536-.457.53-.453 1.063-.914.532-.453.535-.457.53-.453.532-.457.531-.453.532-.457.535-.457.531-.453.531-.457.532-.454.53-.457.532-.453.535-.457.531-.457.532-.453.531-.457.531-.453.535-.457.532-.453.53-.457.532-.453.531-.457.536-.457.53-.454.532-.457.531-.453.532-.457.53-.453.536-.457.531-.457.531-.453.532-.457.53-.453.536-.457.531-.453 1.063-.914.531-.454.531-.457.535-.453.532-.457.531-.453 1.062-.914.536-.453.53-.457.532-.453.531-.457.532-.453.535-.457.531-.457.531-.454.532-.457.53-.453.532-.457.535-.453.531-.457.532-.453 1.062-.914.535-.453.532-.457.53-.453.532-.457.531 45.078.536-.453.53-.457.532-.454 1.063-.914.53-.453.536-.457.531-.453.531-.457.532-.453.53-.457.536-.457.531-.453.532-.457.53-.453.532-.457.535-.454 1.063-.914.531-.453.531-.457.531-.453.536-.457.53-.453.532-.457.531-.453.532-.457.535-.457.531-.453.531-.457.532-.454.53-.457.532-.453.535-.457.531-.457.532-.453.531-.457.531-.453.535-.457.532-.453 1.062-.914.531-.453.536-.457.53-.454.532-.457.531-.453 1.063-.914.535-.453.531-.457.531-.453.532-.457.53-.453.536-.457.531-.453 1.063-.914.531-.454.535-.457.531-.453.532-.457.531-.453 1.062-.914.536-.453.53-.457.532-.453.531-.457.532-.453.535-.457.531-.457.531-.454.532-.457.53-.453.536-.457.531-.453 1.063-.914.53-.453.532-.457.535-.453.532-.457.53-.453 1.063-.914.536-.454.53-.457.532-.453.531-.457.532-.453.53-.457.536-.453 1.062-.914.532-.453.53-.457.536-.453.531-.457.532 45.078"/></g><g clip-path="url(#h)"><path fill="none" stroke="#000" stroke-dasharray="2.9766056853 2.9766056853" stroke-miterlimit="10" stroke-width=".79374027" d="m186.39 75.094.532-.453.531-.457.535-.454 1.063-.914.531-.453.531-.457.531-.453.536-.457.53-.453 1.063-.914.532-.453.535-.457.531-.453.531-.457.532-.454.53-.457.536-.457.531-.453.531-.457.532-.453.53-.457.532-.453.535-.457.532-.453 1.062-.914.531-.453.536-.457.53-.454.532-.457.531-.453.532-.457.535-.457.53-.453.532-.457.531-.453.532-.457.53-.453.536-.457.531-.457.532-.453.53-.457.532-.454.535-.457.531-.453 1.063-.914.531-.453"/></g><use xlink:href="#i" x="216.539" y="61.936"/><use xlink:href="#j" x="15.436" y="10.119"/></svg>