<svg xmlns="http://www.w3.org/2000/svg" xmlns:xlink="http://www.w3.org/1999/xlink" width="228.063" height="84.715"><defs><path id="c" d="M6.61-6.719H.546L.359-4.484h.25C.75-6.078.891-6.406 2.391-6.406c.172 0 .437 0 .53.015.22.047.22.157.22.375V-.78c0 .328 0 .469-1.047.469h-.39V0c.405-.031 1.405-.031 1.874-.031.453 0 1.469 0 1.875.031v-.312h-.39c-1.047 0-1.047-.141-1.047-.47v-5.234c0-.203 0-.328.187-.375.11-.015.375-.015.563-.015 1.5 0 1.64.328 1.78 1.922h.25Zm0 0"/><path id="d" d="M1.266-.766 2.313-1.78c1.546-1.375 2.14-1.906 2.14-2.907 0-1.125-.89-1.921-2.11-1.921C1.235-6.61.5-5.687.5-4.812c0 .562.484.562.516.562a.516.516 0 0 0 .515-.531c0-.266-.172-.516-.515-.516-.079 0-.11 0-.125.016.218-.657.75-1.016 1.328-1.016.906 0 1.328.797 1.328 1.61 0 .796-.485 1.578-1.031 2.203L.609-.36C.5-.266.5-.234.5 0h3.672l.281-1.719h-.25c-.047.297-.11.735-.219.875-.062.078-.718.078-.937.078Zm0 0"/><path id="e" d="M2.875-3.5c.813-.266 1.39-.953 1.39-1.734 0-.813-.874-1.375-1.827-1.375-1 0-1.75.593-1.75 1.343 0 .329.218.516.5.516.312 0 .515-.203.515-.5 0-.5-.469-.5-.625-.5.313-.484.969-.61 1.328-.61.406 0 .953.22.953 1.11 0 .125-.03.703-.28 1.125-.298.484-.642.516-.892.516a3.306 3.306 0 0 1-.374.03c-.094.017-.157.032-.157.126 0 .11.063.11.235.11h.437c.813 0 1.188.671 1.188 1.64 0 1.36-.688 1.64-1.125 1.64-.422 0-1.172-.171-1.516-.75.344.047.656-.171.656-.546 0-.36-.265-.563-.562-.563-.235 0-.547.14-.547.578 0 .907.922 1.563 2 1.563 1.203 0 2.11-.906 2.11-1.922 0-.813-.626-1.578-1.657-1.797m0 0"/><path id="g" d="M2.047-3.969h.922c.203 0 .312 0 .312-.203 0-.11-.11-.11-.281-.11h-.875c.36-1.405.406-1.609.406-1.655a.27.27 0 0 0-.281-.282c-.031 0-.312.016-.406.36l-.39 1.578H.53c-.203 0-.297 0-.297.187 0 .125.078.125.266.125h.875C.672-1.156.625-.984.625-.797c0 .531.375.906.906.906C2.547.11 3.11-1.344 3.11-1.42c0-.095-.078-.095-.109-.095-.094 0-.11.032-.156.141C2.422-.344 1.89-.109 1.563-.109c-.22 0-.313-.125-.313-.453 0-.235.016-.313.063-.485Zm0 0"/><path id="h" d="M6.297-5.734c.11-.407.281-.703 1.078-.735.047 0 .172-.015.172-.203 0 0 0-.11-.14-.11-.329 0-.673.032-1 .032-.344 0-.72-.031-1.032-.031-.062 0-.187 0-.187.203 0 .11.093.11.187.11.563.015.672.218.672.437 0 .031-.031.172-.031.203l-.891 3.547C4.781-.953 3.641-.094 2.656-.094c-.687 0-1.219-.437-1.219-1.281 0-.031 0-.344.11-.781l.969-3.86c.078-.359.109-.453.828-.453.265 0 .344 0 .344-.203 0-.11-.11-.11-.141-.11-.281 0-1 .032-1.281.032-.282 0-.985-.031-1.282-.031-.078 0-.187 0-.187.203 0 .11.094.11.281.11.016 0 .219 0 .375.015.188.031.266.031.266.156 0 .063-.094.484-.157.703l-.218.875c-.094.39-.563 2.266-.61 2.453-.062.282-.062.438-.062.579 0 1.218.89 1.906 1.937 1.906 1.25 0 2.485-1.125 2.813-2.438Zm0 0"/><clipPath id="a"><path d="M214 44h13.129v16H214Zm0 0"/></clipPath><clipPath id="b"><path d="M26 16h1v68.398h-1Zm0 0"/></clipPath><clipPath id="f"><path d="M.2 14H33v42H.2Zm0 0"/></clipPath></defs><path fill="none" stroke="#7F7F7F" stroke-miterlimit="10" stroke-width=".19818609" d="M79.996 54.445v-4.234m53.2 4.234v-4.234m53.195 4.234v-4.234"/><path fill="none" stroke="#000" stroke-miterlimit="10" stroke-width=".39736809" d="M.2 52.328h219.972"/><path d="m223.234 52.328-2.964-1.758v3.512Zm0 0"/><g clip-path="url(#a)"><path fill="none" stroke="#000" stroke-miterlimit="10" stroke-width=".39736809" d="m223.234 52.328-2.964-1.758v3.512Zm0 0"/></g><g clip-path="url(#b)"><path fill="none" stroke="#000" stroke-miterlimit="10" stroke-width=".39736809" d="M26.797 84.203v-67.12"/></g><path stroke="#000" stroke-miterlimit="10" stroke-width=".39736809" d="m26.797 14.02-1.754 2.96h3.512Zm0 0"/><use xlink:href="#c" x="76.412" y="64.731"/><use xlink:href="#d" x="127.129" y="64.731"/><use xlink:href="#c" x="132.09" y="64.731"/><use xlink:href="#e" x="180.326" y="64.731"/><use xlink:href="#c" x="185.287" y="64.731"/><g clip-path="url(#f)"><path fill="none" stroke="#000" stroke-dasharray="2.9766056853 2.9766056853" stroke-miterlimit="10" stroke-width=".39736809" d="m-26.402 35.254.535-.93a191.69 191.69 0 0 1 1.062-1.844c.149-.253.383-.66.532-.91.148-.246.386-.644.53-.89.15-.246.388-.637.536-.875.145-.239.383-.621.531-.852.149-.234.383-.605.531-.828.149-.227.383-.586.532-.8.148-.22.383-.563.531-.77.148-.211.387-.535.531-.735.149-.199.387-.511.535-.699a22.828 22.828 0 0 1 1.063-1.27c.148-.163.383-.417.531-.57a22.1 22.1 0 0 1 .531-.523c.149-.137.387-.348.536-.473a10.462 10.462 0 0 1 1.062-.793c.148-.094.383-.234.531-.312.149-.082.387-.196.532-.262a9.97 9.97 0 0 1 .535-.203c.144-.047.383-.113.53-.145.145-.03.384-.07.532-.086.149-.015.383-.03.531-.03.149 0 .383.015.532.03.148.016.386.055.53.086.15.032.388.098.536.145.145.05.383.14.531.203a8.343 8.343 0 0 1 1.063.574 11.822 11.822 0 0 1 1.066.793c.145.125.383.336.532.473a16.658 16.658 0 0 1 1.062 1.094c.148.164.387.437.531.613.149.176.387.469.535.656.145.188.383.5.532.7.144.199.382.523.53.734.15.207.384.55.532.77.149.214.383.573.531.8.149.223.387.594.532.828.148.23.386.613.535.852.144.238.383.629.531.875.149.246.383.644.531.89.149.25.383.657.532.91.148.254.386.66.53.918.15.254.388.668.536.926.145.258.383.672.531.93.149.258.383.672.531.93.149.254.383.668.532.921.148.258.386.668.531.922.148.25.387.657.531.907.149.25.387.648.535.89.145.246.383.637.532.875.148.242.382.621.53.856.15.23.384.601.532.828l.531.8a64.992 64.992 0 0 0 1.067 1.5c.148.2.383.512.531.7.148.187.383.48.531.656.149.176.387.453.532.617.148.164.386.418.535.57a16.568 16.568 0 0 0 1.062.993c.149.125.383.312.531.426.149.109.383.273.532.367.148.093.386.234.53.316a6.747 6.747 0 0 0 1.066.46c.15.048.384.114.533.146.148.03.382.07.53.09.15.015.388.027.532.027.149 0 .387-.012.535-.028.145-.02.383-.058.531-.09.149-.03.383-.097.532-.144a7.39 7.39 0 0 0 .531-.203c.148-.063.387-.18.531-.258.149-.082.387-.223.535-.316.145-.094.383-.258.532-.367.144-.114.382-.301.53-.426.15-.121.384-.332.532-.473.149-.137.383-.371.531-.52.149-.152.387-.406.532-.57.148-.164.386-.441.535-.617.144-.176.383-.469.531-.656a36.26 36.26 0 0 0 1.063-1.434c.148-.207.386-.55.53-.765.15-.22.388-.575.536-.801.144-.227.383-.598.531-.828a82 82 0 0 0 .531-.856c.149-.238.383-.629.532-.875a109.151 109.151 0 0 0 1.062-1.797 193.142 193.142 0 0 0 1.067-1.843l.53-.93"/></g><path fill="none" stroke="#000" stroke-miterlimit="10" stroke-width=".39736809" d="m26.797 35.254.531-.93c.149-.258.387-.672.531-.926l.536-.918c.144-.253.382-.66.53-.91.15-.246.384-.644.532-.89.148-.246.383-.637.531-.875l.532-.852c.148-.234.386-.605.535-.828.144-.227.382-.586.53-.8a43.781 43.781 0 0 1 1.063-1.505c.149-.199.383-.511.532-.699.148-.187.386-.48.53-.656.15-.176.388-.45.536-.613a18.672 18.672 0 0 1 1.063-1.094c.148-.137.382-.348.53-.473.15-.125.388-.312.532-.422.149-.11.387-.273.535-.37a8.2 8.2 0 0 1 1.063-.575c.148-.063.383-.152.531-.203.148-.047.387-.113.531-.145a6.35 6.35 0 0 1 .535-.086c.145-.015.383-.03.532-.03.148 0 .382.015.53.03.15.016.384.055.532.086.149.032.383.098.531.145.149.05.387.14.532.203.148.066.386.18.535.262.144.078.383.218.531.312.148.098.383.262.531.371a12.538 12.538 0 0 1 1.063.895c.148.137.387.37.535.523.144.153.383.407.531.57.149.165.383.438.531.614a25.202 25.202 0 0 1 1.063 1.355c.148.2.387.524.535.735.145.207.383.55.531.77.145.214.383.573.532.8.148.223.382.594.53.828.15.23.384.613.532.852.149.238.387.629.531.875l.536.89c.144.25.382.657.53.91.15.254.384.66.532.918.148.254.383.668.531.926.149.258.387.672.532.93l.535.93c.144.254.382.668.53.921.15.258.384.668.532.922.149.25.383.657.531.907l.532.89.53.875a81.904 81.904 0 0 0 1.599 2.485c.148.214.382.558.53.765a36.287 36.287 0 0 0 1.066 1.434 28.911 28.911 0 0 0 1.062 1.273c.15.164.385.418.533.57.148.149.387.383.531.52.149.14.387.352.535.473.145.125.383.312.532.426.148.109.382.273.53.367.15.093.384.234.532.316.149.078.387.195.531.258.149.062.387.156.532.203.148.047.386.113.535.145.144.03.383.07.531.09.148.015.383.027.531.027.149 0 .383-.012.532-.028a7.93 7.93 0 0 0 .53-.09c.15-.03.388-.097.536-.144a8.17 8.17 0 0 0 .531-.203 8.27 8.27 0 0 0 .531-.258 9.224 9.224 0 0 0 1.062-.684 17 17 0 0 0 .536-.425c.145-.121.383-.332.531-.473.149-.137.383-.371.532-.52.148-.152.382-.406.53-.57a28.911 28.911 0 0 0 1.599-1.972c.144-.196.382-.524.53-.735.15-.207.384-.55.532-.765a71.255 71.255 0 0 0 1.598-2.485l.53-.875c.15-.242.384-.64.532-.89.149-.25.383-.657.531-.907.149-.254.387-.664.532-.922.148-.253.386-.667.535-.921.144-.258.383-.672.531-.93.145-.258.383-.672.531-.93.149-.258.383-.672.532-.926.148-.257.382-.664.53-.918.15-.253.388-.66.532-.91l.535-.89c.145-.246.383-.637.531-.875.149-.239.383-.621.532-.852.148-.234.383-.605.531-.828a43.773 43.773 0 0 1 1.066-1.57 36.256 36.256 0 0 1 1.062-1.434c.15-.187.384-.48.532-.656.149-.176.387-.45.531-.613.149-.164.387-.418.532-.57a14.848 14.848 0 0 1 1.066-.996c.148-.126.383-.313.531-.423.149-.11.383-.273.532-.37.148-.095.386-.235.53-.313a8.43 8.43 0 0 1 .536-.262 8.74 8.74 0 0 1 .531-.203c.149-.047.383-.113.531-.145.149-.03.383-.07.532-.086.148-.015.386-.03.53-.03.15 0 .388.015.536.03.145.016.383.055.531.086.149.032.383.098.532.145.148.05.382.14.53.203a8.2 8.2 0 0 1 1.598.945c.145.11.383.297.532.422.148.125.383.336.531.473a16.657 16.657 0 0 1 1.063 1.094c.148.164.386.437.535.613.144.176.382.469.53.656a36.256 36.256 0 0 1 1.063 1.434c.149.207.387.55.532.77a47.48 47.48 0 0 1 1.066 1.628c.145.23.383.613.531.852.149.238.383.629.532.875.148.246.382.644.53.89.15.25.388.657.532.91.149.254.387.66.535.918l.531.926c.149.258.383.672.532.93l.531.93c.148.254.387.668.531.921a193.227 193.227 0 0 0 1.067 1.829c.148.25.382.648.53.89.15.246.384.637.532.875.149.242.387.621.531.856.149.23.387.601.536.828a40.644 40.644 0 0 0 1.062 1.566 36.256 36.256 0 0 0 1.062 1.434c.149.187.387.48.532.656.148.176.386.453.535.617.144.164.383.418.531.57.149.149.383.383.531.52.149.14.383.352.532.473.148.125.386.312.53.426a10.564 10.564 0 0 0 1.066.684c.15.077.384.194.533.257.148.062.382.156.53.203.15.047.388.113.532.145.149.03.387.07.531.09.149.015.387.027.535.027.145 0 .383-.012.532-.028.148-.02.383-.058.531-.09.148-.03.383-.097.531-.144a6.747 6.747 0 0 0 1.067-.46c.144-.083.382-.224.53-.317.15-.094.384-.258.532-.367.149-.114.383-.301.531-.426.149-.121.387-.332.532-.473.148-.137.386-.371.535-.52.144-.152.383-.406.531-.57a28.908 28.908 0 0 0 1.063-1.273 36.256 36.256 0 0 0 1.062-1.434c.148-.207.387-.55.535-.765.145-.22.383-.575.531-.801.149-.227.383-.598.532-.828.148-.235.383-.614.531-.856.148-.238.387-.629.531-.875a89.421 89.421 0 0 0 1.067-1.797c.148-.254.382-.664.53-.922.15-.253.384-.667.532-.921.149-.258.387-.672.531-.93l.536-.93c.144-.258.382-.672.53-.926.145-.257.384-.664.532-.918.148-.253.383-.66.531-.91.149-.246.383-.644.532-.89l.53-.875c.15-.239.387-.621.536-.852.144-.234.383-.605.531-.828.149-.227.383-.586.531-.8.149-.22.383-.563.532-.77.148-.211.386-.535.53-.735.15-.199.388-.511.536-.699a22.828 22.828 0 0 1 1.063-1.27c.148-.163.382-.417.53-.57.15-.152.388-.386.532-.523.149-.137.387-.348.535-.473a10.462 10.462 0 0 1 1.063-.793 8.343 8.343 0 0 1 1.063-.574c.148-.063.386-.152.53-.203.149-.047.387-.113.536-.145.144-.03.382-.07.53-.086.15-.015.384-.03.532-.03.149 0 .383.015.531.03.149.016.387.055.532.086.148.032.386.098.535.145.144.05.383.14.531.203a8.343 8.343 0 0 1 1.063.574 10.463 10.463 0 0 1 1.062.793c.148.125.387.336.535.473.145.137.383.37.531.523.149.153.383.407.532.57.148.165.383.438.531.614.148.176.387.469.531.656.149.188.387.5.535.7.145.199.383.523.532.734.148.207.382.55.53.77.15.214.384.573.532.8.149.223.387.594.531.828.149.23.387.613.536.852l.53.875c.15.246.384.644.532.89.148.25.383.657.531.91.149.254.383.66.532.918.148.254.386.668.53.926.15.258.387.672.536.93.144.258.383.672.531.93.149.254.383.668.531.921.149.258.383.668.532.922.148.25.386.657.53.907.15.25.388.648.536.89a82.018 82.018 0 0 0 1.062 1.73c.149.231.383.602.532.829.148.226.387.582.531.8a64.98 64.98 0 0 0 1.066 1.5c.145.2.383.512.532.7a28.914 28.914 0 0 0 1.062 1.273c.149.164.387.418.531.57.149.149.387.383.536.52.144.14.382.352.53.473.15.125.384.312.532.426.149.109.383.273.531.367.149.093.387.234.532.316a6.747 6.747 0 0 0 1.066.46c.148.048.383.114.531.146.149.03.383.07.532.09.148.015.386.027.53.027.15 0 .388-.012.536-.028.144-.02.383-.058.531-.09.145-.03.383-.097.531-.144a7.39 7.39 0 0 0 .532-.203 8.27 8.27 0 0 0 .53-.258c.15-.082.388-.223.532-.316a10.9 10.9 0 0 0 .535-.367c.145-.114.383-.301.532-.426.148-.121.382-.332.53-.473.15-.137.384-.371.532-.52.149-.152.387-.406.531-.57.149-.164.387-.441.536-.617.144-.176.382-.469.53-.656a36.26 36.26 0 0 0 1.063-1.434 40.644 40.644 0 0 0 1.063-1.566c.148-.227.386-.598.535-.828.144-.235.383-.614.531-.856.149-.238.383-.629.531-.875.149-.242.383-.64.532-.89.148-.25.386-.657.53-.907a193.057 193.057 0 0 0 1.067-1.843c.149-.258.532-.93.532-.93"/><path fill="none" stroke="#000" stroke-dasharray="2.9766056853 2.9766056853" stroke-miterlimit="10" stroke-width=".39736809" d="M186.39 35.254s.383-.672.532-.93c.148-.258.387-.672.531-.926l.535-.918c.145-.253.383-.66.531-.91.149-.246.383-.644.532-.89.148-.246.383-.637.531-.875.148-.239.383-.621.531-.852l.531-.828c.149-.227.387-.586.536-.8a39.868 39.868 0 0 1 1.594-2.203c.148-.188.386-.481.53-.657.15-.176.387-.45.536-.613a18.672 18.672 0 0 1 1.062-1.094c.149-.137.383-.348.532-.473.148-.125.386-.312.53-.422.15-.11.388-.273.536-.37a8.2 8.2 0 0 1 1.062-.575c.149-.063.383-.152.532-.203.148-.047.383-.113.53-.145.15-.03.388-.07.532-.086.149-.015.387-.03.535-.03.145 0 .383.015.532.03.148.016.382.055.53.086.15.032.384.098.532.145.149.05.387.14.531.203.149.066.387.18.536.262.144.078.382.218.53.312.15.098.384.262.532.371a12.538 12.538 0 0 1 1.063.895c.148.137.386.37.535.523.144.153.382.407.53.57.145.165.384.438.532.614.149.176.383.469.531.656a36.256 36.256 0 0 1 1.063 1.434 43.767 43.767 0 0 1 1.066 1.57c.149.223.383.594.532.828.148.23.382.613.53.852.15.238.388.629.532.875l.535.89.531.91c.149.254.383.66.532.918.148.254.383.668.531.926l.531.93"/><use xlink:href="#g" x="216.539" y="61.936"/><use xlink:href="#h" x="15.436" y="10.119"/></svg>