<svg xmlns="http://www.w3.org/2000/svg" xmlns:xlink="http://www.w3.org/1999/xlink" width="228.063" height="84.715"><defs><path id="c" d="M6.61-6.719H.546L.359-4.484h.25C.75-6.078.891-6.406 2.391-6.406c.172 0 .437 0 .53.015.22.047.22.157.22.375V-.78c0 .328 0 .469-1.047.469h-.39V0c.405-.031 1.405-.031 1.874-.031.453 0 1.469 0 1.875.031v-.312h-.39c-1.047 0-1.047-.141-1.047-.47v-5.234c0-.203 0-.328.187-.375.11-.015.375-.015.563-.015 1.5 0 1.64.328 1.78 1.922h.25Zm0 0"/><path id="d" d="M1.266-.766 2.313-1.78c1.546-1.375 2.14-1.906 2.14-2.907 0-1.125-.89-1.921-2.11-1.921C1.235-6.61.5-5.687.5-4.812c0 .562.484.562.516.562a.516.516 0 0 0 .515-.531c0-.266-.172-.516-.515-.516-.079 0-.11 0-.125.016.218-.657.75-1.016 1.328-1.016.906 0 1.328.797 1.328 1.61 0 .796-.485 1.578-1.031 2.203L.609-.36C.5-.266.5-.234.5 0h3.672l.281-1.719h-.25c-.047.297-.11.735-.219.875-.062.078-.718.078-.937.078Zm0 0"/><path id="e" d="M2.875-3.5c.813-.266 1.39-.953 1.39-1.734 0-.813-.874-1.375-1.827-1.375-1 0-1.75.593-1.75 1.343 0 .329.218.516.5.516.312 0 .515-.203.515-.5 0-.5-.469-.5-.625-.5.313-.484.969-.61 1.328-.61.406 0 .953.22.953 1.11 0 .125-.03.703-.28 1.125-.298.484-.642.516-.892.516a3.306 3.306 0 0 1-.374.03c-.094.017-.157.032-.157.126 0 .11.063.11.235.11h.437c.813 0 1.188.671 1.188 1.64 0 1.36-.688 1.64-1.125 1.64-.422 0-1.172-.171-1.516-.75.344.047.656-.171.656-.546 0-.36-.265-.563-.562-.563-.235 0-.547.14-.547.578 0 .907.922 1.563 2 1.563 1.203 0 2.11-.906 2.11-1.922 0-.813-.626-1.578-1.657-1.797m0 0"/><path id="g" d="M2.047-3.969h.922c.203 0 .312 0 .312-.203 0-.11-.11-.11-.281-.11h-.875c.36-1.405.406-1.609.406-1.655a.27.27 0 0 0-.281-.282c-.031 0-.312.016-.406.36l-.39 1.578H.53c-.203 0-.297 0-.297.187 0 .125.078.125.266.125h.875C.672-1.156.625-.984.625-.797c0 .531.375.906.906.906C2.547.11 3.11-1.344 3.11-1.42c0-.095-.078-.095-.109-.095-.094 0-.11.032-.156.141C2.422-.344 1.89-.109 1.563-.109c-.22 0-.313-.125-.313-.453 0-.235.016-.313.063-.485Zm0 0"/><path id="h" d="M6.297-5.734c.11-.407.281-.703 1.078-.735.047 0 .172-.015.172-.203 0 0 0-.11-.14-.11-.329 0-.673.032-1 .032-.344 0-.72-.031-1.032-.031-.062 0-.187 0-.187.203 0 .11.093.11.187.11.563.015.672.218.672.437 0 .031-.031.172-.031.203l-.891 3.547C4.781-.953 3.641-.094 2.656-.094c-.687 0-1.219-.437-1.219-1.281 0-.031 0-.344.11-.781l.969-3.86c.078-.359.109-.453.828-.453.265 0 .344 0 .344-.203 0-.11-.11-.11-.141-.11-.281 0-1 .032-1.281.032-.282 0-.985-.031-1.282-.031-.078 0-.187 0-.187.203 0 .11.094.11.281.11.016 0 .219 0 .375.015.188.031.266.031.266.156 0 .063-.094.484-.157.703l-.218.875c-.094.39-.563 2.266-.61 2.453-.062.282-.062.438-.062.579 0 1.218.89 1.906 1.937 1.906 1.25 0 2.485-1.125 2.813-2.438Zm0 0"/><clipPath id="a"><path d="M214 44h13.129v16H214Zm0 0"/></clipPath><clipPath id="b"><path d="M26 16h1v68.398h-1Zm0 0"/></clipPath><clipPath id="f"><path d="M.2 25H33v55H.2Zm0 0"/></clipPath></defs><path fill="none" stroke="#7F7F7F" stroke-miterlimit="10" stroke-width=".19818609" d="M79.996 54.445v-4.234m53.2 4.234v-4.234m53.195 4.234v-4.234"/><path fill="none" stroke="#000" stroke-miterlimit="10" stroke-width=".39736809" d="M.2 52.328h219.972"/><path d="m223.234 52.328-2.964-1.758v3.512Zm0 0"/><g clip-path="url(#a)"><path fill="none" stroke="#000" stroke-miterlimit="10" stroke-width=".39736809" d="m223.234 52.328-2.964-1.758v3.512Zm0 0"/></g><g clip-path="url(#b)"><path fill="none" stroke="#000" stroke-miterlimit="10" stroke-width=".39736809" d="M26.797 84.203v-67.12"/></g><path stroke="#000" stroke-miterlimit="10" stroke-width=".39736809" d="m26.797 14.02-1.754 2.96h3.512Zm0 0"/><use xlink:href="#c" x="83.02" y="64.731"/><use xlink:href="#d" x="137.041" y="64.731"/><use xlink:href="#c" x="142.002" y="64.731"/><use xlink:href="#e" x="190.238" y="64.731"/><use xlink:href="#c" x="195.199" y="64.731"/><g clip-path="url(#f)"><path fill="none" stroke="#000" stroke-dasharray="2.9766056853 2.9766056853" stroke-miterlimit="10" stroke-width=".39736809" d="M-26.402 52.328s.386-4.14.535-5.644c.144-1.5.383-3.864.531-5.184.149-1.324.383-3.289.531-4.34.149-1.047.383-2.496.532-3.215.148-.718.386-1.593.53-1.976.15-.383.388-.707.536-.785.145-.082.383.054.531.21.149.157.383.61.531.91.149.301.383.91.532 1.259.148.351.383.949.531 1.257.148.313.387.77.531.98.149.208.387.446.535.516.145.075.383.067.532.004.148-.062.382-.285.53-.453.15-.168.384-.531.532-.754.149-.222.387-.633.531-.855.149-.223.387-.578.536-.746.144-.168.382-.387.53-.465a.956.956 0 0 1 .532-.098c.148.024.383.156.531.274.149.117.387.39.532.57.148.176.386.52.535.71.144.196.383.52.53.685.145.16.384.394.532.484.149.094.383.176.531.176.149 0 .383-.082.532-.176.148-.09.386-.324.53-.484.15-.165.388-.489.536-.684.145-.191.383-.535.531-.711.149-.18.383-.453.532-.57.148-.118.382-.25.53-.274a.95.95 0 0 1 .532.098c.149.078.387.297.535.465.145.168.383.523.532.746.148.222.382.633.53.855.15.223.384.586.532.754.148.168.387.39.531.453.149.063.387.07.535-.004.145-.07.383-.308.532-.515.144-.211.382-.668.53-.98.15-.31.384-.907.532-1.258.149-.348.383-.958.531-1.258.149-.301.387-.754.532-.91.148-.157.386-.293.535-.211.144.078.383.402.531.785.149.383.383 1.258.531 1.976.149.72.383 2.168.532 3.215.148 1.051.386 3.016.53 4.34.15 1.32.388 3.684.536 5.184.145 1.504.383 4.078.531 5.644.149 1.567.383 4.14.531 5.645.149 1.5.383 3.863.532 5.183.148 1.324.386 3.29.531 4.34.148 1.047.387 2.492.531 3.215.149.719.387 1.594.535 1.977.145.382.383.707.532.785.148.078.382-.055.53-.211.15-.157.384-.614.532-.914.149-.301.387-.907.531-1.254.149-.352.387-.95.536-1.258.144-.313.382-.773.53-.98.15-.208.384-.446.532-.52a.733.733 0 0 1 .531 0c.149.062.387.285.532.453.148.168.386.531.535.754.144.223.382.633.53.855.15.223.384.575.532.743.149.172.383.39.531.468a.956.956 0 0 0 .532.098c.148-.023.386-.16.53-.277.15-.117.388-.387.536-.567.145-.175.383-.52.531-.71.149-.196.383-.52.532-.684.148-.16.382-.395.53-.485.15-.093.388-.175.532-.175.149 0 .387.082.535.175.145.09.383.325.531.485.149.164.383.488.532.683.148.192.383.536.531.711.148.18.387.45.531.567.149.117.387.254.535.277.145.027.383-.02.532-.098.144-.078.382-.296.53-.468.15-.168.384-.52.532-.743.149-.222.383-.632.531-.855.149-.223.387-.586.532-.754.148-.168.386-.39.535-.453a.733.733 0 0 1 .531 0c.148.074.383.312.531.52.149.207.383.667.532.98.148.309.386.906.53 1.258.15.347.388.953.536 1.254.144.3.383.757.531.914.149.156.383.289.531.21.149-.077.383-.402.532-.784.148-.383.386-1.258.531-1.977.148-.723.387-2.168.531-3.215.149-1.05.387-3.016.535-4.34.145-1.32.383-3.683.532-5.183.148-1.504.53-5.645.53-5.645"/></g><path fill="none" stroke="#000" stroke-miterlimit="10" stroke-width=".39736809" d="M26.797 52.328s.383-4.14.531-5.644c.149-1.5.387-3.864.531-5.184.149-1.324.387-3.289.536-4.34a61.38 61.38 0 0 1 .53-3.215c.15-.718.384-1.593.532-1.976.148-.383.383-.707.531-.785.149-.082.387.054.532.21.148.157.386.61.535.91.144.301.382.91.53 1.259.15.351.384.949.532 1.257.149.313.383.77.531.98.149.208.383.446.532.516a.714.714 0 0 0 .53.004c.15-.062.388-.285.536-.453.145-.168.383-.531.531-.754.149-.222.383-.633.532-.855.148-.223.382-.578.53-.746.15-.168.388-.387.532-.465a.97.97 0 0 1 .535-.098c.145.024.383.156.531.274.149.117.383.39.532.57.148.176.383.52.531.71.148.196.387.52.531.685.149.16.387.394.535.484.145.094.383.176.532.176.148 0 .382-.082.53-.176.15-.09.384-.324.532-.484.149-.165.383-.489.531-.684.149-.191.387-.535.532-.711.148-.18.386-.453.535-.57.144-.118.383-.25.531-.274a.956.956 0 0 1 .531.098c.149.078.383.297.532.465.148.168.386.523.53.746.15.222.388.633.536.855.144.223.383.586.531.754.149.168.383.39.531.453.149.063.383.07.532-.004.148-.07.386-.308.531-.515.148-.211.387-.668.535-.98.145-.31.383-.907.531-1.258.145-.348.383-.958.532-1.258.148-.301.382-.754.53-.91.15-.157.384-.293.532-.211.149.078.387.402.531.785.149.383.387 1.258.536 1.976.144.72.382 2.168.53 3.215.15 1.051.384 3.016.532 4.34.148 1.32.383 3.684.531 5.184.149 1.504.387 4.078.532 5.644.148 1.567.386 4.14.535 5.645.144 1.5.382 3.863.53 5.183.15 1.324.384 3.29.532 4.34a66.6 66.6 0 0 0 .531 3.215c.149.719.387 1.594.532 1.977.148.382.386.707.53.785.15.078.388-.055.536-.211.145-.157.383-.614.531-.914.149-.301.383-.907.532-1.254.148-.352.382-.95.53-1.258.15-.313.388-.773.532-.98.149-.208.387-.446.535-.52.145-.07.383-.063.531 0 .149.062.383.285.532.453.148.168.383.531.531.754.148.223.387.633.531.855.149.223.387.575.535.743.145.172.383.39.532.468a.956.956 0 0 0 .53.098c.15-.023.384-.16.532-.277.149-.117.387-.387.531-.567.149-.175.387-.52.532-.71.148-.196.386-.52.535-.684.144-.16.383-.395.531-.485.148-.093.383-.175.531-.175.149 0 .383.082.532.175.148.09.386.325.53.485.15.164.388.488.536.683.144.192.383.536.531.711.149.18.383.45.531.567.149.117.383.254.532.277a.95.95 0 0 0 .53-.098c.15-.078.388-.296.536-.468.145-.168.383-.52.531-.743.149-.222.383-.632.532-.855.148-.223.382-.586.53-.754.15-.168.384-.39.532-.453.149-.063.387-.07.531 0 .149.074.387.312.536.52.144.207.382.667.53.98.15.309.384.906.532 1.258.148.347.383.953.531 1.254.149.3.387.757.532.914.148.156.386.289.535.21.144-.077.382-.402.53-.784.15-.383.384-1.258.532-1.977.149-.723.383-2.168.531-3.215.149-1.05.387-3.016.532-4.34.148-1.32.386-3.683.535-5.183.144-1.504.383-4.078.531-5.645.145-1.566.383-4.14.531-5.644.149-1.5.383-3.864.532-5.184.148-1.324.382-3.289.53-4.34.15-1.047.388-2.496.532-3.215.149-.718.387-1.593.535-1.976.145-.383.383-.707.531-.785.149-.082.383.054.532.21.148.157.383.61.531.91.148.301.387.91.531 1.259.149.351.387.949.535 1.257.145.313.383.77.532.98.148.208.382.446.53.516a.714.714 0 0 0 .532.004c.149-.062.387-.285.531-.453.149-.168.387-.531.532-.754.148-.222.386-.633.535-.855.144-.223.383-.578.531-.746.148-.168.383-.387.531-.465a.956.956 0 0 1 .532-.098c.148.024.386.156.53.274.15.117.388.39.536.57.144.176.383.52.531.71.149.196.383.52.531.685.149.16.383.394.532.484.148.094.386.176.53.176.15 0 .388-.082.536-.176.145-.09.383-.324.531-.484.149-.165.383-.489.532-.684.148-.191.382-.535.53-.711.15-.18.388-.453.532-.57.149-.118.387-.25.531-.274a.97.97 0 0 1 .536.098c.144.078.382.297.53.465.15.168.384.523.532.746.148.222.383.633.531.855.149.223.387.586.532.754.148.168.386.39.535.453.144.063.382.07.53-.004.15-.07.384-.308.532-.515.149-.211.383-.668.531-.98.149-.31.387-.907.532-1.258.148-.348.386-.958.535-1.258.144-.301.383-.754.531-.91.145-.157.383-.293.531-.211.149.078.383.402.532.785.148.383.382 1.258.53 1.976.15.72.388 2.168.532 3.215.149 1.051.387 3.016.535 4.34.145 1.32.383 3.684.531 5.184.149 1.504.383 4.078.532 5.644.148 1.567.383 4.14.531 5.645.148 1.5.387 3.863.531 5.183.149 1.324.387 3.29.535 4.34.145 1.047.383 2.492.532 3.215.148.719.382 1.594.53 1.977.15.382.384.707.532.785.149.078.387-.055.531-.211.149-.157.387-.614.536-.914.144-.301.382-.907.53-1.254.145-.352.384-.95.532-1.258.148-.313.383-.773.531-.98.149-.208.383-.446.532-.52a.733.733 0 0 1 .53 0c.15.062.387.285.536.453.144.168.383.531.531.754.149.223.383.633.531.855.149.223.383.575.532.743.148.172.386.39.53.468a.97.97 0 0 0 .536.098c.145-.023.383-.16.531-.277.149-.117.383-.387.532-.567.148-.175.382-.52.53-.71.15-.196.388-.52.532-.684.149-.16.387-.395.531-.485.149-.093.387-.175.535-.175.145 0 .383.082.532.175.148.09.383.325.531.485.148.164.383.488.531.683.149.192.387.536.531.711.149.18.387.45.536.567.144.117.382.254.53.277a.956.956 0 0 0 .532-.098c.149-.078.383-.296.531-.468a7.93 7.93 0 0 0 .532-.743c.148-.222.386-.632.535-.855.144-.223.383-.586.531-.754.148-.168.383-.39.531-.453a.733.733 0 0 1 .532 0c.148.074.382.312.53.52.15.207.388.667.532.98.148.309.387.906.535 1.258.145.347.383.953.531 1.254.149.3.383.757.532.914.148.156.383.289.531.21.148-.077.387-.402.531-.784.149-.383.387-1.258.535-1.977.145-.723.383-2.168.532-3.215.148-1.05.382-3.016.53-4.34.15-1.32.384-3.683.532-5.183.149-1.504.387-4.078.531-5.645.149-1.566.387-4.14.536-5.644.144-1.5.382-3.864.53-5.184.145-1.324.384-3.289.532-4.34.148-1.047.383-2.496.531-3.215.149-.718.383-1.593.532-1.976.148-.383.386-.707.53-.785.15-.082.387.054.536.21.144.157.383.61.531.91.149.301.383.91.531 1.259.149.351.383.949.532 1.257.148.313.386.77.53.98.15.208.388.446.536.516.145.075.383.067.531.004.149-.062.383-.285.532-.453.148-.168.382-.531.53-.754.15-.222.388-.633.532-.855.149-.223.387-.578.535-.746.145-.168.383-.387.531-.465a.95.95 0 0 1 .532-.098c.148.024.383.156.531.274.148.117.383.39.531.57.149.176.387.52.531.71.149.196.387.52.536.685.144.16.382.394.53.484.15.094.384.176.532.176.149 0 .383-.082.531-.176.149-.09.387-.324.532-.484.148-.165.386-.489.535-.684.144-.191.383-.535.531-.711.148-.18.383-.453.531-.57.149-.118.383-.25.532-.274a.95.95 0 0 1 .53.098c.15.078.388.297.532.465.148.168.387.523.535.746.145.222.383.633.531.855.149.223.383.586.532.754.148.168.383.39.531.453.148.063.387.07.531-.004.149-.07.387-.308.535-.515.145-.211.383-.668.532-.98.148-.31.382-.907.53-1.258.15-.348.384-.958.532-1.258.149-.301.387-.754.531-.91.149-.157.387-.293.536-.211.144.078.382.402.53.785.15.383.384 1.258.532 1.976.148.72.383 2.168.531 3.215.149 1.051.383 3.016.532 4.34.148 1.32.386 3.684.53 5.184.15 1.504.387 4.078.536 5.644.144 1.567.383 4.14.531 5.645.149 1.5.383 3.863.531 5.183.149 1.324.383 3.29.532 4.34.148 1.047.386 2.492.53 3.215.15.719.388 1.594.536 1.977.145.382.383.707.531.785.149.078.383-.055.532-.211.148-.157.382-.614.53-.914.15-.301.388-.907.532-1.254.149-.352.387-.95.535-1.258.145-.313.383-.773.531-.98.145-.208.383-.446.532-.52a.733.733 0 0 1 .531 0c.148.062.383.285.531.453.149.168.387.531.531.754.149.223.387.633.536.855.144.223.382.575.53.743.15.172.384.39.532.468a.956.956 0 0 0 .531.098c.149-.023.387-.16.532-.277.148-.117.386-.387.535-.567.144-.175.383-.52.531-.71.148-.196.383-.52.531-.684.149-.16.383-.395.532-.485.148-.093.386-.175.53-.175.15 0 .388.082.536.175.144.09.383.325.531.485.145.164.383.488.531.683.149.192.383.536.532.711.148.18.383.45.53.567.15.117.388.254.532.277a.97.97 0 0 0 .535-.098c.145-.078.383-.296.532-.468.148-.168.382-.52.53-.743.15-.222.384-.632.532-.855.149-.223.387-.586.531-.754.149-.168.387-.39.536-.453a.733.733 0 0 1 .53 0c.15.074.384.312.532.52.148.207.383.667.531.98.149.309.387.906.532 1.258.148.347.386.953.53 1.254.15.3.387.757.536.914.144.156.383.289.531.21.149-.077.383-.402.531-.784.149-.383.383-1.258.532-1.977.148-.723.386-2.168.53-3.215.15-1.05.388-3.016.536-4.34a626.66 626.66 0 0 0 1.063-10.828"/><path fill="none" stroke="#000" stroke-dasharray="2.9766056853 2.9766056853" stroke-miterlimit="10" stroke-width=".39736809" d="M186.39 52.328s.383-4.14.532-5.644c.148-1.5.387-3.864.531-5.184.149-1.324.387-3.289.535-4.34a61.38 61.38 0 0 1 .531-3.215c.149-.718.383-1.593.532-1.976.148-.383.383-.707.531-.785.148-.082.383.054.531.21.149.157.387.61.531.91.149.301.387.91.536 1.259.144.351.382.949.53 1.257.15.313.384.77.532.98.149.208.383.446.531.516a.714.714 0 0 0 .532.004c.148-.062.386-.285.535-.453.144-.168.383-.531.531-.754.148-.222.383-.633.531-.855.149-.223.383-.578.532-.746.148-.168.386-.387.53-.465a.97.97 0 0 1 .536-.098c.144.024.383.156.531.274.145.117.383.39.531.57.149.176.383.52.532.71.148.196.383.52.53.685.15.16.388.394.532.484.149.094.387.176.535.176.145 0 .383-.082.532-.176.148-.09.382-.324.53-.484.15-.165.384-.489.532-.684.149-.191.387-.535.531-.711.149-.18.387-.453.536-.57.144-.118.382-.25.53-.274a.956.956 0 0 1 .532.098c.148.078.383.297.531.465.149.168.387.523.532.746.148.222.386.633.535.855.144.223.382.586.53.754.145.168.384.39.532.453.149.063.383.07.531-.004.149-.07.383-.308.532-.515.148-.211.386-.668.53-.98.15-.31.388-.907.536-1.258.145-.348.383-.958.531-1.258.149-.301.383-.754.532-.91.148-.157.382-.293.53-.211.15.078.388.402.532.785.148.383.387 1.258.535 1.976.145.72.383 2.168.531 3.215.149 1.051.383 3.016.532 4.34.148 1.32.383 3.684.531 5.184.148 1.504.531 5.644.531 5.644"/><use xlink:href="#g" x="216.539" y="61.936"/><use xlink:href="#h" x="15.436" y="10.119"/></svg>