<svg xmlns="http://www.w3.org/2000/svg" xmlns:xlink="http://www.w3.org/1999/xlink" width="230.57" height="76.08"><defs><path id="b" d="M2.313-4.375c0-.187-.016-.203-.204-.203-.453.437-1.078.437-1.359.437v.25c.172 0 .625 0 1-.187v3.516c0 .218 0 .312-.687.312H.797V0c.125 0 .969-.031 1.234-.031.203 0 1.078.031 1.235.031v-.25H3c-.687 0-.687-.094-.687-.312Zm0 0"/><path id="c" d="M5.14-4.656H.47l-.14 1.578h.233c.094-1.188.297-1.328 1.36-1.328h.406c.156.031.156.11.156.265v3.579c0 .218 0 .312-.718.312h-.297V0c.343-.031.984-.031 1.344-.031.359 0 .984 0 1.328.031v-.25h-.282c-.718 0-.718-.094-.718-.312v-3.579c0-.156 0-.234.14-.265h.406c.391 0 .688 0 .922.14.313.172.36.625.375.657l.063.53h.234Zm0 0"/><path id="d" d="M3.484-1.25H3.25c-.031.14-.094.547-.187.625-.047.047-.579.047-.672.047H1.109c.735-.64.97-.844 1.391-1.172.5-.406.984-.828.984-1.484 0-.828-.734-1.344-1.609-1.344-.86 0-1.437.61-1.437 1.234 0 .36.296.39.359.39a.369.369 0 0 0 .375-.374c0-.11-.063-.36-.406-.36.203-.484.672-.64 1-.64.687 0 1.047.531 1.047 1.094 0 .609-.422 1.078-.657 1.328L.5-.266C.438-.203.438-.187.438 0h2.828Zm0 0"/><path id="e" d="M1.875-2.297c.547 0 .922.375.922 1.11 0 .843-.485 1.109-.89 1.109-.266 0-.876-.078-1.173-.484.329-.016.407-.25.407-.391a.37.37 0 0 0-.375-.375c-.203 0-.391.11-.391.39 0 .657.719 1.079 1.547 1.079.953 0 1.625-.641 1.625-1.328 0-.547-.453-1.079-1.203-1.235.719-.265.984-.781.984-1.203 0-.547-.625-.953-1.39-.953-.766 0-1.36.375-1.36.922 0 .234.156.375.36.375.218 0 .359-.156.359-.36 0-.203-.14-.343-.36-.359.25-.297.72-.375.985-.375.297 0 .734.156.734.75 0 .297-.094.61-.265.828-.235.25-.422.266-.766.281-.172.016-.187.016-.219.032-.015 0-.078.015-.078.093 0 .094.063.094.188.094Zm0 0"/><path id="f" d="M3.64-1.125v-.25h-.765v-3.078c0-.14 0-.188-.14-.188-.094 0-.11 0-.188.094L.266-1.375v.25h2.03v.563c0 .234 0 .312-.562.312h-.187V0a27.64 27.64 0 0 1 1.031-.031c.266 0 .703.015 1.047.031v-.25h-.187c-.563 0-.563-.078-.563-.312v-.563ZM2.345-3.906v2.531H.53Zm0 0"/><path id="g" d="M1.063-3.844c.359.094.562.094.671.094.907 0 1.454-.625 1.454-.734 0-.063-.047-.094-.094-.094 0 0-.016 0-.047.031-.172.047-.531.188-1.047.188-.187 0-.547-.016-1-.188-.062-.031-.078-.031-.094-.031-.094 0-.094.078-.094.187v2.032c0 .125 0 .203.125.203.063 0 .063-.016.125-.094.297-.375.72-.437.97-.437.406 0 .593.328.624.39.125.219.172.485.172.89 0 .204 0 .61-.203.907a.984.984 0 0 1-.812.422c-.454 0-.907-.25-1.079-.703.266.015.391-.156.391-.344 0-.297-.25-.344-.344-.344-.015 0-.343 0-.343.36C.438-.484 1 .14 1.828.14c.875 0 1.656-.657 1.656-1.532 0-.765-.593-1.484-1.453-1.484-.297 0-.656.078-.969.328Zm0 0"/><path id="h" d="M1.031-2.25c0-.562.047-1.078.313-1.5.234-.375.61-.625 1.047-.625.203 0 .484.047.625.234-.172.016-.328.141-.328.344 0 .172.124.313.328.313.203 0 .328-.141.328-.328 0-.407-.281-.766-.969-.766-.984 0-2 .906-2 2.39 0 1.782.844 2.329 1.594 2.329.843 0 1.578-.641 1.578-1.547 0-.875-.703-1.516-1.5-1.516-.563 0-.86.36-1.016.672M1.97-.078c-.344 0-.61-.203-.75-.5-.11-.219-.172-.563-.172-.969 0-.672.406-1.187.953-1.187.328 0 .531.125.703.375.172.265.172.547.172.953 0 .39 0 .687-.187.953-.157.234-.376.375-.72.375m0 0"/><path id="i" d="M3.688-4.156c.062-.094.062-.11.062-.282H1.953c-.281 0-.36 0-.61-.03C1-4.5.985-4.548.954-4.657H.72L.484-3.188H.72c.015-.093.078-.546.187-.624.063-.047.61-.047.719-.047h1.5c-.219.297-.562.718-.719.922-.89 1.187-.984 2.28-.984 2.687 0 .078 0 .39.328.39s.328-.312.328-.406V-.53c0-1.344.281-1.953.578-2.328Zm0 0"/><path id="j" d="M3.61-3.937h.843c.203 0 .297 0 .297-.204 0-.109-.094-.109-.266-.109h-.812l.203-1.11c.047-.218.188-.906.234-1.03.094-.188.266-.329.47-.329.03 0 .296 0 .484.172-.438.047-.532.39-.532.531 0 .235.172.344.36.344.25 0 .547-.219.547-.594 0-.453-.454-.671-.86-.671-.328 0-.953.171-1.25 1.156-.062.203-.094.297-.328 1.531h-.672c-.187 0-.297 0-.297.188 0 .125.078.125.266.125h.656L2.22-.047c-.188.953-.344 1.844-.86 1.844-.046 0-.28 0-.468-.172a.528.528 0 0 0 .53-.531c0-.235-.171-.344-.359-.344a.575.575 0 0 0-.546.594c0 .437.437.672.843.672.547 0 .938-.578 1.11-.953.312-.625.547-1.813.547-1.875Zm0 0"/><path id="k" d="M0-7.062h-.312v.187c0 .578-.063.719-.391.828l-6.14 2.125c-.141.047-.204.078-.204.235 0 .156.063.187.203.234l5.875 2.031c.5.188.657.578.657 1.11H0l-.031-1L0-2.453h-.312c0 .5-.235.734-.5.734-.032 0-.125 0-.141-.015l-1.297-.453V-4.61l1.516-.532c.03 0 .093-.03.14-.03.282 0 .282.562.282.827H0c-.031-.36-.031-1.047-.031-1.422Zm-2.547 2.546v2.22L-5.75-3.392Zm0 0"/><path id="l" d="M0-8h-.312c0 .516 0 .75-.282.766h-1.89c-.844 0-1.141 0-1.5.297-.172.14-.36.468-.36 1.046 0 .829.578 1.25.953 1.422-.859.14-.953.86-.953 1.313 0 .719.422 1.172 1.032 1.453h-1.032l.094 1.39h.313c0-.687.062-.765.546-.765H-.75c.438 0 .438.11.438.766H0l-.031-1.11L0-2.532h-.312c0 .657 0 .766-.438.766h-1.812c-1.016 0-1.579-.703-1.579-1.328 0-.625.532-.719 1.094-.719H-.75c.438 0 .438.094.438.766H0l-.031-1.11L0-5.265h-.312c0 .657 0 .766-.438.766h-1.812c-1.016 0-1.579-.703-1.579-1.328 0-.625.532-.734 1.094-.734H-.75c.438 0 .438.109.438.78H0l-.031-1.124Zm0 0"/><path id="m" d="M-2.125-5.125c-1.25 0-2.219.953-2.219 2.047 0 .781.422 1.187.64 1.39h-.64L-4.25-.28h.313c0-.688.062-.766.484-.766h4.61c.452 0 .452.11.452.766h.297l-.031-1.094.031-1.11H1.61c0 .657 0 .766-.453.766H-.578c.156-.047.687-.468.687-1.218 0-1.172-.968-2.188-2.234-2.188m0 .813c1.188 0 2.016.687 2.016 1.421 0 .391-.203.766-.594 1.032-.219.14-.219.14-.422.14h-2.187c-.5-.297-.797-.765-.797-1.281 0-.719.875-1.312 1.984-1.312m0 0"/><path id="n" d="M0-2.516h-.312c0 .672 0 .766-.438.766h-6.078l.11 1.422h.296c0-.688.078-.766.563-.766H-.75c.438 0 .438.11.438.766H0l-.031-1.094Zm0 0"/><path id="o" d="M0-2.437h-.312c0 .656-.047.687-.422.687h-3.61l.094 1.39h.313c0-.64.062-.734.546-.734H-.75c.438 0 .438.11.438.766H0l-.031-1.078c0-.344.015-.688.031-1.031m-5.953.546a.522.522 0 0 0 0 1.047c.266 0 .531-.218.531-.515a.536.536 0 0 0-.531-.532m0 0"/><path id="p" d="M-1.219-3.266h-.562v.25h.547c.718 0 1.093.282 1.093.657 0 .656-.89.656-1.062.656h-2.734V-3.11h-.313v1.406h-1.797v.25c.797 0 1.86.297 1.89 1.266h.22v-.844h2.718C-.016-1.031.11-1.938.11-2.297c0-.703-.703-.969-1.328-.969m0 0"/><path id="q" d="M0-5.266h-.312c0 .688-.063.766-.547.766h-3.485l.094 1.453h.313c0-.687.062-.765.546-.765h1.75c.86 0 1.532.468 1.532 1.187 0 .828-.47.86-.97.86h-3.265l.094 1.453h.313c0-.766.03-.766.906-.766h1.469c.78 0 1.671 0 1.671-1.5 0-.547-.28-.985-.89-1.266h.89Zm0 0"/><path id="r" d="M0-5.187h-.312c0 .687-.063.765-.547.765h-5.97L-6.718-3h.297c0-.687.078-.766.563-.766h2.125c-.36.282-.61.704-.61 1.235 0 1.156.953 2.203 2.235 2.203 1.25 0 2.218-.969 2.218-2.094 0-.625-.328-1.078-.656-1.312H.11Zm-1.156 1.453c.172 0 .187 0 .36.109.468.281.687.734.687 1.156 0 .438-.25.797-.625 1.031-.407.25-.97.282-1.375.282-.36 0-.953-.016-1.391-.297-.312-.203-.64-.578-.64-1.11 0-.343.156-.765.593-1.062.172-.11.188-.11.375-.11Zm0 0"/><path id="s" d="M-1.172-4.078c-.094 0-.125.078-.125.125 0 .078.063.11.14.125C-.14-3.484-.14-2.594-.14-2.5c0 .484-.296.89-.656 1.11-.469.296-1.125.296-1.484.296v-2.75c0-.219 0-.234-.203-.234-.97 0-1.922.531-1.922 1.75 0 1.14 1.015 2.047 2.234 2.047C-.844-.281.11-1.312.11-2.437c0-1.204-1.093-1.641-1.28-1.641m-1.312.64v2.329c-1.47-.047-1.703-.875-1.703-1.22 0-1.015 1.328-1.108 1.703-1.108m0 0"/><clipPath id="a"><path d="M216 46h12.98v16H216Zm0 0"/></clipPath></defs><path fill="none" stroke="#7F7F7F" stroke-miterlimit="10" stroke-width=".19662195000000002" d="M42.96 56.402V52.2m26.08 4.203V52.2m26.077 4.203V52.2m26.078 4.203V52.2m26.078 4.203V52.2m26.079 4.203V52.2m26.078 4.203V52.2"/><path fill="none" stroke="#000" stroke-miterlimit="10" stroke-width=".39423195" d="M3.844 54.3h218.234"/><path d="m225.113 54.3-2.937-1.741v3.484Zm0 0"/><g clip-path="url(#a)"><path fill="none" stroke="#000" stroke-miterlimit="10" stroke-width=".39423195" d="m225.113 54.3-2.937-1.741v3.484Zm0 0"/></g><path fill="none" stroke="#000" stroke-miterlimit="10" stroke-width=".39423195" d="M16.883 70.215V3.629"/><path stroke="#000" stroke-miterlimit="10" stroke-width=".39423195" d="M16.883.59 15.14 3.527h3.484Zm0 0"/><use xlink:href="#b" x="40.997" y="64.32"/><path fill="none" stroke="#000" stroke-miterlimit="10" stroke-width=".4426464" d="M40.148 65.809h5.622"/><use xlink:href="#c" x="40.15" y="71.89"/><use xlink:href="#d" x="67.075" y="64.32"/><path fill="none" stroke="#000" stroke-miterlimit="10" stroke-width=".4426464" d="M66.227 65.809h5.62"/><use xlink:href="#c" x="66.227" y="71.89"/><use xlink:href="#e" x="93.154" y="64.32"/><path fill="none" stroke="#000" stroke-miterlimit="10" stroke-width=".4426464" d="M92.305 65.809h5.62"/><use xlink:href="#c" x="92.306" y="71.89"/><use xlink:href="#f" x="119.231" y="64.32"/><path fill="none" stroke="#000" stroke-miterlimit="10" stroke-width=".4426464" d="M118.383 65.809h5.62"/><use xlink:href="#c" x="118.384" y="71.89"/><use xlink:href="#g" x="145.309" y="64.32"/><path fill="none" stroke="#000" stroke-miterlimit="10" stroke-width=".4426464" d="M144.46 65.809h5.622"/><use xlink:href="#c" x="144.461" y="71.89"/><use xlink:href="#h" x="171.388" y="64.32"/><path fill="none" stroke="#000" stroke-miterlimit="10" stroke-width=".4426464" d="M170.54 65.809h5.62"/><use xlink:href="#c" x="170.54" y="71.89"/><use xlink:href="#i" x="197.465" y="64.32"/><path fill="none" stroke="#000" stroke-miterlimit="10" stroke-width=".4426464" d="M196.617 65.809h5.621"/><use xlink:href="#c" x="196.617" y="71.89"/><path fill="none" stroke="#000" stroke-miterlimit="10" stroke-width="1.9691836500000002" d="M42.96 54.3V22.478M69.04 54.3V38.387M95.116 54.3V43.69m26.078 10.61v-7.957m26.078 7.957v-6.364m26.079 6.364v-5.305m26.078 5.305v-4.547"/><use xlink:href="#j" x="216.148" y="64.616"/><use xlink:href="#k" x="11.494" y="49.349"/><use xlink:href="#l" x="11.494" y="41.967"/><use xlink:href="#m" x="11.494" y="33.767"/><use xlink:href="#n" x="11.494" y="28.294"/><use xlink:href="#o" x="11.494" y="25.557"/><use xlink:href="#p" x="11.494" y="22.821"/><use xlink:href="#q" x="11.494" y="18.992"/><use xlink:href="#r" x="11.494" y="13.519"/><use xlink:href="#s" x="11.494" y="8.045"/></svg>