<svg xmlns="http://www.w3.org/2000/svg" xmlns:xlink="http://www.w3.org/1999/xlink" width="219.05" height="120.635"><defs><clipPath id="a"><path d="M71 .078h82V1H71Zm0 0"/></clipPath><clipPath id="b"><path d="M12 .078h200v120.113H12Zm0 0"/></clipPath><clipPath id="f"><path d="M205 43h13.105v34H205Zm0 0"/></clipPath><path id="c" d="M2.031-.578V-5l-1.344.266a1 1 0 0 1-.015-.188c0-.133.07-.226.219-.281l1.468-.594h.438v5.219l1.094.172q.14.016.14.11-.002.08-.11.296H.86v-.078q0-.311.282-.36Zm0 0"/><path id="d" d="M2.234-.39q1.092.001 1.094-2.516c0-1.664-.367-2.5-1.094-2.5-.73 0-1.093.836-1.093 2.5 0 1.68.363 2.515 1.093 2.515m-.046.5q-.862 0-1.36-.75Q.296-1.42.297-2.907c0-.977.187-1.735.562-2.266.352-.488.829-.734 1.422-.734q.873.001 1.36.734c.343.531.515 1.29.515 2.266q0 1.487-.562 2.265-.516.75-1.406.75m0 0"/><path id="e" d="M5.828-6.156v.078q-.002.252-.297.328l-.234.047L3.28 0h-.734L.453-5.687l-.375-.11q-.124-.014-.125-.11c0-.05.035-.132.094-.25H2.03c.008.024.016.048.016.079q-.001.253-.313.312l-.375.079L3-.907h.031L4.72-5.702l-.688-.11q-.127-.011-.125-.093 0-.075.094-.25Zm0 0"/></defs><g clip-path="url(#a)"><path fill="none" stroke="#000" stroke-miterlimit="10" stroke-width=".39727632" d="M72.11.277h39.906m0 0h39.906"/></g><g clip-path="url(#b)"><path fill="none" stroke="#000" stroke-miterlimit="10" stroke-width=".39727632" d="M72.11.277H12.25v53.934m0 11.852v53.933h199.531V75.941m0-31.609V.277h-59.86"/></g><path fill="none" stroke="#000" stroke-miterlimit="10" stroke-width=".39727632" d="M12.25 62.094v3.969m0-7.883v-3.97"/><path fill="none" stroke="#000" stroke-miterlimit="10" stroke-width=".7935569600000001" d="M24.105 58.18H.398"/><path fill="none" stroke="#000" stroke-miterlimit="10" stroke-width="2.38067088" d="M18.18 62.094H6.324"/><use xlink:href="#c" x="26.897" y="62.278"/><use xlink:href="#d" x="31.361" y="62.278"/><use xlink:href="#e" x="37.307" y="62.278"/><g clip-path="url(#f)"><path fill="none" stroke="#000" stroke-miterlimit="10" stroke-width=".7935569600000001" d="M217.711 44.332v31.61h-11.855v-31.61Zm0 0"/></g><use xlink:href="#c" x="188.773" y="62.278"/><use xlink:href="#d" x="193.237" y="62.278"/><use xlink:href="#d" x="197.701" y="62.278"/></svg>