<svg xmlns="http://www.w3.org/2000/svg" xmlns:xlink="http://www.w3.org/1999/xlink" width="218.306" height="118.198"><defs><path id="c" d="M4.14 0v-.312h-.312c-.89 0-.922-.11-.922-.47v-5.546c0-.234 0-.266-.219-.266-.624.64-1.484.64-1.812.64v.313c.203 0 .781 0 1.297-.265v5.125c0 .36-.031.469-.922.469H.938V0C1.28-.031 2.14-.031 2.547-.031c.39 0 1.25 0 1.594.031m0 0"/><path id="d" d="M4.547-3.172c0-.781-.047-1.578-.39-2.312-.454-.938-1.266-1.11-1.688-1.11-.594 0-1.313.266-1.719 1.188-.312.672-.36 1.453-.36 2.234 0 .75.032 1.64.438 2.39a1.83 1.83 0 0 0 1.64 1C3 .219 3.75.017 4.189-.936c.312-.672.359-1.454.359-2.235m-.813-.11c0 .735 0 1.407-.109 2.048C3.469-.297 2.906 0 2.469 0c-.39 0-.969-.25-1.156-1.203-.11-.594-.11-1.5-.11-2.078 0-.64 0-1.281.078-1.828.188-1.172.938-1.266 1.188-1.266.328 0 .969.188 1.156 1.156.11.563.11 1.313.11 1.938m0 0"/><path id="e" d="M7.219-6.453v-.297a22.29 22.29 0 0 1-.953.031L5.14-6.75v.297c.5.016.718.266.718.5 0 .078-.03.14-.046.203L4-.984l-1.89-5c-.063-.141-.063-.172-.063-.172 0-.297.562-.297.812-.297v-.297c-.359.031-1.046.031-1.421.031L.188-6.75v.297c.64 0 .828 0 .968.375L3.453 0c.063.188.125.219.25.219.172 0 .188-.047.235-.188L6.14-5.78c.14-.375.406-.657 1.078-.672m0 0"/><path id="f" d="M6.703-1.61h-.25a3.895 3.895 0 0 1-.187.735c-.047.156-.079.234-.641.234h-.797c.125-.562.438-1.03.875-1.687.469-.703.875-1.375.875-2.156 0-1.375-1.344-2.485-3-2.485-1.703 0-3.031 1.125-3.031 2.485 0 .78.406 1.453.875 2.156.437.656.75 1.125.875 1.687h-.781c-.578 0-.61-.078-.657-.234-.078-.219-.125-.484-.171-.734h-.25L.766 0h1.578c.219 0 .25 0 .25-.203 0-.703-.313-1.563-.531-2.203-.22-.578-.485-1.36-.485-2.094 0-1.578 1.078-2.25 1.985-2.25.953 0 2 .703 2 2.25 0 .734-.266 1.5-.563 2.297-.14.422-.453 1.312-.453 2 0 .203.016.203.25.203h1.578Zm0 0"/><clipPath id="a"><path d="M12 0h196v117.402H12Zm0 0"/></clipPath><clipPath id="b"><path d="M.39 56H25v2H.39Zm0 0"/></clipPath></defs><path fill="none" stroke="#000" stroke-miterlimit="10" stroke-width=".39631074000000005" d="M71.117.2h39m0 0h39.004"/><g clip-path="url(#a)"><path fill="none" stroke="#000" stroke-miterlimit="10" stroke-width=".39631074000000005" d="M71.117.2H12.613v52.59m0 11.823v52.59h195.012V74.47m0-31.535V.199h-58.504"/></g><path fill="none" stroke="#000" stroke-miterlimit="10" stroke-width=".39631074000000005" d="M12.613 60.652v3.961m0-7.863v-3.96"/><g clip-path="url(#b)"><path fill="none" stroke="#000" stroke-miterlimit="10" stroke-width=".7916282200000001" d="M24.438 56.75H.785"/></g><path fill="none" stroke="#000" stroke-miterlimit="10" stroke-width="2.37488466" d="M18.523 60.652H6.7"/><use xlink:href="#c" x="27.219" y="60.833"/><use xlink:href="#d" x="32.167" y="60.833"/><use xlink:href="#e" x="38.757" y="60.833"/><path fill="none" stroke="#000" stroke-miterlimit="10" stroke-width=".7916282200000001" d="M213.54 42.934v31.535H201.71V42.934Zm0 0"/><use xlink:href="#c" x="175.879" y="60.833"/><use xlink:href="#d" x="180.827" y="60.833"/><use xlink:href="#d" x="185.775" y="60.833"/><use xlink:href="#f" x="192.372" y="60.833"/></svg>