<svg xmlns="http://www.w3.org/2000/svg" xmlns:xlink="http://www.w3.org/1999/xlink" width="170.079" height="92.254"><defs><path id="b" d="M4.766-.875v-.562h-.25v.562c0 .563-.235.625-.344.625-.328 0-.375-.437-.375-.484V-2.72c0-.406 0-.797-.344-1.156-.39-.39-.89-.547-1.36-.547-.812 0-1.484.469-1.484 1.11 0 .296.188.468.454.468a.444.444 0 0 0 .453-.453c0-.125-.047-.453-.516-.453.281-.344.75-.453 1.078-.453.485 0 1.047.375 1.047 1.266v.359c-.516.031-1.203.062-1.828.36-.734.327-.984.843-.984 1.28C.313-.14 1.28.11 1.89.11 2.547.11 3-.28 3.188-.75c.046.39.312.813.765.813.219 0 .813-.141.813-.938m-1.641-.5c0 .938-.719 1.266-1.156 1.266-.485 0-.89-.344-.89-.844 0-.531.405-1.36 2.046-1.422Zm0 0"/><path id="c" d="M5.14-2.14c0-1.25-.968-2.22-2.093-2.22-.766 0-1.188.454-1.344.641v-3.14L.281-6.75v.313c.688 0 .766.062.766.546V0h.25l.36-.61c.14.22.562.72 1.28.72 1.188 0 2.204-.97 2.204-2.25m-.812 0c0 .359-.016.953-.312 1.406-.203.297-.578.625-1.11.625-.453 0-.797-.235-1.047-.61-.125-.203-.125-.234-.125-.406v-2.031c0-.188 0-.203.11-.36A1.409 1.409 0 0 1 3-4.14c.453 0 .797.25 1.031.625.266.407.297.97.297 1.375m0 0"/><path id="d" d="M3.844 0v-.281h-.281c-.829 0-.86-.094-.86-.438v-4.968c0-.22-.015-.235-.234-.235-.547.563-1.36.563-1.64.563v.28c.171 0 .702 0 1.187-.234v4.594c0 .344-.032.438-.844.438H.875V0c.328-.031 1.11-.031 1.484-.031.36 0 1.157 0 1.485.031m0 0"/><path id="e" d="M1.75-3.36a.474.474 0 0 0-.484-.468.474.474 0 0 0-.485.469c0 .265.219.484.485.484a.487.487 0 0 0 .484-.484m0 2.876a.484.484 0 0 0-.484-.47.484.484 0 0 0-.485.47C.781-.22 1 0 1.266 0a.487.487 0 0 0 .484-.484m0 0"/><path id="f" d="M4.297-1.469v-.281H3.39v-4.031c0-.172 0-.235-.157-.235-.109 0-.125 0-.203.125L.266-1.75v.281h2.422v.766c0 .328-.032.422-.704.422h-.187V0c.562-.031 1.187-.031 1.25-.031.031 0 .672 0 1.234.031v-.281h-.187c-.672 0-.703-.094-.703-.422v-.766ZM2.734-1.75H.547l2.187-3.281Zm0 0"/><path id="g" d="M4.86 0v-.281c-.594 0-.688-.063-.688-.5v-3.14l-1.328.093v.265c.594 0 .672.063.672.5v1.579c0 .797-.438 1.359-1.078 1.359-.735 0-.782-.375-.782-.86v-2.937l-1.343.094v.265C1-3.562 1-3.53 1-2.734v1.328c0 .578 0 .953.406 1.265.25.172.625.235.969.235.469 0 .906-.203 1.156-.735h.016v.735ZM2.186-5.375a.42.42 0 0 0-.421-.422.424.424 0 0 0-.438.422c0 .25.188.438.438.438a.424.424 0 0 0 .422-.438m1.579 0a.42.42 0 0 0-.422-.422.434.434 0 0 0-.438.422c0 .25.203.438.438.438a.424.424 0 0 0 .422-.438m0 0"/><path id="h" d="M3.703-6.062c.063-.235.094-.344.281-.36.079-.016.407-.016.594-.016.703 0 1.797 0 1.797.985 0 .328-.156 1.016-.531 1.39-.266.266-.782.579-1.672.579h-1.11ZM5.125-3.36c1-.22 2.172-.907 2.172-1.907 0-.843-.89-1.484-2.188-1.484H2.297c-.188 0-.281 0-.281.203 0 .11.093.11.28.11.017 0 .204 0 .376.015.172.016.265.031.265.156 0 .047-.015.079-.046.188L1.563-.766c-.094.375-.11.454-.891.454-.172 0-.266 0-.266.203 0 .109.11.109.14.109.266 0 .97-.031 1.235-.031.282 0 .985.031 1.266.031.078 0 .187 0 .187-.203 0-.11-.078-.11-.265-.11-.375 0-.64 0-.64-.171 0-.063.015-.11.015-.172L3-3.266h1.172c.906 0 1.078.547 1.078.891 0 .156-.078.453-.14.688-.063.28-.157.64-.157.843C4.953.22 6.141.22 6.266.22c.843 0 1.187-1 1.187-1.14 0-.11-.11-.11-.11-.11-.093 0-.109.062-.14.125-.234.734-.672.906-.89.906-.329 0-.391-.219-.391-.61 0-.296.047-.796.094-1.124.015-.125.03-.313.03-.453 0-.766-.655-1.079-.921-1.172m0 0"/><clipPath id="a"><path d="M5 77h15v14.516H5Zm0 0"/></clipPath></defs><path fill="none" stroke="#000" stroke-linejoin="bevel" stroke-miterlimit="10" stroke-width=".7906080600000001" d="M30.063 39.07c3.261 0 5.906 1.805 5.906 4.035 0 2.227-2.645 4.036-5.906 4.036 3.261 0 5.906 1.804 5.906 4.035 0 2.23-2.645 4.035-5.906 4.035 3.261 0 5.906 1.809 5.906 4.035 0 2.23-2.645 4.035-5.906 4.035 3.261 0 5.906 1.809 5.906 4.035 0 2.23-2.645 4.04-5.906 4.04M54 71.355c-3.262 0-5.906-1.808-5.906-4.039 0-2.226 2.644-4.035 5.906-4.035-3.262 0-5.906-1.804-5.906-4.035 0-2.226 2.644-4.035 5.906-4.035-3.262 0-5.906-1.805-5.906-4.035 0-2.23 2.644-4.035 5.906-4.035-3.262 0-5.906-1.809-5.906-4.036 0-2.23 2.644-4.035 5.906-4.035"/><path fill="none" stroke="#000" stroke-miterlimit="10" stroke-width=".39580002000000003" d="M12.504 25.688h17.715v13.777m0 31.492v13.781H12.504m59.05-59.05H53.84v13.777m0 31.492v13.781h17.715"/><path fill="none" stroke="#000" stroke-miterlimit="10" stroke-width=".7906080600000001" d="M43.508 69.973V40.449m-2.953 29.524V40.449"/><path fill="#FFF" stroke="#000" stroke-miterlimit="10" stroke-width=".39580002000000003" d="M14.078 25.688a1.575 1.575 0 1 0-3.148 0 1.575 1.575 0 0 0 3.148 0Zm0 0"/><path fill="#FFF" d="M14.078 84.738a1.575 1.575 0 1 0-3.148 0 1.575 1.575 0 0 0 3.148 0m0 0"/><g clip-path="url(#a)"><path fill="none" stroke="#000" stroke-miterlimit="10" stroke-width=".39580002000000003" d="M14.078 84.738a1.575 1.575 0 1 0-3.148 0 1.575 1.575 0 0 0 3.148 0Zm0 0"/></g><path fill="none" stroke="#000" stroke-miterlimit="10" stroke-width=".39580002000000003" d="M71.555 25.688h38.414m0 0h38.41M71.555 84.738h38.414m0 0h38.41"/><use xlink:href="#b" x="4.072" y="27.846"/><use xlink:href="#c" x="3.52" y="88.111"/><use xlink:href="#d" x="36.187" y="22.196"/><use xlink:href="#e" x="40.758" y="22.196"/><use xlink:href="#f" x="43.302" y="22.196"/><use xlink:href="#g" x="39.491" y="9.092"/><path fill="none" stroke="#000" stroke-miterlimit="10" stroke-width=".39580002000000003" d="M148.379 25.688v13.777m0 31.492v13.781"/><path fill="none" stroke="#000" stroke-miterlimit="10" stroke-width=".7906080600000001" d="M142.477 70.957V39.465h11.808v31.492Zm0 0"/><use xlink:href="#h" x="156.472" y="57.341"/></svg>