<svg xmlns="http://www.w3.org/2000/svg" xmlns:xlink="http://www.w3.org/1999/xlink" width="231.439" height="123.049"><defs><path id="b" d="M2.906-6.328c0-.234 0-.266-.219-.266-.624.64-1.484.64-1.812.64v.313c.203 0 .781 0 1.297-.265v5.125c0 .36-.031.469-.922.469H.938V0C1.28-.031 2.14-.031 2.547-.031c.39 0 1.25 0 1.594.031v-.312h-.313c-.89 0-.922-.11-.922-.47Zm0 0"/><path id="c" d="M6.14-5.781c.141-.375.407-.657 1.079-.672v-.297a22.29 22.29 0 0 1-.953.031c-.297 0-.875-.031-1.125-.031v.297c.5.016.718.266.718.5 0 .078-.03.14-.046.203L4-.984l-1.89-5c-.063-.141-.063-.157-.063-.172 0-.297.562-.297.812-.297v-.297c-.359.031-1.046.031-1.421.031-.47 0-.891-.031-1.25-.031v.297c.64 0 .828 0 .968.375L3.453 0c.063.188.125.219.25.219.172 0 .188-.047.235-.188Zm0 0"/><path id="d" d="M4.547-3.172c0-.781-.047-1.578-.39-2.312-.454-.938-1.266-1.11-1.688-1.11-.594 0-1.313.266-1.719 1.188-.312.672-.36 1.453-.36 2.234 0 .75.032 1.64.438 2.39a1.83 1.83 0 0 0 1.64 1C3 .219 3.75.017 4.189-.936c.312-.672.359-1.454.359-2.235M2.469 0c-.39 0-.969-.25-1.156-1.203-.11-.594-.11-1.5-.11-2.078 0-.64 0-1.281.078-1.828.188-1.172.938-1.266 1.188-1.266.328 0 .969.188 1.156 1.156.11.563.11 1.313.11 1.938 0 .734 0 1.406-.11 2.047C3.469-.297 2.906 0 2.469 0m0 0"/><path id="f" d="M4.438-1.984c0-1.188-.813-2.172-1.875-2.172-.47 0-.907.156-1.25.5v-1.922c.187.062.515.125.828.125 1.218 0 1.922-.89 1.922-1.031 0-.047-.032-.11-.11-.11 0 0-.031 0-.078.032a3.198 3.198 0 0 1-1.344.296c-.39 0-.844-.078-1.312-.28-.078-.032-.094-.032-.125-.032C1-6.578 1-6.5 1-6.344v2.938c0 .172 0 .25.14.25.063 0 .079-.031.126-.094.109-.156.468-.687 1.28-.687.517 0 .75.453.829.64.172.36.188.75.188 1.235 0 .343 0 .937-.235 1.359-.25.39-.61.64-1.062.64-.72 0-1.282-.515-1.453-1.109.03.016.062.031.171.031.329 0 .485-.25.485-.484 0-.25-.157-.484-.485-.484-.14 0-.484.062-.484.515C.5-.734 1.172.22 2.281.22c1.156 0 2.157-.953 2.157-2.203m0 0"/><path id="e" d="M2-.016c0-.64-.234-1.03-.625-1.03a.514.514 0 0 0-.531.515c0 .281.203.531.531.531.125 0 .25-.047.344-.125.031-.016.047-.031.047-.031.015 0 .03.015.03.14 0 .735-.359 1.329-.671 1.657-.11.109-.11.125-.11.156 0 .078.048.11.094.11.11 0 .891-.766.891-1.923m0 0"/><path id="g" d="M2.031-3.953h.938c.203 0 .297 0 .297-.203 0-.11-.094-.11-.282-.11H2.11c.36-1.406.407-1.593.407-1.656 0-.172-.11-.266-.282-.266-.03 0-.312 0-.39.36l-.39 1.562H.53c-.203 0-.297 0-.297.188 0 .125.078.125.266.125h.875C.656-1.141.625-.984.625-.797c0 .531.375.906.906.906C2.547.11 3.11-1.328 3.11-1.42c0-.095-.078-.095-.125-.095-.093 0-.093.032-.14.141C2.406-.344 1.89-.109 1.547-.109c-.203 0-.297-.125-.297-.453 0-.235.016-.313.063-.47Zm0 0"/><path id="h" d="M6.281-5.719c.094-.406.282-.703 1.063-.734.047 0 .172 0 .172-.188 0-.015 0-.109-.125-.109-.328 0-.672.031-1.016.031-.328 0-.703-.031-1.031-.031-.047 0-.172 0-.172.188 0 .109.094.109.172.109.578.016.672.219.672.437 0 .032-.016.188-.016.204l-.89 3.53C4.765-.952 3.624-.093 2.64-.093c-.671 0-1.203-.437-1.203-1.281 0-.016 0-.344.11-.766L2.5-6c.094-.344.11-.453.828-.453.266 0 .344 0 .344-.188 0-.109-.11-.109-.14-.109-.282 0-.985.031-1.266.031-.282 0-.985-.031-1.282-.031-.078 0-.187 0-.187.188 0 .109.094.109.281.109.016 0 .203 0 .375.031.172.016.266.016.266.156 0 .047-.11.47-.172.704l-.219.859C1.25-4.313.766-2.437.734-2.25c-.078.266-.078.422-.078.563C.656-.47 1.563.218 2.594.218c1.25 0 2.484-1.125 2.812-2.422Zm0 0"/><path id="i" d="M2.313-4.406c0-.188 0-.188-.204-.188-.437.438-1.078.438-1.359.438v.25c.172 0 .625 0 1.016-.188v3.532c0 .218 0 .312-.703.312H.797V0C.922 0 1.78-.031 2.03-.031c.219 0 1.094.031 1.25.031v-.25h-.265c-.703 0-.703-.094-.703-.312Zm0 0"/><path id="j" d="M3.5-1.266h-.234c-.032.157-.094.563-.188.641-.047.031-.594.031-.687.031H1.125c.719-.64.969-.828 1.375-1.156.516-.406 1-.844 1-1.5 0-.828-.734-1.344-1.625-1.344-.86 0-1.437.594-1.437 1.235 0 .359.296.39.359.39a.369.369 0 0 0 .375-.375c0-.11-.047-.36-.406-.36.203-.483.687-.64 1-.64.703 0 1.062.532 1.062 1.094 0 .61-.437 1.078-.656 1.328L.5-.266C.438-.203.438-.187.438 0H3.28Zm0 0"/><clipPath id="a"><path d="M.61 4H108v118.105H.61Zm0 0"/></clipPath></defs><path fill="none" stroke="#000" stroke-miterlimit="10" stroke-width=".39593967" d="M4.773 74.074H95.81"/><path stroke="#000" stroke-miterlimit="10" stroke-width=".39593967" d="m98.86 74.074-2.954-1.75v3.5Zm0 0"/><path fill="none" stroke="#000" stroke-miterlimit="10" stroke-width=".39593967" d="M9.496 121.316V18.47"/><path stroke="#000" stroke-miterlimit="10" stroke-width=".39593967" d="m9.496 15.418-1.75 2.953h3.5Zm0 0"/><g clip-path="url(#a)"><path fill="none" stroke="#000" stroke-miterlimit="10" stroke-width="1.5817740200000001" d="M9.496 74.074c3.082-12.094 6.027-23.62 9.25-23.62h.399c3.218 0 6.168 11.526 9.199 23.429l.097.383c3.032 11.902 5.98 23.43 9.204 23.43h.394c3.223 0 6.168-11.528 9.2-23.43.027-.106.062-.278.074-.387 3.054-23.992 6.003-47.043 9.226-47.043h.395c3.222 0 6.171 23.05 9.226 47.043.012.11.035.285.051.39 3.055 23.993 6 47.047 9.223 47.047h.394c3.223 0 6.172-23.054 9.25-47.242"/></g><path fill="none" stroke="#000" stroke-dasharray="2.9659056739 1.9772671415" stroke-miterlimit="10" stroke-width=".39593967" d="M4.773 26.836h94.48M4.773 50.453h94.48"/><use xlink:href="#b" x="81.616" y="23.343"/><use xlink:href="#c" x="88.2" y="23.343"/><use xlink:href="#d" x="73.927" y="45.04"/><use xlink:href="#e" x="78.869" y="45.04"/><use xlink:href="#f" x="81.616" y="45.04"/><use xlink:href="#c" x="88.2" y="45.04"/><use xlink:href="#g" x="97.467" y="83.649"/><use xlink:href="#h" x="3.905" y="10.05"/><use xlink:href="#i" x="10.655" y="11.533"/><path fill="none" stroke="#000" stroke-miterlimit="10" stroke-width=".39593967" d="M115.79 103.598h23.616m0 0h35.43m0 0h23.621m0 0h11.809"/><path fill="#FFF" stroke="#000" stroke-miterlimit="10" stroke-width=".39593967" d="M117.363 103.598a1.577 1.577 0 0 0-3.152 0c0 .87.707 1.578 1.578 1.578.867 0 1.574-.707 1.574-1.578ZM211.844 103.598a1.577 1.577 0 1 0-1.578 1.578c.87 0 1.578-.707 1.578-1.578Zm0 0"/><path fill="none" stroke="#000" stroke-miterlimit="10" stroke-width=".39593967" d="M115.79 32.738h10.39m26.453 0h22.203m0 0h23.621m0 0h11.809"/><path fill="none" stroke="#000" stroke-miterlimit="10" stroke-width=".7908870100000001" d="M126.18 27.777h26.453V37.7H126.18Zm0 0"/><path fill="#FFF" stroke="#000" stroke-miterlimit="10" stroke-width=".39593967" d="M117.363 32.738a1.577 1.577 0 0 0-3.152 0 1.575 1.575 0 0 0 3.152 0ZM211.844 32.738a1.577 1.577 0 0 0-3.152 0 1.575 1.575 0 0 0 3.152 0Zm0 0"/><path fill="none" stroke="#000" stroke-miterlimit="10" stroke-width=".39593967" d="M163.027 32.738v28.817m0 13.226v28.817"/><path fill="none" stroke="#000" stroke-miterlimit="10" stroke-width=".7908870100000001" d="m163.027 61.555 8.266 13.226h-16.531Zm0 0"/><path fill="none" stroke="#000" stroke-miterlimit="10" stroke-width=".39593967" d="M163.027 61.555V74.78"/><path fill="none" stroke="#000" stroke-miterlimit="10" stroke-width=".7908870100000001" d="M154.762 61.555h16.531"/><path stroke="#000" stroke-miterlimit="10" stroke-width=".39593967" d="M164.602 32.738a1.575 1.575 0 1 0-3.15.001 1.575 1.575 0 0 0 3.15 0ZM164.602 103.598a1.575 1.575 0 0 0-3.149 0 1.575 1.575 0 1 0 3.149 0Zm0 0"/><path fill="none" stroke="#000" stroke-miterlimit="10" stroke-width=".39593967" d="M186.649 32.738v28.817m0 13.226v28.817"/><path fill="none" stroke="#000" stroke-miterlimit="10" stroke-width=".7908870100000001" d="m186.649 74.781 8.265-13.226H178.38Zm0 0"/><path fill="none" stroke="#000" stroke-miterlimit="10" stroke-width=".39593967" d="M186.649 74.781V61.555"/><path fill="none" stroke="#000" stroke-miterlimit="10" stroke-width=".7908870100000001" d="M178.379 74.781h16.535"/><path stroke="#000" stroke-miterlimit="10" stroke-width=".39593967" d="M188.223 32.738a1.577 1.577 0 0 0-3.153 0 1.575 1.575 0 0 0 3.153 0ZM188.223 103.598a1.577 1.577 0 0 0-3.153 0c0 .87.707 1.578 1.579 1.578.867 0 1.574-.707 1.574-1.578Zm0 0"/><path fill="none" stroke="#000" stroke-miterlimit="10" stroke-width=".39593967" d="M115.79 43.32v49.7"/><path stroke="#000" stroke-miterlimit="10" stroke-width=".39593967" d="M115.79 88.836h-1.974l1.973 4.184 1.969-4.184Zm0 0"/><use xlink:href="#h" x="119.34" y="70.807"/><use xlink:href="#i" x="126.089" y="72.289"/><path fill="none" stroke="#000" stroke-miterlimit="10" stroke-width=".39593967" d="M210.266 43.32v49.7"/><path stroke="#000" stroke-miterlimit="10" stroke-width=".39593967" d="M210.266 88.836h-1.969l1.969 4.184 1.968-4.184Zm0 0"/><use xlink:href="#h" x="213.818" y="70.807"/><use xlink:href="#j" x="220.568" y="72.289"/></svg>