<svg xmlns="http://www.w3.org/2000/svg" width="48.037" height="44.451"><defs><clipPath id="a"><path d="M0 .168h47.094v43.578H0Zm0 0"/></clipPath><clipPath id="b"><path d="M23 .168h15v43.578H23Zm0 0"/></clipPath></defs><g clip-path="url(#a)"><path fill="none" stroke="#000" stroke-miterlimit="10" stroke-width=".7813389500000001" d="M43.45 21.957c0-9.488-7.692-17.18-17.18-17.18-9.489 0-17.18 7.692-17.18 17.18s7.691 17.18 17.18 17.18c9.488 0 17.18-7.692 17.18-17.18Zm0 0"/></g><g clip-path="url(#b)"><path fill="none" stroke="#000" stroke-miterlimit="10" stroke-width=".39115965" d="M37.688.363V14.47H24.07m0 14.976h13.618v14.106"/></g><path fill="none" stroke="#000" stroke-miterlimit="10" stroke-width=".7813389500000001" d="M24.07 11.258v21.398"/><path fill="none" stroke="#000" stroke-miterlimit="10" stroke-width=".39115965" d="M10.453 29.445H24.07m-13.617 0"/><path d="M16.727 29.445v-2.242l5.007 2.242-5.007 2.242Zm0 0"/><path fill="none" stroke="#000" stroke-miterlimit="10" stroke-width=".39115965" d="M10.453 29.445H.195"/></svg>