<svg xmlns="http://www.w3.org/2000/svg" xmlns:xlink="http://www.w3.org/1999/xlink" width="217.741" height="44.451"><defs><clipPath id="c"><path d="M33 0h58v43.91H33Zm0 0"/></clipPath><clipPath id="d"><path d="M59 0h15v43.91H59Zm0 0"/></clipPath><clipPath id="e"><path d="M166 0h50.285v43.91H166Zm0 0"/></clipPath><clipPath id="f"><path d="M192 0h16v43.91h-16Zm0 0"/></clipPath><path id="a" d="M4.125 0v-.312h-.312c-.891 0-.922-.094-.922-.47v-5.515c0-.234 0-.266-.22-.266-.608.641-1.483.641-1.796.641v.297c.203 0 .781 0 1.297-.25v5.094c0 .36-.031.469-.922.469H.938V0C1.28-.031 2.14-.031 2.53-.031c.39 0 1.25 0 1.594.031m0 0"/><path id="b" d="M4.422-1.719h-.25c-.047.297-.11.735-.219.875-.062.078-.719.078-.937.078H1.25l1.047-1c1.531-1.359 2.125-1.89 2.125-2.875 0-1.125-.89-1.921-2.094-1.921A1.81 1.81 0 0 0 .5-4.782c0 .563.484.563.516.563a.516.516 0 0 0 .515-.531c0-.25-.187-.5-.531-.5H.875c.234-.64.766-1 1.328-1 .89 0 1.328.797 1.328 1.61 0 .78-.5 1.562-1.047 2.171L.594-.359C.5-.25.5-.234.5 0h3.64Zm0 0"/></defs><use xlink:href="#a" x="4.481" y="25.231"/><use xlink:href="#b" x="137.724" y="25.231"/><g clip-path="url(#c)"><path fill="none" stroke="#000" stroke-miterlimit="10" stroke-width=".7872766000000001" d="M79.371 21.953c0-9.558-7.75-17.308-17.309-17.308-9.562 0-17.312 7.75-17.312 17.308 0 9.563 7.75 17.313 17.312 17.313 9.56 0 17.31-7.75 17.31-17.313Zm0 0"/></g><g clip-path="url(#d)"><path fill="none" stroke="#000" stroke-miterlimit="10" stroke-width=".39413220000000004" d="M73.562.195V14.41H59.844m0 15.09h13.718v14.21"/></g><path fill="none" stroke="#000" stroke-miterlimit="10" stroke-width=".7872766000000001" d="M59.844 11.176v21.558"/><path fill="none" stroke="#000" stroke-miterlimit="10" stroke-width=".39413220000000004" d="M46.121 29.5h13.723m-13.723 0"/><path d="M52.441 29.5v-2.258l5.051 2.258-5.05 2.262Zm0 0"/><g clip-path="url(#e)"><path fill="none" stroke="#000" stroke-miterlimit="10" stroke-width=".7872766000000001" d="M212.617 21.953c0 9.563-7.75 17.313-17.312 17.313-9.559 0-17.309-7.75-17.309-17.313 0-9.558 7.75-17.308 17.309-17.308 9.562 0 17.312 7.75 17.312 17.308Zm0 0"/></g><g clip-path="url(#f)"><path fill="none" stroke="#000" stroke-miterlimit="10" stroke-width=".39413220000000004" d="M206.809 43.71V29.5h-13.723m0-15.09h13.723V.195"/></g><path fill="none" stroke="#000" stroke-miterlimit="10" stroke-width=".7872766000000001" d="M193.086 32.734V11.176"/><path fill="none" stroke="#000" stroke-miterlimit="10" stroke-width=".39413220000000004" d="M193.086 29.5h-13.719m0 0"/><path d="M189.512 29.5v-2.258l-5.047 2.258 5.047 2.262Zm0 0"/><path fill="none" stroke="#000" stroke-miterlimit="10" stroke-width=".39413220000000004" d="M46.121 29.5H32.797M179.367 29.5h-13.324"/></svg>