<svg xmlns="http://www.w3.org/2000/svg" width="38.754" height="44.451"><defs><clipPath id="a"><path d="M.113 0h38.282v43.91H.113Zm0 0"/></clipPath><clipPath id="b"><path d="M14 29h15v14.91H14Zm0 0"/></clipPath><clipPath id="c"><path d="M.113 29H12v1H.113Zm0 0"/></clipPath><clipPath id="d"><path d="M27 21h2v22.91h-2Zm0 0"/></clipPath></defs><g clip-path="url(#a)"><path fill="none" stroke="#000" stroke-miterlimit="10" stroke-width=".7872766000000001" d="M34.727 21.953c0 8.692-7.047 15.738-15.739 15.738-8.691 0-15.734-7.046-15.734-15.738 0-8.687 7.043-15.734 15.734-15.734 8.692 0 15.739 7.047 15.739 15.734Zm0 0"/></g><g clip-path="url(#b)"><path fill="none" stroke="#000" stroke-miterlimit="10" stroke-width=".39413220000000004" d="M27.95 43.71V29.5H14.23"/></g><path fill="none" stroke="#000" stroke-miterlimit="10" stroke-width=".7872766000000001" d="M14.23 32.734v-5.93m0-2.156v-5.386m0-2.157v-5.93"/><path fill="none" stroke="#000" stroke-miterlimit="10" stroke-width=".39413220000000004" d="M14.23 21.953h13.915M14.23 14.41h13.72V.195"/><path fill="none" stroke="#000" stroke-miterlimit="10" stroke-width=".7872766000000001" d="M10.937 29.7V14.21"/><path d="M17.805 21.953v2.262l5.047-2.262-5.047-2.258Zm0 0"/><g clip-path="url(#c)"><path fill="none" stroke="#000" stroke-miterlimit="10" stroke-width=".39413220000000004" d="M10.937 29.5H.312"/></g><g clip-path="url(#d)"><path fill="none" stroke="#000" stroke-miterlimit="10" stroke-width=".39413220000000004" d="M27.95 21.953v21.563"/></g><path stroke="#000" stroke-miterlimit="10" stroke-width=".39413220000000004" d="M29.047 29.5a1.099 1.099 0 0 1-2.195 0 1.099 1.099 0 0 1 2.195 0Zm0 0"/></svg>