<svg xmlns="http://www.w3.org/2000/svg" xmlns:xlink="http://www.w3.org/1999/xlink" width="223.076" height="221.21"><defs><path id="a" d="M.828-2.297h4.313a.24.24 0 0 0 .234-.234.24.24 0 0 0-.234-.235H.828a.24.24 0 0 0-.234.235c0 .125.11.234.234.234m0 0"/><path id="h" d="M3.203-.375v-1.922h1.938a.24.24 0 0 0 .234-.234.24.24 0 0 0-.234-.235H3.203v-1.921a.23.23 0 0 0-.234-.235c-.11 0-.219.11-.219.234v1.922H.828a.24.24 0 0 0-.234.235c0 .125.11.234.234.234H2.75v1.922c0 .11.11.219.219.219.14 0 .234-.11.234-.219m0 0"/><path id="b" d="M3.703-6.016c.094-.359.125-.453.906-.453.25 0 .329 0 .329-.187 0-.125-.11-.125-.157-.125-.281 0-1.015.031-1.312.031-.297 0-1.016-.031-1.313-.031-.078 0-.203 0-.203.203 0 .11.094.11.281.11.422 0 .688 0 .688.187 0 .047 0 .062-.031.156L1.563-.781c-.094.375-.125.469-.907.469-.234 0-.312 0-.312.203 0 .109.11.109.14.109C.781 0 1.5-.031 1.781-.031 2.078-.031 2.813 0 3.11 0c.079 0 .204 0 .204-.187 0-.125-.079-.125-.297-.125-.172 0-.235 0-.422-.016-.219-.016-.25-.063-.25-.172 0-.078.015-.156.031-.219Zm0 0"/><path id="d" d="M3.719-6.094c.062-.234.094-.328.281-.36.094-.015.406-.015.61-.015.702 0 1.796 0 1.796.985 0 .328-.156 1.015-.547 1.406-.25.266-.78.578-1.671.578h-1.11Zm1.437 2.719c1-.219 2.172-.906 2.172-1.906 0-.86-.89-1.5-2.187-1.5H2.313c-.204 0-.282 0-.282.203 0 .11.078.11.266.11.031 0 .219 0 .375.015.187.031.281.031.281.156 0 .047-.015.078-.047.188L1.578-.781c-.094.39-.125.469-.906.469-.172 0-.266 0-.266.203C.406 0 .531 0 .546 0c.282 0 .97-.031 1.25-.031.282 0 .985.031 1.267.031.078 0 .187 0 .187-.203 0-.11-.078-.11-.281-.11-.36 0-.64 0-.64-.171 0-.063.015-.11.03-.172l.657-2.625h1.187c.89 0 1.078.547 1.078.906 0 .14-.078.453-.14.672-.079.281-.157.656-.157.844C4.984.219 6.172.219 6.297.219c.844 0 1.187-1 1.187-1.14 0-.126-.109-.126-.109-.126-.094 0-.11.078-.125.14C7-.171 6.563 0 6.344 0c-.328 0-.407-.219-.407-.61 0-.296.063-.812.11-1.124.016-.141.031-.328.031-.47 0-.765-.656-1.077-.922-1.171m0 0"/><path id="c" d="M.422-4.734v.25h.156c.531 0 .547.062.547.312v3.61c0 .234-.016.312-.547.312H.422V0h2.937c.985 0 1.688-.61 1.688-1.266 0-.609-.61-1.125-1.453-1.218.687-.125 1.25-.547 1.25-1.078 0-.626-.735-1.172-1.688-1.172Zm1.312 2.172V-4.22c0-.218.016-.265.344-.265h1.016c.687 0 1.062.484 1.062.922 0 .5-.468 1-1.265 1ZM2.078-.25c-.328 0-.344-.062-.344-.266v-1.843H3.22c.734 0 1.125.593 1.125 1.078 0 .515-.469 1.031-1.235 1.031Zm0 0"/><path id="e" d="M5.156-4.703c0-.11 0-.172-.093-.172-.032 0-.063 0-.11.078l-.375.531a1.993 1.993 0 0 0-1.437-.609c-1.453 0-2.657 1.125-2.657 2.5C.484-.969 1.704.141 3.141.141c1.234 0 2.015-.922 2.015-1.766 0-.078 0-.125-.11-.125-.046 0-.109 0-.124.078-.047 1.125-1 1.563-1.688 1.563-.734 0-2-.453-2-2.25 0-1.891 1.344-2.266 1.985-2.266.687 0 1.515.453 1.687 1.656.016.078.078.078.125.078.125 0 .125-.046.125-.187Zm0 0"/><path id="p" d="M2.328-4.406c0-.188-.015-.203-.219-.203-.437.437-1.062.453-1.359.453v.25c.172 0 .625 0 1.016-.203v3.547c0 .218 0 .312-.703.312h-.25V0c.109 0 .968-.031 1.234-.031C2.25-.031 3.125 0 3.28 0v-.25h-.265c-.688 0-.688-.094-.688-.312Zm0 0"/><path id="k" d="M4.563-3.172c0-.797-.047-1.594-.391-2.328-.469-.953-1.281-1.11-1.688-1.11-.593 0-1.328.266-1.734 1.188-.312.672-.36 1.453-.36 2.25 0 .735.032 1.64.438 2.39.438.798 1.156 1 1.64 1C3 .219 3.767.017 4.204-.936c.313-.688.36-1.454.36-2.235m-.829-.125c0 .75 0 1.422-.109 2.063C3.485-.297 2.922 0 2.469 0c-.39 0-.969-.25-1.156-1.203-.11-.594-.11-1.5-.11-2.094 0-.625 0-1.281.094-1.828.187-1.172.922-1.266 1.172-1.266.328 0 .984.172 1.172 1.157.093.562.093 1.312.093 1.937m0 0"/><path id="l" d="M2.016-.016c0-.625-.235-1.03-.641-1.03-.344 0-.516.265-.516.515 0 .265.157.531.516.531a.625.625 0 0 0 .406-.156 2.56 2.56 0 0 1-.703 1.86c-.062.046-.062.062-.062.109 0 .062.046.109.093.109.125 0 .907-.797.907-1.938m0 0"/><path id="m" d="M4.531-2.031c0-1.25-.875-2.203-1.984-2.203-.672 0-1.031.5-1.235.984v-.25c0-2.5 1.235-2.86 1.735-2.86.234 0 .656.063.875.391-.156 0-.547 0-.547.453 0 .313.234.454.453.454.156 0 .453-.094.453-.47 0-.593-.437-1.077-1.25-1.077-1.281 0-2.61 1.28-2.61 3.468C.422-.484 1.564.22 2.485.22c1.11 0 2.047-.938 2.047-2.25m-.89 0c0 .469 0 .969-.172 1.328-.297.594-.75.64-.985.64-.625 0-.921-.593-.968-.734-.188-.469-.188-1.265-.188-1.453 0-.766.313-1.766 1.219-1.766.156 0 .61 0 .922.625.172.36.172.875.172 1.36m0 0"/><path id="n" d="M7.25-6.469v-.312c-.312.031-.719.031-.969.031l-1.125-.031v.312c.516.016.719.266.719.5 0 .078-.031.14-.047.188L4.016-.984 2.109-6c-.062-.14-.062-.187-.062-.187 0-.282.578-.282.828-.282v-.312c-.36.031-1.047.031-1.422.031L.188-6.781v.312c.64 0 .828 0 .968.375L3.47 0c.062.188.11.219.234.219.172 0 .203-.047.25-.188l2.203-5.828c.14-.375.407-.656 1.094-.672m0 0"/><clipPath id="f"><path d="M130 .063h16V13h-16Zm0 0"/></clipPath><clipPath id="g"><path d="M198 .063h16V13h-16Zm0 0"/></clipPath><clipPath id="i"><path d="M171 209h2v11.36h-2Zm0 0"/></clipPath><clipPath id="j"><path d="M165 219h14v1.36h-14Zm0 0"/></clipPath><clipPath id="o"><path d="M62 .063h16V13H62Zm0 0"/></clipPath></defs><path fill="none" stroke="#000" stroke-miterlimit="10" stroke-width=".39735213" d="M1.777 124.96h30.098m7.906 0H69.88"/><path fill="none" stroke="#000" stroke-miterlimit="10" stroke-width=".79370839" d="M31.875 113.102v23.714m7.906-23.714v23.714"/><path fill="#FFF" stroke="#000" stroke-miterlimit="10" stroke-width=".39735213" d="M3.36 124.96a1.58 1.58 0 1 0-3.161-.002 1.58 1.58 0 0 0 3.16.003Zm0 0"/><path fill="none" stroke="#000" stroke-miterlimit="10" stroke-width=".39735213" d="M206.078 210.086h-34.047m0 0h-34.05"/><use xlink:href="#a" x="209.583" y="212.498"/><path fill="#FFF" stroke="#000" stroke-miterlimit="10" stroke-width=".39735213" d="M207.66 210.086a1.58 1.58 0 1 0-3.16-.003 1.58 1.58 0 0 0 3.16.003Zm0 0"/><path fill="none" stroke="#000" stroke-miterlimit="10" stroke-width=".79370839" d="M145.95 124.96c0-8.097-6.563-14.655-14.657-14.655-8.094 0-14.656 6.558-14.656 14.656 0 8.094 6.562 14.656 14.656 14.656 8.094 0 14.656-6.562 14.656-14.656Zm0 0"/><path fill="none" stroke="#000" stroke-miterlimit="10" stroke-width=".39735213" d="M137.98 103.023v13.243l-11.859 5.433"/><path fill="none" stroke="#000" stroke-miterlimit="10" stroke-width=".79370839" d="M126.121 116.266v17.386"/><path fill="none" stroke="#000" stroke-miterlimit="10" stroke-width=".39735213" d="m126.121 128.219 11.86 5.433v13.243"/><path d="m130.3 130.133.946-2.07 3.68 4.19-5.574-.05Zm0 0"/><path fill="none" stroke="#000" stroke-miterlimit="10" stroke-width=".39735213" d="M126.121 124.96h-12.055M69.879 124.96h22.195m0 0h22.192"/><path stroke="#000" stroke-miterlimit="10" stroke-width=".39735213" d="M90.344 124.96v1.974l4.199-1.973-4.2-1.977Zm0 0"/><use xlink:href="#b" x="86.87" y="119.965"/><use xlink:href="#c" x="91.231" y="121.453"/><path fill="none" stroke="#000" stroke-miterlimit="10" stroke-width=".39735213" d="M137.98 5.785V32.54m0 31.617V90.91"/><path fill="none" stroke="#000" stroke-miterlimit="10" stroke-width=".79370839" d="M132.05 64.156V32.54h11.856v31.617Zm0 0"/><path stroke="#000" stroke-miterlimit="10" stroke-width=".39735213" d="M139.559 90.91a1.58 1.58 0 1 0-3.16-.005 1.58 1.58 0 0 0 3.16.005Zm0 0"/><use xlink:href="#d" x="146.103" y="50.485"/><use xlink:href="#e" x="153.636" y="51.973"/><path stroke="#000" stroke-miterlimit="10" stroke-width=".39735213" d="M137.98 75.805h-1.976l1.976 4.199 1.977-4.2Zm0 0"/><use xlink:href="#b" x="123.952" y="80.178"/><use xlink:href="#e" x="128.314" y="81.666"/><path fill="none" stroke="#000" stroke-miterlimit="10" stroke-width=".39735213" d="M137.98 5.785h34.051m0 0h34.047"/><path d="M139.559 5.785a1.58 1.58 0 1 0-3.16-.005 1.58 1.58 0 0 0 3.16.005m0 0"/><g clip-path="url(#f)"><path fill="none" stroke="#000" stroke-miterlimit="10" stroke-width=".39735213" d="M139.559 5.785a1.58 1.58 0 1 0-3.16-.005 1.58 1.58 0 0 0 3.16.005Zm0 0"/></g><path fill="#FFF" d="M207.66 5.785a1.58 1.58 0 1 0-3.16-.003 1.58 1.58 0 0 0 3.16.003m0 0"/><g clip-path="url(#g)"><path fill="none" stroke="#000" stroke-miterlimit="10" stroke-width=".39735213" d="M207.66 5.785a1.58 1.58 0 1 0-3.16-.003 1.58 1.58 0 0 0 3.16.003Zm0 0"/></g><use xlink:href="#h" x="209.583" y="8.199"/><path fill="none" stroke="#000" stroke-miterlimit="10" stroke-width=".39735213" d="M137.98 73.883v14.672m0 0v14.668M137.98 90.91h30.098m7.902 0h30.098"/><path fill="none" stroke="#000" stroke-miterlimit="10" stroke-width=".79370839" d="M168.078 79.05v23.716m7.902-23.715v23.715"/><path stroke="#000" stroke-miterlimit="10" stroke-width=".39735213" d="M139.559 90.91a1.58 1.58 0 1 0-3.16-.005 1.58 1.58 0 0 0 3.16.005Zm0 0"/><path fill="#FFF" stroke="#000" stroke-miterlimit="10" stroke-width=".39735213" d="M207.66 90.91a1.58 1.58 0 1 0-3.16-.003 1.58 1.58 0 0 0 3.16.003Zm0 0"/><g clip-path="url(#i)"><path fill="none" stroke="#000" stroke-miterlimit="10" stroke-width=".39735213" d="M172.031 210.086v9.879"/></g><g clip-path="url(#j)"><path fill="none" stroke="#000" stroke-linecap="round" stroke-miterlimit="10" stroke-width=".79370839" d="M166.102 219.965h11.855"/></g><path stroke="#000" stroke-miterlimit="10" stroke-width=".39735213" d="M173.61 210.086a1.58 1.58 0 1 0-3.16-.005 1.58 1.58 0 0 0 3.16.005ZM139.559 210.086a1.58 1.58 0 1 0-3.16-.005 1.58 1.58 0 0 0 3.16.005Zm0 0"/><path fill="none" stroke="#000" stroke-miterlimit="10" stroke-width=".39735213" d="M1.777 210.086H69.88m0 0h68.101"/><path fill="#FFF" stroke="#000" stroke-miterlimit="10" stroke-width=".39735213" d="M3.36 210.086a1.58 1.58 0 1 0-3.161-.003 1.58 1.58 0 0 0 3.16.003Zm0 0"/><path stroke="#000" stroke-miterlimit="10" stroke-width=".39735213" d="M139.559 210.086a1.58 1.58 0 1 0-3.16-.005 1.58 1.58 0 0 0 3.16.005Zm0 0"/><path fill="none" stroke="#000" stroke-miterlimit="10" stroke-width=".39735213" d="M137.98 146.695v31.696m0 0v31.695M103.93 137.68v59.683"/><path stroke="#000" stroke-miterlimit="10" stroke-width=".39735213" d="M103.93 193.168h-1.977l1.977 4.195 1.976-4.195Zm0 0"/><use xlink:href="#k" x="78.587" y="169.952"/><use xlink:href="#l" x="83.548" y="169.952"/><use xlink:href="#m" x="86.306" y="169.952"/><use xlink:href="#n" x="92.914" y="169.952"/><path fill="none" stroke="#000" stroke-miterlimit="10" stroke-width=".39735213" d="M35.828 39.832v-13.07m0-7.907V5.785M35.828 39.832v9.883"/><path fill="none" stroke="#000" stroke-linecap="round" stroke-miterlimit="10" stroke-width=".79370839" d="M29.898 49.715h11.86"/><path fill="none" stroke="#000" stroke-miterlimit="10" stroke-width=".79370839" d="M23.973 26.762h23.71m-23.71-7.907h23.71"/><path fill="none" stroke="#000" stroke-miterlimit="10" stroke-width=".39735213" d="M35.828 5.785H137.98M69.879 124.96V81.18m0-31.617V5.785"/><path fill="none" stroke="#000" stroke-miterlimit="10" stroke-width=".79370839" d="M75.809 49.563V81.18h-11.86V49.563Zm0 0"/><path stroke="#000" stroke-miterlimit="10" stroke-width=".39735213" d="M71.46 124.96a1.583 1.583 0 0 0-3.163 0 1.582 1.582 0 0 0 3.164 0Zm0 0"/><path d="M71.46 5.785a1.583 1.583 0 0 0-3.163 0 1.582 1.582 0 0 0 3.164 0m0 0"/><g clip-path="url(#o)"><path fill="none" stroke="#000" stroke-miterlimit="10" stroke-width=".39735213" d="M71.46 5.785a1.583 1.583 0 0 0-3.163 0 1.582 1.582 0 0 0 3.164 0Zm0 0"/></g><use xlink:href="#d" x="78.003" y="67.51"/><use xlink:href="#p" x="85.537" y="68.997"/></svg>