<svg xmlns="http://www.w3.org/2000/svg" xmlns:xlink="http://www.w3.org/1999/xlink" width="223.076" height="221.21"><defs><path id="a" d="M7.547-6.89c0-.032-.031-.11-.11-.11-.03 0-.046.016-.156.125l-.687.766C6.5-6.25 6.047-7 4.937-7 2.735-7 .5-4.797.5-2.5.5-.86 1.672.219 3.188.219c.859 0 1.609-.39 2.14-.86.922-.812 1.094-1.703 1.094-1.734 0-.11-.11-.11-.125-.11-.063 0-.11.032-.125.11-.094.281-.313.984-1 1.563-.688.546-1.313.718-1.828.718-.89 0-1.938-.515-1.938-2.062 0-.563.203-2.172 1.188-3.328.61-.703 1.547-1.203 2.422-1.203 1.015 0 1.609.765 1.609 1.921 0 .391-.031.407-.031.5 0 .094.11.094.14.094.125 0 .125-.016.188-.187Zm0 0"/><path id="d" d="M3.719-6.094c.062-.234.094-.328.281-.36.094-.015.406-.015.61-.015.702 0 1.796 0 1.796.985 0 .328-.156 1.015-.547 1.406-.25.266-.78.578-1.671.578h-1.11Zm1.437 2.719c1-.219 2.172-.906 2.172-1.906 0-.86-.89-1.5-2.187-1.5H2.313c-.204 0-.282 0-.282.203 0 .11.078.11.266.11.031 0 .219 0 .375.015.187.031.281.031.281.156 0 .047-.015.078-.047.188L1.578-.781c-.094.39-.125.469-.906.469-.172 0-.266 0-.266.203C.406 0 .531 0 .546 0c.282 0 .97-.031 1.25-.031.282 0 .985.031 1.267.031.078 0 .187 0 .187-.203 0-.11-.078-.11-.281-.11-.36 0-.64 0-.64-.171 0-.063.015-.11.03-.172l.657-2.625h1.187c.89 0 1.078.547 1.078.906 0 .14-.078.453-.14.672-.079.281-.157.656-.157.844C4.984.219 6.172.219 6.297.219c.844 0 1.187-1 1.187-1.14 0-.126-.109-.126-.109-.126-.094 0-.11.078-.125.14C7-.171 6.563 0 6.344 0c-.328 0-.407-.219-.407-.61 0-.296.063-.812.11-1.124.016-.141.031-.328.031-.47 0-.765-.656-1.077-.922-1.171m0 0"/><path id="h" d="M3.703-6.016c.094-.359.125-.453.906-.453.25 0 .329 0 .329-.187 0-.125-.11-.125-.157-.125-.281 0-1.015.031-1.312.031-.297 0-1.016-.031-1.313-.031-.078 0-.203 0-.203.203 0 .11.094.11.281.11.422 0 .688 0 .688.187 0 .047 0 .062-.031.156L1.563-.781c-.094.375-.125.469-.907.469-.234 0-.312 0-.312.203 0 .109.11.109.14.109C.781 0 1.5-.031 1.781-.031 2.078-.031 2.813 0 3.11 0c.079 0 .204 0 .204-.187 0-.125-.079-.125-.297-.125-.172 0-.235 0-.422-.016-.219-.016-.25-.063-.25-.172 0-.078.015-.156.031-.219Zm0 0"/><path id="q" d="M2.016-.016c0-.656-.25-1.03-.641-1.03a.5.5 0 0 0-.516.515c0 .265.188.531.516.531.125 0 .25-.047.344-.125.031-.031.047-.031.062-.031 0 0 .016 0 .016.14 0 .735-.344 1.329-.672 1.657-.11.109-.11.14-.11.172 0 .062.048.109.094.109.11 0 .907-.766.907-1.938m0 0"/><path id="b" d="M2.328-4.406c0-.188-.015-.203-.219-.203-.437.437-1.062.453-1.359.453v.25c.172 0 .625 0 1.016-.203v3.547c0 .218 0 .312-.703.312h-.25V0c.109 0 .968-.031 1.234-.031C2.25-.031 3.125 0 3.28 0v-.25h-.265c-.688 0-.688-.094-.688-.312Zm0 0"/><path id="e" d="M5.047-1.828h-.234C4.64-.781 4.469-.25 3.188-.25H2.093c-.328 0-.328-.062-.328-.266v-1.812h.703c.687 0 .797.219.797.812H3.5V-3.39h-.234c0 .61-.11.813-.797.813h-.703v-1.61c0-.218 0-.265.328-.265H3.14c1.14 0 1.328.36 1.453 1.344h.234l-.203-1.594H.391v.25h.172c.53 0 .546.062.546.297v3.593c0 .235-.015.313-.546.313H.39V0h4.343Zm0 0"/><path id="g" d="M5.156-4.703c0-.11 0-.172-.093-.172-.032 0-.063 0-.11.078l-.375.531a1.993 1.993 0 0 0-1.437-.609c-1.453 0-2.657 1.125-2.657 2.5C.484-.969 1.704.141 3.141.141c1.234 0 2.015-.922 2.015-1.766 0-.078 0-.125-.11-.125-.046 0-.109 0-.124.078-.047 1.125-1 1.563-1.688 1.563-.734 0-2-.453-2-2.25 0-1.891 1.344-2.266 1.985-2.266.687 0 1.515.453 1.687 1.656.016.078.078.078.125.078.125 0 .125-.046.125-.187Zm0 0"/><path id="k" d="M3.5-1.266h-.234c-.016.157-.094.563-.172.641-.063.031-.594.031-.688.031H1.125c.734-.64.969-.828 1.39-1.156.516-.422.985-.844.985-1.5 0-.844-.734-1.36-1.625-1.36-.86 0-1.437.61-1.437 1.25 0 .344.296.391.375.391.156 0 .359-.125.359-.375 0-.125-.047-.375-.406-.375.218-.484.687-.64 1.015-.64.688 0 1.047.547 1.047 1.109 0 .594-.422 1.078-.656 1.328L.5-.266C.438-.203.438-.187.438 0h2.859Zm0 0"/><path id="o" d="M.422-4.734v.25h.156c.531 0 .547.062.547.312v3.61c0 .234-.016.312-.547.312H.422V0h2.937c.985 0 1.688-.61 1.688-1.266 0-.609-.61-1.125-1.453-1.218.687-.125 1.25-.547 1.25-1.078 0-.626-.735-1.172-1.688-1.172Zm1.312 2.172V-4.22c0-.218.016-.265.344-.265h1.016c.687 0 1.062.484 1.062.922 0 .5-.468 1-1.265 1ZM2.078-.25c-.328 0-.344-.062-.344-.266v-1.843H3.22c.734 0 1.125.593 1.125 1.078 0 .515-.469 1.031-1.235 1.031Zm0 0"/><path id="c" d="M.828-2.297h4.313a.24.24 0 0 0 .234-.234.24.24 0 0 0-.234-.235H.828a.24.24 0 0 0-.234.235c0 .125.11.234.234.234m0 0"/><path id="j" d="M3.203-.375v-1.922h1.938a.24.24 0 0 0 .234-.234.24.24 0 0 0-.234-.235H3.203v-1.921a.23.23 0 0 0-.234-.235c-.11 0-.219.11-.219.234v1.922H.828a.24.24 0 0 0-.234.235c0 .125.11.234.234.234H2.75v1.922c0 .11.11.219.219.219.14 0 .234-.11.234-.219m0 0"/><path id="p" d="M4.563-3.172c0-.797-.047-1.594-.391-2.328-.469-.953-1.281-1.11-1.688-1.11-.593 0-1.328.266-1.734 1.188-.312.672-.36 1.453-.36 2.25 0 .735.032 1.64.438 2.39.438.798 1.156 1 1.64 1C3 .219 3.767.017 4.204-.936c.313-.688.36-1.454.36-2.235M2.469 0c-.39 0-.969-.25-1.156-1.203-.11-.594-.11-1.5-.11-2.094 0-.625 0-1.281.094-1.828.187-1.172.922-1.266 1.172-1.266.328 0 .984.172 1.172 1.157.093.562.093 1.312.093 1.937 0 .75 0 1.422-.109 2.063C3.485-.297 2.922 0 2.469 0m0 0"/><path id="r" d="M1.313-3.25v-.25c0-2.5 1.234-2.86 1.734-2.86.234 0 .656.063.875.391-.156 0-.547 0-.547.453 0 .313.234.454.453.454.156 0 .453-.094.453-.47 0-.593-.437-1.077-1.25-1.077-1.281 0-2.61 1.28-2.61 3.468C.422-.484 1.564.22 2.485.22c1.11 0 2.047-.938 2.047-2.25 0-1.25-.875-2.203-1.984-2.203-.672 0-1.031.5-1.235.984M2.484-.062c-.625 0-.921-.594-.968-.735-.188-.469-.188-1.265-.188-1.453 0-.766.313-1.766 1.219-1.766.156 0 .61 0 .922.625.172.36.172.875.172 1.36 0 .469 0 .969-.172 1.328-.297.594-.75.64-.985.64m0 0"/><path id="s" d="M6.156-5.797c.14-.375.407-.656 1.094-.672v-.312c-.312.031-.719.031-.969.031-.297 0-.875-.016-1.125-.031v.312c.516.016.719.266.719.5 0 .078-.031.14-.047.188L4.016-.984 2.109-6c-.062-.14-.062-.156-.062-.187 0-.282.578-.282.828-.282v-.312c-.36.031-1.047.031-1.422.031-.484 0-.906-.016-1.265-.031v.312c.64 0 .828 0 .968.375L3.47 0c.062.188.11.219.234.219.172 0 .203-.047.25-.188Zm0 0"/><clipPath id="f"><path d="M130 .063h16V13h-16Zm0 0"/></clipPath><clipPath id="i"><path d="M198 .063h16V13h-16Zm0 0"/></clipPath><clipPath id="l"><path d="M171 209h2v11.36h-2Zm0 0"/></clipPath><clipPath id="m"><path d="M165 219h14v1.36h-14Zm0 0"/></clipPath><clipPath id="n"><path d="M62 .063h16V13H62Zm0 0"/></clipPath></defs><path fill="none" stroke="#000" stroke-miterlimit="10" stroke-width=".39735213" d="M1.777 107.934h30.098m7.906 0H69.88"/><path fill="none" stroke="#000" stroke-miterlimit="10" stroke-width=".79370839" d="M31.875 96.078v23.711m7.906-23.71v23.71"/><path fill="#FFF" stroke="#000" stroke-miterlimit="10" stroke-width=".39735213" d="M3.36 107.934c0-.871-.708-1.582-1.583-1.582a1.582 1.582 0 0 0 0 3.164 1.58 1.58 0 0 0 1.582-1.582Zm0 0"/><use xlink:href="#a" x="30.057" y="91.684"/><use xlink:href="#b" x="37.149" y="93.172"/><path fill="none" stroke="#000" stroke-miterlimit="10" stroke-width=".39735213" d="M206.078 210.086h-34.047m0 0h-34.05v-18.242m0-31.617v-18.243m0 0v-12.312m0-43.477V73.883m0 0V55.64m0-31.618V5.785h34.05m0 0h34.047"/><use xlink:href="#c" x="209.583" y="212.498"/><path fill="#FFF" stroke="#000" stroke-miterlimit="10" stroke-width=".39735213" d="M207.66 210.086a1.58 1.58 0 1 0-3.16-.003 1.58 1.58 0 0 0 3.16.003Zm0 0"/><path fill="none" stroke="#000" stroke-miterlimit="10" stroke-width=".79370839" d="M143.906 160.227v31.617h-11.855v-31.617Zm0 0"/><use xlink:href="#d" x="116.491" y="178.171"/><use xlink:href="#e" x="124.024" y="179.659"/><path fill="none" stroke="#000" stroke-miterlimit="10" stroke-width=".39735213" d="M137.98 86v13.238l-11.859 5.434"/><path fill="none" stroke="#000" stroke-miterlimit="10" stroke-width=".79370839" d="M126.121 99.238v17.39"/><path fill="none" stroke="#000" stroke-miterlimit="10" stroke-width=".39735213" d="m126.121 111.195 11.86 5.434v13.242"/><path d="m130.3 113.11.946-2.07 3.68 4.19-5.574-.05Zm0 0"/><path fill="none" stroke="#000" stroke-miterlimit="10" stroke-width=".39735213" d="M126.121 107.934h-12.055"/><path stroke="#000" stroke-miterlimit="10" stroke-width=".39735213" d="M139.559 141.984c0-.87-.707-1.582-1.579-1.582a1.583 1.583 0 0 0 0 3.164c.872 0 1.579-.71 1.579-1.582Zm0 0"/><path fill="none" stroke="#000" stroke-miterlimit="10" stroke-width=".79370839" d="M143.906 24.023v31.618h-11.855V24.023Zm0 0"/><path d="M139.559 5.785a1.58 1.58 0 1 0-3.16-.005 1.58 1.58 0 0 0 3.16.005m0 0"/><g clip-path="url(#f)"><path fill="none" stroke="#000" stroke-miterlimit="10" stroke-width=".39735213" d="M139.559 5.785a1.58 1.58 0 1 0-3.16-.005 1.58 1.58 0 0 0 3.16.005Zm0 0"/></g><use xlink:href="#d" x="146.103" y="41.972"/><use xlink:href="#g" x="153.636" y="43.46"/><path stroke="#000" stroke-miterlimit="10" stroke-width=".39735213" d="M137.98 63.035h-1.976l1.976 4.2 1.977-4.2Zm0 0"/><use xlink:href="#h" x="123.952" y="67.409"/><use xlink:href="#g" x="128.314" y="68.897"/><path fill="#FFF" d="M207.66 5.785a1.58 1.58 0 1 0-3.16-.003 1.58 1.58 0 0 0 3.16.003m0 0"/><g clip-path="url(#i)"><path fill="none" stroke="#000" stroke-miterlimit="10" stroke-width=".39735213" d="M207.66 5.785a1.58 1.58 0 1 0-3.16-.003 1.58 1.58 0 0 0 3.16.003Zm0 0"/></g><use xlink:href="#j" x="209.583" y="8.199"/><path fill="none" stroke="#000" stroke-miterlimit="10" stroke-width=".39735213" d="M145.742 107.934c0-7.672-6.219-13.891-13.89-13.891-7.672 0-13.891 6.219-13.891 13.89 0 7.672 6.219 13.891 13.89 13.891 7.672 0 13.891-6.219 13.891-13.89ZM137.98 82.395h30.098m7.902 0h30.098"/><path fill="none" stroke="#000" stroke-miterlimit="10" stroke-width=".79370839" d="M168.078 70.54v23.714m7.902-23.715v23.715"/><path stroke="#000" stroke-miterlimit="10" stroke-width=".39735213" d="M139.559 82.395a1.58 1.58 0 1 0-3.161.003 1.58 1.58 0 0 0 3.16-.003Zm0 0"/><path fill="#FFF" stroke="#000" stroke-miterlimit="10" stroke-width=".39735213" d="M207.66 82.395a1.58 1.58 0 1 0-3.159.002 1.58 1.58 0 0 0 3.16-.002Zm0 0"/><use xlink:href="#a" x="166.257" y="105.377"/><use xlink:href="#k" x="173.348" y="106.864"/><g clip-path="url(#l)"><path fill="none" stroke="#000" stroke-miterlimit="10" stroke-width=".39735213" d="M172.031 210.086v9.879"/></g><g clip-path="url(#m)"><path fill="none" stroke="#000" stroke-linecap="round" stroke-miterlimit="10" stroke-width=".79370839" d="M166.102 219.965h11.855"/></g><path stroke="#000" stroke-miterlimit="10" stroke-width=".39735213" d="M173.61 210.086a1.58 1.58 0 1 0-3.16-.005 1.58 1.58 0 0 0 3.16.005ZM139.559 210.086a1.58 1.58 0 1 0-3.16-.005 1.58 1.58 0 0 0 3.16.005Zm0 0"/><path fill="none" stroke="#000" stroke-miterlimit="10" stroke-width=".39735213" d="M137.98 141.984h34.051v30.098m0 7.906v30.098"/><path fill="none" stroke="#000" stroke-miterlimit="10" stroke-width=".79370839" d="M183.887 172.082h-23.715m23.715 7.906h-23.715"/><use xlink:href="#a" x="186.674" y="178.171"/><use xlink:href="#e" x="193.764" y="179.659"/><path fill="none" stroke="#000" stroke-miterlimit="10" stroke-width=".39735213" d="M1.777 210.086H69.88m0 0h68.101"/><path fill="#FFF" stroke="#000" stroke-miterlimit="10" stroke-width=".39735213" d="M3.36 210.086a1.58 1.58 0 1 0-3.161-.003 1.58 1.58 0 0 0 3.16.003Zm0 0"/><path stroke="#000" stroke-miterlimit="10" stroke-width=".39735213" d="M139.559 210.086a1.58 1.58 0 1 0-3.16-.005 1.58 1.58 0 0 0 3.16.005Zm0 0"/><path fill="none" stroke="#000" stroke-miterlimit="10" stroke-width=".39735213" d="M35.828 39.832v-13.07m0-7.907V5.785H137.98M35.828 39.832v9.883"/><path fill="none" stroke="#000" stroke-linecap="round" stroke-miterlimit="10" stroke-width=".79370839" d="M29.898 49.715h11.86"/><path fill="none" stroke="#000" stroke-miterlimit="10" stroke-width=".79370839" d="M23.973 26.762h23.71m-23.71-7.907h23.71"/><path fill="none" stroke="#000" stroke-miterlimit="10" stroke-width=".39735213" d="M69.879 210.086v-35.27m0-31.617V72.668m0-31.617V5.785"/><path fill="none" stroke="#000" stroke-miterlimit="10" stroke-width=".79370839" d="M75.809 143.2v31.616h-11.86V143.2Zm0 0"/><path stroke="#000" stroke-miterlimit="10" stroke-width=".39735213" d="M71.46 210.086a1.583 1.583 0 0 0-3.163 0 1.582 1.582 0 0 0 3.164 0ZM71.46 107.934c0-.871-.71-1.582-1.581-1.582s-1.582.71-1.582 1.582a1.583 1.583 0 0 0 3.164 0Zm0 0"/><use xlink:href="#d" x="49.77" y="161.147"/><use xlink:href="#k" x="57.303" y="162.634"/><path fill="none" stroke="#000" stroke-miterlimit="10" stroke-width=".79370839" d="M75.809 41.05v31.618h-11.86V41.051Zm0 0"/><path stroke="#000" stroke-miterlimit="10" stroke-width=".39735213" d="M71.46 107.934c0-.871-.71-1.582-1.581-1.582s-1.582.71-1.582 1.582a1.583 1.583 0 0 0 3.164 0Zm0 0"/><path d="M71.46 5.785a1.583 1.583 0 0 0-3.163 0 1.582 1.582 0 0 0 3.164 0m0 0"/><g clip-path="url(#n)"><path fill="none" stroke="#000" stroke-miterlimit="10" stroke-width=".39735213" d="M71.46 5.785a1.583 1.583 0 0 0-3.163 0 1.582 1.582 0 0 0 3.164 0Zm0 0"/></g><use xlink:href="#d" x="78.003" y="58.998"/><use xlink:href="#b" x="85.537" y="60.486"/><path fill="none" stroke="#000" stroke-miterlimit="10" stroke-width=".39735213" d="M114.266 107.934H92.074m0 0H69.88"/><path stroke="#000" stroke-miterlimit="10" stroke-width=".39735213" d="M90.344 107.934v1.976l4.199-1.976-4.2-1.977Zm0 0"/><use xlink:href="#h" x="86.87" y="102.941"/><use xlink:href="#o" x="91.231" y="104.429"/><path fill="none" stroke="#000" stroke-miterlimit="10" stroke-width=".39735213" d="m109 113.008 23.906 23.902"/><path stroke="#000" stroke-miterlimit="10" stroke-width=".39735213" d="m129.937 133.941-1.398 1.399 4.367 1.57-1.57-4.363Zm0 0"/><use xlink:href="#p" x="96.066" y="134.899"/><use xlink:href="#q" x="101.027" y="134.899"/><use xlink:href="#r" x="103.783" y="134.899"/><use xlink:href="#s" x="110.212" y="134.899"/></svg>