<svg xmlns="http://www.w3.org/2000/svg" xmlns:xlink="http://www.w3.org/1999/xlink" width="114.693" height="230.216"><defs><clipPath id="a"><path d="M.043 129H14v15H.043Zm0 0"/></clipPath><clipPath id="b"><path d="M.043 161H13v33H.043Zm0 0"/></clipPath><clipPath id="c"><path d="M.043 211H14v16H.043Zm0 0"/></clipPath><clipPath id="f"><path d="M.043 64H13v34H.043Zm0 0"/></clipPath><clipPath id="i"><path d="M6 218h1v11.434H6Zm0 0"/></clipPath><clipPath id="j"><path d="M.043 228H13v1.434H.043Zm0 0"/></clipPath><path id="d" d="M3.719-6.094c.062-.234.094-.328.281-.36.094-.015.406-.015.61-.015.702 0 1.796 0 1.796.985 0 .328-.156 1.015-.547 1.406-.25.266-.78.578-1.671.578h-1.11Zm1.437 2.719c1-.219 2.172-.906 2.172-1.906 0-.86-.89-1.5-2.187-1.5H2.313c-.204 0-.282 0-.282.203 0 .11.078.11.266.11.031 0 .219 0 .375.015.187.031.281.031.281.156 0 .047-.015.078-.047.188L1.578-.781c-.094.39-.125.469-.906.469-.172 0-.266 0-.266.203C.406 0 .531 0 .546 0c.282 0 .97-.031 1.25-.031.282 0 .985.031 1.267.031.078 0 .187 0 .187-.203 0-.11-.078-.11-.281-.11-.36 0-.64 0-.64-.171 0-.063.015-.11.03-.172l.657-2.625h1.187c.89 0 1.078.547 1.078.906 0 .14-.078.453-.14.672-.079.281-.157.656-.157.844C4.984.219 6.172.219 6.297.219c.844 0 1.187-1 1.187-1.14 0-.126-.109-.126-.109-.126-.094 0-.11.078-.125.14C7-.171 6.563 0 6.344 0c-.328 0-.407-.219-.407-.61 0-.296.063-.812.11-1.124.016-.141.031-.328.031-.47 0-.765-.656-1.077-.922-1.171m0 0"/><path id="k" d="M6.297-5.734c.11-.407.281-.703 1.078-.735.047 0 .172-.015.172-.203 0 0 0-.11-.14-.11-.329 0-.673.032-1 .032-.344 0-.72-.031-1.032-.031-.062 0-.187 0-.187.203 0 .11.093.11.187.11.563.015.672.218.672.437 0 .031-.031.172-.031.203l-.891 3.547C4.781-.953 3.641-.094 2.656-.094c-.687 0-1.219-.437-1.219-1.281 0-.031 0-.344.11-.781l.969-3.86c.078-.359.109-.453.828-.453.265 0 .344 0 .344-.203 0-.11-.11-.11-.141-.11-.281 0-1 .032-1.281.032-.282 0-.985-.031-1.282-.031-.078 0-.187 0-.187.203 0 .11.094.11.281.11.016 0 .219 0 .375.015.188.031.266.031.266.156 0 .063-.094.484-.157.703l-.218.875c-.094.39-.563 2.266-.61 2.453-.062.282-.062.438-.062.579 0 1.218.89 1.906 1.937 1.906 1.25 0 2.485-1.125 2.813-2.438Zm0 0"/><path id="e" d="M3.516-1.266H3.28c-.031.157-.094.563-.187.641-.063.031-.594.031-.688.031H1.125c.734-.64.969-.843 1.39-1.172.516-.406 1-.828 1-1.5 0-.843-.734-1.343-1.624-1.343-.875 0-1.453.593-1.453 1.234 0 .36.296.39.375.39.156 0 .359-.109.359-.359 0-.14-.047-.375-.406-.375.218-.5.687-.64 1.015-.64.688 0 1.063.53 1.063 1.093 0 .61-.438 1.094-.656 1.344L.5-.266C.438-.203.438-.187.438 0h2.859Zm0 0"/><path id="g" d="M2.328-4.422c0-.187-.015-.187-.203-.187-.453.437-1.078.437-1.36.437v.25c.157 0 .626 0 1-.187v3.547c0 .218 0 .312-.687.312H.812V0c.125 0 .97-.031 1.235-.031C2.266-.031 3.14 0 3.28 0v-.25h-.25c-.703 0-.703-.094-.703-.312Zm0 0"/><path id="h" d="M1.89-2.328c.548 0 .938.375.938 1.125 0 .86-.5 1.125-.906 1.125-.281 0-.89-.078-1.172-.484.328-.016.39-.25.39-.391 0-.235-.156-.39-.374-.39-.203 0-.391.124-.391.406C.375-.281 1.094.14 1.938.14c.968 0 1.64-.641 1.64-1.344 0-.547-.453-1.078-1.219-1.25.735-.266 1-.781 1-1.203 0-.547-.64-.953-1.406-.953-.766 0-1.36.375-1.36.922 0 .234.157.374.36.374.219 0 .36-.171.36-.359 0-.203-.141-.344-.36-.36.25-.312.719-.39.985-.39.312 0 .75.156.75.766 0 .297-.094.61-.282.828-.234.265-.422.281-.765.297-.188.015-.188.015-.235.015-.015 0-.062.016-.062.094 0 .094.062.094.172.094Zm0 0"/><path id="l" d="M5.063-1.266c0-.609-.61-1.125-1.454-1.218.672-.125 1.25-.547 1.25-1.078 0-.626-.734-1.188-1.703-1.188H.422v.25h.156c.547 0 .563.078.563.313v3.625c0 .234-.016.312-.563.312H.422V0h2.937c.985 0 1.704-.61 1.704-1.266m-.907-2.296c0 .484-.468 1-1.265 1H1.75v-1.672c0-.203 0-.266.328-.266H3.11c.688 0 1.047.5 1.047.938m.188 2.28c0 .516-.453 1.032-1.219 1.032H2.078c-.328 0-.328-.062-.328-.266v-1.859h1.469a1.1 1.1 0 0 1 1.125 1.094m0 0"/></defs><path fill="none" stroke="#000" stroke-miterlimit="10" stroke-width=".79429817" d="M96.148 128.656c0-8.77-7.109-15.879-15.878-15.879-8.766 0-15.875 7.11-15.875 15.88 0 8.769 7.109 15.874 15.875 15.874 8.77 0 15.878-7.105 15.878-15.875Zm0 0"/><path fill="none" stroke="#000" stroke-miterlimit="10" stroke-width=".39764739000000004" d="M89.312 106.703v14.34H75.47"/><path fill="none" stroke="#000" stroke-miterlimit="10" stroke-width=".79429817" d="M75.469 117.781v5.98m0 2.177v5.437m0 2.176v5.98"/><path fill="none" stroke="#000" stroke-miterlimit="10" stroke-width=".39764739000000004" d="M75.469 128.656h14.039m-14.04 7.614h13.844v14.335"/><path fill="none" stroke="#000" stroke-miterlimit="10" stroke-width=".79429817" d="M72.145 120.844v15.625"/><path d="M82.934 128.656v2.278l-5.094-2.278 5.094-2.281Zm0 0"/><path fill="none" stroke="#000" stroke-miterlimit="10" stroke-width=".39764739000000004" d="M72.145 136.27h-10.72M89.312 128.656v21.754"/><path stroke="#000" stroke-miterlimit="10" stroke-width=".39764739000000004" d="M90.418 136.27c0-.614-.496-1.106-1.106-1.106a1.105 1.105 0 1 0 0 2.211c.61 0 1.106-.492 1.106-1.105Zm0 0"/><path fill="none" stroke="#000" stroke-miterlimit="10" stroke-width=".39764739000000004" d="M61.625 136.27H33.996m0 0H6.371v25.62m0 31.641v25.621"/><path d="M7.953 136.27a1.58 1.58 0 0 0-1.582-1.583 1.58 1.58 0 0 0-1.582 1.583 1.58 1.58 0 0 0 1.582 1.582 1.58 1.58 0 0 0 1.582-1.582m0 0"/><g clip-path="url(#a)"><path fill="none" stroke="#000" stroke-miterlimit="10" stroke-width=".39764739000000004" d="M7.953 136.27a1.58 1.58 0 0 0-1.582-1.583 1.58 1.58 0 0 0-1.582 1.583 1.58 1.58 0 0 0 1.582 1.582 1.58 1.58 0 0 0 1.582-1.582Zm0 0"/></g><g clip-path="url(#b)"><path fill="none" stroke="#000" stroke-miterlimit="10" stroke-width=".79429817" d="M.438 193.531v-31.64h11.867v31.64Zm0 0"/></g><path d="M7.953 219.152a1.58 1.58 0 0 0-1.582-1.582 1.583 1.583 0 1 0 1.582 1.582m0 0"/><g clip-path="url(#c)"><path fill="none" stroke="#000" stroke-miterlimit="10" stroke-width=".39764739000000004" d="M7.953 219.152a1.58 1.58 0 0 0-1.582-1.582 1.583 1.583 0 1 0 1.582 1.582Zm0 0"/></g><use xlink:href="#d" x="14.502" y="179.85"/><use xlink:href="#e" x="22.041" y="181.338"/><path fill="none" stroke="#000" stroke-miterlimit="10" stroke-width=".39764739000000004" d="M6.371 136.27v-13.813m0 0V96.836m0-31.64v-11.81"/><g clip-path="url(#f)"><path fill="none" stroke="#000" stroke-miterlimit="10" stroke-width=".79429817" d="M12.305 65.195v31.64H.438v-31.64Zm0 0"/></g><use xlink:href="#d" x="14.502" y="83.155"/><use xlink:href="#g" x="22.041" y="84.644"/><path fill="none" stroke="#000" stroke-miterlimit="10" stroke-width=".39764739000000004" d="M89.312 106.902V95.098m0-31.641V44.742m0 0v-6.906"/><path fill="none" stroke="#000" stroke-miterlimit="10" stroke-width=".79429817" d="M95.242 63.457v31.64H83.38v-31.64Zm0 0"/><use xlink:href="#d" x="97.441" y="81.416"/><use xlink:href="#h" x="104.979" y="82.905"/><path stroke="#000" stroke-miterlimit="10" stroke-width=".39764739000000004" d="M90.89 37.836a1.58 1.58 0 1 0-3.16 0c0 .871.707 1.582 1.582 1.582.872 0 1.579-.711 1.579-1.582Zm0 0"/><path fill="none" stroke="#000" stroke-miterlimit="10" stroke-width=".39764739000000004" d="M6.371 219.152h82.941V150.41M6.371 53.387V37.836h82.941"/><g clip-path="url(#i)"><path fill="none" stroke="#000" stroke-miterlimit="10" stroke-width=".39764739000000004" d="M6.371 219.152v9.887"/></g><g clip-path="url(#j)"><path fill="none" stroke="#000" stroke-linecap="round" stroke-miterlimit="10" stroke-width=".79429817" d="M.438 229.04h11.867"/></g><path fill="none" stroke="#000" stroke-miterlimit="10" stroke-width=".39764739000000004" d="M89.312 37.836V27.473m0 0v-10.36"/><path fill="#FFF" stroke="#000" stroke-miterlimit="10" stroke-width=".39764739000000004" d="M90.89 17.113c0-.87-.706-1.582-1.578-1.582a1.583 1.583 0 0 0 0 3.164 1.58 1.58 0 0 0 1.579-1.582Zm0 0"/><use xlink:href="#k" x="82.895" y="10.094"/><use xlink:href="#l" x="89.675" y="11.583"/></svg>