<svg xmlns="http://www.w3.org/2000/svg" xmlns:xlink="http://www.w3.org/1999/xlink" width="107.018" height="186.882"><defs><clipPath id="b"><path d="M41 175h1v10.973h-1Zm0 0"/></clipPath><clipPath id="c"><path d="M35 185h14v.973H35Zm0 0"/></clipPath><clipPath id="d"><path d="M81 53h25.047v39H81Zm0 0"/></clipPath><path id="a" d="M7.125-2.469c0-.203-.187-.203-.328-.203H4.03v-2.765c0-.125 0-.313-.187-.313-.203 0-.203.188-.203.313v2.765H.875c-.14 0-.328 0-.328.203s.187.203.328.203h2.766V.5c0 .125 0 .313.203.313.187 0 .187-.188.187-.313v-2.766h2.766c.14 0 .328 0 .328-.203m0 0"/></defs><use xlink:href="#a" x="37.888" y="9.837"/><path fill="none" stroke="#000" stroke-miterlimit="10" stroke-width=".39537309" d="M41.727 15.52v19.738m0 9.437v19.743m0 16.304v16.305m0 0v16.309"/><path fill="#FFF" stroke="#000" stroke-miterlimit="10" stroke-width=".39537309" d="M43.3 15.52c0-.868-.702-1.575-1.573-1.575a1.574 1.574 0 0 0 0 3.149c.87 0 1.574-.707 1.574-1.574Zm0 0"/><path fill="none" stroke="#000" stroke-miterlimit="10" stroke-width=".78975527" d="m41.727 44.695 5.898-9.437H35.828Zm0 0"/><path fill="none" stroke="#000" stroke-miterlimit="10" stroke-width=".39537309" d="M41.727 44.695v-9.437"/><path fill="none" stroke="#000" stroke-miterlimit="10" stroke-width=".78975527" d="M35.828 44.695h11.797M49.66 137.813c0-8.055-6.531-14.582-14.586-14.582-8.05 0-14.582 6.527-14.582 14.582 0 8.054 6.531 14.582 14.582 14.582 8.055 0 14.586-6.528 14.586-14.582Zm0 0"/><path fill="none" stroke="#000" stroke-miterlimit="10" stroke-width=".39537309" d="M41.727 115.988v13.172l-11.797 5.41"/><path fill="none" stroke="#000" stroke-miterlimit="10" stroke-width=".78975527" d="M29.93 129.16v17.305"/><path fill="none" stroke="#000" stroke-miterlimit="10" stroke-width=".39537309" d="m29.93 141.059 11.797 5.406v13.176"/><path d="m34.086 142.96.945-2.058 3.657 4.168-5.547-.047Zm0 0"/><path fill="none" stroke="#000" stroke-miterlimit="10" stroke-width=".39537309" d="M29.93 137.813H17.938M41.727 159.441v8.153m0 0v8.152"/><g clip-path="url(#b)"><path fill="none" stroke="#000" stroke-miterlimit="10" stroke-width=".39537309" d="M41.727 175.746v9.832"/></g><g clip-path="url(#c)"><path fill="none" stroke="#000" stroke-linecap="round" stroke-miterlimit="10" stroke-width=".78975527" d="M35.828 185.578h11.797"/></g><path fill="none" stroke="#000" stroke-dasharray="2.9616615352999998 2.9616615352999998" stroke-miterlimit="10" stroke-width=".39537309" d="M18.133 137.813H.195"/><path fill="none" stroke="#000" stroke-miterlimit="10" stroke-width=".39537309" d="M25.422 80.742V64.438h32.613v16.304ZM33.574 80.742l16.309-16.304"/><path fill="none" stroke="#000" stroke-dasharray="2.9616615352999998 2.9616615352999998" stroke-miterlimit="10" stroke-width=".39537309" d="M58.035 72.59h39.133M90.645 31.824v16.309"/><path fill="none" stroke="#000" stroke-miterlimit="10" stroke-width=".39537309" d="M90.645 48.133v14.625m0 19.664v14.625"/><g clip-path="url(#d)"><path fill="none" stroke="#000" stroke-linecap="round" stroke-miterlimit="10" stroke-width=".62922785" d="m90.645 62.758 11.796 19.664"/></g><path stroke="#000" stroke-miterlimit="10" stroke-width=".39537309" d="M90.645 64.332a1.572 1.572 0 1 0 .004-3.144 1.572 1.572 0 0 0-.004 3.144ZM90.645 83.992a1.571 1.571 0 1 0 0-3.144c-.868 0-1.57.703-1.57 1.574 0 .867.702 1.57 1.57 1.57Zm0 0"/><path fill="none" stroke="#000" stroke-dasharray="2.9616615352999998 2.9616615352999998" stroke-miterlimit="10" stroke-width=".39537309" d="M90.645 113.356v-16.31"/></svg>