<svg xmlns="http://www.w3.org/2000/svg" xmlns:xlink="http://www.w3.org/1999/xlink" width="223.076" height="221.21"><defs><path id="a" d="M.828-2.297h4.313a.24.24 0 0 0 .234-.234.24.24 0 0 0-.234-.235H.828a.24.24 0 0 0-.234.235c0 .125.11.234.234.234m0 0"/><path id="g" d="M3.203-.375v-1.922h1.938a.24.24 0 0 0 .234-.234.24.24 0 0 0-.234-.235H3.203v-1.921a.23.23 0 0 0-.234-.235c-.11 0-.219.11-.219.234v1.922H.828a.24.24 0 0 0-.234.235c0 .125.11.234.234.234H2.75v1.922c0 .11.11.219.219.219.14 0 .234-.11.234-.219m0 0"/><path id="c" d="M3.719-6.094c.062-.234.094-.328.281-.36.094-.015.406-.015.61-.015.702 0 1.796 0 1.796.985 0 .328-.156 1.015-.547 1.406-.25.266-.78.578-1.671.578h-1.11Zm1.437 2.719c1-.219 2.172-.906 2.172-1.906 0-.86-.89-1.5-2.187-1.5H2.313c-.204 0-.282 0-.282.203 0 .11.078.11.266.11.031 0 .219 0 .375.015.187.031.281.031.281.156 0 .047-.015.078-.047.188L1.578-.781c-.094.39-.125.469-.906.469-.172 0-.266 0-.266.203C.406 0 .531 0 .546 0c.282 0 .97-.031 1.25-.031.282 0 .985.031 1.267.031.078 0 .187 0 .187-.203 0-.11-.078-.11-.281-.11-.36 0-.64 0-.64-.171 0-.063.015-.11.03-.172l.657-2.625h1.187c.89 0 1.078.547 1.078.906 0 .14-.078.453-.14.672-.079.281-.157.656-.157.844C4.984.219 6.172.219 6.297.219c.844 0 1.187-1 1.187-1.14 0-.126-.109-.126-.109-.126-.094 0-.11.078-.125.14C7-.171 6.563 0 6.344 0c-.328 0-.407-.219-.407-.61 0-.296.063-.812.11-1.124.016-.141.031-.328.031-.47 0-.765-.656-1.077-.922-1.171m0 0"/><path id="e" d="M3.703-6.016c.094-.359.125-.453.906-.453.25 0 .329 0 .329-.187 0-.125-.11-.125-.157-.125-.281 0-1.015.031-1.312.031-.297 0-1.016-.031-1.313-.031-.078 0-.203 0-.203.203 0 .11.094.11.281.11.422 0 .688 0 .688.187 0 .047 0 .062-.031.156L1.563-.781c-.094.375-.125.469-.907.469-.234 0-.312 0-.312.203 0 .109.11.109.14.109C.781 0 1.5-.031 1.781-.031 2.078-.031 2.813 0 3.11 0c.079 0 .204 0 .204-.187 0-.125-.079-.125-.297-.125-.172 0-.235 0-.422-.016-.219-.016-.25-.063-.25-.172 0-.078.015-.156.031-.219Zm0 0"/><path id="d" d="M5.156-4.703c0-.11 0-.172-.093-.172-.032 0-.063 0-.11.078l-.375.531a1.993 1.993 0 0 0-1.437-.609c-1.453 0-2.657 1.125-2.657 2.5C.484-.969 1.704.141 3.141.141c1.234 0 2.015-.922 2.015-1.766 0-.078 0-.125-.11-.125-.046 0-.109 0-.124.078-.047 1.125-1 1.563-1.688 1.563-.734 0-2-.453-2-2.25 0-1.891 1.344-2.266 1.985-2.266.687 0 1.515.453 1.687 1.656.016.078.078.078.125.078.125 0 .125-.046.125-.187Zm0 0"/><path id="j" d="M3.5-1.266h-.234c-.016.157-.094.563-.172.641-.063.031-.594.031-.688.031H1.125c.734-.64.969-.828 1.39-1.156.516-.422.985-.844.985-1.5 0-.844-.734-1.36-1.625-1.36-.86 0-1.437.61-1.437 1.25 0 .344.296.391.375.391.156 0 .359-.125.359-.375 0-.125-.047-.375-.406-.375.218-.484.687-.64 1.015-.64.688 0 1.047.547 1.047 1.109 0 .594-.422 1.078-.656 1.328L.5-.266C.438-.203.438-.187.438 0h2.859Zm0 0"/><path id="l" d="M2.328-4.406c0-.188-.015-.203-.219-.203-.437.437-1.062.453-1.359.453v.25c.172 0 .625 0 1.016-.203v3.547c0 .218 0 .312-.703.312h-.25V0c.109 0 .968-.031 1.234-.031C2.25-.031 3.125 0 3.28 0v-.25h-.265c-.688 0-.688-.094-.688-.312Zm0 0"/><clipPath id="b"><path d="M130 .063h16V13h-16Zm0 0"/></clipPath><clipPath id="f"><path d="M198 .063h16V13h-16Zm0 0"/></clipPath><clipPath id="h"><path d="M171 209h2v11.36h-2Zm0 0"/></clipPath><clipPath id="i"><path d="M165 219h14v1.36h-14Zm0 0"/></clipPath><clipPath id="k"><path d="M62 .063h16V13H62Zm0 0"/></clipPath><clipPath id="m"><path d="M38 167h63v53.36H38Zm0 0"/></clipPath></defs><path fill="none" stroke="#000" stroke-miterlimit="10" stroke-width=".39735213" d="M1.777 124.96h30.098m7.906 0H69.88"/><path fill="none" stroke="#000" stroke-miterlimit="10" stroke-width=".79370839" d="M31.875 113.102v23.714m7.906-23.714v23.714"/><path fill="#FFF" stroke="#000" stroke-miterlimit="10" stroke-width=".39735213" d="M3.36 124.96a1.58 1.58 0 1 0-3.161-.002 1.58 1.58 0 0 0 3.16.003Zm0 0"/><path fill="none" stroke="#000" stroke-miterlimit="10" stroke-width=".39735213" d="M206.078 210.086h-34.047m0 0h-34.05"/><use xlink:href="#a" x="209.583" y="212.498"/><path fill="#FFF" stroke="#000" stroke-miterlimit="10" stroke-width=".39735213" d="M207.66 210.086a1.58 1.58 0 1 0-3.16-.003 1.58 1.58 0 0 0 3.16.003Zm0 0"/><path fill="none" stroke="#000" stroke-miterlimit="10" stroke-width=".39735213" d="M137.98 103.223v-32.91m0-31.618V5.785h34.051m0 0h34.047M137.98 103.023v13.243l-11.859 5.433"/><path fill="none" stroke="#000" stroke-miterlimit="10" stroke-width=".79370839" d="M126.121 116.266v17.386"/><path fill="none" stroke="#000" stroke-miterlimit="10" stroke-width=".39735213" d="m126.121 128.219 11.86 5.433v13.243"/><path d="m130.3 130.133.946-2.07 3.68 4.19-5.574-.05Zm0 0"/><path fill="none" stroke="#000" stroke-miterlimit="10" stroke-width=".39735213" d="M126.121 124.96h-12.055"/><path fill="none" stroke="#000" stroke-miterlimit="10" stroke-width=".79370839" d="M143.906 38.695v31.617h-11.855V38.695Zm0 0"/><path d="M139.559 5.785a1.58 1.58 0 1 0-3.16-.005 1.58 1.58 0 0 0 3.16.005m0 0"/><g clip-path="url(#b)"><path fill="none" stroke="#000" stroke-miterlimit="10" stroke-width=".39735213" d="M139.559 5.785a1.58 1.58 0 1 0-3.16-.005 1.58 1.58 0 0 0 3.16.005Zm0 0"/></g><use xlink:href="#c" x="146.103" y="56.642"/><use xlink:href="#d" x="153.636" y="58.129"/><path stroke="#000" stroke-miterlimit="10" stroke-width=".39735213" d="M137.98 85.04h-1.976l1.976 4.198 1.977-4.199Zm0 0"/><use xlink:href="#e" x="123.952" y="89.413"/><use xlink:href="#d" x="128.314" y="90.901"/><path fill="#FFF" d="M207.66 5.785a1.58 1.58 0 1 0-3.16-.003 1.58 1.58 0 0 0 3.16.003m0 0"/><g clip-path="url(#f)"><path fill="none" stroke="#000" stroke-miterlimit="10" stroke-width=".39735213" d="M207.66 5.785a1.58 1.58 0 1 0-3.16-.003 1.58 1.58 0 0 0 3.16.003Zm0 0"/></g><use xlink:href="#g" x="209.583" y="8.199"/><path fill="none" stroke="#000" stroke-miterlimit="10" stroke-width=".39735213" d="M145.742 124.96c0-7.67-6.219-13.89-13.89-13.89-7.672 0-13.891 6.22-13.891 13.89 0 7.669 6.219 13.888 13.89 13.888 7.672 0 13.891-6.22 13.891-13.887ZM137.98 103.223h30.098m7.902 0h30.098"/><path fill="none" stroke="#000" stroke-miterlimit="10" stroke-width=".79370839" d="M168.078 91.367v23.711m7.902-23.71v23.71"/><path stroke="#000" stroke-miterlimit="10" stroke-width=".39735213" d="M139.559 103.223a1.58 1.58 0 1 0-3.16 0c0 .87.706 1.582 1.581 1.582.872 0 1.579-.711 1.579-1.582Zm0 0"/><path fill="#FFF" stroke="#000" stroke-miterlimit="10" stroke-width=".39735213" d="M207.66 103.223a1.58 1.58 0 1 0-3.16 0c0 .87.707 1.582 1.578 1.582.875 0 1.582-.711 1.582-1.582Zm0 0"/><g clip-path="url(#h)"><path fill="none" stroke="#000" stroke-miterlimit="10" stroke-width=".39735213" d="M172.031 210.086v9.879"/></g><g clip-path="url(#i)"><path fill="none" stroke="#000" stroke-linecap="round" stroke-miterlimit="10" stroke-width=".79370839" d="M166.102 219.965h11.855"/></g><path stroke="#000" stroke-miterlimit="10" stroke-width=".39735213" d="M173.61 210.086a1.58 1.58 0 1 0-3.16-.005 1.58 1.58 0 0 0 3.16.005ZM139.559 210.086a1.58 1.58 0 1 0-3.16-.005 1.58 1.58 0 0 0 3.16.005Zm0 0"/><path fill="none" stroke="#000" stroke-miterlimit="10" stroke-width=".39735213" d="M1.777 210.086H69.88m0 0h68.101v-63.39"/><path fill="#FFF" stroke="#000" stroke-miterlimit="10" stroke-width=".39735213" d="M3.36 210.086a1.58 1.58 0 1 0-3.161-.003 1.58 1.58 0 0 0 3.16.003Zm0 0"/><path stroke="#000" stroke-miterlimit="10" stroke-width=".39735213" d="M139.559 210.086a1.58 1.58 0 1 0-3.16-.005 1.58 1.58 0 0 0 3.16.005Zm0 0"/><path fill="none" stroke="#000" stroke-miterlimit="10" stroke-width=".39735213" d="M35.828 39.832v-13.07m0-7.907V5.785H137.98M35.828 39.832v9.883"/><path fill="none" stroke="#000" stroke-linecap="round" stroke-miterlimit="10" stroke-width=".79370839" d="M29.898 49.715h11.86"/><path fill="none" stroke="#000" stroke-miterlimit="10" stroke-width=".79370839" d="M23.973 26.762h23.71m-23.71-7.907h23.71"/><path fill="none" stroke="#000" stroke-miterlimit="10" stroke-width=".39735213" d="M69.879 210.086v-26.754m0-31.617V81.18m0-31.617V5.785"/><path fill="none" stroke="#000" stroke-miterlimit="10" stroke-width=".79370839" d="M75.809 151.715v31.617h-11.86v-31.617Zm0 0"/><path stroke="#000" stroke-miterlimit="10" stroke-width=".39735213" d="M71.46 210.086a1.583 1.583 0 0 0-3.163 0 1.582 1.582 0 0 0 3.164 0ZM71.46 124.96a1.583 1.583 0 0 0-3.163 0 1.582 1.582 0 0 0 3.164 0Zm0 0"/><use xlink:href="#c" x="78.003" y="169.659"/><use xlink:href="#j" x="85.537" y="171.147"/><path fill="none" stroke="#000" stroke-miterlimit="10" stroke-width=".79370839" d="M75.809 49.563V81.18h-11.86V49.563Zm0 0"/><path stroke="#000" stroke-miterlimit="10" stroke-width=".39735213" d="M71.46 124.96a1.583 1.583 0 0 0-3.163 0 1.582 1.582 0 0 0 3.164 0Zm0 0"/><path d="M71.46 5.785a1.583 1.583 0 0 0-3.163 0 1.582 1.582 0 0 0 3.164 0m0 0"/><g clip-path="url(#k)"><path fill="none" stroke="#000" stroke-miterlimit="10" stroke-width=".39735213" d="M71.46 5.785a1.583 1.583 0 0 0-3.163 0 1.582 1.582 0 0 0 3.164 0Zm0 0"/></g><use xlink:href="#c" x="78.003" y="67.51"/><use xlink:href="#l" x="85.537" y="68.997"/><path fill="none" stroke="#000" stroke-miterlimit="10" stroke-width=".39735213" d="M114.266 124.96H92.074m0 0H69.88"/><g fill="none" stroke="#000" stroke-miterlimit="10" stroke-width="1.594" clip-path="url(#m)"><path stroke-width="1.58741678" d="m61.367 206.68 17.024-17.024M78.39 206.68l-17.023-17.024"/></g></svg>