<svg xmlns="http://www.w3.org/2000/svg" xmlns:xlink="http://www.w3.org/1999/xlink" width="227.4" height="129.775"><defs><clipPath id="e"><path d="M82 .059h4V4h-4Zm0 0"/></clipPath><clipPath id="f"><path d="M76 .059h15V10H76Zm0 0"/></clipPath><clipPath id="g"><path d="M82 126h4v3.492h-4Zm0 0"/></clipPath><clipPath id="h"><path d="M76 120h15v9.492H76Zm0 0"/></clipPath><path id="a" d="M7.547-6.906c0-.032-.016-.094-.11-.094-.03 0-.03 0-.14.11l-.703.765C6.516-6.265 6.047-7 4.954-7 2.733-7 .5-4.812.5-2.5.5-.86 1.672.219 3.188.219c.859 0 1.624-.39 2.156-.86.922-.812 1.078-1.718 1.078-1.75 0-.093-.094-.093-.11-.093-.062 0-.109.015-.125.093-.093.297-.328 1-1.015 1.579-.688.546-1.313.718-1.828.718-.89 0-1.938-.515-1.938-2.062 0-.563.203-2.172 1.203-3.344.594-.703 1.532-1.203 2.422-1.203 1.016 0 1.594.766 1.594 1.922 0 .406-.031.406-.031.515 0 .094.11.094.156.094.125 0 .125-.016.172-.203Zm0 0"/><path id="b" d="M2.328-4.422c0-.187-.015-.187-.203-.187-.453.437-1.078.437-1.36.437v.25c.157 0 .626 0 1-.187v3.547c0 .218 0 .312-.687.312H.812V0c.125 0 .97-.031 1.235-.031C2.266-.031 3.14 0 3.28 0v-.25h-.25c-.703 0-.703-.094-.703-.312Zm0 0"/><path id="c" d="M1.89-2.328c.548 0 .938.375.938 1.125 0 .86-.5 1.125-.906 1.125-.281 0-.89-.078-1.172-.484.328-.016.39-.25.39-.391 0-.235-.156-.39-.374-.39-.203 0-.391.124-.391.406C.375-.281 1.094.14 1.938.14c.968 0 1.64-.641 1.64-1.344 0-.547-.453-1.078-1.219-1.25.735-.266 1-.781 1-1.203 0-.547-.64-.953-1.406-.953-.766 0-1.36.375-1.36.922 0 .234.157.374.36.374.219 0 .36-.171.36-.359 0-.203-.141-.344-.36-.36.25-.312.719-.39.985-.39.312 0 .75.156.75.766 0 .297-.094.61-.282.828-.234.265-.422.281-.765.297-.188.015-.188.015-.235.015-.015 0-.062.016-.062.094 0 .094.062.094.172.094Zm0 0"/><path id="d" d="M3.516-1.266H3.28c-.031.157-.094.563-.187.641-.063.031-.594.031-.688.031H1.125c.734-.64.969-.843 1.39-1.172.516-.406 1-.828 1-1.5 0-.843-.734-1.343-1.624-1.343-.875 0-1.453.593-1.453 1.234 0 .36.296.39.375.39.156 0 .359-.109.359-.359 0-.14-.047-.375-.406-.375.218-.5.687-.64 1.015-.64.688 0 1.063.53 1.063 1.093 0 .61-.438 1.094-.656 1.344L.5-.266C.438-.203.438-.187.438 0h2.859Zm0 0"/></defs><path fill="none" stroke="#000" stroke-miterlimit="10" stroke-width=".39795063" d="M27.832 99.738V68.734m0-7.918V29.813h27.973m0 0h55.941m0 0h55.945m0 0h27.97v31.003m0 7.918v31.004h-27.97m0 0h-55.945m0 0H55.805m0 0H27.832"/><path fill="none" stroke="#000" stroke-miterlimit="10" stroke-width=".7949038900000001" d="M15.957 68.734h23.75m-23.75-7.918h23.75"/><use xlink:href="#a" x="1.606" y="66.916"/><use xlink:href="#b" x="8.708" y="68.406"/><path stroke="#000" stroke-miterlimit="10" stroke-width=".39795063" d="M85.36 29.813c0-.875-.712-1.586-1.583-1.586-.875 0-1.586.71-1.586 1.586 0 .87.711 1.582 1.586 1.582.871 0 1.582-.711 1.582-1.582ZM141.3 29.813c0-.875-.706-1.586-1.581-1.586a1.584 1.584 0 0 0 0 3.168c.875 0 1.582-.711 1.582-1.582Zm0 0"/><path fill="none" stroke="#000" stroke-miterlimit="10" stroke-width=".7949038900000001" d="M207.535 60.816H183.79m23.746 7.918H183.79"/><use xlink:href="#a" x="210.328" y="66.916"/><use xlink:href="#c" x="217.429" y="68.406"/><path stroke="#000" stroke-miterlimit="10" stroke-width=".39795063" d="M141.3 99.738a1.583 1.583 0 1 0-3.165.002 1.583 1.583 0 0 0 3.166-.002ZM85.36 99.738c0-.87-.712-1.582-1.583-1.582-.875 0-1.586.711-1.586 1.582 0 .875.711 1.586 1.586 1.586.871 0 1.582-.71 1.582-1.586Zm0 0"/><path fill="none" stroke="#000" stroke-miterlimit="10" stroke-width=".39795063" d="M83.777 29.813V48.94m0 31.668v19.13"/><path fill="none" stroke="#000" stroke-linejoin="bevel" stroke-miterlimit="10" stroke-width=".7949038900000001" d="M83.934 48.547c-3.278 0-5.938 1.816-5.938 4.055 0 2.242 2.66 4.058 5.938 4.058-3.278 0-5.938 1.817-5.938 4.059 0 2.238 2.66 4.054 5.938 4.054-3.278 0-5.938 1.817-5.938 4.059s2.66 4.059 5.938 4.059c-3.278 0-5.938 1.816-5.938 4.058 0 2.239 2.66 4.055 5.938 4.055"/><path fill="none" stroke="#000" stroke-miterlimit="10" stroke-width=".39795063" d="M139.719 29.813v31.003m0 7.918v31.004"/><path fill="none" stroke="#000" stroke-miterlimit="10" stroke-width=".7949038900000001" d="M151.594 60.816h-23.75m23.75 7.918h-23.75"/><use xlink:href="#a" x="113.491" y="66.916"/><use xlink:href="#d" x="120.593" y="68.406"/><path fill="none" stroke="#000" stroke-miterlimit="10" stroke-width=".39795063" d="M83.777 29.813V15.824m0 0V1.84"/><g clip-path="url(#e)"><path fill="#FFF" d="M85.36 1.84a1.583 1.583 0 1 0-3.166.002 1.583 1.583 0 0 0 3.165-.002m0 0"/></g><g clip-path="url(#f)"><path fill="none" stroke="#000" stroke-miterlimit="10" stroke-width=".39795063" d="M85.36 1.84a1.583 1.583 0 1 0-3.166.002 1.583 1.583 0 0 0 3.165-.002Zm0 0"/></g><path fill="none" stroke="#000" stroke-miterlimit="10" stroke-width=".39795063" d="M83.777 99.738v13.989m0 0v13.984"/><g clip-path="url(#g)"><path fill="#FFF" d="M85.36 127.71a1.583 1.583 0 1 0-3.166.003 1.583 1.583 0 0 0 3.165-.002m0 0"/></g><g clip-path="url(#h)"><path fill="none" stroke="#000" stroke-miterlimit="10" stroke-width=".39795063" d="M85.36 127.71a1.583 1.583 0 1 0-3.166.003 1.583 1.583 0 0 0 3.165-.002Zm0 0"/></g></svg>