<svg xmlns="http://www.w3.org/2000/svg" xmlns:xlink="http://www.w3.org/1999/xlink" width="222.822" height="85.393"><defs><clipPath id="a"><path d="M.7 18H5v4H.7Zm0 0"/></clipPath><clipPath id="b"><path d="M.7 12H10v15H.7Zm0 0"/></clipPath><clipPath id="g"><path d="M.7 81H5v3.79H.7Zm0 0"/></clipPath><clipPath id="h"><path d="M.7 75H10v9.79H.7Zm0 0"/></clipPath><clipPath id="i"><path d="M96 81h4v3.79h-4Zm0 0"/></clipPath><clipPath id="j"><path d="M90 75h15v9.79H90Zm0 0"/></clipPath><path id="c" d="M1.25-.766 2.297-1.78c1.547-1.36 2.14-1.89 2.14-2.89 0-1.126-.89-1.923-2.093-1.923A1.826 1.826 0 0 0 .5-4.797c0 .547.484.547.516.547.172 0 .515-.11.515-.516 0-.265-.172-.515-.515-.515-.079 0-.11 0-.141.015.234-.656.766-1.015 1.344-1.015.89 0 1.328.797 1.328 1.61 0 .796-.5 1.577-1.047 2.187L.61-.36C.5-.25.5-.234.5 0h3.656l.282-1.719h-.25c-.047.297-.11.735-.22.875-.062.078-.718.078-.937.078Zm0 0"/><path id="d" d="M4.547-3.172c0-.781-.047-1.578-.39-2.312-.454-.938-1.266-1.11-1.688-1.11-.594 0-1.313.266-1.719 1.188-.312.672-.36 1.453-.36 2.234 0 .75.032 1.64.438 2.39a1.83 1.83 0 0 0 1.64 1C3 .219 3.75.017 4.189-.936c.312-.672.359-1.454.359-2.235M2.469 0c-.39 0-.969-.25-1.156-1.203-.11-.594-.11-1.5-.11-2.078 0-.64 0-1.281.078-1.828.188-1.172.938-1.266 1.188-1.266.328 0 .969.188 1.156 1.156.11.563.11 1.313.11 1.938 0 .734 0 1.406-.11 2.047C3.469-.297 2.906 0 2.469 0m0 0"/><path id="e" d="M6.703-1.61h-.25a3.895 3.895 0 0 1-.187.735c-.047.156-.079.234-.641.234h-.797c.125-.562.438-1.03.875-1.687.469-.703.875-1.375.875-2.156 0-1.375-1.344-2.485-3-2.485-1.703 0-3.031 1.125-3.031 2.485 0 .78.406 1.453.875 2.156.437.656.75 1.125.875 1.687h-.781c-.578 0-.61-.078-.657-.234-.078-.219-.125-.484-.171-.734h-.25L.766 0h1.578c.219 0 .25 0 .25-.203 0-.703-.313-1.563-.531-2.203-.22-.578-.485-1.36-.485-2.094 0-1.578 1.078-2.25 1.985-2.25.953 0 2 .703 2 2.25 0 .734-.266 1.5-.563 2.297-.14.422-.453 1.312-.453 2 0 .203.016.203.25.203h1.578Zm0 0"/><path id="k" d="M2.906-6.328c0-.234 0-.266-.219-.266-.624.64-1.484.64-1.812.64v.313c.203 0 .781 0 1.297-.265v5.125c0 .36-.031.469-.922.469H.938V0C1.28-.031 2.14-.031 2.547-.031c.39 0 1.25 0 1.594.031v-.312h-.313c-.89 0-.922-.11-.922-.47Zm0 0"/><path id="f" d="M3.703-6.078c.063-.234.094-.328.281-.36.094-.015.407-.015.61-.015.703 0 1.797 0 1.797.984 0 .328-.157 1.016-.547 1.407-.25.25-.782.578-1.672.578h-1.11ZM5.141-3.36c.984-.22 2.172-.907 2.172-1.907 0-.859-.891-1.484-2.188-1.484H2.297c-.188 0-.281 0-.281.188 0 .109.093.109.28.109.017 0 .204 0 .376.031.172.016.265.016.265.156 0 .032-.015.063-.046.188L1.578-.766c-.11.375-.125.454-.906.454-.172 0-.266 0-.266.203C.406 0 .531 0 .546 0c.282 0 .97-.031 1.25-.031.266 0 .97.031 1.25.031.079 0 .204 0 .204-.203 0-.11-.094-.11-.281-.11-.375 0-.64 0-.64-.171 0-.063.015-.11.03-.172L3-3.281h1.188c.89 0 1.078.562 1.078.906 0 .156-.079.453-.141.688-.078.265-.156.64-.156.843C4.969.22 6.156.22 6.28.22c.844 0 1.188-1 1.188-1.14 0-.11-.11-.11-.125-.11-.078 0-.11.062-.125.125-.25.734-.672.906-.907.906-.312 0-.39-.219-.39-.61 0-.296.062-.812.094-1.124.03-.141.046-.328.046-.47 0-.75-.656-1.062-.921-1.155m0 0"/></defs><path fill="none" stroke="#000" stroke-miterlimit="10" stroke-width=".39618306000000003" d="M2.473 19.61h31.793m31.523 0h63.59m31.523 0H192.7v15.94m0 31.524V83.02H2.473"/><path fill="none" stroke="#000" stroke-miterlimit="10" stroke-width=".7913731800000001" d="M34.266 13.7h31.523v11.82H34.266Zm0 0"/><g clip-path="url(#a)"><path fill="#FFF" d="M4.047 19.61c0-.872-.707-1.579-1.574-1.579a1.575 1.575 0 1 0 1.574 1.578m0 0"/></g><g clip-path="url(#b)"><path fill="none" stroke="#000" stroke-miterlimit="10" stroke-width=".39618306000000003" d="M4.047 19.61c0-.872-.707-1.579-1.574-1.579a1.575 1.575 0 1 0 1.574 1.578Zm0 0"/></g><use xlink:href="#c" x="37.389" y="9.909"/><use xlink:href="#d" x="42.335" y="9.909"/><use xlink:href="#d" x="47.281" y="9.909"/><use xlink:href="#e" x="55.522" y="9.909"/><path fill="none" stroke="#000" stroke-miterlimit="10" stroke-width=".7913731800000001" d="M129.379 13.7h31.523v11.82H129.38Zm0 0"/><use xlink:href="#c" x="132.502" y="9.909"/><use xlink:href="#d" x="137.448" y="9.909"/><use xlink:href="#d" x="142.394" y="9.909"/><use xlink:href="#e" x="150.635" y="9.909"/><path fill="none" stroke="#000" stroke-miterlimit="10" stroke-width=".7913731800000001" d="M187.184 35.55v31.524h11.03V35.551ZM178.906 59.195 202.2 45.883"/><path stroke="#000" stroke-miterlimit="10" stroke-width=".7913333300000001" d="m205.805 43.824-4.61-.097 1.176 2.058 1.18 2.063Zm0 0"/><use xlink:href="#f" x="209.467" y="53.444"/><g clip-path="url(#g)"><path fill="#FFF" d="M4.047 83.02c0-.872-.707-1.579-1.574-1.579-.871 0-1.578.707-1.578 1.579a1.577 1.577 0 0 0 3.152 0m0 0"/></g><g clip-path="url(#h)"><path fill="none" stroke="#000" stroke-miterlimit="10" stroke-width=".39618306000000003" d="M4.047 83.02c0-.872-.707-1.579-1.574-1.579-.871 0-1.578.707-1.578 1.579a1.577 1.577 0 0 0 3.152 0Zm0 0"/></g><path fill="none" stroke="#000" stroke-miterlimit="10" stroke-width=".39618306000000003" d="M97.586 19.61v15.94m0 31.524V83.02"/><path fill="none" stroke="#000" stroke-miterlimit="10" stroke-width=".7913731800000001" d="M91.676 67.074V35.551h11.82v31.523Zm0 0"/><path stroke="#000" stroke-miterlimit="10" stroke-width=".39618306000000003" d="M99.16 19.61a1.575 1.575 0 1 0-3.152 0c0 .87.707 1.574 1.578 1.574.871 0 1.574-.704 1.574-1.575Zm0 0"/><g clip-path="url(#i)"><path d="M99.16 83.02a1.575 1.575 0 1 0-3.15-.006 1.575 1.575 0 0 0 3.15.006m0 0"/></g><g clip-path="url(#j)"><path fill="none" stroke="#000" stroke-miterlimit="10" stroke-width=".39618306000000003" d="M99.16 83.02a1.575 1.575 0 1 0-3.15-.006 1.575 1.575 0 0 0 3.15.006Zm0 0"/></g><use xlink:href="#k" x="105.685" y="53.444"/><use xlink:href="#d" x="110.631" y="53.444"/><use xlink:href="#d" x="115.577" y="53.444"/><use xlink:href="#e" x="123.817" y="53.444"/></svg>