<svg xmlns="http://www.w3.org/2000/svg" xmlns:xlink="http://www.w3.org/1999/xlink" width="222.705" height="86.523"><defs><clipPath id="a"><path d="M.465 17H4v4H.465Zm0 0"/></clipPath><clipPath id="b"><path d="M.465 11H10v16H.465Zm0 0"/></clipPath><clipPath id="e"><path d="M195 32h26.95v28H195Zm0 0"/></clipPath><clipPath id="g"><path d="M.465 82H4v4H.465Zm0 0"/></clipPath><clipPath id="h"><path d="M.465 77H10v9.047H.465Zm0 0"/></clipPath><clipPath id="i"><path d="M93 77h15v9.047H93Zm0 0"/></clipPath><path id="c" d="M.547-4.172c0 .188.172.344.36.344.14 0 .421-.156.421-.36 0-.062-.031-.125-.047-.187-.015-.062-.062-.14-.062-.203 0-.234.234-.547.875-.547.328 0 .781.219.781 1.078 0 .563-.203 1.031-.734 1.563l-.657.656C.61-.938.47-.516.47.016c0 0 .453-.016.734-.016h1.563c.28 0 .703.016.703.016.11-.47.203-1.141.203-1.407-.047-.046-.172-.062-.25-.046-.156.64-.313.859-.625.859H1.203c0-.438.61-1.031.656-1.078l.907-.875c.515-.485.89-.875.89-1.563 0-.953-.781-1.343-1.5-1.343-1 0-1.61.734-1.61 1.265m0 0"/><path id="d" d="M2.031.094c.688 0 1.735-.703 1.735-2.797 0-.89-.22-1.64-.61-2.156-.234-.313-.61-.578-1.094-.578-.874 0-1.718 1.046-1.718 2.812 0 .953.297 1.844.797 2.344q.375.375.89.375m.031-5.219c.157 0 .297.047.407.14.281.235.515.923.515 2.11 0 .828-.015 1.39-.14 1.844-.203.734-.64.812-.797.812-.828 0-.922-1.531-.922-2.312 0-2.188.547-2.594.938-2.594m0 0"/><path id="f" d="M3.484-5.828c-.203 0-.75.078-1.078.078-.344 0-.687-.016-1.078-.016l-.031.016-.031.188c-.016.03 0 .046.03.046l.329.016c.125.016.313.078.313.297v.078L1.063-.641c-.047.25-.172.36-.547.375l-.22.032C.25-.234.22-.22.22-.172L.172 0l.031.016C.593.016.953 0 1.281 0c.344 0 .688.016 1.094.016L2.406 0l.016-.172c.015-.047-.016-.062-.047-.062l-.219-.032C1.86-.28 1.75-.344 1.75-.53v-.11l.39-1.953c.72 0 .86.125.954.344l.61 1.547c.171.422.468.797.983.797A1 1 0 0 0 5.063.03l.016-.218c-.375 0-.531-.297-.672-.688L3.688-2.75c.39-.125 1.25-.594 1.437-1.531.016-.11.031-.219.031-.328a1.17 1.17 0 0 0-.281-.782c-.328-.406-.844-.437-1.39-.437m-.046.297c.453 0 .968.156.968.89 0 .094-.015.235-.047.375-.203 1.11-.906 1.36-1.734 1.36h-.437l.437-2.219c.047-.25.203-.406.813-.406m0 0"/><path id="j" d="M2.563-1.094v-3.093c0-.532.015-1.079.03-1.188 0-.047-.015-.047-.046-.047-.5.297-.969.531-1.75.89.015.095.047.188.125.235.422-.156.61-.219.781-.219.156 0 .172.22.172.516v2.906c0 .75-.234.797-.86.813-.046.062-.046.25 0 .297C1.454.016 1.782 0 2.25 0c.438 0 .656.016 1.094.016.062-.047.062-.235 0-.297-.625-.016-.781-.063-.781-.813m0 0"/></defs><path fill="none" stroke="#000" stroke-miterlimit="10" stroke-width=".39681348" d="M2.238 18.922h33.227m31.574 0h66.453m31.574 0h33.227v16.887m0 31.574v16.89H2.238"/><path fill="none" stroke="#000" stroke-miterlimit="10" stroke-width=".79263244" d="M35.465 13h31.574v11.844H35.465Zm0 0"/><g clip-path="url(#a)"><path fill="#FFF" d="M3.82 18.922a1.58 1.58 0 0 0-3.16 0 1.58 1.58 0 0 0 3.16 0m0 0"/></g><g clip-path="url(#b)"><path fill="none" stroke="#000" stroke-miterlimit="10" stroke-width=".39681348" d="M3.82 18.922a1.58 1.58 0 0 0-3.16 0 1.58 1.58 0 0 0 3.16 0Zm0 0"/></g><use xlink:href="#c" x="44.07" y="9.199"/><use xlink:href="#d" x="48.217" y="9.199"/><use xlink:href="#d" x="52.363" y="9.199"/><path fill="none" stroke="#000" stroke-miterlimit="10" stroke-width=".79263244" d="M133.492 13h31.574v11.844h-31.574Zm0 0"/><use xlink:href="#c" x="142.095" y="9.199"/><use xlink:href="#d" x="146.242" y="9.199"/><use xlink:href="#d" x="150.388" y="9.199"/><path fill="none" stroke="#000" stroke-miterlimit="10" stroke-width=".79263244" d="M192.766 35.809v31.574h11.05V35.809ZM184.48 59.492 207.81 46.16"/><path d="m211.418 44.098-4.617-.102 1.18 2.066 1.18 2.063Zm0 0"/><g clip-path="url(#e)"><path fill="none" stroke="#000" stroke-miterlimit="10" stroke-width=".79259259" d="m211.418 44.098-4.617-.102 1.18 2.067 1.18 2.062Zm0 0"/></g><use xlink:href="#f" x="215.091" y="53.737"/><g clip-path="url(#g)"><path fill="#FFF" d="M3.82 84.273a1.58 1.58 0 0 0-3.16 0 1.58 1.58 0 0 0 3.16 0m0 0"/></g><g clip-path="url(#h)"><path fill="none" stroke="#000" stroke-miterlimit="10" stroke-width=".39681348" d="M3.82 84.273a1.58 1.58 0 0 0-3.16 0 1.58 1.58 0 0 0 3.16 0Zm0 0"/></g><path fill="none" stroke="#000" stroke-miterlimit="10" stroke-width=".39681348" d="M100.266 18.922v16.887m0 31.574v16.89"/><path fill="none" stroke="#000" stroke-miterlimit="10" stroke-width=".79263244" d="M94.348 67.383V35.809h11.84v31.574Zm0 0"/><path stroke="#000" stroke-miterlimit="10" stroke-width=".39681348" d="M101.844 18.922a1.579 1.579 0 1 0-3.158.001 1.579 1.579 0 0 0 3.158-.001Zm0 0"/><path d="M101.844 84.273a1.579 1.579 0 1 0-3.158.002 1.579 1.579 0 0 0 3.158-.002m0 0"/><g clip-path="url(#i)"><path fill="none" stroke="#000" stroke-miterlimit="10" stroke-width=".39681348" d="M101.844 84.273a1.579 1.579 0 1 0-3.158.002 1.579 1.579 0 0 0 3.158-.002Zm0 0"/></g><use xlink:href="#j" x="108.383" y="53.737"/><use xlink:href="#d" x="112.529" y="53.737"/><use xlink:href="#d" x="116.676" y="53.737"/></svg>