<svg xmlns="http://www.w3.org/2000/svg" xmlns:xlink="http://www.w3.org/1999/xlink" width="226.772" height="116.968"><defs><path id="a" d="M3.734-6.11c.063-.234.094-.343.282-.374h.609c.703 0 1.797 0 1.797.984 0 .328-.156 1.016-.547 1.406-.25.266-.781.578-1.672.578H3.078Zm1.438 2.72c1-.22 2.187-.907 2.187-1.922 0-.844-.906-1.485-2.203-1.485H2.313c-.188 0-.282 0-.282.203 0 .11.094.11.281.11.016 0 .204 0 .376.015.171.016.265.032.265.157 0 .046 0 .078-.031.187L1.578-.781c-.094.39-.11.469-.906.469-.172 0-.266 0-.266.203C.406 0 .531 0 .546 0c.282 0 .97-.031 1.25-.031.282 0 .985.031 1.267.031.078 0 .203 0 .203-.203 0-.11-.094-.11-.282-.11-.359 0-.64 0-.64-.171 0-.063.015-.11.031-.172l.656-2.64h1.172c.906 0 1.094.562 1.094.905 0 .157-.078.454-.14.688-.063.281-.157.64-.157.844C5 .219 6.188.219 6.313.219c.859 0 1.203-1 1.203-1.14 0-.126-.11-.126-.125-.126-.079 0-.11.078-.125.14-.25.735-.672.907-.907.907-.328 0-.39-.219-.39-.61 0-.312.047-.812.093-1.124.016-.141.032-.328.032-.47 0-.765-.657-1.077-.922-1.187m0 0"/><path id="c" d="M3.719-6.031c.094-.36.125-.453.906-.453.234 0 .328 0 .328-.188 0-.125-.11-.125-.156-.125-.281 0-1.031.031-1.313.031-.296 0-1.03-.03-1.328-.03-.062 0-.203 0-.203.202 0 .11.094.11.281.11.422 0 .688 0 .688.187 0 .047 0 .063-.016.156L1.562-.78c-.093.375-.125.469-.906.469-.234 0-.312 0-.312.203 0 .109.11.109.14.109C.781 0 1.5-.031 1.797-.031c.297 0 1.031.031 1.328.031.078 0 .203 0 .203-.187 0-.125-.078-.125-.297-.125-.187 0-.234 0-.437-.016-.203-.016-.25-.063-.25-.172 0-.078.031-.156.047-.234Zm0 0"/><path id="j" d="M6.313-5.75c.109-.406.28-.703 1.078-.734.046 0 .172-.016.172-.203 0-.016 0-.11-.125-.11-.329 0-.672.031-1.016.031s-.703-.03-1.031-.03c-.063 0-.188 0-.188.202 0 .11.11.11.188.11.562 0 .672.218.672.437a.914.914 0 0 1-.032.203l-.89 3.547C4.797-.953 3.656-.094 2.656-.094c-.672 0-1.219-.437-1.219-1.297 0-.015 0-.328.11-.765l.969-3.875c.093-.36.109-.453.843-.453.25 0 .329 0 .329-.203 0-.11-.11-.11-.141-.11-.266 0-.985.031-1.266.031-.297 0-1-.03-1.281-.03-.078 0-.187 0-.187.202 0 .11.078.11.265.11.031 0 .219 0 .39.015.173.016.266.032.266.157 0 .062-.109.484-.171.703l-.22.875c-.093.39-.562 2.28-.609 2.468-.062.282-.062.422-.062.579 0 1.203.906 1.906 1.953 1.906 1.25 0 2.484-1.125 2.813-2.438Zm0 0"/><path id="b" d="M2.328-4.437c0-.188 0-.188-.203-.188-.453.438-1.078.438-1.36.438v.25c.157 0 .626 0 1-.188v3.547c0 .234 0 .328-.687.328H.812V0c.125 0 .985-.031 1.235-.031.219 0 1.094.031 1.25.031v-.25H3.03c-.703 0-.703-.094-.703-.328Zm0 0"/><path id="e" d="M3.516-1.266H3.28c-.015.157-.094.563-.187.625-.047.047-.578.047-.688.047H1.125c.734-.64.984-.843 1.39-1.172.516-.406 1-.843 1-1.5 0-.843-.734-1.359-1.624-1.359-.86 0-1.453.61-1.453 1.25 0 .344.296.39.375.39.156 0 .359-.124.359-.374 0-.125-.047-.375-.406-.375.218-.485.687-.641 1.015-.641.703 0 1.063.547 1.063 1.11 0 .609-.438 1.078-.656 1.328L.516-.266C.437-.203.437-.187.437 0h2.876Zm0 0"/><path id="g" d="M1.906-2.328c.547 0 .938.375.938 1.125 0 .86-.516 1.125-.906 1.125-.282 0-.907-.078-1.188-.5.328 0 .406-.235.406-.39 0-.22-.172-.376-.39-.376a.38.38 0 0 0-.391.407C.375-.281 1.094.14 1.938.14c.968 0 1.64-.657 1.64-1.344 0-.547-.437-1.094-1.203-1.25.719-.266.984-.781.984-1.219 0-.547-.625-.953-1.406-.953-.766 0-1.36.375-1.36.938 0 .234.157.359.36.359.219 0 .36-.156.36-.344 0-.203-.141-.36-.36-.375.25-.297.719-.375.985-.375.312 0 .75.156.75.75 0 .297-.094.625-.282.828-.219.266-.422.281-.765.313-.172.015-.188.015-.22.015-.015 0-.077.016-.077.094 0 .094.062.094.187.094Zm0 0"/><path id="h" d="M3.219-.375v-1.937h1.937c.125 0 .235-.11.235-.22a.23.23 0 0 0-.235-.234H3.22v-1.937a.24.24 0 0 0-.235-.234.24.24 0 0 0-.234.234v1.937H.828a.23.23 0 0 0-.234.235c0 .11.11.219.234.219H2.75v1.937c0 .11.11.219.234.219.125 0 .235-.11.235-.219m0 0"/><path id="i" d="M.828-2.312h4.328c.125 0 .235-.11.235-.22a.23.23 0 0 0-.235-.234H.828a.23.23 0 0 0-.234.235c0 .11.11.219.234.219m0 0"/><clipPath id="d"><path d="M148 103h15v13.895h-15Zm0 0"/></clipPath><clipPath id="f"><path d="M11 103h15v13.895H11Zm0 0"/></clipPath></defs><path fill="none" stroke="#000" stroke-miterlimit="10" stroke-width=".39860100000000004" d="M18.68 19.77h52.68m31.718 0h52.68"/><path fill="none" stroke="#000" stroke-miterlimit="10" stroke-width=".796203" d="M71.36 13.824h31.718v11.89H71.36Zm0 0"/><path fill="#FFF" stroke="#000" stroke-miterlimit="10" stroke-width=".39860100000000004" d="M20.266 19.77a1.587 1.587 0 0 0-3.172 0 1.587 1.587 0 0 0 3.172 0Zm0 0"/><path stroke="#000" stroke-miterlimit="10" stroke-width=".39860100000000004" d="M157.344 19.77a1.587 1.587 0 0 0-3.172 0 1.587 1.587 0 0 0 3.172 0Zm0 0"/><use xlink:href="#a" x="81.208" y="10.011"/><use xlink:href="#b" x="88.765" y="11.503"/><path stroke="#000" stroke-miterlimit="10" stroke-width=".39860100000000004" d="M43.285 19.77v1.984L47.5 19.77l-4.215-1.98Zm0 0"/><use xlink:href="#c" x="42.442" y="16.253"/><path fill="none" stroke="#000" stroke-miterlimit="10" stroke-width=".39860100000000004" d="M155.758 19.77v29.835m0 31.715v29.836"/><path fill="none" stroke="#000" stroke-miterlimit="10" stroke-width=".796203" d="M149.813 81.32V49.605h11.89V81.32Zm0 0"/><path stroke="#000" stroke-miterlimit="10" stroke-width=".39860100000000004" d="M157.344 19.77a1.587 1.587 0 0 0-3.172 0 1.587 1.587 0 0 0 3.172 0Zm0 0"/><path d="M157.344 111.156a1.587 1.587 0 0 0-3.172 0 1.587 1.587 0 0 0 3.172 0m0 0"/><g clip-path="url(#d)"><path fill="none" stroke="#000" stroke-miterlimit="10" stroke-width=".39860100000000004" d="M157.344 111.156a1.587 1.587 0 0 0-3.172 0 1.587 1.587 0 0 0 3.172 0Zm0 0"/></g><use xlink:href="#a" x="135.586" y="67.607"/><use xlink:href="#e" x="143.142" y="69.099"/><path fill="none" stroke="#000" stroke-miterlimit="10" stroke-width=".39860100000000004" d="M18.68 111.156h68.539m0 0h68.539"/><path fill="#FFF" d="M20.266 111.156a1.587 1.587 0 0 0-3.172 0 1.587 1.587 0 0 0 3.172 0m0 0"/><g clip-path="url(#f)"><path fill="none" stroke="#000" stroke-miterlimit="10" stroke-width=".39860100000000004" d="M20.266 111.156a1.587 1.587 0 0 0-3.172 0 1.587 1.587 0 0 0 3.172 0Zm0 0"/></g><path fill="none" stroke="#000" stroke-miterlimit="10" stroke-width=".39860100000000004" d="M155.758 19.77h45.691v29.835m0 31.715v29.836h-45.691"/><path fill="none" stroke="#000" stroke-miterlimit="10" stroke-width=".796203" d="M195.504 81.32V49.605h11.894V81.32Zm0 0"/><use xlink:href="#a" x="209.599" y="67.607"/><use xlink:href="#g" x="217.157" y="69.099"/><use xlink:href="#h" x="9.184" y="22.191"/><use xlink:href="#i" x="9.184" y="113.576"/><path fill="none" stroke="#000" stroke-miterlimit="10" stroke-width=".39860100000000004" d="M18.68 24.34v81.55"/><path stroke="#000" stroke-miterlimit="10" stroke-width=".39860100000000004" d="m21.367 101.535-2.687 4.652-2.688-4.652Zm0 0"/><use xlink:href="#j" x="3.318" y="68.863"/></svg>