<svg xmlns="http://www.w3.org/2000/svg" xmlns:xlink="http://www.w3.org/1999/xlink" width="226.772" height="220.978"><defs><path id="b" d="M3.734-6.11c.063-.234.094-.343.282-.374h.609c.703 0 1.797 0 1.797.984 0 .328-.156 1.016-.547 1.406-.25.266-.781.578-1.672.578H3.078Zm1.438 2.72c1-.22 2.187-.907 2.187-1.922 0-.844-.906-1.485-2.203-1.485H2.313c-.188 0-.282 0-.282.203 0 .11.094.11.281.11.016 0 .204 0 .376.015.171.016.265.032.265.157 0 .046 0 .078-.031.187L1.578-.781c-.094.39-.11.469-.906.469-.172 0-.266 0-.266.203C.406 0 .531 0 .546 0c.282 0 .97-.031 1.25-.031.282 0 .985.031 1.267.031.078 0 .203 0 .203-.203 0-.11-.094-.11-.282-.11-.359 0-.64 0-.64-.171 0-.063.015-.11.031-.172l.656-2.64h1.172c.906 0 1.094.562 1.094.905 0 .157-.078.454-.14.688-.063.281-.157.64-.157.844C5 .219 6.188.219 6.313.219c.859 0 1.203-1 1.203-1.14 0-.126-.11-.126-.125-.126-.079 0-.11.078-.125.14-.25.735-.672.907-.907.907-.328 0-.39-.219-.39-.61 0-.312.047-.812.093-1.124.016-.141.032-.328.032-.47 0-.765-.657-1.077-.922-1.187m0 0"/><path id="c" d="M1.906-2.328c.547 0 .938.375.938 1.125 0 .86-.516 1.125-.906 1.125-.282 0-.907-.078-1.188-.5.328 0 .406-.235.406-.39 0-.22-.172-.376-.39-.376a.38.38 0 0 0-.391.407C.375-.281 1.094.14 1.938.14c.968 0 1.64-.657 1.64-1.344 0-.547-.437-1.094-1.203-1.25.719-.266.984-.781.984-1.219 0-.547-.625-.953-1.406-.953-.766 0-1.36.375-1.36.938 0 .234.157.359.36.359.219 0 .36-.156.36-.344 0-.203-.141-.36-.36-.375.25-.297.719-.375.985-.375.312 0 .75.156.75.75 0 .297-.094.625-.282.828-.219.266-.422.281-.765.313-.172.015-.188.015-.22.015-.015 0-.077.016-.077.094 0 .094.062.094.187.094Zm0 0"/><path id="e" d="M3.688-1.14v-.25h-.782V-4.5c0-.14 0-.203-.14-.203-.094 0-.125 0-.188.11L.266-1.392v.25h2.062v.563c0 .25 0 .328-.578.328h-.187V0c.359-.016.796-.031 1.046-.031.266 0 .704.015 1.063.031v-.25h-.188c-.578 0-.578-.078-.578-.328v-.563ZM2.375-3.939v2.547H.531Zm0 0"/><path id="f" d="M2.328-4.437c0-.188 0-.188-.203-.188-.453.438-1.078.438-1.36.438v.25c.157 0 .626 0 1-.188v3.547c0 .234 0 .328-.687.328H.812V0c.125 0 .985-.031 1.235-.031.219 0 1.094.031 1.25.031v-.25H3.03c-.703 0-.703-.094-.703-.328Zm0 0"/><path id="g" d="M3.516-1.266H3.28c-.015.157-.094.563-.187.625-.047.047-.578.047-.688.047H1.125c.734-.64.984-.843 1.39-1.172.516-.406 1-.843 1-1.5 0-.843-.734-1.359-1.624-1.359-.86 0-1.453.61-1.453 1.25 0 .344.296.39.375.39.156 0 .359-.124.359-.374 0-.125-.047-.375-.406-.375.218-.485.687-.641 1.015-.641.703 0 1.063.547 1.063 1.11 0 .609-.438 1.078-.656 1.328L.516-.266C.437-.203.437-.187.437 0h2.876Zm0 0"/><path id="i" d="M5.188-2.156c0-1.25-.985-2.25-2.11-2.25-.781 0-1.203.468-1.36.656v-3.156l-1.437.11v.312c.688 0 .782.062.782.547V0h.234l.36-.61c.155.22.577.72 1.312.72 1.187 0 2.219-.97 2.219-2.266m-.829 0c0 .36-.015.969-.312 1.406-.203.313-.578.64-1.125.64-.438 0-.797-.234-1.047-.609-.14-.203-.14-.234-.14-.422v-2.046c0-.188 0-.204.109-.36.39-.547.937-.64 1.187-.64.438 0 .797.265 1.047.64.25.406.281.985.281 1.39m0 0"/><path id="k" d="M4.813-.89v-.547h-.25v.546c0 .579-.25.641-.36.641-.328 0-.375-.453-.375-.5v-1.984c0-.422 0-.813-.36-1.172a1.874 1.874 0 0 0-1.359-.547c-.812 0-1.5.469-1.5 1.125 0 .297.204.469.454.469.28 0 .453-.203.453-.47 0-.108-.047-.437-.5-.452.265-.344.75-.453 1.078-.453.484 0 1.047.375 1.047 1.265v.375c-.5.031-1.203.063-1.828.36-.75.328-1 .843-1 1.28C.313-.14 1.28.11 1.906.11c.657 0 1.125-.39 1.313-.859.031.39.297.813.765.813.22 0 .829-.141.829-.954m-1.672-.5c0 .937-.72 1.28-1.157 1.28-.484 0-.906-.343-.906-.843 0-.547.422-1.375 2.063-1.438Zm0 0"/><clipPath id="a"><path d="M139 .102h15V13h-15Zm0 0"/></clipPath><clipPath id="d"><path d="M139 206h15v14.855h-15Zm0 0"/></clipPath><clipPath id="h"><path d="M202 206h15v14.855h-15Zm0 0"/></clipPath><clipPath id="j"><path d="M202 .102h15V13h-15Zm0 0"/></clipPath></defs><path fill="none" stroke="#000" stroke-miterlimit="10" stroke-width=".39860100000000004" d="M21.781 5.7h62.5m0 0h62.5v36.222m0 31.719v72.449m0 31.715v36.226h-62.5m0 0h-62.5"/><path d="M148.363 5.7a1.584 1.584 0 1 0-3.168 0 1.585 1.585 0 1 0 3.168 0m0 0"/><g clip-path="url(#a)"><path fill="none" stroke="#000" stroke-miterlimit="10" stroke-width=".39860100000000004" d="M148.363 5.7a1.584 1.584 0 1 0-3.168 0 1.585 1.585 0 1 0 3.168 0Zm0 0"/></g><path fill="none" stroke="#000" stroke-miterlimit="10" stroke-width=".796203" d="M140.832 73.64V41.923h11.895V73.64Zm0 0"/><path stroke="#000" stroke-miterlimit="10" stroke-width=".39860100000000004" d="M148.363 109.863a1.584 1.584 0 1 0-3.168 0c0 .88.707 1.586 1.586 1.586.875 0 1.582-.707 1.582-1.586Zm0 0"/><use xlink:href="#b" x="154.928" y="59.928"/><use xlink:href="#c" x="162.486" y="61.42"/><path fill="none" stroke="#000" stroke-miterlimit="10" stroke-width=".796203" d="M140.832 177.805V146.09h11.895v31.715Zm0 0"/><path d="M148.363 214.031a1.584 1.584 0 1 0-3.168 0 1.585 1.585 0 1 0 3.168 0m0 0"/><g clip-path="url(#d)"><path fill="none" stroke="#000" stroke-miterlimit="10" stroke-width=".39860100000000004" d="M148.363 214.031a1.584 1.584 0 1 0-3.168 0 1.585 1.585 0 1 0 3.168 0Zm0 0"/></g><use xlink:href="#b" x="154.928" y="164.093"/><use xlink:href="#e" x="162.486" y="165.586"/><path fill="none" stroke="#000" stroke-miterlimit="10" stroke-width=".39860100000000004" d="M21.781 5.7v36.222m0 31.719v72.449m0 31.715v36.226"/><path fill="none" stroke="#000" stroke-miterlimit="10" stroke-width=".796203" d="M15.832 73.64V41.923h11.895V73.64Zm0 0"/><path stroke="#000" stroke-miterlimit="10" stroke-width=".39860100000000004" d="M23.367 109.863a1.587 1.587 0 1 0-3.174.003 1.587 1.587 0 0 0 3.174-.003Zm0 0"/><use xlink:href="#b" x="1.608" y="59.928"/><use xlink:href="#f" x="9.166" y="61.42"/><path fill="none" stroke="#000" stroke-miterlimit="10" stroke-width=".796203" d="M15.832 177.805V146.09h11.895v31.715Zm0 0"/><use xlink:href="#b" x="1.608" y="164.093"/><use xlink:href="#g" x="9.166" y="165.586"/><path fill="none" stroke="#000" stroke-miterlimit="10" stroke-width=".39860100000000004" d="M21.781 109.863h20.832m0 0h41.668m0 0h62.5"/><path fill="#FFF" stroke="#000" stroke-miterlimit="10" stroke-width=".39860100000000004" d="M65.031 109.863a1.587 1.587 0 1 0-3.174.003 1.587 1.587 0 0 0 3.174-.003ZM106.7 109.863a1.587 1.587 0 1 0-3.175.003 1.587 1.587 0 0 0 3.174-.003Zm0 0"/><path fill="none" stroke="#000" stroke-miterlimit="10" stroke-width=".39860100000000004" d="M146.781 214.031h62.496"/><path fill="#FFF" d="M210.863 214.031a1.585 1.585 0 1 0-3.168 0 1.584 1.584 0 1 0 3.168 0m0 0"/><g clip-path="url(#h)"><path fill="none" stroke="#000" stroke-miterlimit="10" stroke-width=".39860100000000004" d="M210.863 214.031a1.585 1.585 0 1 0-3.168 0 1.584 1.584 0 1 0 3.168 0Zm0 0"/></g><use xlink:href="#i" x="214.378" y="217.429"/><path fill="none" stroke="#000" stroke-miterlimit="10" stroke-width=".39860100000000004" d="M146.781 5.7h62.496"/><path fill="#FFF" d="M210.863 5.7a1.585 1.585 0 1 0-3.168 0 1.584 1.584 0 1 0 3.168 0m0 0"/><g clip-path="url(#j)"><path fill="none" stroke="#000" stroke-miterlimit="10" stroke-width=".39860100000000004" d="M210.863 5.7a1.585 1.585 0 1 0-3.168 0 1.584 1.584 0 1 0 3.168 0Zm0 0"/></g><use xlink:href="#k" x="214.378" y="7.875"/></svg>