<svg xmlns="http://www.w3.org/2000/svg" xmlns:xlink="http://www.w3.org/1999/xlink" width="223.297" height="158.467"><defs><path id="a" d="M7.297-2.406v-.297l-1.219.031c-.39 0-1.234 0-1.594-.031v.297h.313c.89 0 .922.11.922.484v.625c0 1.125-1.25 1.203-1.532 1.203-.64 0-2.609-.343-2.609-3.297 0-2.968 1.953-3.296 2.547-3.296 1.063 0 1.969.89 2.172 2.359.016.125.016.156.156.156.156 0 .156-.031.156-.234V-6.75c0-.172 0-.25-.109-.25-.047 0-.078 0-.156.125l-.5.734C5.53-6.453 4.984-7 4.016-7 2.156-7 .563-5.422.563-3.39.563-1.36 2.14.218 4.03.218c.719 0 1.516-.266 1.86-.844.125.219.515.61.625.61.093 0 .093-.079.093-.22v-1.734c0-.375.032-.437.688-.437m0 0"/><path id="b" d="M7.11 0v-.312h-.173c-.593 0-.734-.063-.843-.391l-2.14-6.203c-.048-.125-.079-.203-.235-.203-.156 0-.188.062-.235.203L1.422-.97c-.172.5-.563.657-1.11.657V0l1.016-.031L2.468 0v-.312c-.5 0-.75-.25-.75-.5 0-.032.016-.125.032-.157l.453-1.297h2.453L5.172-.75a.58.58 0 0 1 .031.14c0 .298-.547.298-.812.298V0c.359-.031 1.047-.031 1.422-.031ZM4.546-2.562H2.313l1.109-3.235Zm0 0"/><path id="c" d="M6.453-1.812c0-.86-.812-1.61-1.906-1.735.953-.187 1.64-.812 1.64-1.547 0-.875-.906-1.687-2.203-1.687H.36v.312h.235c.765 0 .781.11.781.469v5.219c0 .36-.016.469-.781.469H.359V0H4.25c1.313 0 2.203-.89 2.203-1.812M5.234-5.094c0 .625-.484 1.469-1.593 1.469H2.203v-2.453c0-.328.016-.39.485-.39h1.234c.953 0 1.312.843 1.312 1.374m.235 3.266c0 .703-.516 1.516-1.547 1.516H2.687c-.468 0-.484-.063-.484-.391v-2.703h1.86c.984 0 1.406.922 1.406 1.578m0 0"/><path id="e" d="M3.719-6.094c.062-.234.094-.328.281-.36.094-.015.406-.015.61-.015.702 0 1.796 0 1.796.985 0 .328-.156 1.015-.547 1.406-.25.266-.78.578-1.671.578h-1.11Zm1.437 2.719c1-.219 2.172-.906 2.172-1.906 0-.86-.89-1.5-2.187-1.5H2.313c-.204 0-.282 0-.282.203 0 .11.078.11.266.11.031 0 .219 0 .375.015.187.031.281.031.281.156 0 .047-.015.078-.047.188L1.578-.781c-.094.39-.125.469-.906.469-.172 0-.266 0-.266.203C.406 0 .531 0 .546 0c.282 0 .97-.031 1.25-.031.282 0 .985.031 1.267.031.078 0 .187 0 .187-.203 0-.11-.078-.11-.281-.11-.36 0-.64 0-.64-.171 0-.063.015-.11.03-.172l.657-2.625h1.187c.89 0 1.078.547 1.078.906 0 .14-.078.453-.14.672-.079.281-.157.656-.157.844C4.984.219 6.172.219 6.297.219c.844 0 1.187-1 1.187-1.14 0-.126-.109-.126-.109-.126-.094 0-.11.078-.125.14C7-.171 6.563 0 6.344 0c-.328 0-.407-.219-.407-.61 0-.296.063-.812.11-1.124.016-.141.031-.328.031-.47 0-.765-.656-1.077-.922-1.171m0 0"/><path id="f" d="M1.89-2.328c.548 0 .938.375.938 1.125 0 .86-.5 1.125-.906 1.125-.281 0-.89-.078-1.172-.484.328-.016.39-.25.39-.391 0-.235-.156-.39-.374-.39-.203 0-.391.124-.391.406C.375-.281 1.094.14 1.938.14c.968 0 1.64-.641 1.64-1.344 0-.547-.453-1.078-1.219-1.25.735-.266 1-.781 1-1.203 0-.547-.64-.953-1.406-.953-.766 0-1.36.375-1.36.922 0 .234.157.374.36.374.219 0 .36-.171.36-.359 0-.203-.141-.344-.36-.36.25-.312.719-.39.985-.39.312 0 .75.156.75.766 0 .297-.094.61-.282.828-.234.265-.422.281-.765.297-.188.015-.188.015-.235.015-.015 0-.062.016-.062.094 0 .094.062.094.172.094Zm0 0"/><path id="g" d="M3.672-1.14v-.25h-.766v-3.094c0-.157 0-.203-.156-.203-.078 0-.11 0-.172.093L.266-1.39v.25h2.047v.579c0 .234 0 .312-.563.312h-.187V0c.343-.016.796-.031 1.046-.031s.704.015 1.047.031v-.25H3.47c-.563 0-.563-.078-.563-.312v-.579ZM2.359-3.939v2.547H.531Zm0 0"/><path id="j" d="M2.328-4.422c0-.187-.015-.187-.203-.187-.453.437-1.078.437-1.36.437v.25c.157 0 .626 0 1-.187v3.547c0 .218 0 .312-.687.312H.812V0c.125 0 .97-.031 1.235-.031C2.266-.031 3.14 0 3.28 0v-.25h-.25c-.703 0-.703-.094-.703-.312Zm0 0"/><path id="m" d="M3.516-1.266H3.28c-.031.157-.094.563-.187.641-.063.031-.594.031-.688.031H1.125c.734-.64.969-.843 1.39-1.172.516-.406 1-.828 1-1.5 0-.843-.734-1.343-1.624-1.343-.875 0-1.453.593-1.453 1.234 0 .36.296.39.375.39.156 0 .359-.109.359-.359 0-.14-.047-.375-.406-.375.218-.5.687-.64 1.015-.64.688 0 1.063.53 1.063 1.093 0 .61-.438 1.094-.656 1.344L.5-.266C.438-.203.438-.187.438 0h2.859Zm0 0"/><clipPath id="d"><path d="M.023 55H36v48H.023Zm0 0"/></clipPath><clipPath id="h"><path d="M72 154h4v3.938h-4Zm0 0"/></clipPath><clipPath id="i"><path d="M66 148h16v9.938H66Zm0 0"/></clipPath><clipPath id="k"><path d="M72 154h4v3.938h-4Zm0 0"/></clipPath><clipPath id="l"><path d="M66 148h16v9.938H66Zm0 0"/></clipPath></defs><use xlink:href="#a" x="8.39" y="80.815"/><path fill="none" stroke="#000" stroke-miterlimit="10" stroke-width=".7943300500000001" d="M7.656 85.14h9.262"/><use xlink:href="#b" x="101.189" y="73.26"/><use xlink:href="#c" x="163.147" y="73.096"/><path fill="none" stroke="#000" stroke-miterlimit="10" stroke-width=".39766335" d="m129.613 85.14 9.903-9.902"/><path stroke="#000" stroke-miterlimit="10" stroke-width=".39765936" d="m141.684 73.074-3.34.852 2.484 2.484Zm0 0"/><path fill="none" stroke="#000" stroke-miterlimit="10" stroke-width=".39766335" d="M12.285 156.156V90.832m0-23.73V1.777H43.16m0 0h92.63m0 0h61.75v22.774m0 31.644v45.547m0 31.64v22.774h-61.75m0 0H43.16m0 0H12.285"/><g clip-path="url(#d)"><path fill="none" stroke="#000" stroke-miterlimit="10" stroke-width=".7943300500000001" d="M.422 78.969c0 6.55 5.312 11.863 11.863 11.863 6.555 0 11.867-5.312 11.867-11.863 0-6.555-5.312-11.867-11.867-11.867-6.55 0-11.863 5.312-11.863 11.867Zm0 0"/></g><path stroke="#000" stroke-miterlimit="10" stroke-width=".39766335" d="M75.621 1.777a1.583 1.583 0 1 0-3.162.002 1.583 1.583 0 0 0 3.162-.002Zm0 0"/><path fill="none" stroke="#000" stroke-miterlimit="10" stroke-width=".7943300500000001" d="M191.606 56.195V24.551h11.867v31.644Zm0 0"/><path stroke="#000" stroke-miterlimit="10" stroke-width=".39766335" d="M199.121 78.969a1.58 1.58 0 0 0-1.582-1.582 1.583 1.583 0 1 0 1.582 1.582Zm0 0"/><use xlink:href="#e" x="205.667" y="42.514"/><use xlink:href="#f" x="213.207" y="44.003"/><path fill="none" stroke="#000" stroke-miterlimit="10" stroke-width=".7943300500000001" d="M191.606 133.383v-31.64h11.867v31.64Zm0 0"/><use xlink:href="#e" x="205.667" y="119.701"/><use xlink:href="#g" x="213.207" y="121.19"/><g clip-path="url(#h)"><path d="M75.621 156.156a1.583 1.583 0 1 0-3.166.002 1.583 1.583 0 0 0 3.166-.002m0 0"/></g><g clip-path="url(#i)"><path fill="none" stroke="#000" stroke-miterlimit="10" stroke-width=".39766335" d="M75.621 156.156a1.583 1.583 0 1 0-3.166.002 1.583 1.583 0 0 0 3.166-.002Zm0 0"/></g><path fill="none" stroke="#000" stroke-miterlimit="10" stroke-width=".39766335" d="M74.04 1.777v22.774m0 31.644v45.547m0 31.64v22.774"/><path fill="none" stroke="#000" stroke-miterlimit="10" stroke-width=".7943300500000001" d="M68.105 56.195V24.551H79.97v31.644Zm0 0"/><path stroke="#000" stroke-miterlimit="10" stroke-width=".39766335" d="M75.621 78.969a1.583 1.583 0 1 0-3.166.001 1.583 1.583 0 0 0 3.166-.001Zm0 0"/><use xlink:href="#e" x="53.913" y="42.514"/><use xlink:href="#j" x="61.451" y="44.003"/><path fill="none" stroke="#000" stroke-miterlimit="10" stroke-width=".7943300500000001" d="M68.105 133.383v-31.64H79.97v31.64Zm0 0"/><g clip-path="url(#k)"><path d="M75.621 156.156a1.583 1.583 0 1 0-3.166.002 1.583 1.583 0 0 0 3.166-.002m0 0"/></g><g clip-path="url(#l)"><path fill="none" stroke="#000" stroke-miterlimit="10" stroke-width=".39766335" d="M75.621 156.156a1.583 1.583 0 1 0-3.166.002 1.583 1.583 0 0 0 3.166-.002Zm0 0"/></g><use xlink:href="#e" x="53.913" y="119.701"/><use xlink:href="#m" x="61.451" y="121.19"/><path fill="none" stroke="#000" stroke-miterlimit="10" stroke-width=".39766335" d="M74.04 78.969h15.437m0 0h34.445m23.73 0h49.887"/><path fill="#FFF" stroke="#000" stroke-miterlimit="10" stroke-width=".39766335" d="M106.496 78.969a1.583 1.583 0 1 0-3.166.001 1.583 1.583 0 0 0 3.166-.001Zm0 0"/><path fill="none" stroke="#000" stroke-miterlimit="10" stroke-width=".7943300500000001" d="M135.79 67.102c-6.556 0-11.868 5.312-11.868 11.867 0 6.55 5.312 11.863 11.867 11.863 6.55 0 11.863-5.312 11.863-11.863 0-6.555-5.312-11.867-11.863-11.867Zm0 0"/><path fill="#FFF" stroke="#000" stroke-miterlimit="10" stroke-width=".39766335" d="M168.246 78.969a1.58 1.58 0 0 0-1.582-1.582 1.583 1.583 0 1 0 1.582 1.582Zm0 0"/></svg>