<svg xmlns="http://www.w3.org/2000/svg" xmlns:xlink="http://www.w3.org/1999/xlink" width="166.647" height="201.655"><defs><path id="a" d="M3.719-6.016c.094-.359.11-.468.906-.468.234 0 .313 0 .313-.188 0-.11-.11-.11-.141-.11-.297 0-1.031.032-1.313.032-.296 0-1.03-.031-1.328-.031-.062 0-.203 0-.203.187 0 .11.094.11.281.11.422 0 .688 0 .688.187 0 .063 0 .078-.016.172L1.562-.781c-.093.375-.125.469-.906.469-.234 0-.312 0-.312.203 0 .109.11.109.14.109C.781 0 1.5-.031 1.781-.031c.313 0 1.047.031 1.344.031.078 0 .188 0 .188-.187 0-.125-.079-.125-.297-.125-.172 0-.22 0-.422-.016-.203-.016-.25-.063-.25-.172a.5.5 0 0 1 .047-.219Zm0 0"/><path id="c" d="M3.734-6.11c.047-.234.079-.327.266-.359.094-.015.406-.015.61-.015.702 0 1.812 0 1.812.984 0 .344-.156 1.031-.547 1.422-.266.25-.781.562-1.687.562h-1.11Zm1.422 2.735c1-.219 2.188-.922 2.188-1.922 0-.86-.89-1.484-2.203-1.484H2.313c-.204 0-.282 0-.282.187 0 .11.078.11.281.11.016 0 .204 0 .376.03.171.016.265.032.265.157 0 .031-.015.063-.047.188L1.578-.781c-.094.39-.125.469-.906.469-.172 0-.266 0-.266.203C.406 0 .531 0 .546 0c.282 0 .97-.031 1.25-.031.282 0 .985.031 1.267.031.078 0 .203 0 .203-.203 0-.11-.094-.11-.282-.11-.375 0-.656 0-.656-.171 0-.063.031-.11.031-.172l.657-2.64h1.187c.906 0 1.078.562 1.078.905 0 .157-.078.47-.14.688-.063.281-.157.656-.157.844C4.984.219 6.188.219 6.313.219c.843 0 1.187-1 1.187-1.14 0-.126-.11-.126-.11-.126-.093 0-.109.078-.14.14C7-.171 6.578 0 6.344 0c-.328 0-.39-.219-.39-.61 0-.312.062-.812.093-1.124.031-.141.047-.328.047-.47 0-.765-.672-1.077-.938-1.171m0 0"/><path id="e" d="M6.313-5.75c.093-.406.28-.703 1.078-.734.046 0 .156 0 .156-.188 0-.016 0-.11-.125-.11-.328 0-.672.032-1.016.032-.328 0-.703-.031-1.031-.031-.062 0-.172 0-.172.187 0 .11.094.11.172.11.563.015.672.218.672.437 0 .031-.016.188-.031.219l-.891 3.547C4.797-.953 3.641-.094 2.656-.094c-.672 0-1.219-.437-1.219-1.281 0-.031 0-.344.11-.781l.969-3.86c.093-.359.109-.468.828-.468.265 0 .344 0 .344-.188 0-.11-.11-.11-.141-.11-.281 0-1 .032-1.266.032-.297 0-1-.031-1.281-.031-.078 0-.187 0-.187.187 0 .11.078.11.265.11.031 0 .219 0 .375.03.188.016.281.032.281.157 0 .063-.109.469-.171.703l-.22.875c-.093.39-.562 2.266-.609 2.453-.062.282-.062.422-.062.579 0 1.203.89 1.906 1.937 1.906 1.25 0 2.485-1.125 2.813-2.438Zm0 0"/><path id="b" d="M2.328-4.422c0-.187-.015-.187-.203-.187-.453.437-1.078.437-1.36.437v.25c.157 0 .626 0 1-.187v3.547c0 .218 0 .312-.687.312H.812V0c.125 0 .97-.031 1.235-.031C2.266-.031 3.14 0 3.28 0v-.25h-.25c-.703 0-.703-.094-.703-.312Zm0 0"/><path id="d" d="M3.281 0v-.25h-.25c-.703 0-.703-.094-.703-.312v-3.86c0-.187-.015-.187-.203-.187-.453.437-1.078.437-1.36.437v.25c.157 0 .626 0 1-.187v3.547c0 .218 0 .312-.687.312H.812V0l1.235-.031Zm0 0"/><path id="f" d="M3.516-1.266H3.28c-.031.157-.094.563-.187.641-.063.031-.594.031-.688.031H1.125c.734-.64.969-.843 1.39-1.172.516-.406 1-.828 1-1.5 0-.843-.734-1.343-1.624-1.343-.875 0-1.453.593-1.453 1.234 0 .36.296.39.375.39.156 0 .359-.109.359-.359 0-.14-.047-.375-.406-.375.218-.5.687-.64 1.015-.64.688 0 1.063.53 1.063 1.093 0 .61-.438 1.094-.656 1.344L.5-.266C.438-.203.438-.187.438 0h2.859Zm0 0"/><path id="h" d="M4.531-1.828h-.234c-.078.687-.188 1.578-1.5 1.578h-.703c-.328 0-.328-.062-.328-.266v-3.656c0-.234 0-.328.656-.328h.234v-.25l-1.203.031L.391-4.75v.25h.172c.53 0 .546.078.546.313v3.625c0 .234-.015.312-.546.312H.39V0h3.922Zm0 0"/><path id="j" d="M5.063-1.266c0-.609-.61-1.125-1.454-1.218.672-.125 1.25-.547 1.25-1.078 0-.626-.734-1.188-1.703-1.188H.422v.25h.156c.547 0 .563.078.563.313v3.625c0 .234-.016.312-.563.312H.422V0h2.937c.985 0 1.704-.61 1.704-1.266m-.907-2.296c0 .484-.468 1-1.265 1H1.75v-1.672c0-.203 0-.266.328-.266H3.11c.688 0 1.047.5 1.047.938m.188 2.28c0 .516-.453 1.032-1.219 1.032H2.078c-.328 0-.328-.062-.328-.266v-1.859h1.469a1.1 1.1 0 0 1 1.125 1.094m0 0"/><clipPath id="g"><path d="M11 190h15v11.27H11Zm0 0"/></clipPath><clipPath id="i"><path d="M72 190h15v11.27H72Zm0 0"/></clipPath></defs><path fill="#FFF" stroke="#000" stroke-miterlimit="10" stroke-width=".39815811000000007" d="M19.992 15.148a1.584 1.584 0 0 0-3.168 0 1.584 1.584 0 0 0 3.168 0Zm0 0"/><path fill="none" stroke="#000" stroke-miterlimit="10" stroke-width=".39815811000000007" d="M19.992 15.148h28.883m0 0h30.469v29.86m-9.703-16.43v64.543m9.703-16.43v59.723M69.64 119.98v64.547m9.703-16.433v29.863H48.875m0 0H18.406"/><path stroke="#000" stroke-miterlimit="10" stroke-width=".39815811000000007" d="M47.14 15.148v1.98l4.212-1.98-4.211-1.98Zm0 0"/><use xlink:href="#a" x="44.46" y="10.148"/><use xlink:href="#b" x="48.83" y="11.638"/><path fill="none" stroke="#000" stroke-miterlimit="10" stroke-width=".7953183300000001" d="M73.402 76.691V45.008h11.88V76.69Zm0 0"/><path stroke="#000" stroke-miterlimit="10" stroke-width=".39815811000000007" d="M80.926 106.55a1.584 1.584 0 1 0-3.168.003 1.584 1.584 0 0 0 3.168-.002Zm0 0"/><use xlink:href="#c" x="87.484" y="62.995"/><use xlink:href="#d" x="95.032" y="64.485"/><path stroke="#000" stroke-miterlimit="10" stroke-width=".39815811000000007" d="M69.64 88.914h-1.98l1.98 4.207 1.981-4.207Zm0 0"/><use xlink:href="#e" x="56.208" y="63.504"/><use xlink:href="#d" x="62.996" y="64.994"/><path fill="none" stroke="#000" stroke-miterlimit="10" stroke-width=".7953183300000001" d="M73.402 168.094v-31.68h11.88v31.68Zm0 0"/><use xlink:href="#c" x="87.484" y="154.397"/><use xlink:href="#f" x="95.032" y="155.888"/><path stroke="#000" stroke-miterlimit="10" stroke-width=".39815811000000007" d="M69.64 180.32h-1.98l1.98 4.207 1.981-4.207Zm0 0"/><use xlink:href="#e" x="56.208" y="154.906"/><use xlink:href="#f" x="62.996" y="156.397"/><path stroke="#000" stroke-miterlimit="10" stroke-width=".39815811000000007" d="M79.344 181.293h-1.98l1.98 4.207 1.98-4.207Zm0 0"/><use xlink:href="#a" x="82.854" y="185.677"/><use xlink:href="#f" x="87.225" y="187.168"/><path fill="#FFF" d="M19.992 197.957a1.584 1.584 0 1 0-3.168-.004 1.584 1.584 0 0 0 3.168.004m0 0"/><g clip-path="url(#g)"><path fill="none" stroke="#000" stroke-miterlimit="10" stroke-width=".39815811000000007" d="M19.992 197.957a1.584 1.584 0 1 0-3.168-.004 1.584 1.584 0 0 0 3.168.004Zm0 0"/></g><path fill="none" stroke="#000" stroke-miterlimit="10" stroke-width=".39815811000000007" d="M79.344 106.55h30.468m0 0h30.465v29.864m0 31.68v29.863h-30.465m0 0H79.344"/><path fill="none" stroke="#000" stroke-miterlimit="10" stroke-width=".7953183300000001" d="M134.34 168.094v-31.68h11.879v31.68Zm0 0"/><use xlink:href="#c" x="148.419" y="154.397"/><use xlink:href="#h" x="155.967" y="155.888"/><path stroke="#000" stroke-miterlimit="10" stroke-width=".39815811000000007" d="M140.277 181.293h-1.98l1.98 4.207 1.98-4.207Zm0 0"/><use xlink:href="#a" x="143.789" y="185.677"/><use xlink:href="#h" x="148.16" y="187.168"/><path d="M80.926 197.957a1.584 1.584 0 1 0-3.168-.004 1.584 1.584 0 0 0 3.168.004m0 0"/><g clip-path="url(#i)"><path fill="none" stroke="#000" stroke-miterlimit="10" stroke-width=".39815811000000007" d="M80.926 197.957a1.584 1.584 0 1 0-3.168-.004 1.584 1.584 0 0 0 3.168.004Zm0 0"/></g><path fill="none" stroke="#000" stroke-miterlimit="10" stroke-width=".39815811000000007" d="M18.406 42.52v128.062"/><path stroke="#000" stroke-miterlimit="10" stroke-width=".39815811000000007" d="M18.406 166.375h-1.98l1.98 4.207 1.98-4.207Zm0 0"/><use xlink:href="#e" x="1.989" y="109.205"/><use xlink:href="#j" x="8.776" y="110.696"/></svg>