<svg xmlns="http://www.w3.org/2000/svg" xmlns:xlink="http://www.w3.org/1999/xlink" width="226.373" height="128.596"><defs><clipPath id="a"><path d="M53 119h16v9.191H53Zm0 0"/></clipPath><clipPath id="b"><path d="M153 119h16v9.191h-16Zm0 0"/></clipPath><clipPath id="c"><path d="M11 119h15v9.191H11Zm0 0"/></clipPath><clipPath id="d"><path d="M196 119h15v9.191h-15Zm0 0"/></clipPath><path id="e" d="M6.313-5.75c.093-.406.28-.703 1.078-.734.046 0 .156 0 .156-.188 0-.016 0-.11-.125-.11-.328 0-.672.032-1.016.032-.328 0-.703-.031-1.031-.031-.062 0-.172 0-.172.187 0 .11.094.11.172.11.563.015.672.218.672.437 0 .031-.016.188-.031.219l-.891 3.547C4.797-.953 3.641-.094 2.656-.094c-.672 0-1.219-.437-1.219-1.281 0-.031 0-.344.11-.781l.969-3.86c.093-.359.109-.468.828-.468.265 0 .344 0 .344-.188 0-.11-.11-.11-.141-.11-.281 0-1 .032-1.266.032-.297 0-1-.031-1.281-.031-.078 0-.187 0-.187.187 0 .11.078.11.265.11.031 0 .219 0 .375.03.188.016.281.032.281.157 0 .063-.109.469-.171.703l-.22.875c-.093.39-.562 2.266-.609 2.453-.062.282-.062.422-.062.579 0 1.203.89 1.906 1.937 1.906 1.25 0 2.485-1.125 2.813-2.438Zm0 0"/><path id="f" d="M5.063-1.828h-.235C4.641-.781 4.484-.25 3.203-.25h-1.11c-.327 0-.327-.062-.327-.266v-1.812h.703c.703 0 .812.203.812.812h.235V-3.39H3.28c0 .61-.11.813-.812.813h-.703v-1.625c0-.219 0-.266.328-.266H3.14c1.14 0 1.343.375 1.468 1.344h.235L4.64-4.719H.39v.25h.172c.53 0 .546.063.546.313v3.593c0 .235-.015.313-.546.313H.39V0H4.75Zm0 0"/><path id="g" d="M3.125-4.797c-.047-.11-.062-.156-.203-.156-.125 0-.14.047-.188.156L1.125-.734C1.063-.562.938-.25.313-.25V0c.234-.016.484-.031.718-.031.282 0 .797.031.828.031v-.25c-.296 0-.5-.14-.5-.328 0-.063.016-.078.032-.14l.343-.86h1.97l.405 1.016a.294.294 0 0 1 .032.125c0 .187-.375.187-.563.187V0c.344-.016.797-.031 1.031-.031.329 0 .86.031.938.031v-.25h-.14c-.47 0-.516-.062-.594-.266Zm-.406.703.89 2.266H1.83Zm0 0"/></defs><path fill="none" stroke="#000" stroke-miterlimit="10" stroke-width=".39775113" d="M18.215 12.266h21.402m0 0h42.418m7.91 0h30.16m31.649 0H182.3m0 0h21.402"/><path fill="#FFF" stroke="#000" stroke-miterlimit="10" stroke-width=".39775113" d="M19.797 12.266a1.583 1.583 0 1 0-3.166.001 1.583 1.583 0 0 0 3.166-.001Zm0 0"/><path stroke="#000" stroke-miterlimit="10" stroke-width=".39775113" d="M62.602 12.266a1.58 1.58 0 0 0-1.582-1.582 1.58 1.58 0 0 0-1.583 1.582 1.58 1.58 0 0 0 1.583 1.582 1.58 1.58 0 0 0 1.582-1.582Zm0 0"/><path fill="none" stroke="#000" stroke-miterlimit="10" stroke-width=".7945053900000001" d="M82.035.398v23.735M89.945.398v23.735"/><path fill="none" stroke="#000" stroke-linejoin="bevel" stroke-miterlimit="10" stroke-width=".7945053900000001" d="M119.707 12.426c0-3.278 1.816-5.934 4.055-5.934 2.242 0 4.054 2.656 4.054 5.934 0-3.278 1.817-5.934 4.059-5.934 2.238 0 4.055 2.656 4.055 5.934 0-3.278 1.816-5.934 4.054-5.934 2.239 0 4.055 2.656 4.055 5.934 0-3.278 1.816-5.934 4.055-5.934 2.242 0 4.058 2.656 4.058 5.934"/><path stroke="#000" stroke-miterlimit="10" stroke-width=".39775113" d="M162.48 12.266a1.58 1.58 0 0 0-1.582-1.582 1.58 1.58 0 0 0-1.582 1.582 1.58 1.58 0 0 0 1.582 1.582 1.58 1.58 0 0 0 1.582-1.582Zm0 0"/><path fill="#FFF" stroke="#000" stroke-miterlimit="10" stroke-width=".39775113" d="M205.285 12.266a1.583 1.583 0 1 0-3.162.002 1.583 1.583 0 0 0 3.162-.002Zm0 0"/><path fill="none" stroke="#000" stroke-miterlimit="10" stroke-width=".39775113" d="M61.02 12.266v14.27m0 0V40.8H50.316m0 0H39.617v12.715m0 31.648v12.711h10.7m0 0H61.02v14.27m0 0v14.269"/><path stroke="#000" stroke-miterlimit="10" stroke-width=".39775113" d="M62.602 40.8a1.583 1.583 0 1 0-3.166.003 1.583 1.583 0 0 0 3.166-.002Zm0 0"/><path fill="none" stroke="#000" stroke-linejoin="bevel" stroke-miterlimit="10" stroke-width=".7945053900000001" d="M39.777 53.117c-3.277 0-5.937 1.817-5.937 4.055 0 2.242 2.66 4.058 5.937 4.058-3.277 0-5.937 1.813-5.937 4.055 0 2.238 2.66 4.055 5.937 4.055-3.277 0-5.937 1.816-5.937 4.055 0 2.238 2.66 4.054 5.937 4.054-3.277 0-5.937 1.817-5.937 4.055 0 2.242 2.66 4.058 5.937 4.058"/><path stroke="#000" stroke-miterlimit="10" stroke-width=".39775113" d="M62.602 97.875a1.583 1.583 0 1 0-3.166.002 1.583 1.583 0 0 0 3.166-.002Zm0 0"/><path d="M62.602 126.414a1.58 1.58 0 0 0-1.582-1.582 1.58 1.58 0 0 0-1.583 1.582 1.58 1.58 0 0 0 1.583 1.582 1.58 1.58 0 0 0 1.582-1.582m0 0"/><g clip-path="url(#a)"><path fill="none" stroke="#000" stroke-miterlimit="10" stroke-width=".39775113" d="M62.602 126.414a1.58 1.58 0 0 0-1.582-1.582 1.58 1.58 0 0 0-1.583 1.582 1.58 1.58 0 0 0 1.583 1.582 1.58 1.58 0 0 0 1.582-1.582Zm0 0"/></g><path fill="none" stroke="#000" stroke-miterlimit="10" stroke-width=".39775113" d="M61.02 40.8h10.703m0 0h10.699v24.583m0 7.914v24.578h-10.7m0 0H61.02"/><path fill="none" stroke="#000" stroke-miterlimit="10" stroke-width=".7945053900000001" d="M94.289 65.383H70.555m23.734 7.914H70.555"/><path fill="none" stroke="#000" stroke-miterlimit="10" stroke-width=".39775113" d="M160.898 12.266v14.27m0 0V40.8H150.2m0 0h-10.703v12.715m0 31.648v12.711H150.2m0 0h10.7v14.27m0 0v14.269"/><path stroke="#000" stroke-miterlimit="10" stroke-width=".39775113" d="M162.48 40.8a1.583 1.583 0 1 0-3.165.003 1.583 1.583 0 0 0 3.165-.002Zm0 0"/><path fill="none" stroke="#000" stroke-linejoin="bevel" stroke-miterlimit="10" stroke-width=".7945053900000001" d="M139.656 53.117c-3.277 0-5.933 1.817-5.933 4.055 0 2.242 2.656 4.058 5.933 4.058-3.277 0-5.933 1.813-5.933 4.055 0 2.238 2.656 4.055 5.933 4.055-3.277 0-5.933 1.816-5.933 4.055 0 2.238 2.656 4.054 5.933 4.054-3.277 0-5.933 1.817-5.933 4.055 0 2.242 2.656 4.058 5.933 4.058"/><path stroke="#000" stroke-miterlimit="10" stroke-width=".39775113" d="M162.48 97.875a1.583 1.583 0 1 0-3.165.002 1.583 1.583 0 0 0 3.165-.002Zm0 0"/><path d="M162.48 126.414a1.58 1.58 0 0 0-1.582-1.582 1.58 1.58 0 0 0-1.582 1.582 1.58 1.58 0 0 0 1.582 1.582 1.58 1.58 0 0 0 1.582-1.582m0 0"/><g clip-path="url(#b)"><path fill="none" stroke="#000" stroke-miterlimit="10" stroke-width=".39775113" d="M162.48 126.414a1.58 1.58 0 0 0-1.582-1.582 1.58 1.58 0 0 0-1.582 1.582 1.58 1.58 0 0 0 1.582 1.582 1.58 1.58 0 0 0 1.582-1.582Zm0 0"/></g><path fill="none" stroke="#000" stroke-miterlimit="10" stroke-width=".39775113" d="M160.898 40.8h10.704m0 0H182.3v24.583m0 7.914v24.578h-10.7m0 0h-10.703"/><path fill="none" stroke="#000" stroke-miterlimit="10" stroke-width=".7945053900000001" d="M194.172 65.383h-23.738m23.738 7.914h-23.738"/><path fill="none" stroke="#000" stroke-miterlimit="10" stroke-width=".39775113" d="M61.02 126.414H39.617m0 0H18.215"/><path fill="#FFF" d="M19.797 126.414a1.583 1.583 0 1 0-3.166.002 1.583 1.583 0 0 0 3.166-.002m0 0"/><g clip-path="url(#c)"><path fill="none" stroke="#000" stroke-miterlimit="10" stroke-width=".39775113" d="M19.797 126.414a1.583 1.583 0 1 0-3.166.002 1.583 1.583 0 0 0 3.166-.002Zm0 0"/></g><path fill="none" stroke="#000" stroke-miterlimit="10" stroke-width=".39775113" d="M61.02 126.414h49.94m0 0h71.34m0 0h21.403"/><path fill="#FFF" d="M205.285 126.414a1.583 1.583 0 1 0-3.162.002 1.583 1.583 0 0 0 3.162-.002m0 0"/><g clip-path="url(#d)"><path fill="none" stroke="#000" stroke-miterlimit="10" stroke-width=".39775113" d="M205.285 126.414a1.583 1.583 0 1 0-3.162.002 1.583 1.583 0 0 0 3.162-.002Zm0 0"/></g><path fill="none" stroke="#000" stroke-miterlimit="10" stroke-width=".39775113" d="M18.215 29.34v80"/><path stroke="#000" stroke-miterlimit="10" stroke-width=".39775113" d="M18.215 105.137h-1.98l1.98 4.203 1.976-4.203Zm0 0"/><use xlink:href="#e" x="2.029" y="71.988"/><use xlink:href="#f" x="8.809" y="73.477"/><path fill="none" stroke="#000" stroke-miterlimit="10" stroke-width=".39775113" d="M203.703 29.34v80"/><path stroke="#000" stroke-miterlimit="10" stroke-width=".39775113" d="M203.703 105.137h-1.976l1.976 4.203 1.98-4.203Zm0 0"/><use xlink:href="#e" x="207.272" y="71.988"/><use xlink:href="#g" x="214.054" y="73.477"/></svg>