<svg xmlns="http://www.w3.org/2000/svg" xmlns:xlink="http://www.w3.org/1999/xlink" width="228.962" height="101.2"><defs><path id="b" d="M3.625-3.953h.86c.187 0 .296 0 .296-.203 0-.11-.11-.11-.265-.11h-.828L3.89-5.39c.046-.203.187-.906.25-1.03.078-.188.25-.329.453-.329.047 0 .297 0 .484.172a.563.563 0 0 0-.531.531c0 .234.187.344.375.344.25 0 .531-.219.531-.594 0-.453-.453-.672-.86-.672-.327 0-.952.172-1.25 1.157-.062.203-.093.296-.327 1.546h-.688c-.187 0-.297 0-.297.188 0 .125.094.125.281.125h.657l-.75 3.906c-.172.953-.344 1.86-.86 1.86-.03 0-.28 0-.468-.188a.527.527 0 0 0 .547-.531c0-.219-.188-.344-.375-.344-.25 0-.532.219-.532.594 0 .453.422.687.828.687.547 0 .938-.594 1.125-.969.313-.624.547-1.812.547-1.89Zm0 0"/><path id="d" d="M7.125-6.516c0-.046.031-.093.031-.156 0-.078-.062-.078-.25-.078H2.734c-.234 0-.25 0-.312.188l-.547 1.78a.793.793 0 0 0-.031.141c0 .016 0 .11.125.11.093 0 .11-.063.125-.094.375-1.172.89-1.828 2.437-1.828h1.61L.609-.266c0 .016-.03.141-.03.172C.578 0 .64 0 .828 0h4.296c.234 0 .25-.016.313-.203l.687-2.188a.497.497 0 0 0 .047-.14c0-.047-.047-.11-.125-.11-.094 0-.11.047-.172.25-.437 1.344-.906 2.047-2.594 2.047H1.594Zm0 0"/><path id="c" d="M1.297-7.469h-.39c-.016 0-.032 0-.032.016v9.86H1.312v-9.86c0-.016 0-.016-.015-.016m0 0"/><clipPath id="a"><path d="M.879 43H10v15H.879Zm0 0"/></clipPath></defs><path fill="none" stroke="#000" stroke-miterlimit="10" stroke-width=".39587184000000003" d="M2.652 50.75h11.36m0 0h11.36V39.39m0 0V28.028h10m25.448 0h9.996v11.364m0 0V50.75h21.36m25.449 0h21.36"/><path fill="#FFF" d="M4.227 50.75a1.575 1.575 0 1 0-3.148 0 1.575 1.575 0 0 0 3.148 0m0 0"/><g clip-path="url(#a)"><path fill="none" stroke="#000" stroke-miterlimit="10" stroke-width=".39587184000000003" d="M4.227 50.75a1.575 1.575 0 1 0-3.148 0 1.575 1.575 0 0 0 3.148 0Zm0 0"/></g><path stroke="#000" stroke-miterlimit="10" stroke-width=".39587184000000003" d="M26.95 50.75a1.577 1.577 0 0 0-3.152 0 1.575 1.575 0 0 0 3.152 0Zm0 0"/><path fill="none" stroke="#000" stroke-linejoin="bevel" stroke-miterlimit="10" stroke-width=".79075152" d="M34.977 28.187c0-2.636 1.468-4.773 3.277-4.773 1.812 0 3.281 2.137 3.281 4.773 0-2.636 1.469-4.773 3.281-4.773 1.809 0 3.278 2.137 3.278 4.773 0-2.636 1.469-4.773 3.281-4.773 1.813 0 3.281 2.137 3.281 4.773 0-2.636 1.469-4.773 3.278-4.773 1.812 0 3.28 2.137 3.28 4.773"/><path stroke="#000" stroke-miterlimit="10" stroke-width=".39587184000000003" d="M72.39 50.75a1.575 1.575 0 1 0-3.149 0 1.575 1.575 0 0 0 3.15 0Zm0 0"/><path fill="none" stroke="#000" stroke-miterlimit="10" stroke-width=".79075152" d="M92.176 45.98h25.449v9.543h-25.45Zm0 0"/><path fill="#FFF" stroke="#000" stroke-miterlimit="10" stroke-width=".39587184000000003" d="M140.559 50.75a1.577 1.577 0 0 0-3.153 0 1.575 1.575 0 0 0 3.153 0Zm0 0"/><path fill="none" stroke="#000" stroke-miterlimit="10" stroke-width=".39587184000000003" d="M25.371 50.75v11.363m0 0v11.36h19.543m6.363 0h19.54v-11.36m0 0V50.75"/><path fill="none" stroke="#000" stroke-miterlimit="10" stroke-width=".79075152" d="M44.914 63.93v19.086m6.363-19.086v19.086"/><path stroke="#000" stroke-miterlimit="10" stroke-width=".39587184000000003" d="M72.39 50.75a1.575 1.575 0 1 0-3.149 0 1.575 1.575 0 0 0 3.15 0Zm0 0"/><path fill="none" stroke="#000" stroke-miterlimit="10" stroke-width=".39587184000000003" d="M150.344 84.832h64.722"/><path stroke="#000" stroke-miterlimit="10" stroke-width=".39587184000000003" d="m218.113 84.832-2.949-1.746v3.496Zm0 0"/><path fill="none" stroke="#000" stroke-miterlimit="10" stroke-width=".39587184000000003" d="M150.344 84.832V20.113"/><path stroke="#000" stroke-miterlimit="10" stroke-width=".39587184000000003" d="m150.344 17.062-1.75 2.954h3.5Zm0 0"/><use xlink:href="#b" x="215.556" y="95.19"/><use xlink:href="#c" x="144.419" y="10.761"/><use xlink:href="#d" x="146.615" y="10.761"/><use xlink:href="#c" x="154.07" y="10.761"/><path fill="none" stroke="#000" stroke-miterlimit="10" stroke-width=".79075152" d="m168.523 28.027 8.32 29.727c4.188 14.957 10.977 14.957 15.165 0l8.324-29.727"/></svg>