<svg xmlns="http://www.w3.org/2000/svg" xmlns:xlink="http://www.w3.org/1999/xlink" width="216.868" height="114.077"><defs><clipPath id="a"><path d="M134 104h15v9.16h-15Zm0 0"/></clipPath><clipPath id="b"><path d="M11 104h16v9.16H11Zm0 0"/></clipPath><clipPath id="c"><path d="M186 104h16v9.16h-16Zm0 0"/></clipPath><path id="d" d="M6.266-5.703c.109-.406.28-.703 1.078-.734.047 0 .156-.016.156-.204 0 0 0-.109-.125-.109-.328 0-.672.031-1 .031-.344 0-.703-.031-1.031-.031-.063 0-.172 0-.172.203 0 .11.094.11.172.11.562.015.672.218.672.437a.914.914 0 0 1-.032.203l-.89 3.531C4.766-.953 3.625-.094 2.64-.094c-.672 0-1.203-.422-1.203-1.281 0-.016 0-.328.109-.766L2.5-5.984c.094-.36.11-.453.828-.453.25 0 .328 0 .328-.204 0-.109-.094-.109-.125-.109-.281 0-1 .031-1.265.031-.297 0-.985-.031-1.282-.031-.078 0-.187 0-.187.203 0 .11.094.11.281.11.016 0 .203 0 .375.015.172.016.266.031.266.156 0 .063-.11.485-.172.704l-.219.875C1.25-4.312.766-2.437.734-2.25c-.078.281-.078.422-.078.578 0 1.203.907 1.89 1.938 1.89 1.25 0 2.469-1.124 2.797-2.421Zm0 0"/><path id="e" d="M5.031-1.828h-.234C4.625-.781 4.469-.25 3.187-.25H2.095c-.328 0-.328-.047-.328-.266v-1.796h.687c.703 0 .813.203.813.796H3.5v-1.859h-.234c0 .594-.11.813-.813.813h-.687v-1.626c0-.203 0-.265.328-.265h1.031c1.14 0 1.344.375 1.469 1.344h.234L4.61-4.703H.391v.25h.156c.547 0 .547.078.547.312v3.579c0 .234 0 .312-.547.312H.39V0h4.343Zm0 0"/><path id="f" d="M3.11-4.781c-.047-.11-.063-.157-.188-.157-.14 0-.156.047-.203.157L1.125-.734C1.047-.547.938-.25.313-.25V0c.234-.016.484-.031.718-.031.266 0 .782.031.828.031v-.25c-.312 0-.5-.14-.5-.328 0-.063 0-.078.032-.14l.328-.86h1.969l.406 1.016a.294.294 0 0 1 .031.125c0 .187-.375.187-.562.187V0c.343-.016.796-.031 1.03-.031.329 0 .845.031.923.031v-.25h-.141c-.453 0-.516-.062-.578-.266Zm-.407.718.89 2.235H1.829Zm0 0"/></defs><path fill="none" stroke="#000" stroke-miterlimit="10" stroke-width=".39579603" d="M18.887 111.39H80.19m0 0h87.575m0 0h26.273"/><path d="M143.066 111.39a1.575 1.575 0 1 0-3.148 0 1.575 1.575 0 0 0 3.148 0m0 0"/><g clip-path="url(#a)"><path fill="none" stroke="#000" stroke-miterlimit="10" stroke-width=".39579603" d="M143.066 111.39a1.575 1.575 0 1 0-3.148 0 1.575 1.575 0 0 0 3.148 0Zm0 0"/></g><path fill="none" stroke="#000" stroke-miterlimit="10" stroke-width=".39579603" d="M18.887 6.3h36.8m31.493 0h45.554m0 0h35.032m0 0h26.273"/><path fill="none" stroke="#000" stroke-miterlimit="10" stroke-width=".7906000900000001" d="M55.688.395H87.18v11.808H55.688Zm0 0"/><path stroke="#000" stroke-miterlimit="10" stroke-width=".39579603" d="M143.066 6.3c0-.87-.703-1.577-1.574-1.577a1.577 1.577 0 0 0 0 3.152c.871 0 1.574-.707 1.574-1.574Zm0 0"/><path fill="none" stroke="#000" stroke-miterlimit="10" stroke-width=".39579603" d="M141.492 109.816V62.781m0-7.875V7.875"/><path fill="none" stroke="#000" stroke-miterlimit="10" stroke-width=".7906000900000001" d="M129.684 62.781h23.62m-23.62-7.875h23.62"/><path fill="#FFF" stroke="#000" stroke-miterlimit="10" stroke-width=".39579603" d="M20.46 6.3c0-.87-.702-1.577-1.573-1.577a1.577 1.577 0 0 0 0 3.152c.87 0 1.574-.707 1.574-1.574Zm0 0"/><path fill="#FFF" d="M20.46 111.39a1.575 1.575 0 1 0-3.148 0 1.575 1.575 0 0 0 3.149 0m0 0"/><g clip-path="url(#b)"><path fill="none" stroke="#000" stroke-miterlimit="10" stroke-width=".39579603" d="M20.46 111.39a1.575 1.575 0 1 0-3.148 0 1.575 1.575 0 0 0 3.149 0Zm0 0"/></g><path fill="#FFF" stroke="#000" stroke-miterlimit="10" stroke-width=".39579603" d="M195.613 6.3a1.575 1.575 0 1 0-3.15-.005 1.575 1.575 0 0 0 3.15.006Zm0 0"/><path fill="#FFF" d="M195.613 111.39c0-.87-.703-1.574-1.574-1.574a1.575 1.575 0 1 0 1.574 1.574m0 0"/><g clip-path="url(#c)"><path fill="none" stroke="#000" stroke-miterlimit="10" stroke-width=".39579603" d="M195.613 111.39c0-.87-.703-1.574-1.574-1.574a1.575 1.575 0 1 0 1.574 1.574Zm0 0"/></g><path fill="none" stroke="#000" stroke-miterlimit="10" stroke-width=".39579603" d="M18.887 22.012v73.664"/><path stroke="#000" stroke-miterlimit="10" stroke-width=".39579603" d="M18.887 91.492h-1.969l1.969 4.184 1.968-4.184Zm0 0"/><use xlink:href="#d" x="2.782" y="61.481"/><use xlink:href="#e" x="9.529" y="62.963"/><path fill="none" stroke="#000" stroke-miterlimit="10" stroke-width=".39579603" d="M194.04 22.012v73.664"/><path stroke="#000" stroke-miterlimit="10" stroke-width=".39579603" d="M194.04 91.492h-1.97l1.97 4.184 1.968-4.184Zm0 0"/><use xlink:href="#d" x="197.59" y="61.481"/><use xlink:href="#f" x="204.337" y="62.963"/></svg>