<svg xmlns="http://www.w3.org/2000/svg" xmlns:xlink="http://www.w3.org/1999/xlink" width="216.868" height="120.03"><defs><clipPath id="a"><path d="M134 110h15v9.066h-15Zm0 0"/></clipPath><clipPath id="b"><path d="M11 110h16v9.066H11Zm0 0"/></clipPath><clipPath id="c"><path d="M186 110h16v9.066h-16Zm0 0"/></clipPath><path id="d" d="M6.266-5.703c.109-.406.28-.703 1.078-.734.047 0 .156-.016.156-.204 0 0 0-.109-.125-.109-.328 0-.672.031-1 .031-.344 0-.703-.031-1.031-.031-.063 0-.172 0-.172.203 0 .11.094.11.172.11.562.015.672.218.672.437a.914.914 0 0 1-.032.203l-.89 3.531C4.766-.953 3.625-.094 2.64-.094c-.672 0-1.203-.422-1.203-1.281 0-.016 0-.328.109-.766L2.5-5.984c.094-.36.11-.453.828-.453.25 0 .328 0 .328-.204 0-.109-.094-.109-.125-.109-.281 0-1 .031-1.265.031-.297 0-.985-.031-1.282-.031-.078 0-.187 0-.187.203 0 .11.094.11.281.11.016 0 .203 0 .375.015.172.016.266.031.266.156 0 .063-.11.485-.172.704l-.219.875C1.25-4.312.766-2.437.734-2.25c-.078.281-.078.422-.078.578 0 1.203.907 1.89 1.938 1.89 1.25 0 2.469-1.124 2.797-2.421Zm0 0"/><path id="e" d="M5.031-1.828h-.234C4.625-.781 4.469-.25 3.187-.25H2.095c-.328 0-.328-.047-.328-.266v-1.796h.687c.703 0 .813.203.813.796H3.5v-1.859h-.234c0 .594-.11.813-.813.813h-.687v-1.626c0-.203 0-.265.328-.265h1.031c1.14 0 1.344.375 1.469 1.344h.234L4.61-4.703H.391v.25h.156c.547 0 .547.078.547.312v3.579c0 .234 0 .312-.547.312H.39V0h4.343Zm0 0"/><path id="f" d="M3.11-4.781c-.047-.11-.063-.157-.188-.157-.14 0-.156.047-.203.157L1.125-.734C1.047-.547.938-.25.313-.25V0c.234-.016.484-.031.718-.031.266 0 .782.031.828.031v-.25c-.312 0-.5-.14-.5-.328 0-.063 0-.078.032-.14l.328-.86h1.969l.406 1.016a.294.294 0 0 1 .031.125c0 .187-.375.187-.562.187V0c.343-.016.796-.031 1.03-.031.329 0 .845.031.923.031v-.25h-.141c-.453 0-.516-.062-.578-.266Zm-.407.718.89 2.235H1.829Zm0 0"/></defs><path fill="none" stroke="#000" stroke-miterlimit="10" stroke-width=".39580002000000003" d="M18.887 117.297H80.19m0 0h87.575m0 0h26.273"/><path d="M143.066 117.297a1.575 1.575 0 1 0-3.148 0 1.575 1.575 0 0 0 3.148 0m0 0"/><g clip-path="url(#a)"><path fill="none" stroke="#000" stroke-miterlimit="10" stroke-width=".39580002000000003" d="M143.066 117.297a1.575 1.575 0 1 0-3.148 0 1.575 1.575 0 0 0 3.148 0Zm0 0"/></g><path fill="none" stroke="#000" stroke-miterlimit="10" stroke-width=".39580002000000003" d="M18.887 12.203h48.61m7.874 0h57.363m0 0h35.032m0 0h26.273"/><path fill="none" stroke="#000" stroke-miterlimit="10" stroke-width=".7906080600000001" d="M67.496.395v23.62M75.371.396v23.62"/><path stroke="#000" stroke-miterlimit="10" stroke-width=".39580002000000003" d="M143.066 12.203a1.575 1.575 0 1 0-3.149 0 1.575 1.575 0 0 0 3.15 0Zm0 0"/><path fill="none" stroke="#000" stroke-miterlimit="10" stroke-width=".39580002000000003" d="M141.492 115.723V80.496m0-31.492V13.777"/><path fill="none" stroke="#000" stroke-miterlimit="10" stroke-width=".7906080600000001" d="M147.398 49.004v31.492H135.59V49.004Zm0 0"/><path fill="#FFF" stroke="#000" stroke-miterlimit="10" stroke-width=".39580002000000003" d="M20.46 12.203a1.575 1.575 0 1 0-3.148 0 1.575 1.575 0 0 0 3.149 0Zm0 0"/><path fill="#FFF" d="M20.46 117.297c0-.871-.702-1.574-1.573-1.574s-1.575.703-1.575 1.574a1.575 1.575 0 0 0 3.149 0m0 0"/><g clip-path="url(#b)"><path fill="none" stroke="#000" stroke-miterlimit="10" stroke-width=".39580002000000003" d="M20.46 117.297c0-.871-.702-1.574-1.573-1.574s-1.574.703-1.574 1.574a1.575 1.575 0 0 0 3.148 0Zm0 0"/></g><path fill="#FFF" stroke="#000" stroke-miterlimit="10" stroke-width=".39580002000000003" d="M195.613 12.203a1.575 1.575 0 1 0-3.149 0 1.575 1.575 0 0 0 3.15 0Zm0 0"/><path fill="#FFF" d="M195.613 117.297a1.575 1.575 0 1 0-3.148 0 1.575 1.575 0 0 0 3.148 0m0 0"/><g clip-path="url(#c)"><path fill="none" stroke="#000" stroke-miterlimit="10" stroke-width=".39580002000000003" d="M195.613 117.297a1.575 1.575 0 1 0-3.148 0 1.575 1.575 0 0 0 3.148 0Zm0 0"/></g><path fill="none" stroke="#000" stroke-miterlimit="10" stroke-width=".39580002000000003" d="M18.887 27.918v73.664"/><path stroke="#000" stroke-miterlimit="10" stroke-width=".39580002000000003" d="M18.887 97.398h-1.969l1.969 4.184 1.968-4.184Zm0 0"/><use xlink:href="#d" x="2.781" y="67.386"/><use xlink:href="#e" x="9.528" y="68.868"/><path fill="none" stroke="#000" stroke-miterlimit="10" stroke-width=".39580002000000003" d="M194.039 27.918v73.664"/><path stroke="#000" stroke-miterlimit="10" stroke-width=".39580002000000003" d="M194.039 97.398h-1.969l1.969 4.184 1.969-4.184Zm0 0"/><use xlink:href="#d" x="197.59" y="67.386"/><use xlink:href="#f" x="204.338" y="68.868"/></svg>