<svg xmlns="http://www.w3.org/2000/svg" width="224.832" height="24.608"><defs><clipPath id="a"><path d="M177 0h10v24.223h-10Zm0 0"/></clipPath><clipPath id="b"><path d="M1.68 10H5v4H1.68Zm0 0"/></clipPath><clipPath id="c"><path d="M1.68 5H11v15H1.68Zm0 0"/></clipPath><clipPath id="d"><path d="M210 5h12.988v15H210Zm0 0"/></clipPath></defs><path fill="none" stroke="#000" stroke-miterlimit="10" stroke-width=".39274368" d="M3.438 12.11h20.128m31.25 0h40.262m31.25 0h51.977m7.812 0h31.848"/><path fill="none" stroke="#000" stroke-miterlimit="10" stroke-width=".78450304" d="M23.566 6.25h31.25v11.719h-31.25Zm0 0"/><path fill="none" stroke="#000" stroke-linejoin="bevel" stroke-miterlimit="10" stroke-width=".78450304" d="M94.684 12.27c0-3.239 1.793-5.86 4.004-5.86 2.21 0 4.003 2.621 4.003 5.86 0-3.239 1.793-5.86 4.004-5.86 2.215 0 4.008 2.621 4.008 5.86 0-3.239 1.793-5.86 4.004-5.86 2.211 0 4.004 2.621 4.004 5.86 0-3.239 1.793-5.86 4.004-5.86 2.21 0 4.004 2.621 4.004 5.86"/><g clip-path="url(#a)"><path fill="none" stroke="#000" stroke-miterlimit="10" stroke-width=".78450304" d="M178.305.39v23.442M186.117.391v23.441"/></g><g clip-path="url(#b)"><path fill="#FFF" d="M5 12.11c0-.86-.7-1.563-1.562-1.563A1.562 1.562 0 1 0 5 12.11m0 0"/></g><g clip-path="url(#c)"><path fill="none" stroke="#000" stroke-miterlimit="10" stroke-width=".39274368" d="M5 12.11c0-.86-.7-1.563-1.562-1.563A1.562 1.562 0 1 0 5 12.11Zm0 0"/></g><path fill="#FFF" d="M219.527 12.11c0-.86-.699-1.563-1.562-1.563a1.562 1.562 0 1 0 1.563 1.563m0 0"/><g clip-path="url(#d)"><path fill="none" stroke="#000" stroke-miterlimit="10" stroke-width=".39274368" d="M219.527 12.11c0-.86-.699-1.563-1.562-1.563a1.562 1.562 0 1 0 1.563 1.563Zm0 0"/></g></svg>