<svg xmlns="http://www.w3.org/2000/svg" xmlns:xlink="http://www.w3.org/1999/xlink" width="223.917" height="176.844"><defs><path id="a" d="M2.234-6.016c0-.359.032-.468.829-.468h.25v-.313c-.344.031-1.126.031-1.516.031-.39 0-1.172 0-1.516-.03v.312h.25c.797 0 .828.109.828.468V-.78c0 .36-.03.469-.828.469h-.25V0c.344-.031 1.125-.031 1.516-.031.39 0 1.172 0 1.516.031v-.312h-.25c-.797 0-.829-.11-.829-.47Zm0 0"/><path id="b" d="M.563-3.406C.563-1.344 2.172.219 4.015.219c1.625 0 2.609-1.39 2.609-2.531 0-.11 0-.172-.14-.172-.11 0-.11.062-.11.156C6.297-.906 5.219-.094 4.141-.094c-.61 0-2.563-.328-2.563-3.297 0-2.984 1.938-3.312 2.547-3.312 1.094 0 1.969.906 2.172 2.36.016.14.016.155.156.155.172 0 .172-.015.172-.234v-2.36c0-.171 0-.234-.11-.234-.046 0-.093 0-.171.125l-.485.735c-.375-.36-.89-.86-1.843-.86-1.86 0-3.453 1.579-3.453 3.61m0 0"/><path id="e" d="M2.313-6.672c-.094-.11-.11-.125-.297-.125H.328v.313H.61c.157 0 .36 0 .5.015.235.032.25.047.25.235v5.187c0 .266 0 .734-1.03.734V0c.343-.016.843-.031 1.171-.031.328 0 .813.015 1.156.031v-.312c-1.031 0-1.031-.47-1.031-.735v-5.172c.063.047.063.063.11.125L5.796-.125c.078.11.094.125.172.125.125 0 .125-.062.125-.266V-5.75c0-.266 0-.734 1.031-.734v-.313c-.344.016-.828.031-1.156.031-.328 0-.828-.015-1.172-.03v.312c1.031 0 1.031.468 1.031.734v4.25Zm0 0"/><path id="f" d="M5.797-6.766H.328v.313h.235c.765 0 .796.11.796.469v5.203c0 .36-.03.469-.796.469H.328V0c.344-.031 1.125-.031 1.516-.031.406 0 1.312 0 1.672.031v-.312h-.328c-.954 0-.954-.125-.954-.47v-2.452h.86c.953 0 1.062.312 1.062 1.172h.25v-2.641h-.25c0 .828-.11 1.156-1.062 1.156h-.86v-2.515c0-.329.032-.391.5-.391h1.188c1.5 0 1.734.547 1.906 1.922h.25Zm0 0"/><path id="l" d="M6.188-5.828c.125-.36.406-.656 1.078-.656v-.313c-.313.016-.703.031-.97.031-.296 0-.874-.015-1.124-.03v.312c.516 0 .719.265.719.5 0 .078-.032.125-.047.187L4.016-1 2.125-6.016c-.062-.14-.062-.171-.062-.187 0-.281.562-.281.812-.281v-.313c-.36.031-1.047.031-1.422.031-.484 0-.906-.015-1.265-.03v.312c.656 0 .843 0 .984.375L3.469 0c.078.188.125.219.25.219.172 0 .187-.047.25-.188Zm0 0"/><path id="z" d="M3.969-6.922c-.063-.14-.078-.203-.235-.203-.156 0-.187.063-.234.203L1.438-.969c-.188.5-.579.657-1.125.657V0c.234-.016.656-.031 1.015-.031.313 0 .828.015 1.156.031v-.312c-.5 0-.75-.25-.75-.5 0-.032 0-.141.016-.157l.453-1.297h2.469L5.203-.75c0 .047.016.11.016.14 0 .298-.547.298-.813.298V0c.344-.031 1.047-.031 1.422-.031.438 0 .89.015 1.313.031v-.312h-.188c-.594 0-.734-.063-.844-.391Zm-.531 1.11 1.124 3.234h-2.25Zm0 0"/><path id="A" d="M3.89-.781v.89L5.329 0v-.312c-.703 0-.781-.063-.781-.547v-3.547l-1.469.11v.312c.703 0 .781.078.781.562v1.766c0 .875-.468 1.547-1.203 1.547-.828 0-.875-.47-.875-.985v-3.312l-1.468.11v.312c.78 0 .78.03.78.922v1.484c0 .781 0 1.687 1.516 1.687.563 0 1-.28 1.282-.89m0 0"/><path id="B" d="M3.781-.547V.11L5.25 0v-.312c-.703 0-.781-.063-.781-.547v-6.047l-1.438.11v.312c.703 0 .781.062.781.547v2.156c-.296-.36-.718-.625-1.25-.625-1.171 0-2.218.984-2.218 2.265 0 1.266.969 2.25 2.11 2.25.624 0 1.077-.343 1.327-.656m0-2.672v2.047c0 .172 0 .203-.11.36-.296.484-.75.703-1.171.703-.453 0-.812-.266-1.047-.641-.266-.406-.281-.969-.281-1.375 0-.375.016-.969.297-1.422.218-.312.593-.64 1.125-.64.36 0 .765.156 1.078.609.11.172.11.187.11.36m0 0"/><path id="C" d="m1.766-4.406-1.391.11v.312c.64 0 .734.062.734.547V-.75c0 .438-.109.438-.78.438V0c.312-.016.859-.031 1.093-.031.344 0 .703.015 1.031.031v-.312c-.656 0-.687-.047-.687-.438Zm.03-1.719a.514.514 0 0 0-.515-.531.537.537 0 0 0-.531.531c0 .266.219.516.531.516a.51.51 0 0 0 .516-.516m0 0"/><path id="D" d="M4.688-2.125c0-1.281-1-2.328-2.204-2.328C1.25-4.453.281-3.375.281-2.125A2.217 2.217 0 0 0 2.484.109a2.208 2.208 0 0 0 2.204-2.234M2.484-.141c-.421 0-.859-.203-1.125-.671-.25-.438-.25-1.032-.25-1.391 0-.39 0-.938.235-1.375a1.33 1.33 0 0 1 1.14-.656c.438 0 .86.218 1.125.64.25.422.25 1 .25 1.39 0 .36 0 .892-.218 1.329a1.273 1.273 0 0 1-1.157.734m0 0"/><path id="E" d="M4.14-3.312c.094-.235.266-.657.923-.672v-.313c-.235.031-.532.031-.75.031-.235 0-.704-.015-.875-.03v.312c.374.015.484.234.484.437a.525.525 0 0 1-.063.235L2.844-.783l-1.11-2.765c-.062-.14-.062-.156-.062-.172 0-.265.39-.265.562-.265v-.313c-.296.016-.843.031-1.078.031-.265 0-.672 0-.968-.03v.312c.625 0 .671.062.796.375L2.422-.08c.062.142.078.188.203.188s.172-.093.219-.187Zm0 0"/><path id="F" d="M1.11-2.516c.062-1.468.906-1.718 1.234-1.718 1.031 0 1.125 1.343 1.125 1.718Zm0 .22h2.765c.219 0 .25 0 .25-.22 0-.984-.531-1.937-1.781-1.937C1.188-4.453.28-3.437.28-2.187.281-.86 1.328.108 2.47.108 3.688.11 4.125-1 4.125-1.187c0-.094-.078-.11-.125-.11-.094 0-.11.047-.125.125C3.515-.14 2.625-.14 2.531-.14c-.5 0-.906-.296-1.125-.671-.297-.47-.297-1.125-.297-1.485m0 0"/><path id="G" d="M1.656-3.297v-1.11l-1.375.11v.313c.688 0 .782.078.782.562V-.75c0 .438-.11.438-.782.438V0c.39-.016.86-.031 1.125-.031.407 0 .875 0 1.266.031v-.312h-.203c-.735 0-.75-.11-.75-.47v-1.53c0-.985.406-1.876 1.172-1.876.062 0 .078 0 .109.016a.433.433 0 0 0-.234.39c0 .282.203.423.422.423.187 0 .437-.11.437-.438 0-.312-.312-.61-.734-.61-.735 0-1.094.673-1.235 1.11m0 0"/><path id="H" d="M2.063-1.937c.234.046 1.046.203 1.046.921 0 .516-.359.907-1.125.907-.843 0-1.203-.563-1.39-1.407-.031-.14-.031-.171-.14-.171-.126 0-.126.062-.126.25v1.312c0 .172 0 .234.11.234C.484.11.5.094.688-.094.703-.109.703-.125.89-.312a1.51 1.51 0 0 0 1.093.421c1.141 0 1.594-.671 1.594-1.39 0-.516-.297-.813-.406-.938-.328-.312-.719-.406-1.14-.484-.563-.11-1.22-.235-1.22-.813 0-.343.25-.75 1.11-.75 1.094 0 1.14.891 1.156 1.204.016.093.11.093.125.093.125 0 .125-.062.125-.25v-1c0-.172 0-.234-.11-.234-.046 0-.062 0-.187.11a.779.779 0 0 1-.172.155c-.375-.265-.796-.265-.937-.265-1.219 0-1.594.656-1.594 1.219 0 .343.156.625.422.843.328.266.61.329 1.313.454m0 0"/><path id="I" d="M1.719-3.984H3.14v-.313H1.719v-1.828h-.25c0 .813-.297 1.89-1.281 1.922v.219h.843v2.75c0 1.218.922 1.343 1.282 1.343.718 0 .984-.703.984-1.343v-.563h-.235v.547c0 .734-.312 1.11-.671 1.11-.672 0-.672-.907-.672-1.079Zm0 0"/><path id="J" d="M1.063-.75c0 .438-.11.438-.782.438V0c.328-.016.797-.031 1.078-.031.297 0 .704.015 1.094.031v-.312c-.656 0-.765 0-.765-.438v-1.031l.625-.547C3.078-1.281 3.5-.718 3.5-.531c0 .187-.172.219-.36.219V0c.282-.016.876-.031 1.079-.031.297 0 .578.015.875.031v-.312c-.375 0-.594 0-.969-.532L2.859-2.625c-.015-.016-.062-.078-.062-.11 0-.03.703-.624.812-.703.625-.515 1.032-.53 1.25-.546v-.313c-.296.031-.421.031-.703.031-.36 0-.968-.015-1.11-.03v.312c.188.015.282.125.282.25 0 .203-.14.328-.219.39L1.72-2.125v-4.781l-1.438.11v.312c.688 0 .782.062.782.547Zm0 0"/><path id="c" d="M2.328-4.437c0-.188 0-.188-.203-.188-.453.438-1.078.438-1.36.438v.25c.157 0 .626 0 1-.188v3.547c0 .234 0 .328-.687.328H.812V0c.125 0 .985-.031 1.235-.031.219 0 1.094.031 1.25.031v-.25H3.03c-.703 0-.703-.094-.703-.328Zm0 0"/><path id="g" d="M1.766-4.187c0-.235 0-.329.578-.329h.172v-.25c-.047 0-.797.032-1.078.032-.282 0-1.047-.032-1.079-.032v.25h.172c.578 0 .578.094.578.329v3.609c0 .25 0 .328-.578.328H.36V0c.047 0 .797-.031 1.079-.031.28 0 1.046.031 1.078.031v-.25h-.172c-.578 0-.578-.078-.578-.328Zm0 0"/><path id="h" d="M1.813-4.656c-.079-.094-.079-.11-.22-.11H.392v.25h.203c.312 0 .484.047.515.047V-.75c0 .188 0 .5-.718.5V0c.28-.016.562-.031.843-.031.297 0 .579.015.86.031v-.25c-.719 0-.719-.312-.719-.5v-3.516L4.469-.109C4.53 0 4.547 0 4.625 0c.14 0 .14-.062.14-.187V-4c0-.187 0-.516.72-.516v-.25c-.298.032-.579.032-.86.032s-.562 0-.844-.032v.25c.719 0 .719.329.719.516v2.953Zm0 0"/><path id="m" d="M2.64-2.922c0-.125 0-.187-.093-.187-.031 0-.047 0-.14.078-.016.015-.079.078-.126.11-.219-.142-.469-.188-.734-.188-1 0-1.234.53-1.234.875 0 .218.093.406.265.547.266.218.531.265.969.343.344.063.906.157.906.625 0 .266-.187.594-.86.594-.671 0-.905-.437-1.03-.906C.53-1.125.53-1.156.438-1.156c-.125 0-.125.047-.125.187v.86c0 .109 0 .172.093.172C.47.063.61-.078.75-.234c.297.297.672.297.844.297.906 0 1.25-.485 1.25-.97a.823.823 0 0 0-.313-.64c-.265-.25-.578-.312-.828-.344-.547-.109-1-.187-1-.562 0-.219.188-.485.844-.485.812 0 .844.563.86.766 0 .078.093.078.109.078.125 0 .125-.047.125-.187Zm0 0"/><path id="n" d="M3.516-1.266H3.28c-.015.157-.094.563-.187.625-.047.047-.578.047-.688.047H1.125c.734-.64.984-.843 1.39-1.172.516-.406 1-.843 1-1.5 0-.843-.734-1.359-1.624-1.359-.86 0-1.453.61-1.453 1.25 0 .344.296.39.375.39.156 0 .359-.124.359-.374 0-.125-.047-.375-.406-.375.218-.485.687-.641 1.015-.641.703 0 1.063.547 1.063 1.11 0 .609-.438 1.078-.656 1.328L.516-.266C.437-.203.437-.187.437 0h2.876Zm0 0"/><path id="w" d="M5.61-2.36a2.56 2.56 0 0 0-2.563-2.546A2.56 2.56 0 0 0 .484-2.36c0 1.375 1.141 2.5 2.563 2.5 1.437 0 2.562-1.125 2.562-2.5M3.046-.093c-.813 0-1.813-.656-1.813-2.375 0-1.61 1.032-2.203 1.813-2.203.797 0 1.828.594 1.828 2.203 0 1.719-1 2.375-1.828 2.375m0 0"/><path id="x" d="M4.766-4c0-.187 0-.516.718-.516v-.25c-.28.032-.578.032-.843.032-.282 0-.578 0-.844-.032v.25c.719 0 .719.329.719.516v2.39c0 .954-.75 1.5-1.47 1.5-.405 0-1.28-.218-1.28-1.468v-2.61c0-.25.015-.328.562-.328h.156v-.25c-.343.016-.796.032-1.046.032S.734-4.75.39-4.766v.25h.172c.53 0 .546.079.546.329v2.578C1.11-.594 2 .14 3.031.14a1.73 1.73 0 0 0 1.735-1.735Zm0 0"/><path id="y" d="M5.188-4.703H.484L.328-3.11h.25c.094-1.203.297-1.344 1.36-1.344h.421c.157.031.157.11.157.266v3.609c0 .234 0 .328-.735.328h-.297V0c.344-.031 1-.031 1.36-.031.36 0 1 0 1.344.031v-.25H3.89c-.72 0-.72-.094-.72-.328v-3.61c0-.156 0-.234.157-.265h.406c.391 0 .688 0 .938.125.312.203.36.64.36.672l.062.547h.25Zm0 0"/><path id="d" d="M3.734-6.11c.063-.234.094-.343.282-.374h.609c.703 0 1.797 0 1.797.984 0 .328-.156 1.016-.547 1.406-.25.266-.781.578-1.672.578H3.078Zm1.438 2.72c1-.22 2.187-.907 2.187-1.922 0-.844-.906-1.485-2.203-1.485H2.313c-.188 0-.282 0-.282.203 0 .11.094.11.281.11.016 0 .204 0 .376.015.171.016.265.032.265.157 0 .046 0 .078-.031.187L1.578-.781c-.094.39-.11.469-.906.469-.172 0-.266 0-.266.203C.406 0 .531 0 .546 0c.282 0 .97-.031 1.25-.031.282 0 .985.031 1.267.031.078 0 .203 0 .203-.203 0-.11-.094-.11-.282-.11-.359 0-.64 0-.64-.171 0-.063.015-.11.031-.172l.656-2.64h1.172c.906 0 1.094.562 1.094.905 0 .157-.078.454-.14.688-.063.281-.157.64-.157.844C5 .219 6.188.219 6.313.219c.859 0 1.203-1 1.203-1.14 0-.126-.11-.126-.125-.126-.079 0-.11.078-.125.14-.25.735-.672.907-.907.907-.328 0-.39-.219-.39-.61 0-.312.047-.812.093-1.124.016-.141.032-.328.032-.47 0-.765-.657-1.077-.922-1.187m0 0"/><path id="i" d="M7.563-6.922c0-.031-.016-.094-.11-.094-.031 0-.031.016-.14.125l-.704.766c-.093-.14-.546-.89-1.656-.89C2.734-7.016.5-4.814.5-2.516.5-.86 1.672.218 3.188.218c.874 0 1.624-.39 2.156-.86.922-.812 1.093-1.718 1.093-1.75 0-.093-.093-.093-.125-.093-.046 0-.109.015-.125.093-.093.297-.312 1-1 1.579-.687.546-1.312.718-1.828.718-.906 0-1.953-.515-1.953-2.062 0-.578.203-2.188 1.203-3.344.61-.703 1.547-1.203 2.422-1.203 1.016 0 1.61.766 1.61 1.922 0 .39-.032.406-.032.5 0 .093.11.093.157.093.125 0 .125-.015.172-.187Zm0 0"/><path id="o" d="M4.469-1.734h-.25c-.047.297-.125.734-.219.89-.062.078-.719.078-.937.078H1.266l1.047-1.03c1.562-1.376 2.156-1.907 2.156-2.907 0-1.125-.89-1.922-2.11-1.922A1.83 1.83 0 0 0 .5-4.828c0 .562.5.562.531.562.157 0 .516-.125.516-.53a.504.504 0 0 0-.531-.516H.89c.218-.641.765-1 1.343-1 .907 0 1.329.796 1.329 1.609 0 .797-.5 1.594-1.047 2.203L.609-.375C.5-.265.5-.235.5 0h3.688Zm0 0"/><path id="p" d="M4.547-1.703c0-.813-.625-1.594-1.656-1.797.812-.266 1.39-.969 1.39-1.75 0-.828-.875-1.375-1.828-1.375-1.015 0-1.765.594-1.765 1.344 0 .328.218.531.5.531a.492.492 0 0 0 .515-.516c0-.5-.469-.5-.625-.5.313-.484.969-.609 1.328-.609.406 0 .953.219.953 1.11 0 .124-.015.702-.28 1.14-.298.469-.626.5-.876.516-.078 0-.328.03-.39.03-.079 0-.157.017-.157.11 0 .11.078.11.25.11h.438c.812 0 1.172.687 1.172 1.656 0 1.36-.672 1.64-1.11 1.64-.437 0-1.187-.171-1.531-.75.344.047.656-.171.656-.546 0-.36-.265-.563-.562-.563-.235 0-.547.14-.547.578 0 .907.922 1.563 2 1.563 1.219 0 2.125-.906 2.125-1.922m0 0"/><path id="q" d="M4.688-1.64v-.313h-1v-4.531c0-.188 0-.25-.157-.25-.094 0-.125 0-.203.109L.281-1.953v.312h2.64v.86c0 .36-.015.469-.75.469h-.218V0c.422-.031.938-.031 1.344-.031.422 0 .953 0 1.36.031v-.312h-.204c-.734 0-.766-.11-.766-.47v-.859Zm-1.704-.313H.563l2.421-3.703Zm0 0"/><path id="r" d="M4.828-6.406H2.406c-1.219 0-1.234-.14-1.265-.328H.89L.563-4.672h.25c.03-.172.109-.797.25-.906.062-.063.843-.063.968-.063h2.063L2.969-4.078C2.079-2.734 1.75-1.344 1.75-.328c0 .094 0 .547.453.547.469 0 .469-.453.469-.547v-.516c0-.547.031-1.094.11-1.625.03-.234.171-1.078.609-1.703l1.343-1.89c.094-.125.094-.141.094-.344m0 0"/><path id="s" d="M4.469-2c0-1.187-.813-2.187-1.89-2.187-.485 0-.907.171-1.267.515v-1.937c.204.062.532.125.844.125 1.235 0 1.922-.907 1.922-1.032 0-.062-.031-.109-.094-.109 0 0-.03 0-.078.031-.203.078-.687.282-1.36.282-.39 0-.858-.063-1.327-.282-.078-.031-.11-.031-.11-.031-.109 0-.109.078-.109.25v2.938c0 .187 0 .265.14.265.079 0 .094-.031.141-.094.11-.156.469-.703 1.282-.703.515 0 .765.469.843.64.156.376.172.767.172 1.267 0 .343 0 .937-.234 1.359-.235.39-.61.64-1.063.64-.734 0-1.297-.53-1.469-1.109.032 0 .063.016.172.016.329 0 .5-.25.5-.485a.48.48 0 0 0-.5-.484c-.14 0-.484.063-.484.516C.5-.75 1.188.219 2.297.219 3.453.219 4.469-.734 4.469-2m0 0"/><path id="t" d="M4.547-2.031c0-1.266-.89-2.219-1.984-2.219-.688 0-1.047.5-1.25.984V-3.5c0-2.516 1.234-2.875 1.75-2.875.234 0 .656.063.874.39-.156 0-.546 0-.546.454 0 .312.234.453.453.453.156 0 .453-.094.453-.469 0-.61-.438-1.078-1.266-1.078-1.265 0-2.61 1.281-2.61 3.484C.422-.484 1.579.22 2.5.22c1.11 0 2.047-.938 2.047-2.25m-.89-.016c0 .485 0 .985-.173 1.344-.296.594-.75.64-.984.64-.625 0-.922-.593-.984-.75-.188-.468-.188-1.25-.188-1.437 0-.781.328-1.766 1.219-1.766.156 0 .625 0 .922.61.187.375.187.875.187 1.36m0 0"/><path id="u" d="M4.172 0v-.312h-.313c-.906 0-.937-.11-.937-.47v-5.593c0-.234 0-.25-.219-.25-.625.64-1.5.64-1.812.64v.298c.187 0 .78 0 1.297-.25v5.156c0 .36-.032.469-.922.469H.953V0c.344-.031 1.203-.031 1.61-.031.39 0 1.265 0 1.609.031m0 0"/><path id="v" d="M4.547-1.672c0-.36-.11-.812-.484-1.219-.188-.218-.344-.312-.985-.718.719-.36 1.203-.875 1.203-1.532 0-.921-.89-1.484-1.797-1.484-.984 0-1.796.734-1.796 1.656 0 .188.015.625.437 1.094.11.125.484.375.719.547C1.28-3.047.422-2.484.422-1.5.422-.453 1.438.219 2.484.219c1.125 0 2.063-.828 2.063-1.89M3.844-5.14c0 .563-.39 1.047-.985 1.391l-1.234-.797c-.453-.297-.5-.64-.5-.812 0-.61.64-1.016 1.36-1.016.718 0 1.359.516 1.359 1.234m.203 3.829c0 .734-.75 1.25-1.563 1.25C1.625-.062.922-.672.922-1.5c0-.578.312-1.219 1.156-1.687l1.219.78c.281.188.75.485.75 1.095m0 0"/><clipPath id="j"><path d="M109 166h2v10.688h-2Zm0 0"/></clipPath><clipPath id="k"><path d="M103 175h14v1.688h-14Zm0 0"/></clipPath></defs><path fill="none" stroke="#000" stroke-miterlimit="10" stroke-width=".7962986400000001" d="m120.617 90.79 42.824 21.41-42.824 21.41Zm0 0"/><path fill="none" stroke="#000" stroke-miterlimit="10" stroke-width=".39864888000000004" d="M120.617 122.906h-3.566m3.566-21.414h-3.566m46.39 10.707h3.567m-14.274 5.352v3.57m-21.41 7.137v3.566m24.98-23.195v-3.567m-14.277-3.57v-3.566m-14.273-3.57v-3.567"/><use xlink:href="#a" x="129.433" y="114.854"/><use xlink:href="#b" x="133.027" y="114.854"/><use xlink:href="#c" x="140.216" y="116.346"/><path fill="none" stroke="#000" stroke-miterlimit="10" stroke-width=".39864888000000004" d="M117.05 101.492H74.946m-31.722 0H30.102"/><path fill="none" stroke="#000" stroke-miterlimit="10" stroke-width=".7962986400000001" d="M43.223 95.547h31.722v11.894H43.223Zm0 0"/><use xlink:href="#d" x="53.074" y="91.734"/><use xlink:href="#c" x="60.632" y="93.227"/><path fill="#FFF" stroke="#000" stroke-miterlimit="10" stroke-width=".39864888000000004" d="M31.687 101.492a1.587 1.587 0 1 0-3.174.002 1.587 1.587 0 0 0 3.174-.002Zm0 0"/><use xlink:href="#e" x="3.375" y="104.148"/><use xlink:href="#f" x="10.841" y="104.148"/><use xlink:href="#g" x="17.338" y="105.641"/><use xlink:href="#h" x="20.214" y="105.641"/><path fill="none" stroke="#000" stroke-miterlimit="10" stroke-width=".39864888000000004" d="M117.05 122.906h-7.245v28.98M131.324 131.824v20.063h-21.52m0 0"/><path stroke="#000" stroke-miterlimit="10" stroke-width=".39864888000000004" d="M111.39 151.887a1.587 1.587 0 0 0-3.171 0 1.587 1.587 0 0 0 3.172 0Zm0 0"/><path fill="none" stroke="#000" stroke-miterlimit="10" stroke-width=".39864888000000004" d="M88.066 101.492v17.774m0 7.93v24.69h21.739v14.493"/><path fill="none" stroke="#000" stroke-miterlimit="10" stroke-width=".7962986400000001" d="M99.96 119.266H76.173m23.789 7.93H76.17"/><path stroke="#000" stroke-miterlimit="10" stroke-width=".39864888000000004" d="M89.652 101.492a1.587 1.587 0 1 0-3.174.002 1.587 1.587 0 0 0 3.174-.002Zm0 0"/><use xlink:href="#i" x="61.795" y="125.375"/><use xlink:href="#c" x="68.909" y="126.868"/><g clip-path="url(#j)"><path fill="none" stroke="#000" stroke-miterlimit="10" stroke-width=".39864888000000004" d="M109.805 166.379v9.91"/></g><g clip-path="url(#k)"><path fill="none" stroke="#000" stroke-linecap="round" stroke-miterlimit="10" stroke-width=".7962986400000001" d="M103.855 176.29h11.895"/></g><path fill="none" stroke="#000" stroke-miterlimit="10" stroke-width=".39864888000000004" d="M152.734 121.121v4.348m0 0v4.347M127.754 90.79V49.124m0 0V7.465H26.316"/><path fill="#FFF" stroke="#000" stroke-miterlimit="10" stroke-width=".39864888000000004" d="M27.902 7.465c0-.88-.71-1.586-1.586-1.586a1.587 1.587 0 1 0 1.586 1.586Zm0 0"/><use xlink:href="#l" x="11.684" y="10.119"/><use xlink:href="#m" x="19.149" y="11.612"/><path fill="none" stroke="#000" stroke-miterlimit="10" stroke-width=".39864888000000004" d="M55.297 7.465v17.77m0 7.929v17.773"/><path fill="none" stroke="#000" stroke-miterlimit="10" stroke-width=".7962986400000001" d="M67.195 25.234H43.402m23.793 7.93H43.402"/><path stroke="#000" stroke-miterlimit="10" stroke-width=".39864888000000004" d="M56.883 7.465c0-.88-.707-1.586-1.586-1.586-.875 0-1.582.707-1.582 1.586a1.584 1.584 0 1 0 3.168 0Zm0 0"/><use xlink:href="#i" x="69.994" y="31.346"/><use xlink:href="#n" x="77.107" y="32.839"/><path fill="none" stroke="#000" stroke-miterlimit="10" stroke-width=".39864888000000004" d="M55.297 50.937v9.915"/><path fill="none" stroke="#000" stroke-linecap="round" stroke-miterlimit="10" stroke-width=".7962986400000001" d="M49.352 60.852h11.894"/><path fill="none" stroke="#000" stroke-miterlimit="10" stroke-width=".39864888000000004" d="M167.008 112.2h7.246m0 0h7.246"/><path fill="#FFF" stroke="#000" stroke-miterlimit="10" stroke-width=".39864888000000004" d="M183.086 112.2a1.587 1.587 0 0 0-3.172 0 1.587 1.587 0 0 0 3.172 0Zm0 0"/><path fill="none" stroke="#000" stroke-miterlimit="10" stroke-width=".39864888000000004" d="M142.027 97.926v-4.348m0 0V89.23M156.305 105.062v-4.347m0 0v-4.348"/><use xlink:href="#o" x="108.557" y="97.977"/><use xlink:href="#p" x="108.557" y="119.169"/><use xlink:href="#q" x="134.84" y="142.081"/><use xlink:href="#r" x="144.241" y="131.365"/><use xlink:href="#s" x="164.519" y="122.345"/><use xlink:href="#t" x="131.272" y="87.053"/><use xlink:href="#u" x="145.546" y="94.409"/><use xlink:href="#v" x="159.819" y="101.327"/><use xlink:href="#e" x="185.016" y="114.854"/><use xlink:href="#f" x="192.481" y="114.854"/><use xlink:href="#w" x="198.979" y="116.346"/><use xlink:href="#x" x="205.089" y="116.346"/><use xlink:href="#y" x="210.965" y="116.346"/><use xlink:href="#z" x="138.869" y="28.709"/><use xlink:href="#A" x="146.334" y="28.709"/><use xlink:href="#B" x="151.865" y="28.709"/><use xlink:href="#C" x="157.395" y="28.709"/><use xlink:href="#D" x="160.16" y="28.709"/><use xlink:href="#E" x="164.868" y="28.709"/><use xlink:href="#F" x="169.843" y="28.709"/><use xlink:href="#G" x="174.267" y="28.709"/><use xlink:href="#H" x="178.166" y="28.709"/><use xlink:href="#I" x="182.091" y="28.709"/><use xlink:href="#G" x="185.962" y="28.709"/><use xlink:href="#J" x="189.861" y="28.709"/><use xlink:href="#F" x="194.836" y="28.709"/><use xlink:href="#G" x="199.26" y="28.709"/></svg>