<svg xmlns="http://www.w3.org/2000/svg" xmlns:xlink="http://www.w3.org/1999/xlink" width="224.635" height="255.397"><defs><path id="a" d="M4.156 0v-.312h-.312c-.89 0-.922-.11-.922-.47v-5.577c0-.235 0-.266-.235-.266-.609.64-1.484.64-1.796.64v.313c.187 0 .78 0 1.297-.266V-.78c0 .36-.032.469-.922.469H.938V0c.359-.031 1.218-.031 1.609-.031.406 0 1.265 0 1.61.031m0 0"/><path id="b" d="M5.078 0v-.312c-.375 0-.594 0-.969-.516L2.86-2.61c-.015-.032-.062-.079-.062-.11 0-.047.703-.64.797-.719.625-.5 1.047-.53 1.25-.53v-.313c-.282.031-.407.031-.688.031-.36 0-.968-.016-1.11-.031v.312c.188 0 .282.11.282.235 0 .203-.14.328-.219.39L1.703-2.125v-4.766l-1.422.11v.297c.688 0 .766.078.766.562V-.75c0 .438-.11.438-.766.438V0L1.36-.031 2.453 0v-.312c-.672 0-.781 0-.781-.438v-1.031l.64-.547C3.079-1.266 3.5-.718 3.5-.531c0 .187-.172.219-.36.219V0L4.22-.031c.281 0 .578.015.86.031m0 0"/><path id="c" d="M7.11 0v-.312h-.235c-.766 0-.781-.11-.781-.47v-5.234c0-.359.015-.468.781-.468h.234v-.297c-.343.031-1.078.031-1.453.031s-1.125 0-1.468-.031v.297h.234c.766 0 .781.109.781.468v2.329H2.234v-2.329c0-.359.016-.468.782-.468h.25v-.297c-.36.031-1.094.031-1.47.031-.374 0-1.124 0-1.468-.031v.297h.235c.765 0 .78.109.78.468V-.78c0 .36-.015.469-.78.469H.328V0c.344-.031 1.078-.031 1.453-.031.39 0 1.125 0 1.485.031v-.312h-.25c-.766 0-.782-.11-.782-.47v-2.593h2.97v2.594c0 .36-.016.469-.782.469h-.234V0C4.53-.031 5.266-.031 5.64-.031s1.125 0 1.468.031m0 0"/><path id="d" d="M3.984-1.86h-.25C3.641-.686 3.438-.25 2.281-.25H1.11l2.766-3.734c.094-.11.094-.125.094-.172 0-.125-.078-.125-.266-.125H.531l-.11 1.593h.25C.72-3.702.922-4.062 2-4.062h1.14L.376-.312c-.094.109-.094.125-.094.171C.281 0 .344 0 .531 0h3.282Zm0 0"/><path id="e" d="M4.406-7.25a.207.207 0 0 0-.203-.203c-.14 0-.172.094-.203.203L.61 2.11c-.047.124-.047.171-.047.171 0 .11.078.203.187.203.14 0 .188-.093.219-.203l3.39-9.36c.047-.124.047-.171.047-.171m0 0"/><path id="f" d="M7.031-3.344c0-1.89-1.343-3.437-3.047-3.437H.344v.297h.25c.75 0 .781.109.781.468V-.78c0 .36-.031.469-.781.469h-.25V0h3.64c1.672 0 3.047-1.469 3.047-3.344m-1 0c0 1.11-.187 1.703-.547 2.188a2.192 2.192 0 0 1-1.765.843h-1c-.469 0-.5-.062-.5-.39v-5.375c0-.328.031-.406.5-.406h.984c.625 0 1.313.218 1.813.922.422.593.515 1.453.515 2.218m0 0"/><path id="g" d="M2.453 0v-.312c-.656 0-.687-.047-.687-.438v-3.64l-1.391.109v.312c.64 0 .734.047.734.547V-.75c0 .438-.109.438-.78.438V0l1.093-.031c.344 0 .687.015 1.031.031m-.547-6a.547.547 0 0 0-.531-.531A.536.536 0 0 0 .844-6c0 .266.234.531.531.531A.536.536 0 0 0 1.906-6m0 0"/><path id="h" d="M5.047-3.969v-.312c-.234.015-.516.031-.75.031l-.86-.031v.312c.376 0 .485.235.485.422 0 .094-.031.125-.063.235L2.844-.783l-1.11-2.765c-.062-.125-.062-.172-.062-.172 0-.25.39-.25.562-.25v-.312l-1.078.031c-.265 0-.672-.016-.968-.031v.312c.625 0 .671.047.796.36L2.422-.08c.047.142.078.188.203.188s.172-.093.203-.187l1.313-3.234c.078-.22.25-.657.906-.657m0 0"/><path id="i" d="M1.906-.531A.524.524 0 1 0 .86-.515a.524.524 0 0 0 1.047-.016m0 0"/><path id="s" d="M4.578-3.187c0-.782-.062-1.579-.406-2.313-.453-.953-1.266-1.125-1.688-1.125-.593 0-1.328.266-1.734 1.188C.438-4.75.39-3.97.39-3.187c0 .75.032 1.64.438 2.406.438.797 1.156 1 1.64 1 .548 0 1.298-.203 1.735-1.156.313-.688.375-1.454.375-2.25m-.828-.11c0 .75 0 1.422-.11 2.047C3.485-.297 2.923 0 2.47 0c-.375 0-.969-.25-1.14-1.203-.11-.594-.11-1.516-.11-2.094 0-.64 0-1.297.078-1.828.187-1.187.922-1.281 1.172-1.281.328 0 .984.187 1.172 1.172.109.547.109 1.312.109 1.937m0 0"/><path id="t" d="M5.234 0v-.312c-.687 0-.765-.063-.765-.547v-6.032l-1.438.11v.297c.703 0 .781.078.781.562v2.14a1.6 1.6 0 0 0-1.265-.609c-1.172 0-2.203.97-2.203 2.25 0 1.266.969 2.25 2.094 2.25.64 0 1.093-.343 1.343-.656V.11ZM3.781-1.172c0 .172 0 .203-.11.36-.296.484-.75.703-1.171.703-.453 0-.812-.266-1.047-.641-.266-.406-.297-.969-.297-1.375 0-.375.032-.969.313-1.406.203-.313.593-.64 1.125-.64.344 0 .765.14 1.078.593.11.172.11.187.11.375Zm0 0"/><path id="u" d="M6.469-1.812c0-.875-.813-1.61-1.922-1.735.969-.187 1.656-.828 1.656-1.562 0-.86-.922-1.672-2.203-1.672H.36v.297h.234c.765 0 .781.109.781.468V-.78c0 .36-.016.469-.781.469H.359V0H4.25c1.328 0 2.219-.89 2.219-1.812M5.234-5.11c0 .64-.484 1.468-1.593 1.468H2.203v-2.437c0-.328.016-.406.485-.406h1.234c.969 0 1.312.843 1.312 1.375m.235 3.28c0 .704-.516 1.517-1.532 1.517h-1.25c-.468 0-.484-.063-.484-.391v-2.719h1.875c.984 0 1.39.922 1.39 1.594m0 0"/><path id="j" d="M0-4.156h-.312v.312c0 .89-.11.922-.47.922h-5.577c-.235 0-.266 0-.266.235.64.609.64 1.484.64 1.796h.313c0-.187 0-.78-.266-1.296H-.78c.36 0 .469.03.469.921v.329H0c-.031-.36-.031-1.22-.031-1.61 0-.406 0-1.265.031-1.61m0 0"/><path id="k" d="M-3.187-4.578c-.782 0-1.579.062-2.313.406-.953.453-1.125 1.266-1.125 1.688 0 .593.266 1.328 1.188 1.734.687.313 1.468.36 2.25.36.75 0 1.64-.032 2.406-.438.797-.438 1-1.156 1-1.64 0-.548-.203-1.298-1.156-1.735-.688-.313-1.454-.375-2.25-.375m-.11.828c.75 0 1.422 0 2.047.11C-.297-3.485 0-2.923 0-2.47c0 .375-.25.969-1.203 1.14-.594.11-1.516.11-2.094.11-.64 0-1.297 0-1.828-.078-1.187-.187-1.281-.922-1.281-1.172 0-.328.187-.984 1.172-1.172.547-.109 1.312-.109 1.937-.109m0 0"/><path id="l" d="M0-5.234h-.312c0 .687-.063.765-.547.765h-6.032l.11 1.438h.297c0-.703.078-.781.562-.781h2.14a1.6 1.6 0 0 0-.609 1.265c0 1.172.97 2.203 2.25 2.203 1.266 0 2.25-.968 2.25-2.093 0-.641-.343-1.094-.656-1.344H.11Zm-1.172 1.453c.172 0 .203 0 .36.11.484.296.703.75.703 1.171 0 .453-.266.813-.641 1.047-.406.266-.969.297-1.375.297-.375 0-.969-.032-1.406-.313-.313-.203-.64-.593-.64-1.125 0-.344.14-.765.593-1.078.172-.11.187-.11.375-.11Zm0 0"/><path id="m" d="M-1.812-6.469c-.875 0-1.61.813-1.735 1.922-.187-.969-.828-1.656-1.562-1.656-.86 0-1.672.922-1.672 2.203v3.64h.297v-.234c0-.765.109-.781.468-.781H-.78c.36 0 .469.016.469.781v.235H0V-4.25c0-1.328-.89-2.219-1.812-2.219M-5.11-5.234c.64 0 1.468.484 1.468 1.593v1.438h-2.437c-.328 0-.406-.016-.406-.485v-1.234c0-.969.843-1.312 1.375-1.312m3.28-.235c.704 0 1.517.516 1.517 1.532v1.25c0 .468-.063.484-.391.484h-2.719v-1.875c0-.984.922-1.39 1.594-1.39m0 0"/><path id="n" d="M-7.25-4.406a.207.207 0 0 0-.203.203c0 .14.094.172.203.203L2.11-.61a.594.594 0 0 0 .171.047c.11 0 .203-.078.203-.187 0-.14-.093-.187-.203-.219l-9.36-3.39c-.124-.047-.171-.047-.171-.047m0 0"/><path id="o" d="M-3.344-7.031c-1.89 0-3.437 1.343-3.437 3.047v3.64h.297v-.25c0-.75.109-.781.468-.781H-.78c.36 0 .469.031.469.781v.25H0v-3.64c0-1.672-1.469-3.047-3.344-3.047m0 1c1.11 0 1.703.187 2.188.547.265.203.843.765.843 1.765v1c0 .469-.062.5-.39.5h-5.375c-.328 0-.406-.031-.406-.5v-.984c0-.625.218-1.313.922-1.813.593-.421 1.453-.515 2.218-.515m0 0"/><path id="p" d="M0-2.453h-.312c0 .656-.047.687-.438.687h-3.64l.109 1.391h.312c0-.64.047-.734.547-.734H-.75c.438 0 .438.109.438.78H0l-.031-1.093c0-.344.015-.687.031-1.031m-6 .547a.547.547 0 0 0-.531.531c0 .328.281.531.531.531a.547.547 0 0 0 .531-.531A.536.536 0 0 0-6-1.906m0 0"/><path id="q" d="M-3.969-5.047h-.312c.015.234.031.516.031.75l-.031.86h.312c0-.376.235-.485.422-.485.094 0 .125.031.235.063l2.53 1.015-2.765 1.11c-.125.062-.172.062-.172.062-.25 0-.25-.39-.25-.562h-.312l.031 1.078c0 .265-.016.672-.031.968h.312c0-.624.047-.671.36-.796l3.53-1.438C.064-2.469.11-2.5.11-2.625s-.093-.172-.187-.203l-3.234-1.313c-.22-.078-.657-.25-.657-.906m0 0"/><path id="r" d="M-.531-1.906A.524.524 0 1 0-.515-.86a.524.524 0 0 0-.016-1.047m0 0"/></defs><path fill="none" stroke="#000" stroke-miterlimit="10" stroke-width=".39806235" d="M28.965 230.54h191.719m-191.72-31.954h191.72m-191.72-31.953h191.72M28.964 134.68h191.72m-191.72-31.953h191.72M28.964 70.773h191.72M28.964 38.82h191.72M28.964 6.88h191.72m-191.72 223.66V6.871m31.954 223.668V6.871m31.953 223.668V6.871m31.953 223.668V6.871m31.953 223.668V6.871m31.954 223.668V6.871m31.941 223.668V6.871"/><path fill="none" stroke="#000" stroke-miterlimit="10" stroke-width="1.5902541000000001" d="M54.527 230.54 85.551 44.401c.515-3.082 2.336-7.687 4.066-10.285l.117-.176c1.735-2.597 5.489-5.644 8.387-6.804l5.477-2.192c2.898-1.16 7.675-1.37 10.668-.472l5.14 1.539c2.992.898 7.844.898 10.836 0l5.14-1.54c2.993-.898 7.77-.687 10.669.473l5.476 2.192c2.899 1.16 6.657 4.207 8.387 6.804l.117.176c1.73 2.598 3.551 7.203 4.067 10.285L195.12 230.54"/><use xlink:href="#a" x="165.188" y="248.998"/><use xlink:href="#b" x="171.807" y="248.998"/><use xlink:href="#c" x="177.055" y="248.998"/><use xlink:href="#d" x="184.509" y="248.998"/><use xlink:href="#e" x="188.922" y="248.998"/><use xlink:href="#f" x="193.892" y="248.998"/><use xlink:href="#g" x="201.486" y="248.998"/><use xlink:href="#h" x="204.249" y="248.998"/><use xlink:href="#i" x="209.497" y="248.998"/><use xlink:href="#j" x="15.475" y="222.333"/><use xlink:href="#k" x="15.475" y="217.363"/><use xlink:href="#l" x="15.475" y="210.744"/><use xlink:href="#m" x="15.475" y="205.218"/><use xlink:href="#n" x="15.475" y="198.181"/><use xlink:href="#o" x="15.475" y="193.211"/><use xlink:href="#p" x="15.475" y="185.618"/><use xlink:href="#q" x="15.475" y="182.855"/><use xlink:href="#r" x="15.475" y="177.607"/><use xlink:href="#s" x="3.396" y="10.211"/><use xlink:href="#t" x="10.015" y="10.211"/><use xlink:href="#u" x="15.541" y="10.211"/></svg>