<svg xmlns="http://www.w3.org/2000/svg" xmlns:xlink="http://www.w3.org/1999/xlink" width="228.685" height="105.421"><defs><clipPath id="a"><path d="M.469 62H25v1H.469Zm0 0"/></clipPath><clipPath id="b"><path d="M62 101h4v3.844h-4Zm0 0"/></clipPath><clipPath id="c"><path d="M56 95h16v9.844H56Zm0 0"/></clipPath><clipPath id="d"><path d="M165 101h4v3.844h-4Zm0 0"/></clipPath><clipPath id="e"><path d="M159 95h16v9.844h-16Zm0 0"/></clipPath><path id="f" d="M7.188 0v-.312H7c-.516 0-.719-.047-.922-.344L3.984-3.828l1.36-1.985c.218-.312.547-.64 1.437-.64v-.313l-1.11.032c-.39 0-.874 0-1.265-.032v.313c.39 0 .61.219.61.453 0 .094-.016.11-.079.219l-1.14 1.687L2.53-6.016c-.031-.03-.078-.109-.078-.14 0-.125.219-.297.64-.297v-.313c-.343.032-1.062.032-1.437.032L.36-6.766v.313h.204c.53 0 .718.062.906.344l1.828 2.75L1.672-.953c-.14.187-.438.64-1.438.64V0l1.11-.031c.36 0 .906 0 1.265.031v-.312c-.453 0-.625-.266-.625-.454 0-.093.032-.125.094-.234l1.406-2.078 1.563 2.36c.031.046.062.077.062.109 0 .125-.218.297-.656.297V0c.344-.031 1.078-.031 1.453-.031Zm0 0"/></defs><path fill="none" stroke="#000" stroke-miterlimit="10" stroke-width=".39682146" d="M12.703 103.07V70.414m0-11.844V25.914h25.719m0 0H64.14v22.79m0 31.577v22.79H38.42m0 0H12.704M12.703 66.445v3.97m0-7.876V58.57"/><g clip-path="url(#a)"><path fill="none" stroke="#000" stroke-miterlimit="10" stroke-width=".79264838" d="M.863 62.54h23.684"/></g><path fill="none" stroke="#000" stroke-miterlimit="10" stroke-width="2.37794514" d="M6.785 66.445h11.84"/><path fill="none" stroke="#000" stroke-miterlimit="10" stroke-width=".79264838" d="M69.668 80.281V48.703h-11.05v31.578ZM77.953 56.598l-23.64 13.511"/><path stroke="#000" stroke-miterlimit="10" stroke-width=".79260853" d="m51.016 71.992 4.199.098-1.074-1.883-1.078-1.883Zm0 0"/><g clip-path="url(#b)"><path d="M65.719 103.07c0-.875-.707-1.578-1.578-1.578a1.579 1.579 0 1 0 1.578 1.578m0 0"/></g><g clip-path="url(#c)"><path fill="none" stroke="#000" stroke-miterlimit="10" stroke-width=".39682146" d="M65.719 103.07c0-.875-.707-1.578-1.578-1.578a1.579 1.579 0 1 0 1.578 1.578Zm0 0"/></g><path fill="none" stroke="#000" stroke-miterlimit="10" stroke-width=".39682146" d="M64.14 103.07h51.438m0 0h51.434V85.246m0-15.789V51.633h-22.79m-31.574 0H77.953v4.965"/><path fill="none" stroke="#000" stroke-miterlimit="10" stroke-width=".79264838" d="m167.012 69.457-9.867 15.79h19.734Zm0 0"/><path fill="none" stroke="#000" stroke-miterlimit="10" stroke-width=".39682146" d="M167.012 69.457v15.79"/><path fill="none" stroke="#000" stroke-miterlimit="10" stroke-width=".79264838" d="M176.879 69.457h-19.734"/><g clip-path="url(#d)"><path d="M168.59 103.07c0-.875-.707-1.578-1.578-1.578a1.579 1.579 0 1 0 1.578 1.578m0 0"/></g><g clip-path="url(#e)"><path fill="none" stroke="#000" stroke-miterlimit="10" stroke-width=".39682146" d="M168.59 103.07c0-.875-.707-1.578-1.578-1.578a1.579 1.579 0 1 0 1.578 1.578Zm0 0"/></g><path stroke="#000" stroke-miterlimit="10" stroke-width=".39682146" d="M168.59 51.633a1.579 1.579 0 1 0-3.158.001 1.579 1.579 0 0 0 3.158-.001Zm0 0"/><path fill="none" stroke="#000" stroke-miterlimit="10" stroke-width=".79264838" d="M112.648 45.71h31.575v11.845h-31.575Zm0 0"/><path fill="none" stroke="#000" stroke-miterlimit="10" stroke-width=".39682146" d="M167.012 103.07h25.719m0 0h25.718V67.422m0-31.578V.195h-25.718m0 0h-25.72V21.97m0 7.894v21.77"/><path fill="none" stroke="#000" stroke-linejoin="bevel" stroke-miterlimit="10" stroke-width=".79264838" d="M218.29 67.816c3.269 0 5.921-1.812 5.921-4.046 0-2.235-2.652-4.043-5.922-4.043 3.27 0 5.922-1.813 5.922-4.047 0-2.235-2.652-4.047-5.922-4.047 3.27 0 5.922-1.813 5.922-4.047s-2.652-4.047-5.922-4.047c3.27 0 5.922-1.809 5.922-4.043s-2.652-4.047-5.922-4.047"/><path fill="none" stroke="#000" stroke-miterlimit="10" stroke-width=".79264838" d="M178.856 21.969h-23.684m23.684 7.894h-23.684"/><path stroke="#000" stroke-miterlimit="10" stroke-width=".39682146" d="M168.59 51.633a1.579 1.579 0 1 0-3.158.001 1.579 1.579 0 0 0 3.158-.001Zm0 0"/><path fill="none" stroke="#000" stroke-miterlimit="10" stroke-width=".39682146" d="M183.309 85.246v-6.77m0-2.253v-6.766"/><path fill="none" stroke="#000" stroke-miterlimit="10" stroke-width=".79264838" d="M179.926 78.477h6.765m-6.765-2.254h6.765"/><use xlink:href="#f" x="67.022" y="45.204"/></svg>