<svg xmlns="http://www.w3.org/2000/svg" xmlns:xlink="http://www.w3.org/1999/xlink" width="235.078" height="131.432"><defs><path id="a" d="M6.297-5.734c.11-.407.281-.703 1.078-.735.047 0 .172-.015.172-.203 0 0 0-.11-.14-.11-.329 0-.673.032-1 .032-.344 0-.72-.031-1.032-.031-.062 0-.187 0-.187.203 0 .11.093.11.187.11.563.015.672.218.672.437 0 .031-.031.172-.031.203l-.891 3.547C4.781-.953 3.641-.094 2.656-.094c-.687 0-1.219-.437-1.219-1.281 0-.031 0-.344.11-.781l.969-3.86c.078-.359.109-.453.828-.453.265 0 .344 0 .344-.203 0-.11-.11-.11-.141-.11-.281 0-1 .032-1.281.032-.282 0-.985-.031-1.282-.031-.078 0-.187 0-.187.203 0 .11.094.11.281.11.016 0 .219 0 .375.015.188.031.266.031.266.156 0 .063-.094.484-.157.703l-.218.875c-.094.39-.563 2.266-.61 2.453-.062.282-.062.438-.062.579 0 1.218.89 1.906 1.937 1.906 1.25 0 2.485-1.125 2.813-2.438Zm0 0"/><path id="e" d="M3.64-3.969h.86c.188 0 .297 0 .297-.203 0-.11-.11-.11-.266-.11h-.828l.203-1.124c.047-.203.188-.907.235-1.032.093-.187.265-.343.468-.343.047 0 .297 0 .485.187a.531.531 0 0 0-.532.532c0 .234.188.343.375.343.25 0 .547-.218.547-.593 0-.454-.468-.688-.875-.688-.328 0-.953.188-1.25 1.172-.062.203-.093.297-.328 1.547h-.687c-.188 0-.297 0-.297.187 0 .125.094.125.281.125h.64L2.235-.047c-.187.953-.343 1.86-.859 1.86-.047 0-.297 0-.484-.172a.547.547 0 0 0 .547-.547c0-.219-.172-.344-.36-.344-.266 0-.547.219-.547.594 0 .453.438.687.844.687.547 0 .938-.578 1.11-.953.328-.625.546-1.828.562-1.906Zm0 0"/><path id="b" d="M4.156 0v-.312h-.312c-.89 0-.922-.11-.922-.47v-5.562c0-.25 0-.265-.235-.265-.609.64-1.484.64-1.796.64v.297c.187 0 .78 0 1.297-.25v5.14c0 .36-.032.47-.922.47H.938V0c.359-.031 1.218-.031 1.609-.031.406 0 1.265 0 1.61.031m0 0"/><path id="c" d="M4.453-1.719h-.25c-.047.297-.11.735-.219.875-.062.078-.718.078-.937.078H1.266L2.313-1.78c1.546-1.375 2.14-1.906 2.14-2.907 0-1.125-.89-1.921-2.11-1.921C1.235-6.61.5-5.687.5-4.812c0 .562.484.562.516.562a.516.516 0 0 0 .515-.531c0-.266-.172-.516-.515-.516-.079 0-.11 0-.125.016.218-.657.75-1.016 1.328-1.016.906 0 1.328.797 1.328 1.61 0 .796-.485 1.578-1.031 2.203L.609-.36C.5-.266.5-.234.5 0h3.672Zm0 0"/><path id="d" d="M8.719 0v-.312h-.235c-.765 0-.78-.11-.78-.47V-6c0-.36.015-.469.78-.469h.235v-.312H7.047c-.266 0-.266.015-.328.187L4.547-1 2.39-6.562c-.094-.22-.125-.22-.344-.22H.359v.313h.25c.766 0 .782.11.782.469v4.953c0 .266 0 .734-1.032.734V0l1.172-.031L2.688 0v-.312c-1.016 0-1.016-.47-1.016-.735V-6.39l2.39 6.172c.063.125.11.219.204.219.109 0 .14-.078.172-.187L6.89-6.47V-.78c0 .36-.016.469-.782.469h-.234V0c.36-.031 1.047-.031 1.422-.031.39 0 1.062 0 1.422.031m0 0"/><path id="f" d="M8.063 0v-.312c-.516 0-.766 0-.766-.297V-2.5c0-.86 0-1.156-.313-1.516-.14-.171-.468-.375-1.046-.375-.829 0-1.266.594-1.438.985-.14-.875-.875-.985-1.312-.985-.735 0-1.188.438-1.47 1.047V-4.39l-1.405.11v.312c.703 0 .78.063.78.563V-.75c0 .438-.109.438-.78.438V0l1.125-.031L2.547 0v-.312c-.656 0-.766 0-.766-.438v-1.828c0-1.031.703-1.594 1.328-1.594.625 0 .735.547.735 1.11V-.75c0 .438-.11.438-.766.438V0l1.125-.031L5.313 0v-.312c-.672 0-.782 0-.782-.438v-1.828c0-1.031.703-1.594 1.344-1.594.625 0 .734.547.734 1.11V-.75c0 .438-.109.438-.78.438V0l1.124-.031Zm0 0"/><path id="g" d="M5.234 0v-.312c-.703 0-.78-.063-.78-.547v-6.032l-1.423.11v.312c.688 0 .766.063.766.563v2.14a1.582 1.582 0 0 0-1.25-.625c-1.172 0-2.203.985-2.203 2.25 0 1.266.969 2.25 2.094 2.25.64 0 1.078-.343 1.328-.656V.11ZM3.766-1.172c0 .188 0 .203-.11.375-.297.469-.734.688-1.172.688-.437 0-.796-.25-1.03-.641-.266-.406-.298-.969-.298-1.375 0-.36.032-.953.313-1.406.203-.313.578-.64 1.125-.64.344 0 .765.155 1.062.593.11.172.11.187.11.375Zm0 0"/><path id="h" d="M4.125-1.187c0-.094-.11-.094-.14-.094-.079 0-.11.047-.126.093C3.58-.265 2.922-.14 2.563-.14c-.532 0-1.407-.421-1.407-2.015 0-1.625.813-2.047 1.344-2.047.094 0 .719.016 1.063.375-.407.031-.47.328-.47.453 0 .266.188.453.454.453.265 0 .469-.156.469-.469 0-.671-.766-1.046-1.532-1.046-1.234 0-2.14 1.062-2.14 2.296 0 1.266.969 2.25 2.125 2.25 1.328 0 1.656-1.187 1.656-1.296m0 0"/><path id="i" d="M5.172-2.14c0-1.266-.969-2.25-2.11-2.25-.765 0-1.203.468-1.359.656v-3.157l-1.422.11v.312c.688 0 .766.063.766.563V0h.25l.36-.61c.155.22.562.72 1.296.72a2.234 2.234 0 0 0 2.219-2.25m-.828-.016c0 .375-.016.969-.313 1.406-.203.313-.578.64-1.11.64-.452 0-.812-.234-1.046-.609-.14-.203-.14-.234-.14-.406v-2.047c0-.187 0-.203.109-.36.39-.562.937-.64 1.172-.64.453 0 .797.266 1.047.64.25.407.28.97.28 1.376m0 0"/><path id="k" d="M4.797-.89v-.547h-.25v.546c0 .579-.25.641-.36.641-.328 0-.375-.437-.375-.5v-1.984c0-.407 0-.797-.343-1.172a1.949 1.949 0 0 0-1.36-.531c-.812 0-1.5.453-1.5 1.109 0 .297.188.469.454.469a.435.435 0 0 0 .453-.453c0-.126-.047-.454-.5-.454.265-.359.75-.468 1.062-.468.485 0 1.063.39 1.063 1.28v.36c-.516.031-1.203.063-1.828.36-.75.343-1 .859-1 1.297 0 .796.968 1.046 1.593 1.046.657 0 1.11-.39 1.297-.859.047.39.313.813.781.813.204 0 .813-.141.813-.954m-1.656-.5c0 .937-.72 1.28-1.172 1.28-.485 0-.89-.343-.89-.843 0-.547.421-1.375 2.062-1.422Zm0 0"/><clipPath id="j"><path d="M134 14h100.113v74H134Zm0 0"/></clipPath></defs><path fill="none" stroke="#000" stroke-miterlimit="10" stroke-width=".39728430000000003" d="M17.824 95.55h9.844m0 0h19.687m0 0H57.2"/><path fill="#FFF" stroke="#000" stroke-miterlimit="10" stroke-width=".39728430000000003" d="M19.406 95.55a1.58 1.58 0 1 0-3.159.004 1.58 1.58 0 0 0 3.16-.003Zm0 0"/><path stroke="#000" stroke-miterlimit="10" stroke-width=".39728430000000003" d="M39.094 95.55a1.58 1.58 0 1 0-3.16.004 1.58 1.58 0 0 0 3.16-.003Zm0 0"/><path fill="none" stroke="#000" stroke-miterlimit="10" stroke-width=".39728430000000003" d="M17.824 36.488h9.844m0 0h19.687m0 0H57.2v13.727m0 31.61V95.55"/><path fill="#FFF" stroke="#000" stroke-miterlimit="10" stroke-width=".39728430000000003" d="M19.406 36.488c0-.87-.707-1.582-1.582-1.582a1.582 1.582 0 0 0 0 3.164c.875 0 1.582-.71 1.582-1.582Zm0 0"/><path stroke="#000" stroke-miterlimit="10" stroke-width=".39728430000000003" d="M39.094 36.488c0-.87-.707-1.582-1.582-1.582a1.582 1.582 0 0 0 0 3.164c.875 0 1.582-.71 1.582-1.582Zm0 0"/><path fill="none" stroke="#000" stroke-linejoin="bevel" stroke-miterlimit="10" stroke-width=".7935729" d="M57.043 49.816c3.273 0 5.926 1.813 5.926 4.051 0 2.238-2.653 4.051-5.926 4.051 3.273 0 5.926 1.812 5.926 4.05 0 2.239-2.653 4.052-5.926 4.052 3.273 0 5.926 1.812 5.926 4.05 0 2.239-2.653 4.051-5.926 4.051 3.273 0 5.926 1.813 5.926 4.05 0 2.24-2.653 4.052-5.926 4.052"/><path fill="none" stroke="#000" stroke-miterlimit="10" stroke-width=".39728430000000003" d="M116.262 95.55h-9.844m0 0H86.73m0 0h-9.843V81.825m0-31.61V36.489"/><path fill="#FFF" stroke="#000" stroke-miterlimit="10" stroke-width=".39728430000000003" d="M117.844 95.55a1.58 1.58 0 1 0-3.16.004 1.58 1.58 0 0 0 3.16-.003Zm0 0"/><path stroke="#000" stroke-miterlimit="10" stroke-width=".39728430000000003" d="M98.156 95.55a1.58 1.58 0 1 0-3.159.004 1.58 1.58 0 0 0 3.16-.003Zm0 0"/><path fill="none" stroke="#000" stroke-linejoin="bevel" stroke-miterlimit="10" stroke-width=".7935729" d="M77.047 82.223c-3.274 0-5.926-1.813-5.926-4.051 0-2.238 2.652-4.05 5.926-4.05-3.274 0-5.926-1.813-5.926-4.052 0-2.238 2.652-4.05 5.926-4.05-3.274 0-5.926-1.813-5.926-4.051 0-2.239 2.652-4.051 5.926-4.051-3.274 0-5.926-1.813-5.926-4.05 0-2.24 2.652-4.052 5.926-4.052"/><path fill="none" stroke="#000" stroke-miterlimit="10" stroke-width=".39728430000000003" d="M116.262 36.488h-9.844m0 0H86.73m0 0h-9.843"/><path fill="#FFF" stroke="#000" stroke-miterlimit="10" stroke-width=".39728430000000003" d="M117.844 36.488c0-.87-.707-1.582-1.582-1.582a1.582 1.582 0 0 0 0 3.164c.875 0 1.582-.71 1.582-1.582Zm0 0"/><path stroke="#000" stroke-miterlimit="10" stroke-width=".39728430000000003" d="M98.156 36.488c0-.87-.707-1.582-1.582-1.582a1.582 1.582 0 0 0 0 3.164c.875 0 1.582-.71 1.582-1.582Zm0 0"/><path fill="none" stroke="#000" stroke-miterlimit="10" stroke-width=".39728430000000003" d="M37.512 95.55V69.974m0-7.903V36.488"/><path fill="none" stroke="#000" stroke-miterlimit="10" stroke-width=".7935729" d="M25.656 69.973h23.711m-23.71-7.903h23.71"/><path fill="none" stroke="#000" stroke-miterlimit="10" stroke-width=".39728430000000003" d="M96.574 95.55V69.974m0-7.903V36.488"/><path fill="none" stroke="#000" stroke-miterlimit="10" stroke-width=".7935729" d="M84.719 69.973h23.71M84.72 62.07h23.71"/><path fill="none" stroke="#000" stroke-miterlimit="10" stroke-width=".39728430000000003" d="M17.824 45.297v41.445"/><path stroke="#000" stroke-miterlimit="10" stroke-width=".39728430000000003" d="M17.824 82.543h-1.976l1.976 4.2 1.977-4.2Zm0 0"/><use xlink:href="#a" x="2.031" y="67.803"/><use xlink:href="#b" x="8.804" y="71.015"/><path fill="none" stroke="#000" stroke-miterlimit="10" stroke-width=".39728430000000003" d="M116.262 45.297v41.445"/><path stroke="#000" stroke-miterlimit="10" stroke-width=".39728430000000003" d="M116.262 82.543h-1.977l1.977 4.2 1.976-4.2Zm0 0"/><use xlink:href="#a" x="119.827" y="67.803"/><use xlink:href="#c" x="126.601" y="71.015"/><use xlink:href="#d" x="62.495" y="39.877"/><path fill="none" stroke="#000" stroke-miterlimit="10" stroke-width=".39728430000000003" d="M135.95 115.238h85.136"/><path stroke="#000" stroke-miterlimit="10" stroke-width=".39728430000000003" d="m224.148 115.238-2.96-1.754v3.512Zm0 0"/><path fill="none" stroke="#000" stroke-miterlimit="10" stroke-width=".39728430000000003" d="M135.95 115.238v-94.98"/><path stroke="#000" stroke-miterlimit="10" stroke-width=".39728430000000003" d="m135.95 17.2-1.755 2.96h3.512Zm0 0"/><path fill="none" stroke="#000" stroke-dasharray="2.9759780310000004 2.9759780310000004" stroke-miterlimit="10" stroke-width=".39728430000000003" d="M185.168 115.238V16.801"/><use xlink:href="#e" x="178.359" y="125.631"/><use xlink:href="#f" x="183.216" y="127.119"/><use xlink:href="#e" x="221.579" y="125.631"/><use xlink:href="#a" x="129.835" y="10.084"/><use xlink:href="#c" x="136.608" y="13.297"/><path fill="none" stroke="#000" stroke-miterlimit="10" stroke-width=".7935729" d="M175.324 105.395s.223 1.304 2.953-6.891 3.067-22.64 6.891-22.64 4.16 14.445 6.89 22.64c2.735 8.195 2.954 6.89 2.954 6.89"/><use xlink:href="#g" x="168.628" y="108.782"/><path fill="none" stroke="#000" stroke-miterlimit="10" stroke-width=".7935729" d="M165.48 95.55s.446 1.845 5.907-11.812c5.465-13.656 6.133-37.406 13.781-37.406 7.648 0 8.32 23.75 13.781 37.406 5.465 13.657 5.906 11.813 5.906 11.813"/><use xlink:href="#h" x="159.34" y="97.719"/><path fill="none" stroke="#000" stroke-miterlimit="10" stroke-width=".7935729" d="M155.637 85.707s3.941-7.223 5.906-11.812c1.969-4.59 15.262-39.708 17.719-43.313 2.457-3.605 9.355-3.605 11.812 0 2.461 3.605 15.754 38.723 17.719 43.313 1.969 4.59 5.906 11.812 5.906 11.812"/><use xlink:href="#i" x="148.941" y="89.095"/><g clip-path="url(#j)"><path fill="none" stroke="#000" stroke-miterlimit="10" stroke-width=".7935729" d="M145.793 75.863s1.7-2.25 5.906-11.812c4.207-9.559 9.25-32.817 15.75-37.406 6.504-4.59 10.836 13.78 17.719 13.78 6.883 0 11.219-18.37 17.719-13.78 6.5 4.59 11.543 27.847 15.75 37.406 4.207 9.562 5.906 11.812 5.906 11.812"/></g><use xlink:href="#k" x="139.376" y="78.031"/></svg>