<svg xmlns="http://www.w3.org/2000/svg" xmlns:xlink="http://www.w3.org/1999/xlink" width="172.693" height="30.644"><defs><clipPath id="a"><path d="M2 0h68v30.293H2Zm0 0"/></clipPath><clipPath id="b"><path d="M47 0h69v30.293H47Zm0 0"/></clipPath><clipPath id="c"><path d="M93 0h68v30.293H93Zm0 0"/></clipPath><path id="d" d="M4.531-3.156c0-.781-.047-1.563-.39-2.297-.453-.953-1.266-1.11-1.672-1.11-.594 0-1.313.266-1.719 1.172-.312.688-.36 1.454-.36 2.235 0 .75.032 1.625.438 2.375.422.797 1.14 1 1.625 1 .531 0 1.281-.203 1.703-1.14.328-.688.375-1.454.375-2.235m-.812-.11c0 .735 0 1.407-.11 2.032C3.453-.297 2.891 0 2.453 0c-.39 0-.969-.25-1.14-1.187-.11-.594-.11-1.5-.11-2.079 0-.625 0-1.28.078-1.812.188-1.172.922-1.266 1.172-1.266.328 0 .969.188 1.156 1.157.11.546.11 1.296.11 1.921m0 0"/><path id="e" d="M7.188-6.422v-.297a22.29 22.29 0 0 1-.954.032L5.11-6.72v.297c.516.016.72.266.72.5 0 .078-.032.14-.048.188L3.984-.984l-1.89-4.97c-.063-.14-.063-.171-.063-.171 0-.297.563-.297.813-.297v-.297c-.36.032-1.031.032-1.406.032L.188-6.72v.297c.64 0 .828 0 .968.375L3.438 0c.062.188.109.219.25.219.156 0 .187-.047.234-.188l2.187-5.797c.141-.359.407-.64 1.079-.656m0 0"/></defs><path fill="none" stroke="#000" stroke-miterlimit="10" stroke-width=".39441948" d="M20.2 23.54h147.874"/><path d="M163.906 23.54v1.96l4.168-1.96-4.168-1.962Zm0 0"/><g clip-path="url(#a)"><path fill="none" stroke="#000" stroke-miterlimit="10" stroke-width="1.57570088" d="M24.75 23.54C28.457 11.89 32.008.79 35.926.79h.394c3.922 0 7.47 11.1 11.18 22.75"/></g><g clip-path="url(#b)"><path fill="none" stroke="#000" stroke-miterlimit="10" stroke-width="1.57570088" d="M70.25 23.54C73.957 11.89 77.508.79 81.426.79h.394c3.922 0 7.47 11.1 11.18 22.75"/></g><g clip-path="url(#c)"><path fill="none" stroke="#000" stroke-miterlimit="10" stroke-width="1.57570088" d="M115.75 23.54C119.457 11.89 123.008.79 126.926.79h.394c3.922 0 7.473 11.1 11.18 22.75"/></g><use xlink:href="#d" x="4.123" y="26.793"/><use xlink:href="#e" x="10.682" y="26.793"/></svg>