<svg xmlns="http://www.w3.org/2000/svg" xmlns:xlink="http://www.w3.org/1999/xlink" width="226.771" height="80.167"><defs><clipPath id="b"><path d="M106 48h39v31.344h-39Zm0 0"/></clipPath><clipPath id="c"><path d="M117 58h1v21.344h-1Zm0 0"/></clipPath><clipPath id="e"><path d="M1.05 27H32v25H1.05Zm0 0"/></clipPath><path id="a" d="M7.11-2.469c0-.187-.188-.187-.329-.187h-2.75v-2.766c0-.14 0-.328-.203-.328-.187 0-.187.188-.187.328v2.766H.875c-.14 0-.328 0-.328.187 0 .203.187.203.328.203h2.766V.5c0 .125 0 .313.187.313.203 0 .203-.188.203-.313v-2.766h2.75c.14 0 .328 0 .328-.203m0 0"/><path id="d" d="M4.922-2.516v-.218H0v.218Zm0 0"/></defs><path fill="none" stroke="#000" stroke-linejoin="bevel" stroke-miterlimit="10" stroke-width=".7888068400000001" d="M42.84 23.566c3.254 0 5.89 1.801 5.89 4.028 0 2.222-2.636 4.023-5.89 4.023 3.254 0 5.89 1.805 5.89 4.028 0 2.222-2.636 4.027-5.89 4.027 3.254 0 5.89 1.8 5.89 4.027 0 2.223-2.636 4.024-5.89 4.024 3.254 0 5.89 1.804 5.89 4.027s-2.636 4.027-5.89 4.027M66.719 55.777c-3.254 0-5.89-1.804-5.89-4.027s2.636-4.027 5.89-4.027c-3.254 0-5.89-1.801-5.89-4.024 0-2.226 2.636-4.027 5.89-4.027-3.254 0-5.89-1.8-5.89-4.027 0-2.223 2.636-4.028 5.89-4.028-3.254 0-5.89-1.8-5.89-4.023 0-2.227 2.636-4.028 5.89-4.028"/><path fill="none" stroke="#000" stroke-miterlimit="10" stroke-width=".39489828000000005" d="M25.32 10.215h17.676V23.96m0 31.422v13.746H25.32m58.918-58.914H66.562V23.96m0 31.422v13.746h17.676"/><path fill="none" stroke="#000" stroke-miterlimit="10" stroke-width=".7888068400000001" d="M56.254 54.402v-29.46m-2.945 29.46v-29.46"/><path fill="#FFF" stroke="#000" stroke-miterlimit="10" stroke-width=".39489828000000005" d="M26.89 10.215a1.57 1.57 0 1 0-3.14 0 1.57 1.57 0 0 0 3.14 0ZM26.89 69.129a1.57 1.57 0 1 0-3.14 0 1.57 1.57 0 0 0 3.14 0Zm0 0"/><path fill="none" stroke="#000" stroke-miterlimit="10" stroke-width=".39489828000000005" d="M84.238 10.215h33.32m15.712 0h53.91m0 0h20.59"/><path fill="none" stroke="#000" stroke-miterlimit="10" stroke-width=".7888068400000001" d="m117.559 10.215 15.71-9.82V20.03Zm0 0"/><path fill="none" stroke="#000" stroke-miterlimit="10" stroke-width=".39489828000000005" d="M117.559 10.215h15.71"/><path fill="none" stroke="#000" stroke-miterlimit="10" stroke-width=".7888068400000001" d="M117.559 20.031V.395"/><path stroke="#000" stroke-miterlimit="10" stroke-width=".39489828000000005" d="M168.164 10.215c0-.867-.703-1.57-1.574-1.57a1.57 1.57 0 0 0 0 3.14c.87 0 1.574-.703 1.574-1.57Zm0 0"/><path fill="#FFF" stroke="#000" stroke-miterlimit="10" stroke-width=".39489828000000005" d="M209.34 10.215a1.57 1.57 0 1 0-3.141 0 1.57 1.57 0 0 0 3.14 0Zm0 0"/><use xlink:href="#a" x="211.251" y="12.679"/><path fill="none" stroke="#000" stroke-miterlimit="10" stroke-width=".39489828000000005" d="M84.238 69.129h33.32m15.712 0h33.32V39.672m0 0V10.215"/><g clip-path="url(#b)"><path fill="none" stroke="#000" stroke-miterlimit="10" stroke-width=".7888068400000001" d="m117.559 69.129 15.71-9.82v19.64Zm0 0"/></g><path fill="none" stroke="#000" stroke-miterlimit="10" stroke-width=".39489828000000005" d="M117.559 69.129h15.71"/><g clip-path="url(#c)"><path fill="none" stroke="#000" stroke-miterlimit="10" stroke-width=".7888068400000001" d="M117.559 78.95V59.308"/></g><path fill="none" stroke="#000" stroke-miterlimit="10" stroke-width=".39489828000000005" d="M68.527 39.672h49.032m0 0h69.62m0 0h20.59"/><path stroke="#000" stroke-miterlimit="10" stroke-width=".39489828000000005" d="M70.098 39.672a1.57 1.57 0 1 0-3.141 0 1.57 1.57 0 0 0 3.14 0Zm0 0"/><path fill="#FFF" stroke="#000" stroke-miterlimit="10" stroke-width=".39489828000000005" d="M209.34 39.672a1.57 1.57 0 1 0-3.141 0 1.57 1.57 0 0 0 3.14 0Zm0 0"/><use xlink:href="#d" x="211.251" y="41.037"/><g clip-path="url(#e)"><path fill="none" stroke="#000" stroke-miterlimit="10" stroke-width=".39489828000000005" d="M1.25 39.672c2.012-3.164 3.941-6.176 6.176-6.176 2.234 0 4.164 3.012 6.176 6.176 2.011 3.164 3.941 6.176 6.175 6.176 2.239 0 4.164-3.012 6.176-6.176"/></g></svg>