<svg xmlns="http://www.w3.org/2000/svg" xmlns:xlink="http://www.w3.org/1999/xlink" width="226.773" height="76.57"><defs><path id="b" d="M7.11 0v-.312h-.188c-.594 0-.734-.063-.844-.391l-2.14-6.188c-.047-.14-.063-.203-.22-.203-.155 0-.187.063-.234.203L1.422-.969c-.172.5-.563.657-1.11.657V0l1.016-.031L2.468 0v-.312c-.5 0-.75-.25-.75-.5 0-.032.016-.125.032-.141l.453-1.313h2.438L5.17-.75a.58.58 0 0 1 .032.14c0 .298-.562.298-.828.298V0c.36-.031 1.047-.031 1.438-.031ZM4.53-2.562H2.313l1.109-3.22Zm0 0"/><path id="d" d="M6.453-1.812c0-.86-.812-1.61-1.922-1.72.969-.187 1.657-.827 1.657-1.562 0-.86-.922-1.672-2.204-1.672H.36v.313h.235c.765 0 .781.11.781.453v5.234c0 .344-.016.454-.781.454H.359V0h3.875c1.329 0 2.22-.875 2.22-1.812M5.22-5.094c0 .64-.485 1.469-1.578 1.469H2.203v-2.437c0-.329.016-.391.485-.391h1.218c.969 0 1.313.844 1.313 1.36m.234 3.266c0 .703-.516 1.516-1.531 1.516H2.687c-.468 0-.484-.063-.484-.391v-2.703h1.86c.984 0 1.39.922 1.39 1.578m0 0"/><path id="f" d="M8.406-2.953c0-.235-.203-.235-.375-.235H4.75v-3.28c0-.173 0-.376-.219-.376-.234 0-.234.203-.234.375v3.282H1.016c-.157 0-.375 0-.375.218 0 .219.203.219.375.219h3.28V.531c0 .172 0 .39.22.39.234 0 .234-.202.234-.39V-2.75h3.281c.156 0 .375 0 .375-.203m0 0"/><path id="h" d="M4.125-1.578h-.25c-.016.11-.094.64-.203.781-.063.078-.672.078-.86.078H1.235l.875-.828c1.47-1.265 2.016-1.75 2.016-2.656 0-1.031-.844-1.734-1.953-1.734-1.016 0-1.719.812-1.719 1.625 0 .437.39.484.469.484.187 0 .469-.14.469-.469 0-.266-.188-.453-.47-.453H.813a1.354 1.354 0 0 1 1.266-.922c.906 0 1.219.86 1.219 1.469 0 .906-.688 1.656-1.11 2.11L.548-.329C.453-.218.453-.203.453 0h3.422Zm0 0"/><path id="i" d="M4.188-1.516c0-.78-.61-1.437-1.47-1.625.829-.312 1.22-.968 1.22-1.578 0-.687-.75-1.218-1.688-1.218-.922 0-1.61.515-1.61 1.203 0 .297.188.453.454.453.25 0 .437-.172.437-.438 0-.312-.203-.453-.515-.453.234-.375.78-.547 1.218-.547.735 0 .875.594.875 1.016 0 .266-.046.687-.265 1.031-.281.39-.594.422-.86.438-.218.015-.234.015-.312.015-.078 0-.14.016-.14.11 0 .125.062.125.218.125h.422c.765 0 1.11.625 1.11 1.468 0 1.141-.61 1.47-1.063 1.47-.172 0-1.031-.048-1.438-.72.328.047.578-.171.578-.468a.468.468 0 0 0-.484-.485c-.219 0-.484.125-.484.5C.39-.422 1.219.203 2.25.203c1.11 0 1.938-.812 1.938-1.719m0 0"/><path id="j" d="M4.219-2.86c0-.593-.032-1.359-.344-2.03-.39-.844-1.062-1.048-1.578-1.048-.547 0-1.219.204-1.61 1.063C.408-4.25.36-3.531.36-2.859c0 .578.016 1.453.407 2.156.406.75 1.109.906 1.515.906.578 0 1.25-.25 1.625-1.078.266-.594.313-1.266.313-1.984m-.766-.109c0 .563 0 1.313-.094 1.828C3.172-.109 2.516-.03 2.297-.03c-.266 0-.906-.125-1.078-1.125-.094-.532-.094-1.297-.094-1.813 0-.594 0-1.312.11-1.797.171-.796.75-.953 1.046-.953.344 0 .906.172 1.078 1.016.094.484.094 1.172.094 1.734m0 0"/><path id="k" d="M6.688-5.812v-.282c-.313.032-.563.032-.875.032l-1-.032v.282c.437 0 .64.203.64.437 0 .078-.016.094-.047.188L3.703-.86 1.922-5.375c-.047-.11-.047-.172-.047-.172 0-.266.453-.266.719-.266v-.28c-.406.03-.86.03-1.266.03l-1.156-.03v.28c.656 0 .75.032.875.344L3.219 0c.047.14.078.203.219.203.14 0 .171-.062.218-.187L5.72-5.22c.187-.468.547-.593.968-.593m0 0"/><clipPath id="a"><path d="M19 62h15v14.14H19Zm0 0"/></clipPath><clipPath id="c"><path d="M201 62h15v14.14h-15Zm0 0"/></clipPath><clipPath id="e"><path d="M160 62h15v14.14h-15Zm0 0"/></clipPath><clipPath id="g"><path d="M.52 38H33v24H.52Zm0 0"/></clipPath></defs><path fill="none" stroke="#000" stroke-linejoin="bevel" stroke-miterlimit="10" stroke-width=".79255274" d="M43.887 23.68c3.265 0 5.918 1.808 5.918 4.043 0 2.234-2.653 4.047-5.918 4.047 3.265 0 5.918 1.812 5.918 4.046 0 2.235-2.653 4.043-5.918 4.043 3.265 0 5.918 1.813 5.918 4.047 0 2.235-2.653 4.043-5.918 4.043 3.265 0 5.918 1.813 5.918 4.047s-2.653 4.047-5.918 4.047M67.879 56.043c-3.27 0-5.918-1.813-5.918-4.047s2.648-4.047 5.918-4.047c-3.27 0-5.918-1.808-5.918-4.043 0-2.234 2.648-4.047 5.918-4.047-3.27 0-5.918-1.808-5.918-4.043 0-2.234 2.648-4.046 5.918-4.046-3.27 0-5.918-1.813-5.918-4.047 0-2.235 2.648-4.043 5.918-4.043"/><path fill="none" stroke="#000" stroke-miterlimit="10" stroke-width=".39677358" d="M26.285 10.262h17.758v13.812m0 31.57v13.813H26.285M85.48 10.262H67.723v13.812m0 31.57v13.813H85.48"/><path fill="none" stroke="#000" stroke-miterlimit="10" stroke-width=".79255274" d="M57.363 54.66V25.062m-2.96 29.598V25.062"/><path fill="#FFF" stroke="#000" stroke-miterlimit="10" stroke-width=".39677358" d="M27.863 10.262a1.579 1.579 0 1 0-3.157 0 1.579 1.579 0 0 0 3.157 0Zm0 0"/><path fill="#FFF" d="M27.863 69.457a1.579 1.579 0 1 0-3.157.001 1.579 1.579 0 0 0 3.157-.001m0 0"/><g clip-path="url(#a)"><path fill="none" stroke="#000" stroke-miterlimit="10" stroke-width=".39677358" d="M27.863 69.457a1.579 1.579 0 1 0-3.157.001 1.579 1.579 0 0 0 3.157-.001Zm0 0"/></g><path fill="none" stroke="#000" stroke-miterlimit="10" stroke-width=".39677358" d="M85.48 10.262h33.114m15.785 0h33.113"/><path fill="none" stroke="#000" stroke-miterlimit="10" stroke-width=".79255274" d="M134.379 10.262 118.594.395v19.734Zm0 0"/><path fill="none" stroke="#000" stroke-miterlimit="10" stroke-width=".39677358" d="M134.379 10.262h-15.785"/><path fill="none" stroke="#000" stroke-miterlimit="10" stroke-width=".79255274" d="M134.379 20.129V.395"/><path stroke="#000" stroke-miterlimit="10" stroke-width=".39677358" d="M169.07 10.262a1.579 1.579 0 1 0-3.157 0 1.579 1.579 0 0 0 3.157 0Zm0 0"/><path fill="none" stroke="#000" stroke-miterlimit="10" stroke-width=".39677358" d="M167.492 10.262h20.504m0 0h20.5"/><path fill="#FFF" stroke="#000" stroke-miterlimit="10" stroke-width=".39677358" d="M210.074 10.262a1.579 1.579 0 1 0-3.157 0 1.579 1.579 0 0 0 3.157 0Zm0 0"/><use xlink:href="#b" x="211.996" y="13.809"/><path fill="none" stroke="#000" stroke-miterlimit="10" stroke-width=".39677358" d="M85.48 69.457h41.004m0 0h61.512m0 0h20.5"/><path fill="#FFF" d="M210.074 69.457a1.579 1.579 0 1 0-3.157.001 1.579 1.579 0 0 0 3.157-.001m0 0"/><g clip-path="url(#c)"><path fill="none" stroke="#000" stroke-miterlimit="10" stroke-width=".39677358" d="M210.074 69.457a1.579 1.579 0 1 0-3.157.001 1.579 1.579 0 0 0 3.157-.001Zm0 0"/></g><use xlink:href="#d" x="211.996" y="72.84"/><path fill="none" stroke="#000" stroke-miterlimit="10" stroke-width=".39677358" d="M167.492 10.262v25.652m0 7.89v25.653"/><path fill="none" stroke="#000" stroke-miterlimit="10" stroke-width=".79255274" d="M179.332 35.914h-23.68m23.68 7.89h-23.68"/><path d="M169.07 69.457a1.579 1.579 0 1 0-3.157.001 1.579 1.579 0 0 0 3.157-.001m0 0"/><g clip-path="url(#e)"><path fill="none" stroke="#000" stroke-miterlimit="10" stroke-width=".39677358" d="M169.07 69.457a1.579 1.579 0 1 0-3.157.001 1.579 1.579 0 0 0 3.157-.001Zm0 0"/></g><use xlink:href="#f" x="151.122" y="31.498"/><g clip-path="url(#g)"><path fill="none" stroke="#000" stroke-miterlimit="10" stroke-width=".39677358" d="M2.574 50.113c2.004-3.152 3.926-6.152 6.153-6.152 2.226 0 4.144 3 6.148 6.152 2.008 3.149 3.926 6.149 6.152 6.149 2.227 0 4.145-3 6.149-6.149"/></g><use xlink:href="#h" x="3.823" y="32.555"/><use xlink:href="#i" x="8.406" y="32.555"/><use xlink:href="#j" x="12.989" y="32.555"/><use xlink:href="#k" x="19.052" y="32.555"/></svg>