<svg xmlns="http://www.w3.org/2000/svg" xmlns:xlink="http://www.w3.org/1999/xlink" width="114.671" height="108.728"><defs><path id="a" d="M7-3.656v-.297H0v.297Zm0 0"/><path id="b" d="m7.938-4.156-.188-.235c-.703.579-1.469 1.016-2.203 1.016-.563 0-.984-.25-1.484-.531-.407-.25-.86-.485-1.422-.485-.36 0-.735.11-1.047.25-.297.141-.578.313-.828.5L0-3l.203.234C.906-3.344 1.656-3.78 2.391-3.78c.578 0 .984.25 1.484.531.422.25.86.484 1.438.484.359 0 .734-.109 1.046-.25a5.4 5.4 0 0 0 .813-.5Zm0 0"/><path id="c" d="M10.125-3.562c0-.266-.25-.266-.469-.266H5.703v-3.953c0-.203 0-.469-.25-.469-.266 0-.266.25-.266.469v3.953H1.235c-.203 0-.468 0-.468.25 0 .265.25.265.468.265h3.954V.642c0 .203 0 .468.25.468.265 0 .265-.25.265-.468v-3.953h3.953c.203 0 .469 0 .469-.25m0 0"/></defs><path fill="none" stroke="#000" stroke-miterlimit="10" stroke-width=".39785886000000004" d="m55.52 97.668 14.992-14.996m10.754-10.754 14.996-14.992L81.266 41.93M70.512 31.176 55.52 16.18 40.523 31.176M29.77 41.93 14.773 56.926 29.77 71.918m10.753 10.754L55.52 97.668"/><use xlink:href="#a" x="52.013" y="105.125"/><path fill="none" stroke="#000" stroke-miterlimit="10" stroke-width=".79472058" d="m81.266 71.918-17.477 4.035 13.445 13.442Zm0 0"/><path fill="none" stroke="#000" stroke-miterlimit="10" stroke-width=".39785886000000004" d="M81.266 71.918 70.512 82.672"/><path fill="none" stroke="#000" stroke-miterlimit="10" stroke-width=".79472058" d="M87.988 78.64 74.547 65.196"/><path stroke="#000" stroke-miterlimit="10" stroke-width=".39785886000000004" d="M97.844 56.926c0-.875-.707-1.586-1.582-1.586a1.584 1.584 0 0 0 0 3.168c.875 0 1.582-.711 1.582-1.582Zm0 0"/><use xlink:href="#b" x="99.771" y="59.12"/><path fill="none" stroke="#000" stroke-miterlimit="10" stroke-width=".79472058" d="m70.512 31.176 4.035 17.476 13.441-13.445Zm0 0"/><path fill="none" stroke="#000" stroke-miterlimit="10" stroke-width=".39785886000000004" d="M70.512 31.176 81.266 41.93"/><path fill="none" stroke="#000" stroke-miterlimit="10" stroke-width=".79472058" d="M77.234 24.453 63.79 37.898"/><path stroke="#000" stroke-miterlimit="10" stroke-width=".39785886000000004" d="M57.102 16.18a1.583 1.583 0 1 0-3.166.001 1.583 1.583 0 0 0 3.166-.001Zm0 0"/><use xlink:href="#c" x="50.067" y="11.571"/><path fill="none" stroke="#000" stroke-miterlimit="10" stroke-width=".79472058" d="m40.523 31.176-4.03 17.476-13.446-13.445Zm0 0"/><path fill="none" stroke="#000" stroke-miterlimit="10" stroke-width=".39785886000000004" d="M40.523 31.176 29.77 41.93"/><path fill="none" stroke="#000" stroke-miterlimit="10" stroke-width=".79472058" d="m33.8 24.453 13.446 13.445"/><path stroke="#000" stroke-miterlimit="10" stroke-width=".39785886000000004" d="M16.355 56.926c0-.875-.707-1.586-1.582-1.586a1.584 1.584 0 0 0 0 3.168c.875 0 1.582-.711 1.582-1.582Zm0 0"/><use xlink:href="#b" x="3.311" y="59.12"/><path fill="none" stroke="#000" stroke-miterlimit="10" stroke-width=".79472058" d="m29.77 71.918 17.476 4.035-13.445 13.442Zm0 0"/><path fill="none" stroke="#000" stroke-miterlimit="10" stroke-width=".39785886000000004" d="m29.77 71.918 10.753 10.754"/><path fill="none" stroke="#000" stroke-miterlimit="10" stroke-width=".79472058" d="m23.047 78.64 13.445-13.445"/><path stroke="#000" stroke-miterlimit="10" stroke-width=".39785886000000004" d="M57.102 97.668a1.583 1.583 0 1 0-3.166.002 1.583 1.583 0 0 0 3.166-.002Zm0 0"/></svg>