<svg xmlns="http://www.w3.org/2000/svg" xmlns:xlink="http://www.w3.org/1999/xlink" width="222.709" height="185.47"><defs><path id="a" d="M3.719-6.016c.094-.359.11-.468.906-.468.234 0 .313 0 .313-.188 0-.11-.11-.11-.141-.11-.297 0-1.031.032-1.313.032-.296 0-1.03-.031-1.328-.031-.062 0-.203 0-.203.187 0 .11.094.11.281.11.422 0 .688 0 .688.187 0 .063 0 .078-.016.172L1.562-.781c-.093.375-.125.469-.906.469-.234 0-.312 0-.312.203 0 .109.11.109.14.109C.781 0 1.5-.031 1.781-.031c.313 0 1.047.031 1.344.031.078 0 .188 0 .188-.187 0-.125-.079-.125-.297-.125-.172 0-.22 0-.422-.016-.203-.016-.25-.063-.25-.172a.5.5 0 0 1 .047-.219Zm0 0"/><path id="o" d="M6.313-5.75c.093-.406.28-.703 1.078-.734.046 0 .156 0 .156-.188 0-.016 0-.11-.125-.11-.328 0-.672.032-1.016.032-.328 0-.703-.031-1.031-.031-.062 0-.172 0-.172.187 0 .11.094.11.172.11.563.015.672.218.672.437 0 .031-.016.188-.031.219l-.891 3.547C4.797-.953 3.641-.094 2.656-.094c-.672 0-1.219-.437-1.219-1.281 0-.031 0-.344.11-.781l.969-3.86c.093-.359.109-.468.828-.468.265 0 .344 0 .344-.188 0-.11-.11-.11-.141-.11-.281 0-1 .032-1.266.032-.297 0-1-.031-1.281-.031-.078 0-.187 0-.187.187 0 .11.078.11.265.11.031 0 .219 0 .375.03.188.016.281.032.281.157 0 .063-.109.469-.171.703l-.22.875c-.093.39-.562 2.266-.609 2.453-.062.282-.062.422-.062.579 0 1.203.89 1.906 1.937 1.906 1.25 0 2.485-1.125 2.813-2.438Zm0 0"/><path id="b" d="M4.156 0v-.312h-.312c-.89 0-.922-.11-.922-.47v-5.577c0-.235 0-.266-.235-.266-.609.64-1.484.64-1.796.64v.313c.187 0 .78 0 1.297-.266V-.78c0 .36-.032.469-.922.469H.938V0c.359-.031 1.218-.031 1.609-.031.406 0 1.265 0 1.61.031m0 0"/><path id="c" d="M7.125 0v-.312h-.172c-.61 0-.734-.063-.844-.391L3.953-6.922c-.047-.125-.062-.187-.219-.187-.171 0-.203.046-.25.187L1.438-.969c-.188.5-.579.657-1.125.657V0l1.015-.031L2.468 0v-.312c-.484 0-.734-.25-.734-.5 0-.032 0-.125.016-.157l.453-1.297h2.453L5.188-.75a.58.58 0 0 1 .03.14c0 .298-.562.298-.827.298V0c.359-.031 1.062-.031 1.437-.031ZM4.547-2.578H2.313l1.109-3.219Zm0 0"/><path id="g" d="M4.578-3.187c0-.782-.062-1.579-.406-2.313-.453-.953-1.266-1.125-1.688-1.125-.593 0-1.328.266-1.734 1.188C.438-4.75.39-3.97.39-3.187c0 .75.032 1.64.438 2.406.438.797 1.156 1 1.64 1 .548 0 1.298-.203 1.735-1.156.313-.688.375-1.454.375-2.25m-.828-.11c0 .75 0 1.422-.11 2.047C3.485-.297 2.923 0 2.47 0c-.375 0-.969-.25-1.14-1.203-.11-.594-.11-1.516-.11-2.094 0-.64 0-1.297.078-1.828.187-1.187.922-1.281 1.172-1.281.328 0 .984.187 1.172 1.172.109.547.109 1.312.109 1.937m0 0"/><path id="h" d="M1.906-.531A.524.524 0 1 0 .86-.515a.524.524 0 0 0 1.047-.016m0 0"/><path id="i" d="M4.547-2.031c0-1.266-.89-2.219-2-2.219-.672 0-1.031.516-1.235.984V-3.5c0-2.516 1.235-2.875 1.735-2.875.25 0 .656.063.875.406-.14 0-.547 0-.547.438 0 .312.25.468.453.468.172 0 .469-.093.469-.484 0-.594-.438-1.078-1.266-1.078-1.265 0-2.61 1.281-2.61 3.484C.422-.484 1.564.22 2.5.22c1.094 0 2.047-.938 2.047-2.25m-.906 0c0 .469 0 .969-.157 1.328-.296.594-.765.64-.984.64-.625 0-.937-.593-.984-.75-.188-.453-.188-1.25-.188-1.437 0-.766.328-1.766 1.219-1.766.156 0 .61 0 .922.61.172.375.172.875.172 1.375m0 0"/><path id="j" d="M7.25-6.484v-.297c-.297.015-.703.031-.953.031l-1.14-.031v.297c.515.015.734.265.734.5 0 .078-.032.14-.063.203L4.016-1 2.109-6.016c-.046-.14-.046-.171-.046-.171 0-.297.562-.297.812-.297v-.297c-.36.031-1.047.031-1.422.031L.188-6.781v.297c.64 0 .843 0 .968.375L3.47 0c.062.188.125.219.25.219.172 0 .187-.047.234-.188l2.219-5.843c.14-.375.406-.657 1.078-.672m0 0"/><path id="p" d="M4.547-1.703c0-.813-.625-1.594-1.672-1.797.828-.266 1.39-.969 1.39-1.75 0-.812-.859-1.375-1.827-1.375-1 0-1.75.61-1.75 1.36 0 .327.218.515.5.515.312 0 .515-.219.515-.5 0-.5-.469-.5-.625-.5.313-.484.969-.625 1.328-.625.406 0 .953.219.953 1.125 0 .11-.015.688-.28 1.125-.298.484-.642.5-.876.516a3.9 3.9 0 0 1-.39.03c-.079.017-.157.017-.157.126 0 .11.078.11.235.11h.437c.828 0 1.188.671 1.188 1.64 0 1.36-.688 1.64-1.125 1.64-.422 0-1.172-.171-1.516-.75.344.047.656-.171.656-.546 0-.36-.265-.563-.562-.563-.235 0-.547.14-.547.578 0 .907.922 1.563 2 1.563 1.219 0 2.125-.906 2.125-1.922m0 0"/><path id="q" d="M4.953-1.844c0-1-.656-1.812-1.484-2.015l-1.266-.297a1.308 1.308 0 0 1-1.015-1.266A1.3 1.3 0 0 1 2.5-6.734c1.656 0 1.875 1.64 1.938 2.078.015.062.015.125.125.125.125 0 .125-.047.125-.235v-2c0-.171 0-.234-.11-.234-.062 0-.078 0-.14.125l-.36.563C3.781-6.594 3.375-7 2.5-7 1.39-7 .563-6.125.563-5.078a1.9 1.9 0 0 0 1.296 1.812c.11.047.61.172 1.313.329.265.078.562.14.844.515.203.25.312.578.312.906 0 .704-.5 1.422-1.344 1.422-.28 0-1.03-.047-1.562-.531-.578-.531-.61-1.172-.61-1.531C.798-2.25.72-2.25.688-2.25c-.125 0-.125.063-.125.25v1.984c0 .172 0 .235.11.235.062 0 .078-.016.14-.125 0 0 .032-.047.36-.578.312.343.937.703 1.828.703 1.156 0 1.953-.969 1.953-2.063m0 0"/><path id="r" d="M3.297-1.234v-.563h-.25v.547c0 .734-.297 1.11-.656 1.11-.672 0-.672-.907-.672-1.079v-2.75H3.14v-.312H1.719V-6.11h-.25c-.016.812-.313 1.875-1.281 1.922v.218h.843v2.735c0 1.218.922 1.343 1.282 1.343.703 0 .984-.703.984-1.343m0 0"/><clipPath id="d"><path d="M.172 49H25v6H.172Zm0 0"/></clipPath><clipPath id="e"><path d="M.172 82H25v5H.172Zm0 0"/></clipPath><clipPath id="f"><path d="M.172 146H25v6H.172Zm0 0"/></clipPath><clipPath id="k"><path d="M183 174h15v10.941h-15Zm0 0"/></clipPath><clipPath id="l"><path d="M70 174h15v10.941H70Zm0 0"/></clipPath><clipPath id="m"><path d="M102 174h15v10.941h-15Zm0 0"/></clipPath><clipPath id="n"><path d="M134 174h16v10.941h-16Zm0 0"/></clipPath></defs><path fill="none" stroke="#000" stroke-miterlimit="10" stroke-width=".39786285" d="M190.762 3.309h8.105m0 0h8.106V76.64m0 31.656v73.332h-8.106m0 0h-8.105"/><path fill="none" stroke="#000" stroke-miterlimit="10" stroke-width=".79472855" d="M201.04 108.297V76.64h11.87v31.656Zm0 0"/><path stroke="#000" stroke-miterlimit="10" stroke-width=".39786285" d="M206.973 143.234h-1.977l1.977 4.203 1.98-4.203Zm0 0"/><use xlink:href="#a" x="210.481" y="148.359"/><path fill="none" stroke="#000" stroke-miterlimit="10" stroke-width=".39786285" d="M12.441 3.309v16.21m0 0v26.489m0 11.87V78.43m0 11.87v10.274m0 32.422v10.277m0 11.872v18.378m0 0v8.106h89.16m0 0h89.16"/><path stroke="#000" stroke-miterlimit="10" stroke-width=".39786285" d="M12.441 21.25h1.977l-1.977-4.203-1.98 4.203Zm0 0"/><use xlink:href="#b" x="15.951" y="23.078"/><use xlink:href="#c" x="20.918" y="23.078"/><path fill="none" stroke="#000" stroke-miterlimit="10" stroke-width=".39786285" d="M12.441 53.902v3.977m0-7.895v-3.976"/><g clip-path="url(#d)"><path fill="none" stroke="#000" stroke-miterlimit="10" stroke-width=".79472855" d="M18.379 53.902H6.504m17.809-3.918H.57"/></g><path fill="none" stroke="#000" stroke-miterlimit="10" stroke-width=".39786285" d="M12.441 86.324v3.977m0-7.895V78.43"/><g clip-path="url(#e)"><path fill="none" stroke="#000" stroke-miterlimit="10" stroke-width=".79472855" d="M18.379 86.324H6.504m17.809-3.918H.57"/></g><path fill="none" stroke="#000" stroke-miterlimit="10" stroke-width=".39786285" d="M12.441 151.168v3.977m0-7.895v-3.977"/><g clip-path="url(#f)"><path fill="none" stroke="#000" stroke-miterlimit="10" stroke-width=".79472855" d="M18.379 151.168H6.504m17.809-3.918H.57"/></g><use xlink:href="#g" x="27.105" y="151.35"/><use xlink:href="#h" x="32.072" y="151.35"/><use xlink:href="#i" x="34.834" y="151.35"/><use xlink:href="#j" x="39.801" y="151.35"/><path fill="#FFF" d="M192.344 181.629a1.583 1.583 0 1 0-3.166.002 1.583 1.583 0 0 0 3.166-.002m0 0"/><g clip-path="url(#k)"><path fill="none" stroke="#000" stroke-miterlimit="10" stroke-width=".39786285" d="M192.344 181.629a1.583 1.583 0 1 0-3.166.002 1.583 1.583 0 0 0 3.166-.002Zm0 0"/></g><path fill="none" stroke="#000" stroke-dasharray="2.9803118345 2.9803118345" stroke-miterlimit="10" stroke-width=".39786285" d="M12.441 100.574v32.422"/><path fill="none" stroke="#000" stroke-miterlimit="10" stroke-width=".39786285" d="M77.285 3.309v16.21m0 0v26.489m0 11.87V78.43m0 11.87v10.274m0 32.422v10.277m0 11.872v18.378m0 0v8.106"/><path stroke="#000" stroke-miterlimit="10" stroke-width=".39786285" d="M78.867 3.309a1.58 1.58 0 0 0-1.582-1.583 1.58 1.58 0 0 0-1.582 1.583 1.58 1.58 0 0 0 1.582 1.582 1.58 1.58 0 0 0 1.582-1.582ZM77.285 21.25h1.98l-1.98-4.203-1.976 4.203Zm0 0"/><path fill="none" stroke="#000" stroke-miterlimit="10" stroke-width=".39786285" d="M77.285 53.902v3.977m0-7.895v-3.976"/><path fill="none" stroke="#000" stroke-miterlimit="10" stroke-width=".79472855" d="M83.223 53.902H71.348m17.808-3.918H65.414"/><path fill="none" stroke="#000" stroke-miterlimit="10" stroke-width=".39786285" d="M77.285 86.324v3.977m0-7.895V78.43"/><path fill="none" stroke="#000" stroke-miterlimit="10" stroke-width=".79472855" d="M83.223 86.324H71.348m17.808-3.918H65.414"/><path fill="none" stroke="#000" stroke-miterlimit="10" stroke-width=".39786285" d="M77.285 151.168v3.977m0-7.895v-3.977"/><path fill="none" stroke="#000" stroke-miterlimit="10" stroke-width=".79472855" d="M83.223 151.168H71.348m17.808-3.918H65.414"/><path d="M78.867 181.629a1.583 1.583 0 1 0-3.166.002 1.583 1.583 0 0 0 3.166-.002m0 0"/><g clip-path="url(#l)"><path fill="none" stroke="#000" stroke-miterlimit="10" stroke-width=".39786285" d="M78.867 181.629a1.583 1.583 0 1 0-3.166.002 1.583 1.583 0 0 0 3.166-.002Zm0 0"/></g><path fill="none" stroke="#000" stroke-dasharray="2.9803118345 2.9803118345" stroke-miterlimit="10" stroke-width=".39786285" d="M77.285 100.574v32.422"/><path fill="none" stroke="#000" stroke-miterlimit="10" stroke-width=".39786285" d="M109.707 3.309v16.21m0 0v26.489m0 11.87V78.43m0 11.87v10.274m0 32.422v10.277m0 11.872v18.378m0 0v8.106"/><path stroke="#000" stroke-miterlimit="10" stroke-width=".39786285" d="M111.29 3.309a1.58 1.58 0 0 0-1.583-1.583 1.58 1.58 0 0 0-1.582 1.583 1.58 1.58 0 0 0 1.582 1.582 1.58 1.58 0 0 0 1.582-1.582ZM109.707 21.25h1.98l-1.98-4.203-1.976 4.203Zm0 0"/><path fill="none" stroke="#000" stroke-miterlimit="10" stroke-width=".39786285" d="M109.707 53.902v3.977m0-7.895v-3.976"/><path fill="none" stroke="#000" stroke-miterlimit="10" stroke-width=".79472855" d="M115.645 53.902h-11.872m17.805-3.918H97.836"/><path fill="none" stroke="#000" stroke-miterlimit="10" stroke-width=".39786285" d="M109.707 86.324v3.977m0-7.895V78.43"/><path fill="none" stroke="#000" stroke-miterlimit="10" stroke-width=".79472855" d="M115.645 86.324h-11.872m17.805-3.918H97.836"/><path fill="none" stroke="#000" stroke-miterlimit="10" stroke-width=".39786285" d="M109.707 151.168v3.977m0-7.895v-3.977"/><path fill="none" stroke="#000" stroke-miterlimit="10" stroke-width=".79472855" d="M115.645 151.168h-11.872m17.805-3.918H97.836"/><path d="M111.29 181.629a1.583 1.583 0 1 0-3.167.002 1.583 1.583 0 0 0 3.166-.002m0 0"/><g clip-path="url(#m)"><path fill="none" stroke="#000" stroke-miterlimit="10" stroke-width=".39786285" d="M111.29 181.629a1.583 1.583 0 1 0-3.167.002 1.583 1.583 0 0 0 3.166-.002Zm0 0"/></g><path fill="none" stroke="#000" stroke-dasharray="2.9803118345 2.9803118345" stroke-miterlimit="10" stroke-width=".39786285" d="M109.707 100.574v32.422"/><path fill="none" stroke="#000" stroke-miterlimit="10" stroke-width=".39786285" d="M142.129 3.309v16.21m0 0v26.489m0 11.87V78.43m0 11.87v10.274m0 32.422v10.277m0 11.872v18.378m0 0v8.106"/><path stroke="#000" stroke-miterlimit="10" stroke-width=".39786285" d="M143.711 3.309a1.58 1.58 0 0 0-1.582-1.583 1.58 1.58 0 0 0-1.582 1.583 1.58 1.58 0 0 0 1.582 1.582 1.58 1.58 0 0 0 1.582-1.582ZM142.129 21.25h1.98l-1.98-4.203-1.977 4.203Zm0 0"/><path fill="none" stroke="#000" stroke-miterlimit="10" stroke-width=".39786285" d="M142.129 53.902v3.977m0-7.895v-3.976"/><path fill="none" stroke="#000" stroke-miterlimit="10" stroke-width=".79472855" d="M148.066 53.902h-11.87M154 49.984h-23.742"/><path fill="none" stroke="#000" stroke-miterlimit="10" stroke-width=".39786285" d="M142.129 86.324v3.977m0-7.895V78.43"/><path fill="none" stroke="#000" stroke-miterlimit="10" stroke-width=".79472855" d="M148.066 86.324h-11.87M154 82.406h-23.742"/><path fill="none" stroke="#000" stroke-miterlimit="10" stroke-width=".39786285" d="M142.129 151.168v3.977m0-7.895v-3.977"/><path fill="none" stroke="#000" stroke-miterlimit="10" stroke-width=".79472855" d="M148.066 151.168h-11.87M154 147.25h-23.742"/><path d="M143.71 181.629a1.583 1.583 0 1 0-3.165.002 1.583 1.583 0 0 0 3.166-.002m0 0"/><g clip-path="url(#n)"><path fill="none" stroke="#000" stroke-miterlimit="10" stroke-width=".39786285" d="M143.711 181.629a1.583 1.583 0 1 0-3.166.002 1.583 1.583 0 0 0 3.166-.002Zm0 0"/></g><path fill="none" stroke="#000" stroke-dasharray="2.9803118345 2.9803118345" stroke-miterlimit="10" stroke-width=".39786285" d="M142.129 100.574v32.422"/><path fill="none" stroke="#000" stroke-miterlimit="10" stroke-width=".39786285" d="M12.441 3.309h89.16m0 0h89.16"/><path fill="#FFF" stroke="#000" stroke-miterlimit="10" stroke-width=".39786285" d="M192.344 3.309a1.58 1.58 0 0 0-1.582-1.583 1.58 1.58 0 0 0-1.582 1.583 1.58 1.58 0 0 0 1.582 1.582 1.58 1.58 0 0 0 1.582-1.582Zm0 0"/><path fill="none" stroke="#000" stroke-miterlimit="10" stroke-width=".39786285" d="M190.762 13.035V92.47m0 0v79.433"/><path stroke="#000" stroke-miterlimit="10" stroke-width=".39786285" d="M190.762 170.172h-1.977l1.977 4.207 1.98-4.207Zm0 0"/><use xlink:href="#o" x="177.101" y="95.865"/><use xlink:href="#p" x="25.682" y="120.18"/><use xlink:href="#g" x="30.649" y="120.18"/><use xlink:href="#q" x="38.925" y="120.18"/><use xlink:href="#r" x="44.448" y="120.18"/><use xlink:href="#h" x="48.313" y="120.18"/></svg>