<svg xmlns="http://www.w3.org/2000/svg" xmlns:xlink="http://www.w3.org/1999/xlink" width="226.792" height="192.494"><defs><path id="b" d="M4.469-2c0-1.187-.828-2.172-1.89-2.172-.485 0-.907.156-1.267.5v-1.937c.204.062.532.14.844.14 1.219 0 1.922-.906 1.922-1.047 0-.046-.031-.109-.11-.109 0 0-.03 0-.077.031a3.13 3.13 0 0 1-1.344.297c-.406 0-.86-.078-1.328-.281-.078-.031-.11-.031-.11-.031C1-6.61 1-6.531 1-6.375v2.953c0 .172 0 .25.14.25.079 0 .094-.031.126-.094.109-.156.484-.687 1.28-.687.532 0 .767.453.86.64.156.36.172.75.172 1.25 0 .344 0 .938-.234 1.36-.25.39-.61.64-1.063.64-.734 0-1.297-.53-1.469-1.109.032.016.063.016.172.016.329 0 .5-.25.5-.485a.48.48 0 0 0-.5-.484c-.14 0-.484.063-.484.531C.5-.75 1.188.22 2.297.22 3.453.219 4.469-.734 4.469-2m0 0"/><path id="c" d="M8.078 0v-.312c-.515 0-.765 0-.781-.297V-2.5c0-.86 0-1.172-.297-1.531-.14-.157-.469-.36-1.047-.36-.828 0-1.266.594-1.437.97-.141-.86-.875-.97-1.328-.97-.72 0-1.188.422-1.47 1.047V-4.39l-1.405.11v.312c.703 0 .78.063.78.547V-.75c0 .438-.109.438-.78.438V0l1.125-.031L2.547 0v-.312c-.656 0-.766 0-.766-.438v-1.828c0-1.047.703-1.594 1.344-1.594.625 0 .734.531.734 1.094V-.75c0 .438-.109.438-.78.438V0l1.124-.031L5.313 0v-.312c-.657 0-.766 0-.766-.438v-1.828c0-1.047.703-1.594 1.344-1.594.625 0 .734.531.734 1.094V-.75c0 .438-.11.438-.781.438V0l1.125-.031Zm0 0"/><path id="d" d="M3.578-1.266c0-.53-.297-.828-.422-.953-.328-.312-.719-.39-1.125-.469-.562-.109-1.219-.25-1.219-.828 0-.343.25-.75 1.11-.75 1.094 0 1.14.891 1.156 1.204.016.093.125.093.125.093.125 0 .125-.047.125-.234V-4.22c0-.156 0-.234-.11-.234-.046 0-.062 0-.202.125l-.157.156c-.39-.281-.796-.281-.937-.281-1.219 0-1.594.672-1.594 1.219 0 .359.156.625.422.843.328.266.594.329 1.313.47.218.03 1.03.187 1.03.905 0 .516-.343.907-1.109.907-.843 0-1.203-.563-1.39-1.407-.031-.14-.031-.171-.14-.171-.126 0-.126.062-.126.25v1.312c0 .172 0 .234.11.234C.484.11.5.094.688-.094.703-.109.703-.125.89-.312a1.51 1.51 0 0 0 1.093.421c1.141 0 1.594-.671 1.594-1.375m0 0"/><path id="e" d="M4.406-7.25a.207.207 0 0 0-.203-.203c-.14 0-.172.094-.203.203L.61 2.11c-.047.124-.047.171-.047.171 0 .11.078.203.187.203.14 0 .188-.093.219-.203l3.39-9.36c.047-.124.047-.171.047-.171m0 0"/><path id="f" d="M7.031-3.344c0-1.89-1.343-3.437-3.047-3.437H.344v.297h.25c.75 0 .781.109.781.468V-.78c0 .36-.031.469-.781.469h-.25V0h3.64c1.672 0 3.047-1.469 3.047-3.344m-1 0c0 1.11-.187 1.703-.547 2.188a2.192 2.192 0 0 1-1.765.843h-1c-.469 0-.5-.062-.5-.39v-5.375c0-.328.031-.406.5-.406h.984c.625 0 1.313.218 1.813.922.422.593.515 1.453.515 2.218m0 0"/><path id="g" d="M2.453 0v-.312c-.656 0-.687-.047-.687-.438v-3.64l-1.391.109v.312c.64 0 .734.047.734.547V-.75c0 .438-.109.438-.78.438V0l1.093-.031c.344 0 .687.015 1.031.031m-.547-6a.547.547 0 0 0-.531-.531A.536.536 0 0 0 .844-6c0 .266.234.531.531.531A.536.536 0 0 0 1.906-6m0 0"/><path id="h" d="M5.047-3.969v-.312c-.234.015-.516.031-.75.031l-.86-.031v.312c.376 0 .485.235.485.422 0 .094-.031.125-.063.235L2.844-.783l-1.11-2.765c-.062-.125-.062-.172-.062-.172 0-.25.39-.25.562-.25v-.312l-1.078.031c-.265 0-.672-.016-.968-.031v.312c.625 0 .671.047.796.36L2.422-.08c.047.142.078.188.203.188s.172-.093.203-.187l1.313-3.234c.078-.22.25-.657.906-.657m0 0"/><path id="i" d="M1.906-.531A.524.524 0 1 0 .86-.515a.524.524 0 0 0 1.047-.016m0 0"/><path id="q" d="M4.578-3.187c0-.782-.062-1.579-.406-2.313-.453-.953-1.266-1.125-1.688-1.125-.593 0-1.328.266-1.734 1.188C.438-4.75.39-3.97.39-3.187c0 .75.032 1.64.438 2.406.438.797 1.156 1 1.64 1 .548 0 1.298-.203 1.735-1.156.313-.688.375-1.454.375-2.25m-.828-.11c0 .75 0 1.422-.11 2.047C3.485-.297 2.923 0 2.47 0c-.375 0-.969-.25-1.14-1.203-.11-.594-.11-1.516-.11-2.094 0-.64 0-1.297.078-1.828.187-1.187.922-1.281 1.172-1.281.328 0 .984.187 1.172 1.172.109.547.109 1.312.109 1.937m0 0"/><path id="r" d="M7.25-6.484v-.297c-.297.015-.703.031-.953.031l-1.14-.031v.297c.515.015.734.265.734.5 0 .078-.032.14-.063.203L4.016-1 2.109-6.016c-.046-.14-.046-.171-.046-.171 0-.297.562-.297.812-.297v-.297c-.36.031-1.047.031-1.422.031L.188-6.781v.297c.64 0 .843 0 .968.375L3.47 0c.062.188.125.219.25.219.172 0 .187-.047.234-.188l2.219-5.843c.14-.375.406-.657 1.078-.672m0 0"/><path id="j" d="M-1.703-4.547c-.813 0-1.594.625-1.797 1.672-.266-.828-.969-1.39-1.75-1.39-.812 0-1.375.859-1.375 1.827 0 1 .61 1.75 1.36 1.75.327 0 .515-.218.515-.5 0-.312-.219-.515-.5-.515-.5 0-.5.469-.5.625-.484-.313-.625-.969-.625-1.328 0-.406.219-.953 1.125-.953.11 0 .688.015 1.125.28.484.298.5.642.516.876a3.9 3.9 0 0 1 .03.39c.017.079.017.157.126.157.11 0 .11-.078.11-.235v-.437c0-.828.671-1.188 1.64-1.188 1.36 0 1.64.688 1.64 1.125 0 .422-.171 1.172-.75 1.516.047-.344-.171-.656-.546-.656-.36 0-.563.265-.563.562 0 .235.14.547.578.547.907 0 1.563-.922 1.563-2 0-1.219-.906-2.125-1.922-2.125m0 0"/><path id="k" d="M-6.484-7.25h-.297c.015.297.031.703.031.953l-.031 1.14h.297c.015-.515.265-.734.5-.734.078 0 .14.032.203.063L-1-4.016l-5.016 1.907c-.14.046-.171.046-.171.046-.297 0-.297-.562-.297-.812h-.297c.031.36.031 1.047.031 1.422l-.031 1.266h.297c0-.641 0-.844.375-.97L0-3.468c.188-.062.219-.125.219-.25 0-.172-.047-.187-.188-.234l-5.843-2.219c-.375-.14-.657-.406-.672-1.078m0 0"/><path id="l" d="M-7.25-4.406a.207.207 0 0 0-.203.203c0 .14.094.172.203.203L2.11-.61a.594.594 0 0 0 .171.047c.11 0 .203-.078.203-.187 0-.14-.093-.187-.203-.219l-9.36-3.39c-.124-.047-.171-.047-.171-.047m0 0"/><path id="m" d="M-3.344-7.031c-1.89 0-3.437 1.343-3.437 3.047v3.64h.297v-.25c0-.75.109-.781.468-.781H-.78c.36 0 .469.031.469.781v.25H0v-3.64c0-1.672-1.469-3.047-3.344-3.047m0 1c1.11 0 1.703.187 2.188.547.265.203.843.765.843 1.765v1c0 .469-.062.5-.39.5h-5.375c-.328 0-.406-.031-.406-.5v-.984c0-.625.218-1.313.922-1.813.593-.421 1.453-.515 2.218-.515m0 0"/><path id="n" d="M0-2.453h-.312c0 .656-.047.687-.438.687h-3.64l.109 1.391h.312c0-.64.047-.734.547-.734H-.75c.438 0 .438.109.438.78H0l-.031-1.093c0-.344.015-.687.031-1.031m-6 .547a.547.547 0 0 0-.531.531c0 .328.281.531.531.531a.547.547 0 0 0 .531-.531A.536.536 0 0 0-6-1.906m0 0"/><path id="o" d="M-3.969-5.047h-.312c.015.234.031.516.031.75l-.031.86h.312c0-.376.235-.485.422-.485.094 0 .125.031.235.063l2.53 1.015-2.765 1.11c-.125.062-.172.062-.172.062-.25 0-.25-.39-.25-.562h-.312l.031 1.078c0 .265-.016.672-.031.968h.312c0-.624.047-.671.36-.796l3.53-1.438C.064-2.469.11-2.5.11-2.625s-.093-.172-.187-.203l-3.234-1.313c-.22-.078-.657-.25-.657-.906m0 0"/><path id="p" d="M-.531-1.906A.524.524 0 1 0-.515-.86a.524.524 0 0 0-.016-1.047m0 0"/><clipPath id="a"><path d="M2 5h224.39v75H2Zm0 0"/></clipPath></defs><path fill="none" stroke="#000" stroke-miterlimit="10" stroke-width=".39795462000000004" d="M24.66 169.594H222.29M24.66 141.364H222.29M24.66 113.128H222.29M24.66 84.895H222.29M24.66 56.665H222.29M24.66 28.43H222.29M24.66.207H222.29M24.66 169.594V.199m28.235 169.395V.199m28.23 169.395V.199m28.234 169.395V.199m28.23 169.395V.199m28.235 169.395V.199m28.235 169.395V.199m28.222 169.395V.199"/><g clip-path="url(#a)"><path fill="none" stroke="#000" stroke-miterlimit="10" stroke-width="1.58982372" d="m24.66 56.664 15.352-25.223c2.437-4.003 7.254-4.73 10.765-1.625l30.348 26.848L96.48 31.441c2.434-4.003 7.254-4.73 10.762-1.625l30.348 26.848 15.355-25.223c2.434-4.003 7.254-4.73 10.762-1.625l30.352 26.848 15.351-25.223c2.434-4.003 7.215-4.683 10.672-1.527l2.207 2.016"/></g><use xlink:href="#b" x="172.981" y="186.194"/><use xlink:href="#c" x="179.599" y="186.194"/><use xlink:href="#d" x="187.876" y="186.194"/><use xlink:href="#e" x="191.791" y="186.194"/><use xlink:href="#f" x="196.759" y="186.194"/><use xlink:href="#g" x="204.351" y="186.194"/><use xlink:href="#h" x="207.113" y="186.194"/><use xlink:href="#i" x="212.36" y="186.194"/><use xlink:href="#j" x="13.028" y="47.135"/><use xlink:href="#k" x="13.028" y="40.517"/><use xlink:href="#l" x="13.028" y="33.065"/><use xlink:href="#m" x="13.028" y="28.097"/><use xlink:href="#n" x="13.028" y="20.505"/><use xlink:href="#o" x="13.028" y="17.743"/><use xlink:href="#p" x="13.028" y="12.496"/><use xlink:href="#q" x="3.506" y="172.877"/><use xlink:href="#r" x="10.124" y="172.877"/></svg>