<svg xmlns="http://www.w3.org/2000/svg" xmlns:xlink="http://www.w3.org/1999/xlink" width="226.401" height="102.775"><defs><path id="a" d="m-2.875-5.516-.172.141c.406.484.703 1.016.703 1.516 0 .406-.172.687-.375 1.03-.156.298-.328.61-.328 1 0 .25.078.5.172.72.11.203.219.406.344.578l.437.531.172-.14c-.406-.485-.703-1.016-.703-1.516 0-.407.172-.688.375-1.031.156-.297.328-.61.328-1 0-.25-.078-.5-.172-.72-.11-.202-.219-.405-.344-.577Zm0 0"/><path id="b" d="M-.766-1.266-1.78-2.312C-3.156-3.86-3.703-4.47-4.688-4.47c-1.14 0-1.937.907-1.937 2.11 0 1.125.922 1.859 1.813 1.859.546 0 .546-.5.546-.531 0-.157-.109-.516-.53-.516a.513.513 0 0 0-.516.531c0 .079 0 .094.015.125-.64-.218-1.016-.765-1.016-1.328 0-.906.813-1.344 1.625-1.344.797 0 1.579.5 2.188 1.047L-.375-.609C-.265-.5-.235-.5 0-.5v-3.687l-1.734-.282v.25c.297.063.734.125.89.219.078.078.078.734.078.953Zm0 0"/><path id="c" d="M-3.5-2.875c-.266-.828-.969-1.39-1.75-1.39-.812 0-1.375.859-1.375 1.827 0 1 .61 1.75 1.36 1.75.327 0 .515-.218.515-.5 0-.312-.219-.515-.5-.515-.5 0-.5.469-.5.625-.484-.313-.625-.969-.625-1.328 0-.406.219-.953 1.125-.953.11 0 .688.015 1.125.28.484.298.5.642.516.876a3.9 3.9 0 0 1 .03.39c.017.079.017.157.126.157.11 0 .11-.078.11-.235v-.437c0-.828.671-1.188 1.64-1.188 1.36 0 1.64.688 1.64 1.125 0 .422-.171 1.172-.75 1.516.047-.344-.171-.656-.546-.656-.36 0-.563.265-.563.562 0 .235.14.547.578.547.907 0 1.563-.922 1.563-2 0-1.219-.906-2.125-1.922-2.125-.813 0-1.594.625-1.797 1.672m0 0"/><path id="d" d="M-3.187-4.578c-.782 0-1.579.062-2.313.406-.953.453-1.125 1.266-1.125 1.688 0 .593.266 1.328 1.188 1.734.687.313 1.468.36 2.25.36.75 0 1.64-.032 2.406-.438.797-.438 1-1.156 1-1.64 0-.548-.203-1.298-1.156-1.735-.688-.313-1.454-.375-2.25-.375M0-2.468c0 .374-.25.968-1.203 1.14-.594.11-1.516.11-2.094.11-.64 0-1.297 0-1.828-.079-1.187-.187-1.281-.922-1.281-1.172 0-.328.187-.984 1.172-1.172.547-.109 1.312-.109 1.937-.109.75 0 1.422 0 2.047.11C-.297-3.485 0-2.923 0-2.47m0 0"/><path id="e" d="M-5.812-6.172c-.375-.14-.657-.406-.672-1.078h-.297c.015.297.031.703.031.953 0 .297-.031.875-.031 1.14h.297c.015-.515.265-.734.5-.734.078 0 .14.032.203.063L-1-4.016l-5.016 1.907c-.14.046-.156.046-.171.046-.297 0-.297-.562-.297-.812h-.297c.031.36.031 1.047.031 1.422 0 .484-.031.906-.031 1.266h.297c0-.641 0-.844.375-.97L0-3.468c.188-.062.219-.125.219-.25 0-.172-.047-.187-.188-.234Zm0 0"/><path id="m" d="m5.516-2.875-.141-.172c-.484.406-1.016.703-1.516.703-.406 0-.687-.172-1.03-.375-.298-.156-.61-.328-1-.328-.25 0-.5.078-.72.172-.203.11-.406.219-.578.344L0-2.094l.14.172c.485-.406 1.016-.703 1.516-.703.407 0 .688.172 1.032.375.296.156.609.328 1 .328.25 0 .5-.078.718-.172.203-.11.407-.219.578-.344Zm0 0"/><path id="n" d="M7.172-2.484c0-.203-.203-.203-.328-.203H4.062V-5.47c0-.14 0-.328-.203-.328-.187 0-.187.188-.187.328v2.782H.89c-.141 0-.328 0-.328.203s.187.203.328.203h2.78V.5c0 .14 0 .328.188.328.204 0 .204-.187.204-.328v-2.781h2.78c.126 0 .329 0 .329-.203m0 0"/><path id="o" d="M4.953-2.531v-.219H0v.219Zm0 0"/><path id="p" d="M7.547-6.906c0-.032-.016-.094-.11-.094-.03 0-.03 0-.14.11l-.703.765C6.516-6.265 6.047-7 4.954-7 2.733-7 .5-4.812.5-2.5.5-.86 1.672.219 3.188.219c.859 0 1.624-.39 2.156-.86.922-.812 1.078-1.718 1.078-1.75 0-.093-.094-.093-.11-.093-.062 0-.109.015-.125.093-.093.297-.328 1-1.015 1.579-.688.546-1.313.718-1.828.718-.89 0-1.938-.515-1.938-2.062 0-.563.203-2.172 1.203-3.344.594-.703 1.532-1.203 2.422-1.203 1.016 0 1.594.766 1.594 1.922 0 .406-.031.406-.031.515 0 .094.11.094.156.094.125 0 .125-.016.172-.203Zm0 0"/><path id="q" d="M4.938-4.797c0-.031-.016-.094-.094-.094-.032 0-.047.016-.14.094l-.345.406c-.25-.375-.687-.5-1.125-.5-.968 0-1.843.797-1.843 1.594 0 .11.015.39.234.64.234.282.484.345.969.454.125.031.484.11.578.14.234.047.656.204.656.735 0 .562-.594 1.219-1.39 1.219-.61 0-1.344-.22-1.344-.985 0-.078.015-.234.047-.36v-.03c0-.094-.079-.094-.11-.094-.093 0-.11.016-.14.14L.547-.046C.53-.016.516.016.516.063c0 .03.03.078.109.078.031 0 .047-.016.14-.094.063-.094.25-.313.329-.39.36.406.906.484 1.328.484 1.047 0 1.89-.907 1.89-1.72 0-.312-.125-.593-.265-.75-.25-.25-.36-.28-1.25-.483-.14-.032-.375-.094-.438-.11-.171-.062-.468-.234-.468-.64 0-.547.625-1.11 1.343-1.11.75 0 1.11.438 1.11 1.094 0 .094-.032.25-.032.312 0 .094.094.094.125.094.11 0 .11-.031.141-.156Zm0 0"/><clipPath id="f"><path d="M213 33h12.805v16H213Zm0 0"/></clipPath><clipPath id="g"><path d="M219 99h4v3.527h-4Zm0 0"/></clipPath><clipPath id="h"><path d="M213 93h12.805v9.527H213Zm0 0"/></clipPath><clipPath id="i"><path d="M129 99h4v3.527h-4Zm0 0"/></clipPath><clipPath id="j"><path d="M124 93h15v9.527h-15Zm0 0"/></clipPath><clipPath id="k"><path d="M189 99h4v3.527h-4Zm0 0"/></clipPath><clipPath id="l"><path d="M183 93h16v9.527h-16Zm0 0"/></clipPath></defs><path fill="none" stroke="#000" stroke-linejoin="bevel" stroke-miterlimit="10" stroke-width=".7948959200000001" d="M20.387 24.094c3.457 0 6.258 1.91 6.258 4.27 0 2.359-2.801 4.269-6.258 4.269 3.457 0 6.258 1.914 6.258 4.27 0 2.359-2.801 4.269-6.258 4.269 3.457 0 6.258 1.914 6.258 4.27 0 2.359-2.801 4.269-6.258 4.269 3.457 0 6.258 1.914 6.258 4.27 0 2.359-2.801 4.269-6.258 4.269M45.727 58.25c-3.454 0-6.254-1.91-6.254-4.27 0-2.355 2.8-4.27 6.254-4.27-3.454 0-6.254-1.91-6.254-4.269 0-2.355 2.8-4.27 6.254-4.27-3.454 0-6.254-1.91-6.254-4.269 0-2.355 2.8-4.27 6.254-4.27-3.454 0-6.254-1.91-6.254-4.269 0-2.36 2.8-4.27 6.254-4.27"/><path fill="none" stroke="#000" stroke-miterlimit="10" stroke-width=".39794664" d="M1.781 9.895h18.766v14.597m0 33.36v14.597H1.78M64.332 9.895H45.566v14.597m0 33.36v14.597h18.766"/><path fill="none" stroke="#000" stroke-miterlimit="10" stroke-width=".7948959200000001" d="M34.621 56.812V25.535m-3.129 31.277V25.535"/><use xlink:href="#a" x="12.082" y="57.665"/><use xlink:href="#b" x="12.082" y="48.831"/><use xlink:href="#c" x="12.082" y="43.863"/><use xlink:href="#d" x="12.082" y="38.895"/><use xlink:href="#e" x="12.082" y="32.277"/><path fill="none" stroke="#000" stroke-miterlimit="10" stroke-width=".39794664" d="M1.781 9.895"/><path fill="#FFF" stroke="#000" stroke-miterlimit="10" stroke-width=".39794664" d="M3.363 9.895a1.583 1.583 0 1 0-3.166.001 1.583 1.583 0 0 0 3.166-.001Zm0 0"/><path fill="none" stroke="#000" stroke-miterlimit="10" stroke-width=".39794664" d="M1.781 72.45"/><path fill="#FFF" stroke="#000" stroke-miterlimit="10" stroke-width=".39794664" d="M3.363 72.45a1.58 1.58 0 0 0-1.582-1.583A1.58 1.58 0 0 0 .2 72.45a1.58 1.58 0 0 0 1.582 1.582 1.58 1.58 0 0 0 1.582-1.582Zm0 0"/><path fill="none" stroke="#000" stroke-miterlimit="10" stroke-width=".39794664" d="M64.332 9.895h11.172m0 0h11.172"/><path stroke="#000" stroke-miterlimit="10" stroke-width=".39794664" d="M88.258 9.895c0-.872-.711-1.582-1.582-1.582-.875 0-1.586.71-1.586 1.582 0 .875.71 1.585 1.586 1.585.87 0 1.582-.71 1.582-1.585Zm0 0"/><path fill="none" stroke="#000" stroke-miterlimit="10" stroke-width=".39794664" d="M64.332 72.45h11.172m0 0h11.172"/><path stroke="#000" stroke-miterlimit="10" stroke-width=".39794664" d="M88.258 72.45a1.583 1.583 0 1 0-3.166.001 1.583 1.583 0 0 0 3.166-.002Zm0 0"/><path fill="none" stroke="#000" stroke-miterlimit="10" stroke-width=".39794664" d="m86.676 9.895-9.145 9.601M66.027 31.574l-9.14 9.598 9.14 9.598m11.504 12.082 9.145 9.597"/><path fill="none" stroke="#000" stroke-miterlimit="10" stroke-width=".7948959200000001" d="m77.531 19.496-3.953 19.266-15.098-14.38Zm0 0"/><path fill="none" stroke="#000" stroke-miterlimit="10" stroke-width=".39794664" d="M77.531 19.496 66.027 31.574"/><path fill="none" stroke="#000" stroke-miterlimit="10" stroke-width=".7948959200000001" d="m69.984 12.305 15.098 14.379"/><path stroke="#000" stroke-miterlimit="10" stroke-width=".39794664" d="M58.469 41.172a1.58 1.58 0 0 0-1.582-1.582 1.58 1.58 0 0 0-1.582 1.582 1.58 1.58 0 0 0 1.582 1.582 1.58 1.58 0 0 0 1.582-1.582Zm0 0"/><path fill="none" stroke="#000" stroke-miterlimit="10" stroke-width=".7948959200000001" d="m77.531 62.852-3.953-19.27L58.48 57.961Zm0 0"/><path fill="none" stroke="#000" stroke-miterlimit="10" stroke-width=".39794664" d="M77.531 62.852 66.027 50.77"/><path fill="none" stroke="#000" stroke-miterlimit="10" stroke-width=".7948959200000001" d="m69.984 70.04 15.098-14.38"/><path fill="none" stroke="#000" stroke-miterlimit="10" stroke-width=".39794664" d="m86.676 9.895 9.14 9.601m11.504 12.078 9.14 9.598-9.14 9.598M95.816 62.852l-9.14 9.597"/><path fill="none" stroke="#000" stroke-miterlimit="10" stroke-width=".7948959200000001" d="m107.32 31.574-3.957-19.27-15.097 14.38Zm0 0"/><path fill="none" stroke="#000" stroke-miterlimit="10" stroke-width=".39794664" d="M107.32 31.574 95.816 19.496"/><path fill="none" stroke="#000" stroke-miterlimit="10" stroke-width=".7948959200000001" d="m99.77 38.762 15.097-14.38"/><path stroke="#000" stroke-miterlimit="10" stroke-width=".39794664" d="M118.043 41.172a1.58 1.58 0 0 0-1.582-1.582 1.58 1.58 0 0 0-1.582 1.582 1.58 1.58 0 0 0 1.582 1.582 1.58 1.58 0 0 0 1.582-1.582Zm0 0"/><path fill="none" stroke="#000" stroke-miterlimit="10" stroke-width=".7948959200000001" d="m107.32 50.77-3.957 19.27-15.097-14.38Zm0 0"/><path fill="none" stroke="#000" stroke-miterlimit="10" stroke-width=".39794664" d="M107.32 50.77 95.816 62.852"/><path fill="none" stroke="#000" stroke-miterlimit="10" stroke-width=".7948959200000001" d="m99.77 43.582 15.097 14.379"/><path fill="none" stroke="#000" stroke-miterlimit="10" stroke-width=".39794664" d="M116.46 41.172h7.446m0 0h20.555m33.363 0h28m0 0h14.89"/><path fill="none" stroke="#000" stroke-linejoin="bevel" stroke-miterlimit="10" stroke-width=".7948959200000001" d="M144.062 41.332c0-3.457 1.915-6.254 4.27-6.254 2.36 0 4.27 2.797 4.27 6.254 0-3.457 1.914-6.254 4.27-6.254 2.358 0 4.269 2.797 4.269 6.254 0-3.457 1.914-6.254 4.27-6.254 2.358 0 4.269 2.797 4.269 6.254 0-3.457 1.914-6.254 4.27-6.254 2.359 0 4.269 2.797 4.269 6.254"/><path fill="#FFF" d="M222.3 41.172a1.584 1.584 0 0 0-3.167 0 1.584 1.584 0 0 0 3.168 0m0 0"/><g clip-path="url(#f)"><path fill="none" stroke="#000" stroke-miterlimit="10" stroke-width=".39794664" d="M222.3 41.172a1.584 1.584 0 0 0-3.167 0 1.584 1.584 0 0 0 3.168 0Zm0 0"/></g><path fill="none" stroke="#000" stroke-miterlimit="10" stroke-width=".39794664" d="M56.887 41.172V70.96m0 0v29.785H94.12m0 0h67.02m0 0h44.683m0 0h14.89"/><g clip-path="url(#g)"><path fill="#FFF" d="M222.3 100.746a1.584 1.584 0 0 0-3.167 0 1.584 1.584 0 0 0 3.168 0m0 0"/></g><g clip-path="url(#h)"><path fill="none" stroke="#000" stroke-miterlimit="10" stroke-width=".39794664" d="M222.3 100.746a1.584 1.584 0 0 0-3.167 0 1.584 1.584 0 0 0 3.168 0Zm0 0"/></g><path fill="none" stroke="#000" stroke-miterlimit="10" stroke-width=".39794664" d="M131.355 41.172v25.617m0 8.34v25.617"/><path fill="none" stroke="#000" stroke-miterlimit="10" stroke-width=".7948959200000001" d="M143.867 66.79h-25.023m25.023 8.339h-25.023"/><path stroke="#000" stroke-miterlimit="10" stroke-width=".39794664" d="M132.937 41.172a1.58 1.58 0 0 0-1.582-1.582 1.58 1.58 0 0 0-1.582 1.582 1.58 1.58 0 0 0 1.582 1.582 1.58 1.58 0 0 0 1.582-1.582Zm0 0"/><g clip-path="url(#i)"><path d="M132.938 100.746a1.58 1.58 0 0 0-1.583-1.582 1.58 1.58 0 0 0-1.582 1.582 1.58 1.58 0 0 0 1.582 1.582 1.58 1.58 0 0 0 1.583-1.582m0 0"/></g><g clip-path="url(#j)"><path fill="none" stroke="#000" stroke-miterlimit="10" stroke-width=".39794664" d="M132.937 100.746a1.58 1.58 0 0 0-1.582-1.582 1.58 1.58 0 0 0-1.582 1.582 1.58 1.58 0 0 0 1.582 1.582 1.58 1.58 0 0 0 1.582-1.582Zm0 0"/></g><path fill="none" stroke="#000" stroke-miterlimit="10" stroke-width=".39794664" d="M190.93 41.172v25.617m0 8.34v25.617"/><path fill="none" stroke="#000" stroke-miterlimit="10" stroke-width=".7948959200000001" d="M203.441 66.79h-25.023m25.023 8.339h-25.023"/><path stroke="#000" stroke-miterlimit="10" stroke-width=".39794664" d="M192.512 41.172a1.58 1.58 0 0 0-1.582-1.582 1.58 1.58 0 0 0-1.582 1.582 1.58 1.58 0 0 0 1.582 1.582 1.58 1.58 0 0 0 1.582-1.582Zm0 0"/><g clip-path="url(#k)"><path d="M192.512 100.746a1.58 1.58 0 0 0-1.582-1.582 1.58 1.58 0 0 0-1.582 1.582 1.58 1.58 0 0 0 1.582 1.582 1.58 1.58 0 0 0 1.582-1.582m0 0"/></g><g clip-path="url(#l)"><path fill="none" stroke="#000" stroke-miterlimit="10" stroke-width=".39794664" d="M192.512 100.746a1.58 1.58 0 0 0-1.582-1.582 1.58 1.58 0 0 0-1.582 1.582 1.58 1.58 0 0 0 1.582 1.582 1.58 1.58 0 0 0 1.582-1.582Zm0 0"/></g><use xlink:href="#m" x="83.911" y="6.386"/><use xlink:href="#m" x="83.911" y="79.009"/><use xlink:href="#n" x="105.22" y="43.656"/><use xlink:href="#o" x="60.397" y="42.548"/><use xlink:href="#p" x="171.987" y="61.788"/><use xlink:href="#q" x="179.089" y="63.278"/></svg>