<svg xmlns="http://www.w3.org/2000/svg" xmlns:xlink="http://www.w3.org/1999/xlink" width="226.773" height="80.167"><defs><path id="a" d="M7.063 0v-.312H6.89c-.594 0-.735-.063-.844-.391L3.922-6.86c-.047-.125-.063-.203-.219-.203s-.187.062-.25.203L1.422-.97c-.172.5-.578.657-1.11.657V0l1.016-.031L2.453 0v-.312c-.484 0-.734-.235-.734-.5 0-.032 0-.125.015-.141l.454-1.297h2.437l.516 1.516a.373.373 0 0 1 .03.14c0 .282-.546.282-.812.282V0c.36-.031 1.047-.031 1.422-.031ZM4.515-2.547h-2.22l1.11-3.219Zm0 0"/><path id="b" d="M5.281 0v-.312c-.703 0-.781-.063-.781-.547v-3.5l-1.437.109v.313c.687 0 .765.062.765.546v1.75c0 .86-.469 1.532-1.203 1.532-.828 0-.86-.47-.86-.97v-3.28L.314-4.25v.313c.765 0 .765.015.765.906v1.469c0 .78 0 1.671 1.5 1.671.563 0 .985-.28 1.281-.89v.89Zm0 0"/><path id="c" d="M3.547-1.266c0-.515-.297-.812-.406-.937-.328-.313-.72-.39-1.125-.469-.563-.11-1.22-.234-1.22-.812 0-.344.266-.75 1.11-.75 1.078 0 1.125.89 1.157 1.203 0 .078.109.078.109.078.125 0 .125-.047.125-.235v-1c0-.156 0-.234-.11-.234-.046 0-.062 0-.187.125-.031.031-.125.125-.172.156-.375-.28-.781-.28-.922-.28-1.203 0-1.578.671-1.578 1.218 0 .344.156.625.422.844.313.25.594.312 1.297.453.219.031 1.031.187 1.031.906 0 .5-.344.89-1.11.89C1.142-.11.782-.671.595-1.515c-.031-.125-.047-.156-.14-.156-.126 0-.126.063-.126.25v1.297c0 .172 0 .234.11.234C.484.11.5.094.688-.094c.015-.015.015-.031.187-.218a1.51 1.51 0 0 0 1.094.421c1.125 0 1.578-.656 1.578-1.375m0 0"/><path id="d" d="M4.781-3.984a.485.485 0 0 0-.5-.485c-.203 0-.64.063-1.047.469a1.652 1.652 0 0 0-1.046-.36c-.922 0-1.594.688-1.594 1.438 0 .438.219.813.469 1.016-.141.156-.313.484-.313.828 0 .297.125.672.438.875C.594-.047.28.39.28.78c0 .703.969 1.25 2.172 1.25 1.172 0 2.188-.5 2.188-1.265C4.64.422 4.5-.094 4-.36c-.516-.282-1.094-.282-1.687-.282-.25 0-.672 0-.75-.015-.313-.031-.516-.344-.516-.656 0-.032 0-.266.172-.47.375.282.781.313.968.313.922 0 1.594-.687 1.594-1.437 0-.36-.156-.735-.406-.953.36-.344.719-.391.89-.391 0 0 .079 0 .11.016-.11.03-.172.14-.172.265 0 .156.14.281.297.281a.28.28 0 0 0 .281-.296M3.047-2.922c0 .266-.016.578-.156.828a.846.846 0 0 1-.703.39c-.86 0-.86-.983-.86-1.202 0-.266.016-.578.156-.828a.846.846 0 0 1 .704-.391c.859 0 .859.984.859 1.203M4.125.781c0 .532-.687 1.016-1.656 1.016-1 0-1.688-.5-1.688-1.016 0-.453.375-.828.813-.843h.578c.86 0 1.953 0 1.953.843m0 0"/><path id="e" d="M4.766-.875v-.547h-.25v.547c0 .563-.25.625-.36.625-.328 0-.36-.437-.36-.484V-2.72c0-.406 0-.797-.358-1.156-.376-.39-.876-.547-1.344-.547-.813 0-1.5.469-1.5 1.125 0 .297.203.453.469.453a.435.435 0 0 0 .453-.453c0-.11-.063-.437-.516-.453.266-.344.75-.453 1.078-.453.469 0 1.031.39 1.031 1.266v.359c-.5.031-1.187.062-1.812.36-.734.327-.984.843-.984 1.28C.313-.14 1.265.11 1.89.11 2.547.11 3-.28 3.188-.75c.03.39.296.813.765.813.203 0 .813-.141.813-.938m-1.657-.5c0 .938-.703 1.266-1.14 1.266-.485 0-.89-.344-.89-.844 0-.531.405-1.36 2.03-1.406Zm0 0"/><path id="f" d="M5.281 0v-.312c-.515 0-.765 0-.781-.282v-1.89c0-.844 0-1.157-.297-1.516-.14-.156-.469-.36-1.031-.36-.735 0-1.188.423-1.469 1.032V-4.36l-1.39.109v.313c.687 0 .765.062.765.546V-.75c0 .438-.11.438-.766.438V0l1.11-.031L2.532 0v-.312c-.657 0-.766 0-.766-.438v-1.812c0-1.032.703-1.579 1.328-1.579.625 0 .734.532.734 1.094V-.75c0 .438-.11.438-.765.438V0l1.109-.031Zm0 0"/><path id="i" d="M4.531-3.156c0-.781-.047-1.578-.39-2.313-.453-.937-1.266-1.093-1.672-1.093-.594 0-1.313.25-1.719 1.171-.312.672-.36 1.454-.36 2.235 0 .734.032 1.625.438 2.375.422.797 1.14 1 1.625 1 .531 0 1.281-.203 1.719-1.14.312-.688.36-1.454.36-2.235M2.453 0c-.375 0-.969-.25-1.14-1.187-.11-.594-.11-1.5-.11-2.079 0-.64 0-1.296.078-1.828.188-1.172.922-1.25 1.172-1.25.328 0 .985.172 1.172 1.14.094.563.094 1.313.094 1.938 0 .735 0 1.407-.11 2.032C3.453-.297 2.906 0 2.453 0m0 0"/><path id="j" d="M6.125-5.766c.14-.359.406-.656 1.078-.656v-.312c-.312.015-.703.03-.969.03a25.6 25.6 0 0 1-1.125-.03v.312c.516 0 .735.266.735.484 0 .079-.032.141-.063.204L3.984-.984 2.094-5.97c-.047-.14-.047-.156-.047-.172 0-.28.562-.28.797-.28v-.313c-.344.03-1.031.03-1.406.03-.47 0-.891-.015-1.25-.03v.312c.64 0 .828 0 .968.375L3.438 0c.078.188.124.219.25.219.171 0 .187-.047.234-.188Zm0 0"/><clipPath id="g"><path d="M90 48h39v31.344H90Zm0 0"/></clipPath><clipPath id="h"><path d="M101 58h2v21.344h-2Zm0 0"/></clipPath><clipPath id="k"><path d="M1.055 28H28v23H1.055Zm0 0"/></clipPath></defs><path fill="none" stroke="#000" stroke-linejoin="bevel" stroke-miterlimit="10" stroke-width=".7888068400000001" d="M34.047 23.566c3.254 0 5.89 1.801 5.89 4.028 0 2.222-2.636 4.023-5.89 4.023 3.254 0 5.89 1.805 5.89 4.028 0 2.222-2.636 4.027-5.89 4.027 3.254 0 5.89 1.8 5.89 4.027 0 2.223-2.636 4.024-5.89 4.024 3.254 0 5.89 1.804 5.89 4.027s-2.636 4.027-5.89 4.027M57.926 55.777c-3.25 0-5.89-1.804-5.89-4.027s2.64-4.027 5.89-4.027c-3.25 0-5.89-1.801-5.89-4.024 0-2.226 2.64-4.027 5.89-4.027-3.25 0-5.89-1.8-5.89-4.027 0-2.223 2.64-4.028 5.89-4.028-3.25 0-5.89-1.8-5.89-4.023 0-2.227 2.64-4.028 5.89-4.028"/><path fill="none" stroke="#000" stroke-miterlimit="10" stroke-width=".39489828000000005" d="M16.527 10.215h17.676V23.96m0 31.422v13.746H16.527m58.918-58.914H57.77V23.96m0 31.422v13.746h17.675"/><path fill="none" stroke="#000" stroke-miterlimit="10" stroke-width=".7888068400000001" d="M47.46 54.402v-29.46m-2.944 29.46v-29.46"/><path fill="#FFF" stroke="#000" stroke-miterlimit="10" stroke-width=".39489828000000005" d="M18.102 10.215c0-.867-.707-1.57-1.575-1.57a1.57 1.57 0 0 0 0 3.14c.868 0 1.575-.703 1.575-1.57ZM18.102 69.129c0-.867-.707-1.57-1.575-1.57a1.57 1.57 0 0 0 0 3.14c.868 0 1.575-.703 1.575-1.57Zm0 0"/><path fill="none" stroke="#000" stroke-miterlimit="10" stroke-width=".39489828000000005" d="M75.445 10.215h26.559m15.71 0h43.763m0 0h17.207"/><path fill="none" stroke="#000" stroke-miterlimit="10" stroke-width=".7888068400000001" d="m102.004 10.215 15.71-9.82V20.03Zm0 0"/><path fill="none" stroke="#000" stroke-miterlimit="10" stroke-width=".39489828000000005" d="M102.004 10.215h15.71"/><path fill="none" stroke="#000" stroke-miterlimit="10" stroke-width=".7888068400000001" d="M102.004 20.031V.395"/><path stroke="#000" stroke-miterlimit="10" stroke-width=".39489828000000005" d="M145.84 10.215a1.57 1.57 0 1 0-3.141 0 1.57 1.57 0 0 0 3.14 0Zm0 0"/><path fill="#FFF" stroke="#000" stroke-miterlimit="10" stroke-width=".39489828000000005" d="M180.254 10.215a1.57 1.57 0 1 0-3.14 0 1.57 1.57 0 0 0 3.14 0Zm0 0"/><use xlink:href="#a" x="182.166" y="12.728"/><use xlink:href="#b" x="189.285" y="12.728"/><use xlink:href="#c" x="194.767" y="12.728"/><use xlink:href="#d" x="198.652" y="12.728"/><use xlink:href="#e" x="203.582" y="12.728"/><use xlink:href="#f" x="208.512" y="12.728"/><use xlink:href="#d" x="213.995" y="12.728"/><path fill="none" stroke="#000" stroke-miterlimit="10" stroke-width=".39489828000000005" d="M75.445 69.129h26.559m15.71 0h26.556V39.672m0 0V10.215"/><g clip-path="url(#g)"><path fill="none" stroke="#000" stroke-miterlimit="10" stroke-width=".7888068400000001" d="m102.004 69.129 15.71-9.82v19.64Zm0 0"/></g><path fill="none" stroke="#000" stroke-miterlimit="10" stroke-width=".39489828000000005" d="M102.004 69.129h15.71"/><g clip-path="url(#h)"><path fill="none" stroke="#000" stroke-miterlimit="10" stroke-width=".7888068400000001" d="M102.004 78.95V59.308"/></g><path fill="none" stroke="#000" stroke-miterlimit="10" stroke-width=".39489828000000005" d="M59.734 39.672h42.27m0 0h59.473m0 0h17.207"/><path stroke="#000" stroke-miterlimit="10" stroke-width=".39489828000000005" d="M61.305 39.672a1.57 1.57 0 1 0-3.141 0 1.57 1.57 0 0 0 3.14 0Zm0 0"/><path fill="#FFF" stroke="#000" stroke-miterlimit="10" stroke-width=".39489828000000005" d="M180.254 39.672a1.57 1.57 0 1 0-3.14 0 1.57 1.57 0 0 0 3.14 0Zm0 0"/><use xlink:href="#i" x="182.166" y="43.041"/><use xlink:href="#j" x="188.733" y="43.041"/><g clip-path="url(#k)"><path fill="none" stroke="#000" stroke-miterlimit="10" stroke-width=".39489828000000005" d="M1.25 39.672c1.684-2.645 3.293-5.16 5.16-5.16 1.871 0 3.48 2.515 5.164 5.16 1.684 2.644 3.293 5.16 5.16 5.16 1.871 0 3.48-2.516 5.164-5.16"/></g></svg>