<svg xmlns="http://www.w3.org/2000/svg" xmlns:xlink="http://www.w3.org/1999/xlink" width="216.868" height="130.548"><defs><path id="a" d="M6.297-5.734c.11-.407.281-.703 1.078-.735.047 0 .172-.015.172-.203 0 0 0-.11-.14-.11-.329 0-.673.032-1 .032-.344 0-.72-.031-1.032-.031-.062 0-.187 0-.187.203 0 .11.093.11.187.11.563.015.672.218.672.437 0 .031-.031.172-.031.203l-.891 3.547C4.781-.953 3.641-.094 2.656-.094c-.687 0-1.219-.437-1.219-1.281 0-.031 0-.344.11-.781l.969-3.86c.078-.359.109-.453.828-.453.265 0 .344 0 .344-.203 0-.11-.11-.11-.141-.11-.281 0-1 .032-1.281.032-.282 0-.985-.031-1.282-.031-.078 0-.187 0-.187.203 0 .11.094.11.281.11.016 0 .219 0 .375.015.188.031.266.031.266.156 0 .063-.094.484-.157.703l-.218.875c-.094.39-.563 2.266-.61 2.453-.062.282-.062.438-.062.579 0 1.218.89 1.906 1.937 1.906 1.25 0 2.485-1.125 2.813-2.438Zm0 0"/><path id="b" d="M5.063-1.828h-.235C4.641-.781 4.484-.25 3.203-.25h-1.11c-.327 0-.327-.062-.327-.266v-1.812h.703c.703 0 .812.203.812.812h.235V-3.39H3.28c0 .61-.11.813-.812.813h-.703v-1.625c0-.219 0-.266.328-.266H3.14c1.14 0 1.343.375 1.468 1.344h.235L4.64-4.719H.39v.25h.172c.53 0 .546.063.546.313v3.593c0 .235-.015.313-.546.313H.39V0H4.75Zm0 0"/><path id="f" d="M3.125-4.797c-.047-.11-.062-.156-.203-.156-.125 0-.14.047-.188.156L1.125-.734C1.063-.562.938-.25.313-.25V0c.234-.016.484-.031.718-.031.282 0 .797.031.828.031v-.25c-.296 0-.5-.14-.5-.328 0-.063.016-.078.032-.14l.343-.86h1.97l.405 1.016a.294.294 0 0 1 .032.125c0 .187-.375.187-.563.187V0c.344-.016.797-.031 1.031-.031.329 0 .86.031.938.031v-.25h-.14c-.47 0-.516-.062-.594-.266Zm-.406.703.89 2.266H1.83Zm0 0"/><path id="c" d="M3.297 0v-.312h-.25c-.781 0-.813-.11-.813-.47V-6c0-.36.032-.469.813-.469h.25v-.312c-.344.031-1.125.031-1.5.031-.39 0-1.172 0-1.516-.031v.312h.25c.782 0 .813.11.813.469v5.219c0 .36-.032.469-.813.469h-.25V0c.344-.031 1.125-.031 1.5-.031.39 0 1.172 0 1.516.031m0 0"/><path id="d" d="M6.594-2.312c0-.094 0-.172-.125-.172-.11 0-.11.062-.125.156C6.266-.906 5.204-.094 4.125-.094c-.61 0-2.547-.328-2.547-3.297 0-2.953 1.938-3.296 2.547-3.296 1.078 0 1.953.906 2.156 2.359.016.125.016.156.157.156.156 0 .156-.031.156-.234V-6.75c0-.172 0-.25-.11-.25-.03 0-.078 0-.156.125l-.5.734C5.468-6.5 4.953-7 4.016-7 2.156-7 .563-5.422.563-3.39.563-1.345 2.156.218 4.015.218c1.609 0 2.578-1.375 2.578-2.531m0 0"/><path id="e" d="M4.156 0v-.312h-.312c-.89 0-.922-.11-.922-.47v-5.562c0-.25 0-.265-.235-.265-.609.64-1.484.64-1.796.64v.297c.187 0 .78 0 1.297-.25v5.14c0 .36-.032.47-.922.47H.938V0c.359-.031 1.218-.031 1.609-.031.406 0 1.265 0 1.61.031m0 0"/><path id="g" d="M.219 2.125H1.25v1.047c0 .14.125.25.266.25.14 0 .265-.11.265-.25V2.125h1.032c.14 0 .265-.11.265-.25a.274.274 0 0 0-.265-.266H1.78V.58c0-.141-.125-.25-.265-.25-.141 0-.266.108-.266.25v1.03H.219a.274.274 0 0 0-.266.266c0 .14.125.25.266.25m0 0"/><clipPath id="h"><path d="M47 129h13v1.098H47Zm0 0"/></clipPath></defs><path fill="none" stroke="#000" stroke-miterlimit="10" stroke-width=".39762345000000004" d="M18.473 30.023v74.004m0-89.789H36.07m0 0h56.543m27.684 0h56.539m0 0h17.598"/><path stroke="#000" stroke-miterlimit="10" stroke-width=".39762345000000004" d="M18.473 99.824h-1.977l1.977 4.203 1.98-4.203Zm0 0"/><use xlink:href="#a" x="2.294" y="69.674"/><use xlink:href="#b" x="9.073" y="71.163"/><path fill="#FFF" stroke="#000" stroke-miterlimit="10" stroke-width=".39762345000000004" d="M20.055 14.238a1.58 1.58 0 1 0-3.16 0c0 .871.707 1.582 1.578 1.582.875 0 1.582-.71 1.582-1.582Zm0 0"/><path stroke="#000" stroke-miterlimit="10" stroke-width=".39762345000000004" d="M55.246 14.238a1.58 1.58 0 1 0-3.16 0c0 .871.707 1.582 1.582 1.582.871 0 1.578-.71 1.578-1.582Zm0 0"/><path fill="none" stroke="#000" stroke-miterlimit="10" stroke-width=".7942503500000001" d="M92.613.394h27.684v27.684H92.613Zm0 0"/><use xlink:href="#c" x="98.595" y="17.63"/><use xlink:href="#d" x="102.179" y="17.63"/><use xlink:href="#e" x="109.347" y="17.63"/><path stroke="#000" stroke-miterlimit="10" stroke-width=".39762345000000004" d="M160.824 14.238a1.58 1.58 0 0 0-1.582-1.582 1.583 1.583 0 1 0 1.582 1.582Zm0 0"/><path stroke="#000" stroke-miterlimit="10" stroke-width=".39762345000000004" d="M160.824 14.238a1.58 1.58 0 0 0-1.582-1.582 1.583 1.583 0 1 0 1.582 1.582Zm0 0"/><path fill="#FFF" stroke="#000" stroke-miterlimit="10" stroke-width=".39762345000000004" d="M196.016 14.238a1.58 1.58 0 0 0-1.582-1.582 1.583 1.583 0 1 0 1.582 1.582Zm0 0"/><path fill="none" stroke="#000" stroke-miterlimit="10" stroke-width=".39762345000000004" d="M18.473 119.813H36.07m0 0h70.383m0 0h70.383m0 0h17.598"/><path fill="#FFF" stroke="#000" stroke-miterlimit="10" stroke-width=".39762345000000004" d="M20.055 119.813c0-.872-.707-1.583-1.582-1.583a1.582 1.582 0 0 0 0 3.165 1.58 1.58 0 0 0 1.582-1.582Zm0 0"/><path stroke="#000" stroke-miterlimit="10" stroke-width=".39762345000000004" d="M55.246 119.813c0-.872-.707-1.583-1.578-1.583a1.583 1.583 0 0 0 0 3.165 1.58 1.58 0 0 0 1.578-1.582ZM160.824 119.813a1.583 1.583 0 1 0-3.166.001 1.583 1.583 0 0 0 3.166-.001Zm0 0"/><path fill="#FFF" stroke="#000" stroke-miterlimit="10" stroke-width=".39762345000000004" d="M196.016 119.813a1.583 1.583 0 1 0-3.166.001 1.583 1.583 0 0 0 3.166-.001Zm0 0"/><path fill="none" stroke="#000" stroke-miterlimit="10" stroke-width=".39762345000000004" d="M194.434 30.023v74.004"/><path stroke="#000" stroke-miterlimit="10" stroke-width=".39762345000000004" d="M194.434 99.824h-1.977l1.977 4.203 1.976-4.203Zm0 0"/><use xlink:href="#a" x="198.001" y="69.674"/><use xlink:href="#f" x="204.779" y="71.163"/><path fill="none" stroke="#000" stroke-miterlimit="10" stroke-width=".39762345000000004" d="M53.668 14.238V63.07m0 7.91v48.833"/><path fill="none" stroke="#000" stroke-linecap="square" stroke-miterlimit="10" stroke-width=".7942503500000001" d="M63.555 63.07v2.375H43.777V63.07h19.778"/><path stroke="#000" stroke-linecap="square" stroke-miterlimit="10" stroke-width=".7942503500000001" d="M63.555 70.98v-2.375H43.777v2.375h19.778"/><use xlink:href="#g" x="58.129" y="58.529"/><path fill="none" stroke="#000" stroke-miterlimit="10" stroke-width=".39762345000000004" d="M53.668 119.813v9.886"/><g clip-path="url(#h)"><path fill="none" stroke="#000" stroke-linecap="round" stroke-miterlimit="10" stroke-width=".7942503500000001" d="M47.734 129.7h11.864"/></g><path fill="none" stroke="#000" stroke-miterlimit="10" stroke-width=".39762345000000004" d="M159.242 14.238V63.07m0 7.91v48.833"/><path fill="none" stroke="#000" stroke-miterlimit="10" stroke-width=".7942503500000001" d="M171.106 63.07h-23.727m23.727 7.91h-23.727"/><path fill="none" stroke="#000" stroke-miterlimit="10" stroke-width=".39762345000000004" d="M106.453 28.078v45.867m0 0v45.868"/><path stroke="#000" stroke-miterlimit="10" stroke-width=".39762345000000004" d="M108.035 119.813a1.583 1.583 0 1 0-3.166.001 1.583 1.583 0 0 0 3.166-.001Zm0 0"/></svg>