<svg xmlns="http://www.w3.org/2000/svg" xmlns:xlink="http://www.w3.org/1999/xlink" width="229.667" height="111.295"><defs><clipPath id="a"><path d="M.559 17H4v5H.559Zm0 0"/></clipPath><clipPath id="b"><path d="M.559 12H10v15H.559Zm0 0"/></clipPath><clipPath id="c"><path d="M.559 94H4v4H.559Zm0 0"/></clipPath><clipPath id="d"><path d="M.559 88H10v16H.559Zm0 0"/></clipPath><clipPath id="k"><path d="M216 12h12.777v15H216Zm0 0"/></clipPath><clipPath id="l"><path d="M216 71h12.777v15H216Zm0 0"/></clipPath><clipPath id="m"><path d="M121 107h5v3.594h-5Zm0 0"/></clipPath><clipPath id="n"><path d="M116 101h15v9.594h-15Zm0 0"/></clipPath><path id="e" d="M-3.078-4.844c-.156 0-.266.063-.266.235 0 .109.078.218.203.218.375.032.985.235.985.704 0 .64-1.219 1.078-1.219 2 0 .906 1.14 1.125 1.39 1.125.126 0 .266-.047.266-.22a.235.235 0 0 0-.203-.234c-.375-.03-.984-.234-.984-.671 0-.672 1.219-1.094 1.219-2 0-.922-1.157-1.157-1.391-1.157m0 0"/><path id="f" d="M-.766-1.266-1.78-2.312c-1.375-1.547-1.906-2.141-2.89-2.141-1.141 0-1.923.89-1.923 2.11 0 1.109.907 1.843 1.797 1.843.547 0 .547-.484.547-.516a.516.516 0 0 0-.531-.515c-.25 0-.516.172-.516.515 0 .079 0 .11.016.141-.64-.234-1.016-.766-1.016-1.344 0-.906.813-1.328 1.625-1.328.781 0 1.578.5 2.188 1.047L-.36-.61C-.25-.5-.234-.5 0-.5v-3.672l-1.719-.281v.25c.297.047.735.125.875.219.078.078.078.718.078.937Zm0 0"/><path id="g" d="M-3.484-2.875c-.266-.812-.97-1.39-1.75-1.39-.813 0-1.36.874-1.36 1.827 0 1 .594 1.75 1.344 1.75.328 0 .516-.218.516-.5 0-.312-.22-.5-.5-.5-.5 0-.5.454-.5.61-.485-.313-.61-.969-.61-1.313 0-.406.219-.953 1.11-.953.109 0 .687.016 1.125.266.468.297.5.64.515.89 0 .079.031.313.031.391 0 .078.016.14.11.14.11 0 .11-.062.11-.234v-.437c0-.813.671-1.172 1.656-1.172 1.343 0 1.625.672 1.625 1.11 0 .421-.172 1.171-.75 1.515.046-.344-.172-.656-.547-.656-.36 0-.547.265-.547.562 0 .235.14.547.562.547.907 0 1.563-.922 1.563-2 0-1.203-.906-2.11-1.906-2.11-.813 0-1.594.626-1.797 1.657m0 0"/><path id="h" d="M-3.172-4.562c-.797 0-1.578.062-2.312.406-.953.453-1.11 1.265-1.11 1.672 0 .609.25 1.328 1.172 1.734.688.313 1.453.36 2.25.36.75 0 1.64-.032 2.39-.438.798-.438 1-1.156 1-1.64C.219-3 .017-3.75-.936-4.189c-.672-.312-1.454-.375-2.235-.375M0-2.47c0 .39-.25.969-1.203 1.156-.594.11-1.5.11-2.078.11-.64 0-1.297 0-1.828-.078-1.188-.188-1.266-.938-1.266-1.188 0-.328.172-.984 1.156-1.172.547-.093 1.313-.093 1.938-.093.734 0 1.406 0 2.047.109C-.297-3.485 0-2.906 0-2.469m0 0"/><path id="i" d="M-5.797-6.156c-.36-.14-.656-.407-.656-1.078h-.313c.016.312.032.703.032.968 0 .297-.016.86-.032 1.125h.313c0-.515.266-.718.484-.718.078 0 .14.03.203.046L-.984-4-6-2.11c-.125.063-.156.063-.172.063-.281 0-.281-.562-.281-.812h-.313c.032.359.032 1.03.032 1.406 0 .484-.016.906-.032 1.266h.313c0-.641 0-.829.375-.97L0-3.452c.188-.078.219-.125.219-.25 0-.172-.047-.188-.188-.235Zm0 0"/><path id="j" d="M6.453-2.562H6.22c-.25 1.53-.485 2.25-2.188 2.25H2.72c-.469 0-.485-.063-.485-.391v-2.64h.891c.953 0 1.063.312 1.063 1.156h.25v-2.625h-.25c0 .843-.11 1.156-1.063 1.156h-.89v-2.375c0-.328.015-.39.484-.39H4c1.516 0 1.781.53 1.938 1.921h.25l-.282-2.234H.328v.312h.235c.765 0 .78.11.78.453v5.203c0 .344-.015.454-.78.454H.328V0h5.719Zm0 0"/><path id="o" d="M7.14-2.484c0-.188-.187-.188-.327-.188H4.047v-2.781c0-.14 0-.328-.188-.328-.203 0-.203.187-.203.328v2.781H.875c-.125 0-.312 0-.312.188 0 .203.187.203.312.203h2.781V.5c0 .14 0 .328.203.328.188 0 .188-.187.188-.328v-2.781h2.766c.14 0 .328 0 .328-.203m0 0"/></defs><path fill="none" stroke="#000" stroke-miterlimit="10" stroke-width=".3964863" d="M59.734 96.062 73.816 81.98M83.918 71.88 98 57.797 83.918 43.715M73.816 33.609 59.734 19.527 45.652 33.61M35.551 43.715 21.465 57.797 35.55 71.879M45.652 81.98l14.082 14.082"/><path fill="none" stroke="#000" stroke-miterlimit="10" stroke-width=".7919789" d="m83.918 71.879-16.414 3.789 12.625 12.625Zm0 0"/><path fill="none" stroke="#000" stroke-miterlimit="10" stroke-width=".3964863" d="M83.918 71.879 73.816 81.98"/><path fill="none" stroke="#000" stroke-miterlimit="10" stroke-width=".7919789" d="M90.23 78.191 77.605 65.566"/><path stroke="#000" stroke-miterlimit="10" stroke-width=".3964863" d="M99.578 57.797a1.575 1.575 0 1 0-3.152 0 1.575 1.575 0 1 0 3.152 0Zm0 0"/><path fill="none" stroke="#000" stroke-miterlimit="10" stroke-width=".7919789" d="m83.918 43.715-16.414-3.79 12.625-12.628Zm0 0"/><path fill="none" stroke="#000" stroke-miterlimit="10" stroke-width=".3964863" d="M83.918 43.715 73.816 33.609"/><path fill="none" stroke="#000" stroke-miterlimit="10" stroke-width=".7919789" d="m90.23 37.398-12.625 12.63"/><path stroke="#000" stroke-miterlimit="10" stroke-width=".3964863" d="M61.312 19.527c0-.87-.707-1.574-1.578-1.574a1.575 1.575 0 1 0 0 3.152c.871 0 1.578-.707 1.578-1.578Zm0 0"/><path fill="none" stroke="#000" stroke-miterlimit="10" stroke-width=".7919789" d="m45.652 33.61-3.789 16.417-12.629-12.629Zm0 0"/><path fill="none" stroke="#000" stroke-miterlimit="10" stroke-width=".3964863" d="M45.652 33.61 35.551 43.714"/><path fill="none" stroke="#000" stroke-miterlimit="10" stroke-width=".7919789" d="m39.336 27.297 12.629 12.629"/><path stroke="#000" stroke-miterlimit="10" stroke-width=".3964863" d="M23.043 57.797a1.575 1.575 0 1 0-3.152 0 1.575 1.575 0 1 0 3.152 0Zm0 0"/><path fill="none" stroke="#000" stroke-miterlimit="10" stroke-width=".7919789" d="m45.652 81.98-3.789-16.414-12.629 12.625Zm0 0"/><path fill="none" stroke="#000" stroke-miterlimit="10" stroke-width=".3964863" d="M45.652 81.98 35.551 71.88"/><path fill="none" stroke="#000" stroke-miterlimit="10" stroke-width=".7919789" d="m39.336 88.293 12.629-12.625"/><path stroke="#000" stroke-miterlimit="10" stroke-width=".3964863" d="M61.312 96.062c0-.87-.707-1.574-1.578-1.574a1.575 1.575 0 1 0 0 3.153c.871 0 1.578-.707 1.578-1.579Zm0 0"/><path fill="none" stroke="#000" stroke-miterlimit="10" stroke-width=".3964863" d="M59.734 19.527H31.031m0 0H2.332"/><g clip-path="url(#a)"><path fill="#FFF" d="M3.91 19.527c0-.87-.707-1.574-1.578-1.574a1.575 1.575 0 1 0 0 3.152c.871 0 1.578-.707 1.578-1.578m0 0"/></g><g clip-path="url(#b)"><path fill="none" stroke="#000" stroke-miterlimit="10" stroke-width=".3964863" d="M3.91 19.527c0-.87-.707-1.574-1.578-1.574a1.575 1.575 0 1 0 0 3.152c.871 0 1.578-.707 1.578-1.578Zm0 0"/></g><path fill="none" stroke="#000" stroke-miterlimit="10" stroke-width=".3964863" d="M59.734 96.062H31.031m0 0H2.332"/><g clip-path="url(#c)"><path fill="#FFF" d="M3.91 96.063c0-.872-.707-1.575-1.578-1.575a1.575 1.575 0 1 0 0 3.153c.871 0 1.578-.707 1.578-1.579m0 0"/></g><g clip-path="url(#d)"><path fill="none" stroke="#000" stroke-miterlimit="10" stroke-width=".3964863" d="M3.91 96.062c0-.87-.707-1.574-1.578-1.574a1.575 1.575 0 1 0 0 3.153c.871 0 1.578-.707 1.578-1.579Zm0 0"/></g><use xlink:href="#e" x="12.595" y="75.303"/><use xlink:href="#f" x="12.595" y="64.169"/><use xlink:href="#g" x="12.595" y="59.219"/><use xlink:href="#h" x="12.595" y="54.269"/><use xlink:href="#i" x="12.595" y="47.853"/><path fill="none" stroke="#000" stroke-miterlimit="10" stroke-width=".3964863" d="M98 57.797V38.664m0 0V19.527h15.652m19.72 0h15.651"/><path fill="none" stroke="#000" stroke-linecap="round" stroke-miterlimit="10" stroke-width=".6309995" d="M113.652 19.527 133.372 7.7"/><path stroke="#000" stroke-miterlimit="10" stroke-width=".3964863" d="M115.23 19.527c0-.87-.707-1.574-1.578-1.574a1.575 1.575 0 1 0 1.578 1.574ZM134.95 19.527c0-.87-.708-1.574-1.579-1.574a1.575 1.575 0 1 0 0 3.152c.871 0 1.578-.707 1.578-1.578Zm0 0"/><use xlink:href="#j" x="120.141" y="33.783"/><path fill="none" stroke="#000" stroke-linejoin="bevel" stroke-miterlimit="10" stroke-width=".7919789" d="M148.867 32.934c3.266 0 5.914 1.812 5.914 4.043 0 2.234-2.648 4.043-5.914 4.043 3.266 0 5.914 1.808 5.914 4.043 0 2.234-2.648 4.042-5.914 4.042 3.266 0 5.914 1.81 5.914 4.043 0 2.23-2.648 4.043-5.914 4.043 3.266 0 5.914 1.809 5.914 4.043 0 2.23-2.648 4.04-5.914 4.04M172.844 65.273c-3.266 0-5.914-1.808-5.914-4.039 0-2.234 2.648-4.043 5.914-4.043-3.266 0-5.914-1.812-5.914-4.043 0-2.234 2.648-4.043 5.914-4.043-3.266 0-5.914-1.808-5.914-4.042 0-2.235 2.648-4.043 5.914-4.043-3.266 0-5.914-1.809-5.914-4.043 0-2.23 2.648-4.043 5.914-4.043"/><path fill="none" stroke="#000" stroke-miterlimit="10" stroke-width=".3964863" d="M149.023 19.527v13.805m0 31.547v13.805m23.664-59.157v13.805m0 31.547v13.805"/><path fill="none" stroke="#000" stroke-miterlimit="10" stroke-width=".7919789" d="M162.336 63.895V34.316m-2.961 29.579V34.316"/><path fill="none" stroke="#000" stroke-miterlimit="10" stroke-width=".3964863" d="M172.687 19.527h11.989m14.289 0h18.367m0 0h6.379"/><path fill="none" stroke="#000" stroke-miterlimit="10" stroke-width=".7919789" d="m198.965 19.527-14.29-8.93v17.86Zm0 0"/><path fill="none" stroke="#000" stroke-miterlimit="10" stroke-width=".3964863" d="M198.965 19.527h-14.29"/><path fill="none" stroke="#000" stroke-miterlimit="10" stroke-width=".7919789" d="M198.965 28.457v-17.86"/><path stroke="#000" stroke-miterlimit="10" stroke-width=".3964863" d="M212.531 19.527c0-.87-.707-1.574-1.578-1.574a1.575 1.575 0 1 0 0 3.152c.871 0 1.578-.707 1.578-1.578Zm0 0"/><path fill="#FFF" d="M225.285 19.527a1.575 1.575 0 1 0-1.574 1.578c.871 0 1.574-.707 1.574-1.578m0 0"/><g clip-path="url(#k)"><path fill="none" stroke="#000" stroke-miterlimit="10" stroke-width=".3964863" d="M225.285 19.527a1.575 1.575 0 1 0-1.574 1.578c.871 0 1.574-.707 1.574-1.578Zm0 0"/></g><path fill="none" stroke="#7F7F7F" stroke-miterlimit="10" stroke-width=".7919789" d="M104.379 19.527V.395h38.27v38.27h-38.27V19.526"/><path fill="none" stroke="#000" stroke-miterlimit="10" stroke-width=".3964863" d="M21.465 57.797v25.512m0 0v25.511h38.27m0 0h51.023m0 0h25.512m0 0h12.753V78.684M172.687 78.684h19.133m0 0h25.512m0 0h6.379"/><path stroke="#000" stroke-miterlimit="10" stroke-width=".3964863" d="M212.531 78.684a1.579 1.579 0 0 0-3.156 0c0 .87.707 1.574 1.578 1.574.871 0 1.578-.703 1.578-1.574Zm0 0"/><path fill="#FFF" d="M225.285 78.684a1.575 1.575 0 1 0-3.152 0c0 .87.707 1.574 1.578 1.574.871 0 1.574-.703 1.574-1.574m0 0"/><g clip-path="url(#l)"><path fill="none" stroke="#000" stroke-miterlimit="10" stroke-width=".3964863" d="M225.285 78.684a1.575 1.575 0 1 0-3.152 0c0 .87.707 1.574 1.578 1.574.871 0 1.574-.703 1.574-1.574Zm0 0"/></g><path fill="none" stroke="#000" stroke-miterlimit="10" stroke-width=".3964863" d="M98 57.797h12.758m0 0h12.754v21.937m0 7.145v21.941"/><path fill="none" stroke="#000" stroke-miterlimit="10" stroke-width=".7919789" d="M134.227 79.734h-21.43m21.43 7.145h-21.43"/><g clip-path="url(#m)"><path d="M125.09 108.82a1.575 1.575 0 1 0-3.152 0 1.575 1.575 0 1 0 3.152 0m0 0"/></g><g clip-path="url(#n)"><path fill="none" stroke="#000" stroke-miterlimit="10" stroke-width=".3964863" d="M125.09 108.82a1.575 1.575 0 1 0-3.152 0 1.575 1.575 0 1 0 3.152 0Zm0 0"/></g><path fill="none" stroke="#000" stroke-miterlimit="10" stroke-width=".3964863" d="M210.953 19.527v26.008m0 7.14v26.009"/><path fill="none" stroke="#000" stroke-miterlimit="10" stroke-width=".7919789" d="M221.668 45.535h-21.43m21.43 7.14h-21.43"/><use xlink:href="#o" x="108.946" y="75.417"/><use xlink:href="#o" x="196.385" y="41.215"/></svg>