<svg xmlns="http://www.w3.org/2000/svg" xmlns:xlink="http://www.w3.org/1999/xlink" width="226.796" height="318.2"><defs><path id="b" d="M-.766-1.266-1.78-2.312C-3.156-3.86-3.703-4.47-4.688-4.47c-1.14 0-1.937.907-1.937 2.11 0 1.125.922 1.859 1.813 1.859.546 0 .546-.5.546-.531 0-.157-.109-.516-.53-.516a.513.513 0 0 0-.516.531c0 .079 0 .094.015.125-.64-.218-1.016-.765-1.016-1.328 0-.906.813-1.344 1.625-1.344.797 0 1.579.5 2.188 1.047L-.375-.609C-.265-.5-.235-.5 0-.5v-3.687l-1.734-.282v.25c.297.063.734.125.89.219.078.078.078.734.078.953Zm0 0"/><path id="c" d="M-5.812-6.172c-.375-.14-.657-.406-.672-1.078h-.297c.015.297.031.703.031.953 0 .297-.031.875-.031 1.14h.297c.015-.515.265-.734.5-.734.078 0 .14.032.203.063L-1-4.016l-5.016 1.907c-.14.046-.156.046-.171.046-.297 0-.297-.562-.297-.812h-.297c.031.36.031 1.047.031 1.422 0 .484-.031.906-.031 1.266h.297c0-.641 0-.844.375-.97L0-3.468c.188-.062.219-.125.219-.25 0-.172-.047-.187-.188-.234Zm0 0"/><path id="d" d="M-7.25-4.406a.207.207 0 0 0-.203.203c0 .14.094.172.203.203L2.11-.61a.594.594 0 0 0 .171.047c.11 0 .203-.078.203-.187 0-.14-.093-.187-.203-.219l-9.36-3.39c-.124-.047-.171-.047-.171-.047m0 0"/><path id="e" d="M-3.344-7.031c-1.89 0-3.437 1.343-3.437 3.047v3.64h.297v-.25c0-.75.109-.781.468-.781H-.78c.36 0 .469.031.469.781v.25H0v-3.64c0-1.672-1.469-3.047-3.344-3.047m0 1c1.11 0 1.703.187 2.188.547.265.203.843.765.843 1.765v1c0 .469-.062.5-.39.5h-5.375c-.328 0-.406-.031-.406-.5v-.984c0-.625.218-1.313.922-1.813.593-.421 1.453-.515 2.218-.515m0 0"/><path id="f" d="M0-2.453h-.312c0 .656-.047.687-.438.687h-3.64l.109 1.391h.312c0-.64.047-.734.547-.734H-.75c.438 0 .438.109.438.78H0l-.031-1.093c0-.344.015-.687.031-1.031m-6 .547a.547.547 0 0 0-.531.531c0 .328.281.531.531.531a.547.547 0 0 0 .531-.531A.536.536 0 0 0-6-1.906m0 0"/><path id="g" d="M-3.969-5.047h-.312c.015.234.031.516.031.75l-.031.86h.312c0-.376.235-.485.422-.485.094 0 .125.031.235.063l2.53 1.015-2.765 1.11c-.125.062-.172.062-.172.062-.25 0-.25-.39-.25-.562h-.312l.031 1.078c0 .265-.016.672-.031.968h.312c0-.624.047-.671.36-.796l3.53-1.438C.064-2.469.11-2.5.11-2.625s-.093-.172-.187-.203l-3.234-1.313c-.22-.078-.657-.25-.657-.906m0 0"/><path id="h" d="M-.531-1.906A.524.524 0 1 0-.515-.86a.524.524 0 0 0-.016-1.047m0 0"/><path id="i" d="M4.578-3.187c0-.782-.062-1.579-.406-2.313-.453-.953-1.266-1.125-1.688-1.125-.593 0-1.328.266-1.734 1.188C.438-4.75.39-3.97.39-3.187c0 .75.032 1.64.438 2.406.438.797 1.156 1 1.64 1 .548 0 1.298-.203 1.735-1.156.313-.688.375-1.454.375-2.25M2.468 0c-.374 0-.968-.25-1.14-1.203-.11-.594-.11-1.516-.11-2.094 0-.64 0-1.297.079-1.828.187-1.187.922-1.281 1.172-1.281.328 0 .984.187 1.172 1.172.109.547.109 1.312.109 1.937 0 .75 0 1.422-.11 2.047C3.485-.297 2.923 0 2.47 0m0 0"/><path id="j" d="M6.172-5.812c.14-.375.406-.657 1.078-.672v-.297c-.297.015-.703.031-.953.031-.297 0-.875-.031-1.14-.031v.297c.515.015.734.265.734.5 0 .078-.032.14-.063.203L4.016-1 2.109-6.016c-.046-.14-.046-.156-.046-.171 0-.297.562-.297.812-.297v-.297c-.36.031-1.047.031-1.422.031-.484 0-.906-.031-1.265-.031v.297c.64 0 .843 0 .968.375L3.47 0c.062.188.125.219.25.219.172 0 .187-.047.234-.188Zm0 0"/><path id="n" d="M6.734-1.61h-.25c-.062.266-.093.485-.187.72-.047.171-.078.25-.656.25h-.797c.14-.563.437-1.032.89-1.688.47-.719.875-1.406.875-2.188C6.61-5.89 5.266-7 3.594-7 1.875-7 .563-5.875.563-4.516c0 .782.406 1.47.875 2.188.437.656.75 1.125.875 1.687h-.797C.938-.64.922-.719.859-.875c-.078-.234-.125-.484-.171-.734h-.25L.766 0h1.593c.22 0 .25 0 .25-.203 0-.703-.312-1.578-.546-2.219-.204-.562-.485-1.36-.485-2.094 0-1.593 1.094-2.265 2-2.265.953 0 2 .703 2 2.265 0 .735-.266 1.5-.547 2.313-.156.422-.468 1.312-.468 2 0 .203.03.203.25.203h1.593Zm0 0"/><path id="p" d="M4.469-2c0-1.187-.828-2.172-1.89-2.172-.485 0-.907.156-1.267.5v-1.937c.204.062.532.14.844.14 1.219 0 1.922-.906 1.922-1.047 0-.046-.031-.109-.11-.109 0 0-.03 0-.077.031a3.13 3.13 0 0 1-1.344.297c-.406 0-.86-.078-1.328-.281-.078-.031-.094-.031-.11-.031C1-6.61 1-6.531 1-6.375v2.953c0 .172 0 .25.14.25.079 0 .094-.031.126-.094.109-.156.484-.687 1.28-.687.532 0 .767.453.86.64.156.36.172.75.172 1.25 0 .344 0 .938-.234 1.36-.25.39-.61.64-1.063.64-.734 0-1.297-.53-1.469-1.109.032.016.063.016.172.016.329 0 .5-.25.5-.485a.48.48 0 0 0-.5-.484c-.14 0-.484.063-.484.531C.5-.75 1.188.22 2.297.22 3.453.219 4.469-.734 4.469-2m0 0"/><path id="r" d="M1.313-3.266V-3.5c0-2.516 1.234-2.875 1.734-2.875.25 0 .656.063.875.406-.14 0-.547 0-.547.438 0 .312.25.468.453.468.172 0 .469-.093.469-.484 0-.594-.438-1.078-1.266-1.078-1.265 0-2.61 1.281-2.61 3.484C.422-.484 1.564.22 2.5.22c1.094 0 2.047-.938 2.047-2.25 0-1.266-.89-2.219-2-2.219-.672 0-1.031.516-1.235.984M2.5-.062c-.625 0-.937-.594-.984-.75-.188-.454-.188-1.25-.188-1.438 0-.766.328-1.766 1.219-1.766.156 0 .61 0 .922.61.172.375.172.875.172 1.375 0 .469 0 .969-.157 1.328-.296.594-.765.64-.984.64m0 0"/><path id="v" d="M2.922-1.64v.859c0 .36-.016.469-.75.469h-.219V0c.406-.031.922-.031 1.344-.031.422 0 .953 0 1.36.031v-.312h-.22c-.734 0-.75-.11-.75-.47v-.859h1v-.312h-1V-6.47c0-.203 0-.265-.156-.265-.094 0-.125 0-.203.125L.281-1.953v.312Zm.062-.313H.563l2.421-3.703Zm0 0"/><path id="w" d="M4.734-6.047c.079-.125.079-.14.079-.36H2.406c-1.219 0-1.234-.124-1.265-.312H.89L.563-4.672h.25c.015-.156.109-.781.234-.906.078-.063.844-.063.984-.063h2.047c-.11.172-.89 1.25-1.11 1.579C2.079-2.72 1.75-1.344 1.75-.328c0 .094 0 .547.453.547s.453-.453.453-.547v-.5c0-.547.031-1.094.11-1.64.046-.22.187-1.079.625-1.688Zm0 0"/><path id="x" d="M5.781-6.75H.328v.297h.235c.765 0 .78.11.78.469v5.203c0 .36-.015.469-.78.469H.328V0c.344-.031 1.125-.031 1.516-.031.406 0 1.312 0 1.672.031v-.312h-.328c-.954 0-.954-.125-.954-.47v-2.452h.86c.953 0 1.047.328 1.047 1.172h.25v-2.641h-.25c0 .844-.094 1.172-1.047 1.172h-.86v-2.516c0-.328.016-.406.485-.406h1.203c1.484 0 1.734.562 1.89 1.937h.25Zm0 0"/><path id="k" d="M4.688-1.64v-.313h-1V-6.47c0-.203 0-.265-.157-.265-.094 0-.125 0-.203.125L.281-1.953v.312h2.64v.86c0 .36-.015.469-.75.469h-.218V0c.406-.031.922-.031 1.344-.031.422 0 .953 0 1.36.031v-.312h-.22c-.734 0-.75-.11-.75-.47v-.859Zm-1.704-.313H.563l2.421-3.703Zm0 0"/><path id="l" d="M4.813-6.406H2.406c-1.219 0-1.234-.125-1.265-.313H.89L.563-4.672h.25c.015-.156.109-.781.234-.906.078-.063.844-.063.984-.063h2.047l-1.11 1.579C2.079-2.72 1.75-1.344 1.75-.328c0 .094 0 .547.453.547s.453-.453.453-.547v-.5c0-.547.031-1.094.11-1.64.046-.22.187-1.079.625-1.688l1.343-1.89c.079-.126.079-.141.079-.36m0 0"/><path id="m" d="M4.578-3.187c0-.782-.062-1.579-.406-2.313-.453-.953-1.266-1.125-1.688-1.125-.593 0-1.328.266-1.734 1.188C.438-4.75.39-3.97.39-3.187c0 .75.032 1.64.438 2.406.438.797 1.156 1 1.64 1 .548 0 1.298-.203 1.735-1.156.313-.688.375-1.454.375-2.25m-.828-.11c0 .75 0 1.422-.11 2.047C3.485-.297 2.923 0 2.47 0c-.375 0-.969-.25-1.14-1.203-.11-.594-.11-1.516-.11-2.094 0-.64 0-1.297.078-1.828.187-1.187.922-1.281 1.172-1.281.328 0 .984.187 1.172 1.172.109.547.109 1.312.109 1.937m0 0"/><path id="z" d="M4.156 0v-.312h-.312c-.89 0-.922-.11-.922-.47v-5.577c0-.235 0-.266-.235-.266-.609.64-1.484.64-1.796.64v.313c.187 0 .78 0 1.297-.266V-.78c0 .36-.032.469-.922.469H.938V0c.359-.031 1.218-.031 1.609-.031.406 0 1.265 0 1.61.031m0 0"/><path id="A" d="M5.078 0v-.312c-.375 0-.594 0-.969-.516L2.86-2.61c-.015-.032-.062-.079-.062-.11 0-.047.703-.64.797-.719.625-.5 1.047-.53 1.25-.53v-.313c-.282.031-.407.031-.688.031-.36 0-.968-.016-1.11-.031v.312c.188 0 .282.11.282.235 0 .203-.14.328-.219.39L1.703-2.125v-4.766l-1.422.11v.297c.688 0 .766.078.766.562V-.75c0 .438-.11.438-.766.438V0L1.36-.031 2.453 0v-.312c-.672 0-.781 0-.781-.438v-1.031l.64-.547C3.079-1.266 3.5-.718 3.5-.531c0 .187-.172.219-.36.219V0L4.22-.031c.281 0 .578.015.86.031m0 0"/><path id="C" d="M6.469-1.812c0-.875-.813-1.61-1.922-1.735.969-.187 1.656-.828 1.656-1.562 0-.86-.922-1.672-2.203-1.672H.36v.297h.234c.765 0 .781.109.781.468V-.78c0 .36-.016.469-.781.469H.359V0H4.25c1.328 0 2.219-.89 2.219-1.812M5.234-5.11c0 .64-.484 1.468-1.593 1.468H2.203v-2.437c0-.328.016-.406.485-.406h1.234c.969 0 1.312.843 1.312 1.375m.235 3.28c0 .704-.516 1.517-1.532 1.517h-1.25c-.468 0-.484-.063-.484-.391v-2.719h1.875c.984 0 1.39.922 1.39 1.594m0 0"/><path id="D" d="M7.125 0v-.312h-.172c-.61 0-.734-.063-.844-.391L3.953-6.922c-.047-.125-.062-.187-.219-.187-.171 0-.203.046-.25.187L1.438-.969c-.188.5-.579.657-1.125.657V0l1.015-.031L2.468 0v-.312c-.484 0-.734-.25-.734-.5 0-.032 0-.125.016-.157l.453-1.297h2.453L5.188-.75a.58.58 0 0 1 .03.14c0 .298-.562.298-.827.298V0c.359-.031 1.062-.031 1.437-.031ZM4.547-2.578H2.313l1.109-3.219Zm0 0"/><path id="q" d="M2.016-.016c0-.656-.25-1.03-.641-1.03-.328 0-.516.234-.516.515 0 .265.188.531.516.531.125 0 .25-.047.36-.125.03-.031.03-.031.046-.031 0 0 .016 0 .016.14 0 .735-.344 1.344-.672 1.672-.11.11-.11.125-.11.157 0 .062.048.109.094.109.11 0 .907-.766.907-1.938m0 0"/><path id="t" d="M-.219 2.14h-1.047v1.032c0 .14-.109.265-.25.265a.263.263 0 0 1-.265-.265V2.14h-1.031a.274.274 0 0 1-.266-.266c0-.14.125-.25.265-.25h1.032V.578c0-.14.11-.25.265-.25.141 0 .25.11.25.25v1.047h1.047c.14 0 .266.11.266.25s-.125.266-.266.266m0 0"/><clipPath id="a"><path d="M2 5h224.41v75H2Zm0 0"/></clipPath><clipPath id="o"><path d="M52 303h16v14.402H52Zm0 0"/></clipPath><clipPath id="s"><path d="M24 303h15v14.402H24Zm0 0"/></clipPath><clipPath id="u"><path d="M109 303h15v14.402h-15Zm0 0"/></clipPath><clipPath id="y"><path d="M165 303h16v14.402h-16Zm0 0"/></clipPath><clipPath id="B"><path d="M193 303h16v14.402h-16Zm0 0"/></clipPath></defs><path fill="none" stroke="#000" stroke-miterlimit="10" stroke-width=".39799851" d="M24.719 169.562h197.59m-197.59-28.226h197.59m-197.59-28.23h197.59M24.719 84.878h197.59M24.719 56.652h197.59M24.719 28.426h197.59M24.719.207h197.59M24.719 169.562V.2m28.226 169.363V.2m28.227 169.363V.2m28.226 169.363V.2m28.227 169.363V.2m28.23 169.363V.2m28.227 169.363V.2m28.219 169.363V.2"/><g clip-path="url(#a)"><path fill="none" stroke="#000" stroke-miterlimit="10" stroke-width="1.58999906" d="m24.719 56.652 15.347-25.214c2.434-4.004 7.254-4.731 10.762-1.625l30.344 26.84L96.52 31.437c2.437-4.004 7.253-4.731 10.765-1.625l30.34 26.84 15.352-25.215c2.433-4.004 7.253-4.731 10.761-1.625l30.344 26.84 15.348-25.215c2.437-4.004 7.215-4.688 10.675-1.528l2.204 2.016"/></g><use xlink:href="#b" x="13.087" y="47.201"/><use xlink:href="#c" x="13.087" y="40.583"/><use xlink:href="#d" x="13.087" y="32.984"/><use xlink:href="#e" x="13.087" y="28.015"/><use xlink:href="#f" x="13.087" y="20.423"/><use xlink:href="#g" x="13.087" y="17.66"/><use xlink:href="#h" x="13.087" y="12.413"/><use xlink:href="#i" x="3.495" y="172.956"/><use xlink:href="#j" x="10.114" y="172.956"/><path fill="none" stroke="#000" stroke-miterlimit="10" stroke-width=".79499953" d="M116.457 189.82c-8.094 0-14.656 6.559-14.656 14.653 0 8.093 6.562 14.656 14.656 14.656 8.094 0 14.652-6.563 14.652-14.656 0-8.094-6.558-14.653-14.652-14.653Zm0 0"/><path fill="none" stroke="#000" stroke-miterlimit="10" stroke-width=".39799851" d="M94.523 197.789h13.239l5.433 11.856"/><path fill="none" stroke="#000" stroke-miterlimit="10" stroke-width=".79499953" d="M107.762 209.645h17.386"/><path fill="none" stroke="#000" stroke-miterlimit="10" stroke-width=".39799851" d="m119.715 209.645 5.433-11.856h13.243"/><path d="m121.629 205.473-2.074-.95 4.199-3.683-.05 5.582Zm0 0"/><path fill="none" stroke="#000" stroke-miterlimit="10" stroke-width=".39799851" d="M116.457 209.645v12.054M31.773 197.789H60v12.422m0 31.613v32.742m0 15.809v20.324"/><path fill="#FFF" stroke="#000" stroke-miterlimit="10" stroke-width=".39799851" d="M33.355 197.789a1.58 1.58 0 0 0-1.582-1.582 1.58 1.58 0 0 0-1.582 1.582 1.58 1.58 0 0 0 1.582 1.582 1.58 1.58 0 0 0 1.582-1.582Zm0 0"/><path fill="none" stroke="#000" stroke-miterlimit="10" stroke-width=".79499953" d="M54.074 241.824v-31.613H65.93v31.613Zm0 0"/><path stroke="#000" stroke-miterlimit="10" stroke-width=".39799851" d="M61.586 197.789a1.584 1.584 0 0 0-3.168 0 1.584 1.584 0 0 0 3.168 0ZM61.586 254.242a1.583 1.583 0 1 0-3.17.002 1.583 1.583 0 0 0 3.17-.002Zm0 0"/><use xlink:href="#k" x="68.127" y="228.156"/><use xlink:href="#l" x="73.096" y="228.156"/><use xlink:href="#m" x="78.064" y="228.156"/><use xlink:href="#n" x="86.343" y="228.156"/><path fill="none" stroke="#000" stroke-miterlimit="10" stroke-width=".79499953" d="m60 274.566 9.879 15.809H50.12Zm0 0"/><path fill="none" stroke="#000" stroke-miterlimit="10" stroke-width=".39799851" d="M60 274.566v15.809"/><path fill="none" stroke="#000" stroke-miterlimit="10" stroke-width=".79499953" d="M50.121 274.566H69.88v3.164"/><path d="M61.586 310.7a1.584 1.584 0 0 0-3.168 0 1.584 1.584 0 0 0 3.168 0m0 0"/><g clip-path="url(#o)"><path fill="none" stroke="#000" stroke-miterlimit="10" stroke-width=".39799851" d="M61.586 310.7a1.584 1.584 0 0 0-3.168 0 1.584 1.584 0 0 0 3.168 0Zm0 0"/></g><use xlink:href="#p" x="72.474" y="284.61"/><use xlink:href="#q" x="77.443" y="284.61"/><use xlink:href="#r" x="80.203" y="284.61"/><use xlink:href="#j" x="86.822" y="284.61"/><path fill="none" stroke="#000" stroke-miterlimit="10" stroke-width=".39799851" d="M31.773 310.7H60"/><path fill="#FFF" d="M33.355 310.7a1.58 1.58 0 0 0-1.582-1.583 1.58 1.58 0 0 0-1.582 1.582 1.58 1.58 0 0 0 1.582 1.582 1.58 1.58 0 0 0 1.582-1.582m0 0"/><g clip-path="url(#s)"><path fill="none" stroke="#000" stroke-miterlimit="10" stroke-width=".39799851" d="M33.355 310.7a1.58 1.58 0 0 0-1.582-1.583 1.58 1.58 0 0 0-1.582 1.582 1.58 1.58 0 0 0 1.582 1.582 1.58 1.58 0 0 0 1.582-1.582Zm0 0"/></g><path fill="none" stroke="#000" stroke-miterlimit="10" stroke-width=".39799851" d="M60 197.789h34.723M60 310.7h56.457v-24.278m0-7.902V221.5"/><path fill="none" stroke="#000" stroke-linecap="square" stroke-miterlimit="10" stroke-width=".79499953" d="M106.578 278.52v2.37h19.758v-2.37h-19.758"/><path stroke="#000" stroke-linecap="square" stroke-miterlimit="10" stroke-width=".79499953" d="M106.578 286.422v-2.371h19.758v2.37h-19.758"/><use xlink:href="#t" x="111.998" y="273.973"/><path d="M118.04 310.7a1.584 1.584 0 0 0-3.168 0 1.584 1.584 0 0 0 3.167 0m0 0"/><g clip-path="url(#u)"><path fill="none" stroke="#000" stroke-miterlimit="10" stroke-width=".39799851" d="M118.039 310.7a1.584 1.584 0 0 0-3.168 0 1.584 1.584 0 0 0 3.168 0Zm0 0"/></g><path stroke="#000" stroke-miterlimit="10" stroke-width=".39799851" d="M118.039 254.242a1.583 1.583 0 1 0-3.166.002 1.583 1.583 0 0 0 3.166-.002Zm0 0"/><use xlink:href="#v" x="128.928" y="284.61"/><use xlink:href="#w" x="133.897" y="284.61"/><use xlink:href="#x" x="140.515" y="284.61"/><path fill="none" stroke="#000" stroke-miterlimit="10" stroke-width=".39799851" d="M60 254.242h56.457M116.457 310.7h56.453v-40.65m0-31.613V197.79h-34.719"/><path fill="none" stroke="#000" stroke-miterlimit="10" stroke-width=".79499953" d="M178.84 238.437v31.614h-11.856v-31.614Zm0 0"/><path d="M174.492 310.7a1.58 1.58 0 0 0-1.582-1.583 1.58 1.58 0 0 0-1.582 1.582 1.58 1.58 0 0 0 1.582 1.582 1.58 1.58 0 0 0 1.582-1.582m0 0"/><g clip-path="url(#y)"><path fill="none" stroke="#000" stroke-miterlimit="10" stroke-width=".39799851" d="M174.492 310.7a1.58 1.58 0 0 0-1.582-1.583 1.58 1.58 0 0 0-1.582 1.582 1.58 1.58 0 0 0 1.582 1.582 1.58 1.58 0 0 0 1.582-1.582Zm0 0"/></g><path stroke="#000" stroke-miterlimit="10" stroke-width=".39799851" d="M174.492 197.789a1.58 1.58 0 0 0-1.582-1.582 1.58 1.58 0 0 0-1.582 1.582 1.58 1.58 0 0 0 1.582 1.582 1.58 1.58 0 0 0 1.582-1.582Zm0 0"/><use xlink:href="#z" x="181.035" y="256.383"/><use xlink:href="#A" x="189.313" y="256.383"/><use xlink:href="#n" x="194.561" y="256.383"/><path fill="none" stroke="#000" stroke-miterlimit="10" stroke-width=".39799851" d="M172.91 310.7h28.227"/><path fill="#FFF" d="M202.723 310.7a1.584 1.584 0 0 0-3.168 0 1.583 1.583 0 0 0 3.168 0m0 0"/><g clip-path="url(#B)"><path fill="none" stroke="#000" stroke-miterlimit="10" stroke-width=".39799851" d="M202.723 310.7a1.584 1.584 0 0 0-3.168 0 1.583 1.583 0 0 0 3.168 0Zm0 0"/></g><path fill="none" stroke="#000" stroke-miterlimit="10" stroke-width=".39799851" d="M172.91 197.789h28.227"/><path fill="#FFF" stroke="#000" stroke-miterlimit="10" stroke-width=".39799851" d="M202.723 197.789a1.584 1.584 0 0 0-3.168 0 1.583 1.583 0 0 0 3.168 0Zm0 0"/><use xlink:href="#C" x="204.675" y="314.089"/><use xlink:href="#D" x="204.466" y="201.346"/></svg>