<svg xmlns="http://www.w3.org/2000/svg" xmlns:xlink="http://www.w3.org/1999/xlink" width="223.874" height="116.804"><defs><path id="a" d="M3.313 0v-.312h-.25c-.797 0-.829-.11-.829-.47v-5.234c0-.359.032-.468.829-.468h.25v-.313c-.344.031-1.126.031-1.516.031-.39 0-1.172 0-1.516-.03v.312h.25c.797 0 .828.109.828.468V-.78c0 .36-.03.469-.828.469h-.25V0c.344-.031 1.125-.031 1.516-.031.39 0 1.172 0 1.516.031m0 0"/><path id="b" d="M6.625-2.312c0-.11 0-.172-.14-.172-.11 0-.11.062-.11.156C6.297-.906 5.219-.094 4.141-.094c-.61 0-2.563-.328-2.563-3.297 0-2.984 1.938-3.312 2.547-3.312 1.094 0 1.969.906 2.172 2.36.016.14.016.155.156.155.172 0 .172-.015.172-.234v-2.36c0-.171 0-.234-.11-.234-.046 0-.093 0-.171.125l-.485.735c-.375-.36-.89-.86-1.843-.86-1.86 0-3.453 1.579-3.453 3.61C.563-1.344 2.172.219 4.015.219c1.625 0 2.609-1.39 2.609-2.531m0 0"/><path id="c" d="M4.172 0v-.312h-.313c-.906 0-.937-.11-.937-.47v-5.593c0-.234 0-.25-.219-.25-.625.64-1.5.64-1.812.64v.298c.187 0 .78 0 1.297-.25v5.156c0 .36-.032.469-.922.469H.953V0c.344-.031 1.203-.031 1.61-.031.39 0 1.265 0 1.609.031m0 0"/><path id="g" d="M7.172-2.484c0-.203-.188-.203-.328-.203H4.078V-5.47c0-.14 0-.328-.203-.328s-.203.188-.203.328v2.782H.89c-.141 0-.328 0-.328.203 0 .187.187.187.328.187h2.78V.5c0 .14 0 .328.204.328.203 0 .203-.187.203-.328v-2.797h2.766c.14 0 .328 0 .328-.187m0 0"/><path id="d" d="M.219 2.14h1.047v1.032c0 .14.109.265.25.265a.263.263 0 0 0 .265-.265V2.14h1.032c.14 0 .265-.125.265-.266 0-.14-.125-.25-.265-.25H1.78V.578c0-.14-.11-.25-.265-.25-.141 0-.25.11-.25.25v1.047H.219c-.14 0-.266.11-.266.25s.125.266.266.266m0 0"/><path id="h" d="M2.922-6.375c0-.234 0-.25-.219-.25-.625.64-1.5.64-1.812.64v.298c.187 0 .78 0 1.297-.25v5.156c0 .36-.032.469-.922.469H.953V0c.344-.031 1.203-.031 1.61-.031.39 0 1.265 0 1.609.031v-.312h-.313c-.906 0-.937-.11-.937-.47Zm0 0"/><path id="i" d="M2.89-3.5c.813-.266 1.391-.969 1.391-1.75 0-.828-.875-1.375-1.828-1.375-1.015 0-1.765.594-1.765 1.344 0 .328.218.531.5.531a.492.492 0 0 0 .515-.516c0-.5-.469-.5-.625-.5.313-.484.969-.609 1.328-.609.406 0 .953.219.953 1.11 0 .124-.015.702-.28 1.14-.298.469-.626.5-.876.516-.078 0-.328.03-.39.03-.079 0-.157.017-.157.11 0 .11.078.11.25.11h.438c.812 0 1.172.687 1.172 1.656 0 1.36-.672 1.64-1.11 1.64-.437 0-1.187-.171-1.531-.75.344.047.656-.171.656-.546 0-.36-.265-.563-.562-.563-.235 0-.547.14-.547.578 0 .907.922 1.563 2 1.563 1.219 0 2.125-.906 2.125-1.922 0-.813-.625-1.594-1.656-1.797m0 0"/><path id="k" d="M1.625-4.547c-.453-.297-.5-.64-.5-.812 0-.61.64-1.016 1.36-1.016.718 0 1.359.516 1.359 1.234 0 .563-.39 1.047-.985 1.391Zm1.453.938c.719-.36 1.203-.875 1.203-1.532 0-.921-.89-1.484-1.797-1.484-.984 0-1.796.734-1.796 1.656 0 .188.015.625.437 1.094.11.125.484.375.719.547C1.28-3.047.422-2.484.422-1.5.422-.453 1.438.219 2.484.219c1.125 0 2.063-.828 2.063-1.89 0-.36-.11-.813-.484-1.22-.188-.218-.344-.312-.985-.718m-1 .422 1.219.78c.281.188.75.485.75 1.095 0 .734-.75 1.25-1.563 1.25C1.625-.062.922-.672.922-1.5c0-.578.312-1.219 1.156-1.687m0 0"/><path id="l" d="M6.188-5.828c.125-.36.406-.656 1.078-.656v-.313c-.313.016-.703.031-.97.031-.296 0-.874-.015-1.124-.03v.312c.516 0 .719.265.719.5 0 .078-.032.125-.047.187L4.016-1 2.125-6.016c-.062-.14-.062-.171-.062-.187 0-.281.562-.281.812-.281v-.313c-.36.031-1.047.031-1.422.031-.484 0-.906-.015-1.265-.03v.312c.656 0 .843 0 .984.375L3.469 0c.078.188.125.219.25.219.172 0 .187-.047.25-.188Zm0 0"/><path id="m" d="M4.469-2c0-1.187-.813-2.187-1.89-2.187-.485 0-.907.171-1.267.515v-1.937c.204.062.532.125.844.125 1.235 0 1.922-.907 1.922-1.032 0-.062-.031-.109-.094-.109-.015 0-.03 0-.078.031-.203.078-.687.282-1.36.282-.39 0-.858-.063-1.327-.282-.078-.031-.094-.031-.11-.031-.109 0-.109.078-.109.25v2.938c0 .187 0 .265.14.265.079 0 .094-.031.141-.094.11-.156.469-.703 1.282-.703.515 0 .765.469.843.64.156.376.172.767.172 1.267 0 .343 0 .937-.234 1.359-.235.39-.61.64-1.063.64-.734 0-1.297-.53-1.469-1.109.032 0 .063.016.172.016.329 0 .5-.25.5-.485a.48.48 0 0 0-.5-.484c-.14 0-.484.063-.484.516C.5-.75 1.188.219 2.297.219 3.453.219 4.469-.734 4.469-2m0 0"/><path id="j" d="M2.016-.016c0-.656-.25-1.046-.625-1.046a.517.517 0 0 0-.532.53c0 .266.204.532.532.532a.62.62 0 0 0 .343-.125c.032-.031.032-.031.047-.031.016 0 .016 0 .016.14 0 .75-.344 1.344-.672 1.672-.11.11-.11.125-.11.157 0 .062.048.109.094.109.11 0 .907-.766.907-1.938m0 0"/><path id="n" d="M-6.11-3.734c-.234-.063-.343-.094-.374-.282v-.609c0-.703 0-1.797.984-1.797.328 0 1.016.156 1.406.547.266.25.578.781.578 1.672v1.125Zm2.72-1.438c-.22-1-.907-2.187-1.922-2.187-.844 0-1.485.906-1.485 2.203v2.843c0 .188 0 .282.203.282.11 0 .11-.094.11-.281 0-.016 0-.204.015-.376.016-.171.032-.265.157-.265a.55.55 0 0 1 .187.031l5.344 1.344c.39.094.469.11.469.906 0 .172 0 .266.203.266C0-.406 0-.531 0-.546c0-.282-.031-.97-.031-1.25 0-.282.031-.985.031-1.266 0-.079 0-.204-.203-.204-.11 0-.11.094-.11.282 0 .359 0 .64-.171.64-.063 0-.11-.015-.172-.031l-2.64-.656v-1.172c0-.906.562-1.094.905-1.094.157 0 .454.078.688.14.281.063.64.157.844.157C.219-5 .219-6.187.219-6.312c0-.86-1-1.204-1.14-1.204-.126 0-.126.11-.126.125 0 .079.078.11.14.125.735.25.907.672.907.907 0 .328-.219.39-.61.39-.312 0-.812-.047-1.124-.093a4.722 4.722 0 0 0-.47-.032c-.765 0-1.077.657-1.187.922m0 0"/><path id="o" d="M-1.828-4.531v.234c.672.078 1.578.172 1.578 1.5v.688c0 .328-.062.343-.266.343h-3.671c-.235 0-.329 0-.329-.656v-.25h-.25c.016.156.032 1.047.032 1.219 0 .266-.032 1.062-.032 1.062h.25v-.171c0-.532.079-.547.329-.547h3.625c.234 0 .312.015.312.547v.171H0v-3.937Zm0 0"/><path id="p" d="M-3.656-4.64v3.859c0 .125.094.219.219.219.14 0 .234-.094.234-.22V-4.64c0-.125-.094-.218-.235-.218a.214.214 0 0 0-.218.218m1.781 0v3.859c0 .125.094.219.219.219.14 0 .234-.094.234-.22V-4.64c0-.125-.094-.218-.234-.218a.214.214 0 0 0-.219.218m0 0"/><path id="q" d="M-6.375-2.922c-.234 0-.25 0-.25.219.64.625.64 1.5.64 1.812h.298c0-.187 0-.78-.25-1.296h5.156c.36 0 .469.03.469.921v.313H0c-.031-.344-.031-1.203-.031-1.61 0-.39 0-1.265.031-1.609h-.312v.313c0 .906-.11.937-.47.937Zm0 0"/><path id="r" d="M-3.187-4.578c-.797 0-1.594.047-2.329.39-.953.47-1.109 1.282-1.109 1.704 0 .593.25 1.312 1.188 1.734.687.313 1.453.36 2.25.36.75 0 1.64-.032 2.406-.454.797-.422 1-1.14 1-1.64 0-.532-.203-1.282-1.156-1.72-.688-.327-1.47-.374-2.25-.374M0-2.484c0 .39-.25.984-1.203 1.156-.594.11-1.516.11-2.094.11-.64 0-1.297 0-1.844-.079-1.171-.187-1.265-.937-1.265-1.187 0-.328.172-.985 1.156-1.172.563-.094 1.313-.094 1.953-.094.735 0 1.422 0 2.047.11C-.297-3.5 0-2.923 0-2.485m0 0"/><clipPath id="e"><path d="M50 106h2v10.61h-2Zm0 0"/></clipPath><clipPath id="f"><path d="M44 115h14v1.61H44Zm0 0"/></clipPath></defs><path fill="none" stroke="#000" stroke-miterlimit="10" stroke-width=".39833367000000003" d="M20.777 15.559h15.125m0 0h46.633m27.73 0h46.633m0 0h15.125"/><path fill="#FFF" stroke="#000" stroke-miterlimit="10" stroke-width=".39833367000000003" d="M22.363 15.559a1.587 1.587 0 0 0-3.172 0c0 .875.711 1.582 1.586 1.582.875 0 1.586-.707 1.586-1.582Zm0 0"/><path stroke="#000" stroke-miterlimit="10" stroke-width=".39833367000000003" d="M52.61 15.559a1.584 1.584 0 1 0-3.168-.005 1.584 1.584 0 0 0 3.167.005Zm0 0"/><path fill="none" stroke="#000" stroke-miterlimit="10" stroke-width=".7956690100000001" d="M82.535 1.691h27.73v27.735h-27.73Zm0 0"/><use xlink:href="#a" x="88.527" y="18.955"/><use xlink:href="#b" x="92.118" y="18.955"/><use xlink:href="#c" x="99.299" y="18.955"/><path stroke="#000" stroke-miterlimit="10" stroke-width=".39833367000000003" d="M143.36 15.559a1.584 1.584 0 1 0-3.168-.004 1.584 1.584 0 0 0 3.167.004Zm0 0"/><path stroke="#000" stroke-miterlimit="10" stroke-width=".39833367000000003" d="M143.36 15.559a1.584 1.584 0 1 0-3.168-.004 1.584 1.584 0 0 0 3.167.004Zm0 0"/><path fill="#FFF" stroke="#000" stroke-miterlimit="10" stroke-width=".39833367000000003" d="M173.61 15.559a1.584 1.584 0 1 0-3.168-.004 1.584 1.584 0 0 0 3.167.004Zm0 0"/><path fill="none" stroke="#000" stroke-miterlimit="10" stroke-width=".39833367000000003" d="M20.777 106.305h15.125m0 0h60.5m0 0h60.496m0 0h15.125"/><path fill="#FFF" stroke="#000" stroke-miterlimit="10" stroke-width=".39833367000000003" d="M22.363 106.305c0-.875-.71-1.582-1.586-1.582a1.584 1.584 0 1 0 0 3.168c.875 0 1.586-.711 1.586-1.586Zm0 0"/><path stroke="#000" stroke-miterlimit="10" stroke-width=".39833367000000003" d="M52.61 106.305a1.584 1.584 0 1 0-3.168.003 1.584 1.584 0 0 0 3.167-.003ZM143.36 106.305a1.584 1.584 0 1 0-3.168.003 1.584 1.584 0 0 0 3.167-.003Zm0 0"/><path fill="#FFF" stroke="#000" stroke-miterlimit="10" stroke-width=".39833367000000003" d="M173.61 106.305a1.584 1.584 0 1 0-3.168.003 1.584 1.584 0 0 0 3.167-.003Zm0 0"/><path fill="none" stroke="#000" stroke-miterlimit="10" stroke-width=".39833367000000003" d="M51.027 15.559v41.41m0 7.926v41.41"/><path fill="none" stroke="#000" stroke-linecap="square" stroke-miterlimit="10" stroke-width=".7956690100000001" d="M60.93 56.969v2.379H41.12v-2.38H60.93"/><path stroke="#000" stroke-linecap="square" stroke-miterlimit="10" stroke-width=".7956690100000001" d="M60.93 64.895v-2.38H41.12v2.38H60.93"/><use xlink:href="#d" x="55.497" y="52.422"/><g clip-path="url(#e)"><path fill="none" stroke="#000" stroke-miterlimit="10" stroke-width=".39833367000000003" d="M51.027 106.305v9.906"/></g><g clip-path="url(#f)"><path fill="none" stroke="#000" stroke-linecap="round" stroke-miterlimit="10" stroke-width=".7956690100000001" d="M45.082 116.21h11.887"/></g><path fill="none" stroke="#000" stroke-miterlimit="10" stroke-width=".39833367000000003" d="M141.773 15.559v41.41m0 7.926v41.41"/><path fill="none" stroke="#000" stroke-miterlimit="10" stroke-width=".7956690100000001" d="M153.66 56.969h-23.77m23.77 7.926h-23.77"/><path fill="none" stroke="#000" stroke-miterlimit="10" stroke-width=".39833367000000003" d="M96.402 29.426v38.437m0 0v38.442"/><path stroke="#000" stroke-miterlimit="10" stroke-width=".39833367000000003" d="M97.984 106.305a1.58 1.58 0 0 0-1.582-1.582 1.585 1.585 0 1 0 1.582 1.582Zm0 0"/><use xlink:href="#g" x="3.44" y="10.111"/><use xlink:href="#h" x="11.177" y="10.111"/><use xlink:href="#i" x="16.15" y="10.111"/><use xlink:href="#j" x="21.123" y="10.111"/><use xlink:href="#k" x="23.887" y="10.111"/><use xlink:href="#l" x="30.511" y="10.111"/><use xlink:href="#g" x="161.039" y="11.219"/><use xlink:href="#m" x="168.777" y="11.219"/><use xlink:href="#l" x="175.401" y="11.219"/><path fill="none" stroke="#000" stroke-miterlimit="10" stroke-width=".39833367000000003" d="M172.023 15.559h15.125m0 0h15.125v29.523m0 31.695v29.528h-15.125m0 0h-15.125"/><path fill="#FFF" stroke="#000" stroke-miterlimit="10" stroke-width=".39833367000000003" d="M173.61 15.559a1.584 1.584 0 1 0-3.168-.004 1.584 1.584 0 0 0 3.167.004Zm0 0"/><path fill="none" stroke="#000" stroke-miterlimit="10" stroke-width=".7956690100000001" d="M196.332 76.777V45.082h11.883v31.695Zm0 0"/><use xlink:href="#n" x="217.212" y="77.781"/><use xlink:href="#o" x="218.704" y="70.23"/><use xlink:href="#p" x="217.212" y="62.359"/><use xlink:href="#q" x="217.212" y="54.486"/><use xlink:href="#r" x="217.212" y="49.513"/><path fill="#FFF" stroke="#000" stroke-miterlimit="10" stroke-width=".39833367000000003" d="M173.61 106.305a1.584 1.584 0 1 0-3.168.003 1.584 1.584 0 0 0 3.167-.003Zm0 0"/></svg>