<svg xmlns="http://www.w3.org/2000/svg" xmlns:xlink="http://www.w3.org/1999/xlink" width="229" height="87.109"><defs><path id="a" d="M4.125 0v-.312h-.312c-.891 0-.907-.11-.907-.47v-5.53c0-.235 0-.25-.234-.25-.61.625-1.485.625-1.797.625v.312c.203 0 .781 0 1.297-.266v5.11c0 .36-.031.469-.922.469H.938V0C1.28-.031 2.14-.031 2.53-.031c.39 0 1.25 0 1.594.031m0 0"/><path id="b" d="M4.422-1.719h-.234c-.063.297-.125.735-.22.875-.077.078-.718.078-.937.078H1.25L2.297-1.78c1.531-1.36 2.125-1.89 2.125-2.875 0-1.125-.875-1.907-2.078-1.907A1.813 1.813 0 0 0 .5-4.78c0 .547.484.547.516.547.172 0 .515-.11.515-.516A.504.504 0 0 0 1-5.266c-.078 0-.094 0-.125.016.234-.64.766-1.016 1.328-1.016.906 0 1.328.797 1.328 1.61 0 .797-.5 1.562-1.031 2.187L.594-.359C.5-.25.5-.234.5 0h3.656Zm0 0"/><path id="c" d="M4.5-1.687c0-.813-.61-1.579-1.64-1.782.812-.265 1.374-.953 1.374-1.734 0-.813-.859-1.36-1.812-1.36-1 0-1.735.594-1.735 1.344 0 .313.204.5.5.5.297 0 .5-.203.5-.5 0-.484-.468-.484-.609-.484.297-.484.953-.61 1.313-.61.406 0 .937.204.937 1.094 0 .125-.015.688-.265 1.125-.297.469-.641.5-.891.516a3.306 3.306 0 0 1-.375.031c-.078 0-.156.016-.156.11 0 .109.078.109.25.109h.422c.812 0 1.171.672 1.171 1.64 0 1.344-.671 1.626-1.109 1.626-.422 0-1.156-.172-1.5-.75.344.046.64-.157.64-.532a.537.537 0 0 0-.546-.562c-.235 0-.547.14-.547.578 0 .89.906 1.547 1.984 1.547C3.61.219 4.5-.687 4.5-1.687m0 0"/><path id="d" d="M4.64-1.625v-.312h-.984v-4.485c0-.187 0-.25-.156-.25-.094 0-.125 0-.203.11L.28-1.937v.312h2.625v.86c0 .343-.031.453-.75.453h-.219V0c.407-.031.922-.031 1.329-.031.422 0 .937 0 1.343.031v-.312h-.203c-.734 0-.75-.11-.75-.454v-.859Zm-1.687-.312H.547L2.953-5.61Zm0 0"/><path id="e" d="m6.75-4.453-.187-2.219H.547L.359-4.453h.235c.14-1.594.297-1.922 1.781-1.922.172 0 .438 0 .531.031.203.032.203.14.203.375V-.78c0 .344 0 .469-1.03.469h-.392V0c.407-.031 1.407-.031 1.86-.031.453 0 1.469 0 1.875.031v-.312h-.39C4-.312 4-.437 4-.782v-5.187c0-.203 0-.343.172-.375.11-.031.375-.031.562-.031 1.485 0 1.641.328 1.766 1.922Zm0 0"/><path id="f" d="M7.063-6.422v-.312l-1.157.03-1.156-.03v.312c1.016 0 1.016.453 1.016.719v4.219L2.28-6.61c-.078-.11-.094-.125-.281-.125H.328v.312H.61c.157 0 .344 0 .5.016.22.031.235.031.235.218v5.157c0 .265 0 .718-1.016.718V0l1.156-.031L2.625 0v-.312c-1.016 0-1.016-.454-1.016-.72v-5.124a.365.365 0 0 1 .11.11L5.734-.126c.094.11.11.125.172.125.14 0 .14-.062.14-.25v-5.453c0-.266 0-.719 1.016-.719m0 0"/><path id="g" d="M2.031-5.812c0-.594-.234-1.032-.656-1.032a.517.517 0 0 0-.531.532c0 .25.172.515.531.515a.57.57 0 0 0 .39-.156l.032-.031s.016.14.016.172a2.25 2.25 0 0 1-.688 1.64C1-4.047 1-4.032 1-4c0 .063.063.11.11.11.109 0 .921-.75.921-1.922m0 0"/><path id="h" d="M5.734-2.547h-.25C5.391-1.53 5.25-.312 3.516-.312h-.813c-.469 0-.484-.063-.484-.391v-5.25c0-.344 0-.469.937-.469h.328v-.312c-.359.03-1.25.03-1.656.03-.39 0-1.156 0-1.5-.03v.312h.235c.765 0 .78.11.78.453v5.203c0 .344-.015.454-.78.454H.328V0h5.14Zm0 0"/><path id="m" d="M6.156-4.906c0-.953-.984-1.828-2.328-1.828H.344v.312h.234c.766 0 .781.11.781.453v5.203c0 .344-.015.454-.78.454H.343V0c.344-.031 1.078-.031 1.453-.031s1.11 0 1.453.031v-.312h-.234c-.766 0-.782-.11-.782-.454v-2.343h1.672c1.188 0 2.25-.813 2.25-1.797m-1.015 0c0 .468 0 1.531-1.578 1.531h-1.36v-2.656c0-.328.031-.39.485-.39h.874c1.579 0 1.579 1.03 1.579 1.515m0 0"/><path id="n" d="M6.422-2.547h-.234C5.938-1.03 5.703-.312 4.015-.312H2.703c-.469 0-.484-.063-.484-.391v-2.625h.89c.954 0 1.063.312 1.063 1.156h.25v-2.625h-.25c0 .86-.11 1.156-1.063 1.156h-.89V-6c0-.328.015-.406.484-.406H3.97c1.515 0 1.781.547 1.937 1.922h.25l-.281-2.22H.328v.298h.235c.765 0 .78.11.78.468v5.172c0 .344-.015.454-.78.454H.328V0h5.688Zm0 0"/><path id="i" d="M7.5-6.86c0-.015-.031-.093-.11-.093-.03 0-.046.016-.156.125l-.687.75c-.094-.14-.547-.875-1.64-.875C2.718-6.953.5-4.766.5-2.484.5-.86 1.656.219 3.172.219c.844 0 1.594-.39 2.125-.844.922-.812 1.078-1.719 1.078-1.734 0-.11-.094-.11-.11-.11-.062 0-.109.031-.14.11a3.11 3.11 0 0 1-.984 1.547c-.688.562-1.313.718-1.813.718-.89 0-1.937-.5-1.937-2.047 0-.562.203-2.156 1.187-3.312.61-.703 1.531-1.188 2.406-1.188 1.016 0 1.594.75 1.594 1.891 0 .406-.031.406-.031.516 0 .093.11.093.14.093.141 0 .141-.015.188-.203Zm0 0"/><path id="j" d="M2.313-4.39c0-.188-.016-.188-.204-.188-.437.422-1.078.437-1.359.437v.25c.172 0 .625 0 1-.203v3.532c0 .218 0 .312-.687.312H.797V0C.922 0 1.78-.031 2.03-.031 2.25-.031 3.11 0 3.266 0v-.25H3c-.687 0-.687-.094-.687-.312Zm0 0"/><path id="k" d="M3.484-1.25H3.25c-.016.14-.094.547-.172.625-.062.031-.594.031-.687.031H1.125c.719-.64.953-.828 1.375-1.156.516-.406.984-.828.984-1.484 0-.844-.734-1.344-1.609-1.344-.86 0-1.437.594-1.437 1.234 0 .344.296.375.359.375.172 0 .375-.11.375-.36 0-.124-.047-.358-.406-.358.203-.5.672-.657 1-.657.687 0 1.047.547 1.047 1.11 0 .593-.422 1.078-.641 1.328L.5-.266C.438-.203.438-.187.438 0H3.28Zm0 0"/><path id="l" d="M1.89-2.312c.532 0 .923.374.923 1.124 0 .844-.5 1.11-.907 1.11-.265 0-.875-.078-1.172-.484.329-.016.407-.25.407-.391a.37.37 0 0 0-.375-.375c-.203 0-.391.11-.391.39 0 .657.719 1.079 1.547 1.079.969 0 1.625-.641 1.625-1.328 0-.547-.438-1.079-1.203-1.25.734-.25.984-.782.984-1.188 0-.547-.625-.953-1.39-.953-.766 0-1.344.36-1.344.922 0 .234.14.36.36.36a.337.337 0 0 0 .343-.345c0-.203-.14-.343-.344-.359.235-.312.719-.39.969-.39.312 0 .75.156.75.765 0 .281-.11.594-.281.813-.235.265-.422.28-.766.296-.172.016-.187.016-.219.016-.015 0-.078.016-.078.094 0 .094.063.094.188.094Zm0 0"/><clipPath id="o"><path d="M54 75h1v11.227h-1Zm0 0"/></clipPath><clipPath id="p"><path d="M48 85h13v1.227H48Zm0 0"/></clipPath></defs><path fill="none" stroke="#000" stroke-linejoin="bevel" stroke-miterlimit="10" stroke-width=".7889263900000001" d="M97.973 19.375c3.09 0 5.597 1.715 5.597 3.828 0 2.117-2.507 3.832-5.597 3.832 3.09 0 5.597 1.715 5.597 3.832 0 2.113-2.507 3.828-5.597 3.828 3.09 0 5.597 1.715 5.597 3.832 0 2.114-2.507 3.828-5.597 3.828 3.09 0 5.597 1.715 5.597 3.833 0 2.113-2.507 3.828-5.597 3.828M120.676 50.02c-3.09 0-5.598-1.72-5.598-3.832 0-2.118 2.508-3.833 5.598-3.833-3.09 0-5.598-1.714-5.598-3.828 0-2.117 2.508-3.832 5.598-3.832-3.09 0-5.598-1.715-5.598-3.828 0-2.117 2.508-3.832 5.598-3.832-3.09 0-5.598-1.715-5.598-3.832 0-2.113 2.508-3.828 5.598-3.828"/><path fill="none" stroke="#000" stroke-miterlimit="10" stroke-width=".39495813" d="M81.336 6.707h16.793V19.77m0 29.855v13.059H81.336m55.977-55.977H120.52V19.77m0 29.855v13.059h16.793"/><path fill="none" stroke="#000" stroke-miterlimit="10" stroke-width=".7889263900000001" d="M110.723 48.691V20.703m-2.797 27.988V20.703"/><path stroke="#000" stroke-miterlimit="10" stroke-width=".39495813" d="M105.297 53.355a1.57 1.57 0 1 0-3.14 0 1.57 1.57 0 0 0 3.14 0ZM116.492 53.355a1.57 1.57 0 1 0-3.14 0 1.57 1.57 0 0 0 3.14 0Zm0 0"/><use xlink:href="#a" x="87.848" y="52.907"/><use xlink:href="#b" x="87.848" y="23.053"/><use xlink:href="#c" x="125.869" y="52.799"/><use xlink:href="#d" x="125.869" y="23.108"/><use xlink:href="#e" x="105.763" y="10.047"/><path fill="none" stroke="#000" stroke-miterlimit="10" stroke-width=".39495813" d="M81.336 62.684H68.008m0 0H38.02m0 0H21.36"/><path fill="#FFF" stroke="#000" stroke-miterlimit="10" stroke-width=".39495813" d="M22.934 62.684c0-.868-.704-1.57-1.575-1.57a1.57 1.57 0 0 0 0 3.14c.871 0 1.575-.703 1.575-1.57Zm0 0"/><use xlink:href="#f" x="10.482" y="66.052"/><path fill="none" stroke="#000" stroke-miterlimit="10" stroke-width=".39495813" d="M137.313 62.684h19.992m0 0h33.316m0 0h13.328"/><path fill="#FFF" stroke="#000" stroke-miterlimit="10" stroke-width=".39495813" d="M205.523 62.684c0-.868-.707-1.57-1.574-1.57a1.57 1.57 0 0 0 0 3.14c.867 0 1.574-.703 1.574-1.57Zm0 0"/><use xlink:href="#f" x="207.433" y="66.106"/><use xlink:href="#g" x="214.83" y="66.106"/><path fill="none" stroke="#000" stroke-miterlimit="10" stroke-width=".39495813" d="M81.336 6.707H68.008m0 0H38.02m0 0H21.36"/><path fill="#FFF" stroke="#000" stroke-miterlimit="10" stroke-width=".39495813" d="M22.934 6.707c0-.867-.704-1.57-1.575-1.57a1.57 1.57 0 0 0 0 3.14c.871 0 1.575-.703 1.575-1.57Zm0 0"/><use xlink:href="#h" x="6.784" y="10.077"/><use xlink:href="#a" x="12.947" y="10.077"/><path fill="none" stroke="#000" stroke-miterlimit="10" stroke-width=".39495813" d="M137.313 6.707h19.992m0 0h33.316m0 0h13.328"/><path fill="#FFF" stroke="#000" stroke-miterlimit="10" stroke-width=".39495813" d="M205.523 6.707c0-.867-.707-1.57-1.574-1.57a1.57 1.57 0 0 0 0 3.14c.867 0 1.574-.703 1.574-1.57Zm0 0"/><use xlink:href="#h" x="207.433" y="10.13"/><use xlink:href="#a" x="213.597" y="10.13"/><use xlink:href="#g" x="218.528" y="10.13"/><path fill="none" stroke="#000" stroke-miterlimit="10" stroke-width=".39495813" d="M54.68 6.707v24.258m0 7.465v24.254"/><path fill="none" stroke="#000" stroke-miterlimit="10" stroke-width=".7889263900000001" d="M65.875 30.965h-22.39m22.39 7.465h-22.39"/><path stroke="#000" stroke-miterlimit="10" stroke-width=".39495813" d="M56.25 6.707a1.57 1.57 0 1 0-3.14 0 1.57 1.57 0 0 0 3.14 0ZM56.25 62.684a1.57 1.57 0 1 0-3.14 0 1.57 1.57 0 0 0 3.14 0Zm0 0"/><use xlink:href="#i" x="68.59" y="36.821"/><use xlink:href="#j" x="75.638" y="38.3"/><path fill="none" stroke="#000" stroke-miterlimit="10" stroke-width=".39495813" d="M177.297 6.707v10.262m0 7.465v20.523m0 7.465v10.262"/><path fill="none" stroke="#000" stroke-miterlimit="10" stroke-width=".7889263900000001" d="M188.492 16.969h-22.39m22.39 7.465h-22.39"/><path stroke="#000" stroke-miterlimit="10" stroke-width=".39495813" d="M178.867 6.707a1.57 1.57 0 0 0-1.57-1.57 1.571 1.571 0 1 0 1.57 1.57Zm0 0"/><use xlink:href="#i" x="191.202" y="22.828"/><use xlink:href="#k" x="198.251" y="24.306"/><path fill="none" stroke="#000" stroke-miterlimit="10" stroke-width=".7889263900000001" d="M188.492 44.957h-22.39m22.39 7.465h-22.39"/><path stroke="#000" stroke-miterlimit="10" stroke-width=".39495813" d="M178.867 62.684a1.57 1.57 0 0 0-1.57-1.57 1.571 1.571 0 1 0 1.57 1.57Zm0 0"/><use xlink:href="#i" x="191.202" y="50.815"/><use xlink:href="#l" x="198.251" y="52.294"/><path fill="none" stroke="#000" stroke-miterlimit="10" stroke-width=".39495813" d="M21.36 76.012h16.66m0 0h91.296m0 0h74.633"/><use xlink:href="#m" x="4.447" y="79.38"/><use xlink:href="#n" x="11.163" y="79.38"/><path fill="#FFF" stroke="#000" stroke-miterlimit="10" stroke-width=".39495813" d="M22.934 76.012c0-.867-.704-1.57-1.575-1.57a1.57 1.57 0 0 0 0 3.14c.871 0 1.575-.703 1.575-1.57Zm0 0"/><path stroke="#000" stroke-miterlimit="10" stroke-width=".39495813" d="M56.25 76.012a1.57 1.57 0 1 0-3.14 0 1.57 1.57 0 0 0 3.14 0Zm0 0"/><g clip-path="url(#o)"><path fill="none" stroke="#000" stroke-miterlimit="10" stroke-width=".39495813" d="M54.68 76.012v9.82"/></g><g clip-path="url(#p)"><path fill="none" stroke="#000" stroke-linecap="round" stroke-miterlimit="10" stroke-width=".7889263900000001" d="M48.79 85.832h11.784"/></g><path fill="#FFF" stroke="#000" stroke-miterlimit="10" stroke-width=".39495813" d="M205.523 76.012c0-.867-.707-1.57-1.574-1.57a1.57 1.57 0 0 0 0 3.14c.867 0 1.574-.703 1.574-1.57Zm0 0"/><use xlink:href="#m" x="207.433" y="79.38"/><use xlink:href="#n" x="214.149" y="79.38"/><path fill="none" stroke="#000" stroke-miterlimit="10" stroke-width=".39495813" d="M54.68 62.684v6.664m0 0v6.664"/></svg>