<svg xmlns="http://www.w3.org/2000/svg" xmlns:xlink="http://www.w3.org/1999/xlink" width="229" height="70.103"><defs><path id="a" d="M4.125 0v-.312h-.312c-.891 0-.922-.094-.922-.47v-5.515c0-.234 0-.266-.22-.266-.608.641-1.483.641-1.796.641v.297c.203 0 .781 0 1.297-.25v5.094c0 .36-.031.469-.922.469H.938V0C1.28-.031 2.14-.031 2.53-.031c.39 0 1.25 0 1.594.031m0 0"/><path id="b" d="M4.422-1.719h-.25c-.047.297-.11.735-.219.875-.062.078-.719.078-.937.078H1.25l1.047-1c1.531-1.359 2.125-1.89 2.125-2.875 0-1.125-.89-1.921-2.094-1.921A1.81 1.81 0 0 0 .5-4.782c0 .563.484.563.516.563a.516.516 0 0 0 .515-.531c0-.25-.187-.5-.531-.5H.875c.234-.64.766-1 1.328-1 .89 0 1.328.797 1.328 1.61 0 .78-.5 1.562-1.047 2.171L.594-.359C.5-.25.5-.234.5 0h3.64Zm0 0"/><path id="c" d="M4.5-1.687c0-.797-.625-1.579-1.64-1.782.796-.265 1.374-.953 1.374-1.734 0-.797-.875-1.36-1.812-1.36-1 0-1.75.594-1.75 1.344 0 .328.219.516.516.516.296 0 .5-.219.5-.5 0-.5-.47-.5-.61-.5.297-.484.953-.61 1.297-.61.406 0 .953.22.953 1.11 0 .11-.015.687-.281 1.125-.297.469-.625.5-.875.5a3.306 3.306 0 0 1-.375.031c-.078.016-.156.016-.156.125 0 .11.078.11.234.11h.438c.812 0 1.171.671 1.171 1.624 0 1.344-.671 1.626-1.109 1.626-.422 0-1.172-.157-1.516-.75.344.046.657-.157.657-.532a.537.537 0 0 0-.547-.562c-.235 0-.563.14-.563.578 0 .89.922 1.547 2 1.547C3.61.219 4.5-.671 4.5-1.687m0 0"/><path id="d" d="M4.64-1.625v-.297h-.984v-4.484c0-.203 0-.266-.156-.266-.094 0-.125 0-.203.125L.28-1.922v.297h2.61v.86c0 .359-.016.453-.75.453h-.203V0c.406-.031.921-.031 1.328-.031.422 0 .937 0 1.343.031v-.312h-.203c-.734 0-.75-.094-.75-.454v-.859Zm-1.687-.297H.547l2.406-3.672Zm0 0"/><path id="e" d="m6.75-4.453-.187-2.219H.547L.359-4.453h.235C.734-6.031.89-6.36 2.375-6.36c.172 0 .438 0 .531.015.203.047.203.157.203.375V-.78c0 .344 0 .469-1.03.469h-.392V0c.407-.031 1.407-.031 1.86-.031.453 0 1.469 0 1.875.031v-.312h-.406c-1.032 0-1.032-.125-1.032-.47v-5.187c0-.187 0-.328.172-.375.11-.015.375-.015.563-.015 1.5 0 1.64.328 1.781 1.906Zm0 0"/><path id="g" d="M7.047-6.422v-.297l-1.156.032L4.75-6.72v.297c1.016 0 1.016.469 1.016.734v4.204L2.28-6.594c-.094-.125-.094-.125-.281-.125H.328v.297H.61c.157 0 .344.016.5.016.22.031.235.047.235.234v5.14c0 .266 0 .72-1.016.72V0l1.156-.031L2.625 0v-.312c-1.016 0-1.016-.454-1.016-.72v-5.124a.893.893 0 0 1 .11.125L5.734-.125c.079.11.094.125.157.125.14 0 .14-.062.14-.25v-5.437c0-.266 0-.735 1.016-.735m0 0"/><path id="i" d="M2.031-5.797c0-.594-.234-1.031-.656-1.031a.513.513 0 0 0-.531.516c0 .265.172.53.531.53.188 0 .328-.109.39-.171 0-.016.032-.016.032-.016s.016.125.016.172c0 .313-.063 1.016-.688 1.64C1-4.046 1-4.03 1-4c0 .078.047.11.11.11.093 0 .921-.75.921-1.907m0 0"/><path id="j" d="M5.734-2.547h-.25C5.375-1.53 5.234-.312 3.5-.312h-.797c-.469 0-.484-.063-.484-.391v-5.25c0-.328 0-.469.937-.469h.313v-.297c-.344.032-1.25.032-1.64.032-.391 0-1.157 0-1.5-.032v.297h.233c.75 0 .782.11.782.469v5.187c0 .36-.032.454-.782.454H.329V0h5.125Zm0 0"/><path id="k" d="M6.14-4.89c0-.97-.968-1.829-2.327-1.829H.342v.297h.235c.766 0 .781.11.781.469v5.187c0 .36-.015.454-.78.454H.343V0c.344-.031 1.078-.031 1.453-.031s1.11 0 1.453.031v-.312h-.234c-.766 0-.782-.094-.782-.454v-2.343h1.657c1.187 0 2.25-.797 2.25-1.782m-1.015 0c0 .452 0 1.53-1.562 1.53h-1.36V-6.03c0-.313.016-.39.485-.39h.874c1.563 0 1.563 1.046 1.563 1.53m0 0"/><path id="l" d="M6.422-2.547h-.25C5.922-1.03 5.703-.312 4-.312H2.703c-.469 0-.484-.063-.484-.391v-2.625h.875c.969 0 1.062.312 1.062 1.156h.25v-2.61h-.25c0 .845-.093 1.157-1.062 1.157h-.875V-6c0-.312.015-.39.484-.39H3.97c1.5 0 1.765.546 1.922 1.906h.25l-.282-2.203H.33v.296h.233c.75 0 .782.11.782.47v5.155c0 .36-.032.454-.782.454H.329V0H6Zm0 0"/><path id="n" d="M7.484-6.844c0-.031-.015-.093-.109-.093-.031 0-.047 0-.156.109l-.688.766c-.078-.141-.531-.875-1.625-.875C2.703-6.937.5-4.767.5-2.484.5-.86 1.656.219 3.156.219c.86 0 1.61-.39 2.125-.844.922-.812 1.094-1.703 1.094-1.734 0-.11-.11-.11-.125-.11-.062 0-.11.031-.125.11-.094.28-.312.984-1 1.547-.672.562-1.297.718-1.812.718-.876 0-1.922-.5-1.922-2.047 0-.562.203-2.156 1.187-3.296.594-.704 1.531-1.204 2.406-1.204 1 0 1.579.766 1.579 1.907 0 .39-.032.406-.032.5 0 .093.11.093.157.093.125 0 .125-.015.171-.187Zm0 0"/><path id="o" d="M2.313-4.375c0-.187-.016-.203-.204-.203-.453.437-1.078.437-1.359.437v.25c.172 0 .625 0 1-.187v3.516c0 .218 0 .312-.687.312H.797V0c.125 0 .969-.031 1.234-.031.203 0 1.078.031 1.235.031v-.25H3c-.687 0-.687-.094-.687-.312Zm0 0"/><path id="p" d="M3.484-1.25H3.25c-.031.14-.094.547-.187.625-.047.047-.579.047-.672.047H1.109c.735-.64.97-.844 1.391-1.172.5-.406.984-.828.984-1.484 0-.828-.734-1.344-1.609-1.344-.86 0-1.437.61-1.437 1.234 0 .36.296.39.359.39a.369.369 0 0 0 .375-.374c0-.11-.063-.36-.406-.36.203-.484.672-.64 1-.64.687 0 1.047.531 1.047 1.094 0 .609-.422 1.078-.657 1.328L.5-.266C.438-.203.438-.187.438 0h2.828Zm0 0"/><path id="r" d="M1.875-2.297c.547 0 .922.375.922 1.11 0 .843-.485 1.109-.89 1.109-.266 0-.876-.078-1.173-.484.329-.016.407-.25.407-.391a.37.37 0 0 0-.375-.375c-.203 0-.391.11-.391.39 0 .657.719 1.079 1.547 1.079.953 0 1.625-.641 1.625-1.328 0-.547-.453-1.079-1.203-1.235.719-.265.984-.781.984-1.203 0-.547-.625-.953-1.39-.953-.766 0-1.36.375-1.36.922 0 .234.156.375.36.375.218 0 .359-.156.359-.36 0-.203-.14-.343-.36-.359.25-.297.72-.375.985-.375.297 0 .734.156.734.75 0 .297-.094.61-.265.828-.235.25-.422.266-.766.281-.172.016-.187.016-.219.032-.015 0-.078.015-.078.093 0 .094.063.094.188.094Zm0 0"/><clipPath id="f"><path d="M14 55h15v14.219H14Zm0 0"/></clipPath><clipPath id="h"><path d="M196 55h15v14.219h-15Zm0 0"/></clipPath><clipPath id="m"><path d="M47 55h15v14.219H47Zm0 0"/></clipPath><clipPath id="q"><path d="M170 55h15v14.219h-15Zm0 0"/></clipPath></defs><path fill="none" stroke="#000" stroke-linejoin="bevel" stroke-miterlimit="10" stroke-width=".78693389" d="M94.055 45.934c0-3.086 1.71-5.586 3.82-5.586s3.82 2.5 3.82 5.586c0-3.086 1.711-5.586 3.82-5.586 2.11 0 3.82 2.5 3.82 5.586 0-3.086 1.712-5.586 3.821-5.586 2.114 0 3.82 2.5 3.82 5.586 0-3.086 1.711-5.586 3.825-5.586 2.11 0 3.82 2.5 3.82 5.586M124.621 23.285c0 3.082-1.71 5.582-3.82 5.582-2.114 0-3.824-2.5-3.824-5.582 0 3.082-1.707 5.582-3.82 5.582-2.11 0-3.821-2.5-3.821-5.582 0 3.082-1.711 5.582-3.82 5.582-2.11 0-3.82-2.5-3.82-5.582 0 3.082-1.712 5.582-3.821 5.582-2.11 0-3.82-2.5-3.82-5.582"/><path fill="none" stroke="#000" stroke-miterlimit="10" stroke-width=".39396063000000003" d="M81.422 62.523v-16.75h13.027m29.778 0h13.027v16.75M81.422 6.691v16.75h13.027m29.778 0h13.027V6.691"/><path fill="none" stroke="#000" stroke-miterlimit="10" stroke-width=".78693389" d="M123.297 33.21H95.379m27.918 2.794H95.379"/><path stroke="#000" stroke-miterlimit="10" stroke-width=".39396063000000003" d="M92.293 40.191a1.566 1.566 0 1 0-3.132 0 1.566 1.566 0 0 0 3.132 0ZM92.293 29.023a1.566 1.566 0 0 0-3.133 0 1.567 1.567 0 1 0 3.133 0Zm0 0"/><use xlink:href="#a" x="91.989" y="18.105"/><use xlink:href="#b" x="121.767" y="18.105"/><use xlink:href="#c" x="91.989" y="57.663"/><use xlink:href="#d" x="121.767" y="57.771"/><use xlink:href="#e" x="105.786" y="10.022"/><path fill="none" stroke="#000" stroke-miterlimit="10" stroke-width=".39396063000000003" d="M81.422 62.523H68.125m0 0h-29.91m0 0H21.598"/><path fill="#FFF" d="M23.164 62.523a1.566 1.566 0 0 0-3.133 0 1.567 1.567 0 1 0 3.133 0m0 0"/><g clip-path="url(#f)"><path fill="none" stroke="#000" stroke-miterlimit="10" stroke-width=".39396063000000003" d="M23.164 62.523a1.566 1.566 0 0 0-3.133 0 1.567 1.567 0 1 0 3.133 0Zm0 0"/></g><use xlink:href="#g" x="10.746" y="65.885"/><path fill="none" stroke="#000" stroke-miterlimit="10" stroke-width=".39396063000000003" d="M137.254 62.523h19.941m0 0h33.235m0 0h13.293"/><path fill="#FFF" d="M205.29 62.523a1.566 1.566 0 1 0-3.134 0 1.567 1.567 0 1 0 3.133 0m0 0"/><g clip-path="url(#h)"><path fill="none" stroke="#000" stroke-miterlimit="10" stroke-width=".39396063000000003" d="M205.289 62.523a1.566 1.566 0 1 0-3.133 0 1.567 1.567 0 1 0 3.133 0Zm0 0"/></g><use xlink:href="#g" x="207.198" y="65.938"/><use xlink:href="#i" x="214.575" y="65.938"/><path fill="none" stroke="#000" stroke-miterlimit="10" stroke-width=".39396063000000003" d="M81.422 6.691H68.125m0 0h-29.91m0 0H21.598"/><path fill="#FFF" stroke="#000" stroke-miterlimit="10" stroke-width=".39396063000000003" d="M23.164 6.691a1.566 1.566 0 1 0-3.132 0 1.566 1.566 0 0 0 3.132 0Zm0 0"/><use xlink:href="#j" x="7.057" y="10.051"/><use xlink:href="#a" x="13.205" y="10.051"/><path fill="none" stroke="#000" stroke-miterlimit="10" stroke-width=".39396063000000003" d="M137.254 6.691h19.941m0 0h33.235m0 0h13.293"/><path fill="#FFF" stroke="#000" stroke-miterlimit="10" stroke-width=".39396063000000003" d="M205.289 6.691a1.566 1.566 0 1 0-3.133 0 1.566 1.566 0 0 0 3.133 0Zm0 0"/><use xlink:href="#j" x="207.198" y="10.105"/><use xlink:href="#a" x="213.346" y="10.105"/><use xlink:href="#i" x="218.264" y="10.105"/><path fill="none" stroke="#000" stroke-miterlimit="10" stroke-width=".39396063000000003" d="M21.598 34.61h6.648m0 0h6.645"/><use xlink:href="#k" x="4.726" y="37.968"/><use xlink:href="#l" x="11.424" y="37.968"/><path fill="#FFF" stroke="#000" stroke-miterlimit="10" stroke-width=".39396063000000003" d="M23.164 34.61a1.566 1.566 0 1 0-3.132-.001 1.566 1.566 0 0 0 3.132 0Zm0 0"/><path fill="none" stroke="#000" stroke-miterlimit="10" stroke-width=".39396063000000003" d="M34.89 34.61v9.792"/><path fill="none" stroke="#000" stroke-linecap="round" stroke-miterlimit="10" stroke-width=".78693389" d="M29.012 44.402H40.77"/><path fill="none" stroke="#000" stroke-miterlimit="10" stroke-width=".39396063000000003" d="M54.832 6.691v24.196m0 7.445v24.191"/><path fill="none" stroke="#000" stroke-miterlimit="10" stroke-width=".78693389" d="M66 30.887H43.664M66 38.332H43.664"/><path stroke="#000" stroke-miterlimit="10" stroke-width=".39396063000000003" d="M56.398 6.691c0-.867-.699-1.566-1.566-1.566a1.566 1.566 0 1 0 1.566 1.566Zm0 0"/><path d="M56.398 62.523a1.566 1.566 0 1 0-3.132 0 1.567 1.567 0 1 0 3.132 0m0 0"/><g clip-path="url(#m)"><path fill="none" stroke="#000" stroke-miterlimit="10" stroke-width=".39396063000000003" d="M56.398 62.523a1.566 1.566 0 1 0-3.132 0 1.567 1.567 0 1 0 3.132 0Zm0 0"/></g><use xlink:href="#n" x="68.706" y="36.728"/><use xlink:href="#o" x="75.737" y="38.203"/><path fill="none" stroke="#000" stroke-miterlimit="10" stroke-width=".39396063000000003" d="M177.137 6.691v10.235m0 7.445v20.473m0 7.445v10.234"/><path fill="none" stroke="#000" stroke-miterlimit="10" stroke-width=".78693389" d="M188.305 16.926h-22.336m22.336 7.445h-22.336"/><path stroke="#000" stroke-miterlimit="10" stroke-width=".39396063000000003" d="M178.703 6.691a1.566 1.566 0 1 0-3.132 0 1.566 1.566 0 0 0 3.132 0ZM178.703 34.61a1.566 1.566 0 1 0-3.132-.001 1.566 1.566 0 0 0 3.132 0Zm0 0"/><use xlink:href="#n" x="191.008" y="22.77"/><use xlink:href="#p" x="198.039" y="24.245"/><path fill="none" stroke="#000" stroke-miterlimit="10" stroke-width=".78693389" d="M188.305 44.844h-22.336m22.336 7.445h-22.336"/><path stroke="#000" stroke-miterlimit="10" stroke-width=".39396063000000003" d="M178.703 34.61a1.566 1.566 0 1 0-3.132-.001 1.566 1.566 0 0 0 3.132 0Zm0 0"/><path d="M178.703 62.523a1.566 1.566 0 0 0-3.133 0 1.567 1.567 0 1 0 3.133 0m0 0"/><g clip-path="url(#q)"><path fill="none" stroke="#000" stroke-miterlimit="10" stroke-width=".39396063000000003" d="M178.703 62.523a1.566 1.566 0 0 0-3.133 0 1.567 1.567 0 1 0 3.133 0Zm0 0"/></g><use xlink:href="#n" x="191.008" y="50.686"/><use xlink:href="#r" x="198.039" y="52.162"/><path fill="none" stroke="#000" stroke-miterlimit="10" stroke-width=".39396063000000003" d="M177.137 34.61h-13.293m0 0h-13.297M150.547 34.61v9.792"/><path fill="none" stroke="#000" stroke-linecap="round" stroke-miterlimit="10" stroke-width=".78693389" d="M144.672 44.402h11.754"/></svg>