<svg xmlns="http://www.w3.org/2000/svg" xmlns:xlink="http://www.w3.org/1999/xlink" width="228.481" height="70.668"><defs><path id="a" d="M4.156 0v-.312h-.312c-.89 0-.922-.11-.922-.47v-5.562c0-.25 0-.265-.235-.265-.609.64-1.484.64-1.796.64v.297c.187 0 .78 0 1.297-.25v5.14c0 .36-.032.47-.922.47H.938V0c.359-.031 1.218-.031 1.609-.031.406 0 1.265 0 1.61.031m0 0"/><path id="b" d="M4.453-1.719h-.25c-.047.297-.11.735-.219.875-.062.078-.718.078-.937.078H1.266L2.313-1.78c1.546-1.375 2.14-1.906 2.14-2.907 0-1.125-.89-1.921-2.11-1.921C1.235-6.61.5-5.687.5-4.812c0 .562.484.562.516.562a.516.516 0 0 0 .515-.531c0-.266-.172-.516-.515-.516-.079 0-.11 0-.125.016.218-.657.75-1.016 1.328-1.016.906 0 1.328.797 1.328 1.61 0 .796-.485 1.578-1.031 2.203L.609-.36C.5-.266.5-.234.5 0h3.672Zm0 0"/><path id="c" d="M4.531-1.703c0-.813-.625-1.578-1.656-1.797.813-.266 1.39-.953 1.39-1.734 0-.813-.874-1.375-1.827-1.375-1 0-1.75.593-1.75 1.343 0 .329.218.516.5.516.312 0 .515-.203.515-.5 0-.5-.469-.5-.625-.5.313-.484.969-.61 1.328-.61.406 0 .953.22.953 1.11 0 .125-.03.703-.28 1.125-.298.484-.642.516-.892.516a3.306 3.306 0 0 1-.374.03c-.094.017-.157.032-.157.126 0 .11.063.11.235.11h.437c.813 0 1.188.671 1.188 1.64 0 1.36-.688 1.64-1.125 1.64-.422 0-1.172-.171-1.516-.75.344.047.656-.171.656-.546 0-.36-.265-.563-.562-.563-.235 0-.547.14-.547.578 0 .907.922 1.563 2 1.563 1.203 0 2.11-.906 2.11-1.922m0 0"/><path id="d" d="M4.672-1.64v-.298h-.984v-4.515c0-.203 0-.266-.172-.266-.079 0-.11 0-.188.125L.281-1.937v.296h2.64v.86c0 .36-.03.469-.765.469h-.203V0c.406-.031.922-.031 1.344-.031.406 0 .937 0 1.344.031v-.312h-.203c-.735 0-.75-.11-.75-.47v-.859Zm-1.703-.298H.563L2.969-5.64Zm0 0"/><path id="e" d="M6.797-4.484 6.609-6.72H.547L.359-4.484h.25C.75-6.078.891-6.406 2.391-6.406c.172 0 .437 0 .53.015.22.047.22.157.22.375V-.78c0 .328 0 .469-1.047.469h-.39V0c.405-.031 1.405-.031 1.874-.031.453 0 1.469 0 1.875.031v-.312h-.39c-1.047 0-1.047-.141-1.047-.47v-5.234c0-.203 0-.328.187-.375.11-.015.375-.015.563-.015 1.5 0 1.64.328 1.78 1.922Zm0 0"/><path id="g" d="M7.11-6.469v-.312l-1.173.031-1.156-.031v.312c1.016 0 1.016.469 1.016.735V-1.5l-3.5-5.14c-.078-.126-.094-.141-.281-.141H.328v.312H.61c.157 0 .36.016.5.016.235.031.235.047.235.234v5.172c0 .266 0 .734-1.016.734V0l1.156-.031L2.656 0v-.312c-1.031 0-1.031-.47-1.031-.735v-5.156a.376.376 0 0 1 .094.125L5.78-.125c.078.11.094.125.157.125.14 0 .14-.062.14-.266v-5.468c0-.266 0-.735 1.031-.735m0 0"/><path id="i" d="M2.047-5.844c0-.593-.235-1.047-.672-1.047-.344 0-.516.266-.516.532 0 .25.157.53.516.53.203 0 .344-.109.406-.171 0-.016.032-.016.032-.016s.015.125.015.172c0 .313-.078 1.032-.703 1.64-.11.126-.11.141-.11.173 0 .078.048.11.094.11.11 0 .938-.75.938-1.923m0 0"/><path id="j" d="M5.781-2.562h-.25c-.11 1.015-.25 2.25-2 2.25H2.72c-.469 0-.485-.063-.485-.391V-6c0-.328 0-.469.938-.469H3.5v-.312c-.36.031-1.25.031-1.672.031-.375 0-1.156 0-1.5-.031v.312h.235c.765 0 .78.11.78.469v5.219c0 .36-.015.469-.78.469H.328V0H5.5Zm0 0"/><path id="q" d="M6.188-4.937c0-.97-.985-1.844-2.344-1.844h-3.5v.312h.234c.766 0 .797.11.797.469v5.219c0 .36-.031.469-.797.469H.344V0c.344-.031 1.078-.031 1.469-.031.375 0 1.109 0 1.468.031v-.312h-.25c-.765 0-.781-.11-.781-.47V-3.14h1.672c1.203 0 2.266-.796 2.266-1.796m-1.016 0c0 .468 0 1.546-1.578 1.546H2.219v-2.687c0-.328.031-.39.484-.39h.89c1.579 0 1.579 1.046 1.579 1.53m0 0"/><path id="r" d="M6.469-2.562h-.25c-.25 1.53-.469 2.25-2.188 2.25H2.72c-.469 0-.485-.063-.485-.391V-3.36h.891c.969 0 1.078.328 1.078 1.172h.234v-2.641h-.234c0 .86-.11 1.172-1.078 1.172h-.89v-2.39c0-.329.015-.391.484-.391H4c1.516 0 1.781.546 1.938 1.921h.25L5.906-6.75H.328v.313h.235c.765 0 .78.109.78.468V-.78c0 .36-.015.469-.78.469H.328V0h5.719Zm0 0"/><path id="l" d="M7.547-6.89c0-.032-.031-.11-.11-.11-.03 0-.046.016-.156.125l-.687.766C6.5-6.25 6.047-7 4.937-7 2.735-7 .5-4.797.5-2.5.5-.86 1.672.219 3.188.219c.859 0 1.609-.39 2.14-.86.922-.812 1.094-1.703 1.094-1.734 0-.11-.11-.11-.125-.11-.063 0-.11.032-.125.11-.094.281-.313.984-1 1.563-.688.546-1.313.718-1.828.718-.89 0-1.938-.515-1.938-2.062 0-.563.203-2.172 1.188-3.328.61-.703 1.547-1.203 2.422-1.203 1.015 0 1.609.765 1.609 1.921 0 .391-.031.407-.031.5 0 .094.11.094.14.094.125 0 .125-.016.188-.187Zm0 0"/><path id="m" d="M2.328-4.406c0-.188-.015-.203-.219-.203-.437.437-1.062.453-1.359.453v.25c.172 0 .625 0 1.016-.203v3.547c0 .218 0 .312-.703.312h-.25V0c.109 0 .968-.031 1.234-.031C2.25-.031 3.125 0 3.28 0v-.25h-.265c-.688 0-.688-.094-.688-.312Zm0 0"/><path id="n" d="M3.5-1.266h-.234c-.016.157-.094.563-.172.641-.063.031-.594.031-.688.031H1.125c.734-.64.969-.828 1.39-1.156.516-.422.985-.844.985-1.5 0-.844-.734-1.36-1.625-1.36-.86 0-1.437.61-1.437 1.25 0 .344.296.391.375.391.156 0 .359-.125.359-.375 0-.125-.047-.375-.406-.375.218-.484.687-.64 1.015-.64.688 0 1.047.547 1.047 1.109 0 .594-.422 1.078-.656 1.328L.5-.266C.438-.203.438-.187.438 0h2.859Zm0 0"/><path id="p" d="M1.89-2.312c.548 0 .938.374.938 1.109 0 .86-.5 1.125-.906 1.125-.281 0-.89-.078-1.172-.484a.38.38 0 0 0 .39-.391c0-.219-.156-.39-.374-.39-.203 0-.391.124-.391.406C.375-.281 1.094.14 1.938.14c.968 0 1.625-.641 1.625-1.344 0-.531-.438-1.078-1.204-1.234.735-.266.985-.782.985-1.22 0-.546-.625-.952-1.39-.952-.782 0-1.36.375-1.36.937 0 .235.156.36.36.36.218 0 .343-.157.343-.344 0-.203-.125-.36-.344-.375.235-.297.719-.375.969-.375.312 0 .75.156.75.75 0 .297-.094.625-.266.828-.234.265-.422.281-.781.297-.172.015-.187.015-.219.031-.015 0-.062.016-.062.078 0 .11.062.11.172.11Zm0 0"/><clipPath id="f"><path d="M11 56h15v14.336H11Zm0 0"/></clipPath><clipPath id="h"><path d="M196 56h15v14.336h-15Zm0 0"/></clipPath><clipPath id="k"><path d="M44 56h16v14.336H44Zm0 0"/></clipPath><clipPath id="o"><path d="M169 56h15v14.336h-15Zm0 0"/></clipPath></defs><path fill="none" stroke="#000" stroke-linejoin="bevel" stroke-miterlimit="10" stroke-width=".79327004" d="M92.016 46.695c0-3.136 1.738-5.683 3.886-5.683 2.149 0 3.891 2.547 3.891 5.683 0-3.136 1.738-5.683 3.887-5.683 2.148 0 3.89 2.547 3.89 5.683 0-3.136 1.743-5.683 3.887-5.683 2.148 0 3.89 2.547 3.89 5.683 0-3.136 1.743-5.683 3.891-5.683 2.145 0 3.887 2.547 3.887 5.683M123.125 23.64c0 3.141-1.742 5.684-3.887 5.684-2.148 0-3.89-2.543-3.89-5.683 0 3.14-1.743 5.683-3.891 5.683-2.144 0-3.887-2.543-3.887-5.683 0 3.14-1.742 5.683-3.89 5.683-2.149 0-3.887-2.543-3.887-5.683 0 3.14-1.742 5.683-3.89 5.683-2.15 0-3.887-2.543-3.887-5.683"/><path fill="none" stroke="#000" stroke-miterlimit="10" stroke-width=".39713268" d="M79.148 63.594V46.539H92.41m30.32 0h13.262v17.055M79.148 6.746v17.055H92.41m30.32 0h13.262V6.746"/><path fill="none" stroke="#000" stroke-miterlimit="10" stroke-width=".79327004" d="M121.781 33.746H93.36m28.422 2.844H93.36"/><path stroke="#000" stroke-miterlimit="10" stroke-width=".39713268" d="M90.2 40.852a1.579 1.579 0 0 0-3.157 0 1.58 1.58 0 0 0 1.578 1.582 1.58 1.58 0 0 0 1.578-1.582ZM90.2 29.484a1.579 1.579 0 1 0-3.158.002 1.579 1.579 0 0 0 3.157-.002Zm0 0"/><use xlink:href="#a" x="89.932" y="18.402"/><use xlink:href="#b" x="120.249" y="18.402"/><use xlink:href="#c" x="89.932" y="58.54"/><use xlink:href="#d" x="120.249" y="58.649"/><use xlink:href="#e" x="103.99" y="10.103"/><path fill="none" stroke="#000" stroke-miterlimit="10" stroke-width=".39713268" d="M79.148 63.594H65.613m0 0H35.156m0 0H18.238"/><path fill="#FFF" d="M19.82 63.594a1.58 1.58 0 1 0-3.16-.003 1.58 1.58 0 0 0 3.16.003m0 0"/><g clip-path="url(#f)"><path fill="none" stroke="#000" stroke-miterlimit="10" stroke-width=".39713268" d="M19.82 63.594a1.58 1.58 0 1 0-3.16-.003 1.58 1.58 0 0 0 3.16.003Zm0 0"/></g><use xlink:href="#g" x="7.3" y="66.978"/><path fill="none" stroke="#000" stroke-miterlimit="10" stroke-width=".39713268" d="M135.992 63.594h20.305m0 0h33.836m0 0h13.535"/><path fill="#FFF" d="M205.246 63.594a1.58 1.58 0 0 0-1.578-1.582 1.58 1.58 0 0 0 0 3.16c.871 0 1.578-.707 1.578-1.578m0 0"/><g clip-path="url(#h)"><path fill="none" stroke="#000" stroke-miterlimit="10" stroke-width=".39713268" d="M205.246 63.594a1.58 1.58 0 0 0-1.578-1.582 1.58 1.58 0 0 0 0 3.16c.871 0 1.578-.707 1.578-1.578Zm0 0"/></g><use xlink:href="#g" x="207.17" y="67.032"/><use xlink:href="#i" x="214.607" y="67.032"/><path fill="none" stroke="#000" stroke-miterlimit="10" stroke-width=".39713268" d="M79.148 6.746H65.613m0 0H35.156m0 0H18.238"/><path fill="#FFF" stroke="#000" stroke-miterlimit="10" stroke-width=".39713268" d="M19.82 6.746a1.58 1.58 0 1 0-3.16-.003 1.58 1.58 0 0 0 3.16.003Zm0 0"/><use xlink:href="#j" x="3.581" y="10.132"/><use xlink:href="#a" x="9.779" y="10.132"/><path fill="none" stroke="#000" stroke-miterlimit="10" stroke-width=".39713268" d="M135.992 6.746h20.305m0 0h33.836m0 0h13.535"/><path fill="#FFF" stroke="#000" stroke-miterlimit="10" stroke-width=".39713268" d="M205.246 6.746a1.58 1.58 0 0 0-1.578-1.582 1.58 1.58 0 0 0 0 3.16c.871 0 1.578-.707 1.578-1.578Zm0 0"/><use xlink:href="#j" x="207.17" y="10.186"/><use xlink:href="#a" x="213.367" y="10.186"/><use xlink:href="#i" x="218.325" y="10.186"/><path fill="none" stroke="#000" stroke-miterlimit="10" stroke-width=".39713268" d="M52.078 6.746V31.38m0 7.578v24.637"/><path fill="none" stroke="#000" stroke-miterlimit="10" stroke-width=".79327004" d="M63.445 31.379H40.707m22.738 7.578H40.707"/><path stroke="#000" stroke-miterlimit="10" stroke-width=".39713268" d="M53.656 6.746a1.58 1.58 0 1 0-3.159-.005 1.58 1.58 0 0 0 3.16.005Zm0 0"/><path d="M53.656 63.594a1.58 1.58 0 1 0-3.159-.005 1.58 1.58 0 0 0 3.16.005m0 0"/><g clip-path="url(#k)"><path fill="none" stroke="#000" stroke-miterlimit="10" stroke-width=".39713268" d="M53.656 63.594a1.58 1.58 0 1 0-3.159-.005 1.58 1.58 0 0 0 3.16.005Zm0 0"/></g><use xlink:href="#l" x="66.185" y="37.306"/><use xlink:href="#m" x="73.273" y="38.793"/><path fill="none" stroke="#000" stroke-miterlimit="10" stroke-width=".39713268" d="M176.598 6.746v10.422m0 7.578V45.59m0 7.582v10.422"/><path fill="none" stroke="#000" stroke-miterlimit="10" stroke-width=".79327004" d="M187.969 17.168H165.23m22.739 7.578H165.23"/><path stroke="#000" stroke-miterlimit="10" stroke-width=".39713268" d="M178.18 6.746a1.58 1.58 0 1 0-3.161-.005 1.58 1.58 0 0 0 3.16.005ZM178.18 35.168c0-.871-.711-1.578-1.582-1.578a1.58 1.58 0 1 0 1.582 1.578Zm0 0"/><use xlink:href="#l" x="190.705" y="23.095"/><use xlink:href="#n" x="197.793" y="24.582"/><path fill="none" stroke="#000" stroke-miterlimit="10" stroke-width=".79327004" d="M187.969 45.59H165.23m22.739 7.582H165.23"/><path stroke="#000" stroke-miterlimit="10" stroke-width=".39713268" d="M178.18 35.168c0-.871-.711-1.578-1.582-1.578a1.58 1.58 0 1 0 1.582 1.578Zm0 0"/><path d="M178.18 63.594a1.58 1.58 0 1 0-3.161-.005 1.58 1.58 0 0 0 3.16.005m0 0"/><g clip-path="url(#o)"><path fill="none" stroke="#000" stroke-miterlimit="10" stroke-width=".39713268" d="M178.18 63.594a1.58 1.58 0 1 0-3.161-.005 1.58 1.58 0 0 0 3.16.005Zm0 0"/></g><use xlink:href="#l" x="190.705" y="51.517"/><use xlink:href="#p" x="197.793" y="53.004"/><path fill="none" stroke="#000" stroke-miterlimit="10" stroke-width=".39713268" d="M176.598 35.168h-13.535m0 0h-13.536M149.527 35.168v9.875"/><path fill="none" stroke="#000" stroke-linecap="round" stroke-miterlimit="10" stroke-width=".79327004" d="M143.602 45.043h11.851"/><path fill="none" stroke="#000" stroke-miterlimit="10" stroke-width=".39713268" d="M176.598 35.168h13.535m0 0h13.535"/><path fill="#FFF" stroke="#000" stroke-miterlimit="10" stroke-width=".39713268" d="M205.246 35.168a1.579 1.579 0 0 0-3.156 0 1.58 1.58 0 0 0 1.578 1.582 1.58 1.58 0 0 0 1.578-1.582Zm0 0"/><use xlink:href="#q" x="207.17" y="38.555"/><use xlink:href="#r" x="213.923" y="38.555"/><path fill="none" stroke="#000" stroke-miterlimit="10" stroke-width=".39713268" d="M135.992 22.988v12.18h13.535m0 0"/><path stroke="#000" stroke-miterlimit="10" stroke-width=".39713268" d="M137.574 22.988a1.58 1.58 0 1 0-3.16-.003 1.58 1.58 0 0 0 3.16.003ZM151.11 35.168a1.58 1.58 0 1 0-3.16.003 1.58 1.58 0 0 0 3.16-.003Zm0 0"/></svg>