<svg xmlns="http://www.w3.org/2000/svg" xmlns:xlink="http://www.w3.org/1999/xlink" width="217.798" height="114.351"><defs><path id="a" d="M4.563-3.172c0-.797-.063-1.578-.407-2.312-.453-.953-1.265-1.11-1.672-1.11-.609 0-1.328.25-1.734 1.172-.312.688-.36 1.453-.36 2.25 0 .75.032 1.64.438 2.39.438.798 1.156 1 1.64 1C3 .219 3.75.017 4.189-.936c.312-.672.375-1.454.375-2.235M2.469 0c-.39 0-.969-.25-1.156-1.203-.11-.594-.11-1.5-.11-2.078 0-.64 0-1.297.078-1.828.188-1.188.938-1.266 1.188-1.266.328 0 .984.172 1.172 1.156.093.547.093 1.313.093 1.938 0 .734 0 1.406-.109 2.047C3.485-.297 2.906 0 2.469 0m0 0"/><path id="b" d="M6.156-5.797c.14-.36.407-.656 1.078-.656v-.313c-.312.016-.703.032-.968.032a25.6 25.6 0 0 1-1.125-.032v.313c.515 0 .718.266.718.484 0 .078-.03.14-.046.203L4-.984 2.11-6c-.063-.125-.063-.156-.063-.172 0-.281.562-.281.812-.281v-.313c-.359.032-1.03.032-1.406.032-.484 0-.906-.016-1.265-.032v.313c.64 0 .828 0 .968.375L3.453 0c.078.188.125.219.25.219.172 0 .188-.047.235-.188Zm0 0"/><path id="e" d="M2.906-6.344c0-.234 0-.25-.219-.25-.609.625-1.484.625-1.812.625v.313c.203 0 .797 0 1.297-.25v5.125c0 .36-.016.469-.906.469H.938V0c.343-.031 1.218-.031 1.609-.031.39 0 1.25 0 1.61.031v-.312h-.329c-.89 0-.922-.11-.922-.47Zm0 0"/><path id="f" d="M2.875-3.484c.813-.266 1.39-.97 1.39-1.75 0-.813-.874-1.36-1.827-1.36-1 0-1.75.594-1.75 1.344 0 .328.218.516.5.516.312 0 .5-.22.5-.5 0-.5-.454-.5-.61-.5.313-.485.969-.61 1.313-.61.406 0 .953.219.953 1.11 0 .109-.016.687-.266 1.125-.297.468-.64.5-.89.515-.079 0-.313.031-.391.031-.078 0-.14.016-.14.11 0 .11.062.11.234.11h.437c.813 0 1.172.671 1.172 1.656 0 1.343-.672 1.625-1.11 1.625-.421 0-1.171-.172-1.515-.75.344.046.656-.172.656-.547 0-.36-.265-.547-.562-.547-.235 0-.547.14-.547.562 0 .907.922 1.563 2 1.563 1.203 0 2.11-.906 2.11-1.906 0-.813-.626-1.594-1.657-1.797m0 0"/><path id="h" d="M1.61-4.531c-.454-.297-.485-.625-.485-.797 0-.61.64-1.016 1.344-1.016.719 0 1.36.516 1.36 1.219 0 .563-.392 1.047-.985 1.39Zm1.453.937c.718-.36 1.203-.875 1.203-1.531 0-.906-.891-1.469-1.782-1.469-1 0-1.796.735-1.796 1.657 0 .171.015.625.437 1.078.11.125.469.375.719.547-.578.28-1.422.828-1.422 1.812 0 1.047 1 1.719 2.047 1.719 1.125 0 2.062-.828 2.062-1.89 0-.345-.11-.798-.484-1.204-.188-.219-.36-.312-.984-.719m-.985.422 1.203.781c.281.188.75.485.75 1.079 0 .734-.75 1.25-1.547 1.25C1.625-.062.906-.672.906-1.5c0-.578.328-1.203 1.172-1.672m0 0"/><path id="d" d="M7.14-2.484c0-.188-.187-.188-.327-.188H4.047v-2.781c0-.14 0-.328-.188-.328-.203 0-.203.187-.203.328v2.781H.875c-.125 0-.312 0-.312.188 0 .203.187.203.312.203h2.781V.5c0 .14 0 .328.203.328.188 0 .188-.187.188-.328v-2.781h2.766c.14 0 .328 0 .328-.203m0 0"/><path id="g" d="M2.016-.016c0-.64-.25-1.03-.641-1.03a.5.5 0 0 0-.516.515c0 .281.188.531.516.531.125 0 .25-.047.344-.125.031-.031.047-.031.047-.031.015 0 .03 0 .03.14 0 .735-.343 1.329-.671 1.657-.11.109-.11.125-.11.156 0 .078.048.11.094.11.11 0 .907-.75.907-1.923m0 0"/><path id="i" d="M3.719-6.078c.062-.234.078-.344.281-.375h.594c.703 0 1.812 0 1.812.969 0 .343-.172 1.03-.547 1.406-.265.266-.78.578-1.671.578h-1.11ZM5.14-3.375c1-.219 2.187-.906 2.187-1.906 0-.844-.906-1.485-2.203-1.485H2.313c-.204 0-.297 0-.297.204 0 .109.093.109.28.109.017 0 .204 0 .376.016.187.015.265.03.265.156 0 .047 0 .062-.03.187L1.577-.766c-.11.375-.125.454-.906.454-.172 0-.266 0-.266.203C.406 0 .531 0 .546 0c.282 0 .97-.031 1.25-.031.282 0 .985.031 1.25.031.079 0 .204 0 .204-.203 0-.11-.094-.11-.281-.11-.36 0-.64 0-.64-.171 0-.063.015-.11.03-.172l.657-2.625h1.172c.906 0 1.078.562 1.078.906 0 .14-.079.453-.141.688-.062.265-.156.64-.156.828C4.969.219 6.156.219 6.297.219c.828 0 1.187-1 1.187-1.14 0-.126-.109-.126-.125-.126-.093 0-.109.078-.125.14-.25.735-.671.907-.906.907-.328 0-.39-.219-.39-.61 0-.296.062-.812.093-1.124.016-.141.047-.328.047-.47 0-.765-.672-1.062-.937-1.171m0 0"/><path id="l" d="M3.703-6c.094-.36.125-.453.906-.453.235 0 .313 0 .313-.188 0-.125-.11-.125-.14-.125-.298 0-1.032.032-1.313.032-.297 0-1.016-.032-1.313-.032-.078 0-.203 0-.203.204 0 .109.094.109.281.109.407 0 .672 0 .672.187 0 .047 0 .063-.015.157L1.563-.766c-.094.36-.125.454-.907.454-.234 0-.312 0-.312.203 0 .109.11.109.14.109C.766 0 1.5-.031 1.781-.031 2.078-.031 2.813 0 3.11 0c.079 0 .204 0 .204-.187 0-.125-.079-.125-.297-.125-.188 0-.235 0-.438-.016S2.344-.391 2.344-.5c0-.078.015-.156.031-.219Zm0 0"/><path id="j" d="M4.844-4.031c.093-.219.25-.453.781-.453v-.25a9.664 9.664 0 0 1-.672.03c-.281 0-.797-.03-.828-.03v.25c.25 0 .469.109.469.328 0 .047-.016.093-.032.14L3.125-.672l-1.5-3.515c-.031-.079-.031-.094-.031-.11 0-.187.36-.187.547-.187v-.25c-.344.015-.797.03-1.032.03-.359 0-.875-.03-.89-.03v.25h.11c.374 0 .5.03.593.25L2.719-.016c.047.11.062.157.203.157.062 0 .14 0 .203-.141Zm0 0"/><path id="m" d="M4.25-4.453c.063-.078.063-.11.063-.156 0-.125-.063-.125-.204-.125H.672L.594-3.141h.234c.063-1.03.547-1.343 1.469-1.343h1.219L.546-.297C.485-.219.485-.203.485-.14.484 0 .547 0 .688 0h3.546l.125-1.89h-.234C4.063-.97 3.938-.282 2.578-.282H1.281Zm0 0"/><path id="n" d="M4.516-1.828H4.28c-.078.687-.187 1.578-1.5 1.578h-.687c-.328 0-.328-.062-.328-.266v-3.656c0-.219 0-.312.656-.312h.234v-.25c-.14 0-1.031.03-1.219.03-.265 0-1.046-.03-1.046-.03v.25h.172c.53 0 .546.062.546.312v3.61c0 .234-.015.312-.546.312H.39V0h3.922Zm0 0"/><clipPath id="c"><path d="M34 99h16v14.707H34Zm0 0"/></clipPath><clipPath id="k"><path d="M134 99h15v14.707h-15Zm0 0"/></clipPath><clipPath id="o"><path d="M167 99h15v14.707h-15Zm0 0"/></clipPath></defs><path fill="none" stroke="#000" stroke-miterlimit="10" stroke-width=".39674964" d="M41.855 107.02h66.247m0 0h66.246"/><use xlink:href="#a" x="24.182" y="110.403"/><use xlink:href="#b" x="30.779" y="110.403"/><path fill="#FFF" d="M43.434 107.02a1.58 1.58 0 0 0-3.16 0 1.58 1.58 0 0 0 3.16 0m0 0"/><g clip-path="url(#c)"><path fill="none" stroke="#000" stroke-miterlimit="10" stroke-width=".39674964" d="M43.434 107.02a1.58 1.58 0 0 0-3.16 0 1.58 1.58 0 0 0 3.16 0Zm0 0"/></g><path fill="none" stroke="#000" stroke-miterlimit="10" stroke-width=".39674964" d="M41.855 7.648h33.899m31.57 0h50.461m0 0h16.563"/><use xlink:href="#d" x="3.816" y="10.072"/><use xlink:href="#e" x="11.523" y="10.072"/><use xlink:href="#f" x="16.476" y="10.072"/><use xlink:href="#g" x="21.429" y="10.072"/><use xlink:href="#h" x="24.182" y="10.072"/><use xlink:href="#b" x="30.779" y="10.072"/><path fill="none" stroke="#000" stroke-miterlimit="10" stroke-width=".7925049200000001" d="M75.754 1.73h31.57v11.84h-31.57Zm0 0"/><path fill="#FFF" stroke="#000" stroke-miterlimit="10" stroke-width=".39674964" d="M43.434 7.648a1.58 1.58 0 0 0-3.16 0 1.58 1.58 0 0 0 3.16 0Zm0 0"/><path stroke="#000" stroke-miterlimit="10" stroke-width=".39674964" d="M142.8 7.648a1.579 1.579 0 1 0-3.157.002 1.579 1.579 0 0 0 3.158-.002Zm0 0"/><use xlink:href="#i" x="84.552" y="24.083"/><use xlink:href="#j" x="92.074" y="25.569"/><path fill="#FFF" stroke="#000" stroke-miterlimit="10" stroke-width=".39674964" d="M175.926 7.648a1.579 1.579 0 1 0-3.158.002 1.579 1.579 0 0 0 3.158-.002Zm0 0"/><path fill="none" stroke="#000" stroke-miterlimit="10" stroke-width=".39674964" d="M141.223 107.02V65.227m0-15.786V7.648"/><path fill="none" stroke="#000" stroke-miterlimit="10" stroke-width=".7925049200000001" d="m141.223 49.441 9.867 15.786h-19.73Zm0 0"/><path fill="none" stroke="#000" stroke-miterlimit="10" stroke-width=".39674964" d="M141.223 49.441v15.786"/><path fill="none" stroke="#000" stroke-miterlimit="10" stroke-width=".7925049200000001" d="M131.36 49.441h19.73v3.157"/><path d="M142.8 107.02a1.579 1.579 0 1 0-3.157 0 1.579 1.579 0 0 0 3.158 0m0 0"/><g clip-path="url(#k)"><path fill="none" stroke="#000" stroke-miterlimit="10" stroke-width=".39674964" d="M142.8 107.02a1.579 1.579 0 1 0-3.157 0 1.579 1.579 0 0 0 3.158 0Zm0 0"/></g><path stroke="#000" stroke-miterlimit="10" stroke-width=".39674964" d="M141.223 26.82h-1.973l1.973 4.192 1.972-4.192Zm0 0"/><use xlink:href="#l" x="128.071" y="31.188"/><use xlink:href="#m" x="132.425" y="32.674"/><path fill="none" stroke="#000" stroke-miterlimit="10" stroke-width=".39674964" d="M174.348 7.648h16.562m0 0h16.563v33.903m0 31.566v33.903H190.91m0 0h-16.562"/><path fill="#FFF" stroke="#000" stroke-miterlimit="10" stroke-width=".39674964" d="M175.926 7.648a1.579 1.579 0 1 0-3.158.002 1.579 1.579 0 0 0 3.158-.002Zm0 0"/><path fill="none" stroke="#000" stroke-miterlimit="10" stroke-width=".7925049200000001" d="M201.55 73.117V41.551h11.84v31.566Zm0 0"/><use xlink:href="#i" x="186.441" y="59.469"/><use xlink:href="#n" x="193.963" y="60.955"/><path stroke="#000" stroke-miterlimit="10" stroke-width=".39674964" d="M207.473 22.871h-1.977l1.977 4.195 1.972-4.195Zm0 0"/><use xlink:href="#l" x="194.221" y="27.242"/><use xlink:href="#n" x="198.575" y="28.728"/><path fill="#FFF" d="M175.926 107.02a1.579 1.579 0 1 0-3.158 0 1.579 1.579 0 0 0 3.158 0m0 0"/><g clip-path="url(#o)"><path fill="none" stroke="#000" stroke-miterlimit="10" stroke-width=".39674964" d="M175.926 107.02a1.579 1.579 0 1 0-3.158 0 1.579 1.579 0 0 0 3.158 0Zm0 0"/></g></svg>