<svg xmlns="http://www.w3.org/2000/svg" xmlns:xlink="http://www.w3.org/1999/xlink" width="165.452" height="112.114"><defs><path id="c" d="M2.219-3.484v-2.563c0-.234 0-.36.219-.375.093-.031.374-.031.578-.031.89 0 2 .047 2 1.484 0 .672-.235 1.485-1.703 1.485Zm2.078.125c.969-.235 1.734-.844 1.734-1.61 0-.953-1.125-1.781-2.578-1.781H.343v.297h.235c.766 0 .781.11.781.469v5.218c0 .344-.015.454-.78.454H.343V0c.36-.031 1.062-.031 1.453-.031.375 0 1.078 0 1.437.031v-.312H3c-.766 0-.781-.11-.781-.454V-3.28h1.14c.157 0 .563 0 .907.344.39.359.39.656.39 1.328 0 .64 0 1.03.39 1.406.407.36.954.422 1.25.422.782 0 .938-.813.938-1.094 0-.062 0-.156-.125-.156C7-1.031 7-.953 7-.875 6.938-.172 6.594 0 6.344 0c-.485 0-.563-.5-.703-1.422l-.125-.797c-.188-.625-.672-.953-1.22-1.14m0 0"/><path id="d" d="m3.969-3.812 1.36-2c.218-.313.562-.625 1.437-.641v-.297c-.391 0-.844.031-1.094.031-.406 0-.875 0-1.266-.031v.297c.39.016.61.234.61.453 0 .11-.016.125-.094.234L3.797-4.094 2.516-6c-.016-.031-.063-.11-.063-.156 0-.11.219-.282.64-.297v-.297c-.343.031-1.062.031-1.437.031-.312 0-.922-.015-1.297-.031v.297h.188c.547 0 .734.078.922.344l1.828 2.75L1.672-.953c-.14.187-.438.64-1.438.64V0c.36-.016.782-.031 1.094-.031.375 0 .922 0 1.266.031v-.312c-.453 0-.61-.266-.61-.454 0-.078.016-.125.094-.234l1.406-2.078 1.563 2.36c.016.046.047.077.047.109 0 .125-.219.297-.64.297V0c.343-.031 1.062-.031 1.437-.031.422 0 .875.015 1.297.031v-.312H7c-.516 0-.734-.047-.937-.344Zm0 0"/><path id="i" d="M5.75-2.547h-.234c-.11 1-.25 2.235-2 2.235h-.813c-.453 0-.484-.063-.484-.391V-5.97c0-.343 0-.484.953-.484h.312v-.297c-.343.031-1.25.031-1.656.031-.39 0-1.156 0-1.5-.031v.297h.235c.765 0 .78.11.78.469v5.218c0 .344-.015.454-.78.454H.328V0h5.156Zm0 0"/><path id="j" d="M2.297-6.625C2.203-6.75 2.203-6.75 2-6.75H.328v.297H.61c.157 0 .344.016.5.031.22.016.235.031.235.219v5.172c0 .265 0 .718-1.016.718V0c.344-.016.828-.031 1.156-.031.329 0 .813.015 1.157.031v-.312c-1.016 0-1.016-.454-1.016-.72v-5.155c.047.062.063.062.094.125L5.75-.125c.094.11.11.125.172.125.14 0 .14-.062.14-.25v-5.469c0-.265 0-.734 1.016-.734v-.297c-.344 0-.828.031-1.156.031-.328 0-.813-.031-1.156-.031v.297c1.015 0 1.015.469 1.015.734V-1.5Zm0 0"/><path id="k" d="M3.938-6.89c-.047-.126-.063-.188-.235-.188-.156 0-.187.062-.234.187L1.422-.969c-.172.5-.578.657-1.11.657V0C.548-.016.97-.031 1.329-.031c.297 0 .813.015 1.14.031v-.312c-.5 0-.75-.235-.75-.5 0-.032.016-.125.016-.141l.47-1.297H4.64l.515 1.516a.368.368 0 0 1 .032.125c0 .297-.547.297-.813.297V0c.36-.031 1.047-.031 1.422-.031.422 0 .875.015 1.297.031v-.312h-.188c-.593 0-.718-.063-.828-.391Zm-.532 1.109 1.125 3.218H2.297Zm0 0"/><path id="n" d="M.344-6.75v.297h.234c.766 0 .781.11.781.469v5.218c0 .344-.015.454-.78.454H.343V0h3.625C5.625 0 7-1.469 7-3.328 7-5.203 5.656-6.75 3.969-6.75Zm2.36 6.438c-.47 0-.485-.063-.485-.391v-5.344c0-.328.015-.406.484-.406h.985c.609 0 1.296.219 1.796.922.438.593.516 1.437.516 2.203 0 1.11-.187 1.703-.547 2.187-.187.266-.75.829-1.75.829Zm0 0"/><path id="o" d="M.547-3.375C.547-1.328 2.157.219 4 .219c1.61 0 2.578-1.375 2.578-2.516 0-.11 0-.172-.125-.172-.11 0-.11.063-.125.156C6.25-.905 5.188-.092 4.11-.092c-.593 0-2.53-.329-2.53-3.282S3.5-6.672 4.108-6.672c1.079 0 1.954.906 2.157 2.344.015.14.015.172.156.172.156 0 .156-.032.156-.235v-2.343c0-.172 0-.235-.11-.235-.046 0-.077 0-.155.11l-.5.734c-.36-.36-.875-.844-1.813-.844-1.86 0-3.453 1.563-3.453 3.594m0 0"/><path id="e" d="M7.516-6.875c0-.031-.016-.094-.11-.094-.031 0-.031 0-.14.11l-.703.765c-.079-.14-.547-.875-1.641-.875C2.719-6.969.5-4.78.5-2.5.5-.86 1.656.219 3.172.219c.86 0 1.61-.39 2.14-.86.922-.796 1.094-1.703 1.094-1.734 0-.094-.11-.094-.125-.094-.062 0-.11.016-.125.094-.093.281-.328.984-1 1.563-.687.562-1.312.718-1.828.718-.89 0-1.937-.515-1.937-2.047 0-.562.218-2.171 1.203-3.328C3.188-6.172 4.125-6.672 5-6.672c1.016 0 1.594.766 1.594 1.922 0 .39-.032.39-.032.5 0 .094.11.094.157.094.125 0 .125-.016.172-.203Zm0 0"/><path id="f" d="M2.313-4.406c0-.188 0-.188-.204-.188-.437.438-1.078.438-1.359.438v.25c.172 0 .625 0 1.016-.188v3.532c0 .218 0 .312-.703.312H.797V0C.922 0 1.78-.031 2.03-.031c.219 0 1.094.031 1.25.031v-.25h-.265c-.703 0-.703-.094-.703-.312Zm0 0"/><path id="g" d="M3.5-1.266h-.234c-.032.157-.094.563-.188.641-.047.031-.594.031-.687.031H1.125c.719-.64.969-.828 1.375-1.156.516-.406 1-.844 1-1.5 0-.828-.734-1.344-1.625-1.344-.86 0-1.437.594-1.437 1.235 0 .359.296.39.359.39a.369.369 0 0 0 .375-.375c0-.11-.047-.36-.406-.36.203-.483.687-.64 1-.64.703 0 1.062.532 1.062 1.094 0 .61-.437 1.078-.656 1.328L.5-.266C.438-.203.438-.187.438 0H3.28Zm0 0"/><clipPath id="a"><path d="M.375 18.215h15.75v6.3H.375Zm0 6.3h6.3v3.15h-6.3Zm0 3.15h15.75v6.3H.375Zm0 0"/></clipPath><clipPath id="b"><path d="M.375 13H22v26H.375Zm0 0"/></clipPath><clipPath id="h"><path d="M138.621 18.215h15.746v6.3h-15.746Zm9.445 6.3h6.301v3.15h-6.3Zm-9.445 3.15h15.746v6.3h-15.746Zm0 0"/></clipPath><clipPath id="l"><path d="M142 100h1v11.234h-1Zm0 0"/></clipPath><clipPath id="m"><path d="M136 110h13v1.234h-13Zm0 0"/></clipPath></defs><g clip-path="url(#a)"><path fill="none" stroke="#000" stroke-miterlimit="10" stroke-width=".79075152" d="M12.188 26.09a3.936 3.936 0 0 0-3.938-3.938 3.936 3.936 0 0 0-3.937 3.938 3.936 3.936 0 0 0 3.937 3.937 3.936 3.936 0 0 0 3.938-3.937Zm0 0"/></g><g clip-path="url(#b)"><path fill="none" stroke="#000" stroke-miterlimit="10" stroke-width=".79075152" d="M9.824 26.09c0-.871-.703-1.574-1.574-1.574-.871 0-1.574.703-1.574 1.574 0 .87.703 1.574 1.574 1.574.871 0 1.574-.703 1.574-1.574Zm0 0"/></g><path fill="none" stroke="#000" stroke-miterlimit="10" stroke-width=".39587184000000003" d="M9.824 26.09h2.364"/><use xlink:href="#c" x=".906" y="18.776"/><use xlink:href="#d" x="8.182" y="18.776"/><path fill="none" stroke="#000" stroke-miterlimit="10" stroke-width=".39587184000000003" d="M12.188 26.09H40.84m7.875 0H77.37v16.844m0 31.5v16.84H48.715m-7.875 0H12.188"/><path fill="none" stroke="#000" stroke-miterlimit="10" stroke-width=".79075152" d="M40.84 14.277v23.625m7.875-23.625v23.625"/><use xlink:href="#e" x="39.029" y="9.901"/><use xlink:href="#f" x="46.094" y="11.383"/><path fill="none" stroke="#000" stroke-linejoin="bevel" stroke-miterlimit="10" stroke-width=".79075152" d="M77.215 42.54c3.262 0 5.902 1.804 5.902 4.034 0 2.227-2.64 4.035-5.902 4.035 3.262 0 5.902 1.809 5.902 4.036 0 2.23-2.64 4.039-5.902 4.039 3.262 0 5.902 1.804 5.902 4.035 0 2.23-2.64 4.035-5.902 4.035 3.262 0 5.902 1.808 5.902 4.039 0 2.227-2.64 4.035-5.902 4.035"/><path stroke="#000" stroke-miterlimit="10" stroke-width=".39587184000000003" d="M78.945 26.09c0-.871-.703-1.574-1.574-1.574-.871 0-1.574.703-1.574 1.574 0 .87.703 1.574 1.574 1.574.871 0 1.574-.703 1.574-1.574ZM78.945 91.273a1.575 1.575 0 1 0-3.149.001 1.575 1.575 0 0 0 3.15 0Zm0 0"/><path fill="none" stroke="#000" stroke-miterlimit="10" stroke-width=".79075152" d="M48.715 103.086V79.46m-7.875 23.625V79.46"/><use xlink:href="#e" x="39.029" y="75.085"/><use xlink:href="#g" x="46.094" y="76.567"/><path fill="none" stroke="#000" stroke-miterlimit="10" stroke-width=".39587184000000003" d="M12.188 91.273v8.149M12.188 99.422v9.844"/><path fill="none" stroke="#000" stroke-linecap="round" stroke-miterlimit="10" stroke-width=".79075152" d="M6.281 109.266h11.813"/><path fill="none" stroke="#000" stroke-miterlimit="10" stroke-width=".39587184000000003" d="M8.25 30.027v9.844"/><path fill="none" stroke="#000" stroke-linecap="round" stroke-miterlimit="10" stroke-width=".79075152" d="M2.344 39.871h11.812"/><path fill="none" stroke="#000" stroke-miterlimit="10" stroke-width=".39587184000000003" d="M77.371 26.09h65.184"/><g clip-path="url(#h)"><path fill="none" stroke="#000" stroke-miterlimit="10" stroke-width=".79075152" d="M142.555 26.09a3.939 3.939 0 1 1 7.877.002 3.939 3.939 0 0 1-7.877-.002Zm0 0"/></g><path fill="none" stroke="#000" stroke-miterlimit="10" stroke-width=".79075152" d="M144.918 26.09a1.575 1.575 0 1 1 3.15 0 1.575 1.575 0 0 1-3.15 0Zm0 0"/><path fill="none" stroke="#000" stroke-miterlimit="10" stroke-width=".39587184000000003" d="M144.918 26.09h-2.363"/><use xlink:href="#i" x="136.942" y="16.43"/><use xlink:href="#j" x="143.119" y="16.43"/><use xlink:href="#k" x="150.533" y="16.43"/><path fill="none" stroke="#000" stroke-miterlimit="10" stroke-width=".39587184000000003" d="M146.492 30.027v9.844"/><path fill="none" stroke="#000" stroke-linecap="round" stroke-miterlimit="10" stroke-width=".79075152" d="M140.586 39.871h11.812"/><path fill="none" stroke="#000" stroke-miterlimit="10" stroke-width=".39587184000000003" d="M77.371 91.273h65.184"/><path fill="#FFF" stroke="#000" stroke-miterlimit="10" stroke-width=".39587184000000003" d="M144.129 91.273a1.575 1.575 0 1 0-3.15.001 1.575 1.575 0 0 0 3.15 0Zm0 0"/><path fill="none" stroke="#000" stroke-miterlimit="10" stroke-width=".39587184000000003" d="M142.555 99.422"/><path fill="#FFF" stroke="#000" stroke-miterlimit="10" stroke-width=".39587184000000003" d="M144.129 99.422a1.575 1.575 0 1 0-3.15 0 1.575 1.575 0 0 0 3.15 0Zm0 0"/><path fill="none" stroke="#000" stroke-miterlimit="10" stroke-width=".39587184000000003" d="M142.555 100.996"/><g clip-path="url(#l)"><path fill="none" stroke="#000" stroke-miterlimit="10" stroke-width=".39587184000000003" d="M142.555 100.996v9.844"/></g><g clip-path="url(#m)"><path fill="none" stroke="#000" stroke-linecap="round" stroke-miterlimit="10" stroke-width=".79075152" d="M136.648 110.84h11.813"/></g><path fill="none" stroke="#000" stroke-miterlimit="10" stroke-width=".39587184000000003" d="M134.406 107.57V83.125h16.297v24.445Zm0 0"/><use xlink:href="#n" x="135.21" y="78.355"/><use xlink:href="#o" x="142.761" y="78.355"/></svg>