<svg xmlns="http://www.w3.org/2000/svg" xmlns:xlink="http://www.w3.org/1999/xlink" width="222.715" height="215.052"><defs><path id="b" d="M4.953-2.531v-.219H0v.219Zm0 0"/><path id="e" d="M7.156-2.484c0-.188-.187-.188-.328-.188H4.062v-2.781c0-.14 0-.328-.203-.328s-.203.187-.203.328v2.781H.891c-.141 0-.328 0-.328.188 0 .203.187.203.328.203h2.765V.5c0 .14 0 .328.203.328.204 0 .204-.187.204-.328v-2.781h2.765c.14 0 .328 0 .328-.203m0 0"/><path id="f" d="M6.469-2.562h-.25c-.25 1.53-.469 2.25-2.188 2.25H2.72c-.469 0-.485-.063-.485-.391V-3.36h.891c.969 0 1.078.328 1.078 1.172h.234v-2.641h-.234c0 .86-.11 1.172-1.078 1.172h-.89v-2.39c0-.329.015-.391.484-.391H4c1.516 0 1.781.546 1.938 1.921h.25L5.906-6.75H.328v.313h.235c.765 0 .78.109.78.468V-.78c0 .36-.015.469-.78.469H.328V0h5.719Zm0 0"/><path id="g" d="M7.11 0v-.312h-.173c-.593 0-.734-.063-.843-.391l-2.14-6.203c-.048-.125-.079-.203-.235-.203-.156 0-.188.062-.235.203L1.422-.97c-.172.5-.563.657-1.11.657V0l1.016-.031L2.468 0v-.312c-.5 0-.75-.25-.75-.5 0-.032.016-.125.032-.157l.453-1.297h2.453L5.172-.75a.58.58 0 0 1 .031.14c0 .298-.547.298-.812.298V0c.359-.031 1.047-.031 1.422-.031ZM4.546-2.562H2.313l1.109-3.235Zm0 0"/><clipPath id="a"><path d="M.348 196H15v16H.348Zm0 0"/></clipPath><clipPath id="c"><path d="M.348 98H15v15H.348Zm0 0"/></clipPath><clipPath id="d"><path d="M123 213h13v1.11h-13Zm0 0"/></clipPath></defs><path fill="none" stroke="#000" stroke-miterlimit="10" stroke-width=".39724839" d="M7.031 203.832h32.871m0 0h98.614m0 0h65.742"/><path fill="#FFF" d="M8.61 203.832a1.58 1.58 0 1 0-3.161.003 1.58 1.58 0 0 0 3.16-.003m0 0"/><g clip-path="url(#a)"><path fill="none" stroke="#000" stroke-miterlimit="10" stroke-width=".39724839" d="M8.61 203.832a1.58 1.58 0 1 0-3.161.003 1.58 1.58 0 0 0 3.16-.003Zm0 0"/></g><path stroke="#000" stroke-miterlimit="10" stroke-width=".39724839" d="M74.352 203.832a1.58 1.58 0 1 0-3.161.003 1.58 1.58 0 0 0 3.16-.003Zm0 0"/><path fill="#FFF" stroke="#000" stroke-miterlimit="10" stroke-width=".39724839" d="M205.836 203.832a1.58 1.58 0 1 0-3.161.003 1.58 1.58 0 0 0 3.16-.003Zm0 0"/><use xlink:href="#b" x="207.759" y="205.207"/><path fill="none" stroke="#000" stroke-miterlimit="10" stroke-width=".39724839" d="M7.031 105.219H35.95m7.903 0h45.355m0 0h16.438"/><path fill="none" stroke="#000" stroke-miterlimit="10" stroke-width=".7935011700000001" d="M35.95 93.367v23.707m7.902-23.707v23.707"/><path fill="#FFF" d="M8.61 105.219a1.58 1.58 0 1 0-3.161.003 1.58 1.58 0 0 0 3.16-.003m0 0"/><g clip-path="url(#c)"><path fill="none" stroke="#000" stroke-miterlimit="10" stroke-width=".39724839" d="M8.61 105.219a1.58 1.58 0 1 0-3.161.003 1.58 1.58 0 0 0 3.16-.003Zm0 0"/></g><path stroke="#000" stroke-miterlimit="10" stroke-width=".39724839" d="M74.352 105.219a1.58 1.58 0 1 0-3.161.003 1.58 1.58 0 0 0 3.16-.003Zm0 0"/><path fill="none" stroke="#000" stroke-miterlimit="10" stroke-width=".7935011700000001" d="M137.32 105.219c0-8.09-6.562-14.653-14.652-14.653-8.094 0-14.652 6.563-14.652 14.653 0 8.094 6.558 14.652 14.652 14.652 8.09 0 14.652-6.558 14.652-14.652Zm0 0"/><path fill="none" stroke="#000" stroke-miterlimit="10" stroke-width=".39724839" d="M129.352 83.29v13.237l-11.856 5.434"/><path fill="none" stroke="#000" stroke-miterlimit="10" stroke-width=".7935011700000001" d="M117.496 96.527v17.387"/><path fill="none" stroke="#000" stroke-miterlimit="10" stroke-width=".39724839" d="m117.496 108.48 11.856 5.434v13.234"/><path d="m121.672 110.395.95-2.07 3.675 4.187-5.574-.051Zm0 0"/><path fill="none" stroke="#000" stroke-miterlimit="10" stroke-width=".39724839" d="M117.496 105.219h-12.05M129.352 126.953v22.633m0 31.61v22.636"/><path fill="none" stroke="#000" stroke-miterlimit="10" stroke-width=".7935011700000001" d="M123.426 181.195v-31.61h11.851v31.61Zm0 0"/><path stroke="#000" stroke-miterlimit="10" stroke-width=".39724839" d="M130.93 203.832a1.58 1.58 0 1 0-3.161.003 1.58 1.58 0 0 0 3.16-.003Zm0 0"/><path fill="none" stroke="#000" stroke-miterlimit="10" stroke-width=".39724839" d="M129.352 203.832v9.879"/><g clip-path="url(#d)"><path fill="none" stroke="#000" stroke-linecap="round" stroke-miterlimit="10" stroke-width=".7935011700000001" d="M123.426 213.71h11.851"/></g><path fill="none" stroke="#000" stroke-miterlimit="10" stroke-width=".39724839" d="M129.352 126.953h33.5m7.902 0h33.504"/><path fill="none" stroke="#000" stroke-miterlimit="10" stroke-width=".7935011700000001" d="M162.852 115.098v23.707m7.902-23.707v23.707"/><path stroke="#000" stroke-miterlimit="10" stroke-width=".39724839" d="M130.93 126.953a1.58 1.58 0 1 0-3.16-.005 1.58 1.58 0 0 0 3.16.005Zm0 0"/><path fill="#FFF" stroke="#000" stroke-miterlimit="10" stroke-width=".39724839" d="M205.836 126.953a1.58 1.58 0 1 0-3.16-.005 1.58 1.58 0 0 0 3.16.005Zm0 0"/><path fill="none" stroke="#000" stroke-miterlimit="10" stroke-width=".39724839" d="M72.773 105.219v33.504m0 31.609v33.5"/><path fill="none" stroke="#000" stroke-miterlimit="10" stroke-width=".7935011700000001" d="M66.848 170.332v-31.61h11.851v31.61Zm0 0"/><path fill="none" stroke="#000" stroke-miterlimit="10" stroke-width=".39724839" d="M72.773 105.219v-33.5m0-31.61V6.605h28.29m0 0h28.289v38.442m0 0v38.441"/><path fill="none" stroke="#000" stroke-miterlimit="10" stroke-width=".7935011700000001" d="M78.7 40.11v31.609H66.847v-31.61Zm0 0"/><path stroke="#000" stroke-miterlimit="10" stroke-width=".39724839" d="M74.352 6.605a1.58 1.58 0 1 0-3.161.003 1.58 1.58 0 0 0 3.16-.003Zm0 0"/><path fill="none" stroke="#000" stroke-miterlimit="10" stroke-width=".39724839" d="M72.773 6.605H56.336m0 0H39.902V19.09m0 7.902v12.485"/><path fill="none" stroke="#000" stroke-miterlimit="10" stroke-width=".7935011700000001" d="M51.754 19.09H28.047m23.707 7.902H28.047"/><path fill="none" stroke="#000" stroke-miterlimit="10" stroke-width=".39724839" d="M39.902 39.477v9.878"/><path fill="none" stroke="#000" stroke-linecap="round" stroke-miterlimit="10" stroke-width=".7935011700000001" d="M33.977 49.355h11.851"/><path fill="none" stroke="#000" stroke-miterlimit="10" stroke-width=".39724839" d="M129.352 6.605h37.453m0 0h37.453"/><path stroke="#000" stroke-miterlimit="10" stroke-width=".39724839" d="M130.93 6.605a1.58 1.58 0 1 0-3.161.003 1.58 1.58 0 0 0 3.16-.003Zm0 0"/><path fill="#FFF" stroke="#000" stroke-miterlimit="10" stroke-width=".39724839" d="M205.836 6.605a1.58 1.58 0 1 0-3.161.003 1.58 1.58 0 0 0 3.16-.003Zm0 0"/><use xlink:href="#e" x="207.759" y="9.089"/><use xlink:href="#f" x="3.653" y="101.718"/><use xlink:href="#g" x="200.535" y="123.448"/></svg>