<svg xmlns="http://www.w3.org/2000/svg" xmlns:xlink="http://www.w3.org/1999/xlink" width="133.35" height="106.106"><defs><clipPath id="a"><path d="M120 18h12.469v15H120Zm0 0"/></clipPath><clipPath id="b"><path d="M25.207.195h103.777V28.31H25.207Zm0 0"/></clipPath><clipPath id="f"><path d="M120 56h12.469v16H120Zm0 0"/></clipPath><clipPath id="g"><path d="M25.207 38.555h103.777v28.11H25.207Zm0 0"/></clipPath><clipPath id="j"><path d="M120 83h12.469v16H120Zm0 0"/></clipPath><clipPath id="k"><path d="M25 80h1v25.219h-1Zm0 0"/></clipPath><clipPath id="l"><path d="M25.207 76.91h103.777v28.113H25.207Zm0 0"/></clipPath><path id="c" d="M2.031-3.953h.938c.187 0 .297 0 .297-.188 0-.109-.11-.109-.282-.109H2.11c.36-1.406.407-1.61.407-1.672 0-.156-.11-.266-.282-.266-.03 0-.312.016-.39.36l-.39 1.578H.515c-.188 0-.282 0-.282.188 0 .109.078.109.266.109h.875C.656-1.141.625-.984.625-.797c0 .531.375.906.906.906 1 0 1.563-1.437 1.563-1.515 0-.11-.078-.11-.11-.11-.093 0-.093.032-.156.141C2.406-.344 1.891-.109 1.547-.109c-.203 0-.297-.125-.297-.453 0-.235.016-.313.047-.47Zm0 0"/><path id="d" d="M3.688-5.984c.093-.36.124-.453.906-.453.234 0 .312 0 .312-.188 0-.125-.11-.125-.14-.125-.297 0-1.016.031-1.313.031-.297 0-1.015-.031-1.312-.031-.063 0-.188 0-.188.203 0 .11.078.11.266.11.422 0 .687 0 .687.187 0 .047 0 .063-.015.156L1.547-.766c-.078.36-.11.454-.89.454-.235 0-.329 0-.329.203C.328 0 .453 0 .484 0c.282 0 1-.031 1.297-.031.297 0 1.016.031 1.313.031.094 0 .203 0 .203-.187 0-.125-.078-.125-.297-.125-.172 0-.219 0-.422-.016-.203-.016-.25-.063-.25-.172a.5.5 0 0 1 .047-.219Zm0 0"/><path id="h" d="M6.266-5.703c.109-.406.28-.703 1.078-.734.047 0 .156-.016.156-.204 0 0 0-.109-.125-.109-.328 0-.672.031-1 .031-.344 0-.703-.031-1.031-.031-.063 0-.172 0-.172.203 0 .11.094.11.172.11.562.015.672.218.672.437a.914.914 0 0 1-.032.203l-.89 3.531C4.766-.953 3.625-.094 2.64-.094c-.672 0-1.203-.422-1.203-1.281 0-.016 0-.328.109-.766L2.5-5.984c.094-.36.11-.453.828-.453.25 0 .328 0 .328-.204 0-.109-.094-.109-.125-.109-.281 0-1 .031-1.265.031-.297 0-.985-.031-1.282-.031-.078 0-.187 0-.187.203 0 .11.094.11.281.11.016 0 .203 0 .375.015.172.016.266.031.266.156 0 .063-.11.485-.172.704l-.219.875C1.25-4.312.766-2.437.734-2.25c-.078.281-.078.422-.078.578 0 1.203.907 1.89 1.938 1.89 1.25 0 2.469-1.124 2.797-2.421Zm0 0"/><path id="e" d="M5.156-4.687c0-.11 0-.172-.11-.172-.015 0-.062 0-.109.078l-.375.531a1.954 1.954 0 0 0-1.421-.61C1.688-4.86.484-3.75.484-2.374.484-.969 1.704.141 3.141.141c1.218 0 2.015-.922 2.015-1.766 0-.078-.015-.125-.125-.125-.047 0-.11 0-.11.094-.062 1.11-1 1.547-1.687 1.547-.75 0-2.015-.453-2.015-2.25 0-1.875 1.344-2.25 2-2.25.687 0 1.5.453 1.687 1.64.016.078.078.078.125.078.125 0 .125-.03.125-.171Zm0 0"/><path id="i" d="M5.031-1.828h-.234C4.625-.781 4.469-.25 3.187-.25H2.095c-.328 0-.328-.047-.328-.266v-1.796h.687c.703 0 .813.203.813.796H3.5v-1.859h-.234c0 .594-.11.813-.813.813h-.687v-1.626c0-.203 0-.265.328-.265h1.031c1.14 0 1.344.375 1.469 1.344h.234L4.61-4.703H.391v.25h.156c.547 0 .547.078.547.312v3.579c0 .234 0 .312-.547.312H.39V0h4.343Zm0 0"/><path id="m" d="M3.11-4.781c-.047-.11-.063-.157-.188-.157-.14 0-.156.047-.203.157L1.125-.734C1.047-.547.938-.25.313-.25V0c.234-.016.484-.031.718-.031.266 0 .782.031.828.031v-.25c-.312 0-.5-.14-.5-.328 0-.063 0-.078.032-.14l.328-.86h1.969l.406 1.016a.294.294 0 0 1 .031.125c0 .187-.375.187-.562.187V0c.343-.016.796-.031 1.03-.031.329 0 .845.031.923.031v-.25h-.141c-.453 0-.516-.062-.578-.266Zm-.407.718.89 2.235H1.829Zm0 0"/></defs><path fill="none" stroke="#000" stroke-miterlimit="10" stroke-width=".39566436" d="M25.207 25.496h100.336"/><path d="m128.59 25.496-2.95-1.75v3.5Zm0 0"/><g clip-path="url(#a)"><path fill="none" stroke="#000" stroke-miterlimit="10" stroke-width=".39566436" d="m128.59 25.496-2.95-1.75v3.5Zm0 0"/></g><path fill="none" stroke="#000" stroke-miterlimit="10" stroke-width=".39566436" d="M25.207 28.309V3.64"/><path stroke="#000" stroke-miterlimit="10" stroke-width=".39566436" d="m25.207.59-1.75 2.95h3.5Zm0 0"/><g clip-path="url(#b)"><path fill="none" stroke="#000" stroke-miterlimit="10" stroke-width=".39566436" d="m25.207 12.004.2.281.198.285.196.282c.054.078.144.203.199.28l.2.282.195.281c.054.078.144.203.199.278.054.078.144.203.199.28.055.075.14.2.195.274.059.078.145.2.2.278l.199.273c.054.074.14.195.199.27.055.078.14.195.195.27l.2.269c.054.074.144.191.199.261.054.075.14.192.195.262.055.074.145.188.2.262.054.07.144.183.198.254l.196.254c.058.07.144.18.199.25.055.07.145.18.2.246l.198.242.196.238c.054.067.144.172.199.235.055.066.144.168.2.234l.194.227.2.222.199.215c.055.063.14.156.2.215.054.058.14.152.194.207.055.059.145.148.2.207.054.055.144.14.199.195l.195.196c.055.05.145.136.2.187l.199.184c.054.05.14.129.195.175l.2.172.198.168.2.16c.054.043.14.114.195.153.055.043.144.11.2.148.054.043.144.106.198.145.055.035.141.097.196.133a5.88 5.88 0 0 0 .398.253c.055.036.14.086.2.118.054.03.14.082.195.11.054.03.144.077.199.105l.2.097c.054.024.14.063.194.09l.2.082c.054.023.144.055.199.078.055.02.14.051.195.067.059.02.145.046.2.066.054.016.144.04.199.055.054.015.144.035.199.047.054.015.14.03.195.043.055.011.145.027.2.035l.199.027c.054.008.14.016.195.02.055.003.144.011.2.015.054 0 .144.004.198.004h.2c.054 0 .14-.004.195-.008l.199-.015c.055-.004.145-.016.2-.024l.195-.027c.054-.012.144-.027.199-.04.054-.007.144-.027.199-.042a3.59 3.59 0 0 0 .195-.05c.059-.013.145-.04.2-.056.054-.02.144-.047.199-.066l.199-.07c.055-.02.14-.055.195-.078l.2-.086c.054-.024.144-.067.199-.09.054-.028.14-.07.195-.102.055-.027.145-.074.2-.105.054-.028.144-.078.198-.11.055-.03.141-.086.2-.12.054-.032.14-.087.195-.126l.2-.129c.054-.039.144-.097.198-.136.055-.04.141-.106.196-.145.054-.043.144-.11.199-.148l.2-.157.195-.164c.058-.043.144-.117.199-.168.054-.047.144-.12.199-.172.055-.046.14-.128.2-.18l.194-.183c.055-.05.145-.137.2-.187.054-.055.144-.14.199-.196.055-.054.14-.144.195-.199.055-.058.145-.148.2-.207.054-.058.144-.148.199-.21l.195-.212c.059-.062.145-.16.2-.222.054-.059.144-.16.198-.223l.2-.227c.054-.062.14-.168.195-.23l.2-.238c.054-.067.144-.172.198-.239.055-.066.141-.175.196-.246.058-.066.144-.176.199-.246l.2-.25c.054-.07.14-.183.198-.254.055-.07.141-.183.196-.258l.199-.257c.055-.075.144-.192.2-.266.054-.07.14-.187.194-.262l.2-.27.199-.269c.055-.074.14-.195.195-.273.059-.074.145-.196.2-.274l.199-.273c.054-.078.144-.2.199-.277.055-.079.14-.204.195-.278l.2-.281c.054-.078.144-.203.199-.281l.195-.282.2-.28c.054-.079.144-.204.198-.286.055-.078.14-.203.2-.281l.195-.285.2-.282.198-.28c.055-.079.14-.208.196-.286.054-.078.144-.203.199-.281l.199-.281.195-.282c.059-.074.145-.199.2-.277.054-.078.144-.2.199-.277.054-.079.144-.2.199-.278.055-.074.14-.199.195-.273.055-.078.145-.2.2-.274l.199-.27a16.107 16.107 0 0 1 .394-.534c.055-.075.145-.192.2-.266a11.6 11.6 0 0 1 .199-.262c.054-.07.14-.187.195-.257l.2-.254.198-.254.196-.25.199-.242c.055-.07.145-.176.2-.243l.195-.238c.058-.066.144-.172.199-.234.054-.067.144-.168.199-.23l.2-.227c.054-.063.14-.16.195-.22.054-.062.144-.16.199-.218l.199-.21c.055-.06.14-.153.195-.208.055-.058.145-.148.2-.203l.199-.2c.054-.05.14-.136.199-.19.055-.051.14-.137.195-.188.055-.05.145-.129.2-.18.054-.05.144-.129.199-.176.054-.05.14-.125.195-.171.055-.047.145-.118.2-.164.054-.043.144-.118.198-.16l.196-.153c.058-.039.144-.105.199-.145l.2-.14c.054-.04.144-.098.198-.137l.196-.125a5.43 5.43 0 0 1 .199-.12c.055-.036.144-.087.2-.118.054-.031.14-.078.194-.11l.2-.101c.054-.027.144-.07.199-.094.055-.027.14-.066.2-.09.054-.023.14-.058.194-.082l.2-.074c.054-.02.144-.05.199-.066.055-.02.14-.047.195-.063l.2-.055c.054-.011.144-.035.199-.046.054-.012.14-.032.195-.04.059-.011.144-.023.2-.035.054-.007.144-.02.198-.023a3.13 3.13 0 0 1 .2-.02l.195-.011c.055 0 .144-.004.2-.004.054 0 .144 0 .198.004.055 0 .14.004.196.008.054.003.144.011.199.015l.2.027c.054.008.14.02.194.032.059.008.145.023.2.035l.199.047a3.723 3.723 0 0 1 .394.113c.055.016.145.047.2.063l.199.074.195.082c.059.023.145.062.2.086.054.023.144.066.199.093a9.768 9.768 0 0 1 .394.208l.2.113c.054.031.144.086.199.12.054.032.14.09.195.126.055.035.144.094.199.133l.2.14c.054.04.14.102.195.145.058.039.144.11.199.152.054.04.144.11.199.156.055.043.145.118.2.165.054.042.14.12.195.167l.199.172.199.184c.055.05.14.133.195.184.055.05.145.136.2.191.054.055.144.14.199.195.054.055.14.145.199.203.055.055.14.149.195.204l.2.21c.054.063.144.157.199.22.054.058.14.155.195.218.055.062.145.16.2.223.054.066.144.168.198.23.055.063.141.168.196.234.058.063.144.168.199.235l.2.242c.054.066.144.176.198.246.055.067.141.176.196.246.054.07.144.18.199.25.055.07.144.184.2.258.054.07.14.184.194.258l.2.258c.054.074.144.191.199.265.055.07.14.192.2.266l.194.266c.055.074.145.195.2.273l.199.27c.055.078.14.199.195.273.055.078.145.2.2.277.054.078.144.2.199.278.054.078.14.203.195.28.059.075.144.2.2.278l.198.281.2.282.195.285.2.281.198.281c.055.078.141.207.196.286.054.078.144.203.199.28.055.079.144.208.2.286.054.078.14.203.198.281.055.078.14.203.196.281.054.079.144.204.199.282l.2.28c.054.08.14.2.194.278l.2.278c.054.078.144.199.199.277.055.074.14.2.195.273.059.075.145.196.2.274l.199.27.199.269.195.266c.055.07.145.187.2.261.054.074.144.188.199.262l.195.258.2.254c.054.07.144.18.198.25.055.07.14.18.2.25l.195.242.199.242.2.238c.054.063.14.168.195.23.054.067.144.169.199.231.054.063.144.16.199.223l.195.223c.059.058.145.156.2.214.054.059.144.153.199.211.054.059.14.149.199.207l.195.2a9.3 9.3 0 0 0 .2.195c.054.055.144.14.199.191.054.055.14.137.195.188.055.05.145.129.2.18l.198.171c.055.051.141.125.196.172l.199.16a6.567 6.567 0 0 0 .398.309 6.043 6.043 0 0 0 .395.285c.055.04.145.098.2.133.054.035.14.094.195.129.058.031.144.086.199.117.054.035.144.082.199.113.055.032.14.078.2.11l.194.097c.055.028.145.07.2.094.054.027.144.067.199.09.055.02.14.059.195.078.055.02.145.055.2.074.054.02.144.047.199.067.054.015.14.043.195.058.059.016.145.04.2.051.054.016.144.035.198.047.055.012.145.027.2.04.054.007.14.022.195.03.055.008.144.016.2.024l.198.015.196.012h.199c.055 0 .144 0 .2-.004.054 0 .14-.008.198-.012.055-.003.141-.011.196-.02a3.458 3.458 0 0 0 .398-.058c.055-.007.14-.027.195-.039.055-.011.145-.031.2-.047.054-.011.144-.039.199-.054l.195-.059.2-.07c.054-.02.144-.051.199-.074.054-.02.144-.059.199-.082.055-.024.14-.063.195-.09.055-.024.145-.067.2-.094l.199-.102c.054-.027.14-.078.195-.109l.2-.113c.054-.035.144-.09.198-.121.055-.036.14-.094.2-.13.054-.034.14-.097.195-.136.055-.035.144-.098.2-.14.054-.04.144-.102.198-.145.055-.043.14-.11.196-.152.054-.043.144-.114.199-.16a7.363 7.363 0 0 0 .394-.337c.059-.046.145-.125.2-.175.054-.047.144-.13.199-.18.054-.05.144-.133.199-.188.055-.05.14-.136.195-.19.055-.056.145-.142.2-.2l.199-.2.195-.21c.055-.055.145-.153.2-.211l.199-.215c.054-.063.14-.16.199-.223.054-.062.14-.164.195-.226.055-.063.145-.164.2-.23.054-.063.144-.169.198-.235.055-.063.141-.168.196-.235.054-.07.144-.175.199-.242.055-.07.145-.18.2-.246l.195-.25c.058-.07.144-.18.199-.25l.199-.258c.055-.07.145-.183.2-.257.054-.07.14-.188.195-.262.054-.07.144-.192.199-.262l.199-.27.195-.265c.055-.078.145-.195.2-.273.054-.075.144-.196.199-.274.054-.074.14-.195.199-.273.055-.075.14-.2.195-.278.055-.074.145-.199.2-.277l.199-.277.195-.282.2-.28c.054-.079.144-.204.198-.282l.196-.281c.058-.079.144-.207.199-.286l.2-.28c.054-.079.14-.208.198-.286l.196-.281.199-.285.2-.282.194-.28.2-.282c.054-.078.144-.203.199-.277.055-.079.14-.204.2-.282.054-.074.14-.199.194-.277.055-.074.145-.2.2-.273.054-.079.144-.2.199-.274.055-.078.14-.2.195-.273l.2-.27c.054-.074.144-.191.199-.266.054-.074.14-.195.195-.265.059-.074.144-.192.2-.262.054-.074.144-.191.198-.262.055-.07.141-.187.2-.257l.195-.254.2-.25c.054-.07.144-.18.198-.246.055-.07.14-.176.196-.243.054-.07.144-.175.199-.242.055-.066.144-.172.2-.234.054-.067.14-.168.194-.235.059-.062.145-.164.2-.226.054-.063.144-.164.199-.223.055-.062.144-.16.199-.218.055-.063.14-.157.195-.215l.2-.211c.054-.059.144-.149.199-.203a9.03 9.03 0 0 1 .594-.586c.054-.051.14-.133.199-.184l.195-.18.2-.171c.054-.047.144-.122.199-.168a7.04 7.04 0 0 1 .195-.16c.055-.047.144-.114.199-.157l.2-.152c.054-.04.14-.102.195-.14l.199-.141.199-.13.2-.124c.054-.036.14-.086.195-.118.054-.035.144-.082.199-.113.054-.031.144-.078.199-.105.055-.028.14-.075.195-.098.055-.027.145-.07.2-.094l.199-.086c.054-.02.14-.054.199-.078l.195-.07c.055-.02.145-.047.2-.063.054-.02.144-.043.199-.058.054-.016.14-.04.195-.05l.2-.044c.054-.012.144-.027.198-.039l.196-.027c.058-.008.144-.016.199-.024l.2-.015c.054 0 .144-.004.198-.008h.196c.054 0 .144.004.199.008.055 0 .144.007.2.011.054.004.14.016.194.02l.2.027c.054.012.144.028.199.035.055.012.14.032.2.043.054.012.14.035.194.047l.2.059a3.9 3.9 0 0 1 .199.062c.055.016.14.047.195.07l.2.075c.054.023.144.058.199.086.054.023.14.062.195.09.059.023.144.066.2.097.054.028.144.07.198.102.055.031.145.078.2.11.054.03.14.085.195.116.055.036.144.09.2.125.054.036.144.09.198.13.055.034.141.097.196.136.054.04.144.102.199.14.055.04.144.106.2.15l.198.151c.055.047.141.118.196.16l.199.169c.055.046.144.125.2.171.054.047.14.13.194.176l.2.184c.054.05.144.137.199.187a36268.394 36268.394 0 0 1 .394.395c.055.055.145.144.2.203.054.055.14.148.199.207.054.059.14.156.195.215.055.058.145.156.2.219.054.058.144.16.199.222.054.063.14.16.195.227.055.062.144.164.2.23.054.063.144.168.198.235.055.066.14.172.2.238.054.066.14.176.195.242.055.07.144.18.199.246l.2.25.195.254c.054.07.144.184.199.258.054.07.144.184.199.258.055.07.14.187.195.261.059.075.145.192.2.266.054.07.144.191.199.266.054.074.14.195.199.27.055.073.14.195.195.269.055.078.145.199.2.273.054.078.144.2.199.278.054.074.14.199.195.277.055.074.145.2.2.277.054.078.144.2.198.278l.196.28c.058.079.144.204.199.282l.2.281.198.285.196.282.199.285"/></g><use xlink:href="#c" x="121.924" y="35.064"/><use xlink:href="#d" x="11.24" y="10.439"/><use xlink:href="#e" x="15.583" y="11.921"/><path fill="none" stroke="#000" stroke-miterlimit="10" stroke-width=".39566436" d="M25.207 63.855h100.336"/><path d="m128.59 63.855-2.95-1.75v3.497Zm0 0"/><g clip-path="url(#f)"><path fill="none" stroke="#000" stroke-miterlimit="10" stroke-width=".39566436" d="m128.59 63.855-2.95-1.75v3.497Zm0 0"/></g><path fill="none" stroke="#000" stroke-miterlimit="10" stroke-width=".39566436" d="M25.207 66.664V41.996"/><path stroke="#000" stroke-miterlimit="10" stroke-width=".39566436" d="m25.207 38.95-1.75 2.948h3.5Zm0 0"/><g clip-path="url(#g)"><path fill="none" stroke="#000" stroke-miterlimit="10" stroke-width=".39566436" d="m25.207 50.36.2.285c.054.078.14.203.198.28l.196.282c.054.082.144.207.199.285l.2.281.195.282.199.277c.054.078.144.203.199.277l.195.278c.059.078.145.199.2.277l.199.27c.054.078.14.199.199.273.055.074.14.195.195.27l.2.265c.054.074.144.192.199.266l.195.262c.055.074.145.187.2.257.054.075.144.188.198.258l.196.254c.058.07.144.18.199.25.055.066.145.176.2.246l.198.242.196.239c.054.066.144.171.199.234.055.066.144.168.2.23l.194.227c.055.063.145.164.2.223.054.062.144.16.199.218.055.059.14.157.2.215l.194.207c.055.059.145.149.2.203l.199.2.195.195c.055.05.145.137.2.187l.199.184c.054.047.14.129.195.176.059.047.144.125.2.172.054.047.144.12.198.164.055.047.145.117.2.16.054.047.14.113.195.156.055.043.144.11.2.149l.198.14c.055.04.141.102.196.137l.199.129.2.125c.054.031.14.086.198.117l.196.11.199.101c.055.027.144.074.2.098.054.027.14.066.194.09l.2.085.199.075.195.07c.059.02.145.047.2.062.054.016.144.043.199.055.054.016.144.04.199.05l.195.044.2.031c.054.012.144.024.199.031.054.004.14.016.195.02l.2.012c.054.004.144.007.198.007h.2c.054-.003.14-.007.195-.007l.199-.016c.055-.008.145-.016.2-.023.054-.008.14-.02.195-.032.054-.007.144-.023.199-.035l.199-.043a3.59 3.59 0 0 0 .195-.05c.059-.016.145-.04.2-.06a3.9 3.9 0 0 0 .199-.062c.054-.02.144-.05.199-.074.055-.02.14-.055.195-.078.055-.02.145-.059.2-.082.054-.027.144-.066.199-.094l.195-.097c.055-.028.145-.075.2-.106l.198-.113c.055-.031.141-.082.2-.117.054-.036.14-.09.195-.125.055-.036.145-.094.2-.133a6.043 6.043 0 0 0 .394-.281c.054-.04.144-.106.199-.149.055-.043.145-.11.2-.156a7.04 7.04 0 0 0 .195-.16c.058-.047.144-.121.199-.168l.199-.172c.055-.05.14-.129.2-.18l.194-.183c.055-.051.145-.137.2-.192.054-.05.144-.14.199-.195.055-.055.14-.14.195-.2.055-.054.145-.148.2-.202.054-.06.144-.153.199-.211l.195-.215c.059-.059.145-.157.2-.219.054-.063.144-.16.198-.223l.2-.226c.054-.067.14-.168.195-.235.055-.062.144-.168.2-.234l.198-.242c.055-.067.141-.176.196-.242.058-.067.144-.18.199-.246.055-.07.144-.184.2-.25.054-.07.14-.184.198-.254.055-.075.141-.188.196-.258.054-.074.144-.188.199-.262.055-.07.144-.187.2-.262l.194-.265.2-.266.199-.27c.055-.078.14-.199.195-.273.059-.074.145-.199.2-.273.054-.078.144-.2.199-.278l.199-.277c.055-.074.14-.2.195-.277l.2-.278c.054-.078.144-.203.199-.28l.195-.282c.055-.078.144-.207.2-.285.054-.078.144-.203.198-.282.055-.078.14-.203.2-.28.054-.083.14-.208.195-.286l.2-.281.198-.285.196-.282c.054-.078.144-.203.199-.28l.199-.282.195-.281c.059-.078.145-.203.2-.278.054-.078.144-.203.199-.28.054-.075.144-.2.199-.274l.195-.278.2-.27c.054-.077.144-.198.199-.273l.195-.27c.055-.073.145-.19.2-.265.054-.074.144-.191.199-.262.054-.074.14-.191.199-.261.054-.075.14-.188.195-.258.055-.074.145-.188.2-.258.054-.07.144-.18.198-.25l.196-.25c.054-.07.144-.176.199-.246l.2-.242.195-.238c.058-.063.144-.168.199-.235l.199-.226c.055-.067.145-.164.2-.227l.195-.223.199-.214c.054-.063.144-.157.199-.215l.195-.207c.055-.055.145-.145.2-.203.054-.055.144-.141.199-.196.054-.054.14-.14.199-.191.055-.055.14-.137.195-.188l.2-.183c.054-.047.144-.125.199-.176l.195-.168c.055-.047.145-.121.2-.164.054-.047.144-.117.198-.16l.196-.153c.058-.043.144-.105.199-.148.055-.04.144-.102.2-.14.054-.036.144-.098.198-.133l.196-.13c.054-.035.144-.085.199-.12l.2-.114c.054-.031.14-.082.194-.11.055-.03.145-.073.2-.1.054-.028.144-.071.199-.098.055-.024.14-.063.2-.086.054-.024.14-.063.194-.082.055-.024.145-.055.2-.075l.199-.07c.055-.015.14-.043.195-.058a1.89 1.89 0 0 1 .2-.055c.054-.016.144-.035.199-.047l.195-.043c.059-.008.144-.023.2-.031l.198-.028c.055-.003.141-.011.2-.015.054-.004.14-.012.195-.012.055-.004.144-.004.2-.004.054-.004.144 0 .198 0l.196.012.199.016c.055.007.144.015.2.023l.194.031.2.04c.054.011.144.03.199.046.055.012.144.035.199.05l.195.06c.055.02.145.046.2.066.054.02.144.05.199.074a4.067 4.067 0 0 1 .394.168c.055.024.145.067.2.09.054.027.14.074.199.102l.195.109c.055.027.145.078.2.113.054.031.144.086.199.117.054.036.14.09.195.13.055.034.144.093.199.132.055.035.145.098.2.137.054.039.14.105.195.144.058.043.144.11.199.153l.199.156c.055.047.145.117.2.164l.195.168c.054.05.144.125.199.176l.199.18c.055.05.14.132.195.187.055.05.145.137.2.191.054.051.144.141.199.196.054.054.14.144.199.199l.195.207.2.21.199.216.195.222c.055.059.145.16.2.223.054.062.144.164.198.23.055.063.141.168.196.23.058.067.144.173.199.24.055.066.145.171.2.241l.198.243.196.25c.054.066.144.18.199.25l.2.253c.054.07.14.188.194.258.055.075.145.188.2.262l.199.262c.055.074.14.191.2.265l.194.27.2.27c.054.074.144.195.199.273.055.074.14.2.195.273l.2.278.199.277c.054.074.14.2.195.277.059.078.144.203.2.282l.198.28.2.282.195.281c.055.078.144.203.2.285.054.079.144.204.198.282l.196.281c.054.082.144.207.199.285l.2.281c.054.079.14.207.198.286.055.078.14.203.196.28.054.079.144.204.199.282.055.078.144.2.2.277l.194.282c.055.074.145.199.2.277.054.074.144.2.199.273l.195.278c.059.074.145.195.2.27.054.077.144.195.199.273.054.074.144.191.199.265l.195.266c.055.074.145.191.2.266l.199.257c.054.075.14.188.195.258l.2.254.198.254c.055.066.14.18.2.246.054.07.14.18.195.246l.199.239.2.238.195.234.199.227.199.226c.055.063.14.16.195.22l.2.214c.054.062.144.156.199.21.054.06.14.153.199.208.055.058.14.148.195.203l.2.195c.054.055.144.137.199.192.054.05.14.133.195.183.055.051.145.133.2.18.054.05.144.129.198.176.055.047.141.125.196.168.058.047.144.12.199.164l.2.156c.054.043.144.113.198.152.055.043.141.106.196.145l.199.14c.055.036.145.098.2.133.054.036.14.09.195.125.058.036.144.09.199.121l.199.114c.055.031.14.078.2.105.054.031.14.074.194.102.055.027.145.07.2.094l.199.085c.055.024.14.06.195.082l.2.07c.054.02.144.052.199.067.054.02.14.047.195.059l.2.054.198.043c.055.012.145.032.2.04.054.011.14.023.195.03.055.009.144.02.2.024a3.437 3.437 0 0 0 .394.028c.054.003.144.003.199.003l.2-.003.198-.012c.055-.004.141-.012.196-.02l.199-.027c.055-.008.144-.02.2-.031l.194-.04c.055-.011.145-.035.2-.046.054-.016.144-.04.199-.055.055-.016.14-.043.195-.062.059-.016.145-.047.2-.067.054-.02.144-.055.199-.074l.199-.082c.055-.024.14-.063.195-.09.055-.023.145-.066.2-.094l.199-.101.195-.11c.055-.03.144-.082.2-.117.054-.031.144-.086.198-.12l.2-.13c.054-.035.14-.094.195-.133l.2-.14.198-.145c.055-.043.14-.113.196-.156l.199-.156c.055-.047.144-.117.199-.164.055-.047.14-.125.195-.172.059-.047.145-.125.2-.176l.199-.18c.054-.054.144-.136.199-.187l.195-.195a9.865 9.865 0 0 0 .398-.398c.055-.056.141-.15.196-.208l.2-.21c.054-.06.144-.157.199-.22.054-.058.14-.16.199-.218l.195-.227.2-.23c.054-.067.144-.168.198-.235l.196-.238c.054-.066.144-.172.199-.242.055-.067.145-.176.2-.246l.195-.246c.058-.07.144-.184.199-.254l.199-.254.2-.258c.054-.074.14-.191.195-.262.054-.074.144-.191.199-.265.054-.075.144-.192.199-.266.055-.074.14-.195.195-.27l.2-.27c.054-.073.144-.194.199-.273.054-.074.14-.199.199-.273l.195-.277.2-.278c.054-.078.144-.203.199-.28.054-.075.14-.2.195-.278l.2-.282.198-.28c.055-.079.141-.208.196-.286.058-.078.144-.203.199-.281.055-.078.144-.207.2-.285.054-.078.14-.203.198-.282.055-.078.141-.207.196-.285.054-.078.144-.203.199-.281l.2-.281.194-.281.2-.282c.054-.078.144-.203.199-.281.055-.078.14-.2.2-.277l.194-.278c.055-.078.145-.199.2-.277.054-.074.144-.195.199-.273.055-.075.14-.196.195-.27l.2-.27.199-.269.195-.266c.059-.07.144-.187.2-.261l.198-.258a6.46 6.46 0 0 1 .2-.258l.195-.254c.055-.07.144-.184.2-.25.054-.07.144-.18.198-.25.055-.066.14-.176.196-.242.054-.067.144-.172.199-.238l.2-.239c.054-.062.14-.168.194-.23.059-.063.145-.164.2-.227l.199-.226c.055-.059.144-.157.199-.219.055-.059.14-.156.195-.215.055-.058.145-.152.2-.207.054-.058.144-.148.199-.207l.195-.2.2-.194.199-.188a4.52 4.52 0 0 1 .199-.187c.054-.047.14-.13.195-.176.055-.051.145-.125.2-.176.054-.047.144-.121.199-.164.054-.047.14-.121.195-.164l.199-.156a6.57 6.57 0 0 1 .2-.149c.054-.039.14-.105.195-.144l.199-.137c.054-.04.144-.094.199-.133l.2-.125c.054-.031.14-.086.195-.117a5.03 5.03 0 0 1 .199-.11c.054-.03.144-.078.199-.105.055-.031.14-.074.195-.101.055-.024.145-.067.2-.09l.199-.086c.054-.024.14-.059.199-.078l.195-.07c.055-.02.145-.048.2-.067l.199-.059c.054-.011.14-.035.195-.047.055-.015.145-.035.2-.046.054-.008.144-.028.198-.036.055-.007.141-.023.196-.027.058-.008.144-.02.199-.023.055-.008.145-.012.2-.016.054-.004.144-.008.198-.008.055 0 .141-.004.196 0 .054 0 .144.004.199.004.055.004.144.008.2.016.054.004.14.011.194.02l.2.027c.054.007.144.023.199.035.055.011.14.027.2.043.054.011.14.031.194.047l.2.054a3.9 3.9 0 0 0 .199.063l.195.07c.055.02.145.055.2.078.054.024.144.059.199.082.054.024.14.067.195.09.059.027.144.07.2.098.054.027.144.074.198.105a5.029 5.029 0 0 1 .395.227c.055.031.144.086.2.12l.198.13.196.136c.054.04.144.102.199.145.055.04.144.105.2.148.054.04.14.11.198.153.055.043.141.113.196.16.054.047.144.121.199.168.055.047.144.121.2.172.054.047.14.125.194.176l.2.183c.054.051.144.133.199.188.055.05.14.14.195.191.059.055.145.145.2.2.054.058.144.148.199.202.054.059.14.153.199.211.054.059.14.153.195.211.055.063.145.16.2.22.054.062.144.16.199.222.054.062.14.164.195.226.055.063.144.168.2.23.054.067.144.173.198.239.055.063.14.172.2.238.054.067.14.172.195.242.055.067.144.176.199.247.055.066.145.18.2.25.054.07.14.18.195.253l.199.254.199.258c.055.074.14.192.195.262.059.074.145.191.2.266.054.074.144.191.199.27.054.073.14.19.199.265.055.078.14.199.195.273.055.074.145.195.2.274l.199.273.195.277.2.278.198.281.196.281c.058.078.144.203.199.281l.2.282.198.281c.055.078.141.207.196.285.054.078.199.281.199.281"/></g><use xlink:href="#c" x="121.924" y="73.42"/><use xlink:href="#h" x="3.528" y="48.796"/><use xlink:href="#e" x="10.273" y="50.277"/><use xlink:href="#i" x="15.913" y="50.277"/><path fill="none" stroke="#000" stroke-miterlimit="10" stroke-width=".39566436" d="M25.207 90.965h100.336"/><path d="m128.59 90.965-2.95-1.746v3.496Zm0 0"/><g clip-path="url(#j)"><path fill="none" stroke="#000" stroke-miterlimit="10" stroke-width=".39566436" d="m128.59 90.965-2.95-1.746v3.496Zm0 0"/></g><g clip-path="url(#k)"><path fill="none" stroke="#000" stroke-miterlimit="10" stroke-width=".39566436" d="M25.207 105.023V80.355"/></g><path stroke="#000" stroke-miterlimit="10" stroke-width=".39566436" d="m25.207 77.305-1.75 2.949h3.5Zm0 0"/><g clip-path="url(#l)"><path fill="none" stroke="#000" stroke-miterlimit="10" stroke-width=".39566436" d="m25.207 90.965.2.285c.054.078.14.203.198.281.055.078.141.207.196.285.054.079.144.204.199.282l.2.28.195.282c.054.078.144.2.199.277.054.079.144.204.199.278.055.078.14.203.195.277.059.078.145.2.2.278.054.074.144.195.199.273.054.074.14.195.199.27.055.074.14.195.195.269.055.074.145.191.2.266.054.074.144.191.199.265.054.074.14.192.195.262.055.074.145.187.2.258.054.074.144.187.198.258l.196.254c.058.07.144.18.199.25.055.066.145.175.2.246l.198.242.196.238c.054.066.144.172.199.234.055.067.144.168.2.23.054.067.14.165.194.227.055.063.145.165.2.223.054.063.144.16.199.219.055.058.14.156.2.215l.194.207c.055.058.145.148.2.203.054.058.144.144.199.2l.195.194.2.188.199.184c.054.046.14.128.195.175.059.047.144.125.2.172.054.047.144.121.198.164.055.047.145.117.2.16.054.047.14.114.195.157.055.043.144.109.2.148.054.04.144.102.198.14.055.04.141.102.196.137.054.04.144.094.199.13l.2.124c.054.032.14.086.198.118l.196.109.199.101c.055.032.144.075.2.098.054.027.14.067.194.09.055.027.145.062.2.086.054.02.144.055.199.074l.195.07c.059.02.145.047.2.063.054.016.144.043.199.055.054.015.144.039.199.05.054.012.14.032.195.043.055.008.145.024.2.036l.199.027c.054.004.14.015.195.02.055.003.144.011.2.011.054.004.144.008.198.008h.2c.054-.004.14-.008.195-.008l.199-.016c.055-.007.145-.015.2-.023.054-.008.14-.02.195-.031.054-.008.144-.024.199-.035l.199-.043a3.59 3.59 0 0 0 .195-.051c.059-.016.145-.04.2-.059.054-.015.144-.043.199-.062l.199-.07c.055-.024.14-.06.195-.079l.2-.086c.054-.027.144-.066.199-.093l.195-.098c.055-.027.145-.074.2-.105.054-.032.144-.079.198-.114.055-.031.141-.082.2-.117l.195-.125.2-.129.198-.14.196-.141c.054-.043.144-.11.199-.152.055-.043.145-.11.2-.157.054-.043.14-.113.195-.16.058-.047.144-.12.199-.168l.199-.172c.055-.05.14-.129.2-.18l.194-.183a9.03 9.03 0 0 0 .2-.191c.054-.051.144-.141.199-.196.055-.054.14-.14.195-.199.055-.055.145-.144.2-.203.054-.059.144-.152.199-.21.054-.06.14-.153.195-.216a5.29 5.29 0 0 0 .2-.219l.198-.222.2-.227.195-.234c.055-.063.144-.168.2-.235.054-.066.144-.171.198-.242.055-.066.141-.175.196-.242.058-.066.144-.18.199-.246l.2-.25c.054-.07.14-.184.198-.254.055-.07.141-.187.196-.258.054-.07.144-.187.199-.261.055-.07.144-.188.2-.262l.194-.266.2-.265c.054-.075.144-.196.199-.27.055-.074.14-.195.195-.273.059-.075.145-.196.2-.274l.199-.273c.054-.078.144-.203.199-.278.055-.078.14-.203.195-.28.055-.079.145-.2.2-.278.054-.078.144-.203.199-.281l.195-.282.2-.28c.054-.083.144-.208.198-.286.055-.078.14-.203.2-.281.054-.078.14-.207.195-.285l.2-.282.198-.285c.055-.078.14-.203.196-.281.054-.078.144-.203.199-.281l.199-.282c.055-.078.14-.203.195-.28.059-.079.145-.204.2-.278.054-.078.144-.203.199-.278.054-.078.144-.203.199-.277l.195-.277.2-.27c.054-.078.144-.199.199-.273.054-.074.14-.196.195-.27l.2-.265c.054-.075.144-.192.199-.262.054-.074.14-.192.199-.262.054-.074.14-.187.195-.258.055-.074.145-.187.2-.257.054-.07.144-.18.198-.25l.196-.25c.054-.067.144-.176.199-.247l.2-.242.195-.238c.058-.063.144-.168.199-.23.054-.067.144-.168.199-.23l.2-.228.195-.222.199-.215.199-.215c.055-.055.14-.148.195-.207l.2-.2c.054-.058.144-.144.199-.198.054-.055.14-.14.199-.192a8.674 8.674 0 0 1 .394-.367c.055-.05.145-.129.2-.18l.195-.168.2-.164c.054-.047.144-.117.198-.16l.196-.152c.058-.043.144-.106.199-.149l.2-.14c.054-.035.144-.098.198-.133.055-.035.141-.094.196-.129.054-.035.144-.086.199-.121l.2-.113c.054-.032.14-.082.194-.11.055-.03.145-.074.2-.101.054-.028.144-.07.199-.098.055-.023.14-.062.2-.086.054-.023.14-.062.194-.082.055-.023.145-.055.2-.074l.199-.07.195-.059c.055-.016.145-.043.2-.055.054-.015.144-.035.199-.047.054-.011.14-.03.195-.039a4.306 4.306 0 0 1 .598-.078c.054-.004.14-.011.195-.011.055-.004.144-.004.2-.004h.198l.196.011.199.016c.055.008.144.016.2.023l.194.032c.059.011.145.027.2.039.054.011.144.031.199.047.055.011.144.035.199.05l.195.059c.055.02.145.047.2.066.054.02.144.051.199.075a4.067 4.067 0 0 1 .394.168c.055.023.145.066.2.093.054.024.14.07.199.098l.195.11c.055.027.145.077.2.113.054.03.144.086.199.117.054.035.14.094.195.129.055.035.144.093.199.133.055.035.145.097.2.136.054.04.14.106.195.145.058.043.144.11.199.152l.199.156c.055.047.145.118.2.164.054.047.14.122.195.168.054.051.144.13.199.176.054.051.144.13.199.18.055.05.14.133.195.187.055.051.145.137.2.192.054.05.144.14.199.195.054.055.14.145.199.2l.195.206.2.211.199.215.195.223c.055.058.145.16.2.222.054.063.144.165.198.23.055.063.141.169.196.231.058.067.144.172.199.239.055.066.145.172.2.242l.198.242.196.25c.054.07.144.18.199.25l.2.254c.054.074.14.187.194.258.055.074.145.187.2.261.054.075.144.192.199.262.055.074.14.192.2.266l.194.27.2.269c.054.078.144.2.199.273.055.075.14.2.195.274.055.078.145.199.2.277l.199.277c.054.079.14.2.195.278.059.078.144.203.2.281l.198.281.2.282c.054.078.14.203.195.28.055.079.144.204.2.286l.198.281c.055.078.141.203.196.285l.199.282.2.28c.054.079.14.208.198.286.055.078.14.203.196.281l.199.282c.055.078.144.203.2.277l.194.281c.055.078.145.2.2.277.054.075.144.2.199.274l.195.277c.059.074.145.196.2.27.054.078.144.195.199.273.054.074.144.192.199.266l.195.265c.055.075.145.192.2.266l.199.258c.054.074.14.187.195.258l.2.254c.054.07.144.183.198.254.055.07.14.18.2.246.054.07.14.18.195.246l.199.242c.055.066.145.172.2.234.054.067.14.168.195.235l.199.226c.054.067.144.164.199.227.055.062.14.16.195.219.059.062.145.156.2.218.054.059.144.153.199.211.054.055.14.149.199.203.055.059.14.149.195.203l.2.196c.054.054.144.136.199.191l.195.184c.055.05.145.133.2.18.054.05.144.128.198.175.055.047.141.125.196.168.058.047.144.121.199.164.055.047.145.114.2.157.054.042.144.113.198.152.055.043.141.105.196.144.054.04.144.102.199.141.055.04.145.098.2.133l.195.125c.058.035.144.09.199.12l.199.114c.055.031.14.078.2.106a4.573 4.573 0 0 0 .395.195l.198.086.195.082.2.07c.054.02.144.051.199.067.054.02.14.047.195.062.059.016.145.035.2.051l.198.047c.055.012.145.027.2.035.054.012.14.023.195.031.055.008.144.02.2.024a3.436 3.436 0 0 0 .394.027c.054.004.144.004.199.004.055 0 .144-.004.2-.004l.198-.012c.055-.004.141-.011.196-.02.054-.003.144-.015.199-.027.055-.007.144-.02.2-.03.054-.013.14-.028.194-.04l.2-.047.199-.054c.055-.016.14-.043.195-.063.059-.016.145-.047.2-.066l.199-.075c.054-.023.144-.058.199-.082.055-.023.14-.062.195-.09.055-.023.145-.066.2-.093l.199-.102.195-.11c.055-.03.144-.081.2-.116a5.43 5.43 0 0 0 .198-.121c.055-.036.14-.09.2-.125.054-.04.14-.098.195-.137.055-.04.144-.102.2-.14l.198-.145c.055-.043.14-.11.196-.157l.199-.156c.055-.047.144-.117.199-.164.055-.047.14-.125.195-.172.059-.047.145-.125.2-.176.054-.05.144-.128.199-.18l.199-.187c.055-.054.14-.14.195-.191l.2-.2c.054-.054.144-.144.199-.202.054-.055.14-.149.195-.207.055-.06.145-.153.2-.211.054-.059.144-.157.199-.22.054-.058.14-.155.199-.218.054-.062.14-.164.195-.226.055-.063.145-.165.2-.23.054-.063.144-.169.198-.235l.196-.239c.054-.066.144-.171.199-.242l.2-.242.195-.25c.058-.07.144-.184.199-.254l.199-.254.2-.258c.054-.074.14-.187.195-.261.054-.075.144-.192.199-.266.054-.074.144-.191.199-.266.055-.074.14-.191.195-.27l.2-.269c.054-.074.144-.195.199-.273.054-.074.14-.2.199-.274l.195-.277c.055-.078.145-.2.2-.277.054-.078.144-.203.199-.278.054-.078.14-.203.195-.28l.2-.282.198-.281c.055-.078.141-.207.196-.285.058-.079.144-.204.199-.282.055-.078.144-.203.2-.285.054-.078.14-.203.198-.281.055-.078.141-.203.196-.285l.199-.282.2-.28.194-.282.2-.281.199-.282c.055-.074.14-.199.2-.277l.194-.277c.055-.078.145-.2.2-.274.054-.078.144-.199.199-.277.055-.074.14-.195.195-.27l.2-.269.199-.27.195-.265c.059-.07.144-.188.2-.262l.198-.258c.055-.074.141-.187.2-.258l.195-.253.2-.25c.054-.07.144-.18.198-.247.055-.07.14-.18.196-.246l.199-.238.2-.238c.054-.063.14-.168.194-.23.059-.063.145-.165.2-.227l.199-.227c.055-.058.144-.156.199-.219a10.162 10.162 0 0 1 .395-.422c.054-.058.144-.148.199-.206l.195-.2.2-.195c.054-.05.144-.137.199-.187.054-.055.14-.137.199-.184.054-.05.14-.133.195-.18.055-.05.145-.125.2-.176.054-.046.144-.12.199-.164l.195-.164.199-.156c.055-.039.145-.11.2-.148.054-.04.14-.106.195-.145l.199-.137.199-.129c.055-.039.145-.093.2-.125a5.3 5.3 0 0 1 .593-.335c.055-.032.14-.075.195-.102.055-.023.145-.066.2-.09l.199-.086c.054-.023.14-.058.199-.078l.195-.07c.055-.02.145-.047.2-.067.054-.015.144-.043.199-.054.054-.016.14-.04.195-.051.055-.016.145-.035.2-.047.054-.008.144-.027.198-.035.055-.008.141-.024.196-.027.058-.008.144-.02.199-.024l.2-.016c.054-.003.144-.007.198-.007h.196c.054 0 .144.004.199.004.055.003.144.011.2.015.054.004.14.012.194.02l.2.027c.054.008.144.023.199.035.055.012.14.028.2.043.054.012.14.031.194.047l.2.055a3.9 3.9 0 0 0 .199.062l.195.07c.055.024.145.055.2.079.054.023.144.058.199.082.054.023.14.066.195.09a9.538 9.538 0 0 1 .598.312c.054.031.14.082.195.117a5.43 5.43 0 0 1 .398.254c.055.035.141.094.196.133.054.039.144.102.199.144.055.04.144.106.2.149.054.039.14.11.198.152.055.043.141.117.196.16.054.047.144.122.199.168.055.047.144.121.2.172.054.047.14.125.194.176l.2.184c.054.05.144.132.199.187l.195.195c.059.051.145.141.2.196.054.058.144.148.199.207.054.054.14.148.199.207.054.058.14.152.195.215l.2.215c.054.062.144.16.199.222l.195.227c.055.066.144.168.2.23.054.067.144.172.198.238.055.063.14.172.2.239.054.066.14.176.195.242.055.066.144.176.199.246l.2.25.195.254.199.254c.054.07.144.187.199.262.055.07.14.187.195.261.059.07.145.188.2.262l.199.27.199.27c.055.073.14.194.195.269l.2.273c.054.074.144.2.199.273.054.079.14.204.195.278.055.078.145.203.2.277l.198.281.196.282c.058.078.144.203.199.28.055.08.145.204.2.282l.198.281.196.286c.054.078.199.28.199.28"/></g><use xlink:href="#c" x="121.924" y="100.534"/><use xlink:href="#h" x="8.646" y="87.153"/><use xlink:href="#m" x="15.391" y="88.634"/></svg>