<svg xmlns="http://www.w3.org/2000/svg" xmlns:xlink="http://www.w3.org/1999/xlink" width="243.595" height="58.054"><defs><path id="b" d="M2.703-1.828v-.578H.11v.578Zm0 0"/><path id="c" d="M4.11 0v-.297h-.313c-.89 0-.922-.11-.922-.484v-5.485c0-.234 0-.265-.219-.265-.61.64-1.469.64-1.781.64v.297c.188 0 .766 0 1.281-.25V-.78c0 .36-.031.484-.906.484H.938V0c.343-.031 1.187-.031 1.578-.031.39 0 1.25 0 1.593.031m0 0"/><path id="d" d="M4.5-3.14c0-.782-.047-1.563-.39-2.282-.454-.953-1.25-1.11-1.657-1.11-.594 0-1.312.266-1.703 1.173-.312.672-.375 1.437-.375 2.218 0 .735.047 1.625.453 2.36.422.797 1.125 1 1.61 1 .53 0 1.28-.203 1.703-1.14.312-.673.359-1.438.359-2.22m-.812-.11c0 .734 0 1.39-.11 2.031C3.438-.297 2.875 0 2.438 0c-.376 0-.954-.25-1.141-1.187-.11-.579-.11-1.485-.11-2.063 0-.625 0-1.281.094-1.812.172-1.157.907-1.25 1.157-1.25.328 0 .968.171 1.156 1.156.094.547.094 1.281.094 1.906m0 0"/><path id="e" d="M7.156-6.39v-.298a22.29 22.29 0 0 1-.953.032l-1.125-.032v.297c.516.016.719.266.719.5 0 .079-.031.125-.047.188L3.953-.984l-1.86-4.938c-.062-.14-.062-.187-.062-.187 0-.282.563-.282.797-.282v-.296c-.344.03-1.031.03-1.39.03l-1.25-.03v.296c.64 0 .828 0 .953.375L3.42 0c.063.188.11.219.235.219.172 0 .188-.047.25-.188l2.172-5.765c.14-.36.406-.641 1.078-.657m0 0"/><path id="f" d="M7.063-2.453c0-.188-.188-.188-.329-.188H4v-2.75c0-.14 0-.328-.187-.328-.204 0-.204.188-.204.328v2.75H.875c-.14 0-.328 0-.328.188 0 .203.187.203.328.203h2.734V.484c0 .141 0 .329.204.329C4 .813 4 .625 4 .484V-2.25h2.734c.141 0 .329 0 .329-.203m0 0"/><path id="h" d="M2.016-3.922h.922c.203 0 .296 0 .296-.187 0-.11-.093-.11-.28-.11h-.86c.36-1.39.406-1.593.406-1.656 0-.156-.125-.266-.281-.266-.031 0-.313.016-.39.36L1.437-4.22H.516c-.188 0-.297 0-.297.188 0 .11.078.11.281.11h.86C.655-1.142.624-.97.624-.798c0 .531.36.906.89.906 1 0 1.563-1.437 1.563-1.515C3.078-1.5 3-1.5 2.953-1.5c-.078 0-.094.031-.14.14C2.39-.343 1.875-.11 1.53-.11c-.203 0-.297-.124-.297-.452 0-.235.016-.297.063-.47Zm0 0"/><path id="i" d="M6.219-5.656c.093-.407.281-.703 1.062-.735.047 0 .172 0 .172-.187 0-.016 0-.11-.14-.11-.313 0-.657.032-1 .032-.329 0-.688-.032-1.016-.032-.063 0-.172 0-.172.188 0 .11.094.11.172.11.562.015.672.218.672.437a.914.914 0 0 1-.032.203l-.875 3.5C4.72-.937 3.595-.094 2.61-.094c-.656 0-1.187-.422-1.187-1.265 0-.016 0-.328.11-.766l.952-3.812c.079-.36.11-.454.813-.454.265 0 .344 0 .344-.187 0-.11-.11-.11-.141-.11-.281 0-.984.032-1.25.032-.297 0-.984-.032-1.266-.032-.078 0-.187 0-.187.188 0 .11.078.11.265.11.032 0 .22 0 .375.015.172.031.266.031.266.156 0 .063-.11.485-.172.703l-.203.86c-.094.39-.562 2.234-.61 2.422-.062.28-.062.422-.062.562 0 1.203.89 1.89 1.922 1.89 1.235 0 2.453-1.109 2.766-2.405Zm0 0"/><path id="j" d="M3.078-4.734c-.047-.11-.062-.157-.187-.157-.141 0-.157.047-.188.157L1.11-.72C1.047-.547.922-.25.313-.25V0c.234-.016.468-.031.703-.031.28 0 .78.031.828.031v-.25c-.313 0-.5-.14-.5-.328 0-.047 0-.063.031-.14l.328-.844h1.953l.39 1c.016.046.048.093.048.125 0 .187-.375.187-.563.187V0c.344-.016.781-.031 1.016-.031.328 0 .844.031.922.031v-.25h-.14c-.454 0-.5-.062-.579-.25Zm-.39.703.874 2.234H1.798Zm0 0"/><clipPath id="a"><path d="M229 24h12.441v16H229Zm0 0"/></clipPath><clipPath id="g"><path d="M38.621 26H235v29.98H38.621Zm0 0"/></clipPath></defs><path fill="none" stroke="#BFBFBF" stroke-miterlimit="10" stroke-width=".19581003000000002" d="M38.621 50.402h199.363M38.621 13.211h199.363"/><path fill="none" stroke="#000" stroke-miterlimit="10" stroke-width=".78422409" d="M36.531 50.402h4.184M36.53 13.211h4.184"/><path fill="none" stroke="#000" stroke-miterlimit="10" stroke-width=".39260403000000005" d="M38.621 31.805h195.95"/><path d="m237.594 31.805-2.926-1.735v3.47Zm0 0"/><g clip-path="url(#a)"><path fill="none" stroke="#000" stroke-miterlimit="10" stroke-width=".39260403000000005" d="m237.594 31.805-2.926-1.735v3.47Zm0 0"/></g><path fill="none" stroke="#000" stroke-miterlimit="10" stroke-width=".39260403000000005" d="M38.621 55.98V3.613"/><path stroke="#000" stroke-miterlimit="10" stroke-width=".39260403000000005" d="m38.621.586-1.734 2.93h3.472Zm0 0"/><use xlink:href="#b" x="9.383" y="53.64"/><use xlink:href="#c" x="12.648" y="53.64"/><use xlink:href="#d" x="17.549" y="53.64"/><use xlink:href="#e" x="25.715" y="53.64"/><use xlink:href="#f" x="5.021" y="16.153"/><use xlink:href="#c" x="12.648" y="16.153"/><use xlink:href="#d" x="17.549" y="16.153"/><use xlink:href="#e" x="25.715" y="16.153"/><g clip-path="url(#g)"><path fill="none" stroke="#000" stroke-miterlimit="10" stroke-width=".39260403000000005" d="M38.621 31.805H99.504c.105 0 .273-.082.379 0 .105.086.273.328.383.597.105.274.273.993.379 1.36.105.37.273.957.378 1.312a128.826 128.826 0 0 0 .762 2.477 120.934 120.934 0 0 0 .762 2.273c.105.301.273.774.379 1.059a69.11 69.11 0 0 0 .761 1.957 51.907 51.907 0 0 0 .762 1.742c.106.223.274.574.38.785a26.18 26.18 0 0 0 .762 1.41 17.562 17.562 0 0 0 .762 1.18 9.027 9.027 0 0 0 1.14 1.34c.105.101.277.246.382.332.105.082.273.203.379.27.105.066.273.164.379.214.11.051.277.121.383.153.105.035.273.078.379.097.105.02.277.035.382.035.106.004.274-.007.38-.02.105-.015.273-.05.382-.081a3.72 3.72 0 0 0 .379-.14 4.385 4.385 0 0 0 .762-.457c.105-.079.273-.22.379-.313.105-.098.277-.266.382-.375.106-.114.274-.305.38-.434.105-.129.273-.348.378-.488.106-.145.278-.39.383-.55a20.23 20.23 0 0 0 .762-1.267 30.196 30.196 0 0 0 .758-1.492c.105-.222.277-.59.382-.828.106-.238.274-.633.38-.883.105-.254.277-.672.382-.937.106-.27.274-.711.379-.992a103.597 103.597 0 0 0 .762-2.145c.105-.312.273-.824.379-1.148.105-.328.277-.86.382-1.2a168.67 168.67 0 0 0 .758-2.55c.11-.368.278-1.032.383-1.352.106-.316.273-.808.379-.941.105-.13.277 0 .383 0H194.629c.105 0 .273-.176.379 0 .105.18.273.922.379 1.285.105.363.277.973.383 1.336.105.363.273.937.378 1.289.106.348.278.898.383 1.238.106.336.274.863.38 1.188a113.121 113.121 0 0 0 .762 2.219c.104.292.272.753.378 1.03a64.976 64.976 0 0 0 .761 1.907 47.464 47.464 0 0 0 .762 1.683c.106.22.274.56.38.762a28.594 28.594 0 0 0 .76 1.352 15.641 15.641 0 0 0 .762 1.121c.106.14.274.351.38.476.105.125.277.309.382.418.106.11.274.27.38.36.105.094.277.226.382.3a4.098 4.098 0 0 0 .758.43c.105.043.277.098.383.125.105.024.273.055.379.067.105.007.277.011.382.004a2.52 2.52 0 0 0 .38-.051c.105-.02.273-.07.378-.11.11-.039.277-.113.383-.168.105-.054.273-.156.379-.23.105-.07.277-.2.383-.285a7.656 7.656 0 0 0 .761-.75c.106-.117.274-.324.38-.461a14.97 14.97 0 0 0 .761-1.094 22.59 22.59 0 0 0 1.14-2.07 39.138 39.138 0 0 0 1.141-2.57 49.854 49.854 0 0 0 .762-1.985 123.524 123.524 0 0 0 .762-2.191 141.509 141.509 0 0 0 .761-2.403c.106-.347.274-.914.38-1.273.105-.363.273-.953.378-1.324.106-.375.278-1.149.383-1.375.106-.223.273-.215.379-.25.105-.032.277 0 .383 0H228.493"/></g><use xlink:href="#h" x="230.979" y="41.299"/><use xlink:href="#i" x="42.086" y="10.357"/><use xlink:href="#j" x="48.779" y="11.827"/></svg>