<svg xmlns="http://www.w3.org/2000/svg" xmlns:xlink="http://www.w3.org/1999/xlink" width="242.044" height="58.054"><defs><path id="d" d="M2.703-1.828v-.578H.11v.578Zm0 0"/><path id="e" d="M4.11 0v-.297h-.313c-.89 0-.922-.11-.922-.484v-5.485c0-.234 0-.265-.219-.265-.61.64-1.469.64-1.781.64v.297c.188 0 .766 0 1.281-.25V-.78c0 .36-.031.484-.906.484H.938V0c.343-.031 1.187-.031 1.578-.031.39 0 1.25 0 1.593.031m0 0"/><path id="f" d="M4.5-3.14c0-.782-.047-1.563-.39-2.282-.454-.953-1.25-1.11-1.657-1.11-.594 0-1.312.266-1.703 1.173-.312.672-.375 1.437-.375 2.218 0 .735.047 1.625.453 2.36.422.797 1.125 1 1.61 1 .53 0 1.28-.203 1.703-1.14.312-.673.359-1.438.359-2.22m-.812-.11c0 .734 0 1.39-.11 2.031C3.438-.297 2.875 0 2.438 0c-.376 0-.954-.25-1.141-1.187-.11-.579-.11-1.485-.11-2.063 0-.625 0-1.281.094-1.812.172-1.157.907-1.25 1.157-1.25.328 0 .968.171 1.156 1.156.094.547.094 1.281.094 1.906m0 0"/><path id="g" d="M7.156-6.39v-.298a22.29 22.29 0 0 1-.953.032l-1.125-.032v.297c.516.016.719.266.719.5 0 .079-.031.125-.047.188L3.953-.984l-1.86-4.938c-.062-.14-.062-.187-.062-.187 0-.282.563-.282.797-.282v-.296c-.344.03-1.031.03-1.39.03l-1.25-.03v.296c.64 0 .828 0 .953.375L3.42 0c.063.188.11.219.235.219.172 0 .188-.047.25-.188l2.172-5.765c.14-.36.406-.641 1.078-.657m0 0"/><path id="h" d="M7.063-2.453c0-.188-.188-.188-.329-.188H4v-2.75c0-.14 0-.328-.187-.328-.204 0-.204.188-.204.328v2.75H.875c-.14 0-.328 0-.328.188 0 .203.187.203.328.203h2.734V.484c0 .141 0 .329.204.329C4 .813 4 .625 4 .484V-2.25h2.734c.141 0 .329 0 .329-.203m0 0"/><path id="j" d="M2.016-3.922h.922c.203 0 .296 0 .296-.187 0-.11-.093-.11-.28-.11h-.86c.36-1.39.406-1.593.406-1.656 0-.156-.125-.266-.281-.266-.031 0-.313.016-.39.36L1.437-4.22H.516c-.188 0-.297 0-.297.188 0 .11.078.11.281.11h.86C.655-1.142.624-.97.624-.798c0 .531.36.906.89.906 1 0 1.563-1.437 1.563-1.515C3.078-1.5 3-1.5 2.953-1.5c-.078 0-.094.031-.14.14C2.39-.343 1.875-.11 1.53-.11c-.203 0-.297-.124-.297-.452 0-.235.016-.297.063-.47Zm0 0"/><path id="k" d="M6.219-5.656c.093-.407.281-.703 1.062-.735.047 0 .172 0 .172-.187 0-.016 0-.11-.14-.11-.313 0-.657.032-1 .032-.329 0-.688-.032-1.016-.032-.063 0-.172 0-.172.188 0 .11.094.11.172.11.562.015.672.218.672.437a.914.914 0 0 1-.032.203l-.875 3.5C4.72-.937 3.595-.094 2.61-.094c-.656 0-1.187-.422-1.187-1.265 0-.016 0-.328.11-.766l.952-3.812c.079-.36.11-.454.813-.454.265 0 .344 0 .344-.187 0-.11-.11-.11-.141-.11-.281 0-.984.032-1.25.032-.297 0-.984-.032-1.266-.032-.078 0-.187 0-.187.188 0 .11.078.11.265.11.032 0 .22 0 .375.015.172.031.266.031.266.156 0 .063-.11.485-.172.703l-.203.86c-.094.39-.562 2.234-.61 2.422-.062.28-.062.422-.062.562 0 1.203.89 1.89 1.922 1.89 1.235 0 2.453-1.109 2.766-2.405Zm0 0"/><path id="l" d="M3.078-4.734c-.047-.11-.062-.157-.187-.157-.141 0-.157.047-.188.157L1.11-.72C1.047-.547.922-.25.313-.25V0c.234-.016.468-.031.703-.031.28 0 .78.031.828.031v-.25c-.313 0-.5-.14-.5-.328 0-.047 0-.063.031-.14l.328-.844h1.953l.39 1c.016.046.048.093.048.125 0 .187-.375.187-.563.187V0c.344-.016.781-.031 1.016-.031.328 0 .844.031.922.031v-.25h-.14c-.454 0-.5-.062-.579-.25Zm-.39.703.874 2.234H1.798Zm0 0"/><clipPath id="a"><path d="M38 13h201.633v38H38Zm0 0"/></clipPath><clipPath id="b"><path d="M236 30h3.633v4H236Zm0 0"/></clipPath><clipPath id="c"><path d="M230 24h9.633v16H230Zm0 0"/></clipPath><clipPath id="i"><path d="M38.34 7H236v31H38.34Zm0 0"/></clipPath></defs><g clip-path="url(#a)"><path fill="none" stroke="#BFBFBF" stroke-miterlimit="10" stroke-width=".19581003000000002" d="M38.34 50.402H239.44M38.34 13.211H239.44"/></g><path fill="none" stroke="#000" stroke-miterlimit="10" stroke-width=".78422409" d="M36.246 50.402h4.184m-4.184-37.191h4.184"/><path fill="none" stroke="#000" stroke-miterlimit="10" stroke-width=".39260403000000005" d="M38.34 31.805h197.683"/><g clip-path="url(#b)"><path d="m239.047 31.805-2.926-1.735v3.47Zm0 0"/></g><g clip-path="url(#c)"><path fill="none" stroke="#000" stroke-miterlimit="10" stroke-width=".39260403000000005" d="m239.047 31.805-2.926-1.735v3.47Zm0 0"/></g><path fill="none" stroke="#000" stroke-miterlimit="10" stroke-width=".39260403000000005" d="M38.34 55.98V3.613"/><path stroke="#000" stroke-miterlimit="10" stroke-width=".39260403000000005" d="m38.34.586-1.738 2.93h3.472Zm0 0"/><use xlink:href="#d" x="9.1" y="53.64"/><use xlink:href="#e" x="12.364" y="53.64"/><use xlink:href="#f" x="17.266" y="53.64"/><use xlink:href="#g" x="25.431" y="53.64"/><use xlink:href="#h" x="4.738" y="16.153"/><use xlink:href="#e" x="12.365" y="16.153"/><use xlink:href="#f" x="17.266" y="16.153"/><use xlink:href="#g" x="25.432" y="16.153"/><g clip-path="url(#i)"><path fill="none" stroke="#000" stroke-miterlimit="10" stroke-width=".39260403000000005" d="M38.34 31.805H99.75c.105 0 .277.086.383 0 .105-.082.277-.325.383-.594.109-.273.277-.992.386-1.363.106-.371.278-.953.383-1.313a114.166 114.166 0 0 1 .766-2.473c.11-.332.277-.847.386-1.164a90.07 90.07 0 0 1 .766-2.168c.106-.285.277-.734.383-1.007.11-.27.277-.696.387-.95a44.32 44.32 0 0 1 .766-1.742c.105-.226.277-.578.382-.785.11-.21.277-.539.387-.734.105-.196.277-.496.383-.676a17.551 17.551 0 0 1 .766-1.18 11.309 11.309 0 0 1 .769-.953 7.252 7.252 0 0 1 .766-.719 5.78 5.78 0 0 1 .386-.27c.106-.07.277-.163.383-.214a2.733 2.733 0 0 1 1.152-.29c.106 0 .278.009.383.024.106.016.277.051.383.082a3.783 3.783 0 0 1 .77.336c.105.067.277.18.382.258.106.082.278.223.383.317.11.097.277.261.387.375a10.784 10.784 0 0 1 .765.921 16.577 16.577 0 0 1 1.153 1.817c.105.191.277.508.383.715.105.207.277.55.382.773.11.223.278.594.387.832a49.644 49.644 0 0 1 .766 1.82c.105.27.277.711.383.993.109.285.277.75.386 1.047.106.296.278.785.383 1.097a111.158 111.158 0 0 1 .766 2.348c.11.34.277.898.386 1.25.106.355.278.933.383 1.3.106.368.278 1.032.383 1.348.105.32.277.813.383.942.11.133.277 0 .387 0H195.703c.106 0 .277.18.383 0 .11-.176.277-.918.387-1.282.105-.363.277-.972.382-1.335.106-.364.278-.938.383-1.29.106-.351.278-.902.383-1.238.11-.336.277-.863.387-1.187a84.245 84.245 0 0 1 .766-2.219c.105-.297.277-.754.382-1.035.11-.278.278-.715.387-.977a47.993 47.993 0 0 1 .766-1.797c.105-.234.277-.593.382-.812.11-.219.278-.559.387-.762a23.79 23.79 0 0 1 .766-1.352c.105-.171.277-.433.383-.59.109-.156.277-.394.386-.534.106-.137.278-.352.383-.473.106-.125.277-.313.383-.418.105-.11.277-.27.383-.36.11-.093.277-.226.386-.304.106-.074.278-.184.383-.242.106-.059.278-.141.383-.184.11-.043.277-.098.387-.125.105-.027.273-.055.383-.066.105-.008.277-.012.382-.008.106.008.278.031.383.05.11.024.278.075.387.114.105.039.277.113.383.168a4.85 4.85 0 0 1 .766.516c.109.085.277.242.386.343a9.693 9.693 0 0 1 .766.867c.105.133.277.368.383.516.109.152.277.41.386.578.106.168.278.45.383.633a27.504 27.504 0 0 1 .766 1.438c.109.214.277.57.386.8a45.874 45.874 0 0 1 .766 1.766c.105.262.277.691.383.965.11.277.277.73.387 1.02.105.292.277.769.382 1.074.106.304.278.804.383 1.12.106.32.278.844.383 1.176.11.332.277.88.387 1.227a131.017 131.017 0 0 1 .765 2.598c.106.375.278 1.148.383 1.375.11.222.277.214.387.246.105.035.277 0 .383 0H229.863"/></g><use xlink:href="#j" x="232.435" y="41.299"/><use xlink:href="#k" x="41.802" y="10.357"/><use xlink:href="#l" x="48.496" y="11.827"/></svg>