<svg xmlns="http://www.w3.org/2000/svg" xmlns:xlink="http://www.w3.org/1999/xlink" width="242.044" height="58.054"><defs><path id="d" d="M2.703-1.828v-.578H.11v.578Zm0 0"/><path id="e" d="M4.11 0v-.297h-.313c-.89 0-.922-.11-.922-.484v-5.485c0-.234 0-.265-.219-.265-.61.64-1.469.64-1.781.64v.297c.188 0 .766 0 1.281-.25V-.78c0 .36-.031.484-.906.484H.938V0c.343-.031 1.187-.031 1.578-.031.39 0 1.25 0 1.593.031m0 0"/><path id="f" d="M4.5-3.14c0-.782-.047-1.563-.39-2.282-.454-.953-1.25-1.11-1.657-1.11-.594 0-1.312.266-1.703 1.173-.312.672-.375 1.437-.375 2.218 0 .735.047 1.625.453 2.36.422.797 1.125 1 1.61 1 .53 0 1.28-.203 1.703-1.14.312-.673.359-1.438.359-2.22m-.812-.11c0 .734 0 1.39-.11 2.031C3.438-.297 2.875 0 2.438 0c-.376 0-.954-.25-1.141-1.187-.11-.579-.11-1.485-.11-2.063 0-.625 0-1.281.094-1.812.172-1.157.907-1.25 1.157-1.25.328 0 .968.171 1.156 1.156.094.547.094 1.281.094 1.906m0 0"/><path id="g" d="M7.156-6.39v-.298a22.29 22.29 0 0 1-.953.032l-1.125-.032v.297c.516.016.719.266.719.5 0 .079-.031.125-.047.188L3.953-.984l-1.86-4.938c-.062-.14-.062-.187-.062-.187 0-.282.563-.282.797-.282v-.296c-.344.03-1.031.03-1.39.03l-1.25-.03v.296c.64 0 .828 0 .953.375L3.42 0c.063.188.11.219.235.219.172 0 .188-.047.25-.188l2.172-5.765c.14-.36.406-.641 1.078-.657m0 0"/><path id="h" d="M7.063-2.453c0-.188-.188-.188-.329-.188H4v-2.75c0-.14 0-.328-.187-.328-.204 0-.204.188-.204.328v2.75H.875c-.14 0-.328 0-.328.188 0 .203.187.203.328.203h2.734V.484c0 .141 0 .329.204.329C4 .813 4 .625 4 .484V-2.25h2.734c.141 0 .329 0 .329-.203m0 0"/><path id="j" d="M2.016-3.922h.922c.203 0 .296 0 .296-.187 0-.11-.093-.11-.28-.11h-.86c.36-1.39.406-1.593.406-1.656 0-.156-.125-.266-.281-.266-.031 0-.313.016-.39.36L1.437-4.22H.516c-.188 0-.297 0-.297.188 0 .11.078.11.281.11h.86C.655-1.142.624-.97.624-.798c0 .531.36.906.89.906 1 0 1.563-1.437 1.563-1.515C3.078-1.5 3-1.5 2.953-1.5c-.078 0-.094.031-.14.14C2.39-.343 1.875-.11 1.53-.11c-.203 0-.297-.124-.297-.452 0-.235.016-.297.063-.47Zm0 0"/><path id="k" d="M6.219-5.656c.093-.407.281-.703 1.062-.735.047 0 .172 0 .172-.187 0-.016 0-.11-.14-.11-.313 0-.657.032-1 .032-.329 0-.688-.032-1.016-.032-.063 0-.172 0-.172.188 0 .11.094.11.172.11.562.015.672.218.672.437a.914.914 0 0 1-.032.203l-.875 3.5C4.72-.937 3.595-.094 2.61-.094c-.656 0-1.187-.422-1.187-1.265 0-.016 0-.328.11-.766l.952-3.812c.079-.36.11-.454.813-.454.265 0 .344 0 .344-.187 0-.11-.11-.11-.141-.11-.281 0-.984.032-1.25.032-.297 0-.984-.032-1.266-.032-.078 0-.187 0-.187.188 0 .11.078.11.265.11.032 0 .22 0 .375.015.172.031.266.031.266.156 0 .063-.11.485-.172.703l-.203.86c-.094.39-.562 2.234-.61 2.422-.062.28-.062.422-.062.562 0 1.203.89 1.89 1.922 1.89 1.235 0 2.453-1.109 2.766-2.405Zm0 0"/><path id="l" d="M3.078-4.734c-.047-.11-.062-.157-.187-.157-.141 0-.157.047-.188.157L1.11-.72C1.047-.547.922-.25.313-.25V0c.234-.016.468-.031.703-.031.28 0 .78.031.828.031v-.25c-.313 0-.5-.14-.5-.328 0-.047 0-.063.031-.14l.328-.844h1.953l.39 1c.016.046.048.093.048.125 0 .187-.375.187-.563.187V0c.344-.016.781-.031 1.016-.031.328 0 .844.031.922.031v-.25h-.14c-.454 0-.5-.062-.579-.25Zm-.39.703.874 2.234H1.798Zm0 0"/><clipPath id="a"><path d="M38 13h201.633v38H38Zm0 0"/></clipPath><clipPath id="b"><path d="M236 30h3.633v4H236Zm0 0"/></clipPath><clipPath id="c"><path d="M230 24h9.633v16H230Zm0 0"/></clipPath><clipPath id="i"><path d="M38.34 7H236v31H38.34Zm0 0"/></clipPath></defs><g clip-path="url(#a)"><path fill="none" stroke="#BFBFBF" stroke-miterlimit="10" stroke-width=".19581003000000002" d="M38.34 50.402H239.44M38.34 13.211H239.44"/></g><path fill="none" stroke="#000" stroke-miterlimit="10" stroke-width=".78422409" d="M36.246 50.402h4.184m-4.184-37.191h4.184"/><path fill="none" stroke="#000" stroke-miterlimit="10" stroke-width=".39260403000000005" d="M38.34 31.805h197.683"/><g clip-path="url(#b)"><path d="m239.047 31.805-2.926-1.735v3.47Zm0 0"/></g><g clip-path="url(#c)"><path fill="none" stroke="#000" stroke-miterlimit="10" stroke-width=".39260403000000005" d="m239.047 31.805-2.926-1.735v3.47Zm0 0"/></g><path fill="none" stroke="#000" stroke-miterlimit="10" stroke-width=".39260403000000005" d="M38.34 55.98V3.613"/><path stroke="#000" stroke-miterlimit="10" stroke-width=".39260403000000005" d="m38.34.586-1.738 2.93h3.472Zm0 0"/><use xlink:href="#d" x="9.1" y="53.64"/><use xlink:href="#e" x="12.364" y="53.64"/><use xlink:href="#f" x="17.266" y="53.64"/><use xlink:href="#g" x="25.431" y="53.64"/><use xlink:href="#h" x="4.738" y="16.153"/><use xlink:href="#e" x="12.365" y="16.153"/><use xlink:href="#f" x="17.266" y="16.153"/><use xlink:href="#g" x="25.432" y="16.153"/><g clip-path="url(#i)"><path fill="none" stroke="#000" stroke-miterlimit="10" stroke-width=".39260403000000005" d="M38.34 13.21H51.773c.106 0 .278-.034.383 0 .106.036.278.024.383.25.106.228.277 1 .383 1.372.11.375.277.965.387 1.324.105.364.277.93.382 1.278.106.347.278.89.383 1.226.106.332.278.856.383 1.172.11.32.277.82.387 1.125a81.847 81.847 0 0 0 .765 2.09c.106.277.278.707.383.965.11.261.278.668.387.91.105.246.277.629.383.86a32.86 32.86 0 0 0 .766 1.547c.109.198.277.507.386.69.106.18.277.465.383.633.105.168.277.422.383.575.11.152.277.382.386.52.106.136.274.339.383.46a7.636 7.636 0 0 0 .766.75c.11.086.277.215.387.285.105.07.277.172.382.227.106.058.278.133.383.172a2.622 2.622 0 0 0 1.152.152c.106-.008.278-.04.383-.066.106-.024.278-.082.383-.125a4.33 4.33 0 0 0 .387-.184c.105-.059.277-.168.383-.242.105-.074.277-.211.382-.301a8.067 8.067 0 0 0 .77-.777 12.728 12.728 0 0 0 .766-1.008 23.427 23.427 0 0 0 .77-1.238c.105-.188.277-.5.382-.704a34.529 34.529 0 0 0 .766-1.578c.109-.234.277-.62.386-.87.106-.247.278-.66.383-.923a64.98 64.98 0 0 0 .766-2.011c.11-.293.277-.778.386-1.086a96.161 96.161 0 0 0 1.149-3.563c.11-.347.277-.922.387-1.285.105-.363.277-.973.382-1.336.106-.363.278-1.105.383-1.285.11-.176.278 0 .387 0H147.727c.105 0 .277-.129.382 0 .106.133.278.625.383.941.11.32.278.98.387 1.348a111.13 111.13 0 0 0 .766 2.55c.105.34.277.876.382 1.204.11.324.278.836.387 1.148a76.414 76.414 0 0 0 1.148 3.133c.11.27.278.688.387.942a42.315 42.315 0 0 0 .766 1.71c.11.223.277.567.387.774.105.207.277.527.382.719a20.482 20.482 0 0 0 .766 1.266c.11.16.277.406.387.546.105.145.277.363.383.492.105.13.277.32.382.434.106.11.278.277.383.371.11.098.277.238.387.316.105.083.277.196.383.258.105.063.277.153.382.2.106.046.278.109.383.14.11.031.278.067.387.082.105.012.277.024.383.02.105 0 .277-.016.383-.035.105-.02.277-.063.382-.098.11-.035.278-.102.387-.152.106-.051.278-.149.383-.215.105-.067.277-.188.383-.274.105-.082.277-.23.383-.328.109-.101.277-.273.386-.39.106-.114.278-.313.383-.446.106-.133.277-.355.383-.504.105-.148.277-.398.383-.562.11-.164.277-.442.386-.621a26.105 26.105 0 0 0 .766-1.407c.106-.21.277-.562.383-.789.11-.222.277-.601.387-.84a51.9 51.9 0 0 0 1.148-2.855c.11-.289.277-.758.387-1.059.105-.3.277-.796.383-1.109.105-.316.277-.836.382-1.164.11-.328.278-.871.387-1.21a128.845 128.845 0 0 0 .766-2.579c.105-.371.277-1.086.383-1.36.109-.273.277-.515.386-.597.106-.082.278 0 .383 0H229.863"/></g><use xlink:href="#j" x="232.435" y="41.299"/><use xlink:href="#k" x="41.802" y="10.357"/><use xlink:href="#l" x="48.496" y="11.827"/></svg>