<svg xmlns="http://www.w3.org/2000/svg" xmlns:xlink="http://www.w3.org/1999/xlink" width="241.274" height="238.216"><defs><path id="a" d="M4.578-3.187c0-.782-.062-1.579-.406-2.313-.453-.953-1.266-1.125-1.688-1.125-.593 0-1.328.266-1.734 1.188C.438-4.75.39-3.97.39-3.187c0 .75.032 1.64.438 2.406.438.797 1.156 1 1.64 1 .548 0 1.298-.203 1.735-1.156.313-.688.375-1.454.375-2.25M2.468 0c-.374 0-.968-.25-1.14-1.203-.11-.594-.11-1.516-.11-2.094 0-.64 0-1.297.079-1.828.187-1.187.922-1.281 1.172-1.281.328 0 .984.187 1.172 1.172.109.547.109 1.312.109 1.937 0 .75 0 1.422-.11 2.047C3.485-.297 2.923 0 2.47 0m0 0"/><path id="b" d="M6.172-5.812c.14-.375.406-.657 1.078-.672v-.297c-.297.015-.703.031-.953.031-.297 0-.875-.031-1.14-.031v.297c.515.015.734.265.734.5 0 .078-.032.14-.063.203L4.016-1 2.109-6.016c-.046-.14-.046-.156-.046-.171 0-.297.562-.297.812-.297v-.297c-.36.031-1.047.031-1.422.031-.484 0-.906-.031-1.265-.031v.297c.64 0 .843 0 .968.375L3.47 0c.062.188.125.219.25.219.172 0 .187-.047.234-.188Zm0 0"/><path id="g" d="M2.922-6.36c0-.234 0-.265-.235-.265-.609.64-1.484.64-1.796.64v.313c.187 0 .78 0 1.297-.266V-.78c0 .36-.032.469-.922.469H.938V0c.359-.031 1.218-.031 1.609-.031.406 0 1.265 0 1.61.031v-.312h-.313c-.89 0-.922-.11-.922-.47Zm0 0"/><path id="c" d="M6.313-5.75c.093-.406.28-.703 1.078-.734.046 0 .156 0 .156-.188 0-.016 0-.11-.125-.11-.328 0-.672.032-1.016.032-.328 0-.703-.031-1.031-.031-.062 0-.172 0-.172.187 0 .11.094.11.172.11.563.015.672.218.672.437 0 .031-.016.188-.031.219l-.891 3.547C4.797-.953 3.641-.094 2.656-.094c-.672 0-1.219-.437-1.219-1.281 0-.031 0-.344.11-.781l.969-3.86c.093-.359.109-.468.828-.468.265 0 .344 0 .344-.188 0-.11-.11-.11-.141-.11-.281 0-1 .032-1.266.032-.297 0-1-.031-1.281-.031-.078 0-.187 0-.187.187 0 .11.078.11.265.11.031 0 .219 0 .375.03.188.016.281.032.281.157 0 .063-.109.469-.171.703l-.22.875c-.093.39-.562 2.266-.609 2.453-.062.282-.062.422-.062.579 0 1.203.89 1.906 1.937 1.906 1.25 0 2.485-1.125 2.813-2.438Zm0 0"/><path id="p" d="M2.047-3.969h.937c.204 0 .297 0 .297-.203 0-.11-.094-.11-.281-.11h-.875c.36-1.405.406-1.609.406-1.671 0-.172-.11-.266-.281-.266-.031 0-.312 0-.406.36l-.39 1.578H.53c-.203 0-.297 0-.297.187 0 .125.078.125.266.125h.875C.672-1.156.625-.984.625-.812c0 .546.375.921.922.921 1 0 1.578-1.453 1.578-1.53 0-.095-.078-.095-.125-.095-.094 0-.094.032-.14.141C2.421-.344 1.89-.109 1.562-.109c-.22 0-.313-.125-.313-.453 0-.25.016-.313.063-.485Zm0 0"/><path id="d" d="M5.063-1.828h-.235C4.641-.781 4.484-.25 3.203-.25h-1.11c-.327 0-.327-.062-.327-.266v-1.812h.703c.703 0 .812.203.812.812h.235V-3.39H3.28c0 .61-.11.813-.812.813h-.703v-1.625c0-.219 0-.266.328-.266H3.14c1.14 0 1.343.375 1.468 1.344h.235L4.64-4.719H.39v.25h.172c.53 0 .546.063.546.313v3.593c0 .235-.015.313-.546.313H.39V0H4.75Zm0 0"/><path id="h" d="M3.125-4.797c-.047-.11-.062-.156-.203-.156-.125 0-.14.047-.188.156L1.125-.734C1.063-.562.938-.25.313-.25V0c.234-.016.484-.031.718-.031.282 0 .797.031.828.031v-.25c-.296 0-.5-.14-.5-.328 0-.063.016-.078.032-.14l.343-.86h1.97l.405 1.016a.294.294 0 0 1 .032.125c0 .187-.375.187-.563.187V0c.344-.016.797-.031 1.031-.031.329 0 .86.031.938.031v-.25h-.14c-.47 0-.516-.062-.594-.266Zm-.406.703.89 2.266H1.83Zm0 0"/><path id="e" d="M6.484-2.562h-.25c-.25 1.53-.484 2.25-2.187 2.25H2.719c-.469 0-.485-.063-.485-.391V-3.36h.891c.969 0 1.078.312 1.078 1.156h.25v-2.625h-.25c0 .86-.11 1.156-1.078 1.156h-.89v-2.375c0-.328.015-.406.484-.406H4c1.531 0 1.797.547 1.953 1.937h.25L5.922-6.75H.328v.297h.235c.765 0 .78.11.78.469v5.203c0 .36-.015.469-.78.469H.328V0h5.735Zm0 0"/><path id="f" d="M7.172-2.484c0-.203-.203-.203-.328-.203H4.062V-5.47c0-.14 0-.328-.203-.328-.187 0-.187.188-.187.328v2.782H.89c-.141 0-.328 0-.328.203s.187.203.328.203h2.78V.5c0 .14 0 .328.188.328.204 0 .204-.187.204-.328v-2.781h2.78c.126 0 .329 0 .329-.203m0 0"/><path id="k" d="M4.578-3.187c0-.782-.062-1.579-.406-2.313-.453-.953-1.266-1.125-1.688-1.125-.593 0-1.328.266-1.734 1.188C.438-4.75.39-3.97.39-3.187c0 .75.032 1.64.438 2.406.438.797 1.156 1 1.64 1 .548 0 1.298-.203 1.735-1.156.313-.688.375-1.454.375-2.25m-.828-.11c0 .75 0 1.422-.11 2.047C3.485-.297 2.923 0 2.47 0c-.375 0-.969-.25-1.14-1.203-.11-.594-.11-1.516-.11-2.094 0-.64 0-1.297.078-1.828.187-1.187.922-1.281 1.172-1.281.328 0 .984.187 1.172 1.172.109.547.109 1.312.109 1.937m0 0"/><path id="l" d="M2.016-.016c0-.625-.235-1.03-.641-1.03-.344 0-.516.265-.516.515 0 .265.172.531.516.531a.625.625 0 0 0 .406-.156 2.56 2.56 0 0 1-.703 1.86c-.047.062-.062.062-.062.109 0 .062.046.109.093.109.125 0 .907-.781.907-1.938m0 0"/><path id="m" d="M4.547-2.031c0-1.266-.89-2.219-2-2.219-.672 0-1.031.516-1.235.984V-3.5c0-2.516 1.235-2.875 1.735-2.875.25 0 .656.063.875.406-.14 0-.547 0-.547.438 0 .312.25.468.453.468.172 0 .469-.093.469-.484 0-.594-.438-1.078-1.266-1.078-1.265 0-2.61 1.281-2.61 3.484C.422-.484 1.564.22 2.5.22c1.094 0 2.047-.938 2.047-2.25m-.906 0c0 .469 0 .969-.157 1.328-.296.594-.765.64-.984.64-.625 0-.937-.593-.984-.75-.188-.453-.188-1.25-.188-1.437 0-.766.328-1.766 1.219-1.766.156 0 .61 0 .922.61.172.375.172.875.172 1.375m0 0"/><path id="n" d="M7.25-6.484v-.297c-.297.015-.703.031-.953.031l-1.14-.031v.297c.515.015.734.265.734.5 0 .078-.032.14-.063.203L4.016-1 2.109-6.016c-.046-.14-.046-.171-.046-.171 0-.297.562-.297.812-.297v-.297c-.36.031-1.047.031-1.422.031L.188-6.781v.297c.64 0 .843 0 .968.375L3.47 0c.062.188.125.219.25.219.172 0 .187-.047.234-.188l2.219-5.843c.14-.375.406-.657 1.078-.672m0 0"/><clipPath id="i"><path d="M228 205h12.516v16H228Zm0 0"/></clipPath><clipPath id="j"><path d="M32 183h1v54.434h-1Zm0 0"/></clipPath><clipPath id="o"><path d="M32.414 188H233v49.234H32.414Zm0 0"/></clipPath></defs><path fill="none" stroke="#000" stroke-miterlimit="10" stroke-width=".39769128000000004" d="M32.414 163.855H49.29m0 0h84.367m0 0h67.496"/><path fill="#FFF" stroke="#000" stroke-miterlimit="10" stroke-width=".39769128000000004" d="M33.996 163.855a1.583 1.583 0 1 0-3.166.002 1.583 1.583 0 0 0 3.166-.002Zm0 0"/><path stroke="#000" stroke-miterlimit="10" stroke-width=".39769128000000004" d="M67.746 163.855a1.583 1.583 0 1 0-3.162.002 1.583 1.583 0 0 0 3.162-.002Zm0 0"/><path fill="#FFF" stroke="#000" stroke-miterlimit="10" stroke-width=".39769128000000004" d="M202.734 163.855a1.583 1.583 0 1 0-3.162.002 1.583 1.583 0 0 0 3.162-.002Zm0 0"/><use xlink:href="#a" x="204.657" y="167.25"/><use xlink:href="#b" x="211.271" y="167.25"/><path fill="none" stroke="#000" stroke-miterlimit="10" stroke-width=".39769128000000004" d="M32.414 106.437v47.344m0-57.418H49.29m0 0h34.797m31.644 0h17.926"/><path stroke="#000" stroke-miterlimit="10" stroke-width=".39769128000000004" d="M32.414 149.578h-1.977l1.977 4.203 1.98-4.203Zm0 0"/><use xlink:href="#c" x="35.986" y="132.758"/><use xlink:href="#d" x="42.765" y="134.247"/><use xlink:href="#e" x="29.034" y="92.855"/><path fill="#FFF" stroke="#000" stroke-miterlimit="10" stroke-width=".39769128000000004" d="M33.996 96.363a1.583 1.583 0 1 0-3.162.002 1.583 1.583 0 0 0 3.162-.002Zm0 0"/><path stroke="#000" stroke-miterlimit="10" stroke-width=".39769128000000004" d="M67.746 96.363a1.583 1.583 0 1 0-3.166.002 1.583 1.583 0 0 0 3.166-.002Zm0 0"/><path fill="none" stroke="#000" stroke-miterlimit="10" stroke-width=".7943858400000001" d="M84.086 90.43h31.644v11.867H84.086ZM165.367 96.363c0-8.101-6.566-14.668-14.668-14.668-8.101 0-14.668 6.567-14.668 14.668 0 8.102 6.567 14.668 14.668 14.668 8.102 0 14.668-6.566 14.668-14.668Zm0 0"/><path fill="none" stroke="#000" stroke-miterlimit="10" stroke-width=".39769128000000004" d="M157.39 74.41v13.25l-11.867 5.438"/><path fill="none" stroke="#000" stroke-miterlimit="10" stroke-width=".7943858400000001" d="M145.523 87.66v17.406"/><path fill="none" stroke="#000" stroke-miterlimit="10" stroke-width=".39769128000000004" d="m145.523 99.625 11.868 5.441v13.25"/><path d="m149.703 101.543.95-2.074 3.679 4.195-5.578-.05Zm0 0"/><path fill="none" stroke="#000" stroke-miterlimit="10" stroke-width=".39769128000000004" d="M145.523 96.363h-12.066M157.39 118.117v22.871m0 0v22.867"/><path stroke="#000" stroke-miterlimit="10" stroke-width=".39769128000000004" d="M158.973 163.855a1.583 1.583 0 1 0-3.166.002 1.583 1.583 0 0 0 3.166-.002Zm0 0"/><path fill="none" stroke="#000" stroke-miterlimit="10" stroke-width=".39769128000000004" d="M157.39 163.855v9.891"/><path fill="none" stroke="#000" stroke-linecap="round" stroke-miterlimit="10" stroke-width=".7943858400000001" d="M151.457 173.746h11.867"/><path fill="none" stroke="#000" stroke-miterlimit="10" stroke-width=".39769128000000004" d="M157.39 74.605h21.88m0 0h21.882"/><path stroke="#000" stroke-miterlimit="10" stroke-width=".39769128000000004" d="M158.973 74.605a1.583 1.583 0 1 0-3.166.002 1.583 1.583 0 0 0 3.166-.002Zm0 0"/><path fill="#FFF" stroke="#000" stroke-miterlimit="10" stroke-width=".39769128000000004" d="M202.734 74.605a1.583 1.583 0 1 0-3.162.002 1.583 1.583 0 0 0 3.162-.002Zm0 0"/><path fill="none" stroke="#000" stroke-miterlimit="10" stroke-width=".39769128000000004" d="M157.39 74.605V56.684m0-31.645V7.113h21.88m0 0h21.882"/><path fill="none" stroke="#000" stroke-miterlimit="10" stroke-width=".7943858400000001" d="M163.324 25.039v31.645h-11.867V25.039Zm0 0"/><path stroke="#000" stroke-miterlimit="10" stroke-width=".39769128000000004" d="M158.973 7.113a1.58 1.58 0 0 0-1.582-1.582 1.58 1.58 0 0 0-1.582 1.582 1.58 1.58 0 0 0 1.582 1.582 1.58 1.58 0 0 0 1.582-1.582Zm0 0"/><path fill="#FFF" stroke="#000" stroke-miterlimit="10" stroke-width=".39769128000000004" d="M202.734 7.113a1.583 1.583 0 1 0-3.165.002 1.583 1.583 0 0 0 3.165-.002Zm0 0"/><use xlink:href="#f" x="204.657" y="10.095"/><use xlink:href="#g" x="212.383" y="10.095"/><use xlink:href="#a" x="217.348" y="10.095"/><use xlink:href="#b" x="223.961" y="10.095"/><path fill="none" stroke="#000" stroke-miterlimit="10" stroke-width=".39769128000000004" d="M157.39 7.113h-45.613m0 0H66.164v12.918m0 7.91V40.86"/><path fill="none" stroke="#000" stroke-miterlimit="10" stroke-width=".7943858400000001" d="M78.027 20.031h-23.73m23.73 7.91h-23.73"/><path fill="none" stroke="#000" stroke-miterlimit="10" stroke-width=".39769128000000004" d="M66.164 40.86v9.89"/><path fill="none" stroke="#000" stroke-linecap="round" stroke-miterlimit="10" stroke-width=".7943858400000001" d="M60.23 50.75h11.868"/><path fill="none" stroke="#000" stroke-miterlimit="10" stroke-width=".39769128000000004" d="M201.152 87.945v62.575"/><path stroke="#000" stroke-miterlimit="10" stroke-width=".39769128000000004" d="M201.152 146.316h-1.98l1.98 4.204 1.977-4.204Zm0 0"/><use xlink:href="#c" x="204.719" y="121.881"/><use xlink:href="#h" x="211.499" y="123.37"/><path fill="none" stroke="#000" stroke-miterlimit="10" stroke-width=".39769128000000004" d="M66.164 163.855v-17.921m0-31.645V96.363"/><path fill="none" stroke="#000" stroke-miterlimit="10" stroke-width=".7943858400000001" d="M72.098 114.289v31.645H60.23v-31.645Zm0 0"/><path fill="none" stroke="#BFBFBF" stroke-miterlimit="10" stroke-width=".19834728000000001" d="M32.414 197.68h204.598"/><path fill="none" stroke="#000" stroke-miterlimit="10" stroke-width=".7943858400000001" d="M30.297 197.68h4.238"/><path fill="none" stroke="#000" stroke-miterlimit="10" stroke-width=".39769128000000004" d="M32.414 212.75h201.137"/><path d="m236.617 212.75-2.965-1.758v3.516Zm0 0"/><g clip-path="url(#i)"><path fill="none" stroke="#000" stroke-miterlimit="10" stroke-width=".39769128000000004" d="m236.617 212.75-2.965-1.758v3.516Zm0 0"/></g><g clip-path="url(#j)"><path fill="none" stroke="#000" stroke-miterlimit="10" stroke-width=".39769128000000004" d="M32.414 237.234v-53.043"/></g><path stroke="#000" stroke-miterlimit="10" stroke-width=".39769128000000004" d="m32.414 181.125-1.758 2.965h3.516Zm0 0"/><use xlink:href="#k" x="3.344" y="200.114"/><use xlink:href="#l" x="8.309" y="200.114"/><use xlink:href="#m" x="11.07" y="200.114"/><use xlink:href="#n" x="19.341" y="200.114"/><g clip-path="url(#o)"><path fill="none" stroke="#000" stroke-miterlimit="10" stroke-width=".39769128000000004" d="M32.414 212.75s.285-.344.39-.473c.11-.132.286-.343.391-.476.11-.13.282-.34.39-.473.11-.129.282-.34.392-.473.109-.128.28-.34.39-.468l.39-.473c.11-.129.282-.336.391-.469.11-.129.282-.336.391-.465.11-.128.281-.335.39-.46.11-.13.282-.336.391-.461l.39-.461c.11-.125.282-.328.392-.453.109-.125.28-.329.39-.45.11-.125.281-.324.39-.449.11-.125.282-.32.391-.441l.391-.442c.11-.12.281-.312.39-.433l.391-.43c.106-.117.282-.305.39-.422.106-.117.282-.305.392-.418.105-.117.28-.3.39-.414.106-.113.281-.293.39-.406.106-.11.282-.29.391-.399.106-.109.282-.285.387-.394.11-.11.285-.281.39-.387.11-.105.286-.277.391-.379.11-.105.286-.27.391-.375.11-.101.285-.261.39-.363l.391-.36.39-.347c.11-.098.286-.246.392-.34l.39-.336c.11-.09.281-.234.39-.324.11-.086.282-.227.391-.313l.391-.308c.11-.082.281-.215.39-.297.11-.078.282-.207.391-.285.11-.078.282-.203.39-.281.11-.075.282-.196.392-.266.109-.074.28-.188.39-.258.11-.07.281-.183.39-.25l.391-.238.391-.227c.11-.062.281-.16.39-.218.11-.06.282-.149.391-.208l.39-.195c.106-.05.282-.133.392-.183.105-.051.28-.125.39-.172.106-.047.281-.121.39-.164.106-.043.282-.11.391-.153.106-.039.282-.101.391-.136.106-.04.281-.094.39-.13.106-.034.282-.085.387-.117.11-.03.286-.078.391-.105.11-.027.285-.07.39-.094.11-.023.286-.058.391-.082.11-.02.285-.05.39-.07l.392-.059c.109-.011.285-.035.39-.043a14.483 14.483 0 0 1 .781-.058l.391-.012c.11 0 .281 0 .39.004.11 0 .282.008.391.012l.39.027c.11.008.282.023.392.035.109.012.28.035.39.051l.39.059.391.074c.11.023.282.058.391.086.11.023.281.066.39.093.11.032.282.079.391.11.11.031.282.086.39.12.11.036.282.095.392.13.109.039.28.101.39.144.106.04.281.11.39.153.106.047.282.117.391.168.106.047.282.125.391.175.105.051.281.133.39.188.106.05.282.14.391.195.106.059.282.153.39.211.106.059.282.156.388.219.109.062.285.164.39.23.11.067.285.172.39.243.11.066.286.18.391.25.11.07.286.187.391.261.11.075.285.192.39.27.11.078.286.203.391.281a26.178 26.178 0 0 1 .781.59c.11.082.282.219.391.309a27.751 27.751 0 0 1 .781.644 30.77 30.77 0 0 1 .781.676l.391.351c.11.098.282.258.391.36.11.101.281.265.39.367.11.102.282.27.391.375.11.105.281.273.39.383.11.105.282.277.391.387.11.109.282.285.391.394l.39.402c.11.114.282.293.391.41.106.114.282.297.391.41.105.118.281.305.39.423.106.117.282.304.391.425l.39.43c.106.121.282.313.391.434.106.12.282.316.391.441.106.121.281.32.387.445.11.121.285.32.39.446.11.125.286.328.391.453.11.125.285.328.39.457.11.125.286.328.391.457.11.129.285.332.391.46.11.13.285.337.39.466.11.129.286.336.391.464l.39.47.391.472c.11.129.282.34.391.469.11.132.281.343.39.472l.391.477c.11.129.282.34.391.473.11.132.281.343.39.472l.391.477c.11.129.281.34.39.472.11.133.282.344.391.473.11.133.282.344.391.473l.39.472c.11.13.282.34.391.47.11.128.282.335.391.468.11.129.281.336.39.465.106.129.282.332.391.46.106.13.281.333.39.462.106.128.282.332.391.457.106.125.282.328.391.453.106.125.281.324.39.449.106.125.282.324.391.45.106.12.282.316.387.44.11.122.285.317.39.438.11.121.286.313.391.43.11.12.285.312.39.43.11.117.286.304.392.421.109.118.285.301.39.418.11.114.285.297.39.41.11.114.286.293.391.407.11.11.282.289.391.398l.39.39c.11.11.282.282.391.387.11.106.282.274.39.375.11.106.282.27.392.372.109.101.28.265.39.363.11.101.281.258.39.355.11.098.282.254.391.348.11.098.282.246.391.34l.39.332.391.32c.11.09.282.227.39.313.11.086.282.222.392.304.109.082.28.215.39.293.11.082.281.211.39.285.106.079.282.204.391.278.106.074.282.195.391.265.106.075.281.188.39.258.106.067.282.176.391.246.106.067.282.168.39.235.106.062.282.164.392.222.105.063.28.157.386.215.11.059.285.149.39.203.11.059.286.141.392.196l.39.18c.11.05.285.124.39.171.11.047.286.117.391.16.11.043.286.11.391.149l.39.137c.11.035.282.093.391.125.11.035.282.082.39.113.11.031.282.074.392.101.109.028.28.067.39.094.11.024.281.055.39.078.11.02.282.047.391.067l.391.054c.11.012.281.032.39.043.11.012.282.024.391.032a13.067 13.067 0 0 0 .782.027c.109 0 .28-.004.39-.004l.39-.016c.11-.007.282-.02.391-.03a15.347 15.347 0 0 0 .781-.09c.106-.016.282-.048.391-.067.106-.02.282-.05.39-.074.106-.024.282-.063.392-.09.105-.024.28-.07.39-.098.106-.027.281-.078.39-.11.106-.034.282-.089.387-.124.11-.035.286-.094.391-.133l.39-.145c.11-.043.286-.113.391-.156.11-.047.286-.12.391-.168.11-.05.285-.129.39-.18.11-.05.286-.136.391-.19.11-.056.285-.145.39-.2.11-.059.282-.152.391-.215.11-.059.282-.156.391-.223.11-.062.281-.164.39-.23.11-.066.282-.176.391-.242.11-.07.282-.184.391-.254l.39-.266c.11-.074.282-.195.391-.273.11-.074.281-.203.39-.281.11-.079.282-.211.391-.293a26.171 26.171 0 0 0 .782-.614c.11-.086.281-.23.39-.32.11-.09.282-.234.391-.328.11-.09.281-.242.39-.336.106-.094.282-.246.391-.344.106-.097.281-.254.39-.355.106-.098.282-.258.391-.36.106-.101.282-.265.391-.37l.39-.376.391-.383c.106-.109.282-.28.391-.39.105-.11.281-.285.387-.399.11-.109.285-.289.39-.402.11-.113.285-.293.391-.41.11-.113.285-.297.39-.414.11-.117.286-.305.391-.422.11-.117.285-.309.39-.426.11-.12.286-.312.391-.433.11-.118.286-.313.391-.434.11-.121.281-.32.39-.441.11-.125.282-.32.391-.446l.391-.449c.11-.125.281-.328.39-.453.11-.125.282-.328.391-.457.11-.125.281-.332.39-.457l.391-.465c.11-.129.282-.336.391-.465.11-.129.281-.336.39-.465.11-.129.282-.34.391-.468l.391-.473c.11-.129.281-.34.39-.469l.391-.476c.11-.13.281-.34.39-.473.106-.133.282-.344.391-.473.106-.133.282-.343.391-.476l.39-.473c.106-.133.282-.344.391-.473.106-.132.282-.343.391-.472.105-.133.281-.344.39-.473.106-.133.282-.34.391-.473.106-.128.281-.336.387-.468.11-.13.285-.336.39-.465.11-.13.286-.336.391-.465.11-.129.285-.336.39-.465.11-.125.286-.332.391-.457.11-.129.286-.332.391-.457.11-.125.285-.328.39-.453.11-.125.286-.324.391-.45.11-.124.282-.32.39-.445.11-.12.282-.32.392-.441.109-.121.28-.316.39-.434.11-.12.281-.312.39-.433.11-.117.282-.309.391-.426.11-.117.282-.305.391-.422.11-.113.281-.3.39-.414.11-.113.282-.297.391-.41.11-.113.282-.293.39-.402.11-.114.282-.29.392-.399l.39-.39c.11-.106.281-.278.39-.383.11-.106.282-.274.391-.375a34.17 34.17 0 0 1 .782-.73c.105-.102.28-.259.39-.356l.39-.344c.106-.094.282-.246.392-.336.105-.094.28-.238.39-.328.106-.09.281-.234.39-.32.106-.09.282-.227.391-.313l.387-.3c.11-.083.285-.212.39-.294.11-.078.286-.207.391-.28.11-.079.286-.2.391-.274.11-.074.285-.192.39-.266l.391-.25.39-.246c.11-.066.282-.168.392-.23.109-.063.28-.165.39-.223.11-.063.281-.156.39-.211.11-.059.282-.148.391-.203.11-.055.282-.137.391-.192.11-.05.281-.128.39-.175.11-.051.282-.125.391-.168.11-.047.282-.118.39-.16.11-.04.282-.106.392-.145a15.344 15.344 0 0 1 .78-.254c.11-.035.282-.082.391-.113.11-.028.282-.074.391-.098.11-.027.281-.066.39-.09.11-.023.282-.054.391-.074.106-.02.282-.047.39-.066.106-.016.282-.04.392-.051.105-.012.28-.031.39-.04.106-.01.281-.023.39-.027.106-.007.282-.015.391-.019.106 0 .282-.004.391-.004a13.295 13.295 0 0 1 .777.027c.11.008.286.02.391.032.11.011.285.03.39.043l.391.054c.11.02.285.047.39.067.11.023.286.058.392.082a14.364 14.364 0 0 1 .781.191l.39.113.391.125c.11.04.281.098.39.137a15.942 15.942 0 0 1 1.173.48c.109.047.28.13.39.18.11.055.281.14.39.196a18.645 18.645 0 0 1 .782.418c.11.058.281.16.39.222.11.067.282.168.391.239.11.066.282.175.39.242.11.07.282.183.392.258.105.074.28.19.39.265.106.074.281.2.39.277.106.079.282.204.391.286.106.078.282.21.391.293l.39.304.391.313c.106.09.282.23.39.32.106.094.282.238.388.332a34.864 34.864 0 0 1 .78.688c.11.097.286.254.391.355.11.098.286.262.391.363.11.102.285.266.39.371.11.102.286.27.391.375l.391.387.39.39c.11.11.282.29.391.4.11.113.281.292.39.406.11.113.282.296.391.41.11.117.282.3.391.418.11.117.281.304.39.422.11.117.282.308.391.43.11.116.282.312.391.429.11.121.281.316.39.437.11.125.282.32.391.446.11.12.281.32.39.445.11.125.282.324.391.45.11.124.282.327.391.452.11.13.281.332.39.457.106.13.282.332.391.461.106.13.282.332.391.461.105.13.281.336.39.469.106.129.282.336.391.465.106.133.281.34.39.469.106.132.282.34.391.472.106.13.282.34.391.473.106.129.281.34.387.473.11.132.285.343.39.472.11.133.286.344.391.477.11.129.285.34.39.472.11.133.286.344.391.473.11.133.285.344.391.477.11.129.285.34.39.472.11.13.282.34.391.47l.39.472c.11.129.282.34.391.468l.391.465.39.465.391.461.391.461c.11.125.281.328.39.453.11.125.282.328.391.453.11.125.281.325.39.45.11.12.282.32.391.44.11.126.282.321.391.442l.39.434c.11.121.282.312.391.43.11.12.282.308.391.425.105.118.281.305.39.422.106.114.282.297.391.414.106.114.281.293.39.407.106.113.282.293.391.402.106.11.282.285.391.394.106.11.281.282.39.391.106.106.282.274.387.379l.391.375c.11.102.285.266.39.367l.391.36c.11.097.285.253.39.351.11.098.286.25.392.344.109.094.285.242.39.336.11.09.285.234.39.324.11.09.282.23.391.316.11.09.282.227.391.309a26.171 26.171 0 0 0 .781.59c.11.082.282.207.39.281.11.078.282.2.392.27.109.074.28.191.39.261.11.07.281.184.39.25a21.21 21.21 0 0 0 1.173.692c.11.058.28.152.39.21.11.055.282.145.39.196.11.055.282.14.392.188.109.05.28.128.39.18.106.046.281.12.39.163.106.043.282.114.391.153.106.043.282.105.391.144l.39.13c.106.034.282.089.391.12.106.031.282.078.39.11.106.027.282.07.392.093.105.028.28.063.386.086.11.024.285.055.39.074l.392.059c.109.016.285.04.39.05.11.013.285.028.39.036.11.012.286.023.391.027.11.004.286.012.391.012.11.004.281.004.39.004l.391-.012c.11-.004.282-.015.39-.023.11-.008.282-.024.392-.031.109-.012.28-.036.39-.047l.39-.059.391-.07c.11-.02.282-.059.391-.082.11-.024.281-.067.39-.094a14.471 14.471 0 0 0 1.173-.352c.109-.035.28-.097.39-.136l.39-.153c.11-.043.282-.117.391-.164.106-.047.282-.12.391-.172l.39-.183c.106-.055.282-.14.391-.196.106-.058.282-.148.39-.207l.392-.218c.105-.063.28-.16.39-.227l.387-.238c.11-.067.285-.18.39-.25.11-.07.286-.184.391-.258.11-.07.285-.191.39-.266.11-.078.286-.199.391-.28.11-.079.286-.204.391-.286.11-.082.285-.215.39-.297.11-.086.286-.223.391-.308.11-.086.281-.227.39-.313l.391-.324.391-.336c.11-.09.281-.242.39-.34.11-.094.282-.25.391-.348.11-.097.282-.257.391-.359.11-.098.281-.262.39-.363.11-.102.282-.27.391-.375.11-.102.281-.274.39-.38.11-.105.282-.277.392-.386.109-.11.28-.281.39-.394.11-.11.281-.286.39-.399l.391-.406c.11-.113.282-.297.391-.414.11-.113.281-.3.39-.418.106-.117.282-.305.391-.422.106-.121.282-.309.39-.43.106-.12.282-.312.392-.433.105-.121.28-.317.39-.442.106-.12.281-.316.39-.441.106-.125.282-.324.391-.445.106-.125.282-.329.387-.454.11-.125.285-.328.39-.453.11-.129.286-.332.391-.457l.391-.46c.11-.13.285-.337.39-.465.11-.13.286-.336.391-.465.11-.13.285-.34.39-.47.11-.128.286-.339.391-.468.11-.133.282-.344.391-.472l.39-.473c.11-.133.282-.344.391-.473l.391-.476c.11-.13.39-.473.39-.473"/></g><use xlink:href="#p" x="229.916" y="222.366"/><use xlink:href="#c" x="35.924" y="191.023"/><use xlink:href="#d" x="42.703" y="192.512"/></svg>