<svg xmlns="http://www.w3.org/2000/svg" xmlns:xlink="http://www.w3.org/1999/xlink" width="130.971" height="106.106"><defs><clipPath id="a"><path d="M121 18h9.41v15H121Zm0 0"/></clipPath><clipPath id="b"><path d="M25.504.195h104.71V28.31H25.505Zm0 0"/></clipPath><clipPath id="f"><path d="M121 56h9.41v16H121Zm0 0"/></clipPath><clipPath id="g"><path d="M25.504 38.555h104.71v28.11H25.505Zm0 0"/></clipPath><clipPath id="j"><path d="M121 83h9.41v16H121Zm0 0"/></clipPath><clipPath id="k"><path d="M25 80h1v25.219h-1Zm0 0"/></clipPath><clipPath id="l"><path d="M25.504 76.91h104.71v28.113H25.505Zm0 0"/></clipPath><path id="c" d="M2.031-3.953h.938c.187 0 .297 0 .297-.188 0-.109-.11-.109-.282-.109H2.11c.36-1.406.407-1.61.407-1.672 0-.156-.11-.266-.282-.266-.03 0-.312.016-.39.36l-.39 1.578H.515c-.188 0-.282 0-.282.188 0 .109.078.109.266.109h.875C.656-1.141.625-.984.625-.797c0 .531.375.906.906.906 1 0 1.563-1.437 1.563-1.515 0-.11-.078-.11-.11-.11-.093 0-.093.032-.156.141C2.406-.344 1.891-.109 1.547-.109c-.203 0-.297-.125-.297-.453 0-.235.016-.313.047-.47Zm0 0"/><path id="d" d="M3.688-5.984c.093-.36.124-.453.906-.453.234 0 .312 0 .312-.188 0-.125-.11-.125-.14-.125-.297 0-1.016.031-1.313.031-.297 0-1.015-.031-1.312-.031-.063 0-.188 0-.188.203 0 .11.078.11.266.11.422 0 .687 0 .687.187 0 .047 0 .063-.015.156L1.547-.766c-.078.36-.11.454-.89.454-.235 0-.329 0-.329.203C.328 0 .453 0 .484 0c.282 0 1-.031 1.297-.031.297 0 1.016.031 1.313.031.094 0 .203 0 .203-.187 0-.125-.078-.125-.297-.125-.172 0-.219 0-.422-.016-.203-.016-.25-.063-.25-.172a.5.5 0 0 1 .047-.219Zm0 0"/><path id="h" d="M6.266-5.703c.109-.406.28-.703 1.078-.734.047 0 .156-.016.156-.204 0 0 0-.109-.125-.109-.328 0-.672.031-1 .031-.344 0-.703-.031-1.031-.031-.063 0-.172 0-.172.203 0 .11.094.11.172.11.562.015.672.218.672.437a.914.914 0 0 1-.032.203l-.89 3.531C4.766-.953 3.625-.094 2.64-.094c-.672 0-1.203-.422-1.203-1.281 0-.016 0-.328.109-.766L2.5-5.984c.094-.36.11-.453.828-.453.25 0 .328 0 .328-.204 0-.109-.094-.109-.125-.109-.281 0-1 .031-1.265.031-.297 0-.985-.031-1.282-.031-.078 0-.187 0-.187.203 0 .11.094.11.281.11.016 0 .203 0 .375.015.172.016.266.031.266.156 0 .063-.11.485-.172.704l-.219.875C1.25-4.312.766-2.437.734-2.25c-.078.281-.078.422-.078.578 0 1.203.907 1.89 1.938 1.89 1.25 0 2.469-1.124 2.797-2.421Zm0 0"/><path id="e" d="M5.156-4.687c0-.11 0-.172-.11-.172-.015 0-.062 0-.109.078l-.375.531a1.954 1.954 0 0 0-1.421-.61C1.688-4.86.484-3.75.484-2.374.484-.969 1.704.141 3.141.141c1.218 0 2.015-.922 2.015-1.766 0-.078-.015-.125-.125-.125-.047 0-.11 0-.11.094-.062 1.11-1 1.547-1.687 1.547-.75 0-2.015-.453-2.015-2.25 0-1.875 1.344-2.25 2-2.25.687 0 1.5.453 1.687 1.64.016.078.078.078.125.078.125 0 .125-.03.125-.171Zm0 0"/><path id="i" d="M5.031-1.828h-.234C4.625-.781 4.469-.25 3.187-.25H2.095c-.328 0-.328-.047-.328-.266v-1.796h.687c.703 0 .813.203.813.796H3.5v-1.859h-.234c0 .594-.11.813-.813.813h-.687v-1.626c0-.203 0-.265.328-.265h1.031c1.14 0 1.344.375 1.469 1.344h.234L4.61-4.703H.391v.25h.156c.547 0 .547.078.547.312v3.579c0 .234 0 .312-.547.312H.39V0h4.343Zm0 0"/><path id="m" d="M3.11-4.781c-.047-.11-.063-.157-.188-.157-.14 0-.156.047-.203.157L1.125-.734C1.047-.547.938-.25.313-.25V0c.234-.016.484-.031.718-.031.266 0 .782.031.828.031v-.25c-.312 0-.5-.14-.5-.328 0-.063 0-.078.032-.14l.328-.86h1.969l.406 1.016a.294.294 0 0 1 .031.125c0 .187-.375.187-.562.187V0c.343-.016.796-.031 1.03-.031.329 0 .845.031.923.031v-.25h-.141c-.453 0-.516-.062-.578-.266Zm-.407.718.89 2.235H1.829Zm0 0"/></defs><path fill="none" stroke="#000" stroke-miterlimit="10" stroke-width=".39566436" d="M25.504 25.496H126.77"/><path d="m129.816 25.496-2.949-1.75v3.5Zm0 0"/><g clip-path="url(#a)"><path fill="none" stroke="#000" stroke-miterlimit="10" stroke-width=".39566436" d="m129.816 25.496-2.949-1.75v3.5Zm0 0"/></g><path fill="none" stroke="#000" stroke-miterlimit="10" stroke-width=".39566436" d="M25.504 28.309V3.64"/><path stroke="#000" stroke-miterlimit="10" stroke-width=".39566436" d="m25.504.59-1.746 2.95h3.496Zm0 0"/><g clip-path="url(#b)"><path fill="none" stroke="#000" stroke-miterlimit="10" stroke-width=".39566436" d="M25.504 12.004s.144-.207.203-.285c.055-.078.14-.203.2-.282l.198-.285.2-.28c.054-.079.144-.204.199-.282l.2-.281c.058-.079.144-.2.198-.278.059-.078.145-.203.203-.277.055-.078.145-.203.2-.277.054-.079.144-.2.199-.278l.2-.273.198-.27.2-.27c.058-.074.144-.195.203-.265.054-.074.144-.191.199-.266.055-.074.144-.19.2-.261.054-.074.144-.188.198-.258.055-.074.145-.188.2-.258l.199-.254c.058-.07.144-.18.203-.25.055-.066.144-.176.2-.246l.198-.242.2-.238c.054-.067.144-.172.199-.235.054-.066.144-.168.199-.23.059-.067.145-.164.203-.227.055-.062.14-.164.2-.222.054-.063.144-.16.199-.22L31.3 4.5c.054-.059.144-.148.199-.207.055-.059.145-.148.2-.203l.198-.2c.059-.054.145-.14.204-.195l.199-.187.199-.184c.055-.047.145-.129.2-.176l.198-.171.2-.168c.058-.043.144-.114.203-.16.054-.044.144-.11.199-.153.055-.043.145-.11.2-.148.054-.04.144-.102.198-.141.055-.039.145-.102.2-.137.054-.039.144-.093.199-.129.058-.035.144-.09.203-.125.055-.03.145-.086.2-.117.054-.031.144-.078.198-.11.055-.03.145-.073.2-.1a2.34 2.34 0 0 1 .199-.098c.055-.028.144-.067.2-.09.058-.028.144-.063.202-.086.055-.02.14-.055.2-.074a2.02 2.02 0 0 1 .199-.07 3.9 3.9 0 0 1 .199-.063l.2-.059.198-.047c.059-.011.145-.03.2-.043.058-.007.144-.023.203-.035l.199-.027c.055-.004.144-.016.2-.02.054-.004.144-.011.198-.011.055-.004.145-.008.2-.008h.199c.058.004.144.008.203.008l.2.015c.054.008.144.016.198.024l.2.027c.054.012.144.027.199.04.054.01.144.03.199.042.059.012.145.035.203.05.055.016.145.04.2.06.054.015.144.042.199.062l.199.07c.054.024.144.059.199.078l.2.086c.058.024.144.067.202.094.055.023.14.07.2.098.054.027.144.074.199.105.054.031.144.078.199.113.055.032.145.082.2.118l.198.125c.059.035.145.093.2.129.058.039.144.101.203.14.054.04.144.102.199.14.055.044.145.11.2.153.054.043.144.11.198.156.055.043.145.114.2.16l.199.169c.058.046.144.125.203.171.055.051.145.13.2.18l.198.184c.055.05.145.136.2.191a9.03 9.03 0 0 1 .398.395c.059.054.145.144.203.203l.2.21c.054.06.144.153.199.216.054.058.144.156.199.218.055.059.144.16.2.223l.198.226.203.235c.055.062.145.168.2.234.054.067.144.172.199.242.055.067.144.172.2.243.054.066.144.175.198.246l.2.25c.058.07.144.183.199.254.058.07.144.187.203.257.055.07.144.188.2.262.054.07.144.188.198.262.055.07.145.191.2.265.054.075.144.192.199.266l.199.27c.059.074.144.195.203.273.055.074.145.195.2.274l.199.273c.054.078.144.203.199.277l.199.282c.055.074.144.199.2.277.058.078.144.203.202.281l.2.281c.054.079.144.204.199.282l.199.285.2.281.198.285c.059.078.145.203.204.281.054.079.14.207.199.286.054.078.144.203.199.28l.2.282.198.281.2.282c.058.078.144.203.199.277.058.078.144.203.203.277.055.078.144.203.2.278.054.078.144.199.198.273.055.078.145.2.2.274.054.078.144.195.199.273l.199.266c.059.074.145.195.203.27l.2.26c.054.075.144.192.199.263l.199.257.199.258.2.25c.058.07.144.18.202.25.055.067.145.176.2.246.054.067.144.172.199.242.055.067.144.172.199.235.055.066.145.172.2.234.054.067.144.168.198.23.06.063.145.165.204.227.054.063.14.16.199.223l.199.215c.055.058.145.156.2.21.054.06.144.153.198.212l.2.199.199.2c.059.054.144.14.203.19.055.055.145.137.2.188.054.05.144.133.198.18.055.05.145.129.2.175.054.051.144.125.199.172.055.047.144.121.2.164.058.047.144.118.202.16l.2.153c.054.043.144.105.199.144.054.043.144.106.199.141.055.04.144.102.2.137l.198.129c.059.03.145.086.203.12l.2.114c.054.031.144.082.199.11.055.027.144.074.2.101.054.027.144.07.198.094.055.027.145.066.2.09.058.023.144.062.203.082.054.023.14.054.199.074l.2.07.198.059c.055.015.145.043.2.054.054.016.144.036.199.047.058.012.144.032.199.04a3.681 3.681 0 0 0 .402.058c.055.008.145.016.2.02.054.003.144.011.199.011.054.004.144.004.199.004h.2l.202-.012.2-.015c.054-.008.144-.016.199-.024.054-.008.144-.023.199-.03.055-.013.145-.028.2-.04.054-.012.144-.031.198-.047.059-.012.145-.035.204-.05l.199-.06c.054-.019.144-.046.199-.066l.2-.074c.054-.02.144-.058.198-.078.055-.023.145-.063.2-.09.058-.023.144-.066.203-.094.054-.027.14-.07.199-.097.055-.032.145-.078.2-.11.054-.03.144-.078.198-.113.055-.031.145-.086.2-.117l.199-.129c.058-.035.144-.094.2-.133.058-.035.144-.097.202-.137.055-.039.145-.105.2-.148.054-.039.144-.105.199-.148.054-.043.144-.114.199-.16l.2-.16c.054-.048.144-.122.198-.173.059-.046.145-.125.203-.171.055-.051.145-.13.2-.18.054-.05.144-.133.199-.188a9.03 9.03 0 0 0 .2-.191 9.3 9.3 0 0 0 .198-.195l.2-.2.203-.207.199-.21c.055-.06.144-.157.2-.215.054-.063.144-.16.198-.223.055-.063.145-.16.2-.223.054-.062.144-.164.199-.23.058-.063.144-.168.203-.23l.2-.239.198-.242.2-.242c.054-.07.144-.18.199-.25.054-.07.144-.18.199-.25.059-.07.145-.184.2-.254.058-.074.144-.188.202-.258.055-.074.145-.188.2-.262.054-.074.144-.191.199-.261.054-.075.144-.192.199-.266l.2-.27.198-.27c.059-.077.145-.198.204-.273l.199-.273c.054-.078.144-.2.199-.277.055-.079.145-.2.2-.278.054-.078.144-.199.198-.277l.2-.281c.058-.078.144-.203.203-.282.054-.078.144-.203.199-.28l.2-.282.198-.285.2-.281.199-.286c.058-.078.144-.203.203-.28l.2-.282c.054-.082.144-.207.198-.285l.2-.282c.054-.078.144-.203.199-.28.055-.079.144-.204.2-.278.058-.078.144-.203.198-.281.059-.079.145-.2.203-.278.055-.078.145-.199.2-.277.054-.074.144-.195.199-.274l.2-.269c.054-.078.144-.2.198-.273.055-.075.145-.192.2-.266.058-.074.144-.195.203-.266.054-.074.144-.191.199-.265.055-.07.144-.188.2-.258.054-.074.144-.188.198-.258.055-.074.145-.187.2-.258.054-.066.144-.18.199-.25.058-.07.144-.18.203-.246.055-.07.144-.18.2-.246l.198-.242c.055-.067.145-.172.2-.235.054-.066.144-.171.199-.234.054-.062.144-.164.199-.23.059-.063.144-.16.203-.223.055-.063.145-.16.2-.219.054-.062.144-.156.199-.219l.199-.21.199-.204c.055-.058.144-.148.2-.203.058-.054.144-.14.198-.195.059-.055.145-.14.204-.191l.199-.184.199-.184.2-.172c.054-.046.144-.125.198-.167.055-.047.145-.122.2-.165.058-.046.144-.117.203-.156.054-.043.144-.113.199-.152.055-.043.144-.106.2-.145l.198-.14a5.88 5.88 0 0 1 .2-.133c.054-.035.144-.094.199-.125.058-.035.144-.09.203-.121l.2-.113c.054-.032.144-.079.198-.106.055-.031.145-.074.2-.102.054-.027.144-.07.199-.093l.199-.086.203-.082c.055-.02.145-.055.2-.074.054-.016.144-.047.199-.063a3.899 3.899 0 0 1 .398-.113l.2-.047c.058-.012.144-.027.198-.035.06-.012.145-.024.204-.032l.199-.027c.055-.004.144-.012.199-.015.055-.004.145-.008.2-.008.054-.004.144-.004.198-.004.055 0 .145.004.2.004l.203.011c.055.004.144.012.199.02.055.004.145.016.2.023.054.012.144.024.198.036.055.007.145.027.2.039.054.011.144.035.199.046l.203.055a3.9 3.9 0 0 1 .2.063c.054.015.144.047.198.066.055.02.145.055.2.074.054.024.144.059.199.082.055.024.144.063.2.09.058.024.144.067.202.094l.2.101c.054.032.144.079.199.11.054.031.144.082.199.117.055.031.144.086.2.121l.198.125c.059.04.145.098.2.137.058.039.144.101.203.14l.199.145.2.152c.054.043.144.118.198.16.055.047.145.118.2.165.054.046.144.12.199.171.058.047.144.125.203.176.055.051.144.13.2.18l.198.187c.055.055.145.141.2.192l.199.2c.054.054.144.144.199.202.059.055.145.149.203.207l.2.211c.054.059.144.156.199.219.054.058.144.156.199.219l.199.226c.055.063.145.164.2.23.058.063.144.169.202.235l.2.238c.054.067.144.172.199.243l.199.242.2.25c.054.07.144.183.198.254.059.07.145.183.2.254.058.07.144.187.203.257.054.075.144.188.199.262.055.074.145.191.2.266.054.07.144.191.198.265.055.075.145.192.2.27l.199.27c.058.074.144.195.203.273l.2.273c.054.078.144.2.198.278.055.078.145.199.2.277.054.078.144.203.199.277l.2.282c.058.078.144.203.202.28l.2.282.199.285c.054.078.144.203.199.281l.2.282c.054.082.144.207.198.285.059.078.145.203.203.281.055.082.145.207.2.285.054.078.144.203.199.281l.2.282.198.281.2.281c.058.074.144.2.199.278.058.078.144.199.203.277.055.074.144.2.2.273.054.078.144.2.198.274.055.078.145.199.2.273l.199.27.199.27c.059.074.145.19.203.261.055.074.145.191.2.266l.199.257c.054.075.144.188.199.258l.199.254.2.25c.058.07.144.18.202.246.055.07.145.18.2.246.054.067.144.172.199.239l.199.238.2.23.198.227c.059.062.145.164.204.223.054.062.144.16.199.222.054.059.144.153.199.211.055.063.145.153.2.211.054.059.144.149.198.207l.2.2c.058.054.144.14.199.195.058.05.144.136.203.187l.2.184c.054.05.144.133.198.18.055.05.145.124.2.171.054.051.144.125.199.168.055.047.144.118.2.164.058.043.144.114.202.157.055.039.145.105.2.148l.199.145c.054.039.144.097.199.136l.2.13c.054.038.144.093.198.124.059.035.145.09.203.121.055.032.145.082.2.11.054.031.144.078.199.105.055.031.144.074.2.102.054.023.144.066.198.09l.2.086c.058.023.144.058.203.078l.199.07c.055.02.144.047.2.066.054.016.144.043.198.055.055.016.145.04.2.05.054.016.144.036.199.044l.203.039a25.37 25.37 0 0 0 .398.05l.2.016c.054.004.144.008.199.008h.199c.055 0 .144-.004.2-.004.058-.004.144-.012.202-.015.055-.004.145-.012.2-.02l.199-.027c.054-.008.144-.024.199-.035.055-.012.144-.028.2-.043.054-.012.144-.032.198-.047l.204-.055c.054-.02.144-.047.199-.066.054-.016.144-.047.199-.067.055-.023.144-.055.2-.078l.198-.082c.055-.027.145-.066.2-.09.058-.027.144-.07.203-.097.054-.028.144-.075.199-.106.055-.027.144-.078.2-.11.054-.03.144-.081.198-.117a5.43 5.43 0 0 0 .399-.253c.058-.036.144-.098.203-.133a23.28 23.28 0 0 0 .598-.446l.199-.16c.055-.047.144-.12.199-.168.055-.047.145-.12.2-.172.058-.046.144-.125.202-.175l.2-.184c.054-.05.144-.137.199-.187l.199-.196.2-.195c.054-.059.144-.148.198-.207.06-.055.145-.149.204-.207.054-.059.144-.152.199-.215l.199-.215.2-.222.198-.227c.055-.066.145-.168.2-.234.058-.063.144-.168.203-.235l.199-.238.2-.242c.054-.067.144-.176.198-.246l.2-.25.199-.254c.059-.07.144-.184.203-.254.055-.074.14-.188.2-.262.054-.07.144-.187.198-.262.055-.07.145-.187.2-.261.054-.075.144-.196.199-.27.055-.074.144-.191.2-.27l.198-.269c.059-.074.145-.2.203-.273l.2-.278.199-.273.2-.281c.054-.075.144-.2.198-.278l.2-.28c.058-.08.144-.204.203-.282.054-.078.144-.203.199-.281l.2-.282c.054-.082.144-.207.198-.285l.2-.281"/></g><use xlink:href="#c" x="123.154" y="35.064"/><use xlink:href="#d" x="11.538" y="10.439"/><use xlink:href="#e" x="15.881" y="11.921"/><path fill="none" stroke="#000" stroke-miterlimit="10" stroke-width=".39566436" d="M25.504 63.855H126.77"/><path d="m129.816 63.855-2.949-1.75v3.497Zm0 0"/><g clip-path="url(#f)"><path fill="none" stroke="#000" stroke-miterlimit="10" stroke-width=".39566436" d="m129.816 63.855-2.949-1.75v3.497Zm0 0"/></g><path fill="none" stroke="#000" stroke-miterlimit="10" stroke-width=".39566436" d="M25.504 66.664V41.996"/><path stroke="#000" stroke-miterlimit="10" stroke-width=".39566436" d="m25.504 38.95-1.746 2.948h3.496Zm0 0"/><g clip-path="url(#g)"><path fill="none" stroke="#000" stroke-miterlimit="10" stroke-width=".39566436" d="M25.504 50.36s.144.206.203.285c.055.078.14.203.2.28.054.079.144.204.198.282.055.082.145.207.2.285.054.078.144.203.199.281l.2.282c.058.074.144.199.198.277.059.078.145.203.203.277l.2.278c.054.078.144.199.199.277l.2.27c.054.078.144.199.198.273l.2.27c.058.074.144.191.203.265.054.074.144.192.199.266.055.074.144.187.2.262.054.074.144.187.198.257.055.075.145.188.2.258l.199.254c.058.07.144.18.203.25.055.066.144.176.2.246l.198.242.2.239c.054.066.144.171.199.234.054.066.144.168.199.23.059.063.145.165.203.227.055.063.14.164.2.223.054.062.144.16.199.218l.199.215c.054.059.144.149.199.207.055.059.145.149.2.203.058.055.144.145.198.2.059.054.145.14.204.195.054.05.144.137.199.187l.199.184c.055.047.145.129.2.176l.198.172c.055.047.145.12.2.164.058.047.144.117.203.16.054.047.144.113.199.156.055.043.145.11.2.149l.198.14c.055.04.145.102.2.137l.199.129c.058.035.144.09.203.125.055.031.145.086.2.117.054.031.144.078.198.11l.2.101c.054.027.144.074.199.098.055.027.144.066.2.09.058.023.144.062.202.085.055.02.14.055.2.075l.199.07a3.9 3.9 0 0 0 .199.062c.055.016.144.043.2.055.054.016.144.04.198.05l.2.044.203.031c.054.012.144.024.199.031.055.004.144.016.2.02l.198.012c.055.004.145.007.2.007h.199a3.53 3.53 0 0 1 .203-.007l.2-.016c.054-.008.144-.016.198-.023.055-.008.145-.02.2-.032.054-.007.144-.023.199-.035l.199-.043c.059-.012.145-.035.203-.05.055-.016.145-.04.2-.06a3.9 3.9 0 0 0 .199-.062c.054-.02.144-.05.199-.074.054-.02.144-.055.199-.078.055-.02.145-.059.2-.082l.202-.094c.055-.027.14-.07.2-.097.054-.028.144-.075.199-.106l.199-.113c.055-.031.145-.082.2-.117.054-.036.144-.09.198-.125.059-.036.145-.094.2-.133.058-.035.144-.098.203-.137.054-.039.144-.101.199-.144.055-.04.145-.106.2-.149.054-.043.144-.11.198-.156.055-.043.145-.113.2-.16.054-.047.144-.121.199-.168.058-.047.144-.125.203-.172.055-.05.145-.129.2-.18l.198-.183c.055-.051.145-.137.2-.192.054-.05.144-.14.199-.195.055-.055.144-.14.2-.2.058-.054.144-.148.202-.202.055-.06.145-.153.2-.211.054-.059.144-.153.199-.215l.199-.219c.055-.063.144-.16.2-.223l.198-.226.203-.235c.055-.062.145-.168.2-.234l.199-.242c.055-.067.144-.176.2-.242l.198-.246c.055-.07.145-.184.2-.25.058-.07.144-.184.199-.254.058-.075.144-.188.203-.258.055-.074.144-.188.2-.262.054-.07.144-.187.198-.262l.2-.265c.054-.074.144-.192.199-.266l.199-.27c.059-.078.144-.199.203-.273l.2-.273c.054-.078.144-.2.199-.278l.199-.277.199-.277.2-.278c.058-.078.144-.203.202-.28l.2-.282.199-.285.199-.282.2-.28c.054-.083.144-.208.198-.286.059-.078.145-.203.204-.281.054-.078.14-.207.199-.285l.199-.282.2-.28c.054-.079.144-.204.198-.282l.2-.281c.058-.078.144-.203.199-.278.058-.078.144-.203.203-.28.055-.075.144-.2.2-.274.054-.079.144-.2.198-.278l.2-.27c.054-.077.144-.198.199-.273l.199-.27c.059-.073.145-.19.203-.265.055-.074.145-.191.2-.262.054-.074.144-.191.199-.261.054-.075.144-.188.199-.258.055-.074.144-.188.199-.258l.2-.25c.058-.07.144-.18.202-.25.055-.07.145-.176.2-.246l.199-.242.199-.238c.055-.063.145-.168.2-.235l.198-.226c.06-.067.145-.164.204-.227.054-.062.14-.16.199-.223l.199-.214c.055-.063.145-.157.2-.215.054-.059.144-.149.198-.207.055-.055.145-.145.2-.203.058-.055.144-.141.199-.196.059-.054.144-.14.203-.191.055-.055.145-.137.2-.188l.198-.183c.055-.047.145-.125.2-.176.054-.047.144-.121.199-.168.055-.047.144-.121.2-.164.058-.047.144-.117.202-.16l.2-.153c.054-.043.144-.105.199-.148.054-.04.144-.102.199-.14.055-.036.144-.098.2-.133l.198-.13.203-.12.2-.114c.054-.031.144-.082.199-.11.055-.03.144-.073.2-.1.054-.028.144-.071.198-.098l.2-.086c.058-.024.144-.063.203-.082a3 3 0 0 1 .199-.075l.2-.07.198-.058a1.89 1.89 0 0 1 .2-.055c.054-.016.144-.035.199-.047l.199-.043.203-.031.2-.028c.054-.003.144-.011.199-.015.054-.004.144-.012.199-.012.054-.004.144-.004.199-.004.055-.004.145 0 .2 0l.202.012.2.016c.054.007.144.015.199.023l.199.031.2.04c.054.011.144.03.198.046.059.012.145.035.204.05l.199.06c.054.02.144.046.199.066.055.02.145.05.2.074a4.198 4.198 0 0 1 .398.168c.058.024.144.067.203.09.054.027.14.074.199.102l.2.109c.054.027.144.078.198.113.055.031.145.086.2.117.054.036.144.09.199.13.058.034.144.093.2.132.058.035.144.098.202.137l.2.144c.054.043.144.11.199.153l.199.156c.055.047.144.117.2.164l.198.168.203.176c.055.05.145.129.2.18.054.05.144.132.199.187.055.05.144.137.2.191.054.051.144.141.198.196l.2.199.203.207.199.21c.055.06.144.157.2.216l.198.222c.055.059.145.16.2.223.054.062.144.164.199.23.058.063.144.168.203.23l.2.24c.054.066.144.171.198.241l.2.243c.054.07.144.18.199.25.054.066.144.18.199.25.059.07.145.183.2.253.058.07.144.188.202.258.055.075.145.188.2.262l.199.262c.054.074.144.191.199.265l.2.27.198.27c.059.074.145.195.204.273.054.074.144.2.199.273.054.078.144.2.199.278.055.074.145.199.2.277l.198.277.2.282c.058.078.144.203.203.28.054.079.144.204.199.282l.2.281c.054.078.144.203.198.285l.2.282c.054.078.144.203.199.281.058.082.144.207.203.285l.2.281.198.286.2.28c.054.079.144.204.199.282.055.078.144.2.2.277.058.079.144.204.198.282.059.074.145.199.203.277.055.074.145.2.2.273.054.079.144.2.199.278l.2.27c.054.077.144.195.198.273l.2.265c.058.075.144.192.203.266.054.074.144.191.199.266.055.07.144.187.2.257.054.075.144.188.198.258l.2.254.199.254c.058.066.144.18.203.246.055.07.144.18.2.246.054.067.144.172.198.239l.2.238c.054.066.144.168.199.234l.199.227c.059.062.144.164.203.226.055.063.145.16.2.22.054.062.144.155.199.214.054.062.144.156.199.21.054.06.144.153.199.208.055.058.144.148.2.203.058.055.144.14.198.195l.204.192.199.183c.054.051.144.133.199.18.055.05.144.129.2.176.054.047.144.125.198.168.055.047.145.12.2.164.058.043.144.113.203.156.054.043.144.113.199.152.055.043.144.106.2.145l.198.14c.055.036.145.098.2.133.054.036.144.09.199.125.058.036.144.09.203.121l.2.114c.054.031.144.078.198.105.055.031.145.074.2.102.054.027.144.07.199.094l.199.085c.059.024.145.06.203.082l.2.07c.054.02.144.052.199.067.054.02.144.047.199.059l.199.054.2.043c.058.012.144.032.198.04.06.011.145.023.204.03.054.009.144.02.199.024a3.437 3.437 0 0 0 .398.028c.055.003.145.003.2.003l.199-.003.203-.012c.055-.004.144-.012.199-.02l.2-.027c.054-.008.144-.02.198-.031l.2-.04c.054-.011.144-.035.199-.046l.203-.055a3.9 3.9 0 0 0 .2-.062c.054-.016.144-.047.198-.067.055-.02.145-.055.2-.074l.199-.082c.055-.024.144-.063.2-.09.058-.023.144-.066.202-.094l.2-.101c.054-.031.144-.078.199-.11.054-.03.144-.082.199-.117.055-.031.144-.086.2-.12.054-.036.144-.09.198-.13.059-.035.145-.094.2-.133.058-.039.144-.101.203-.14l.199-.145.2-.156.198-.156c.055-.047.145-.117.2-.164l.199-.172c.058-.047.144-.125.203-.176l.2-.18c.054-.054.144-.136.198-.187l.2-.195c.054-.051.144-.141.199-.196.054-.054.144-.144.199-.203.059-.055.145-.148.203-.207l.2-.21c.054-.06.144-.157.199-.22.054-.058.144-.16.199-.218l.199-.227.2-.23.202-.235.2-.238c.054-.066.144-.172.199-.242.054-.067.144-.176.199-.246a13.6 13.6 0 0 0 .2-.246l.198-.254c.059-.07.145-.184.2-.254.058-.07.144-.188.203-.258.054-.074.144-.191.199-.262l.2-.265c.054-.075.144-.192.198-.266l.2-.27.199-.27c.058-.073.144-.194.203-.273l.2-.273c.054-.078.144-.2.198-.277l.2-.278c.054-.078.144-.203.199-.28l.2-.278c.058-.078.144-.203.202-.282l.2-.28.199-.286c.054-.078.144-.203.199-.281.055-.078.144-.207.2-.285.054-.078.144-.203.198-.282.059-.078.145-.207.203-.285l.2-.281c.054-.078.144-.203.199-.281l.2-.281c.054-.079.144-.204.198-.282l.2-.281c.058-.078.144-.2.199-.277.058-.078.144-.2.203-.278.055-.078.144-.199.2-.277.054-.074.144-.195.198-.273l.2-.27.199-.27.199-.269c.059-.074.145-.191.203-.266.055-.07.145-.187.2-.261l.199-.258c.054-.074.144-.188.199-.258l.199-.254c.055-.07.145-.184.2-.25.058-.07.144-.18.202-.25l.2-.242c.054-.067.144-.172.199-.238.054-.067.144-.172.199-.239l.2-.23.198-.227c.059-.062.145-.164.204-.226l.199-.219.199-.215c.055-.058.145-.152.2-.207.054-.058.144-.148.198-.207l.2-.2c.058-.054.144-.14.199-.194.058-.051.144-.137.203-.188.055-.055.145-.137.2-.187.054-.047.144-.13.198-.176.055-.051.145-.125.2-.176.054-.047.144-.121.199-.164.055-.047.144-.121.2-.164.058-.043.144-.113.202-.156a6.57 6.57 0 0 1 .2-.149l.199-.144c.054-.04.144-.098.199-.137.055-.04.144-.094.2-.133l.198-.125c.059-.031.145-.086.203-.117a5.03 5.03 0 0 1 .2-.11c.054-.03.144-.078.199-.105.055-.031.144-.074.2-.101.054-.024.144-.067.198-.09l.2-.086c.058-.024.144-.059.203-.078l.199-.07c.055-.02.144-.048.2-.067l.198-.059c.055-.011.145-.035.2-.047.054-.015.144-.035.199-.046.058-.008.144-.028.203-.036.055-.007.14-.023.2-.027.054-.008.144-.02.198-.023.055-.008.145-.012.2-.016.054-.004.144-.008.199-.008.054 0 .144-.004.199 0 .055 0 .144.004.2.004.058.004.144.008.202.016.055.004.145.011.2.02l.199.027c.054.007.144.023.199.035.055.011.144.027.2.043.054.011.144.031.198.047l.204.054a3.9 3.9 0 0 0 .199.063l.199.07c.055.02.144.055.2.078.054.024.144.059.198.082.055.024.145.067.2.09l.203.098c.054.027.144.074.199.105.055.028.144.078.2.11.054.03.144.082.198.117.055.031.145.086.2.12l.199.13.203.136a23.238 23.238 0 0 1 .598.446c.054.043.144.113.199.16l.199.168c.055.047.145.121.2.172.058.047.144.125.202.176l.2.183c.054.051.144.133.199.188.055.05.144.14.199.191l.2.2c.054.058.144.148.198.202.06.059.145.153.204.211.054.059.144.153.199.211.055.063.144.16.199.22l.2.222.198.226.2.23c.058.067.144.173.203.239.055.063.144.172.199.238.055.067.145.172.2.242.054.067.144.176.198.247.055.066.145.18.2.25.054.07.144.18.199.253.059.07.144.184.203.254.055.07.14.188.2.258.054.074.144.192.198.262.055.074.145.191.2.266.054.074.144.191.199.27l.2.265c.054.078.144.199.198.273.059.074.145.195.203.274l.2.273c.054.078.144.2.199.277.055.078.144.203.2.278l.198.281.2.281c.058.078.144.203.203.281.054.079.144.204.199.282l.2.281.198.285.2.281"/></g><use xlink:href="#c" x="123.154" y="73.42"/><use xlink:href="#h" x="3.826" y="48.796"/><use xlink:href="#e" x="10.571" y="50.277"/><use xlink:href="#i" x="16.211" y="50.277"/><path fill="none" stroke="#000" stroke-miterlimit="10" stroke-width=".39566436" d="M25.504 90.965H126.77"/><path d="m129.816 90.965-2.949-1.746v3.496Zm0 0"/><g clip-path="url(#j)"><path fill="none" stroke="#000" stroke-miterlimit="10" stroke-width=".39566436" d="m129.816 90.965-2.949-1.746v3.496Zm0 0"/></g><g clip-path="url(#k)"><path fill="none" stroke="#000" stroke-miterlimit="10" stroke-width=".39566436" d="M25.504 105.023V80.355"/></g><path stroke="#000" stroke-miterlimit="10" stroke-width=".39566436" d="m25.504 77.305-1.746 2.949h3.496Zm0 0"/><g clip-path="url(#l)"><path fill="none" stroke="#000" stroke-miterlimit="10" stroke-width=".39566436" d="M25.504 90.965s.144-.203.203-.281c.055-.079.14-.207.2-.286l.198-.28.2-.282c.054-.078.144-.203.199-.281l.2-.282c.058-.078.144-.203.198-.28.059-.075.145-.2.203-.278.055-.074.145-.2.2-.278l.199-.273c.055-.074.144-.2.2-.273l.198-.27c.055-.078.145-.195.2-.27.058-.074.144-.195.203-.269.054-.074.144-.191.199-.262.055-.074.144-.191.2-.261.054-.075.144-.188.198-.262l.2-.254.199-.254c.058-.07.144-.18.203-.25.055-.07.144-.18.2-.246l.198-.242c.055-.067.145-.176.2-.239l.199-.238c.054-.062.144-.164.199-.23.059-.063.145-.164.203-.227.055-.062.14-.16.2-.222.054-.06.144-.157.199-.215.054-.063.144-.157.199-.215.054-.059.144-.153.199-.207.055-.059.145-.149.2-.207.058-.055.144-.145.198-.196.059-.054.145-.14.204-.195.054-.055.144-.137.199-.187l.199-.184c.055-.05.145-.129.2-.176.054-.05.144-.125.198-.172.055-.046.145-.12.2-.168.058-.043.144-.117.203-.16.054-.043.144-.113.199-.152.055-.043.145-.11.2-.149.054-.042.144-.105.198-.144a5.88 5.88 0 0 1 .2-.133 5.88 5.88 0 0 1 .199-.133c.058-.035.144-.09.203-.12.055-.036.145-.087.2-.118.054-.031.144-.082.198-.11l.2-.105.199-.097c.055-.024.144-.067.2-.09l.202-.082c.055-.024.14-.055.2-.078l.199-.07a3.9 3.9 0 0 0 .199-.063l.2-.055c.054-.016.144-.035.198-.047.059-.015.145-.031.2-.043.058-.012.144-.027.203-.035l.199-.027c.055-.008.144-.016.2-.02.054-.004.144-.012.198-.015.055 0 .145-.004.2-.004h.199c.058 0 .144.004.203.007l.2.016c.054.004.144.016.198.024.055.003.145.02.2.027.054.008.144.027.199.035.054.012.144.031.199.047.059.012.145.035.203.05.055.012.145.04.2.055.054.02.144.047.199.067l.199.07c.054.02.144.055.199.078l.2.086c.058.024.144.067.202.09.055.027.14.07.2.102.054.027.144.074.199.105a5.028 5.028 0 0 1 .398.23c.055.032.145.086.2.125.058.036.144.094.199.13l.203.136.199.145c.055.039.145.109.2.148l.198.156c.055.047.145.118.2.164.054.043.144.118.199.164l.203.176c.055.047.145.13.2.18.054.047.144.129.198.184.055.05.145.136.2.187.054.055.144.14.199.195l.2.2c.058.058.144.148.202.207.055.054.145.148.2.207.054.062.144.156.199.214.054.063.144.16.199.22l.2.226.198.226c.059.063.145.168.203.23l.2.24.199.237.2.246c.054.067.144.176.198.247l.2.25c.058.07.144.183.199.253.058.07.144.184.203.258.055.07.144.188.2.258.054.074.144.191.198.262l.2.265c.054.075.144.196.199.27l.199.27c.059.074.144.195.203.269.055.078.145.2.2.277.054.075.144.196.199.274.054.078.144.199.199.277.054.078.144.2.199.277l.2.282c.058.078.144.203.202.281l.2.281c.054.078.144.203.199.281.054.079.144.204.199.282.055.082.144.207.2.285l.198.281c.059.082.145.207.204.285.054.078.14.203.199.282l.199.285.2.281.198.281.2.281c.058.075.144.2.199.278.058.078.144.199.203.277.055.078.144.2.2.277l.198.274c.055.078.145.2.2.273.054.075.144.196.199.27.055.078.144.195.199.27.059.074.145.19.203.265.055.074.145.191.2.266.054.074.144.187.199.261l.199.258.199.254.2.254c.058.07.144.18.202.25l.2.242c.054.07.144.176.199.242l.199.239c.055.066.145.172.2.234.054.066.144.168.198.23.06.063.145.165.204.227.054.063.14.16.199.219.055.062.144.16.199.219l.2.21c.054.06.144.153.198.208.055.058.145.148.2.203.058.054.144.144.199.199.059.05.144.137.203.191l.2.188c.054.05.144.129.198.18.055.05.145.128.2.175l.199.172c.055.047.144.117.2.164.058.043.144.113.202.156.055.047.145.114.2.157l.199.144c.054.04.144.102.199.14.055.04.144.099.2.138l.198.125c.059.035.145.09.203.12.055.036.145.087.2.118.054.031.144.078.199.11l.2.1c.054.028.144.071.198.095.055.027.145.066.2.09l.203.081c.054.02.14.055.199.075.055.02.144.05.2.066a3.9 3.9 0 0 0 .198.063l.2.054.199.047c.058.012.144.027.199.04.059.01.145.023.203.03.055.012.145.024.2.028.054.008.144.015.199.02l.199.011c.054 0 .144.004.199.004.055 0 .145 0 .2-.004a3.53 3.53 0 0 0 .402-.027c.054-.004.144-.016.199-.024.054-.008.144-.02.199-.031.055-.008.145-.023.2-.035l.198-.047c.059-.012.145-.035.204-.05.054-.016.144-.044.199-.063.054-.016.144-.047.199-.067l.2-.07.198-.082.2-.086c.058-.023.144-.066.203-.094a9.768 9.768 0 0 0 .398-.207l.2-.113c.054-.031.144-.086.199-.121l.199-.125c.058-.035.144-.094.2-.133.058-.039.144-.102.202-.14.055-.04.145-.102.2-.145l.199-.152c.054-.043.144-.11.199-.157.055-.043.144-.117.2-.164.054-.043.144-.12.198-.168.059-.047.145-.125.203-.176a8.27 8.27 0 0 0 .2-.18l.199-.183a9.03 9.03 0 0 0 .2-.191c.054-.055.144-.14.198-.196.055-.054.145-.144.2-.203.058-.054.144-.148.203-.203l.199-.21c.055-.063.144-.157.2-.22.054-.058.144-.156.198-.218.055-.063.145-.16.2-.227l.199-.226.203-.235c.055-.062.144-.168.2-.234l.198-.242c.055-.067.145-.176.2-.246.054-.067.144-.176.199-.246l.199-.254c.059-.07.145-.184.2-.254.058-.07.144-.184.202-.258l.2-.258c.054-.074.144-.191.199-.266.054-.074.144-.19.199-.265l.2-.266c.054-.078.144-.195.198-.273.059-.074.145-.196.204-.27.054-.078.144-.199.199-.277.054-.074.144-.2.199-.274.055-.078.145-.199.2-.277l.198-.281c.055-.074.145-.2.2-.277.058-.079.144-.204.203-.282.054-.078.144-.203.199-.281l.2-.285.198-.281.2-.282c.054-.082.144-.207.199-.285.058-.078.144-.203.203-.281.055-.082.145-.207.2-.285l.198-.281.2-.282c.054-.078.144-.203.199-.28.055-.08.144-.204.2-.282.058-.078.144-.2.198-.278.059-.078.145-.203.203-.277.055-.078.145-.2.2-.277.054-.074.144-.2.199-.274l.2-.273.198-.27.2-.27c.058-.073.144-.19.203-.265.054-.07.144-.187.199-.262.055-.074.144-.187.2-.261.054-.07.144-.184.198-.258l.2-.254c.054-.07.144-.18.199-.25.058-.07.144-.18.203-.25.055-.066.144-.176.2-.242.054-.07.144-.176.198-.242l.2-.239c.054-.062.144-.168.199-.23.054-.066.144-.168.199-.23.059-.063.144-.165.203-.223.055-.063.145-.16.2-.223l.199-.215.199-.21c.054-.06.144-.15.199-.208l.2-.199c.058-.055.144-.144.198-.195.059-.055.145-.14.204-.192.054-.054.144-.136.199-.187l.199-.18c.055-.047.144-.125.2-.176.054-.046.144-.12.198-.168.055-.046.145-.117.2-.164.058-.043.144-.113.203-.156.054-.043.144-.11.199-.152.055-.04.144-.106.2-.145.054-.039.144-.101.198-.136a5.88 5.88 0 0 1 .2-.133l.199-.13c.058-.03.144-.085.203-.116.055-.036.144-.086.2-.114.054-.03.144-.078.198-.109.055-.027.145-.074.2-.098.054-.027.144-.07.199-.093.055-.028.144-.067.199-.09.059-.024.145-.059.203-.078.055-.024.145-.055.2-.075.054-.02.144-.046.199-.066l.199-.059c.055-.015.144-.039.199-.05.055-.016.145-.036.2-.047.058-.012.144-.028.198-.04.06-.007.145-.023.204-.03.054-.008.144-.016.199-.024l.199-.016.2-.011h.198c.055 0 .145 0 .2.004.058 0 .144.007.203.011.055.004.144.012.199.02a3.458 3.458 0 0 1 .398.058c.055.008.145.028.2.04.054.011.144.03.199.046.059.012.144.04.203.055l.2.059.198.07c.055.02.145.05.2.074.054.02.144.059.199.082l.2.086c.058.027.144.07.202.098.055.027.145.07.2.101.054.028.144.078.199.11l.199.113c.055.035.144.086.2.121l.198.129c.059.035.145.098.2.133.058.039.144.101.203.14.054.043.144.106.199.149l.2.152c.054.043.144.113.198.16.055.043.145.118.2.164.054.047.144.122.199.168.058.051.144.13.203.18.055.047.144.129.2.18.054.05.144.133.198.187.055.051.145.137.2.192.054.054.144.14.199.199l.199.2c.059.058.145.151.203.206l.2.215.199.215c.054.062.144.16.199.222l.199.227c.055.063.145.164.2.23.058.063.144.168.202.231l.2.238.199.242c.054.07.144.18.199.247l.2.25c.054.07.144.18.198.25.059.07.145.183.2.257.058.07.144.184.203.258l.199.262c.055.07.145.187.2.262.054.074.144.191.198.265l.2.27c.054.074.144.195.199.273.058.074.144.196.203.27.055.078.145.199.2.277l.198.277.2.278.199.277.2.281c.058.078.144.203.202.282l.2.28c.054.079.144.204.199.282l.199.285.2.282.198.285c.059.078.145.203.203.28.055.08.145.204.2.286.054.078.144.203.199.281l.2.282.198.28c.055.079.145.2.2.278.058.078.144.203.199.281.058.075.144.2.203.278.055.074.144.199.2.273.054.078.144.2.198.274.055.078.145.195.2.273l.199.27c.054.074.144.191.199.265.059.074.145.192.203.266.055.074.145.191.2.262.054.074.144.191.199.261l.199.258.199.254.2.25c.058.066.144.18.202.246l.2.242c.054.07.144.176.199.242.054.067.144.172.199.235.055.066.145.168.2.234l.198.227c.059.062.145.16.204.222.054.063.144.16.199.22.054.062.144.155.199.214l.2.211c.054.059.144.148.198.203.055.059.145.145.2.2.058.054.144.144.199.195.058.054.144.14.203.191l.2.184c.054.05.144.129.198.18l.2.171c.054.047.144.121.199.168.055.047.144.117.2.16.058.047.144.114.202.157l.2.152.199.14c.054.04.144.102.199.141l.2.13c.054.034.144.089.198.124.059.035.145.086.203.117.055.035.145.082.2.114.054.03.144.078.199.105l.2.098c.054.027.144.066.198.093l.2.086c.058.02.144.055.203.078l.199.07c.055.02.144.048.2.063.054.02.144.043.198.059.055.016.145.039.2.05l.199.044c.058.011.144.027.203.035.055.012.14.023.2.031.054.008.144.016.198.023l.2.016c.054 0 .144.004.199.008h.199c.055 0 .144-.004.2-.008.058 0 .144-.008.202-.012.055-.004.145-.015.2-.02l.199-.026c.054-.012.144-.028.199-.036l.2-.043c.054-.011.144-.035.198-.05.059-.012.145-.04.204-.055a3.9 3.9 0 0 0 .199-.063l.199-.07c.055-.02.144-.055.2-.074.054-.024.144-.059.198-.086.055-.023.145-.063.2-.09.058-.023.144-.066.203-.098l.199-.101c.055-.031.144-.078.2-.11.054-.03.144-.085.198-.117l.2-.125c.054-.035.144-.09.199-.129.058-.035.144-.097.203-.136.055-.04.14-.102.2-.14.054-.04.144-.106.198-.15.055-.042.145-.109.2-.156.054-.043.144-.113.199-.16.055-.043.144-.117.199-.164l.2-.172c.058-.047.144-.129.202-.175l.2-.184.199-.188.199-.195c.055-.055.145-.14.2-.2.054-.054.144-.144.198-.202.06-.059.145-.149.204-.207l.199-.215c.055-.059.144-.156.199-.219.055-.058.145-.16.2-.223.054-.062.144-.16.198-.226.055-.063.145-.164.2-.23.058-.063.144-.169.203-.235l.199-.238.2-.242c.054-.07.144-.18.198-.246l.2-.25.199-.254c.059-.07.144-.184.203-.258.055-.07.14-.184.2-.258.054-.07.144-.188.198-.262l.2-.265c.054-.075.144-.192.199-.266l.2-.27.198-.269c.059-.078.145-.2.203-.273.055-.079.145-.2.2-.278l.199-.277c.055-.074.144-.2.2-.278.054-.078.144-.199.198-.277l.2-.281c.058-.078.144-.203.203-.281l.199-.282c.055-.078.144-.207.2-.285l.198-.281.2-.285"/></g><use xlink:href="#c" x="123.154" y="100.534"/><use xlink:href="#h" x="8.944" y="87.153"/><use xlink:href="#m" x="15.689" y="88.634"/></svg>