<svg xmlns="http://www.w3.org/2000/svg" xmlns:xlink="http://www.w3.org/1999/xlink" width="240.559" height="235.219"><defs><path id="a" d="M4.953-2.531v-.219H0v.219Zm0 0"/><path id="g" d="M7.156-2.484c0-.188-.187-.188-.328-.188H4.062v-2.781c0-.14 0-.328-.203-.328s-.203.187-.203.328v2.781H.891c-.141 0-.328 0-.328.188 0 .203.187.203.328.203h2.765V.5c0 .14 0 .328.203.328.204 0 .204-.187.204-.328v-2.781h2.765c.14 0 .328 0 .328-.203m0 0"/><path id="b" d="M6.297-5.734c.11-.407.281-.703 1.078-.735.047 0 .172-.015.172-.203 0 0 0-.11-.14-.11-.329 0-.673.032-1 .032-.344 0-.72-.031-1.032-.031-.062 0-.187 0-.187.203 0 .11.093.11.187.11.563.015.672.218.672.437 0 .031-.031.172-.031.203l-.891 3.547C4.781-.953 3.641-.094 2.656-.094c-.687 0-1.219-.437-1.219-1.281 0-.031 0-.344.11-.781l.969-3.86c.078-.359.109-.453.828-.453.265 0 .344 0 .344-.203 0-.11-.11-.11-.141-.11-.281 0-1 .032-1.281.032-.282 0-.985-.031-1.282-.031-.078 0-.187 0-.187.203 0 .11.094.11.281.11.016 0 .219 0 .375.015.188.031.266.031.266.156 0 .063-.094.484-.157.703l-.218.875c-.094.39-.563 2.266-.61 2.453-.062.282-.062.438-.062.579 0 1.218.89 1.906 1.937 1.906 1.25 0 2.485-1.125 2.813-2.438Zm0 0"/><path id="d" d="M3.703-6.016c.094-.359.125-.453.906-.453.25 0 .329 0 .329-.187 0-.125-.11-.125-.157-.125-.281 0-1.015.031-1.312.031-.297 0-1.016-.031-1.313-.031-.078 0-.203 0-.203.203 0 .11.094.11.281.11.422 0 .688 0 .688.187 0 .047 0 .062-.031.156L1.563-.781c-.094.375-.125.469-.907.469-.234 0-.312 0-.312.203 0 .109.11.109.14.109C.781 0 1.5-.031 1.781-.031 2.078-.031 2.813 0 3.11 0c.079 0 .204 0 .204-.187 0-.125-.079-.125-.297-.125-.172 0-.235 0-.422-.016-.219-.016-.25-.063-.25-.172 0-.078.015-.156.031-.219Zm0 0"/><path id="j" d="M2.047-3.969h.922c.203 0 .312 0 .312-.203 0-.11-.11-.11-.281-.11h-.875c.36-1.405.406-1.609.406-1.655a.27.27 0 0 0-.281-.282c-.031 0-.312.016-.406.36l-.39 1.578H.53c-.203 0-.297 0-.297.187 0 .125.078.125.266.125h.875C.672-1.156.625-.984.625-.797c0 .531.375.906.906.906C2.547.11 3.11-1.344 3.11-1.42c0-.095-.078-.095-.109-.095-.094 0-.11.032-.156.141C2.422-.344 1.89-.109 1.563-.109c-.22 0-.313-.125-.313-.453 0-.235.016-.313.063-.485Zm0 0"/><path id="c" d="M5.063-1.828h-.235C4.641-.781 4.484-.25 3.203-.25h-1.11c-.327 0-.327-.062-.327-.266v-1.812h.703c.703 0 .812.203.812.812h.235V-3.39H3.28c0 .61-.11.813-.812.813h-.703v-1.625c0-.219 0-.266.328-.266H3.14c1.14 0 1.343.375 1.468 1.344h.235L4.64-4.719H.39v.25h.172c.53 0 .546.063.546.313v3.593c0 .235-.015.313-.546.313H.39V0H4.75Zm0 0"/><path id="e" d="M.422-4.75v.25h.156c.547 0 .563.078.563.313v3.625c0 .234-.016.312-.563.312H.422V0h2.937c.985 0 1.704-.61 1.704-1.266 0-.609-.61-1.125-1.454-1.218.672-.125 1.25-.547 1.25-1.078 0-.626-.734-1.188-1.703-1.188ZM1.75-2.562v-1.672c0-.203 0-.266.328-.266H3.11c.688 0 1.047.5 1.047.938 0 .484-.468 1-1.265 1ZM2.078-.25c-.328 0-.328-.062-.328-.266v-1.859h1.469a1.1 1.1 0 0 1 1.125 1.094c0 .515-.453 1.031-1.219 1.031Zm0 0"/><path id="f" d="M5.172-4.703c0-.125 0-.188-.094-.188-.031 0-.062 0-.125.079l-.36.53c-.296-.28-.78-.609-1.437-.609C1.687-4.89.484-3.766.484-2.375.484-.969 1.704.141 3.156.141c1.219 0 2.016-.922 2.016-1.766 0-.078 0-.14-.11-.14-.046 0-.125 0-.125.093-.062 1.125-1 1.563-1.687 1.563-.75 0-2.016-.453-2.016-2.266 0-1.875 1.344-2.266 2-2.266.688 0 1.5.47 1.688 1.657.016.078.078.078.125.078.125 0 .125-.031.125-.172Zm0 0"/><path id="h" d="M3.125-4.797c-.047-.11-.062-.156-.203-.156-.125 0-.14.047-.188.156L1.125-.734C1.063-.562.938-.25.313-.25V0c.234-.016.484-.031.718-.031.282 0 .797.031.828.031v-.25c-.296 0-.5-.14-.5-.328 0-.063.016-.078.032-.14l.343-.86h1.97l.405 1.016a.294.294 0 0 1 .032.125c0 .187-.375.187-.563.187V0c.344-.016.797-.031 1.031-.031.329 0 .86.031.938.031v-.25h-.14c-.47 0-.516-.062-.594-.266Zm-.406.703.89 2.266H1.83Zm0 0"/><clipPath id="i"><path d="M19.61 196.086h90.382v28.254H19.61Zm0 0"/></clipPath><clipPath id="k"><path d="M227 214h12.941v15H227Zm0 0"/></clipPath><clipPath id="l"><path d="M146.055 196.086h90.383V220h-90.383Zm0 0"/></clipPath></defs><path fill="none" stroke="#000" stroke-miterlimit="10" stroke-width=".39767931" d="M19.61 177.453h37.269m0 0h93.18m0 0h55.906"/><path fill="#FFF" stroke="#000" stroke-miterlimit="10" stroke-width=".39767931" d="M21.191 177.453a1.58 1.58 0 0 0-1.582-1.582 1.583 1.583 0 1 0 1.582 1.582Zm0 0"/><path stroke="#000" stroke-miterlimit="10" stroke-width=".39767931" d="M95.734 177.453a1.583 1.583 0 1 0-3.165.002 1.583 1.583 0 0 0 3.165-.002Zm0 0"/><path fill="#FFF" stroke="#000" stroke-miterlimit="10" stroke-width=".39767931" d="M207.547 177.453a1.58 1.58 0 0 0-1.582-1.582 1.583 1.583 0 1 0 1.582 1.582Zm0 0"/><use xlink:href="#a" x="209.469" y="178.827"/><path fill="none" stroke="#000" stroke-miterlimit="10" stroke-width=".39767931" d="M19.61 114.043v52.277m0-63.41h33.316m7.91 0h42.633m0 0h9.316"/><path stroke="#000" stroke-miterlimit="10" stroke-width=".39767931" d="M19.61 162.117h-1.977l1.976 4.203 1.977-4.203Zm0 0"/><use xlink:href="#b" x="23.179" y="142.83"/><use xlink:href="#c" x="29.958" y="144.319"/><path fill="none" stroke="#000" stroke-miterlimit="10" stroke-width=".79436193" d="M52.926 91.043v23.734m7.91-23.734v23.734"/><path fill="#FFF" stroke="#000" stroke-miterlimit="10" stroke-width=".39767931" d="M21.191 102.91a1.58 1.58 0 0 0-1.582-1.582 1.58 1.58 0 0 0-1.582 1.582 1.58 1.58 0 0 0 1.582 1.582 1.58 1.58 0 0 0 1.582-1.582Zm0 0"/><path stroke="#000" stroke-miterlimit="10" stroke-width=".39767931" d="M95.734 102.91a1.583 1.583 0 1 0-3.165.002 1.583 1.583 0 0 0 3.165-.002ZM101.738 102.91v1.977l4.203-1.977-4.203-1.976Zm0 0"/><use xlink:href="#d" x="98.262" y="97.914"/><use xlink:href="#e" x="102.626" y="99.403"/><path fill="none" stroke="#000" stroke-miterlimit="10" stroke-width=".79436193" d="M144.496 102.91c0-8.101-6.566-14.668-14.668-14.668-8.101 0-14.668 6.567-14.668 14.668 0 8.102 6.567 14.668 14.668 14.668 8.102 0 14.668-6.566 14.668-14.668Zm0 0"/><path fill="none" stroke="#000" stroke-miterlimit="10" stroke-width=".39767931" d="M136.52 80.957v13.25l-11.868 5.441"/><path fill="none" stroke="#000" stroke-miterlimit="10" stroke-width=".79436193" d="M124.652 94.207v17.406"/><path fill="none" stroke="#000" stroke-miterlimit="10" stroke-width=".39767931" d="m124.652 106.172 11.868 5.441v13.25"/><path d="m128.832 108.09.95-2.074 3.683 4.195-5.582-.05Zm0 0"/><path fill="none" stroke="#000" stroke-miterlimit="10" stroke-width=".39767931" d="M124.652 102.91H112.59M136.52 124.664v26.395m0 0v26.394"/><path stroke="#000" stroke-miterlimit="10" stroke-width=".39767931" d="M138.102 177.453a1.58 1.58 0 0 0-1.582-1.582 1.583 1.583 0 1 0 1.582 1.582Zm0 0"/><path fill="none" stroke="#000" stroke-miterlimit="10" stroke-width=".39767931" d="M136.52 177.453v9.887"/><path fill="none" stroke="#000" stroke-linecap="round" stroke-miterlimit="10" stroke-width=".79436193" d="M130.586 187.34h11.867"/><path fill="none" stroke="#000" stroke-miterlimit="10" stroke-width=".39767931" d="M136.52 81.156h30.765m7.914 0h30.766"/><path fill="none" stroke="#000" stroke-miterlimit="10" stroke-width=".79436193" d="M167.285 69.289v23.734M175.2 69.29v23.734"/><path stroke="#000" stroke-miterlimit="10" stroke-width=".39767931" d="M138.102 81.156a1.58 1.58 0 0 0-1.582-1.582 1.583 1.583 0 1 0 1.582 1.582Zm0 0"/><path fill="#FFF" stroke="#000" stroke-miterlimit="10" stroke-width=".39767931" d="M207.547 81.156a1.58 1.58 0 0 0-1.582-1.582 1.583 1.583 0 1 0 1.582 1.582Zm0 0"/><path fill="none" stroke="#000" stroke-miterlimit="10" stroke-width=".39767931" d="M155.156 95.55v67.509"/><path stroke="#000" stroke-miterlimit="10" stroke-width=".39767931" d="M155.156 158.855h-1.98l1.98 4.204 1.977-4.204Zm0 0"/><use xlink:href="#b" x="158.723" y="131.952"/><use xlink:href="#f" x="165.502" y="133.441"/><use xlink:href="#c" x="171.171" y="133.441"/><path fill="none" stroke="#000" stroke-miterlimit="10" stroke-width=".39767931" d="M136.52 81.156V59.707m0-31.645V6.613h34.722m0 0h34.723"/><path fill="none" stroke="#000" stroke-miterlimit="10" stroke-width=".79436193" d="M142.453 28.062v31.645h-11.867V28.062Zm0 0"/><path stroke="#000" stroke-miterlimit="10" stroke-width=".39767931" d="M138.102 6.613a1.58 1.58 0 0 0-1.582-1.582 1.58 1.58 0 0 0-1.582 1.582 1.58 1.58 0 0 0 1.582 1.582 1.58 1.58 0 0 0 1.582-1.582ZM136.52 68.7h-1.977l1.977 4.202 1.976-4.203Zm0 0"/><use xlink:href="#d" x="122.48" y="73.08"/><use xlink:href="#f" x="126.845" y="74.569"/><path fill="#FFF" stroke="#000" stroke-miterlimit="10" stroke-width=".39767931" d="M207.547 6.613a1.58 1.58 0 0 0-1.582-1.582 1.58 1.58 0 0 0-1.582 1.582 1.58 1.58 0 0 0 1.582 1.582 1.58 1.58 0 0 0 1.582-1.582Zm0 0"/><use xlink:href="#g" x="209.469" y="9.098"/><path fill="none" stroke="#000" stroke-miterlimit="10" stroke-width=".39767931" d="M136.52 6.613h-21.184m0 0H94.152v21.45m0 31.644v32.324m0 0v10.88"/><path fill="none" stroke="#000" stroke-miterlimit="10" stroke-width=".79436193" d="M88.219 59.707V28.062h11.867v31.645Zm0 0"/><path fill="none" stroke="#000" stroke-miterlimit="10" stroke-width=".39767931" d="M94.152 6.613H75.516m0 0H56.879v14.68m0 7.91v14.68"/><path stroke="#000" stroke-miterlimit="10" stroke-width=".39767931" d="M95.734 6.613a1.583 1.583 0 1 0-3.165.002 1.583 1.583 0 0 0 3.165-.002Zm0 0"/><path fill="none" stroke="#000" stroke-miterlimit="10" stroke-width=".79436193" d="M68.746 21.293h-23.73m23.73 7.91h-23.73"/><path fill="none" stroke="#000" stroke-miterlimit="10" stroke-width=".39767931" d="M56.879 43.883v9.89"/><path fill="none" stroke="#000" stroke-linecap="round" stroke-miterlimit="10" stroke-width=".79436193" d="M50.95 53.773h11.863"/><path fill="none" stroke="#000" stroke-miterlimit="10" stroke-width=".39767931" d="M205.965 95.55v67.509"/><path stroke="#000" stroke-miterlimit="10" stroke-width=".39767931" d="M205.965 158.855h-1.977l1.977 4.204 1.976-4.204Zm0 0"/><use xlink:href="#b" x="209.531" y="131.952"/><use xlink:href="#h" x="216.311" y="133.441"/><path fill="none" stroke="#000" stroke-miterlimit="10" stroke-width=".39767931" d="M94.152 177.453v-21.45m0-31.644V102.91"/><path fill="none" stroke="#000" stroke-miterlimit="10" stroke-width=".79436193" d="M100.086 124.36v31.644H88.219v-31.645Zm0 0"/><path fill="none" stroke="#000" stroke-miterlimit="10" stroke-width=".39767931" d="M19.61 210.21h86.921"/><path stroke="#000" stroke-miterlimit="10" stroke-width=".39767931" d="m109.594 210.21-2.965-1.753v3.512Zm0 0"/><path fill="none" stroke="#000" stroke-miterlimit="10" stroke-width=".39767931" d="M19.61 224.34v-24.793"/><path stroke="#000" stroke-miterlimit="10" stroke-width=".39767931" d="m19.61 196.484-1.758 2.965h3.515Zm0 0"/><g clip-path="url(#i)"><path fill="none" stroke="#000" stroke-miterlimit="10" stroke-width=".39767931" d="m19.61 210.215.171-.238c.051-.067.125-.172.172-.239.05-.066.125-.172.176-.234.047-.067.121-.172.172-.238.047-.067.125-.172.172-.235.047-.066.125-.172.172-.234.046-.067.125-.172.171-.235.047-.066.125-.167.172-.234.051-.062.125-.168.176-.23a5.04 5.04 0 0 1 .172-.23c.047-.067.125-.169.172-.231l.172-.227.172-.226c.046-.063.125-.16.171-.223.051-.063.125-.16.172-.223.051-.058.125-.156.176-.218l.172-.215c.047-.063.125-.157.172-.215l.172-.215c.047-.055.125-.148.172-.207a8.03 8.03 0 0 0 .171-.207c.051-.055.125-.149.176-.203l.172-.2c.047-.054.125-.144.172-.195.047-.054.125-.14.172-.195.047-.055.125-.137.172-.191.05-.051.125-.133.172-.184.05-.05.125-.133.175-.184l.172-.18.172-.171c.047-.051.125-.125.172-.172l.172-.168.172-.16c.05-.047.125-.117.176-.16.046-.043.12-.11.171-.153.047-.039.125-.105.172-.148l.172-.145a5.26 5.26 0 0 1 .172-.136c.047-.04.125-.098.172-.137.05-.035.125-.094.176-.129.047-.035.12-.09.172-.121.046-.035.125-.09.171-.121l.172-.113c.047-.032.125-.079.172-.11l.172-.101c.05-.028.125-.07.172-.098.05-.027.125-.07.176-.094l.172-.086c.047-.023.125-.058.172-.082l.171-.074.172-.07c.051-.02.125-.047.172-.067.05-.015.125-.043.176-.054.047-.016.121-.04.172-.055l.172-.047c.047-.012.125-.031.172-.039a2.68 2.68 0 0 1 .171-.035c.047-.012.125-.024.172-.031.051-.008.125-.016.176-.024l.172-.016.172-.011c.047 0 .125-.004.172-.004h.172c.046 0 .125.004.171.008.051 0 .125.007.176.011a2.9 2.9 0 0 1 .172.02c.047.004.125.016.172.023.047.008.125.02.172.032.047.007.125.023.172.035l.172.043c.05.011.125.035.171.047l.176.054.172.059c.047.02.125.047.172.066l.172.07a7.185 7.185 0 0 1 .691.344c.047.028.125.07.172.098.047.031.125.074.172.105.047.032.125.079.172.11.047.031.125.082.172.117.05.031.125.086.176.117l.171.13c.047.034.125.089.172.128.047.035.125.098.172.137.047.035.125.097.172.136.047.043.125.106.172.149.05.039.125.105.176.148.047.043.12.11.172.153.046.047.125.117.171.16.047.043.125.117.172.164l.172.168c.047.047.125.121.172.172.05.047.125.125.172.176.05.046.125.128.176.18.047.046.125.128.172.183l.172.183c.046.055.125.141.171.192.047.055.125.14.172.195.051.055.125.14.172.2.05.054.125.144.176.199l.172.203c.047.058.125.148.172.207l.172.21c.046.06.125.153.171.212.047.062.125.156.172.214.051.063.125.16.176.22.047.062.121.16.172.218.047.062.125.16.172.223l.172.226c.047.063.125.16.172.227l.171.226c.051.063.125.164.176.23.047.063.121.165.172.231.047.063.125.164.172.23.047.067.125.169.172.235.047.063.125.168.172.234.047.063.125.168.172.235.05.066.125.168.171.234.051.067.125.172.176.238.047.067.125.168.172.235l.172.238c.047.067.125.172.172.238.047.067.125.172.172.235.05.066.125.172.172.238.05.066.125.172.175.238.047.063.125.168.172.235.047.066.125.172.172.234.047.067.125.172.172.234.047.067.125.172.172.235.05.066.125.168.172.234.05.063.125.168.176.23.046.063.12.169.171.231l.172.227c.047.066.125.164.172.23.047.063.125.16.172.223.047.062.125.16.172.223.05.062.125.16.176.222.047.059.12.156.172.219l.171.215.172.215.172.21c.047.06.125.153.172.208.05.058.125.148.172.207.05.054.125.148.176.203l.172.199c.047.055.125.14.172.195.046.055.125.14.171.192.047.054.125.136.172.191.051.05.125.133.172.184.05.05.125.132.176.183.047.047.125.13.172.176.047.05.125.125.172.176.047.047.125.12.172.168.046.047.125.12.171.164l.172.16c.051.047.125.117.176.16.047.043.121.11.172.149.047.043.125.109.172.148l.172.145c.047.039.125.097.172.136.046.04.125.098.171.133.051.035.125.094.176.129.047.035.121.09.172.121.047.035.125.086.172.117.047.035.125.082.172.114.047.03.125.078.172.109l.172.102c.05.027.125.07.175.093.047.028.121.067.172.094.047.023.125.063.172.082l.172.082c.047.02.125.055.172.074.047.02.125.051.172.067a4.771 4.771 0 0 0 .347.12c.047.016.125.04.172.052.047.015.125.035.172.046.047.012.125.028.172.04.047.007.125.023.172.03.05.012.125.024.172.028.05.008.125.02.176.024.046.003.12.011.171.015.047.004.125.008.172.008.047.004.125.004.172.004h.172a2.53 2.53 0 0 1 .172-.008l.176-.016a2.9 2.9 0 0 0 .172-.02l.171-.026c.047-.008.125-.02.172-.032a2.72 2.72 0 0 0 .172-.039l.172-.043c.05-.011.125-.035.176-.05.047-.012.121-.04.172-.055l.172-.059.172-.07c.046-.02.125-.05.171-.07.047-.024.125-.059.172-.079.051-.023.125-.062.172-.085.05-.024.125-.063.176-.09.047-.024.125-.067.172-.094.047-.027.125-.07.172-.102.047-.027.125-.074.172-.105.046-.031.125-.078.171-.11.051-.03.125-.085.172-.117l.176-.12c.047-.036.121-.094.172-.13l.172-.129c.047-.039.125-.097.172-.136.047-.04.125-.102.172-.145.046-.039.125-.101.171-.144.051-.043.125-.11.176-.153.047-.039.121-.109.172-.152.047-.047.125-.117.172-.16.047-.047.125-.121.172-.164.047-.047.125-.121.172-.172.047-.047.125-.121.172-.172.05-.047.125-.125.175-.176.047-.05.121-.129.172-.18l.172-.183c.047-.055.125-.137.172-.191.047-.051.125-.137.172-.192.047-.05.125-.14.172-.195.05-.055.125-.14.172-.195.05-.06.125-.149.175-.204l.172-.203.172-.21a9.67 9.67 0 0 0 .172-.208c.047-.062.125-.156.172-.215.05-.058.125-.156.172-.214.05-.063.125-.16.176-.22.046-.062.125-.16.171-.222.047-.058.125-.16.172-.222.047-.059.125-.16.172-.223l.172-.227.172-.226c.05-.067.125-.168.176-.23a5.04 5.04 0 0 1 .172-.231c.046-.067.125-.168.171-.235.047-.062.125-.168.172-.234.047-.062.125-.168.172-.234.047-.063.125-.168.172-.235.05-.066.125-.168.176-.234.047-.066.121-.172.172-.238.047-.067.125-.172.172-.235l.172-.238c.046-.066.125-.172.171-.238l.172-.239c.051-.062.125-.168.172-.234.05-.066.125-.172.176-.238.047-.063.125-.168.172-.235.047-.066.125-.171.172-.234.047-.066.125-.172.172-.234.046-.067.125-.172.171-.235a8.94 8.94 0 0 0 .172-.234c.051-.063.125-.164.176-.23.047-.063.125-.165.172-.231l.172-.227.172-.226c.047-.063.125-.164.172-.223.05-.062.125-.164.171-.222.051-.063.125-.16.176-.223.047-.059.121-.156.172-.219l.172-.215.172-.21a5 5 0 0 1 .172-.212l.172-.21c.05-.055.125-.149.175-.204l.172-.203c.047-.054.125-.14.172-.195.047-.055.125-.145.172-.195a8.45 8.45 0 0 1 .172-.192c.047-.054.125-.137.172-.191.05-.051.125-.133.172-.184l.175-.18c.047-.05.125-.128.172-.175.047-.051.125-.125.172-.172.047-.05.125-.125.172-.172.047-.043.125-.117.172-.164.05-.043.125-.113.172-.16.05-.043.125-.11.176-.153.046-.043.125-.109.171-.152l.172-.144c.047-.043.125-.106.172-.145a5.26 5.26 0 0 0 .172-.137c.05-.035.125-.093.172-.129.05-.035.125-.093.176-.129.047-.03.12-.085.172-.12l.171-.118c.047-.031.125-.078.172-.11a4.07 4.07 0 0 1 .172-.105l.172-.101c.05-.028.125-.07.176-.094a2.38 2.38 0 0 1 .172-.09l.172-.086c.047-.02.125-.054.172-.078.046-.02.125-.05.171-.07.047-.02.125-.05.172-.067.051-.02.125-.046.172-.062.05-.016.125-.043.176-.055.047-.015.125-.039.172-.05l.172-.044c.047-.011.125-.03.172-.039.046-.007.125-.023.171-.03l.172-.028c.051-.008.125-.016.176-.02l.172-.015c.047 0 .125-.004.172-.008h.172c.047 0 .125 0 .172.004.05 0 .125.004.171.008.051.003.125.011.176.015.047.004.121.016.172.024.047.004.125.02.172.027l.172.031c.047.012.125.028.172.04.047.011.125.034.172.046.05.012.125.035.175.051.047.016.121.039.172.059.047.015.125.043.172.062.047.016.125.047.172.066l.172.075c.047.023.125.058.172.082.05.02.125.058.176.082.046.027.12.066.171.093.047.024.125.067.172.094l.172.102c.047.031.125.078.172.11l.172.112c.05.032.125.082.172.118.05.03.125.086.176.12l.171.13c.047.035.125.093.172.132.047.04.125.098.172.137l.172.145c.05.039.125.105.172.148.05.04.125.11.176.152.047.04.12.11.172.157.046.043.125.113.171.16.047.043.125.117.172.164.047.047.125.121.172.172.047.047.125.12.172.172.05.047.125.129.176.175.047.051.121.133.172.184l.172.184c.047.054.125.136.172.191.046.05.125.137.171.191l.172.196c.051.054.125.144.176.199.047.059.121.148.172.203.047.059.125.149.172.207l.172.207.172.211.171.215c.051.059.125.156.172.215.051.062.125.16.176.219l.172.222c.047.063.125.16.172.223.047.062.125.16.172.226.047.063.125.16.172.227.05.063.125.164.171.227.051.062.125.168.176.23.047.063.121.168.172.23.047.067.125.168.172.235.047.062.125.168.172.234.047.063.125.168.172.235.047.062.125.168.172.234.05.066.125.172.175.234.047.067.121.172.172.239l.172.238c.047.062.125.172.172.234l.172.239c.047.066.125.171.172.238.05.066.125.172.176.234.046.067.12.172.171.239.047.066.125.171.172.234.047.066.125.172.172.234.047.067.125.172.172.235.047.066.125.172.172.234l.172.23.176.235.171.226c.047.063.125.165.172.23.047.063.125.161.172.224l.172.226c.05.063.125.16.172.223.05.058.125.156.176.219.047.058.125.156.172.218.046.059.125.153.171.215l.172.211.172.211c.047.059.125.148.172.207.05.055.125.148.176.203.047.055.121.145.172.2.047.058.125.144.172.199.047.054.125.14.172.195.046.05.125.137.171.191.047.051.125.133.172.188.051.05.125.133.176.18.047.05.121.132.172.18.047.05.125.128.172.175.047.05.125.125.172.172l.172.168c.046.047.125.12.171.164.051.043.125.117.172.16.051.043.125.11.176.152.047.043.125.11.172.149.047.043.125.105.172.148.047.04.125.102.172.137.047.04.125.102.172.137.05.039.125.093.171.133l.176.125c.047.03.125.085.172.117.047.035.125.086.172.117.047.031.125.078.172.11.047.03.125.077.172.105.05.027.125.07.172.097.05.028.125.07.175.094.047.027.121.067.172.09l.172.082c.047.023.125.055.172.078l.172.07c.047.02.125.047.172.067.05.015.125.043.176.058.046.016.12.04.171.055l.172.047.172.043c.047.012.125.027.172.035.047.012.125.024.172.031.05.008.125.02.172.024.05.008.125.015.176.02.046.003.125.011.171.011.047.004.125.008.172.008h.172c.047 0 .125 0 .172-.004l.172-.012.176-.015c.047-.008.125-.016.172-.024.046-.008.125-.02.171-.031a2.68 2.68 0 0 0 .172-.035c.047-.008.125-.028.172-.04.051-.011.125-.034.172-.046.05-.016.125-.04.176-.05.047-.017.121-.044.172-.06.047-.019.125-.046.172-.066l.172-.07.171-.074c.047-.024.125-.059.172-.082.051-.024.125-.063.176-.086.047-.024.121-.067.172-.094.047-.024.125-.07.172-.098l.172-.101c.047-.032.125-.079.172-.11l.171-.113c.051-.031.125-.086.172-.121.051-.031.125-.086.176-.121l.172-.13c.047-.038.125-.097.172-.136a5.26 5.26 0 0 0 .172-.137l.172-.144c.05-.043.125-.106.171-.149l.176-.152c.047-.043.125-.113.172-.16l.172-.16.172-.168.172-.168.172-.176.175-.18c.047-.05.121-.132.172-.183l.172-.184c.047-.054.125-.137.172-.191a8.45 8.45 0 0 1 .172-.192l.172-.199c.05-.055.125-.144.176-.199.046-.055.12-.148.171-.203.047-.059.125-.149.172-.207.047-.059.125-.149.172-.207l.172-.215c.047-.059.125-.152.172-.215.05-.059.125-.156.176-.215.047-.062.12-.16.172-.219.046-.062.125-.16.171-.222.047-.063.125-.16.172-.223l.172-.226.172-.227a5.04 5.04 0 0 0 .172-.23c.05-.063.125-.164.176-.23l.172-.231c.046-.067.125-.168.171-.235.047-.062.125-.168.172-.234.047-.063.125-.168.172-.234.051-.063.125-.168.172-.235.05-.066.125-.172.176-.238.047-.063.125-.168.172-.235.047-.066.125-.171.172-.238.047-.066.172-.234.172-.234"/></g><use xlink:href="#j" x="102.897" y="219.829"/><use xlink:href="#b" x="3.488" y="206.381"/><use xlink:href="#c" x="10.268" y="207.87"/><path fill="none" stroke="#000" stroke-miterlimit="10" stroke-width=".39767931" d="M146.055 221.516h86.922"/><path d="m236.04 221.516-2.966-1.758v3.515Zm0 0"/><g clip-path="url(#k)"><path fill="none" stroke="#000" stroke-miterlimit="10" stroke-width=".39767931" d="m236.04 221.516-2.966-1.758v3.515Zm0 0"/></g><path fill="none" stroke="#000" stroke-miterlimit="10" stroke-width=".39767931" d="M146.055 224.34v-24.793"/><path stroke="#000" stroke-miterlimit="10" stroke-width=".39767931" d="m146.055 196.484-1.758 2.965h3.516Zm0 0"/><g clip-path="url(#l)"><path fill="none" stroke="#000" stroke-miterlimit="10" stroke-width=".39767931" d="m146.055 207.953.172-.14c.046-.043.125-.106.171-.145.051-.04.125-.102.176-.14.047-.04.121-.102.172-.141.047-.043.125-.106.172-.145l.172-.14c.047-.04.125-.102.172-.141a5.26 5.26 0 0 1 .172-.137l.175-.14c.047-.04.121-.102.172-.137.047-.04.125-.102.172-.14a5.26 5.26 0 0 0 .172-.137c.047-.036.125-.098.172-.133.047-.04.125-.098.172-.137a2.87 2.87 0 0 0 .172-.133c.05-.035.125-.094.175-.129.047-.039.125-.093.172-.133.047-.035.125-.09.172-.128.047-.036.125-.09.172-.125.047-.036.125-.09.172-.125l.172-.125c.05-.036.125-.09.176-.122.046-.035.12-.085.171-.12.047-.032.125-.087.172-.118l.172-.117.172-.113.172-.114c.05-.027.125-.078.176-.109.047-.027.12-.078.172-.105a4.07 4.07 0 0 1 .171-.106l.172-.101.172-.102c.047-.027.125-.07.172-.098.05-.023.125-.066.176-.093.047-.024.121-.067.172-.09.047-.028.125-.067.172-.09l.172-.086.171-.086c.047-.02.125-.059.172-.078.051-.024.125-.059.172-.078.05-.02.125-.055.176-.074l.172-.07.172-.071c.047-.02.125-.047.172-.066l.171-.06c.051-.019.125-.042.172-.058.051-.015.125-.043.176-.058.047-.012.121-.035.172-.051l.172-.047c.047-.016.125-.035.172-.047l.172-.043c.046-.011.125-.027.171-.039.051-.008.125-.023.176-.035.047-.008.121-.023.172-.031l.172-.028c.047-.007.125-.015.172-.023a2.57 2.57 0 0 1 .172-.02 2.57 2.57 0 0 1 .172-.02c.05-.003.125-.01.175-.01.047-.005.121-.009.172-.013.047-.003.125-.003.172-.007.047 0 .125-.004.172-.004h.172c.047.004.125.004.172.008l.172.003.175.012.172.016c.047.004.125.012.172.02.047.003.125.015.172.019l.172.027.172.028c.05.007.125.023.176.035.046.008.125.023.171.035.047.008.125.027.172.039l.172.043c.047.012.125.031.172.047l.172.047.176.054c.047.016.12.04.172.055l.171.059c.047.02.125.047.172.066.047.016.125.047.172.063l.172.07c.05.02.125.05.176.074.047.02.121.05.172.074.047.02.125.055.172.078.047.024.125.059.172.082.046.024.125.06.171.082.047.024.125.063.172.09.051.024.125.063.172.086.05.028.125.07.176.094.047.027.125.07.172.098.047.023.125.07.172.097.047.028.125.07.172.098.046.031.125.074.171.105.051.028.125.075.172.106.051.027.125.078.176.105l.172.114c.047.027.125.078.172.11.047.03.125.081.172.116l.172.114c.046.035.125.085.171.12.051.032.125.087.176.122.047.031.121.086.172.12.047.036.125.09.172.126l.172.125.172.129c.047.035.125.09.172.129.05.035.125.093.175.129l.172.132c.047.035.125.094.172.133.047.04.125.098.172.133.047.039.125.098.172.137.047.039.125.097.172.136.05.04.125.102.172.137.05.04.125.102.175.14.047.04.125.102.172.137.047.04.125.102.172.141.047.04.125.102.172.14.047.04.125.102.172.141.05.04.125.106.172.145.05.039.125.101.176.14.046.04.125.102.171.141l.172.145.172.14c.047.04.125.102.172.145.05.039.125.101.172.14.05.04.125.102.176.141l.172.145c.046.039.125.101.171.14.047.04.125.102.172.14.047.04.125.102.172.141.047.04.125.102.172.137.05.04.125.102.176.14.047.04.121.102.172.138.047.039.125.101.172.136.047.04.125.102.172.137.046.039.125.098.171.137l.172.132c.051.04.125.098.172.133.05.035.125.094.176.133l.172.129.172.129.172.125c.046.035.125.09.171.125.051.035.125.09.172.125.051.031.125.086.176.121l.172.117c.047.035.125.086.172.121l.172.114.172.113c.05.031.125.082.171.113.051.027.125.078.176.11.047.027.121.074.172.105.047.027.125.074.172.105.047.028.125.07.172.102.047.027.125.07.172.098l.172.097c.05.024.125.067.175.094.047.024.121.066.172.09.047.023.125.066.172.09l.172.086c.047.023.125.058.172.082.047.023.125.058.172.078.05.023.125.058.176.078.046.02.12.055.171.074l.172.07c.047.02.125.047.172.067.047.02.125.047.172.066l.172.059c.05.016.125.043.172.059l.176.054c.046.016.125.04.171.051.047.016.125.035.172.047.047.015.125.035.172.047.047.011.125.027.172.039.05.012.125.027.172.039.05.008.125.023.176.035.047.008.12.02.172.027.046.012.125.024.171.028.047.008.125.02.172.023.047.008.125.016.172.024.047.003.125.011.172.015l.176.012.172.012c.047 0 .125.004.172.004l.172.003c.046 0 .125 0 .171-.003.047 0 .125 0 .172-.004.051 0 .125-.004.176-.008l.172-.012.172-.016c.047-.003.125-.015.172-.019.047-.008.125-.016.172-.023l.171-.028.172-.027c.051-.012.125-.024.176-.035.047-.008.125-.028.172-.035l.172-.043.172-.043c.047-.012.125-.032.172-.047.05-.012.125-.035.171-.051.051-.012.125-.035.176-.05.047-.016.121-.044.172-.06l.172-.058c.047-.02.125-.047.172-.066.047-.016.125-.047.172-.067l.172-.07.175-.07c.047-.024.121-.055.172-.079.047-.02.125-.054.172-.078.047-.023.125-.058.172-.082a13807.357 13807.357 0 0 1 .52-.261c.046-.028.12-.07.171-.094.047-.028.125-.07.172-.098.047-.027.125-.07.172-.098l.172-.101.172-.102c.05-.03.125-.078.172-.109.05-.027.125-.078.176-.106l.171-.113c.047-.031.125-.078.172-.113l.172-.113.172-.118c.05-.03.125-.085.172-.117.05-.035.125-.09.176-.12.047-.036.125-.09.172-.126.046-.035.125-.09.171-.125l.172-.125.172-.129.172-.129c.05-.035.125-.093.176-.132.047-.036.121-.094.172-.13.047-.038.125-.097.172-.136.047-.035.125-.094.172-.133.046-.039.125-.098.171-.137.047-.039.125-.097.172-.136l.176-.137c.047-.04.121-.102.172-.14.047-.04.125-.098.172-.137.047-.04.125-.102.172-.141.047-.04.125-.102.172-.14.046-.04.125-.102.171-.141.051-.04.125-.106.172-.145.051-.039.125-.101.176-.14.047-.04.125-.102.172-.141l.172-.145.172-.14.172-.145c.05-.039.125-.101.171-.14.051-.04.125-.102.176-.141l.172-.145.172-.14c.047-.04.125-.102.172-.14.047-.04.125-.102.172-.141.047-.04.125-.098.172-.137.05-.04.125-.102.175-.14.047-.04.121-.098.172-.137.047-.04.125-.098.172-.137.047-.04.125-.098.172-.137.047-.039.125-.098.172-.133.047-.039.125-.097.172-.136.05-.036.125-.094.176-.13.046-.038.12-.097.171-.132l.172-.129.172-.129.172-.125.172-.125c.05-.035.125-.09.172-.125.05-.031.125-.086.176-.121l.171-.117.172-.117.172-.114c.047-.035.125-.082.172-.113.05-.031.125-.082.172-.113.05-.028.125-.078.176-.106.047-.031.125-.078.172-.11l.171-.1.172-.102c.047-.028.125-.07.172-.098.051-.027.125-.07.172-.098.05-.023.125-.066.176-.093a7.59 7.59 0 0 0 .172-.09l.172-.086.172-.086.171-.082c.047-.023.125-.059.172-.078.051-.024.125-.055.176-.078.047-.02.121-.051.172-.07l.172-.07c.047-.02.125-.052.172-.067.047-.02.125-.047.172-.067l.171-.058c.051-.016.125-.043.172-.059.051-.016.125-.039.176-.05.047-.016.125-.04.172-.051.047-.016.125-.036.172-.047.047-.016.125-.032.172-.043l.172-.043c.05-.008.125-.028.171-.035.051-.012.125-.024.176-.036l.172-.027.172-.027c.047-.008.125-.016.172-.024.047-.004.125-.015.172-.02.05-.003.125-.011.172-.015l.175-.012c.047-.004.121-.007.172-.007.047-.004.125-.004.172-.004.047-.004.125-.004.172-.004.047 0 .125.004.172.004.047 0 .125.004.172.004l.176.011.171.012.172.016c.047.007.125.015.172.02l.172.027c.047.003.125.015.172.023.05.012.125.023.176.031.047.012.12.028.172.035.046.012.125.028.171.04l.172.038c.047.012.125.032.172.047.047.012.125.032.172.047.05.012.125.035.172.051l.176.055.172.058.171.059c.047.02.125.047.172.066.047.02.125.047.172.067l.172.07c.05.02.125.055.176.074.047.02.121.055.172.078.047.02.125.055.172.078.047.024.125.06.172.083l.171.085c.047.024.125.067.172.09.051.024.125.067.176.09.047.027.121.07.172.094.047.027.125.07.172.098l.172.097c.047.031.125.074.172.102.046.031.125.078.171.105.051.031.125.078.176.106.047.031.121.082.172.11l.172.112.172.114.172.113c.047.035.125.086.172.121.05.031.125.086.171.117.051.035.125.09.176.121l.172.125.172.125.172.125.172.13c.05.034.125.093.172.128.05.04.125.098.175.133.047.035.125.094.172.133.047.035.125.097.172.133.047.039.125.097.172.136.047.035.125.098.172.137.047.035.125.098.172.137.05.035.125.097.176.136.046.04.12.102.171.141.047.035.125.098.172.137l.172.14c.047.04.125.102.172.141.047.04.125.102.172.14.05.04.125.106.176.145.047.04.12.102.172.14.046.04.125.102.171.141.047.043.125.106.172.145l.172.14.172.145.172.14c.05.04.125.102.176.141l.172.145c.046.039.125.101.171.14.047.04.125.102.172.141.047.04.125.102.172.14.051.036.125.098.172.137.05.04.125.102.176.141.047.035.125.098.172.137.047.039.125.097.172.137.047.039.125.097.172.136.046.035.125.094.171.133.047.035.125.098.172.133.051.039.125.098.176.133.047.035.121.093.172.129.047.039.125.093.172.129l.172.128c.047.036.125.09.172.125.046.036.125.09.171.125.051.036.125.09.176.122.047.035.121.09.172.12.047.036.125.087.172.122l.172.113c.047.035.125.086.172.117.047.031.125.082.172.11.05.03.125.082.171.113.051.027.125.078.176.105.047.032.125.078.172.106.047.031.125.074.172.105.047.028.125.07.172.098.047.027.125.074.172.098.05.027.125.07.172.097.05.024.125.067.175.09.047.027.125.066.172.09.047.027.125.066.172.09.047.023.125.058.172.082.047.023.125.058.172.082.05.023.125.058.172.078.05.023.125.055.176.074.046.024.12.055.171.074l.172.07c.047.016.125.048.172.063.047.02.125.047.172.063.047.02.125.047.172.062l.176.055.172.055c.046.011.125.035.171.046.047.016.125.036.172.047l.172.043c.047.012.125.032.172.04.05.011.125.027.172.034.05.012.125.024.176.036l.172.027.171.027c.047.004.125.016.172.02.047.008.125.015.172.02.051.003.125.011.172.015.05.004.125.008.176.008.047.004.125.008.172.008.047.004.125.004.172.004.047.003.125.003.172.003l.171-.003c.051-.004.125-.004.172-.008l.176-.012c.047 0 .121-.008.172-.012a2.57 2.57 0 0 0 .172-.02 2.57 2.57 0 0 0 .172-.019c.047-.008.125-.015.172-.023l.171-.028c.051-.011.125-.023.176-.03.047-.013.121-.028.172-.036.047-.012.125-.027.172-.039l.172-.043c.047-.012.125-.031.172-.047l.172-.047c.05-.015.125-.039.171-.05.051-.016.125-.043.176-.06.047-.015.125-.038.172-.058l.172-.058c.047-.02.125-.047.172-.067l.172-.07.172-.07c.05-.02.125-.055.175-.075.047-.02.125-.054.172-.078.047-.02.125-.058.172-.078l.172-.086.172-.086a2.38 2.38 0 0 0 .172-.09c.05-.023.125-.066.176-.09.046-.027.12-.07.171-.093.047-.027.125-.07.172-.098l.172-.101.172-.102a4.07 4.07 0 0 0 .172-.105c.05-.028.125-.078.176-.106.047-.031.12-.082.172-.11l.171-.112.172-.114.172-.117.172-.117.176-.121c.047-.031.121-.086.172-.121l.172-.125c.046-.035.125-.09.171-.125l.172-.125c.047-.04.125-.094.172-.13.051-.038.125-.093.172-.132.05-.035.125-.094.176-.129.047-.039.125-.098.172-.133.047-.039.125-.097.172-.136.047-.036.125-.098.172-.133.046-.04.125-.102.171-.137.051-.04.125-.102.172-.14.051-.036.125-.098.176-.137.047-.04.125-.102.172-.141a5.26 5.26 0 0 0 .172-.137l.172-.14c.047-.04.125-.102.172-.14.046-.04.125-.103.171-.145.051-.04.125-.102.176-.141.047-.04.121-.102.172-.14.047-.04.125-.102.172-.145.047-.04.172-.14.172-.14"/></g><use xlink:href="#j" x="229.342" y="231.131"/><use xlink:href="#d" x="132.134" y="206.381"/><use xlink:href="#e" x="136.499" y="207.87"/></svg>