<svg xmlns="http://www.w3.org/2000/svg" xmlns:xlink="http://www.w3.org/1999/xlink" width="222.806" height="217.912"><defs><clipPath id="b"><path d="M130 207h2v10.773h-2Zm0 0"/></clipPath><clipPath id="c"><path d="M124 216h14v1.773h-14Zm0 0"/></clipPath><clipPath id="d"><path d="M66 .05h15V14H66Zm0 0"/></clipPath><clipPath id="e"><path d="M123 .05h16V14h-16Zm0 0"/></clipPath><clipPath id="f"><path d="M157 .05h15V14h-15Zm0 0"/></clipPath><path id="a" d="M4.969-2.531v-.219H0v.219Zm0 0"/><path id="g" d="M7.172-2.484c0-.203-.188-.203-.328-.203H4.078V-5.47c0-.14 0-.328-.203-.328s-.203.188-.203.328v2.782H.89c-.141 0-.328 0-.328.203 0 .187.187.187.328.187h2.78V.5c0 .14 0 .328.204.328.203 0 .203-.187.203-.328v-2.797h2.766c.14 0 .328 0 .328-.187m0 0"/><path id="h" d="M6.484-2.562h-.25c-.25 1.53-.468 2.25-2.187 2.25H2.734c-.468 0-.5-.063-.5-.391V-3.36h.907c.953 0 1.062.312 1.062 1.156h.25v-2.64h-.25c0 .859-.11 1.171-1.062 1.171h-.907v-2.39c0-.329.032-.391.5-.391h1.282c1.515 0 1.78.547 1.953 1.922h.234l-.266-2.235H.329v.313h.235c.765 0 .796.11.796.469v5.203c0 .36-.03.469-.796.469H.328V0h5.75Zm0 0"/><path id="i" d="M7.14 0v-.312h-.187c-.594 0-.734-.063-.844-.391L3.97-6.922c-.063-.14-.078-.203-.235-.203-.156 0-.187.063-.234.203L1.438-.969c-.188.5-.579.657-1.125.657V0l1.015-.031L2.484 0v-.312c-.5 0-.75-.25-.75-.5 0-.032 0-.141.016-.157l.453-1.297h2.469L5.203-.75c0 .047.016.11.016.14 0 .298-.547.298-.813.298V0c.344-.031 1.047-.031 1.422-.031ZM4.564-2.578h-2.25l1.124-3.234Zm0 0"/></defs><path fill="none" stroke="#000" stroke-miterlimit="10" stroke-width=".39865287" d="M6.707 207.46h33.465m0 0h100.39m0 0h66.926"/><path fill="#FFF" stroke="#000" stroke-miterlimit="10" stroke-width=".39865287" d="M8.293 207.46a1.587 1.587 0 1 0-3.174.003 1.587 1.587 0 0 0 3.174-.002Zm0 0"/><path stroke="#000" stroke-miterlimit="10" stroke-width=".39865287" d="M75.219 207.46a1.587 1.587 0 1 0-3.17.002 1.587 1.587 0 0 0 3.17-.001Zm0 0"/><path fill="#FFF" stroke="#000" stroke-miterlimit="10" stroke-width=".39865287" d="M209.074 207.46a1.587 1.587 0 1 0-3.174.003 1.587 1.587 0 0 0 3.174-.002Zm0 0"/><use xlink:href="#a" x="211.002" y="208.841"/><path fill="none" stroke="#000" stroke-miterlimit="10" stroke-width=".39865287" d="M6.707 107.07h29.5m7.93 0h46.23m0 0h16.73"/><path fill="none" stroke="#000" stroke-miterlimit="10" stroke-width=".79630661" d="M36.207 95.176v23.793m7.93-23.793v23.793"/><path fill="#FFF" stroke="#000" stroke-miterlimit="10" stroke-width=".39865287" d="M8.293 107.07a1.587 1.587 0 1 0-3.174.003 1.587 1.587 0 0 0 3.174-.003Zm0 0"/><path stroke="#000" stroke-miterlimit="10" stroke-width=".39865287" d="M75.219 107.07a1.587 1.587 0 1 0-3.17.002 1.587 1.587 0 0 0 3.17-.002Zm0 0"/><path fill="none" stroke="#000" stroke-miterlimit="10" stroke-width=".79630661" d="M138.887 107.07c0-8.12-6.586-14.703-14.707-14.703s-14.703 6.582-14.703 14.703c0 8.121 6.582 14.707 14.703 14.707 8.12 0 14.707-6.586 14.707-14.707Zm0 0"/><path fill="none" stroke="#000" stroke-miterlimit="10" stroke-width=".39865287" d="M130.887 85.063v13.285l-11.895 5.453"/><path fill="none" stroke="#000" stroke-miterlimit="10" stroke-width=".79630661" d="M118.992 98.348v17.445"/><path fill="none" stroke="#000" stroke-miterlimit="10" stroke-width=".39865287" d="m118.992 110.344 11.895 5.449v13.285"/><path d="m123.184 112.262.953-2.075 3.687 4.204-5.594-.051Zm0 0"/><path fill="none" stroke="#000" stroke-miterlimit="10" stroke-width=".39865287" d="M118.992 107.07h-12.094M130.887 128.879v23.43m0 31.722v23.43"/><path fill="none" stroke="#000" stroke-miterlimit="10" stroke-width=".79630661" d="M124.941 184.031V152.31h11.895v31.722Zm0 0"/><path stroke="#000" stroke-miterlimit="10" stroke-width=".39865287" d="M132.473 207.46a1.585 1.585 0 1 0-3.168 0c0 .88.707 1.587 1.582 1.587.879 0 1.586-.707 1.586-1.586Zm0 0"/><g clip-path="url(#b)"><path fill="none" stroke="#000" stroke-miterlimit="10" stroke-width=".39865287" d="M130.887 207.46v9.915"/></g><g clip-path="url(#c)"><path fill="none" stroke="#000" stroke-linecap="round" stroke-miterlimit="10" stroke-width=".79630661" d="M124.941 217.375h11.895"/></g><path fill="none" stroke="#000" stroke-miterlimit="10" stroke-width=".39865287" d="M130.887 85.262h34.336m7.93 0h34.335"/><path fill="none" stroke="#000" stroke-miterlimit="10" stroke-width=".79630661" d="M165.223 73.367V97.16m7.93-23.793V97.16"/><path stroke="#000" stroke-miterlimit="10" stroke-width=".39865287" d="M132.473 85.262a1.585 1.585 0 1 0-3.168 0c0 .879.707 1.586 1.582 1.586.879 0 1.586-.707 1.586-1.586Zm0 0"/><path fill="#FFF" stroke="#000" stroke-miterlimit="10" stroke-width=".39865287" d="M209.074 85.262a1.587 1.587 0 1 0-3.174.002 1.587 1.587 0 0 0 3.174-.002Zm0 0"/><path fill="none" stroke="#000" stroke-miterlimit="10" stroke-width=".39865287" d="M130.887 128.879h16.734m0 0h16.73v35.328m0 7.93v35.324"/><path stroke="#000" stroke-miterlimit="10" stroke-width=".39865287" d="M132.473 128.879a1.585 1.585 0 1 0-3.168 0 1.584 1.584 0 1 0 3.168 0Zm0 0"/><path fill="none" stroke="#000" stroke-miterlimit="10" stroke-width=".79630661" d="M176.246 164.207h-23.789m23.79 7.93h-23.79"/><path stroke="#000" stroke-miterlimit="10" stroke-width=".39865287" d="M165.937 207.46a1.587 1.587 0 1 0-3.174.003 1.587 1.587 0 0 0 3.174-.002Zm0 0"/><path fill="none" stroke="#000" stroke-miterlimit="10" stroke-width=".39865287" d="M73.633 107.07v34.336m0 31.723v34.332"/><path fill="none" stroke="#000" stroke-miterlimit="10" stroke-width=".79630661" d="M67.687 173.129v-31.723h11.895v31.723Zm0 0"/><path fill="none" stroke="#000" stroke-miterlimit="10" stroke-width=".39865287" d="M73.633 107.07V72.738m0-31.722V6.68h28.629m0 0h28.625v23.433m0 31.719v23.43"/><path fill="none" stroke="#000" stroke-miterlimit="10" stroke-width=".79630661" d="M79.582 41.016v31.722H67.687V41.016Zm0 0"/><path d="M75.219 6.68a1.587 1.587 0 1 0-3.17.002 1.587 1.587 0 0 0 3.17-.002m0 0"/><g clip-path="url(#d)"><path fill="none" stroke="#000" stroke-miterlimit="10" stroke-width=".39865287" d="M75.219 6.68a1.587 1.587 0 1 0-3.17.002 1.587 1.587 0 0 0 3.17-.002Zm0 0"/></g><path fill="none" stroke="#000" stroke-miterlimit="10" stroke-width=".79630661" d="M124.941 61.832V30.113h11.895v31.719Zm0 0"/><path fill="none" stroke="#000" stroke-miterlimit="10" stroke-width=".39865287" d="M73.633 6.68h-16.73m0 0H40.171v12.77m0 7.929v12.766"/><path fill="none" stroke="#000" stroke-miterlimit="10" stroke-width=".79630661" d="M52.066 19.45H28.273m23.793 7.929H28.273"/><path fill="none" stroke="#000" stroke-miterlimit="10" stroke-width=".39865287" d="M40.172 40.145v9.914"/><path fill="none" stroke="#000" stroke-linecap="round" stroke-miterlimit="10" stroke-width=".79630661" d="M34.223 50.059h11.894"/><path fill="none" stroke="#000" stroke-miterlimit="10" stroke-width=".39865287" d="M130.887 6.68h16.734m0 0h16.73"/><path d="M132.473 6.68a1.585 1.585 0 1 0-3.168 0 1.584 1.584 0 1 0 3.168 0m0 0"/><g clip-path="url(#e)"><path fill="none" stroke="#000" stroke-miterlimit="10" stroke-width=".39865287" d="M132.473 6.68a1.585 1.585 0 1 0-3.168 0 1.584 1.584 0 1 0 3.168 0Zm0 0"/></g><path fill="#FFF" d="M165.938 6.68a1.587 1.587 0 0 0-3.172 0 1.587 1.587 0 0 0 3.172 0m0 0"/><g clip-path="url(#f)"><path fill="none" stroke="#000" stroke-miterlimit="10" stroke-width=".39865287" d="M165.937 6.68a1.587 1.587 0 0 0-3.171 0 1.587 1.587 0 0 0 3.171 0Zm0 0"/></g><use xlink:href="#g" x="167.867" y="9.172"/><use xlink:href="#h" x="3.318" y="103.557"/><use xlink:href="#i" x="203.754" y="81.749"/></svg>