<svg xmlns="http://www.w3.org/2000/svg" xmlns:xlink="http://www.w3.org/1999/xlink" width="170.079" height="240.115"><defs><path id="a" d="M6.297-5.719c.094-.406.266-.703 1.062-.734.047 0 .172-.016.172-.203 0-.016 0-.11-.125-.11-.328 0-.687.032-1.015.032-.344 0-.703-.032-1.032-.032-.062 0-.171 0-.171.204 0 .109.093.109.171.109.563 0 .672.219.672.437 0 .016-.015.172-.031.204l-.89 3.53C4.78-.952 3.64-.093 2.64-.093c-.671 0-1.203-.437-1.203-1.281 0-.016 0-.344.11-.781L2.5-6c.094-.36.11-.453.844-.453.25 0 .328 0 .328-.203 0-.11-.11-.11-.14-.11-.266 0-.985.032-1.266.032-.282 0-.985-.032-1.282-.032-.078 0-.187 0-.187.204 0 .109.094.109.281.109.016 0 .203 0 .375.016.188.015.266.03.266.156 0 .062-.11.468-.157.703l-.218.875c-.094.39-.578 2.25-.61 2.437-.078.282-.078.438-.078.579C.656-.47 1.563.218 2.61.218c1.25 0 2.47-1.125 2.797-2.422Zm0 0"/><path id="d" d="M3.703-6c.094-.36.125-.453.906-.453.235 0 .313 0 .313-.188 0-.125-.11-.125-.14-.125-.298 0-1.032.032-1.313.032-.297 0-1.016-.032-1.313-.032-.078 0-.203 0-.203.204 0 .109.094.109.281.109.407 0 .672 0 .672.187 0 .047 0 .063-.015.157L1.563-.766c-.094.36-.125.454-.907.454-.234 0-.312 0-.312.203 0 .109.11.109.14.109C.766 0 1.5-.031 1.781-.031 2.078-.031 2.813 0 3.11 0c.079 0 .204 0 .204-.187 0-.125-.079-.125-.297-.125-.188 0-.235 0-.438-.016S2.344-.391 2.344-.5c0-.078.015-.156.031-.219Zm0 0"/><path id="b" d="M.422-4.734v.25h.156c.531 0 .547.062.547.312v3.61c0 .234-.016.312-.547.312H.422V0h2.937c.985 0 1.688-.61 1.688-1.266 0-.609-.61-1.125-1.453-1.218.687-.125 1.25-.547 1.25-1.078 0-.626-.735-1.172-1.688-1.172Zm1.312 2.172V-4.22c0-.218.016-.265.344-.265h1.016c.687 0 1.062.484 1.062.922 0 .5-.468 1-1.265 1ZM2.078-.25c-.328 0-.344-.062-.344-.266v-1.843H3.22c.734 0 1.125.593 1.125 1.078 0 .515-.469 1.031-1.235 1.031Zm0 0"/><path id="c" d="M5.047-1.828h-.234C4.64-.781 4.469-.25 3.188-.25H2.093c-.328 0-.328-.062-.328-.266v-1.812h.703c.687 0 .797.219.797.812H3.5V-3.39h-.234c0 .61-.11.813-.797.813h-.703v-1.61c0-.218 0-.265.328-.265H3.14c1.14 0 1.328.36 1.453 1.344h.234l-.203-1.594H.391v.25h.172c.53 0 .546.062.546.297v3.593c0 .235-.015.313-.546.313H.39V0h4.343Zm0 0"/><path id="e" d="M5.156-4.703c0-.11 0-.172-.093-.172-.032 0-.063 0-.11.078l-.375.531a1.993 1.993 0 0 0-1.437-.609c-1.453 0-2.657 1.125-2.657 2.5C.484-.969 1.704.141 3.141.141c1.234 0 2.015-.922 2.015-1.766 0-.078 0-.125-.11-.125-.046 0-.109 0-.124.078-.047 1.125-1 1.563-1.688 1.563-.734 0-2-.453-2-2.25 0-1.891 1.344-2.266 1.985-2.266.687 0 1.515.453 1.687 1.656.016.078.078.078.125.078.125 0 .125-.046.125-.187Zm0 0"/><path id="h" d="M2.328-4.406c0-.188-.015-.203-.219-.203-.437.437-1.062.453-1.359.453v.25c.172 0 .625 0 1.016-.203v3.547c0 .218 0 .312-.703.312h-.25V0c.109 0 .968-.031 1.234-.031C2.25-.031 3.125 0 3.28 0v-.25h-.265c-.688 0-.688-.094-.688-.312Zm0 0"/><path id="i" d="M3.5-1.266h-.234c-.016.157-.094.563-.172.641-.063.031-.594.031-.688.031H1.125c.734-.64.969-.828 1.39-1.156.516-.422.985-.844.985-1.5 0-.844-.734-1.36-1.625-1.36-.86 0-1.437.61-1.437 1.25 0 .344.296.391.375.391.156 0 .359-.125.359-.375 0-.125-.047-.375-.406-.375.218-.484.687-.64 1.015-.64.688 0 1.047.547 1.047 1.109 0 .594-.422 1.078-.656 1.328L.5-.266C.438-.203.438-.187.438 0h2.859Zm0 0"/><path id="j" d="M1.89-2.312c.548 0 .938.374.938 1.109 0 .86-.5 1.125-.906 1.125-.281 0-.89-.078-1.172-.484a.38.38 0 0 0 .39-.391c0-.219-.156-.39-.374-.39-.203 0-.391.124-.391.406C.375-.281 1.094.14 1.938.14c.968 0 1.625-.641 1.625-1.344 0-.531-.438-1.078-1.204-1.234.735-.266.985-.782.985-1.22 0-.546-.625-.952-1.39-.952-.782 0-1.36.375-1.36.937 0 .235.156.36.36.36.218 0 .343-.157.343-.344 0-.203-.125-.36-.344-.375.235-.297.719-.375.969-.375.312 0 .75.156.75.75 0 .297-.094.625-.266.828-.234.265-.422.281-.781.297-.172.015-.187.015-.219.031-.015 0-.062.016-.062.078 0 .11.062.11.172.11Zm0 0"/><path id="k" d="M3.672-1.14v-.25h-.766v-3.094c0-.141 0-.188-.156-.188-.094 0-.11 0-.187.094L.265-1.391v.25h2.047v.579c0 .234 0 .312-.563.312h-.187V0c.343-.016.796-.031 1.046-.031s.688.015 1.047.031v-.25H3.47c-.563 0-.563-.078-.563-.312v-.579ZM2.359-3.923v2.531H.531Zm0 0"/><path id="f" d="M3.938-6.89c-.047-.141-.063-.204-.22-.204-.155 0-.187.063-.234.203L1.422-.969c-.172.5-.563.657-1.11.657V0C.548-.016.97-.031 1.329-.031c.313 0 .828.015 1.14.031v-.312c-.5 0-.75-.25-.75-.5 0-.032.016-.125.032-.141l.453-1.313h2.438L5.17-.75a.58.58 0 0 1 .032.14c0 .298-.562.298-.828.298V0c.36-.031 1.047-.031 1.438-.031.421 0 .875.015 1.296.031v-.312h-.187c-.594 0-.734-.063-.844-.391Zm-.516 1.109 1.11 3.218h-2.22Zm0 0"/><path id="g" d="M2.25-3.125h1.672c1.187 0 2.266-.812 2.266-1.797 0-.969-.985-1.844-2.344-1.844h-3.5v.313h.234c.766 0 .781.11.781.453v5.234c0 .344-.015.454-.78.454H.343V0c.344-.031 1.078-.031 1.453-.031s1.125 0 1.469.031v-.312H3.03c-.765 0-.781-.11-.781-.454Zm-.031-.266v-2.671c0-.329.015-.391.484-.391h.89c1.563 0 1.563 1.047 1.563 1.531 0 .469 0 1.531-1.562 1.531Zm0 0"/><path id="l" d="M4.703-1.5c0-.61-.469-.687-.844-.687-.484 0-.765.234-.906.453-.125-.453-.625-.453-.812-.453-.516 0-.797.265-.922.484v-.484l-.813.046v.22c.36 0 .407.046.407.28v1.22c0 .155 0 .202-.313.202H.406V0c.219-.016.422-.016.64-.016.204 0 .423 0 .626.016v-.219h-.094c-.312 0-.312-.047-.312-.203v-.86c0-.546.5-.75.812-.75.375 0 .453.204.453.532v1.078c0 .156 0 .203-.312.203h-.094V0c.219-.016.422-.016.64-.016.204 0 .422 0 .626.016v-.219h-.094c-.313 0-.313-.047-.313-.203v-.86c0-.546.5-.75.813-.75.375 0 .453.204.453.532v1.078c0 .156 0 .203-.312.203h-.094V0c.219-.016.422-.016.64-.016.204 0 .422 0 .625.016v-.219h-.093c-.313 0-.313-.047-.313-.203Zm0 0"/><path id="m" d="M2.594-1.469c0-.484-.5-.75-1.125-.75-.297 0-.875.016-.875.438 0 .187.14.265.265.265.141 0 .266-.093.266-.265A.269.269 0 0 0 1.015-2c.157-.062.391-.062.454-.062.422 0 .687.234.687.593v.125c-.484.032-.75.047-1.14.188-.328.11-.61.312-.61.64 0 .47.578.563.969.563.39 0 .688-.14.828-.406.031.187.14.39.39.39.032 0 .595 0 .595-.484V-.72h-.204v.266c0 .047 0 .266-.203.266-.187 0-.187-.22-.187-.266Zm-.438.766c0 .547-.594.594-.719.594C1.142-.11.86-.266.86-.516c0-.171.11-.625 1.297-.671Zm0 0"/><path id="n" d="M3.172-2.14c-.14.015-.281.03-.469.03-.172 0-.375-.015-.547-.03v.218c.078.016.094.094.094.094 0 .094-.062.14-.187.281l-.25.234c-.235-.218-.485-.468-.485-.515 0-.078.11-.094.125-.094v-.219c-.203.016-.594.032-.61.032-.202 0-.343 0-.562-.032v.22h.094c.313 0 .328.015.594.28l.578.594-.531.531C.875-.39.688-.219.25-.219V0c.156-.016.297-.016.484-.016.172 0 .375 0 .547.016v-.219c-.078-.015-.093-.062-.093-.093 0-.079.078-.157.093-.172.047-.063.39-.375.407-.407.187.157.39.375.515.516.047.047.047.047.047.063 0 .093-.11.093-.125.093V0c.203-.016.578-.016.61-.016.203 0 .343 0 .546.016v-.219h-.094c-.265 0-.328-.031-.39-.078a23.92 23.92 0 0 1-.844-.86c.61-.624.734-.75 1.219-.765Zm0 0"/></defs><path fill="none" stroke="#000" stroke-miterlimit="10" stroke-width=".39684939" d="M23.7 223.969h126.347"/><path stroke="#000" stroke-miterlimit="10" stroke-width=".39684939" d="m153.102 223.969-2.957-1.754v3.508Zm0 0"/><path fill="none" stroke="#000" stroke-miterlimit="10" stroke-width=".39684939" d="M23.7 223.969V11.089"/><path stroke="#000" stroke-miterlimit="10" stroke-width=".39684939" d="m23.7 8.031-1.755 2.957h3.508Zm0 0"/><use xlink:href="#a" x="144.434" y="209.304"/><use xlink:href="#b" x="151.2" y="210.79"/><use xlink:href="#c" x="156.74" y="210.79"/><use xlink:href="#d" x="3.303" y="10.281"/><use xlink:href="#e" x="7.659" y="11.767"/><path fill="none" stroke="#000" stroke-miterlimit="10" stroke-width=".79270417" d="M23.7 223.969h43.265l8.656-43.266 8.652-43.27 17.305-86.53"/><path fill="#FFF" stroke="#000" stroke-miterlimit="10" stroke-width=".79270417" d="M25.277 223.969a1.579 1.579 0 1 0-3.157.001 1.579 1.579 0 0 0 3.157-.001ZM68.543 223.969a1.579 1.579 0 1 0-3.155.001 1.579 1.579 0 0 0 3.155-.001ZM77.2 180.703a1.58 1.58 0 1 0-3.16-.005 1.58 1.58 0 0 0 3.16.005ZM85.852 137.434a1.579 1.579 0 1 0-3.158 0 1.579 1.579 0 0 0 3.158 0Zm0 0"/><use xlink:href="#f" x="14.389" y="234.239"/><use xlink:href="#g" x="21.821" y="234.239"/><use xlink:href="#h" x="28.565" y="235.725"/><use xlink:href="#f" x="57.656" y="234.239"/><use xlink:href="#g" x="65.088" y="234.239"/><use xlink:href="#i" x="71.831" y="235.725"/><use xlink:href="#f" x="79.12" y="183.345"/><use xlink:href="#g" x="86.551" y="183.345"/><use xlink:href="#j" x="93.295" y="184.831"/><use xlink:href="#f" x="87.773" y="140.078"/><use xlink:href="#g" x="95.204" y="140.078"/><use xlink:href="#k" x="101.948" y="141.564"/><path fill="none" stroke="#000" stroke-miterlimit="10" stroke-width=".79270417" d="M97.254 59.555h5.406"/><use xlink:href="#d" x="106.161" y="61.704"/><use xlink:href="#e" x="110.517" y="63.19"/><use xlink:href="#l" x="116.173" y="64.181"/><use xlink:href="#m" x="121.609" y="64.181"/><use xlink:href="#n" x="124.981" y="64.181"/></svg>