<svg xmlns="http://www.w3.org/2000/svg" xmlns:xlink="http://www.w3.org/1999/xlink" width="222.806" height="217.912"><defs><path id="a" d="M4.969-2.531v-.219H0v.219Zm0 0"/><path id="m" d="M7.172-2.484c0-.203-.188-.203-.328-.203H4.078V-5.47c0-.14 0-.328-.203-.328s-.203.188-.203.328v2.782H.89c-.141 0-.328 0-.328.203 0 .187.187.187.328.187h2.78V.5c0 .14 0 .328.204.328.203 0 .203-.187.203-.328v-2.797h2.766c.14 0 .328 0 .328-.187m0 0"/><path id="n" d="M6.484-2.562h-.25c-.25 1.53-.468 2.25-2.187 2.25H2.734c-.468 0-.5-.063-.5-.391V-3.36h.907c.953 0 1.062.312 1.062 1.156h.25v-2.64h-.25c0 .859-.11 1.171-1.062 1.171h-.907v-2.39c0-.329.032-.391.5-.391h1.282c1.515 0 1.78.547 1.953 1.922h.234l-.266-2.235H.329v.313h.235c.765 0 .796.11.796.469v5.203c0 .36-.03.469-.796.469H.328V0h5.75Zm0 0"/><path id="o" d="M7.14 0v-.312h-.187c-.594 0-.734-.063-.844-.391L3.97-6.922c-.063-.14-.078-.203-.235-.203-.156 0-.187.063-.234.203L1.438-.969c-.188.5-.579.657-1.125.657V0l1.015-.031L2.484 0v-.312c-.5 0-.75-.25-.75-.5 0-.032 0-.141.016-.157l.453-1.297h2.469L5.203-.75c0 .047.016.11.016.14 0 .298-.547.298-.813.298V0c.344-.031 1.047-.031 1.422-.031ZM4.564-2.578h-2.25l1.124-3.234Zm0 0"/><path id="b" d="M6.313-5.75c.109-.406.28-.703 1.078-.734.046 0 .172-.016.172-.203 0-.016 0-.11-.125-.11-.329 0-.672.031-1.016.031s-.703-.03-1.031-.03c-.063 0-.188 0-.188.202 0 .11.11.11.188.11.562 0 .672.218.672.437a.914.914 0 0 1-.032.203l-.89 3.547C4.797-.953 3.656-.094 2.656-.094c-.672 0-1.219-.437-1.219-1.297 0-.015 0-.328.11-.765l.969-3.875c.093-.36.109-.453.843-.453.25 0 .329 0 .329-.203 0-.11-.11-.11-.141-.11-.266 0-.985.031-1.266.031-.297 0-1-.03-1.281-.03-.078 0-.187 0-.187.202 0 .11.078.11.265.11.031 0 .219 0 .39.015.173.016.266.032.266.157 0 .062-.109.484-.171.703l-.22.875c-.093.39-.562 2.28-.609 2.468-.062.282-.062.422-.062.579 0 1.203.906 1.906 1.953 1.906 1.25 0 2.484-1.125 2.813-2.438Zm0 0"/><path id="e" d="M2.016-.016c0-.656-.25-1.046-.625-1.046a.517.517 0 0 0-.532.53c0 .266.204.532.532.532a.62.62 0 0 0 .343-.125c.032-.031.032-.031.047-.031.016 0 .016 0 .016.14 0 .75-.344 1.344-.672 1.672-.11.11-.11.125-.11.157 0 .062.048.109.094.109.11 0 .907-.766.907-1.938m0 0"/><path id="c" d="M5.078-1.828h-.234C4.656-.781 4.5-.25 3.204-.25H2.108c-.328 0-.343-.062-.343-.266v-1.812h.703c.703 0 .812.203.812.812h.235v-1.89H3.28c0 .61-.11.828-.812.828h-.703v-1.625c0-.219.015-.281.343-.281h1.047c1.14 0 1.344.375 1.469 1.359h.234l-.218-1.61H.39v.25h.172c.53 0 .546.079.546.313v3.61c0 .234-.015.312-.546.312H.39V0h4.375Zm0 0"/><path id="p" d="M3.125-4.812c-.031-.11-.062-.157-.187-.157-.141 0-.157.047-.204.157L1.125-.734C1.063-.562.938-.25.313-.25V0c.234-.016.484-.031.718-.031.282 0 .797.031.844.031v-.25c-.312 0-.516-.14-.516-.328 0-.063.016-.078.047-.14l.328-.86H3.72l.406 1.016c0 .03.031.078.031.109 0 .203-.375.203-.562.203V0c.344-.016.797-.031 1.031-.031.328 0 .86.031.922.031v-.25h-.125c-.469 0-.516-.078-.594-.266Zm-.406.718.89 2.266H1.83Zm0 0"/><path id="d" d="m1.266-.766 1.047-1.03c1.562-1.376 2.156-1.907 2.156-2.907 0-1.125-.89-1.922-2.11-1.922A1.83 1.83 0 0 0 .5-4.828c0 .562.5.562.531.562.157 0 .516-.125.516-.53a.504.504 0 0 0-.531-.516H.89c.218-.641.765-1 1.343-1 .907 0 1.329.796 1.329 1.609 0 .797-.5 1.594-1.047 2.203L.609-.375C.5-.265.5-.235.5 0h3.688l.28-1.734h-.25c-.046.297-.124.734-.218.89-.062.078-.719.078-.937.078Zm0 0"/><path id="f" d="M1.063-.75c0 .438-.11.438-.782.438V0c.328-.016.797-.031 1.078-.031.297 0 .704.015 1.094.031v-.312c-.656 0-.765 0-.765-.438v-1.031l.625-.547C3.078-1.281 3.5-.718 3.5-.531c0 .187-.172.219-.36.219V0c.282-.016.876-.031 1.079-.031.297 0 .578.015.875.031v-.312c-.375 0-.594 0-.969-.532L2.859-2.625c-.015-.016-.062-.078-.062-.11 0-.03.703-.624.812-.703.625-.515 1.032-.53 1.25-.546v-.313c-.296.031-.421.031-.703.031-.36 0-.968-.015-1.11-.03v.312c.188.015.282.125.282.25 0 .203-.14.328-.219.39L1.72-2.125v-4.781l-1.438.11v.312c.688 0 .782.062.782.547Zm0 0"/><path id="j" d="M4.578-3.187c0-.797-.047-1.594-.39-2.329-.47-.953-1.282-1.109-1.704-1.109-.593 0-1.312.25-1.734 1.188-.312.687-.36 1.453-.36 2.25 0 .75.032 1.64.454 2.406.422.797 1.14 1 1.64 1 .532 0 1.282-.203 1.72-1.156.327-.688.374-1.47.374-2.25M2.484 0c-.39 0-.984-.25-1.156-1.203-.11-.594-.11-1.516-.11-2.094 0-.64 0-1.297.079-1.844.187-1.171.937-1.265 1.187-1.265.329 0 .985.172 1.172 1.156.094.563.094 1.313.094 1.953 0 .735 0 1.422-.11 2.047C3.5-.297 2.923 0 2.485 0m0 0"/><clipPath id="g"><path d="M130 207h2v10.773h-2Zm0 0"/></clipPath><clipPath id="h"><path d="M124 216h14v1.773h-14Zm0 0"/></clipPath><clipPath id="i"><path d="M66 .05h15V14H66Zm0 0"/></clipPath><clipPath id="k"><path d="M123 .05h16V14h-16Zm0 0"/></clipPath><clipPath id="l"><path d="M157 .05h15V14h-15Zm0 0"/></clipPath></defs><path fill="none" stroke="#000" stroke-miterlimit="10" stroke-width=".39865287" d="M6.707 207.46h33.465m0 0h100.39m0 0h66.926"/><path fill="#FFF" stroke="#000" stroke-miterlimit="10" stroke-width=".39865287" d="M8.293 207.46a1.587 1.587 0 1 0-3.174.003 1.587 1.587 0 0 0 3.174-.002Zm0 0"/><path stroke="#000" stroke-miterlimit="10" stroke-width=".39865287" d="M75.219 207.46a1.587 1.587 0 1 0-3.17.002 1.587 1.587 0 0 0 3.17-.001Zm0 0"/><path fill="#FFF" stroke="#000" stroke-miterlimit="10" stroke-width=".39865287" d="M209.074 207.46a1.587 1.587 0 1 0-3.174.003 1.587 1.587 0 0 0 3.174-.002Zm0 0"/><use xlink:href="#a" x="211.002" y="208.841"/><path fill="none" stroke="#000" stroke-miterlimit="10" stroke-width=".39865287" d="M6.707 122.082v70.371m0-85.383h29.5m7.93 0h46.23m0 0h16.73"/><path stroke="#000" stroke-miterlimit="10" stroke-width=".39865287" d="M6.707 188.238h-1.98l1.98 4.215 1.984-4.215Zm0 0"/><use xlink:href="#b" x="10.285" y="159.923"/><use xlink:href="#c" x="17.081" y="161.415"/><path fill="none" stroke="#000" stroke-miterlimit="10" stroke-width=".79630661" d="M36.207 95.176v23.793m7.93-23.793v23.793"/><path fill="#FFF" stroke="#000" stroke-miterlimit="10" stroke-width=".39865287" d="M8.293 107.07a1.587 1.587 0 1 0-3.174.003 1.587 1.587 0 0 0 3.174-.003Zm0 0"/><path stroke="#000" stroke-miterlimit="10" stroke-width=".39865287" d="M75.219 107.07a1.587 1.587 0 1 0-3.17.002 1.587 1.587 0 0 0 3.17-.002Zm0 0"/><path fill="none" stroke="#000" stroke-miterlimit="10" stroke-width=".79630661" d="M138.887 107.07c0-8.12-6.586-14.703-14.707-14.703s-14.703 6.582-14.703 14.703c0 8.121 6.582 14.707 14.703 14.707 8.12 0 14.707-6.586 14.707-14.707Zm0 0"/><path fill="none" stroke="#000" stroke-miterlimit="10" stroke-width=".39865287" d="M130.887 85.063v13.285l-11.895 5.453"/><path fill="none" stroke="#000" stroke-miterlimit="10" stroke-width=".79630661" d="M118.992 98.348v17.445"/><path fill="none" stroke="#000" stroke-miterlimit="10" stroke-width=".39865287" d="m118.992 110.344 11.895 5.449v13.285"/><path d="m123.184 112.262.953-2.075 3.687 4.204-5.594-.051Zm0 0"/><path fill="none" stroke="#000" stroke-miterlimit="10" stroke-width=".39865287" d="M118.992 107.07h-12.094M130.887 128.879v23.43m0 31.722v23.43"/><path fill="none" stroke="#000" stroke-miterlimit="10" stroke-width=".79630661" d="M124.941 184.031V152.31h11.895v31.722Zm0 0"/><path stroke="#000" stroke-miterlimit="10" stroke-width=".39865287" d="M132.473 207.46a1.585 1.585 0 1 0-3.168 0c0 .88.707 1.587 1.582 1.587.879 0 1.586-.707 1.586-1.586Zm0 0"/><use xlink:href="#d" x="103.104" y="170.317"/><use xlink:href="#e" x="108.081" y="170.317"/><use xlink:href="#d" x="110.845" y="170.317"/><use xlink:href="#f" x="117.475" y="170.317"/><g clip-path="url(#g)"><path fill="none" stroke="#000" stroke-miterlimit="10" stroke-width=".39865287" d="M130.887 207.46v9.915"/></g><g clip-path="url(#h)"><path fill="none" stroke="#000" stroke-linecap="round" stroke-miterlimit="10" stroke-width=".79630661" d="M124.941 217.375h11.895"/></g><path fill="none" stroke="#000" stroke-miterlimit="10" stroke-width=".39865287" d="M130.887 85.262h34.336m7.93 0h34.335"/><path fill="none" stroke="#000" stroke-miterlimit="10" stroke-width=".79630661" d="M165.223 73.367V97.16m7.93-23.793V97.16"/><path stroke="#000" stroke-miterlimit="10" stroke-width=".39865287" d="M132.473 85.262a1.585 1.585 0 1 0-3.168 0c0 .879.707 1.586 1.582 1.586.879 0 1.586-.707 1.586-1.586Zm0 0"/><path fill="#FFF" stroke="#000" stroke-miterlimit="10" stroke-width=".39865287" d="M209.074 85.262a1.587 1.587 0 1 0-3.174.002 1.587 1.587 0 0 0 3.174-.002Zm0 0"/><path fill="none" stroke="#000" stroke-miterlimit="10" stroke-width=".39865287" d="M130.887 128.879h16.734m0 0h16.73v35.328m0 7.93v35.324"/><path stroke="#000" stroke-miterlimit="10" stroke-width=".39865287" d="M132.473 128.879a1.585 1.585 0 1 0-3.168 0 1.584 1.584 0 1 0 3.168 0Zm0 0"/><path fill="none" stroke="#000" stroke-miterlimit="10" stroke-width=".79630661" d="M176.246 164.207h-23.789m23.79 7.93h-23.79"/><path stroke="#000" stroke-miterlimit="10" stroke-width=".39865287" d="M165.937 207.46a1.587 1.587 0 1 0-3.174.003 1.587 1.587 0 0 0 3.174-.002Zm0 0"/><path fill="none" stroke="#000" stroke-miterlimit="10" stroke-width=".39865287" d="M73.633 107.07v34.336m0 31.723v34.332"/><path fill="none" stroke="#000" stroke-miterlimit="10" stroke-width=".79630661" d="M67.687 173.129v-31.723h11.895v31.723Zm0 0"/><use xlink:href="#d" x="48.616" y="159.413"/><use xlink:href="#d" x="53.593" y="159.413"/><use xlink:href="#f" x="60.222" y="159.413"/><path fill="none" stroke="#000" stroke-miterlimit="10" stroke-width=".39865287" d="M73.633 107.07V72.738m0-31.722V6.68h28.629m0 0h28.625v23.433m0 31.719v23.43"/><path fill="none" stroke="#000" stroke-miterlimit="10" stroke-width=".79630661" d="M79.582 41.016v31.722H67.687V41.016Zm0 0"/><path d="M75.219 6.68a1.587 1.587 0 1 0-3.17.002 1.587 1.587 0 0 0 3.17-.002m0 0"/><g clip-path="url(#i)"><path fill="none" stroke="#000" stroke-miterlimit="10" stroke-width=".39865287" d="M75.219 6.68a1.587 1.587 0 1 0-3.17.002 1.587 1.587 0 0 0 3.17-.002Zm0 0"/></g><use xlink:href="#d" x="81.785" y="59.023"/><use xlink:href="#d" x="86.762" y="59.023"/><use xlink:href="#j" x="91.739" y="59.023"/><use xlink:href="#f" x="98.368" y="59.023"/><path fill="none" stroke="#000" stroke-miterlimit="10" stroke-width=".79630661" d="M124.941 61.832V30.113h11.895v31.719Zm0 0"/><use xlink:href="#d" x="139.038" y="48.12"/><use xlink:href="#d" x="144.015" y="48.12"/><use xlink:href="#f" x="150.644" y="48.12"/><path fill="none" stroke="#000" stroke-miterlimit="10" stroke-width=".39865287" d="M73.633 6.68h-16.73m0 0H40.171v12.77m0 7.929v12.766"/><path fill="none" stroke="#000" stroke-miterlimit="10" stroke-width=".79630661" d="M52.066 19.45H28.273m23.793 7.929H28.273"/><path fill="none" stroke="#000" stroke-miterlimit="10" stroke-width=".39865287" d="M40.172 40.145v9.914"/><path fill="none" stroke="#000" stroke-linecap="round" stroke-miterlimit="10" stroke-width=".79630661" d="M34.223 50.059h11.894"/><path fill="none" stroke="#000" stroke-miterlimit="10" stroke-width=".39865287" d="M130.887 6.68h16.734m0 0h16.73"/><path d="M132.473 6.68a1.585 1.585 0 1 0-3.168 0 1.584 1.584 0 1 0 3.168 0m0 0"/><g clip-path="url(#k)"><path fill="none" stroke="#000" stroke-miterlimit="10" stroke-width=".39865287" d="M132.473 6.68a1.585 1.585 0 1 0-3.168 0 1.584 1.584 0 1 0 3.168 0Zm0 0"/></g><path fill="#FFF" d="M165.938 6.68a1.587 1.587 0 0 0-3.172 0 1.587 1.587 0 0 0 3.172 0m0 0"/><g clip-path="url(#l)"><path fill="none" stroke="#000" stroke-miterlimit="10" stroke-width=".39865287" d="M165.937 6.68a1.587 1.587 0 0 0-3.171 0 1.587 1.587 0 0 0 3.171 0Zm0 0"/></g><use xlink:href="#m" x="167.867" y="9.172"/><use xlink:href="#n" x="3.318" y="103.557"/><use xlink:href="#o" x="203.754" y="81.749"/><path fill="none" stroke="#000" stroke-miterlimit="10" stroke-width=".39865287" d="M207.488 103.543v85.64"/><path stroke="#000" stroke-miterlimit="10" stroke-width=".39865287" d="M207.488 184.969h-1.98l1.98 4.215 1.985-4.215Zm0 0"/><use xlink:href="#b" x="190.738" y="149.018"/><use xlink:href="#p" x="197.534" y="150.511"/><path fill="none" stroke="#000" stroke-miterlimit="10" stroke-width="1.1949594799999999" d="m176.246 154.168-23.789 28.008M152.457 154.168l23.79 28.008"/></svg>