<svg xmlns="http://www.w3.org/2000/svg" xmlns:xlink="http://www.w3.org/1999/xlink" width="232.354" height="90.056"><defs><path id="a" d="M5.516-2.625H5.28c-.078 1.36-.265 2.297-2.093 2.297H1.562l3.829-6.063c.078-.109.078-.109.078-.187 0-.156-.063-.156-.266-.156H.781L.687-4.516h.235C1-5.625 1.297-6.422 2.906-6.422h1.547L.625-.359C.547-.25.547-.25.547-.172.547 0 .594 0 .812 0H5.36Zm0 0"/><path id="b" d="m6.016-4.484-.282-2.22H.328v.298h.235c.765 0 .78.11.78.468v5.172c0 .344-.015.454-.78.454H.328V0c.344-.031 1.11-.031 1.5-.031.406 0 1.297 0 1.656.031v-.312h-.328c-.937 0-.937-.125-.937-.47v-2.421h.844c.953 0 1.046.312 1.046 1.156h.25v-2.61h-.25c0 .829-.093 1.141-1.046 1.141h-.844V-6c0-.328.015-.406.484-.406h1.188c1.468 0 1.718.562 1.875 1.922Zm0 0"/><path id="c" d="M7.156 0v-.312H6.97c-.516 0-.719-.047-.922-.344L3.969-3.812l1.344-1.97c.218-.327.546-.64 1.437-.64v-.312l-1.094.03c-.406 0-.875 0-1.265-.03v.312c.39 0 .609.219.609.453 0 .094-.016.11-.094.219L3.781-4.078 2.516-5.984c-.016-.032-.079-.11-.079-.141 0-.125.22-.297.657-.297v-.312c-.36.03-1.078.03-1.453.03l-1.282-.03v.312h.188c.547 0 .734.063.922.344L3.28-3.344l-1.61 2.39c-.14.188-.437.642-1.437.642V0l1.094-.031c.375 0 .906 0 1.266.031v-.312c-.453 0-.625-.266-.625-.454 0-.078.031-.125.11-.234l1.39-2.062L5.03-.703c.016.031.047.078.047.11 0 .109-.219.28-.64.28V0C4.78-.031 5.5-.031 5.875-.031Zm0 0"/><path id="e" d="M7.11-2.469c0-.187-.188-.187-.329-.187h-2.75v-2.766c0-.14 0-.328-.203-.328-.187 0-.187.188-.187.328v2.766H.875c-.14 0-.328 0-.328.187 0 .203.187.203.328.203h2.766V.5c0 .125 0 .313.187.313.203 0 .203-.188.203-.313v-2.766h2.75c.14 0 .328 0 .328-.203m0 0"/><clipPath id="d"><path d="M140 88h13v1.121h-13Zm0 0"/></clipPath></defs><path fill="none" stroke="#000" stroke-linejoin="bevel" stroke-miterlimit="10" stroke-width=".7887351100000001" d="M46.602 42.602c2.59 0 4.687 1.445 4.687 3.222 0 1.781-2.098 3.223-4.687 3.223 2.59 0 4.687 1.441 4.687 3.219 0 1.78-2.098 3.222-4.687 3.222 2.59 0 4.687 1.442 4.687 3.223 0 1.777-2.098 3.219-4.687 3.219 2.59 0 4.687 1.445 4.687 3.222 0 1.782-2.098 3.223-4.687 3.223M65.656 68.375c-2.586 0-4.683-1.441-4.683-3.223 0-1.777 2.097-3.222 4.683-3.222-2.586 0-4.683-1.442-4.683-3.22 0-1.78 2.097-3.222 4.683-3.222-2.586 0-4.683-1.441-4.683-3.222 0-1.778 2.097-3.22 4.683-3.22-2.586 0-4.683-1.44-4.683-3.222 0-1.777 2.097-3.222 4.683-3.222"/><path fill="none" stroke="#000" stroke-miterlimit="10" stroke-width=".39486237" d="M32.707 32.066h14.055v10.93m0 24.984v10.93H32.707m46.844-46.844H65.496v10.93m0 24.984v10.93h14.055"/><path fill="none" stroke="#000" stroke-miterlimit="10" stroke-width=".7887351100000001" d="M57.3 67.2V43.776M54.958 67.2V43.777"/><path fill="none" stroke="#000" stroke-miterlimit="10" stroke-width=".39486237" d="m42.078 71.102 27.906-31.008"/><path fill="none" stroke="#000" stroke-miterlimit="10" stroke-width=".39485040000000005" d="m68.363 38.504 3.371 3.035"/><path fill="none" stroke="#000" stroke-miterlimit="10" stroke-width=".39486237" d="M32.707 32.066v20.301m0 6.246V78.91"/><path fill="none" stroke="#000" stroke-miterlimit="10" stroke-width=".7887351100000001" d="M42.078 52.367H23.34m18.738 6.246H23.34"/><path stroke="#000" stroke-miterlimit="10" stroke-width=".39486237" d="M34.277 32.066a1.57 1.57 0 1 0-3.14 0 1.57 1.57 0 0 0 3.14 0ZM34.277 78.91a1.57 1.57 0 1 0-3.14 0 1.57 1.57 0 0 0 3.14 0Zm0 0"/><path fill="none" stroke="#000" stroke-miterlimit="10" stroke-width=".39486237" d="M32.707 32.066H21.555m0 0H10.402"/><path fill="#FFF" stroke="#000" stroke-miterlimit="10" stroke-width=".39486237" d="M11.973 32.066a1.57 1.57 0 1 0-3.141 0 1.57 1.57 0 0 0 3.14 0Zm0 0"/><path fill="none" stroke="#000" stroke-miterlimit="10" stroke-width=".39486237" d="M32.707 78.91H21.555m0 0H10.402"/><path fill="#FFF" stroke="#000" stroke-miterlimit="10" stroke-width=".39486237" d="M11.973 78.91a1.57 1.57 0 1 0-3.141 0 1.57 1.57 0 0 0 3.14 0Zm0 0"/><use xlink:href="#a" x="4.172" y="58.855"/><use xlink:href="#b" x="10.196" y="58.855"/><path fill="none" stroke="#000" stroke-miterlimit="10" stroke-width=".39486237" d="M79.55 32.066v20.301m0 6.246V78.91"/><path fill="none" stroke="#000" stroke-miterlimit="10" stroke-width=".7887351100000001" d="M88.918 52.367H70.184m18.734 6.246H70.184"/><path stroke="#000" stroke-miterlimit="10" stroke-width=".39486237" d="M81.121 32.066a1.57 1.57 0 1 0-3.14 0 1.57 1.57 0 0 0 3.14 0ZM81.121 78.91a1.57 1.57 0 1 0-3.14 0 1.57 1.57 0 0 0 3.14 0Zm0 0"/><path fill="none" stroke="#000" stroke-miterlimit="10" stroke-width=".39486237" d="M79.55 32.066h16.06m12.492 0h27.214m0 0h20.965m24.985 0h20.964m0 0h11.157"/><path fill="none" stroke="#000" stroke-miterlimit="10" stroke-width=".7887351100000001" d="m108.102 32.066-12.493-7.804v15.613Zm0 0"/><path fill="none" stroke="#000" stroke-miterlimit="10" stroke-width=".39486237" d="M108.102 32.066H95.609"/><path fill="none" stroke="#000" stroke-miterlimit="10" stroke-width=".7887351100000001" d="M108.102 39.875V24.262"/><path stroke="#000" stroke-miterlimit="10" stroke-width=".39486237" d="M125.734 32.066c0-.867-.703-1.57-1.574-1.57a1.57 1.57 0 0 0 0 3.14c.871 0 1.574-.702 1.574-1.57ZM148.039 32.066a1.57 1.57 0 1 0-3.14 0 1.57 1.57 0 0 0 3.14 0Zm0 0"/><path fill="none" stroke="#000" stroke-miterlimit="10" stroke-width=".7887351100000001" d="M156.281 27.383h24.985v9.37H156.28Zm0 0"/><path stroke="#000" stroke-miterlimit="10" stroke-width=".39486237" d="M192.648 32.066a1.57 1.57 0 1 0-3.14 0 1.57 1.57 0 0 0 3.14 0Zm0 0"/><path fill="#FFF" stroke="#000" stroke-miterlimit="10" stroke-width=".39486237" d="M214.957 32.066a1.57 1.57 0 0 0-1.57-1.57 1.571 1.571 0 1 0 1.57 1.57Zm0 0"/><use xlink:href="#c" x="216.866" y="35.435"/><path fill="none" stroke="#000" stroke-miterlimit="10" stroke-width=".39486237" d="M79.55 78.91h22.305m0 0h33.461m0 0h33.457m0 0h33.457m0 0h11.157"/><path stroke="#000" stroke-miterlimit="10" stroke-width=".39486237" d="M125.734 78.91c0-.867-.703-1.57-1.574-1.57a1.57 1.57 0 0 0 0 3.14c.871 0 1.574-.703 1.574-1.57ZM148.039 78.91a1.57 1.57 0 1 0-3.14 0 1.57 1.57 0 0 0 3.14 0Zm0 0"/><path fill="none" stroke="#000" stroke-miterlimit="10" stroke-width=".39486237" d="M146.469 78.91v9.817"/><g clip-path="url(#d)"><path fill="none" stroke="#000" stroke-linecap="round" stroke-miterlimit="10" stroke-width=".7887351100000001" d="M140.578 88.727h11.781"/></g><path stroke="#000" stroke-miterlimit="10" stroke-width=".39486237" d="M192.648 78.91a1.57 1.57 0 1 0-3.14 0 1.57 1.57 0 0 0 3.14 0Zm0 0"/><path fill="#FFF" stroke="#000" stroke-miterlimit="10" stroke-width=".39486237" d="M214.957 78.91a1.57 1.57 0 0 0-1.57-1.57 1.571 1.571 0 1 0 1.57 1.57Zm0 0"/><path fill="none" stroke="#000" stroke-miterlimit="10" stroke-width=".39486237" d="M124.16 32.066v20.301m0 6.246V78.91"/><path fill="none" stroke="#000" stroke-miterlimit="10" stroke-width=".7887351100000001" d="M133.531 52.367h-18.738m18.738 6.246h-18.738"/><path fill="none" stroke="#000" stroke-miterlimit="10" stroke-width=".39486237" d="M146.469 32.066v10.93m0 24.984v10.93"/><path fill="none" stroke="#000" stroke-miterlimit="10" stroke-width=".7887351100000001" d="M141.785 67.98V42.996h9.367V67.98Zm0 0"/><path fill="none" stroke="#000" stroke-miterlimit="10" stroke-width=".39486237" d="M191.078 32.066v20.301m0 6.246V78.91"/><path fill="none" stroke="#000" stroke-miterlimit="10" stroke-width=".7887351100000001" d="M200.45 52.367h-18.74m18.74 6.246h-18.74"/><use xlink:href="#e" x="177.873" y="48.064"/><path fill="none" stroke="#000" stroke-miterlimit="10" stroke-width=".39486237" d="M146.469 32.066V20.914m0 0V9.762h30.336m6.246 0h30.336"/><path fill="none" stroke="#000" stroke-miterlimit="10" stroke-width=".7887351100000001" d="M176.805.395v18.734M183.05.395v18.734"/><path fill="#FFF" stroke="#000" stroke-miterlimit="10" stroke-width=".39486237" d="M214.957 9.762a1.57 1.57 0 0 0-1.57-1.57 1.571 1.571 0 1 0 1.57 1.57Zm0 0"/></svg>