<svg xmlns="http://www.w3.org/2000/svg" xmlns:xlink="http://www.w3.org/1999/xlink" width="233.583" height="145.318"><defs><path id="c" d="M2.047-3.969h.922c.203 0 .312 0 .312-.203 0-.11-.11-.11-.281-.11h-.875c.36-1.405.406-1.609.406-1.655a.27.27 0 0 0-.281-.282c-.031 0-.312.016-.406.36l-.39 1.578H.53c-.203 0-.297 0-.297.187 0 .125.078.125.266.125h.875C.672-1.156.625-.984.625-.797c0 .531.375.906.906.906C2.547.11 3.11-1.344 3.11-1.42c0-.095-.078-.095-.109-.095-.094 0-.11.032-.156.141C2.422-.344 1.89-.109 1.563-.109c-.22 0-.313-.125-.313-.453 0-.235.016-.313.063-.485Zm0 0"/><path id="d" d="M6.297-5.734c.11-.407.281-.703 1.078-.735.047 0 .172-.015.172-.203 0 0 0-.11-.14-.11-.329 0-.673.032-1 .032-.344 0-.72-.031-1.032-.031-.062 0-.187 0-.187.203 0 .11.093.11.187.11.563.015.672.218.672.437 0 .031-.031.172-.031.203l-.891 3.547C4.781-.953 3.641-.094 2.656-.094c-.687 0-1.219-.437-1.219-1.281 0-.031 0-.344.11-.781l.969-3.86c.078-.359.109-.453.828-.453.265 0 .344 0 .344-.203 0-.11-.11-.11-.141-.11-.281 0-1 .032-1.281.032-.282 0-.985-.031-1.282-.031-.078 0-.187 0-.187.203 0 .11.094.11.281.11.016 0 .219 0 .375.015.188.031.266.031.266.156 0 .063-.094.484-.157.703l-.218.875c-.094.39-.563 2.266-.61 2.453-.062.282-.062.438-.062.579 0 1.218.89 1.906 1.937 1.906 1.25 0 2.485-1.125 2.813-2.438Zm0 0"/><path id="e" d="M5.563-2.656h-.25c-.079 1.39-.266 2.312-2.11 2.312H1.578l3.844-6.078c.078-.11.078-.125.078-.203 0-.156-.062-.156-.266-.156H.797l-.11 2.234h.25c.063-1.125.36-1.922 1.985-1.922h1.562L.625-.359C.563-.266.563-.25.563-.172.563 0 .609 0 .813 0H5.39Zm0 0"/><path id="f" d="M6.047-4.516 5.78-6.75H.328v.313h.235c.765 0 .78.109.78.468V-.78c0 .36-.015.469-.78.469H.328V0c.344-.031 1.125-.031 1.5-.031.422 0 1.313 0 1.672.031v-.312h-.328c-.938 0-.938-.125-.938-.47v-2.437h.844c.953 0 1.063.313 1.063 1.156h.25v-2.624h-.25c0 .828-.11 1.156-1.063 1.156h-.844v-2.516c0-.328.016-.39.485-.39h1.187c1.485 0 1.735.546 1.89 1.921Zm0 0"/><path id="g" d="M7.203 0v-.312h-.187c-.516 0-.72-.047-.938-.36L3.984-3.828l1.36-2c.218-.313.562-.625 1.437-.64v-.313l-1.093.031c-.407 0-.875 0-1.266-.031v.312c.39.016.61.235.61.453 0 .11-.016.125-.095.235L3.813-4.11l-1.28-1.907c-.016-.03-.079-.109-.079-.156 0-.125.219-.281.656-.297v-.312c-.343.031-1.078.031-1.453.031L.36-6.781v.312h.204c.53 0 .734.063.921.344l1.813 2.766L1.672-.97c-.14.203-.438.657-1.438.657V0l1.11-.031c.36 0 .906 0 1.265.031v-.312c-.453 0-.625-.266-.625-.454 0-.093.032-.125.094-.234L3.5-3.078l1.563 2.36c.015.046.046.077.046.109 0 .125-.218.297-.64.297V0c.343-.031 1.062-.031 1.437-.031Zm0 0"/><path id="j" d="M7.156-2.484c0-.188-.187-.188-.328-.188H4.062v-2.781c0-.14 0-.328-.203-.328s-.203.187-.203.328v2.781H.891c-.141 0-.328 0-.328.188 0 .203.187.203.328.203h2.765V.5c0 .14 0 .328.203.328.204 0 .204-.187.204-.328v-2.781h2.765c.14 0 .328 0 .328-.203m0 0"/><clipPath id="a"><path d="M220 28h12.828v15H220Zm0 0"/></clipPath><clipPath id="b"><path d="M15 .2h214v70.534H15Zm0 0"/></clipPath><clipPath id="h"><path d="M122 134h2v10.64h-2Zm0 0"/></clipPath><clipPath id="i"><path d="M116 143h14v1.64h-14Zm0 0"/></clipPath></defs><path fill="none" stroke="#000" stroke-miterlimit="10" stroke-width=".39713667" d="M15 35.465h210.875"/><path d="m228.938 35.465-2.961-1.754v3.508Zm0 0"/><g clip-path="url(#a)"><path fill="none" stroke="#000" stroke-miterlimit="10" stroke-width=".39713667" d="m228.938 35.465-2.961-1.754v3.508Zm0 0"/></g><path fill="none" stroke="#000" stroke-miterlimit="10" stroke-width=".39713667" d="M15 70.734V3.652"/><path stroke="#000" stroke-miterlimit="10" stroke-width=".39713667" d="m15 .594-1.758 2.96h3.512Zm0 0"/><g clip-path="url(#b)"><path fill="none" stroke="#000" stroke-miterlimit="10" stroke-width=".7932780100000001" d="m15.21 35.465.216-2.871.215-2.856.214-2.781.215-2.645.215-2.453.215-2.207.215-1.91.21-1.57.216-1.188.214-.785.215-.347.215.093.215.54.215.988.21 1.414.216 1.82.214 2.195.215 2.528.215 2.808.215 3.04.215 3.21.215 3.313.21 3.347.215 3.313.215 3.21.215 3.04.215 2.805.215 2.504.215 2.148.215 1.746.21 1.3.215.825.215.324.215-.191.215-.703.215-1.211.215-1.696.21-2.152.215-2.57.215-2.942.215-3.25.215-3.492.215-3.672.215-3.777.214-3.797.211-3.742.215-3.61.215-3.398.215-3.117.215-2.766.215-2.355.214-1.89.215-1.384.211-.84.215-.273.215.3.215.88.215 1.437.214 1.977.215 2.476.211 2.93.215 3.328.215 3.66.215 3.914.215 4.098.214 4.192.215 4.199.215 4.117L30 49l.215 3.707.215 3.383.215 2.976.214 2.516.215 1.992.215 1.43.215.828.21.203.216-.426.215-1.05.214-1.66.215-2.239.215-2.777.215-3.258.21-3.676.216-4.02.215-4.28.214-4.458.215-4.543.215-4.53.215-4.43.215-4.231.21-3.95.216-3.577.214-3.133.215-2.621.215-2.051.215-1.438.215-.789.215-.117.21.555.215 1.223.215 1.863.215 2.476.215 3.036.215 3.535.215 3.96.21 4.313.215 4.574.215 4.743.215 4.808.215 4.781.215 4.653.215 4.426.214 4.109.211 3.703.215 3.219.215 2.672.215 2.058.215 1.41.215.723.214.02.215-.684.211-1.379.215-2.043.215-2.668.215-3.242.215-3.746.214-4.18.215-4.523.211-4.778.215-4.933.215-4.98.215-4.934.215-4.781.214-4.528.215-4.18.215-3.75.211-3.234.215-2.66.215-2.02.215-1.343.214-.637.215.086.215.805.215 1.507.21 2.184.216 2.812.215 3.387.214 3.887.215 4.312.215 4.641.215 4.883.21 5.02.216 5.05.215 4.98.214 4.805.215 4.532.215 4.168.215 3.71.215 3.18.21 2.586.216 1.938.214 1.25.215.53.215-.19.215-.91.215-1.614.215-2.277.21-2.899.215-3.46.215-3.946.215-4.348.215-4.664.215-4.883.215-5 .21-5.011.215-4.922.215-4.727.215-4.441.215-4.059.215-3.597.215-3.059.215-2.46.21-1.81.215-1.128.215-.422.215.293.215.996.215 1.68.215 2.324.214 2.922.211 3.457.215 3.918.215 4.296.215 4.582.215 4.782.215 4.87.214 4.868.211 4.758.215 4.555.215 4.257.215 3.871.215 3.407.215 2.875.214 2.285.215 1.656.211.984.215.305.215-.379.215-1.058.215-1.703.214-2.32.215-2.88.215-3.379.211-3.804.215-4.149.215-4.41.215-4.578.214-4.648.215-4.622.215-4.5.211-4.289.215-3.988.215-3.61.215-3.156.214-2.64.215-2.074.215-1.473.215-.836.21-.191.216.457.215 1.086.214 1.691.215 2.254.215 2.773.215 3.23.215 3.614.21 3.922.216 4.145.214 4.285.215 4.332.215 4.293.215 4.16.215 3.95.21 3.651.216 3.286.214 2.855.215 2.367.215 1.836.215 1.27.215.68.215.09.21-.509.215-1.086.215-1.632.215-2.145.215-2.61.215-3.011.215-3.352.214-3.62.211-3.805.215-3.918.215-3.946.215-3.89.215-3.758.215-3.547.214-3.266.211-2.918.215-2.519.215-2.066.215-1.579.215-1.066.215-.531.214.004.215.535.211 1.055.215 1.535.215 1.988.215 2.394.215 2.743.214 3.035.215 3.254.215 3.414.211 3.492.215 3.5.215 3.441.215 3.305.214 3.106.215 2.843.215 2.528.211 2.16.215 1.758.215 1.32.215.863.214.395.215-.078.215-.543.215-.989.21-1.41.216-1.793.215-2.14.214-2.43.215-2.676.215-2.851.215-2.977.215-3.035.21-3.027.216-2.958.214-2.832.215-2.644.215-2.41.215-2.125.215-1.805.21-1.45.216-1.07.214-.675.215-.27.215.13.215.526.215.899.215 1.254.21 1.578.215 1.855.215 2.098.215 2.293.215 2.434.215 2.523.215 2.559.214 2.543.211 2.472.215 2.356.215 2.191.215 1.98.215 1.739.215 1.46.214 1.157.211.84.215.508.215.168.215-.16.215-.489.215-.797.214-1.082.215-1.34.211-1.566.215-1.758.215-1.906.215-2.012.215-2.078.214-2.097.215-2.075.215-2.007.211-1.899.215-1.762.215-1.582.215-1.375.214-1.144.215-.899.215-.636.211-.364.215-.093.215.175.215.434.214.676.215.906.215 1.106.215 1.28.211 1.427.215 1.539.215 1.617.214 1.66.215 1.668.215 1.644.215 1.582.215 1.493.21 1.37.216 1.227.214 1.059.215.875.215.676.215.468.215.254.21.043.216-.168.214-.37.215-.56.215-.734.215-.883.215-1.019.215-1.125.21-1.211.215-1.266.43-2.586.215-1.27.215-1.218.215-1.148.215-1.047.21-.934.215-.8.215-.657.215-.504.215-.34.215-.175.215-.012.21.148.215.305.215.445.215.575.215.695.215.793.215.875.214.934.211.976.43 1.992.215.973.215.934.215.878.214.801.215.711.211.613.215.497.215.382.215.258.215.13.214.003.215-.121.211-.238.215-.348.215-.453.215-.543.215-.617.214-.684.215-.734.215-.766.211-.785.215-.785.215-.77.215-.742.214-.695.215-.645.215-.57.215-.496.21-.406.216-.313.215-.219.214-.113.215-.012.215.09.215.184.21.281.216.363.215.442.214.511.215.567.215.613.215.648.215.668.21.676.216.668.214.649.215.617.215.574.215.516.215.457.215.379.21.3.215.215.215.125.215.035.215-.062.215-.152.215-.243.21-.324.215-.402.215-.477.215-.535.215-.586.215-.625.215-.656.214-.668.211-.672.215-.66.215-.637.215-.597.215-.551.215-.489.214-.418.215-.34.211-.25.215-.156.215-.058.215.043.215.144.214.242.215.34.211.43.215.516.215.593.215.653.215.707.214.746.215.773.215.782.211.773.215.75.215.715.215.664.214.59.215.515.215.418.215.317.21.203.216.082.215-.04.214-.167.215-.29.215-.413.215-.528.21-.636.216-.735.215-.816.214-.887.215-.937.215-.977.215-.988.215-.98.21-.962.216-.91.214-.843.215-.758.215-.657.215-.535.215-.402.215-.258.21-.101.215.058.215.223.215.383.215.543.215.691.215.836.21.957.215 1.07.215 1.157.215 1.226.215 1.266.215 1.289.215 1.273.215 1.242.21 1.176.215 1.09.215.973.215.836.215.68.215.5.215.308.214.11.211-.102.215-.313.215-.523.215-.727.215-.922.215-1.101.214-1.258.211-1.398.215-1.508.215-1.59.215-1.64.215-1.657.215-1.637.214-1.582.215-1.5.211-1.375.215-1.222.215-1.043.215-.836.215-.606.214-.36.215-.097.215.172.211.438.215.707.215.964.215 1.204.214 1.425.215 1.625.215 1.79.211 1.921.215 2.016.215 2.066.215 2.082.214 2.047.215 1.973.215 1.855.215 1.692.21 1.496.216 1.258.215.996.214.707.215.39.215.07.215-.265.215-.598.21-.925.216-1.239.214-1.535.215-1.797.215-2.03.215-2.227.215-2.38.21-2.484.216-2.535.214-2.539.215-2.488.215-2.383.215-2.227.215-2.02.215-1.769.21-1.476.215-1.149.215-.793.215-.41.215-.015.215.382.215.786.214 1.175.211 1.543.215 1.89.215 2.2.215 2.469.215 2.687.215 2.86.214 2.969.211 3.015.215 3.008.215 2.93.215 2.797.215 2.593.215 2.344.214 2.031.215 1.68.211 1.285.215.86.215.41.215-.059.215-.527.214-.989.215-1.441.215-1.867.211-2.262.215-2.61.215-2.913.215-3.153.214-3.336.215-3.449.215-3.488.211-3.461.215-3.36.215-3.187.215-2.941.214-2.637.215-2.273.215-1.856.215-1.394.21-.903.216-.387.215.149.214.683.215 1.211.215 1.715.215 2.192.215 2.629.21 3.015.216 3.34.214 3.598.215 3.789.215 3.902.215 3.93.215 3.879.21 3.75.216 3.535.214 3.25.215 2.894.215 2.473.215 1.996.215 1.473.215.918.21.336.215-.254.215-.852.215-1.43.215-1.984.215-2.504.215-2.976.215-3.387.21-3.734.215-4.008.215-4.196.215-4.3.215-4.313.215-4.242.215-4.082.21-3.828.215-3.5.215-3.098.215-2.625.215-2.094.215-1.515.215-.906.214-.266.211.375.215 1.016.215 1.644.215 2.234.215 2.79.215 3.285.214 3.718.215 4.075.211 4.347.215 4.54.215 4.628.215 4.625.215 4.532.214 4.335.215 4.051.211 3.684.215 3.234.215 2.719.215 2.145.215 1.52.214.862.215.184.215-.5.211-1.18.215-1.836.215-2.457.215-3.027.214-3.543.215-3.984.215-4.344.215-4.617.21-4.793.216-4.871.215-4.852.214-4.727.215-4.507.215-4.188.215-3.789.21-3.309.216-2.75.215-2.144.214-1.484.215-.797.215-.086.215.625.215 1.324.21 2 .216 2.637.214 3.218.215 3.735.215 4.172.215 4.531.215 4.789.215 4.957.21 5.016.215 4.972.215 4.828.215 4.579.215 4.242.215 3.812.215 3.301.21 2.727.215 2.093.215 1.414.215.704.215-.016.215-.742.215-1.45.214-2.124.211-2.766.215-3.34.215-3.848.215-4.28.215-4.622.215-4.867.214-5.012.215-5.05.211-4.993.215-4.824.215-4.559.215-4.199.215-3.75.214-3.23.215-2.637.211-1.996.215-1.309.215-.601.215.125.215.84.214 1.543.215 2.21.215 2.832.211 3.391.215 3.887.215 4.293.215 4.613.214 4.836.215 4.965.215 4.98.215 4.903.21 4.718.216 4.438.215 4.066.214 3.614.215 3.09.215 2.496.215 1.855.21 1.184.216.48.215-.223.214-.921.215-1.602.215-2.242.215-2.84.215-3.371.21-3.832.216-4.215.214-4.508.215-4.707.215-4.805.215-4.808.215-4.711.215-4.516.21-4.226.215-3.856.215-3.406.215-2.883.215-2.308.215-1.688.215-1.035.21-.36.215.313.215.977.215 1.62.215 2.223.215 2.782.215 3.277.214 3.7.211 4.046.215 4.309.215 4.476.215 4.559.215 4.535.215 4.43.214 4.222.215 3.942.211 3.57.215 3.133.215 2.633.215 2.082.215 1.492.214.875.215.246.211-.387.215-1.004.215-1.597.215-2.157.215-2.66.214-3.113.215-3.492.215-3.797.211-4.023.215-4.165.215-4.218.215-4.188.214-4.066.215-3.863.215-3.583.215-3.23.211-2.812.215-2.348.215-1.832.214-1.281.215-.715.215-.137.215.438.211 1.003.215 1.536.215 2.035.214 2.488.215 2.883.215 3.219.215 3.48.215 3.672.21 3.781.216 3.813.214 3.77.215 3.64.215 3.45.215 3.179.215 2.847.215 2.47.21 2.034.215 1.567.215 1.07.215.559.215.043.215-.473.215-.969.21-1.437.215-1.875.215-2.266.215-2.61.215-2.89.215-3.11.215-3.261.215-3.348.21-3.363.215-3.305.215-3.18.215-2.995.215-2.75.215-2.446.215-2.101.214-1.72.211-1.3.215-.863.215-.418.215.035.215.48.215.907.214 1.308.211 1.68.215 2.012.215 2.297.215 2.527.215 2.703.215 2.828.214 2.883.215 2.05"/></g><use xlink:href="#c" x="222.246" y="45.068"/><use xlink:href="#d" x="3.644" y="10.478"/><path fill="none" stroke="#000" stroke-linejoin="bevel" stroke-miterlimit="10" stroke-width=".7932780100000001" d="M43.652 105.512c2.051 0 3.711 1.152 3.711 2.574s-1.66 2.574-3.71 2.574c2.05 0 3.71 1.153 3.71 2.574 0 1.422-1.66 2.575-3.71 2.575 2.05 0 3.71 1.152 3.71 2.574s-1.66 2.574-3.71 2.574c2.05 0 3.71 1.152 3.71 2.574s-1.66 2.574-3.71 2.574M58.816 126.105c-2.046 0-3.71-1.152-3.71-2.574s1.664-2.574 3.71-2.574c-2.046 0-3.71-1.152-3.71-2.574s1.664-2.574 3.71-2.574c-2.046 0-3.71-1.153-3.71-2.575 0-1.421 1.664-2.574 3.71-2.574-2.046 0-3.71-1.152-3.71-2.574s1.664-2.574 3.71-2.574"/><path fill="none" stroke="#000" stroke-miterlimit="10" stroke-width=".39713667" d="M32.676 97.246h11.137v8.664m0 19.797v8.66H32.676m37.12-37.12H58.66v8.663m0 19.797v8.66h11.137"/><path fill="none" stroke="#000" stroke-miterlimit="10" stroke-width=".7932780100000001" d="M52.164 125.09v-18.563M50.31 125.09v-18.563"/><path fill="none" stroke="#000" stroke-miterlimit="10" stroke-width=".39713667" d="m40.098 128.184 22.074-24.528"/><path fill="none" stroke="#000" stroke-miterlimit="10" stroke-width=".3971247" d="m60.543 102.055 3.39 3.054"/><path fill="none" stroke="#000" stroke-miterlimit="10" stroke-width=".39713667" d="M32.676 97.246v16.086m0 4.95v16.085"/><path fill="none" stroke="#000" stroke-miterlimit="10" stroke-width=".7932780100000001" d="M40.098 113.332H25.25m14.848 4.95H25.25"/><path stroke="#000" stroke-miterlimit="10" stroke-width=".39713667" d="M34.254 97.246a1.58 1.58 0 1 0-3.161.003 1.58 1.58 0 0 0 3.16-.003ZM34.254 134.367a1.58 1.58 0 1 0-3.161.003 1.58 1.58 0 0 0 3.16-.003Zm0 0"/><path fill="none" stroke="#000" stroke-miterlimit="10" stroke-width=".39713667" d="M32.676 97.246h-8.84m0 0H15"/><path fill="#FFF" stroke="#000" stroke-miterlimit="10" stroke-width=".39713667" d="M16.578 97.246a1.58 1.58 0 1 0-3.161.003 1.58 1.58 0 0 0 3.161-.003Zm0 0"/><path fill="none" stroke="#000" stroke-miterlimit="10" stroke-width=".39713667" d="M32.676 134.367h-8.84m0 0H15"/><path fill="#FFF" stroke="#000" stroke-miterlimit="10" stroke-width=".39713667" d="M16.578 134.367a1.58 1.58 0 1 0-3.161.003 1.58 1.58 0 0 0 3.161-.003Zm0 0"/><use xlink:href="#e" x="8.731" y="119.194"/><use xlink:href="#f" x="14.789" y="119.194"/><path fill="none" stroke="#000" stroke-miterlimit="10" stroke-width=".39713667" d="M69.797 97.246v16.086m0 4.95v16.085"/><path fill="none" stroke="#000" stroke-miterlimit="10" stroke-width=".7932780100000001" d="M77.219 113.332H62.37m14.848 4.95H62.37"/><path stroke="#000" stroke-miterlimit="10" stroke-width=".39713667" d="M71.375 97.246a1.58 1.58 0 1 0-3.161.003 1.58 1.58 0 0 0 3.161-.003ZM71.375 134.367a1.58 1.58 0 1 0-3.161.003 1.58 1.58 0 0 0 3.161-.003Zm0 0"/><path fill="none" stroke="#000" stroke-miterlimit="10" stroke-width=".39713667" d="M69.797 97.246h12.726m9.899 0h21.566m0 0h16.614m19.8 0h16.614m0 0h8.84"/><path fill="none" stroke="#000" stroke-miterlimit="10" stroke-width=".7932780100000001" d="m92.422 97.246-9.899-6.183v12.37Zm0 0"/><path fill="none" stroke="#000" stroke-miterlimit="10" stroke-width=".39713667" d="M92.422 97.246h-9.899"/><path fill="none" stroke="#000" stroke-miterlimit="10" stroke-width=".7932780100000001" d="M92.422 103.434V91.063"/><path stroke="#000" stroke-miterlimit="10" stroke-width=".39713667" d="M106.727 97.246a1.579 1.579 0 0 0-3.157 0 1.58 1.58 0 0 0 1.578 1.582 1.58 1.58 0 0 0 1.579-1.582Zm0 0"/><use xlink:href="#g" x="101.429" y="93.744"/><path stroke="#000" stroke-miterlimit="10" stroke-width=".39713667" d="M124.406 97.246a1.58 1.58 0 1 0-3.159.003 1.58 1.58 0 0 0 3.16-.003Zm0 0"/><path fill="none" stroke="#000" stroke-miterlimit="10" stroke-width=".7932780100000001" d="M130.602 93.535h19.8v7.426h-19.8Zm0 0"/><path stroke="#000" stroke-miterlimit="10" stroke-width=".39713667" d="M159.758 97.246a1.58 1.58 0 1 0-3.161.003 1.58 1.58 0 0 0 3.16-.003Zm0 0"/><path fill="#FFF" stroke="#000" stroke-miterlimit="10" stroke-width=".39713667" d="M177.434 97.246a1.579 1.579 0 0 0-3.157 0 1.58 1.58 0 0 0 1.579 1.582 1.58 1.58 0 0 0 1.578-1.582Zm0 0"/><path fill="none" stroke="#000" stroke-miterlimit="10" stroke-width=".39713667" d="M69.797 134.367h17.676m0 0h26.515m0 0h26.516m0 0h26.512m0 0h8.84"/><path stroke="#000" stroke-miterlimit="10" stroke-width=".39713667" d="M106.727 134.367a1.579 1.579 0 0 0-3.157 0 1.58 1.58 0 0 0 1.578 1.582 1.58 1.58 0 0 0 1.579-1.582ZM124.406 134.367a1.58 1.58 0 1 0-3.159.003 1.58 1.58 0 0 0 3.16-.003Zm0 0"/><g clip-path="url(#h)"><path fill="none" stroke="#000" stroke-miterlimit="10" stroke-width=".39713667" d="M122.824 134.367v9.875"/></g><g clip-path="url(#i)"><path fill="none" stroke="#000" stroke-linecap="round" stroke-miterlimit="10" stroke-width=".7932780100000001" d="M116.898 144.242h11.852"/></g><path stroke="#000" stroke-miterlimit="10" stroke-width=".39713667" d="M159.758 134.367a1.58 1.58 0 1 0-3.161.003 1.58 1.58 0 0 0 3.16-.003Zm0 0"/><path fill="#FFF" stroke="#000" stroke-miterlimit="10" stroke-width=".39713667" d="M177.434 134.367a1.579 1.579 0 0 0-3.157 0 1.58 1.58 0 0 0 1.579 1.582 1.58 1.58 0 0 0 1.578-1.582Zm0 0"/><path fill="none" stroke="#000" stroke-miterlimit="10" stroke-width=".39713667" d="M105.148 97.246v16.086m0 4.95v16.085"/><path fill="none" stroke="#000" stroke-miterlimit="10" stroke-width=".7932780100000001" d="M112.574 113.332H97.723m14.851 4.95H97.723"/><path fill="none" stroke="#000" stroke-miterlimit="10" stroke-width=".39713667" d="M122.824 97.246v8.664m0 19.797v8.66"/><path fill="none" stroke="#000" stroke-miterlimit="10" stroke-width=".7932780100000001" d="M119.113 125.707V105.91h7.426v19.797Zm0 0"/><path fill="none" stroke="#000" stroke-miterlimit="10" stroke-width=".39713667" d="M158.18 97.246v16.086m0 4.95v16.085"/><path fill="none" stroke="#000" stroke-miterlimit="10" stroke-width=".7932780100000001" d="M165.602 113.332h-14.848m14.848 4.95h-14.848"/><use xlink:href="#j" x="161.744" y="109.006"/><path fill="none" stroke="#000" stroke-miterlimit="10" stroke-width=".39713667" d="M122.824 97.246V88.41m0 0v-8.84h24.043m4.95 0h24.039"/><path fill="none" stroke="#000" stroke-miterlimit="10" stroke-width=".7932780100000001" d="M146.867 72.148v14.848m4.95-14.848v14.848"/><path fill="#FFF" stroke="#000" stroke-miterlimit="10" stroke-width=".39713667" d="M177.434 79.57a1.579 1.579 0 0 0-3.157 0 1.58 1.58 0 0 0 1.579 1.582 1.58 1.58 0 0 0 1.578-1.582Zm0 0"/></svg>