<svg xmlns="http://www.w3.org/2000/svg" xmlns:xlink="http://www.w3.org/1999/xlink" width="233.703" height="131.239"><defs><path id="a" d="M4.938-2.531v-.219H0v.219Zm0 0"/><path id="b" d="M7.14-2.484c0-.188-.187-.188-.327-.188H4.047v-2.781c0-.14 0-.328-.188-.328-.203 0-.203.187-.203.328v2.781H.875c-.125 0-.312 0-.312.188 0 .203.187.203.312.203h2.781V.5c0 .14 0 .328.203.328.188 0 .188-.187.188-.328v-2.781h2.766c.14 0 .328 0 .328-.203m0 0"/><path id="e" d="M-6.453-7.094h-.313l.032 1.157-.032 1.156h.313c0-1.016.453-1.016.734-1.016H-1.5l-5.14 3.5c-.11.094-.126.094-.126.281v1.688h.313V-.61c0-.157 0-.344.016-.5.03-.235.03-.235.218-.235h5.172c.281 0 .734 0 .734 1.016H0l-.031-1.156L0-2.641h-.312c0 1.016-.454 1.016-.735 1.016h-5.14c.046-.047.062-.062.109-.094l5.953-4.047c.11-.093.125-.093.125-.171 0-.141-.062-.141-.25-.141h-5.469c-.281 0-.734 0-.734-1.016m0 0"/><path id="f" d="m-4.5-6.047-2.234.281v5.438h.312v-.234c0-.766.11-.782.453-.782h5.203c.344 0 .454.016.454.782v.234H0c-.031-.344-.031-1.125-.031-1.5 0-.406 0-1.313.031-1.672h-.312v.328c0 .938-.125.938-.47.938h-2.437v-.844c0-.953.313-1.047 1.156-1.047v-.25h-2.624v.25c.828 0 1.156.094 1.156 1.047v.844h-2.5c-.328 0-.39-.016-.39-.485v-1.187c0-1.485.546-1.735 1.921-1.89Zm0 0"/><path id="g" d="M-7.234-4.39a.207.207 0 0 0-.203.202c0 .141.109.172.203.204L2.094-.61a.74.74 0 0 0 .187.046c.11 0 .203-.078.203-.187 0-.14-.109-.187-.203-.203l-9.328-3.39c-.14-.048-.187-.048-.187-.048m0 0"/><path id="h" d="M-1.812-6.453c-.86 0-1.61.812-1.72 1.922-.187-.969-.827-1.657-1.562-1.657-.86 0-1.672.922-1.672 2.204V-.36h.313v-.235c0-.765.11-.781.453-.781h5.234c.344 0 .454.016.454.781v.235H0v-3.875c0-1.328-.875-2.22-1.812-2.22M-5.094-5.22c.64 0 1.469.485 1.469 1.578v1.438h-2.437c-.329 0-.391-.016-.391-.485v-1.218c0-.969.844-1.313 1.36-1.313m3.266-.234c.703 0 1.516.516 1.516 1.531v1.235c0 .468-.063.484-.391.484h-2.703v-1.86c0-.984.922-1.39 1.578-1.39m0 0"/><clipPath id="c"><path d="M183 120h2v10.48h-2Zm0 0"/></clipPath><clipPath id="d"><path d="M177 129h14v1.48h-14Zm0 0"/></clipPath></defs><path fill="none" stroke="#000" stroke-miterlimit="10" stroke-width=".39669777" d="M8.781 120.223h17.805m0 0H62.19m0 0h26.707m0 0h17.805m0 0h26.707m0 0h53.414m0 0h35.606"/><path fill="#FFF" stroke="#000" stroke-miterlimit="10" stroke-width=".39669777" d="M10.36 120.223a1.579 1.579 0 1 0-3.158 0 1.579 1.579 0 0 0 3.157 0Zm0 0"/><path stroke="#000" stroke-miterlimit="10" stroke-width=".39669777" d="M45.965 120.223a1.575 1.575 0 1 0-3.152 0 1.576 1.576 0 1 0 3.152 0ZM81.574 120.223a1.579 1.579 0 1 0-3.157 0 1.579 1.579 0 0 0 3.157 0ZM99.379 120.223a1.579 1.579 0 1 0-3.158 0 1.579 1.579 0 0 0 3.158 0ZM117.184 120.223a1.579 1.579 0 1 0-3.158 0 1.579 1.579 0 0 0 3.158 0ZM152.793 120.223a1.579 1.579 0 1 0-3.157 0 1.579 1.579 0 0 0 3.157 0Zm0 0"/><path fill="#FFF" stroke="#000" stroke-miterlimit="10" stroke-width=".39669777" d="M224.008 120.223a1.579 1.579 0 1 0-3.155.001 1.579 1.579 0 0 0 3.155-.001Zm0 0"/><use xlink:href="#a" x="219.952" y="126.466"/><path fill="none" stroke="#000" stroke-miterlimit="10" stroke-width=".39669777" d="M8.781 49.004h7.832m19.942 0h23.144m4.985 0h24.214m0 0h17.805m0 0h24.215m4.984 0h24.215m0 0h8.903"/><path fill="none" stroke="#000" stroke-miterlimit="10" stroke-width=".79240131" d="M16.613 45.266h19.942v7.476H16.613Zm0 0"/><path fill="#FFF" stroke="#000" stroke-miterlimit="10" stroke-width=".39669777" d="M10.36 49.004a1.579 1.579 0 1 0-3.158.001 1.579 1.579 0 0 0 3.157-.001Zm0 0"/><path stroke="#000" stroke-miterlimit="10" stroke-width=".39669777" d="M45.965 49.004a1.575 1.575 0 1 0-3.152 0 1.576 1.576 0 1 0 3.152 0Zm0 0"/><path fill="none" stroke="#000" stroke-miterlimit="10" stroke-width=".79240131" d="M59.7 41.527v14.957m4.984-14.957v14.957"/><path stroke="#000" stroke-miterlimit="10" stroke-width=".39669777" d="M81.574 49.004a1.579 1.579 0 1 0-3.157.001 1.579 1.579 0 0 0 3.157-.001ZM99.379 49.004a1.579 1.579 0 1 0-3.158.001 1.579 1.579 0 0 0 3.158-.001ZM117.184 49.004a1.579 1.579 0 1 0-3.158.001 1.579 1.579 0 0 0 3.158-.001Zm0 0"/><path fill="none" stroke="#000" stroke-miterlimit="10" stroke-width=".79240131" d="M130.918 41.527v14.957m4.984-14.957v14.957"/><path stroke="#000" stroke-miterlimit="10" stroke-width=".39669777" d="M152.793 49.004a1.579 1.579 0 1 0-3.157.001 1.579 1.579 0 0 0 3.157-.001Zm0 0"/><path fill="none" stroke="#000" stroke-miterlimit="10" stroke-width=".79240131" d="M189 49.004a9.24 9.24 0 0 0-9.242-9.242 9.24 9.24 0 0 0-9.242 9.242c0 5.105 4.136 9.246 9.242 9.246 5.105 0 9.242-4.14 9.242-9.246Zm0 0"/><path fill="none" stroke="#000" stroke-miterlimit="10" stroke-width=".39669777" d="M183.973 35.098v8.422l-7.477 3.43"/><path fill="none" stroke="#000" stroke-miterlimit="10" stroke-width=".79240131" d="M176.496 43.52v10.968"/><path fill="none" stroke="#000" stroke-miterlimit="10" stroke-width=".39669777" d="m176.496 51.062 7.477 3.426v8.426"/><path d="m178.484 51.973.95-2.067 3.671 4.184-5.566-.05Zm0 0"/><path fill="none" stroke="#000" stroke-miterlimit="10" stroke-width=".39669777" d="M176.496 49.004h-7.676M151.215 49.004v-7.832m0-19.942v-7.835h16.379m0 0h16.379v10.953m0 0v10.949"/><path fill="none" stroke="#000" stroke-miterlimit="10" stroke-width=".79240131" d="M154.953 21.23v19.942h-7.476V21.23Zm0 0"/><path stroke="#000" stroke-miterlimit="10" stroke-width=".39669777" d="M152.793 13.395a1.579 1.579 0 1 0-3.157 0 1.579 1.579 0 0 0 3.157 0ZM185.55 13.395a1.579 1.579 0 1 0-3.155.001 1.579 1.579 0 0 0 3.156-.001Zm0 0"/><path fill="none" stroke="#000" stroke-miterlimit="10" stroke-width=".39669777" d="M151.215 13.395H133.41m0 0h-17.805v6.41m0 4.984v6.41"/><path fill="none" stroke="#000" stroke-miterlimit="10" stroke-width=".79240131" d="M123.082 19.805h-14.953m14.953 4.984h-14.953"/><path fill="none" stroke="#000" stroke-miterlimit="10" stroke-width=".39669777" d="M115.605 31.2v9.866"/><path fill="none" stroke="#000" stroke-linecap="round" stroke-miterlimit="10" stroke-width=".79240131" d="M109.688 41.066h11.835"/><path fill="none" stroke="#000" stroke-miterlimit="10" stroke-width=".39669777" d="M183.973 13.395h9.257m19.942 0h9.258"/><path fill="none" stroke="#000" stroke-miterlimit="10" stroke-width=".79240131" d="M193.23 9.656h19.942v7.48H193.23Zm0 0"/><path fill="#FFF" stroke="#000" stroke-miterlimit="10" stroke-width=".39669777" d="M224.008 13.395a1.579 1.579 0 1 0-3.155.001 1.579 1.579 0 0 0 3.155-.001Zm0 0"/><use xlink:href="#b" x="218.576" y="9.076"/><path fill="none" stroke="#000" stroke-miterlimit="10" stroke-width=".39669777" d="M44.39 49.004v30.625m0 9.969v30.625"/><path fill="none" stroke="#000" stroke-miterlimit="10" stroke-width=".79240131" d="m44.39 79.629 6.231 9.969H38.156Zm0 0"/><path fill="none" stroke="#000" stroke-miterlimit="10" stroke-width=".39669777" d="M44.39 79.629v9.969"/><path fill="none" stroke="#000" stroke-miterlimit="10" stroke-width=".79240131" d="M38.156 79.629h12.465"/><path fill="none" stroke="#000" stroke-miterlimit="10" stroke-width=".39669777" d="M79.996 49.004v25.64m0 19.938v25.64"/><path fill="none" stroke="#000" stroke-linejoin="bevel" stroke-miterlimit="10" stroke-width=".79240131" d="M79.84 74.246c2.062 0 3.738 1.16 3.738 2.594 0 1.43-1.676 2.59-3.738 2.59 2.062 0 3.738 1.16 3.738 2.593 0 1.43-1.676 2.59-3.738 2.59 2.062 0 3.738 1.16 3.738 2.59 0 1.434-1.676 2.594-3.738 2.594 2.062 0 3.738 1.16 3.738 2.59 0 1.433-1.676 2.593-3.738 2.593"/><path fill="none" stroke="#000" stroke-miterlimit="10" stroke-width=".39669777" d="M97.8 49.004V82.12m0 4.984v33.118"/><path fill="none" stroke="#000" stroke-miterlimit="10" stroke-width=".79240131" d="M105.281 82.121H90.324m14.957 4.984H90.324"/><path fill="none" stroke="#000" stroke-miterlimit="10" stroke-width=".39669777" d="M115.605 49.004v15.312m0 4.985v30.625m0 4.984v15.313"/><path fill="none" stroke="#000" stroke-miterlimit="10" stroke-width=".79240131" d="M123.082 64.316h-14.953m14.953 4.985h-14.953"/><path stroke="#000" stroke-miterlimit="10" stroke-width=".39669777" d="M117.184 84.613a1.579 1.579 0 1 0-3.158.002 1.579 1.579 0 0 0 3.158-.002Zm0 0"/><path fill="none" stroke="#000" stroke-miterlimit="10" stroke-width=".79240131" d="M123.082 99.926h-14.953m14.953 4.984h-14.953"/><path fill="none" stroke="#000" stroke-miterlimit="10" stroke-width=".39669777" d="M151.215 49.004v17.805m0 0v25.636m0 19.942v7.836"/><path fill="none" stroke="#000" stroke-miterlimit="10" stroke-width=".79240131" d="M147.477 112.387V92.445h7.476v19.942Zm0 0"/><path fill="none" stroke="#000" stroke-miterlimit="10" stroke-width=".39669777" d="M115.605 84.613h34.184m0 0h34.184V73.664m0 0v-10.95"/><path stroke="#000" stroke-miterlimit="10" stroke-width=".39669777" d="M185.55 84.613a1.579 1.579 0 1 0-3.155.001 1.579 1.579 0 0 0 3.156 0Zm0 0"/><path fill="none" stroke="#000" stroke-miterlimit="10" stroke-width=".39669777" d="M183.973 84.613v17.805m0 0v17.805"/><path stroke="#000" stroke-miterlimit="10" stroke-width=".39669777" d="M185.55 120.223a1.579 1.579 0 1 0-3.155.001 1.579 1.579 0 0 0 3.156-.001Zm0 0"/><g clip-path="url(#c)"><path fill="none" stroke="#000" stroke-miterlimit="10" stroke-width=".39669777" d="M183.973 120.223v9.863"/></g><g clip-path="url(#d)"><path fill="none" stroke="#000" stroke-linecap="round" stroke-miterlimit="10" stroke-width=".79240131" d="M178.055 130.086h11.84"/></g><path fill="none" stroke="#000" stroke-miterlimit="10" stroke-width=".39669777" d="M183.973 84.613h16.738m4.984 0h16.735"/><path fill="none" stroke="#000" stroke-miterlimit="10" stroke-width=".79240131" d="M200.711 77.137V92.09m4.984-14.953V92.09"/><path fill="#FFF" stroke="#000" stroke-miterlimit="10" stroke-width=".39669777" d="M224.008 84.613a1.579 1.579 0 1 0-3.155.001 1.579 1.579 0 0 0 3.155 0Zm0 0"/><path fill="none" stroke="#000" stroke-miterlimit="10" stroke-width=".39669777" d="M55.07 89.598v-4.274m0-1.422V79.63"/><path fill="none" stroke="#000" stroke-miterlimit="10" stroke-width=".79240131" d="M52.934 85.324h4.273m-4.273-1.422h4.273"/><use xlink:href="#e" x="11.257" y="101.052"/><use xlink:href="#f" x="11.257" y="93.623"/><use xlink:href="#g" x="11.257" y="87.155"/><use xlink:href="#h" x="11.257" y="82.202"/><use xlink:href="#h" x="11.257" y="75.19"/></svg>