<svg xmlns="http://www.w3.org/2000/svg" xmlns:xlink="http://www.w3.org/1999/xlink" width="232.283" height="179.527"><defs><path id="b" d="M2.922-6.36c0-.234 0-.265-.235-.265-.609.64-1.484.64-1.796.64v.313c.187 0 .78 0 1.297-.266V-.78c0 .36-.032.469-.922.469H.938V0c.359-.031 1.218-.031 1.609-.031.406 0 1.265 0 1.61.031v-.312h-.313c-.89 0-.922-.11-.922-.47Zm0 0"/><path id="d" d="M6.734-1.61h-.25c-.062.266-.093.485-.187.72-.047.171-.078.25-.656.25h-.797c.14-.563.437-1.032.89-1.688.47-.719.875-1.406.875-2.188C6.61-5.89 5.266-7 3.594-7 1.875-7 .563-5.875.563-4.516c0 .782.406 1.47.875 2.188.437.656.75 1.125.875 1.687h-.797C.938-.64.922-.719.859-.875c-.078-.234-.125-.484-.171-.734h-.25L.766 0h1.593c.22 0 .25 0 .25-.203 0-.703-.312-1.578-.546-2.219-.204-.562-.485-1.36-.485-2.094 0-1.593 1.094-2.265 2-2.265.953 0 2 .703 2 2.265 0 .735-.266 1.5-.547 2.313-.156.422-.468 1.312-.468 2 0 .203.03.203.25.203h1.593Zm0 0"/><path id="f" d="M6.172-5.812c.14-.375.406-.657 1.078-.672v-.297c-.297.015-.703.031-.953.031-.297 0-.875-.031-1.14-.031v.297c.515.015.734.265.734.5 0 .078-.032.14-.063.203L4.016-1 2.109-6.016c-.046-.14-.046-.156-.046-.171 0-.297.562-.297.812-.297v-.297c-.36.031-1.047.031-1.422.031-.484 0-.906-.031-1.265-.031v.297c.64 0 .843 0 .968.375L3.47 0c.062.188.125.219.25.219.172 0 .187-.047.234-.188Zm0 0"/><path id="h" d="M2.875-3.5c.828-.266 1.39-.969 1.39-1.75 0-.812-.859-1.375-1.827-1.375-1 0-1.75.61-1.75 1.36 0 .327.218.515.5.515.312 0 .515-.219.515-.5 0-.5-.469-.5-.625-.5.313-.484.969-.625 1.328-.625.406 0 .953.219.953 1.125 0 .11-.015.688-.28 1.125-.298.484-.642.5-.876.516a3.9 3.9 0 0 1-.39.03c-.079.017-.157.017-.157.126 0 .11.078.11.235.11h.437c.828 0 1.188.671 1.188 1.64 0 1.36-.688 1.64-1.125 1.64-.422 0-1.172-.171-1.516-.75.344.047.656-.171.656-.546 0-.36-.265-.563-.562-.563-.235 0-.547.14-.547.578 0 .907.922 1.563 2 1.563 1.219 0 2.125-.906 2.125-1.922 0-.813-.625-1.594-1.672-1.797m0 0"/><path id="j" d="M4.734-6.047c.079-.125.079-.14.079-.36H2.406c-1.219 0-1.234-.124-1.265-.312H.89L.563-4.672h.25c.015-.156.109-.781.234-.906.078-.063.844-.063.984-.063h2.047c-.11.172-.89 1.25-1.11 1.579C2.079-2.72 1.75-1.344 1.75-.328c0 .094 0 .547.453.547s.453-.453.453-.547v-.5c0-.547.031-1.094.11-1.64.046-.22.187-1.079.625-1.688Zm0 0"/><path id="k" d="M2.39-6.562c-.078-.22-.109-.22-.343-.22H.375v.298h.234c.766 0 .782.109.782.468v4.97c0 .265 0 .734-1.016.734V0c.344-.016.828-.031 1.156-.031.328 0 .813.015 1.157.031v-.312c-1.016 0-1.016-.47-1.016-.735v-5.36L4.078-.218c.047.125.094.219.188.219.109 0 .14-.078.187-.187l2.438-6.297h.015v5.703c0 .36-.015.469-.781.469h-.234V0c.359-.031 1.03-.031 1.422-.031.39 0 1.062 0 1.421.031v-.312H8.5c-.766 0-.781-.11-.781-.47v-5.234c0-.359.015-.468.781-.468h.234v-.297H7.063c-.266 0-.266 0-.329.187L4.547-1Zm0 0"/><path id="l" d="M6.094-6.016c0-.359.015-.468.781-.468h.234v-.297c-.343.031-1.078.031-1.453.031s-1.125 0-1.468-.031v.297h.234c.766 0 .781.109.781.468v2.329H2.234v-2.329c0-.359.016-.468.782-.468h.25v-.297c-.36.031-1.094.031-1.47.031-.374 0-1.124 0-1.468-.031v.297h.235c.765 0 .78.109.78.468V-.78c0 .36-.015.469-.78.469H.328V0c.344-.031 1.078-.031 1.453-.031.39 0 1.125 0 1.485.031v-.312h-.25c-.766 0-.782-.11-.782-.47v-2.593h2.97v2.594c0 .36-.016.469-.782.469h-.234V0C4.53-.031 5.266-.031 5.64-.031s1.125 0 1.468.031v-.312h-.234c-.766 0-.781-.11-.781-.47Zm0 0"/><path id="m" d="M3.875-3.984c.094-.11.094-.125.094-.172 0-.125-.078-.125-.266-.125H.531l-.11 1.593h.25C.72-3.702.922-4.062 2-4.062h1.14L.376-.312c-.094.109-.094.125-.094.171C.281 0 .344 0 .531 0h3.282l.171-1.86h-.25C3.641-.686 3.438-.25 2.281-.25H1.11Zm0 0"/><path id="o" d="M1.047-.75c0 .438-.11.438-.766.438V0c.328-.016.797-.031 1.078-.031.297 0 .704.015 1.094.031v-.312c-.672 0-.781 0-.781-.438v-1.031l.64-.547C3.079-1.266 3.5-.718 3.5-.531c0 .187-.172.219-.36.219V0C3.423-.016 4-.031 4.22-.031c.281 0 .578.015.86.031v-.312c-.376 0-.595 0-.97-.516L2.86-2.61c-.015-.032-.062-.079-.062-.11 0-.047.703-.64.797-.719.625-.5 1.047-.53 1.25-.53v-.313c-.282.031-.407.031-.688.031-.36 0-.968-.016-1.11-.031v.312c.188 0 .282.11.282.235 0 .203-.14.328-.219.39L1.703-2.125v-4.766l-1.422.11v.297c.688 0 .766.078.766.562Zm0 0"/><path id="c" d="M5.078 0v-.312c-.375 0-.594 0-.969-.516L2.86-2.61c-.015-.032-.062-.079-.062-.11 0-.047.703-.64.797-.719.625-.5 1.047-.53 1.25-.53v-.313c-.282.031-.407.031-.688.031-.36 0-.968-.016-1.11-.031v.312c.188 0 .282.11.282.235 0 .203-.14.328-.219.39L1.703-2.125v-4.766l-1.422.11v.297c.688 0 .766.078.766.562V-.75c0 .438-.11.438-.766.438V0L1.36-.031 2.453 0v-.312c-.672 0-.781 0-.781-.438v-1.031l.64-.547C3.079-1.266 3.5-.718 3.5-.531c0 .187-.172.219-.36.219V0L4.22-.031c.281 0 .578.015.86.031m0 0"/><path id="p" d="M7.125 0v-.312h-.172c-.61 0-.734-.063-.844-.391L3.953-6.922c-.047-.125-.062-.187-.219-.187-.171 0-.203.046-.25.187L1.438-.969c-.188.5-.579.657-1.125.657V0l1.015-.031L2.468 0v-.312c-.484 0-.734-.25-.734-.5 0-.032 0-.125.016-.157l.453-1.297h2.453L5.188-.75a.58.58 0 0 1 .03.14c0 .298-.562.298-.827.298V0c.359-.031 1.062-.031 1.437-.031ZM4.547-2.578H2.313l1.109-3.219Zm0 0"/><path id="q" d="M5.313 0v-.312c-.688 0-.766-.063-.766-.547v-3.532l-1.469.11v.312c.703 0 .781.063.781.547v1.766c0 .875-.484 1.547-1.203 1.547-.844 0-.875-.47-.875-.985V-4.39l-1.468.11v.312c.78 0 .78.031.78.906v1.5c0 .766 0 1.672 1.516 1.672.547 0 .985-.28 1.282-.89v.89Zm0 0"/><path id="r" d="M3.578-1.266c0-.53-.297-.828-.422-.953-.328-.312-.719-.39-1.125-.469-.562-.109-1.219-.25-1.219-.828 0-.343.25-.75 1.11-.75 1.094 0 1.14.891 1.156 1.204.016.093.125.093.125.093.125 0 .125-.047.125-.234V-4.22c0-.156 0-.234-.11-.234-.046 0-.062 0-.202.125l-.157.156c-.39-.281-.796-.281-.937-.281-1.219 0-1.594.672-1.594 1.219 0 .359.156.625.422.843.328.266.594.329 1.313.47.218.03 1.03.187 1.03.905 0 .516-.343.907-1.109.907-.843 0-1.203-.563-1.39-1.407-.031-.14-.031-.171-.14-.171-.126 0-.126.062-.126.25v1.312c0 .172 0 .234.11.234C.484.11.5.094.688-.094.703-.109.703-.125.89-.312a1.51 1.51 0 0 0 1.093.421c1.141 0 1.594-.671 1.594-1.375m0 0"/><path id="s" d="M4.813-4.016c0-.171-.11-.484-.5-.484-.204 0-.641.063-1.047.469a1.689 1.689 0 0 0-1.063-.36c-.922 0-1.61.688-1.61 1.454 0 .437.22.812.47 1.015-.125.156-.313.484-.313.828 0 .313.14.688.438.89C.594-.046.28.392.28.782c0 .719.985 1.266 2.188 1.266 1.172 0 2.219-.5 2.219-1.281 0-.344-.141-.86-.657-1.141-.515-.266-1.093-.266-1.703-.266-.25 0-.672 0-.75-.015-.312-.047-.531-.344-.531-.672 0-.031 0-.266.172-.453.39.265.797.297.984.297.922 0 1.61-.688 1.61-1.453 0-.36-.157-.735-.407-.954.36-.343.719-.39.89-.39 0 0 .079 0 .11.015-.11.032-.156.141-.156.266a.27.27 0 0 0 .281.281.28.28 0 0 0 .282-.297M3.077-2.937c0 .265-.015.578-.172.828-.078.125-.297.406-.703.406-.86 0-.86-1-.86-1.234 0-.266 0-.579.157-.829a.846.846 0 0 1 .703-.39c.875 0 .875.984.875 1.218M4.156.78c0 .547-.703 1.031-1.672 1.031-1 0-1.687-.5-1.687-1.03 0-.454.375-.829.812-.844h.594c.844 0 1.953 0 1.953.843m0 0"/><path id="t" d="M4.797-.89v-.547h-.25v.546c0 .579-.25.641-.36.641-.328 0-.359-.453-.359-.5v-1.984c0-.422 0-.797-.36-1.172-.39-.39-.89-.547-1.359-.547-.812 0-1.5.469-1.5 1.125 0 .297.204.469.454.469a.435.435 0 0 0 .453-.453c0-.126-.047-.454-.5-.47.265-.343.75-.452 1.078-.452.484 0 1.047.39 1.047 1.265v.375c-.5.031-1.203.063-1.828.36-.75.343-1 .859-1 1.297 0 .796.968 1.046 1.593 1.046.657 0 1.11-.39 1.297-.859.047.39.313.813.781.813.204 0 .813-.141.813-.954m-1.656-.5c0 .937-.72 1.28-1.157 1.28-.5 0-.906-.343-.906-.843 0-.547.422-1.375 2.063-1.438Zm0 0"/><path id="u" d="M5.313 0v-.312c-.516 0-.766 0-.766-.297V-2.5c0-.86 0-1.172-.313-1.531-.14-.157-.468-.36-1.046-.36-.72 0-1.188.422-1.47 1.047V-4.39l-1.405.11v.312c.703 0 .78.063.78.547V-.75c0 .438-.109.438-.78.438V0l1.125-.031L2.547 0v-.312c-.656 0-.766 0-.766-.438v-1.828c0-1.047.703-1.594 1.344-1.594.625 0 .734.531.734 1.094V-.75c0 .438-.109.438-.78.438V0l1.124-.031Zm0 0"/><path id="g" d="M4.86-3.078c0-.156-.063-.281-.235-.281-.11 0-.219.093-.219.203-.031.39-.25 1-.703 1-.656 0-1.094-1.219-2-1.219C.781-3.375.563-2.235.563-2c0 .125.046.281.218.281a.25.25 0 0 0 .235-.203c.03-.39.234-1 .687-1 .656 0 1.094 1.219 2 1.219.922 0 1.156-1.156 1.156-1.375m0 0"/><path id="x" d="M4.625-3.656H.781c-.125 0-.219.094-.219.234 0 .125.094.219.22.219h3.843c.14 0 .234-.094.234-.219 0-.14-.093-.234-.234-.234m0 1.781H.781a.214.214 0 0 0-.219.219c0 .14.094.234.22.234h3.843c.14 0 .234-.094.234-.234 0-.125-.093-.219-.234-.219m0 0"/><path id="i" d="M2.016-.016c0-.656-.25-1.03-.641-1.03-.328 0-.516.234-.516.515 0 .265.188.531.516.531.125 0 .25-.047.36-.125.03-.031.03-.031.046-.031 0 0 .016 0 .016.14 0 .735-.344 1.344-.672 1.672-.11.11-.11.125-.11.157 0 .062.048.109.094.109.11 0 .907-.766.907-1.938m0 0"/><path id="v" d="M3.64-3.969h.86c.203 0 .297 0 .297-.203 0-.11-.094-.11-.266-.11h-.828l.219-1.14c.031-.203.172-.906.234-1.031.094-.188.25-.328.469-.328.031 0 .297 0 .484.172-.437.046-.53.39-.53.53 0 .235.171.36.359.36.265 0 .546-.218.546-.593 0-.47-.453-.688-.859-.688-.344 0-.969.172-1.266 1.156-.062.203-.093.313-.328 1.563h-.687c-.188 0-.297 0-.297.187 0 .125.094.125.281.125h.656l-.75 3.922c-.171.969-.343 1.86-.859 1.86-.047 0-.297 0-.484-.172a.544.544 0 0 0 .547-.532c0-.234-.172-.359-.36-.359-.266 0-.547.219-.547.594 0 .453.438.687.844.687.547 0 .938-.578 1.125-.953.313-.625.547-1.828.547-1.906Zm0 0"/><path id="w" d="M3.672-1.484c0-.86-.735-1.61-1.703-1.61-.953 0-1.703.75-1.703 1.61 0 .859.765 1.547 1.703 1.547.937 0 1.703-.688 1.703-1.547M1.969-.156c-.25 0-.625-.078-.86-.422-.187-.281-.203-.64-.203-.969 0-.297 0-.703.25-1 .172-.203.469-.36.813-.36.422 0 .703.188.86.407.202.281.218.625.218.953 0 .344-.016.703-.219.984-.187.266-.515.407-.86.407m0 0"/><clipPath id="a"><path d="M12.965 25.426h15.82v6.328h-15.82Zm0 6.328h6.328v3.168h-6.328Zm0 3.168h15.82v6.328h-15.82Zm0 0"/></clipPath><clipPath id="e"><path d="M198.527 63.496h15.825v6.328h-15.825Zm9.496 6.328h6.329v3.164h-6.329Zm-9.496 3.164h15.825v6.328h-15.825Zm0 0"/></clipPath><clipPath id="n"><path d="M12.965 101.563h15.82v6.332h-15.82Zm0 6.332h6.328v3.164h-6.328Zm0 3.164h15.82v6.328h-15.82Zm0 0"/></clipPath></defs><path fill="none" stroke="#000" stroke-miterlimit="10" stroke-width=".39777108000000005" d="M24.832 33.336h9.55m31.653 0h9.555V52.37m0 0v19.035h17.465m15.824 0h38.89m7.915 0h34.109m0 0h12.691"/><g clip-path="url(#a)"><path fill="none" stroke="#000" stroke-miterlimit="10" stroke-width=".79454524" d="M24.832 33.336a3.956 3.956 0 0 0-3.957-3.953 3.956 3.956 0 1 0 3.957 3.953Zm0 0"/></g><path fill="none" stroke="#000" stroke-miterlimit="10" stroke-width=".79454524" d="M22.457 33.336a1.583 1.583 0 1 0-3.166.002 1.583 1.583 0 0 0 3.166-.002Zm0 0"/><path fill="none" stroke="#000" stroke-miterlimit="10" stroke-width=".39777108000000005" d="M22.457 33.336h2.375"/><path fill="none" stroke="#000" stroke-miterlimit="10" stroke-width=".79454524" d="M34.383 27.402h31.652v11.871H34.383Zm0 0"/><use xlink:href="#b" x="39.864" y="49.814"/><use xlink:href="#c" x="48.137" y="49.814"/><use xlink:href="#d" x="53.381" y="49.814"/><path stroke="#000" stroke-miterlimit="10" stroke-width=".39777108000000005" d="M77.172 71.406a1.583 1.583 0 1 0-3.166.002 1.583 1.583 0 0 0 3.166-.002Zm0 0"/><path fill="none" stroke="#000" stroke-miterlimit="10" stroke-width=".79454524" d="m108.879 71.406-15.824-9.89v19.78Zm0 0"/><path fill="none" stroke="#000" stroke-miterlimit="10" stroke-width=".39777108000000005" d="M108.879 71.406H93.055"/><path fill="none" stroke="#000" stroke-miterlimit="10" stroke-width=".79454524" d="M108.879 81.297V61.516"/><path stroke="#000" stroke-miterlimit="10" stroke-width=".39777108000000005" d="M127.93 71.406a1.583 1.583 0 1 0-3.166.002 1.583 1.583 0 0 0 3.166-.002Zm0 0"/><path fill="none" stroke="#000" stroke-miterlimit="10" stroke-width=".79454524" d="M147.77 59.54v23.737m7.914-23.738v23.738"/><path stroke="#000" stroke-miterlimit="10" stroke-width=".39777108000000005" d="M178.688 71.406a1.58 1.58 0 0 0-1.582-1.582 1.58 1.58 0 0 0-1.583 1.582 1.58 1.58 0 0 0 1.583 1.582 1.58 1.58 0 0 0 1.582-1.582Zm0 0"/><g clip-path="url(#e)"><path fill="none" stroke="#000" stroke-miterlimit="10" stroke-width=".79454524" d="M202.484 71.406a3.956 3.956 0 1 1 7.91 0 3.956 3.956 0 1 1-7.91 0Zm0 0"/></g><path fill="none" stroke="#000" stroke-miterlimit="10" stroke-width=".79454524" d="M204.86 71.406a1.583 1.583 0 1 1 3.162.002 1.583 1.583 0 0 1-3.163-.002Zm0 0"/><path fill="none" stroke="#000" stroke-miterlimit="10" stroke-width=".39777108000000005" d="M204.86 71.406h-2.376"/><use xlink:href="#b" x="9.504" y="25.873"/><use xlink:href="#f" x="15.94" y="25.873"/><use xlink:href="#g" x="26.835" y="25.873"/><use xlink:href="#h" x="3.311" y="10.137"/><use xlink:href="#i" x="8.276" y="10.137"/><use xlink:href="#j" x="11.035" y="10.137"/><use xlink:href="#k" x="17.471" y="10.137"/><use xlink:href="#l" x="26.576" y="10.137"/><use xlink:href="#m" x="34.024" y="10.137"/><path fill="none" stroke="#000" stroke-miterlimit="10" stroke-width=".39777108000000005" d="M75.59 71.406v38.07h-9.555m-31.652 0h-9.551"/><path fill="none" stroke="#000" stroke-miterlimit="10" stroke-width=".79454524" d="M34.383 103.54h31.652v11.87H34.383Zm0 0"/><use xlink:href="#b" x="39.864" y="125.95"/><use xlink:href="#c" x="48.137" y="125.95"/><use xlink:href="#d" x="53.381" y="125.95"/><g clip-path="url(#n)"><path fill="none" stroke="#000" stroke-miterlimit="10" stroke-width=".79454524" d="M24.832 109.477a3.957 3.957 0 1 0-7.914 0 3.956 3.956 0 0 0 3.957 3.953 3.956 3.956 0 0 0 3.957-3.953Zm0 0"/></g><path fill="none" stroke="#000" stroke-miterlimit="10" stroke-width=".79454524" d="M22.457 109.477a1.58 1.58 0 0 0-1.582-1.582 1.583 1.583 0 1 0 1.582 1.582Zm0 0"/><path fill="none" stroke="#000" stroke-miterlimit="10" stroke-width=".39777108000000005" d="M22.457 109.477h2.375"/><use xlink:href="#b" x="9.504" y="102.01"/><use xlink:href="#f" x="15.94" y="102.01"/><use xlink:href="#g" x="26.835" y="102.01"/><use xlink:href="#b" x="9.104" y="88.204"/><use xlink:href="#o" x="15.54" y="88.204"/><use xlink:href="#l" x="20.782" y="88.204"/><use xlink:href="#m" x="28.231" y="88.204"/><path fill="none" stroke="#000" stroke-miterlimit="10" stroke-width=".39777108000000005" d="M126.348 71.406v12.692m0 0v22.242m0 31.648v9.555"/><path fill="none" stroke="#000" stroke-linejoin="bevel" stroke-miterlimit="10" stroke-width=".79454524" d="M126.188 105.941c3.277 0 5.933 1.817 5.933 4.055 0 2.242-2.656 4.059-5.933 4.059 3.277 0 5.933 1.812 5.933 4.054 0 2.239-2.656 4.055-5.933 4.055 3.277 0 5.933 1.816 5.933 4.055 0 2.242-2.656 4.058-5.933 4.058 3.277 0 5.933 1.813 5.933 4.055 0 2.238-2.656 4.055-5.933 4.055"/><path fill="none" stroke="#000" stroke-miterlimit="10" stroke-width=".39777108000000005" d="M126.348 147.543v9.89"/><path fill="none" stroke="#000" stroke-linecap="round" stroke-miterlimit="10" stroke-width=".79454524" d="M120.414 157.434h11.867"/><path fill="none" stroke="#000" stroke-miterlimit="10" stroke-width=".39777108000000005" d="M20.875 37.293v9.89"/><path fill="none" stroke="#000" stroke-linecap="round" stroke-miterlimit="10" stroke-width=".79454524" d="M14.941 47.184H26.81"/><path fill="none" stroke="#000" stroke-miterlimit="10" stroke-width=".39777108000000005" d="M206.441 75.363v9.89"/><path fill="none" stroke="#000" stroke-linecap="round" stroke-miterlimit="10" stroke-width=".79454524" d="M200.504 85.254h11.871"/><path fill="none" stroke="#000" stroke-miterlimit="10" stroke-width=".39777108000000005" d="M20.875 113.43v9.89"/><path fill="none" stroke="#000" stroke-linecap="round" stroke-miterlimit="10" stroke-width=".79454524" d="M14.941 123.32H26.81"/><path fill="none" stroke="#000" stroke-dasharray="2.9796244036000004 1.9864129460000002" stroke-miterlimit="10" stroke-width=".39777108000000005" d="M134.27 106.34v31.648"/><path fill="none" stroke="#000" stroke-miterlimit="10" stroke-width=".39777108000000005" d="M177.106 71.406v25.38H158.07v9.554m0 31.648v9.555"/><path stroke="#000" stroke-miterlimit="10" stroke-width=".39777108000000005" d="M178.688 96.785a1.58 1.58 0 0 0-1.582-1.582 1.58 1.58 0 0 0-1.583 1.582 1.58 1.58 0 0 0 1.583 1.582 1.58 1.58 0 0 0 1.582-1.582Zm0 0"/><path fill="none" stroke="#000" stroke-linejoin="bevel" stroke-miterlimit="10" stroke-width=".79454524" d="M157.91 105.941c3.278 0 5.938 1.817 5.938 4.055 0 2.242-2.66 4.059-5.938 4.059 3.278 0 5.938 1.812 5.938 4.054 0 2.239-2.66 4.055-5.938 4.055 3.278 0 5.938 1.816 5.938 4.055 0 2.242-2.66 4.058-5.938 4.058 3.278 0 5.938 1.813 5.938 4.055 0 2.238-2.66 4.055-5.938 4.055"/><path fill="none" stroke="#000" stroke-miterlimit="10" stroke-width=".39777108000000005" d="M158.07 147.543v9.89"/><path fill="none" stroke="#000" stroke-linecap="round" stroke-miterlimit="10" stroke-width=".79454524" d="M152.137 157.434h11.867"/><path fill="none" stroke="#000" stroke-dasharray="2.9796244036000004 1.9864129460000002" stroke-miterlimit="10" stroke-width=".39777108000000005" d="M165.992 106.34v31.648"/><path fill="none" stroke="#000" stroke-miterlimit="10" stroke-width=".39777108000000005" d="M177.106 96.785h19.035v21.422m0 7.914v21.422"/><path fill="none" stroke="#000" stroke-miterlimit="10" stroke-width=".79454524" d="M208.008 118.207H184.27m23.738 7.914H184.27"/><path fill="none" stroke="#000" stroke-miterlimit="10" stroke-width=".39777108000000005" d="M196.14 147.543v9.89"/><path fill="none" stroke="#000" stroke-linecap="round" stroke-miterlimit="10" stroke-width=".79454524" d="M190.203 157.434h11.871"/><use xlink:href="#p" x="187.925" y="61.896"/><use xlink:href="#q" x="195.096" y="61.896"/><use xlink:href="#r" x="200.618" y="61.896"/><use xlink:href="#s" x="204.531" y="61.896"/><use xlink:href="#t" x="209.497" y="61.896"/><use xlink:href="#u" x="214.463" y="61.896"/><use xlink:href="#s" x="219.985" y="61.896"/><use xlink:href="#v" x="149.722" y="173.773"/><use xlink:href="#w" x="154.585" y="175.263"/><use xlink:href="#x" x="161.493" y="173.773"/><use xlink:href="#h" x="169.355" y="173.773"/><use xlink:href="#i" x="174.321" y="173.773"/><use xlink:href="#j" x="177.08" y="173.773"/><use xlink:href="#k" x="183.516" y="173.773"/><use xlink:href="#l" x="192.621" y="173.773"/><use xlink:href="#m" x="200.07" y="173.773"/></svg>