<svg xmlns="http://www.w3.org/2000/svg" xmlns:xlink="http://www.w3.org/1999/xlink" width="234.286" height="88.287"><defs><path id="a" d="M5.531-2.64h-.234C5.219-1.267 5.03-.345 3.187-.345H1.579l3.828-6.062c.078-.11.078-.125.078-.188 0-.156-.062-.156-.265-.156H.797l-.11 2.219h.25c.063-1.11.36-1.922 1.985-1.922h1.547L.625-.36C.547-.25.547-.25.547-.172.547 0 .609 0 .812 0h4.563Zm0 0"/><path id="b" d="M6.031-4.5 5.75-6.719H.328v.297h.235c.765 0 .78.11.78.469v5.187c0 .344-.015.454-.78.454H.328V0c.344-.031 1.11-.031 1.5-.031.406 0 1.313 0 1.656.031v-.312h-.312c-.953 0-.953-.125-.953-.47v-2.437h.86c.952 0 1.046.328 1.046 1.156h.25v-2.609h-.25c0 .828-.094 1.156-1.047 1.156h-.86v-2.5c0-.328.032-.406.485-.406h1.188c1.484 0 1.734.563 1.89 1.922Zm0 0"/><path id="e" d="M7.125-2.469c0-.203-.187-.203-.312-.203H4.047v-2.765c0-.141 0-.329-.203-.329-.188 0-.188.188-.188.329v2.765H.875c-.14 0-.328 0-.328.203 0 .188.187.188.328.188h2.781V.5c0 .14 0 .328.188.328.203 0 .203-.187.203-.328v-2.781h2.766c.125 0 .312 0 .312-.188m0 0"/><path id="f" d="M7.078-6.453v-.297l-1.156.031-1.156-.031v.297c1.015 0 1.015.469 1.015.734V-1.5L2.297-6.625C2.203-6.75 2.203-6.75 2-6.75H.328v.297H.61c.157 0 .344.016.5.031.22.016.235.031.235.219v5.172c0 .265 0 .718-1.016.718V0l1.156-.031L2.641 0v-.312c-1.016 0-1.016-.454-1.016-.72v-5.155c.047.062.063.062.094.125L5.75-.125c.094.11.11.125.172.125.14 0 .14-.062.14-.25v-5.469c0-.265 0-.734 1.016-.734m0 0"/><clipPath id="c"><path d="M143 77h1v10.578h-1Zm0 0"/></clipPath><clipPath id="d"><path d="M137 86h13v1.578h-13Zm0 0"/></clipPath></defs><path fill="none" stroke="#000" stroke-linejoin="bevel" stroke-miterlimit="10" stroke-width=".79061603" d="M45.598 41.754c2.535 0 4.59 1.414 4.59 3.16 0 1.742-2.055 3.156-4.59 3.156 2.535 0 4.59 1.414 4.59 3.16 0 1.747-2.055 3.16-4.59 3.16 2.535 0 4.59 1.415 4.59 3.16 0 1.743-2.055 3.157-4.59 3.157 2.535 0 4.59 1.418 4.59 3.16 0 1.746-2.055 3.16-4.59 3.16M64.277 67.027c-2.535 0-4.59-1.414-4.59-3.16 0-1.742 2.055-3.156 4.59-3.156-2.535 0-4.59-1.418-4.59-3.16 0-1.746 2.055-3.16 4.59-3.16-2.535 0-4.59-1.414-4.59-3.16 0-1.743 2.055-3.16 4.59-3.16-2.535 0-4.59-1.415-4.59-3.157 0-1.746 2.055-3.16 4.59-3.16"/><path fill="none" stroke="#000" stroke-miterlimit="10" stroke-width=".39580401000000004" d="M31.984 31.438h13.774v10.71m0 24.485v10.71H31.984m45.907-45.905H64.12v10.71m0 24.485v10.71h13.77"/><path fill="none" stroke="#000" stroke-miterlimit="10" stroke-width=".79061603" d="M56.086 65.867V42.914m-2.297 22.953V42.914"/><path fill="none" stroke="#000" stroke-miterlimit="10" stroke-width=".39580401000000004" d="M41.168 69.691 68.512 39.31"/><path fill="none" stroke="#000" stroke-miterlimit="10" stroke-width=".39579204" d="m66.887 37.715 3.379 3.039"/><path fill="none" stroke="#000" stroke-miterlimit="10" stroke-width=".39580401000000004" d="M31.984 31.438v19.89m0 6.121v19.895"/><path fill="none" stroke="#000" stroke-miterlimit="10" stroke-width=".79061603" d="M41.168 51.328H22.805m18.363 6.121H22.805"/><path stroke="#000" stroke-miterlimit="10" stroke-width=".39580401000000004" d="M33.559 31.438c0-.872-.704-1.575-1.575-1.575-.87 0-1.574.703-1.574 1.575 0 .87.703 1.574 1.574 1.574.871 0 1.575-.703 1.575-1.574ZM33.559 77.344c0-.871-.704-1.574-1.575-1.574-.87 0-1.574.703-1.574 1.574 0 .87.703 1.574 1.574 1.574.871 0 1.575-.703 1.575-1.574Zm0 0"/><path fill="none" stroke="#000" stroke-miterlimit="10" stroke-width=".39580401000000004" d="M31.984 31.438h-10.93m0 0H10.126"/><path fill="#FFF" stroke="#000" stroke-miterlimit="10" stroke-width=".39580401000000004" d="M11.7 31.438a1.575 1.575 0 1 0-3.15 0 1.575 1.575 0 0 0 3.15 0Zm0 0"/><path fill="none" stroke="#000" stroke-miterlimit="10" stroke-width=".39580401000000004" d="M31.984 77.344h-10.93m0 0H10.126"/><path fill="#FFF" stroke="#000" stroke-miterlimit="10" stroke-width=".39580401000000004" d="M11.7 77.344a1.575 1.575 0 1 0-3.15 0 1.575 1.575 0 0 0 3.15 0Zm0 0"/><use xlink:href="#a" x="3.879" y="57.764"/><use xlink:href="#b" x="9.917" y="57.764"/><path fill="none" stroke="#000" stroke-miterlimit="10" stroke-width=".39580401000000004" d="M77.89 31.438v19.89m0 6.121v19.895"/><path fill="none" stroke="#000" stroke-miterlimit="10" stroke-width=".79061603" d="M87.074 51.328H68.711m18.363 6.121H68.711"/><path stroke="#000" stroke-miterlimit="10" stroke-width=".39580401000000004" d="M79.465 31.438a1.575 1.575 0 1 0-3.148 0 1.575 1.575 0 0 0 3.148 0ZM79.465 77.344a1.575 1.575 0 1 0-3.148 0 1.575 1.575 0 0 0 3.148 0Zm0 0"/><path fill="none" stroke="#000" stroke-miterlimit="10" stroke-width=".39580401000000004" d="M77.89 31.438h15.743m12.238 0h26.672m0 0h20.547m24.484 0h20.551m0 0h10.93"/><path fill="none" stroke="#000" stroke-miterlimit="10" stroke-width=".79061603" d="m105.871 31.438-12.238-7.653V39.09Zm0 0"/><path fill="none" stroke="#000" stroke-miterlimit="10" stroke-width=".39580401000000004" d="M105.871 31.438H93.633"/><path fill="none" stroke="#000" stroke-miterlimit="10" stroke-width=".79061603" d="M105.871 39.09V23.785"/><path stroke="#000" stroke-miterlimit="10" stroke-width=".39580401000000004" d="M123.188 31.438a1.575 1.575 0 1 0-3.15 0 1.575 1.575 0 0 0 3.15 0ZM145.047 31.438c0-.872-.703-1.575-1.574-1.575-.871 0-1.575.703-1.575 1.575 0 .87.704 1.574 1.575 1.574.87 0 1.574-.703 1.574-1.574Zm0 0"/><path fill="none" stroke="#000" stroke-miterlimit="10" stroke-width=".79061603" d="M153.09 26.848h24.484v9.18H153.09Zm0 0"/><path stroke="#000" stroke-miterlimit="10" stroke-width=".39580401000000004" d="M188.77 31.438c0-.872-.707-1.575-1.575-1.575a1.575 1.575 0 1 0 1.575 1.575Zm0 0"/><path fill="#FFF" stroke="#000" stroke-miterlimit="10" stroke-width=".39580401000000004" d="M210.629 31.438a1.575 1.575 0 1 0-3.15 0 1.575 1.575 0 0 0 3.15 0Zm0 0"/><path fill="none" stroke="#000" stroke-miterlimit="10" stroke-width=".39580401000000004" d="M77.89 77.344h21.86m0 0h32.793m0 0h32.79m0 0h32.792m0 0h10.93"/><path stroke="#000" stroke-miterlimit="10" stroke-width=".39580401000000004" d="M123.188 77.344a1.575 1.575 0 1 0-3.15 0 1.575 1.575 0 0 0 3.15 0ZM145.047 77.344c0-.871-.703-1.574-1.574-1.574-.871 0-1.575.703-1.575 1.574 0 .87.704 1.574 1.575 1.574.87 0 1.574-.703 1.574-1.574Zm0 0"/><g clip-path="url(#c)"><path fill="none" stroke="#000" stroke-miterlimit="10" stroke-width=".39580401000000004" d="M143.473 77.344v9.844"/></g><g clip-path="url(#d)"><path fill="none" stroke="#000" stroke-linecap="round" stroke-miterlimit="10" stroke-width=".79061603" d="M137.566 87.188h11.813"/></g><path stroke="#000" stroke-miterlimit="10" stroke-width=".39580401000000004" d="M188.77 77.344c0-.871-.707-1.574-1.575-1.574a1.575 1.575 0 1 0 1.575 1.574Zm0 0"/><path fill="#FFF" stroke="#000" stroke-miterlimit="10" stroke-width=".39580401000000004" d="M210.629 77.344a1.575 1.575 0 1 0-3.15 0 1.575 1.575 0 0 0 3.15 0Zm0 0"/><path fill="none" stroke="#000" stroke-miterlimit="10" stroke-width=".39580401000000004" d="M121.613 31.438v19.89m0 6.121v19.895"/><path fill="none" stroke="#000" stroke-miterlimit="10" stroke-width=".79061603" d="M130.793 51.328H112.43m18.363 6.121H112.43"/><path fill="none" stroke="#000" stroke-miterlimit="10" stroke-width=".39580401000000004" d="M143.473 31.438v10.71m0 24.485v10.71"/><path fill="none" stroke="#000" stroke-miterlimit="10" stroke-width=".79061603" d="M138.883 66.633V42.148h9.18v24.485Zm0 0"/><path fill="none" stroke="#000" stroke-miterlimit="10" stroke-width=".39580401000000004" d="M187.195 31.438v19.89m0 6.121v19.895"/><path fill="none" stroke="#000" stroke-miterlimit="10" stroke-width=".79061603" d="M196.375 51.328h-18.363m18.363 6.121h-18.363"/><use xlink:href="#e" x="174.165" y="47.017"/><path fill="none" stroke="#000" stroke-miterlimit="10" stroke-width=".39580401000000004" d="M143.473 31.438v-10.93m0 0V9.578h29.73m6.121 0h29.73"/><path fill="none" stroke="#000" stroke-miterlimit="10" stroke-width=".79061603" d="M173.203.395v18.363M179.324.395v18.363"/><path fill="#FFF" stroke="#000" stroke-miterlimit="10" stroke-width=".39580401000000004" d="M210.629 9.578a1.575 1.575 0 1 0-3.15 0 1.575 1.575 0 0 0 3.15 0Zm0 0"/><use xlink:href="#f" x="212.543" y="12.951"/><use xlink:href="#b" x="219.955" y="12.951"/></svg>