<svg xmlns="http://www.w3.org/2000/svg" xmlns:xlink="http://www.w3.org/1999/xlink" width="227.733" height="112.955"><defs><path id="a" d="M4.578-3.187c0-.797-.047-1.594-.39-2.329-.47-.953-1.282-1.109-1.704-1.109-.593 0-1.312.25-1.734 1.188-.312.687-.36 1.453-.36 2.25 0 .75.032 1.64.454 2.406.422.797 1.14 1 1.64 1 .532 0 1.282-.203 1.72-1.156.327-.688.374-1.47.374-2.25M2.484 0c-.39 0-.984-.25-1.156-1.203-.11-.594-.11-1.516-.11-2.094 0-.64 0-1.297.079-1.844.187-1.171.937-1.265 1.187-1.265.329 0 .985.172 1.172 1.156.094.563.094 1.313.094 1.953 0 .735 0 1.422-.11 2.047C3.5-.297 2.923 0 2.485 0m0 0"/><path id="c" d="M2.89-3.5c.813-.266 1.391-.969 1.391-1.75 0-.828-.875-1.375-1.828-1.375-1.015 0-1.765.594-1.765 1.344 0 .328.218.531.5.531a.492.492 0 0 0 .515-.516c0-.5-.469-.5-.625-.5.313-.484.969-.609 1.328-.609.406 0 .953.219.953 1.11 0 .124-.015.702-.28 1.14-.298.469-.626.5-.876.516-.078 0-.328.03-.39.03-.079 0-.157.017-.157.11 0 .11.078.11.25.11h.438c.812 0 1.172.687 1.172 1.656 0 1.36-.672 1.64-1.11 1.64-.437 0-1.187-.171-1.531-.75.344.047.656-.171.656-.546 0-.36-.265-.563-.562-.563-.235 0-.547.14-.547.578 0 .907.922 1.563 2 1.563 1.219 0 2.125-.906 2.125-1.922 0-.813-.625-1.594-1.656-1.797m0 0"/><path id="e" d="M2.922-1.64v.859c0 .36-.016.469-.75.469h-.219V0c.422-.031.938-.031 1.344-.031.422 0 .953 0 1.36.031v-.312h-.204c-.734 0-.766-.11-.766-.47v-.859h1v-.312h-1v-4.531c0-.188 0-.25-.156-.25-.094 0-.125 0-.203.109L.281-1.953v.312Zm.062-.313H.563l2.421-3.703Zm0 0"/><path id="f" d="M1.063-.75c0 .438-.11.438-.782.438V0c.328-.016.797-.031 1.078-.031.297 0 .704.015 1.094.031v-.312c-.656 0-.765 0-.765-.438v-1.031l.625-.547C3.078-1.281 3.5-.718 3.5-.531c0 .187-.172.219-.36.219V0c.282-.016.876-.031 1.079-.031.297 0 .578.015.875.031v-.312c-.375 0-.594 0-.969-.532L2.859-2.625c-.015-.016-.062-.078-.062-.11 0-.03.703-.624.812-.703.625-.515 1.032-.53 1.25-.546v-.313c-.296.031-.421.031-.703.031-.36 0-.968-.015-1.11-.03v.312c.188.015.282.125.282.25 0 .203-.14.328-.219.39L1.72-2.125v-4.781l-1.438.11v.312c.688 0 .782.062.782.547Zm0 0"/><path id="g" d="M6.094-6.016c0-.359.031-.468.797-.468h.234v-.313c-.344.031-1.078.031-1.469.031-.375 0-1.125 0-1.468-.03v.312h.234c.781 0 .797.109.797.468v2.329H2.234v-2.329c0-.359.032-.468.797-.468h.235v-.313c-.344.031-1.078.031-1.47.031-.374 0-1.124 0-1.468-.03v.312h.235c.765 0 .796.109.796.468V-.78c0 .36-.03.469-.796.469H.328V0c.344-.031 1.078-.031 1.469-.031.375 0 1.125 0 1.469.031v-.312H3.03c-.765 0-.797-.11-.797-.47V-3.39H5.22v2.61c0 .36-.016.469-.797.469h-.234V0C4.53-.031 5.28-.031 5.656-.031s1.125 0 1.469.031v-.312h-.234c-.766 0-.797-.11-.797-.47Zm0 0"/><path id="h" d="M3.875-3.984c.094-.11.094-.141.094-.172 0-.14-.078-.14-.25-.14H.53l-.11 1.609h.25c.063-1.016.25-1.391 1.345-1.391H3.14L.375-.312c-.094.109-.094.125-.094.171C.281 0 .344 0 .531 0h3.297l.156-1.86H3.75C3.656-.686 3.438-.25 2.297-.25H1.109Zm0 0"/><path id="b" d="M2.016-.016c0-.656-.25-1.046-.625-1.046a.517.517 0 0 0-.532.53c0 .266.204.532.532.532a.62.62 0 0 0 .343-.125c.032-.031.032-.031.047-.031.016 0 .016 0 .016.14 0 .75-.344 1.344-.672 1.672-.11.11-.11.125-.11.157 0 .062.048.109.094.109.11 0 .907-.766.907-1.938m0 0"/><path id="d" d="M.828-2.312h4.328c.125 0 .235-.11.235-.22a.23.23 0 0 0-.235-.234H.828a.23.23 0 0 0-.234.235c0 .11.11.219.234.219m0 0"/><path id="u" d="M-3.375-7.172c-2.031 0-3.64 1.5-3.64 3.313 0 1.78 1.593 3.297 3.64 3.297S.219-2.094.219-3.86c0-1.813-1.578-3.313-3.594-3.313m-.14 1.016c2.64 0 3.468 1.375 3.468 2.281 0 .953-.875 2.297-3.469 2.297-2.578 0-3.25-1.453-3.25-2.281 0-.875.704-2.297 3.25-2.297m0 0"/><path id="v" d="M-1.281-3.578c-.516 0-.813.297-.938.406-.312.328-.406.719-.484 1.14-.11.563-.235 1.22-.813 1.22-.343 0-.75-.25-.75-1.11 0-1.094.891-1.14 1.204-1.156.093-.016.093-.125.093-.125 0-.125-.062-.125-.25-.125h-1c-.172 0-.234 0-.234.11 0 .046 0 .062.11.187.046.031.14.14.155.172-.265.375-.265.797-.265.937 0 1.219.656 1.594 1.219 1.594.343 0 .625-.156.843-.422.266-.328.329-.61.454-1.312.046-.235.203-1.047.921-1.047.516 0 .907.359.907 1.125 0 .843-.563 1.203-1.407 1.39-.14.031-.171.031-.171.14 0 .126.062.126.25.126h1.312c.172 0 .234 0 .234-.11 0-.046-.015-.062-.203-.25-.015-.015-.031-.015-.218-.203a1.51 1.51 0 0 0 .421-1.093c0-1.141-.671-1.594-1.39-1.594m0 0"/><path id="w" d="M-1.86-3.984v.234c1.173.094 1.61.313 1.61 1.453v1.188l-3.734-2.766c-.11-.094-.141-.094-.172-.094-.14 0-.14.078-.14.25V-.53l1.609.11v-.25c-1.016-.063-1.391-.25-1.391-1.345V-3.14L-.312-.375c.109.094.125.094.171.094C0-.281 0-.344 0-.531v-3.297Zm0 0"/><path id="x" d="M0-2.453h-.312c0 .656-.047.687-.438.687h-3.656l.11 1.391h.312c0-.64.062-.734.547-.734H-.75c.438 0 .438.109.438.78H0l-.031-1.093c0-.344.015-.703.031-1.031m-6.016.547c-.265 0-.53.218-.53.515a.54.54 0 0 0 .53.547.547.547 0 0 0 .532-.531.525.525 0 0 0-.532-.531m0 0"/><path id="y" d="M0-2.531h-.312c0 .656 0 .765-.438.765h-6.156l.11 1.438h.312c0-.703.062-.781.547-.781H-.75c.438 0 .438.109.438.78H0l-.031-1.108Zm0 0"/><path id="z" d="M-.89-4.812h-.547v.25h.546c.579 0 .641.25.641.359 0 .328-.453.375-.5.375h-1.984c-.422 0-.813 0-1.172.36-.39.39-.547.874-.547 1.359 0 .812.469 1.5 1.125 1.5.297 0 .469-.203.469-.453 0-.282-.203-.454-.47-.454-.108 0-.437.047-.452.5-.344-.265-.453-.75-.453-1.078 0-.484.375-1.047 1.265-1.047h.375c.031.5.063 1.204.36 1.829.328.75.843 1 1.28 1C-.14-.312.11-1.282.11-1.906c0-.657-.39-1.125-.859-1.313.39-.031.813-.297.813-.765 0-.22-.141-.828-.954-.828m-.5 1.671c.937 0 1.28.72 1.28 1.157 0 .484-.343.906-.843.906-.547 0-1.375-.422-1.438-2.063Zm0 0"/><path id="A" d="M-1.234-3.297h-.563v.235h.547c.734 0 1.11.312 1.11.671 0 .672-.907.672-1.079.672h-2.765V-3.14h-.313v1.422h-1.828v.25c.813 0 1.89.297 1.922 1.282h.219v-.844h2.75c1.218 0 1.343-.922 1.343-1.281 0-.72-.703-.985-1.343-.985m0 0"/><path id="B" d="M-2.125-4.687c-1.281 0-2.328 1-2.328 2.203 0 1.234 1.078 2.203 2.328 2.203A2.217 2.217 0 0 0 .109-2.484a2.208 2.208 0 0 0-2.234-2.203m-.078.828c.36 0 .89 0 1.328.218.453.22.734.657.734 1.157 0 .422-.203.859-.671 1.125-.438.25-1.032.25-1.391.25-.39 0-.938 0-1.375-.235a1.33 1.33 0 0 1-.656-1.14c0-.438.218-.86.64-1.125.422-.25 1-.25 1.39-.25m0 0"/><path id="C" d="M-3.797-3.625c-.312 0-.61.313-.61.734 0 .735.673 1.094 1.11 1.235h-1.11l.11 1.375h.313c0-.688.078-.781.562-.781H-.75c.438 0 .438.109.438.78H0l-.031-1.124c0-.407 0-.875.031-1.266h-.312v.203c0 .735-.11.75-.47.75h-1.53c-.985 0-1.876-.406-1.876-1.172 0-.062 0-.078.016-.109a.433.433 0 0 0 .39.234c.282 0 .423-.203.423-.421 0-.188-.11-.438-.438-.438m0 0"/><path id="D" d="M0-5.328h-.312c0 .703-.063.781-.547.781h-3.547l.11 1.469h.312c0-.703.078-.781.562-.781h1.766c.875 0 1.547.468 1.547 1.203 0 .828-.47.875-.985.875h-3.312l.11 1.469h.312c0-.782.03-.782.922-.782h1.484c.781 0 1.687 0 1.687-1.515 0-.563-.28-1-.89-1.282h.89Zm0 0"/><path id="E" d="M0-8.094h-.312c0 .516 0 .766-.297.781h-1.907c-.843 0-1.156 0-1.515.313-.172.125-.375.453-.375 1.031 0 .844.61 1.282.984 1.453-.875.141-.984.875-.984 1.329 0 .718.437 1.187 1.047 1.468h-1.047l.11 1.407h.312c0-.704.078-.782.562-.782H-.75c.438 0 .438.11.438.782H0l-.031-1.125L0-2.562h-.312c0 .671 0 .78-.438.78h-1.844c-1.031 0-1.594-.702-1.594-1.343 0-.625.547-.734 1.11-.734H-.75c.438 0 .438.109.438.78H0l-.031-1.124L0-5.328h-.312c0 .672 0 .781-.438.781h-1.844c-1.031 0-1.594-.703-1.594-1.344 0-.625.547-.734 1.11-.734H-.75c.438 0 .438.11.438.766H0l-.031-1.125Zm0 0"/><clipPath id="i"><path d="M215 109h4v3.867h-4Zm0 0"/></clipPath><clipPath id="j"><path d="M210 103h15v9.867h-15Zm0 0"/></clipPath><clipPath id="k"><path d="M133 109h4v3.867h-4Zm0 0"/></clipPath><clipPath id="l"><path d="M127 103h15v9.867h-15Zm0 0"/></clipPath><clipPath id="m"><path d="M105 109h4v3.867h-4Zm0 0"/></clipPath><clipPath id="n"><path d="M99 103h16v9.867H99Zm0 0"/></clipPath><clipPath id="o"><path d="M105 109h4v3.867h-4Zm0 0"/></clipPath><clipPath id="p"><path d="M99 103h16v9.867H99Zm0 0"/></clipPath><clipPath id="q"><path d="M77 109h5v3.867h-5Zm0 0"/></clipPath><clipPath id="r"><path d="M72 103h15v9.867H72Zm0 0"/></clipPath><clipPath id="s"><path d="M77 109h5v3.867h-5Zm0 0"/></clipPath><clipPath id="t"><path d="M72 103h15v9.867H72Zm0 0"/></clipPath></defs><path fill="none" stroke="#000" stroke-miterlimit="10" stroke-width=".39853317" d="M24.5 111.082V85.641m0-31.711V28.488h13.656m27.75 0h27.422m0 0h27.531m0 0h13.766V53.93m0 31.71v25.442h41.297m0 0h41.3"/><path fill="none" stroke="#000" stroke-miterlimit="10" stroke-width=".7960675100000001" d="M10.23 60.273c-5.253 0-9.515 4.258-9.515 9.512 0 5.254 4.262 9.512 9.515 9.512a9.51 9.51 0 0 0 9.512-9.512 9.51 9.51 0 0 0-9.512-9.512Zm0 0"/><path fill="none" stroke="#000" stroke-linecap="round" stroke-miterlimit="10" stroke-width=".7960675100000001" d="M.398 79.297V60.273"/><path fill="none" stroke="#000" stroke-miterlimit="10" stroke-width=".39853317" d="M24.5 85.64V74.544h-6.031m0-9.516H24.5V53.93"/><path fill="none" stroke="#000" stroke-miterlimit="10" stroke-width=".7960675100000001" d="M38.156 14.613h27.75V42.36h-27.75Zm0 0"/><path fill="none" stroke="#000" stroke-miterlimit="10" stroke-width=".39853317" d="m42.32 17.805 19.422 10.683L42.32 39.172Zm0 0"/><path stroke="#000" stroke-miterlimit="10" stroke-width=".39853317" d="M81.148 28.488a1.587 1.587 0 0 0-3.171 0 1.587 1.587 0 0 0 3.171 0Zm0 0"/><use xlink:href="#a" x="26.098" y="10.011"/><use xlink:href="#b" x="31.074" y="10.011"/><use xlink:href="#c" x="33.837" y="10.011"/><use xlink:href="#d" x="40.473" y="10.011"/><use xlink:href="#c" x="46.452" y="10.011"/><use xlink:href="#b" x="51.427" y="10.011"/><use xlink:href="#e" x="54.191" y="10.011"/><use xlink:href="#f" x="60.819" y="10.011"/><use xlink:href="#g" x="66.071" y="10.011"/><use xlink:href="#h" x="73.534" y="10.011"/><path stroke="#000" stroke-miterlimit="10" stroke-width=".39853317" d="M108.68 28.488a1.587 1.587 0 0 0-3.172 0 1.587 1.587 0 0 0 3.172 0Zm0 0"/><path fill="none" stroke="#000" stroke-miterlimit="10" stroke-width=".7960675100000001" d="M140.176 53.93v31.71h-11.098V53.93ZM148.5 77.71l-23.746-13.565"/><path stroke="#000" stroke-miterlimit="10" stroke-width=".79602766" d="m121.445 62.254 2.055 3.683 1.082-1.89 1.082-1.895Zm0 0"/><g clip-path="url(#i)"><path fill="#FFF" d="M218.805 111.082a1.584 1.584 0 1 0-3.168 0 1.585 1.585 0 1 0 3.168 0m0 0"/></g><g clip-path="url(#j)"><path fill="none" stroke="#000" stroke-miterlimit="10" stroke-width=".39853317" d="M218.805 111.082a1.584 1.584 0 1 0-3.168 0 1.585 1.585 0 1 0 3.168 0Zm0 0"/></g><path fill="none" stroke="#000" stroke-miterlimit="10" stroke-width=".39853317" d="M134.625 111.082h-13.766m0 0H93.33m0 0H52.03m0 0H24.5"/><g clip-path="url(#k)"><path d="M136.21 111.082a1.587 1.587 0 0 0-3.17 0 1.587 1.587 0 0 0 3.17 0m0 0"/></g><g clip-path="url(#l)"><path fill="none" stroke="#000" stroke-miterlimit="10" stroke-width=".39853317" d="M136.21 111.082a1.587 1.587 0 0 0-3.17 0 1.587 1.587 0 0 0 3.17 0Zm0 0"/></g><g clip-path="url(#m)"><path d="M108.68 111.082a1.587 1.587 0 0 0-3.172 0 1.587 1.587 0 0 0 3.172 0m0 0"/></g><g clip-path="url(#n)"><path fill="none" stroke="#000" stroke-miterlimit="10" stroke-width=".39853317" d="M108.68 111.082a1.587 1.587 0 0 0-3.172 0 1.587 1.587 0 0 0 3.172 0Zm0 0"/></g><g clip-path="url(#o)"><path d="M108.68 111.082a1.587 1.587 0 0 0-3.172 0 1.587 1.587 0 0 0 3.172 0m0 0"/></g><g clip-path="url(#p)"><path fill="none" stroke="#000" stroke-miterlimit="10" stroke-width=".39853317" d="M108.68 111.082a1.587 1.587 0 0 0-3.172 0 1.587 1.587 0 0 0 3.172 0Zm0 0"/></g><g clip-path="url(#q)"><path d="M81.148 111.082a1.587 1.587 0 0 0-3.171 0 1.587 1.587 0 0 0 3.171 0m0 0"/></g><g clip-path="url(#r)"><path fill="none" stroke="#000" stroke-miterlimit="10" stroke-width=".39853317" d="M81.148 111.082a1.587 1.587 0 0 0-3.171 0 1.587 1.587 0 0 0 3.171 0Zm0 0"/></g><g clip-path="url(#s)"><path d="M81.148 111.082a1.587 1.587 0 0 0-3.171 0 1.587 1.587 0 0 0 3.171 0m0 0"/></g><g clip-path="url(#t)"><path fill="none" stroke="#000" stroke-miterlimit="10" stroke-width=".39853317" d="M81.148 111.082a1.587 1.587 0 0 0-3.171 0 1.587 1.587 0 0 0 3.171 0Zm0 0"/></g><path fill="none" stroke="#000" stroke-miterlimit="10" stroke-width=".39853317" d="M79.563 28.488v33.367m0 15.856v33.371"/><path fill="none" stroke="#000" stroke-miterlimit="10" stroke-width=".7960675100000001" d="m79.563 77.71 9.91-15.855h-19.82Zm0 0"/><path fill="none" stroke="#000" stroke-miterlimit="10" stroke-width=".39853317" d="M79.563 77.71V61.856"/><path fill="none" stroke="#000" stroke-miterlimit="10" stroke-width=".7960675100000001" d="M69.652 77.71h19.82"/><path fill="none" stroke="#000" stroke-miterlimit="10" stroke-width=".39853317" d="M107.094 28.488v33.367m0 15.856v33.371"/><path fill="none" stroke="#000" stroke-miterlimit="10" stroke-width=".7960675100000001" d="m107.094 61.855 9.91 15.856h-19.82Zm0 0"/><path fill="none" stroke="#000" stroke-miterlimit="10" stroke-width=".39853317" d="M107.094 61.855v15.856"/><path fill="none" stroke="#000" stroke-miterlimit="10" stroke-width=".7960675100000001" d="M97.184 61.855h19.82"/><path fill="none" stroke="#000" stroke-miterlimit="10" stroke-width=".39853317" d="M162.156 28.488h13.66m27.747 0h13.66"/><path fill="none" stroke="#000" stroke-miterlimit="10" stroke-width=".7960675100000001" d="M175.816 14.613h27.747V42.36h-27.747Zm0 0"/><path fill="none" stroke="#000" stroke-miterlimit="10" stroke-width=".39853317" d="M182.754 21.55c1.129-1.777 2.21-3.468 3.469-3.468 1.254 0 2.336 1.691 3.465 3.469 1.132 1.777 2.214 3.469 3.468 3.469 1.258 0 2.34-1.692 3.469-3.47m-4.855-2.081-4.16 4.164M182.754 28.488c1.129-1.777 2.21-3.468 3.469-3.468 1.254 0 2.336 1.69 3.465 3.468 1.132 1.774 2.214 3.469 3.468 3.469 1.258 0 2.34-1.695 3.469-3.469m-4.855-2.082-4.16 4.164M182.754 35.426c1.129-1.778 2.21-3.469 3.469-3.469 1.254 0 2.336 1.691 3.465 3.469 1.132 1.773 2.214 3.469 3.468 3.469 1.258 0 2.34-1.696 3.469-3.47"/><path fill="#FFF" stroke="#000" stroke-miterlimit="10" stroke-width=".39853317" d="M218.805 28.488a1.584 1.584 0 1 0-3.168 0 1.585 1.585 0 1 0 3.168 0Zm0 0"/><use xlink:href="#c" x="177.802" y="10.011"/><use xlink:href="#f" x="184.429" y="10.011"/><use xlink:href="#g" x="189.681" y="10.011"/><use xlink:href="#h" x="197.144" y="10.011"/><path fill="none" stroke="#000" stroke-miterlimit="10" stroke-width=".39853317" d="M162.156 28.488v49.223H148.5"/><use xlink:href="#u" x="220.616" y="90.836"/><use xlink:href="#v" x="220.616" y="83.094"/><use xlink:href="#w" x="220.616" y="79.174"/><use xlink:href="#x" x="220.616" y="74.755"/><use xlink:href="#y" x="220.616" y="71.989"/><use xlink:href="#y" x="220.616" y="69.223"/><use xlink:href="#z" x="220.616" y="66.456"/><use xlink:href="#A" x="220.616" y="61.481"/><use xlink:href="#B" x="220.616" y="57.61"/><use xlink:href="#C" x="220.616" y="52.634"/><use xlink:href="#w" x="206.461" y="78.905"/><use xlink:href="#D" x="206.461" y="74.487"/><use xlink:href="#E" x="206.461" y="68.954"/></svg>