<svg xmlns="http://www.w3.org/2000/svg" xmlns:xlink="http://www.w3.org/1999/xlink" width="226.771" height="112.361"><defs><path id="a" d="M6.453-2.562H6.22c-.25 1.53-.485 2.25-2.188 2.25H2.72c-.469 0-.485-.063-.485-.391v-2.64h.891c.953 0 1.063.312 1.063 1.156h.25v-2.625h-.25c0 .843-.11 1.156-1.063 1.156h-.89v-2.375c0-.328.015-.39.484-.39H4c1.516 0 1.781.53 1.938 1.921h.25l-.282-2.234H.328v.312h.235c.765 0 .78.11.78.453v5.203c0 .344-.015.454-.78.454H.328V0h5.719Zm0 0"/><path id="h" d="M7.234-6.453v-.313c-.312.016-.703.032-.968.032L5.14-6.766v.313c.515 0 .718.266.718.484 0 .078-.03.14-.046.203L4-.984 2.11-6c-.063-.125-.063-.172-.063-.172 0-.281.562-.281.812-.281v-.313c-.359.032-1.03.032-1.406.032L.188-6.766v.313c.64 0 .828 0 .968.375L3.453 0c.078.188.125.219.25.219.172 0 .188-.047.235-.188l2.218-5.828c.14-.36.407-.656 1.078-.656m0 0"/><path id="i" d="M6.594-2.312c0-.094 0-.172-.14-.172-.11 0-.11.062-.11.172C6.266-.907 5.204-.095 4.125-.095c-.61 0-2.547-.328-2.547-3.281 0-2.969 1.922-3.297 2.531-3.297 1.079 0 1.97.89 2.157 2.344.03.14.03.172.156.172.172 0 .172-.032.172-.235V-6.75c0-.172 0-.234-.11-.234-.046 0-.078 0-.171.125l-.485.734c-.375-.36-.875-.86-1.828-.86C2.156-6.984.563-5.405.563-3.39.563-1.344 2.156.22 4 .22c1.61 0 2.594-1.375 2.594-2.531m0 0"/><path id="j" d="M7.14-3.36c0-2.015-1.5-3.624-3.296-3.624C2.078-6.984.563-5.406.563-3.36c0 2.03 1.515 3.578 3.28 3.578 1.798 0 3.298-1.578 3.298-3.578M6.126-3.5c0 2.625-1.36 3.453-2.266 3.453-.953 0-2.28-.86-2.28-3.453 0-2.562 1.437-3.234 2.265-3.234.86 0 2.281.703 2.281 3.234m0 0"/><path id="k" d="M7.11 0v-.312h-.188c-.594 0-.734-.063-.844-.391l-2.14-6.188c-.047-.14-.063-.203-.22-.203-.155 0-.187.063-.234.203L1.422-.969c-.172.5-.563.657-1.11.657V0l1.016-.031L2.468 0v-.312c-.5 0-.75-.25-.75-.5 0-.032.016-.125.032-.141l.453-1.313h2.438L5.17-.75a.58.58 0 0 1 .032.14c0 .298-.562.298-.828.298V0c.36-.031 1.047-.031 1.438-.031ZM4.53-2.562H2.313l1.109-3.22Zm0 0"/><path id="d" d="M3.594-6.64.297-.454l.016.422A34.078 34.078 0 0 1 2.5-.094c1.25 0 2.469.047 3.719.14l.593-.327.016-.156C5.75-2.5 4.906-4.672 4.172-6.891ZM5.563-.5c-1.157 0-2.329-.031-3.485-.031-.36 0-.703 0-1.047.015L1-.64c.797-1.671 1.578-3.218 2.531-4.843h.11S5.219-1.516 5.625-.578Zm0 0"/><path id="e" d="m3.172 1.813.125.14.687-.203A18.436 18.436 0 0 1 3.906.156L3.97.063c.812-.11 1.562-.375 2.14-.954.485-.484.672-1.171.672-1.859 0-.937-.484-1.844-1.593-1.844-.407 0-.922.11-1.344.469-.578.5-.656 1.14-.656 1.75v2.031l-.063.063c-.187 0-.453-.078-.828-.453-.469-.47-.61-1.25-.61-1.907 0-.812.313-1.375 1.141-1.765l-.11-.219C1.735-4.344.907-3.515.907-2.469c0 .688.172 1.281.625 1.797.516.594 1 .688 1.594.75l.063.078ZM3.969-.25l-.063-.078v-2.297c0-.906.281-1.578 1.094-1.578.813 0 .969 1.187.969 1.453 0 .656-.157 1.39-.594 1.844C5-.516 4.5-.281 3.969-.25m0 0"/><clipPath id="b"><path d="M.527 90H15v15H.527Zm0 0"/></clipPath><clipPath id="c"><path d="M62 83h29v28.727H62Zm0 0"/></clipPath><clipPath id="f"><path d="M145 83h30v28.727h-30Zm0 0"/></clipPath><clipPath id="g"><path d="M147 95h26v16.727h-26Zm0 0"/></clipPath></defs><path fill="none" stroke="#000" stroke-miterlimit="10" stroke-width=".39674565" d="M7.203 97.52h27.844m0 0H62.89"/><use xlink:href="#a" x="3.83" y="94.018"/><path fill="#FFF" d="M8.781 97.52a1.579 1.579 0 1 0-3.157 0 1.579 1.579 0 0 0 3.157 0m0 0"/><g clip-path="url(#b)"><path fill="none" stroke="#000" stroke-miterlimit="10" stroke-width=".39674565" d="M8.781 97.52a1.579 1.579 0 1 0-3.157 0 1.579 1.579 0 0 0 3.157 0Zm0 0"/></g><path d="M58.7 97.52v1.972l4.19-1.972-4.19-1.973Zm0 0"/><g clip-path="url(#c)"><path fill="none" stroke="#000" stroke-miterlimit="10" stroke-width=".79249695" d="M62.89 83.707h27.626v27.621H62.89Zm0 0"/></g><use xlink:href="#d" x="69.389" y="100.943"/><use xlink:href="#e" x="76.455" y="100.943"/><path fill="none" stroke="#000" stroke-miterlimit="10" stroke-width=".39674565" d="M90.516 97.52h27.843m0 0h27.844"/><path d="M142.012 97.52v1.972l4.191-1.972-4.191-1.973Zm0 0"/><g clip-path="url(#f)"><path fill="none" stroke="#000" stroke-miterlimit="10" stroke-width=".79249695" d="M146.203 83.707h27.621v27.621h-27.62Zm0 0"/></g><path fill="none" stroke="#000" stroke-miterlimit="10" stroke-width=".39674565" d="M153.11 90.613c1.124-1.77 2.202-3.453 3.452-3.453s2.329 1.684 3.454 3.453c1.125 1.766 2.203 3.453 3.453 3.453s2.324-1.687 3.453-3.453m-4.836-2.07-4.145 4.14M153.11 97.52c1.124-1.77 2.202-3.454 3.452-3.454s2.329 1.684 3.454 3.454c1.125 1.765 2.203 3.453 3.453 3.453s2.324-1.688 3.453-3.453m-4.836-2.075-4.145 4.145"/><g clip-path="url(#g)"><path fill="none" stroke="#000" stroke-miterlimit="10" stroke-width=".39674565" d="M153.11 104.426c1.124-1.77 2.202-3.453 3.452-3.453s2.329 1.683 3.454 3.453c1.125 1.765 2.203 3.449 3.453 3.449s2.324-1.684 3.453-3.45"/></g><path fill="none" stroke="#000" stroke-miterlimit="10" stroke-width=".39674565" d="M160.016 83.707V55.863m0 0V28.02"/><path d="M160.016 32.21h1.972l-1.972-4.19-1.973 4.19Zm0 0"/><path fill="none" stroke="#000" stroke-miterlimit="10" stroke-width=".79249695" d="M146.203.395h27.621V28.02h-27.62Zm0 0"/><use xlink:href="#h" x="149.007" y="17.591"/><use xlink:href="#i" x="156.159" y="17.591"/><use xlink:href="#j" x="163.312" y="17.591"/><path fill="none" stroke="#000" stroke-miterlimit="10" stroke-width=".39674565" d="M146.203 14.207h-69.5v69.5"/><path d="M76.703 79.516H74.73l1.973 4.191 1.973-4.191Zm0 0"/><path fill="none" stroke="#000" stroke-miterlimit="10" stroke-width=".39674565" d="M160.016 55.863h27.843m0 0h27.844"/><path stroke="#000" stroke-miterlimit="10" stroke-width=".39674565" d="M161.594 55.863a1.579 1.579 0 1 0-3.158.002 1.579 1.579 0 0 0 3.158-.002Zm0 0"/><path fill="#FFF" stroke="#000" stroke-miterlimit="10" stroke-width=".39674565" d="M217.281 55.863a1.579 1.579 0 1 0-3.157.002 1.579 1.579 0 0 0 3.157-.002Zm0 0"/><use xlink:href="#k" x="211.986" y="52.363"/></svg>