<svg xmlns="http://www.w3.org/2000/svg" xmlns:xlink="http://www.w3.org/1999/xlink" width="232.259" height="84.033"><defs><clipPath id="a"><path d="M221 62h9.57v16H221Zm0 0"/></clipPath><clipPath id="b"><path d="M15.516.195H230v70.063H15.516Zm0 0"/></clipPath><path id="c" d="M2.031-3.937h.922c.203 0 .297 0 .297-.204 0-.109-.094-.109-.281-.109h-.86c.36-1.39.407-1.594.407-1.64 0-.173-.125-.266-.297-.266-.031 0-.297 0-.39.343L1.452-4.25H.516c-.188 0-.297 0-.297.188 0 .125.094.125.281.125h.875C.656-1.142.625-.97.625-.797c0 .531.375.906.906.906 1 0 1.563-1.437 1.563-1.515 0-.094-.078-.094-.125-.094-.078 0-.094.016-.14.125C2.405-.344 1.874-.109 1.546-.109c-.203 0-.313-.125-.313-.453 0-.235.032-.297.063-.47Zm0 0"/><path id="d" d="M6.25-5.687c.094-.407.281-.704 1.063-.735.046 0 .171 0 .171-.187 0-.016 0-.11-.125-.11-.328 0-.671.032-1.015.032-.328 0-.688-.032-1.016-.032-.062 0-.187 0-.187.188 0 .11.109.11.187.11.563.015.672.218.672.437 0 .03-.031.172-.031.203l-.89 3.515C4.75-.937 3.608-.094 2.624-.094c-.672 0-1.203-.422-1.203-1.281 0-.016 0-.328.11-.766l.952-3.828c.094-.343.11-.453.829-.453.265 0 .343 0 .343-.187 0-.11-.11-.11-.14-.11-.282 0-.985.032-1.266.032S1.266-6.72.984-6.72c-.078 0-.187 0-.187.188 0 .11.094.11.281.11.016 0 .203 0 .375.015.172.031.266.031.266.172 0 .046-.11.468-.172.687l-.219.875C1.234-4.297.766-2.438.734-2.25c-.078.281-.078.422-.078.578 0 1.203.907 1.89 1.938 1.89 1.234 0 2.453-1.109 2.781-2.405Zm0 0"/></defs><path fill="none" stroke="#000" stroke-miterlimit="10" stroke-width=".39445938" d="M15.516 70.258h211.43"/><path d="m229.984 70.258-2.941-1.746V72Zm0 0"/><g clip-path="url(#a)"><path fill="none" stroke="#000" stroke-miterlimit="10" stroke-width=".39445938" d="m229.984 70.258-2.941-1.746V72Zm0 0"/></g><path fill="none" stroke="#000" stroke-miterlimit="10" stroke-width=".39445938" d="M15.516 70.258V3.628"/><path stroke="#000" stroke-miterlimit="10" stroke-width=".39445938" d="M15.516.59 13.773 3.53h3.485Zm0 0"/><g clip-path="url(#b)"><path fill="none" stroke="#000" stroke-miterlimit="10" stroke-width=".7879301400000001" d="m15.73 70.258.215-5.707.215-5.672.215-5.524.215-5.257.215-4.871.215-4.383.214-3.797.215-3.117.215-2.364.215-1.554.215-.7.215.188.214 1.078.215 1.957.215 2.813.215 3.617.215 4.36.215 5.019.215 5.582.214 6.039.215 6.375.215 5.918h4.512l.215-1.504.214-7.547.215-7.434.215-7.171.215-6.754.215-6.192.215-5.496.215-4.68.214-3.753.215-2.743.215-1.668.215-.546.215.601.215 1.738.214 2.86.215 3.926.215 4.917.215 5.825.215 6.61.215 7.269.214 7.78.215 8.138.215 5.824h4.516l.215-3.61.214-9.003.215-8.797.215-8.41.215-7.844.215-7.11.215-6.222.215-5.207.214-4.078.215-2.852.215-1.563.215-.238.215 1.106.215 2.425.214 3.707.215 4.915.215 6.027.215 7.023.215 7.871.215 8.57.215 9.087.214 9.414.215 4.789h4.512l.215-5.926.215-9.8.214-9.497.215-8.992.215-8.309.215-7.445.215-6.43.215-5.28.215-4.017.214-2.668.215-1.265.215.168.215 1.601.215 3 .215 4.336.214 5.59.215 6.723.215 7.726.215 8.559.215 9.227.215 9.699.214 9.969.215 3.03h4.512l.215-7.94.215-9.778.215-9.394.214-8.82.215-8.063.215-7.145.215-6.078.215-4.887.215-3.597.214-2.243.215-.835.215.578.215 1.98.215 3.336.215 4.621.215 5.805.214 6.867.215 7.781.215 8.535.215 9.11.215 9.492.215 9.68.214.996h4.512l.215-9.16.215-8.942.215-8.52.215-7.925.214-7.172.215-6.27.215-5.246.215-4.12.215-2.919.215-1.66.214-.383.215.903.215 2.16.215 3.36.215 4.484.215 5.507.215 6.415.214 7.175.215 7.79.215 8.238.215 8.511.215 7.774h4.511l.215-1.54.215-7.73.215-7.46.215-7.048.215-6.488.215-5.8.214-5 .215-4.11.215-3.137.215-2.117.215-1.055.215.008.214 1.067.215 2.09.215 3.054.215 3.95.215 4.753.215 5.45.214 6.027.215 6.469.215 6.777.215 6.937.215 4.903h4.516l.214-2.375.215-5.88.215-5.62.215-5.258.215-4.785.215-4.227.214-3.582.215-2.883.215-2.125.215-1.34.215-.538.215.261.214 1.043.215 1.79.215 2.491.215 3.13.215 3.69.215 4.165.215 4.55.214 4.837.215 5.011.215 5.086.215 2.559h4.512l.214-2.446.215-3.988.215-3.777.215-3.492.215-3.145.215-2.734.215-2.278.214-1.78.215-1.263.215-.726.215-.188.215.348.215.863L93.94 47l.215 1.797.215 2.195.215 2.547.215 2.832.215 3.059.215 3.21.214 3.301.215 3.313.215 1.004h4.512l.215-2 .214-2.422.215-2.274.215-2.085.215-1.852.215-1.594.215-1.304.215-.997.214-.675.215-.352.215-.023.215.297.215.597.215.887.214 1.148.215 1.38.215 1.573.215 1.735.215 1.86.215 1.937.214 1.98.215 1.977.215.207h4.512l.215-1.524.215-1.472.214-1.387.215-1.273.215-1.141.215-.98.215-.81.215-.624.214-.426.215-.226.215-.028.215.176.215.371.215.55.215.727.214.88.215 1.015.215 1.125.215 1.223.215 1.285.215 1.324.214 1.215h4.512l.215-.262.215-1.332.215-1.312.215-1.266.214-1.188.215-1.093.215-.973.215-.832.215-.672.215-.496.214-.309.215-.117.215.082.215.29.215.48.215.676.215.859.214 1.023.215 1.172.215 1.301.215 1.406.215 1.485.215 1.078h4.515l.215-.77.215-1.965.215-1.953.215-1.902.214-1.809.215-1.68.215-1.507.215-1.3.215-1.063.215-.801.214-.508.215-.203.215.117.215.438.215.765.215 1.078.215 1.375.214 1.657.215 1.906.215 2.12.215 2.302.215 2.433.215 1.27h4.511l.215-1.942.215-3.289.215-3.254.215-3.148.215-2.973.214-2.734.215-2.434.215-2.07.215-1.656.215-1.203.215-.711.214-.196.215.336.215.875.215 1.403.215 1.914.215 2.39.215 2.836.214 3.223.215 3.555.215 3.816.215 4.004.215 1.258h4.511l.215-4 .215-5.043.215-4.942.215-4.734.215-4.422.215-4.015.214-3.516.215-2.934.215-2.28.215-1.575.215-.817.215-.03.214.765.215 1.558.215 2.332.215 3.067.215 3.754.215 4.37.215 4.903.214 5.344.215 5.676.215 5.894.215.645h4.512l.214-6.883.215-6.875.215-6.672.215-6.328.215-5.848.215-5.238.215-4.516.214-3.687.215-2.774.215-1.789.215-.761.215.293.215 1.355.214 2.402.215 3.41.215 4.356.215 5.223.215 5.984.215 6.637.214 7.152.215 7.528.215 7.03h4.512l.215-1.644.215-8.574.214-8.426.215-8.105.215-7.61.215-6.953.215-6.152.215-5.211.214-4.16.215-3.016.215-1.797.215-.53.215.745.215 2.02.215 3.261.214 4.446.215 5.539.215 6.523.215 7.387.215 8.094.215 8.64.214 9.012.215 6.512h4.516l.215-3.793.215-9.633.214-9.39.215-8.954.215-8.328.215-7.523.215-6.57.215-5.47.215-4.253.214-2.953.215-1.579.215-.171.215 1.242.215 2.633.215 3.972.214 5.235.215 6.39.215 7.418.215 8.293.215 9 .215 9.52.214 9.84.215 5.074h4.512l.215-5.926.215-9.914.215-9.586.214-9.055.215-8.34.215-7.453.215-6.414.215-5.242.215-3.965.214-2.601.215-1.192.215.242.215 1.672.215 3.067.215 4.39.215 5.625.214 6.743.215 7.714.215 8.528.215 9.168.215 9.61.215 9.858.214 3.07h4.512l.215-7.542.215-9.356.215-8.968.215-8.403.214-7.656.215-6.762.215-5.73.215-4.586.215-3.352.215-2.054.214-.72.215.622.215 1.941.215 3.22.215 4.417.215 5.524.215 6.507.214 7.356.215 8.039.215 8.558.215 8.895.215 9.05.215 1h4.511l.215-8.226.215-8.078.215-7.676.215-7.117.215-6.418.214-5.59.215-4.66.215-3.637.215-2.55.215-1.422.215-.27.214.871.215 1.989.215 3.054.215 4.043.215 4.946.215 5.726.214 6.395.215 6.914.215 7.293.215 7.511.215 6.903h4.512l.214-1.258.215-6.566.215-6.32.215-5.95.215-5.46.215-4.864.215-4.176.214-3.41.215-2.586.215-1.719.215-.824.215.07.215.95.214 1.8.215 2.602.215 3.34.215 3.996.215 4.558.215 5.024.214 5.375.215 5.61.215 5.726.215 4.082"/></g><use xlink:href="#c" x="223.338" y="79.794"/><use xlink:href="#d" x="4.238" y="10.407"/></svg>