<svg xmlns="http://www.w3.org/2000/svg" xmlns:xlink="http://www.w3.org/1999/xlink" width="227.824" height="142.799"><defs><path id="c" d="M7.172-2.484c0-.203-.188-.203-.328-.203H4.078V-5.47c0-.14 0-.328-.203-.328s-.203.188-.203.328v2.782H.89c-.141 0-.328 0-.328.203 0 .187.187.187.328.187h2.78V.5c0 .14 0 .328.204.328.203 0 .203-.187.203-.328v-2.797h2.766c.14 0 .328 0 .328-.187m0 0"/><path id="h" d="M5.578-2.656h-.25C5.25-1.281 5.062-.344 3.218-.344h-1.64l3.86-6.11c.078-.109.078-.109.078-.187 0-.156-.063-.156-.266-.156H.797l-.11 2.234h.25c.063-1.125.36-1.921 2-1.921H4.5L.625-.375c-.062.11-.062.125-.062.203C.563 0 .609 0 .813 0h4.593Zm0 0"/><path id="i" d="m6.078-4.531-.281-2.235H.328v.313h.235c.765 0 .796.11.796.469v5.203c0 .36-.03.469-.796.469H.328V0c.344-.031 1.125-.031 1.516-.031.406 0 1.312 0 1.672.031v-.312h-.328c-.954 0-.954-.125-.954-.47v-2.452h.86c.953 0 1.062.312 1.062 1.172h.25v-2.641h-.25c0 .828-.11 1.156-1.062 1.156h-.86v-2.515c0-.329.032-.391.5-.391h1.188c1.5 0 1.734.547 1.906 1.922Zm0 0"/><path id="j" d="M2.75-1.86v-.577H.11v.578Zm0 0"/><path id="k" d="M7.14 0v-.312h-.187c-.594 0-.734-.063-.844-.391L3.97-6.922c-.063-.14-.078-.203-.235-.203-.156 0-.187.063-.234.203L1.438-.969c-.188.5-.579.657-1.125.657V0l1.015-.031L2.484 0v-.312c-.5 0-.75-.25-.75-.5 0-.032 0-.141.016-.157l.453-1.297h2.469L5.203-.75c0 .047.016.11.016.14 0 .298-.547.298-.813.298V0c.344-.031 1.047-.031 1.422-.031ZM4.564-2.578h-2.25l1.124-3.234Zm0 0"/><path id="l" d="M8.094 0v-.312c-.516 0-.766 0-.781-.297v-1.907c0-.843 0-1.156-.313-1.515-.125-.172-.453-.375-1.031-.375-.844 0-1.282.61-1.453.984-.141-.875-.875-.984-1.328-.984-.72 0-1.188.437-1.47 1.047v-1.047l-1.405.11v.312c.703 0 .78.078.78.562V-.75c0 .438-.109.438-.78.438V0l1.125-.031L2.563 0v-.312c-.672 0-.782 0-.782-.438v-1.844c0-1.031.703-1.594 1.344-1.594.625 0 .734.547.734 1.11V-.75c0 .438-.109.438-.78.438V0l1.124-.031L5.328 0v-.312c-.672 0-.781 0-.781-.438v-1.844c0-1.031.703-1.594 1.344-1.594.625 0 .734.547.734 1.11V-.75c0 .438-.11.438-.766.438V0l1.125-.031Zm0 0"/><path id="m" d="M5.188-2.156c0-1.25-.97-2.25-2.079-2.25-.78 0-1.203.437-1.39.656v-.656l-1.438.11v.312c.703 0 .782.062.782.5v4.656c0 .453-.11.453-.782.453v.313l1.11-.032 1.125.032v-.313c-.672 0-.782 0-.782-.453V-.594c.063.172.47.703 1.235.703 1.187 0 2.219-.968 2.219-2.265m-.829 0C4.36-.953 3.656-.11 2.922-.11c-.39 0-.766-.203-1.047-.61-.14-.203-.14-.219-.14-.422v-2.218c.296-.5.78-.797 1.296-.797.719 0 1.328.875 1.328 2m0 0"/><path id="n" d="M1.906-.531a.534.534 0 0 0-.515-.531.537.537 0 0 0-.532.53.524.524 0 1 0 1.047 0m0 0"/><path id="o" d="M6.484-1.828c0-.86-.828-1.61-1.921-1.719.968-.203 1.64-.828 1.64-1.562 0-.875-.906-1.688-2.203-1.688H.36v.313h.234c.765 0 .797.109.797.468V-.78c0 .36-.032.469-.797.469H.359V0h3.907c1.312 0 2.218-.89 2.218-1.828M5.25-5.11c0 .625-.5 1.468-1.594 1.468H2.203v-2.453c0-.328.031-.39.5-.39h1.235c.953 0 1.312.843 1.312 1.375m.234 3.28c0 .704-.515 1.517-1.546 1.517H2.702c-.469 0-.5-.063-.5-.391v-2.719h1.875c.984 0 1.406.922 1.406 1.594m0 0"/><path id="p" d="M7.172-3.375c0-2.031-1.5-3.64-3.313-3.64-1.78 0-3.296 1.593-3.296 3.64S2.093.219 3.859.219c1.813 0 3.313-1.578 3.313-3.594m-1.016-.14c0 2.64-1.375 3.468-2.281 3.468-.953 0-2.297-.875-2.297-3.469 0-2.578 1.453-3.25 2.281-3.25.875 0 2.297.704 2.297 3.25m0 0"/><path id="q" d="M7.125-6.484v-.313l-1.156.031-1.172-.03v.312c1.031 0 1.031.468 1.031.734v4.25L2.312-6.672c-.093-.11-.109-.125-.296-.125H.328v.313H.61c.157 0 .36 0 .5.015.235.032.25.047.25.235v5.187c0 .266 0 .734-1.03.734V0L1.5-.031 2.656 0v-.312c-1.031 0-1.031-.47-1.031-.735v-5.172c.063.047.063.063.11.125L5.796-.125c.078.11.094.125.172.125.125 0 .125-.062.125-.266V-5.75c0-.266 0-.734 1.031-.734m0 0"/><clipPath id="a"><path d="M.07 7H4v4H.07Zm0 0"/></clipPath><clipPath id="b"><path d="M.07 1H10v16H.07Zm0 0"/></clipPath><clipPath id="d"><path d="M215 1h12.574v16H215Zm0 0"/></clipPath><clipPath id="e"><path d="M215 113h12.574v15H215Zm0 0"/></clipPath><clipPath id="f"><path d="M123 132h2v10.598h-2Zm0 0"/></clipPath><clipPath id="g"><path d="M117 141h14v1.598h-14Zm0 0"/></clipPath></defs><path fill="none" stroke="#000" stroke-miterlimit="10" stroke-width=".39843741" d="M1.855 8.793h23.98m0 0h23.981"/><g clip-path="url(#a)"><path fill="#FFF" d="M3.441 8.793a1.587 1.587 0 0 0-3.171 0c0 .875.71 1.582 1.585 1.582s1.586-.707 1.586-1.582m0 0"/></g><g clip-path="url(#b)"><path fill="none" stroke="#000" stroke-miterlimit="10" stroke-width=".39843741" d="M3.441 8.793a1.587 1.587 0 0 0-3.171 0c0 .875.71 1.582 1.585 1.582s1.586-.707 1.586-1.582Zm0 0"/></g><path stroke="#000" stroke-miterlimit="10" stroke-width=".39843741" d="M51.402 8.793a1.585 1.585 0 1 0-3.169-.003 1.585 1.585 0 0 0 3.17.003Zm0 0"/><path fill="none" stroke="#000" stroke-linejoin="bevel" stroke-miterlimit="10" stroke-width=".7958762300000001" d="M64.766 16.785c2.78 0 5.039 1.91 5.039 4.266 0 2.355-2.258 4.261-5.04 4.261 2.782 0 5.04 1.91 5.04 4.262 0 2.356-2.258 4.266-5.04 4.266 2.782 0 5.04 1.906 5.04 4.262 0 2.355-2.258 4.261-5.04 4.261 2.782 0 5.04 1.91 5.04 4.266 0 2.355-2.258 4.262-5.04 4.262 2.782 0 5.04 1.91 5.04 4.261 0 2.356-2.258 4.266-5.04 4.266 2.782 0 5.04 1.906 5.04 4.262 0 2.355-2.258 4.261-5.04 4.261M85.23 67.941c-2.78 0-5.035-1.906-5.035-4.261 0-2.356 2.254-4.262 5.035-4.262-2.78 0-5.035-1.91-5.035-4.266 0-2.351 2.254-4.261 5.035-4.261-2.78 0-5.035-1.907-5.035-4.262 0-2.356 2.254-4.266 5.035-4.266-2.78 0-5.035-1.906-5.035-4.261 0-2.356 2.254-4.262 5.035-4.262-2.78 0-5.035-1.91-5.035-4.266 0-2.351 2.254-4.262 5.035-4.262-2.78 0-5.035-1.906-5.035-4.261 0-2.356 2.254-4.262 5.035-4.262"/><path fill="none" stroke="#000" stroke-miterlimit="10" stroke-width=".39843741" d="M49.816 8.793h15.11v8.39m0 50.364v8.39h-15.11M100.18 8.793H85.07v8.39m0 50.364v8.39h15.11"/><path fill="none" stroke="#000" stroke-miterlimit="10" stroke-width=".7958762300000001" d="M76.258 59.152V25.578m-2.52 33.574V25.578"/><path fill="none" stroke="#000" stroke-miterlimit="10" stroke-width=".39843741" d="M49.816 8.793v30.215m0 6.715V87.93m0 0v11.988"/><path fill="none" stroke="#000" stroke-miterlimit="10" stroke-width=".7958762300000001" d="M39.746 45.723h20.145m-20.145-6.715h20.145M59.89 52.437 43.005 35.551"/><path stroke="#000" stroke-miterlimit="10" stroke-width=".79586029" d="m40.309 32.855 1.015 4.098 1.54-1.543 1.542-1.539Zm0 0"/><path stroke="#000" stroke-miterlimit="10" stroke-width=".39843741" d="M51.402 75.937c0-.875-.707-1.582-1.586-1.582a1.584 1.584 0 1 0 1.586 1.582Zm0 0"/><path fill="#FFF" stroke="#000" stroke-miterlimit="10" stroke-width=".39843741" d="M51.402 99.918c0-.875-.707-1.582-1.586-1.582a1.58 1.58 0 0 0-1.582 1.582c0 .879.707 1.586 1.582 1.586.88 0 1.586-.707 1.586-1.586Zm0 0"/><use xlink:href="#c" x="45.948" y="109.233"/><path fill="none" stroke="#000" stroke-miterlimit="10" stroke-width=".39843741" d="M100.18 8.793h17.265m13.43 0h17.266"/><path fill="none" stroke="#000" stroke-miterlimit="10" stroke-width=".7958762300000001" d="M130.875 8.793 117.445.398v16.786Zm0 0"/><path fill="none" stroke="#000" stroke-miterlimit="10" stroke-width=".39843741" d="M130.875 8.793h-13.43"/><path fill="none" stroke="#000" stroke-miterlimit="10" stroke-width=".7958762300000001" d="M130.875 17.184V.398"/><path fill="none" stroke="#000" stroke-linejoin="bevel" stroke-miterlimit="10" stroke-width=".7958762300000001" d="M163.09 16.785c2.781 0 5.035 1.91 5.035 4.266 0 2.355-2.254 4.261-5.035 4.261 2.781 0 5.035 1.91 5.035 4.262 0 2.356-2.254 4.266-5.035 4.266 2.781 0 5.035 1.906 5.035 4.262 0 2.355-2.254 4.261-5.035 4.261 2.781 0 5.035 1.91 5.035 4.266 0 2.355-2.254 4.262-5.035 4.262 2.781 0 5.035 1.91 5.035 4.261 0 2.356-2.254 4.266-5.035 4.266 2.781 0 5.035 1.906 5.035 4.262 0 2.355-2.254 4.261-5.035 4.261M183.55 67.941c-2.78 0-5.034-1.906-5.034-4.261 0-2.356 2.253-4.262 5.035-4.262-2.782 0-5.035-1.91-5.035-4.266 0-2.351 2.253-4.261 5.035-4.261-2.782 0-5.035-1.907-5.035-4.262 0-2.356 2.253-4.266 5.035-4.266-2.782 0-5.035-1.906-5.035-4.261 0-2.356 2.253-4.262 5.035-4.262-2.782 0-5.035-1.91-5.035-4.266 0-2.351 2.253-4.262 5.035-4.262-2.782 0-5.035-1.906-5.035-4.261 0-2.356 2.253-4.262 5.035-4.262"/><path fill="none" stroke="#000" stroke-miterlimit="10" stroke-width=".39843741" d="M148.14 8.793h15.11v8.39m0 50.364v8.39h-15.11M198.5 8.793h-15.106v8.39m0 50.364v8.39H198.5"/><path fill="none" stroke="#000" stroke-miterlimit="10" stroke-width=".7958762300000001" d="M174.578 59.152V25.578m-2.516 33.574V25.578"/><path fill="none" stroke="#000" stroke-miterlimit="10" stroke-width=".39843741" d="M100.18 75.937h17.265m13.43 0h17.266"/><path fill="none" stroke="#000" stroke-miterlimit="10" stroke-width=".7958762300000001" d="m130.875 75.937-13.43-8.39v16.785Zm0 0"/><path fill="none" stroke="#000" stroke-miterlimit="10" stroke-width=".39843741" d="M130.875 75.937h-13.43"/><path fill="none" stroke="#000" stroke-miterlimit="10" stroke-width=".7958762300000001" d="M130.875 84.332V67.547"/><path fill="none" stroke="#000" stroke-miterlimit="10" stroke-width=".39843741" d="m100.18 8.793 8.086 11.32m7.804 10.93 8.09 11.32"/><path fill="none" stroke="#000" stroke-miterlimit="10" stroke-width=".7958762300000001" d="m108.266 20.113 14.636 6.051-13.66 9.758Zm0 0"/><path fill="none" stroke="#000" stroke-miterlimit="10" stroke-width=".39843741" d="m108.266 20.113 7.804 10.93"/><path fill="none" stroke="#000" stroke-miterlimit="10" stroke-width=".7958762300000001" d="m101.437 24.992 13.66-9.754"/><path stroke="#000" stroke-miterlimit="10" stroke-width=".39843741" d="M101.762 8.793a1.584 1.584 0 1 0-3.168-.004 1.584 1.584 0 0 0 3.168.004Zm0 0"/><path fill="none" stroke="#000" stroke-miterlimit="10" stroke-width=".39843741" d="m124.16 42.363 11.988 16.79m0 0 11.993 16.784"/><path stroke="#000" stroke-miterlimit="10" stroke-width=".39843741" d="M149.727 75.937c0-.875-.711-1.582-1.586-1.582a1.584 1.584 0 1 0 0 3.168c.875 0 1.586-.71 1.586-1.586Zm0 0"/><path fill="none" stroke="#000" stroke-miterlimit="10" stroke-width=".39843741" d="m100.18 75.937 8.086-11.32m7.804-10.93 8.09-11.324"/><path fill="none" stroke="#000" stroke-miterlimit="10" stroke-width=".7958762300000001" d="m108.266 64.617.976-15.808 13.66 9.757Zm0 0"/><path fill="none" stroke="#000" stroke-miterlimit="10" stroke-width=".39843741" d="m108.266 64.617 7.804-10.93"/><path fill="none" stroke="#000" stroke-miterlimit="10" stroke-width=".7958762300000001" d="m115.098 69.492-13.66-9.754"/><path stroke="#000" stroke-miterlimit="10" stroke-width=".39843741" d="M101.762 75.937a1.584 1.584 0 1 0-3.168.003 1.584 1.584 0 0 0 3.168-.003Zm0 0"/><path fill="none" stroke="#000" stroke-miterlimit="10" stroke-width=".39843741" d="m124.16 42.363 11.988-16.785m0 0 11.993-16.785"/><path stroke="#000" stroke-miterlimit="10" stroke-width=".39843741" d="M149.727 8.793a1.587 1.587 0 0 0-3.172 0c0 .875.71 1.582 1.586 1.582.875 0 1.586-.707 1.586-1.582Zm0 0"/><path fill="none" stroke="#000" stroke-miterlimit="10" stroke-width=".39843741" d="M85.07 42.363h2.996m0 0h3v26.98m0 0v26.981h16.547m0 0H198.5V75.937"/><path stroke="#000" stroke-miterlimit="10" stroke-width=".39843741" d="M86.656 42.363c0-.875-.71-1.582-1.586-1.582a1.584 1.584 0 1 0 0 3.168c.875 0 1.586-.707 1.586-1.586ZM125.746 96.324a1.587 1.587 0 0 0-3.172 0c0 .875.711 1.582 1.586 1.582.875 0 1.586-.707 1.586-1.582Zm0 0"/><path fill="none" stroke="#000" stroke-miterlimit="10" stroke-width=".39843741" d="M124.16 96.324v11.988m0 0v11.993h11.629m6.715 0h11.633V42.363h9.113m0 0"/><path fill="none" stroke="#000" stroke-miterlimit="10" stroke-width=".7958762300000001" d="M135.789 110.23v20.145m6.715-20.145v20.145"/><path stroke="#000" stroke-miterlimit="10" stroke-width=".39843741" d="M125.746 120.305a1.587 1.587 0 0 0-3.172 0 1.587 1.587 0 0 0 3.172 0ZM155.723 120.305a1.587 1.587 0 0 0-3.172 0 1.587 1.587 0 0 0 3.172 0ZM164.832 42.363a1.584 1.584 0 1 0-3.168.003 1.584 1.584 0 0 0 3.168-.003Zm0 0"/><path fill="none" stroke="#000" stroke-miterlimit="10" stroke-width=".39843741" d="M198.5 8.793h11.992m0 0h11.988"/><path fill="#FFF" d="M224.066 8.793a1.585 1.585 0 1 0-3.169-.003 1.585 1.585 0 0 0 3.17.003m0 0"/><g clip-path="url(#d)"><path fill="none" stroke="#000" stroke-miterlimit="10" stroke-width=".39843741" d="M224.066 8.793a1.585 1.585 0 1 0-3.169-.003 1.585 1.585 0 0 0 3.17.003Zm0 0"/></g><path fill="none" stroke="#000" stroke-miterlimit="10" stroke-width=".39843741" d="M154.137 120.305h34.172m0 0h34.171"/><path fill="#FFF" d="M224.066 120.305a1.585 1.585 0 1 0-3.168 0 1.584 1.584 0 1 0 3.168 0m0 0"/><g clip-path="url(#e)"><path fill="none" stroke="#000" stroke-miterlimit="10" stroke-width=".39843741" d="M224.066 120.305a1.585 1.585 0 1 0-3.168 0 1.584 1.584 0 1 0 3.168 0Zm0 0"/></g><path fill="none" stroke="#000" stroke-miterlimit="10" stroke-width=".39843741" d="M124.16 120.305v5.996m0 0v5.992"/><g clip-path="url(#f)"><path fill="none" stroke="#000" stroke-miterlimit="10" stroke-width=".39843741" d="M124.16 132.293v9.91"/></g><g clip-path="url(#g)"><path fill="none" stroke="#000" stroke-linecap="round" stroke-miterlimit="10" stroke-width=".7958762300000001" d="M118.215 142.203h11.89"/></g><use xlink:href="#h" x="5.371" y="19.43"/><use xlink:href="#i" x="11.449" y="19.43"/><use xlink:href="#j" x="17.946" y="19.43"/><use xlink:href="#k" x="21.259" y="19.43"/><use xlink:href="#l" x="28.72" y="19.43"/><use xlink:href="#m" x="37.007" y="19.43"/><use xlink:href="#n" x="42.539" y="19.43"/><use xlink:href="#o" x="197.964" y="19.32"/><use xlink:href="#i" x="205.007" y="19.32"/><use xlink:href="#p" x="211.225" y="19.32"/><use xlink:href="#q" x="205.007" y="130.612"/><use xlink:href="#i" x="212.468" y="130.612"/></svg>