<svg xmlns="http://www.w3.org/2000/svg" xmlns:xlink="http://www.w3.org/1999/xlink" width="232.259" height="71.264"><defs><clipPath id="a"><path d="M227 33h3.707v5H227Zm0 0"/></clipPath><clipPath id="b"><path d="M221 27h9.707v16H221Zm0 0"/></clipPath><clipPath id="c"><path d="M15 3h1v67.535h-1Zm0 0"/></clipPath><clipPath id="d"><path d="M15.398 4H230v62H15.398Zm0 0"/></clipPath><path id="e" d="M2.031-3.937h.922c.203 0 .297 0 .297-.204 0-.109-.094-.109-.266-.109H2.11c.36-1.406.407-1.594.407-1.656 0-.172-.125-.266-.282-.266-.03 0-.312.016-.406.36L1.453-4.25H.516c-.188 0-.282 0-.282.188 0 .125.078.125.266.125h.875C.656-1.142.625-.97.625-.797c0 .531.375.906.906.906 1 0 1.563-1.437 1.563-1.515 0-.11-.078-.11-.11-.11-.093 0-.109.032-.156.141C2.406-.344 1.891-.109 1.547-.109c-.203 0-.297-.125-.297-.453 0-.235.016-.313.047-.47Zm0 0"/><path id="f" d="M6.266-5.703c.093-.406.265-.703 1.062-.719.047 0 .172-.016.172-.203 0-.016 0-.11-.14-.11-.313 0-.673.032-1 .032-.329 0-.704-.031-1.032-.031-.047 0-.172 0-.172.203 0 .11.094.11.172.11.563 0 .672.202.672.421 0 .031-.016.188-.031.219l-.875 3.515C4.75-.953 3.625-.094 2.625-.094c-.656 0-1.203-.422-1.203-1.281 0-.016 0-.328.11-.766L2.5-5.969c.078-.36.11-.453.828-.453.25 0 .328 0 .328-.203 0-.11-.11-.11-.14-.11-.266 0-.985.032-1.266.032s-.984-.031-1.266-.031c-.078 0-.187 0-.187.203 0 .11.094.11.281.11.016 0 .203 0 .375.015s.266.031.266.156c0 .063-.11.469-.172.703l-.219.86c-.078.39-.562 2.25-.594 2.437-.078.281-.078.422-.078.578 0 1.203.907 1.89 1.938 1.89C3.828.219 5.063-.89 5.39-2.202Zm0 0"/></defs><path fill="none" stroke="#000" stroke-miterlimit="10" stroke-width=".39492222000000005" d="M15.398 35.27h211.676"/><g clip-path="url(#a)"><path d="m230.117 35.27-2.945-1.747v3.489Zm0 0"/></g><g clip-path="url(#b)"><path fill="none" stroke="#000" stroke-miterlimit="10" stroke-width=".39492222000000005" d="m230.117 35.27-2.945-1.747v3.489Zm0 0"/></g><g clip-path="url(#c)"><path fill="none" stroke="#000" stroke-miterlimit="10" stroke-width=".39492222000000005" d="M15.398 70.34V3.633"/></g><path stroke="#000" stroke-miterlimit="10" stroke-width=".39492222000000005" d="m15.398.59-1.746 2.945h3.493Zm0 0"/><g clip-path="url(#d)"><path fill="none" stroke="#000" stroke-miterlimit="10" stroke-width=".78885466" d="m15.613 35.266.215-.196.215-.191.43-.39.218-.196.43-.39.215-.192.43-.39.214-.192.215-.195.215-.192.215-.195.43-.383.215-.195.43-.383.218-.191.215-.188.43-.383.214-.187.215-.192 1.074-.937.215-.184.215-.187.215-.184.219-.183.43-.368.214-.18.215-.183.86-.719 1.074-.879.215-.171.218-.172.43-.344.86-.672.859-.656.644-.48.215-.157.219-.156.43-.313.644-.457.645-.445.644-.434.43-.28.219-.142.43-.273.214-.133.215-.136.215-.13.215-.132.43-.258.644-.375.43-.242.214-.117.22-.118.214-.117.43-.226.644-.328.43-.211.43-.204.644-.292.219-.094.215-.094.43-.18.644-.257.215-.083.215-.078.214-.082.215-.074.215-.078.215-.07.215-.075.215-.066.218-.07.215-.067.645-.187.215-.059.644-.164.43-.101.215-.047.215-.043.214-.047.22-.04.429-.077.43-.07.43-.063.429-.055.43-.047.43-.039.429-.031.219-.012.215-.011.644-.024h.215l.215-.004.215.004h.214l.215.008.215.004.215.008.43.023.218.016.215.015.43.04.43.046.644.082.215.035.215.032.215.035.43.078.214.043.219.043.215.043.215.047.43.101.644.164.43.118.214.062.215.067.215.062.43.14.219.071.214.07.215.078.215.075.215.078.644.246.43.172.43.18.43.187.218.098.43.195.43.203.644.316.215.11.215.113.215.11.215.117.214.113.43.234.219.121.215.121.644.375.645.387.43.266.859.547.219.14.214.145.215.14.43.29.644.445.86.61.43.312.214.16.22.156.214.16.215.164.215.16.644.493.86.672.644.515.219.172 1.074.879 1.074.898.43.368.215.18.215.187.218.183.215.184.215.187.215.184.644.563.215.191.43.375.86.766.218.191.86.766.214.195.215.191.215.196.215.191.644.586.215.191.43.391.219.195.43.391.214.191 1.29 1.172.214.192.43.39.215.192.214.195.22.195.214.192.215.195.644.574.215.196.43.382.215.188.43.383.214.187.215.192.219.187.86.75.214.184.215.187 1.074.918.645.54.218.179.215.18.215.175.215.18.43.352.215.171.214.176.43.344.215.168.215.172.43.336.218.168.86.656.859.64.43.313.214.152.215.157.215.152.215.149.219.152.215.148.214.145.215.148.43.29.645.421.644.41.43.266.218.129.645.387.215.125.215.12.215.126.214.117.215.121.43.234.43.227.43.219.218.11.43.21.644.305.43.195.43.187.644.27.215.086.219.082.43.164.43.156.429.149.644.21.215.067.645.188.215.058.218.059.215.054.215.051.215.055.644.14.645.13.215.035.215.039.214.03.215.036.215.031.219.028.215.027.43.047.43.039.644.047.214.008.215.011.215.008.43.008h.648l.215-.008.215-.004.215-.008.43-.023.644-.047.215-.023.215-.02.215-.023.214-.028.22-.027.644-.094.215-.035.644-.117.215-.043.644-.14.215-.051.215-.055.219-.055.215-.054.43-.118.43-.125.429-.132.43-.141.644-.223.215-.078.215-.082.218-.082.215-.082.43-.172.43-.18.644-.28.43-.196.43-.203.214-.106.22-.105.214-.106.43-.218.43-.227.644-.352.644-.363.43-.25.215-.129.219-.129.215-.129.644-.398.43-.273.644-.422.86-.578.218-.149.215-.148.86-.61.43-.312.214-.16.215-.157.43-.32.644-.492.219-.164.215-.168.215-.164.215-.168.214-.172.215-.168.43-.344.215-.175.215-.172.859-.703.219-.18.86-.719.214-.184.215-.18.43-.366.214-.188.43-.367.645-.563.218-.187.215-.188.215-.191.215-.187.215-.192.215-.187 1.074-.957.215-.196.43-.383.214-.195.219-.191.43-.39.214-.192.43-.39.215-.192 1.504-1.368.219-.19.859-.782.215-.192.43-.39.214-.192.43-.39.43-.383.215-.195.214-.192.22-.191.859-.766.214-.187.215-.192.215-.187.215-.192.86-.75.214-.183.219-.188 1.074-.918 1.29-1.078.644-.527.218-.172.215-.176.645-.515.215-.168.215-.172.214-.164.43-.336.645-.492.214-.16.22-.16.214-.16.215-.157.215-.16.215-.157.214-.152.215-.156.215-.153.215-.148.215-.152.43-.297.644-.434.219-.14.215-.145.214-.137.215-.14.215-.137.215-.133.215-.137.215-.132.859-.516.43-.25.218-.121.215-.121.215-.117.215-.121.215-.114.215-.117.215-.113.644-.328.645-.317.214-.101.215-.098.219-.098.215-.097.644-.281.215-.09.645-.258.43-.164.43-.156.429-.149.219-.074.214-.07.645-.2.43-.125.43-.117.429-.11.43-.1.215-.048.218-.047.43-.085.43-.079.644-.105.215-.031.43-.055.644-.07.215-.02.219-.015.215-.016.644-.035.215-.008.645-.012h.214l.43.008.43.016.219.007.214.012.645.047.215.02.644.07.215.027.645.094.215.035.214.04.22.038.214.04.215.042.644.141.43.102.43.109.43.117.43.125.218.066.215.067.644.21.215.075.645.234.43.164.429.172.43.18.218.094.215.09.645.293.644.304.215.106.215.11.215.105.215.113.215.11.214.113.22.117.644.351.215.121.859.5.215.13.215.132.214.129.215.133.215.137.215.132.219.141.215.137.644.422.43.289.86.593.429.305.215.156.215.153.218.156.215.16.215.156.43.32 1.074.821.43.336.214.172.215.168.219.172.43.343.215.176.214.172.43.352.215.18.215.175.86.719.429.367.219.18.214.187.43.367.215.188.215.183.86.75.214.192.215.187.215.192.215.187.218.192 1.074.957.215.195.215.191.215.196.215.191.215.195.215.192.43.39.214.192.219.195 1.074.977"/></g><use xlink:href="#e" x="223.463" y="44.817"/><use xlink:href="#f" x="4.107" y="10.419"/></svg>