<svg xmlns="http://www.w3.org/2000/svg" xmlns:xlink="http://www.w3.org/1999/xlink" width="233.583" height="71.264"><defs><clipPath id="a"><path d="M219 27h13.184v16H219Zm0 0"/></clipPath><clipPath id="b"><path d="M15 3h1v67.535h-1Zm0 0"/></clipPath><clipPath id="c"><path d="M15.566.195H228V70.34H15.566Zm0 0"/></clipPath><path id="d" d="M2.031-3.937h.922c.203 0 .297 0 .297-.204 0-.109-.094-.109-.266-.109H2.11c.36-1.406.407-1.594.407-1.656 0-.172-.125-.266-.282-.266-.03 0-.312.016-.406.36L1.453-4.25H.516c-.188 0-.282 0-.282.188 0 .125.078.125.266.125h.875C.656-1.142.625-.97.625-.797c0 .531.375.906.906.906 1 0 1.563-1.437 1.563-1.515 0-.11-.078-.11-.11-.11-.093 0-.109.032-.156.141C2.406-.344 1.891-.109 1.547-.109c-.203 0-.297-.125-.297-.453 0-.235.016-.313.047-.47Zm0 0"/><path id="e" d="M6.266-5.703c.093-.406.265-.703 1.062-.719.047 0 .172-.016.172-.203 0-.016 0-.11-.14-.11-.313 0-.673.032-1 .032-.329 0-.704-.031-1.032-.031-.047 0-.172 0-.172.203 0 .11.094.11.172.11.563 0 .672.202.672.421 0 .031-.016.188-.031.219l-.875 3.515C4.75-.953 3.625-.094 2.625-.094c-.656 0-1.203-.422-1.203-1.281 0-.016 0-.328.11-.766L2.5-5.969c.078-.36.11-.453.828-.453.25 0 .328 0 .328-.203 0-.11-.11-.11-.14-.11-.266 0-.985.032-1.266.032s-.984-.031-1.266-.031c-.078 0-.187 0-.187.203 0 .11.094.11.281.11.016 0 .203 0 .375.015s.266.031.266.156c0 .063-.11.469-.172.703l-.219.86c-.078.39-.562 2.25-.594 2.437-.078.281-.078.422-.078.578 0 1.203.907 1.89 1.938 1.89C3.828.219 5.063-.89 5.39-2.202Zm0 0"/></defs><path fill="none" stroke="#000" stroke-miterlimit="10" stroke-width=".39492222000000005" d="M15.566 35.27H225.27"/><path d="m228.313 35.27-2.946-1.747v3.489Zm0 0"/><g clip-path="url(#a)"><path fill="none" stroke="#000" stroke-miterlimit="10" stroke-width=".39492222000000005" d="m228.313 35.27-2.946-1.747v3.489Zm0 0"/></g><g clip-path="url(#b)"><path fill="none" stroke="#000" stroke-miterlimit="10" stroke-width=".39492222000000005" d="M15.566 70.34V3.633"/></g><path stroke="#000" stroke-miterlimit="10" stroke-width=".39492222000000005" d="M15.566.59 13.82 3.535h3.493Zm0 0"/><g clip-path="url(#c)"><path fill="none" stroke="#000" stroke-miterlimit="10" stroke-width=".78885466" d="m15.777 35.27.215-2.856.215-2.84.211-2.765.215-2.633.21-2.438.216-2.195.21-1.898.215-1.563.215-1.184.211-.777.215-.348.21.094.216.54.21.98.216 1.406.21 1.812.215 2.18.215 2.512.211 2.797.215 3.023.21 3.188.216 3.293.21 3.332.216 3.293.214 3.195.211 3.023.215 2.786.211 2.492.215 2.136.21 1.735.216 1.297.21.816.216.324.214-.191.211-.7.215-1.202.211-1.688.215-2.14.21-2.555.216-2.926.215-3.23.21-3.477.215-3.648.211-3.754.215-3.778.211-3.722.215-3.59.21-3.38.216-3.1.215-2.75.21-2.34.215-1.88.211-1.374.215-.836.211-.274.215.301.215.871.21 1.434.215 1.964.211 2.461.215 2.914.211 3.31.215 3.64.215 3.894.21 4.07.216 4.169.21 4.175.215 4.098.211 3.934.215 3.687.211 3.36.215 2.964.215 2.5.21 1.985.216 1.418.21.824.215.203.211-.426.215-1.043.215-1.652.211-2.227.215-2.761.21-3.239.216-3.652.21-4 .215-4.258.211-4.43.215-4.52.215-4.503.21-4.406.216-4.207.21-3.926.216-3.559.21-3.117.215-2.61.215-2.038.211-1.426.215-.785.21-.117.216.55.21 1.215.216 1.856.21 2.46.215 3.02.215 3.512.211 3.941.215 4.29.21 4.55.216 4.711.21 4.785.216 4.754.214 4.625.211 4.402.215 4.086.211 3.684.215 3.203.21 2.652.216 2.051.215 1.399.21.718.215.02.211-.68.215-1.367.211-2.031.215-2.656.21-3.223.216-3.727.215-4.156.21-4.5.215-4.75.211-4.902.215-4.957.211-4.903.215-4.753.215-4.504.21-4.157.215-3.73.211-3.219.215-2.64.211-2.012.215-1.336.211-.633.215.086.215.8.21 1.5.215 2.173.211 2.797.215 3.367.211 3.867.215 4.285.215 4.617.21 4.856.216 4.988.21 5.023.215 4.954.211 4.777.215 4.508.211 4.144.215 3.688.215 3.164.21 2.574.216 1.926.21 1.242.215.527.211-.187.215-.906.215-1.606.21-2.266.216-2.882.21-3.438.216-3.926.21-4.324.215-4.64.215-4.852.211-4.973.215-4.984.21-4.895.216-4.703.21-4.414.216-4.035.21-3.578.215-3.04.215-2.448.211-1.801.215-1.121.21-.418.216.289.21.992.216 1.668.214 2.313.211 2.906.215 3.437.211 3.895.215 4.273.21 4.559.216 4.754.21 4.844.215 4.84.215 4.734.211 4.527.215 4.23.211 3.852.215 3.387.21 2.86.216 2.273.215 1.644.21.985.215.3.211-.379.215-1.05.211-1.696.215-2.304.21-2.864.216-3.359.214-3.785.211-4.13.215-4.382.211-4.55.215-4.622.211-4.597.215-4.477.215-4.266.21-3.964.215-3.59.211-3.137.215-2.629.211-2.062.215-1.461.21-.832.216-.188.215.45.21 1.081.215 1.68.211 2.246.215 2.758.211 3.207.215 3.594.215 3.902.21 4.121.216 4.262.21 4.308.215 4.266.211 4.14.215 3.927.215 3.632.21 3.266.216 2.84.21 2.355.216 1.824.21 1.262.215.68.211.086.215-.504.215-1.078.21-1.625.216-2.137.21-2.59.216-2.996.21-3.336.215-3.597.215-3.786.211-3.894.215-3.926.21-3.867.216-3.734.21-3.528.216-3.246.21-2.906.215-2.504.215-2.055.211-1.57.215-1.059.21-.53.216.003.21.535.215 1.047.215 1.527.211 1.98.215 2.38.211 2.726.215 3.016.21 3.238.216 3.39.21 3.477.215 3.48.215 3.423.211 3.285.215 3.09.211 2.828.215 2.512.21 2.152.216 1.746.214 1.313.211.859.215.39.211-.078.215-.539.211-.984.215-1.402.215-1.782.21-2.129.215-2.418.211-2.66.215-2.836.211-2.96L81 37.09l.211-3.012.215-2.941.215-2.813.21-2.633.215-2.394.211-2.117.215-1.793.211-1.442.215-1.062.215-.672.21-.27.216.13.21.523.215.894.211 1.25.215 1.563.211 1.847.215 2.086.215 2.282.21 2.418.216 2.507.21 2.547.215 2.528.211 2.46.215 2.344.215 2.176.21 1.973.216 1.726.21 1.453.216 1.153.21.832.215.504.211.172.215-.164.215-.485.21-.793.216-1.074.21-1.332.216-1.559.21-1.746.215-1.894.215-2.004.211-2.067.215-2.086.21-2.062.216-1.996.21-1.89.215-1.747.215-1.574.211-1.367.215-1.14.211-.895.215-.63.21-.367.216-.09.21.173.215.433.215.672.211.902.215 1.098.211 1.273.215 1.422.21 1.528.216 1.609.214 1.652.211 1.657.215 1.632.211 1.575.215 1.484.211 1.363.215 1.223.21 1.055.216.867.214.672.211.465.215.253.211.043.215-.168.211-.37.215-.555.215-.727.21-.883.215-1.011.211-1.122.215-1.199.211-1.258.215-1.289.21-1.285.216-1.265.215-1.211.21-1.137.215-1.043.211-.93.215-.797.211-.652.215-.5.215-.34.21-.172.216-.011.21.144.215.301.211.445.215.574.215.688.21.79.216.87.21.93.216.969.21.992.215.988.211.969.215.93.215.87.21.797.216.711.21.606.216.496.21.379.215.254.215.133h.211l.215-.118.21-.238.216-.348.21-.449.215-.539.211-.613.215-.684.215-.726.211-.762.215-.777.21-.782.216-.765.21-.738.215-.696.215-.637.211-.57.215-.492.211-.406.215-.309.21-.215.216-.113.21-.012.215.086.215.184.211.277.215.363.211.442.215.508.21.562.216.613.214.641.211.664.215.672.211.664.215.645.211.613.215.57.215.516.21.453.215.379.211.3.215.212.211.125.215.03.21-.058.216-.152.215-.238.21-.325.215-.402.211-.469.215-.535.211-.582.215-.625.215-.648.21-.668.216-.668.21-.657.215-.632.211-.594.215-.547.211-.488.215-.414.215-.336.21-.25.216-.156.21-.06.215.044.211.144.215.243.215.336.21.43.216.511.21.59.216.648.21.707.215.742.211.766.43 1.547.21.746.216.711.21.656.215.59.211.512.215.418.215.312.211.2.215.085.21-.043.216-.164.21-.289.215-.41.215-.523.211-.633.215-.73.211-.813.215-.883.21-.933.216-.97.21-.98.215-.98.215-.95.211-.906.215-.84.211-.757.215-.653.21-.53.216-.4.214-.253.211-.102.215.055.211.223.215.382.211.54.215.687.21.828.216.957.214 1.063.211 1.148.215 1.219.211 1.262.215 1.277.21 1.27.216 1.234.215 1.172.21 1.082.215.965.211.832.215.675.211.5.215.309.21.105.216-.101.215-.309.21-.523.215-.723.211-.918.215-1.094.211-1.25.215-1.39.215-1.5.21-1.582.216-1.63.21-1.644.215-1.629.211-1.578.215-1.488.215-1.367.21-1.219.216-1.035.21-.832.216-.602.21-.355.215-.098.211.168.215.438.215.703.21.957.216 1.2.21 1.417.215 1.613.211 1.782.215 1.91.215 2.004.211 2.058.215 2.067.21 2.039.216 1.96.21 1.844.215 1.684.211 1.484.215 1.254.215.989.211.703.215.39.21.067.216-.262.21-.598.215-.918.215-1.234.211-1.523.215-1.79.211-2.02.215-2.214.21-2.363.216-2.469.21-2.523.215-2.524.215-2.472.211-2.372.215-2.214.211-2.008.215-1.758.21-1.473.216-1.14.214-.785.211-.41.215-.016.211.383.215.777.21 1.168.216 1.539.215 1.879.21 2.183.215 2.457.211 2.672.215 2.844.211 2.95.215 3.003.21 2.988.216 2.915.215 2.78.21 2.583.215 2.328.211 2.02.215 1.671.211 1.278.215.855.215.406.21-.058.216-.524.21-.984.215-1.434.211-1.855.215-2.25.211-2.594.215-2.894.215-3.137.21-3.32.216-3.426.21-3.473.215-3.441.211-3.34.215-3.168.215-2.926.21-2.625.216-2.258.21-1.847.216-1.387.21-.898.215-.38.211.145.215.68.215 1.203.21 1.707.216 2.18.21 2.613.215 2.996.211 3.324.215 3.578.215 3.77.211 3.879.215 3.906.21 3.86.216 3.726.21 3.516.215 3.234.211 2.875.215 2.461.215 1.984.211 1.465.215.914.21.336.216-.258.21-.843.215-1.422.215-1.973.211-2.492.215-2.957.211-3.371.215-3.715.21-3.98.216-4.172.214-4.278.211-4.293.215-4.215.211-4.058.215-3.809.21-3.48.216-3.082.21-2.606.216-2.086.214-1.507.211-.899.215-.265.211.37.215 1.012.21 1.633.216 2.227.215 2.77.21 3.269.215 3.695.211 4.05.215 4.329.211 4.512.215 4.601.21 4.602.216 4.504.215 4.312.21 4.028.215 3.664.211 3.218.215 2.704.211 2.132.215 1.512.215.856.21.183.216-.496.21-1.172.215-1.828.211-2.441.215-3.016.211-3.52.215-3.964.215-4.317.21-4.594.216-4.765.21-4.844.215-4.824.211-4.7.215-4.48.215-4.168.21-3.77.216-3.284.21-2.739.215-2.133.211-1.476.215-.79.215-.085.211.621.215 1.316.21 1.989.216 2.62.21 3.2.215 3.715.211 4.152.215 4.504.215 4.766.211 4.925.215 4.989.21 4.945.216 4.797.21 4.559.215 4.214.215 3.793.211 3.285.215 2.708.211 2.082.215 1.406.21.699.216-.016.21-.734.215-1.441.215-2.118.211-2.746.215-3.324.21-3.828.216-4.254.21-4.598.216-4.84.214-4.98.211-5.027.215-4.961.211-4.797.215-4.535.21-4.172.216-3.734.21-3.211.216-2.621.214-1.985.211-1.305.215-.593.211.12.215.837.21 1.535.216 2.2.215 2.812.21 3.375.215 3.863.211 4.27.215 4.585.211 4.813.215 4.933.215 4.957.21 4.872.216 4.695.21 4.41.215 4.047.211 3.594.215 3.07.211 2.48.215 1.848.215 1.176.21.48.216-.222.21-.918.215-1.59.211-2.23.215-2.825.215-3.351.21-3.813.216-4.191.21-4.485.215-4.68.211-4.777.215-4.785.211-4.683.215-4.489.215-4.203.21-3.836.216-3.383.21-2.87.215-2.294.211-1.68.215-1.027.215-.359.211.309.215.972.21 1.613.216 2.211.21 2.766.215 3.258.211 3.68.215 4.023.215 4.285.211 4.453.215 4.532.21 4.511.216 4.403.21 4.203.215 3.914.215 3.55.211 3.118.215 2.617.21 2.07.216 1.485.21.87.216.247.214-.387.211-.996.215-1.59.211-2.144.215-2.645.21-3.094.216-3.472.21-3.778.216-4.004.214-4.14.211-4.196.215-4.16.211-4.043.215-3.843.21-3.563.216-3.21.215-2.802.21-2.332.215-1.82.211-1.277.215-.711.211-.137.215.438.21.996.216 1.527.215 2.023.21 2.477.215 2.867.211 3.2.215 3.46.211 3.653.215 3.757.215 3.793.21 3.747.216 3.625.21 3.425.215 3.164.211 2.832.215 2.454.211 2.023.215 1.559.215 1.062.21.559.215.039.211-.465.215-.965.211-1.43.215-1.863.215-2.254.21-2.594.216-2.875.21-3.093.215-3.246.211-3.329.215-3.34.215-3.288.211-3.165.215-2.976.21-2.734.216-2.434.21-2.09.215-1.707.211-1.297.215-.86.215-.413.211.035.215.476.21.903.216 1.305.21 1.667.215 2 .215 2.286.211 2.511.215 2.692.211 2.808.215 2.868.21 2.043"/></g><use xlink:href="#d" x="221.657" y="44.817"/><use xlink:href="#e" x="4.275" y="10.419"/></svg>