<svg xmlns="http://www.w3.org/2000/svg" xmlns:xlink="http://www.w3.org/1999/xlink" width="234.94" height="94.837"><defs><path id="a" d="M5.578-2.656h-.25C5.25-1.281 5.062-.344 3.218-.344h-1.64l3.86-6.11c.078-.109.078-.109.078-.187 0-.156-.063-.156-.266-.156H.797l-.11 2.234h.25c.063-1.125.36-1.921 2-1.921H4.5L.625-.375c-.062.11-.062.125-.062.203C.563 0 .609 0 .813 0h4.593Zm0 0"/><path id="b" d="m6.078-4.531-.281-2.235H.328v.313h.235c.765 0 .796.11.796.469v5.203c0 .36-.03.469-.796.469H.328V0c.344-.031 1.125-.031 1.516-.031.406 0 1.312 0 1.672.031v-.312h-.328c-.954 0-.954-.125-.954-.47v-2.452h.86c.953 0 1.062.312 1.062 1.172h.25v-2.641h-.25c0 .828-.11 1.156-1.062 1.156h-.86v-2.515c0-.329.032-.391.5-.391h1.188c1.5 0 1.734.547 1.906 1.922Zm0 0"/><path id="c" d="M7.172-3.453c0-.203-.188-.203-.328-.203H.89c-.141 0-.328 0-.328.203s.187.203.328.203h5.953c.14 0 .328 0 .328-.203m0 1.937c0-.203-.188-.203-.328-.203H.89c-.141 0-.328 0-.328.203 0 .188.187.188.328.188h5.953c.14 0 .328 0 .328-.188m0 0"/><path id="k" d="M7.125-6.484v-.313l-1.156.031-1.172-.03v.312c1.031 0 1.031.468 1.031.734v4.25L2.312-6.672c-.093-.11-.109-.125-.296-.125H.328v.313H.61c.157 0 .36 0 .5.015.235.032.25.047.25.235v5.187c0 .266 0 .734-1.03.734V0L1.5-.031 2.656 0v-.312c-1.031 0-1.031-.47-1.031-.735v-5.172c.063.047.063.063.11.125L5.796-.125c.078.11.094.125.172.125.125 0 .125-.062.125-.266V-5.75c0-.266 0-.734 1.031-.734m0 0"/><path id="d" d="M2.922-6.375c0-.234 0-.25-.219-.25-.625.64-1.5.64-1.812.64v.298c.187 0 .78 0 1.297-.25v5.156c0 .36-.032.469-.922.469H.953V0c.344-.031 1.203-.031 1.61-.031.39 0 1.265 0 1.609.031v-.312h-.313c-.906 0-.937-.11-.937-.47Zm0 0"/><path id="e" d="M4.578-3.187c0-.797-.047-1.594-.39-2.329-.47-.953-1.282-1.109-1.704-1.109-.593 0-1.312.25-1.734 1.188-.312.687-.36 1.453-.36 2.25 0 .75.032 1.64.454 2.406.422.797 1.14 1 1.64 1 .532 0 1.282-.203 1.72-1.156.327-.688.374-1.47.374-2.25M2.484 0c-.39 0-.984-.25-1.156-1.203-.11-.594-.11-1.516-.11-2.094 0-.64 0-1.297.079-1.844.187-1.171.937-1.265 1.187-1.265.329 0 .985.172 1.172 1.156.094.563.094 1.313.094 1.953 0 .735 0 1.422-.11 2.047C3.5-.297 2.923 0 2.485 0m0 0"/><path id="g" d="M4.734-6.062c.094-.125.094-.141.094-.344H2.406c-1.219 0-1.234-.14-1.265-.328H.89L.563-4.672h.25c.03-.172.109-.797.25-.906.062-.063.843-.063.968-.063h2.063c-.11.157-.907 1.235-1.125 1.563-.89 1.344-1.219 2.734-1.219 3.75 0 .094 0 .547.453.547.469 0 .469-.453.469-.547v-.516c0-.547.031-1.094.11-1.625.03-.234.171-1.078.609-1.703Zm0 0"/><path id="h" d="M2.406-6.578c-.094-.219-.125-.219-.36-.219H.376v.313h.234c.766 0 .782.109.782.468v4.97c0 .265 0 .734-1.016.734V0c.344-.016.828-.031 1.156-.031.328 0 .813.015 1.172.031v-.312c-1.031 0-1.031-.47-1.031-.735v-5.36h.016l2.39 6.188c.047.125.11.219.203.219.11 0 .14-.078.172-.187l2.453-6.297h.016v5.703c0 .36-.031.469-.797.469h-.234V0c.375-.031 1.047-.031 1.437-.031.39 0 1.047 0 1.422.031v-.312h-.234c-.766 0-.797-.11-.797-.47v-5.234c0-.359.031-.468.797-.468h.234v-.313H7.063c-.25 0-.25.016-.329.188L4.563-1Zm0 0"/><path id="i" d="M6.094-6.016c0-.359.031-.468.797-.468h.234v-.313c-.344.031-1.078.031-1.469.031-.375 0-1.125 0-1.468-.03v.312h.234c.781 0 .797.109.797.468v2.329H2.234v-2.329c0-.359.032-.468.797-.468h.235v-.313c-.344.031-1.078.031-1.47.031-.374 0-1.124 0-1.468-.03v.312h.235c.765 0 .796.109.796.468V-.78c0 .36-.03.469-.796.469H.328V0c.344-.031 1.078-.031 1.469-.031.375 0 1.125 0 1.469.031v-.312H3.03c-.765 0-.797-.11-.797-.47V-3.39H5.22v2.61c0 .36-.016.469-.797.469h-.234V0C4.53-.031 5.28-.031 5.656-.031s1.125 0 1.469.031v-.312h-.234c-.766 0-.797-.11-.797-.47Zm0 0"/><path id="j" d="M3.875-3.984c.094-.11.094-.141.094-.172 0-.14-.078-.14-.25-.14H.53l-.11 1.609h.25c.063-1.016.25-1.391 1.345-1.391H3.14L.375-.312c-.094.109-.094.125-.094.171C.281 0 .344 0 .531 0h3.297l.156-1.86H3.75C3.656-.686 3.438-.25 2.297-.25H1.109Zm0 0"/><path id="q" d="M5.438-6.453c.078-.11.078-.11.078-.188 0-.156-.063-.156-.266-.156H.797l-.11 2.234h.25c.063-1.125.36-1.921 2-1.921H4.5L.625-.375c-.062.11-.062.125-.062.203C.563 0 .609 0 .813 0h4.593l.172-2.656h-.25C5.25-1.281 5.062-.344 3.218-.344h-1.64Zm0 0"/><path id="r" d="M5.797-6.766H.328v.313h.235c.765 0 .796.11.796.469v5.203c0 .36-.03.469-.796.469H.328V0c.344-.031 1.125-.031 1.516-.031.406 0 1.312 0 1.672.031v-.312h-.328c-.954 0-.954-.125-.954-.47v-2.452h.86c.953 0 1.062.312 1.062 1.172h.25v-2.641h-.25c0 .828-.11 1.156-1.062 1.156h-.86v-2.515c0-.329.032-.391.5-.391h1.188c1.5 0 1.734.547 1.906 1.922h.25Zm0 0"/><path id="f" d="M2.016-.016c0-.656-.25-1.046-.625-1.046a.517.517 0 0 0-.532.53c0 .266.204.532.532.532a.62.62 0 0 0 .343-.125c.032-.031.032-.031.047-.031.016 0 .016 0 .016.14 0 .75-.344 1.344-.672 1.672-.11.11-.11.125-.11.157 0 .062.048.109.094.109.11 0 .907-.766.907-1.938m0 0"/><path id="l" d="M3.656-3.984h.86c.187 0 .297 0 .297-.203 0-.11-.11-.11-.282-.11H3.72l.203-1.125c.047-.219.172-.922.234-1.031.094-.203.266-.344.469-.344.047 0 .297 0 .484.172a.552.552 0 0 0-.53.547c0 .219.171.344.374.344.25 0 .547-.22.547-.594 0-.453-.469-.688-.875-.688-.328 0-.969.172-1.266 1.157-.062.218-.078.312-.328 1.562h-.687c-.188 0-.297 0-.297.203 0 .11.094.11.281.11h.656l-.75 3.937c-.171.969-.343 1.875-.859 1.875-.047 0-.297 0-.484-.187.468-.032.547-.391.547-.532 0-.234-.172-.359-.36-.359-.266 0-.547.219-.547.61 0 .437.438.687.844.687.547 0 .938-.594 1.125-.969.313-.625.547-1.828.563-1.906Zm0 0"/><path id="m" d="M1.39-1.594c0-.578.266-1.281.938-1.281a.325.325 0 0 0-.125.25c0 .234.188.313.313.313.172 0 .328-.11.328-.313 0-.234-.235-.453-.563-.453-.344 0-.734.219-.937.75v-.75L.344-3v.25c.469 0 .515.047.515.39v1.813C.86-.25.797-.25.344-.25V0c.031 0 .5-.031.797-.031.297 0 .593.015.906.031v-.25h-.14c-.516 0-.516-.078-.516-.312Zm0 0"/><path id="n" d="M3.063-1.594c.156 0 .203 0 .203-.14 0-.625-.344-1.375-1.391-1.375a1.59 1.59 0 0 0-1.61 1.578c0 .89.782 1.594 1.704 1.594.937 0 1.297-.75 1.297-.907 0-.015-.016-.094-.125-.094-.094 0-.11.047-.125.11-.22.562-.75.672-1 .672-.328 0-.641-.14-.844-.406-.266-.329-.266-.75-.266-1.032ZM.906-1.766c.078-.984.703-1.14.969-1.14.86 0 .89.969.906 1.14Zm0 0"/><path id="o" d="M2.64-2.922c0-.125 0-.187-.093-.187-.031 0-.047 0-.14.078-.016.015-.079.078-.126.11-.219-.142-.469-.188-.734-.188-1 0-1.234.53-1.234.875 0 .218.093.406.265.547.266.218.531.265.969.343.344.063.906.157.906.625 0 .266-.187.594-.86.594-.671 0-.905-.437-1.03-.906C.53-1.125.53-1.156.438-1.156c-.125 0-.125.047-.125.187v.86c0 .109 0 .172.093.172C.47.063.61-.078.75-.234c.297.297.672.297.844.297.906 0 1.25-.485 1.25-.97a.823.823 0 0 0-.313-.64c-.265-.25-.578-.312-.828-.344-.547-.109-1-.187-1-.562 0-.219.188-.485.844-.485.812 0 .844.563.86.766 0 .078.093.078.109.078.125 0 .125-.047.125-.187Zm0 0"/><path id="p" d="m2.14.172.422-1.594h2.079c.125 0 .218-.094.218-.234a.214.214 0 0 0-.218-.219H2.688l.359-1.328H4.64c.125 0 .218-.094.218-.235a.214.214 0 0 0-.218-.218H3.17l.407-1.516c.016-.094-.047-.187-.156-.187a.15.15 0 0 0-.14.109l-.423 1.594H.781a.214.214 0 0 0-.219.219c0 .14.094.234.22.234h1.952l-.359 1.328H.781a.214.214 0 0 0-.219.219c0 .14.094.234.22.234h1.484L1.844.094C1.828.172 1.89.28 2 .28a.15.15 0 0 0 .14-.11m0 0"/></defs><path fill="none" stroke="#000" stroke-miterlimit="10" stroke-width=".39831372" d="M10.395 20.477h10.304m26.219 0h16.156m0 0h11.707m0 0H92.34m0 0h17.558m0 0h16.856m13.113 0h22.711m0 0h31.84m6.555 0h20.136"/><path fill="none" stroke="#000" stroke-miterlimit="10" stroke-width=".79562916" d="M20.7 15.559h26.218v9.832H20.699Zm0 0"/><path fill="#FFF" stroke="#000" stroke-miterlimit="10" stroke-width=".39831372" d="M11.98 20.477a1.584 1.584 0 1 0-3.168-.004 1.584 1.584 0 0 0 3.168.004Zm0 0"/><path stroke="#000" stroke-miterlimit="10" stroke-width=".39831372" d="M58.805 20.477a1.584 1.584 0 1 0-3.168-.005 1.584 1.584 0 0 0 3.168.005ZM82.219 20.477a1.587 1.587 0 0 0-3.172 0c0 .875.71 1.582 1.586 1.582.875 0 1.586-.707 1.586-1.582ZM105.629 20.477a1.584 1.584 0 1 0-3.168-.005 1.584 1.584 0 0 0 3.168.005Zm0 0"/><path fill="none" stroke="#000" stroke-miterlimit="10" stroke-width=".79562916" d="m139.867 20.477-13.113-8.196v16.387Zm0 0"/><path fill="none" stroke="#000" stroke-miterlimit="10" stroke-width=".39831372" d="M139.867 20.477h-13.113"/><path fill="none" stroke="#000" stroke-miterlimit="10" stroke-width=".79562916" d="M139.867 28.668V12.281"/><path stroke="#000" stroke-miterlimit="10" stroke-width=".39831372" d="M152.453 20.477a1.584 1.584 0 1 0-3.167-.005 1.584 1.584 0 0 0 3.167.005ZM175.867 20.477a1.584 1.584 0 1 0-3.168-.004 1.584 1.584 0 0 0 3.168.004Zm0 0"/><path fill="none" stroke="#000" stroke-miterlimit="10" stroke-width=".79562916" d="M194.418 10.64V30.31m6.555-19.668v19.668"/><path fill="#FFF" stroke="#000" stroke-miterlimit="10" stroke-width=".39831372" d="M222.691 20.477a1.584 1.584 0 1 0-3.167-.005 1.584 1.584 0 0 0 3.167.005Zm0 0"/><path fill="none" stroke="#000" stroke-miterlimit="10" stroke-width=".39831372" d="M57.223 20.477v10.3m0 26.223v10.3h5.851m0 0h11.707m0 0H92.34m0 0h17.558m0 0h23.414m0 0h29.266m0 0h11.703V57m0-26.223v-10.3"/><path fill="none" stroke="#000" stroke-miterlimit="10" stroke-width=".79562916" d="M52.305 57V30.777h9.832V57Zm0 0"/><path stroke="#000" stroke-miterlimit="10" stroke-width=".39831372" d="M58.805 67.3a1.584 1.584 0 1 0-3.168-.004 1.584 1.584 0 0 0 3.168.005Zm0 0"/><path fill="none" stroke="#000" stroke-miterlimit="10" stroke-width=".39831372" d="M57.223 67.3v9.903"/><path fill="none" stroke="#000" stroke-linecap="round" stroke-miterlimit="10" stroke-width=".79562916" d="M51.277 77.203h11.887"/><path stroke="#000" stroke-miterlimit="10" stroke-width=".39831372" d="M82.219 67.3a1.587 1.587 0 0 0-3.172 0c0 .876.71 1.583 1.586 1.583.875 0 1.586-.707 1.586-1.582ZM105.629 67.3a1.584 1.584 0 1 0-3.168-.004 1.584 1.584 0 0 0 3.168.005ZM152.453 67.3a1.584 1.584 0 1 0-3.167-.004 1.584 1.584 0 0 0 3.167.005Zm0 0"/><path fill="none" stroke="#000" stroke-miterlimit="10" stroke-width=".79562916" d="M179.2 30.777V57h-9.833V30.777Zm0 0"/><use xlink:href="#a" x="3.487" y="10.111"/><use xlink:href="#b" x="9.564" y="10.111"/><use xlink:href="#c" x="16.058" y="10.111"/><use xlink:href="#d" x="23.795" y="10.111"/><use xlink:href="#e" x="28.768" y="10.111"/><use xlink:href="#f" x="33.741" y="10.111"/><use xlink:href="#g" x="36.503" y="10.111"/><use xlink:href="#h" x="43.127" y="10.111"/><use xlink:href="#i" x="52.244" y="10.111"/><use xlink:href="#j" x="59.703" y="10.111"/><use xlink:href="#k" x="214.129" y="16.961"/><use xlink:href="#b" x="221.588" y="16.961"/><path fill="none" stroke="#000" stroke-miterlimit="10" stroke-width=".39831372" d="M80.633 20.477v10.3m0 26.223v10.3"/><path fill="none" stroke="#000" stroke-linejoin="bevel" stroke-miterlimit="10" stroke-width=".79562916" d="M80.473 57.395c2.714 0 4.918-1.512 4.918-3.375 0-1.868-2.204-3.38-4.918-3.38 2.714 0 4.918-1.511 4.918-3.374 0-1.868-2.204-3.38-4.918-3.38 2.714 0 4.918-1.511 4.918-3.374 0-1.867-2.204-3.38-4.918-3.38 2.714 0 4.918-1.51 4.918-3.378 0-1.863-2.204-3.375-4.918-3.375M77.355 49.133 90 39.016"/><path fill="none" stroke="#000" stroke-miterlimit="10" stroke-width=".79558134" d="m88.23 36.484 3.852 4.813"/><path fill="none" stroke="#000" stroke-miterlimit="10" stroke-width=".39831372" d="M104.047 20.477v20.132m0 6.555v20.137"/><path fill="none" stroke="#000" stroke-miterlimit="10" stroke-width=".79562916" d="M113.879 40.61H94.21m19.668 6.554H94.21"/><path fill="none" stroke="#000" stroke-miterlimit="10" stroke-width=".39831372" d="M150.871 20.477v20.132m0 6.555v20.137"/><path fill="none" stroke="#000" stroke-miterlimit="10" stroke-width=".79562916" d="M160.703 40.61H141.04m19.664 6.554H141.04"/><path fill="none" stroke="#000" stroke-dasharray="2.9836892124 2.9836892124" stroke-miterlimit="10" stroke-width=".39831372" d="M87.539 57V30.777"/><path fill="none" stroke="#7F7F7F" stroke-dasharray="2.9836892124 2.9836892124" stroke-miterlimit="10" stroke-width=".39831372" d="M68.926 20.477V8.77H92.34m0 0h23.41v70.234H92.34m0 0H68.926V20.477"/><use xlink:href="#l" x="73.308" y="89.425" fill="#7F7F7F"/><g fill="#7F7F7F"><use xlink:href="#m" x="78.178" y="90.917"/><use xlink:href="#n" x="81.285" y="90.917"/><use xlink:href="#o" x="84.821" y="90.917"/></g><use xlink:href="#p" x="90.925" y="89.425" fill="#7F7F7F"/><g fill="#7F7F7F"><use xlink:href="#q" x="98.799" y="89.425"/><use xlink:href="#r" x="104.877" y="89.425"/></g></svg>