<svg xmlns="http://www.w3.org/2000/svg" xmlns:xlink="http://www.w3.org/1999/xlink" width="229.762" height="184.546"><defs><path id="c" d="M4.953-2.531v-.219H0v.219Zm0 0"/><path id="d" d="M7.172-2.484c0-.203-.203-.203-.328-.203H4.062V-5.47c0-.14 0-.328-.203-.328-.187 0-.187.188-.187.328v2.782H.89c-.141 0-.328 0-.328.203s.187.203.328.203h2.78V.5c0 .14 0 .328.188.328.204 0 .204-.187.204-.328v-2.781h2.78c.126 0 .329 0 .329-.203m0 0"/><path id="e" d="M5.39 0v-.469h-.968v-1.078h.969v-.469h-.97v-4.187c0-.266-.015-.313-.296-.313-.203 0-.219 0-.344.157L.313-2.016v.47h2.875V-.47H2.062V0c.376-.031 1.282-.031 1.72-.031.39 0 1.25 0 1.609.031M3.298-2.016H.828l2.469-3.078Zm0 0"/><path id="f" d="M5.234-1.781c0-.547-.296-1.406-1.734-1.719.688-.203 1.406-.766 1.406-1.625 0-.766-.75-1.39-2.156-1.39-1.187 0-1.953.64-1.953 1.437 0 .422.312.703.687.703.438 0 .688-.328.688-.687 0-.579-.531-.688-.578-.704.36-.28.797-.359 1.094-.359.828 0 .859.64.859.969 0 .125-.016 1.422-1.047 1.484-.406.031-.422.031-.469.047-.11 0-.125.11-.125.172 0 .172.094.172.282.172h.437c1.078 0 1.078.969 1.078 1.484 0 .469 0 1.485-1.031 1.485-.25 0-.781-.047-1.25-.344C1.75-.75 2-1 2-1.406a.731.731 0 0 0-.75-.75c-.422 0-.766.265-.766.781 0 .89.954 1.484 2.235 1.484 1.781 0 2.515-1 2.515-1.89m0 0"/><path id="g" d="M5.14-2.203h-.468c-.031.203-.125.828-.266.906-.11.047-.843.047-1 .047H1.937c.47-.375.985-.812 1.438-1.14C4.5-3.22 5.141-3.688 5.141-4.626c0-1.156-1.032-1.89-2.438-1.89C1.5-6.516.563-5.892.563-5c0 .594.484.734.718.734.313 0 .719-.218.719-.718 0-.516-.422-.672-.562-.703.28-.25.656-.36 1.015-.36.86 0 1.313.688 1.313 1.422 0 .688-.375 1.36-1.078 2.078L.702-.516c-.14.125-.14.141-.14.344V0h4.265Zm0 0"/><path id="h" d="M4.906 0v-.469h-1.39v-5.718c0-.22 0-.329-.25-.329-.11 0-.141 0-.22.079-.765.562-1.796.562-2 .562H.845v.469h.203c.156 0 .703-.016 1.281-.203v5.14H.953V0c.438-.031 1.485-.031 1.985-.031.484 0 1.53 0 1.968.031m0 0"/><clipPath id="a"><path d="M.164 130H34v42H.164Zm0 0"/></clipPath><clipPath id="b"><path d="M75 183h13v1.094H75Zm0 0"/></clipPath></defs><path fill="none" stroke="#000" stroke-miterlimit="10" stroke-width=".79504735" d="M87.895 82.164c0-6.566-5.325-11.89-11.895-11.89-6.566 0-11.89 5.324-11.89 11.89 0 6.57 5.324 11.895 11.89 11.895 6.57 0 11.895-5.325 11.895-11.895Zm0 0"/><path fill="none" stroke="#000" stroke-miterlimit="10" stroke-width=".39802245" d="M81.426 64.328V75.11l-9.621 4.41"/><path fill="none" stroke="#000" stroke-miterlimit="10" stroke-width=".79504735" d="M71.805 75.11v14.113"/><path fill="none" stroke="#000" stroke-miterlimit="10" stroke-width=".39802245" d="m71.805 84.812 9.62 4.41v10.782"/><path d="m74.86 86.21.953-2.073 3.683 4.199-5.586-.05Zm0 0"/><path fill="none" stroke="#000" stroke-miterlimit="10" stroke-width=".39802245" d="M71.805 82.164h-9.82"/><path fill="none" stroke="#000" stroke-miterlimit="10" stroke-width=".79504735" d="M179.527 116.527c0-6.566-5.324-11.89-11.894-11.89-6.567 0-11.89 5.324-11.89 11.89 0 6.57 5.323 11.895 11.89 11.895 6.57 0 11.894-5.324 11.894-11.895Zm0 0"/><path fill="none" stroke="#000" stroke-miterlimit="10" stroke-width=".39802245" d="M173.059 98.691v10.782l-9.621 4.41"/><path fill="none" stroke="#000" stroke-miterlimit="10" stroke-width=".79504735" d="M163.438 109.473v14.113"/><path fill="none" stroke="#000" stroke-miterlimit="10" stroke-width=".39802245" d="m163.438 119.176 9.62 4.41v10.781"/><path d="m166.496 120.574.95-2.074 3.683 4.2-5.586-.052Zm0 0"/><path fill="none" stroke="#000" stroke-miterlimit="10" stroke-width=".39802245" d="M163.438 116.527h-9.82M12.703 82.164V98.66m0 12.828v36.196m0 6.414V173.8h34.36v-19.703m0-6.414V108.28m0-6.414V60.633m0-25.656V13.44h-34.36v8.246m0 6.415v8.246"/><path fill="#FFF" stroke="#000" stroke-miterlimit="10" stroke-width=".39802245" d="M14.285 82.164c0-.871-.71-1.582-1.582-1.582-.875 0-1.586.711-1.586 1.582 0 .875.711 1.586 1.586 1.586.871 0 1.582-.71 1.582-1.586Zm0 0"/><path fill="none" stroke="#000" stroke-miterlimit="10" stroke-width=".79504735" d="M23.926 98.66H1.476m22.45 12.828H1.476M2.117 108.922v-7.695h21.168v7.695Zm0 0"/><path fill="#FFF" stroke="#000" stroke-miterlimit="10" stroke-width=".39802245" d="M14.285 82.164c0-.871-.71-1.582-1.582-1.582-.875 0-1.586.711-1.586 1.582 0 .875.711 1.586 1.586 1.586.871 0 1.582-.71 1.582-1.586Zm0 0"/><path fill="none" stroke="#000" stroke-miterlimit="10" stroke-width=".79504735" d="M22.324 154.098H3.078m19.246-6.414H3.078"/><g clip-path="url(#a)"><path fill="none" stroke="#000" stroke-miterlimit="10" stroke-width=".79504735" d="m3.078 160.512 18.824-18.82"/></g><path fill="none" stroke="#000" stroke-miterlimit="10" stroke-width=".79502344" d="m19.863 139.371 4.356 4.36"/><path fill="#FFF" stroke="#000" stroke-miterlimit="10" stroke-width=".39802245" d="M14.285 127.984c0-.875-.71-1.586-1.582-1.586-.875 0-1.586.711-1.586 1.586 0 .871.711 1.582 1.586 1.582.871 0 1.582-.71 1.582-1.582Zm0 0"/><path fill="none" stroke="#000" stroke-miterlimit="10" stroke-width=".79504735" d="M37.441 154.098h19.243m-19.243-6.414h19.243"/><path stroke="#000" stroke-miterlimit="10" stroke-width=".39802245" d="M48.648 173.8c0-.874-.71-1.585-1.585-1.585-.872 0-1.583.71-1.583 1.586 0 .87.711 1.582 1.583 1.582.875 0 1.585-.711 1.585-1.582ZM48.648 127.984c0-.875-.71-1.586-1.585-1.586-.872 0-1.583.711-1.583 1.586 0 .871.711 1.582 1.583 1.582.875 0 1.585-.71 1.585-1.582Zm0 0"/><path fill="none" stroke="#000" stroke-miterlimit="10" stroke-width=".79504735" d="M37.441 108.281h19.243m-19.243-6.414h19.243"/><path stroke="#000" stroke-miterlimit="10" stroke-width=".39802245" d="M48.648 82.164c0-.871-.71-1.582-1.585-1.582-.872 0-1.583.711-1.583 1.582 0 .875.711 1.586 1.583 1.586.875 0 1.585-.71 1.585-1.586Zm0 0"/><path fill="none" stroke="#000" stroke-miterlimit="10" stroke-width=".79504735" d="M51.875 34.977v25.656h-9.621V34.977Zm0 0"/><path stroke="#000" stroke-miterlimit="10" stroke-width=".39802245" d="M48.648 13.441a1.584 1.584 0 0 0-3.168 0 1.583 1.583 0 0 0 3.168 0Zm0 0"/><path fill="none" stroke="#000" stroke-miterlimit="10" stroke-width=".79504735" d="M22.324 21.687H3.078m19.246 6.415H3.078"/><path fill="none" stroke="#000" stroke-miterlimit="10" stroke-width=".39802245" d="M12.703 36.348v9.898"/><path fill="none" stroke="#000" stroke-linecap="round" stroke-miterlimit="10" stroke-width=".79504735" d="M6.762 46.246H18.64"/><path fill="none" stroke="#000" stroke-miterlimit="10" stroke-width=".39802245" d="M14.285 82.164h47.899M47.063 173.8h34.363V163.72m0-25.656v-21.536h19.703m6.414 0h19.7"/><path fill="none" stroke="#000" stroke-miterlimit="10" stroke-width=".79504735" d="M86.238 138.063v25.656h-9.62v-25.656Zm0 0"/><path stroke="#000" stroke-miterlimit="10" stroke-width=".39802245" d="M83.012 173.8a1.584 1.584 0 1 0-3.168-.004 1.584 1.584 0 0 0 3.168.005ZM83.012 127.984a1.584 1.584 0 1 0-3.168-.004 1.584 1.584 0 0 0 3.168.004Zm0 0"/><path fill="#FFF" stroke="#000" stroke-miterlimit="10" stroke-width=".39802245" d="M83.012 116.527a1.584 1.584 0 1 0-3.168.004 1.584 1.584 0 0 0 3.168-.004Zm0 0"/><path fill="none" stroke="#000" stroke-miterlimit="10" stroke-width=".79504735" d="M101.129 106.906v19.242m6.414-19.242v19.242"/><path fill="#FFF" stroke="#000" stroke-miterlimit="10" stroke-width=".39802245" d="M83.012 116.527a1.584 1.584 0 1 0-3.168.004 1.584 1.584 0 0 0 3.168-.004Zm0 0"/><path stroke="#000" stroke-miterlimit="10" stroke-width=".39802245" d="M128.828 116.527a1.584 1.584 0 1 0-3.167.004 1.584 1.584 0 0 0 3.167-.004Zm0 0"/><path fill="none" stroke="#000" stroke-miterlimit="10" stroke-width=".39802245" d="M127.242 116.527v21.536m0 25.656V173.8"/><path fill="none" stroke="#000" stroke-miterlimit="10" stroke-width=".79504735" d="M122.434 163.719v-25.656h9.62v25.656Zm0 0"/><path stroke="#000" stroke-miterlimit="10" stroke-width=".39802245" d="M128.828 173.8a1.584 1.584 0 1 0-3.168-.004 1.584 1.584 0 0 0 3.168.005Zm0 0"/><path fill="none" stroke="#000" stroke-miterlimit="10" stroke-width=".39802245" d="M47.063 127.984h34.363M81.426 173.8v9.895"/><g clip-path="url(#b)"><path fill="none" stroke="#000" stroke-linecap="round" stroke-miterlimit="10" stroke-width=".79504735" d="M75.488 183.695h11.875"/></g><path fill="none" stroke="#000" stroke-miterlimit="10" stroke-width=".39802245" d="M81.426 173.8h45.816M81.426 114.945v-15.14M47.063 13.441h34.363M81.426 64.527V38.984m0 0V13.441"/><path stroke="#000" stroke-miterlimit="10" stroke-width=".39802245" d="M83.012 13.441a1.584 1.584 0 0 0-3.168 0 1.584 1.584 0 0 0 3.168 0Zm0 0"/><path fill="none" stroke="#000" stroke-miterlimit="10" stroke-width=".39802245" d="M127.242 116.527V82.164h10.082m25.656 0h10.079v16.727"/><path fill="none" stroke="#000" stroke-miterlimit="10" stroke-width=".79504735" d="M137.324 77.355h25.656v9.622h-25.656Zm0 0"/><path stroke="#000" stroke-miterlimit="10" stroke-width=".39802245" d="M174.645 82.164c0-.871-.711-1.582-1.586-1.582-.871 0-1.582.711-1.582 1.582 0 .875.71 1.586 1.582 1.586.875 0 1.586-.71 1.586-1.586Zm0 0"/><path fill="none" stroke="#000" stroke-miterlimit="10" stroke-width=".39802245" d="M127.242 116.527h26.574M127.242 173.8h22.91v-13.976m0-6.414v-13.972"/><path fill="none" stroke="#000" stroke-miterlimit="10" stroke-width=".79504735" d="M140.531 159.824h19.242m-19.242-6.414h19.242"/><path stroke="#000" stroke-miterlimit="10" stroke-width=".39802245" d="M151.734 173.8c0-.874-.707-1.585-1.582-1.585a1.584 1.584 0 0 0 0 3.168c.875 0 1.582-.711 1.582-1.582Zm0 0"/><path fill="none" stroke="#000" stroke-miterlimit="10" stroke-width=".39802245" d="M150.152 173.8h22.907v-4.355m0-25.656v-9.621"/><path fill="none" stroke="#000" stroke-miterlimit="10" stroke-width=".79504735" d="M177.871 143.79v25.655h-9.621V143.79Zm0 0"/><path stroke="#000" stroke-miterlimit="10" stroke-width=".39802245" d="M174.645 173.8c0-.874-.711-1.585-1.586-1.585-.871 0-1.582.71-1.582 1.586 0 .87.71 1.582 1.582 1.582.875 0 1.586-.711 1.586-1.582ZM174.645 139.438a1.584 1.584 0 0 0-3.168 0 1.583 1.583 0 0 0 3.168 0Zm0 0"/><path fill="none" stroke="#000" stroke-miterlimit="10" stroke-width=".39802245" d="M150.152 139.438h22.907M173.059 82.164h19.703m6.414 0h19.699"/><path fill="none" stroke="#000" stroke-miterlimit="10" stroke-width=".79504735" d="M192.762 72.543v19.246m6.414-19.246v19.246"/><path fill="#FFF" stroke="#000" stroke-miterlimit="10" stroke-width=".39802245" d="M220.46 82.164c0-.871-.71-1.582-1.585-1.582-.871 0-1.582.711-1.582 1.582 0 .875.71 1.586 1.582 1.586.875 0 1.586-.71 1.586-1.586Zm0 0"/><path fill="none" stroke="#000" stroke-miterlimit="10" stroke-width=".39802245" d="M173.059 173.8h45.816"/><path fill="#FFF" stroke="#000" stroke-miterlimit="10" stroke-width=".39802245" d="M220.46 173.8c0-.874-.71-1.585-1.585-1.585-.871 0-1.582.71-1.582 1.586 0 .87.71 1.582 1.582 1.582.875 0 1.586-.711 1.586-1.582Zm0 0"/><path fill="none" stroke="#000" stroke-miterlimit="10" stroke-width=".39802245" d="M173.059 82.164V60.633m0-25.656V13.44h10.082m25.656 0h10.078"/><path fill="none" stroke="#000" stroke-miterlimit="10" stroke-width=".79504735" d="M177.871 34.977v25.656h-9.621V34.977Zm0 0"/><path fill="none" stroke="#000" stroke-linejoin="bevel" stroke-miterlimit="10" stroke-width=".79504735" d="M182.742 13.602c0-2.66 1.48-4.813 3.309-4.813 1.824 0 3.304 2.152 3.304 4.813 0-2.66 1.48-4.813 3.305-4.813 1.828 0 3.309 2.152 3.309 4.813 0-2.66 1.48-4.813 3.304-4.813 1.829 0 3.309 2.152 3.309 4.813 0-2.66 1.48-4.813 3.305-4.813 1.828 0 3.308 2.152 3.308 4.813"/><path stroke="#000" stroke-miterlimit="10" stroke-width=".39802245" d="M174.645 13.441a1.584 1.584 0 0 0-3.168 0 1.583 1.583 0 0 0 3.168 0Zm0 0"/><path fill="#FFF" stroke="#000" stroke-miterlimit="10" stroke-width=".39802245" d="M220.46 13.441a1.584 1.584 0 0 0-3.167 0 1.583 1.583 0 0 0 3.168 0Zm0 0"/><path fill="none" stroke="#000" stroke-dasharray="2.9815073665000003 2.9815073665000003" stroke-miterlimit="10" stroke-width=".39802245" d="M183.14 6.64h25.657"/><path fill="none" stroke="#000" stroke-miterlimit="10" stroke-width=".39802245" d="M81.426 13.441h91.633"/><use xlink:href="#c" x="216.389" y="180.063"/><use xlink:href="#d" x="215.008" y="9.106"/><use xlink:href="#e" x="216.017" y="78.656"/><use xlink:href="#f" x="72.2" y="119.728"/><use xlink:href="#g" x="3.476" y="85.421"/><use xlink:href="#h" x="3.476" y="131.237"/></svg>