<svg xmlns="http://www.w3.org/2000/svg" xmlns:xlink="http://www.w3.org/1999/xlink" width="229.54" height="189.333"><defs><clipPath id="a"><path d="M.172 110H7v42H.172Zm0 0"/></clipPath><clipPath id="b"><path d="M171 178h1v10.668h-1Zm0 0"/></clipPath><clipPath id="c"><path d="M164 187h14v1.668h-14Zm0 0"/></clipPath><path id="d" d="M4.953-2.531v-.219H0v.219Zm0 0"/><path id="e" d="M7.156-2.484c0-.188-.187-.188-.328-.188H4.062v-2.781c0-.14 0-.328-.203-.328s-.203.187-.203.328v2.781H.891c-.141 0-.328 0-.328.188 0 .203.187.203.328.203h2.765V.5c0 .14 0 .328.203.328.204 0 .204-.187.204-.328v-2.781h2.765c.14 0 .328 0 .328-.203m0 0"/></defs><path fill="none" stroke="#000" stroke-miterlimit="10" stroke-width=".7942025300000001" d="M179.277 84.121c0-8.098-6.566-14.664-14.664-14.664-8.101 0-14.664 6.566-14.664 14.664 0 8.102 6.563 14.668 14.664 14.668 8.098 0 14.664-6.566 14.664-14.668Zm0 0"/><path fill="none" stroke="#000" stroke-miterlimit="10" stroke-width=".39759951" d="M171.305 62.176v13.246l-11.868 5.437"/><path fill="none" stroke="#000" stroke-miterlimit="10" stroke-width=".7942025300000001" d="M159.437 75.422v17.402"/><path fill="none" stroke="#000" stroke-miterlimit="10" stroke-width=".39759951" d="m159.437 87.387 11.868 5.437v13.246"/><path d="m163.617 89.3.95-2.07 3.68 4.192-5.579-.05Zm0 0"/><path fill="none" stroke="#000" stroke-miterlimit="10" stroke-width=".39759951" d="M159.437 84.121h-12.062M6.344 154.82v-3.793m0-39.547V84.121H41.69v43.18m0 7.906v43.18"/><g clip-path="url(#a)"><path fill="none" stroke="#000" stroke-linejoin="bevel" stroke-miterlimit="10" stroke-width=".7942025300000001" d="M6.504 151.426c-3.277 0-5.934-2.258-5.934-5.043s2.657-5.043 5.934-5.043c-3.277 0-5.934-2.258-5.934-5.043s2.657-5.043 5.934-5.043c-3.277 0-5.934-2.258-5.934-5.043s2.657-5.043 5.934-5.043c-3.277 0-5.934-2.258-5.934-5.043s2.657-5.043 5.934-5.043"/></g><path fill="none" stroke="#000" stroke-miterlimit="10" stroke-width=".7942025300000001" d="M53.555 135.207H29.828m23.727-7.906H29.828M29.828 143.117l23.309-23.304"/><path fill="none" stroke="#000" stroke-miterlimit="10" stroke-width=".79418659" d="m51.098 117.496 4.355 4.352"/><path stroke="#000" stroke-miterlimit="10" stroke-width=".39759951" d="M43.273 84.121a1.582 1.582 0 0 0-3.164 0 1.583 1.583 0 0 0 3.164 0ZM43.273 178.387a1.583 1.583 0 0 0-3.164 0 1.582 1.582 0 0 0 3.164 0Zm0 0"/><path fill="none" stroke="#000" stroke-miterlimit="10" stroke-width=".39759951" d="M6.344 154.82v23.567H41.69M41.691 84.121H77.04v19.613m0 7.91v39.22m0 7.91v19.613"/><path fill="none" stroke="#000" stroke-miterlimit="10" stroke-width=".7942025300000001" d="M88.906 103.734h-23.73m23.73 7.91h-23.73"/><path stroke="#000" stroke-miterlimit="10" stroke-width=".39759951" d="M78.621 84.121a1.58 1.58 0 1 0-3.16.003 1.58 1.58 0 0 0 3.16-.003ZM78.621 131.254a1.58 1.58 0 1 0-3.16 0 1.58 1.58 0 1 0 3.16 0Zm0 0"/><path fill="none" stroke="#000" stroke-miterlimit="10" stroke-width=".7942025300000001" d="M88.906 150.863h-23.73m23.73 7.91h-23.73"/><path stroke="#000" stroke-miterlimit="10" stroke-width=".39759951" d="M78.621 131.254a1.58 1.58 0 1 0-3.16 0 1.58 1.58 0 1 0 3.16 0ZM78.621 178.387a1.58 1.58 0 1 0-3.16-.004 1.58 1.58 0 0 0 3.16.004Zm0 0"/><path fill="none" stroke="#000" stroke-miterlimit="10" stroke-width=".39759951" d="M41.691 178.387H77.04M77.039 84.121h19.613m7.91 0h19.61"/><path fill="none" stroke="#000" stroke-miterlimit="10" stroke-width=".7942025300000001" d="M96.652 72.258v23.73m7.91-23.73v23.73"/><path stroke="#000" stroke-miterlimit="10" stroke-width=".39759951" d="M78.621 84.121a1.58 1.58 0 1 0-3.16.003 1.58 1.58 0 0 0 3.16-.003ZM125.754 84.121a1.58 1.58 0 0 0-1.582-1.578 1.58 1.58 0 1 0 0 3.16 1.58 1.58 0 0 0 1.582-1.582Zm0 0"/><path fill="none" stroke="#000" stroke-miterlimit="10" stroke-width=".39759951" d="M77.039 178.387h47.133v-7.75m0-31.637V64.594m0-31.637V13.426H77.039v7.828m0 7.91v7.828"/><path fill="none" stroke="#000" stroke-miterlimit="10" stroke-width=".7942025300000001" d="M130.105 139v31.637h-11.867V139Zm0 0"/><path stroke="#000" stroke-miterlimit="10" stroke-width=".39759951" d="M125.754 178.387a1.58 1.58 0 0 0-1.582-1.582 1.58 1.58 0 1 0 0 3.16 1.58 1.58 0 0 0 1.582-1.578Zm0 0"/><path fill="none" stroke="#000" stroke-miterlimit="10" stroke-width=".7942025300000001" d="M130.105 32.957v31.637h-11.867V32.957Zm0 0"/><path stroke="#000" stroke-miterlimit="10" stroke-width=".39759951" d="M125.754 84.121a1.58 1.58 0 0 0-1.582-1.578 1.58 1.58 0 1 0 0 3.16 1.58 1.58 0 0 0 1.582-1.582ZM125.754 13.426a1.583 1.583 0 1 0-3.166.002 1.583 1.583 0 0 0 3.166-.002Zm0 0"/><path fill="none" stroke="#000" stroke-miterlimit="10" stroke-width=".7942025300000001" d="M88.906 21.254h-23.73m23.73 7.91h-23.73"/><path fill="none" stroke="#000" stroke-miterlimit="10" stroke-width=".39759951" d="M77.039 36.992v9.887"/><path fill="none" stroke="#000" stroke-linecap="round" stroke-miterlimit="10" stroke-width=".7942025300000001" d="M71.11 46.879h11.863"/><path fill="none" stroke="#000" stroke-miterlimit="10" stroke-width=".39759951" d="M124.172 13.426h47.133V62.37M171.305 13.426h7.746m31.636 0h7.746"/><path fill="none" stroke="#000" stroke-miterlimit="10" stroke-width=".7942025300000001" d="M179.05 7.496h31.637V19.36h-31.636Zm0 0"/><path stroke="#000" stroke-miterlimit="10" stroke-width=".39759951" d="M172.883 13.426c0-.871-.707-1.582-1.578-1.582a1.583 1.583 0 0 0 0 3.164 1.58 1.58 0 0 0 1.578-1.582Zm0 0"/><path fill="#FFF" stroke="#000" stroke-miterlimit="10" stroke-width=".39759951" d="M220.016 13.426a1.583 1.583 0 1 0-3.166.002 1.583 1.583 0 0 0 3.166-.002Zm0 0"/><path fill="none" stroke="#000" stroke-miterlimit="10" stroke-width=".39759951" d="M124.172 84.121h23.402M77.039 131.254h94.266V139m0 31.637v7.75"/><path fill="none" stroke="#000" stroke-miterlimit="10" stroke-width=".7942025300000001" d="M165.371 170.637V139h11.863v31.637Zm0 0"/><path stroke="#000" stroke-miterlimit="10" stroke-width=".39759951" d="M172.883 131.254a1.58 1.58 0 1 0-3.16 0 1.58 1.58 0 1 0 3.16 0ZM172.883 178.387a1.58 1.58 0 1 0-3.16-.005 1.58 1.58 0 0 0 3.16.005Zm0 0"/><g clip-path="url(#b)"><path fill="none" stroke="#000" stroke-miterlimit="10" stroke-width=".39759951" d="M171.305 178.387v9.886"/></g><g clip-path="url(#c)"><path fill="none" stroke="#000" stroke-linecap="round" stroke-miterlimit="10" stroke-width=".7942025300000001" d="M165.371 188.273h11.863"/></g><path fill="none" stroke="#000" stroke-miterlimit="10" stroke-width=".39759951" d="M171.305 131.254v-25.379M124.172 178.387h47.133M171.305 131.254h19.609m7.91 0h19.61"/><path fill="none" stroke="#000" stroke-miterlimit="10" stroke-width=".7942025300000001" d="M190.914 119.39v23.727m7.91-23.726v23.726"/><path stroke="#000" stroke-miterlimit="10" stroke-width=".39759951" d="M172.883 131.254a1.58 1.58 0 1 0-3.16 0 1.58 1.58 0 1 0 3.16 0Zm0 0"/><path fill="#FFF" stroke="#000" stroke-miterlimit="10" stroke-width=".39759951" d="M220.016 131.254a1.58 1.58 0 0 0-1.583-1.582 1.58 1.58 0 0 0-1.582 1.582 1.58 1.58 0 0 0 1.582 1.582 1.58 1.58 0 0 0 1.583-1.582Zm0 0"/><path fill="none" stroke="#000" stroke-miterlimit="10" stroke-width=".39759951" d="M171.305 178.387h47.128"/><path fill="#FFF" stroke="#000" stroke-miterlimit="10" stroke-width=".39759951" d="M220.016 178.387a1.58 1.58 0 0 0-1.583-1.582 1.58 1.58 0 1 0 0 3.16 1.58 1.58 0 0 0 1.583-1.578Zm0 0"/><use xlink:href="#d" x="215.949" y="184.643"/><use xlink:href="#e" x="214.569" y="9.097"/></svg>