<svg xmlns="http://www.w3.org/2000/svg" xmlns:xlink="http://www.w3.org/1999/xlink" width="169.551" height="226.444"><defs><clipPath id="a"><path d="M100 215h2v10.867h-2Zm0 0"/></clipPath><clipPath id="b"><path d="M94 225h14v.867H94Zm0 0"/></clipPath><path id="c" d="M4.953-2.531v-.219H0v.219Zm0 0"/><path id="d" d="M7.172-2.484c0-.203-.203-.203-.328-.203H4.062V-5.47c0-.14 0-.328-.203-.328-.187 0-.187.188-.187.328v2.782H.89c-.141 0-.328 0-.328.203s.187.203.328.203h2.78V.5c0 .14 0 .328.188.328.204 0 .204-.187.204-.328v-2.781h2.78c.126 0 .329 0 .329-.203m0 0"/></defs><path fill="none" stroke="#000" stroke-miterlimit="10" stroke-width=".7948959200000001" d="M108.855 100.082c0-8.105-6.574-14.68-14.68-14.68-8.105 0-14.679 6.575-14.679 14.68 0 8.106 6.574 14.676 14.68 14.676 8.105 0 14.68-6.57 14.68-14.676Zm0 0"/><path fill="none" stroke="#000" stroke-miterlimit="10" stroke-width=".39794664" d="M100.871 78.113v13.262l-11.875 5.441"/><path fill="none" stroke="#000" stroke-miterlimit="10" stroke-width=".7948959200000001" d="M88.996 91.375v17.414"/><path fill="none" stroke="#000" stroke-miterlimit="10" stroke-width=".39794664" d="m88.996 103.348 11.875 5.441v13.262"/><path d="m93.18 105.266.949-2.075 3.683 4.196-5.582-.051Zm0 0"/><path fill="none" stroke="#000" stroke-miterlimit="10" stroke-width=".39794664" d="M88.996 100.082h-12.07M14.25 100.082v20.957m0 15.832v45.875m0 7.914v24.918h43.313V190.66m0-7.914v-49.832m0-7.918V72.602m0-31.665V13.461H14.25v10.48m0 7.914v10.48"/><path fill="none" stroke="#000" stroke-miterlimit="10" stroke-width=".7948959200000001" d="M28.102 121.04H.398m27.704 15.831H.398M1.187 133.707v-9.5h26.126v9.5ZM26.125 190.66H2.375m23.75-7.914H2.375M2.375 198.578l23.328-23.328"/><path fill="none" stroke="#000" stroke-miterlimit="10" stroke-width=".7948720100000001" d="m23.664 172.934 4.356 4.355"/><path fill="none" stroke="#000" stroke-miterlimit="10" stroke-width=".7948959200000001" d="M45.688 190.66h23.746m-23.746-7.914h23.746"/><path stroke="#000" stroke-miterlimit="10" stroke-width=".39794664" d="M59.145 215.578c0-.875-.711-1.586-1.582-1.586-.875 0-1.586.711-1.586 1.586 0 .871.71 1.582 1.586 1.582.87 0 1.582-.71 1.582-1.582ZM59.145 157.828a1.583 1.583 0 1 0-3.166.002 1.583 1.583 0 0 0 3.166-.002Zm0 0"/><path fill="none" stroke="#000" stroke-miterlimit="10" stroke-width=".7948959200000001" d="M45.688 132.914h23.746m-23.746-7.918h23.746"/><path stroke="#000" stroke-miterlimit="10" stroke-width=".39794664" d="M59.145 100.082a1.583 1.583 0 1 0-3.166.002 1.583 1.583 0 0 0 3.166-.002Zm0 0"/><path fill="none" stroke="#000" stroke-miterlimit="10" stroke-width=".7948959200000001" d="M63.496 40.937v31.665H51.625V40.937Zm0 0"/><path stroke="#000" stroke-miterlimit="10" stroke-width=".39794664" d="M59.145 13.46a1.583 1.583 0 1 0-3.166.003 1.583 1.583 0 0 0 3.166-.002Zm0 0"/><path fill="none" stroke="#000" stroke-miterlimit="10" stroke-width=".7948959200000001" d="M26.125 23.941H2.375m23.75 7.914H2.375"/><path fill="none" stroke="#000" stroke-miterlimit="10" stroke-width=".39794664" d="M14.25 42.336v9.894"/><path fill="none" stroke="#000" stroke-linecap="round" stroke-miterlimit="10" stroke-width=".7948959200000001" d="M8.312 52.23h11.876"/><path fill="none" stroke="#000" stroke-miterlimit="10" stroke-width=".39794664" d="M14.25 100.082h62.871M57.563 215.578h43.308v-13.043m0-31.664v-13.043h24.918m7.914 0h24.914"/><path fill="none" stroke="#000" stroke-miterlimit="10" stroke-width=".7948959200000001" d="M106.809 170.871v31.664H94.934v-31.664Zm0 0"/><path stroke="#000" stroke-miterlimit="10" stroke-width=".39794664" d="M102.453 215.578c0-.875-.707-1.586-1.582-1.586a1.584 1.584 0 0 0 0 3.168c.875 0 1.582-.71 1.582-1.582ZM102.453 157.828a1.58 1.58 0 0 0-1.582-1.582 1.584 1.584 0 0 0 0 3.168c.875 0 1.582-.71 1.582-1.586Zm0 0"/><path fill="none" stroke="#000" stroke-miterlimit="10" stroke-width=".7948959200000001" d="M125.79 145.953v23.75m7.913-23.75v23.75"/><path stroke="#000" stroke-miterlimit="10" stroke-width=".39794664" d="M102.453 157.828a1.58 1.58 0 0 0-1.582-1.582 1.584 1.584 0 0 0 0 3.168c.875 0 1.582-.71 1.582-1.586Zm0 0"/><path fill="#FFF" stroke="#000" stroke-miterlimit="10" stroke-width=".39794664" d="M160.203 157.828a1.584 1.584 0 1 0-3.167.004 1.584 1.584 0 0 0 3.167-.004Zm0 0"/><path fill="none" stroke="#000" stroke-miterlimit="10" stroke-width=".39794664" d="M57.563 157.828h43.308M100.871 215.578"/><g clip-path="url(#a)"><path fill="none" stroke="#000" stroke-miterlimit="10" stroke-width=".39794664" d="M100.871 215.578v9.895"/></g><g clip-path="url(#b)"><path fill="none" stroke="#000" stroke-linecap="round" stroke-miterlimit="10" stroke-width=".7948959200000001" d="M94.934 225.473h11.875"/></g><path fill="none" stroke="#000" stroke-miterlimit="10" stroke-width=".39794664" d="M100.871 215.578h57.746"/><path fill="#FFF" stroke="#000" stroke-miterlimit="10" stroke-width=".39794664" d="M160.203 215.578c0-.875-.71-1.586-1.586-1.586-.87 0-1.582.711-1.582 1.586 0 .871.711 1.582 1.582 1.582.875 0 1.586-.71 1.586-1.582Zm0 0"/><path fill="none" stroke="#000" stroke-miterlimit="10" stroke-width=".39794664" d="M100.871 157.828v-35.976M57.563 13.46h56.351m31.664 0h13.04"/><path fill="none" stroke="#000" stroke-linejoin="bevel" stroke-miterlimit="10" stroke-width=".7948959200000001" d="M113.516 13.621c0-3.281 1.816-5.937 4.058-5.937 2.239 0 4.055 2.656 4.055 5.937 0-3.281 1.816-5.937 4.059-5.937 2.242 0 4.058 2.656 4.058 5.937 0-3.281 1.817-5.937 4.055-5.937 2.242 0 4.058 2.656 4.058 5.937 0-3.281 1.817-5.937 4.059-5.937s4.059 2.656 4.059 5.937"/><path stroke="#000" stroke-miterlimit="10" stroke-width=".39794664" d="M102.453 13.46a1.58 1.58 0 0 0-1.582-1.581 1.58 1.58 0 0 0-1.582 1.582 1.58 1.58 0 0 0 1.582 1.582 1.58 1.58 0 0 0 1.582-1.582Zm0 0"/><path fill="#FFF" stroke="#000" stroke-miterlimit="10" stroke-width=".39794664" d="M160.203 13.46a1.584 1.584 0 0 0-3.168 0 1.583 1.583 0 0 0 3.168 0Zm0 0"/><path fill="none" stroke="#000" stroke-miterlimit="10" stroke-width=".39794664" d="M100.871 78.312V13.461"/><path fill="none" stroke="#000" stroke-dasharray="2.9809394888000003 2.9809394888000003" stroke-miterlimit="10" stroke-width=".39794664" d="M113.914 5.535h31.664"/><use xlink:href="#c" x="156.134" y="221.838"/><use xlink:href="#d" x="154.752" y="9.127"/></svg>