<svg xmlns="http://www.w3.org/2000/svg" xmlns:xlink="http://www.w3.org/1999/xlink" width="229.54" height="189.532"><defs><path id="c" d="M4.953-2.531v-.219H0v.219Zm0 0"/><path id="d" d="M7.172-2.484c0-.203-.203-.203-.328-.203H4.062V-5.47c0-.14 0-.328-.203-.328-.187 0-.187.188-.187.328v2.782H.89c-.141 0-.328 0-.328.203s.187.203.328.203h2.78V.5c0 .14 0 .328.188.328.204 0 .204-.187.204-.328v-2.781h2.78c.126 0 .329 0 .329-.203m0 0"/><path id="e" d="M8.219 0v-.469H7.25L4.703-6.672c-.11-.266-.219-.266-.39-.266-.282 0-.313.079-.391.266L1.453-.703c-.047.156-.078.234-.844.234H.406V0l1.156-.031c.391 0 .954 0 1.313.031v-.469S2-.469 2-.594l.031-.125.5-1.203h2.672l.594 1.453h-.953V0c.39-.031 1.328-.031 1.75-.031.406 0 1.281 0 1.625.031M5-2.39H2.734L3.86-5.14Zm0 0"/><path id="f" d="M7.484-1.844c0-.953-.859-1.625-2.03-1.718 1.062-.188 1.718-.782 1.718-1.547 0-.907-.875-1.703-2.469-1.703H.391v.468h1.062v5.875H.391V0H5c1.64 0 2.484-.875 2.484-1.844M5.75-5.109c0 .765-.469 1.375-1.437 1.375H2.766v-2.61h1.812c1 0 1.172.782 1.172 1.235m.266 3.25c0 .125 0 1.39-1.422 1.39H2.766v-2.906h1.922c.203 0 .671 0 1 .438.328.406.328.968.328 1.078m0 0"/><path id="g" d="M7.61-2.25c0-.203-.063-.219-.235-.219-.125 0-.219 0-.234.172C7.078-.969 5.875-.359 4.875-.359c-.781 0-1.61-.235-2.125-.844-.469-.563-.594-1.313-.594-2.203 0-.563.031-1.625.656-2.281.641-.657 1.516-.766 2.032-.766 1.062 0 2.015.75 2.234 2.016.031.187.031.203.266.203.265 0 .265-.016.265-.282V-6.64c0-.203 0-.28-.171-.28-.094 0-.11.015-.188.077l-.656.594c-.625-.5-1.282-.672-1.969-.672-2.469 0-3.984 1.469-3.984 3.516C.64-1.375 2.156.109 4.625.109c1.86 0 2.984-1.218 2.984-2.359m0 0"/><path id="h" d="M8.125-3.344c0-2.187-1.5-3.468-3.469-3.468H.391v.468h1.062v5.875H.391V0h4.28c1.954 0 3.454-1.219 3.454-3.344m-1.469-.015c0 1.078-.125 1.609-.437 2.062-.469.672-1.344.828-1.953.828H2.813v-5.875h1.453c.656 0 1.484.188 1.968.875.344.516.422 1.188.422 2.11m0 0"/><clipPath id="a"><path d="M.055 111H7v42H.055Zm0 0"/></clipPath><clipPath id="b"><path d="M165 188h13v1.066h-13Zm0 0"/></clipPath></defs><path fill="none" stroke="#000" stroke-miterlimit="10" stroke-width=".7950393800000001" d="M179.348 84.41c0-8.11-6.575-14.68-14.684-14.68-8.105 0-14.68 6.57-14.68 14.68s6.575 14.68 14.68 14.68c8.11 0 14.684-6.57 14.684-14.68Zm0 0"/><path fill="none" stroke="#000" stroke-miterlimit="10" stroke-width=".39801846" d="M171.363 62.437V75.7l-11.879 5.446"/><path fill="none" stroke="#000" stroke-miterlimit="10" stroke-width=".7950393800000001" d="M159.484 75.7v17.417"/><path fill="none" stroke="#000" stroke-miterlimit="10" stroke-width=".39801846" d="m159.484 87.676 11.88 5.441v13.266"/><path d="m163.668 89.594.953-2.074 3.684 4.199-5.586-.051Zm0 0"/><path fill="none" stroke="#000" stroke-miterlimit="10" stroke-width=".39801846" d="M159.484 84.41H147.41M6.23 155.18v-3.797m0-39.586V84.41h35.387v43.223m0 7.918v43.219"/><g clip-path="url(#a)"><path fill="none" stroke="#000" stroke-linejoin="bevel" stroke-miterlimit="10" stroke-width=".7950393800000001" d="M6.39 151.781c-3.28 0-5.94-2.258-5.94-5.047 0-2.789 2.66-5.047 5.94-5.047-3.28 0-5.94-2.261-5.94-5.05 0-2.785 2.66-5.047 5.94-5.047-3.28 0-5.94-2.258-5.94-5.047 0-2.79 2.66-5.047 5.94-5.047-3.28 0-5.94-2.262-5.94-5.05 0-2.786 2.66-5.048 5.94-5.048"/></g><path stroke="#000" stroke-miterlimit="10" stroke-width=".39801846" d="M43.2 84.41a1.583 1.583 0 1 0-3.167.002 1.583 1.583 0 0 0 3.166-.002Zm0 0"/><path fill="none" stroke="#000" stroke-miterlimit="10" stroke-width=".7950393800000001" d="M53.492 135.55H29.738m23.754-7.917H29.738M29.738 143.465l20.5-20.496"/><path stroke="#000" stroke-miterlimit="10" stroke-width=".7950154700000001" d="m52.93 120.277-4.09 1.012 1.539 1.54 1.535 1.538Zm0 0"/><path fill="#FFF" stroke="#000" stroke-miterlimit="10" stroke-width=".39801846" d="M43.2 84.41a1.583 1.583 0 1 0-3.167.002 1.583 1.583 0 0 0 3.166-.002Zm0 0"/><path stroke="#000" stroke-miterlimit="10" stroke-width=".39801846" d="M43.2 178.77c0-.872-.712-1.582-1.583-1.582-.875 0-1.586.71-1.586 1.582 0 .875.711 1.585 1.586 1.585.871 0 1.582-.71 1.582-1.585Zm0 0"/><path fill="none" stroke="#000" stroke-miterlimit="10" stroke-width=".39801846" d="M6.23 155.18v23.59h35.387M43.2 84.41H77v19.633m0 7.914v39.266m0 7.918v19.629"/><path fill="none" stroke="#000" stroke-miterlimit="10" stroke-width=".7950393800000001" d="M88.879 104.043H65.125m23.754 7.914H65.125"/><path stroke="#000" stroke-miterlimit="10" stroke-width=".39801846" d="M78.586 84.41a1.584 1.584 0 0 0-3.168 0 1.584 1.584 0 0 0 3.168 0ZM78.586 131.59a1.584 1.584 0 0 0-3.168 0 1.584 1.584 0 0 0 3.168 0Zm0 0"/><path fill="none" stroke="#000" stroke-miterlimit="10" stroke-width=".7950393800000001" d="M88.879 151.223H65.125m23.754 7.918H65.125"/><path stroke="#000" stroke-miterlimit="10" stroke-width=".39801846" d="M78.586 131.59a1.584 1.584 0 0 0-3.168 0 1.584 1.584 0 0 0 3.168 0ZM78.586 178.77a1.583 1.583 0 1 0-3.17.002 1.583 1.583 0 0 0 3.17-.002Zm0 0"/><path fill="none" stroke="#000" stroke-miterlimit="10" stroke-width=".39801846" d="M41.617 178.77H77M77 84.41h19.633m7.918 0h19.629"/><path fill="none" stroke="#000" stroke-miterlimit="10" stroke-width=".7950393800000001" d="M96.633 72.535v23.75m7.918-23.75v23.75"/><path stroke="#000" stroke-miterlimit="10" stroke-width=".39801846" d="M78.586 84.41a1.584 1.584 0 0 0-3.168 0 1.584 1.584 0 0 0 3.168 0ZM125.766 84.41a1.584 1.584 0 0 0-3.168 0 1.583 1.583 0 0 0 3.168 0Zm0 0"/><path fill="none" stroke="#000" stroke-miterlimit="10" stroke-width=".39801846" d="M77 178.77h47.18v-7.754m0-31.668V64.859m0-31.672V13.641H77v7.836m0 7.918v7.835"/><path fill="none" stroke="#000" stroke-miterlimit="10" stroke-width=".7950393800000001" d="M130.121 139.348v31.668h-11.879v-31.668Zm0 0"/><path stroke="#000" stroke-miterlimit="10" stroke-width=".39801846" d="M125.766 178.77c0-.872-.711-1.582-1.586-1.582-.871 0-1.582.71-1.582 1.582 0 .875.71 1.585 1.582 1.585.875 0 1.586-.71 1.586-1.585Zm0 0"/><path fill="none" stroke="#000" stroke-miterlimit="10" stroke-width=".7950393800000001" d="M130.121 33.187V64.86h-11.879V33.187Zm0 0"/><path stroke="#000" stroke-miterlimit="10" stroke-width=".39801846" d="M125.766 84.41a1.584 1.584 0 0 0-3.168 0 1.583 1.583 0 0 0 3.168 0Zm0 0"/><path fill="#FFF" stroke="#000" stroke-miterlimit="10" stroke-width=".39801846" d="M125.766 13.64c0-.874-.711-1.585-1.586-1.585-.871 0-1.582.71-1.582 1.586 0 .87.71 1.582 1.582 1.582.875 0 1.586-.711 1.586-1.582Zm0 0"/><path fill="none" stroke="#000" stroke-miterlimit="10" stroke-width=".7950393800000001" d="M88.879 21.477H65.125m23.754 7.918H65.125"/><path fill="none" stroke="#000" stroke-miterlimit="10" stroke-width=".39801846" d="M77 37.23v9.895"/><path fill="none" stroke="#000" stroke-linecap="round" stroke-miterlimit="10" stroke-width=".7950393800000001" d="M71.063 47.125h11.875"/><path fill="none" stroke="#000" stroke-miterlimit="10" stroke-width=".39801846" d="M125.766 13.64h45.597v48.997M171.363 13.64h7.754m31.672 0h7.754"/><path fill="none" stroke="#000" stroke-miterlimit="10" stroke-width=".7950393800000001" d="M179.117 7.7h31.672v11.878h-31.672Zm0 0"/><path stroke="#000" stroke-miterlimit="10" stroke-width=".39801846" d="M172.945 13.64a1.584 1.584 0 1 0-3.167-.004 1.584 1.584 0 0 0 3.167.005Zm0 0"/><path fill="#FFF" stroke="#000" stroke-miterlimit="10" stroke-width=".39801846" d="M220.125 13.64c0-.874-.707-1.585-1.582-1.585a1.584 1.584 0 0 0 0 3.168c.875 0 1.582-.711 1.582-1.582Zm0 0"/><path fill="none" stroke="#000" stroke-miterlimit="10" stroke-width=".39801846" d="M124.18 84.41h23.43"/><path fill="#FFF" stroke="#000" stroke-miterlimit="10" stroke-width=".39801846" d="M143.457 84.41a1.58 1.58 0 0 0-1.582-1.582 1.58 1.58 0 0 0-1.582 1.582 1.58 1.58 0 0 0 1.582 1.582 1.58 1.58 0 0 0 1.582-1.582Zm0 0"/><path fill="none" stroke="#000" stroke-miterlimit="10" stroke-width=".39801846" d="M77 131.59h94.363v7.758m0 31.668v7.754"/><path fill="#FFF" stroke="#000" stroke-miterlimit="10" stroke-width=".39801846" d="M172.945 131.59a1.584 1.584 0 0 0-3.168 0 1.584 1.584 0 0 0 3.168 0Zm0 0"/><path fill="none" stroke="#000" stroke-miterlimit="10" stroke-width=".7950393800000001" d="M165.426 171.016v-31.668H177.3v31.668Zm0 0"/><path stroke="#000" stroke-miterlimit="10" stroke-width=".39801846" d="M172.945 178.77a1.583 1.583 0 1 0-3.165.001 1.583 1.583 0 0 0 3.165-.001Zm0 0"/><path fill="none" stroke="#000" stroke-miterlimit="10" stroke-width=".39801846" d="M171.363 178.77v9.898"/><g clip-path="url(#b)"><path fill="none" stroke="#000" stroke-linecap="round" stroke-miterlimit="10" stroke-width=".7950393800000001" d="M165.426 188.668H177.3"/></g><path fill="none" stroke="#000" stroke-miterlimit="10" stroke-width=".39801846" d="M171.363 130.008v-23.824M124.18 178.77h47.183M171.363 178.77h47.18"/><path fill="#FFF" stroke="#000" stroke-miterlimit="10" stroke-width=".39801846" d="M220.125 178.77a1.583 1.583 0 1 0-3.166.001 1.583 1.583 0 0 0 3.166-.001Zm0 0"/><use xlink:href="#c" x="216.055" y="175.26"/><use xlink:href="#d" x="214.674" y="22.945"/><use xlink:href="#e" x="37.296" y="80.899"/><use xlink:href="#f" x="120.115" y="10.13"/><use xlink:href="#g" x="137.743" y="80.791"/><use xlink:href="#h" x="174.871" y="135"/></svg>