<svg xmlns="http://www.w3.org/2000/svg" xmlns:xlink="http://www.w3.org/1999/xlink" width="230.689" height="149.885"><defs><path id="a" d="M4.969-2.531v-.219H0v.219Zm0 0"/><path id="g" d="M7.172-2.484c0-.203-.188-.203-.328-.203H4.078V-5.47c0-.14 0-.328-.203-.328s-.203.188-.203.328v2.782H.89c-.141 0-.328 0-.328.203 0 .187.187.187.328.187h2.78V.5c0 .14 0 .328.204.328.203 0 .203-.187.203-.328v-2.797h2.766c.14 0 .328 0 .328-.187m0 0"/><path id="b" d="M7.563-6.922c0-.031-.016-.094-.11-.094-.031 0-.031.016-.14.125l-.704.766c-.093-.14-.546-.89-1.656-.89C2.734-7.016.5-4.814.5-2.516.5-.86 1.672.218 3.188.218c.874 0 1.624-.39 2.156-.86.922-.812 1.093-1.718 1.093-1.75 0-.093-.093-.093-.125-.093-.046 0-.109.015-.125.093-.093.297-.312 1-1 1.579-.687.546-1.312.718-1.828.718-.906 0-1.953-.515-1.953-2.062 0-.578.203-2.188 1.203-3.344.61-.703 1.547-1.203 2.422-1.203 1.016 0 1.61.766 1.61 1.922 0 .39-.032.406-.032.5 0 .093.11.093.157.093.125 0 .125-.015.172-.187Zm0 0"/><path id="c" d="M2.328-4.437c0-.188 0-.188-.203-.188-.453.438-1.078.438-1.36.438v.25c.157 0 .626 0 1-.188v3.547c0 .234 0 .328-.687.328H.812V0c.125 0 .985-.031 1.235-.031.219 0 1.094.031 1.25.031v-.25H3.03c-.703 0-.703-.094-.703-.328Zm0 0"/><path id="d" d="M3.516-1.266H3.28c-.015.157-.094.563-.187.625-.047.047-.578.047-.688.047H1.125c.734-.64.984-.843 1.39-1.172.516-.406 1-.843 1-1.5 0-.843-.734-1.359-1.624-1.359-.86 0-1.453.61-1.453 1.25 0 .344.296.39.375.39.156 0 .359-.124.359-.374 0-.125-.047-.375-.406-.375.218-.485.687-.641 1.015-.641.703 0 1.063.547 1.063 1.11 0 .609-.438 1.078-.656 1.328L.516-.266C.437-.203.437-.187.437 0h2.876Zm0 0"/><path id="h" d="M3.219-.375v-1.937h1.937c.125 0 .235-.11.235-.22a.23.23 0 0 0-.235-.234H3.22v-1.937a.24.24 0 0 0-.235-.234.24.24 0 0 0-.234.234v1.937H.828a.23.23 0 0 0-.234.235c0 .11.11.219.234.219H2.75v1.937c0 .11.11.219.234.219.125 0 .235-.11.235-.219m0 0"/><clipPath id="e"><path d="M180 139h2v10.727h-2Zm0 0"/></clipPath><clipPath id="f"><path d="M174 148h14v1.727h-14Zm0 0"/></clipPath></defs><path fill="none" stroke="#000" stroke-miterlimit="10" stroke-width=".39846135000000005" d="M4.016 139.422h17.988m0 0h35.98m0 0h35.977m0 0h35.977m0 0h53.968m0 0h35.977"/><path stroke="#000" stroke-miterlimit="10" stroke-width=".39846135000000005" d="M41.578 139.422a1.584 1.584 0 1 0-3.167-.005 1.584 1.584 0 0 0 3.167.005ZM77.559 139.422a1.587 1.587 0 0 0-3.172 0c0 .875.71 1.582 1.586 1.582.875 0 1.586-.707 1.586-1.582ZM113.535 139.422a1.587 1.587 0 0 0-3.172 0c0 .875.711 1.582 1.586 1.582.875 0 1.586-.707 1.586-1.582ZM149.512 139.422a1.584 1.584 0 1 0-3.168-.004 1.584 1.584 0 0 0 3.168.004Zm0 0"/><path fill="#FFF" stroke="#000" stroke-miterlimit="10" stroke-width=".39846135000000005" d="M221.469 139.422a1.587 1.587 0 0 0-3.172 0c0 .875.71 1.582 1.586 1.582.875 0 1.586-.707 1.586-1.582Zm0 0"/><use xlink:href="#a" x="217.392" y="145.692"/><path fill="none" stroke="#000" stroke-miterlimit="10" stroke-width=".39846135000000005" d="M4.016 139.422v-25.906m0-20.145V67.465h17.988m0 0h35.98m0 0h35.977m0 0h33.457m5.04 0h24.464m0 0h8.992"/><path fill="none" stroke="#000" stroke-linejoin="bevel" stroke-miterlimit="10" stroke-width=".7959240500000001" d="M4.176 113.914c-2.086 0-3.778-1.172-3.778-2.617s1.692-2.617 3.778-2.617c-2.086 0-3.778-1.172-3.778-2.618 0-1.449 1.692-2.62 3.778-2.62-2.086 0-3.778-1.172-3.778-2.618 0-1.445 1.692-2.617 3.778-2.617-2.086 0-3.778-1.172-3.778-2.617s1.692-2.617 3.778-2.617"/><path stroke="#000" stroke-miterlimit="10" stroke-width=".39846135000000005" d="M41.578 67.465a1.584 1.584 0 1 0-3.168 0 1.585 1.585 0 1 0 3.168 0ZM77.559 67.465a1.587 1.587 0 0 0-3.172 0 1.587 1.587 0 0 0 3.172 0ZM113.535 67.465a1.587 1.587 0 0 0-3.172 0 1.587 1.587 0 0 0 3.172 0Zm0 0"/><path fill="none" stroke="#000" stroke-miterlimit="10" stroke-width=".7959240500000001" d="M127.418 59.91v15.11m5.04-15.11v15.11"/><path stroke="#000" stroke-miterlimit="10" stroke-width=".39846135000000005" d="M149.512 67.465a1.584 1.584 0 1 0-3.168 0 1.584 1.584 0 1 0 3.168 0Zm0 0"/><path fill="none" stroke="#000" stroke-miterlimit="10" stroke-width=".7959240500000001" d="M186.106 67.465a9.34 9.34 0 1 0-9.34 9.34c5.16 0 9.34-4.18 9.34-9.34Zm0 0"/><path fill="none" stroke="#000" stroke-miterlimit="10" stroke-width=".39846135000000005" d="M181.027 53.414v8.512l-7.554 3.46"/><path fill="none" stroke="#000" stroke-miterlimit="10" stroke-width=".7959240500000001" d="M173.473 61.926v11.078"/><path fill="none" stroke="#000" stroke-miterlimit="10" stroke-width=".39846135000000005" d="m173.473 69.543 7.554 3.46v8.513"/><path d="m175.492 70.469.95-2.074 3.69 4.199-5.593-.047Zm0 0"/><path fill="none" stroke="#000" stroke-miterlimit="10" stroke-width=".39846135000000005" d="M173.473 67.465h-7.754M39.996 139.422V105.96m0-5.035V67.465"/><path fill="none" stroke="#000" stroke-miterlimit="10" stroke-width=".7959240500000001" d="M32.438 105.96H47.55m-15.113-5.034H47.55M47.55 111 35.7 99.148"/><path stroke="#000" stroke-miterlimit="10" stroke-width=".79591608" d="m33 96.45 1.016 4.097 1.543-1.54 1.539-1.542Zm0 0"/><path fill="none" stroke="#000" stroke-miterlimit="10" stroke-width=".39846135000000005" d="M75.973 139.422V105.96m0-5.035V67.465"/><path fill="none" stroke="#000" stroke-miterlimit="10" stroke-width=".7959240500000001" d="M68.418 105.96h15.11m-15.11-5.034h15.11M83.527 111 68.84 96.309"/><path fill="none" stroke="#000" stroke-miterlimit="10" stroke-width=".79591608" d="m66.516 98.352 4.363-4.364"/><path fill="none" stroke="#000" stroke-miterlimit="10" stroke-width=".39846135000000005" d="M111.95 67.465v15.472m0 5.036v30.941m0 5.035v15.473"/><path fill="none" stroke="#000" stroke-miterlimit="10" stroke-width=".7959240500000001" d="M119.504 82.937h-15.11m15.11 5.036h-15.11"/><use xlink:href="#b" x="90.454" y="87.599"/><use xlink:href="#c" x="97.565" y="89.091"/><path fill="none" stroke="#000" stroke-miterlimit="10" stroke-width=".7959240500000001" d="M119.504 118.914h-15.11m15.11 5.035h-15.11"/><path stroke="#000" stroke-miterlimit="10" stroke-width=".39846135000000005" d="M113.535 103.441c0-.875-.71-1.582-1.586-1.582a1.584 1.584 0 1 0 0 3.168c.875 0 1.586-.71 1.586-1.586Zm0 0"/><use xlink:href="#b" x="90.454" y="123.576"/><use xlink:href="#d" x="97.565" y="125.068"/><path fill="none" stroke="#000" stroke-miterlimit="10" stroke-width=".39846135000000005" d="M147.926 67.465v17.988m0 0v25.906m0 20.145v7.918"/><path fill="none" stroke="#000" stroke-miterlimit="10" stroke-width=".7959240500000001" d="M144.148 131.504v-20.145h7.555v20.145Zm0 0"/><path fill="none" stroke="#000" stroke-miterlimit="10" stroke-width=".39846135000000005" d="M181.027 81.316V92.38m0 0v18.98m0 20.145v7.918"/><path stroke="#000" stroke-miterlimit="10" stroke-width=".39846135000000005" d="M182.613 103.441c0-.875-.71-1.582-1.586-1.582a1.584 1.584 0 1 0 0 3.168c.875 0 1.586-.71 1.586-1.586Zm0 0"/><path fill="none" stroke="#000" stroke-miterlimit="10" stroke-width=".7959240500000001" d="M177.25 131.504v-20.145h7.555v20.145Zm0 0"/><path stroke="#000" stroke-miterlimit="10" stroke-width=".39846135000000005" d="M182.613 139.422a1.587 1.587 0 0 0-3.172 0c0 .875.711 1.582 1.586 1.582.875 0 1.586-.707 1.586-1.582Zm0 0"/><g clip-path="url(#e)"><path fill="none" stroke="#000" stroke-miterlimit="10" stroke-width=".39846135000000005" d="M181.027 139.422v9.906"/></g><g clip-path="url(#f)"><path fill="none" stroke="#000" stroke-linecap="round" stroke-miterlimit="10" stroke-width=".7959240500000001" d="M175.082 149.328h11.89"/></g><path fill="none" stroke="#000" stroke-miterlimit="10" stroke-width=".39846135000000005" d="M111.95 103.441h34.538m0 0h51.45m5.035 0h16.91"/><path fill="none" stroke="#000" stroke-miterlimit="10" stroke-width=".7959240500000001" d="M197.938 95.887V111m5.035-15.113V111"/><path fill="#FFF" stroke="#000" stroke-miterlimit="10" stroke-width=".39846135000000005" d="M221.469 103.441c0-.875-.711-1.582-1.586-1.582a1.584 1.584 0 1 0 0 3.168c.875 0 1.586-.71 1.586-1.586Zm0 0"/><path fill="none" stroke="#000" stroke-miterlimit="10" stroke-width=".39846135000000005" d="M147.926 67.465v-16.91m0-20.145V13.5h16.55m0 0h16.551v20.055m0 0v20.058"/><path fill="none" stroke="#000" stroke-miterlimit="10" stroke-width=".7959240500000001" d="M151.703 30.41v20.145h-7.555V30.41Zm0 0"/><path stroke="#000" stroke-miterlimit="10" stroke-width=".39846135000000005" d="M149.512 13.5a1.584 1.584 0 1 0-3.168 0 1.584 1.584 0 1 0 3.168 0ZM182.613 13.5a1.587 1.587 0 0 0-3.172 0 1.587 1.587 0 0 0 3.172 0Zm0 0"/><path fill="none" stroke="#000" stroke-miterlimit="10" stroke-width=".39846135000000005" d="M181.027 13.5h9.352m20.148 0h9.356"/><path fill="none" stroke="#000" stroke-miterlimit="10" stroke-width=".7959240500000001" d="M190.379 9.723h20.148v7.554H190.38Zm0 0"/><path fill="#FFF" stroke="#000" stroke-miterlimit="10" stroke-width=".39846135000000005" d="M221.469 13.5a1.587 1.587 0 0 0-3.172 0 1.587 1.587 0 0 0 3.172 0Zm0 0"/><use xlink:href="#g" x="216.009" y="9.16"/><path fill="none" stroke="#000" stroke-miterlimit="10" stroke-width=".39846135000000005" d="M147.926 13.5h-17.988m0 0H93.96m0 0H57.984m0 0H39.996v15.469m0 5.039v15.469h17.988m0 0h35.977m0 0h17.988V36.523m0-10.074V13.5"/><path stroke="#000" stroke-miterlimit="10" stroke-width=".39846135000000005" d="M113.535 13.5a1.587 1.587 0 0 0-3.172 0 1.587 1.587 0 0 0 3.172 0ZM77.559 13.5a1.587 1.587 0 0 0-3.172 0 1.587 1.587 0 0 0 3.172 0Zm0 0"/><path fill="none" stroke="#000" stroke-miterlimit="10" stroke-width=".7959240500000001" d="M47.55 28.969H32.439m15.113 5.039H32.438"/><path fill="none" stroke="#000" stroke-miterlimit="10" stroke-width=".39846135000000005" d="M75.973 49.477v9.906"/><path fill="none" stroke="#000" stroke-linecap="round" stroke-miterlimit="10" stroke-width=".7959240500000001" d="M70.027 59.383h11.891"/><path fill="none" stroke="#000" stroke-miterlimit="10" stroke-width=".7959240500000001" d="m111.95 26.45-6.298 10.073h12.594Zm0 0"/><path fill="none" stroke="#000" stroke-miterlimit="10" stroke-width=".39846135000000005" d="M111.95 26.45v10.073"/><path fill="none" stroke="#000" stroke-miterlimit="10" stroke-width=".7959240500000001" d="M118.246 26.45h-12.594v2.015"/><path fill="none" stroke="#000" stroke-miterlimit="10" stroke-width=".39846135000000005" d="M75.973 13.5v15.469m0 5.039v15.469"/><path fill="none" stroke="#000" stroke-miterlimit="10" stroke-width=".7959240500000001" d="M83.527 28.969H68.418m15.11 5.039h-15.11"/><use xlink:href="#h" x="29.449" y="25.456"/></svg>