<svg xmlns="http://www.w3.org/2000/svg" xmlns:xlink="http://www.w3.org/1999/xlink" width="234.004" height="107.478"><defs><path id="b" d="M7.156-2.484c0-.188-.187-.188-.328-.188H4.062v-2.781c0-.14 0-.328-.203-.328s-.203.187-.203.328v2.781H.891c-.141 0-.328 0-.328.188 0 .203.187.203.328.203h2.765V.5c0 .14 0 .328.203.328.204 0 .204-.187.204-.328v-2.781h2.765c.14 0 .328 0 .328-.203m0 0"/><path id="c" d="M4.156 0v-.312h-.312c-.89 0-.922-.11-.922-.47v-5.562c0-.25 0-.265-.235-.265-.609.64-1.484.64-1.796.64v.297c.187 0 .78 0 1.297-.25v5.14c0 .36-.032.47-.922.47H.938V0c.359-.031 1.218-.031 1.609-.031.406 0 1.265 0 1.61.031m0 0"/><path id="d" d="M7.016-3.328c0-1.89-1.344-3.453-3.032-3.453H.344v.312h.234c.766 0 .797.11.797.469v5.219c0 .36-.031.469-.797.469H.344V0h3.64c1.657 0 3.032-1.469 3.032-3.328m-1 0c0 1.094-.188 1.687-.532 2.172-.203.265-.765.843-1.78.843h-1c-.454 0-.485-.062-.485-.39v-5.375c0-.328.031-.39.484-.39h1c.61 0 1.297.218 1.797.921.438.594.516 1.438.516 2.219m0 0"/><path id="e" d="M7.11 0v-.312h-.173c-.593 0-.734-.063-.843-.391l-2.14-6.203c-.048-.125-.079-.203-.235-.203-.156 0-.188.062-.235.203L1.422-.97c-.172.5-.563.657-1.11.657V0l1.016-.031L2.468 0v-.312c-.5 0-.75-.25-.75-.5 0-.032.016-.125.032-.157l.453-1.297h2.453L5.172-.75a.58.58 0 0 1 .031.14c0 .298-.547.298-.812.298V0c.359-.031 1.047-.031 1.422-.031ZM4.546-2.562H2.313l1.109-3.235Zm0 0"/><path id="J" d="M7.11-6.469v-.312l-1.173.031-1.156-.031v.312c1.016 0 1.016.469 1.016.735V-1.5l-3.5-5.14c-.078-.126-.094-.141-.281-.141H.328v.312H.61c.157 0 .36.016.5.016.235.031.235.047.235.234v5.172c0 .266 0 .734-1.016.734V0l1.156-.031L2.656 0v-.312c-1.031 0-1.031-.47-1.031-.735v-5.156a.376.376 0 0 1 .094.125L5.78-.125c.078.11.094.125.157.125.14 0 .14-.062.14-.266v-5.468c0-.266 0-.735 1.031-.735m0 0"/><path id="f" d="M3.64-3.969h.86c.188 0 .297 0 .297-.203 0-.11-.11-.11-.266-.11h-.828l.203-1.124c.047-.203.188-.907.235-1.032.093-.187.265-.343.468-.343.047 0 .297 0 .485.187a.531.531 0 0 0-.532.532c0 .234.188.343.375.343.25 0 .547-.218.547-.593 0-.454-.468-.688-.875-.688-.328 0-.953.188-1.25 1.172-.062.203-.093.297-.328 1.547h-.687c-.188 0-.297 0-.297.187 0 .125.094.125.281.125h.64L2.235-.047c-.187.953-.343 1.86-.859 1.86-.047 0-.297 0-.484-.172a.547.547 0 0 0 .547-.547c0-.219-.172-.344-.36-.344-.266 0-.547.219-.547.594 0 .453.438.687.844.687.547 0 .938-.578 1.11-.953.328-.625.546-1.828.562-1.906Zm0 0"/><path id="g" d="M3.672-1.484c0-.86-.75-1.61-1.703-1.61-.953 0-1.703.75-1.703 1.61 0 .859.765 1.547 1.703 1.547.937 0 1.703-.688 1.703-1.547M1.969-.156c-.25 0-.625-.078-.86-.422-.187-.281-.203-.64-.203-.969 0-.297 0-.703.25-1a1.05 1.05 0 0 1 .813-.36c.406 0 .703.204.86.423.187.265.202.609.202.937 0 .344-.015.703-.219.984-.187.266-.5.407-.843.407m0 0"/><path id="h" d="M2.5-2.984v.25c.469 0 .531.046.531.39v1.188c0 .61-.406 1.031-.922 1.031-.64 0-.671-.297-.671-.656v-2.281l-1.063.078v.25c.516 0 .516.015.516.64v1.047c0 .469 0 1.11 1.156 1.11.156 0 .672 0 1-.579v.579L4.094 0v-.25c-.469 0-.516-.047-.516-.39v-2.422Zm0 0"/><path id="i" d="M1.39-2.734h1.094v-.25H1.391v-1.282h-.235c0 .625-.281 1.313-.953 1.329v.203h.64v1.859c0 .781.579.938.97.938.468 0 .796-.391.796-.938v-.375h-.25v.375c0 .469-.218.719-.484.719-.484 0-.484-.578-.484-.703Zm0 0"/><path id="j" d="m4.484 6.797 2.235-.188V.547L4.484.359v.25C6.078.75 6.406.891 6.406 2.391c0 .172 0 .437-.015.53-.047.22-.157.22-.375.22H.78c-.328 0-.468 0-.468-1.047v-.39H0c.031.405.031 1.405.031 1.874 0 .453 0 1.469-.031 1.875h.313v-.39c0-1.047.14-1.047.468-1.047h5.235c.203 0 .328 0 .375.187.015.11.015.375.015.563 0 1.5-.328 1.64-1.922 1.78Zm0 0"/><path id="k" d="M.89 4.797h.548v-.25H.89c-.578 0-.641-.25-.641-.36 0-.328.438-.375.5-.375h1.984c.407 0 .797 0 1.172-.343.375-.39.531-.89.531-1.36 0-.812-.453-1.5-1.109-1.5-.297 0-.469.188-.469.454 0 .28.204.453.454.453.124 0 .453-.047.453-.5.359.265.468.75.468 1.062 0 .485-.39 1.063-1.28 1.063h-.36c-.031-.516-.063-1.203-.36-1.828-.343-.75-.859-1-1.296-1C.14.313-.11 1.28-.11 1.906c0 .657.39 1.11.859 1.297-.39.047-.812.313-.812.781 0 .204.14.813.953.813m.5-1.656C.454 3.14.11 2.42.11 1.969c0-.485.343-.89.843-.89.547 0 1.375.421 1.422 2.062Zm0 0"/><path id="l" d="M0 5.063h.313c0-.36 0-.579.515-.954L2.61 2.844c.016 0 .079-.063.11-.063.047 0 .64.719.719.813.5.625.515 1.047.53 1.25h.313c-.031-.297-.031-.422-.031-.703 0-.344.016-.97.031-1.11H3.97c-.016.188-.125.297-.25.297-.203 0-.313-.14-.39-.219L2.124 1.703h4.766L6.78.281H6.47c0 .688-.063.766-.563.766H.75C.313 1.047.313.937.313.28H0L.031 1.36 0 2.453h.313c0-.672 0-.781.437-.781h1.031l.547.64C1.266 3.079.718 3.5.531 3.5c-.187 0-.219-.172-.219-.36H0l.031 1.063c0 .297-.015.578-.031.86m0 0"/><path id="m" d="M1.234 3.297h.563v-.25H1.25c-.734 0-1.11-.297-1.11-.672 0-.656.907-.656 1.063-.656H3.97V3.14h.312V1.719H6.11v-.25c-.828-.016-1.875-.313-1.921-1.281h-.22v.843H1.235c-1.218 0-1.343.922-1.343 1.282 0 .703.703.984 1.343.984m0 0"/><path id="n" d="M4.016 4.813c.156 0 .484-.125.484-.5 0-.204-.062-.641-.469-1.063.328-.406.36-.828.36-1.047 0-.922-.688-1.61-1.453-1.61-.438 0-.813.22-1.016.47C1.766.938 1.438.75 1.094.75c-.313 0-.688.14-.89.438C.046.594-.392.28-.782.28c-.719 0-1.266.985-1.266 2.188 0 1.172.516 2.203 1.281 2.203.344 0 .86-.14 1.125-.64.282-.532.282-1.11.282-1.704 0-.25 0-.687.015-.75.031-.312.344-.531.657-.531a.7.7 0 0 1 .468.172 1.77 1.77 0 0 0-.297.984c0 .922.672 1.61 1.438 1.61.375 0 .734-.157.969-.407.343.36.39.719.39.89 0 0 0 .063-.015.095-.032-.11-.141-.157-.266-.157a.287.287 0 0 0-.297.297c0 .094.078.282.313.282m-1.078-1.75c-.266 0-.594 0-.829-.157-.125-.078-.406-.312-.406-.703 0-.86 1-.86 1.219-.86.265 0 .594 0 .844.157.109.078.39.313.39.703 0 .86-.984.86-1.218.86m-3.72 1.093c-.53 0-1.03-.703-1.03-1.672 0-1 .5-1.687 1.03-1.687.454 0 .829.375.845.812v.579c0 .859 0 1.968-.844 1.968m0 0"/><path id="o" d="M1.188 4.125c.093 0 .109-.094.109-.14 0-.079-.063-.11-.14-.126C.14 3.516.14 2.625.14 2.516c0-.485.297-.891.656-1.11.484-.312 1.14-.312 1.5-.312v2.781c0 .219 0 .25.203.25.984 0 1.938-.547 1.938-1.781C4.438 1.188 3.422.28 2.188.28.859.281-.11 1.312-.11 2.453c0 1.219 1.093 1.672 1.297 1.672M2.5 3.469v-2.36c1.484.063 1.734.891 1.734 1.235 0 1.015-1.343 1.125-1.734 1.125m0 0"/><path id="p" d="M0 5.313h.313c0-.516 0-.766.296-.782H2.5c.86 0 1.156 0 1.516-.297.172-.14.375-.468.375-1.046 0-.735-.438-1.188-1.047-1.47H4.39L4.28.314H3.97c0 .703-.063.78-.563.78H.75c-.437 0-.437-.109-.437-.78H0l.031 1.125L0 2.547h.313c0-.656 0-.766.437-.766h1.828c1.031 0 1.594.703 1.594 1.328 0 .625-.547.735-1.11.735H.75c-.437 0-.437-.11-.437-.766H0l.031 1.125Zm0 0"/><path id="q" d="M3.781 3.61c.313 0 .61-.313.61-.735 0-.719-.672-1.078-1.094-1.219H4.39L4.28.281H3.97c0 .688-.063.766-.563.766H.75C.313 1.047.313.937.313.28H0l.031 1.125c0 .407 0 .86-.031 1.266h.313v-.219c0-.734.109-.75.468-.75h1.516c.984 0 1.875.422 1.875 1.172 0 .078 0 .094-.016.11a.43.43 0 0 0-.39-.22.41.41 0 0 0-.422.422c0 .172.125.422.437.422m0 0"/><path id="r" d="M2.125 4.672c1.266 0 2.313-.984 2.313-2.188 0-1.25-1.079-2.203-2.313-2.203C.844.281-.109 1.312-.109 2.47c0 1.203.968 2.203 2.234 2.203m.078-.828c-.36 0-.89 0-1.328-.219a1.267 1.267 0 0 1-.734-1.14c0-.438.203-.86.656-1.141.437-.25 1.047-.25 1.406-.25.39 0 .922 0 1.36.25.453.265.671.734.671 1.125 0 .437-.218.86-.656 1.125-.422.25-1 .25-1.375.25m0 0"/><path id="s" d="M0 7.11h.313v-.173c0-.593.062-.734.39-.843l6.203-2.14c.125-.048.203-.079.203-.235 0-.156-.062-.188-.203-.235L.97 1.422C.469 1.25.313.859.313.312H0l.031 1.016L0 2.468h.313c0-.5.25-.75.5-.75.03 0 .125.016.156.032l1.297.453v2.453L.75 5.172a.58.58 0 0 1-.14.031c-.297 0-.297-.547-.297-.812H0c.031.359.031 1.047.031 1.422Zm2.563-2.563V2.313l3.234 1.109Zm0 0"/><path id="t" d="M0 5.234h.313c0-.703.062-.78.546-.78h6.032L6.78 3.03H6.47c0 .688-.063.766-.563.766h-2.14c.359-.281.625-.719.625-1.25 0-1.172-.985-2.203-2.25-2.203-1.266 0-2.25.969-2.25 2.094 0 .64.343 1.078.656 1.328H-.11Zm1.172-1.468c-.188 0-.203 0-.375-.11C.328 3.36.109 2.922.109 2.484c0-.437.25-.796.641-1.03.406-.266.969-.298 1.375-.298.36 0 .953.032 1.406.313.313.203.64.578.64 1.125 0 .344-.155.765-.593 1.062-.172.11-.187.11-.375.11Zm0 0"/><path id="u" d="M1.266 3.578c.53 0 .828-.297.953-.422.312-.328.39-.719.469-1.125.109-.562.234-1.234.812-1.234.344 0 .75.265.75 1.125 0 1.078-.89 1.14-1.187 1.156-.094 0-.094.11-.094.11 0 .14.047.14.234.14h1c.172 0 .234 0 .234-.11 0-.046 0-.077-.109-.202a.819.819 0 0 1-.156-.172c.266-.375.266-.781.266-.922C4.438.703 3.78.328 3.218.328c-.343 0-.624.156-.843.422-.25.328-.312.594-.453 1.313-.031.218-.203 1.03-.906 1.03C.5 3.094.109 2.75.109 1.97.11 1.14.672.78 1.516.594c.125-.031.172-.031.172-.14 0-.126-.063-.126-.25-.126H.125c-.172 0-.234 0-.234.11 0 .046.015.062.203.25.015.015.031.015.219.203A1.48 1.48 0 0 0-.11 1.969c0 1.14.672 1.61 1.375 1.61m0 0"/><path id="v" d="M1.86 3.984v-.25C.687 3.641.25 3.438.25 2.281V1.11l3.734 2.766c.11.078.125.078.157.078.14 0 .14-.078.14-.25V.531l-1.61-.11v.25C3.689.72 4.064.907 4.064 2v1.14L.313.36C.203.28.188.28.14.28 0 .281 0 .344 0 .531v3.282Zm0 0"/><path id="w" d="M.89 4.797h.548v-.25H.89c-.578 0-.641-.25-.641-.36 0-.328.438-.375.5-.375h1.984c.407 0 .797 0 1.172-.343.375-.39.531-.89.531-1.36 0-.812-.453-1.5-1.109-1.5-.297 0-.469.188-.469.454 0 .28.204.453.454.453.124 0 .453-.047.453-.5.359.265.468.75.468 1.062 0 .485-.39 1.063-1.28 1.063h-.36c-.031-.516-.063-1.203-.36-1.828-.343-.75-.859-1-1.296-1C.14.313-.11 1.28-.11 1.906c0 .657.39 1.11.859 1.297-.39.047-.812.313-.812.781 0 .204.14.813.953.813m.5-1.656C.454 3.14.11 2.42.11 1.969c0-.485.343-.89.843-.89.547 0 1.375.421 1.422 2.062ZM6 2.078a.48.48 0 0 0 .469-.469A.473.473 0 0 0 6 1.125a.47.47 0 0 0-.469.469c0 .312.25.484.469.484m0 1.766a.48.48 0 0 0 .469-.469A.473.473 0 0 0 6 2.891a.47.47 0 0 0-.469.468c0 .313.25.485.469.485m0 0"/><path id="x" d="M0 5.313h.313c0-.516 0-.766.296-.782H2.5c.86 0 1.156 0 1.516-.297.172-.14.375-.468.375-1.046 0-.844-.594-1.266-.953-1.438H6.89L6.78.313H6.47c0 .703-.063.78-.563.78H.75c-.437 0-.437-.109-.437-.78H0l.031 1.125L0 2.547h.313c0-.656 0-.766.437-.766h1.828c1.031 0 1.594.703 1.594 1.328 0 .625-.547.735-1.11.735H.75c-.437 0-.437-.11-.437-.766H0l.031 1.125Zm0 0"/><path id="y" d="M0 2.531h.313c0-.672 0-.781.437-.781h6.14L6.782.328H6.47c0 .688-.063.766-.563.766H.75c-.437 0-.437-.11-.437-.766H0l.031 1.094Zm0 0"/><path id="z" d="M1.844 4.953c1 0 1.812-.656 2-1.484l.312-1.281c.157-.61.688-1 1.266-1 .687 0 1.297.53 1.297 1.312 0 1.656-1.625 1.875-2.078 1.938-.063 0-.11 0-.11.109 0 .14.047.14.235.14H6.75c.172 0 .25 0 .25-.109 0-.078-.016-.078-.14-.156l-.563-.344C6.594 3.781 7 3.375 7 2.484 7 1.391 6.125.563 5.063.563c-.813 0-1.547.515-1.813 1.296-.031.11-.156.61-.328 1.313-.063.265-.14.562-.5.844a1.499 1.499 0 0 1-.906.297c-.72 0-1.422-.5-1.422-1.329 0-.28.047-1.046.531-1.562.531-.578 1.172-.61 1.531-.625.094 0 .094-.078.094-.11 0-.125-.062-.125-.25-.125H.016c-.172 0-.235 0-.235.11 0 .062.016.078.125.14 0 0 .047.032.563.36C.14 1.484-.22 2.109-.22 3c0 1.156.969 1.953 2.063 1.953m0 0"/><path id="A" d="M0 2.453h.313c0-.656.046-.703.437-.703h3.64L4.282.36H3.97c0 .656-.063.734-.547.734H.75c-.437 0-.437-.11-.437-.766H0l.031 1.094c0 .344-.015.687-.031 1.031m6-.547a.534.534 0 0 0 .516-.531A.533.533 0 0 0 6 .844a.537.537 0 0 0-.531.531c0 .328.281.531.531.531m0 0"/><path id="B" d="M0 5.313h.313c0-.704.062-.782.546-.782h3.532l-.11-1.453H3.97c0 .688-.063.766-.563.766H1.641c-.86 0-1.532-.469-1.532-1.188 0-.844.47-.875.985-.875H4.39L4.28.313H3.97c0 .78-.031.78-.906.78h-1.5c-.766 0-1.672 0-1.672 1.5 0 .563.28 1 .89 1.282h-.89Zm0 0"/><path id="C" d="M1.86 2.734h.577V.11H1.86Zm0 0"/><path id="D" d="M2.14 5.172c1.266 0 2.25-.969 2.25-2.11 0-.765-.468-1.203-.656-1.359h3.157L6.78.281H6.47c0 .688-.063.766-.563.766H0v.25l.61.36c-.22.155-.72.562-.72 1.296 0 1.188.97 2.219 2.25 2.219m.016-.828c-.375 0-.969-.016-1.406-.313-.312-.203-.64-.578-.64-1.11 0-.452.234-.812.609-1.046.203-.14.234-.14.406-.14h2.047c.187 0 .203 0 .36.109.562.39.64.937.64 1.172 0 .453-.266.797-.64 1.047-.407.25-.97.28-1.376.28m0 0"/><path id="E" d="M.875 7.266c.063 0 .172 0 .172-.125 0-.11-.094-.11-.156-.125C.17 6.953 0 6.609 0 6.359c0-.484.5-.562 1.422-.703l.797-.125c.64-.187.969-.672 1.156-1.218.234.968.844 1.734 1.61 1.734.952 0 1.796-1.125 1.796-2.578V.344H6.47v.234c0 .766-.11.797-.469.797H.781c-.36 0-.468-.031-.468-.797V.344H0c.031.36.031 1.062.031 1.453 0 .39 0 1.094-.031 1.453h.313V3c0-.75.109-.781.468-.781h2.5v1.14c0 .157 0 .579-.328.922-.36.375-.672.375-1.328.375s-1.047 0-1.422.407c-.36.421-.422.953-.422 1.25 0 .78.813.953 1.094.953m4.11-2.235c-.673 0-1.485-.234-1.485-1.703v-1.11h2.578c.219 0 .344 0 .375.22.016.109.016.39.016.593 0 .89-.047 2-1.485 2m0 0"/><path id="F" d="M3.328 7.016c1.89 0 3.453-1.344 3.453-3.032V.344H6.47v.234c0 .766-.11.797-.469.797H.781c-.36 0-.468-.031-.468-.797V.344H0v3.64c0 1.657 1.469 3.032 3.328 3.032m0-1c-1.094 0-1.687-.188-2.172-.532-.265-.203-.843-.765-.843-1.78v-1c0-.454.062-.485.39-.485h5.375c.328 0 .39.031.39.484v1c0 .61-.218 1.297-.921 1.797-.594.438-1.438.516-2.219.516m0 0"/><path id="G" d="M7.25 4.39a.18.18 0 0 0 .188-.187c0-.14-.094-.187-.188-.219L-2.11.61C-2.233.563-2.28.563-2.28.563c-.11 0-.203.078-.203.187 0 .14.109.188.203.219l9.344 3.375a.609.609 0 0 0 .187.047m0 0"/><path id="H" d="M6.469 7.11h.312L6.75 5.936l.031-1.187H6.47c0 1.031-.469 1.031-.735 1.031H2.297C.89 5.781.094 4.813.094 3.875c0-.469.25-1.64 2.125-1.64H6c.36 0 .469.015.469.78v.235h.312c-.031-.344-.031-1.078-.031-1.453s0-1.125.031-1.469H6.47v.235c0 .765-.11.78-.469.78H2.266C.859 1.344-.22 2.5-.22 3.844c0 1.141.922 2.048 2.047 2.204.203.031.297.031.688.031h3.172c.328 0 .78 0 .78 1.031m0 0"/><path id="I" d="M0 8.063h.313c0-.516 0-.766.296-.766H2.5c.86 0 1.156 0 1.516-.313.172-.14.375-.468.375-1.046 0-.829-.594-1.266-.985-1.438.875-.14.985-.875.985-1.312 0-.735-.438-1.188-1.047-1.47H4.39L4.28.314H3.97c0 .703-.063.78-.563.78H.75c-.437 0-.437-.109-.437-.78H0l.031 1.125L0 2.547h.313c0-.656 0-.766.437-.766h1.828c1.031 0 1.594.703 1.594 1.328 0 .625-.547.735-1.11.735H.75c-.437 0-.437-.11-.437-.766H0l.031 1.125L0 5.313h.313c0-.672 0-.782.437-.782h1.828c1.031 0 1.594.703 1.594 1.344 0 .625-.547.734-1.11.734H.75c-.437 0-.437-.109-.437-.78H0l.031 1.124Zm0 0"/><path id="K" d="M1.813 6.453c.859 0 1.609-.812 1.734-1.906.187.953.812 1.64 1.547 1.64.875 0 1.687-.906 1.687-2.203V.36H6.47v.235c0 .765-.11.781-.469.781H.781c-.36 0-.468-.016-.468-.781V.359H0V4.25c0 1.313.89 2.203 1.813 2.203m3.28-1.219c-.624 0-1.468-.484-1.468-1.593V2.203h2.453c.328 0 .39.016.39.485v1.234c0 .953-.843 1.312-1.374 1.312m-3.265.235c-.703 0-1.515-.516-1.515-1.547V2.687c0-.468.062-.484.39-.484h2.703v1.86c0 .984-.922 1.406-1.578 1.406m0 0"/><clipPath id="a"><path d="M.07 15H22v22H.07Zm0 0"/></clipPath></defs><g clip-path="url(#a)"><path fill="none" stroke="#000" stroke-miterlimit="10" stroke-width=".79315049" d="M.465 15.98h20.351v20.352H.465Zm0 0"/></g><path fill="none" stroke="#000" stroke-miterlimit="10" stroke-width=".39707283000000004" d="M3.52 29.719h2.847v-7.125H9.22v7.125h2.847v-7.125h2.848v7.125h2.852M20.816 26.156H31.2m0 0h10.387"/><path d="M37.387 26.156v1.973l4.199-1.973-4.2-1.976Zm0 0"/><path fill="none" stroke="#000" stroke-miterlimit="10" stroke-width=".79315049" d="M41.586 15.98h20.348v20.352H41.586Zm0 0"/><use xlink:href="#b" x="45.425" y="29.046"/><use xlink:href="#c" x="53.138" y="29.046"/><path fill="none" stroke="#000" stroke-miterlimit="10" stroke-width=".39707283000000004" d="M61.934 26.156h6.437m7.899 0h6.433M68.371 34.055l3.95-15.797m-3.95 7.898h7.899"/><path d="M78.508 26.156v1.973l4.195-1.973-4.195-1.976Zm0 0"/><path fill="none" stroke="#000" stroke-miterlimit="10" stroke-width=".79315049" d="M82.703 15.98h20.352v20.352H82.703Zm0 0"/><path fill="none" stroke="#000" stroke-miterlimit="10" stroke-width=".39707283000000004" d="M87.79 26.156c.831-1.304 1.624-2.543 2.546-2.543.918 0 1.71 1.239 2.543 2.543.828 1.301 1.621 2.543 2.543 2.543.922 0 1.715-1.242 2.543-2.543M85.754 33.277h10.793"/><path stroke="#000" stroke-miterlimit="10" stroke-width=".39707283000000004" d="m99.605 33.277-2.96-1.754v3.512Zm0 0"/><path fill="none" stroke="#000" stroke-miterlimit="10" stroke-width=".39707283000000004" d="M85.754 33.277V22.488"/><path stroke="#000" stroke-miterlimit="10" stroke-width=".39707283000000004" d="M85.754 19.43 84 22.39h3.512Zm0 0"/><path fill="none" stroke="#000" stroke-miterlimit="10" stroke-width=".39707283000000004" d="M103.055 26.156h6.433m7.899 0h6.433M109.488 34.055l3.95-15.797m-3.95 7.898h7.899"/><path d="M119.625 26.156v1.973l4.195-1.973-4.195-1.976Zm0 0"/><path fill="none" stroke="#000" stroke-miterlimit="10" stroke-width=".79315049" d="M123.82 15.98h20.352v20.352H123.82Zm0 0"/><path fill="none" stroke="#000" stroke-miterlimit="10" stroke-width=".39707283000000004" d="m123.82 19.031 4.07 2.035-4.07 2.036M144.172 26.156h6.434m7.898 0h6.434M150.606 34.055l3.949-15.797m-3.95 7.898h7.899"/><path d="M160.742 26.156v1.973l4.196-1.973-4.196-1.976Zm0 0"/><path fill="none" stroke="#000" stroke-miterlimit="10" stroke-width=".79315049" d="M164.938 15.98h20.351v20.352h-20.351Zm0 0"/><path fill="none" stroke="#000" stroke-miterlimit="10" stroke-width=".39707283000000004" d="m164.938 36.332 20.351-20.352"/><use xlink:href="#d" x="166.747" y="24.963"/><use xlink:href="#e" x="175.975" y="34.284"/><path fill="none" stroke="#000" stroke-miterlimit="10" stroke-width=".39707283000000004" d="M185.29 26.156h10.386m0 0h10.383"/><path d="M201.86 26.156v1.973l4.199-1.973-4.2-1.976Zm0 0"/><use xlink:href="#f" x="209.558" y="28.635"/><use xlink:href="#g" x="214.412" y="30.122"/><use xlink:href="#h" x="218.364" y="30.122"/><use xlink:href="#i" x="222.743" y="30.122"/><path fill="none" stroke="#000" stroke-miterlimit="10" stroke-width=".39707283000000004" d="M31.2 26.156v-12.98m0 0V.199h43.093m0 0h43.09v20.867h6.437"/><path stroke="#000" stroke-miterlimit="10" stroke-width=".39707283000000004" d="M32.781 26.156a1.58 1.58 0 0 0-3.16 0 1.58 1.58 0 0 0 3.16 0Zm0 0"/><path d="M119.625 21.066v1.977l4.195-1.977-4.195-1.972Zm0 0"/><use xlink:href="#j" x="8.223" y="39.835"/><use xlink:href="#k" x="8.223" y="46.17"/><use xlink:href="#l" x="8.223" y="51.127"/><use xlink:href="#m" x="8.223" y="56.362"/><use xlink:href="#n" x="8.223" y="60.219"/><use xlink:href="#o" x="8.223" y="65.176"/><use xlink:href="#p" x="8.223" y="69.578"/><use xlink:href="#o" x="8.223" y="75.09"/><use xlink:href="#q" x="8.223" y="79.492"/><use xlink:href="#k" x="8.223" y="83.379"/><use xlink:href="#m" x="8.223" y="88.336"/><use xlink:href="#r" x="8.223" y="92.193"/><use xlink:href="#q" x="8.223" y="97.15"/><use xlink:href="#s" x="48.265" y="39.835"/><use xlink:href="#t" x="48.265" y="46.993"/><use xlink:href="#q" x="48.265" y="52.505"/><use xlink:href="#o" x="48.265" y="56.392"/><use xlink:href="#u" x="48.265" y="60.794"/><use xlink:href="#u" x="48.265" y="64.7"/><use xlink:href="#v" x="48.265" y="68.606"/><use xlink:href="#w" x="48.265" y="73.008"/><use xlink:href="#x" x="48.265" y="77.966"/><use xlink:href="#y" x="48.265" y="83.478"/><use xlink:href="#o" x="48.265" y="86.234"/><use xlink:href="#q" x="48.265" y="90.636"/><use xlink:href="#z" x="89.492" y="39.835"/><use xlink:href="#A" x="89.492" y="45.347"/><use xlink:href="#p" x="89.492" y="48.103"/><use xlink:href="#B" x="89.492" y="53.338"/><use xlink:href="#u" x="89.492" y="58.851"/><use xlink:href="#C" x="89.492" y="62.757"/><use xlink:href="#j" x="89.492" y="66.058"/><use xlink:href="#k" x="89.492" y="72.394"/><use xlink:href="#D" x="89.492" y="77.351"/><use xlink:href="#o" x="89.492" y="83.141"/><use xlink:href="#y" x="89.492" y="87.543"/><use xlink:href="#y" x="89.492" y="90.299"/><use xlink:href="#o" x="89.492" y="93.055"/><use xlink:href="#E" x="131.631" y="39.835"/><use xlink:href="#o" x="131.631" y="47.132"/><use xlink:href="#n" x="131.631" y="51.534"/><use xlink:href="#A" x="131.631" y="56.491"/><use xlink:href="#u" x="131.631" y="59.247"/><use xlink:href="#m" x="131.631" y="63.153"/><use xlink:href="#o" x="131.631" y="67.01"/><use xlink:href="#q" x="131.631" y="71.412"/><use xlink:href="#F" x="172.635" y="39.835"/><use xlink:href="#G" x="172.635" y="47.409"/><use xlink:href="#s" x="172.635" y="52.366"/><use xlink:href="#H" x="172.635" y="63.104"/><use xlink:href="#I" x="172.635" y="70.54"/><use xlink:href="#u" x="172.635" y="78.798"/><use xlink:href="#o" x="172.635" y="82.705"/><use xlink:href="#m" x="172.635" y="87.107"/><use xlink:href="#v" x="172.635" y="90.964"/><use xlink:href="#o" x="172.635" y="95.366"/><use xlink:href="#q" x="172.635" y="99.768"/><use xlink:href="#J" x="68.601" y="12.27"/><use xlink:href="#K" x="68.987" y="40.043"/><use xlink:href="#A" x="68.987" y="47.062"/><use xlink:href="#m" x="68.987" y="49.818"/><use xlink:href="#u" x="68.987" y="53.675"/></svg>