<svg xmlns="http://www.w3.org/2000/svg" xmlns:xlink="http://www.w3.org/1999/xlink" width="228.412" height="125.996"><defs><path id="a" d="M7.297-2.406v-.313l-1.203.031c-.407 0-1.25 0-1.61-.03v.312h.329c.89 0 .921.11.921.484v.625c0 1.125-1.265 1.203-1.546 1.203-.641 0-2.61-.343-2.61-3.312s1.953-3.297 2.563-3.297c1.062 0 1.968.906 2.156 2.36.016.14.016.171.156.171.172 0 .172-.031.172-.234v-2.36c0-.171 0-.234-.11-.234-.046 0-.093 0-.171.11l-.485.734C5.531-6.47 5-7 4.016-7 2.172-7 .563-5.437.563-3.406.563-1.36 2.14.219 4.03.219c.735 0 1.532-.266 1.86-.844.125.219.53.61.64.61.094 0 .094-.079.094-.22v-1.734c0-.39.031-.437.672-.437m0 0"/><path id="c" d="M7.25-6.484v-.297c-.297.015-.703.031-.953.031l-1.14-.031v.297c.515.015.734.265.734.5 0 .078-.032.14-.063.203L4.016-1 2.109-6.016c-.046-.14-.046-.171-.046-.171 0-.297.562-.297.812-.297v-.297c-.36.031-1.047.031-1.422.031L.188-6.781v.297c.64 0 .843 0 .968.375L3.47 0c.062.188.125.219.25.219.172 0 .187-.047.234-.188l2.219-5.843c.14-.375.406-.657 1.078-.672m0 0"/><path id="d" d="M6.61-2.312c0-.11 0-.172-.126-.172-.109 0-.109.062-.125.156C6.281-.906 5.22-.094 4.141-.094c-.61 0-2.563-.328-2.563-3.297 0-2.968 1.938-3.312 2.547-3.312 1.078 0 1.969.906 2.172 2.36.016.14.016.171.156.171.156 0 .156-.031.156-.234v-2.36c0-.171 0-.234-.109-.234-.047 0-.078 0-.156.11l-.5.734C5.469-6.516 4.969-7 4.016-7 2.156-7 .563-5.422.563-3.406.563-1.344 2.172.219 4.015.219c1.625 0 2.593-1.375 2.593-2.531m0 0"/><path id="e" d="M7.172-3.375C7.172-5.391 5.672-7 3.859-7 2.08-7 .563-5.422.563-3.375c0 2.047 1.53 3.594 3.296 3.594 1.813 0 3.313-1.578 3.313-3.594m-1.031-.14c0 2.64-1.36 3.468-2.282 3.468-.953 0-2.28-.875-2.28-3.469 0-2.562 1.452-3.234 2.28-3.234.86 0 2.282.703 2.282 3.234m0 0"/><path id="n" d="M1.906-3.75A.524.524 0 1 0 .86-3.765a.524.524 0 0 0 1.047.015m0 3.219A.524.524 0 1 0 .86-.515a.524.524 0 0 0 1.047-.016m0 0"/><path id="o" d="M5.313 0v-.312c-.516 0-.766 0-.766-.297V-2.5c0-.86 0-1.172-.313-1.531-.14-.157-.468-.36-1.046-.36-.72 0-1.188.422-1.47 1.047V-4.39l-1.405.11v.312c.703 0 .78.063.78.547V-.75c0 .438-.109.438-.78.438V0l1.125-.031L2.547 0v-.312c-.656 0-.766 0-.766-.438v-1.828c0-1.047.703-1.594 1.344-1.594.625 0 .734.531.734 1.094V-.75c0 .438-.109.438-.78.438V0l1.124-.031Zm0 0"/><path id="p" d="M7.125 0v-.312h-.172c-.61 0-.734-.063-.844-.391L3.953-6.922c-.047-.125-.062-.187-.219-.187-.171 0-.203.046-.25.187L1.438-.969c-.188.5-.579.657-1.125.657V0l1.015-.031L2.468 0v-.312c-.484 0-.734-.25-.734-.5 0-.032 0-.125.016-.157l.453-1.297h2.453L5.188-.75a.58.58 0 0 1 .03.14c0 .298-.562.298-.827.298V0c.359-.031 1.062-.031 1.437-.031ZM4.547-2.578H2.313l1.109-3.219Zm0 0"/><path id="q" d="M6.469-1.812c0-.875-.813-1.61-1.922-1.735.969-.187 1.656-.828 1.656-1.562 0-.86-.922-1.672-2.203-1.672H.36v.297h.234c.765 0 .781.109.781.468V-.78c0 .36-.016.469-.781.469H.359V0H4.25c1.328 0 2.219-.89 2.219-1.812M5.234-5.11c0 .64-.484 1.468-1.593 1.468H2.203v-2.437c0-.328.016-.406.485-.406h1.234c.969 0 1.312.843 1.312 1.375m.235 3.28c0 .704-.516 1.517-1.532 1.517h-1.25c-.468 0-.484-.063-.484-.391v-2.719h1.875c.984 0 1.39.922 1.39 1.594m0 0"/><path id="b" d="M4.313-.625c-.25 0-.47 0-.47-.078 0-.031.25-1.375.329-1.688.469-1.828 1.547-3.14 2.797-3.14.937 0 1.36.687 1.36 1.484 0 1.625-1.829 3.422-4.017 3.422m-.625.734c.093.016.234.032.484.032 2.36 0 4.516-2.266 4.516-4.516 0-.875-.391-1.937-1.594-1.937-2.063 0-2.922 2.906-3.735 5.593-1.64-.312-2.328-1.187-2.328-2.14 0-.391.297-1.922 1.125-2.953.156-.188.156-.22.156-.235 0-.125-.109-.125-.14-.125-.375 0-1.469 2.094-1.469 3.453 0 1.61 1.25 2.469 2.422 2.735l-.75 2.422c-.078.203-.078.234-.078.296 0 .344.344.36.375.36.14 0 .406-.063.515-.344.047-.125.454-2.344.5-2.64m0 0"/><path id="g" d="M0-7.125h-.312v.172c0 .61-.063.734-.391.844l-6.219 2.156c-.125.047-.187.062-.187.219 0 .172.046.203.187.25l5.953 2.047c.5.187.657.578.657 1.125H0l-.031-1.016L0-2.468h-.312c0 .484-.25.734-.5.734-.032 0-.125 0-.157-.016l-1.297-.453v-2.453l1.516-.532a.58.58 0 0 1 .14-.03c.298 0 .298.562.298.827H0c-.031-.359-.031-1.062-.031-1.437Zm-2.578 2.578v2.234l-3.219-1.109Zm0 0"/><path id="h" d="M0-5.312h-.312c0 .687-.063.765-.547.765h-3.532l.11 1.469h.312c0-.703.063-.781.547-.781h1.766c.875 0 1.547.484 1.547 1.203 0 .844-.47.875-.985.875H-4.39l.11 1.469h.312c0-.782.031-.782.906-.782h1.5c.766 0 1.672 0 1.672-1.515 0-.547-.28-.985-.89-1.282h.89Zm0 0"/><path id="i" d="M-1.266-3.578c-.53 0-.828.297-.953.422-.312.328-.39.719-.469 1.125-.109.562-.25 1.219-.828 1.219-.343 0-.75-.25-.75-1.11 0-1.094.891-1.14 1.204-1.156.093-.016.093-.125.093-.125 0-.125-.047-.125-.234-.125H-4.22c-.156 0-.234 0-.234.11 0 .046 0 .062.125.202l.156.157c-.281.39-.281.797-.281.937 0 1.219.672 1.594 1.219 1.594.359 0 .625-.156.843-.422.266-.328.329-.594.47-1.312.03-.22.187-1.032.905-1.032.516 0 .907.344.907 1.11 0 .843-.563 1.203-1.407 1.39-.14.031-.171.031-.171.14 0 .126.062.126.25.126h1.312c.172 0 .234 0 .234-.11 0-.046-.015-.062-.203-.25-.015-.015-.031-.015-.218-.203a1.51 1.51 0 0 0 .421-1.093c0-1.141-.671-1.594-1.375-1.594m0 0"/><path id="j" d="M-4.016-4.812c-.171 0-.484.109-.484.5 0 .203.063.64.469 1.046-.328.422-.36.844-.36 1.063 0 .922.688 1.61 1.454 1.61.437 0 .812-.22 1.015-.47.156.125.484.313.828.313.313 0 .688-.14.89-.437.157.593.595.906.985.906.719 0 1.266-.985 1.266-2.188 0-1.172-.5-2.218-1.281-2.218-.344 0-.86.14-1.141.656-.266.515-.266 1.093-.266 1.703 0 .25 0 .672-.015.75-.047.312-.344.531-.672.531-.031 0-.266 0-.453-.172a1.77 1.77 0 0 0 .297-.984c0-.922-.688-1.61-1.453-1.61-.36 0-.735.157-.954.407-.343-.36-.39-.719-.39-.89 0 0 0-.079.015-.11.032.11.141.156.266.156a.27.27 0 0 0 .281-.281.28.28 0 0 0-.297-.282m1.079 1.734c.265 0 .578.015.828.172.125.078.406.297.406.703 0 .86-1 .86-1.234.86-.266 0-.579 0-.829-.157a.846.846 0 0 1-.39-.703c0-.875.984-.875 1.218-.875M.78-4.156c.547 0 1.031.703 1.031 1.672 0 1-.5 1.687-1.03 1.687a.855.855 0 0 1-.844-.812v-.594c0-.844 0-1.953.843-1.953m0 0"/><path id="k" d="M-.89-4.797h-.547v.25h.546c.579 0 .641.25.641.36 0 .328-.453.359-.5.359h-1.984c-.422 0-.797 0-1.172.36-.39.39-.547.89-.547 1.359 0 .812.469 1.5 1.125 1.5.297 0 .469-.203.469-.453a.435.435 0 0 0-.453-.454c-.126 0-.454.047-.47.5-.343-.265-.452-.75-.452-1.078 0-.484.39-1.047 1.265-1.047h.375c.031.5.063 1.204.36 1.829.343.75.859 1 1.297 1 .796 0 1.046-.97 1.046-1.594 0-.657-.39-1.11-.859-1.297.39-.047.813-.313.813-.781 0-.203-.141-.813-.954-.813m-.5 1.656c.937 0 1.28.72 1.28 1.157 0 .5-.343.906-.843.906-.547 0-1.375-.422-1.438-2.063Zm0 0"/><path id="l" d="M0-5.312h-.312c0 .515 0 .765-.297.765H-2.5c-.86 0-1.172 0-1.531.313-.157.14-.36.468-.36 1.047 0 .718.422 1.187 1.047 1.468H-4.39l.11 1.407h.312c0-.704.063-.782.547-.782H-.75c.438 0 .438.11.438.782H0l-.031-1.125L0-2.548h-.312c0 .656 0 .766-.438.766h-1.828c-1.047 0-1.594-.703-1.594-1.344 0-.625.531-.734 1.094-.734H-.75c.438 0 .438.109.438.78H0l-.031-1.124Zm0 0"/><clipPath id="f"><path d="M215 34h12.824v16H215Zm0 0"/></clipPath><clipPath id="m"><path d="M111 97h29v28.832h-29Zm0 0"/></clipPath></defs><path fill="none" stroke="#000" stroke-miterlimit="10" stroke-width=".7949517100000001" d="M.398 28.121h27.707v27.707H.398Zm0 0"/><path fill="none" stroke="#000" stroke-miterlimit="10" stroke-width=".39797457" d="M15.984 35.738c.563-.886 1.106-1.73 1.73-1.73.626 0 1.169.844 1.731 1.73.567.887 1.106 1.735 1.735 1.735.625 0 1.164-.848 1.73-1.735M15.984 39.203c.563-.887 1.106-1.73 1.73-1.73.626 0 1.169.843 1.731 1.73.567.887 1.106 1.73 1.735 1.73.625 0 1.164-.843 1.73-1.73M15.984 42.668c.563-.887 1.106-1.734 1.73-1.734.626 0 1.169.847 1.731 1.734.567.887 1.106 1.73 1.735 1.73.625 0 1.164-.843 1.73-1.73"/><use xlink:href="#a" x="4.117" y="41.904"/><path fill="none" stroke="#000" stroke-miterlimit="10" stroke-width=".39797457" d="M4.555 46.824h19.394M4.555 51.672h19.394v-2.77H4.555ZM4.555 53.75h19.394M28.105 41.973h13.938m0 0H55.98"/><path d="M51.777 41.973v1.98l4.203-1.98-4.203-1.977Zm0 0"/><path fill="none" stroke="#000" stroke-miterlimit="10" stroke-width=".7949517100000001" d="M55.98 28.121h27.711v27.707h-27.71Zm0 0"/><use xlink:href="#b" x="65.246" y="43.664"/><path fill="none" stroke="#000" stroke-miterlimit="10" stroke-width=".39797457" d="M83.691 41.973H97.63m0 0h13.937"/><path d="M107.363 41.973v1.98l4.203-1.98-4.203-1.977Zm0 0"/><path fill="none" stroke="#000" stroke-miterlimit="10" stroke-width=".7949517100000001" d="M111.566 28.121h27.711v27.707h-27.71Zm0 0"/><path fill="none" stroke="#000" stroke-miterlimit="10" stroke-width=".39797457" d="M118.496 35.047c1.129-1.774 2.207-3.465 3.461-3.465s2.336 1.691 3.465 3.465c1.129 1.773 2.21 3.465 3.465 3.465 1.25 0 2.332-1.692 3.46-3.465m-4.847-2.078-4.156 4.156M118.496 41.973c1.129-1.774 2.207-3.461 3.461-3.461s2.336 1.687 3.465 3.46c1.129 1.774 2.21 3.465 3.465 3.465 1.25 0 2.332-1.69 3.46-3.464m-4.847-2.078-4.156 4.156M118.496 48.902c1.129-1.773 2.207-3.465 3.461-3.465s2.336 1.692 3.465 3.465c1.129 1.774 2.21 3.461 3.465 3.461 1.25 0 2.332-1.687 3.46-3.46M139.277 41.973h13.938m0 0h13.937"/><path d="M162.945 41.973v1.98l4.207-1.98-4.207-1.977Zm0 0"/><path fill="none" stroke="#000" stroke-miterlimit="10" stroke-width=".7949517100000001" d="M167.152 28.121h27.707v27.707h-27.707Zm0 0"/><use xlink:href="#c" x="169.964" y="45.367"/><use xlink:href="#d" x="177.139" y="45.367"/><use xlink:href="#e" x="184.314" y="45.367"/><path fill="none" stroke="#000" stroke-miterlimit="10" stroke-width=".39797457" d="M194.86 41.973h13.937m0 0h13.941"/><path fill="#FFF" d="M224.32 41.973a1.583 1.583 0 1 0-3.166.001 1.583 1.583 0 0 0 3.166-.001m0 0"/><g clip-path="url(#f)"><path fill="none" stroke="#000" stroke-miterlimit="10" stroke-width=".39797457" d="M224.32 41.973a1.583 1.583 0 1 0-3.166.001 1.583 1.583 0 0 0 3.166-.001Zm0 0"/></g><use xlink:href="#g" x="217.177" y="82.531"/><use xlink:href="#h" x="217.177" y="75.356"/><use xlink:href="#i" x="217.177" y="69.831"/><use xlink:href="#j" x="217.177" y="65.916"/><use xlink:href="#k" x="217.177" y="60.947"/><use xlink:href="#l" x="217.177" y="55.979"/><use xlink:href="#j" x="217.177" y="50.454"/><path fill="none" stroke="#000" stroke-miterlimit="10" stroke-width=".39797457" d="M181.008 55.828v27.875m0 0v27.879h-41.73m-27.712 0h-41.73V83.703m0 0V55.828"/><g clip-path="url(#m)"><path fill="none" stroke="#000" stroke-miterlimit="10" stroke-width=".7949517100000001" d="M111.566 97.727h27.711v27.71h-27.71Zm0 0"/></g><path d="M143.48 111.582v-1.98l-4.203 1.98 4.203 1.98Zm0 0"/><use xlink:href="#n" x="121.276" y="113.777"/><use xlink:href="#o" x="124.038" y="113.777"/><path d="M69.836 60.035h1.98l-1.98-4.207-1.98 4.207Zm0 0"/><path fill="none" stroke="#000" stroke-miterlimit="10" stroke-width=".39797457" d="M42.043 41.973V28.035m0 0V14.098"/><path stroke="#000" stroke-miterlimit="10" stroke-width=".39797457" d="M43.625 41.973a1.583 1.583 0 1 0-3.166.001 1.583 1.583 0 0 0 3.166-.001Zm0 0"/><path fill="#FFF" stroke="#000" stroke-miterlimit="10" stroke-width=".39797457" d="M43.625 14.098a1.58 1.58 0 0 0-1.582-1.582 1.58 1.58 0 0 0-1.582 1.582 1.58 1.58 0 0 0 1.582 1.582 1.58 1.58 0 0 0 1.582-1.582Zm0 0"/><use xlink:href="#p" x="38.317" y="10.587"/><path fill="none" stroke="#000" stroke-miterlimit="10" stroke-width=".39797457" d="M153.215 111.582V97.645m0 0V83.703"/><path stroke="#000" stroke-miterlimit="10" stroke-width=".39797457" d="M154.797 111.582a1.584 1.584 0 0 0-3.168 0 1.584 1.584 0 0 0 3.168 0Zm0 0"/><path fill="#FFF" stroke="#000" stroke-miterlimit="10" stroke-width=".39797457" d="M154.797 83.703a1.583 1.583 0 1 0-3.166.002 1.583 1.583 0 0 0 3.166-.002Zm0 0"/><use xlink:href="#d" x="149.625" y="79.975"/><path fill="none" stroke="#000" stroke-miterlimit="10" stroke-width=".39797457" d="M97.629 111.582V97.645m0 0V83.703"/><path stroke="#000" stroke-miterlimit="10" stroke-width=".39797457" d="M99.21 111.582A1.58 1.58 0 0 0 97.63 110a1.58 1.58 0 0 0-1.582 1.582 1.58 1.58 0 0 0 1.582 1.582 1.58 1.58 0 0 0 1.582-1.582Zm0 0"/><path fill="#FFF" stroke="#000" stroke-miterlimit="10" stroke-width=".39797457" d="M99.21 83.703a1.583 1.583 0 1 0-3.165.002 1.583 1.583 0 0 0 3.166-.002Zm0 0"/><use xlink:href="#q" x="94.11" y="80.194"/></svg>