<svg xmlns="http://www.w3.org/2000/svg" xmlns:xlink="http://www.w3.org/1999/xlink" width="227.235" height="119.637"><defs><path id="a" d="M3.719-6.094c.062-.234.094-.328.281-.36.094-.015.406-.015.61-.015.702 0 1.796 0 1.796.985 0 .328-.156 1.015-.547 1.406-.25.266-.78.578-1.671.578h-1.11Zm1.437 2.719c1-.219 2.172-.906 2.172-1.906 0-.86-.89-1.5-2.187-1.5H2.313c-.204 0-.282 0-.282.203 0 .11.078.11.266.11.031 0 .219 0 .375.015.187.031.281.031.281.156 0 .047-.015.078-.047.188L1.578-.781c-.094.39-.125.469-.906.469-.172 0-.266 0-.266.203C.406 0 .531 0 .546 0c.282 0 .97-.031 1.25-.031.282 0 .985.031 1.267.031.078 0 .187 0 .187-.203 0-.11-.078-.11-.281-.11-.36 0-.64 0-.64-.171 0-.063.015-.11.03-.172l.657-2.625h1.187c.89 0 1.078.547 1.078.906 0 .14-.078.453-.14.672-.079.281-.157.656-.157.844C4.984.219 6.172.219 6.297.219c.844 0 1.187-1 1.187-1.14 0-.126-.109-.126-.109-.126-.094 0-.11.078-.125.14C7-.171 6.563 0 6.344 0c-.328 0-.407-.219-.407-.61 0-.296.063-.812.11-1.124.016-.141.031-.328.031-.47 0-.765-.656-1.077-.922-1.171m0 0"/><path id="b" d="M4.531-1.828h-.234c-.078.687-.188 1.578-1.5 1.578h-.703c-.328 0-.328-.062-.328-.266v-3.656c0-.234 0-.328.656-.328h.234v-.25c-.14.016-1.031.031-1.203.031-.266 0-1.062-.031-1.062-.031v.25h.172c.53 0 .546.078.546.313v3.625c0 .234-.015.312-.546.312H.39V0h3.922Zm0 0"/><path id="e" d="M3.516-1.266H3.28c-.031.157-.094.563-.187.641-.063.031-.594.031-.688.031H1.125c.734-.64.969-.843 1.39-1.172.516-.406 1-.828 1-1.5 0-.843-.734-1.343-1.624-1.343-.875 0-1.453.593-1.453 1.234 0 .36.296.39.375.39.156 0 .359-.109.359-.359 0-.14-.047-.375-.406-.375.218-.5.687-.64 1.015-.64.688 0 1.063.53 1.063 1.093 0 .61-.438 1.094-.656 1.344L.5-.266C.438-.203.438-.187.438 0h2.859Zm0 0"/><path id="f" d="M2.328-4.422c0-.187-.015-.187-.203-.187-.453.437-1.078.437-1.36.437v.25c.157 0 .626 0 1-.187v3.547c0 .218 0 .312-.687.312H.812V0c.125 0 .97-.031 1.235-.031C2.266-.031 3.14 0 3.28 0v-.25h-.25c-.703 0-.703-.094-.703-.312Zm0 0"/><path id="g" d="M1.89-2.328c.548 0 .938.375.938 1.125 0 .86-.5 1.125-.906 1.125-.281 0-.89-.078-1.172-.484.328-.016.39-.25.39-.391 0-.235-.156-.39-.374-.39-.203 0-.391.124-.391.406C.375-.281 1.094.14 1.938.14c.968 0 1.64-.641 1.64-1.344 0-.547-.453-1.078-1.219-1.25.735-.266 1-.781 1-1.203 0-.547-.64-.953-1.406-.953-.766 0-1.36.375-1.36.922 0 .234.157.374.36.374.219 0 .36-.171.36-.359 0-.203-.141-.344-.36-.36.25-.312.719-.39.985-.39.312 0 .75.156.75.766 0 .297-.094.61-.282.828-.234.265-.422.281-.765.297-.188.015-.188.015-.235.015-.015 0-.062.016-.062.094 0 .094.062.094.172.094Zm0 0"/><path id="c" d="M4.453-2c0-1.172-.812-2.172-1.89-2.172a1.7 1.7 0 0 0-1.25.516v-1.938c.203.063.515.125.843.125 1.219 0 1.906-.906 1.906-1.031 0-.062-.03-.11-.093-.11-.016 0-.031 0-.078.032a3.26 3.26 0 0 1-1.344.281c-.406 0-.86-.062-1.328-.266-.078-.03-.094-.03-.125-.03C1-6.594 1-6.517 1-6.36v2.937c0 .172 0 .25.14.25.063 0 .094-.015.126-.078.109-.156.484-.703 1.28-.703.517 0 .767.453.845.64.156.36.187.75.187 1.25 0 .344 0 .938-.25 1.36-.234.39-.594.64-1.062.64-.72 0-1.282-.515-1.453-1.109.03.016.062.016.171.016.329 0 .5-.25.5-.485a.48.48 0 0 0-.5-.484c-.14 0-.484.078-.484.531C.5-.75 1.188.22 2.297.22 3.437.219 4.453-.734 4.453-2m0 0"/><path id="d" d="M4.563-3.172c0-.797-.047-1.594-.391-2.328-.469-.953-1.281-1.11-1.688-1.11-.593 0-1.328.266-1.734 1.188-.312.672-.36 1.453-.36 2.25 0 .735.032 1.64.438 2.39.438.798 1.156 1 1.64 1C3 .219 3.767.017 4.204-.936c.313-.688.36-1.454.36-2.235M2.469 0c-.39 0-.969-.25-1.156-1.203-.11-.594-.11-1.5-.11-2.094 0-.625 0-1.281.094-1.828.187-1.172.922-1.266 1.172-1.266.328 0 .984.172 1.172 1.157.093.562.093 1.312.093 1.937 0 .75 0 1.422-.109 2.063C3.485-.297 2.922 0 2.469 0m0 0"/><path id="h" d="M7.016-3.328c0-1.89-1.344-3.453-3.032-3.453H.344v.312h.234c.766 0 .797.11.797.469v5.219c0 .36-.031.469-.797.469H.344V0h3.64c1.657 0 3.032-1.469 3.032-3.328m-1 0c0 1.094-.188 1.687-.532 2.172-.203.265-.765.843-1.78.843h-1c-.454 0-.485-.062-.485-.39v-5.375c0-.328.031-.39.484-.39h1c.61 0 1.297.218 1.797.921.438.594.516 1.438.516 2.219m0 0"/><path id="i" d="M4.797-.89v-.547h-.25v.546c0 .579-.25.641-.36.641-.328 0-.375-.437-.375-.5v-1.984c0-.407 0-.797-.343-1.172a1.949 1.949 0 0 0-1.36-.531c-.812 0-1.5.453-1.5 1.109 0 .297.188.469.454.469a.435.435 0 0 0 .453-.453c0-.126-.047-.454-.5-.454.265-.359.75-.468 1.062-.468.485 0 1.063.39 1.063 1.28v.36c-.516.031-1.203.063-1.828.36-.75.343-1 .859-1 1.297 0 .796.968 1.046 1.593 1.046.657 0 1.11-.39 1.297-.859.047.39.313.813.781.813.204 0 .813-.141.813-.954m-1.656-.5c0 .937-.72 1.28-1.172 1.28-.485 0-.89-.343-.89-.843 0-.547.421-1.375 2.062-1.422ZM2.078-6a.48.48 0 0 0-.469-.469.473.473 0 0 0-.484.469c0 .25.203.469.469.469.312 0 .484-.25.484-.469m1.766 0a.48.48 0 0 0-.469-.469.473.473 0 0 0-.484.469c0 .25.203.469.468.469.313 0 .485-.25.485-.469m0 0"/><path id="j" d="M8.063 0v-.312c-.516 0-.766 0-.766-.297V-2.5c0-.86 0-1.156-.313-1.516-.14-.171-.468-.375-1.046-.375-.829 0-1.266.594-1.438.985-.14-.875-.875-.985-1.312-.985-.735 0-1.188.438-1.47 1.047V-4.39l-1.405.11v.312c.703 0 .78.063.78.563V-.75c0 .438-.109.438-.78.438V0l1.125-.031L2.547 0v-.312c-.656 0-.766 0-.766-.438v-1.828c0-1.031.703-1.594 1.328-1.594.625 0 .735.547.735 1.11V-.75c0 .438-.11.438-.766.438V0l1.125-.031L5.313 0v-.312c-.672 0-.782 0-.782-.438v-1.828c0-1.031.703-1.594 1.344-1.594.625 0 .734.547.734 1.11V-.75c0 .438-.109.438-.78.438V0l1.124-.031Zm0 0"/><path id="k" d="M5.172-2.14c0-1.266-.969-2.25-2.078-2.25-.766 0-1.188.437-1.39.656v-.657L.28-4.28v.312c.703 0 .766.063.766.5v4.64c0 .454-.11.454-.766.454v.297l1.11-.031 1.125.03v-.296c-.672 0-.782 0-.782-.453v-1.75c.047.156.47.687 1.22.687a2.234 2.234 0 0 0 2.218-2.25m-.828 0c0 1.203-.688 2.03-1.422 2.03-.406 0-.781-.202-1.047-.609-.14-.203-.14-.219-.14-.406v-2.219c.296-.5.78-.797 1.28-.797.72 0 1.329.875 1.329 2m0 0"/><path id="l" d="M3.547-6.297c0-.375-.375-.703-.89-.703-.704 0-1.548.531-1.548 1.578v1.14H.33v.313h.78V-.75c0 .438-.109.438-.765.438V0l1.125-.031c.39 0 .86 0 1.265.031v-.312h-.218c-.735 0-.75-.11-.75-.47v-3.187H2.89v-.312H1.734v-1.14c0-.876.485-1.36.922-1.36a.69.69 0 0 1 .313.078.437.437 0 0 0-.297.406c0 .234.172.438.437.438.282 0 .438-.203.438-.438m0 0"/><path id="m" d="M5.313 0v-.312c-.704 0-.782-.063-.782-.547v-3.532l-1.453.11v.312c.688 0 .766.063.766.563v1.765c0 .86-.469 1.532-1.188 1.532-.844 0-.875-.47-.875-.985V-4.39l-1.468.11v.312c.78 0 .78.031.78.906v1.5c0 .766 0 1.672 1.5 1.672.563 0 1-.28 1.282-.89v.89Zm0 0"/><path id="n" d="M5.313 0v-.312c-.516 0-.766 0-.782-.297V-2.5c0-.86 0-1.156-.297-1.516-.14-.171-.468-.375-1.046-.375-.735 0-1.188.438-1.47 1.047V-4.39l-1.405.11v.312c.703 0 .78.063.78.563V-.75c0 .438-.109.438-.78.438V0l1.125-.031L2.547 0v-.312c-.656 0-.766 0-.766-.438v-1.828c0-1.031.703-1.594 1.328-1.594.625 0 .735.547.735 1.11V-.75c0 .438-.11.438-.766.438V0l1.125-.031Zm0 0"/><path id="o" d="M4.813-4.016c0-.156-.125-.484-.5-.484-.204 0-.641.063-1.063.469a1.627 1.627 0 0 0-1.047-.36c-.922 0-1.61.688-1.61 1.454 0 .437.22.812.47 1.015-.125.156-.313.484-.313.828 0 .313.14.688.438.89C.594-.046.28.392.28.782c0 .719.985 1.266 2.188 1.266 1.172 0 2.203-.516 2.203-1.281 0-.344-.14-.86-.64-1.125-.532-.282-1.11-.282-1.704-.282-.25 0-.687 0-.75-.015-.312-.031-.531-.344-.531-.656 0-.047 0-.282.172-.47.39.266.797.298.984.298.922 0 1.61-.672 1.61-1.438 0-.375-.157-.734-.407-.969.36-.343.719-.39.89-.39 0 0 .063 0 .095.015-.11.032-.157.141-.157.266 0 .172.125.297.297.297a.295.295 0 0 0 .282-.313m-1.75 1.079c0 .265 0 .593-.157.828-.078.125-.312.406-.703.406-.86 0-.86-1-.86-1.219 0-.265 0-.594.157-.844.078-.109.313-.39.703-.39.86 0 .86.984.86 1.218M4.156.78c0 .532-.703 1.031-1.672 1.031-1 0-1.687-.5-1.687-1.03 0-.454.375-.829.812-.844h.579c.859 0 1.968 0 1.968.843m0 0"/><path id="p" d="M3.578-1.266c0-.53-.297-.828-.422-.953-.328-.312-.719-.39-1.125-.469C1.47-2.796.797-2.921.797-3.5c0-.344.265-.75 1.125-.75 1.078 0 1.14.89 1.156 1.188 0 .093.11.093.11.093.14 0 .14-.047.14-.234v-1c0-.172 0-.234-.11-.234-.046 0-.077 0-.202.109a.819.819 0 0 1-.172.156c-.375-.266-.781-.266-.922-.266-1.219 0-1.594.657-1.594 1.22 0 .343.156.624.422.843.328.25.594.313 1.313.453.218.031 1.03.203 1.03.906 0 .516-.343.907-1.124.907C1.14-.11.78-.672.594-1.516c-.031-.125-.031-.171-.14-.171-.126 0-.126.062-.126.25v1.312c0 .172 0 .234.11.234C.484.11.5.094.688-.094.703-.109.703-.125.89-.312a1.48 1.48 0 0 0 1.078.421c1.14 0 1.61-.671 1.61-1.375m0 0"/><path id="q" d="M2.531 0v-.312c-.672 0-.781 0-.781-.438v-6.14l-1.422.109v.312c.688 0 .766.063.766.563V-.75c0 .438-.11.438-.766.438V0l1.094-.031Zm0 0"/><path id="r" d="M2.453 0v-.312c-.656 0-.703-.047-.703-.438v-3.64l-1.39.109v.312c.656 0 .734.063.734.547V-.75c0 .438-.11.438-.766.438V0l1.094-.031c.344 0 .687.015 1.031.031m-.547-6a.534.534 0 0 0-.531-.516A.533.533 0 0 0 .844-6c0 .281.234.531.531.531A.536.536 0 0 0 1.906-6m0 0"/><path id="s" d="M4.125-1.187c0-.094-.094-.11-.14-.11-.079 0-.11.063-.126.14C3.516-.14 2.625-.14 2.516-.14c-.485 0-.891-.296-1.11-.656-.312-.484-.312-1.14-.312-1.5h2.781c.219 0 .25 0 .25-.203 0-.984-.547-1.937-1.781-1.937C1.188-4.437.28-3.423.28-2.187.281-.86 1.312.108 2.453.108c1.219 0 1.672-1.093 1.672-1.296M3.469-2.5h-2.36C1.172-3.984 2-4.234 2.344-4.234c1.015 0 1.125 1.343 1.125 1.734m0 0"/><path id="t" d="M5.234 0v-.312c-.703 0-.78-.063-.78-.547v-6.032l-1.423.11v.312c.688 0 .766.063.766.563v2.14a1.582 1.582 0 0 0-1.25-.625c-1.172 0-2.203.985-2.203 2.25 0 1.266.969 2.25 2.094 2.25.64 0 1.078-.343 1.328-.656V.11ZM3.766-1.172c0 .188 0 .203-.11.375-.297.469-.734.688-1.172.688-.437 0-.796-.25-1.03-.641-.266-.406-.298-.969-.298-1.375 0-.36.032-.953.313-1.406.203-.313.578-.64 1.125-.64.344 0 .765.155 1.062.593.11.172.11.187.11.375Zm0 0"/></defs><path fill="none" stroke="#000" stroke-miterlimit="10" stroke-width=".39766335" d="M33.027 19.625v30.156m0 23.457v30.157"/><path fill="none" stroke="#000" stroke-miterlimit="10" stroke-width=".7943300500000001" d="M44.754 61.508c0-6.477-5.25-11.727-11.727-11.727-6.476 0-11.726 5.25-11.726 11.727 0 6.476 5.25 11.73 11.726 11.73 6.477 0 11.727-5.254 11.727-11.73Zm0 0"/><path fill="none" stroke="#000" stroke-miterlimit="10" stroke-width=".7943300500000001" d="M27.164 61.508c.953-1.5 1.871-2.93 2.93-2.93 1.062 0 1.976 1.43 2.933 2.93.957 1.504 1.871 2.933 2.93 2.933 1.063 0 1.977-1.43 2.934-2.933"/><use xlink:href="#a" x="3.591" y="57.537"/><use xlink:href="#b" x="11.13" y="59.026"/><use xlink:href="#c" x="3.591" y="69.452"/><use xlink:href="#d" x="8.556" y="69.452"/><path fill="none" stroke="#000" stroke-miterlimit="10" stroke-width=".39766335" d="M33.027 19.625H53.97m0 0h47.191m31.274 0h26.246"/><path stroke="#000" stroke-miterlimit="10" stroke-width=".39766335" d="M76.492 19.625a1.583 1.583 0 1 0-3.162.002 1.583 1.583 0 0 0 3.162-.002Zm0 0"/><path fill="none" stroke="#000" stroke-miterlimit="10" stroke-width=".7943300500000001" d="M101.16 13.762h31.274v11.726H101.16Zm0 0"/><use xlink:href="#a" x="110.797" y="9.965"/><use xlink:href="#e" x="118.337" y="11.454"/><path fill="none" stroke="#000" stroke-miterlimit="10" stroke-width=".39766335" d="M74.91 19.625v26.246m0 31.274v26.25H53.97m0 0H33.027"/><path fill="none" stroke="#000" stroke-miterlimit="10" stroke-width=".7943300500000001" d="M69.047 77.145V45.87h11.726v31.274Zm0 0"/><use xlink:href="#a" x="82.965" y="63.649"/><use xlink:href="#f" x="90.504" y="65.138"/><path fill="none" stroke="#000" stroke-miterlimit="10" stroke-width=".39766335" d="M158.68 19.625v26.246m0 31.274v26.25"/><path fill="none" stroke="#000" stroke-miterlimit="10" stroke-width=".7943300500000001" d="M152.816 77.145V45.87h11.727v31.274Zm0 0"/><path stroke="#000" stroke-miterlimit="10" stroke-width=".39766335" d="M160.262 19.625a1.58 1.58 0 0 0-1.582-1.582 1.58 1.58 0 0 0-1.582 1.582 1.58 1.58 0 0 0 1.582 1.582 1.58 1.58 0 0 0 1.582-1.582ZM160.262 103.395a1.58 1.58 0 0 0-1.582-1.582 1.583 1.583 0 1 0 1.582 1.582Zm0 0"/><use xlink:href="#a" x="138.629" y="63.649"/><use xlink:href="#g" x="146.168" y="65.138"/><path fill="none" stroke="#000" stroke-miterlimit="10" stroke-width=".39766335" d="M158.68 19.625h20.941m0 0h20.942v26.246m0 31.274v26.25H179.62m0 0h-62.824m0 0H74.91"/><path fill="none" stroke="#000" stroke-miterlimit="10" stroke-width=".7943300500000001" d="M194.7 77.145V45.87h11.726v31.274Zm0 0"/><use xlink:href="#a" x="208.616" y="63.649"/><use xlink:href="#b" x="216.155" y="65.138"/><path stroke="#000" stroke-miterlimit="10" stroke-width=".39766335" d="M160.262 103.395a1.58 1.58 0 0 0-1.582-1.582 1.583 1.583 0 1 0 1.582 1.582ZM76.492 103.395a1.583 1.583 0 1 0-3.162.002 1.583 1.583 0 0 0 3.162-.002Zm0 0"/><use xlink:href="#h" x="81.937" y="113.9"/><use xlink:href="#i" x="89.523" y="113.9"/><use xlink:href="#j" x="94.488" y="113.9"/><use xlink:href="#k" x="102.759" y="113.9"/><use xlink:href="#l" x="108.279" y="113.9"/><use xlink:href="#m" x="111.318" y="113.9"/><use xlink:href="#n" x="116.838" y="113.9"/><use xlink:href="#o" x="122.359" y="113.9"/><use xlink:href="#p" x="127.324" y="113.9"/><use xlink:href="#o" x="131.236" y="113.9"/><use xlink:href="#q" x="136.2" y="113.9"/><use xlink:href="#r" x="138.961" y="113.9"/><use xlink:href="#s" x="141.721" y="113.9"/><use xlink:href="#t" x="146.13" y="113.9"/></svg>