<svg xmlns="http://www.w3.org/2000/svg" xmlns:xlink="http://www.w3.org/1999/xlink" width="224.832" height="94.181"><defs><clipPath id="a"><path d="M.887 12H10v15H.887Zm0 0"/></clipPath><clipPath id="d"><path d="M211 12h12.781v15H211Zm0 0"/></clipPath><clipPath id="f"><path d="M109 90h4v3.367h-4Zm0 0"/></clipPath><clipPath id="g"><path d="M103 84h15v9.367h-15Zm0 0"/></clipPath><clipPath id="i"><path d="M1 90h4v3.367H1Zm0 0"/></clipPath><clipPath id="j"><path d="M.887 84H10v9.367H.887Zm0 0"/></clipPath><clipPath id="k"><path d="M217 90h4v3.367h-4Zm0 0"/></clipPath><clipPath id="l"><path d="M211 84h12.781v9.367H211Zm0 0"/></clipPath><path id="b" d="M3.703-6.062c.063-.235.094-.344.281-.36.079-.016.407-.016.594-.016.703 0 1.797 0 1.797.985 0 .328-.156 1.016-.531 1.39-.266.266-.782.579-1.672.579h-1.11ZM5.125-3.36c1-.22 2.172-.907 2.172-1.907 0-.843-.89-1.484-2.188-1.484H2.297c-.188 0-.281 0-.281.203 0 .11.093.11.28.11.017 0 .204 0 .376.015.172.016.265.031.265.156 0 .047-.015.079-.046.188L1.563-.766c-.094.375-.11.454-.891.454-.172 0-.266 0-.266.203 0 .109.11.109.14.109.266 0 .97-.031 1.235-.031.282 0 .985.031 1.266.031.078 0 .187 0 .187-.203 0-.11-.078-.11-.265-.11-.375 0-.64 0-.64-.171 0-.063.015-.11.015-.172L3-3.266h1.172c.906 0 1.078.547 1.078.891 0 .156-.078.453-.14.688-.063.28-.157.64-.157.843C4.953.22 6.141.22 6.266.22c.843 0 1.187-1 1.187-1.14 0-.11-.11-.11-.11-.11-.093 0-.109.062-.14.125-.234.734-.672.906-.89.906-.329 0-.391-.219-.391-.61 0-.296.047-.796.094-1.124.015-.125.03-.313.03-.453 0-.766-.655-1.079-.921-1.172m0 0"/><path id="c" d="M2.313-4.39c0-.188-.016-.188-.204-.188-.437.422-1.078.437-1.359.437v.25c.172 0 .625 0 1-.203v3.532c0 .218 0 .312-.687.312H.797V0C.922 0 1.78-.031 2.03-.031 2.25-.031 3.11 0 3.266 0v-.25H3c-.687 0-.687-.094-.687-.312Zm0 0"/><path id="e" d="M1.89-2.312c.532 0 .923.374.923 1.124 0 .844-.5 1.11-.907 1.11-.265 0-.875-.078-1.172-.484.329-.016.407-.25.407-.391a.37.37 0 0 0-.375-.375c-.203 0-.391.11-.391.39 0 .657.719 1.079 1.547 1.079.969 0 1.625-.641 1.625-1.328 0-.547-.438-1.079-1.203-1.25.734-.25.984-.782.984-1.188 0-.547-.625-.953-1.39-.953-.766 0-1.344.36-1.344.922 0 .234.14.36.36.36a.337.337 0 0 0 .343-.345c0-.203-.14-.343-.344-.359.235-.312.719-.39.969-.39.312 0 .75.156.75.765 0 .281-.11.594-.281.813-.235.265-.422.28-.766.296-.172.016-.187.016-.219.016-.015 0-.078.016-.078.094 0 .094.063.094.188.094Zm0 0"/><path id="h" d="M3.484-1.25H3.25c-.016.14-.094.547-.172.625-.062.031-.594.031-.687.031H1.125c.719-.64.953-.828 1.375-1.156.516-.406.984-.828.984-1.484 0-.844-.734-1.344-1.609-1.344-.86 0-1.437.594-1.437 1.234 0 .344.296.375.359.375.172 0 .375-.11.375-.36 0-.124-.047-.358-.406-.358.203-.5.672-.657 1-.657.687 0 1.047.547 1.047 1.11 0 .593-.422 1.078-.641 1.328L.5-.266C.438-.203.438-.187.438 0H3.28Zm0 0"/></defs><path fill="none" stroke="#000" stroke-miterlimit="10" stroke-width=".39556062000000003" d="M2.656 19.578h38.278m31.476 0h76.559m31.472 0h38.282"/><path fill="none" stroke="#000" stroke-miterlimit="10" stroke-width=".7901298600000001" d="M40.934 13.676H72.41v11.8H40.934Zm0 0"/><path fill="#FFF" d="M4.23 19.578a1.575 1.575 0 0 0-3.148 0 1.574 1.574 0 0 0 3.148 0m0 0"/><g clip-path="url(#a)"><path fill="none" stroke="#000" stroke-miterlimit="10" stroke-width=".39556062000000003" d="M4.23 19.578a1.575 1.575 0 0 0-3.148 0 1.574 1.574 0 0 0 3.148 0Zm0 0"/></g><use xlink:href="#b" x="50.708" y="9.893"/><use xlink:href="#c" x="58.206" y="11.374"/><path fill="none" stroke="#000" stroke-miterlimit="10" stroke-width=".7901298600000001" d="M148.969 13.676h31.472v11.8H148.97Zm0 0"/><path fill="#FFF" d="M220.297 19.578a1.575 1.575 0 0 0-3.149 0c0 .867.704 1.57 1.575 1.57.867 0 1.574-.703 1.574-1.57m0 0"/><g clip-path="url(#d)"><path fill="none" stroke="#000" stroke-miterlimit="10" stroke-width=".39556062000000003" d="M220.297 19.578a1.575 1.575 0 0 0-3.149 0c0 .867.704 1.57 1.575 1.57.867 0 1.574-.703 1.574-1.57Zm0 0"/></g><use xlink:href="#b" x="158.739" y="9.893"/><use xlink:href="#e" x="166.238" y="11.374"/><path fill="none" stroke="#000" stroke-miterlimit="10" stroke-width=".39556062000000003" d="M110.688 19.578v20.274m0 31.472v20.274"/><path fill="none" stroke="#000" stroke-miterlimit="10" stroke-width=".7901298600000001" d="M104.79 71.324V39.852h11.8v31.472Zm0 0"/><path stroke="#000" stroke-miterlimit="10" stroke-width=".39556062000000003" d="M112.262 19.578a1.572 1.572 0 1 0-3.144-.004 1.572 1.572 0 0 0 3.144.004Zm0 0"/><g clip-path="url(#f)"><path d="M112.262 91.598a1.574 1.574 0 1 0-1.574 1.574c.87 0 1.574-.703 1.574-1.574m0 0"/></g><g clip-path="url(#g)"><path fill="none" stroke="#000" stroke-miterlimit="10" stroke-width=".39556062000000003" d="M112.262 91.598c0-.868-.703-1.575-1.574-1.575a1.574 1.574 0 0 0 0 3.149c.87 0 1.574-.703 1.574-1.574Zm0 0"/></g><use xlink:href="#b" x="90.67" y="57.716"/><use xlink:href="#h" x="98.17" y="59.197"/><path fill="none" stroke="#000" stroke-miterlimit="10" stroke-width=".39556062000000003" d="M2.656 91.598h108.032m0 0h108.035"/><g clip-path="url(#i)"><path fill="#FFF" d="M4.23 91.598a1.575 1.575 0 1 0-3.149 0 1.575 1.575 0 0 0 3.15 0m0 0"/></g><g clip-path="url(#j)"><path fill="none" stroke="#000" stroke-miterlimit="10" stroke-width=".39556062000000003" d="M4.23 91.598a1.575 1.575 0 1 0-3.149 0 1.575 1.575 0 0 0 3.15 0Zm0 0"/></g><g clip-path="url(#k)"><path fill="#FFF" d="M220.297 91.598a1.575 1.575 0 1 0-3.148 0 1.575 1.575 0 0 0 3.148 0m0 0"/></g><g clip-path="url(#l)"><path fill="none" stroke="#000" stroke-miterlimit="10" stroke-width=".39556062000000003" d="M220.297 91.598a1.575 1.575 0 1 0-3.148 0 1.575 1.575 0 0 0 3.148 0Zm0 0"/></g></svg>