<svg xmlns="http://www.w3.org/2000/svg" xmlns:xlink="http://www.w3.org/1999/xlink" width="227.739" height="118.615"><defs><path id="a" d="M3.734-6.11c.047-.234.079-.327.266-.359.094-.015.406-.015.61-.015.702 0 1.812 0 1.812.984 0 .344-.156 1.031-.547 1.422-.266.25-.781.562-1.687.562h-1.11Zm1.422 2.735c1-.219 2.188-.922 2.188-1.922 0-.86-.89-1.484-2.203-1.484H2.313c-.204 0-.282 0-.282.187 0 .11.078.11.281.11.016 0 .204 0 .376.03.171.016.265.032.265.157 0 .031-.015.063-.047.188L1.578-.781c-.094.39-.125.469-.906.469-.172 0-.266 0-.266.203C.406 0 .531 0 .546 0c.282 0 .97-.031 1.25-.031.282 0 .985.031 1.267.031.078 0 .203 0 .203-.203 0-.11-.094-.11-.282-.11-.375 0-.656 0-.656-.171 0-.063.031-.11.031-.172l.657-2.64h1.187c.906 0 1.078.562 1.078.905 0 .157-.078.47-.14.688-.063.281-.157.656-.157.844C4.984.219 6.188.219 6.313.219c.843 0 1.187-1 1.187-1.14 0-.126-.11-.126-.11-.126-.093 0-.109.078-.14.14C7-.171 6.578 0 6.344 0c-.328 0-.39-.219-.39-.61 0-.312.062-.812.093-1.124.031-.141.047-.328.047-.47 0-.765-.672-1.077-.938-1.171m0 0"/><path id="w" d="M3.016-3.14h1.687C6.11-3.14 7.5-4.173 7.5-5.282c0-.766-.656-1.5-1.969-1.5H2.313c-.188 0-.297 0-.297.187 0 .11.093.11.297.11.124 0 .296.015.421.03.157.016.22.048.22.157 0 .031-.017.063-.048.188L1.578-.781c-.094.39-.125.469-.906.469-.172 0-.281 0-.281.187C.39 0 .516 0 .547 0c.281 0 .984-.031 1.265-.031.204 0 .422.015.626.015.218 0 .437.016.656.016.062 0 .203 0 .203-.203 0-.11-.094-.11-.281-.11-.375 0-.657 0-.657-.171 0-.063.032-.11.032-.172Zm.718-2.97c.079-.343.094-.374.532-.374h.953c.828 0 1.343.265 1.343.953 0 .39-.187 1.25-.578 1.61-.5.437-1.093.515-1.53.515H3.046Zm0 0"/><path id="b" d="M1.469-4.297a.41.41 0 0 0-.407-.39.397.397 0 0 0-.39.39.4.4 0 0 0 .39.406.403.403 0 0 0 .407-.406M.406-2.984v.25c.438 0 .5.03.5.375v1.812c0 .297-.062.297-.515.297V0c.015 0 .5-.031.78-.031.235 0 .485.015.735.031v-.25c-.406 0-.468 0-.468-.297v-2.515Zm0 0"/><path id="e" d="M2.328-4.422c0-.187-.015-.187-.203-.187-.453.437-1.078.437-1.36.437v.25c.157 0 .626 0 1-.187v3.547c0 .218 0 .312-.687.312H.812V0c.125 0 .97-.031 1.235-.031C2.266-.031 3.14 0 3.28 0v-.25h-.25c-.703 0-.703-.094-.703-.312Zm0 0"/><path id="f" d="M1.89-2.328c.548 0 .938.375.938 1.125 0 .86-.5 1.125-.906 1.125-.281 0-.89-.078-1.172-.484.328-.016.39-.25.39-.391 0-.235-.156-.39-.374-.39-.203 0-.391.124-.391.406C.375-.281 1.094.14 1.938.14c.968 0 1.64-.641 1.64-1.344 0-.547-.453-1.078-1.219-1.25.735-.266 1-.781 1-1.203 0-.547-.64-.953-1.406-.953-.766 0-1.36.375-1.36.922 0 .234.157.374.36.374.219 0 .36-.171.36-.359 0-.203-.141-.344-.36-.36.25-.312.719-.39.985-.39.312 0 .75.156.75.766 0 .297-.094.61-.282.828-.234.265-.422.281-.765.297-.188.015-.188.015-.235.015-.015 0-.062.016-.062.094 0 .094.062.094.172.094Zm0 0"/><path id="g" d="M4.531-1.828h-.234c-.078.687-.188 1.578-1.5 1.578h-.703c-.328 0-.328-.062-.328-.266v-3.656c0-.234 0-.328.656-.328h.234v-.25c-.14.016-1.031.031-1.203.031-.266 0-1.062-.031-1.062-.031v.25h.172c.53 0 .546.078.546.313v3.625c0 .234-.015.312-.546.312H.39V0h3.922Zm0 0"/><path id="h" d="M3.516-1.266H3.28c-.031.157-.094.563-.187.641-.063.031-.594.031-.688.031H1.125c.734-.64.969-.843 1.39-1.172.516-.406 1-.828 1-1.5 0-.843-.734-1.343-1.624-1.343-.875 0-1.453.593-1.453 1.234 0 .36.296.39.375.39.156 0 .359-.109.359-.359 0-.14-.047-.375-.406-.375.218-.5.687-.64 1.015-.64.688 0 1.063.53 1.063 1.093 0 .61-.438 1.094-.656 1.344L.5-.266C.438-.203.438-.187.438 0h2.859Zm0 0"/><path id="x" d="M1.766-4.172c0-.25 0-.328.578-.328h.172v-.25c-.047 0-.813.031-1.078.031-.282 0-1.047-.031-1.079-.031v.25h.172c.578 0 .578.078.578.328v3.61c0 .234 0 .312-.578.312H.36V0c.047 0 .797-.031 1.079-.031.265 0 1.03.031 1.078.031v-.25h-.172c-.578 0-.578-.078-.578-.312Zm0 0"/><path id="y" d="M1.813-4.64c-.079-.094-.079-.11-.22-.11H.392v.25h.203c.297 0 .484.031.515.047V-.75c0 .188 0 .5-.718.5V0c.28-.016.562-.031.843-.031.282 0 .563.015.86.031v-.25c-.719 0-.719-.312-.719-.5v-3.516L4.453-.109C4.531 0 4.531 0 4.61 0c.141 0 .141-.062.141-.187V-4c0-.187 0-.5.719-.5v-.25c-.282.016-.563.031-.86.031-.28 0-.562-.015-.843-.031v.25c.718 0 .718.313.718.5v2.953Zm0 0"/><path id="z" d="M5.61-2.344A2.56 2.56 0 0 0 3.046-4.89 2.56 2.56 0 0 0 .484-2.344C.484-.984 1.625.141 3.047.141c1.422 0 2.562-1.125 2.562-2.485M3.046-.094c-.813 0-1.813-.656-1.813-2.375 0-1.61 1.016-2.203 1.813-2.203.797 0 1.812.594 1.812 2.203 0 1.719-1 2.375-1.812 2.375m0 0"/><path id="A" d="M4.75-4c0-.187 0-.5.719-.5v-.25c-.282.016-.563.031-.844.031s-.562-.015-.844-.031v.25c.719 0 .719.313.719.5v2.39c0 .954-.734 1.5-1.469 1.5-.406 0-1.265-.218-1.265-1.468v-2.61c0-.234.015-.312.547-.312h.171v-.25c-.343.016-.796.031-1.046.031S.734-4.734.39-4.75v.25h.172c.53 0 .546.078.546.313v2.593c0 1 .891 1.735 1.922 1.735.953 0 1.719-.766 1.719-1.735Zm0 0"/><path id="B" d="M5.188-4.703H.484l-.156 1.61h.235c.109-1.204.312-1.36 1.375-1.36.14 0 .343 0 .406.016.156.015.156.093.156.265v3.61c0 .218 0 .312-.719.312h-.297V0c.344-.031.985-.031 1.36-.031.36 0 1 0 1.328.031v-.25H3.89c-.735 0-.735-.094-.735-.312v-3.61c0-.172 0-.25.156-.266.079-.015.282-.015.422-.015.375 0 .688 0 .922.14.313.188.36.641.375.672l.063.547h.234Zm0 0"/><path id="c" d="M4.469-2c0-1.187-.828-2.172-1.89-2.172-.485 0-.907.156-1.267.5v-1.937c.204.062.532.14.844.14 1.219 0 1.922-.906 1.922-1.047 0-.046-.031-.109-.11-.109 0 0-.03 0-.077.031a3.13 3.13 0 0 1-1.344.297c-.406 0-.86-.078-1.328-.281-.078-.031-.094-.031-.11-.031C1-6.61 1-6.531 1-6.375v2.953c0 .172 0 .25.14.25.079 0 .094-.031.126-.094.109-.156.484-.687 1.28-.687.532 0 .767.453.86.64.156.36.172.75.172 1.25 0 .344 0 .938-.234 1.36-.25.39-.61.64-1.063.64-.734 0-1.297-.53-1.469-1.109.032.016.063.016.172.016.329 0 .5-.25.5-.485a.48.48 0 0 0-.5-.484c-.14 0-.484.063-.484.531C.5-.75 1.188.22 2.297.22 3.453.219 4.469-.734 4.469-2m0 0"/><path id="d" d="M4.578-3.187c0-.782-.062-1.579-.406-2.313-.453-.953-1.266-1.125-1.688-1.125-.593 0-1.328.266-1.734 1.188C.438-4.75.39-3.97.39-3.187c0 .75.032 1.64.438 2.406.438.797 1.156 1 1.64 1 .548 0 1.298-.203 1.735-1.156.313-.688.375-1.454.375-2.25M2.468 0c-.374 0-.968-.25-1.14-1.203-.11-.594-.11-1.516-.11-2.094 0-.64 0-1.297.079-1.828.187-1.187.922-1.281 1.172-1.281.328 0 .984.187 1.172 1.172.109.547.109 1.312.109 1.937 0 .75 0 1.422-.11 2.047C3.485-.297 2.923 0 2.47 0m0 0"/><path id="i" d="M7.031-3.344c0-1.89-1.343-3.437-3.047-3.437H.344v.297h.25c.75 0 .781.109.781.468V-.78c0 .36-.031.469-.781.469h-.25V0h3.64c1.672 0 3.047-1.469 3.047-3.344m-1 0c0 1.11-.187 1.703-.547 2.188a2.192 2.192 0 0 1-1.765.843h-1c-.469 0-.5-.062-.5-.39v-5.375c0-.328.031-.406.5-.406h.984c.625 0 1.313.218 1.813.922.422.593.515 1.453.515 2.218m0 0"/><path id="j" d="M4.797-.89v-.547h-.25v.546c0 .579-.25.641-.36.641-.328 0-.359-.453-.359-.5v-1.984c0-.422 0-.797-.36-1.172-.39-.39-.89-.547-1.359-.547-.812 0-1.5.469-1.5 1.125 0 .297.204.469.454.469a.435.435 0 0 0 .453-.453c0-.126-.047-.454-.5-.47.265-.343.75-.452 1.078-.452.484 0 1.047.39 1.047 1.265v.375c-.5.031-1.203.063-1.828.36-.75.343-1 .859-1 1.297 0 .796.968 1.046 1.593 1.046.657 0 1.11-.39 1.297-.859.047.39.313.813.781.813.204 0 .813-.141.813-.954m-1.656-.5c0 .937-.72 1.28-1.157 1.28-.5 0-.906-.343-.906-.843 0-.547.422-1.375 2.063-1.438ZM2.094-6.017a.495.495 0 0 0-.485-.468.473.473 0 0 0-.484.468.484.484 0 1 0 .969 0m1.765 0a.495.495 0 0 0-.484-.468.483.483 0 0 0-.484.468c0 .25.203.485.484.485.297 0 .484-.25.484-.485m0 0"/><path id="k" d="M8.078 0v-.312c-.515 0-.765 0-.781-.297V-2.5c0-.86 0-1.172-.297-1.531-.14-.157-.469-.36-1.047-.36-.828 0-1.266.594-1.437.97-.141-.86-.875-.97-1.328-.97-.72 0-1.188.422-1.47 1.047V-4.39l-1.405.11v.312c.703 0 .78.063.78.547V-.75c0 .438-.109.438-.78.438V0l1.125-.031L2.547 0v-.312c-.656 0-.766 0-.766-.438v-1.828c0-1.047.703-1.594 1.344-1.594.625 0 .734.531.734 1.094V-.75c0 .438-.109.438-.78.438V0l1.124-.031L5.313 0v-.312c-.657 0-.766 0-.766-.438v-1.828c0-1.047.703-1.594 1.344-1.594.625 0 .734.531.734 1.094V-.75c0 .438-.11.438-.781.438V0l1.125-.031Zm0 0"/><path id="l" d="M5.172-2.14c0-1.266-.953-2.25-2.078-2.25-.766 0-1.188.437-1.39.656v-.657L.28-4.28v.312c.703 0 .766.047.766.485v4.656c0 .453-.11.453-.766.453v.297l1.11-.031 1.125.03v-.296c-.672 0-.782 0-.782-.453V-.594c.047.172.47.703 1.235.703 1.172 0 2.203-.968 2.203-2.25m-.813 0c0 1.203-.703 2.03-1.437 2.03-.39 0-.781-.202-1.047-.609-.14-.203-.14-.219-.14-.422v-2.203c.296-.515.78-.797 1.28-.797.735 0 1.344.875 1.344 2m0 0"/><path id="m" d="M3.547-6.312c0-.36-.36-.688-.89-.688-.704 0-1.548.516-1.548 1.578v1.14H.33v.313h.78V-.75c0 .438-.109.438-.765.438V0l1.125-.031c.406 0 .86 0 1.265.031v-.312h-.203c-.75 0-.765-.11-.765-.47v-3.187h1.14v-.312H1.734v-1.157c0-.875.485-1.343.922-1.343.031 0 .172 0 .328.062a.44.44 0 0 0-.296.422.41.41 0 0 0 .421.422c.297 0 .438-.203.438-.437m0 0"/><path id="n" d="M5.313 0v-.312c-.688 0-.766-.063-.766-.547v-3.532l-1.469.11v.312c.703 0 .781.063.781.547v1.766c0 .875-.484 1.547-1.203 1.547-.844 0-.875-.47-.875-.985V-4.39l-1.468.11v.312c.78 0 .78.031.78.906v1.5c0 .766 0 1.672 1.516 1.672.547 0 .985-.28 1.282-.89v.89Zm0 0"/><path id="o" d="M5.313 0v-.312c-.516 0-.766 0-.766-.297V-2.5c0-.86 0-1.172-.313-1.531-.14-.157-.468-.36-1.046-.36-.72 0-1.188.422-1.47 1.047V-4.39l-1.405.11v.312c.703 0 .78.063.78.547V-.75c0 .438-.109.438-.78.438V0l1.125-.031L2.547 0v-.312c-.656 0-.766 0-.766-.438v-1.828c0-1.047.703-1.594 1.344-1.594.625 0 .734.531.734 1.094V-.75c0 .438-.109.438-.78.438V0l1.124-.031Zm0 0"/><path id="p" d="M4.813-4.016c0-.171-.11-.484-.5-.484-.204 0-.641.063-1.047.469a1.689 1.689 0 0 0-1.063-.36c-.922 0-1.61.688-1.61 1.454 0 .437.22.812.47 1.015-.125.156-.313.484-.313.828 0 .313.14.688.438.89C.594-.046.28.392.28.782c0 .719.985 1.266 2.188 1.266 1.172 0 2.219-.5 2.219-1.281 0-.344-.141-.86-.657-1.141-.515-.266-1.093-.266-1.703-.266-.25 0-.672 0-.75-.015-.312-.047-.531-.344-.531-.672 0-.031 0-.266.172-.453.39.265.797.297.984.297.922 0 1.61-.688 1.61-1.453 0-.36-.157-.735-.407-.954.36-.343.719-.39.89-.39 0 0 .079 0 .11.015-.11.032-.156.141-.156.266a.27.27 0 0 0 .281.281.28.28 0 0 0 .282-.297M3.077-2.937c0 .265-.015.578-.172.828-.078.125-.297.406-.703.406-.86 0-.86-1-.86-1.234 0-.266 0-.579.157-.829a.846.846 0 0 1 .703-.39c.875 0 .875.984.875 1.218M4.156.78c0 .547-.703 1.031-1.672 1.031-1 0-1.687-.5-1.687-1.03 0-.454.375-.829.812-.844h.594c.844 0 1.953 0 1.953.843m0 0"/><path id="q" d="M3.578-1.266c0-.53-.297-.828-.422-.953-.328-.312-.719-.39-1.125-.469-.562-.109-1.219-.25-1.219-.828 0-.343.25-.75 1.11-.75 1.094 0 1.14.891 1.156 1.204.016.093.125.093.125.093.125 0 .125-.047.125-.234V-4.22c0-.156 0-.234-.11-.234-.046 0-.062 0-.202.125l-.157.156c-.39-.281-.796-.281-.937-.281-1.219 0-1.594.672-1.594 1.219 0 .359.156.625.422.843.328.266.594.329 1.313.47.218.03 1.03.187 1.03.905 0 .516-.343.907-1.109.907-.843 0-1.203-.563-1.39-1.407-.031-.14-.031-.171-.14-.171-.126 0-.126.062-.126.25v1.312c0 .172 0 .234.11.234C.484.11.5.094.688-.094.703-.109.703-.125.89-.312a1.51 1.51 0 0 0 1.093.421c1.141 0 1.594-.671 1.594-1.375m0 0"/><path id="r" d="M2.531 0v-.312c-.656 0-.765 0-.765-.438v-6.14l-1.438.109v.297c.703 0 .781.078.781.562V-.75c0 .438-.109.438-.78.438V0l1.109-.031Zm0 0"/><path id="s" d="M2.453 0v-.312c-.656 0-.687-.047-.687-.438v-3.64l-1.391.109v.312c.64 0 .734.047.734.547V-.75c0 .438-.109.438-.78.438V0l1.093-.031c.344 0 .687.015 1.031.031m-.547-6a.547.547 0 0 0-.531-.531A.536.536 0 0 0 .844-6c0 .266.234.531.531.531A.536.536 0 0 0 1.906-6m0 0"/><path id="t" d="M4.125-1.187c0-.094-.078-.11-.125-.11-.094 0-.11.047-.14.14C3.515-.14 2.624-.14 2.53-.14c-.5 0-.906-.296-1.125-.671-.297-.47-.297-1.125-.297-1.485h2.766c.219 0 .25 0 .25-.203 0-.984-.531-1.953-1.781-1.953C1.188-4.453.28-3.422.28-2.187.281-.86 1.328.108 2.47.108 3.672.11 4.125-1 4.125-1.187M3.469-2.5h-2.36C1.172-3.984 2-4.234 2.344-4.234c1.031 0 1.125 1.343 1.125 1.734m0 0"/><path id="u" d="M5.234 0v-.312c-.687 0-.765-.063-.765-.547v-6.032l-1.438.11v.297c.703 0 .781.078.781.562v2.14a1.6 1.6 0 0 0-1.265-.609c-1.172 0-2.203.97-2.203 2.25 0 1.266.969 2.25 2.094 2.25.64 0 1.093-.343 1.343-.656V.11ZM3.781-1.172c0 .172 0 .203-.11.36-.296.484-.75.703-1.171.703-.453 0-.812-.266-1.047-.641-.266-.406-.297-.969-.297-1.375 0-.375.032-.969.313-1.406.203-.313.593-.64 1.125-.64.344 0 .765.14 1.078.593.11.172.11.187.11.375Zm0 0"/><clipPath id="v"><path d="M.238 0H164v118.23H.238Zm0 0"/></clipPath></defs><path fill="none" stroke="#000" stroke-miterlimit="10" stroke-width=".39771123" d="M31.762 102.367v-29.82m0-23.192v-29.82"/><path fill="none" stroke="#000" stroke-miterlimit="10" stroke-width=".7944256900000001" d="M20.168 60.95c0 6.405 5.191 11.597 11.594 11.597 6.406 0 11.597-5.192 11.597-11.598 0-6.402-5.191-11.594-11.597-11.594-6.403 0-11.594 5.192-11.594 11.594Zm0 0"/><path fill="none" stroke="#000" stroke-miterlimit="10" stroke-width=".7944256900000001" d="M37.563 60.95c-.946 1.484-1.852 2.898-2.899 2.898-1.05 0-1.957-1.414-2.902-2.899-.946-1.484-1.848-2.898-2.899-2.898-1.05 0-1.953 1.414-2.898 2.898"/><use xlink:href="#a" x="3.83" y="56.978"/><use xlink:href="#b" x="11.369" y="58.467"/><use xlink:href="#c" x="3.83" y="68.895"/><use xlink:href="#d" x="8.795" y="68.895"/><path fill="none" stroke="#000" stroke-miterlimit="10" stroke-width=".39771123" d="M31.762 19.535h25.957m30.922 0h25.957"/><path fill="none" stroke="#000" stroke-miterlimit="10" stroke-width=".7944256900000001" d="M57.719 13.734H88.64v11.598H57.719Zm0 0"/><use xlink:href="#a" x="67.181" y="9.947"/><use xlink:href="#e" x="74.722" y="11.436"/><path fill="none" stroke="#000" stroke-miterlimit="10" stroke-width=".39771123" d="M114.598 19.535h25.953m30.922 0h25.957v25.953m0 30.926v25.953h-82.832m0 0H31.762"/><path fill="none" stroke="#000" stroke-miterlimit="10" stroke-width=".7944256900000001" d="M140.55 13.734h30.923v11.598H140.55Zm0 0"/><use xlink:href="#a" x="150.013" y="9.947"/><use xlink:href="#f" x="157.553" y="11.436"/><path fill="none" stroke="#000" stroke-miterlimit="10" stroke-width=".7944256900000001" d="M191.629 76.414V45.488h11.598v30.926Zm0 0"/><use xlink:href="#a" x="207.396" y="56.978"/><use xlink:href="#g" x="214.935" y="58.467"/><use xlink:href="#c" x="207.396" y="68.895"/><use xlink:href="#d" x="212.361" y="68.895"/><path fill="none" stroke="#000" stroke-miterlimit="10" stroke-width=".39771123" d="M114.598 19.535v25.953m0 30.926v25.953"/><path fill="none" stroke="#000" stroke-miterlimit="10" stroke-width=".7944256900000001" d="M108.797 76.414V45.488h11.598v30.926Zm0 0"/><path stroke="#000" stroke-miterlimit="10" stroke-width=".39771123" d="M116.18 19.535a1.583 1.583 0 1 0-3.166.002 1.583 1.583 0 0 0 3.166-.002ZM116.18 102.367a1.583 1.583 0 1 0-3.166.002 1.583 1.583 0 0 0 3.166-.002Zm0 0"/><use xlink:href="#a" x="94.616" y="63.09"/><use xlink:href="#h" x="102.157" y="64.579"/><use xlink:href="#i" x="79.733" y="112.876"/><use xlink:href="#j" x="87.32" y="112.876"/><use xlink:href="#k" x="92.285" y="112.876"/><use xlink:href="#l" x="100.557" y="112.876"/><use xlink:href="#m" x="106.079" y="112.876"/><use xlink:href="#n" x="109.117" y="112.876"/><use xlink:href="#o" x="114.639" y="112.876"/><use xlink:href="#p" x="120.16" y="112.876"/><use xlink:href="#q" x="125.125" y="112.876"/><use xlink:href="#p" x="129.038" y="112.876"/><use xlink:href="#r" x="134.003" y="112.876"/><use xlink:href="#s" x="136.764" y="112.876"/><use xlink:href="#t" x="139.524" y="112.876"/><use xlink:href="#u" x="143.933" y="112.876"/><path fill="none" stroke="#D9D9D9" stroke-miterlimit="10" stroke-width="28.255439190000004" d="M50.262 60.95h20.707m0 0h.664"/><path fill="#D9D9D9" d="m87.898 60.95-14.93-15.423v30.844Zm0 0"/><g clip-path="url(#v)"><path fill="none" stroke="#D9D9D9" stroke-miterlimit="10" stroke-width="5.345677510000001" d="m87.898 60.95-14.93-15.423v30.844Zm0 0"/></g><use xlink:href="#w" x="63.168" y="63.599" fill="#4C4C4C"/><g fill="#4C4C4C"><use xlink:href="#x" x="69.544" y="65.088"/><use xlink:href="#y" x="72.413" y="65.088"/></g><path fill="none" stroke="#D9D9D9" stroke-miterlimit="10" stroke-width="14.12722121" d="M143.313 60.95h20.707m0 0h10.027"/><path fill="#D9D9D9" stroke="#D9D9D9" stroke-miterlimit="10" stroke-width="2.84876866" d="m182.715 60.95-7.957-8.216v16.434Zm0 0"/><use xlink:href="#w" x="151.768" y="63.599" fill="#4C4C4C"/><g fill="#4C4C4C"><use xlink:href="#z" x="158.144" y="65.088"/><use xlink:href="#A" x="164.24" y="65.088"/><use xlink:href="#B" x="170.102" y="65.088"/></g></svg>