<svg xmlns="http://www.w3.org/2000/svg" xmlns:xlink="http://www.w3.org/1999/xlink" width="233.461" height="129.637"><defs><clipPath id="a"><path d="M220 106h12.867v16H220Zm0 0"/></clipPath><clipPath id="b"><path d="M77 2h102v111.621H77Zm0 0"/></clipPath><clipPath id="c"><path d="M14.637 113H218v.621H14.637Zm0 0"/></clipPath><clipPath id="d"><path d="M14.637.55H223v113.071H14.637Zm0 0"/></clipPath><clipPath id="f"><path d="M46 59h32v54.621H46Zm0 0"/></clipPath><clipPath id="g"><path d="M179 59h31v54.621h-31Zm0 0"/></clipPath><path id="e" d="M7.219 0v-.312H7.03c-.515 0-.734-.047-.937-.36L4-3.828l1.36-2c.218-.328.546-.64 1.437-.656v-.297l-1.11.031c-.39 0-.875 0-1.265-.031v.297c.39.015.61.234.61.468 0 .094-.016.11-.079.22L3.813-4.11 2.53-6.031c-.015-.032-.062-.11-.062-.157 0-.109.219-.28.64-.296v-.297c-.343.031-1.078.031-1.453.031L.375-6.781v.297h.188c.546 0 .734.078.921.359l1.829 2.75L1.672-.969c-.125.203-.422.657-1.438.657V0l1.11-.031c.36 0 .906 0 1.265.031v-.312c-.453 0-.625-.282-.625-.454 0-.093.032-.125.11-.234L3.5-3.094 5.063-.719c.03.047.062.078.062.11 0 .125-.219.297-.656.297V0c.343-.031 1.078-.031 1.453-.031Zm0 0"/><path id="h" d="M3.64-3.969h.86c.203 0 .297 0 .297-.203 0-.11-.094-.11-.266-.11h-.828l.219-1.14c.031-.203.172-.906.234-1.031.094-.188.25-.328.469-.328.031 0 .297 0 .484.172-.437.046-.53.39-.53.53 0 .235.171.36.359.36.265 0 .546-.218.546-.593 0-.47-.453-.688-.859-.688-.344 0-.969.172-1.266 1.156-.062.203-.093.313-.328 1.563h-.687c-.188 0-.297 0-.297.187 0 .125.094.125.281.125h.656l-.75 3.922c-.171.969-.343 1.86-.859 1.86-.047 0-.297 0-.484-.172a.544.544 0 0 0 .547-.532c0-.234-.172-.359-.36-.359-.266 0-.547.219-.547.594 0 .453.438.687.844.687.547 0 .938-.578 1.125-.953.313-.625.547-1.828.547-1.906Zm0 0"/><path id="i" d="M3.016-3.14h1.687C6.11-3.14 7.5-4.173 7.5-5.282c0-.766-.656-1.5-1.969-1.5H2.313c-.188 0-.297 0-.297.187 0 .11.093.11.297.11.124 0 .296.015.421.03.157.016.22.048.22.157 0 .031-.017.063-.048.188L1.578-.781c-.094.39-.125.469-.906.469-.172 0-.281 0-.281.187C.39 0 .516 0 .547 0c.281 0 .984-.031 1.265-.031.204 0 .422.015.626.015.218 0 .437.016.656.016.062 0 .203 0 .203-.203 0-.11-.094-.11-.281-.11-.375 0-.657 0-.657-.171 0-.063.032-.11.032-.172Zm.718-2.97c.079-.343.094-.374.532-.374h.953c.828 0 1.343.265 1.343.953 0 .39-.187 1.25-.578 1.61-.5.437-1.093.515-1.53.515H3.046Zm0 0"/></defs><path fill="none" stroke="#000" stroke-miterlimit="10" stroke-width=".39788679000000005" d="M14.637 113.621h211.457"/><path d="m229.16 113.621-2.965-1.758v3.52Zm0 0"/><g clip-path="url(#a)"><path fill="none" stroke="#000" stroke-miterlimit="10" stroke-width=".39788679000000005" d="m229.16 113.621-2.965-1.758v3.52Zm0 0"/></g><path fill="none" stroke="#000" stroke-miterlimit="10" stroke-width=".39788679000000005" d="M14.637 113.621V4.016"/><path stroke="#000" stroke-miterlimit="10" stroke-width=".39788679000000005" d="m14.637.95-1.758 2.964h3.516Zm0 0"/><g clip-path="url(#b)"><path fill="#7F7F7F" fill-opacity=".4" d="M77.852 86.047c2.628-13.75 4.566-65.195 6.316-76.672 1.754-11.477 4.57-5.988 6.324-6.066 1.754-.075 4.567-2.137 6.32 5.515 1.754 7.653 3.692 45.051 6.32 49.64 2.634 4.595 9.134-16.546 12.645-16.546 3.508 0 9.133 15.781 12.641 16.547 3.508.765 9.133-11.031 12.644-11.031 3.508 0 9.133 10.265 12.641 11.03 3.508.766 9.133-9.339 12.64-5.515 3.512 3.828 9.137 25.059 12.645 33.094 0 .004.004.008.004.012l-.004 27.566H77.848Zm0 0"/></g><g clip-path="url(#c)"><path fill="none" stroke="#000" stroke-miterlimit="10" stroke-width=".39788679000000005" d="M-23.29 113.621h240.204"/></g><g clip-path="url(#d)"><path fill="none" stroke="#000" stroke-miterlimit="10" stroke-width=".39788679000000005" d="M-23.29 113.621s9.134-2.375 12.642-2.758c3.507-.383 9.132-.383 12.64 0 3.512.383 9.137 2.914 12.645 2.758 3.508-.152 9.133-3.476 12.64-3.86 3.508-.382 9.137.95 12.645 1.102 3.508.157 9.133.383 12.64 0 3.508-.383 9.137.688 12.645-2.758 3.508-3.44 10.012-8.363 12.64-22.062 2.633-13.695 4.567-65.188 6.321-76.668 1.754-11.477 4.57-5.988 6.324-6.066 1.754-.075 4.567-2.137 6.32 5.515 1.754 7.653 3.692 45.051 6.32 49.64 2.634 4.595 9.134-16.546 12.645-16.546 3.508 0 9.133 15.781 12.641 16.547 3.508.765 9.133-11.031 12.645-11.031 3.507 0 9.132 10.265 12.64 11.03 3.508.766 9.133-9.339 12.64-5.515 3.513 3.828 9.138 25.059 12.645 33.094 3.508 8.035 9.133 21.762 12.641 24.82 3.508 3.063 9.137-3.14 12.644-2.758 3.508.383 12.641 5.516 12.641 5.516"/></g><use xlink:href="#e" x="48.838" y="61.86"/><g clip-path="url(#f)"><path fill="none" stroke="#000" stroke-miterlimit="10" stroke-width=".39788679000000005" d="m52.563 65.371 18.964 42.734"/></g><use xlink:href="#e" x="200.545" y="61.86"/><g clip-path="url(#g)"><path fill="none" stroke="#000" stroke-miterlimit="10" stroke-width=".39788679000000005" d="m204.273 65.371-18.964 42.734"/></g><use xlink:href="#h" x="220.112" y="124.032"/><use xlink:href="#i" x="3.369" y="10.853"/></svg>