<svg xmlns="http://www.w3.org/2000/svg" width="115.609" height="85.041"><defs><clipPath id="a"><path d="M.453 5h111.04v74H.452Zm0 0"/></clipPath><clipPath id="b"><path d="M.453 0h111.04v48H.452Zm0 0"/></clipPath><clipPath id="c"><path d="M.453 36h111.04v48.094H.452Zm0 0"/></clipPath></defs><g clip-path="url(#a)"><path fill="#7F7F7F" fill-opacity=".5" d="m.453 15.29.555.737c.156.203.406.532.558.735.157.203.403.527.559.726.156.2.402.516.559.711.156.196.402.504.558.696.153.19.403.488.559.671.152.184.402.473.554.649.157.176.407.453.56.62.155.165.401.427.558.583.156.16.402.402.558.55.157.145.403.372.559.509a15.3 15.3 0 0 0 1.113.882c.156.11.406.278.559.371.156.098.406.243.558.325a8.189 8.189 0 0 0 1.117.48c.157.05.403.121.56.16.151.035.401.082.558.102.152.02.402.039.554.047.157.004.407-.004.559-.012.156-.012.402-.043.559-.07.156-.028.402-.082.558-.125.156-.043.402-.125.559-.18.152-.059.402-.164.558-.238.153-.074.403-.203.555-.29a9.27 9.27 0 0 0 .559-.34c.156-.1.406-.276.558-.394.156-.113.403-.308.559-.437.156-.13.402-.344.558-.48.153-.141.403-.376.559-.528.152-.152.402-.402.559-.562.152-.16.402-.43.554-.598.157-.172.407-.453.559-.633.156-.18.402-.473.558-.66.157-.184.403-.488.56-.68.155-.191.401-.508.558-.703.152-.2.402-.52.558-.719.153-.199.403-.527.555-.73.156-.203.406-.531.559-.735l.558-.742c.156-.203.402-.531.559-.734a89.56 89.56 0 0 1 1.117-1.453c.152-.2.402-.512.555-.707l.558-.688c.156-.187.406-.48.559-.66.156-.184.402-.465.558-.637.157-.171.403-.445.559-.605.152-.164.402-.418.559-.57.152-.157.402-.391.558-.536.152-.14.402-.359.555-.492.156-.129.406-.328.558-.445.157-.117.403-.297.559-.402.156-.102.402-.258.559-.348a7.804 7.804 0 0 1 1.117-.547 6.22 6.22 0 0 1 1.672-.41c.156-.012.402-.024.558-.02.157 0 .403.016.559.032a6.233 6.233 0 0 1 1.672.445 7.976 7.976 0 0 1 1.117.57 11.193 11.193 0 0 1 1.117.77c.152.12.402.324.559.457a21.36 21.36 0 0 1 1.672 1.62c.156.165.402.438.558.614.156.172.403.457.559.64.152.184.402.481.558.669.153.191.403.496.555.691.156.195.406.512.559.711.156.2.406.52.558.723.157.203.403.527.559.734.156.203.402.531.558.738.153.204.403.532.559.739.152.203.402.531.559.734.152.203.402.527.554.727.157.203.407.52.559.715.156.199.402.507.559.699.156.191.402.496.558.68.156.183.402.476.559.652.152.176.402.457.558.625.153.168.403.433.555.59.156.16.406.406.559.558.156.149.402.38.558.516.156.137.403.347.559.472.156.125.402.317.558.43.153.11.403.281.559.38.152.097.402.245.559.331.152.082.402.207.554.277.156.07.406.172.559.227.156.055.402.129.558.168a5.406 5.406 0 0 0 1.117.168c.153.008.403.008.56 0 .152-.008.402-.031.554-.055.156-.027.406-.078.558-.117.157-.039.403-.113.56-.168.155-.058.401-.156.558-.226a9.343 9.343 0 0 0 1.117-.614c.152-.097.402-.27.555-.379a14.189 14.189 0 0 0 1.117-.906c.156-.137.402-.367.558-.516.157-.148.403-.398.559-.558.152-.16.402-.422.559-.59.152-.172.402-.45.558-.625.152-.18.402-.469.555-.656.156-.184.406-.485.558-.676.157-.191.403-.504.559-.7l.559-.714.558-.73c.153-.204.403-.532.559-.735l.554-.738c.157-.207.407-.535.559-.738.156-.207.402-.532.559-.735.156-.203.402-.523.558-.723.156-.199.403-.515.559-.71.152-.192.402-.5.558-.688.153-.191.403-.488.559-.668.152-.184.402-.469.555-.644.156-.172.406-.446.558-.61A23.82 23.82 0 0 1 74.105 8.5c.157-.145.403-.367.56-.5a15.044 15.044 0 0 1 1.112-.867c.157-.106.407-.266.559-.36.156-.093.402-.23.559-.308a7.117 7.117 0 0 1 1.675-.61 9.1 9.1 0 0 1 .555-.09c.156-.015.406-.03.559-.03.156-.005.406.007.558.023.156.012.403.05.559.078.156.031.402.094.558.137.153.047.403.132.559.195.152.062.402.172.559.246.152.078.402.211.554.3.156.095.406.25.559.352.156.106.402.286.558.403a15.76 15.76 0 0 1 1.117.941c.153.14.403.38.56.531.152.157.402.41.554.575.156.164.406.433.558.605.157.172.403.457.56.637.155.18.401.476.558.664.156.187.402.492.558.687.153.192.403.508.559.707l.558.72c.153.202.403.527.555.73l.559.738.558.742c.157.203.403.531.559.734.156.204.402.528.559.73.152.2.402.52.558.72.152.195.402.508.555.699.156.195.406.496.558.683a45.927 45.927 0 0 0 1.117 1.29c.157.168.403.437.56.597.152.16.402.41.558.563.152.152.402.383.554.523.157.14.407.356.56.485.155.125.405.32.558.437a11.978 11.978 0 0 0 1.117.73c.152.086.402.215.558.286.153.074.403.18.559.238.152.055.402.137.555.18.156.043.406.097.558.125.157.023.403.054.559.066.156.012.402.016.558.012.157-.008.403-.028.56-.047.151-.024.401-.07.558-.106.152-.035.402-.109.554-.16a7.472 7.472 0 0 0 1.118-.484c.156-.082.402-.227.558-.32.156-.098.403-.266.559-.375.152-.11.402-.297.558-.418a19.641 19.641 0 0 0 1.672-1.528c.156-.156.403-.418.559-.586.156-.164.402-.441.558-.617.157-.176.403-.465.559-.648l.559-.676c.152-.188.554-.695.554-.695v47.722l-.554-.695-.559-.676c-.156-.18-.402-.469-.559-.644a27.015 27.015 0 0 0-1.117-1.207 18.342 18.342 0 0 0-.558-.547 16.96 16.96 0 0 0-1.114-.977 11.52 11.52 0 0 0-1.676-1.117 9.04 9.04 0 0 0-1.117-.484 9.87 9.87 0 0 0-.554-.16 7.324 7.324 0 0 0-.559-.102 6.73 6.73 0 0 0-.558-.047c-.157-.004-.403 0-.56.012a5.442 5.442 0 0 0-1.116.191c-.153.04-.403.121-.555.18a7.686 7.686 0 0 0-1.117.523 10.677 10.677 0 0 0-1.117.73 16.96 16.96 0 0 0-.559.438c-.152.125-.402.344-.559.48-.152.141-.402.376-.554.524a27.877 27.877 0 0 0-1.117 1.164c-.157.168-.403.45-.559.63-.156.179-.402.472-.559.655-.152.188-.402.493-.558.684-.153.191-.403.504-.555.703-.156.195-.406.516-.558.719-.157.199-.403.523-.56.726l-.558.739c-.156.203-.402.535-.558.738-.153.207-.403.535-.559.738-.152.203-.402.531-.555.73-.156.204-.406.524-.558.723-.156.2-.406.512-.559.707-.156.192-.402.5-.558.688l-.559.664c-.156.18-.402.46-.558.637a27.695 27.695 0 0 1-1.672 1.71c-.157.141-.403.36-.559.493-.156.129-.402.328-.559.445-.156.117-.402.297-.558.402a9.491 9.491 0 0 1-1.113.653 9.858 9.858 0 0 1-.559.25c-.156.058-.406.144-.559.191a7.267 7.267 0 0 1-.558.137 6.876 6.876 0 0 1-.559.082 8.779 8.779 0 0 1-.558.023c-.153 0-.403-.015-.559-.035a5.605 5.605 0 0 1-1.113-.238 7.97 7.97 0 0 1-.559-.2 11.86 11.86 0 0 1-.558-.257 13.235 13.235 0 0 1-.56-.309 13.492 13.492 0 0 1-.558-.363c-.152-.105-.402-.289-.554-.41-.157-.117-.407-.32-.559-.453a21.455 21.455 0 0 1-.559-.5c-.156-.145-.402-.387-.558-.54a39.68 39.68 0 0 1-.559-.577c-.152-.168-.402-.438-.558-.614a46.802 46.802 0 0 1-1.114-1.308 33.135 33.135 0 0 1-.558-.692c-.156-.195-.403-.511-.559-.71-.156-.196-.402-.52-.558-.723-.157-.2-.403-.528-.559-.73a52.201 52.201 0 0 0-.559-.74c-.152-.206-.402-.534-.554-.737-.156-.207-.406-.535-.559-.739-.156-.203-.402-.527-.558-.726-.157-.2-.403-.52-.559-.715-.156-.2-.402-.508-.559-.7a48.29 48.29 0 0 0-1.113-1.332c-.156-.179-.406-.456-.558-.624a88.297 88.297 0 0 0-.56-.594 24.841 24.841 0 0 0-1.116-1.074 15.563 15.563 0 0 0-1.117-.903 11.774 11.774 0 0 0-.555-.382 17.426 17.426 0 0 0-.559-.332 12.353 12.353 0 0 0-.558-.278 8.367 8.367 0 0 0-.559-.226 7.627 7.627 0 0 0-.559-.172 6.734 6.734 0 0 0-.558-.114 6.677 6.677 0 0 0-.555-.058 6.66 6.66 0 0 0-.558 0 6.755 6.755 0 0 0-.559.055 7.074 7.074 0 0 0-.559.113 7.626 7.626 0 0 0-1.117.394c-.152.07-.402.196-.554.282a9.057 9.057 0 0 0-1.118.71 13.234 13.234 0 0 0-1.117.903 22.37 22.37 0 0 0-1.117 1.07c-.152.16-.402.422-.555.594a28.612 28.612 0 0 0-1.117 1.277c-.156.184-.402.485-.559.676-.156.192-.402.504-.558.7l-.559.714c-.152.2-.402.524-.554.727-.157.203-.407.531-.559.738-.156.203-.406.531-.559.738-.156.203-.402.535-.558.739-.156.203-.403.53-.559.734a89.984 89.984 0 0 1-1.672 2.121 55.885 55.885 0 0 1-1.117 1.313c-.156.171-.402.445-.558.613-.157.164-.403.422-.559.578a24.105 24.105 0 0 1-1.113 1.039c-.157.133-.407.336-.559.457a12.712 12.712 0 0 1-1.117.773c-.156.094-.402.231-.559.31a7.985 7.985 0 0 1-1.113.465 7.846 7.846 0 0 1-.559.143 7.246 7.246 0 0 1-.558.094 8.93 8.93 0 0 1-.559.035c-.156 0-.402-.007-.558-.023a9.586 9.586 0 0 1-.559-.078 10.547 10.547 0 0 1-.559-.137 10.363 10.363 0 0 1-.554-.191 10.1 10.1 0 0 1-.559-.246c-.156-.079-.402-.211-.558-.301a10.981 10.981 0 0 1-1.118-.754 25.28 25.28 0 0 1-.558-.445 15.684 15.684 0 0 1-.555-.493c-.156-.14-.406-.379-.558-.53a19.33 19.33 0 0 1-.559-.571 42.703 42.703 0 0 1-.559-.606c-.156-.171-.402-.457-.558-.636-.153-.18-.403-.477-.559-.664-.152-.188-.402-.493-.558-.688a110.512 110.512 0 0 1-1.114-1.426l-.558-.73c-.157-.203-.403-.535-.559-.738-.156-.204-.402-.536-.558-.739a52.207 52.207 0 0 0-.56-.738c-.151-.203-.401-.527-.554-.73l-.558-.715a55.316 55.316 0 0 0-1.118-1.387 49.4 49.4 0 0 0-.558-.66 42.772 42.772 0 0 0-1.113-1.227c-.157-.164-.407-.414-.559-.566a64.458 64.458 0 0 0-.559-.524c-.156-.14-.402-.355-.558-.484-.156-.125-.403-.324-.559-.437a13.08 13.08 0 0 0-.558-.391 9.27 9.27 0 0 0-.559-.34 9.495 9.495 0 0 0-.555-.293c-.156-.07-.406-.176-.558-.234a7.766 7.766 0 0 0-.559-.184 9.552 9.552 0 0 0-.558-.125 6.801 6.801 0 0 0-.559-.066 5.311 5.311 0 0 0-1.113.035c-.157.02-.407.062-.559.101a7.455 7.455 0 0 0-.559.157c-.156.054-.402.148-.558.215a9.114 9.114 0 0 0-1.117.59c-.153.097-.403.261-.559.37-.152.11-.402.297-.555.418-.156.125-.406.332-.558.47-.156.132-.402.359-.559.507a24.325 24.325 0 0 0-1.117 1.133c-.152.168-.402.441-.559.617a47.79 47.79 0 0 0-.554.648c-.156.184-.406.485-.559.672-.156.192-.402.5-.558.696-.157.195-.403.515-.559.714-.156.2-.402.524-.559.723a91.28 91.28 0 0 1-.558.734c-.153.208-.555.743-.555.743Zm0 0"/></g><g clip-path="url(#b)"><path fill="none" stroke="#000" stroke-miterlimit="10" stroke-width="1.5762269" d="m.453 15.29.555.737c.156.203.406.532.558.735.157.203.403.527.559.726.156.2.402.516.559.711.156.196.402.504.558.696.153.19.403.488.559.671.152.184.402.473.554.649.157.176.407.453.56.62.155.165.401.427.558.583.156.16.402.402.558.55.157.145.403.372.559.509a15.301 15.301 0 0 0 1.113.882c.156.11.406.278.559.371.156.098.406.243.558.325a8.19 8.19 0 0 0 1.117.48c.157.05.403.121.56.16.151.035.401.082.558.102.152.02.402.039.554.047.157.004.407-.004.559-.012.156-.012.402-.043.559-.07.156-.028.402-.082.558-.125.156-.043.403-.125.559-.18.152-.059.402-.164.558-.238.153-.074.403-.203.555-.29a9.27 9.27 0 0 0 .559-.34 13.643 13.643 0 0 0 1.117-.832c.156-.128.402-.343.558-.48.153-.14.403-.375.559-.527.152-.152.402-.402.559-.563.152-.16.402-.43.554-.597.157-.172.407-.453.559-.633.156-.18.402-.473.558-.66.157-.184.403-.488.56-.68.155-.191.401-.508.558-.703.152-.2.402-.52.558-.719.153-.199.403-.527.555-.73.156-.203.406-.531.559-.735l.558-.742c.156-.203.402-.531.559-.734a89.56 89.56 0 0 1 1.117-1.453c.152-.2.402-.512.555-.707l.558-.688c.156-.187.406-.48.559-.66.156-.184.402-.465.558-.637.157-.172.403-.445.559-.605.152-.164.402-.418.559-.57.152-.157.402-.391.558-.536.153-.14.403-.359.555-.492.156-.129.406-.328.558-.445.157-.117.403-.297.559-.402.156-.102.402-.258.559-.348a7.804 7.804 0 0 1 1.117-.547 6.22 6.22 0 0 1 1.672-.41c.156-.012.402-.024.558-.02.157 0 .403.016.559.032a6.233 6.233 0 0 1 1.672.445 7.976 7.976 0 0 1 1.117.57 11.192 11.192 0 0 1 1.117.77c.152.12.402.324.559.457a21.356 21.356 0 0 1 1.672 1.62c.156.165.402.438.558.614.156.172.403.457.559.64.152.184.402.481.558.669.153.191.403.496.555.691.156.195.406.512.559.711.156.2.406.52.558.723.157.203.403.527.559.734.156.203.402.531.558.738.153.204.403.532.559.739.152.203.402.531.559.734.152.203.402.527.554.727.157.203.407.52.559.714.156.2.402.508.559.7.156.191.402.496.558.68.156.183.402.476.559.652.152.176.402.457.558.625.153.168.403.433.555.59.156.16.406.406.559.558.156.149.402.38.558.516.156.137.403.347.559.472.156.125.402.317.558.43.153.11.403.281.559.38.152.097.402.245.559.331.152.082.402.207.554.277.156.07.406.172.559.227.156.055.402.129.558.168a5.405 5.405 0 0 0 1.117.168c.153.008.403.008.56 0 .152-.008.402-.031.554-.055.156-.027.406-.078.558-.117.157-.039.403-.113.56-.168.155-.059.401-.156.558-.226a9.344 9.344 0 0 0 1.117-.614c.152-.097.402-.27.555-.379a14.187 14.187 0 0 0 1.117-.906c.156-.137.402-.367.558-.516.157-.148.403-.398.559-.558.152-.16.402-.422.559-.59.152-.172.402-.45.558-.625.152-.18.402-.469.555-.656.156-.184.406-.485.558-.676.157-.191.403-.504.559-.7l.559-.714.558-.73c.153-.204.403-.532.559-.735l.554-.738c.157-.207.407-.535.559-.738.156-.208.402-.532.559-.735.156-.203.402-.523.558-.723.156-.199.403-.515.559-.71.152-.192.402-.5.558-.688.153-.191.403-.488.559-.668.152-.184.402-.469.555-.644.156-.172.406-.446.558-.61A23.821 23.821 0 0 1 74.105 8.5c.157-.145.403-.367.56-.5a15.044 15.044 0 0 1 1.112-.867c.157-.106.407-.266.559-.36.156-.093.402-.23.559-.308a7.117 7.117 0 0 1 1.675-.61c.153-.03.403-.07.555-.09.156-.015.406-.03.559-.03.156-.005.406.007.558.023.156.012.403.05.559.078.156.031.402.094.558.137.153.047.403.132.559.195.152.062.402.172.559.246.152.078.402.211.554.3.157.095.407.25.559.352.156.106.402.286.558.403a15.76 15.76 0 0 1 1.117.941c.153.14.403.38.56.531.152.157.402.41.554.575.156.164.406.433.559.605.156.172.402.457.558.637.156.18.402.476.559.664.156.187.402.492.558.687.153.192.403.508.559.707l.558.72c.153.202.403.526.555.73l.559.738.558.742c.157.203.403.531.559.734.156.204.402.528.559.73.152.2.402.52.558.72.152.195.402.507.555.699.156.195.406.496.558.683a45.939 45.939 0 0 0 1.117 1.29c.157.168.403.437.56.597.152.16.402.41.558.563.152.152.402.383.554.523.157.14.407.356.56.485.155.125.405.32.558.437a11.978 11.978 0 0 0 1.117.73c.152.086.402.215.558.286.153.074.403.18.559.238.152.055.402.137.555.18.156.043.406.097.558.125.157.023.403.054.559.066.156.012.402.016.559.012.156-.008.402-.028.558-.047.152-.024.402-.07.559-.106.152-.035.402-.109.554-.16a7.472 7.472 0 0 0 1.118-.484c.156-.082.402-.227.558-.32.156-.098.403-.266.559-.375.152-.11.402-.297.558-.418a19.644 19.644 0 0 0 1.672-1.528c.156-.156.403-.418.559-.586.156-.164.402-.441.558-.617.157-.176.403-.465.559-.648l.559-.676c.152-.188.554-.695.554-.695"/></g><g clip-path="url(#c)"><path fill="none" stroke="#000" stroke-miterlimit="10" stroke-width="1.5762269" d="M.453 68.805s.402-.535.555-.743c.156-.203.406-.53.558-.734.157-.2.403-.523.559-.723.156-.199.402-.52.559-.714A46.265 46.265 0 0 1 3.8 64.524c.152-.184.402-.473.554-.649.157-.176.407-.45.56-.617.155-.168.401-.43.558-.586.156-.156.402-.402.558-.547.157-.148.403-.375.559-.508.152-.137.402-.344.558-.469.153-.12.403-.308.555-.418.156-.109.406-.273.559-.37a9.114 9.114 0 0 1 1.117-.59c.156-.067.402-.16.559-.215.156-.051.402-.121.558-.157.152-.039.402-.082.559-.101a5.31 5.31 0 0 1 1.113-.035c.156.011.402.039.559.066.156.027.402.086.558.125.156.043.403.125.559.184.152.058.402.164.558.234.153.074.403.203.555.293.156.086.406.238.559.34.156.101.406.277.558.39.156.114.403.313.559.438.156.129.402.344.558.484.153.141.403.375.559.524.152.152.402.402.559.566a42.761 42.761 0 0 1 1.113 1.227 49.394 49.394 0 0 1 1.117 1.344c.156.191.402.503.559.703l.558.715c.153.203.403.527.555.73.156.203.406.531.559.738.156.203.402.535.558.739.156.203.402.535.559.738l.558.73a110.52 110.52 0 0 0 1.113 1.426c.157.195.407.5.56.688.155.187.405.484.558.664.156.18.402.464.558.636.157.172.403.442.559.606.152.164.402.418.559.57.152.152.402.39.558.531.153.145.403.364.555.493.156.128.406.328.558.445a10.982 10.982 0 0 0 1.117.754c.157.09.403.222.56.3.152.075.402.184.558.247.152.058.402.144.555.191.156.043.406.106.558.137.156.027.406.062.559.078.156.016.402.023.558.023a8.93 8.93 0 0 0 .559-.035c.152-.02.402-.058.558-.094.153-.03.403-.097.56-.144a7.985 7.985 0 0 0 1.112-.465c.157-.078.403-.215.559-.309a11.3 11.3 0 0 0 1.117-.773c.152-.121.402-.324.559-.457a21.356 21.356 0 0 0 1.113-1.039c.156-.156.402-.414.559-.578.156-.168.402-.442.558-.613a47.388 47.388 0 0 0 1.672-2.004 90.003 90.003 0 0 0 1.117-1.43c.157-.203.403-.531.559-.734.156-.204.402-.536.558-.739.153-.207.403-.535.559-.738.152-.207.402-.535.559-.738.152-.203.402-.528.554-.727.157-.199.407-.52.559-.715.156-.195.402-.507.559-.699a51.476 51.476 0 0 1 1.117-1.332c.152-.176.402-.453.558-.621.153-.172.403-.434.555-.594a22.372 22.372 0 0 1 1.117-1.07 13.233 13.233 0 0 1 1.676-1.285c.152-.098.402-.246.559-.328.152-.086.402-.211.554-.282a7.626 7.626 0 0 1 1.117-.395c.157-.038.403-.089.559-.112.156-.024.402-.047.559-.055a6.66 6.66 0 0 1 .558 0c.153.008.403.035.555.058.156.024.406.075.558.114.157.039.403.117.56.172.155.054.401.156.558.226.156.07.402.196.558.278.153.085.403.234.559.332.152.097.402.27.555.382a15.562 15.562 0 0 1 1.676 1.422c.156.149.402.395.558.555.152.16.402.426.559.594.152.168.402.445.558.625a48.292 48.292 0 0 1 1.113 1.332c.157.191.403.5.559.699.156.195.402.516.559.715.156.199.402.523.558.726l.559.739c.152.203.402.53.554.738.157.203.407.531.559.738.156.203.402.531.559.73.156.204.402.528.558.723.156.2.403.516.559.711a45.931 45.931 0 0 0 1.672 2c.156.176.406.446.558.614.157.164.403.421.559.578.156.152.402.394.558.539.157.144.403.367.56.5.151.133.401.336.558.453.152.121.402.305.554.41.157.11.407.27.559.363.156.09.402.23.559.309.156.078.402.191.558.258.156.062.402.152.559.199a5.605 5.605 0 0 0 1.113.238c.156.02.406.035.559.035.156 0 .406-.011.558-.023.156-.016.403-.05.559-.082.156-.031.402-.09.558-.137.153-.047.403-.133.559-.191.152-.063.402-.172.559-.25a9.664 9.664 0 0 0 1.113-.653c.156-.105.402-.285.558-.402.157-.117.403-.316.559-.445.156-.133.402-.352.559-.492.152-.145.402-.383.558-.536a27.691 27.691 0 0 0 1.113-1.176c.157-.175.403-.456.56-.636l.558-.664c.156-.188.402-.496.558-.688.153-.195.403-.507.559-.707.152-.199.402-.52.558-.722.153-.2.403-.528.555-.73.156-.204.406-.532.559-.74.156-.202.402-.534.558-.737.157-.207.403-.536.559-.739.156-.203.402-.527.559-.726.152-.203.402-.524.558-.719.152-.2.402-.512.555-.703.156-.191.406-.496.558-.684.157-.183.403-.476.559-.656a30.306 30.306 0 0 1 1.117-1.226c.153-.165.403-.415.559-.567.152-.148.402-.383.554-.523.157-.137.407-.356.56-.48a12.096 12.096 0 0 1 1.117-.828c.156-.102.402-.255.558-.34a7.686 7.686 0 0 1 1.117-.523 6.102 6.102 0 0 1 1.113-.306c.157-.027.403-.058.559-.066.156-.012.402-.016.559-.012.156.004.402.027.558.047.152.02.402.066.559.101.152.04.402.11.554.16a9.04 9.04 0 0 1 1.117.484 10.291 10.291 0 0 1 1.118.696c.152.11.402.297.558.422a16.961 16.961 0 0 1 1.113.977c.157.144.407.39.56.547.155.156.402.418.558.586.156.167.402.445.558.62.157.176.403.465.559.645l.559.676.554.695"/></g></svg>