<svg xmlns="http://www.w3.org/2000/svg" width="115.609" height="85.041"><defs><clipPath id="a"><path d="M.453 9h111.04v66H.452Zm0 0"/></clipPath><clipPath id="b"><path d="M.453 0h111.04v65H.452Zm0 0"/></clipPath><clipPath id="c"><path d="M.453 19h111.04v65.094H.452Zm0 0"/></clipPath></defs><g clip-path="url(#a)"><path fill="#7F7F7F" fill-opacity=".5" d="M.453 28.668s.402 1.066.555 1.477c.156.41.406 1.062.558 1.468.157.407.403 1.051.559 1.453.156.399.402 1.032.559 1.422.156.39.402 1.012.558 1.39.153.38.403.981.559 1.349.152.367.402.945.554 1.296.157.348.407.903.56 1.235.155.336.401.855.558 1.172.156.312.402.941.558 1.093.157.157.403.02.559.024h10.043c.156 0 .402.062.558 0 .153-.063.403-.238.559-.457.152-.219.402-.805.559-1.125a88.7 88.7 0 0 0 1.113-2.461c.156-.356.402-.945.558-1.316.157-.372.403-.981.56-1.364.155-.386.401-1.011.558-1.406.152-.395.402-1.035.558-1.438.153-.402.403-1.05.555-1.457.156-.41.406-1.066.559-1.476.156-.406.402-1.067.558-1.477.156-.41.402-1.066.559-1.476.156-.407.402-1.059.558-1.461.153-.403.403-1.047.559-1.442.152-.398.402-1.027.555-1.414.156-.386.406-.996.558-1.37.156-.376.406-.97.559-1.329.156-.36.402-.93.558-1.273.157-.344.403-.883.559-1.211.152-.324.402-.832.559-1.14a38.576 38.576 0 0 1 1.113-2.048c.156-.261.406-.66.558-.894.157-.235.403-.594.559-.801.156-.207.402-.524.559-.703.156-.18.402-.445.558-.598a7.1 7.1 0 0 1 .559-.492c.152-.125.402-.293.554-.387.157-.09.407-.21.56-.27.155-.062.405-.132.558-.16a3.37 3.37 0 0 1 .558-.046c.157.004.403.035.559.07.152.035.402.117.558.184.153.066.403.199.56.296a6.252 6.252 0 0 1 1.112.922c.157.16.403.434.559.621.156.188.402.512.559.723.156.215.402.582.558.824.152.239.402.645.559.91.152.266.402.715.554 1.004.157.29.407.77.559 1.082.156.309.402.825.559 1.157.156.328.402.875.558 1.222.156.348.403.922.559 1.285l.558 1.336c.153.38.403.997.555 1.383.156.39.406 1.024.559 1.422.156.395.406 1.04.558 1.445.157.403.403 1.059.559 1.465.156.41.402 1.067.558 1.477.153.41.403 1.07.559 1.48.152.407.402 1.063.559 1.469.152.406.402 1.055.554 1.457.157.398.407 1.035.559 1.43.156.39.402 1.015.559 1.398.156.38.402.985.558 1.356.156.367.402.949.559 1.304.152.356.402.91.558 1.25.153.336.403.864.555 1.184.156.316.406.926.559 1.11.156.187.402.195.558.226.156.031.403 0 .559 0H61.828c.156 0 .406.031.559 0 .156-.035.402-.059.558-.25.157-.188.403-.793.559-1.11.152-.32.402-.847.559-1.187.152-.336.402-.895.558-1.25.152-.355.402-.937.555-1.305.156-.37.406-.976.558-1.36.157-.378.403-1.003.559-1.394.156-.394.402-1.03.559-1.433.156-.399.402-1.051.558-1.453.153-.407.403-1.063.559-1.473.152-.41.402-1.07.554-1.48.157-.41.407-1.067.559-1.477.156-.406.402-1.059.559-1.465.156-.402.402-1.047.558-1.445.156-.399.403-1.031.559-1.418a113.232 113.232 0 0 1 1.117-2.719c.152-.363.402-.933.555-1.281.156-.348.406-.895.558-1.227.157-.328.403-.843.559-1.152.156-.313.402-.793.558-1.082a28.064 28.064 0 0 1 1.117-1.91c.153-.239.403-.606.555-.82.157-.211.407-.536.559-.72a8.302 8.302 0 0 1 1.117-1.133c.156-.128.402-.308.559-.405.152-.098.402-.227.558-.293a3.84 3.84 0 0 1 .555-.184c.156-.031.406-.062.559-.066.156-.004.406.02.558.047.156.03.403.101.559.164.156.058.402.183.558.273.153.09.403.266.559.387.152.12.402.344.559.496a11.949 11.949 0 0 1 1.113 1.305c.156.207.402.566.558.8.157.239.403.637.559.899.156.261.402.699.559.984.152.285.402.758.558 1.067.153.304.403.816.555 1.144a82.148 82.148 0 0 1 1.117 2.484c.156.36.402.954.559 1.329.156.375.402.988.558 1.375l.559 1.41c.152.398.402 1.039.558 1.441.153.406.403 1.059.555 1.465.156.406.406 1.066.559 1.477.156.406.402 1.066.558 1.476.157.41.403 1.067.559 1.473.156.406.402 1.058.559 1.46.152.403.402 1.04.558 1.434.152.395.402 1.02.555 1.407l.558 1.363c.157.37.403.957.559 1.316.156.356.402.918.559 1.262.156.34.402.871.558 1.195.153.32.403.91.559 1.125.152.215.402.371.554.434.157.058.407 0 .56 0h9.487c.153 0 .403.004.555 0 .156-.008.406.113.559-.043.156-.16.406-.785.558-1.098.156-.316.403-.84.559-1.172.156-.336.402-.886.558-1.238.157-.351.403-.93.559-1.297l.559-1.347.554-1.391v15.172s-.402-1.012-.554-1.39a107.53 107.53 0 0 0-1.117-2.645c-.157-.352-.403-.907-.56-1.239a55.7 55.7 0 0 0-.558-1.172c-.152-.316-.402-.94-.558-1.097-.153-.16-.403-.04-.559-.043-.152-.008-.402 0-.555 0H97.54c-.152 0-.402-.063-.559 0a1.338 1.338 0 0 0-.554.43c-.156.218-.406.804-.559 1.128-.156.32-.402.856-.558 1.196-.157.34-.403.902-.559 1.258-.156.359-.402.945-.559 1.316-.152.375-.402.98-.558 1.367-.153.383-.403 1.008-.555 1.403-.156.394-.406 1.035-.558 1.437-.157.402-.403 1.05-.56 1.457-.155.406-.401 1.063-.558 1.473-.156.41-.402 1.07-.558 1.48-.153.41-.403 1.067-.559 1.477-.152.406-.402 1.058-.555 1.46l-.558 1.442c-.156.399-.406 1.027-.559 1.414-.156.387-.402 1-.558 1.375-.157.375-.403.965-.559 1.328-.156.36-.402.926-.558 1.274a58.74 58.74 0 0 1-1.114 2.351c-.156.309-.406.785-.558 1.07-.157.282-.403.723-.559.985a20.309 20.309 0 0 1-1.117 1.695c-.152.211-.402.524-.559.707-.152.18-.402.45-.554.602-.157.152-.407.371-.559.496a6.486 6.486 0 0 1-.559.383 4.636 4.636 0 0 1-.558.277 3.752 3.752 0 0 1-.559.16c-.152.032-.402.051-.558.047-.153 0-.403-.031-.559-.066a3.817 3.817 0 0 1-.555-.18 5.1 5.1 0 0 1-.558-.293 7.193 7.193 0 0 1-.559-.406 8.39 8.39 0 0 1-.558-.516 12.588 12.588 0 0 1-.56-.617 20.394 20.394 0 0 1-.558-.723 21.337 21.337 0 0 1-.554-.82 21.558 21.558 0 0 1-.559-.91 38.258 38.258 0 0 1-1.117-2.078 80.863 80.863 0 0 1-.559-1.156c-.152-.332-.402-.875-.558-1.223-.153-.348-.403-.922-.555-1.285a72.564 72.564 0 0 1-.559-1.336 78.254 78.254 0 0 1-.558-1.383c-.156-.387-.403-1.02-.559-1.418-.156-.395-.402-1.04-.558-1.445-.157-.403-.403-1.059-.559-1.465-.152-.41-.402-1.067-.559-1.477-.152-.41-.402-1.07-.554-1.476-.156-.41-.406-1.067-.559-1.473-.156-.406-.402-1.055-.558-1.457-.157-.398-.403-1.039-.559-1.43-.156-.394-.402-1.015-.559-1.398a74.903 74.903 0 0 0-.558-1.356c-.153-.37-.403-.953-.555-1.308-.156-.356-.406-.91-.558-1.25-.157-.336-.407-.863-.56-1.184-.155-.32-.401-.926-.558-1.113-.156-.188-.402-.215-.558-.246-.153-.035-.403 0-.559 0h-9.484c-.157 0-.403-.031-.559 0-.156.031-.402.039-.558.223-.153.187-.403.792-.559 1.113-.152.316-.402.844-.555 1.183-.156.336-.406.895-.558 1.246-.157.356-.403.938-.559 1.31-.156.366-.402.972-.559 1.355-.156.382-.402 1.003-.558 1.398l-.559 1.43c-.152.398-.402 1.047-.554 1.453-.157.406-.407 1.062-.559 1.472-.156.41-.406 1.067-.559 1.477-.156.41-.402 1.07-.558 1.477-.156.41-.403 1.062-.559 1.468-.152.403-.402 1.047-.558 1.446a97.638 97.638 0 0 1-.559 1.418c-.152.39-.402 1.004-.555 1.382-.156.38-.406.973-.558 1.336a84.067 84.067 0 0 1-1.117 2.512c-.157.328-.403.844-.559 1.156a39.763 39.763 0 0 1-1.113 2.082c-.157.266-.407.672-.559.914-.156.239-.402.606-.558.82-.157.216-.403.536-.56.723a11.13 11.13 0 0 1-.558.621 6.766 6.766 0 0 1-1.113.926 5.98 5.98 0 0 1-.559.297 4.024 4.024 0 0 1-.558.18 3.413 3.413 0 0 1-.559.07 3.364 3.364 0 0 1-.558-.043 4.469 4.469 0 0 1-.559-.16 4.896 4.896 0 0 1-.559-.273 5.89 5.89 0 0 1-1.113-.875 12.073 12.073 0 0 1-.558-.602c-.157-.18-.403-.492-.559-.703a17.77 17.77 0 0 1-.559-.8 40.283 40.283 0 0 1-.558-.891 36.982 36.982 0 0 1-1.113-2.051 38.913 38.913 0 0 1-.559-1.14c-.156-.325-.402-.868-.559-1.212-.156-.344-.402-.91-.558-1.273-.153-.36-.403-.95-.559-1.325l-.558-1.374c-.153-.387-.403-1.016-.555-1.41-.156-.4-.406-1.04-.559-1.442-.156-.402-.402-1.055-.558-1.465-.157-.406-.403-1.062-.559-1.473-.156-.41-.402-1.07-.558-1.48-.153-.41-.403-1.066-.56-1.473-.151-.406-.401-1.058-.554-1.46-.156-.403-.406-1.04-.558-1.434-.157-.395-.403-1.024-.559-1.406-.156-.383-.402-.993-.559-1.368-.156-.37-.402-.957-.558-1.316a76.319 76.319 0 0 0-1.113-2.457c-.157-.324-.407-.91-.559-1.129a1.457 1.457 0 0 0-.559-.453c-.156-.063-.402 0-.558 0H7.148c-.156 0-.406-.004-.558 0-.156 0-.402-.137-.559.02-.156.156-.402.78-.558 1.097-.157.313-.403.836-.559 1.168-.152.336-.402.887-.559 1.238-.152.352-.402.93-.554 1.297-.156.363-.406.965-.559 1.344-.156.383-.402 1-.558 1.39-.157.391-.403 1.028-.559 1.426-.156.399-.402 1.047-.559 1.45-.152.406-.402 1.062-.558 1.468l-.555 1.48Zm0 0"/></g><g clip-path="url(#b)"><path fill="none" stroke="#000" stroke-miterlimit="10" stroke-width="1.5762269" d="M.453 28.668s.402 1.066.555 1.477c.156.41.406 1.062.558 1.468.157.407.403 1.051.559 1.453.156.399.402 1.032.559 1.422.156.39.402 1.012.558 1.39.153.38.403.981.559 1.349.152.367.402.945.554 1.296.157.348.407.903.56 1.235.155.336.401.855.558 1.172.156.312.402.941.558 1.093.157.157.403.02.559.024h10.043c.156 0 .402.062.558 0 .153-.063.403-.238.559-.457.152-.219.402-.805.559-1.125a88.7 88.7 0 0 0 1.113-2.461c.156-.356.402-.945.558-1.317.157-.37.403-.98.56-1.363.155-.387.401-1.012.558-1.406.152-.395.402-1.035.558-1.438.153-.402.403-1.05.555-1.457.156-.41.406-1.066.559-1.476.156-.406.402-1.067.558-1.477.156-.41.402-1.066.559-1.476.156-.407.402-1.059.558-1.461.153-.403.403-1.047.559-1.442.152-.398.402-1.027.555-1.414.156-.386.406-.996.558-1.37.156-.376.406-.97.559-1.329.156-.36.402-.93.558-1.273.157-.344.403-.883.559-1.211a51.8 51.8 0 0 1 .559-1.14 38.576 38.576 0 0 1 1.113-2.048c.156-.261.406-.66.558-.894.157-.235.403-.594.559-.801.156-.207.402-.524.559-.703.156-.18.402-.446.558-.598a7.1 7.1 0 0 1 .559-.492c.152-.125.402-.293.555-.387.156-.09.406-.21.558-.27.156-.062.406-.132.559-.16a3.37 3.37 0 0 1 .558-.046c.157.004.403.035.559.07.152.035.402.117.558.184.153.066.403.199.56.296a6.253 6.253 0 0 1 1.112.922c.157.16.403.434.559.621.156.188.402.512.559.723.156.215.402.582.558.824.152.239.402.645.559.91.152.266.402.715.554 1.004.157.29.407.77.559 1.082.156.309.402.825.559 1.157.156.328.402.875.558 1.222.156.348.403.922.559 1.285l.558 1.336c.153.38.403.996.555 1.383.156.39.406 1.024.559 1.422.156.395.406 1.04.558 1.445.157.403.403 1.059.559 1.465.156.41.402 1.067.558 1.477.153.41.403 1.07.559 1.48.152.407.402 1.063.559 1.469.152.406.402 1.055.554 1.457.157.398.407 1.035.559 1.43.156.39.402 1.015.559 1.398.156.38.402.985.558 1.356.156.367.402.949.559 1.304.152.356.402.91.558 1.25.153.336.403.864.555 1.184.156.316.406.926.559 1.11.156.187.402.195.558.226.156.031.403 0 .559 0H61.828c.156 0 .406.031.559 0 .156-.035.402-.059.558-.25.157-.188.403-.793.559-1.11.152-.32.402-.847.559-1.187.152-.336.402-.895.558-1.25.152-.355.402-.938.555-1.305.156-.37.406-.976.558-1.36.157-.378.403-1.003.559-1.394.156-.394.402-1.03.559-1.433.156-.399.402-1.051.558-1.453.153-.407.403-1.063.559-1.473.152-.41.402-1.07.554-1.48.157-.41.407-1.067.559-1.477.156-.406.402-1.059.559-1.465.156-.402.402-1.047.558-1.445.156-.399.403-1.031.559-1.418a113.226 113.226 0 0 1 1.117-2.719c.152-.363.402-.933.555-1.281.156-.348.406-.895.558-1.227.157-.328.403-.843.559-1.152.156-.313.402-.793.558-1.082a28.064 28.064 0 0 1 1.117-1.91c.153-.239.403-.606.555-.82.157-.211.407-.536.559-.72a8.303 8.303 0 0 1 1.117-1.133c.156-.128.402-.308.559-.405.152-.098.402-.227.558-.293a3.84 3.84 0 0 1 .555-.184c.156-.031.406-.062.559-.066.156-.004.406.02.558.047.156.03.403.101.559.164.156.058.402.183.558.273.153.09.403.266.559.387.152.12.402.344.559.496a11.949 11.949 0 0 1 1.113 1.305c.156.207.402.566.558.8.157.239.403.637.559.899.156.261.402.699.559.984.152.285.402.758.558 1.067.153.304.403.816.555 1.144.156.324.406.863.559 1.211.156.344.402.91.558 1.273.156.36.402.954.559 1.329.156.375.402.988.558 1.375l.559 1.41c.152.398.402 1.039.558 1.441.153.406.403 1.059.555 1.465.156.406.406 1.066.559 1.477.156.406.402 1.066.558 1.476.157.41.403 1.067.559 1.473.156.406.402 1.058.559 1.46.152.403.402 1.04.558 1.434.152.395.402 1.02.555 1.407l.558 1.363c.157.37.403.957.559 1.316.156.356.402.918.559 1.262.156.34.402.871.558 1.195.153.32.403.91.559 1.125.152.215.402.371.554.434.157.058.407 0 .56 0H107.026c.153 0 .403.004.555 0 .156-.008.406.113.559-.043.156-.16.406-.785.558-1.098.156-.316.403-.84.559-1.172.156-.336.402-.886.558-1.238.157-.351.403-.93.559-1.297l.559-1.347.554-1.391"/></g><g clip-path="url(#c)"><path fill="none" stroke="#000" stroke-miterlimit="10" stroke-width="1.5762269" d="m.453 55.426.555-1.48c.156-.407.406-1.063.558-1.47.157-.402.403-1.05.559-1.449.156-.398.402-1.035.559-1.425.156-.391.402-1.008.558-1.391.153-.379.403-.98.559-1.344.152-.367.402-.945.554-1.297.157-.351.407-.902.56-1.238.155-.332.401-.855.558-1.168.156-.316.402-.941.558-1.098.157-.156.403-.02.559-.02.152-.003.402 0 .558 0h9.485c.156 0 .402-.062.558 0 .153.063.403.235.559.454.152.219.402.805.559 1.129a70.385 70.385 0 0 1 1.113 2.457c.156.36.402.945.558 1.316.157.375.403.985.56 1.368.155.382.401 1.011.558 1.406.152.394.402 1.031.558 1.433.153.403.403 1.055.555 1.461.156.407.406 1.063.559 1.473.156.41.402 1.07.558 1.48.156.41.402 1.067.559 1.473.156.41.402 1.063.558 1.465.153.402.403 1.043.559 1.441.152.395.402 1.024.555 1.41l.558 1.375c.156.375.406.965.559 1.325.156.363.402.93.558 1.273.157.344.403.887.559 1.211.152.328.402.836.559 1.14a36.981 36.981 0 0 0 1.113 2.05c.156.26.406.658.558.892.157.238.403.594.559.8.156.212.402.524.559.704.156.18.402.45.558.602.153.148.403.37.559.492.152.12.402.293.555.383.156.09.406.214.558.273.156.059.406.129.559.16.156.028.402.047.558.043.157-.004.403-.035.559-.07.152-.035.402-.113.558-.18.153-.07.403-.2.56-.297a6.765 6.765 0 0 0 1.113-.926c.156-.156.402-.433.558-.62.156-.188.402-.508.559-.723.156-.215.402-.582.558-.82.152-.243.402-.649.559-.915a38.338 38.338 0 0 0 1.113-2.082c.156-.312.402-.828.559-1.156a84.06 84.06 0 0 0 1.117-2.512c.152-.363.402-.957.558-1.336.153-.378.403-.992.555-1.382.156-.387.406-1.02.559-1.418.156-.399.406-1.043.558-1.446.157-.406.403-1.058.559-1.468.156-.407.402-1.067.558-1.477.153-.41.403-1.066.559-1.477.152-.41.402-1.066.559-1.472.152-.406.402-1.055.554-1.453l.559-1.43c.156-.395.402-1.016.559-1.398.156-.383.402-.989.558-1.356.156-.371.402-.953.559-1.309.152-.351.402-.91.558-1.246.153-.34.403-.867.555-1.183.156-.32.406-.926.559-1.113.156-.184.402-.192.558-.223.156-.031.403 0 .559 0H61.828c.156 0 .406-.035.559 0 .156.031.402.058.558.246.157.187.403.793.559 1.113.152.32.402.848.559 1.184.152.34.402.894.558 1.25.152.355.402.937.555 1.308.156.368.406.973.558 1.356.157.383.403 1.004.559 1.398.156.391.402 1.032.559 1.43.156.402.402 1.05.558 1.457.153.406.403 1.063.559 1.473.152.406.402 1.066.554 1.476.157.41.407 1.067.559 1.477.156.406.402 1.062.559 1.465.156.406.402 1.05.558 1.445.156.398.403 1.031.559 1.418.152.39.402 1.008.558 1.383.153.379.403.972.559 1.336.152.363.402.937.555 1.285.156.348.406.89.558 1.223.157.328.403.843.559 1.156a38.257 38.257 0 0 0 1.117 2.078c.152.266.402.672.559.91.152.242.402.606.554.82.157.215.407.536.559.723.156.184.402.461.559.617.156.16.402.387.558.516.156.125.402.308.559.406a5.1 5.1 0 0 0 .558.293c.153.066.403.145.555.18.156.035.406.066.559.066.156.004.406-.015.558-.047.156-.027.403-.101.559-.16.156-.062.402-.183.558-.277.153-.09.403-.262.559-.383.152-.125.402-.344.559-.496.152-.152.402-.422.554-.602.157-.183.407-.496.559-.707.156-.207.402-.566.558-.8.157-.235.403-.637.559-.895.156-.262.402-.703.559-.984.152-.286.402-.762.558-1.07a58.736 58.736 0 0 0 1.113-2.352c.157-.348.403-.914.56-1.274.155-.363.401-.953.558-1.328.156-.375.402-.988.558-1.375.153-.387.403-1.015.559-1.414l.558-1.441c.153-.403.403-1.055.555-1.461.156-.41.406-1.067.559-1.477.156-.41.402-1.07.558-1.48.157-.41.403-1.067.559-1.473.156-.406.402-1.055.559-1.457.152-.402.402-1.043.558-1.437.152-.395.402-1.02.555-1.403.156-.387.406-.992.558-1.367.157-.371.403-.957.559-1.316.156-.356.402-.918.559-1.258.156-.34.402-.875.558-1.196.153-.324.403-.91.559-1.128.152-.215.402-.372.554-.43.157-.063.407 0 .56 0H107.026c.153 0 .403-.008.555 0 .156.004.406-.117.559.043.156.156.406.781.558 1.097.156.313.403.836.559 1.172.156.332.402.887.558 1.239a107.524 107.524 0 0 1 1.118 2.644l.554 1.39"/></g></svg>