<svg xmlns="http://www.w3.org/2000/svg" width="115.609" height="85.041"><defs><clipPath id="a"><path d="M.453 3h111.04v78H.452Zm0 0"/></clipPath><clipPath id="b"><path d="M.453 0h111.04v65H.452Zm0 0"/></clipPath><clipPath id="c"><path d="M.453 19h111.04v65.094H.452Zm0 0"/></clipPath></defs><g clip-path="url(#a)"><path fill="#7F7F7F" fill-opacity=".5" d="m.453 22.934.555 1.476.558 1.469c.157.406.403 1.055.559 1.453.156.398.402 1.031.559 1.422.156.39.402 1.012.558 1.39.153.38.403.981.559 1.348.152.367.402.945.554 1.297a66.841 66.841 0 0 0 1.117 2.406c.157.313.403.801.56 1.098.155.293.402.746.558 1.016a25.43 25.43 0 0 0 1.113 1.77c.156.218.406.55.559.741.156.192.406.477.558.64.157.165.403.403.559.54a5.102 5.102 0 0 0 1.117.746 3.039 3.039 0 0 0 1.113.293c.157.012.407 0 .559-.023a3.234 3.234 0 0 0 1.117-.387c.156-.086.402-.246.559-.363a7.34 7.34 0 0 0 .558-.473 9.89 9.89 0 0 0 .555-.578c.156-.176.406-.48.559-.684.156-.203.406-.55.558-.781.156-.23.403-.621.559-.875.156-.258.402-.687.558-.969.153-.277.403-.746.559-1.05.152-.301.402-.805.559-1.126.152-.324.402-.855.554-1.199.157-.34.407-.902.559-1.261.156-.356.402-.946.558-1.317.157-.371.403-.98.56-1.363.155-.387.401-1.012.558-1.406.152-.395.402-1.036.558-1.438.153-.402.403-1.05.555-1.457.156-.406.406-1.066.559-1.473.156-.41.402-1.07.558-1.48.156-.41.402-1.066.559-1.477.156-.406.402-1.058.558-1.46.153-.403.403-1.047.559-1.442.152-.395.402-1.027.555-1.41l.558-1.375c.156-.375.406-.965.559-1.328.156-.36.402-.926.558-1.274.157-.343.403-.883.559-1.207.152-.328.402-.836.559-1.144a36.982 36.982 0 0 1 1.113-2.047c.156-.262.406-.66.558-.895.157-.234.403-.59.559-.8.156-.207.402-.52.559-.704.156-.18.402-.445.558-.597a7.1 7.1 0 0 1 .559-.492c.152-.122.402-.293.554-.387.157-.09.407-.211.56-.27.155-.062.405-.132.558-.16.156-.027.402-.047.558-.047.157.004.403.035.559.07.152.036.402.118.558.184.153.067.403.2.56.297a6.252 6.252 0 0 1 1.112.922c.157.16.403.437.559.621a16.797 16.797 0 0 1 1.117 1.547c.152.238.402.648.559.914a38.34 38.34 0 0 1 1.113 2.082c.156.309.402.824.559 1.156.156.328.402.875.558 1.223.156.348.403.922.559 1.285.152.363.402.961.558 1.34.153.375.403.992.555 1.383.156.386.406 1.02.559 1.418.156.394.406 1.043.558 1.445.157.406.403 1.059.559 1.465l.558 1.476c.153.41.403 1.07.559 1.48.152.411.402 1.063.559 1.47.152.406.402 1.054.554 1.457a173.879 173.879 0 0 0 1.117 2.828c.157.383.403.984.56 1.355.155.367.401.95.558 1.305.152.355.402.91.558 1.25.153.336.403.863.555 1.184.156.316.406.812.559 1.109.156.297.402.758.558 1.035.156.274.403.695.559.945.156.25.402.633.558.86.153.222.403.562.559.761.152.196.402.493.559.66.152.169.402.419.554.555.156.141.406.34.559.45.156.109.402.261.558.34.157.078.403.18.559.226.156.047.402.098.559.113.152.016.402.016.558 0a3.12 3.12 0 0 0 .555-.117c.156-.047.406-.148.558-.227a6.16 6.16 0 0 0 .56-.343c.155-.11.401-.309.558-.45.156-.14.402-.39.558-.558.153-.172.403-.469.559-.664.152-.2.402-.54.555-.766.156-.222.406-.605.558-.86.156-.25.406-.671.559-.948.156-.274.402-.735.558-1.032.157-.3.403-.796.559-1.113.152-.32.402-.848.559-1.187.152-.336.402-.895.558-1.25.152-.352.402-.938.555-1.305.156-.371.406-.977.558-1.356.157-.382.403-1.007.559-1.398.156-.395.402-1.031.559-1.434.156-.398.402-1.046.558-1.453.153-.406.403-1.062.559-1.472.152-.41.402-1.067.554-1.477.157-.41.407-1.07.559-1.476.156-.41.402-1.063.559-1.47.156-.402.402-1.046.558-1.445.156-.398.403-1.027.559-1.418.152-.386.402-1.003.558-1.378.153-.38.403-.977.559-1.34.152-.364.402-.934.555-1.281.156-.348.406-.895.558-1.223.157-.332.403-.848.559-1.156.156-.309.402-.793.558-1.082.157-.286.403-.73.56-.997a21.13 21.13 0 0 1 1.113-1.73c.156-.215.406-.535.558-.723.156-.187.402-.46.559-.62a6.295 6.295 0 0 1 1.117-.918c.152-.098.402-.227.558-.294.153-.066.403-.148.555-.18.156-.035.406-.066.559-.07.156 0 .406.02.558.047.156.031.403.102.559.164.156.059.402.184.558.274.153.093.403.265.559.386.152.122.402.344.559.497.152.152.402.417.554.601.156.18.406.496.559.703a20.51 20.51 0 0 1 1.117 1.7c.156.261.402.699.559.984.152.285.402.761.558 1.066a63.301 63.301 0 0 1 1.114 2.356c.156.343.402.914.558 1.273.156.36.402.953.559 1.328.156.375.402.989.558 1.375l.559 1.41c.152.399.402 1.04.558 1.446.153.402.403 1.054.555 1.46.156.407.406 1.067.559 1.477.156.41.402 1.067.558 1.477.157.41.403 1.066.559 1.472.156.41.402 1.059.559 1.461.152.403.402 1.043.558 1.434.152.394.402 1.023.555 1.406l.558 1.363c.157.372.403.961.559 1.317a70.166 70.166 0 0 0 1.117 2.457 51.608 51.608 0 0 0 1.113 2.176 26.555 26.555 0 0 0 1.117 1.836c.157.23.403.578.56.78a13 13 0 0 0 .558.68c.152.176.402.434.558.579.153.144.403.355.559.468.152.118.402.278.555.364a4.6 4.6 0 0 0 .558.246c.157.054.403.113.559.137.156.02.402.03.558.02a3.09 3.09 0 0 0 .56-.095c.151-.039.401-.133.558-.207a5.057 5.057 0 0 0 1.113-.75 8.933 8.933 0 0 0 1.117-1.183c.156-.192.403-.524.559-.742.152-.223.402-.598.558-.844.153-.246.403-.66.555-.93a40.975 40.975 0 0 0 1.117-2.117c.156-.317.403-.84.559-1.172.156-.336.402-.887.558-1.238.157-.352.403-.93.559-1.297l.559-1.348.554-1.39v26.636l-.554-1.39-.559-1.348a75.982 75.982 0 0 0-1.117-2.531 55.697 55.697 0 0 0-1.117-2.274 30.428 30.428 0 0 0-.559-1.015 28.138 28.138 0 0 0-.555-.934 28.512 28.512 0 0 0-.558-.84 15.458 15.458 0 0 0-.559-.746 13.54 13.54 0 0 0-.558-.644 10.21 10.21 0 0 0-.559-.54 6.886 6.886 0 0 0-.559-.43 5.779 5.779 0 0 0-.554-.32 4.875 4.875 0 0 0-.559-.206 3.476 3.476 0 0 0-.558-.094c-.157-.008-.403 0-.56.023-.155.02-.401.078-.558.133a4.64 4.64 0 0 0-.558.25 4.938 4.938 0 0 0-.555.36 6.705 6.705 0 0 0-.559.468 9.88 9.88 0 0 0-.558.578c-.156.176-.403.477-.559.68-.156.203-.402.55-.558.781-.153.23-.403.621-.559.875a40.14 40.14 0 0 0-.559.965c-.152.277-.402.746-.554 1.047-.156.3-.406.805-.559 1.125-.156.324-.402.855-.558 1.2-.157.339-.403.901-.559 1.257-.156.36-.402.945-.559 1.316-.152.371-.402.98-.558 1.364-.153.386-.403 1.011-.555 1.406-.156.394-.406 1.035-.558 1.437-.157.399-.403 1.051-.56 1.457-.155.407-.401 1.063-.558 1.473-.156.41-.402 1.07-.558 1.48-.153.41-.403 1.067-.559 1.473-.152.41-.402 1.063-.555 1.465l-.558 1.441-.559 1.415c-.156.386-.402.996-.558 1.37-.157.376-.403.97-.559 1.329a82.148 82.148 0 0 1-1.117 2.488c-.152.324-.402.836-.555 1.14-.156.31-.406.786-.558 1.067-.157.285-.403.727-.559.984-.156.262-.402.665-.559.899-.156.234-.402.594-.558.8-.153.212-.403.524-.559.708-.152.18-.402.449-.554.601a8.854 8.854 0 0 1-.559.492 5.768 5.768 0 0 1-.559.387 4.636 4.636 0 0 1-.558.278 3.752 3.752 0 0 1-.559.16c-.152.027-.402.05-.558.047a3.456 3.456 0 0 1-.559-.067 4.36 4.36 0 0 1-.555-.18 4.537 4.537 0 0 1-.558-.296 6.232 6.232 0 0 1-.559-.403 9.588 9.588 0 0 1-.558-.515 12.588 12.588 0 0 1-.56-.618 20.394 20.394 0 0 1-.558-.722 21.338 21.338 0 0 1-.554-.82 21.559 21.559 0 0 1-.559-.91c-.156-.266-.402-.712-.559-1-.156-.29-.402-.77-.558-1.083a64.16 64.16 0 0 1-.559-1.152c-.152-.332-.402-.875-.558-1.223-.153-.347-.403-.922-.555-1.285a86.03 86.03 0 0 1-.559-1.336 92.547 92.547 0 0 1-.558-1.383c-.156-.386-.403-1.02-.559-1.418-.156-.394-.402-1.043-.558-1.445-.157-.402-.403-1.059-.559-1.465-.152-.41-.402-1.066-.559-1.476-.152-.41-.402-1.07-.554-1.48-.156-.407-.406-1.063-.559-1.47-.156-.406-.402-1.054-.558-1.457-.157-.398-.403-1.039-.559-1.43-.156-.394-.402-1.015-.559-1.398a74.906 74.906 0 0 0-.558-1.355c-.153-.371-.403-.953-.555-1.309-.156-.355-.406-.91-.558-1.25-.157-.336-.407-.867-.56-1.183-.155-.32-.401-.817-.558-1.114a49.717 49.717 0 0 0-.558-1.035c-.153-.273-.403-.699-.559-.949a21.82 21.82 0 0 0-.558-.86 16.085 16.085 0 0 0-.555-.761 14.65 14.65 0 0 0-.559-.664 7.107 7.107 0 0 0-1.117-1.012 5.341 5.341 0 0 0-.559-.34 3.587 3.587 0 0 0-.558-.23 3.495 3.495 0 0 0-.555-.114 2.968 2.968 0 0 0-.558-.003 3.541 3.541 0 0 0-.559.113 4.187 4.187 0 0 0-.559.226 5.34 5.34 0 0 0-.558.34 7.82 7.82 0 0 0-.559.45 10.76 10.76 0 0 0-1.113 1.219 13.75 13.75 0 0 0-.559.761 23.27 23.27 0 0 0-.558.855c-.157.25-.403.676-.559.95a41.07 41.07 0 0 0-.558 1.03c-.153.298-.403.794-.559 1.114-.152.317-.402.844-.555 1.184-.156.336-.406.894-.558 1.246-.157.355-.403.937-.559 1.308-.156.368-.402.973-.559 1.356-.156.379-.402 1.004-.558 1.394-.152.395-.402 1.032-.559 1.434-.152.398-.402 1.047-.554 1.453-.157.406-.407 1.063-.559 1.473-.156.406-.406 1.066-.559 1.476-.156.41-.402 1.07-.558 1.477-.156.41-.403 1.062-.559 1.465-.152.406-.402 1.05-.558 1.449a119.15 119.15 0 0 1-.559 1.418c-.152.387-.402 1.004-.555 1.383l-.558 1.336c-.156.363-.403.937-.559 1.285-.156.348-.402.894-.558 1.226-.157.329-.403.844-.559 1.157a39.763 39.763 0 0 1-1.113 2.082c-.157.265-.407.672-.559.914-.156.238-.402.605-.558.82-.157.215-.403.535-.56.723a11.13 11.13 0 0 1-.558.62c-.152.161-.402.388-.558.516a6.316 6.316 0 0 1-.555.41 5.922 5.922 0 0 1-.559.294 4.052 4.052 0 0 1-.558.183 3.413 3.413 0 0 1-.559.07 2.996 2.996 0 0 1-.558-.046 3.866 3.866 0 0 1-.559-.157 5.647 5.647 0 0 1-.559-.273 5.89 5.89 0 0 1-.554-.383 7.17 7.17 0 0 1-.559-.496 10.453 10.453 0 0 1-1.117-1.3 17.77 17.77 0 0 1-.559-.802 33.182 33.182 0 0 1-.558-.894 38.576 38.576 0 0 1-1.113-2.047 44.44 44.44 0 0 1-.559-1.14 90.57 90.57 0 0 1-.559-1.211c-.156-.344-.402-.91-.558-1.274a281.7 281.7 0 0 1-.559-1.328c-.152-.371-.402-.984-.558-1.371-.153-.387-.403-1.016-.555-1.414-.156-.395-.406-1.035-.559-1.442-.156-.402-.402-1.054-.558-1.46-.157-.407-.403-1.067-.559-1.477-.156-.406-.402-1.066-.558-1.477-.153-.41-.403-1.066-.56-1.472-.151-.407-.401-1.059-.554-1.461-.156-.403-.406-1.043-.558-1.438-.157-.39-.403-1.02-.559-1.402-.156-.387-.402-.992-.559-1.367-.156-.371-.402-.957-.558-1.317-.152-.36-.402-.918-.559-1.261-.152-.34-.402-.875-.554-1.196a76.699 76.699 0 0 0-.559-1.129c-.156-.3-.406-.77-.559-1.05a24.643 24.643 0 0 0-1.117-1.844c-.152-.23-.402-.578-.558-.781a12.78 12.78 0 0 0-.559-.684 11.302 11.302 0 0 0-.555-.578 9.725 9.725 0 0 0-.558-.473 5.652 5.652 0 0 0-.559-.363 5.006 5.006 0 0 0-.558-.25 3.637 3.637 0 0 0-.559-.137 3.326 3.326 0 0 0-.559-.023c-.152.008-.402.05-.554.09a3.864 3.864 0 0 0-.559.207c-.156.07-.402.215-.559.316a7.64 7.64 0 0 0-.558.43 8.84 8.84 0 0 0-.559.535c-.152.164-.402.45-.558.64-.153.196-.403.524-.559.743a22.685 22.685 0 0 0-1.113 1.773c-.156.27-.402.723-.559 1.016a47.56 47.56 0 0 0-.558 1.097c-.157.313-.403.836-.559 1.168-.152.336-.402.887-.559 1.239-.152.351-.402.93-.554 1.293-.156.367-.406.968-.559 1.347-.156.38-.402 1-.558 1.39-.157.392-.403 1.028-.559 1.427-.156.398-.402 1.043-.559 1.449-.152.406-.402 1.062-.558 1.469-.153.41-.555 1.476-.555 1.476Zm0 0"/></g><g clip-path="url(#b)"><path fill="none" stroke="#000" stroke-miterlimit="10" stroke-width="1.5762269" d="m.453 22.934.555 1.476.558 1.469c.157.406.403 1.055.559 1.453.156.398.402 1.031.559 1.422.156.39.402 1.012.558 1.39.153.38.403.981.559 1.348.152.367.402.945.554 1.297a66.839 66.839 0 0 0 1.117 2.406c.157.313.403.801.56 1.098.156.293.402.746.558 1.016a25.429 25.429 0 0 0 1.113 1.77c.156.218.406.55.559.741.156.192.406.477.558.64.157.165.403.403.559.54a5.102 5.102 0 0 0 1.117.746 3.039 3.039 0 0 0 1.113.293c.157.012.407 0 .559-.023a3.234 3.234 0 0 0 1.117-.387c.156-.086.403-.246.559-.363a7.34 7.34 0 0 0 .558-.473 9.89 9.89 0 0 0 .555-.578c.156-.176.406-.48.559-.684.156-.203.406-.55.558-.781.156-.23.403-.621.559-.875a35.6 35.6 0 0 0 .558-.969c.153-.277.403-.746.559-1.05.152-.301.402-.805.559-1.126.152-.324.402-.855.554-1.199.157-.34.407-.902.559-1.261.156-.356.402-.946.558-1.317.157-.371.403-.98.56-1.363.155-.387.401-1.012.558-1.406.152-.395.402-1.036.558-1.438.153-.402.403-1.05.555-1.457.156-.406.406-1.066.559-1.473.156-.41.402-1.07.558-1.48.156-.41.402-1.066.559-1.477.156-.406.402-1.058.558-1.46.153-.403.403-1.047.559-1.442.152-.395.402-1.027.555-1.41l.558-1.375c.156-.375.406-.965.559-1.328.156-.36.402-.926.558-1.274.157-.343.403-.883.559-1.207.152-.328.402-.836.559-1.144a36.981 36.981 0 0 1 1.113-2.047c.156-.262.406-.66.558-.895.157-.234.403-.59.559-.8.156-.207.402-.52.559-.704.156-.18.402-.445.558-.597a7.1 7.1 0 0 1 .559-.492c.152-.122.402-.293.555-.387.156-.09.406-.211.558-.27.156-.062.406-.132.559-.16a3.85 3.85 0 0 1 .558-.047c.157.004.403.035.559.07.152.036.402.118.558.184.153.067.403.2.56.297a6.253 6.253 0 0 1 1.112.922c.157.16.403.437.559.621a16.796 16.796 0 0 1 1.117 1.547c.152.238.402.648.559.914a38.338 38.338 0 0 1 1.113 2.082c.156.309.402.824.559 1.156.156.328.402.875.558 1.223.156.348.403.922.559 1.285.152.363.402.961.558 1.34.153.375.403.992.555 1.383.156.386.406 1.02.559 1.418.156.394.406 1.043.558 1.445.157.406.403 1.059.559 1.465l.558 1.476c.153.41.403 1.07.559 1.48.152.411.402 1.063.559 1.47.152.406.402 1.054.554 1.457a173.88 173.88 0 0 0 1.117 2.828c.157.383.403.984.56 1.355.155.367.401.95.558 1.305.152.355.402.91.558 1.25.153.336.403.863.555 1.184.156.316.406.812.559 1.109.156.297.402.758.558 1.035.156.274.403.695.559.945.156.25.402.633.558.86.153.222.403.562.559.761.152.196.402.493.559.66.152.169.402.419.554.555.156.141.406.34.559.45.156.109.402.261.558.34.157.078.403.18.559.226.156.047.402.098.559.113.152.016.402.016.558 0a3.12 3.12 0 0 0 .555-.117c.156-.047.406-.148.558-.227a6.16 6.16 0 0 0 .56-.343c.155-.11.401-.309.558-.45.156-.14.402-.39.558-.558.153-.172.403-.469.559-.664.152-.2.402-.54.555-.766.156-.222.406-.605.558-.86.156-.25.406-.671.559-.948.156-.274.402-.735.558-1.032.157-.3.403-.796.559-1.113.152-.32.402-.848.559-1.187.152-.336.402-.895.558-1.25.152-.352.402-.938.555-1.305.156-.371.406-.977.558-1.356.157-.382.403-1.007.559-1.398.156-.395.402-1.031.559-1.434.156-.398.402-1.046.558-1.453.153-.406.403-1.062.559-1.472.152-.41.402-1.067.554-1.477.157-.41.407-1.07.559-1.476.156-.41.402-1.063.559-1.47.156-.402.402-1.046.558-1.445.156-.398.403-1.027.559-1.418.152-.386.402-1.003.558-1.378.153-.38.403-.977.559-1.34.152-.364.402-.934.555-1.282.156-.347.406-.894.558-1.222.157-.332.403-.848.559-1.156.156-.309.402-.793.558-1.082.157-.286.403-.73.56-.997a21.129 21.129 0 0 1 1.113-1.73c.156-.215.406-.535.558-.723.156-.187.402-.46.559-.62a6.294 6.294 0 0 1 1.117-.918c.152-.098.402-.227.558-.294.153-.066.403-.148.555-.18.156-.035.406-.066.559-.07.156 0 .406.02.558.047.156.031.403.102.559.164.156.059.402.184.558.274.153.093.403.265.559.386.152.121.402.344.559.496.152.153.402.418.554.602.157.18.407.496.559.703a20.51 20.51 0 0 1 1.117 1.7c.156.261.402.699.559.984.152.285.402.761.558 1.066a63.295 63.295 0 0 1 1.114 2.356c.156.343.402.914.558 1.273.156.36.402.953.559 1.328.156.375.402.988.558 1.375l.559 1.41c.152.399.402 1.04.558 1.446.153.402.403 1.054.555 1.46.156.407.406 1.067.559 1.477.156.41.402 1.067.558 1.477.157.41.403 1.066.559 1.472.156.41.402 1.059.559 1.461.152.403.402 1.043.558 1.434.152.394.402 1.023.555 1.406l.558 1.363c.157.372.403.961.559 1.317a70.17 70.17 0 0 0 1.117 2.457 51.608 51.608 0 0 0 1.113 2.176 26.555 26.555 0 0 0 1.117 1.836c.157.23.403.578.56.78.156.204.402.509.558.68.152.176.402.434.558.579.153.144.403.355.559.468.152.118.402.278.555.364a4.6 4.6 0 0 0 .558.246c.157.054.403.113.559.137.156.02.402.03.559.02a3.09 3.09 0 0 0 .558-.095c.152-.039.402-.133.559-.207a5.057 5.057 0 0 0 1.113-.75 8.933 8.933 0 0 0 1.117-1.183c.156-.192.403-.524.559-.743.152-.222.402-.597.558-.843.153-.246.403-.66.555-.93a40.976 40.976 0 0 0 1.117-2.117c.156-.317.403-.84.559-1.172.156-.336.402-.887.558-1.238.157-.352.403-.93.559-1.297l.559-1.348.554-1.39"/></g><g clip-path="url(#c)"><path fill="none" stroke="#000" stroke-miterlimit="10" stroke-width="1.5762269" d="M.453 61.156s.402-1.066.555-1.476c.156-.407.406-1.063.558-1.47.157-.405.403-1.05.559-1.448.156-.399.402-1.035.559-1.426.156-.39.402-1.012.558-1.39.153-.38.403-.981.559-1.348.152-.364.402-.942.554-1.293.157-.352.407-.903.56-1.239A47.56 47.56 0 0 1 6.031 47.8c.156-.292.402-.745.558-1.015a22.684 22.684 0 0 1 1.113-1.773c.156-.219.406-.547.559-.742.156-.192.406-.477.558-.641a8.84 8.84 0 0 1 .559-.535 7.64 7.64 0 0 1 .559-.43c.156-.102.402-.246.558-.316.152-.075.402-.164.559-.207.152-.04.402-.082.554-.09.157-.008.407 0 .559.023.156.024.402.082.559.137.156.055.402.168.558.25.156.086.403.246.559.363.152.117.402.328.558.473.153.144.403.406.555.578.156.176.406.48.559.684.156.203.406.55.558.78.156.231.403.622.559.88.156.254.402.687.558.965.153.28.403.75.559 1.05.152.301.402.805.559 1.13a70.385 70.385 0 0 1 1.113 2.456c.156.36.402.946.558 1.317.157.375.403.98.56 1.367.155.383.401 1.012.558 1.402.152.395.402 1.035.558 1.438.153.402.403 1.054.555 1.46.156.407.406 1.063.559 1.473.156.41.402 1.07.558 1.477.156.41.402 1.07.559 1.476.156.407.402 1.06.558 1.461.153.407.403 1.047.559 1.442.152.398.402 1.027.555 1.414.156.387.406 1 .558 1.371.156.375.406.969.559 1.328.156.363.402.93.558 1.274.157.343.403.882.559 1.21a44.443 44.443 0 0 0 1.117 2.207c.153.286.403.723.555.981.156.262.406.66.558.894.157.239.403.594.559.801a10.454 10.454 0 0 0 1.117 1.3c.153.153.403.376.559.497.152.121.402.293.555.383.156.09.406.21.558.273.156.059.406.13.559.157.156.03.402.05.558.047.157-.004.403-.036.559-.07.152-.036.402-.118.558-.184.153-.067.403-.2.56-.293.151-.098.401-.282.554-.41.156-.13.406-.356.558-.516.157-.156.403-.434.559-.621.156-.188.402-.508.559-.723.156-.215.402-.582.558-.82.152-.242.402-.649.559-.914a38.338 38.338 0 0 0 1.113-2.082c.156-.313.402-.828.559-1.157.156-.332.402-.878.558-1.226.156-.348.403-.922.559-1.285l.558-1.336c.153-.38.403-.996.555-1.383.156-.39.406-1.02.559-1.418.156-.398.406-1.043.558-1.45.157-.402.403-1.054.559-1.464.156-.406.402-1.066.558-1.477.153-.41.403-1.07.559-1.476.152-.41.402-1.067.559-1.473.152-.406.402-1.055.554-1.453.157-.402.407-1.039.559-1.434.156-.39.402-1.015.559-1.394.156-.383.402-.988.558-1.356.156-.37.402-.953.559-1.308.152-.352.402-.91.558-1.246.153-.34.403-.867.555-1.184.156-.32.406-.816.559-1.113.156-.297.402-.758.558-1.031.156-.274.403-.7.559-.95.156-.25.402-.632.558-.855.153-.227.403-.566.559-.762a10.76 10.76 0 0 1 1.113-1.219c.156-.14.406-.34.559-.449.156-.11.402-.261.558-.34.157-.078.403-.18.559-.226.156-.047.402-.098.559-.113.152-.016.402-.016.558.003.153.016.403.067.555.114.156.047.406.148.558.23.157.078.403.23.56.34a7.107 7.107 0 0 1 1.116 1.012c.153.168.403.465.559.664.152.195.402.535.555.762.156.226.406.609.558.859.156.25.406.676.559.95.156.277.402.737.558 1.034a49.194 49.194 0 0 1 1.118 2.297c.152.34.402.895.558 1.25.152.356.402.938.555 1.309.156.367.406.972.558 1.355.157.383.403 1.004.559 1.399.156.39.402 1.031.559 1.43.156.402.402 1.05.558 1.456.153.407.403 1.063.559 1.47.152.41.402 1.07.554 1.48.157.41.407 1.066.559 1.476.156.406.402 1.063.559 1.465.156.402.402 1.05.558 1.445.156.399.403 1.032.559 1.418.152.391.402 1.004.558 1.383.153.375.403.973.559 1.336.152.363.402.938.555 1.285.156.348.406.89.558 1.223.157.328.403.844.559 1.152.156.313.402.793.558 1.082.157.29.403.735.56 1 .151.266.401.672.558.91.152.243.402.606.554.82.157.216.407.536.559.723.156.184.402.461.559.618.156.156.402.386.558.515.156.125.402.309.559.403.152.097.402.23.558.296.153.063.403.145.555.18.156.035.406.063.559.067.156.003.406-.02.558-.047.156-.028.403-.102.559-.16.156-.063.402-.184.558-.278.153-.09.403-.262.559-.387.152-.12.402-.34.559-.492.152-.152.402-.422.554-.601.157-.184.407-.496.559-.707.156-.207.402-.567.558-.801.157-.235.403-.637.559-.899.156-.257.402-.699.559-.984.152-.281.402-.758.558-1.066a62.776 62.776 0 0 0 1.114-2.356c.156-.344.402-.91.558-1.273.156-.36.402-.953.559-1.328.156-.375.402-.985.558-1.371l.559-1.415.558-1.44c.153-.403.403-1.056.555-1.466.156-.406.406-1.062.559-1.472.156-.41.402-1.07.558-1.48.157-.411.403-1.067.559-1.474.156-.406.402-1.058.559-1.457.152-.402.402-1.043.558-1.437.152-.395.402-1.02.555-1.406l.558-1.364c.157-.37.403-.957.559-1.316.156-.356.402-.918.559-1.258.156-.344.402-.875.558-1.2a43.158 43.158 0 0 1 1.113-2.17c.157-.282.407-.712.56-.966.155-.254.405-.644.558-.875.156-.23.402-.578.558-.781.157-.203.403-.504.559-.68.152-.176.402-.43.558-.578.153-.144.403-.355.559-.469.152-.117.402-.277.555-.359a4.64 4.64 0 0 1 .558-.25c.157-.055.403-.113.559-.133.156-.023.402-.031.559-.023.156.011.402.05.558.094.152.042.402.136.559.207.152.074.402.218.554.32.157.105.407.297.559.43.156.136.402.375.559.539.156.164.402.453.558.644.156.192.403.524.559.746.152.219.402.594.558.84.153.246.403.66.555.934.156.27.406.722.559 1.015a55.698 55.698 0 0 1 1.117 2.273 75.983 75.983 0 0 1 1.117 2.532l.559 1.348.554 1.39"/></g></svg>