<svg xmlns="http://www.w3.org/2000/svg" width="115.609" height="85.041"><defs><clipPath id="a"><path d="M.453 2h111.04v80H.452Zm0 0"/></clipPath><clipPath id="b"><path d="M.453 0h111.04v35H.452Zm0 0"/></clipPath><clipPath id="c"><path d="M.453 49h111.04v35.094H.452Zm0 0"/></clipPath></defs><g clip-path="url(#a)"><path fill="#7F7F7F" fill-opacity=".5" d="m.453 7.645.555.367c.156.105.406.265.558.367.157.101.403.266.559.363.156.102.402.258.559.356.156.097.402.254.558.347.153.098.403.246.559.34.152.09.402.235.554.32.157.09.407.227.56.313a38.011 38.011 0 0 0 1.116.566c.157.07.403.184.559.254.152.067.402.172.558.23.153.063.403.157.555.212.156.054.406.136.559.187.156.047.406.117.558.16.157.04.403.098.559.133a13.747 13.747 0 0 0 1.117.188c.152.015.402.039.559.05.152.008.402.02.554.024.157 0 .407 0 .559-.008a8.93 8.93 0 0 0 .559-.035c.156-.012.402-.04.558-.063.156-.02.402-.058.559-.09.152-.027.402-.081.558-.117a14.489 14.489 0 0 0 1.114-.316c.156-.05.406-.137.558-.195a17.24 17.24 0 0 0 1.117-.46l.559-.263c.152-.074.402-.203.559-.281.152-.082.402-.215.554-.301a41.528 41.528 0 0 0 1.117-.645c.157-.093.403-.246.56-.34l.558-.351c.152-.098.402-.258.558-.36.153-.1.403-.261.555-.367.156-.101.406-.265.559-.367.156-.101.402-.265.558-.367.156-.105.402-.27.559-.371.156-.102.402-.266.558-.363.153-.102.403-.262.559-.364.152-.097.402-.253.555-.351.156-.098.406-.25.558-.344.156-.094.406-.242.559-.332.156-.09.402-.23.558-.316.157-.086.403-.223.559-.305a24.498 24.498 0 0 1 1.672-.797 15.932 15.932 0 0 1 2.234-.75 13.743 13.743 0 0 1 1.113-.219c.157-.023.407-.05.56-.066.155-.016.405-.035.558-.04a13.331 13.331 0 0 1 1.117.004c.152.009.402.032.558.048.153.015.403.05.56.074a12.903 12.903 0 0 1 2.23.566c.156.055.402.145.558.203.152.063.402.164.559.23.152.067.402.18.554.25.157.075.407.192.559.27.156.079.402.207.559.29.156.082.402.218.558.308.156.086.403.23.559.32l.558.332c.153.098.403.25.555.348.156.098.406.254.559.356.156.097.406.257.558.359.157.101.403.266.559.367.156.102.402.266.558.371.153.102.403.266.559.367.152.102.402.266.559.368.152.101.402.265.554.367.157.097.407.258.559.355l.559.352c.156.094.402.246.558.336.156.094.402.238.559.328.152.09.402.226.558.312a37.978 37.978 0 0 0 1.114.575c.156.074.402.187.558.257.156.067.403.172.559.235a16.374 16.374 0 0 0 1.117.406 14.417 14.417 0 0 0 1.113.305c.156.035.406.086.559.113a13.747 13.747 0 0 0 1.117.14c.156.012.402.024.559.028.152.004.402.004.558 0 .153-.004.403-.016.555-.027a12.861 12.861 0 0 0 1.117-.145c.156-.027.402-.078.559-.113a14.6 14.6 0 0 0 1.117-.305c.152-.05.402-.133.555-.191.156-.055.406-.153.558-.215.156-.063.406-.168.559-.238.156-.067.402-.184.558-.258.157-.074.403-.2.559-.278a26.333 26.333 0 0 0 1.117-.609c.152-.09.402-.234.555-.324.156-.094.406-.246.558-.34l.559-.352c.156-.097.402-.257.559-.355.156-.102.402-.266.558-.367.153-.102.403-.262.559-.367l.554-.368.559-.37c.156-.102.402-.266.559-.368.156-.098.402-.262.558-.36a44.356 44.356 0 0 1 1.117-.698 40.432 40.432 0 0 1 1.113-.656c.157-.087.407-.223.56-.305.156-.082.402-.211.558-.29.156-.078.402-.199.558-.269a23.864 23.864 0 0 1 1.117-.48c.153-.06.403-.149.555-.204.157-.054.407-.132.559-.18.156-.046.402-.116.559-.156.156-.039.402-.097.558-.128.156-.032.402-.075.559-.102a12.823 12.823 0 0 1 1.113-.117c.156-.008.406-.016.559-.016.156-.004.406.004.558.012.156.008.403.023.559.039a13.633 13.633 0 0 1 1.117.164c.152.031.402.086.559.125.152.04.402.106.554.152a15.935 15.935 0 0 1 1.117.375c.157.059.403.16.559.223.156.066.402.176.559.246.152.074.402.192.558.27.153.074.403.203.555.285.156.082.406.215.558.3.157.087.403.231.56.32.155.09.401.24.558.333.156.094.402.246.558.344l.559.351c.152.098.402.262.558.36.153.101.403.265.555.367.156.101.406.265.559.367.156.105.402.27.558.371.157.102.403.266.559.367.156.102.402.266.559.367.152.098.402.258.558.36.152.098.402.254.555.351a41.539 41.539 0 0 0 1.676.984c.156.087.402.22.558.298.153.082.403.207.559.28.152.079.402.196.554.263.157.07.407.18.56.242a15.828 15.828 0 0 0 1.676.586c.151.043.401.105.557.144.153.035.403.086.559.117.152.028.402.067.555.09.156.02.406.047.558.063.157.012.403.027.559.031.156.008.402.008.558.008a26.7 26.7 0 0 0 .56-.024 14.202 14.202 0 0 0 1.112-.132c.157-.028.407-.075.559-.11.156-.031.402-.094.559-.133.156-.043.402-.113.558-.16.156-.05.403-.133.559-.187.152-.055.402-.149.558-.211.153-.063.403-.164.555-.235.156-.066.406-.18.559-.253.156-.07.406-.196.558-.274.156-.078.403-.21.559-.293.156-.082.402-.223.558-.308.157-.09.403-.235.559-.325.152-.093.402-.242.559-.336.152-.097.554-.347.554-.347V75s-.402-.254-.554-.348c-.157-.093-.407-.246-.559-.336a40.051 40.051 0 0 0-1.117-.637l-.559-.292a24.674 24.674 0 0 0-1.117-.528 33.59 33.59 0 0 0-.555-.234l-.558-.21a15.53 15.53 0 0 0-1.676-.481 12.822 12.822 0 0 0-1.672-.239 8.902 8.902 0 0 0-.558-.023c-.157-.004-.403 0-.56.004-.155.008-.401.02-.558.035-.152.012-.402.039-.558.062a12.854 12.854 0 0 0-2.23.52c-.157.05-.403.14-.56.195l-.558.219c-.152.066-.402.172-.559.242-.152.07-.402.188-.554.262-.156.074-.406.203-.559.281a39.002 39.002 0 0 0-1.117.613c-.156.09-.402.239-.559.332a30.687 30.687 0 0 0-1.113.692c-.156.098-.406.258-.558.36-.157.097-.403.261-.56.363-.155.101-.401.265-.558.367-.156.105-.402.27-.558.37-.153.102-.403.266-.559.368-.152.102-.402.266-.555.367-.156.102-.406.262-.558.36-.156.101-.406.257-.559.355-.156.094-.402.25-.558.344-.157.094-.403.242-.559.332a40.422 40.422 0 0 1-1.117.62c-.152.083-.402.208-.555.286-.156.074-.406.195-.558.266-.157.07-.403.18-.559.246-.156.066-.402.164-.559.222-.156.063-.402.149-.558.204-.153.05-.403.129-.559.175a9.71 9.71 0 0 1-.554.149c-.157.039-.407.094-.559.125-.156.031-.406.074-.559.097a13.434 13.434 0 0 1-1.117.11c-.152.008-.402.012-.558.012-.153 0-.403-.008-.559-.016a26.533 26.533 0 0 1-.555-.047 12.816 12.816 0 0 1-1.117-.176 14.391 14.391 0 0 1-1.117-.281 18.582 18.582 0 0 1-1.113-.387 13.91 13.91 0 0 1-.559-.226c-.156-.067-.402-.18-.559-.25-.156-.074-.402-.196-.558-.27a38.002 38.002 0 0 1-.559-.289 27.426 27.426 0 0 1-.558-.308c-.153-.086-.403-.227-.555-.32-.156-.09-.406-.239-.559-.333-.156-.094-.406-.25-.558-.347l-.559-.352-.558-.363c-.157-.102-.403-.266-.559-.367a69.405 69.405 0 0 0-.559-.368c-.152-.105-.402-.27-.554-.37a69.396 69.396 0 0 1-.559-.368c-.156-.102-.402-.266-.558-.363-.157-.102-.403-.262-.559-.36-.156-.097-.402-.254-.559-.347-.152-.098-.402-.246-.558-.34-.153-.094-.403-.238-.555-.328a71.576 71.576 0 0 1-.558-.313 72.73 72.73 0 0 1-.56-.297c-.155-.078-.401-.203-.558-.277a35.575 35.575 0 0 0-.558-.258c-.153-.07-.403-.176-.559-.238-.152-.063-.402-.156-.558-.215-.153-.055-.403-.14-.555-.191a14.603 14.603 0 0 0-1.117-.305 14.145 14.145 0 0 0-.559-.113c-.156-.028-.402-.063-.559-.086a12.877 12.877 0 0 0-1.113-.086 13.315 13.315 0 0 0-.558 0 13.376 13.376 0 0 0-1.118.086c-.156.02-.402.058-.558.086a15.74 15.74 0 0 0-.559.113 9.563 9.563 0 0 0-.554.137c-.157.043-.407.117-.56.164-.155.05-.405.137-.558.191a17.108 17.108 0 0 0-1.117.453c-.156.067-.402.184-.558.258-.153.074-.403.2-.559.278-.152.078-.402.21-.555.296-.156.082-.406.223-.558.313-.157.086-.403.234-.559.324-.156.094-.402.242-.559.34-.156.094-.402.25-.558.348l-.559.359c-.152.102-.402.262-.554.363-.157.102-.407.266-.559.367-.156.102-.406.27-.559.372-.156.101-.402.265-.558.367-.156.101-.403.265-.559.367-.152.101-.402.262-.558.363-.153.098-.403.258-.559.356-.152.093-.402.25-.555.343-.156.094-.406.243-.558.336-.156.09-.403.235-.559.32-.156.087-.402.223-.558.305-.157.082-.403.211-.559.29-.152.078-.402.199-.559.269a17.33 17.33 0 0 1-1.113.48c-.156.059-.402.153-.558.204-.157.054-.403.136-.56.183-.155.047-.401.113-.558.156-.152.04-.402.094-.558.13-.153.03-.403.073-.555.1-.156.024-.406.056-.559.075a13.967 13.967 0 0 1-1.117.063c-.156 0-.402-.004-.558-.012a13.899 13.899 0 0 1-.559-.04 14.548 14.548 0 0 1-1.113-.163 12.886 12.886 0 0 1-.559-.125c-.156-.04-.402-.106-.558-.149a30.68 30.68 0 0 1-.559-.175c-.156-.055-.402-.141-.559-.2a20.983 20.983 0 0 1-2.23-1.023 39.012 39.012 0 0 1-.559-.3c-.156-.087-.402-.231-.558-.321l-.559-.332c-.152-.094-.402-.246-.558-.344a43.575 43.575 0 0 1-.555-.352 27.239 27.239 0 0 1-.559-.359c-.156-.102-.402-.266-.558-.367-.157-.102-.403-.266-.559-.367-.156-.102-.402-.27-.558-.371a69.432 69.432 0 0 0-.56-.368 44.839 44.839 0 0 0-.554-.363l-.558-.36a21.96 21.96 0 0 0-.559-.35c-.156-.099-.402-.25-.559-.345-.156-.09-.402-.238-.558-.328a25.806 25.806 0 0 0-2.23-1.16 34.47 34.47 0 0 0-.56-.242c-.155-.063-.402-.16-.558-.219a13.18 13.18 0 0 0-1.117-.363 9.66 9.66 0 0 0-.555-.145c-.156-.039-.406-.09-.558-.12a27.669 27.669 0 0 0-.559-.09c-.156-.02-.402-.051-.558-.063a26.787 26.787 0 0 0-.559-.035 13.27 13.27 0 0 0-.559-.004c-.152 0-.402.012-.554.023a8.723 8.723 0 0 0-.559.051 9.14 9.14 0 0 0-.559.078c-.156.028-.402.074-.558.106a14.53 14.53 0 0 0-2.23.691 17.645 17.645 0 0 0-1.117.488c-.157.075-.403.196-.56.274a27.426 27.426 0 0 0-1.672.926c-.155.09-.405.242-.558.336-.156.093-.402.25-.558.347-.157.098-.403.258-.559.356l-.559.363a69.45 69.45 0 0 1-.558.367l-.555.371Zm0 0"/></g><g clip-path="url(#b)"><path fill="none" stroke="#000" stroke-miterlimit="10" stroke-width="1.5762269" d="m.453 7.645.555.367c.156.105.406.265.558.367.157.101.403.266.559.363.156.102.402.258.559.356.156.097.402.254.558.347.153.098.403.246.559.34.152.09.402.235.554.32.157.09.407.227.56.313a38.002 38.002 0 0 0 1.116.566c.157.07.403.184.559.254.152.067.402.172.558.23.153.063.403.157.555.212.156.054.406.136.559.187.156.047.406.117.558.16.157.04.403.098.559.133a13.749 13.749 0 0 0 1.117.188c.152.015.402.039.559.05.152.008.402.02.554.024.157 0 .407 0 .559-.008a8.93 8.93 0 0 0 .559-.035c.156-.012.402-.04.558-.063.156-.02.403-.058.559-.09.152-.027.402-.081.558-.117a14.486 14.486 0 0 0 1.114-.316c.156-.05.406-.137.558-.195a17.24 17.24 0 0 0 1.117-.46l.559-.263c.152-.074.402-.203.559-.281.152-.082.402-.215.554-.301a41.54 41.54 0 0 0 1.117-.645c.157-.093.403-.246.56-.34l.558-.351c.152-.098.402-.258.558-.36.153-.1.403-.261.555-.367.156-.101.406-.265.559-.367.156-.101.402-.265.558-.367.156-.105.402-.27.559-.371.156-.102.402-.266.558-.363.153-.102.403-.262.559-.364.152-.097.402-.253.555-.351.156-.098.406-.25.558-.344.156-.094.406-.242.559-.332.156-.09.402-.23.558-.316.157-.086.403-.223.559-.305a24.952 24.952 0 0 1 1.117-.55c.153-.071.403-.18.555-.247a15.933 15.933 0 0 1 2.234-.75 13.743 13.743 0 0 1 1.113-.219c.157-.023.407-.05.56-.066.155-.016.405-.035.558-.04a13.33 13.33 0 0 1 1.117.004c.152.009.402.032.558.048.153.015.403.05.56.074a12.903 12.903 0 0 1 2.23.566c.156.055.402.145.558.203.152.063.402.164.559.23.152.067.402.18.554.25.157.075.407.192.559.27.156.079.402.207.559.29.156.082.402.218.558.308.156.086.403.23.559.32l.558.332c.153.098.403.25.555.348.156.098.406.254.559.356.156.097.406.257.558.359.157.101.403.266.559.367.156.102.402.266.558.371.153.102.403.266.559.367.152.102.402.266.559.368.152.101.402.265.554.367.157.097.407.258.559.355l.559.352c.156.094.402.246.558.336.156.093.402.238.559.328.152.09.402.226.558.312a37.979 37.979 0 0 0 1.114.575c.156.074.402.187.558.257.156.067.403.172.559.235a16.374 16.374 0 0 0 1.117.406 14.414 14.414 0 0 0 1.113.305c.156.035.406.086.559.113a13.747 13.747 0 0 0 1.117.14c.156.012.402.024.559.028.152.004.402.004.558 0 .153-.004.403-.016.555-.027a12.86 12.86 0 0 0 1.117-.145c.156-.027.402-.078.559-.113a14.6 14.6 0 0 0 1.117-.305c.152-.05.402-.133.555-.191.156-.055.406-.153.558-.215a14.1 14.1 0 0 0 .559-.238c.156-.067.402-.184.558-.258.157-.074.403-.2.559-.278a26.33 26.33 0 0 0 1.117-.609c.152-.09.402-.234.555-.324.156-.094.406-.246.558-.34l.559-.352c.156-.097.402-.257.559-.355.156-.102.402-.266.558-.367.153-.102.403-.262.559-.367l.554-.368.559-.37c.156-.102.402-.266.559-.368.156-.098.402-.262.558-.36a44.345 44.345 0 0 1 1.117-.698 40.438 40.438 0 0 1 1.113-.656c.157-.087.407-.223.56-.305.156-.082.402-.211.558-.29.156-.078.402-.199.558-.269a23.864 23.864 0 0 1 1.117-.48c.153-.06.403-.149.555-.204.157-.054.407-.132.559-.18.156-.046.402-.116.559-.156.156-.039.402-.097.558-.128.156-.032.402-.075.559-.102a12.826 12.826 0 0 1 1.113-.117c.156-.008.406-.016.559-.016.156-.004.406.004.558.012.156.008.403.023.559.039a13.633 13.633 0 0 1 1.117.164c.152.031.402.086.559.125.152.04.402.105.554.152a15.935 15.935 0 0 1 1.117.375c.157.059.403.16.559.223.156.066.402.176.559.246.152.074.402.192.558.27.153.074.403.203.555.285.156.082.406.215.559.3.156.087.402.231.558.32.156.09.402.24.559.333.156.094.402.246.558.344l.559.351c.152.098.402.262.558.36.153.101.403.265.555.367.156.101.406.265.559.367.156.105.402.27.558.371.157.102.403.266.559.367.156.102.402.266.559.367.152.098.402.258.558.36l.555.351a41.54 41.54 0 0 0 1.676.984c.156.087.402.22.558.298.153.082.403.207.559.28.152.079.402.196.554.263.157.07.407.18.56.242a15.828 15.828 0 0 0 1.676.586c.151.043.401.105.557.144.153.035.403.086.559.117.152.028.402.067.555.09.156.02.406.047.558.063a13.376 13.376 0 0 0 1.118.039 26.7 26.7 0 0 0 .558-.024 14.2 14.2 0 0 0 1.113-.132c.157-.028.407-.075.559-.11.156-.031.402-.094.559-.133.156-.043.402-.113.558-.16.156-.05.403-.133.559-.187.152-.055.402-.149.558-.211.153-.063.403-.164.555-.235.156-.066.406-.18.559-.253.156-.07.406-.196.558-.274.156-.078.403-.21.559-.293.156-.082.402-.223.558-.308.157-.09.403-.235.559-.325.152-.093.402-.242.559-.336.152-.097.554-.347.554-.347"/></g><g clip-path="url(#c)"><path fill="none" stroke="#000" stroke-miterlimit="10" stroke-width="1.5762269" d="m.453 76.45.555-.372c.156-.101.406-.266.558-.367l.559-.363c.156-.098.402-.258.559-.356.156-.097.402-.254.558-.347.153-.094.403-.247.559-.336a27.424 27.424 0 0 1 2.23-1.2c.157-.074.403-.187.559-.254a16.078 16.078 0 0 1 1.113-.445 17.498 17.498 0 0 1 1.117-.344c.157-.043.403-.101.559-.136.156-.032.402-.078.559-.106a9.14 9.14 0 0 1 .558-.078c.152-.02.402-.043.559-.05.152-.012.402-.024.554-.024.157-.004.407 0 .559.004.156.008.402.023.559.035.156.012.402.043.558.062.156.024.403.063.559.09.152.032.402.082.558.121.153.036.403.098.555.145.156.043.406.117.559.168.156.05.406.14.558.195.156.059.403.156.559.219.156.066.402.172.558.242a23.71 23.71 0 0 1 1.118.547 25.802 25.802 0 0 1 1.113.613c.156.09.402.239.558.328.157.094.403.246.56.344.155.094.401.25.558.352.152.097.402.258.558.36.153.097.403.26.555.362.156.102.406.266.559.368.156.101.402.27.558.37.156.102.402.266.559.368.156.101.402.265.558.367.153.102.403.262.559.36.152.097.402.257.555.351.156.098.406.25.558.344l.559.332c.156.09.402.234.558.32.157.086.403.219.559.3.152.083.402.212.559.286.152.078.402.195.558.266a20.984 20.984 0 0 0 1.113.473c.157.058.403.144.559.198.156.051.402.13.559.176a12.886 12.886 0 0 0 1.117.273 14.548 14.548 0 0 0 1.113.164c.156.016.406.032.559.04.156.008.402.012.558.012a13.97 13.97 0 0 0 1.117-.062c.153-.02.403-.052.56-.075.151-.028.401-.07.554-.102.156-.035.406-.09.558-.129.157-.043.403-.109.559-.156.156-.047.402-.129.559-.183.156-.051.402-.145.558-.204a21.233 21.233 0 0 0 1.113-.48c.157-.07.407-.191.559-.27.156-.078.402-.207.559-.289.156-.082.402-.218.558-.304.156-.086.403-.23.559-.32.152-.094.402-.243.558-.337.153-.093.403-.25.555-.343.156-.098.406-.258.559-.356.156-.101.406-.262.558-.363.157-.102.403-.266.559-.367.156-.102.402-.266.558-.367.153-.102.403-.27.559-.372.152-.101.402-.265.559-.367.152-.101.402-.261.554-.363l.559-.36c.156-.097.402-.253.559-.347.156-.098.402-.246.558-.34.156-.09.402-.238.559-.324.152-.09.402-.23.558-.313a19.157 19.157 0 0 1 1.114-.574c.156-.074.402-.191.558-.258a17.11 17.11 0 0 1 1.676-.644c.152-.047.402-.121.559-.164.152-.043.402-.106.554-.137.156-.035.406-.086.559-.113.156-.028.402-.067.558-.086a13.507 13.507 0 0 1 1.118-.086c.152-.004.402-.004.558 0a13.191 13.191 0 0 1 1.113.086c.157.023.403.058.56.086.155.027.401.078.558.113a14.601 14.601 0 0 1 1.117.305c.152.05.402.136.555.191.156.059.406.152.558.215.156.062.406.168.559.238.156.07.402.184.558.258.157.074.403.2.559.277.152.082.402.215.559.297.152.086.402.227.558.313.152.09.402.234.555.328.156.094.406.242.558.34.157.093.403.25.559.347.156.098.402.258.559.36.156.097.402.261.558.363.153.102.403.266.559.367.152.102.402.266.554.371.157.102.407.266.559.368.156.101.402.265.559.367l.558.363.559.352c.152.097.402.253.558.347.153.094.403.242.559.332.152.094.402.235.555.32.156.09.406.227.558.31.157.081.403.21.559.288.156.074.402.196.558.27.157.07.403.183.56.25a15.857 15.857 0 0 0 1.672.613 14.826 14.826 0 0 0 1.116.281 12.818 12.818 0 0 0 1.117.176c.153.016.403.035.555.047.156.008.406.016.559.016.156 0 .406-.004.558-.012a13.434 13.434 0 0 0 1.117-.11c.153-.023.403-.066.559-.097.152-.031.402-.086.559-.125.152-.035.402-.102.554-.149.157-.047.407-.125.559-.175.156-.055.402-.141.558-.204a16.61 16.61 0 0 0 1.118-.468c.152-.07.402-.192.558-.266.153-.078.403-.203.555-.285a40.423 40.423 0 0 0 1.117-.621c.156-.09.402-.238.559-.332.156-.094.402-.25.558-.344.153-.098.403-.254.559-.355.152-.098.402-.258.558-.36.153-.101.403-.265.555-.367l.559-.367c.156-.102.402-.266.558-.371.157-.102.403-.266.559-.367.156-.102.402-.266.559-.364.152-.101.402-.261.558-.36a43.586 43.586 0 0 1 1.113-.69c.157-.094.403-.243.559-.333a40.052 40.052 0 0 1 1.117-.613c.153-.078.403-.207.559-.281.152-.074.402-.191.554-.262.157-.07.407-.176.56-.242.155-.062.405-.16.558-.219.156-.054.402-.144.558-.195a15.161 15.161 0 0 1 1.117-.313 12.856 12.856 0 0 1 1.114-.207c.156-.023.406-.05.558-.062.157-.016.403-.027.559-.035.156-.004.402-.008.559-.004.156 0 .402.012.558.023a9.269 9.269 0 0 1 1.113.133c.157.024.407.074.559.106a14.528 14.528 0 0 1 1.676.48c.152.059.402.152.558.211.153.062.403.168.555.234a24.675 24.675 0 0 1 1.117.527l.559.294a40.062 40.062 0 0 1 1.117.636c.152.09.402.243.559.336.152.094.554.348.554.348"/></g></svg>