<svg xmlns="http://www.w3.org/2000/svg" xmlns:xlink="http://www.w3.org/1999/xlink" width="234.514" height="184.972"><defs><path id="e" d="M-3.5-2.875c-.266-.828-.969-1.39-1.75-1.39-.812 0-1.375.859-1.375 1.827 0 1 .61 1.75 1.36 1.75.327 0 .515-.218.515-.5 0-.312-.219-.515-.5-.515-.5 0-.5.469-.5.625-.484-.313-.625-.969-.625-1.328 0-.406.219-.953 1.125-.953.11 0 .688.015 1.125.28.484.298.5.642.516.876a3.9 3.9 0 0 1 .03.39c.017.079.017.157.126.157.11 0 .11-.078.11-.235v-.437c0-.828.671-1.188 1.64-1.188 1.36 0 1.64.688 1.64 1.125 0 .422-.171 1.172-.75 1.516.047-.344-.171-.656-.546-.656-.36 0-.563.265-.563.562 0 .235.14.547.578.547.907 0 1.563-.922 1.563-2 0-1.219-.906-2.125-1.922-2.125-.813 0-1.594.625-1.797 1.672m0 0"/><path id="f" d="M-5.812-6.172c-.375-.14-.657-.406-.672-1.078h-.297c.015.297.031.703.031.953 0 .297-.031.875-.031 1.14h.297c.015-.515.265-.734.5-.734.078 0 .14.032.203.063L-1-4.016l-5.016 1.907c-.14.046-.156.046-.171.046-.297 0-.297-.562-.297-.812h-.297c.031.36.031 1.047.031 1.422 0 .484-.031.906-.031 1.266h.297c0-.641 0-.844.375-.97L0-3.468c.188-.062.219-.125.219-.25 0-.172-.047-.187-.188-.234Zm0 0"/><path id="g" d="M-7.25-4.406a.207.207 0 0 0-.203.203c0 .14.094.172.203.203L2.11-.61a.594.594 0 0 0 .171.047c.11 0 .203-.078.203-.187 0-.14-.093-.187-.203-.219l-9.36-3.39c-.124-.047-.171-.047-.171-.047m0 0"/><path id="h" d="M-3.344-7.031c-1.89 0-3.437 1.343-3.437 3.047v3.64h.297v-.25c0-.75.109-.781.468-.781H-.78c.36 0 .469.031.469.781v.25H0v-3.64c0-1.672-1.469-3.047-3.344-3.047m0 1c1.11 0 1.703.187 2.188.547.265.203.843.765.843 1.765v1c0 .469-.062.5-.39.5h-5.375c-.328 0-.406-.031-.406-.5v-.984c0-.625.218-1.313.922-1.813.593-.421 1.453-.515 2.218-.515m0 0"/><path id="i" d="M0-2.453h-.312c0 .656-.047.687-.438.687h-3.64l.109 1.391h.312c0-.64.047-.734.547-.734H-.75c.438 0 .438.109.438.78H0l-.031-1.093c0-.344.015-.687.031-1.031m-6 .547a.547.547 0 0 0-.531.531c0 .328.281.531.531.531a.547.547 0 0 0 .531-.531A.536.536 0 0 0-6-1.906m0 0"/><path id="j" d="M-3.969-5.047h-.312c.015.234.031.516.031.75l-.031.86h.312c0-.376.235-.485.422-.485.094 0 .125.031.235.063l2.53 1.015-2.765 1.11c-.125.062-.172.062-.172.062-.25 0-.25-.39-.25-.562h-.312l.031 1.078c0 .265-.016.672-.031.968h.312c0-.624.047-.671.36-.796l3.53-1.438C.064-2.469.11-2.5.11-2.625s-.093-.172-.187-.203l-3.234-1.313c-.22-.078-.657-.25-.657-.906m0 0"/><path id="k" d="M-.531-1.906A.524.524 0 1 0-.515-.86a.524.524 0 0 0-.016-1.047m0 0"/><clipPath id="a"><path d="M16 .176h215v184.59H16Zm0 0"/></clipPath><clipPath id="b"><path d="M16.969 1h213.554v183H16.97Zm0 0"/></clipPath><clipPath id="c"><path d="M16.969.375h213.554V84H16.97Zm0 0"/></clipPath><clipPath id="d"><path d="M16.969 101h213.554v83.566H16.97Zm0 0"/></clipPath></defs><g fill="none" stroke="#000" stroke-miterlimit="10" clip-path="url(#a)"><path stroke-width=".19858807" d="M16.969 184.566V.375m30.508 184.191V.375m30.507 184.191V.375m30.508 184.191V.375M139 184.566V.375m30.508 184.191V.375m30.508 184.191V.375m30.507 184.191V.375M16.969 184.566h213.554M16.97 153.867h213.554M16.97 123.172h213.554M16.97 92.472h213.554M16.97 61.774h213.554M16.97 31.074h213.554M16.97.375h213.554"/><path stroke-width=".39817407" d="M16.969 184.566V.375h213.554v184.191Zm0 0"/></g><g clip-path="url(#b)"><path fill="#7F7F7F" fill-opacity=".5" d="M16.969 60.848s.773-.008 1.07-.02c.297-.012.777-.039 1.074-.058.297-.024.774-.07 1.075-.102a33.487 33.487 0 0 0 2.144-.324c.297-.055.777-.157 1.074-.223.297-.066.774-.184 1.074-.262a36.521 36.521 0 0 0 2.145-.64 40.168 40.168 0 0 0 3.219-1.246c.297-.133.777-.348 1.074-.493.297-.14.773-.375 1.074-.523a57.54 57.54 0 0 0 2.145-1.156c.297-.172.777-.453 1.074-.633.297-.176.773-.473 1.07-.66.301-.188.778-.496 1.074-.696a78.14 78.14 0 0 0 2.148-1.48 93.234 93.234 0 0 0 2.145-1.598 67.14 67.14 0 0 0 1.075-.84c.297-.234.773-.62 1.074-.863.297-.242.773-.64 1.07-.89.297-.25.778-.657 1.074-.91l1.075-.934 1.07-.957c.3-.27.777-.703 1.074-.977.297-.273.778-.715 1.074-.992.297-.277.774-.726 1.075-1.008.296-.285.773-.738 1.07-1.027a269.635 269.635 0 0 0 2.148-2.09 273.5 273.5 0 0 0 1.07-1.062c.301-.297.778-.774 1.075-1.075.297-.297.777-.78 1.074-1.082.297-.3.774-.785 1.074-1.086.297-.3.774-.789 1.07-1.093.301-.305.778-.793 1.075-1.098.297-.3.777-.793 1.074-1.098.297-.304.773-.793 1.074-1.097l1.07-1.102c.297-.305.778-.793 1.075-1.098.297-.3.773-.789 1.074-1.09a284.184 284.184 0 0 1 2.145-2.171c.296-.297.777-.778 1.074-1.07.297-.297.773-.774 1.074-1.067a256.782 256.782 0 0 1 3.219-3.117c.297-.281.773-.735 1.07-1.012l1.074-.992c.297-.273.778-.711 1.075-.977.296-.27.773-.695 1.074-.957.297-.261.773-.68 1.07-.937.3-.254.777-.664 1.074-.914.297-.25.778-.645 1.074-.89a103.653 103.653 0 0 1 2.145-1.708c.297-.226.777-.59 1.074-.812a89.91 89.91 0 0 1 2.145-1.543c.3-.207.777-.532 1.074-.727.297-.2.777-.508 1.074-.695.297-.192.774-.485 1.074-.664a49.186 49.186 0 0 1 4.29-2.324 51.27 51.27 0 0 1 2.148-.946 35.899 35.899 0 0 1 2.144-.797c.301-.101.778-.254 1.075-.343a55.3 55.3 0 0 1 1.074-.305c.297-.078.773-.195 1.07-.262a34.336 34.336 0 0 1 2.148-.41c.297-.043.774-.11 1.075-.145.297-.03.773-.078 1.07-.101.3-.024.778-.05 1.074-.063.297-.011.778-.023 1.075-.023.296 0 .773.008 1.074.02.297.007.773.035 1.07.058a26.11 26.11 0 0 1 2.148.238 32.673 32.673 0 0 1 3.219.656 37.521 37.521 0 0 1 3.219 1.012c.297.11.777.293 1.074.414.297.122.774.32 1.07.454a37.669 37.669 0 0 1 2.149 1.007 48.729 48.729 0 0 1 2.145 1.156c.3.169.777.45 1.074.626.297.18.777.472 1.074.66a70.748 70.748 0 0 1 2.145 1.418c.296.203.777.539 1.074.754.297.21.773.562 1.074.78.297.224.773.583 1.07.813.301.227.778.602 1.075.836.296.239.777.621 1.074.864.297.242.773.64 1.074.89.297.246.773.653 1.07.91.301.254.778.672 1.074.934l1.075.953 1.07.973a129.14 129.14 0 0 1 2.148 2.004c.297.28.774.738 1.075 1.023.297.285.773.746 1.07 1.04.3.288.777.757 1.074 1.05.297.293.778.766 1.074 1.062l1.07 1.07c.302.302.778.782 1.075 1.083l1.074 1.086c.297.304.774.789 1.074 1.093l1.07 1.098c.301.305.778.793 1.075 1.098l1.074 1.097c.297.309.774.797 1.074 1.102l1.07 1.098c.298.3.778.789 1.075 1.093.297.301.773.786 1.074 1.086.297.301.774.785 1.07 1.082l1.075 1.075c.297.296.777.77 1.074 1.062.297.297.773.766 1.074 1.055.297.289.774.754 1.07 1.039.301.289.778.746 1.075 1.027.296.285.777.735 1.074 1.012.297.281.773.723 1.07.996l1.074.977c.297.27.778.695 1.075.957.296.265.773.68 1.074.937.297.258.773.664 1.07.918.3.25.777.645 1.074.89.297.243.778.63 1.075.868.296.238.773.613 1.074.844a94.067 94.067 0 0 0 2.145 1.602 86.753 86.753 0 0 0 2.145 1.488c.3.199.776.507 1.073.699.297.187.777.484 1.074.664.297.18.774.465 1.074.633.297.171.774.441 1.07.601.302.16.778.414 1.075.567.297.152.773.386 1.074.527.297.144.774.363 1.07.496.301.133.778.336 1.075.457.297.121.777.309 1.074.422.297.11.773.281 1.074.379.297.101.774.254 1.07.347.301.09.778.223 1.075.305.297.078.777.195 1.074.266.297.066.773.168 1.07.226.301.055.778.14 1.074.188.297.043.778.11 1.075.144.297.035.773.082 1.074.106.297.023.773.054 1.07.066.301.012.778.024 1.074.024.297.004.778-.004 1.075-.016a33.52 33.52 0 0 0 1.074-.055c.297-.02.773-.062 1.07-.097.297-.032.778-.094 1.074-.137.297-.043.774-.121 1.075-.176a34.653 34.653 0 0 0 2.144-.476c.297-.075.778-.207 1.074-.293.297-.09.774-.239 1.075-.336a38.77 38.77 0 0 0 3.218-1.235c.297-.129.774-.347 1.07-.484a47 47 0 0 0 2.148-1.082c.298-.156.775-.422 1.075-.59a60.906 60.906 0 0 0 4.293-2.7c.297-.202.774-.538 1.07-.75.297-.214.778-.562 1.075-.78l1.074-.809c.297-.23.773-.602 1.07-.836a115.27 115.27 0 0 0 2.149-1.75 113.584 113.584 0 0 0 2.145-1.84c.3-.261 1.074-.953 1.074-.953v94.035s-.774-.691-1.075-.953c-.297-.262-.773-.676-1.07-.933-.3-.254-.777-.66-1.074-.91-.297-.247-.778-.641-1.074-.887a73.861 73.861 0 0 0-1.075-.86 99.87 99.87 0 0 0-1.07-.836 85.905 85.905 0 0 0-2.148-1.59c-.297-.214-.774-.546-1.07-.753l-1.075-.723a54.924 54.924 0 0 0-1.074-.688 60.907 60.907 0 0 0-2.145-1.285c-.3-.168-.777-.433-1.074-.593-.297-.16-.777-.407-1.074-.555a38.866 38.866 0 0 0-2.145-1.008 41.8 41.8 0 0 0-2.148-.863 57.948 57.948 0 0 0-1.07-.371c-.301-.098-.778-.25-1.075-.336a54.98 54.98 0 0 0-1.074-.297 47.817 47.817 0 0 0-1.074-.258 51.86 51.86 0 0 0-1.07-.215c-.301-.054-.778-.133-1.075-.18a50.442 50.442 0 0 0-1.074-.136 32.965 32.965 0 0 0-2.144-.153 49.249 49.249 0 0 0-1.075-.015 33.135 33.135 0 0 0-2.144.09 32.242 32.242 0 0 0-2.149.254c-.296.046-.773.129-1.074.187-.297.055-.773.156-1.07.227a35.88 35.88 0 0 0-1.074.265c-.297.078-.774.215-1.075.305a37.751 37.751 0 0 0-2.144.727 40.704 40.704 0 0 0-3.219 1.37c-.3.145-.777.38-1.074.532a48.958 48.958 0 0 0-2.145 1.164c-.3.172-.777.453-1.074.633-.297.183-.777.476-1.074.668a71.208 71.208 0 0 0-2.144 1.425c-.301.208-.778.547-1.075.758-.297.215-.777.567-1.074.79a97.244 97.244 0 0 0-3.219 2.527c-.297.242-.773.64-1.074.89-.297.25-.773.66-1.07.914-.301.258-.778.676-1.074.938-.297.266-.778.691-1.075.957-.297.27-.773.707-1.074.98-.297.274-.773.715-1.07.993-.297.28-.778.73-1.074 1.011-.297.285-.774.743-1.075 1.028-.297.289-.773.75-1.07 1.043-.3.289-.777.757-1.074 1.05-.297.293-.778.77-1.074 1.067-.297.297-.774.773-1.075 1.07l-1.07 1.082c-.3.3-.777.79-1.074 1.09-.297.305-.777.79-1.074 1.094l-1.07 1.097c-.301.305-.778.793-1.075 1.098l-1.074 1.102c-.297.304-.774.793-1.074 1.097l-1.07 1.098c-.301.3-.778.789-1.075 1.09-.297.304-.777.789-1.074 1.09-.297.3-.774.78-1.074 1.078-.297.3-.774.777-1.07 1.074-.297.297-.778.77-1.075 1.062-.297.293-.773.762-1.074 1.051l-1.07 1.04c-.301.284-.778.742-1.075 1.023-.296.281-.777.73-1.074 1.008-.297.277-.773.718-1.074.992-.297.273-.773.707-1.07.972a122.53 122.53 0 0 1-4.293 3.688 69.31 69.31 0 0 1-1.075.863c-.296.238-.773.61-1.074.84-.297.227-.773.59-1.07.809-.3.222-.777.57-1.074.785-.297.21-.778.547-1.074.754-.297.203-.774.527-1.07.722-.302.196-.778.504-1.075.692-.297.187-.777.484-1.074.66-.297.18-.774.46-1.074.629-.297.168-.774.433-1.07.594a45.18 45.18 0 0 1-4.293 2.023c-.298.117-.778.3-1.075.41-.297.113-.773.278-1.074.38-.297.097-.774.245-1.07.335a35.79 35.79 0 0 1-2.148.559 32.673 32.673 0 0 1-2.145.398c-.301.043-.778.106-1.075.14-.297.032-.777.075-1.074.098a32.73 32.73 0 0 1-1.07.059c-.301.012-.778.02-1.074.02a49.275 49.275 0 0 1-1.075-.024c-.296-.012-.773-.04-1.074-.062a32.273 32.273 0 0 1-3.219-.434 37.556 37.556 0 0 1-1.074-.223c-.297-.07-.773-.187-1.07-.265a55.142 55.142 0 0 1-1.074-.301c-.297-.09-.774-.242-1.075-.344-.296-.101-.773-.27-1.07-.379-.3-.113-.777-.297-1.074-.418a42.13 42.13 0 0 1-3.219-1.476c-.3-.153-.777-.403-1.074-.563-.297-.16-.777-.43-1.074-.597a61.115 61.115 0 0 1-3.219-1.992l-1.074-.727a89.91 89.91 0 0 1-1.07-.758c-.301-.215-.778-.566-1.075-.785a97.554 97.554 0 0 1-2.148-1.656c-.297-.239-.774-.622-1.07-.868a107.926 107.926 0 0 1-3.22-2.738c-.3-.266-.777-.691-1.073-.957-.297-.27-.778-.703-1.075-.977a232.886 232.886 0 0 1-2.144-2.003c-.301-.286-.778-.743-1.074-1.028-.297-.285-.774-.75-1.075-1.039-.297-.293-.773-.758-1.07-1.055-.3-.292-.777-.765-1.074-1.062-.297-.297-.778-.773-1.074-1.074-.297-.297-.774-.778-1.075-1.078-.297-.305-.773-.79-1.07-1.09-.3-.301-.777-.79-1.074-1.094-.297-.305-.778-.793-1.074-1.098l-1.07-1.097c-.301-.305-.778-.793-1.075-1.102-.297-.305-.777-.793-1.074-1.097-.297-.305-.774-.793-1.074-1.098-.297-.3-.774-.79-1.07-1.09l-1.075-1.09c-.297-.3-.777-.781-1.074-1.082-.297-.297-.774-.773-1.074-1.07-.297-.297-.774-.77-1.07-1.063-.298-.293-.778-.761-1.075-1.054a274.095 274.095 0 0 0-2.144-2.063c-.301-.281-.778-.73-1.075-1.012-.297-.277-.777-.718-1.074-.992a83.21 83.21 0 0 0-1.074-.972c-.297-.27-.773-.696-1.07-.957-.301-.262-.778-.68-1.075-.934a111.46 111.46 0 0 0-3.218-2.668c-.297-.234-.778-.61-1.075-.84-.296-.226-.773-.59-1.074-.812-.297-.22-.773-.57-1.07-.782-.3-.214-.777-.55-1.074-.757-.297-.204-.778-.528-1.075-.727a79.675 79.675 0 0 0-2.145-1.355 57.724 57.724 0 0 0-2.148-1.227 46.766 46.766 0 0 0-2.144-1.086 43.505 43.505 0 0 0-3.219-1.36c-.3-.109-.777-.277-1.074-.378-.297-.098-.773-.25-1.074-.34a54.785 54.785 0 0 0-1.07-.3c-.301-.075-.778-.192-1.075-.259a32.429 32.429 0 0 0-2.148-.406 50.152 50.152 0 0 0-1.07-.14c-.301-.036-.778-.079-1.075-.102-.297-.024-.777-.05-1.074-.063-.297-.011-1.07-.02-1.07-.02Zm0 0"/></g><g clip-path="url(#c)"><path fill="none" stroke="#000" stroke-miterlimit="10" stroke-width="1.5907004200000001" d="M16.969 60.848s.773-.008 1.07-.02c.297-.012.777-.039 1.074-.058.297-.024.774-.07 1.074-.102a33.483 33.483 0 0 0 2.145-.324 34.96 34.96 0 0 0 1.074-.223c.297-.066.774-.184 1.074-.262a36.522 36.522 0 0 0 2.145-.64 40.166 40.166 0 0 0 3.219-1.246c.297-.133.777-.348 1.074-.493.297-.14.773-.375 1.074-.523a57.544 57.544 0 0 0 2.145-1.156c.297-.172.777-.453 1.074-.633.297-.176.773-.473 1.07-.66.301-.188.778-.496 1.074-.696a78.132 78.132 0 0 0 2.148-1.48 93.245 93.245 0 0 0 2.145-1.598c.297-.226.778-.601 1.075-.84.297-.234.773-.62 1.074-.863.297-.242.773-.64 1.07-.89.297-.25.778-.657 1.074-.91l1.075-.934 1.07-.957c.3-.27.777-.703 1.074-.977.297-.273.778-.715 1.074-.992.297-.277.774-.726 1.075-1.008.296-.285.773-.738 1.07-1.027a269.64 269.64 0 0 0 2.148-2.09c.297-.293.774-.766 1.07-1.062.301-.297.778-.774 1.075-1.075.297-.297.777-.78 1.074-1.082.297-.3.774-.785 1.074-1.086.297-.3.774-.789 1.07-1.093.301-.305.778-.793 1.075-1.098.297-.3.777-.793 1.074-1.098.297-.304.774-.793 1.074-1.097l1.07-1.102c.297-.305.778-.793 1.075-1.098.297-.3.773-.789 1.074-1.09a284.118 284.118 0 0 1 2.145-2.171c.296-.297.777-.778 1.074-1.07.297-.297.773-.774 1.074-1.067a256.666 256.666 0 0 1 3.219-3.117c.297-.281.773-.735 1.07-1.012l1.074-.992c.297-.274.778-.711 1.075-.977.296-.27.773-.695 1.074-.957.297-.261.773-.68 1.07-.937.3-.254.777-.664 1.074-.914.297-.25.778-.645 1.074-.89a103.654 103.654 0 0 1 2.145-1.708c.297-.226.777-.59 1.074-.812a89.908 89.908 0 0 1 2.145-1.543c.3-.207.777-.532 1.074-.727.297-.2.777-.508 1.074-.695.297-.192.774-.485 1.074-.664a49.187 49.187 0 0 1 4.29-2.324 51.275 51.275 0 0 1 2.148-.946 35.901 35.901 0 0 1 2.144-.797c.301-.101.778-.254 1.075-.343.297-.09.777-.223 1.074-.305a35.55 35.55 0 0 1 1.07-.262 34.337 34.337 0 0 1 2.148-.41c.298-.043.774-.11 1.075-.145.297-.03.773-.078 1.07-.101.3-.024.778-.05 1.074-.063a32.85 32.85 0 0 1 1.075-.023c.296 0 .773.008 1.074.02.297.007.773.035 1.07.058a26.11 26.11 0 0 1 2.148.238 32.67 32.67 0 0 1 3.219.656 37.523 37.523 0 0 1 3.219 1.012c.297.11.777.293 1.074.414.297.121.774.32 1.07.454a37.664 37.664 0 0 1 2.149 1.007 48.732 48.732 0 0 1 2.145 1.156c.3.169.777.45 1.074.626.297.18.777.472 1.074.66a70.737 70.737 0 0 1 2.145 1.418c.296.203.777.539 1.074.754.297.21.773.562 1.074.78.297.224.773.583 1.07.813.301.227.778.602 1.075.836.296.239.777.621 1.074.864.297.242.773.64 1.074.89.297.246.773.653 1.07.91.301.254.778.672 1.074.934l1.075.953 1.07.973a129.128 129.128 0 0 1 2.148 2.004c.297.28.774.738 1.075 1.023.297.285.773.746 1.07 1.04.3.288.777.757 1.074 1.05.297.293.778.766 1.074 1.062l1.07 1.07c.302.302.778.782 1.075 1.083l1.074 1.086c.297.304.774.789 1.074 1.093l1.07 1.098c.301.305.778.793 1.075 1.098l1.074 1.097c.297.309.774.797 1.074 1.102l1.07 1.098c.298.3.778.789 1.075 1.093.297.301.773.786 1.074 1.086.297.301.774.785 1.07 1.082l1.075 1.075c.297.296.777.77 1.074 1.062.297.297.773.766 1.074 1.055.297.289.774.754 1.07 1.039.301.289.778.746 1.075 1.027.296.285.777.735 1.074 1.012.297.281.773.723 1.07.996l1.074.977c.297.27.778.695 1.075.957.296.265.773.68 1.074.937.297.258.773.664 1.07.918.3.25.777.645 1.074.89.297.243.778.63 1.075.868.296.238.773.613 1.074.844a94.052 94.052 0 0 0 2.145 1.602 86.736 86.736 0 0 0 2.145 1.488c.3.199.776.507 1.073.699a80 80 0 0 0 1.074.664c.297.18.774.465 1.074.633.297.171.774.441 1.07.601.302.16.778.414 1.075.567a39 39 0 0 0 1.074.527c.297.144.774.363 1.07.496.301.133.778.336 1.075.457.297.121.777.309 1.074.422.297.11.773.281 1.074.379.297.101.774.254 1.07.347.301.09.778.223 1.075.305.297.078.777.195 1.074.266.297.066.773.168 1.07.226.301.055.778.14 1.074.188.297.043.778.11 1.075.144.297.035.773.082 1.074.106.297.023.773.054 1.07.066.301.012.778.024 1.074.024.297.004.778-.004 1.075-.016.297-.008.773-.035 1.074-.055.297-.02.773-.062 1.07-.097.297-.032.778-.094 1.074-.137.297-.043.774-.121 1.075-.176a34.647 34.647 0 0 0 2.144-.476c.297-.075.778-.207 1.074-.293.297-.09.774-.239 1.075-.336a38.77 38.77 0 0 0 3.218-1.235c.297-.129.774-.347 1.07-.484a47.007 47.007 0 0 0 2.148-1.082c.298-.156.775-.422 1.075-.59a60.904 60.904 0 0 0 4.293-2.7c.297-.202.774-.538 1.07-.75.297-.214.778-.562 1.075-.78l1.074-.809c.297-.23.773-.602 1.07-.836a115.273 115.273 0 0 0 2.149-1.75 113.6 113.6 0 0 0 2.145-1.84c.3-.261 1.074-.953 1.074-.953"/></g><g clip-path="url(#d)"><path fill="none" stroke="#000" stroke-miterlimit="10" stroke-width="1.5907004200000001" d="M16.969 124.09s.773.008 1.07.02c.297.011.777.038 1.074.062.297.023.774.066 1.074.101.297.036.774.098 1.07.141a32.425 32.425 0 0 1 2.15.406c.296.067.773.184 1.073.258.297.078.774.215 1.07.3.302.09.778.243 1.075.34.297.102.773.27 1.074.38a40.318 40.318 0 0 1 2.145.87c.297.13.777.348 1.074.489a46.769 46.769 0 0 1 3.219 1.684 51.076 51.076 0 0 1 2.144 1.293c.301.187.778.496 1.074.691.297.2.778.523 1.075.727.297.207.773.543 1.074.757.297.211.773.563 1.07.782.301.222.778.586 1.074.812.297.23.778.606 1.075.84a107.022 107.022 0 0 1 3.219 2.668c.296.254.773.672 1.074.934a118 118 0 0 1 1.07.957c.3.265.777.699 1.074.972.297.274.778.715 1.074.992.297.282.774.73 1.075 1.012a258.942 258.942 0 0 1 2.144 2.063c.297.293.777.761 1.074 1.054.297.293.774.766 1.07 1.063.301.297.778.773 1.075 1.07.297.3.777.781 1.074 1.082L58.82 150c.297.3.774.79 1.07 1.09.301.305.778.793 1.075 1.097l1.074 1.098c.297.309.774.797 1.074 1.102l1.07 1.097c.297.305.778.793 1.075 1.098.297.305.773.793 1.074 1.094.297.3.773.785 1.07 1.09.301.3.778.78 1.075 1.078.296.3.777.777 1.074 1.074.297.297.773.77 1.074 1.062.297.297.773.762 1.07 1.055l1.075 1.04c.296.284.773.741 1.074 1.027.297.28.773.73 1.07 1.007.3.282.777.723 1.074.996.297.274.778.707 1.075.977.296.266.773.691 1.074.957a114.19 114.19 0 0 0 4.289 3.606 97.569 97.569 0 0 0 2.148 1.656 89.908 89.908 0 0 0 2.145 1.543c.3.203.777.527 1.074.726a61.124 61.124 0 0 0 3.219 1.992c.297.168.777.438 1.074.598a45.15 45.15 0 0 0 2.145 1.09 42.126 42.126 0 0 0 2.148.95c.297.12.773.304 1.074.417.297.11.774.278 1.07.38.301.1.778.253 1.075.343.297.086.777.223 1.074.3.297.079.773.196 1.07.266.301.067.778.168 1.074.223a32.273 32.273 0 0 0 3.219.434c.3.023.778.05 1.074.062.297.012.778.02 1.075.023.296 0 .773-.007 1.074-.02.297-.01.773-.034 1.07-.058.297-.023.777-.066 1.074-.097.297-.035.774-.098 1.075-.141a32.67 32.67 0 0 0 2.145-.398 35.794 35.794 0 0 0 2.148-.559c.296-.09.773-.238 1.07-.336.3-.101.777-.266 1.074-.379.297-.11.777-.293 1.074-.41.297-.121.774-.324 1.07-.453a45.184 45.184 0 0 0 4.293-2.164c.301-.168.778-.45 1.075-.63.297-.175.777-.472 1.074-.66.297-.187.773-.495 1.074-.69.297-.196.774-.52 1.07-.723.297-.207.778-.543 1.075-.754.297-.215.773-.563 1.074-.785a96.23 96.23 0 0 0 1.07-.809c.301-.23.778-.602 1.075-.84.296-.234.777-.617 1.074-.863.297-.242.773-.637 1.074-.887a122.547 122.547 0 0 0 4.29-3.773 253.824 253.824 0 0 0 2.148-2c.296-.282.773-.739 1.074-1.024l1.07-1.039c.3-.289.777-.758 1.074-1.05.297-.294.778-.766 1.074-1.063.297-.297.774-.773 1.07-1.074.302-.297.778-.778 1.075-1.078.297-.301.777-.786 1.074-1.09.297-.301.774-.79 1.074-1.09l1.07-1.098c.301-.304.778-.793 1.075-1.097l1.074-1.102c.297-.305.774-.793 1.074-1.098l1.07-1.097c.298-.305.778-.79 1.075-1.094.297-.3.773-.79 1.074-1.09.297-.3.774-.781 1.07-1.082.301-.297.778-.773 1.075-1.07.297-.297.777-.774 1.074-1.067.297-.293.773-.761 1.074-1.05.297-.293.774-.754 1.07-1.043.301-.286.778-.743 1.075-1.028.296-.28.777-.73 1.074-1.011.297-.278.773-.72 1.07-.993l1.074-.98c.297-.266.778-.691 1.075-.957.296-.262.773-.68 1.074-.938.297-.254.773-.664 1.07-.914.3-.25.777-.648 1.074-.89a69.67 69.67 0 0 1 1.075-.867 97.24 97.24 0 0 1 2.145-1.66 94.04 94.04 0 0 1 1.073-.79c.297-.21.774-.55 1.075-.758a71.21 71.21 0 0 1 2.145-1.426c.296-.19.776-.484 1.073-.667a48.963 48.963 0 0 1 4.293-2.328c.297-.141.774-.36 1.07-.493a40.705 40.705 0 0 1 2.148-.879 37.757 37.757 0 0 1 2.145-.727c.301-.089.778-.226 1.075-.304.297-.078.777-.199 1.074-.265a26.1 26.1 0 0 1 1.07-.227c.301-.059.778-.14 1.074-.187a33.72 33.72 0 0 1 2.149-.254 32.754 32.754 0 0 1 2.144-.09c.297 0 .778.008 1.075.015a33.583 33.583 0 0 1 2.144.153c.297.035.778.094 1.074.137.297.046.774.125 1.075.18.297.054.773.152 1.07.214.3.066.777.184 1.074.258.297.078.778.21 1.074.297.297.086.774.238 1.075.336.296.097.773.265 1.07.37a41.801 41.801 0 0 1 4.293 1.871c.297.15.777.395 1.074.556a50.602 50.602 0 0 1 2.145 1.219c.3.179.777.472 1.074.66.297.183.777.492 1.074.687l1.074.723c.297.207.774.539 1.07.754.297.21.778.558 1.075.78.297.22.773.579 1.074.81.297.226.773.6 1.07.835.301.235.778.617 1.075.86.296.246.777.64 1.074.886.297.25.773.657 1.074.91.297.258.773.672 1.07.934.301.262 1.075.953 1.075.953"/></g><use xlink:href="#e" x="10.771" y="41.654"/><use xlink:href="#f" x="10.771" y="35.033"/><use xlink:href="#g" x="10.771" y="27.432"/><use xlink:href="#h" x="10.771" y="22.461"/><use xlink:href="#i" x="10.771" y="14.865"/><use xlink:href="#j" x="10.771" y="12.101"/><use xlink:href="#k" x="10.771" y="6.852"/></svg>