<svg xmlns="http://www.w3.org/2000/svg" width="115.609" height="85.041"><defs><clipPath id="a"><path d="M.453 5h111.04v74H.452Zm0 0"/></clipPath><clipPath id="b"><path d="M.453 0h111.04v48H.452Zm0 0"/></clipPath><clipPath id="c"><path d="M.453 36h111.04v48.094H.452Zm0 0"/></clipPath></defs><g clip-path="url(#a)"><path fill="#7F7F7F" fill-opacity=".5" d="m.453 15.29.555-.74c.156-.206.406-.53.558-.734.157-.203.403-.527.559-.726.156-.2.402-.516.559-.711.156-.195.402-.508.558-.695.153-.192.403-.493.559-.676.152-.184.402-.469.554-.645.157-.175.407-.453.56-.62.155-.165.401-.427.558-.587.156-.156.402-.398.558-.547.157-.144.403-.37.559-.507.152-.137.402-.344.558-.465.153-.125.403-.313.555-.422.156-.11.406-.274.559-.371.156-.094.406-.239.558-.32.157-.083.403-.2.559-.266a6.553 6.553 0 0 1 1.117-.375c.152-.035.402-.082.559-.102.152-.02.402-.043.554-.047.157-.004.407 0 .559.012.156.012.402.043.559.07.156.028.402.082.558.125.156.043.402.122.559.18.152.059.402.164.558.238.153.07.403.2.555.29.156.085.406.238.559.34.156.1.406.277.558.39a18.377 18.377 0 0 1 1.117.922c.153.14.403.375.559.527.152.149.402.402.559.563.152.16.402.43.554.597.157.172.407.453.559.633.156.176.402.473.558.656.157.188.403.493.56.684.155.191.401.504.558.703.152.195.402.516.558.719.153.199.403.523.555.73.156.203.406.532.559.735.156.207.402.535.558.738.156.207.402.535.559.738.156.203.402.531.558.73.153.204.403.524.559.723.152.2.402.512.555.707.156.192.406.496.558.684.156.187.406.484.559.664.156.18.402.465.558.637.157.172.403.441.559.605a23.91 23.91 0 0 0 1.117 1.105c.152.141.402.36.555.489.156.133.406.332.558.45a12.338 12.338 0 0 0 1.118.75c.156.089.402.222.558.3.153.074.403.184.559.246a6.22 6.22 0 0 0 1.113.328 5.643 5.643 0 0 0 2.234-.023c.153-.035.403-.102.56-.149.151-.05.401-.14.554-.203.156-.066.406-.18.558-.258a10.016 10.016 0 0 0 1.118-.672 17.12 17.12 0 0 0 1.117-.867c.152-.133.402-.36.554-.504.157-.144.407-.382.559-.539.156-.156.402-.414.559-.578.156-.164.402-.437.558-.613.156-.172.403-.461.559-.64.152-.184.402-.481.558-.669.153-.191.403-.5.555-.691.156-.195.406-.512.559-.711.156-.2.406-.52.558-.723.157-.203.403-.53.559-.734.156-.203.402-.531.558-.738.153-.203.403-.535.559-.739.152-.203.402-.53.559-.734.152-.203.402-.527.554-.73.157-.2.407-.516.559-.715.156-.196.402-.508.559-.7.156-.187.402-.492.558-.675.156-.184.402-.477.559-.653.152-.18.402-.457.558-.625a27.22 27.22 0 0 1 1.114-1.148c.156-.149.402-.379.558-.516.156-.136.403-.347.559-.472.156-.125.402-.317.558-.43.153-.113.403-.281.559-.379a9.127 9.127 0 0 1 1.113-.61 9.31 9.31 0 0 1 .559-.226c.156-.055.402-.129.558-.168.157-.039.403-.09.559-.113a6.77 6.77 0 0 1 .559-.059 6.66 6.66 0 0 1 .558 0 5.456 5.456 0 0 1 1.113.176c.157.04.403.113.56.168.155.055.401.156.558.227a9.343 9.343 0 0 1 1.117.609c.152.102.402.27.555.383a14.188 14.188 0 0 1 1.117.906c.156.137.402.367.558.516.157.148.403.398.559.558.152.156.402.422.559.59.152.168.402.45.558.625.152.18.402.469.555.652.156.188.406.489.558.68.157.192.403.504.559.7.156.195.402.515.559.714.156.2.402.528.558.73.153.204.403.528.559.735l.554.738c.157.207.407.535.559.739.156.203.402.53.559.734.156.2.402.523.558.723.156.199.403.515.559.707.152.195.402.504.558.691.153.188.403.488.559.668a31.203 31.203 0 0 0 1.672 1.832c.156.156.402.395.558.54.157.144.403.366.56.5a15.044 15.044 0 0 0 1.112.866c.157.106.407.266.559.36a8.895 8.895 0 0 0 1.117.566c.156.063.402.152.559.203a6.893 6.893 0 0 0 1.113.238c.156.016.406.032.559.032a5.298 5.298 0 0 0 1.117-.106c.156-.027.402-.09.558-.136.153-.043.403-.13.559-.192.152-.062.402-.172.559-.25a9.49 9.49 0 0 0 1.113-.652c.156-.102.402-.281.558-.399.157-.12.403-.32.559-.449.156-.133.402-.351.559-.492.152-.145.402-.379.558-.535a27.693 27.693 0 0 0 1.113-1.176c.157-.172.403-.457.56-.637.155-.18.401-.476.558-.664.156-.187.402-.496.558-.687.153-.196.403-.508.559-.707.152-.2.402-.52.558-.719.153-.203.403-.527.555-.734.156-.204.406-.532.559-.735l.558-.742c.157-.203.403-.531.559-.734.156-.203.402-.532.559-.73.152-.2.402-.52.558-.72.152-.195.402-.507.555-.703l.558-.68c.157-.187.403-.48.559-.66.156-.175.402-.457.559-.628a27.88 27.88 0 0 1 1.117-1.16 17.062 17.062 0 0 1 1.113-1.008c.156-.125.406-.32.559-.438.156-.113.402-.289.558-.39.156-.102.403-.25.559-.34.152-.086.402-.215.558-.29.153-.07.403-.175.559-.234.152-.058.402-.137.555-.18a7.59 7.59 0 0 1 .558-.125 6.8 6.8 0 0 1 .559-.066c.156-.012.402-.016.558-.012.157.008.403.028.56.047a5.925 5.925 0 0 1 1.113.266 7.471 7.471 0 0 1 1.117.484c.156.082.402.227.558.32.156.098.403.262.559.372.152.113.402.3.558.422a19.64 19.64 0 0 1 1.114.976c.156.145.406.39.558.547.156.16.403.422.559.586.156.168.402.445.558.621a47.882 47.882 0 0 1 1.118 1.32l.554.696v59.308l-.554.696-.559.675c-.156.184-.402.473-.559.649-.156.176-.402.449-.558.617a27.017 27.017 0 0 1-1.117 1.137c-.153.144-.403.37-.559.507a14.577 14.577 0 0 1-1.113.887 11.52 11.52 0 0 1-1.117.695c-.157.083-.403.2-.559.27-.152.066-.402.16-.559.215a9.87 9.87 0 0 1-.554.16 7.324 7.324 0 0 1-.559.102 5.386 5.386 0 0 1-.558.046 8.88 8.88 0 0 1-.56-.007 6.818 6.818 0 0 1-.558-.07 6.102 6.102 0 0 1-1.113-.305 6.27 6.27 0 0 1-.559-.235c-.156-.07-.406-.199-.558-.289a10.677 10.677 0 0 1-1.117-.73 16.962 16.962 0 0 1-1.118-.918 25.31 25.31 0 0 1-1.672-1.687c-.156-.169-.402-.45-.558-.63-.156-.18-.402-.472-.559-.656l-.558-.683c-.153-.192-.403-.504-.555-.704a35.06 35.06 0 0 1-.558-.718c-.157-.2-.403-.524-.56-.727-.155-.203-.401-.531-.558-.738-.156-.203-.402-.535-.558-.738a52.215 52.215 0 0 0-.559-.739c-.152-.203-.402-.531-.555-.73-.156-.203-.406-.524-.558-.723a88.322 88.322 0 0 1-.559-.707c-.156-.191-.402-.496-.558-.683-.157-.188-.403-.485-.559-.665a30.943 30.943 0 0 0-.558-.636 21.097 21.097 0 0 0-.56-.61 38.74 38.74 0 0 0-.554-.57c-.156-.152-.406-.39-.558-.531a15.76 15.76 0 0 0-1.118-.942 16.615 16.615 0 0 0-.558-.402 9.49 9.49 0 0 0-1.113-.652 7.621 7.621 0 0 0-1.118-.442 7.266 7.266 0 0 0-.558-.136 6.876 6.876 0 0 0-.559-.082 8.778 8.778 0 0 0-.558-.024 6.806 6.806 0 0 0-.559.035 5.605 5.605 0 0 0-1.113.238 7.969 7.969 0 0 0-.559.2c-.156.066-.402.18-.558.258-.157.078-.403.218-.56.308-.151.094-.401.254-.558.363-.152.106-.402.29-.554.41-.157.118-.407.32-.559.454-.156.133-.402.355-.559.5a26.178 26.178 0 0 0-1.117 1.117c-.152.168-.402.437-.558.613a46.802 46.802 0 0 0-1.114 1.309c-.156.191-.406.496-.558.691-.156.195-.403.512-.559.711-.156.2-.402.52-.558.723-.157.199-.403.527-.559.73-.152.207-.402.535-.559.739-.152.207-.402.535-.554.742a91.28 91.28 0 0 0-.559.734c-.156.203-.402.527-.558.727-.157.199-.403.52-.559.715-.156.199-.402.507-.559.699a48.284 48.284 0 0 1-1.113 1.332c-.156.18-.406.457-.558.625-.157.168-.407.433-.56.594-.155.16-.401.406-.558.554a15.563 15.563 0 0 1-1.676 1.422c-.152.113-.402.285-.554.383-.156.098-.406.246-.559.332a8.367 8.367 0 0 1-1.117.504 7.626 7.626 0 0 1-.559.172c-.152.039-.402.09-.558.113-.152.023-.402.05-.555.059a6.659 6.659 0 0 1-.558 0 6.755 6.755 0 0 1-.559-.055 7.074 7.074 0 0 1-.559-.113 7.627 7.627 0 0 1-1.117-.395 9.253 9.253 0 0 1-.554-.281 9.057 9.057 0 0 1-1.118-.711 13.234 13.234 0 0 1-1.117-.902 22.37 22.37 0 0 1-1.117-1.07c-.152-.16-.402-.423-.555-.595a28.615 28.615 0 0 1-1.117-1.277 51.482 51.482 0 0 1-.559-.676c-.156-.191-.402-.504-.558-.699-.152-.195-.402-.516-.559-.715-.152-.199-.402-.523-.554-.726a52.215 52.215 0 0 1-.559-.739 52.207 52.207 0 0 1-.559-.738c-.156-.203-.402-.535-.558-.738-.156-.203-.403-.531-.559-.73a51.11 51.11 0 0 0-.558-.727 88.304 88.304 0 0 0-1.114-1.399c-.156-.187-.406-.488-.558-.668a47.394 47.394 0 0 0-.559-.644c-.156-.172-.402-.445-.558-.61a26.733 26.733 0 0 0-.559-.581 24.103 24.103 0 0 0-1.113-1.04 12.712 12.712 0 0 0-1.676-1.23 9.928 9.928 0 0 0-.559-.309 6.517 6.517 0 0 0-.558-.257 6.345 6.345 0 0 0-1.672-.446 8.93 8.93 0 0 0-.559-.035c-.156 0-.402.008-.558.024-.153.015-.403.05-.559.078-.152.03-.402.093-.559.136-.152.047-.402.133-.554.192a9.67 9.67 0 0 0-1.117.547 10.982 10.982 0 0 0-1.118.754c-.152.117-.402.316-.558.445a20.914 20.914 0 0 0-1.113 1.023 25.727 25.727 0 0 0-1.118 1.176c-.156.172-.402.457-.558.637-.153.18-.403.476-.559.664-.152.187-.402.492-.558.687-.153.192-.403.508-.555.707-.156.196-.406.516-.559.72-.156.202-.402.526-.558.73-.157.203-.403.535-.559.738-.156.207-.402.535-.558.738-.153.207-.403.535-.56.738-.151.204-.401.528-.554.73-.156.2-.406.52-.558.72-.157.195-.403.507-.559.699a49.393 49.393 0 0 1-1.117 1.344c-.152.18-.402.46-.559.629-.152.171-.402.437-.554.601-.157.16-.407.41-.559.563-.156.148-.406.382-.559.523a13.644 13.644 0 0 1-1.676 1.313c-.152.101-.402.253-.558.343a12.55 12.55 0 0 1-.555.29c-.156.07-.406.175-.558.234-.156.058-.403.14-.559.183a7.166 7.166 0 0 1-.558.125 6.801 6.801 0 0 1-.559.067 6.629 6.629 0 0 1-.559.011 6.626 6.626 0 0 1-.554-.043 6.702 6.702 0 0 1-1.117-.261 10.917 10.917 0 0 1-.56-.215 9.114 9.114 0 0 1-1.116-.59 19.725 19.725 0 0 1-.559-.371 17.18 17.18 0 0 1-.555-.418 15.431 15.431 0 0 1-.558-.469c-.156-.133-.402-.36-.559-.508a24.325 24.325 0 0 1-1.117-1.132c-.152-.168-.402-.442-.559-.618a47.79 47.79 0 0 1-.554-.648 46.253 46.253 0 0 1-.559-.672c-.156-.191-.402-.5-.558-.695-.157-.195-.403-.516-.559-.715-.156-.2-.402-.52-.559-.723a91.28 91.28 0 0 0-.558-.734 106.13 106.13 0 0 0-.555-.738Zm0 0"/></g><g clip-path="url(#b)"><path fill="none" stroke="#000" stroke-miterlimit="10" stroke-width="1.5762269" d="m.453 15.29.555-.74c.156-.206.406-.53.558-.734.157-.203.403-.527.559-.726.156-.2.402-.516.559-.711.156-.195.402-.508.558-.695.153-.192.403-.493.559-.676.152-.184.402-.469.554-.645.157-.176.407-.453.56-.62.155-.165.401-.427.558-.587.156-.156.402-.398.558-.547.157-.144.403-.37.559-.507.152-.137.402-.344.558-.465.153-.125.403-.313.555-.422.156-.11.406-.274.559-.371.156-.094.406-.239.558-.32.157-.083.403-.2.559-.266a6.553 6.553 0 0 1 1.117-.375c.152-.035.402-.082.559-.102.152-.02.402-.043.554-.047.157-.004.407 0 .559.012.156.012.402.043.559.07.156.028.402.082.558.125.156.043.403.121.559.18.152.059.402.164.558.238.153.07.403.2.555.29.156.085.406.238.559.34.156.1.406.277.558.39a18.378 18.378 0 0 1 1.117.922c.153.14.403.375.559.527.152.149.402.402.559.563.152.16.402.43.554.597.157.172.407.453.559.633.156.176.402.473.558.656.157.188.403.493.56.684.155.191.401.504.558.703.152.195.402.516.558.719.153.199.403.523.555.73.156.203.406.532.559.735.156.207.402.535.558.738.156.207.402.535.559.738.156.203.402.531.558.73.153.204.403.524.559.723.152.2.402.512.555.707.156.192.406.496.558.684.156.187.406.484.559.664.156.18.402.465.558.637.157.172.403.441.559.605a23.91 23.91 0 0 0 1.117 1.105c.153.141.403.36.555.489.156.133.406.332.558.45a12.338 12.338 0 0 0 1.118.75c.156.089.402.222.558.3.153.074.403.184.559.246a6.22 6.22 0 0 0 1.113.328 5.643 5.643 0 0 0 2.234-.023c.153-.035.403-.102.56-.149.151-.05.401-.14.554-.203.156-.066.406-.18.558-.258a10.016 10.016 0 0 0 1.118-.672 17.12 17.12 0 0 0 1.117-.867c.152-.133.402-.36.554-.504.157-.144.407-.382.559-.539.156-.156.402-.414.559-.578.156-.164.402-.437.558-.613.156-.172.403-.461.559-.64.152-.184.402-.481.558-.669.153-.191.403-.5.555-.691.156-.195.406-.512.559-.711.156-.2.406-.52.558-.723.157-.203.403-.53.559-.734.156-.203.402-.531.558-.738.153-.203.403-.535.559-.739.152-.203.402-.53.559-.734.152-.203.402-.527.554-.73.157-.2.407-.516.559-.715.156-.196.402-.508.559-.7.156-.187.402-.492.558-.675.156-.184.402-.477.559-.653.152-.18.402-.457.558-.625a27.22 27.22 0 0 1 1.114-1.148c.156-.149.402-.379.558-.516.156-.136.403-.347.559-.472.156-.125.402-.317.558-.43.153-.113.403-.281.559-.379a9.126 9.126 0 0 1 1.113-.61 9.31 9.31 0 0 1 .559-.226c.156-.055.402-.129.558-.168.157-.039.403-.09.559-.113a6.77 6.77 0 0 1 .559-.059 6.66 6.66 0 0 1 .558 0 5.456 5.456 0 0 1 1.113.176c.157.04.403.113.56.168.155.055.401.156.558.227a9.344 9.344 0 0 1 1.117.609c.152.102.402.27.555.383a14.187 14.187 0 0 1 1.117.906c.156.137.402.367.558.516.157.148.403.398.559.558.152.156.402.422.559.59.152.168.402.45.558.625.152.18.402.469.555.652.156.188.406.489.558.68.157.192.403.504.559.7.156.195.402.515.559.714.156.2.402.528.558.73.153.204.403.528.559.735l.554.738c.157.207.407.535.559.739.156.203.402.53.559.734.156.2.402.523.558.723.156.199.403.515.559.707.152.195.402.504.558.691.153.188.403.488.559.668a31.206 31.206 0 0 0 1.672 1.832c.156.156.402.395.558.54.157.144.403.366.56.5a15.045 15.045 0 0 0 1.112.866c.157.106.407.266.559.36a8.895 8.895 0 0 0 1.117.566c.156.063.402.152.559.203a6.893 6.893 0 0 0 1.113.238c.156.016.406.032.559.032a5.299 5.299 0 0 0 1.117-.106c.156-.027.402-.09.558-.136.153-.043.403-.13.559-.192.152-.062.402-.172.559-.25a9.49 9.49 0 0 0 1.113-.652c.156-.102.402-.281.558-.399.157-.12.403-.32.559-.449.156-.133.402-.351.559-.492.152-.145.402-.379.558-.535a27.691 27.691 0 0 0 1.113-1.176c.157-.172.403-.457.56-.637.155-.18.401-.476.558-.664.156-.187.402-.496.558-.687.153-.196.403-.508.559-.707.152-.2.402-.52.558-.719.153-.203.403-.527.555-.734.156-.204.406-.532.559-.735l.558-.742c.157-.203.403-.531.559-.734.156-.203.402-.532.559-.73.152-.2.402-.52.558-.72.152-.195.402-.507.555-.703l.558-.68a49.4 49.4 0 0 1 .559-.66c.156-.175.402-.457.559-.628a27.88 27.88 0 0 1 1.117-1.16 17.061 17.061 0 0 1 1.113-1.008c.156-.125.406-.32.559-.438.156-.113.402-.289.558-.39.157-.102.403-.25.559-.34.152-.086.402-.215.558-.29.153-.07.403-.175.559-.234.152-.058.402-.137.555-.18.156-.042.406-.097.558-.125.157-.027.403-.054.559-.066.156-.012.402-.016.559-.012.156.008.402.028.558.047a5.924 5.924 0 0 1 1.113.266 7.472 7.472 0 0 1 1.118.484c.156.082.402.227.558.32.156.098.403.262.559.372.152.113.402.3.558.422a19.644 19.644 0 0 1 1.114.976c.156.145.406.39.558.547.156.16.403.422.559.586.156.168.402.445.558.621a47.883 47.883 0 0 1 1.672 2.016"/></g><g clip-path="url(#c)"><path fill="none" stroke="#000" stroke-miterlimit="10" stroke-width="1.5762269" d="M.453 68.805s.402.53.555.738c.156.203.406.531.558.734.157.203.403.524.559.723.156.2.402.52.559.715.156.195.402.504.558.695.153.188.403.488.559.672.152.184.402.473.554.648.157.176.407.45.56.618.155.168.401.43.558.586.156.156.402.402.558.546.157.149.403.375.559.508.152.137.402.344.558.469.153.121.403.309.555.418.156.11.406.273.559.371a9.114 9.114 0 0 0 1.117.59c.156.066.402.16.559.215a6.703 6.703 0 0 0 1.117.262c.152.019.402.039.554.042.157.004.407 0 .559-.011.156-.012.402-.04.559-.067.156-.027.402-.082.558-.125.156-.043.403-.125.559-.183.152-.059.402-.164.558-.235.153-.074.403-.203.555-.289a11.925 11.925 0 0 0 1.676-1.172c.156-.128.402-.343.558-.484.153-.14.403-.375.559-.523.152-.153.402-.403.559-.563.152-.164.402-.43.554-.601.157-.168.407-.45.559-.63a49.394 49.394 0 0 0 1.117-1.343c.156-.192.402-.504.559-.7.152-.199.402-.519.558-.718.153-.203.403-.527.555-.73.156-.204.406-.532.559-.739.156-.203.402-.531.558-.738.156-.203.402-.535.559-.738.156-.204.402-.528.558-.73.153-.204.403-.524.559-.72.152-.199.402-.515.555-.707.156-.195.406-.5.558-.687.156-.188.406-.485.559-.664.156-.18.402-.465.558-.637a25.727 25.727 0 0 1 1.117-1.176c.153-.152.403-.39.56-.53.152-.142.402-.364.554-.493.156-.129.406-.328.558-.445a10.982 10.982 0 0 1 1.117-.754 9.67 9.67 0 0 1 1.118-.547c.152-.059.402-.145.555-.192.156-.043.406-.105.558-.136.156-.028.406-.063.559-.078.156-.016.402-.024.558-.024.157.004.403.02.559.035a6.233 6.233 0 0 1 1.672.445c.156.063.406.176.558.258.157.078.403.215.559.309a11.301 11.301 0 0 1 1.117.773c.152.121.402.325.559.457a21.356 21.356 0 0 1 1.672 1.622c.156.164.402.437.558.609.156.176.403.46.559.644.152.18.402.48.558.668a88.305 88.305 0 0 1 1.113 1.398c.157.2.407.524.56.727.156.2.402.528.558.73.156.204.402.536.558.74.153.206.403.534.559.737.152.207.402.536.559.739.152.203.402.527.554.726l.559.715c.156.195.402.508.559.7a51.476 51.476 0 0 0 1.117 1.331c.152.176.402.453.558.621.153.172.403.434.555.594a22.37 22.37 0 0 0 1.117 1.07 13.234 13.234 0 0 0 1.676 1.285c.152.098.402.247.559.329.152.086.402.21.554.281a7.627 7.627 0 0 0 1.117.395c.157.039.403.09.559.113.156.023.402.047.559.055.152.007.402.007.558 0 .153-.008.403-.036.555-.059.156-.023.406-.074.558-.113.157-.04.403-.118.56-.172a8.367 8.367 0 0 0 1.116-.504c.153-.086.403-.234.559-.332a14.188 14.188 0 0 0 1.113-.813c.156-.125.406-.336.559-.472a24.844 24.844 0 0 0 1.117-1.074c.152-.16.402-.426.559-.594.152-.168.402-.446.558-.625a48.292 48.292 0 0 0 1.113-1.332c.157-.192.403-.5.559-.7.156-.195.402-.515.559-.714.156-.2.402-.524.558-.727.153-.203.403-.531.559-.734.152-.207.402-.535.554-.742.157-.204.407-.532.559-.739.156-.203.402-.531.559-.73.156-.203.402-.524.558-.723.156-.2.403-.516.559-.71.152-.196.402-.5.558-.692a45.936 45.936 0 0 1 1.114-1.309c.156-.176.406-.445.558-.613a26.181 26.181 0 0 1 1.117-1.117c.157-.145.403-.367.56-.5.151-.133.401-.336.558-.453.152-.122.402-.305.554-.41.157-.11.407-.27.559-.364.156-.09.402-.23.559-.308.156-.079.402-.192.558-.258.156-.063.402-.153.559-.2a5.605 5.605 0 0 1 1.113-.238c.156-.02.406-.031.559-.035.156 0 .406.012.558.024.156.015.403.05.559.082.156.03.402.09.558.136a7.622 7.622 0 0 1 1.672.742c.157.09.407.247.559.352a14.067 14.067 0 0 1 1.117.852c.156.128.402.347.559.492.152.14.402.379.558.531.153.152.403.41.555.57.156.164.406.434.559.61.156.172.402.453.558.636.156.18.402.477.559.664.156.188.402.493.558.684.153.195.403.512.559.707.152.2.402.52.558.723.153.199.403.527.555.73.156.203.406.531.559.739.156.203.402.535.558.738.157.207.403.535.559.738.156.203.402.527.559.727.152.203.402.523.558.718.152.2.402.512.555.704l.558.683c.157.184.403.477.559.656a42.254 42.254 0 0 0 1.117 1.23 25.313 25.313 0 0 0 1.113 1.087 16.962 16.962 0 0 0 1.117.918 10.677 10.677 0 0 0 1.117.73c.153.09.403.219.56.29.152.073.402.179.558.234a6.102 6.102 0 0 0 1.672.375c.156.007.402.011.559.007.156-.003.402-.023.558-.046.152-.02.402-.067.559-.102.152-.039.402-.11.554-.16.157-.055.407-.149.559-.215.156-.07.402-.187.559-.27a10.292 10.292 0 0 0 1.117-.695 14.58 14.58 0 0 0 1.113-.887c.156-.136.406-.363.559-.507a24.7 24.7 0 0 0 1.117-1.137c.156-.168.402-.441.558-.617.157-.176.403-.465.559-.649l.559-.675.554-.696"/></g></svg>