<svg xmlns="http://www.w3.org/2000/svg" width="115.609" height="85.041"><defs><clipPath id="a"><path d="M.453 5h111.04v74H.452Zm0 0"/></clipPath><clipPath id="b"><path d="M.453 0h111.04v48H.452Zm0 0"/></clipPath><clipPath id="c"><path d="M.453 36h111.04v48.094H.452Zm0 0"/></clipPath></defs><g clip-path="url(#a)"><path fill="#7F7F7F" fill-opacity=".5" d="m.453 15.29.555-1.368c.156-.379.406-.977.558-1.344.157-.363.403-.937.559-1.281a35.667 35.667 0 0 1 1.117-2.3c.153-.286.403-.716.559-.966.152-.246.402-.613.554-.816.157-.203.407-.492.56-.649.155-.156.401-.363.558-.468.156-.106.402-.23.558-.282.157-.05.403-.086.559-.082.152.004.402.055.558.11.153.058.403.199.555.308.156.114.406.332.559.496.156.16.406.465.558.672.157.211.403.586.559.84.156.254.402.692.559.985.156.289.402.789.558 1.113.152.32.402.867.559 1.215.152.347.402.925.554 1.293.157.367.407.968.559 1.347.156.375.402.989.559 1.367.156.383.402.993.558 1.368.156.375.402.972.559 1.336a56.424 56.424 0 0 0 1.113 2.46c.156.317.406.797.559 1.079.156.28.406.707.558.945.156.242.403.598.559.793.156.2.402.477.558.625.153.148.403.348.559.445.152.098.402.211.559.254.152.043.402.067.554.055.157-.012.407-.074.559-.14a3.23 3.23 0 0 0 .558-.333c.157-.12.403-.351.56-.523a9.03 9.03 0 0 0 .558-.696c.152-.218.402-.601.558-.859.153-.262.403-.71.555-1.004.156-.297.406-.8.559-1.129.156-.328.402-.875.558-1.226.156-.352.402-.938.559-1.305.156-.367.402-.973.558-1.352.153-.378.403-.992.559-1.37.152-.38.402-.989.555-1.364.156-.375.406-.969.558-1.328.156-.36.406-.926.559-1.266.156-.336.402-.863.558-1.172.157-.312.403-.785.559-1.062.152-.274.402-.688.559-.926.152-.234.402-.578.558-.77.152-.19.402-.456.555-.597.156-.145.406-.328.558-.418.157-.09.403-.191.559-.227.156-.035.402-.046.559-.027.156.02.402.094.558.168.153.07.403.234.559.36.152.124.402.37.554.546.157.176.407.5.56.723.155.219.405.617.558.879.156.265.402.723.558 1.023.157.301.403.813.559 1.145.152.328.402.883.558 1.238.153.356.403.942.56 1.313.151.37.401.976.554 1.355.156.379.406.992.558 1.371.157.38.403.988.559 1.36.156.375.402.964.559 1.32.156.36.402.918.558 1.254a32.36 32.36 0 0 0 1.113 2.203c.157.27.407.676.559.906.156.227.402.563.559.746.156.184.402.442.558.574.156.133.403.31.559.391.152.082.402.172.558.2.153.027.403.027.555 0 .156-.028.406-.114.559-.196.156-.078.406-.254.558-.387.157-.133.403-.39.559-.57.156-.184.402-.52.558-.746.153-.23.403-.633.559-.902.152-.27.402-.735.559-1.043a46.338 46.338 0 0 0 1.113-2.41c.156-.356.402-.946.559-1.317.156-.375.402-.98.558-1.36.156-.378.402-.995.559-1.374.152-.38.402-.985.558-1.356.153-.37.403-.957.555-1.312.156-.356.406-.91.559-1.243.156-.328.402-.843.558-1.144.156-.3.403-.758.559-1.024.156-.265.402-.66.558-.882.153-.223.403-.547.559-.727.152-.176.402-.422.559-.547.152-.129.402-.289.554-.363.156-.074.406-.152.559-.172.156-.02.402-.008.558.027.157.032.403.133.559.223.156.086.402.274.559.414.152.14.402.406.558.594.153.191.403.535.555.77.156.234.406.648.558.921.157.278.403.75.56 1.059.155.312.401.836.558 1.176.156.336.402.902.558 1.261.153.36.403.954.559 1.329.152.37.402.98.555 1.363.156.379.406.992.558 1.37l.559 1.352c.156.368.402.954.558 1.305.157.352.403.902.559 1.227.152.328.402.836.559 1.129a16.617 16.617 0 0 0 1.113 1.871c.156.215.406.527.558.699.157.168.403.406.559.523.156.121.402.27.559.336.156.067.402.133.558.145.153.012.403-.012.559-.055.152-.043.402-.152.554-.25.157-.094.407-.293.559-.441.156-.145.402-.426.559-.621.156-.196.402-.551.558-.79.156-.242.403-.663.559-.945a38.3 38.3 0 0 0 .558-1.074c.153-.316.403-.848.559-1.187a103.061 103.061 0 0 0 1.113-2.61c.157-.37.403-.984.559-1.363.156-.379.402-.996.558-1.371.157-.38.403-.98.56-1.348.151-.367.401-.945.558-1.293.152-.351.402-.894.554-1.219.157-.324.407-.82.559-1.113.156-.293.402-.734.559-.988.156-.254.402-.629.558-.84.156-.21.402-.512.559-.676.152-.164.402-.386.558-.496.153-.113.403-.254.555-.312a2.06 2.06 0 0 1 .559-.114c.156-.004.406.032.558.082.156.047.403.172.559.278.156.101.402.308.558.465.153.156.403.445.559.648.152.2.402.566.559.813.152.246.402.675.554.96.156.286.406.778.559 1.094.156.32.402.856.558 1.203.157.344.403.918.559 1.282.156.363.402.964.559 1.34.152.374.402.988.558 1.367.153.382.403.996.555 1.37l.558 1.34c.157.368.403.942.56 1.286.155.347.401.886.558 1.207.156.316.402.808.558 1.093.153.29.403.723.559.97.152.245.402.613.558.816.153.207.403.496.555.652.156.156.406.367.559.473.156.105.402.234.558.285.157.05.403.09.559.086.156-.004.402-.051.559-.11.152-.054.402-.191.558-.304.152-.11.402-.328.555-.492.156-.16.406-.461.558-.672.157-.207.403-.582.559-.832.156-.254.402-.696.559-.985.156-.289.402-.789.558-1.11.153-.323.403-.866.559-1.214.152-.348.402-.926.554-1.293a201.985 201.985 0 0 0 1.117-2.715c.157-.379.403-.992.56-1.367.156-.375.402-.973.558-1.336.152-.363.402-.934.558-1.273.153-.344.403-.875.559-1.192.152-.316.402-.8.555-1.082.156-.281.406-.703.558-.945.157-.242.403-.598.559-.797.156-.195.402-.477.558-.625.157-.152.403-.352.56-.45a2.45 2.45 0 0 1 .558-.253c.152-.043.402-.07.554-.063.157.012.407.075.559.141.156.063.402.21.559.328.156.117.402.352.558.52.156.168.403.48.559.695.152.215.402.598.558.855.153.258.403.707.555 1.004.156.297.406.801.559 1.125.156.328.406.875.558 1.227.156.351.403.934.559 1.305.156.367.402.972.558 1.347.157.38.403.992.559 1.371.152.383.402.993.559 1.368.152.37.554 1.328.554 1.328v47.398s-.402.953-.554 1.328c-.157.375-.407.985-.559 1.364-.156.378-.402.992-.559 1.37-.156.38-.402.985-.558 1.352-.156.367-.403.95-.559 1.3a40.668 40.668 0 0 1-1.117 2.353c-.152.296-.402.746-.555 1.003-.156.258-.406.641-.558.856a8.334 8.334 0 0 1-.559.695 4.845 4.845 0 0 1-.558.52 3.23 3.23 0 0 1-.559.332 2.05 2.05 0 0 1-.559.136 1.917 1.917 0 0 1-.554-.058 2.65 2.65 0 0 1-.559-.258 4.287 4.287 0 0 1-.558-.445 6.992 6.992 0 0 1-.56-.63 12.669 12.669 0 0 1-.558-.792 24.577 24.577 0 0 1-.558-.95 37.827 37.827 0 0 1-1.113-2.27 56.808 56.808 0 0 1-.56-1.276c-.155-.364-.401-.961-.558-1.336-.156-.371-.402-.985-.558-1.363-.153-.383-.403-.997-.559-1.372a107.104 107.104 0 0 0-1.113-2.64 74.97 74.97 0 0 0-.559-1.211c-.156-.324-.402-.82-.558-1.113-.157-.29-.403-.73-.559-.98a12.931 12.931 0 0 0-.559-.837 7.718 7.718 0 0 0-.558-.672 4.827 4.827 0 0 0-.555-.492 3.164 3.164 0 0 0-.558-.305 2.176 2.176 0 0 0-.56-.109 1.986 1.986 0 0 0-.558.09c-.156.05-.402.176-.558.281a4.925 4.925 0 0 0-.559.473c-.152.156-.402.45-.555.652-.156.203-.406.57-.558.817-.156.25-.406.683-.559.968-.156.285-.402.778-.558 1.098-.157.32-.403.86-.559 1.203-.156.344-.402.922-.558 1.285l-.56 1.34c-.151.379-.401.992-.554 1.371l-.558 1.367c-.157.375-.403.977-.559 1.34-.156.364-.402.942-.559 1.285a50.52 50.52 0 0 1-.558 1.2c-.153.32-.403.808-.559 1.093a21.2 21.2 0 0 1-.554.965c-.157.246-.407.61-.559.813a7.996 7.996 0 0 1-.559.644 4.559 4.559 0 0 1-.558.469 2.857 2.857 0 0 1-.559.277c-.152.051-.402.086-.558.082a2.069 2.069 0 0 1-.559-.117 2.817 2.817 0 0 1-.555-.308 4.635 4.635 0 0 1-.558-.5 7.917 7.917 0 0 1-.559-.676c-.156-.211-.402-.586-.558-.84a22.342 22.342 0 0 1-.56-.988c-.151-.29-.401-.79-.558-1.114-.152-.32-.402-.867-.554-1.214-.157-.348-.407-.93-.559-1.297-.156-.368-.402-.97-.559-1.344-.156-.379-.402-.992-.558-1.371-.156-.383-.402-.992-.559-1.367a72.098 72.098 0 0 0-.558-1.332 68.702 68.702 0 0 0-.555-1.274 58.759 58.759 0 0 0-.559-1.187 38.668 38.668 0 0 0-.558-1.078 18.21 18.21 0 0 0-.559-.942 11.612 11.612 0 0 0-.558-.793 7.419 7.419 0 0 0-.559-.62 4.002 4.002 0 0 0-.559-.442 2.672 2.672 0 0 0-.554-.25 1.953 1.953 0 0 0-.559-.055 2.266 2.266 0 0 0-.558.145 3.26 3.26 0 0 0-.559.335 5.712 5.712 0 0 0-.559.524c-.152.172-.402.484-.558.703a14.96 14.96 0 0 0-.555.86c-.156.261-.406.71-.558 1.007-.157.297-.407.801-.56 1.13a62.82 62.82 0 0 0-1.116 2.534c-.153.367-.403.973-.559 1.352-.152.375-.402.992-.558 1.37-.153.38-.403.99-.555 1.364-.156.371-.406.965-.559 1.324-.156.36-.402.926-.558 1.266a47.74 47.74 0 0 1-.559 1.172c-.156.309-.402.785-.559 1.059-.152.273-.402.687-.558.921-.152.235-.402.579-.555.77a7.648 7.648 0 0 1-.558.598c-.157.14-.403.324-.559.414a2.563 2.563 0 0 1-.559.222 1.919 1.919 0 0 1-.558.028 2.41 2.41 0 0 1-.559-.172 3.454 3.454 0 0 1-.554-.364 5.68 5.68 0 0 1-.56-.55 8.755 8.755 0 0 1-.558-.723 17.412 17.412 0 0 1-.558-.883 27.135 27.135 0 0 1-1.117-2.172c-.153-.332-.403-.886-.559-1.242a89.012 89.012 0 0 1-.555-1.312 88.7 88.7 0 0 1-.558-1.356c-.157-.379-.403-.992-.559-1.37-.156-.38-.402-.99-.559-1.36-.156-.371-.402-.965-.558-1.32a47.59 47.59 0 0 0-.559-1.25 40.881 40.881 0 0 0-.554-1.16c-.157-.305-.407-.77-.559-1.04-.156-.27-.406-.676-.559-.902-.156-.23-.402-.563-.558-.746a6.545 6.545 0 0 0-.559-.574 3.504 3.504 0 0 0-.558-.387 2.38 2.38 0 0 0-.559-.195 1.886 1.886 0 0 0-.555.003 2.215 2.215 0 0 0-.558.196 3.725 3.725 0 0 0-.559.39 6.613 6.613 0 0 0-.558.578 9.51 9.51 0 0 0-.559.747c-.152.23-.402.632-.559.902a31.69 31.69 0 0 0-1.113 2.203c-.156.336-.402.898-.558 1.254-.157.355-.403.95-.56 1.32-.155.371-.401.98-.558 1.36a483.315 483.315 0 0 1-1.113 2.73c-.156.367-.406.957-.559 1.309-.156.355-.406.91-.558 1.242-.156.328-.402.844-.559 1.14-.156.301-.402.762-.558 1.024-.153.266-.403.66-.559.883a9.468 9.468 0 0 1-.559.722 6.06 6.06 0 0 1-.554.547 3.626 3.626 0 0 1-.559.36 2.175 2.175 0 0 1-.558.168c-.157.02-.403.004-.559-.032a2.563 2.563 0 0 1-.559-.222 4.236 4.236 0 0 1-.558-.418 6.482 6.482 0 0 1-.555-.602 9.817 9.817 0 0 1-.558-.77 15.252 15.252 0 0 1-.559-.925 29.098 29.098 0 0 1-1.117-2.234c-.153-.34-.403-.907-.559-1.266l-.558-1.324c-.153-.375-.403-.985-.555-1.368-.156-.378-.406-.992-.559-1.37-.156-.376-.402-.981-.558-1.352-.157-.367-.403-.95-.559-1.3a62.822 62.822 0 0 0-.558-1.231 30.224 30.224 0 0 0-.56-1.125 23.203 23.203 0 0 0-.554-1.004 17.375 17.375 0 0 0-.558-.86 8.42 8.42 0 0 0-.559-.699 5.218 5.218 0 0 0-.559-.52 3.028 3.028 0 0 0-.558-.335 2.059 2.059 0 0 0-.559-.141 1.917 1.917 0 0 0-.554.059 2.45 2.45 0 0 0-.559.254 3.732 3.732 0 0 0-.559.44c-.156.15-.402.43-.558.626-.156.195-.403.55-.559.793a24.33 24.33 0 0 0-.558.945c-.153.281-.403.766-.559 1.078a57.73 57.73 0 0 0-1.113 2.465c-.156.36-.403.957-.559 1.332-.156.375-.402.988-.558 1.367-.157.38-.403.993-.559 1.371a107.486 107.486 0 0 1-1.113 2.641c-.157.348-.407.89-.559 1.215-.156.324-.402.82-.559 1.11-.156.292-.402.734-.558.988-.156.25-.402.625-.559.836-.152.21-.402.511-.558.675-.153.16-.403.383-.559.493-.152.113-.402.25-.555.308a2.06 2.06 0 0 1-.558.113 1.98 1.98 0 0 1-.559-.086 2.676 2.676 0 0 1-.558-.28 4.234 4.234 0 0 1-.559-.47 8.085 8.085 0 0 1-.559-.648c-.152-.203-.402-.57-.554-.816-.156-.246-.406-.68-.559-.965A35.365 35.365 0 0 1 2.684 74c-.157-.32-.403-.86-.559-1.203-.156-.344-.402-.922-.559-1.285l-.558-1.34-.555-1.367Zm0 0"/></g><g clip-path="url(#b)"><path fill="none" stroke="#000" stroke-miterlimit="10" stroke-width="1.5762269" d="m.453 15.29.555-1.368c.156-.379.406-.977.558-1.344.157-.363.403-.937.559-1.281a35.667 35.667 0 0 1 1.117-2.3c.153-.286.403-.716.559-.966.152-.246.402-.613.554-.816a8.83 8.83 0 0 1 .56-.649c.155-.156.401-.363.558-.468.156-.106.402-.23.558-.282.157-.05.403-.086.559-.082.152.004.402.055.558.11.153.058.403.199.555.308.156.114.406.332.559.496.156.16.406.465.558.672.157.211.403.586.559.84.156.254.402.692.559.985.156.289.402.789.558 1.113.152.32.402.867.559 1.215.152.347.402.925.554 1.293.157.367.407.968.559 1.347.156.375.402.989.559 1.367.156.383.402.993.558 1.368.156.375.403.972.559 1.336a56.428 56.428 0 0 0 1.113 2.46c.156.317.406.797.559 1.079.156.28.406.707.558.945.156.242.403.598.559.793.156.2.402.476.558.625.153.148.403.348.559.445.152.098.402.211.559.254.152.043.402.067.554.055.157-.012.407-.074.559-.14a3.23 3.23 0 0 0 .558-.333c.157-.12.403-.351.56-.523a9.03 9.03 0 0 0 .558-.696c.152-.218.402-.601.558-.859.153-.262.403-.71.555-1.004.156-.297.406-.8.559-1.129.156-.328.402-.875.558-1.226.156-.352.402-.938.559-1.305.156-.367.402-.973.558-1.352.153-.378.403-.992.559-1.37.152-.38.402-.989.555-1.364.156-.375.406-.969.558-1.328.156-.36.406-.926.559-1.266.156-.336.402-.863.558-1.172.157-.312.403-.785.559-1.062.152-.274.402-.688.559-.926.152-.234.402-.578.558-.77.153-.19.403-.456.555-.597.156-.145.406-.328.558-.418.157-.09.403-.191.559-.227.156-.035.402-.046.559-.027.156.02.402.094.558.168.153.07.403.234.559.36.152.124.402.37.555.546.156.176.406.5.558.723.156.219.406.617.559.879.156.265.402.723.558 1.023.157.301.403.813.559 1.145.152.328.402.883.558 1.238.153.356.403.942.56 1.313.151.37.401.976.554 1.355.156.379.406.992.558 1.371.157.38.403.988.559 1.36.156.375.402.964.559 1.32.156.36.402.918.558 1.254a32.358 32.358 0 0 0 1.113 2.203c.157.27.407.676.559.906.156.227.402.563.559.746.156.184.402.442.558.574.156.133.403.31.559.391.152.082.402.172.558.2.153.027.403.027.555 0 .156-.028.406-.114.559-.196.156-.078.406-.254.558-.387.157-.133.403-.39.559-.57.156-.184.402-.52.558-.746.153-.23.403-.633.559-.902.152-.27.402-.735.559-1.043a46.342 46.342 0 0 0 1.113-2.41c.156-.356.402-.946.559-1.317.156-.375.402-.98.558-1.36.156-.378.402-.995.559-1.374.152-.38.402-.985.558-1.356.153-.37.403-.957.555-1.312.156-.356.406-.91.559-1.243.156-.328.402-.843.558-1.144.156-.3.403-.758.559-1.024.156-.265.402-.66.558-.882.153-.223.403-.547.559-.727.152-.176.402-.422.559-.547.152-.129.402-.289.554-.363.156-.074.406-.152.559-.172.156-.02.402-.008.558.027.157.032.403.133.559.223.156.086.402.274.559.414.152.14.402.406.558.594.153.191.403.535.555.77.156.234.406.648.558.921.157.278.403.75.56 1.059.155.312.401.836.558 1.176.156.336.402.902.558 1.261.153.36.403.954.559 1.329.152.37.402.98.555 1.363.156.379.406.992.558 1.37l.559 1.352c.156.368.402.954.558 1.305.157.352.403.902.559 1.227.152.328.402.836.559 1.129a16.616 16.616 0 0 0 1.113 1.871c.156.215.406.527.558.699.157.168.403.406.559.523.156.121.402.27.559.336.156.067.402.133.558.145.153.012.403-.012.559-.055.152-.043.402-.152.554-.25.157-.094.407-.293.559-.441.156-.145.402-.426.559-.621.156-.196.402-.551.558-.79.156-.242.403-.663.559-.945a38.3 38.3 0 0 0 .558-1.074 89.1 89.1 0 0 0 .559-1.187 103.041 103.041 0 0 0 1.113-2.61c.157-.37.403-.984.559-1.363.156-.379.402-.996.558-1.371.157-.38.403-.98.56-1.348.151-.367.401-.945.558-1.293.152-.351.402-.894.554-1.219.157-.324.407-.82.559-1.113.156-.293.402-.734.559-.988.156-.254.402-.629.558-.84.156-.21.402-.512.559-.676.152-.164.402-.386.558-.496.153-.113.403-.254.555-.312a2.06 2.06 0 0 1 .559-.114c.156-.004.406.032.558.082.156.047.403.172.559.278.156.101.402.308.558.465.153.156.403.445.559.648.152.2.402.566.559.813.152.246.402.675.554.96.157.286.407.778.559 1.094.156.32.402.856.558 1.203.157.344.403.918.559 1.282.156.363.402.964.559 1.34.152.374.402.988.558 1.367.153.382.403.996.555 1.37.156.376.406.977.559 1.34.156.368.402.942.558 1.286.156.347.402.886.559 1.207.156.316.402.808.558 1.093.153.29.403.723.559.97.152.245.402.613.558.816.153.207.403.496.555.652.156.156.406.367.559.473.156.105.402.234.558.285.157.05.403.09.559.086.156-.004.402-.051.559-.11.152-.054.402-.191.558-.304.152-.11.402-.328.555-.493.156-.16.406-.46.558-.671.157-.207.403-.582.559-.832.156-.254.402-.696.559-.985.156-.289.402-.789.558-1.11.153-.323.403-.866.559-1.214.152-.348.402-.926.554-1.293a201.987 201.987 0 0 0 1.117-2.715c.157-.379.403-.992.56-1.367.156-.375.402-.973.558-1.336.152-.363.402-.934.558-1.273.153-.344.403-.875.559-1.192.152-.316.402-.8.555-1.082.156-.281.406-.703.558-.945.157-.242.403-.598.559-.797.156-.195.402-.477.559-.625.156-.152.402-.352.558-.45a2.45 2.45 0 0 1 .559-.253c.152-.043.402-.07.554-.063.157.012.407.075.559.141.156.062.402.21.559.328.156.117.402.352.558.52.156.168.403.48.559.695.152.215.402.598.558.855.153.258.403.707.555 1.004.156.297.406.801.559 1.125.156.328.406.875.558 1.227.156.351.403.933.559 1.305.156.367.402.972.558 1.347.157.38.403.992.559 1.371.152.383.402.993.559 1.368.152.37.554 1.328.554 1.328"/></g><g clip-path="url(#c)"><path fill="none" stroke="#000" stroke-miterlimit="10" stroke-width="1.5762269" d="m.453 68.805.555 1.367.558 1.34c.157.363.403.941.559 1.285.156.344.402.883.559 1.203.156.316.402.809.558 1.094.153.285.403.718.559.965.152.246.402.613.554.816.157.203.407.496.56.648.155.157.401.368.558.47.156.105.402.23.558.28.157.051.403.09.559.086a2.06 2.06 0 0 0 .558-.113c.153-.059.403-.195.555-.309.156-.109.406-.332.559-.492.156-.164.406-.465.558-.675.157-.211.403-.586.559-.836.156-.254.402-.696.559-.989.156-.289.402-.785.558-1.11.152-.323.402-.866.559-1.214a107.105 107.105 0 0 0 1.113-2.64c.156-.38.402-.993.559-1.372.156-.379.402-.992.558-1.367.156-.375.403-.972.559-1.332a56.809 56.809 0 0 1 1.113-2.465c.156-.312.406-.797.559-1.078.156-.281.406-.703.558-.945.156-.242.403-.598.559-.793.156-.195.402-.477.558-.625.153-.149.403-.348.559-.442a2.45 2.45 0 0 1 .559-.253c.152-.043.402-.07.554-.059.157.012.407.074.559.14.156.067.402.215.558.337.157.117.403.351.56.52.155.167.401.48.558.698.152.215.402.602.558.86.153.257.403.707.555 1.004.156.293.406.8.559 1.125.156.328.402.878.558 1.23.156.352.402.934.559 1.3.156.372.402.977.558 1.352.153.38.403.993.559 1.371.152.383.402.993.555 1.368l.558 1.324c.156.36.406.926.559 1.266a29.098 29.098 0 0 0 1.117 2.234c.152.277.402.691.559.926.152.234.402.582.558.77.153.19.403.46.555.6.156.141.406.329.558.419.157.086.403.187.559.222.156.036.402.051.559.032.156-.02.402-.094.558-.168.153-.075.403-.235.559-.36a6.06 6.06 0 0 0 .555-.547c.156-.18.406-.5.558-.722.156-.223.406-.617.559-.883.156-.262.402-.723.558-1.023.157-.297.403-.813.559-1.141.152-.332.402-.887.558-1.242.153-.352.403-.942.56-1.309a483.198 483.198 0 0 0 1.112-2.73c.157-.38.403-.989.559-1.36.156-.37.402-.965.559-1.32.156-.356.402-.918.558-1.254a31.693 31.693 0 0 1 1.113-2.203c.157-.27.407-.672.559-.902a9.51 9.51 0 0 1 .559-.747c.156-.183.402-.44.558-.578.156-.132.403-.308.559-.39.152-.082.402-.168.558-.196.153-.027.403-.03.555-.003.156.027.406.117.559.195.156.082.406.254.558.387.157.136.403.39.559.574.156.183.402.515.558.746.153.226.403.633.559.902.152.27.402.735.559 1.04.152.304.402.823.554 1.16.157.331.407.894.559 1.25.156.355.402.949.559 1.32.156.37.402.98.558 1.36.156.378.402.991.559 1.37.152.38.402.988.558 1.356.153.37.403.96.555 1.312.156.356.406.91.559 1.242a27.135 27.135 0 0 0 1.117 2.172c.156.262.402.66.558.883.153.223.403.547.559.723.152.175.402.422.559.55.152.125.402.29.554.364.156.074.406.148.559.172.156.02.402.007.558-.028.157-.035.403-.136.559-.222.156-.09.402-.274.559-.414.152-.141.402-.41.558-.598.153-.191.403-.535.555-.77.156-.234.406-.648.558-.921.157-.274.403-.75.56-1.06.155-.308.401-.835.558-1.17.156-.34.402-.907.558-1.267.153-.359.403-.953.559-1.324.152-.375.402-.984.555-1.363.156-.379.406-.996.558-1.371.156-.38.406-.985.559-1.352a62.82 62.82 0 0 1 1.117-2.535c.152-.328.402-.832.559-1.129.152-.297.402-.746.558-1.008.152-.257.402-.644.555-.859.156-.219.406-.531.558-.703.157-.168.403-.402.559-.524a3.26 3.26 0 0 1 .559-.335c.156-.067.402-.13.558-.145.153-.012.403.012.559.055.152.043.402.156.554.25.157.097.407.293.559.441.156.149.402.426.559.621.156.195.402.551.558.793.156.238.403.66.559.942.152.28.402.761.558 1.078.153.312.403.843.559 1.187.152.34.402.91.555 1.274.156.359.406.957.558 1.332.157.375.403.984.559 1.367.156.379.402.992.558 1.37.157.376.403.977.56 1.345a58.743 58.743 0 0 0 1.112 2.511c.157.325.407.825.559 1.114.156.293.402.734.559.988.156.254.402.629.558.84.156.21.402.515.559.676.152.164.402.386.558.5.153.113.403.25.555.308.156.059.406.113.559.117.156.004.406-.03.558-.082.156-.05.403-.175.559-.277.156-.105.402-.313.558-.469.153-.152.403-.441.559-.644.152-.203.402-.567.559-.813.152-.246.402-.68.554-.965.157-.285.407-.773.559-1.093.156-.317.402-.856.558-1.2.157-.343.403-.921.559-1.285.156-.363.402-.965.559-1.34.152-.375.402-.988.558-1.367.153-.379.403-.992.555-1.37.156-.376.406-.977.559-1.34.156-.364.402-.942.558-1.286.156-.344.402-.883.559-1.203.156-.32.402-.813.558-1.098.153-.285.403-.718.559-.968.152-.247.402-.614.558-.817.153-.203.403-.496.555-.652.156-.156.406-.367.559-.473.156-.105.402-.23.558-.281.157-.05.403-.094.559-.09.156.004.402.055.559.11.152.058.402.195.558.304.152.11.402.332.555.492.156.164.406.461.558.672.157.207.403.582.559.836.156.25.402.692.559.98.156.294.402.79.558 1.114.153.32.403.863.559 1.21a107.098 107.098 0 0 1 1.113 2.641c.156.375.406.989.559 1.372.156.378.402.992.558 1.363.157.375.403.972.559 1.336.152.363.402.933.558 1.277a37.827 37.827 0 0 0 1.114 2.27c.156.28.406.707.558.949.157.238.403.598.559.793.156.2.402.48.559.629.156.148.402.347.558.445.152.098.402.211.559.258.152.043.402.07.554.058a2.05 2.05 0 0 0 .559-.136 3.23 3.23 0 0 0 .559-.332c.156-.117.402-.348.558-.52.156-.168.403-.476.559-.695.152-.215.402-.598.558-.856a27.48 27.48 0 0 0 1.113-2.129c.157-.324.407-.875.56-1.226.155-.352.402-.934.558-1.3.156-.368.402-.974.558-1.352.157-.38.403-.993.559-1.372a142 142 0 0 1 .559-1.363c.152-.375.554-1.328.554-1.328"/></g></svg>