<svg xmlns="http://www.w3.org/2000/svg" width="115.609" height="85.041"><defs><clipPath id="a"><path d="M.453 5h111.04v74H.452Zm0 0"/></clipPath><clipPath id="b"><path d="M.453 0h111.04v48H.452Zm0 0"/></clipPath><clipPath id="c"><path d="M.453 36h111.04v48.094H.452Zm0 0"/></clipPath></defs><g clip-path="url(#a)"><path fill="#7F7F7F" fill-opacity=".5" d="m.453 15.29.555-9.556H22.77l.558 19.11h22.32l.559-19.11h21.762l.554 19.11h22.32l.56-19.11h20.085V78.36H91.402l-.558-19.113h-22.32l-.555 19.113H46.207l-.559-19.113h-22.32L22.77 78.36H1.008l-.555-9.554Zm0 0"/></g><g clip-path="url(#b)"><path fill="none" stroke="#000" stroke-miterlimit="10" stroke-width="1.5762269" d="m.453 15.29.555-9.556H22.77l.558 19.11h22.32l.559-19.11h21.762l.554 19.11h22.32l.56-19.11h20.085"/></g><g clip-path="url(#c)"><path fill="none" stroke="#000" stroke-miterlimit="10" stroke-width="1.5762269" d="m.453 68.805.555 9.554H22.77l.558-19.113h22.32l.559 19.113h21.762l.554-19.113h22.32l.56 19.113h20.085"/></g></svg>