<svg xmlns="http://www.w3.org/2000/svg" width="115.609" height="85.041"><defs><clipPath id="a"><path d="M.453 5h111.04v74H.452Zm0 0"/></clipPath><clipPath id="b"><path d="M.453 0h111.04v48H.452Zm0 0"/></clipPath><clipPath id="c"><path d="M.453 36h111.04v48.094H.452Zm0 0"/></clipPath></defs><g clip-path="url(#a)"><path fill="#7F7F7F" fill-opacity=".5" d="m.453 15.29.555-9.556h11.16l.559 19.11h11.718l.559-19.11h11.715l.558 19.11h11.72l.558-19.11H61.27l.558 19.11h11.719l.558-19.11h11.72l.554 19.11h11.16l.559-19.11h11.718l.559 19.11h1.113v34.402h-1.113l-.559 19.113H98.098l-.559-19.113H86.38l-.555 19.113H74.105l-.558-19.113H61.828L61.27 78.36H49.555l-.559-19.113H37.277L36.72 78.36H25.004l-.559-19.113H12.727l-.559 19.113H1.008l-.555-9.554Zm0 0"/></g><g clip-path="url(#b)"><path fill="none" stroke="#000" stroke-miterlimit="10" stroke-width="1.5762269" d="m.453 15.29.555-9.556h11.16l.559 19.11h11.718l.559-19.11h11.715l.558 19.11h11.72l.558-19.11H61.27l.558 19.11h11.719l.558-19.11h11.72l.554 19.11h11.16l.559-19.11h11.718l.559 19.11h1.113"/></g><g clip-path="url(#c)"><path fill="none" stroke="#000" stroke-miterlimit="10" stroke-width="1.5762269" d="m.453 68.805.555 9.554h11.16l.559-19.113h11.718l.559 19.113h11.715l.558-19.113h11.72l.558 19.113H61.27l.558-19.113h11.719l.558 19.113h11.72l.554-19.113h11.16l.559 19.113h11.718l.559-19.113h1.113"/></g></svg>