<svg xmlns="http://www.w3.org/2000/svg" xmlns:xlink="http://www.w3.org/1999/xlink" width="227.323" height="101.423"><defs><path id="h" d="M7.094 0v-.312h-.235c-.765 0-.78-.11-.78-.454V-6c0-.344.015-.453.78-.453h.235v-.313c-.344.032-1.078.032-1.453.032s-1.125 0-1.47-.032v.313h.235c.766 0 .782.11.782.453v2.328H2.234V-6c0-.344.016-.453.782-.453h.234v-.313c-.344.032-1.078.032-1.453.032s-1.125 0-1.469-.032v.313h.235c.765 0 .78.11.78.453v5.234c0 .344-.015.454-.78.454H.328V0c.344-.031 1.078-.031 1.453-.031s1.125 0 1.469.031v-.312h-.234c-.766 0-.782-.11-.782-.454v-2.609h2.954v2.61c0 .343-.016.453-.782.453h-.234V0c.344-.031 1.078-.031 1.453-.031s1.125 0 1.469.031m0 0"/><path id="i" d="m6.047-4.5-.281-2.234H.328v.312h.235c.765 0 .78.11.78.453v5.203c0 .344-.015.454-.78.454H.328V0c.344-.031 1.125-.031 1.5-.031.406 0 1.313 0 1.672.031v-.312h-.328c-.938 0-.938-.125-.938-.47v-2.437h.844c.953 0 1.047.313 1.047 1.156h.25v-2.624h-.25c0 .828-.094 1.156-1.047 1.156h-.844v-2.5c0-.328.016-.39.485-.39h1.187c1.485 0 1.735.546 1.89 1.921Zm0 0"/><path id="j" d="M8.703 0v-.312H8.47c-.766 0-.781-.11-.781-.454V-6c0-.344.015-.453.78-.453h.235v-.313H7.031c-.25 0-.25.016-.328.188L4.531-1l-2.14-5.547c-.094-.219-.125-.219-.344-.219H.359v.313h.25c.75 0 .782.11.782.453v4.953c0 .281 0 .734-1.032.734V0l1.172-.031L2.688 0v-.312c-1.016 0-1.016-.454-1.016-.735v-5.328l2.39 6.156c.047.125.094.219.204.219.109 0 .125-.078.172-.187l2.437-6.266h.016v5.687c0 .344-.032.454-.782.454h-.25V0c.375-.031 1.047-.031 1.438-.031.375 0 1.047 0 1.406.031m0 0"/><path id="k" d="M2.453 0v-.312c-.656 0-.703-.047-.703-.438v-3.625l-1.39.11v.296c.656 0 .734.063.734.547V-.75c0 .438-.11.438-.766.438V0l1.094-.031c.344 0 .687.015 1.031.031m-.547-5.984a.547.547 0 0 0-.531-.532.536.536 0 0 0-.531.532c0 .265.219.53.515.53a.54.54 0 0 0 .547-.53m0 0"/><path id="l" d="M3.563-1.266c0-.53-.297-.828-.407-.937-.328-.328-.719-.406-1.14-.485-.547-.109-1.22-.234-1.22-.812 0-.344.266-.75 1.11-.75 1.094 0 1.14.89 1.172 1.203 0 .078.11.078.11.078.124 0 .124-.047.124-.234v-1c0-.172 0-.234-.109-.234-.047 0-.062 0-.187.125-.032.03-.141.125-.172.156-.375-.282-.781-.282-.938-.282-1.203 0-1.578.657-1.578 1.22 0 .343.156.624.422.843.313.25.594.313 1.313.453.218.047 1.03.203 1.03.906 0 .516-.343.907-1.124.907C1.14-.11.78-.672.594-1.516c-.031-.125-.031-.171-.14-.171-.126 0-.126.078-.126.25v1.312c0 .172 0 .234.11.234C.484.11.5.094.688-.094c.015-.015.015-.031.187-.218.438.406.89.421 1.094.421 1.14 0 1.594-.671 1.594-1.375m0 0"/><path id="m" d="M4.11-1.172c0-.11-.094-.11-.126-.11-.093 0-.109.048-.125.11C3.563-.25 2.922-.14 2.563-.14c-.532 0-1.407-.421-1.407-2.015 0-1.625.813-2.031 1.344-2.031.078 0 .703 0 1.063.359-.407.031-.47.328-.47.453 0 .266.173.469.454.469.25 0 .453-.172.453-.469 0-.672-.75-1.062-1.516-1.062-1.234 0-2.14 1.062-2.14 2.296 0 1.266.969 2.25 2.125 2.25 1.328 0 1.64-1.187 1.64-1.28m0 0"/><path id="n" d="M5.297 0v-.312c-.516 0-.766 0-.766-.297V-2.5c0-.844 0-1.156-.312-1.516-.14-.171-.469-.359-1.032-.359-.843 0-1.28.594-1.437.953v-3.453l-1.437.11v.312c.703 0 .78.062.78.547V-.75c0 .438-.109.438-.78.438V0l1.125-.031L2.547 0v-.312c-.672 0-.781 0-.781-.438v-1.828c0-1.031.718-1.578 1.343-1.578s.735.531.735 1.093V-.75c0 .438-.11.438-.766.438V0l1.11-.031Zm0 0"/><path id="o" d="M4.11-1.172c0-.11-.079-.125-.126-.125-.093 0-.109.063-.125.14C3.5-.14 2.61-.14 2.516-.14c-.5 0-.891-.296-1.125-.656-.297-.484-.297-1.14-.297-1.484h2.765c.22 0 .25 0 .25-.219 0-.984-.53-1.937-1.765-1.937C1.188-4.437.28-3.423.28-2.172.281-.859 1.312.11 2.453.11 3.672.11 4.11-.984 4.11-1.17M3.452-2.5H1.11C1.172-3.969 2-4.219 2.344-4.219c1.015 0 1.11 1.344 1.11 1.719m0 0"/><path id="p" d="M3.61-3.781c0-.313-.313-.594-.735-.594-.719 0-1.078.656-1.219 1.094v-1.094l-1.375.11v.296c.688 0 .766.078.766.563V-.75c0 .438-.11.438-.766.438V0l1.125-.031c.39 0 .86 0 1.266.031v-.312h-.219c-.734 0-.75-.11-.75-.454v-1.53c0-.985.422-1.86 1.172-1.86h.11a.459.459 0 0 0-.235.39c0 .282.219.422.438.422.171 0 .421-.11.421-.437m0 0"/><path id="q" d="M5.547-2.64h-.25C5.219-1.267 5.03-.345 3.203-.345H1.578l3.844-6.078c.062-.11.062-.11.062-.187 0-.157-.062-.157-.25-.157H.797L.687-4.53h.25c.063-1.125.36-1.922 1.985-1.922h1.562L.625-.36C.563-.25.563-.25.563-.172.563 0 .609 0 .813 0h4.562Zm0 0"/><path id="r" d="M7-3.328c0-1.875-1.328-3.438-3.031-3.438H.344v.313h.234c.766 0 .781.11.781.453v5.234c0 .344-.015.454-.78.454H.343V0h3.625C5.64 0 7-1.469 7-3.328m-.984 0c0 1.094-.188 1.687-.547 2.172-.203.281-.766.843-1.766.843h-1c-.469 0-.484-.062-.484-.39v-5.36c0-.328.015-.39.484-.39h.985c.624 0 1.312.219 1.812.922.422.578.516 1.437.516 2.203m0 0"/><path id="s" d="M8.047 0v-.312c-.516 0-.75 0-.766-.297V-2.5c0-.844 0-1.156-.312-1.516-.14-.171-.453-.359-1.032-.359-.828 0-1.265.594-1.437.969-.14-.86-.875-.969-1.312-.969-.735 0-1.204.422-1.47 1.031v-1.031l-1.405.11v.296c.703 0 .78.078.78.563V-.75c0 .438-.109.438-.78.438V0l1.125-.031L2.547 0v-.312c-.672 0-.781 0-.781-.438v-1.828c0-1.031.718-1.578 1.343-1.578s.735.531.735 1.093V-.75c0 .438-.11.438-.766.438V0l1.11-.031L5.297 0v-.312c-.656 0-.766 0-.766-.438v-1.828c0-1.031.703-1.578 1.328-1.578.625 0 .735.531.735 1.093V-.75c0 .438-.11.438-.766.438V0l1.11-.031Zm0 0"/><path id="t" d="M4.672-2.125c0-1.266-1-2.312-2.188-2.312-1.25 0-2.203 1.078-2.203 2.312C.281-.844 1.312.109 2.47.109a2.208 2.208 0 0 0 2.203-2.234m-.828-.078c0 .36 0 .89-.219 1.328a1.267 1.267 0 0 1-1.14.734c-.438 0-.876-.203-1.141-.656-.25-.437-.25-1.047-.25-1.406 0-.375 0-.922.25-1.36a1.324 1.324 0 0 1 1.125-.656c.437 0 .86.219 1.125.64.25.423.25 1 .25 1.376m0 0"/><path id="u" d="M5.219 0v-.312c-.688 0-.766-.063-.766-.547v-6.016l-1.437.11v.312c.703 0 .78.062.78.547v2.14c-.296-.359-.718-.609-1.25-.609-1.171 0-2.202.969-2.202 2.25 0 1.25.969 2.234 2.094 2.234.64 0 1.078-.343 1.328-.656V.11ZM3.766-1.172c0 .188 0 .203-.11.375-.297.469-.75.688-1.172.688-.437 0-.796-.25-1.03-.641-.266-.406-.298-.969-.298-1.375 0-.36.016-.953.313-1.406.203-.297.578-.625 1.11-.625.358 0 .765.14 1.077.593.11.172.11.188.11.36Zm0 0"/><path id="v" d="M5.297 0v-.312c-.688 0-.766-.063-.766-.547v-3.516l-1.453.11v.296c.688 0 .766.078.766.563v1.765c0 .86-.469 1.532-1.203 1.532-.828 0-.875-.47-.875-.985v-3.281l-1.453.11v.296c.78 0 .78.031.78.922v1.485c0 .765 0 1.671 1.5 1.671.563 0 1-.28 1.282-.89v.89Zm0 0"/><path id="w" d="M2.531 0v-.312c-.672 0-.781 0-.781-.438v-6.125l-1.422.11v.312c.688 0 .766.062.766.547V-.75c0 .438-.11.438-.766.438V0l1.094-.031Zm0 0"/><path id="x" d="M4.781-.875v-.562h-.25v.562c0 .563-.234.625-.343.625-.329 0-.375-.437-.375-.5v-1.969c0-.422 0-.812-.36-1.172-.375-.39-.875-.546-1.36-.546-.812 0-1.484.468-1.484 1.125 0 .296.188.453.454.453.28 0 .453-.188.453-.453 0-.11-.047-.438-.5-.454.265-.343.75-.453 1.062-.453.485 0 1.047.39 1.047 1.266v.375c-.5.015-1.187.047-1.812.344-.75.343-1 .859-1 1.297 0 .796.968 1.046 1.593 1.046.657 0 1.11-.39 1.297-.859.031.39.297.813.766.813.219 0 .812-.141.812-.938m-1.656-.516c0 .938-.703 1.282-1.156 1.282-.485 0-.89-.344-.89-.844 0-.547.421-1.36 2.046-1.422Zm0 0"/><path id="y" d="M3.281-1.234v-.563h-.234v.547c0 .734-.297 1.11-.672 1.11-.656 0-.656-.907-.656-1.063V-3.97h1.406v-.297H1.719v-1.828h-.25c-.016.813-.313 1.875-1.281 1.907v.218h.843v2.735c0 1.218.922 1.343 1.282 1.343.703 0 .968-.703.968-1.343m0 0"/><path id="z" d="M7.094-6.453v-.313l-1.157.032-1.156-.032v.313c1.016 0 1.016.453 1.016.734V-1.5l-3.5-5.14c-.094-.11-.094-.126-.281-.126H.328v.313H.61c.157 0 .344 0 .5.016.235.03.235.03.235.218v5.172c0 .281 0 .734-1.016.734V0l1.156-.031L2.641 0v-.312c-1.016 0-1.016-.454-1.016-.735v-5.14a.584.584 0 0 1 .094.109L5.766-.125c.093.11.093.125.172.125.14 0 .14-.062.14-.25v-5.469c0-.281 0-.734 1.016-.734m0 0"/><path id="A" d="M7.234-6.453v-.313c-.312.016-.703.032-.968.032L5.14-6.766v.313c.515 0 .718.266.718.484 0 .078-.03.14-.046.203L4-.984 2.11-6c-.063-.125-.063-.172-.063-.172 0-.281.562-.281.812-.281v-.313c-.359.032-1.03.032-1.406.032L.188-6.766v.313c.64 0 .828 0 .968.375L3.453 0c.078.188.125.219.25.219.172 0 .188-.047.235-.188l2.218-5.828c.14-.36.407-.656 1.078-.656m0 0"/><path id="B" d="M7.14-3.36c0-2.015-1.5-3.624-3.296-3.624C2.078-6.984.563-5.406.563-3.36c0 2.03 1.515 3.578 3.28 3.578 1.798 0 3.298-1.578 3.298-3.578M6.126-3.5c0 2.625-1.36 3.453-2.266 3.453-.953 0-2.28-.86-2.28-3.453 0-2.562 1.437-3.234 2.265-3.234.86 0 2.281.703 2.281 3.234m0 0"/><path id="C" d="M6.453-1.812c0-.86-.812-1.61-1.922-1.72.969-.187 1.657-.827 1.657-1.562 0-.86-.922-1.672-2.204-1.672H.36v.313h.235c.765 0 .781.11.781.453v5.234c0 .344-.016.454-.781.454H.359V0h3.875c1.329 0 2.22-.875 2.22-1.812M5.22-5.094c0 .64-.485 1.469-1.578 1.469H2.203v-2.437c0-.329.016-.391.485-.391h1.218c.969 0 1.313.844 1.313 1.36m.234 3.266c0 .703-.516 1.516-1.531 1.516H2.687c-.468 0-.484-.063-.484-.391v-2.703h1.86c.984 0 1.39.922 1.39 1.578m0 0"/><clipPath id="a"><path d="M.305 0H30v29H.305Zm0 0"/></clipPath><clipPath id="b"><path d="M192 27h34.344v50H192Zm0 0"/></clipPath><clipPath id="c"><path d="M57 75h26v25.848H57Zm0 0"/></clipPath><clipPath id="d"><path d="M58 85h24v15.848H58Zm0 0"/></clipPath><clipPath id="e"><path d="M130 75h26v25.848h-26Zm0 0"/></clipPath><clipPath id="f"><path d="M131 85h24v15.848h-24Zm0 0"/></clipPath><clipPath id="g"><path d="M59 82h17v18.848H59Zm0 0"/></clipPath></defs><path fill="none" stroke="#000" stroke-miterlimit="10" stroke-width=".39674166" d="M9.309 52.023V.395"/><g clip-path="url(#a)"><path fill="none" stroke="#000" stroke-miterlimit="10" stroke-width=".79248898" d="M9.309.395h8.601L9.31 17.605.703.395H9.31"/></g><path fill="none" stroke="#000" stroke-miterlimit="10" stroke-width=".39674166" d="M9.504 52.023h6.148m0 0h6.145"/><path d="M17.605 52.023v1.973l4.192-1.973-4.192-1.972Zm0 0"/><path fill="none" stroke="#000" stroke-miterlimit="10" stroke-width=".79248898" d="M21.797 39.977H45.89V64.07H21.797Zm0 0"/><path fill="none" stroke="#000" stroke-miterlimit="10" stroke-width=".39674166" d="m25.41 42.746 16.867 9.277-16.867 9.274ZM45.89 52.023h6.145m0 0h6.149"/><path d="M53.988 52.023v1.973l4.196-1.973-4.196-1.972Zm0 0"/><path fill="none" stroke="#000" stroke-miterlimit="10" stroke-width=".79248898" d="M58.184 39.977h24.09V64.07h-24.09Zm0 0"/><path fill="none" stroke="#000" stroke-miterlimit="10" stroke-width=".39674166" d="M78.66 52.023a8.433 8.433 0 0 0-8.433-8.433c-4.657 0-8.43 3.777-8.43 8.433a8.433 8.433 0 1 0 16.863 0ZM64.266 46.059 76.19 57.984m0-11.925L64.266 57.984M82.273 52.023h6.149m0 0h6.144"/><path d="M90.375 52.023v1.973l4.191-1.973-4.191-1.972Zm0 0"/><path fill="none" stroke="#000" stroke-miterlimit="10" stroke-width=".79248898" d="M94.566 39.977h24.094V64.07H94.566Zm0 0"/><path fill="none" stroke="#000" stroke-miterlimit="10" stroke-width=".39674166" d="m98.18 42.746 16.867 9.277-16.867 9.274ZM118.66 52.023h6.145m0 0h6.148"/><path d="M126.758 52.023v1.973l4.195-1.973-4.195-1.972Zm0 0"/><path fill="none" stroke="#000" stroke-miterlimit="10" stroke-width=".79248898" d="M130.953 39.977h24.09V64.07h-24.09Zm0 0"/><path fill="none" stroke="#000" stroke-miterlimit="10" stroke-width=".31719446" d="M133.965 52.023h18.066"/><path fill="none" stroke="#000" stroke-miterlimit="10" stroke-width=".63438892" d="m149.902 52.023-13.808-8.632v17.265ZM149.902 60.656V43.391"/><path fill="none" stroke="#000" stroke-miterlimit="10" stroke-width=".39674166" d="M155.043 52.023h6.148m0 0h6.145"/><path d="M163.145 52.023v1.973l4.19-1.973-4.19-1.972Zm0 0"/><path fill="none" stroke="#000" stroke-miterlimit="10" stroke-width=".79248898" d="M167.336 39.977h24.094V64.07h-24.094Zm0 0"/><path fill="none" stroke="#000" stroke-miterlimit="10" stroke-width=".39674166" d="m170.95 42.746 16.866 9.277-16.867 9.274ZM191.43 52.023h6.144m0 0h6.149"/><path d="M199.527 52.023v1.973l4.196-1.973-4.196-1.972Zm0 0"/><g clip-path="url(#b)"><path fill="none" stroke="#000" stroke-miterlimit="10" stroke-width=".79248898" d="M203.723 65.79V38.253h10.668v27.535Zm10.668-20.65 8.261-4.132v22.027l-8.261-4.129Zm0 0"/></g><path fill="none" stroke="#000" stroke-miterlimit="10" stroke-width=".39674166" d="M70.227 64.07v6.145m0 0v6.148"/><path d="M70.227 68.262h1.976l-1.976-4.192-1.973 4.192Zm0 0"/><g clip-path="url(#c)"><path fill="none" stroke="#000" stroke-miterlimit="10" stroke-width=".79248898" d="M58.184 76.363h24.09v24.09h-24.09Zm0 0"/></g><path fill="none" stroke="#000" stroke-miterlimit="10" stroke-width=".39674166" d="M64.207 82.383c.98-1.54 1.918-3.008 3.008-3.008 1.094 0 2.031 1.469 3.012 3.008.984 1.543 1.921 3.012 3.011 3.012s2.032-1.47 3.012-3.012M64.207 88.406c.98-1.539 1.918-3.011 3.008-3.011 1.094 0 2.031 1.472 3.012 3.011.984 1.543 1.921 3.012 3.011 3.012s2.032-1.469 3.012-3.012"/><g clip-path="url(#d)"><path fill="none" stroke="#000" stroke-miterlimit="10" stroke-width=".39674166" d="M64.207 94.43c.98-1.54 1.918-3.012 3.008-3.012 1.094 0 2.031 1.473 3.012 3.012.984 1.543 1.921 3.011 3.011 3.011s2.032-1.468 3.012-3.011"/></g><path fill="none" stroke="#000" stroke-miterlimit="10" stroke-width=".39674166" d="M142.996 64.07v6.145m0 0v6.148"/><path d="M142.996 68.262h1.977l-1.977-4.192-1.973 4.192Zm0 0"/><g clip-path="url(#e)"><path fill="none" stroke="#000" stroke-miterlimit="10" stroke-width=".79248898" d="M130.953 76.363h24.09v24.09h-24.09Zm0 0"/></g><path fill="none" stroke="#000" stroke-miterlimit="10" stroke-width=".39674166" d="M136.973 82.383c.984-1.54 1.922-3.008 3.011-3.008 1.094 0 2.032 1.469 3.012 3.008.984 1.543 1.922 3.012 3.012 3.012s2.031-1.47 3.012-3.012M136.973 88.406c.984-1.539 1.922-3.011 3.011-3.011 1.094 0 2.032 1.472 3.012 3.011.984 1.543 1.922 3.012 3.012 3.012s2.031-1.469 3.012-3.012"/><g clip-path="url(#f)"><path fill="none" stroke="#000" stroke-miterlimit="10" stroke-width=".39674166" d="M136.973 94.43c.984-1.54 1.922-3.012 3.011-3.012 1.094 0 2.032 1.473 3.012 3.012.984 1.543 1.922 3.011 3.012 3.011s2.031-1.468 3.012-3.011"/></g><path fill="none" stroke="#000" stroke-miterlimit="10" stroke-width=".39674166" d="m70.227 88.406 2.46-3.687m0 0 .543-.813"/><path stroke="#000" stroke-miterlimit="10" stroke-width=".3967257" d="m74.926 81.363-3.102 1.489 1.461.972 1.457.973Zm0 0"/><g clip-path="url(#g)"><path fill="none" stroke="#000" stroke-miterlimit="10" stroke-width=".39674166" d="m70.227 88.406-2.457 3.688m0 0-2.458 3.687"/></g><use xlink:href="#h" x="26.894" y="74.334"/><use xlink:href="#i" x="34.324" y="74.334"/><use xlink:href="#j" x="53.401" y="36.368"/><use xlink:href="#k" x="62.485" y="36.368"/><use xlink:href="#l" x="65.239" y="36.368"/><use xlink:href="#m" x="69.142" y="36.368"/><use xlink:href="#n" x="73.263" y="36.368"/><use xlink:href="#o" x="78.771" y="36.368"/><use xlink:href="#p" x="83.17" y="36.368"/><use xlink:href="#q" x="100.351" y="74.334"/><use xlink:href="#i" x="106.404" y="74.334"/><use xlink:href="#r" x="114.565" y="36.368"/><use xlink:href="#o" x="122.134" y="36.368"/><use xlink:href="#s" x="126.532" y="36.368"/><use xlink:href="#t" x="134.784" y="36.368"/><use xlink:href="#u" x="140.015" y="36.368"/><use xlink:href="#v" x="145.522" y="36.368"/><use xlink:href="#w" x="151.03" y="36.368"/><use xlink:href="#x" x="153.784" y="36.368"/><use xlink:href="#y" x="158.737" y="36.368"/><use xlink:href="#t" x="162.591" y="36.368"/><use xlink:href="#p" x="167.544" y="36.368"/><use xlink:href="#z" x="172.431" y="74.334"/><use xlink:href="#i" x="179.861" y="74.334"/><use xlink:href="#A" x="85.773" y="91.79"/><use xlink:href="#i" x="93.203" y="91.79"/><use xlink:href="#B" x="99.394" y="91.79"/><use xlink:href="#C" x="158.542" y="91.79"/><use xlink:href="#i" x="165.556" y="91.79"/><use xlink:href="#B" x="171.747" y="91.79"/></svg>