<svg xmlns="http://www.w3.org/2000/svg" xmlns:xlink="http://www.w3.org/1999/xlink" width="228.261" height="85.659"><defs><path id="b" d="M7.11 0v-.312h-.25c-.75 0-.782-.11-.782-.47V-6c0-.36.031-.469.781-.469h.25v-.312c-.359.031-1.093.031-1.468.031s-1.11 0-1.47-.031v.312h.25c.75 0 .782.11.782.469v2.313H2.234V-6c0-.36.016-.469.782-.469h.234v-.312c-.344.031-1.078.031-1.453.031s-1.125 0-1.469-.031v.312h.235c.765 0 .78.11.78.469v5.219c0 .36-.015.469-.78.469H.328V0c.344-.031 1.078-.031 1.453-.031s1.125 0 1.469.031v-.312h-.234c-.766 0-.782-.11-.782-.47v-2.593h2.97v2.594c0 .36-.032.469-.782.469h-.25V0c.36-.031 1.094-.031 1.469-.031s1.109 0 1.468.031m0 0"/><path id="c" d="M6.047-4.516 5.78-6.75H.328v.313h.235c.765 0 .78.109.78.468V-.78c0 .36-.015.469-.78.469H.328V0c.344-.031 1.125-.031 1.5-.031.422 0 1.313 0 1.672.031v-.312h-.328c-.938 0-.938-.125-.938-.47v-2.437h.844c.953 0 1.063.313 1.063 1.156h.25v-2.624h-.25c0 .828-.11 1.156-1.063 1.156h-.844v-2.516c0-.328.016-.39.485-.39h1.187c1.485 0 1.735.546 1.89 1.921Zm0 0"/><path id="d" d="M4.156 0v-.312h-.312c-.89 0-.922-.11-.922-.47v-5.562c0-.25 0-.265-.235-.265-.609.64-1.484.64-1.796.64v.297c.187 0 .78 0 1.297-.25v5.14c0 .36-.032.47-.922.47H.938V0c.359-.031 1.218-.031 1.609-.031.406 0 1.265 0 1.61.031m0 0"/><path id="e" d="M1.906-.531A.524.524 0 1 0 .86-.515a.524.524 0 0 0 1.047-.016m0 0"/><path id="f" d="M5.563-2.656h-.25c-.079 1.39-.266 2.312-2.11 2.312H1.578l3.844-6.078c.078-.11.078-.125.078-.203 0-.156-.062-.156-.266-.156H.797l-.11 2.234h.25c.063-1.125.36-1.922 1.985-1.922h1.562L.625-.359C.563-.266.563-.25.563-.172.563 0 .609 0 .813 0H5.39Zm0 0"/><path id="g" d="M4.453-1.719h-.25c-.047.297-.11.735-.219.875-.062.078-.718.078-.937.078H1.266L2.313-1.78c1.546-1.375 2.14-1.906 2.14-2.907 0-1.125-.89-1.921-2.11-1.921C1.235-6.61.5-5.687.5-4.812c0 .562.484.562.516.562a.516.516 0 0 0 .515-.531c0-.266-.172-.516-.515-.516-.079 0-.11 0-.125.016.218-.657.75-1.016 1.328-1.016.906 0 1.328.797 1.328 1.61 0 .796-.485 1.578-1.031 2.203L.609-.36C.5-.266.5-.234.5 0h3.672Zm0 0"/><path id="h" d="M7.11-6.469v-.312l-1.173.031-1.156-.031v.312c1.016 0 1.016.469 1.016.735V-1.5l-3.5-5.14c-.078-.126-.094-.141-.281-.141H.328v.312H.61c.157 0 .36.016.5.016.235.031.235.047.235.234v5.172c0 .266 0 .734-1.016.734V0l1.156-.031L2.656 0v-.312c-1.031 0-1.031-.47-1.031-.735v-5.156a.376.376 0 0 1 .094.125L5.78-.125c.078.11.094.125.157.125.14 0 .14-.062.14-.266v-5.468c0-.266 0-.735 1.031-.735m0 0"/><path id="n" d="M7.297-2.406v-.297l-1.219.031c-.39 0-1.234 0-1.594-.031v.297h.313c.89 0 .922.11.922.484v.625c0 1.125-1.25 1.203-1.532 1.203-.64 0-2.609-.343-2.609-3.297 0-2.968 1.953-3.296 2.547-3.296 1.063 0 1.969.89 2.172 2.359.016.125.016.156.156.156.156 0 .156-.031.156-.234V-6.75c0-.172 0-.25-.109-.25-.047 0-.078 0-.156.125l-.5.734C5.53-6.453 4.984-7 4.016-7 2.156-7 .563-5.422.563-3.39.563-1.36 2.14.218 4.03.218c.719 0 1.516-.266 1.86-.844.125.219.515.61.625.61.093 0 .093-.079.093-.22v-1.734c0-.375.032-.437.688-.437m0 0"/><path id="q" d="M7.25-6.469v-.312c-.312.031-.719.031-.969.031l-1.125-.031v.312c.516.016.719.266.719.5 0 .078-.031.14-.047.188L4.016-.984 2.109-6c-.062-.14-.062-.187-.062-.187 0-.282.578-.282.828-.282v-.312c-.36.031-1.047.031-1.422.031L.188-6.781v.312c.64 0 .828 0 .968.375L3.47 0c.062.188.11.219.234.219.172 0 .203-.047.25-.188l2.203-5.828c.14-.375.407-.656 1.094-.672m0 0"/><path id="r" d="M7.156-3.36c0-2.03-1.5-3.64-3.312-3.64C2.078-7 .563-5.406.563-3.36.563-1.327 2.077.22 3.843.22c1.813 0 3.313-1.578 3.313-3.578M6.125-3.5c0 2.625-1.36 3.453-2.266 3.453-.953 0-2.28-.86-2.28-3.453 0-2.578 1.452-3.25 2.265-3.25.875 0 2.281.703 2.281 3.25m0 0"/><path id="s" d="M6.594-2.312c0-.094 0-.172-.125-.172-.11 0-.11.062-.125.156C6.266-.906 5.204-.094 4.125-.094c-.61 0-2.547-.328-2.547-3.297 0-2.953 1.938-3.296 2.547-3.296 1.078 0 1.953.906 2.156 2.359.016.125.016.156.157.156.156 0 .156-.031.156-.234V-6.75c0-.172 0-.25-.11-.25-.03 0-.078 0-.156.125l-.5.734C5.468-6.5 4.953-7 4.016-7 2.156-7 .563-5.422.563-3.39.563-1.345 2.156.218 4.015.218c1.609 0 2.578-1.375 2.578-2.531m0 0"/><path id="t" d="M6.453-1.812c0-.86-.812-1.61-1.906-1.735.953-.187 1.64-.812 1.64-1.547 0-.875-.906-1.687-2.203-1.687H.36v.312h.235c.765 0 .781.11.781.469v5.219c0 .36-.016.469-.781.469H.359V0H4.25c1.313 0 2.203-.89 2.203-1.812M5.234-5.094c0 .625-.484 1.469-1.593 1.469H2.203v-2.453c0-.328.016-.39.485-.39h1.234c.953 0 1.312.843 1.312 1.374m.235 3.266c0 .703-.516 1.516-1.547 1.516H2.687c-.468 0-.484-.063-.484-.391v-2.703h1.86c.984 0 1.406.922 1.406 1.578m0 0"/><clipPath id="a"><path d="M.086 0H25v25H.086Zm0 0"/></clipPath><clipPath id="i"><path d="M198 17h29.441v44H198Zm0 0"/></clipPath><clipPath id="j"><path d="M43 66h20v19.32H43Zm0 0"/></clipPath><clipPath id="k"><path d="M43 72h21v13.32H43Zm0 0"/></clipPath><clipPath id="l"><path d="M41 65h22v20.32H41Zm0 0"/></clipPath><clipPath id="m"><path d="M98 66h20v19.32H98Zm0 0"/></clipPath><clipPath id="o"><path d="M153 66h20v19.32h-20Zm0 0"/></clipPath><clipPath id="p"><path d="M153 72h21v13.32h-21Zm0 0"/></clipPath></defs><path fill="none" stroke="#000" stroke-miterlimit="10" stroke-width=".39741996" d="M7.152 39.238h9.434m18.125 0h9.434M6.953 39.238V.395"/><g clip-path="url(#a)"><path fill="none" stroke="#000" stroke-miterlimit="10" stroke-width=".7938438800000001" d="M6.953.395h6.477L6.953 13.344.48.394h6.473"/></g><path fill="none" stroke="#000" stroke-miterlimit="10" stroke-width=".7938438800000001" d="M16.586 30.176H34.71V48.3H16.586Zm0 0"/><path d="M12.387 39.238v1.977l4.199-1.977-4.2-1.976Zm0 0"/><path fill="none" stroke="#000" stroke-miterlimit="10" stroke-width=".39741996" d="m19.305 32.258 12.687 6.98-12.687 6.977Zm0 0"/><use xlink:href="#b" x="18.688" y="59.147"/><use xlink:href="#c" x="26.131" y="59.147"/><path d="M39.945 39.238v1.977l4.2-1.977-4.2-1.976Zm0 0"/><path fill="none" stroke="#000" stroke-miterlimit="10" stroke-width=".7938438800000001" d="M44.145 30.176h18.128V48.3H44.145Zm0 0"/><path fill="none" stroke="#000" stroke-miterlimit="10" stroke-width=".39741996" d="M59.55 39.238a6.343 6.343 0 1 0-12.687 0 6.343 6.343 0 1 0 12.688 0ZM48.723 34.75l8.972 8.973m0-8.973-8.972 8.973M62.273 39.238h9.43m18.129 0h9.434"/><path fill="none" stroke="#000" stroke-miterlimit="10" stroke-width=".7938438800000001" d="M71.703 30.176h18.129V48.3H71.703Zm0 0"/><path d="M67.504 39.238v1.977l4.2-1.977-4.2-1.976Zm0 0"/><path fill="none" stroke="#000" stroke-miterlimit="10" stroke-width=".39741996" d="m74.422 32.258 12.691 6.98-12.691 6.977Zm0 0"/><use xlink:href="#d" x="70.636" y="59.147"/><use xlink:href="#e" x="75.597" y="59.147"/><use xlink:href="#f" x="78.356" y="59.147"/><use xlink:href="#c" x="84.419" y="59.147"/><path d="M95.063 39.238v1.977l4.203-1.977-4.204-1.976Zm0 0"/><path fill="none" stroke="#000" stroke-miterlimit="10" stroke-width=".7938438800000001" d="M99.266 30.176h18.125V48.3H99.266Zm0 0"/><path fill="none" stroke="#000" stroke-miterlimit="10" stroke-width=".39741996" d="M114.672 39.238a6.343 6.343 0 1 0-12.688 0 6.343 6.343 0 1 0 12.688 0ZM103.84 34.75l8.973 8.973m0-8.973-8.973 8.973M117.39 39.238h9.434m18.125 0h9.434"/><path fill="none" stroke="#000" stroke-miterlimit="10" stroke-width=".7938438800000001" d="M126.824 30.176h18.125V48.3h-18.125Zm0 0"/><path d="M122.621 39.238v1.977l4.203-1.977-4.203-1.976Zm0 0"/><path fill="none" stroke="#000" stroke-miterlimit="10" stroke-width=".39741996" d="m129.543 32.258 12.687 6.98-12.687 6.977Zm0 0"/><use xlink:href="#g" x="125.752" y="59.147"/><use xlink:href="#e" x="130.714" y="59.147"/><use xlink:href="#f" x="133.472" y="59.147"/><use xlink:href="#c" x="139.535" y="59.147"/><path d="M150.184 39.238v1.977l4.199-1.977-4.2-1.976Zm0 0"/><path fill="none" stroke="#000" stroke-miterlimit="10" stroke-width=".7938438800000001" d="M154.383 30.176h18.125V48.3h-18.125Zm0 0"/><path fill="none" stroke="#000" stroke-miterlimit="10" stroke-width=".39741996" d="M169.79 39.238a6.343 6.343 0 1 0-12.688 0 6.343 6.343 0 1 0 12.687 0ZM158.957 34.75l8.973 8.973m0-8.973-8.973 8.973M172.508 39.238h9.433m18.125 0h9.434"/><path fill="none" stroke="#000" stroke-miterlimit="10" stroke-width=".7938438800000001" d="M181.941 30.176h18.125V48.3h-18.125Zm0 0"/><path d="M177.742 39.238v1.977l4.2-1.977-4.2-1.976Zm0 0"/><path fill="none" stroke="#000" stroke-miterlimit="10" stroke-width=".39741996" d="m184.66 32.258 12.688 6.98-12.688 6.977Zm0 0"/><use xlink:href="#h" x="184.04" y="59.147"/><use xlink:href="#c" x="191.483" y="59.147"/><path d="M205.3 39.238v1.977l4.2-1.977-4.2-1.976Zm0 0"/><g clip-path="url(#i)"><path fill="none" stroke="#000" stroke-miterlimit="10" stroke-width=".7938438800000001" d="M209.5 49.594V28.879h8.027v20.715Zm8.027-15.535 6.215-3.106v16.57l-6.215-3.105Zm0 0"/></g><path fill="none" stroke="#000" stroke-miterlimit="10" stroke-width=".39741996" d="M53.207 48.3v9.25m0 0v9.247"/><path d="M53.207 52.5h1.977l-1.977-4.2-1.977 4.2Zm0 0"/><g clip-path="url(#j)"><path fill="none" stroke="#000" stroke-miterlimit="10" stroke-width=".7938438800000001" d="M44.145 66.797h18.128v18.125H44.145Zm0 0"/></g><path fill="none" stroke="#000" stroke-miterlimit="10" stroke-width=".39741996" d="M48.676 71.328c.738-1.16 1.445-2.265 2.265-2.265.82 0 1.528 1.105 2.266 2.265.738 1.16 1.445 2.266 2.266 2.266.82 0 1.527-1.106 2.265-2.266M48.676 75.86c.738-1.16 1.445-2.266 2.265-2.266.82 0 1.528 1.105 2.266 2.265.738 1.16 1.445 2.266 2.266 2.266.82 0 1.527-1.105 2.265-2.266"/><g clip-path="url(#k)"><path fill="none" stroke="#000" stroke-miterlimit="10" stroke-width=".39741996" d="M48.676 80.39c.738-1.16 1.445-2.265 2.265-2.265.82 0 1.528 1.105 2.266 2.266.738 1.16 1.445 2.265 2.266 2.265.82 0 1.527-1.105 2.265-2.265"/></g><g clip-path="url(#l)"><path fill="none" stroke="#000" stroke-miterlimit="10" stroke-width=".39741996" d="m46.863 80.39 10.157-9.43"/></g><path stroke="#000" stroke-miterlimit="10" stroke-width=".39740400000000003" d="m59.262 68.879-3.367.73 1.195 1.286 1.195 1.289Zm0 0"/><path fill="none" stroke="#000" stroke-miterlimit="10" stroke-width=".39741996" d="M108.328 48.3v9.25m0 0v9.247"/><path d="M108.328 52.5h1.977l-1.977-4.2-1.976 4.2Zm0 0"/><g clip-path="url(#m)"><path fill="none" stroke="#000" stroke-miterlimit="10" stroke-width=".7938438800000001" d="M99.266 66.797h18.125v18.125H99.266Zm0 0"/></g><path fill="none" stroke="#000" stroke-miterlimit="10" stroke-width=".39741996" d="M109.46 71.781c.368-.578.724-1.133 1.134-1.133.41 0 .761.555 1.133 1.133.367.582.722 1.133 1.132 1.133.41 0 .762-.55 1.133-1.133M109.46 74.047c.368-.578.724-1.133 1.134-1.133.41 0 .761.555 1.133 1.133.367.582.722 1.133 1.132 1.133.41 0 .762-.551 1.133-1.133M109.46 76.313c.368-.579.724-1.133 1.134-1.133.41 0 .761.554 1.133 1.133.367.582.722 1.132 1.132 1.132.41 0 .762-.55 1.133-1.132"/><use xlink:href="#n" x="100.352" y="76.983"/><path fill="none" stroke="#000" stroke-miterlimit="10" stroke-width=".39741996" d="M101.984 79.031h12.688M101.984 82.203h12.688v-1.812h-12.688ZM101.984 83.563h12.688M163.445 48.3v9.25m0 0v9.247"/><path d="M163.445 52.5h1.977l-1.977-4.2-1.976 4.2Zm0 0"/><g clip-path="url(#o)"><path fill="none" stroke="#000" stroke-miterlimit="10" stroke-width=".7938438800000001" d="M154.383 66.797h18.125v18.125h-18.125Zm0 0"/></g><path fill="none" stroke="#000" stroke-miterlimit="10" stroke-width=".39741996" d="M158.914 71.328c.738-1.16 1.445-2.265 2.266-2.265.82 0 1.527 1.105 2.265 2.265.739 1.16 1.446 2.266 2.266 2.266.82 0 1.527-1.106 2.266-2.266M158.914 75.86c.738-1.16 1.445-2.266 2.266-2.266.82 0 1.527 1.105 2.265 2.265.739 1.16 1.446 2.266 2.266 2.266.82 0 1.527-1.105 2.266-2.266"/><g clip-path="url(#p)"><path fill="none" stroke="#000" stroke-miterlimit="10" stroke-width=".39741996" d="M158.914 80.39c.738-1.16 1.445-2.265 2.266-2.265.82 0 1.527 1.105 2.265 2.266.739 1.16 1.446 2.265 2.266 2.265.82 0 1.527-1.105 2.266-2.265"/></g><path fill="none" stroke="#000" stroke-miterlimit="10" stroke-width=".39741996" d="M163.445 30.176v-9.25m0 0V11.68M163.445 11.68h-27.558v18.496"/><path d="M135.887 25.977h-1.977l1.977 4.199 1.976-4.2Zm0 0"/><path fill="none" stroke="#000" stroke-miterlimit="10" stroke-width=".39741996" d="M135.887 11.68H80.77v18.496"/><path stroke="#000" stroke-miterlimit="10" stroke-width=".39741996" d="M137.465 11.68a1.58 1.58 0 1 0-3.16-.005 1.58 1.58 0 0 0 3.16.005Zm0 0"/><path d="M80.77 25.977h-1.977l1.977 4.199 1.972-4.2Zm0 0"/><path fill="none" stroke="#000" stroke-miterlimit="10" stroke-width=".39741996" d="M80.77 11.68H25.648v18.496"/><path stroke="#000" stroke-miterlimit="10" stroke-width=".39741996" d="M82.348 11.68a1.58 1.58 0 1 0-3.16-.005 1.58 1.58 0 0 0 3.16.005Zm0 0"/><path d="M25.648 25.977h-1.976l1.976 4.199 1.977-4.2Zm0 0"/><use xlink:href="#q" x="65.777" y="79.249"/><use xlink:href="#c" x="73.219" y="79.249"/><use xlink:href="#r" x="79.421" y="79.249"/><use xlink:href="#s" x="120.895" y="79.249"/><use xlink:href="#r" x="128.059" y="79.249"/><use xlink:href="#t" x="176.011" y="79.249"/><use xlink:href="#c" x="183.037" y="79.249"/><use xlink:href="#r" x="189.239" y="79.249"/></svg>