<svg xmlns="http://www.w3.org/2000/svg" xmlns:xlink="http://www.w3.org/1999/xlink" width="228.008" height="111.223"><defs><path id="b" d="M7.078 0v-.312h-.234c-.766 0-.782-.11-.782-.454v-5.218c0-.36.016-.47.782-.47h.234v-.296c-.344.031-1.078.031-1.453.031s-1.11 0-1.469-.031v.297h.25c.75 0 .782.11.782.469v2.312h-2.97v-2.312c0-.36.032-.47.782-.47h.25v-.296c-.36.031-1.078.031-1.453.031s-1.125 0-1.469-.031v.297h.235c.765 0 .78.11.78.469v5.218c0 .344-.015.454-.78.454H.328V0c.344-.031 1.078-.031 1.453-.031s1.11 0 1.469.031v-.312H3c-.75 0-.781-.11-.781-.454v-2.593h2.969v2.593c0 .344-.032.454-.782.454h-.25V0c.36-.031 1.078-.031 1.469-.031.375 0 1.11 0 1.453.031m0 0"/><path id="c" d="M6.031-4.5 5.75-6.719H.328v.297h.235c.765 0 .78.11.78.469v5.187c0 .344-.015.454-.78.454H.328V0c.344-.031 1.11-.031 1.5-.031.406 0 1.313 0 1.656.031v-.312h-.312c-.953 0-.953-.125-.953-.47v-2.437h.86c.952 0 1.046.328 1.046 1.156h.25v-2.609h-.25c0 .828-.094 1.156-1.047 1.156h-.86v-2.5c0-.328.032-.406.485-.406h1.188c1.484 0 1.734.563 1.89 1.922Zm0 0"/><path id="d" d="M4.14 0v-.312h-.312c-.89 0-.922-.11-.922-.47v-5.546c0-.234 0-.266-.219-.266-.624.64-1.484.64-1.812.64v.313c.203 0 .781 0 1.297-.265v5.125c0 .36-.031.469-.922.469H.938V0C1.28-.031 2.14-.031 2.547-.031c.39 0 1.25 0 1.594.031m0 0"/><path id="e" d="M1.906-.531a.534.534 0 0 0-.531-.516.534.534 0 0 0-.531.516c0 .297.25.531.531.531a.537.537 0 0 0 .531-.531m0 0"/><path id="f" d="M5.531-2.64h-.234C5.219-1.267 5.03-.345 3.187-.345H1.579l3.828-6.062c.078-.11.078-.125.078-.188 0-.156-.062-.156-.265-.156H.797l-.11 2.219h.25c.063-1.11.36-1.922 1.985-1.922h1.547L.625-.36C.547-.25.547-.25.547-.172.547 0 .609 0 .812 0h4.563Zm0 0"/><path id="g" d="M4.438-1.719h-.25c-.047.297-.11.735-.22.875-.062.078-.718.078-.937.078H1.25L2.297-1.78c1.547-1.36 2.14-1.89 2.14-2.89 0-1.126-.89-1.923-2.093-1.923A1.826 1.826 0 0 0 .5-4.797c0 .547.484.547.516.547.172 0 .515-.11.515-.516 0-.265-.172-.515-.515-.515-.079 0-.11 0-.141.015.234-.656.766-1.015 1.344-1.015.89 0 1.328.797 1.328 1.61 0 .796-.5 1.577-1.047 2.187L.61-.36C.5-.25.5-.234.5 0h3.656Zm0 0"/><path id="h" d="M7.078-6.453v-.297l-1.156.031-1.156-.031v.297c1.015 0 1.015.469 1.015.734V-1.5L2.297-6.625C2.203-6.75 2.203-6.75 2-6.75H.328v.297H.61c.157 0 .344.016.5.031.22.016.235.031.235.219v5.172c0 .265 0 .718-1.016.718V0l1.156-.031L2.641 0v-.312c-1.016 0-1.016-.454-1.016-.72v-5.155c.047.062.063.062.094.125L5.75-.125c.094.11.11.125.172.125.14 0 .14-.062.14-.25v-5.469c0-.265 0-.734 1.016-.734m0 0"/><path id="m" d="M7.266-2.39v-.313l-1.203.031c-.391 0-1.235 0-1.594-.031v.312h.312c.89 0 .922.11.922.47v.64c0 1.11-1.25 1.187-1.531 1.187-.64 0-2.594-.343-2.594-3.281 0-2.969 1.938-3.297 2.531-3.297 1.063 0 1.97.89 2.157 2.344.03.14.03.172.156.172.172 0 .172-.032.172-.235v-2.343c0-.172 0-.235-.11-.235-.046 0-.078 0-.171.11l-.485.734c-.312-.312-.86-.844-1.828-.844-1.844 0-3.453 1.563-3.453 3.594C.547-1.359 2.14.219 4.016.219c.718 0 1.515-.266 1.843-.844.141.219.532.61.641.61.094 0 .094-.079.094-.22v-1.718c0-.39.031-.438.672-.438m0 0"/><path id="o" d="M7.219-6.453v-.297a22.29 22.29 0 0 1-.953.031L5.14-6.75v.297c.5.016.718.266.718.5 0 .078-.03.14-.046.203L4-.984l-1.89-5c-.063-.141-.063-.172-.063-.172 0-.297.562-.297.812-.297v-.297c-.359.031-1.046.031-1.421.031L.188-6.75v.297c.64 0 .828 0 .968.375L3.453 0c.063.188.125.219.25.219.172 0 .188-.047.235-.188L6.14-5.78c.14-.375.406-.657 1.078-.672m0 0"/><path id="p" d="M7.125-3.36c0-2.015-1.484-3.609-3.281-3.609-1.781 0-3.297 1.578-3.297 3.61C.547-1.33 2.078.219 3.844.219 5.64.219 7.125-1.36 7.125-3.36m-1.016-.124C6.11-.875 4.75-.047 3.844-.047c-.953 0-2.266-.86-2.266-3.437 0-2.563 1.438-3.235 2.266-3.235.86 0 2.265.703 2.265 3.235m0 0"/><path id="q" d="M6.578-2.297c0-.11 0-.172-.125-.172-.11 0-.11.063-.125.156C6.25-.905 5.188-.092 4.11-.092c-.593 0-2.53-.329-2.53-3.282S3.5-6.672 4.108-6.672c1.079 0 1.954.906 2.157 2.344.015.14.015.172.156.172.156 0 .156-.032.156-.235v-2.343c0-.172 0-.235-.11-.235-.046 0-.077 0-.155.11l-.5.734c-.36-.36-.875-.844-1.813-.844-1.86 0-3.453 1.563-3.453 3.594C.547-1.328 2.157.219 4 .219c1.61 0 2.578-1.375 2.578-2.516m0 0"/><path id="r" d="M-3.484-2.875C-3.75-3.672-4.437-4.25-5.22-4.25c-.812 0-1.375.875-1.375 1.813 0 1 .594 1.75 1.36 1.75.312 0 .5-.22.5-.5 0-.313-.203-.5-.5-.5-.5 0-.5.468-.5.609-.485-.313-.61-.953-.61-1.313 0-.406.219-.953 1.11-.953.125 0 .687.016 1.125.281.484.297.515.626.515.876.016.078.031.312.031.39.016.078.016.14.126.14.109 0 .109-.062.109-.234v-.437c0-.813.672-1.172 1.64-1.172 1.344 0 1.626.688 1.626 1.11 0 .437-.172 1.171-.75 1.515.046-.344-.172-.64-.547-.64-.36 0-.547.265-.547.546 0 .235.14.547.578.547.89 0 1.547-.906 1.547-1.984 0-1.219-.906-2.11-1.906-2.11-.813 0-1.594.625-1.797 1.641m0 0"/><path id="t" d="M-3.172-4.547c-.781 0-1.578.047-2.312.39-.938.454-1.11 1.266-1.11 1.688 0 .594.266 1.313 1.188 1.719.672.313 1.453.36 2.234.36.75 0 1.64-.032 2.39-.438a1.83 1.83 0 0 0 1-1.64C.219-3 .017-3.75-.936-4.189c-.672-.312-1.454-.359-2.235-.359M0-2.469c0 .39-.25.969-1.203 1.156-.594.11-1.5.11-2.078.11-.64 0-1.281 0-1.828-.078-1.172-.188-1.266-.938-1.266-1.188 0-.328.188-.969 1.156-1.156.563-.11 1.313-.11 1.938-.11.734 0 1.406 0 2.047.11C-.297-3.469 0-2.906 0-2.469m0 0"/><path id="u" d="M-6.531-2.39c-.219.093-.219.124-.219.359V-.36h.297v-.25c0-.75.11-.782.469-.782h4.953c.265 0 .718 0 .718 1.032H0c-.016-.36-.031-.844-.031-1.157 0-.328.015-.812.031-1.171h-.312c0 1.03-.454 1.03-.72 1.03h-5.343v-.015l6.156-2.39C-.094-4.11 0-4.156 0-4.25c0-.11-.078-.14-.187-.187L-6.453-6.86v-.016h5.687c.344 0 .454.016.454.781v.235H0c-.031-.36-.031-1.032-.031-1.422 0-.39 0-1.047.031-1.407h-.312v.235c0 .765-.11.781-.454.781h-5.218c-.36 0-.47-.016-.47-.781v-.235h-.296v1.672c0 .25 0 .25.188.313L-1-4.531Zm0 0"/><path id="v" d="M-5.984-6.062c-.36 0-.47-.016-.47-.782v-.234h-.296c.031.344.031 1.078.031 1.453s0 1.11-.031 1.469h.297v-.25c0-.75.11-.782.469-.782h2.312v2.97h-2.312c-.36 0-.47-.032-.47-.782v-.25h-.296c.031.36.031 1.078.031 1.453s0 1.125-.031 1.469h.297v-.234c0-.766.11-.782.469-.782h5.218c.344 0 .454.016.454.782v.234H0c-.031-.344-.031-1.078-.031-1.453s0-1.11.031-1.469h-.312V-3c0 .75-.11.781-.454.781h-2.593v-2.968h2.593c.344 0 .454.03.454.78v.25H0c-.031-.359-.031-1.077-.031-1.468 0-.375 0-1.11.031-1.453h-.312v.234c0 .766-.11.782-.454.782Zm0 0"/><path id="w" d="M-3.969-3.86c-.11-.093-.125-.093-.172-.093-.125 0-.125.078-.125.265V-.53l1.594.11v-.235c-1-.063-1.375-.25-1.375-1.344v-1.125L-.313-.359c.11.078.126.078.172.078C0-.281 0-.344 0-.531v-3.266l-1.844-.172v.25C-.687-3.625-.25-3.422-.25-2.28v1.172Zm0 0"/><path id="x" d="M-1.984-4.437c-1.188 0-2.172.812-2.172 1.875 0 .468.156.906.5 1.25h-1.922c.062-.188.125-.516.125-.829 0-1.218-.89-1.921-1.031-1.921-.047 0-.11.03-.11.109 0 0 0 .031.032.078.093.203.296.688.296 1.344 0 .39-.078.844-.28 1.312-.032.078-.032.094-.032.125 0 .094.078.094.234.094h2.938c.172 0 .25 0 .25-.14 0-.063-.031-.079-.094-.126-.156-.109-.687-.468-.687-1.28 0-.517.453-.75.64-.829.36-.172.75-.187 1.235-.187.343 0 .937 0 1.359.234.39.25.64.61.64 1.062 0 .72-.515 1.282-1.109 1.454.016-.032.031-.063.031-.172 0-.328-.25-.485-.484-.485-.25 0-.484.157-.484.485 0 .14.062.484.515.484C-.734-.5.22-1.172.22-2.281c0-1.156-.953-2.156-2.203-2.156m0 0"/><path id="y" d="M-3.14-3.625h.312c2.312 0 2.766 1.031 2.766 1.594 0 .172-.016.703-.36.969 0-.438-.281-.516-.453-.516a.452.452 0 0 0-.453.453c0 .172.094.469.484.469.657 0 1.063-.547 1.063-1.375 0-1.281-1.344-2.485-3.469-2.485-2.672 0-3.344 1.141-3.344 2.016 0 .547.188 1.031.625 1.453.453.406.86.625 1.61.625 1.234 0 2.203-.86 2.203-1.969 0-.609-.422-1.015-.985-1.234m.75 1.219c0 .156 0 .61-.61.922-.375.172-.875.172-1.36.172-.53 0-.984 0-1.359-.204-.5-.265-.625-.64-.625-.984 0-.453.344-.781.782-.953.328-.125.937-.156 1.406-.156.812 0 1.765.328 1.765 1.203m0 0"/><path id="z" d="M-1.625-2.906h.86c.343 0 .453.015.453.75v.203H0c-.031-.406-.031-.922-.031-1.328 0-.422 0-.938.031-1.344h-.312v.203c0 .734-.11.75-.454.75h-.859v-.984h-.312v.984h-4.5c-.204 0-.266 0-.266.156 0 .094 0 .125.125.204l4.64 3.03h.313Zm-.312-.063v2.422l-3.688-2.422Zm0 0"/><path id="A" d="M-.75-1.047c.438 0 .438.11.438.766H0A26.346 26.346 0 0 1-.031-1.36c0-.297.015-.688.031-1.078h-.312c0 .656 0 .765-.438.765h-1.016l-.546-.625c1.046-.765 1.593-1.187 1.78-1.187.188 0 .22.172.22.359H0c-.016-.281-.031-.86-.031-1.062 0-.297.015-.579.031-.86h-.312c0 .36 0 .578-.516.953l-1.766 1.25c-.031.016-.094.063-.11.063-.046 0-.64-.703-.718-.797-.5-.625-.531-1.047-.531-1.25h-.313c.032.281.032.422.032.687 0 .36-.016.97-.032 1.11h.313c0-.188.11-.281.25-.281.187 0 .312.14.375.218l1.219 1.39h-4.75L-6.75-.28h.297c0-.688.078-.766.562-.766Zm0 0"/><path id="s" d="M-2.297-.828v-4.297c0-.11-.11-.219-.219-.219-.14 0-.234.11-.234.219v4.297a.23.23 0 0 0 .234.234c.11 0 .22-.11.22-.234m0 0"/><clipPath id="a"><path d="M.297 8H26v38H.297Zm0 0"/></clipPath><clipPath id="i"><path d="M46 90h21v20.453H46Zm0 0"/></clipPath><clipPath id="j"><path d="M46 97h22v13.453H46Zm0 0"/></clipPath><clipPath id="k"><path d="M44 89h23v21.453H44Zm0 0"/></clipPath><clipPath id="l"><path d="M105 90h21v20.453h-21Zm0 0"/></clipPath><clipPath id="n"><path d="M164 90h21v20.453h-21Zm0 0"/></clipPath></defs><path fill="none" stroke="#000" stroke-miterlimit="10" stroke-width=".39623094000000003" d="M7.785 61.414h10.043m19.3 0h10.044M7.586 61.414v-41.36"/><g clip-path="url(#a)"><path fill="none" stroke="#000" stroke-miterlimit="10" stroke-width=".7914688200000001" d="M7.586 20.055h6.894L7.586 33.84.696 20.055h6.89"/></g><path fill="none" stroke="#000" stroke-miterlimit="10" stroke-width=".7914688200000001" d="M17.828 51.762h19.3v19.3h-19.3Zm0 0"/><path d="M13.64 61.414v1.969l4.188-1.969-4.187-1.973Zm0 0"/><path fill="none" stroke="#000" stroke-miterlimit="10" stroke-width=".39623094000000003" d="M22.652 56.59c.79-1.238 1.54-2.414 2.414-2.414.875 0 1.625 1.176 2.414 2.414.786 1.234 1.54 2.41 2.41 2.41.876 0 1.626-1.176 2.415-2.41m-3.38-1.45-2.894 2.895M22.652 61.414c.79-1.234 1.54-2.414 2.414-2.414.875 0 1.625 1.18 2.414 2.414.786 1.234 1.54 2.41 2.41 2.41.876 0 1.626-1.176 2.415-2.41M22.652 66.238c.79-1.234 1.54-2.414 2.414-2.414.875 0 1.625 1.18 2.414 2.414.786 1.235 1.54 2.414 2.41 2.414.876 0 1.626-1.18 2.415-2.414m-3.38-1.449-2.894 2.895"/><use xlink:href="#b" x="20.538" y="81.937"/><use xlink:href="#c" x="27.958" y="81.937"/><path d="M42.984 61.414v1.969l4.188-1.969-4.188-1.973Zm0 0"/><path fill="none" stroke="#000" stroke-miterlimit="10" stroke-width=".7914688200000001" d="M47.172 51.762h19.3v19.3h-19.3Zm0 0"/><path fill="none" stroke="#000" stroke-miterlimit="10" stroke-width=".39623094000000003" d="M63.578 61.414a6.757 6.757 0 0 0-6.754-6.758 6.76 6.76 0 0 0-6.758 6.758 6.757 6.757 0 0 0 13.512 0ZM52.047 56.637l9.55 9.55m0-9.55-9.55 9.55M66.473 61.414h10.043m19.3 0h10.043"/><path fill="none" stroke="#000" stroke-miterlimit="10" stroke-width=".7914688200000001" d="M76.516 51.762h19.3v19.3h-19.3Zm0 0"/><path d="M72.328 61.414v1.969l4.188-1.969-4.188-1.973Zm0 0"/><path fill="none" stroke="#000" stroke-miterlimit="10" stroke-width=".39623094000000003" d="M81.34 56.59c.789-1.238 1.539-2.414 2.414-2.414.875 0 1.625 1.176 2.414 2.414.785 1.234 1.539 2.41 2.41 2.41.875 0 1.625-1.176 2.414-2.41m-3.379-1.45-2.894 2.895M81.34 61.414C82.129 60.18 82.879 59 83.754 59c.875 0 1.625 1.18 2.414 2.414.785 1.234 1.539 2.41 2.41 2.41.875 0 1.625-1.176 2.414-2.41M81.34 66.238c.789-1.234 1.539-2.414 2.414-2.414.875 0 1.625 1.18 2.414 2.414.785 1.235 1.539 2.414 2.41 2.414.875 0 1.625-1.18 2.414-2.414m-3.379-1.449-2.894 2.895"/><use xlink:href="#d" x="76.064" y="81.937"/><use xlink:href="#e" x="81.011" y="81.937"/><use xlink:href="#f" x="83.761" y="81.937"/><use xlink:href="#c" x="89.806" y="81.937"/><path d="M101.672 61.414v1.969l4.187-1.969-4.187-1.973Zm0 0"/><path fill="none" stroke="#000" stroke-miterlimit="10" stroke-width=".7914688200000001" d="M105.86 51.762h19.3v19.3h-19.3Zm0 0"/><path fill="none" stroke="#000" stroke-miterlimit="10" stroke-width=".39623094000000003" d="M122.266 61.414a6.757 6.757 0 0 0-6.754-6.758 6.76 6.76 0 0 0-6.758 6.758 6.757 6.757 0 0 0 13.512 0ZM110.734 56.637l9.551 9.55m0-9.55-9.55 9.55M125.16 61.414h10.043m19.3 0h10.044"/><path fill="none" stroke="#000" stroke-miterlimit="10" stroke-width=".7914688200000001" d="M135.203 51.762h19.3v19.3h-19.3Zm0 0"/><path d="M131.016 61.414v1.969l4.187-1.969-4.187-1.973Zm0 0"/><path fill="none" stroke="#000" stroke-miterlimit="10" stroke-width=".39623094000000003" d="M140.027 56.59c.79-1.238 1.54-2.414 2.414-2.414.875 0 1.625 1.176 2.414 2.414.786 1.234 1.54 2.41 2.41 2.41.876 0 1.626-1.176 2.415-2.41m-3.38-1.45-2.894 2.895M140.027 61.414c.79-1.234 1.54-2.414 2.414-2.414.875 0 1.625 1.18 2.414 2.414.786 1.234 1.54 2.41 2.41 2.41.876 0 1.626-1.176 2.415-2.41M140.027 66.238c.79-1.234 1.54-2.414 2.414-2.414.875 0 1.625 1.18 2.414 2.414.786 1.235 1.54 2.414 2.41 2.414.876 0 1.626-1.18 2.415-2.414m-3.38-1.449-2.894 2.895"/><use xlink:href="#g" x="134.75" y="81.937"/><use xlink:href="#e" x="139.697" y="81.937"/><use xlink:href="#f" x="142.447" y="81.937"/><use xlink:href="#c" x="148.492" y="81.937"/><path d="M160.36 61.414v1.969l4.187-1.969-4.188-1.973Zm0 0"/><path fill="none" stroke="#000" stroke-miterlimit="10" stroke-width=".7914688200000001" d="M164.547 51.762h19.3v19.3h-19.3Zm0 0"/><path fill="none" stroke="#000" stroke-miterlimit="10" stroke-width=".39623094000000003" d="M180.953 61.414a6.757 6.757 0 0 0-6.754-6.758 6.76 6.76 0 0 0-6.758 6.758 6.757 6.757 0 0 0 13.512 0ZM169.422 56.637l9.55 9.55m0-9.55-9.55 9.55M183.848 61.414h10.043m19.3 0h10.043"/><path fill="none" stroke="#000" stroke-miterlimit="10" stroke-width=".7914688200000001" d="M193.89 51.762h19.301v19.3h-19.3Zm0 0"/><path d="M189.703 61.414v1.969l4.188-1.969-4.188-1.973Zm0 0"/><path fill="none" stroke="#000" stroke-miterlimit="10" stroke-width=".39623094000000003" d="M198.715 56.59c.789-1.238 1.539-2.414 2.414-2.414.875 0 1.625 1.176 2.414 2.414.785 1.234 1.539 2.41 2.41 2.41.875 0 1.625-1.176 2.414-2.41m-3.379-1.45-2.894 2.895M198.715 61.414c.789-1.234 1.539-2.414 2.414-2.414.875 0 1.625 1.18 2.414 2.414.785 1.234 1.539 2.41 2.41 2.41.875 0 1.625-1.176 2.414-2.41M198.715 66.238c.789-1.234 1.539-2.414 2.414-2.414.875 0 1.625 1.18 2.414 2.414.785 1.235 1.539 2.414 2.41 2.414.875 0 1.625-1.18 2.414-2.414m-3.379-1.449-2.894 2.895"/><use xlink:href="#h" x="196.598" y="81.937"/><use xlink:href="#c" x="204.018" y="81.937"/><path d="M219.047 61.414v1.969l4.187-1.969-4.187-1.973Zm0 0"/><path fill="none" stroke="#000" stroke-miterlimit="10" stroke-width=".39623094000000003" d="M56.824 71.062v9.848m0 0v9.848"/><path d="M56.824 75.25h1.969l-1.969-4.187-1.972 4.187Zm0 0"/><g clip-path="url(#i)"><path fill="none" stroke="#000" stroke-miterlimit="10" stroke-width=".7914688200000001" d="M47.172 90.758h19.3v19.297h-19.3Zm0 0"/></g><path fill="none" stroke="#000" stroke-miterlimit="10" stroke-width=".39623094000000003" d="M51.996 95.582c.79-1.234 1.54-2.414 2.414-2.414.875 0 1.625 1.18 2.414 2.414.785 1.234 1.54 2.414 2.41 2.414.875 0 1.625-1.18 2.414-2.414M51.996 100.406c.79-1.234 1.54-2.41 2.414-2.41.875 0 1.625 1.176 2.414 2.41.785 1.235 1.54 2.414 2.41 2.414.875 0 1.625-1.18 2.414-2.414"/><g clip-path="url(#j)"><path fill="none" stroke="#000" stroke-miterlimit="10" stroke-width=".39623094000000003" d="M51.996 105.23c.79-1.234 1.54-2.41 2.414-2.41.875 0 1.625 1.176 2.414 2.41.785 1.235 1.54 2.415 2.41 2.415.875 0 1.625-1.18 2.414-2.415"/></g><g clip-path="url(#k)"><path fill="none" stroke="#000" stroke-miterlimit="10" stroke-width=".39623094000000003" d="m50.066 105.23 10.985-10.199"/></g><path stroke="#000" stroke-miterlimit="10" stroke-width=".39621498000000005" d="m63.29 92.957-3.356.727 1.191 1.28 1.191 1.286Zm0 0"/><path fill="none" stroke="#000" stroke-miterlimit="10" stroke-width=".39623094000000003" d="M115.512 71.062v9.848m0 0v9.848"/><path d="M115.512 75.25h1.968l-1.968-4.187-1.973 4.187Zm0 0"/><g clip-path="url(#l)"><path fill="none" stroke="#000" stroke-miterlimit="10" stroke-width=".7914688200000001" d="M105.86 90.758h19.3v19.297h-19.3Zm0 0"/></g><path fill="none" stroke="#000" stroke-miterlimit="10" stroke-width=".39623094000000003" d="M116.715 96.062c.394-.617.77-1.203 1.207-1.203.437 0 .812.586 1.207 1.203.394.622.77 1.208 1.207 1.208.437 0 .812-.586 1.207-1.208M116.715 98.477c.394-.618.77-1.207 1.207-1.207.437 0 .812.59 1.207 1.207.394.617.77 1.207 1.207 1.207.437 0 .812-.59 1.207-1.207M116.715 100.89c.394-.617.77-1.206 1.207-1.206.437 0 .812.59 1.207 1.207.394.617.77 1.203 1.207 1.203.437 0 .812-.586 1.207-1.203"/><use xlink:href="#m" x="107.283" y="101.372"/><path fill="none" stroke="#000" stroke-miterlimit="10" stroke-width=".39623094000000003" d="M108.754 103.785h13.512M108.754 107.16h13.512v-1.93h-13.512ZM108.754 108.61h13.512M174.2 71.062v9.848m0 0v9.848"/><path d="M174.2 75.25h1.968l-1.969-4.187-1.972 4.187Zm0 0"/><g clip-path="url(#n)"><path fill="none" stroke="#000" stroke-miterlimit="10" stroke-width=".7914688200000001" d="M164.547 90.758h19.3v19.297h-19.3Zm0 0"/></g><path fill="none" stroke="#000" stroke-miterlimit="10" stroke-width=".39623094000000003" d="M175.402 96.062c.395-.617.77-1.203 1.207-1.203.438 0 .813.586 1.207 1.203.395.622.77 1.208 1.207 1.208.438 0 .813-.586 1.207-1.208M175.402 98.477c.395-.618.77-1.207 1.207-1.207.438 0 .813.59 1.207 1.207.395.617.77 1.207 1.207 1.207.438 0 .813-.59 1.207-1.207M175.402 100.89c.395-.617.77-1.206 1.207-1.206.438 0 .813.59 1.207 1.207.395.617.77 1.203 1.207 1.203.438 0 .813-.586 1.207-1.203"/><use xlink:href="#m" x="165.97" y="101.372"/><path fill="none" stroke="#000" stroke-miterlimit="10" stroke-width=".39623094000000003" d="M167.441 103.785h13.512M167.441 107.16h13.512v-1.93h-13.512ZM167.441 108.61h13.512"/><use xlink:href="#o" x="69.967" y="103.785"/><use xlink:href="#c" x="77.387" y="103.785"/><use xlink:href="#p" x="83.57" y="103.785"/><use xlink:href="#q" x="128.654" y="103.785"/><use xlink:href="#p" x="135.797" y="103.785"/><use xlink:href="#d" x="143.494" y="103.785"/><use xlink:href="#q" x="187.341" y="103.785"/><use xlink:href="#p" x="194.484" y="103.785"/><use xlink:href="#g" x="202.181" y="103.785"/><use xlink:href="#r" x="30.859" y="48.268"/><use xlink:href="#s" x="30.859" y="41.672"/><use xlink:href="#r" x="30.859" y="35.727"/><use xlink:href="#t" x="30.859" y="30.781"/><use xlink:href="#u" x="30.859" y="24.192"/><use xlink:href="#v" x="30.859" y="15.122"/><use xlink:href="#w" x="30.859" y="7.702"/><use xlink:href="#x" x="89.545" y="48.268"/><use xlink:href="#t" x="89.545" y="43.321"/><use xlink:href="#u" x="89.545" y="36.732"/><use xlink:href="#v" x="89.545" y="27.663"/><use xlink:href="#w" x="89.545" y="20.242"/><use xlink:href="#y" x="148.232" y="48.268"/><use xlink:href="#u" x="148.232" y="41.679"/><use xlink:href="#v" x="148.232" y="32.609"/><use xlink:href="#w" x="148.232" y="25.189"/><use xlink:href="#z" x="206.974" y="48.268"/><use xlink:href="#x" x="206.974" y="43.321"/><use xlink:href="#x" x="206.974" y="38.374"/><use xlink:href="#A" x="206.974" y="31.785"/><use xlink:href="#v" x="206.974" y="26.563"/><use xlink:href="#w" x="206.974" y="19.143"/></svg>