<svg xmlns="http://www.w3.org/2000/svg" xmlns:xlink="http://www.w3.org/1999/xlink" width="216.939" height="124.978"><defs><path id="a" d="M7.125 0v-.312h-.234c-.766 0-.797-.11-.797-.47v-5.234c0-.359.031-.468.797-.468h.234v-.313c-.344.031-1.078.031-1.469.031-.375 0-1.125 0-1.468-.03v.312h.234c.781 0 .797.109.797.468v2.329H2.234v-2.329c0-.359.032-.468.797-.468h.235v-.313c-.344.031-1.078.031-1.47.031-.374 0-1.124 0-1.468-.03v.312h.235c.765 0 .796.109.796.468V-.78c0 .36-.03.469-.796.469H.328V0c.344-.031 1.078-.031 1.469-.031.375 0 1.125 0 1.469.031v-.312H3.03c-.765 0-.797-.11-.797-.47V-3.39H5.22v2.61c0 .36-.016.469-.797.469h-.234V0C4.53-.031 5.28-.031 5.656-.031s1.125 0 1.469.031m0 0"/><path id="b" d="m6.078-4.531-.281-2.235H.328v.313h.235c.765 0 .796.11.796.469v5.203c0 .36-.03.469-.796.469H.328V0c.344-.031 1.125-.031 1.516-.031.406 0 1.312 0 1.672.031v-.312h-.328c-.954 0-.954-.125-.954-.47v-2.452h.86c.953 0 1.062.312 1.062 1.172h.25v-2.641h-.25c0 .828-.11 1.156-1.062 1.156h-.86v-2.515c0-.329.032-.391.5-.391h1.188c1.5 0 1.734.547 1.906 1.922Zm0 0"/><path id="c" d="M8.75 0v-.312h-.234c-.766 0-.797-.11-.797-.47v-5.234c0-.359.031-.468.797-.468h.234v-.313H7.063c-.25 0-.25.016-.329.188L4.563-1 2.406-6.578c-.094-.219-.125-.219-.36-.219H.376v.313h.234c.766 0 .782.109.782.468v4.97c0 .265 0 .734-1.016.734V0l1.156-.031L2.703 0v-.312c-1.031 0-1.031-.47-1.031-.735v-5.36h.016l2.39 6.188c.047.125.11.219.203.219.11 0 .14-.078.172-.187l2.453-6.297h.016v5.703c0 .36-.031.469-.797.469h-.234V0c.375-.031 1.047-.031 1.437-.031.39 0 1.047 0 1.422.031m0 0"/><path id="d" d="M2.453 0v-.312c-.656 0-.687-.047-.687-.438v-3.656l-1.391.11v.312c.64 0 .734.062.734.547V-.75c0 .438-.109.438-.78.438V0l1.093-.031c.344 0 .703.015 1.031.031m-.547-6.016c0-.265-.218-.53-.515-.53a.54.54 0 0 0-.547.53c0 .266.234.532.531.532a.525.525 0 0 0 .531-.532m0 0"/><path id="e" d="M3.578-1.281c0-.516-.297-.813-.406-.938-.328-.312-.719-.406-1.14-.484-.563-.11-1.22-.235-1.22-.813 0-.343.25-.75 1.11-.75 1.094 0 1.14.891 1.156 1.204.016.093.125.093.125.093.125 0 .125-.062.125-.25v-1c0-.172 0-.234-.11-.234-.046 0-.062 0-.187.11a.779.779 0 0 1-.172.155c-.375-.265-.796-.265-.937-.265-1.219 0-1.594.656-1.594 1.219 0 .343.156.625.422.843.328.266.61.329 1.313.454.234.046 1.046.203 1.046.921 0 .516-.359.907-1.125.907-.843 0-1.203-.563-1.39-1.407-.031-.14-.031-.171-.14-.171-.126 0-.126.062-.126.25v1.312c0 .172 0 .234.11.234C.484.11.5.094.688-.094.703-.109.703-.125.89-.312a1.51 1.51 0 0 0 1.093.421c1.141 0 1.594-.671 1.594-1.39m0 0"/><path id="f" d="M4.125-1.187c0-.094-.094-.094-.125-.094-.094 0-.11.031-.125.093C3.578-.265 2.938-.14 2.563-.14c-.516 0-1.391-.421-1.391-2.03 0-1.626.812-2.032 1.344-2.032.078 0 .703 0 1.062.36-.406.03-.469.327-.469.452 0 .266.172.47.454.47.265 0 .453-.173.453-.47 0-.687-.75-1.062-1.516-1.062-1.25 0-2.156 1.062-2.156 2.297 0 1.281.984 2.265 2.14 2.265 1.329 0 1.641-1.187 1.641-1.296m0 0"/><path id="g" d="M5.328 0v-.312c-.516 0-.766 0-.781-.297v-1.907c0-.843 0-1.156-.313-1.515-.14-.172-.468-.375-1.046-.375-.829 0-1.266.61-1.422.968H1.75v-3.468l-1.437.11v.312c.703 0 .78.062.78.547V-.75c0 .438-.109.438-.78.438V0l1.125-.031L2.563 0v-.312c-.672 0-.782 0-.782-.438v-1.844c0-1.031.703-1.594 1.344-1.594.625 0 .734.547.734 1.11V-.75c0 .438-.109.438-.78.438V0l1.124-.031Zm0 0"/><path id="h" d="M4.125-1.187c0-.094-.078-.11-.125-.11-.094 0-.11.047-.125.125C3.515-.14 2.625-.14 2.531-.14c-.5 0-.906-.296-1.125-.671-.297-.47-.297-1.125-.297-1.485h2.766c.219 0 .25 0 .25-.219 0-.984-.531-1.937-1.781-1.937C1.188-4.453.28-3.437.28-2.187.281-.86 1.328.108 2.47.108 3.688.11 4.125-1 4.125-1.187m-.656-1.329h-2.36c.063-1.468.907-1.718 1.235-1.718 1.031 0 1.125 1.343 1.125 1.718m0 0"/><path id="i" d="M3.625-3.797c0-.312-.312-.61-.734-.61-.735 0-1.094.673-1.235 1.11v-1.11l-1.375.11v.313c.688 0 .782.078.782.562V-.75c0 .438-.11.438-.782.438V0l1.125-.031c.407 0 .875 0 1.266.031v-.312h-.203c-.735 0-.75-.11-.75-.47v-1.53c0-.985.406-1.876 1.172-1.876.062 0 .078 0 .109.016a.433.433 0 0 0-.234.39c0 .282.203.423.422.423.187 0 .437-.11.437-.438m0 0"/><path id="p" d="M7.266-6.484v-.313c-.313.016-.703.031-.97.031l-1.124-.03v.312c.516 0 .719.265.719.5 0 .078-.032.125-.047.187L4.016-1 2.125-6.016c-.062-.14-.062-.187-.062-.187 0-.281.562-.281.812-.281v-.313c-.36.031-1.047.031-1.422.031l-1.265-.03v.312c.656 0 .843 0 .984.375L3.469 0c.078.188.125.219.25.219.172 0 .187-.047.25-.188l2.219-5.86c.125-.359.406-.655 1.078-.655m0 0"/><path id="q" d="M6.625-2.312c0-.11 0-.172-.14-.172-.11 0-.11.062-.11.156C6.297-.906 5.219-.094 4.141-.094c-.61 0-2.563-.328-2.563-3.297 0-2.984 1.938-3.312 2.547-3.312 1.094 0 1.969.906 2.172 2.36.016.14.016.155.156.155.172 0 .172-.015.172-.234v-2.36c0-.171 0-.234-.11-.234-.046 0-.093 0-.171.125l-.485.735c-.375-.36-.89-.86-1.843-.86-1.86 0-3.453 1.579-3.453 3.61C.563-1.344 2.172.219 4.015.219c1.625 0 2.609-1.39 2.609-2.531m0 0"/><path id="r" d="M7.172-3.375c0-2.031-1.5-3.64-3.313-3.64-1.78 0-3.296 1.593-3.296 3.64S2.093.219 3.859.219c1.813 0 3.313-1.578 3.313-3.594m-1.016-.14c0 2.64-1.375 3.468-2.281 3.468-.953 0-2.297-.875-2.297-3.469 0-2.578 1.453-3.25 2.281-3.25.875 0 2.297.704 2.297 3.25m0 0"/><path id="s" d="M5.578-2.656h-.25C5.25-1.281 5.062-.344 3.218-.344h-1.64l3.86-6.11c.078-.109.078-.109.078-.187 0-.156-.063-.156-.266-.156H.797l-.11 2.234h.25c.063-1.125.36-1.921 2-1.921H4.5L.625-.375c-.062.11-.062.125-.062.203C.563 0 .609 0 .813 0h4.593Zm0 0"/><path id="j" d="M3.656-3.984h.86c.187 0 .297 0 .297-.203 0-.11-.11-.11-.282-.11H3.72l.203-1.125c.047-.219.172-.922.234-1.031.094-.203.266-.344.469-.344.047 0 .297 0 .484.172a.552.552 0 0 0-.53.547c0 .219.171.344.374.344.25 0 .547-.22.547-.594 0-.453-.469-.688-.875-.688-.328 0-.969.172-1.266 1.157-.062.218-.078.312-.328 1.562h-.687c-.188 0-.297 0-.297.203 0 .11.094.11.281.11h.656l-.75 3.937c-.171.969-.343 1.875-.859 1.875-.047 0-.297 0-.484-.187.468-.032.547-.391.547-.532 0-.234-.172-.359-.36-.359-.266 0-.547.219-.547.61 0 .437.438.687.844.687.547 0 .938-.594 1.125-.969.313-.625.547-1.828.563-1.906Zm0 0"/><path id="k" d="M5.61-2.36a2.56 2.56 0 0 0-2.563-2.546A2.56 2.56 0 0 0 .484-2.36c0 1.375 1.141 2.5 2.563 2.5 1.437 0 2.562-1.125 2.562-2.5M3.046-.093c-.813 0-1.813-.656-1.813-2.375 0-1.61 1.032-2.203 1.813-2.203.797 0 1.828.594 1.828 2.203 0 1.719-1 2.375-1.828 2.375m0 0"/><path id="l" d="M1.734-2.906c-.609-.14-.796-.578-.796-.875 0-.453.421-.89 1.062-.89.938 0 1.344.624 1.453 1.359.016.093.016.14.125.14.11 0 .11-.047.11-.187v-1.36c0-.125 0-.187-.094-.187-.047 0-.063.031-.11.11l-.265.39c-.453-.469-1.031-.5-1.219-.5-.89 0-1.516.64-1.516 1.343 0 .391.172.688.422.922.282.266.516.313 1.266.485.64.14.781.172.984.36.156.171.297.39.297.702 0 .485-.406.985-1.062.985C1.703-.11.78-.375.719-1.422c0-.125 0-.156-.11-.156-.125 0-.125.047-.125.187v1.344c0 .125 0 .188.094.188C.641.14.656.125.703.063c.063-.094.203-.313.25-.407.438.39.985.485 1.438.485.906 0 1.515-.688 1.515-1.438 0-.625-.437-1.219-1.14-1.375Zm0 0"/><path id="m" d="M4.266-4.469c.062-.078.062-.11.062-.156 0-.14-.062-.14-.203-.14H.672L.594-3.157h.234c.063-1.031.563-1.36 1.485-1.36H3.53L.547-.296C.484-.22.484-.204.484-.142.484 0 .547 0 .688 0H4.25l.125-1.906h-.234C4.078-.97 3.953-.281 2.578-.281H1.297Zm0 0"/><clipPath id="n"><path d="M74 96h30v28.95H74Zm0 0"/></clipPath><clipPath id="o"><path d="M76 108h26v16.95H76Zm0 0"/></clipPath></defs><path fill="none" stroke="#000" stroke-miterlimit="10" stroke-width=".39888828000000004" d="M1.785 27.754h36.762m0 0h36.762"/><use xlink:href="#a" x="5.305" y="24.234"/><use xlink:href="#b" x="12.774" y="24.234"/><path fill="#FFF" stroke="#000" stroke-miterlimit="10" stroke-width=".39888828000000004" d="M3.371 27.754c0-.879-.71-1.586-1.586-1.586a1.587 1.587 0 1 0 1.586 1.586Zm0 0"/><path d="M71.094 27.754v1.984l4.215-1.984-4.215-1.984Zm0 0"/><path fill="none" stroke="#000" stroke-miterlimit="10" stroke-width=".79677684" d="M75.309 13.867h27.773v27.774H75.309Zm0 0"/><path fill="none" stroke="#000" stroke-miterlimit="10" stroke-width=".39888828000000004" d="M98.914 27.754c0-5.371-4.351-9.723-9.719-9.723a9.72 9.72 0 0 0-9.722 9.723c0 5.367 4.351 9.719 9.722 9.719 5.368 0 9.72-4.352 9.72-9.72ZM82.32 20.879l13.746 13.746m0-13.746L82.32 34.625"/><use xlink:href="#c" x="72.277" y="10.239"/><use xlink:href="#d" x="81.41" y="10.239"/><use xlink:href="#e" x="84.179" y="10.239"/><use xlink:href="#f" x="88.103" y="10.239"/><use xlink:href="#g" x="92.246" y="10.239"/><use xlink:href="#h" x="97.784" y="10.239"/><use xlink:href="#i" x="102.206" y="10.239"/><path fill="none" stroke="#000" stroke-miterlimit="10" stroke-width=".39888828000000004" d="M89.195 41.64v27.57m0 0v27.571"/><path d="M89.195 45.855h1.985l-1.985-4.214-1.984 4.214Zm0 0"/><use xlink:href="#j" x="94.771" y="71.356"/><use xlink:href="#k" x="99.647" y="72.849"/><use xlink:href="#l" x="105.761" y="72.849"/><use xlink:href="#m" x="110.161" y="72.849"/><g clip-path="url(#n)"><path fill="none" stroke="#000" stroke-miterlimit="10" stroke-width=".79677684" d="M75.309 96.781h27.773v27.77H75.309Zm0 0"/></g><path fill="none" stroke="#000" stroke-miterlimit="10" stroke-width=".39888828000000004" d="M82.25 103.723c1.133-1.778 2.215-3.47 3.473-3.47 1.257 0 2.34 1.692 3.472 3.47 1.13 1.777 2.215 3.472 3.47 3.472 1.257 0 2.339-1.695 3.472-3.472M82.25 110.668c1.133-1.777 2.215-3.473 3.473-3.473 1.257 0 2.34 1.696 3.472 3.473 1.13 1.777 2.215 3.469 3.47 3.469 1.257 0 2.339-1.692 3.472-3.469"/><g clip-path="url(#o)"><path fill="none" stroke="#000" stroke-miterlimit="10" stroke-width=".39888828000000004" d="M82.25 117.61c1.133-1.778 2.215-3.473 3.473-3.473 1.257 0 2.34 1.695 3.472 3.472 1.13 1.778 2.215 3.473 3.47 3.473 1.257 0 2.339-1.695 3.472-3.473"/></g><path fill="none" stroke="#000" stroke-miterlimit="10" stroke-width=".39888828000000004" d="m79.473 117.61 16.898-15.688"/><path stroke="#000" stroke-miterlimit="10" stroke-width=".39887232" d="m98.621 99.828-3.375.73 2.399 2.587Zm0 0"/><use xlink:href="#p" x="106.598" y="114.066"/><use xlink:href="#q" x="113.789" y="114.066"/><use xlink:href="#r" x="120.98" y="114.066"/><path fill="none" stroke="#000" stroke-miterlimit="10" stroke-width=".39888828000000004" d="M103.082 27.754h41.254m27.773 0h41.254"/><path fill="none" stroke="#000" stroke-miterlimit="10" stroke-width=".79677684" d="M144.336 13.867h27.773v27.774h-27.773Zm0 0"/><path d="M140.121 27.754v1.984l4.215-1.984-4.215-1.984Zm0 0"/><path fill="none" stroke="#000" stroke-miterlimit="10" stroke-width=".39888828000000004" d="M151.281 20.809c1.13-1.778 2.215-3.47 3.469-3.47 1.258 0 2.34 1.692 3.473 3.47 1.132 1.777 2.215 3.472 3.472 3.472 1.254 0 2.34-1.695 3.47-3.472m-4.86-2.082-4.164 4.168M151.281 27.754c1.13-1.777 2.215-3.473 3.469-3.473 1.258 0 2.34 1.696 3.473 3.473 1.132 1.777 2.215 3.469 3.472 3.469 1.254 0 2.34-1.692 3.47-3.47M151.281 34.695c1.13-1.777 2.215-3.472 3.469-3.472 1.258 0 2.34 1.695 3.473 3.472 1.132 1.778 2.215 3.473 3.472 3.473 1.254 0 2.34-1.695 3.47-3.473m-4.86-2.082-4.164 4.164"/><path d="M209.148 27.754v1.984l4.215-1.984-4.215-1.984Zm0 0"/><use xlink:href="#s" x="197.255" y="24.234"/><use xlink:href="#b" x="203.34" y="24.234"/></svg>