<svg xmlns="http://www.w3.org/2000/svg" xmlns:xlink="http://www.w3.org/1999/xlink" width="228.008" height="126.41"><defs><path id="b" d="M7.11 0v-.312h-.25c-.75 0-.782-.11-.782-.47V-6c0-.36.031-.469.781-.469h.25v-.312c-.359.031-1.093.031-1.468.031s-1.11 0-1.47-.031v.312h.25c.75 0 .782.11.782.469v2.313H2.234V-6c0-.36.016-.469.782-.469h.234v-.312c-.344.031-1.078.031-1.453.031s-1.125 0-1.469-.031v.312h.235c.765 0 .78.11.78.469v5.219c0 .36-.015.469-.78.469H.328V0c.344-.031 1.078-.031 1.453-.031s1.125 0 1.469.031v-.312h-.234c-.766 0-.782-.11-.782-.47v-2.593h2.97v2.594c0 .36-.032.469-.782.469h-.25V0c.36-.031 1.094-.031 1.469-.031s1.109 0 1.468.031m0 0"/><path id="c" d="M6.047-4.516 5.78-6.75H.328v.313h.235c.765 0 .78.109.78.468V-.78c0 .36-.015.469-.78.469H.328V0c.344-.031 1.125-.031 1.5-.031.422 0 1.313 0 1.672.031v-.312h-.328c-.938 0-.938-.125-.938-.47v-2.437h.844c.953 0 1.063.313 1.063 1.156h.25v-2.624h-.25c0 .828-.11 1.156-1.063 1.156h-.844v-2.516c0-.328.016-.39.485-.39h1.187c1.485 0 1.735.546 1.89 1.921Zm0 0"/><path id="d" d="M4.156 0v-.312h-.312c-.89 0-.922-.11-.922-.47v-5.562c0-.25 0-.265-.235-.265-.609.64-1.484.64-1.796.64v.297c.187 0 .78 0 1.297-.25v5.14c0 .36-.032.47-.922.47H.938V0c.359-.031 1.218-.031 1.609-.031.406 0 1.265 0 1.61.031m0 0"/><path id="e" d="M1.906-.531A.524.524 0 1 0 .86-.515a.524.524 0 0 0 1.047-.016m0 0"/><path id="f" d="M5.563-2.656h-.25c-.079 1.39-.266 2.312-2.11 2.312H1.578l3.844-6.078c.078-.11.078-.125.078-.203 0-.156-.062-.156-.266-.156H.797l-.11 2.234h.25c.063-1.125.36-1.922 1.985-1.922h1.562L.625-.359C.563-.266.563-.25.563-.172.563 0 .609 0 .813 0H5.39Zm0 0"/><path id="g" d="M4.453-1.719h-.25c-.047.297-.11.735-.219.875-.062.078-.718.078-.937.078H1.266L2.313-1.78c1.546-1.375 2.14-1.906 2.14-2.907 0-1.125-.89-1.921-2.11-1.921C1.235-6.61.5-5.687.5-4.812c0 .562.484.562.516.562a.516.516 0 0 0 .515-.531c0-.266-.172-.516-.515-.516-.079 0-.11 0-.125.016.218-.657.75-1.016 1.328-1.016.906 0 1.328.797 1.328 1.61 0 .796-.485 1.578-1.031 2.203L.609-.36C.5-.266.5-.234.5 0h3.672Zm0 0"/><path id="h" d="M7.11-6.469v-.312l-1.173.031-1.156-.031v.312c1.016 0 1.016.469 1.016.735V-1.5l-3.5-5.14c-.078-.126-.094-.141-.281-.141H.328v.312H.61c.157 0 .36.016.5.016.235.031.235.047.235.234v5.172c0 .266 0 .734-1.016.734V0l1.156-.031L2.656 0v-.312c-1.031 0-1.031-.47-1.031-.735v-5.156a.376.376 0 0 1 .094.125L5.78-.125c.078.11.094.125.157.125.14 0 .14-.062.14-.266v-5.468c0-.266 0-.735 1.031-.735m0 0"/><path id="i" d="M7.297-2.406v-.297l-1.219.031c-.39 0-1.234 0-1.594-.031v.297h.313c.89 0 .922.11.922.484v.625c0 1.125-1.25 1.203-1.532 1.203-.64 0-2.609-.343-2.609-3.297 0-2.968 1.953-3.296 2.547-3.296 1.063 0 1.969.89 2.172 2.359.016.125.016.156.156.156.156 0 .156-.031.156-.234V-6.75c0-.172 0-.25-.109-.25-.047 0-.078 0-.156.125l-.5.734C5.53-6.453 4.984-7 4.016-7 2.156-7 .563-5.422.563-3.39.563-1.36 2.14.218 4.03.218c.719 0 1.516-.266 1.86-.844.125.219.515.61.625.61.093 0 .093-.079.093-.22v-1.734c0-.375.032-.437.688-.437m0 0"/><path id="j" d="M7.25-6.469v-.312c-.312.031-.719.031-.969.031l-1.125-.031v.312c.516.016.719.266.719.5 0 .078-.031.14-.047.188L4.016-.984 2.109-6c-.062-.14-.062-.187-.062-.187 0-.282.578-.282.828-.282v-.312c-.36.031-1.047.031-1.422.031L.188-6.781v.312c.64 0 .828 0 .968.375L3.47 0c.062.188.11.219.234.219.172 0 .203-.047.25-.188l2.203-5.828c.14-.375.407-.656 1.094-.672m0 0"/><path id="k" d="M7.156-3.36c0-2.03-1.5-3.64-3.312-3.64C2.078-7 .563-5.406.563-3.36.563-1.327 2.077.22 3.843.22c1.813 0 3.313-1.578 3.313-3.578M6.125-3.5c0 2.625-1.36 3.453-2.266 3.453-.953 0-2.28-.86-2.28-3.453 0-2.578 1.452-3.25 2.265-3.25.875 0 2.281.703 2.281 3.25m0 0"/><path id="l" d="M2.922-1.64v.859c0 .36-.031.469-.766.469h-.203V0c.406-.031.922-.031 1.344-.031.406 0 .937 0 1.344.031v-.312h-.203c-.735 0-.75-.11-.75-.47v-.859h.984v-.296h-.984v-4.516c0-.203 0-.266-.172-.266-.079 0-.11 0-.188.125L.281-1.937v.296Zm.047-.298H.563L2.969-5.64Zm0 0"/><path id="m" d="M2.922-6.344c0-.25 0-.265-.235-.265-.609.64-1.484.64-1.796.64v.297c.187 0 .78 0 1.297-.25v5.14c0 .36-.032.47-.922.47H.938V0c.359-.031 1.218-.031 1.609-.031.406 0 1.265 0 1.61.031v-.312h-.313c-.89 0-.922-.11-.922-.47Zm0 0"/><path id="n" d="M2.39-6.562c-.093-.22-.124-.22-.343-.22H.359v.313h.25c.766 0 .782.11.782.469v4.953c0 .266 0 .734-1.032.734V0c.36-.016.844-.031 1.172-.031.328 0 .813.015 1.157.031v-.312c-1.016 0-1.016-.47-1.016-.735V-6.39l2.39 6.172c.063.125.11.219.204.219.109 0 .14-.078.172-.187L6.89-6.47V-.78c0 .36-.016.469-.782.469h-.234V0c.36-.031 1.047-.031 1.422-.031.39 0 1.062 0 1.422.031v-.312h-.235c-.765 0-.78-.11-.78-.47V-6c0-.36.015-.469.78-.469h.235v-.312H7.047c-.266 0-.266.015-.328.187L4.547-1Zm0 0"/><path id="o" d="M6.078-6c0-.36.031-.469.781-.469h.25v-.312c-.359.031-1.093.031-1.468.031s-1.11 0-1.47-.031v.312h.25c.75 0 .782.11.782.469v2.313H2.234V-6c0-.36.016-.469.782-.469h.234v-.312c-.344.031-1.078.031-1.453.031s-1.125 0-1.469-.031v.312h.235c.765 0 .78.11.78.469v5.219c0 .36-.015.469-.78.469H.328V0c.344-.031 1.078-.031 1.453-.031s1.125 0 1.469.031v-.312h-.234c-.766 0-.782-.11-.782-.47v-2.593h2.97v2.594c0 .36-.032.469-.782.469h-.25V0c.36-.031 1.094-.031 1.469-.031s1.109 0 1.468.031v-.312h-.25c-.75 0-.78-.11-.78-.47Zm0 0"/><path id="p" d="M3.875-3.984c.078-.11.078-.125.078-.157 0-.14-.078-.14-.25-.14H.531l-.11 1.61h.25C.72-3.689.907-4.064 2-4.064h1.14L.36-.312C.28-.202.28-.186.28-.14.281 0 .344 0 .531 0h3.282l.171-1.86h-.25C3.641-.686 3.438-.25 2.281-.25H1.11Zm0 0"/><path id="q" d="M3.64-3.156v.312c0 2.328-1.03 2.782-1.609 2.782-.172 0-.703-.016-.969-.36.438 0 .516-.281.516-.453 0-.312-.234-.453-.453-.453-.156 0-.453.094-.453.469 0 .672.531 1.078 1.375 1.078 1.281 0 2.484-1.344 2.484-3.485 0-2.671-1.14-3.343-2.015-3.343-.547 0-1.032.187-1.47.625-.405.453-.624.859-.624 1.609 0 1.234.875 2.219 1.984 2.219.594 0 1-.422 1.235-1m-1.234.765c-.156 0-.61 0-.922-.625-.171-.375-.171-.859-.171-1.343 0-.547 0-1.016.203-1.375.265-.5.64-.625 1-.625.453 0 .78.343.953.78.11.313.156.938.156 1.407 0 .813-.344 1.781-1.219 1.781m0 0"/><path id="s" d="M4.453-2c0-1.172-.812-2.172-1.89-2.172a1.7 1.7 0 0 0-1.25.516v-1.938c.203.063.515.125.843.125 1.219 0 1.906-.906 1.906-1.031 0-.062-.03-.11-.093-.11-.016 0-.031 0-.078.032a3.26 3.26 0 0 1-1.344.281c-.406 0-.86-.062-1.328-.266-.078-.03-.094-.03-.125-.03C1-6.594 1-6.517 1-6.36v2.937c0 .172 0 .25.14.25.063 0 .094-.015.126-.078.109-.156.484-.703 1.28-.703.517 0 .767.453.845.64.156.36.187.75.187 1.25 0 .344 0 .938-.25 1.36-.234.39-.594.64-1.062.64-.72 0-1.282-.515-1.453-1.109.03.016.062.016.171.016.329 0 .5-.25.5-.485a.48.48 0 0 0-.5-.484c-.14 0-.484.078-.484.531C.5-.75 1.188.22 2.297.22 3.437.219 4.453-.734 4.453-2m0 0"/><path id="r" d="M2.016-.016c0-.656-.25-1.03-.641-1.03a.5.5 0 0 0-.516.515c0 .265.188.531.516.531.125 0 .25-.047.344-.125.031-.031.047-.031.062-.031 0 0 .016 0 .016.14 0 .735-.344 1.329-.672 1.657-.11.109-.11.14-.11.172 0 .062.048.109.094.109.11 0 .907-.766.907-1.938m0 0"/><path id="t" d="M-3.5-2.875c-.266-.812-.953-1.39-1.734-1.39-.813 0-1.375.874-1.375 1.827 0 1 .593 1.75 1.343 1.75.329 0 .516-.218.516-.5 0-.312-.203-.515-.5-.515-.5 0-.5.469-.5.625-.484-.313-.61-.969-.61-1.328 0-.406.22-.953 1.11-.953.125 0 .703.03 1.125.28.484.298.516.642.516.892.015.078.03.312.03.374.017.094.032.157.126.157.11 0 .11-.063.11-.235v-.437c0-.813.671-1.188 1.64-1.188 1.36 0 1.64.688 1.64 1.125 0 .422-.171 1.172-.75 1.516.047-.344-.171-.656-.546-.656-.36 0-.563.265-.563.562 0 .235.14.547.578.547.907 0 1.563-.922 1.563-2 0-1.203-.906-2.11-1.922-2.11-.813 0-1.578.626-1.797 1.657m0 0"/><path id="v" d="M-3.172-4.562c-.797 0-1.594.046-2.328.39-.953.469-1.11 1.281-1.11 1.688 0 .593.266 1.328 1.188 1.734.672.313 1.453.36 2.25.36.735 0 1.64-.032 2.39-.438.798-.438 1-1.156 1-1.64C.219-3 .017-3.767-.936-4.204c-.688-.313-1.454-.36-2.235-.36M0-2.47c0 .39-.25.969-1.203 1.156-.594.11-1.5.11-2.094.11-.625 0-1.281 0-1.828-.094-1.172-.187-1.266-.922-1.266-1.172 0-.328.172-.984 1.157-1.172.562-.093 1.312-.093 1.937-.093.75 0 1.422 0 2.063.109C-.297-3.485 0-2.922 0-2.469m0 0"/><path id="w" d="M-6.562-2.39c-.22.093-.22.124-.22.343v1.688h.313v-.25c0-.766.11-.782.469-.782h4.953c.266 0 .734 0 .734 1.032H0a30.97 30.97 0 0 1-.031-1.172c0-.328.015-.813.031-1.156h-.312c0 1.015-.47 1.015-.735 1.015H-6.39l6.172-2.39c.125-.063.219-.11.219-.204 0-.109-.078-.14-.187-.171L-6.47-6.892H-.78c.36 0 .469.016.469.782v.234H0c-.031-.36-.031-1.047-.031-1.422 0-.39 0-1.062.031-1.422h-.312v.235c0 .765-.11.78-.47.78H-6c-.36 0-.469-.015-.469-.78v-.235h-.312v1.672c0 .266.015.266.187.328L-1-4.547Zm0 0"/><path id="x" d="M-6-6.078c-.36 0-.469-.031-.469-.781v-.25h-.312c.031.359.031 1.093.031 1.468s0 1.11-.031 1.47h.312v-.25c0-.75.11-.782.469-.782h2.313v2.969H-6c-.36 0-.469-.016-.469-.782v-.234h-.312c.031.344.031 1.078.031 1.453s0 1.125-.031 1.469h.312v-.234c0-.766.11-.782.469-.782h5.219c.36 0 .469.016.469.782v.234H0c-.031-.344-.031-1.078-.031-1.453s0-1.125.031-1.469h-.312v.234c0 .766-.11.782-.47.782h-2.593v-2.97h2.594c.36 0 .469.032.469.782v.25H0c-.031-.36-.031-1.094-.031-1.469s0-1.109.031-1.468h-.312v.25c0 .75-.11.78-.47.78Zm0 0"/><path id="y" d="M-3.984-3.875c-.11-.078-.125-.078-.157-.078-.14 0-.14.078-.14.25v3.172l1.61.11v-.25C-3.689-.72-4.064-.907-4.064-2v-1.14l3.75 2.78c.11.079.126.079.172.079C0-.281 0-.344 0-.531v-3.281l-1.86-.172v.25c1.173.093 1.61.297 1.61 1.453v1.172Zm0 0"/><path id="z" d="M-2-4.453c-1.172 0-2.172.812-2.172 1.89 0 .47.156.891.516 1.25h-1.938a3.01 3.01 0 0 0 .125-.843c0-1.219-.906-1.906-1.031-1.906-.062 0-.11.03-.11.093 0 .016 0 .031.032.078.094.204.281.688.281 1.344 0 .406-.062.86-.266 1.328-.03.078-.03.094-.03.125 0 .094.077.094.234.094h2.937c.172 0 .25 0 .25-.14 0-.063-.015-.094-.078-.126-.156-.109-.703-.484-.703-1.28 0-.517.453-.767.64-.845.36-.156.75-.187 1.25-.187.344 0 .938 0 1.36.25.39.234.64.594.64 1.062 0 .72-.515 1.282-1.109 1.454.016-.032.016-.063.016-.172a.48.48 0 0 0-.485-.5.48.48 0 0 0-.484.5c0 .14.078.484.531.484C-.75-.5.22-1.187.22-2.297c0-1.14-.953-2.156-2.219-2.156m0 0"/><path id="A" d="M-3.156-3.64h.312c2.328 0 2.782 1.03 2.782 1.609 0 .172-.016.703-.36.969 0-.438-.281-.516-.453-.516-.312 0-.453.234-.453.453 0 .156.094.453.469.453.672 0 1.078-.531 1.078-1.375 0-1.281-1.344-2.484-3.485-2.484-2.671 0-3.343 1.14-3.343 2.015 0 .547.187 1.032.625 1.47.453.405.859.624 1.609.624 1.234 0 2.219-.875 2.219-1.984 0-.594-.422-1-1-1.235m.765 1.234c0 .156 0 .61-.625.922-.375.172-.859.172-1.343.172-.547 0-1.016 0-1.375-.204-.5-.265-.625-.64-.625-1 0-.453.343-.78.78-.953.313-.11.938-.156 1.407-.156.813 0 1.781.344 1.781 1.219m0 0"/><path id="B" d="M-1.64-2.922h.859c.36 0 .469.031.469.766v.203H0c-.031-.406-.031-.922-.031-1.344 0-.406 0-.937.031-1.344h-.312v.204c0 .734-.11.75-.47.75h-.859v-.985h-.296v.984h-4.516c-.203 0-.266 0-.266.172 0 .079 0 .11.125.188l4.657 3.047h.296Zm-.298-.047v2.407L-5.64-2.97Zm0 0"/><path id="C" d="M-.75-1.047c.438 0 .438.11.438.766H0A27.166 27.166 0 0 1-.031-1.36c0-.297.015-.688.031-1.094h-.312c0 .672 0 .781-.438.781h-1.031l-.547-.64C-1.266-3.078-.718-3.5-.531-3.5c.187 0 .219.172.219.36H0C-.016-3.407-.031-4-.031-4.204c0-.297.015-.578.031-.86h-.312c0 .36 0 .579-.516.954L-2.61-2.844c-.016 0-.079.063-.11.063-.047 0-.64-.719-.719-.813-.5-.625-.515-1.047-.53-1.25h-.313c.031.297.031.422.031.703 0 .344-.016.97-.031 1.11h.312c.016-.188.125-.297.25-.297.203 0 .313.14.39.219l1.204 1.406h-4.766l.11 1.422h.312c0-.688.063-.766.563-.766Zm0 0"/><path id="u" d="M-2.297-.828v-4.313a.24.24 0 0 0-.234-.234.24.24 0 0 0-.235.234v4.313c0 .125.11.234.235.234a.24.24 0 0 0 .234-.234m0 0"/><clipPath id="a"><path d="M.035 8H26v38H.035Zm0 0"/></clipPath></defs><path fill="none" stroke="#000" stroke-miterlimit="10" stroke-width=".39714465" d="M7.54 61.555h10.065m19.348 0H47.02M7.34 61.555V20.102"/><g clip-path="url(#a)"><path fill="none" stroke="#000" stroke-miterlimit="10" stroke-width=".79329395" d="M7.34 20.102h6.91L7.34 33.918.434 20.102H7.34"/></g><path fill="none" stroke="#000" stroke-miterlimit="10" stroke-width=".79329395" d="M17.605 51.883h19.348v19.344H17.605Zm0 0"/><path d="M13.41 61.555v1.976l4.195-1.976-4.195-1.977Zm0 0"/><path fill="none" stroke="#000" stroke-miterlimit="10" stroke-width=".39714465" d="M22.441 56.719c.79-1.239 1.543-2.418 2.418-2.418.88 0 1.633 1.18 2.418 2.418.79 1.238 1.543 2.418 2.418 2.418.88 0 1.633-1.18 2.422-2.418m-3.387-1.45-2.902 2.899M22.441 61.555c.79-1.239 1.543-2.418 2.418-2.418.88 0 1.633 1.18 2.418 2.418.79 1.238 1.543 2.418 2.418 2.418.88 0 1.633-1.18 2.422-2.418M22.441 66.39c.79-1.238 1.543-2.417 2.418-2.417.88 0 1.633 1.18 2.418 2.418.79 1.238 1.543 2.418 2.418 2.418.88 0 1.633-1.18 2.422-2.418m-3.387-1.45-2.902 2.899"/><use xlink:href="#b" x="20.322" y="82.127"/><use xlink:href="#c" x="27.76" y="82.127"/><path d="M42.82 61.555v1.976l4.2-1.976-4.2-1.977Zm0 0"/><path fill="none" stroke="#000" stroke-miterlimit="10" stroke-width=".79329395" d="M47.02 51.883h19.343v19.344H47.02Zm0 0"/><path fill="none" stroke="#000" stroke-miterlimit="10" stroke-width=".39714465" d="M63.46 61.555a6.77 6.77 0 1 0-13.54 0 6.77 6.77 0 0 0 13.54 0ZM51.902 56.766l9.575 9.578m0-9.578-9.575 9.578M66.363 61.555H76.43m19.343 0h10.067"/><path fill="none" stroke="#000" stroke-miterlimit="10" stroke-width=".79329395" d="M76.43 51.883h19.343v19.344H76.43Zm0 0"/><path d="M72.234 61.555v1.976l4.196-1.976-4.196-1.977Zm0 0"/><path fill="none" stroke="#000" stroke-miterlimit="10" stroke-width=".39714465" d="M81.266 56.719c.789-1.239 1.543-2.418 2.418-2.418.875 0 1.628 1.18 2.418 2.418.789 1.238 1.543 2.418 2.418 2.418.875 0 1.628-1.18 2.417-2.418m-3.382-1.45-2.903 2.899M81.266 61.555c.789-1.239 1.543-2.418 2.418-2.418.875 0 1.628 1.18 2.418 2.418.789 1.238 1.543 2.418 2.418 2.418.875 0 1.628-1.18 2.417-2.418M81.266 66.39c.789-1.238 1.543-2.417 2.418-2.417.875 0 1.628 1.18 2.418 2.418.789 1.238 1.543 2.418 2.418 2.418.875 0 1.628-1.18 2.417-2.418m-3.382-1.45-2.903 2.899"/><use xlink:href="#d" x="75.976" y="82.127"/><use xlink:href="#e" x="80.935" y="82.127"/><use xlink:href="#f" x="83.691" y="82.127"/><use xlink:href="#c" x="89.75" y="82.127"/><path d="M101.645 61.555v1.976l4.195-1.976-4.195-1.977Zm0 0"/><path fill="none" stroke="#000" stroke-miterlimit="10" stroke-width=".79329395" d="M105.84 51.883h19.347v19.344H105.84Zm0 0"/><path fill="none" stroke="#000" stroke-miterlimit="10" stroke-width=".39714465" d="M122.285 61.555a6.77 6.77 0 0 0-6.773-6.77 6.77 6.77 0 0 0 0 13.54 6.77 6.77 0 0 0 6.773-6.77ZM110.727 56.766l9.574 9.578m0-9.578-9.574 9.578M125.187 61.555h10.067m19.344 0h10.066"/><path fill="none" stroke="#000" stroke-miterlimit="10" stroke-width=".79329395" d="M135.254 51.883h19.344v19.344h-19.344Zm0 0"/><path d="M131.055 61.555v1.976l4.199-1.976-4.2-1.977Zm0 0"/><path fill="none" stroke="#000" stroke-miterlimit="10" stroke-width=".39714465" d="M140.09 56.719c.789-1.239 1.543-2.418 2.418-2.418.875 0 1.629 1.18 2.418 2.418.789 1.238 1.543 2.418 2.418 2.418.875 0 1.629-1.18 2.418-2.418m-3.387-1.45-2.902 2.899M140.09 61.555c.789-1.239 1.543-2.418 2.418-2.418.875 0 1.629 1.18 2.418 2.418.789 1.238 1.543 2.418 2.418 2.418.875 0 1.629-1.18 2.418-2.418M140.09 66.39c.789-1.238 1.543-2.417 2.418-2.417.875 0 1.629 1.18 2.418 2.418.789 1.238 1.543 2.418 2.418 2.418.875 0 1.629-1.18 2.418-2.418m-3.387-1.45-2.902 2.899"/><use xlink:href="#g" x="134.798" y="82.127"/><use xlink:href="#e" x="139.756" y="82.127"/><use xlink:href="#f" x="142.513" y="82.127"/><use xlink:href="#c" x="148.572" y="82.127"/><path d="M160.469 61.555v1.976l4.195-1.976-4.195-1.977Zm0 0"/><path fill="none" stroke="#000" stroke-miterlimit="10" stroke-width=".79329395" d="M164.664 51.883h19.344v19.344h-19.344Zm0 0"/><path fill="none" stroke="#000" stroke-miterlimit="10" stroke-width=".39714465" d="M181.105 61.555a6.77 6.77 0 1 0-13.54 0 6.77 6.77 0 0 0 13.54 0ZM169.55 56.766l9.575 9.578m0-9.578-9.574 9.578M184.008 61.555h10.066m19.348 0h10.066"/><path fill="none" stroke="#000" stroke-miterlimit="10" stroke-width=".79329395" d="M194.074 51.883h19.348v19.344h-19.348Zm0 0"/><path d="M189.879 61.555v1.976l4.195-1.976-4.195-1.977Zm0 0"/><path fill="none" stroke="#000" stroke-miterlimit="10" stroke-width=".39714465" d="M198.91 56.719c.79-1.239 1.543-2.418 2.418-2.418.879 0 1.633 1.18 2.422 2.418.785 1.238 1.539 2.418 2.418 2.418.875 0 1.629-1.18 2.418-2.418m-3.387-1.45-2.902 2.899M198.91 61.555c.79-1.239 1.543-2.418 2.418-2.418.879 0 1.633 1.18 2.422 2.418.785 1.238 1.539 2.418 2.418 2.418.875 0 1.629-1.18 2.418-2.418M198.91 66.39c.79-1.238 1.543-2.417 2.418-2.417.879 0 1.633 1.18 2.422 2.418.785 1.238 1.539 2.418 2.418 2.418.875 0 1.629-1.18 2.418-2.418m-3.387-1.45-2.902 2.899"/><use xlink:href="#h" x="196.789" y="82.127"/><use xlink:href="#c" x="204.226" y="82.127"/><path d="M219.29 61.555v1.976l4.198-1.976-4.199-1.977Zm0 0"/><path fill="none" stroke="#000" stroke-miterlimit="10" stroke-width=".39714465" d="M56.691 71.227v9.87m0 0v9.868"/><path d="M56.691 75.422h1.973l-1.973-4.195-1.976 4.195Zm0 0"/><path fill="none" stroke="#000" stroke-miterlimit="10" stroke-width=".79329395" d="M47.02 90.965h19.343v19.344H47.02Zm0 0"/><path fill="none" stroke="#000" stroke-miterlimit="10" stroke-width=".39714465" d="M51.855 95.8c.79-1.238 1.543-2.417 2.418-2.417.875 0 1.63 1.18 2.418 2.418.79 1.238 1.543 2.418 2.418 2.418.875 0 1.63-1.18 2.418-2.418M51.855 100.637c.79-1.239 1.543-2.418 2.418-2.418.875 0 1.63 1.18 2.418 2.418.79 1.238 1.543 2.418 2.418 2.418.875 0 1.63-1.18 2.418-2.418M51.855 105.473c.79-1.235 1.543-2.418 2.418-2.418.875 0 1.63 1.183 2.418 2.418.79 1.238 1.543 2.418 2.418 2.418.875 0 1.63-1.18 2.418-2.418M49.922 105.473l11.008-10.22"/><path stroke="#000" stroke-miterlimit="10" stroke-width=".39713268" d="m63.172 93.172-3.363.726L61 95.184l1.195 1.289Zm0 0"/><path fill="none" stroke="#000" stroke-miterlimit="10" stroke-width=".39714465" d="M115.512 71.227v9.87m0 0v9.868"/><path d="M115.512 75.422h1.976l-1.976-4.195-1.973 4.195Zm0 0"/><path fill="none" stroke="#000" stroke-miterlimit="10" stroke-width=".79329395" d="M105.84 90.965h19.347v19.344H105.84Zm0 0"/><path fill="none" stroke="#000" stroke-miterlimit="10" stroke-width=".39714465" d="M116.723 96.285c.394-.617.77-1.207 1.21-1.207.438 0 .813.59 1.208 1.207.394.621.77 1.211 1.21 1.211.438 0 .813-.59 1.208-1.21M116.723 98.703c.394-.617.77-1.207 1.21-1.207.438 0 .813.59 1.208 1.207.394.621.77 1.211 1.21 1.211.438 0 .813-.59 1.208-1.21M116.723 101.121c.394-.617.77-1.207 1.21-1.207.438 0 .813.59 1.208 1.207.394.621.77 1.211 1.21 1.211.438 0 .813-.59 1.208-1.21"/><use xlink:href="#i" x="107.267" y="101.607"/><path fill="none" stroke="#000" stroke-miterlimit="10" stroke-width=".39714465" d="M108.742 104.023h13.543M108.742 107.41h13.543v-1.937h-13.543ZM108.742 108.86h13.543M174.336 71.227v9.87m0 0v9.868"/><path d="M174.336 75.422h1.976l-1.976-4.195-1.973 4.195Zm0 0"/><path fill="none" stroke="#000" stroke-miterlimit="10" stroke-width=".79329395" d="M164.664 90.965h19.344v19.344h-19.344Zm0 0"/><path fill="none" stroke="#000" stroke-miterlimit="10" stroke-width=".39714465" d="M175.547 96.285c.394-.617.77-1.207 1.207-1.207.437 0 .816.59 1.21 1.207.395.621.77 1.211 1.208 1.211.437 0 .816-.59 1.21-1.21M175.547 98.703c.394-.617.77-1.207 1.207-1.207.437 0 .816.59 1.21 1.207.395.621.77 1.211 1.208 1.211.437 0 .816-.59 1.21-1.21M175.547 101.121c.394-.617.77-1.207 1.207-1.207.437 0 .816.59 1.21 1.207.395.621.77 1.211 1.208 1.211.437 0 .816-.59 1.21-1.21"/><use xlink:href="#i" x="166.09" y="101.607"/><path fill="none" stroke="#000" stroke-miterlimit="10" stroke-width=".39714465" d="M167.566 104.023h13.54M167.566 107.41h13.54v-1.937h-13.54ZM167.566 108.86h13.54"/><use xlink:href="#j" x="69.865" y="104.024"/><use xlink:href="#c" x="77.302" y="104.024"/><use xlink:href="#k" x="83.5" y="104.024"/><use xlink:href="#l" x="99.26" y="120.589"/><use xlink:href="#m" x="104.218" y="120.589"/><use xlink:href="#n" x="110.822" y="120.589"/><use xlink:href="#o" x="119.913" y="120.589"/><use xlink:href="#p" x="127.35" y="120.589"/><use xlink:href="#q" x="151.747" y="120.589"/><use xlink:href="#r" x="156.705" y="120.589"/><use xlink:href="#l" x="159.46" y="120.589"/><use xlink:href="#s" x="164.418" y="120.589"/><use xlink:href="#s" x="169.376" y="120.589"/><use xlink:href="#n" x="175.98" y="120.589"/><use xlink:href="#o" x="185.071" y="120.589"/><use xlink:href="#p" x="192.508" y="120.589"/><use xlink:href="#t" x="30.667" y="48.379"/><use xlink:href="#u" x="30.667" y="41.768"/><use xlink:href="#t" x="30.667" y="35.81"/><use xlink:href="#v" x="30.667" y="30.852"/><use xlink:href="#w" x="30.667" y="24.247"/><use xlink:href="#x" x="30.667" y="15.157"/><use xlink:href="#y" x="30.667" y="7.72"/><use xlink:href="#z" x="89.488" y="48.379"/><use xlink:href="#v" x="89.488" y="43.421"/><use xlink:href="#w" x="89.488" y="36.817"/><use xlink:href="#x" x="89.488" y="27.726"/><use xlink:href="#y" x="89.488" y="20.289"/><use xlink:href="#A" x="148.311" y="48.379"/><use xlink:href="#w" x="148.311" y="41.775"/><use xlink:href="#x" x="148.311" y="32.685"/><use xlink:href="#y" x="148.311" y="25.247"/><use xlink:href="#B" x="207.188" y="48.379"/><use xlink:href="#z" x="207.188" y="43.421"/><use xlink:href="#z" x="207.188" y="38.463"/><use xlink:href="#C" x="207.188" y="31.859"/><use xlink:href="#x" x="207.188" y="26.625"/><use xlink:href="#y" x="207.188" y="19.187"/></svg>