<svg xmlns="http://www.w3.org/2000/svg" xmlns:xlink="http://www.w3.org/1999/xlink" width="225.37" height="134.462"><defs><path id="b" d="M7.266-.875c0-.062 0-.172-.125-.172-.11 0-.11.094-.125.156-.063.72-.407.891-.657.891-.484 0-.562-.5-.703-1.422l-.125-.797c-.187-.64-.672-.969-1.218-1.156.968-.234 1.734-.844 1.734-1.61 0-.952-1.125-1.796-2.578-1.796H.344v.312h.234c.766 0 .797.11.797.469v5.219c0 .36-.031.469-.797.469H.344V0c.36-.031 1.062-.031 1.453-.031.39 0 1.094 0 1.453.031v-.312H3c-.75 0-.781-.11-.781-.47v-2.5h1.14c.157 0 .579 0 .922.329.375.36.375.672.375 1.328s0 1.047.407 1.422c.421.36.953.422 1.25.422.78 0 .953-.813.953-1.094M5.03-4.985c0 .673-.234 1.485-1.703 1.485h-1.11v-2.578c0-.219 0-.344.22-.375.109-.016.39-.016.593-.016.89 0 2 .047 2 1.485m0 0"/><path id="c" d="M7.203 0v-.312h-.187c-.516 0-.72-.047-.938-.36L3.984-3.828l1.36-2c.218-.313.562-.625 1.437-.64v-.313l-1.093.031c-.407 0-.875 0-1.266-.031v.312c.39.016.61.235.61.453 0 .11-.016.125-.095.235L3.813-4.11l-1.28-1.907c-.016-.03-.079-.109-.079-.156 0-.125.219-.281.656-.297v-.312c-.343.031-1.078.031-1.453.031L.36-6.781v.312h.204c.53 0 .734.063.921.344l1.813 2.766L1.672-.97c-.14.203-.438.657-1.438.657V0l1.11-.031c.36 0 .906 0 1.265.031v-.312c-.453 0-.625-.266-.625-.454 0-.093.032-.125.094-.234L3.5-3.078l1.563 2.36c.015.046.046.077.046.109 0 .125-.218.297-.64.297V0c.343-.031 1.062-.031 1.437-.031Zm0 0"/><path id="d" d="M6.469-2.562h-.25c-.25 1.53-.469 2.25-2.188 2.25H2.72c-.469 0-.485-.063-.485-.391V-3.36h.891c.969 0 1.078.328 1.078 1.172h.234v-2.641h-.234c0 .86-.11 1.172-1.078 1.172h-.89v-2.39c0-.329.015-.391.484-.391H4c1.516 0 1.781.546 1.938 1.921h.25L5.906-6.75H.328v.313h.235c.765 0 .78.109.78.468V-.78c0 .36-.015.469-.78.469H.328V0h5.719Zm0 0"/><path id="e" d="M2.531 0v-.312c-.672 0-.781 0-.781-.438v-6.14l-1.422.109v.312c.688 0 .766.063.766.563V-.75c0 .438-.11.438-.766.438V0l1.094-.031Zm0 0"/><path id="f" d="M4.125-1.187c0-.094-.094-.11-.14-.11-.079 0-.11.063-.126.14C3.516-.14 2.625-.14 2.516-.14c-.485 0-.891-.296-1.11-.656-.312-.484-.312-1.14-.312-1.5h2.781c.219 0 .25 0 .25-.203 0-.984-.547-1.937-1.781-1.937C1.188-4.437.28-3.423.28-2.187.281-.86 1.312.108 2.453.108c1.219 0 1.672-1.093 1.672-1.296M3.469-2.5h-2.36C1.172-3.984 2-4.234 2.344-4.234c1.015 0 1.125 1.343 1.125 1.734m0 0"/><path id="g" d="M5.063 0v-.312c-.36 0-.579 0-.954-.516L2.844-2.61c0-.016-.063-.079-.063-.11 0-.047.719-.64.813-.719.625-.5 1.047-.515 1.25-.53v-.313c-.297.031-.422.031-.703.031-.344 0-.97-.016-1.11-.031v.312c.188.016.297.125.297.25 0 .203-.14.313-.219.39L1.703-2.124v-4.766l-1.422.11v.312c.688 0 .766.063.766.563V-.75c0 .438-.11.438-.766.438V0L1.36-.031 2.453 0v-.312c-.672 0-.781 0-.781-.438v-1.031l.64-.547C3.079-1.266 3.5-.718 3.5-.531c0 .187-.172.219-.36.219V0l1.063-.031c.297 0 .578.015.86.031m0 0"/><path id="h" d="M3.297-1.234v-.563h-.25v.547c0 .734-.297 1.11-.672 1.11-.656 0-.656-.907-.656-1.063V-3.97H3.14v-.312H1.719V-6.11h-.25c-.016.828-.313 1.875-1.281 1.922v.218h.843v2.735c0 1.218.922 1.343 1.282 1.343.703 0 .984-.703.984-1.343m0 0"/><path id="i" d="M3.61-3.781c0-.313-.313-.61-.735-.61-.719 0-1.078.672-1.219 1.094V-4.39l-1.375.11v.312c.688 0 .766.063.766.563V-.75c0 .438-.11.438-.766.438V0l1.125-.031c.407 0 .86 0 1.266.031v-.312h-.219c-.734 0-.75-.11-.75-.47v-1.515c0-.984.422-1.875 1.172-1.875.078 0 .094 0 .11.016a.43.43 0 0 0-.22.39.41.41 0 0 0 .422.422.421.421 0 0 0 .422-.437m0 0"/><path id="j" d="M2.453 0v-.312c-.656 0-.703-.047-.703-.438v-3.64l-1.39.109v.312c.656 0 .734.063.734.547V-.75c0 .438-.11.438-.766.438V0l1.094-.031c.344 0 .687.015 1.031.031m-.547-6a.534.534 0 0 0-.531-.516A.533.533 0 0 0 .844-6c0 .281.234.531.531.531A.536.536 0 0 0 1.906-6m0 0"/><path id="k" d="M3.578-1.266c0-.53-.297-.828-.422-.953-.328-.312-.719-.39-1.125-.469C1.47-2.796.797-2.921.797-3.5c0-.344.265-.75 1.125-.75 1.078 0 1.14.89 1.156 1.188 0 .093.11.093.11.093.14 0 .14-.047.14-.234v-1c0-.172 0-.234-.11-.234-.046 0-.077 0-.202.109a.819.819 0 0 1-.172.156c-.375-.266-.781-.266-.922-.266-1.219 0-1.594.657-1.594 1.22 0 .343.156.624.422.843.328.25.594.313 1.313.453.218.031 1.03.203 1.03.906 0 .516-.343.907-1.124.907C1.14-.11.78-.672.594-1.516c-.031-.125-.031-.171-.14-.171-.126 0-.126.062-.126.25v1.312c0 .172 0 .234.11.234C.484.11.5.094.688-.094.703-.109.703-.125.89-.312a1.48 1.48 0 0 0 1.078.421c1.14 0 1.61-.671 1.61-1.375m0 0"/><path id="l" d="M4.125-1.187c0-.094-.11-.094-.14-.094-.079 0-.11.047-.126.093C3.58-.265 2.922-.14 2.563-.14c-.532 0-1.407-.421-1.407-2.015 0-1.625.813-2.047 1.344-2.047.094 0 .719.016 1.063.375-.407.031-.47.328-.47.453 0 .266.188.453.454.453.265 0 .469-.156.469-.469 0-.671-.766-1.046-1.532-1.046-1.234 0-2.14 1.062-2.14 2.296 0 1.266.969 2.25 2.125 2.25 1.328 0 1.656-1.187 1.656-1.296m0 0"/><path id="m" d="M5.313 0v-.312c-.516 0-.766 0-.782-.297V-2.5c0-.86 0-1.156-.297-1.516-.14-.171-.468-.375-1.046-.375-.844 0-1.266.594-1.438.954v-3.454l-1.437.11v.312c.703 0 .78.063.78.563V-.75c0 .438-.109.438-.78.438V0l1.125-.031L2.547 0v-.312c-.656 0-.766 0-.766-.438v-1.828c0-1.031.703-1.594 1.328-1.594.625 0 .735.547.735 1.11V-.75c0 .438-.11.438-.766.438V0l1.125-.031Zm0 0"/><path id="n" d="M5.781-2.562h-.25c-.11 1.015-.25 2.25-2 2.25H2.72c-.469 0-.485-.063-.485-.391V-6c0-.328 0-.469.938-.469H3.5v-.312c-.36.031-1.25.031-1.672.031-.375 0-1.156 0-1.5-.031v.312h.235c.765 0 .78.11.78.469v5.219c0 .36-.015.469-.78.469H.328V0H5.5Zm0 0"/><path id="o" d="M4.797-.89v-.547h-.25v.546c0 .579-.25.641-.36.641-.328 0-.375-.437-.375-.5v-1.984c0-.407 0-.797-.343-1.172a1.949 1.949 0 0 0-1.36-.531c-.812 0-1.5.453-1.5 1.109 0 .297.188.469.454.469a.435.435 0 0 0 .453-.453c0-.126-.047-.454-.5-.454.265-.359.75-.468 1.062-.468.485 0 1.063.39 1.063 1.28v.36c-.516.031-1.203.063-1.828.36-.75.343-1 .859-1 1.297 0 .796.968 1.046 1.593 1.046.657 0 1.11-.39 1.297-.859.047.39.313.813.781.813.204 0 .813-.141.813-.954m-1.656-.5c0 .937-.72 1.28-1.172 1.28-.485 0-.89-.343-.89-.843 0-.547.421-1.375 2.062-1.422ZM2.078-6a.48.48 0 0 0-.469-.469.473.473 0 0 0-.484.469c0 .25.203.469.469.469.312 0 .484-.25.484-.469m1.766 0a.48.48 0 0 0-.469-.469.473.473 0 0 0-.484.469c0 .25.203.469.468.469.313 0 .485-.25.485-.469m0 0"/><path id="p" d="M5.313 0v-.312c-.516 0-.766 0-.782-.297V-2.5c0-.86 0-1.156-.297-1.516-.14-.171-.468-.375-1.046-.375-.735 0-1.188.438-1.47 1.047V-4.39l-1.405.11v.312c.703 0 .78.063.78.563V-.75c0 .438-.109.438-.78.438V0l1.125-.031L2.547 0v-.312c-.656 0-.766 0-.766-.438v-1.828c0-1.031.703-1.594 1.328-1.594.625 0 .735.547.735 1.11V-.75c0 .438-.11.438-.766.438V0l1.125-.031Zm0 0"/><path id="q" d="M4.813-4.016c0-.156-.125-.484-.5-.484-.204 0-.641.063-1.063.469a1.627 1.627 0 0 0-1.047-.36c-.922 0-1.61.688-1.61 1.454 0 .437.22.812.47 1.015-.125.156-.313.484-.313.828 0 .313.14.688.438.89C.594-.046.28.392.28.782c0 .719.985 1.266 2.188 1.266 1.172 0 2.203-.516 2.203-1.281 0-.344-.14-.86-.64-1.125-.532-.282-1.11-.282-1.704-.282-.25 0-.687 0-.75-.015-.312-.031-.531-.344-.531-.656 0-.047 0-.282.172-.47.39.266.797.298.984.298.922 0 1.61-.672 1.61-1.438 0-.375-.157-.734-.407-.969.36-.343.719-.39.89-.39 0 0 .063 0 .095.015-.11.032-.157.141-.157.266 0 .172.125.297.297.297a.295.295 0 0 0 .282-.313m-1.75 1.079c0 .265 0 .593-.157.828-.078.125-.312.406-.703.406-.86 0-.86-1-.86-1.219 0-.265 0-.594.157-.844.078-.109.313-.39.703-.39.86 0 .86.984.86 1.218M4.156.78c0 .532-.703 1.031-1.672 1.031-1 0-1.687-.5-1.687-1.03 0-.454.375-.829.812-.844h.579c.859 0 1.968 0 1.968.843m0 0"/><path id="r" d="M1.906-3.75a.537.537 0 0 0-.531-.531.534.534 0 0 0-.516.531c0 .281.235.531.516.531.297 0 .531-.25.531-.531m0 3.219A.524.524 0 1 0 .86-.515a.524.524 0 0 0 1.047-.016m0 0"/><path id="s" d="M4.156 0v-.312h-.312c-.89 0-.922-.11-.922-.47v-5.562c0-.25 0-.265-.235-.265-.609.64-1.484.64-1.796.64v.297c.187 0 .78 0 1.297-.25v5.14c0 .36-.032.47-.922.47H.938V0c.359-.031 1.218-.031 1.609-.031.406 0 1.265 0 1.61.031m0 0"/><path id="t" d="M4.39-7.25a.18.18 0 0 0-.187-.187c-.14 0-.187.093-.219.187L.61 2.11c-.046.124-.046.171-.046.171 0 .11.078.203.187.203.14 0 .188-.109.219-.203l3.375-9.343c.047-.125.047-.188.047-.188m0 0"/><path id="u" d="M4.672-1.64v-.298h-.984v-4.515c0-.203 0-.266-.172-.266-.079 0-.11 0-.188.125L.281-1.937v.296h2.64v.86c0 .36-.03.469-.765.469h-.203V0c.406-.031.922-.031 1.344-.031.406 0 .937 0 1.344.031v-.312h-.203c-.735 0-.75-.11-.75-.47v-.859Zm-1.703-.298H.563L2.969-5.64Zm0 0"/><path id="v" d="M5.234 0v-.312c-.703 0-.78-.063-.78-.547v-6.032l-1.423.11v.312c.688 0 .766.063.766.563v2.14a1.582 1.582 0 0 0-1.25-.625c-1.172 0-2.203.985-2.203 2.25 0 1.266.969 2.25 2.094 2.25.64 0 1.078-.343 1.328-.656V.11ZM3.766-1.172c0 .188 0 .203-.11.375-.297.469-.734.688-1.172.688-.437 0-.796-.25-1.03-.641-.266-.406-.298-.969-.298-1.375 0-.36.032-.953.313-1.406.203-.313.578-.64 1.125-.64.344 0 .765.155 1.062.593.11.172.11.187.11.375Zm0 0"/><path id="w" d="M10.016-6.469v-.312c-.297.031-.61.031-.907.031l-1.187-.031v.312c.672.016.875.344.875.532 0 .046-.031.14-.063.187L7.25-1.156l-1.578-4.86a.555.555 0 0 1-.031-.156c0-.297.578-.297.828-.297v-.312c-.36.031-1.032.031-1.407.031l-1.218-.031v.312c.578 0 .781 0 .906.36l.203.687-1.375 4.266-1.594-4.89c-.015-.032-.015-.095-.015-.126 0-.297.578-.297.828-.297v-.312c-.36.031-1.031.031-1.406.031L.17-6.781v.312c.75 0 .798.047.907.422L3.063.031c.03.094.062.188.187.188.14 0 .156-.063.203-.203l1.64-5.032L6.735.031c.032.094.063.188.188.188.14 0 .156-.063.203-.203l1.89-5.813c.188-.578.61-.672 1-.672m0 0"/><path id="x" d="M4.953-1.844c0-1-.656-1.812-1.484-2l-1.281-.312a1.31 1.31 0 0 1-1-1.266c0-.687.53-1.297 1.312-1.297 1.656 0 1.875 1.625 1.938 2.078 0 .063 0 .11.109.11.14 0 .14-.047.14-.235V-6.75c0-.172 0-.25-.109-.25-.078 0-.078.016-.156.14l-.344.563C3.781-6.594 3.375-7 2.484-7 1.391-7 .563-6.125.563-5.062c0 .812.515 1.546 1.296 1.812.11.031.61.156 1.313.328.265.063.562.14.844.5.203.266.297.594.297.906 0 .72-.5 1.422-1.329 1.422-.28 0-1.046-.047-1.562-.531-.578-.531-.61-1.172-.625-1.531 0-.094-.078-.094-.11-.094-.125 0-.125.063-.125.25v1.984c0 .172 0 .235.11.235.062 0 .078-.016.14-.125 0 0 .032-.047.36-.563C1.484-.14 2.109.22 3 .22c1.156 0 1.953-.969 1.953-2.063m0 0"/><path id="y" d="M4.672-2.125c0-1.266-.984-2.312-2.188-2.312-1.25 0-2.203 1.078-2.203 2.312C.281-.844 1.312.109 2.47.109a2.208 2.208 0 0 0 2.203-2.234m-.828-.078c0 .36 0 .89-.219 1.328a1.267 1.267 0 0 1-1.14.734c-.438 0-.86-.203-1.141-.656-.25-.437-.25-1.047-.25-1.406 0-.39 0-.922.25-1.36a1.342 1.342 0 0 1 1.125-.671c.437 0 .86.218 1.125.656.25.422.25 1 .25 1.375M2.078-6a.48.48 0 0 0-.469-.469.473.473 0 0 0-.484.469c0 .25.203.469.469.469.312 0 .484-.25.484-.469m1.766 0a.48.48 0 0 0-.469-.469.473.473 0 0 0-.484.469c0 .25.203.469.468.469.313 0 .485-.25.485-.469m0 0"/><path id="z" d="M3.547-6.297c0-.375-.375-.703-.89-.703-.704 0-1.548.531-1.548 1.578v1.14H.33v.313h.78V-.75c0 .438-.109.438-.765.438V0l1.125-.031c.39 0 .86 0 1.265.031v-.312h-.218c-.735 0-.75-.11-.75-.47v-3.187H2.89v-.312H1.734v-1.14c0-.876.485-1.36.922-1.36a.69.69 0 0 1 .313.078.437.437 0 0 0-.297.406c0 .234.172.438.437.438.282 0 .438-.203.438-.438m0 0"/><path id="A" d="M5.234 1.922v-.297c-.671 0-.78 0-.78-.453v-5.563h-.22l-.375.907c-.125-.282-.53-.907-1.328-.907-1.156 0-2.187.97-2.187 2.25 0 1.25.953 2.25 2.11 2.25.687 0 1.093-.421 1.312-.718v1.78c0 .454-.11.454-.766.454v.297l1.11-.031ZM3.797-1.344c0 .313-.172.594-.39.828-.126.141-.454.407-.923.407-.718 0-1.328-.875-1.328-2.032 0-1.171.703-2 1.438-2 .797 0 1.203.86 1.203 1.391Zm0 0"/><path id="B" d="M5.313 0v-.312c-.704 0-.782-.063-.782-.547v-3.532l-1.453.11v.312c.688 0 .766.063.766.563v1.765c0 .86-.469 1.532-1.188 1.532-.844 0-.875-.47-.875-.985V-4.39l-1.468.11v.312c.78 0 .78.031.78.906v1.5c0 .766 0 1.672 1.5 1.672.563 0 1-.28 1.282-.89v.89Zm0 0"/><path id="C" d="M3.984-1.86h-.25C3.641-.686 3.438-.25 2.281-.25H1.11l2.766-3.734c.078-.11.078-.125.078-.157 0-.14-.078-.14-.25-.14H.531l-.11 1.61h.25C.72-3.689.907-4.064 2-4.064h1.14L.36-.312C.28-.202.28-.186.28-.14.281 0 .344 0 .531 0h3.282Zm0 0"/><clipPath id="a"><path d="M98 129h14v4.926H98Zm0 0"/></clipPath></defs><path fill="none" stroke="#000" stroke-miterlimit="10" stroke-width=".39740799" d="M105.04 59.687h21.76m0 0h36.274m0 0h14.508M104.844 59.687V.395"/><path fill="none" stroke="#000" stroke-miterlimit="10" stroke-width=".79381997" d="M104.844.395h9.879l-9.88 19.765L94.962.395h9.883"/><path stroke="#000" stroke-miterlimit="10" stroke-width=".39740799" d="M150.145 59.687a1.58 1.58 0 1 0-3.16-.004 1.58 1.58 0 0 0 3.16.004Zm0 0"/><path fill="none" stroke="#000" stroke-miterlimit="10" stroke-width=".39740799" d="M105.04 117.719h21.76m0 0h36.274m0 0h14.508M105.04 117.719v11.86"/><g clip-path="url(#a)"><path fill="none" stroke="#000" stroke-miterlimit="10" stroke-width=".79381997" d="M99.113 129.578h11.856m-9.88 1.977h7.903m-6.422 1.976h4.942"/></g><path stroke="#000" stroke-miterlimit="10" stroke-width=".39740799" d="M150.145 117.719c0-.871-.707-1.582-1.579-1.582a1.583 1.583 0 0 0 0 3.164 1.58 1.58 0 0 0 1.579-1.582Zm0 0"/><path fill="none" stroke="#000" stroke-miterlimit="10" stroke-width=".39740799" d="M177.582 132.227V45.18h43.523v87.047Zm0 0"/><use xlink:href="#b" x="191.97" y="91.982"/><use xlink:href="#c" x="199.273" y="91.982"/><path fill="none" stroke="#000" stroke-miterlimit="10" stroke-width=".39740799" d="M148.566 59.687v29.016h-4.355"/><path fill="none" stroke="#000" stroke-miterlimit="10" stroke-width=".79381997" d="M122.867 94.633h18.973c1.312 0 2.37-2.656 2.37-5.93 0-3.273-1.058-5.93-2.37-5.93h-18.973c-1.308 0-2.37 2.657-2.37 5.93 0 3.274 1.062 5.93 2.37 5.93"/><path fill="none" stroke="#000" stroke-miterlimit="10" stroke-width=".79381997" d="M122.867 94.633c1.309 0 2.371-2.656 2.371-5.93 0-3.273-1.062-5.93-2.37-5.93"/><path fill="none" stroke="#000" stroke-miterlimit="10" stroke-width=".39740799" d="M122.867 88.703h-2.37M141.84 94.633h6.726v23.086m0 0"/><path stroke="#000" stroke-miterlimit="10" stroke-width=".39740799" d="M143.422 94.633a1.58 1.58 0 1 0-3.16-.003 1.58 1.58 0 0 0 3.16.003ZM150.145 117.719c0-.871-.707-1.582-1.579-1.582a1.583 1.583 0 0 0 0 3.164 1.58 1.58 0 0 0 1.579-1.582Zm0 0"/><path fill="none" stroke="#000" stroke-miterlimit="10" stroke-width=".39740799" d="M120.496 88.703h-3.629m0 0h-3.625v5.93h9.625m0 0"/><path stroke="#000" stroke-miterlimit="10" stroke-width=".39740799" d="M124.45 94.633a1.583 1.583 0 0 0-3.164 0 1.582 1.582 0 0 0 3.163 0Zm0 0"/><use xlink:href="#d" x="7.139" y="76.615"/><use xlink:href="#e" x="13.897" y="76.615"/><use xlink:href="#f" x="16.655" y="76.615"/><use xlink:href="#g" x="21.061" y="76.615"/><use xlink:href="#h" x="26.3" y="76.615"/><use xlink:href="#i" x="30.161" y="76.615"/><use xlink:href="#j" x="34.05" y="76.615"/><use xlink:href="#k" x="36.809" y="76.615"/><use xlink:href="#l" x="40.719" y="76.615"/><use xlink:href="#m" x="44.846" y="76.615"/><use xlink:href="#f" x="50.364" y="76.615"/><use xlink:href="#n" x="58.074" y="76.615"/><use xlink:href="#o" x="64.276" y="76.615"/><use xlink:href="#p" x="69.237" y="76.615"/><use xlink:href="#q" x="74.754" y="76.615"/><use xlink:href="#f" x="79.716" y="76.615"/><use xlink:href="#r" x="84.121" y="76.615"/><use xlink:href="#s" x="3.443" y="91.183"/><use xlink:href="#t" x="8.405" y="91.183"/><use xlink:href="#u" x="13.366" y="91.183"/><use xlink:href="#v" x="21.632" y="91.183"/><use xlink:href="#f" x="27.149" y="91.183"/><use xlink:href="#i" x="31.555" y="91.183"/><use xlink:href="#w" x="38.749" y="91.183"/><use xlink:href="#f" x="48.126" y="91.183"/><use xlink:href="#e" x="52.532" y="91.183"/><use xlink:href="#e" x="55.29" y="91.183"/><use xlink:href="#f" x="58.049" y="91.183"/><use xlink:href="#p" x="62.455" y="91.183"/><use xlink:href="#e" x="67.972" y="91.183"/><use xlink:href="#o" x="70.731" y="91.183"/><use xlink:href="#p" x="75.692" y="91.183"/><use xlink:href="#q" x="81.209" y="91.183"/><use xlink:href="#f" x="86.171" y="91.183"/><use xlink:href="#v" x="11.128" y="105.746"/><use xlink:href="#f" x="16.645" y="105.746"/><use xlink:href="#i" x="21.051" y="105.746"/><use xlink:href="#x" x="28.245" y="105.746"/><use xlink:href="#h" x="33.763" y="105.746"/><use xlink:href="#y" x="37.623" y="105.746"/><use xlink:href="#i" x="42.584" y="105.746"/><use xlink:href="#z" x="46.474" y="105.746"/><use xlink:href="#i" x="49.51" y="105.746"/><use xlink:href="#f" x="53.4" y="105.746"/><use xlink:href="#A" x="57.806" y="105.746"/><use xlink:href="#B" x="63.045" y="105.746"/><use xlink:href="#f" x="68.562" y="105.746"/><use xlink:href="#p" x="72.968" y="105.746"/><use xlink:href="#C" x="78.485" y="105.746"/><path fill="none" stroke="#000" stroke-miterlimit="10" stroke-width=".39740799" d="m90.531 74.195 17.309 9.89"/><path stroke="#000" stroke-miterlimit="10" stroke-width=".39738804" d="m110.5 85.605-1.703-2.996-.871 1.524-.871 1.527Zm0 0"/></svg>