<svg xmlns="http://www.w3.org/2000/svg" xmlns:xlink="http://www.w3.org/1999/xlink" width="222.872" height="139.762"><defs><path id="b" d="M7.281-.875c0-.062 0-.172-.125-.172-.11 0-.11.094-.125.156-.047.72-.406.891-.656.891-.484 0-.562-.5-.703-1.437l-.125-.797c-.188-.625-.672-.953-1.219-1.157.969-.234 1.75-.843 1.75-1.609 0-.969-1.14-1.797-2.61-1.797H.345v.313h.25c.765 0 .781.109.781.468V-.78c0 .36-.016.469-.781.469h-.25V0c.36-.031 1.062-.031 1.453-.031.39 0 1.094 0 1.453.031v-.312h-.234c-.766 0-.782-.11-.782-.47v-2.515h1.141c.156 0 .578 0 .922.344.375.36.375.656.375 1.328 0 .656 0 1.047.422 1.422.406.36.953.422 1.25.422.765 0 .937-.813.937-1.094M5.047-5c0 .688-.234 1.484-1.719 1.484H2.234v-2.578c0-.218 0-.343.22-.375.093-.015.39-.015.577-.015.906 0 2.016.03 2.016 1.484m0 0"/><path id="c" d="M7.219 0v-.312H7.03c-.515 0-.718-.047-.937-.36L4-3.844l1.36-2c.218-.312.562-.64 1.452-.64v-.313l-1.109.031c-.39 0-.875 0-1.281-.03v.312c.406 0 .625.218.625.453 0 .093-.016.125-.094.234L3.828-4.125 2.531-6.047c-.015-.031-.062-.11-.062-.14 0-.125.219-.297.64-.297v-.313c-.343.031-1.062.031-1.453.031l-1.281-.03v.312h.188c.546 0 .734.062.921.343l1.829 2.766L1.687-.969c-.14.203-.437.657-1.453.657V0l1.11-.031c.375 0 .922 0 1.281.031v-.312c-.469 0-.64-.282-.64-.454 0-.093.03-.125.109-.234L3.5-3.094 5.078-.719c.016.047.047.078.047.11 0 .125-.219.297-.64.297V0c.343-.031 1.062-.031 1.452-.031Zm0 0"/><path id="e" d="M7.14 0v-.312h-.187c-.594 0-.734-.063-.844-.391L3.97-6.922c-.063-.14-.078-.203-.235-.203-.156 0-.187.063-.234.203L1.438-.969c-.188.5-.579.657-1.125.657V0l1.015-.031L2.484 0v-.312c-.5 0-.75-.25-.75-.5 0-.032 0-.141.016-.157l.453-1.297h2.469L5.203-.75c0 .047.016.11.016.14 0 .298-.547.298-.813.298V0c.344-.031 1.047-.031 1.422-.031ZM4.564-2.578h-2.25l1.124-3.234Zm0 0"/><path id="f" d="M5.328 0v-.312c-.703 0-.781-.063-.781-.547v-3.547l-1.469.11v.312c.703 0 .781.078.781.562v1.766c0 .875-.468 1.547-1.203 1.547-.828 0-.875-.47-.875-.985v-3.312l-1.468.11v.312c.78 0 .78.03.78.922v1.484c0 .781 0 1.687 1.516 1.687.563 0 1-.28 1.282-.89v.89Zm0 0"/><path id="g" d="M3.547-6.312c0-.375-.36-.704-.89-.704-.704 0-1.548.532-1.548 1.579v1.14H.33v.313h.78V-.75c0 .438-.109.438-.765.438V0l1.125-.031c.406 0 .875 0 1.265.031v-.312h-.203c-.734 0-.765-.11-.765-.47v-3.202h1.14v-.313H1.734v-1.14c0-.875.485-1.36.922-1.36.031 0 .188 0 .328.063a.44.44 0 0 0-.296.422c0 .234.156.437.421.437.297 0 .438-.203.438-.437m0 0"/><path id="h" d="M5.25 0v-.312c-.703 0-.781-.063-.781-.547v-6.047l-1.438.11v.312c.703 0 .781.062.781.547v2.156c-.296-.36-.718-.625-1.25-.625-1.171 0-2.218.984-2.218 2.265 0 1.266.969 2.25 2.11 2.25.624 0 1.077-.343 1.327-.656V.11ZM3.781-1.172c0 .172 0 .203-.11.36-.296.484-.75.703-1.171.703-.453 0-.812-.266-1.047-.641-.266-.406-.281-.969-.281-1.375 0-.375.016-.969.297-1.422.218-.312.593-.64 1.125-.64.36 0 .765.156 1.078.609.11.172.11.187.11.36Zm0 0"/><path id="i" d="M4.813-.89v-.547h-.25v.546c0 .579-.25.641-.36.641-.328 0-.375-.453-.375-.5v-1.984c0-.422 0-.813-.36-1.172a1.874 1.874 0 0 0-1.359-.547c-.812 0-1.5.469-1.5 1.125 0 .297.204.469.454.469.28 0 .453-.203.453-.47 0-.108-.047-.437-.5-.452.265-.344.75-.453 1.078-.453.484 0 1.047.375 1.047 1.265v.375c-.5.031-1.203.063-1.828.36-.75.328-1 .843-1 1.28C.313-.14 1.28.11 1.906.11c.657 0 1.125-.39 1.313-.859.031.39.297.813.765.813.22 0 .829-.141.829-.954m-1.672-.5c0 .937-.72 1.28-1.157 1.28-.484 0-.906-.343-.906-.843 0-.547.422-1.375 2.063-1.438Zm0 0"/><path id="j" d="M3.578-1.281c0-.516-.297-.813-.406-.938-.328-.312-.719-.406-1.14-.484-.563-.11-1.22-.235-1.22-.813 0-.343.25-.75 1.11-.75 1.094 0 1.14.891 1.156 1.204.016.093.125.093.125.093.125 0 .125-.062.125-.25v-1c0-.172 0-.234-.11-.234-.046 0-.062 0-.187.11a.779.779 0 0 1-.172.155c-.375-.265-.796-.265-.937-.265-1.219 0-1.594.656-1.594 1.219 0 .343.156.625.422.843.328.266.61.329 1.313.454.234.046 1.046.203 1.046.921 0 .516-.359.907-1.125.907-.843 0-1.203-.563-1.39-1.407-.031-.14-.031-.171-.14-.171-.126 0-.126.062-.126.25v1.312c0 .172 0 .234.11.234C.484.11.5.094.688-.094.703-.109.703-.125.89-.312a1.51 1.51 0 0 0 1.093.421c1.141 0 1.594-.671 1.594-1.39m0 0"/><path id="k" d="M4.969-1.844c0-1-.657-1.812-1.5-2.015l-1.266-.313a1.295 1.295 0 0 1-1.015-1.266 1.3 1.3 0 0 1 1.328-1.296c1.656 0 1.875 1.625 1.937 2.078 0 .062 0 .125.11.125.14 0 .14-.063.14-.25v-2c0-.172 0-.235-.11-.235-.077 0-.077.016-.155.125l-.344.579c-.297-.297-.703-.704-1.594-.704-1.11 0-1.937.875-1.937 1.922a1.92 1.92 0 0 0 1.296 1.828c.11.047.625.157 1.313.329.265.078.578.14.844.515.218.25.312.578.312.906 0 .704-.5 1.422-1.328 1.422-.297 0-1.047-.047-1.578-.531-.578-.547-.61-1.172-.61-1.531-.015-.11-.093-.11-.125-.11-.125 0-.125.079-.125.25v2c0 .172 0 .235.11.235.062 0 .078-.016.14-.125 0 0 .032-.047.36-.578.312.343.953.703 1.828.703 1.172 0 1.969-.969 1.969-2.063m0 0"/><path id="l" d="M3.297-1.234v-.563h-.235v.547c0 .734-.312 1.11-.671 1.11-.672 0-.672-.907-.672-1.079v-2.765H3.14v-.313H1.719v-1.828h-.25c0 .813-.297 1.89-1.281 1.922v.219h.843v2.75c0 1.218.922 1.343 1.282 1.343.718 0 .984-.703.984-1.343m0 0"/><path id="m" d="M4.688-2.125c0-1.281-1-2.328-2.204-2.328C1.25-4.453.281-3.375.281-2.125A2.217 2.217 0 0 0 2.484.109a2.208 2.208 0 0 0 2.204-2.234m-.829-.078c0 .36 0 .89-.218 1.328a1.273 1.273 0 0 1-1.157.734c-.421 0-.859-.203-1.125-.671-.25-.438-.25-1.032-.25-1.391 0-.39 0-.938.235-1.375a1.33 1.33 0 0 1 1.14-.656c.438 0 .86.218 1.125.64.25.422.25 1 .25 1.39M2.094-6.016a.484.484 0 0 0-.485-.468.473.473 0 0 0-.484.468c0 .25.203.47.484.47.297 0 .485-.25.485-.47m1.765 0a.47.47 0 0 0-.468-.468c-.313 0-.5.25-.5.468 0 .25.218.47.484.47.313 0 .484-.25.484-.47m0 0"/><path id="n" d="M3.625-3.797c0-.312-.312-.61-.734-.61-.735 0-1.094.673-1.235 1.11v-1.11l-1.375.11v.313c.688 0 .782.078.782.562V-.75c0 .438-.11.438-.782.438V0l1.125-.031c.407 0 .875 0 1.266.031v-.312h-.203c-.735 0-.75-.11-.75-.47v-1.53c0-.985.406-1.876 1.172-1.876.062 0 .078 0 .109.016a.433.433 0 0 0-.234.39c0 .282.203.423.422.423.187 0 .437-.11.437-.438m0 0"/><path id="o" d="M2.453 0v-.312c-.656 0-.687-.047-.687-.438v-3.656l-1.391.11v.312c.64 0 .734.062.734.547V-.75c0 .438-.109.438-.78.438V0l1.093-.031c.344 0 .703.015 1.031.031m-.547-6.016c0-.265-.218-.53-.515-.53a.54.54 0 0 0-.547.53c0 .266.234.532.531.532a.525.525 0 0 0 .531-.532m0 0"/><path id="p" d="M4.828-4.016a.5.5 0 0 0-.516-.5c-.187 0-.625.063-1.046.47a1.689 1.689 0 0 0-1.063-.36c-.922 0-1.61.687-1.61 1.453 0 .437.22.828.47 1.031-.125.156-.313.484-.313.828 0 .313.14.688.438.89C.594-.046.28.392.28.782c0 .719.985 1.266 2.203 1.266 1.172 0 2.204-.5 2.204-1.281 0-.344-.141-.86-.641-1.141-.531-.266-1.11-.266-1.719-.266-.25 0-.672 0-.75-.015-.312-.047-.516-.344-.516-.672 0-.031 0-.266.157-.469.39.281.797.313.984.313.938 0 1.625-.688 1.625-1.453 0-.36-.172-.735-.422-.97.36-.327.719-.39.906-.39 0 0 .063 0 .094.016-.11.047-.156.156-.156.265 0 .172.125.297.281.297.11 0 .297-.078.297-.297m-1.75 1.063c0 .281-.015.594-.156.844a.854.854 0 0 1-.719.39c-.86 0-.86-.984-.86-1.218 0-.266.016-.579.157-.829.078-.125.313-.406.703-.406.875 0 .875 1 .875 1.219M4.172.78c0 .547-.703 1.047-1.688 1.047-1 0-1.687-.516-1.687-1.047 0-.453.375-.828.812-.843h.594c.86 0 1.969 0 1.969.843m0 0"/><path id="q" d="M5.328 0v-.312c-.516 0-.766 0-.781-.297v-1.907c0-.843 0-1.156-.313-1.515-.14-.172-.468-.375-1.046-.375-.72 0-1.188.437-1.47 1.047v-1.047l-1.405.11v.312c.703 0 .78.078.78.562V-.75c0 .438-.109.438-.78.438V0l1.125-.031L2.563 0v-.312c-.672 0-.782 0-.782-.438v-1.844c0-1.031.703-1.594 1.344-1.594.625 0 .734.547.734 1.11V-.75c0 .438-.109.438-.78.438V0l1.124-.031Zm0 0"/><path id="r" d="M2.531 0v-.312c-.656 0-.765 0-.765-.438v-6.156l-1.438.11v.312c.703 0 .781.062.781.547V-.75c0 .438-.109.438-.78.438V0l1.109-.031Zm0 0"/><path id="s" d="M5.188-2.156c0-1.25-.985-2.25-2.11-2.25-.781 0-1.203.468-1.36.656v-3.156l-1.437.11v.312c.688 0 .782.062.782.547V0h.234l.36-.61c.155.22.577.72 1.312.72 1.187 0 2.219-.97 2.219-2.266m-.829 0c0 .36-.015.969-.312 1.406-.203.313-.578.64-1.125.64-.438 0-.797-.234-1.047-.609-.14-.203-.14-.234-.14-.422v-2.046c0-.188 0-.204.109-.36.39-.547.937-.64 1.187-.64.438 0 .797.265 1.047.64.25.406.281.985.281 1.39m0 0"/><path id="t" d="M4.125-1.187c0-.094-.078-.11-.125-.11-.094 0-.11.047-.125.125C3.515-.14 2.625-.14 2.531-.14c-.5 0-.906-.296-1.125-.671-.297-.47-.297-1.125-.297-1.485h2.766c.219 0 .25 0 .25-.219 0-.984-.531-1.937-1.781-1.937C1.188-4.453.28-3.437.28-2.187.281-.86 1.328.108 2.47.108 3.688.11 4.125-1 4.125-1.187m-.656-1.329h-2.36c.063-1.468.907-1.718 1.235-1.718 1.031 0 1.125 1.343 1.125 1.718m0 0"/><path id="u" d="M8.094 0v-.312c-.516 0-.766 0-.781-.297v-1.907c0-.843 0-1.156-.313-1.515-.125-.172-.453-.375-1.031-.375-.844 0-1.282.61-1.453.984-.141-.875-.875-.984-1.328-.984-.72 0-1.188.437-1.47 1.047v-1.047l-1.405.11v.312c.703 0 .78.078.78.562V-.75c0 .438-.109.438-.78.438V0l1.125-.031L2.563 0v-.312c-.672 0-.782 0-.782-.438v-1.844c0-1.031.703-1.594 1.344-1.594.625 0 .734.547.734 1.11V-.75c0 .438-.109.438-.78.438V0l1.124-.031L5.328 0v-.312c-.672 0-.781 0-.781-.438v-1.844c0-1.031.703-1.594 1.344-1.594.625 0 .734.547.734 1.11V-.75c0 .438-.11.438-.766.438V0l1.125-.031Zm0 0"/><clipPath id="a"><path d="M171 43h49v96.523h-49Zm0 0"/></clipPath><clipPath id="d"><path d="M133 134h14v5.523h-14Zm0 0"/></clipPath></defs><path fill="none" stroke="#000" stroke-miterlimit="10" stroke-width=".3983217" d="M92.2 123.281V95.516m0-7.926V59.824h7.948m31.692 0h23.812m0 0h15.868"/><path fill="none" stroke="#000" stroke-miterlimit="10" stroke-width=".7956451" d="M80.313 95.516h23.769m-23.77-7.926h23.77M104.082 103.437 80.734 80.09"/><path fill="none" stroke="#000" stroke-miterlimit="10" stroke-width=".79562916" d="m78.414 82.129 4.36-4.36"/><path fill="none" stroke="#000" stroke-linejoin="bevel" stroke-miterlimit="10" stroke-width=".7956451" d="M99.75 59.984c0-3.28 1.816-5.945 4.059-5.945 2.246 0 4.062 2.664 4.062 5.945 0-3.28 1.82-5.945 4.063-5.945 2.242 0 4.058 2.664 4.058 5.945 0-3.28 1.82-5.945 4.063-5.945 2.242 0 4.062 2.664 4.062 5.945 0-3.28 1.817-5.945 4.059-5.945 2.246 0 4.062 2.664 4.062 5.945"/><path stroke="#000" stroke-miterlimit="10" stroke-width=".3983217" d="M141.375 59.824a1.584 1.584 0 1 0-3.168 0 1.584 1.584 0 1 0 3.168 0Zm0 0"/><path fill="none" stroke="#000" stroke-miterlimit="10" stroke-width=".3983217" d="M92.2 123.281h23.792m0 0h39.66m0 0h15.868"/><path stroke="#000" stroke-miterlimit="10" stroke-width=".3983217" d="M141.375 123.281a1.584 1.584 0 1 0-3.168-.004 1.584 1.584 0 0 0 3.168.004Zm0 0"/><g clip-path="url(#a)"><path fill="none" stroke="#000" stroke-miterlimit="10" stroke-width=".3983217" d="M171.52 139.145V43.96h47.59v95.184Zm0 0"/></g><use xlink:href="#b" x="187.923" y="94.839"/><use xlink:href="#c" x="195.243" y="94.839"/><path fill="none" stroke="#000" stroke-miterlimit="10" stroke-width=".3983217" d="M139.59 59.824V.398"/><path fill="none" stroke="#000" stroke-miterlimit="10" stroke-width=".7956451" d="M139.59.398h9.906l-9.906 19.809L129.687.398h9.903"/><path fill="none" stroke="#000" stroke-miterlimit="10" stroke-width=".3983217" d="M139.79 123.281v11.883"/><g clip-path="url(#d)"><path fill="none" stroke="#000" stroke-miterlimit="10" stroke-width=".7956451" d="M133.848 135.164h11.886m-9.906 1.98h7.922m-6.437 1.985h4.953"/></g><use xlink:href="#e" x="11.998" y="79.194"/><use xlink:href="#f" x="19.179" y="79.194"/><use xlink:href="#g" x="24.709" y="79.194"/><use xlink:href="#h" x="31.064" y="79.194"/><use xlink:href="#i" x="36.594" y="79.194"/><use xlink:href="#j" x="41.567" y="79.194"/><use xlink:href="#k" x="7.146" y="94.034"/><use xlink:href="#l" x="12.675" y="94.034"/><use xlink:href="#m" x="16.544" y="94.034"/><use xlink:href="#n" x="21.517" y="94.034"/><use xlink:href="#j" x="25.416" y="94.034"/><use xlink:href="#o" x="29.334" y="94.034"/><use xlink:href="#p" x="32.099" y="94.034"/><use xlink:href="#q" x="37.072" y="94.034"/><use xlink:href="#i" x="42.602" y="94.034"/><use xlink:href="#r" x="47.575" y="94.034"/><use xlink:href="#i" x="3.441" y="109.843"/><use xlink:href="#s" x="8.414" y="109.843"/><use xlink:href="#p" x="13.944" y="109.843"/><use xlink:href="#t" x="18.916" y="109.843"/><use xlink:href="#j" x="23.332" y="109.843"/><use xlink:href="#l" x="27.251" y="109.843"/><use xlink:href="#o" x="31.12" y="109.843"/><use xlink:href="#u" x="33.885" y="109.843"/><use xlink:href="#u" x="42.169" y="109.843"/><use xlink:href="#l" x="50.176" y="109.843"/><path fill="none" stroke="#000" stroke-miterlimit="10" stroke-width=".3983217" d="M57.297 91.55h15.57"/><path stroke="#000" stroke-miterlimit="10" stroke-width=".3983217" d="m75.938 91.55-2.973-1.757v3.52Zm0 0"/></svg>