<svg xmlns="http://www.w3.org/2000/svg" xmlns:xlink="http://www.w3.org/1999/xlink" width="229.495" height="189.266"><defs><path id="b" d="M6.188-4.937c0-.97-.985-1.844-2.344-1.844h-3.5v.312h.234c.766 0 .797.11.797.469v5.219c0 .36-.031.469-.797.469H.344V0c.344-.031 1.078-.031 1.469-.031.375 0 1.109 0 1.468.031v-.312h-.25c-.765 0-.781-.11-.781-.47V-3.14h1.672c1.203 0 2.266-.796 2.266-1.796m-1.016 0c0 .468 0 1.546-1.578 1.546H2.219v-2.687c0-.328.031-.39.484-.39h.89c1.579 0 1.579 1.046 1.579 1.53m0 0"/><path id="c" d="M6.594-2.312c0-.094 0-.172-.125-.172-.11 0-.11.062-.125.156C6.266-.906 5.204-.094 4.125-.094c-.61 0-2.547-.328-2.547-3.297 0-2.953 1.938-3.296 2.547-3.296 1.078 0 1.953.906 2.156 2.359.016.125.016.156.157.156.156 0 .156-.031.156-.234V-6.75c0-.172 0-.25-.11-.25-.03 0-.078 0-.156.125l-.5.734C5.468-6.5 4.953-7 4.016-7 2.156-7 .563-5.422.563-3.39.563-1.345 2.156.218 4.015.218c1.609 0 2.578-1.375 2.578-2.531m0 0"/><path id="d" d="M4.953-1.844c0-1-.656-1.812-1.484-2l-1.281-.312a1.31 1.31 0 0 1-1-1.266c0-.687.53-1.297 1.312-1.297 1.656 0 1.875 1.625 1.938 2.078 0 .063 0 .11.109.11.14 0 .14-.047.14-.235V-6.75c0-.172 0-.25-.109-.25-.078 0-.078.016-.156.14l-.344.563C3.781-6.594 3.375-7 2.484-7 1.391-7 .563-6.125.563-5.062c0 .812.515 1.546 1.296 1.812.11.031.61.156 1.313.328.265.063.562.14.844.5.203.266.297.594.297.906 0 .72-.5 1.422-1.329 1.422-.28 0-1.046-.047-1.562-.531-.578-.531-.61-1.172-.625-1.531 0-.094-.078-.094-.11-.094-.125 0-.125.063-.125.25v1.984c0 .172 0 .235.11.235.062 0 .078-.016.14-.125 0 0 .032-.047.36-.563C1.484-.14 2.109.22 3 .22c1.156 0 1.953-.969 1.953-2.063m0 0"/><path id="e" d="M7.016-3.328c0-1.89-1.344-3.453-3.032-3.453H.344v.312h.234c.766 0 .797.11.797.469v5.219c0 .36-.031.469-.797.469H.344V0h3.64c1.657 0 3.032-1.469 3.032-3.328m-1 0c0 1.094-.188 1.687-.532 2.172-.203.265-.765.843-1.78.843h-1c-.454 0-.485-.062-.485-.39v-5.375c0-.328.031-.39.484-.39h1c.61 0 1.297.218 1.797.921.438.594.516 1.438.516 2.219m0 0"/><path id="f" d="M7.266-.875c0-.062 0-.172-.125-.172-.11 0-.11.094-.125.156-.063.72-.407.891-.657.891-.484 0-.562-.5-.703-1.422l-.125-.797c-.187-.64-.672-.969-1.218-1.156.968-.234 1.734-.844 1.734-1.61 0-.952-1.125-1.796-2.578-1.796H.344v.312h.234c.766 0 .797.11.797.469v5.219c0 .36-.031.469-.797.469H.344V0c.36-.031 1.062-.031 1.453-.031.39 0 1.094 0 1.453.031v-.312H3c-.75 0-.781-.11-.781-.47v-2.5h1.14c.157 0 .579 0 .922.329.375.36.375.672.375 1.328s0 1.047.407 1.422c.421.36.953.422 1.25.422.78 0 .953-.813.953-1.094M5.03-4.985c0 .673-.234 1.485-1.703 1.485h-1.11v-2.578c0-.219 0-.344.22-.375.109-.016.39-.016.593-.016.89 0 2 .047 2 1.485m0 0"/><path id="g" d="M5.781-2.562h-.25c-.11 1.015-.25 2.25-2 2.25H2.72c-.469 0-.485-.063-.485-.391V-6c0-.328 0-.469.938-.469H3.5v-.312c-.36.031-1.25.031-1.672.031-.375 0-1.156 0-1.5-.031v.312h.235c.765 0 .78.11.78.469v5.219c0 .36-.015.469-.78.469H.328V0H5.5Zm0 0"/><path id="h" d="M7.11-6.469v-.312l-1.173.031-1.156-.031v.312c1.016 0 1.016.469 1.016.735V-1.5l-3.5-5.14c-.078-.126-.094-.141-.281-.141H.328v.312H.61c.157 0 .36.016.5.016.235.031.235.047.235.234v5.172c0 .266 0 .734-1.016.734V0l1.156-.031L2.656 0v-.312c-1.031 0-1.031-.47-1.031-.735v-5.156a.376.376 0 0 1 .094.125L5.78-.125c.078.11.094.125.157.125.14 0 .14-.062.14-.266v-5.468c0-.266 0-.735 1.031-.735m0 0"/><path id="i" d="M6.453-1.812c0-.86-.812-1.61-1.906-1.735.953-.187 1.64-.812 1.64-1.547 0-.875-.906-1.687-2.203-1.687H.36v.312h.235c.765 0 .781.11.781.469v5.219c0 .36-.016.469-.781.469H.359V0H4.25c1.313 0 2.203-.89 2.203-1.812M5.234-5.094c0 .625-.484 1.469-1.593 1.469H2.203v-2.453c0-.328.016-.39.485-.39h1.234c.953 0 1.312.843 1.312 1.374m.235 3.266c0 .703-.516 1.516-1.547 1.516H2.687c-.468 0-.484-.063-.484-.391v-2.703h1.86c.984 0 1.406.922 1.406 1.578m0 0"/><path id="r" d="M7.297-2.406v-.297l-1.219.031c-.39 0-1.234 0-1.594-.031v.297h.313c.89 0 .922.11.922.484v.625c0 1.125-1.25 1.203-1.532 1.203-.64 0-2.609-.343-2.609-3.297 0-2.968 1.953-3.296 2.547-3.296 1.063 0 1.969.89 2.172 2.359.016.125.016.156.156.156.156 0 .156-.031.156-.234V-6.75c0-.172 0-.25-.109-.25-.047 0-.078 0-.156.125l-.5.734C5.53-6.453 4.984-7 4.016-7 2.156-7 .563-5.422.563-3.39.563-1.36 2.14.218 4.03.218c.719 0 1.516-.266 1.86-.844.125.219.515.61.625.61.093 0 .093-.079.093-.22v-1.734c0-.375.032-.437.688-.437m0 0"/><path id="v" d="M6.797-4.484 6.609-6.72H.547L.359-4.484h.25C.75-6.078.891-6.406 2.391-6.406c.172 0 .437 0 .53.015.22.047.22.157.22.375V-.78c0 .328 0 .469-1.047.469h-.39V0c.405-.031 1.405-.031 1.874-.031.453 0 1.469 0 1.875.031v-.312h-.39c-1.047 0-1.047-.141-1.047-.47v-5.234c0-.203 0-.328.187-.375.11-.015.375-.015.563-.015 1.5 0 1.64.328 1.78 1.922Zm0 0"/><path id="w" d="M7.203 0v-.312h-.187c-.516 0-.72-.047-.938-.36L3.984-3.828l1.36-2c.218-.313.562-.625 1.437-.64v-.313l-1.093.031c-.407 0-.875 0-1.266-.031v.312c.39.016.61.235.61.453 0 .11-.016.125-.095.235L3.813-4.11l-1.28-1.907c-.016-.03-.079-.109-.079-.156 0-.125.219-.281.656-.297v-.312c-.343.031-1.078.031-1.453.031L.36-6.781v.312h.204c.53 0 .734.063.921.344l1.813 2.766L1.672-.97c-.14.203-.438.657-1.438.657V0l1.11-.031c.36 0 .906 0 1.265.031v-.312c-.453 0-.625-.266-.625-.454 0-.093.032-.125.094-.234L3.5-3.078l1.563 2.36c.015.046.046.077.046.109 0 .125-.218.297-.64.297V0c.343-.031 1.062-.031 1.437-.031Zm0 0"/><path id="x" d="M7.156-3.36c0-2.03-1.5-3.64-3.312-3.64C2.078-7 .563-5.406.563-3.36.563-1.327 2.077.22 3.843.22c1.813 0 3.313-1.578 3.313-3.578M6.125-3.5c0 2.625-1.36 3.453-2.266 3.453-.953 0-2.28-.86-2.28-3.453 0-2.578 1.452-3.25 2.265-3.25.875 0 2.281.703 2.281 3.25m0 0"/><path id="j" d="M2.922-6.344c0-.25 0-.265-.235-.265-.609.64-1.484.64-1.796.64v.297c.187 0 .78 0 1.297-.25v5.14c0 .36-.032.47-.922.47H.938V0c.359-.031 1.218-.031 1.609-.031.406 0 1.265 0 1.61.031v-.312h-.313c-.89 0-.922-.11-.922-.47Zm0 0"/><path id="k" d="M4.563-3.172c0-.797-.047-1.594-.391-2.328-.469-.953-1.281-1.11-1.688-1.11-.593 0-1.328.266-1.734 1.188-.312.672-.36 1.453-.36 2.25 0 .735.032 1.64.438 2.39.438.798 1.156 1 1.64 1C3 .219 3.767.017 4.204-.936c.313-.688.36-1.454.36-2.235M2.469 0c-.39 0-.969-.25-1.156-1.203-.11-.594-.11-1.5-.11-2.094 0-.625 0-1.281.094-1.828.187-1.172.922-1.266 1.172-1.266.328 0 .984.172 1.172 1.157.093.562.093 1.312.093 1.937 0 .75 0 1.422-.109 2.063C3.485-.297 2.922 0 2.469 0m0 0"/><path id="l" d="M5.89-.625c.126.219.516.61.626.61.093 0 .093-.079.093-.22v-1.734c0-.375.032-.437.688-.437v-.297c-.375 0-.922.031-1.219.031-.39 0-1.234 0-1.594-.031v.297h.313c.89 0 .922.11.922.484v.625c0 1.125-1.25 1.203-1.532 1.203-.64 0-2.609-.343-2.609-3.297 0-2.968 1.953-3.296 2.547-3.296 1.063 0 1.969.89 2.172 2.359.016.125.016.156.156.156.156 0 .156-.031.156-.234V-6.75c0-.172 0-.25-.109-.25-.047 0-.078 0-.156.125l-.5.734C5.53-6.453 4.984-7 4.016-7 2.156-7 .563-5.422.563-3.39.563-1.36 2.14.218 4.03.218c.719 0 1.516-.266 1.86-.844m0 0"/><path id="m" d="M6.078-6c0-.36.031-.469.781-.469h.25v-.312c-.359.031-1.093.031-1.468.031s-1.11 0-1.47-.031v.312h.25c.75 0 .782.11.782.469v2.313H2.234V-6c0-.36.016-.469.782-.469h.234v-.312c-.344.031-1.078.031-1.453.031s-1.125 0-1.469-.031v.312h.235c.765 0 .78.11.78.469v5.219c0 .36-.015.469-.78.469H.328V0c.344-.031 1.078-.031 1.453-.031s1.125 0 1.469.031v-.312h-.234c-.766 0-.782-.11-.782-.47v-2.593h2.97v2.594c0 .36-.032.469-.782.469h-.25V0c.36-.031 1.094-.031 1.469-.031s1.109 0 1.468.031v-.312h-.25c-.75 0-.78-.11-.78-.47Zm0 0"/><path id="n" d="M3.875-3.984c.078-.11.078-.125.078-.157 0-.14-.078-.14-.25-.14H.531l-.11 1.61h.25C.72-3.689.907-4.064 2-4.064h1.14L.36-.312C.28-.202.28-.186.28-.14.281 0 .344 0 .531 0h3.282l.171-1.86h-.25C3.641-.686 3.438-.25 2.281-.25H1.11Zm0 0"/><path id="o" d="M1.266-.766 2.313-1.78c1.546-1.375 2.14-1.906 2.14-2.907 0-1.125-.89-1.921-2.11-1.921C1.235-6.61.5-5.687.5-4.812c0 .562.484.562.516.562a.516.516 0 0 0 .515-.531c0-.266-.172-.516-.515-.516-.079 0-.11 0-.125.016.218-.657.75-1.016 1.328-1.016.906 0 1.328.797 1.328 1.61 0 .796-.485 1.578-1.031 2.203L.609-.36C.5-.266.5-.234.5 0h3.672l.281-1.719h-.25c-.047.297-.11.735-.219.875-.062.078-.718.078-.937.078Zm0 0"/><path id="q" d="M2.922-1.64v.859c0 .36-.031.469-.766.469h-.203V0c.406-.031.922-.031 1.344-.031.406 0 .937 0 1.344.031v-.312h-.203c-.735 0-.75-.11-.75-.47v-.859h.984v-.296h-.984v-4.516c0-.203 0-.266-.172-.266-.079 0-.11 0-.188.125L.281-1.937v.296Zm.047-.298H.563L2.969-5.64Zm0 0"/><path id="y" d="M6.156-5.797c.14-.375.407-.656 1.094-.672v-.312c-.312.031-.719.031-.969.031-.297 0-.875-.016-1.125-.031v.312c.516.016.719.266.719.5 0 .078-.031.14-.047.188L4.016-.984 2.109-6c-.062-.14-.062-.156-.062-.187 0-.282.578-.282.828-.282v-.312c-.36.031-1.047.031-1.422.031-.484 0-.906-.016-1.265-.031v.312c.64 0 .828 0 .968.375L3.47 0c.062.188.11.219.234.219.172 0 .203-.047.25-.188Zm0 0"/><path id="p" d="M2.016-.016c0-.656-.25-1.03-.641-1.03a.5.5 0 0 0-.516.515c0 .265.188.531.516.531.125 0 .25-.047.344-.125.031-.031.047-.031.062-.031 0 0 .016 0 .016.14 0 .735-.344 1.329-.672 1.657-.11.109-.11.14-.11.172 0 .062.048.109.094.109.11 0 .907-.766.907-1.938m0 0"/><path id="z" d="M-1.812-.703v-3.625a.207.207 0 0 0-.204-.203c-.109 0-.187.093-.187.203v3.625c0 .11.078.187.187.187.11 0 .204-.078.204-.187m0 0"/><path id="A" d="M-4.453-1.11c.031-.109.11-.421.11-.75 0-1-.704-1.593-.829-1.593-.078 0-.11.047-.11.094 0 .015 0 .03.048.093.109.313.203.672.203 1.11 0 .469-.11.86-.203 1.094-.047.093-.047.109-.047.109 0 .11.093.11.234.11h2.328c.14 0 .235 0 .235-.126 0-.078-.032-.094-.094-.14-.125-.094-.531-.391-.531-1.063 0-.453.375-.656.515-.734.297-.14.656-.156.969-.156.297 0 .719.015 1.063.234.25.156.484.469.484.89 0 .516-.313 1.032-.828 1.204v-.079c0-.218-.14-.39-.39-.39-.298 0-.391.234-.391.39 0 .141.078.391.421.391.704 0 1.438-.625 1.438-1.531 0-.984-.781-1.828-1.766-1.828-.922 0-1.734.656-1.734 1.594 0 .406.125.78.406 1.078Zm0 0"/><path id="B" d="M-5.422-2.61h.266c0-.546.047-.609.437-.609h1.672A1.441 1.441 0 0 0-3.5-2.156c0 1 .766 1.875 1.797 1.875.969 0 1.781-.797 1.781-1.797 0-.469-.219-.844-.5-1.11h.5L0-4.39h-.266c0 .532-.046.594-.437.594h-4.813Zm4.438-.578c.14 0 .172 0 .328.11.328.234.515.594.515.969 0 .359-.187.687-.484.875-.312.203-.703.25-1.078.25-.453 0-.781-.079-1.063-.25a1.14 1.14 0 0 1-.515-.953c0-.391.187-.766.61-1Zm0 0"/><path id="C" d="M-5.422-.375h.266v-.187c0-.61.078-.625.375-.625h4.14c.297 0 .375.015.375.625v.187H0v-3.25C0-4.719-.703-5.5-1.453-5.5c-.64 0-1.266.625-1.375 1.61-.188-.86-.719-1.36-1.25-1.36-.703 0-1.344.797-1.344 1.86Zm2.5-1.484h-1.906c-.281 0-.328-.016-.328-.375v-1.11c0-.781.61-1.14 1.078-1.14.531 0 1.156.468 1.156 1.375Zm2.656-.375c0 .359-.046.375-.328.375h-2.11v-1.61c0-.765.61-1.219 1.25-1.219.642 0 1.188.532 1.188 1.344Zm0 0"/><path id="D" d="M-2.406-6.203c-.64 0-1.094.281-1.094 1.14 0 .735.5 1.11.734 1.235-.578.14-.734.594-.734 1.11 0 .765.547 1.124.766 1.234v.015H-3.5l.094 1.14h.25c0-.53.062-.593.453-.593h2.078c.36 0 .36.094.36.594H0c-.031-.344-.031-.688-.031-.906 0-.22 0-.563.031-.907h-.266c0 .516 0 .61-.359.61h-1.437c-.829 0-1.22-.625-1.22-1.125 0-.516.407-.61.845-.61h1.812c.36 0 .36.094.36.61H0C-.031-3-.031-3.344-.031-3.562c0-.235 0-.563.031-.907h-.266c0 .516 0 .61-.359.61h-1.437c-.829 0-1.22-.641-1.22-1.141 0-.516.407-.594.845-.594h1.812c.36 0 .36.094.36.594H0c-.031-.328-.031-.687-.031-.89 0-.235 0-.579.031-.907h-.266c0 .5 0 .594-.359.594Zm0 0"/><path id="E" d="M-5.062-2.5c-.204 0-.22.031-.22.234.329.329.516.75.516 1.5h.25c0-.203 0-.64-.203-1.093h4.063c.297 0 .39.015.39.765v.282H0c-.031-.329-.031-1-.031-1.36 0-.36 0-1.047.031-1.375h-.266v.281c0 .75-.093.766-.39.766Zm0 0"/><path id="F" d="M-2.625-1.094c-.656 0-1.234-.062-1.719-.343-.406-.235-.734-.641-.734-1.141 0-.156.031-.531.312-.703.016.36.282.39.375.39.235 0 .36-.187.36-.375 0-.14-.078-.375-.375-.375-.485 0-.875.36-.875 1.063 0 1.11 1.047 2.234 2.765 2.234 2.157 0 2.688-1 2.688-1.781 0-.375-.11-.781-.453-1.14-.313-.329-.64-.594-1.328-.594-1.047 0-1.766.78-1.766 1.672 0 .562.36.906.75 1.093m2.547-1.031c0 .422-.281.688-.516.813-.343.171-.89.187-1.187.187-.797 0-1.375-.422-1.375-1.031 0-.406.203-.64.484-.781.297-.172.64-.172 1.047-.172.406 0 .766 0 1.047.156.36.203.5.484.5.828m0 0"/><path id="G" d="M-5.14-3.125c-.157 0-.22 0-.22.172 0 .094.016.11.126.187l3.672 2.532h.265V-2.47h.656c.297 0 .375.016.375.625v.188H0c-.031-.672-.031-.688-.031-1.14 0-.454 0-.47.031-1.142h-.266v.172c0 .61-.078.641-.375.641h-.656v-.844h-.266v.844Zm.64.594h2.938v2.015Zm0 0"/><path id="H" d="M-2.656-2.016c0-.625.469-1.015 1.297-1.015 1 0 1.28.562 1.28.984 0 .438-.155 1.031-.577 1.313 0-.297-.172-.485-.438-.485a.418.418 0 0 0-.437.438c0 .203.14.437.453.437.75 0 1.25-.812 1.25-1.719 0-1.062-.734-1.796-1.531-1.796-.657 0-1.266.53-1.438 1.328-.219-.625-.765-1.094-1.39-1.094-.641 0-1.094.719-1.094 1.547 0 .844.468 1.484 1.062 1.484.297 0 .422-.187.422-.39 0-.25-.172-.407-.406-.407-.297 0-.406.25-.406.422-.438-.328-.47-.937-.47-1.094 0-.203.063-.796.891-.796.547 0 .891.218 1.016.328.25.25.266.422.297.906 0 .156.016.219.11.219.109 0 .109-.063.109-.203Zm0 0"/><path id="I" d="M-2.531-3.875c-.844 0-1.36.078-1.875.344-.703.344-.875.984-.875 1.422 0 1 .75 1.375.968 1.484.579.281 1.375.297 1.782.297.515 0 1.328-.016 1.953-.406.594-.36.75-.953.75-1.375 0-.375-.125-1.063-.906-1.453-.578-.297-1.282-.313-1.797-.313m2.469 1.766c0 .28-.125.828-.954.984-.453.094-1.203.094-1.609.094-.547 0-1.11 0-1.547-.094-.812-.156-.89-.781-.89-.984 0-.266.14-.813.859-.97.437-.093 1.031-.093 1.578-.093.469 0 1.188 0 1.625.094.828.172.938.719.938.969m0 0"/><path id="K" d="M-4.625-7.703c-.328-.11-.531-.328-.531-.797h-.266c.031.266.031.531.031.781 0 .235 0 .485-.03.922h.265c0-.437.203-.672.422-.672.03 0 .046 0 .156.047l3.672 1.266-3.86 1.328c-.109.047-.125.047-.14.047-.25 0-.25-.422-.25-.64h-.266c.031.671.031.687.031 1.093 0 .297 0 .625-.03.984h.265c0-.422.015-.547.14-.64.11-.063.579-.203.579-.203.015 0 .093.03.093.03l3.438 1.188-3.875 1.328c-.094.032-.11.032-.125.032-.25 0-.25-.422-.25-.641h-.266c.031.672.031.688.031 1.094 0 .312 0 .64-.03 1h.265c0-.469 0-.61.297-.719l4.843-1.672c.11-.031.188-.062.188-.187 0-.11-.078-.157-.188-.188l-4.046-1.406 4.046-1.39c.094-.032.188-.063.188-.188 0-.14-.078-.172-.188-.203Zm0 0"/><path id="L" d="M-1.625-2.234c-.11-.125-.375-.47-.484-.594-.453-.485-.891-.953-1.61-.953C-4.672-3.781-5.28-3-5.28-2c0 .953.718 1.578 1.437 1.578.39 0 .438-.312.438-.422a.405.405 0 0 0-.422-.406c-.406 0-.406.39-.406.484-.578-.218-.782-.765-.782-1.14 0-.75.625-1.125 1.297-1.125.828 0 1.422.578 2.39 1.515l1.032 1c.078.094.094.094.297.094v-3.14l-1.422-.22v.235c.156.031.563.094.703.188.063.046.063.656.063.78v1.407Zm0 0"/><path id="J" d="M-.125-1.484c.516 0 .969.109 1.469.609.015.031.031.047.078.047.062 0 .11-.063.11-.125 0-.094-.626-.75-1.563-.75-.5 0-.844.187-.844.531 0 .281.219.438.438.438.218 0 .437-.141.437-.438 0-.187-.11-.312-.125-.312m0 0"/><clipPath id="a"><path d="M.191 88H26v26H.191Zm0 0"/></clipPath><clipPath id="s"><path d="M62 113h1v75.535h-1Zm0 0"/></clipPath><clipPath id="t"><path d="M62 150h57v38.535H62Zm0 0"/></clipPath><clipPath id="u"><path d="M118 150h51v38.535h-51Zm0 0"/></clipPath></defs><g clip-path="url(#a)"><path fill="none" stroke="#000" stroke-miterlimit="10" stroke-width=".7939235800000001" d="M.59 88.66h24.543v24.543H.59Zm0 0"/></g><use xlink:href="#b" x="5.899" y="104.321"/><use xlink:href="#c" x="12.657" y="104.321"/><path fill="none" stroke="#000" stroke-miterlimit="10" stroke-width=".39745986000000005" d="M25.133 100.93h12.523m0 0h12.52"/><path d="M29.332 100.93v-1.977l-4.2 1.977 4.2 1.976Zm0 0"/><path fill="none" stroke="#000" stroke-miterlimit="10" stroke-width=".7939235800000001" d="M50.176 88.66h24.543v24.543H50.176Zm0 0"/><use xlink:href="#d" x="52.246" y="104.321"/><use xlink:href="#e" x="57.764" y="104.321"/><use xlink:href="#f" x="65.346" y="104.321"/><path d="M45.977 100.93v1.976l4.199-1.976-4.2-1.977Zm0 0"/><path fill="none" stroke="#000" stroke-miterlimit="10" stroke-width=".39745986000000005" d="M74.719 94.797h4.383m0 0h4.382V79.145m0 0V63.488h11.274m0 0h11.27"/><path d="M78.922 94.797V92.82l-4.203 1.977 4.203 1.976Zm0 0"/><path fill="none" stroke="#000" stroke-miterlimit="10" stroke-width=".7939235800000001" d="M106.027 51.219h24.543v24.543h-24.543Zm0 0"/><path fill="none" stroke="#000" stroke-miterlimit="10" stroke-width=".39745986000000005" d="M108.48 69.625h3.68m0 0v-3.68m0 3.68v3.684m2.457-3.684v-3.68m0 3.68v3.684m0-3.684h3.68"/><path d="M119.219 69.625a.92.92 0 1 0-1.84.005.92.92 0 0 0 1.84-.005m0 0"/><path fill="none" stroke="#000" stroke-miterlimit="10" stroke-width=".39745986000000005" d="M118.297 69.625h9.816M118.297 69.625v-3.68M118.297 65.945c.61 0 1.105-.496 1.105-1.105 0-.61-.496-1.106-1.105-1.106m0 0a1.104 1.104 0 1 0 0-2.207m0 0c.61 0 1.105-.496 1.105-1.105 0-.61-.496-1.106-1.105-1.106m0-.246a1.104 1.104 0 1 0 0-2.207M118.297 57.11v-3.438M130.57 63.488h12.524m0 0h12.52"/><path d="M134.77 63.488v-1.976l-4.2 1.976 4.2 1.977Zm0 0"/><path fill="none" stroke="#000" stroke-miterlimit="10" stroke-width=".7939235800000001" d="M155.613 51.219h24.543v24.543h-24.543Zm0 0"/><use xlink:href="#g" x="157.548" y="66.88"/><use xlink:href="#h" x="163.75" y="66.88"/><use xlink:href="#i" x="171.193" y="66.88"/><path fill="none" stroke="#000" stroke-miterlimit="10" stroke-width=".39745986000000005" d="M180.156 63.488h12.524m0 0h12.523v-12.52m0 0V38.446"/><path fill="none" stroke="#000" stroke-linejoin="bevel" stroke-miterlimit="10" stroke-width=".7939235800000001" d="m205.203 38.445 8.766-17.531h-17.531Zm0 0"/><path fill="none" stroke="#000" stroke-miterlimit="10" stroke-width=".39745986000000005" d="M205.203 38.445V20.914"/><use xlink:href="#j" x="189.589" y="17.409"/><use xlink:href="#k" x="194.551" y="17.409"/><use xlink:href="#l" x="201.161" y="17.409"/><use xlink:href="#m" x="208.948" y="17.409"/><use xlink:href="#n" x="216.391" y="17.409"/><path fill="none" stroke="#000" stroke-miterlimit="10" stroke-width=".39745986000000005" d="M74.719 107.066h4.383m0 0h4.382v15.653m0 0v15.656h11.274m0 0h11.27"/><path d="M101.824 138.375v1.977l4.203-1.977-4.203-1.977Zm0 0"/><path fill="none" stroke="#000" stroke-miterlimit="10" stroke-width=".7939235800000001" d="M106.027 126.102h24.543v24.543h-24.543Zm0 0"/><path fill="none" stroke="#000" stroke-miterlimit="10" stroke-width=".39745986000000005" d="m109.707 128.926 17.18 9.449-17.18 9.45ZM130.57 138.375h12.524m0 0h12.52"/><path d="M151.414 138.375v1.977l4.2-1.977-4.2-1.977Zm0 0"/><path fill="none" stroke="#000" stroke-miterlimit="10" stroke-width=".7939235800000001" d="M155.613 126.102h24.543v24.543h-24.543Zm0 0"/><path fill="none" stroke="#000" stroke-miterlimit="10" stroke-width=".39745986000000005" d="m159.297 128.926 17.18 9.449-17.18 9.45ZM180.156 138.375h12.524m0 0h12.523v-12.523m0 0v-12.524"/><path fill="none" stroke="#000" stroke-linejoin="bevel" stroke-miterlimit="10" stroke-width=".7939235800000001" d="m205.203 113.328-8.765-17.531h17.53Zm0 0"/><path fill="none" stroke="#000" stroke-miterlimit="10" stroke-width=".39745986000000005" d="M205.203 113.328V95.797"/><use xlink:href="#o" x="188.211" y="90.363"/><use xlink:href="#p" x="193.173" y="90.363"/><use xlink:href="#q" x="195.93" y="90.363"/><use xlink:href="#l" x="202.539" y="90.363"/><use xlink:href="#m" x="210.327" y="90.363"/><use xlink:href="#n" x="217.77" y="90.363"/><path fill="none" stroke="#000" stroke-miterlimit="10" stroke-width=".39745986000000005" d="M62.45 88.66V63.617m0 0V38.57"/><path d="M62.45 84.46h-1.977l1.976 4.2 1.977-4.2Zm0 0"/><path fill="none" stroke="#000" stroke-miterlimit="10" stroke-width=".7939235800000001" d="M50.176 14.027h24.543V38.57H50.176Zm0 0"/><path fill="none" stroke="#000" stroke-miterlimit="10" stroke-width=".39745986000000005" d="M63.984 20.777c.5-.785.977-1.535 1.532-1.535.554 0 1.035.75 1.535 1.535.5.785.976 1.535 1.535 1.535.555 0 1.031-.75 1.531-1.535M63.984 23.844c.5-.785.977-1.532 1.532-1.532.554 0 1.035.747 1.535 1.532s.976 1.535 1.535 1.535c.555 0 1.031-.75 1.531-1.535M63.984 26.914c.5-.785.977-1.535 1.532-1.535.554 0 1.035.75 1.535 1.535.5.785.976 1.531 1.535 1.531.555 0 1.031-.746 1.531-1.53"/><use xlink:href="#r" x="53.03" y="26.622"/><path fill="none" stroke="#000" stroke-miterlimit="10" stroke-width=".39745986000000005" d="M53.86 30.594h17.18M53.86 34.89h17.18v-2.456H53.86ZM53.86 36.73h17.18M118.297 51.219v-6.324m0 0V38.57"/><path d="M118.297 47.02h-1.977l1.977 4.199 1.976-4.2Zm0 0"/><path fill="none" stroke="#000" stroke-miterlimit="10" stroke-width=".7939235800000001" d="M106.027 14.027h24.543V38.57h-24.543Zm0 0"/><use xlink:href="#e" x="110.922" y="29.69"/><use xlink:href="#c" x="118.504" y="29.69"/><path fill="none" stroke="#000" stroke-miterlimit="10" stroke-width=".39745986000000005" d="M167.887 51.219v-6.324m0 0V38.57"/><path d="M167.887 47.02h-1.977l1.977 4.199 1.976-4.2Zm0 0"/><path fill="none" stroke="#000" stroke-miterlimit="10" stroke-width=".7939235800000001" d="M155.613 14.027h24.543V38.57h-24.543Zm0 0"/><path fill="none" stroke="#000" stroke-miterlimit="10" stroke-width=".39745986000000005" d="M169.418 20.777c.5-.785.98-1.535 1.535-1.535.555 0 1.035.75 1.535 1.535.5.785.977 1.535 1.535 1.535.555 0 1.032-.75 1.532-1.535M169.418 23.844c.5-.785.98-1.532 1.535-1.532.555 0 1.035.747 1.535 1.532s.977 1.535 1.535 1.535c.555 0 1.032-.75 1.532-1.535M169.418 26.914c.5-.785.98-1.535 1.535-1.535.555 0 1.035.75 1.535 1.535.5.785.977 1.531 1.535 1.531.555 0 1.032-.746 1.532-1.53"/><use xlink:href="#r" x="158.466" y="26.622"/><path fill="none" stroke="#000" stroke-miterlimit="10" stroke-width=".39745986000000005" d="M159.297 30.594h17.18M159.297 34.89h17.18v-2.456h-17.18ZM159.297 36.73h17.18"/><g clip-path="url(#s)"><path fill="none" stroke="#000" stroke-dasharray="2.9772931162000003 2.9772931162000003" stroke-miterlimit="10" stroke-width=".39745986000000005" d="M62.45 113.203v37.567m0 0v37.566"/></g><g clip-path="url(#t)"><path fill="none" stroke="#000" stroke-dasharray="2.9772931162000003 2.9772931162000003" stroke-miterlimit="10" stroke-width=".39745986000000005" d="M62.45 188.336h55.847v-37.691"/></g><path d="M118.297 154.844h1.976l-1.976-4.2-1.977 4.2Zm0 0"/><g clip-path="url(#u)"><path fill="none" stroke="#000" stroke-dasharray="2.9772931162000003 2.9772931162000003" stroke-miterlimit="10" stroke-width=".39745986000000005" d="M118.297 188.336h49.59v-37.691"/></g><path d="M167.887 154.844h1.976l-1.976-4.2-1.977 4.2Zm0 0"/><use xlink:href="#v" x="47.839" y="10.304"/><use xlink:href="#w" x="55.004" y="10.304"/><use xlink:href="#c" x="62.169" y="10.304"/><use xlink:href="#x" x="69.335" y="10.304"/><use xlink:href="#v" x="153.275" y="10.304"/><use xlink:href="#w" x="160.44" y="10.304"/><use xlink:href="#c" x="167.606" y="10.304"/><use xlink:href="#x" x="174.771" y="10.304"/><use xlink:href="#b" x="37.853" y="154.159"/><use xlink:href="#v" x="44.611" y="154.159"/><use xlink:href="#v" x="51.776" y="154.159"/><use xlink:href="#j" x="108.716" y="10.522"/><use xlink:href="#o" x="113.678" y="10.522"/><use xlink:href="#y" x="120.287" y="10.522"/><use xlink:href="#z" x="97.511" y="134.867"/><use xlink:href="#A" x="97.511" y="129.836"/><use xlink:href="#B" x="97.511" y="124.3"/><use xlink:href="#C" x="97.511" y="119.614"/><use xlink:href="#D" x="97.511" y="113.643"/><use xlink:href="#E" x="145.847" y="134.867"/><use xlink:href="#F" x="145.847" y="130.649"/><use xlink:href="#B" x="145.847" y="125.113"/><use xlink:href="#C" x="145.847" y="120.426"/><use xlink:href="#D" x="145.847" y="114.455"/><use xlink:href="#G" x="195.434" y="134.867"/><use xlink:href="#H" x="195.434" y="130.649"/><use xlink:href="#B" x="195.434" y="125.113"/><use xlink:href="#C" x="195.434" y="120.426"/><use xlink:href="#D" x="195.434" y="114.455"/><use xlink:href="#I" x="96.696" y="169.791"/><use xlink:href="#J" x="96.696" y="165.573"/><use xlink:href="#H" x="96.696" y="163.23"/><use xlink:href="#D" x="96.696" y="157.694"/><use xlink:href="#K" x="96.696" y="150.664"/><use xlink:href="#H" x="145.802" y="167.447"/><use xlink:href="#I" x="145.802" y="163.228"/><use xlink:href="#D" x="145.802" y="157.692"/><use xlink:href="#K" x="145.802" y="150.663"/><use xlink:href="#L" x="195.39" y="167.447"/><use xlink:href="#I" x="195.39" y="163.228"/><use xlink:href="#D" x="195.39" y="157.692"/><use xlink:href="#K" x="195.39" y="150.663"/></svg>