<svg xmlns="http://www.w3.org/2000/svg" xmlns:xlink="http://www.w3.org/1999/xlink" width="228.803" height="80.781"><defs><path id="c" d="M4.86-6.766c0-.734-.516-1.625-2.22-1.625-1.296 0-2 .829-2 1.594 0 .438.329.531.5.531.204 0 .5-.14.5-.5 0-.28-.202-.5-.515-.5-.062 0-.094 0-.11.016.266-.625.954-.906 1.579-.906 1.36 0 1.36.875 1.36 1.328 0 .703-.22.922-.423 1.14a4.132 4.132 0 0 0-1.078 2.704v.578c0 .219 0 .265.14.265.126 0 .126-.093.126-.296v-.454c0-.703.281-1.75 1.484-2.64.344-.25.656-.625.656-1.235M3.155-.578a.584.584 0 0 0-.562-.578A.58.58 0 0 0 2-.578c0 .36.281.578.578.578a.577.577 0 0 0 .578-.578m0 0"/><path id="f" d="M7.297-2.406v-.313l-1.203.031c-.407 0-1.25 0-1.61-.03v.312h.329c.89 0 .921.11.921.484v.625c0 1.125-1.265 1.203-1.546 1.203-.641 0-2.61-.343-2.61-3.312s1.953-3.297 2.563-3.297c1.062 0 1.968.906 2.156 2.36.016.14.016.171.156.171.172 0 .172-.031.172-.234v-2.36c0-.171 0-.234-.11-.234-.046 0-.093 0-.171.11l-.485.734C5.531-6.47 5-7 4.016-7 2.172-7 .563-5.437.563-3.406.563-1.36 2.14.219 4.03.219c.735 0 1.532-.266 1.86-.844.125.219.53.61.64.61.094 0 .094-.079.094-.22v-1.734c0-.39.031-.437.672-.437m0 0"/><path id="n" d="M7.11-6.484v-.297l-1.157.031-1.156-.031v.297c1.016 0 1.016.468 1.016.734v4.25l-3.5-5.156c-.094-.125-.11-.125-.297-.125H.328v.297H.61c.157 0 .36.015.5.03.235.032.235.032.235.22v5.187c0 .266 0 .734-1.016.734V0l1.156-.031L2.656 0v-.312c-1.031 0-1.031-.47-1.031-.735v-5.172c.047.063.063.063.11.125L5.78-.125c.094.11.11.125.172.125.14 0 .14-.062.14-.266V-5.75c0-.266 0-.734 1.016-.734m0 0"/><path id="o" d="M6.063-4.516 5.78-6.75H.328v.297h.235c.765 0 .78.11.78.469v5.203c0 .36-.015.469-.78.469H.328V0c.344-.031 1.125-.031 1.516-.031.406 0 1.312 0 1.672.031v-.312h-.328c-.954 0-.954-.125-.954-.47v-2.452h.86c.953 0 1.047.328 1.047 1.172h.25v-2.641h-.25c0 .844-.094 1.172-1.047 1.172h-.86v-2.516c0-.328.016-.406.485-.406h1.203c1.484 0 1.734.562 1.89 1.937Zm0 0"/><path id="p" d="M6.61-2.312c0-.11 0-.172-.126-.172-.109 0-.109.062-.125.156C6.281-.906 5.22-.094 4.141-.094c-.61 0-2.563-.328-2.563-3.297 0-2.968 1.938-3.312 2.547-3.312 1.078 0 1.969.906 2.172 2.36.016.14.016.171.156.171.156 0 .156-.031.156-.234v-2.36c0-.171 0-.234-.109-.234-.047 0-.078 0-.156.11l-.5.734C5.469-6.516 4.969-7 4.016-7 2.156-7 .563-5.422.563-3.406.563-1.344 2.172.219 4.015.219c1.625 0 2.593-1.375 2.593-2.531m0 0"/><path id="q" d="M7.172-3.375C7.172-5.391 5.672-7 3.859-7 2.08-7 .563-5.422.563-3.375c0 2.047 1.53 3.594 3.296 3.594 1.813 0 3.313-1.578 3.313-3.594m-1.031-.14c0 2.64-1.36 3.468-2.282 3.468-.953 0-2.28-.875-2.28-3.469 0-2.562 1.452-3.234 2.28-3.234.86 0 2.282.703 2.282 3.234m0 0"/><path id="r" d="M7.25-6.484v-.297c-.297.015-.703.031-.953.031l-1.14-.031v.297c.515.015.734.265.734.5 0 .078-.032.14-.063.203L4.016-1 2.109-6.016c-.046-.14-.046-.171-.046-.171 0-.297.562-.297.812-.297v-.297c-.36.031-1.047.031-1.422.031L.188-6.781v.297c.64 0 .843 0 .968.375L3.47 0c.062.188.125.219.25.219.172 0 .187-.047.234-.188l2.219-5.843c.14-.375.406-.657 1.078-.672m0 0"/><path id="k" d="M6.031 0v-.266h-.125c-.5 0-.578-.062-.687-.328L3.359-5.5c-.03-.11-.062-.172-.187-.172-.156 0-.172.063-.219.172L1.188-.812c-.079.203-.25.546-.907.546V0c.266-.031.688-.031.828-.031.25 0 .485 0 .875.031v-.266c-.343 0-.546-.156-.546-.39 0-.063 0-.078.03-.172l.376-1h2.172l.437 1.187C4.5-.547 4.5-.5 4.5-.5c0 .234-.422.234-.64.234V0l1.124-.031c.454 0 .594 0 1.047.031M3.906-2.078H1.937l.985-2.61Zm0 0"/><path id="l" d="M4.922-2.062h-.25C4.578-1.235 4.469-.266 3-.266h-.734c-.36 0-.375-.046-.375-.328V-4.78c0-.282 0-.39.734-.39h.266v-.266c-.36.03-.938.03-1.313.03l-1.234-.03v.265H.53c.61 0 .625.094.625.39V-.64c0 .297-.015.375-.625.375H.344V0h4.344Zm0 0"/><path id="m" d="M5.625-1.86c0-.077 0-.156-.125-.156-.094 0-.11.047-.125.125C5.313-.67 4.328-.094 3.485-.094c-.672 0-2.188-.422-2.188-2.625 0-2.14 1.437-2.625 2.187-2.625.75 0 1.672.547 1.875 1.907.016.062.016.124.125.124.141 0 .141-.062.141-.203V-5.39c0-.125 0-.203-.11-.203-.046 0-.062 0-.124.11l-.407.578c-.296-.297-.812-.688-1.578-.688C1.812-5.594.47-4.312.47-2.719c0 1.61 1.328 2.89 2.937 2.89 1.344 0 2.219-1.062 2.219-2.03m0 0"/><path id="s" d="M5.266-3.937c0-.782-.828-1.5-1.985-1.5H.36v.265h.188c.61 0 .625.094.625.39V-.64c0 .297-.016.375-.625.375H.359V0l1.172-.031L2.703 0v-.266h-.172c-.61 0-.625-.078-.625-.375v-1.843h1.438c.984 0 1.922-.625 1.922-1.453m-.813 0c0 .343 0 1.218-1.375 1.218H1.875v-2.125c0-.265.016-.328.39-.328h.813c1.375 0 1.375.875 1.375 1.234m0 0"/><path id="t" d="m5.797-3.578-.172-1.797H.469L.297-3.578h.25C.657-4.922.844-5.11 2.062-5.11c.157 0 .391 0 .454.015.156.032.172.11.172.313v4.125c0 .281 0 .39-.829.39h-.312V0c.297-.031 1.156-.031 1.5-.031.344 0 1.203 0 1.5.031v-.266h-.313c-.828 0-.828-.109-.828-.39v-4.125c0-.188 0-.282.172-.313.078-.015.297-.015.453-.015 1.219 0 1.407.187 1.516 1.53Zm0 0"/><path id="u" d="M3.047-3c0-.281-.25-.5-.594-.5-.515 0-.875.375-1.031.828h-.016V-3.5l-1.125.078v.266c.532 0 .594.047.594.437v2.094c0 .36-.094.36-.594.36V0c.313-.031.75-.031.938-.031.468 0 .484 0 1 .031v-.266h-.156c-.579 0-.594-.078-.594-.375v-1.171c0-.594.234-1.454 1-1.47-.047.032-.125.095-.125.282 0 .234.187.36.36.36.187 0 .343-.141.343-.36m0 0"/><path id="v" d="M3.5-.953c0-.031-.016-.11-.125-.11-.078 0-.094.047-.11.094a1.155 1.155 0 0 1-1.124.797 1.11 1.11 0 0 1-.953-.531c-.235-.36-.235-.875-.235-1.11h2.328c.172 0 .219 0 .219-.187 0-.703-.375-1.547-1.5-1.547-.984 0-1.766.813-1.766 1.813 0 1.015.86 1.812 1.86 1.812C3.109.078 3.5-.766 3.5-.953m-.531-1.063H.953C1.031-3.14 1.703-3.328 2-3.328c.922 0 .953 1.125.969 1.312m0 0"/><path id="w" d="M2.063 0v-.266c-.516 0-.547-.03-.547-.343V-3.5l-1.157.078v.266c.5 0 .579.047.579.437v2.094c0 .36-.094.36-.61.36V0c.313-.031.766-.031.875-.031.11 0 .594 0 .86.031m-.454-4.781a.44.44 0 0 0-.437-.453.45.45 0 0 0-.438.453c0 .218.188.437.438.437s.437-.218.437-.437m0 0"/><path id="x" d="M4.406-1.719c0-1-.812-1.781-1.797-1.781-.625 0-1.015.328-1.14.484v-2.5L.28-5.437v.265c.532 0 .594.063.594.453V0h.25l.297-.5c.187.281.562.578 1.094.578 1.015 0 1.89-.781 1.89-1.797m-.703 0c0 .172 0 .735-.297 1.11a1.18 1.18 0 0 1-.922.468c-.375 0-.687-.203-.906-.515-.094-.14-.094-.156-.094-.313v-1.547c0-.156 0-.171.125-.312.235-.297.61-.453.954-.453.421 0 .734.25.89.484.14.219.25.485.25 1.078m0 0"/><path id="y" d="M7.344 0v-.266h-.172c-.625 0-.64-.078-.64-.375v-4.14c0-.297.015-.39.64-.39h.172v-.266H6c-.219 0-.234.03-.297.171L3.86-.75l-1.843-4.5c-.063-.156-.063-.187-.297-.187H.39v.265h.172c.609 0 .625.094.625.39v3.938c0 .203 0 .578-.797.578V0c.359-.031.734-.031.937-.031.203 0 .578 0 .938.031v-.266c-.797 0-.797-.375-.797-.578v-4.234l2 4.89c.047.094.094.188.203.188.094 0 .14-.094.172-.187l2.031-4.954h.016v4.5c0 .297-.016.375-.641.375h-.172V0l1.14-.031Zm0 0"/><path id="z" d="M3.047-1.031c0-.375-.235-.938-1.172-1.11a10.121 10.121 0 0 0-.547-.093c-.25-.063-.625-.22-.625-.547 0-.235.172-.563.938-.563.89 0 .922.64.937.875.016.063.063.078.125.078.125 0 .125-.046.125-.203v-.75c0-.125 0-.203-.094-.203-.046 0-.062 0-.203.125-.015.016-.078.078-.11.078 0 0-.015 0-.062-.031-.125-.078-.359-.172-.718-.172-1.11 0-1.36.61-1.36.985 0 .406.297.624.313.656.328.234.5.265 1.031.36.375.077.984.187.984.734 0 .296-.203.671-.937.671C.875-.14.64-.766.547-1.187.516-1.281.5-1.328.407-1.328c-.126 0-.126.062-.126.219v.984c0 .125 0 .203.094.203.047 0 .063 0 .203-.156.047-.047.125-.14.172-.188.36.329.734.344.938.344 1.015 0 1.359-.578 1.359-1.11m0 0"/><path id="A" d="M3.5-.953c0-.094-.094-.094-.125-.094-.047 0-.094 0-.11.078-.062.172-.28.797-1.078.797-.5 0-1.203-.375-1.203-1.547 0-1.156.594-1.578 1.172-1.578.078 0 .485 0 .766.14a.348.348 0 0 0-.25.345c0 .218.156.374.375.374a.36.36 0 0 0 .375-.374c0-.5-.547-.735-1.297-.735A1.823 1.823 0 0 0 .281-1.719C.281-.703 1.11.078 2.11.078 3.234.078 3.5-.859 3.5-.953m0 0"/><path id="B" d="M4.469 0v-.266c-.516 0-.61 0-.61-.359v-1.781c0-.672-.296-1.094-1.125-1.094a1.37 1.37 0 0 0-1.218.688v-2.704l-1.188.079v.265c.531 0 .61.063.61.453v4.094c0 .36-.11.36-.61.36V0c.344-.031.688-.031.906-.031.235 0 .563 0 .907.031v-.266c-.516 0-.61 0-.61-.359v-1.437c0-.829.64-1.22 1.125-1.22s.61.345.61.845v1.812c0 .36-.094.36-.61.36V0c.344-.031.688-.031.906-.031.235 0 .563 0 .907.031m0 0"/><path id="C" d="M6.813 0v-.266c-.5 0-.594 0-.594-.359v-1.781c0-.64-.282-1.094-1.157-1.094-.734 0-1.093.5-1.218.719-.14-.563-.594-.719-1.11-.719-.78 0-1.14.547-1.25.75v-.75l-1.156.078v.266c.531 0 .61.047.61.437v2.094c0 .36-.11.36-.61.36V0c.344-.031.688-.031.906-.031.235 0 .563 0 .907.031v-.266c-.516 0-.61 0-.61-.359v-1.437c0-.829.625-1.22 1.14-1.22.517 0 .595.407.595.845v1.812c0 .36-.094.36-.594.36V0c.328-.031.687-.031.906-.031.219 0 .563 0 .906.031v-.266c-.515 0-.609 0-.609-.359v-1.437c0-.829.625-1.22 1.125-1.22.516 0 .61.407.61.845v1.812c0 .36-.094.36-.61.36V0c.344-.031.688-.031.906-.031.235 0 .563 0 .907.031m0 0"/><path id="D" d="M3.984-1.687c0-1-.828-1.86-1.875-1.86-1.046 0-1.875.86-1.875 1.86 0 .984.86 1.765 1.875 1.765 1.032 0 1.875-.781 1.875-1.765m-.718-.079c0 .36-.016.797-.235 1.141-.219.313-.578.453-.922.453-.437 0-.765-.203-.937-.484-.203-.328-.219-.719-.219-1.11 0-.296 0-.78.235-1.125.218-.28.546-.437.921-.437.407 0 .75.203.938.484.219.328.219.766.219 1.078m0 0"/><path id="E" d="M4.406 0v-.266c-.547 0-.61-.046-.61-.437v-4.813l-1.187.079v.265c.547 0 .61.063.61.453v1.672A1.441 1.441 0 0 0 2.156-3.5c-1 0-1.875.766-1.875 1.797 0 .969.797 1.781 1.797 1.781.469 0 .86-.219 1.125-.5v.5ZM3.203-.984c0 .14 0 .172-.125.328a1.174 1.174 0 0 1-.969.515c-.359 0-.671-.187-.875-.484-.203-.312-.25-.703-.25-1.078 0-.453.079-.781.25-1.063.204-.296.563-.515.954-.515.39 0 .765.187 1.015.594Zm0 0"/><path id="F" d="M4.469 0v-.266c-.547 0-.61-.046-.61-.437V-3.5l-1.203.078v.266c.547 0 .61.047.61.437v1.39C3.266-.64 2.844-.14 2.25-.14c-.687 0-.719-.343-.719-.734V-3.5l-1.203.078v.266c.61 0 .61.015.61.734v1.188c0 .578 0 1.312 1.265 1.312.75 0 1.031-.578 1.078-.64v.64Zm0 0"/><path id="G" d="M2.125 0v-.266c-.516 0-.61 0-.61-.359v-4.89l-1.187.077v.266c.547 0 .61.063.61.453v4.094c0 .36-.094.36-.61.36V0c.313-.031.766-.031.89-.031.173 0 .595 0 .907.031m0 0"/><path id="H" d="M4.094-.719v-.437h-.25v.437c0 .328-.125.453-.281.453-.297 0-.297-.359-.297-.453v-1.656c0-.781-.766-1.172-1.485-1.172-.656 0-1.25.25-1.25.781a.36.36 0 0 0 .375.375.361.361 0 0 0 .375-.375c0-.187-.125-.312-.297-.359.297-.203.72-.203.782-.203.453 0 .89.312.89.969v.25c-.469.015-1 .046-1.547.265-.703.313-.843.766-.843 1.032 0 .687.812.89 1.359.89a1.23 1.23 0 0 0 1.11-.64c.046.296.25.609.593.609.078 0 .766-.031.766-.766m-1.438-.406c0 .781-.656.984-.969.984-.421 0-.765-.28-.765-.656 0-.531.5-1.078 1.734-1.11Zm0 0"/><path id="I" d="M2.813-1v-.437h-.25v.421c0 .547-.25.844-.547.844-.532 0-.532-.672-.532-.812v-2.188h1.188v-.25H1.484V-4.89h-.25C1.22-4.17.906-3.406.156-3.39v.22h.719V-1c0 .938.719 1.078 1.078 1.078.531 0 .86-.469.86-1.078m0 0"/><path id="J" d="M5.5-1.453c0-.64-.61-1.281-1.61-1.39.876-.173 1.376-.704 1.376-1.25 0-.704-.797-1.344-1.86-1.344H.375v.265h.188c.609 0 .625.094.625.39V-.64c0 .297-.016.375-.625.375H.375V0h3.25C4.719 0 5.5-.703 5.5-1.453m-1-2.64c0 .546-.484 1.156-1.39 1.156H1.86v-1.907c0-.265.015-.328.39-.328h1.094c.797 0 1.156.61 1.156 1.078m.203 2.624c0 .657-.531 1.203-1.344 1.203H2.25c-.375 0-.39-.046-.39-.328v-2.125h1.609c.781 0 1.234.625 1.234 1.25m0 0"/><path id="K" d="M4.469 0v-.266c-.516 0-.61 0-.61-.359v-1.781c0-.672-.296-1.094-1.125-1.094-.796 0-1.156.563-1.25.75v-.75l-1.156.078v.266c.531 0 .61.047.61.437v2.094c0 .36-.11.36-.61.36V0c.344-.031.688-.031.906-.031.235 0 .563 0 .907.031v-.266c-.516 0-.61 0-.61-.359v-1.437c0-.829.64-1.22 1.125-1.22s.61.345.61.845v1.812c0 .36-.094.36-.61.36V0c.344-.031.688-.031.906-.031.235 0 .563 0 .907.031m0 0"/><path id="L" d="M2.344-1.453v-.516H.094v.516Zm0 0"/><clipPath id="a"><path d="M.21 35H4v4H.21Zm0 0"/></clipPath><clipPath id="b"><path d="M.21 29H10v16H.21Zm0 0"/></clipPath><clipPath id="d"><path d="M201 0h27.395v24H201Zm0 0"/></clipPath><clipPath id="e"><path d="M36 62h19v18.563H36Zm0 0"/></clipPath><clipPath id="g"><path d="M88 62h19v18.563H88Zm0 0"/></clipPath><clipPath id="h"><path d="M87 68h21v12.563H87Zm0 0"/></clipPath><clipPath id="i"><path d="M85 61h22v19.563H85Zm0 0"/></clipPath><clipPath id="j"><path d="M166 62h19v18.563h-19Zm0 0"/></clipPath></defs><path fill="none" stroke="#000" stroke-miterlimit="10" stroke-width=".3979227" d="M1.992 37.05h8.903m17.105 0h8.902"/><path fill="none" stroke="#000" stroke-miterlimit="10" stroke-width=".7948481000000001" d="M10.895 28.5H28v17.105H10.895Zm0 0"/><path d="M6.688 37.05v1.981l4.207-1.98-4.207-1.977Zm0 0"/><path fill="none" stroke="#000" stroke-miterlimit="10" stroke-width=".3979227" d="m13.46 30.469 11.974 6.582-11.973 6.586Zm0 0"/><g clip-path="url(#a)"><path fill="#FFF" d="M3.574 37.05a1.583 1.583 0 1 0-3.166.003 1.583 1.583 0 0 0 3.166-.002m0 0"/></g><g clip-path="url(#b)"><path fill="none" stroke="#000" stroke-miterlimit="10" stroke-width=".3979227" d="M3.574 37.05a1.583 1.583 0 1 0-3.166.003 1.583 1.583 0 0 0 3.166-.002Zm0 0"/></g><path d="M32.695 37.05v1.981l4.207-1.98-4.207-1.977Zm0 0"/><path fill="none" stroke="#000" stroke-miterlimit="10" stroke-width=".7948481000000001" d="M36.902 28.5h17.106v17.105H36.902Zm0 0"/><path fill="none" stroke="#000" stroke-miterlimit="10" stroke-width=".3979227" d="M51.441 37.05a5.986 5.986 0 0 0-5.988-5.984 5.985 5.985 0 0 0-5.984 5.985 5.986 5.986 0 1 0 11.972 0ZM41.223 32.82l8.464 8.465m0-8.465-8.464 8.465M54.008 37.05h8.902m17.106 0h8.902"/><path fill="none" stroke="#000" stroke-miterlimit="10" stroke-width=".7948481000000001" d="M62.91 28.5h17.106v17.105H62.91Zm0 0"/><path d="M58.703 37.05v1.981l4.207-1.98-4.207-1.977Zm0 0"/><use xlink:href="#c" x="68.707" y="41.249"/><path d="M84.71 37.05v1.981l4.208-1.98-4.207-1.977Zm0 0"/><path fill="none" stroke="#000" stroke-miterlimit="10" stroke-width=".7948481000000001" d="M88.918 28.5h17.105v17.105H88.918Zm0 0"/><path fill="none" stroke="#000" stroke-miterlimit="10" stroke-width=".3979227" d="M103.457 37.05a5.986 5.986 0 0 0-5.988-5.984 5.985 5.985 0 0 0-5.985 5.985 5.986 5.986 0 1 0 11.973 0ZM93.238 32.82l8.465 8.465m0-8.465-8.465 8.465M106.023 37.05h8.903m17.105 0h8.903"/><path fill="none" stroke="#000" stroke-miterlimit="10" stroke-width=".7948481000000001" d="M114.926 28.5h17.105v17.105h-17.105Zm0 0"/><path d="M110.719 37.05v1.981l4.207-1.98-4.207-1.977Zm0 0"/><path fill="none" stroke="#000" stroke-miterlimit="10" stroke-width=".3979227" d="M119.203 32.777c.695-1.097 1.363-2.14 2.137-2.14.773 0 1.441 1.043 2.137 2.14.699 1.094 1.367 2.137 2.14 2.137.774 0 1.442-1.043 2.137-2.137m-2.992-1.285-2.567 2.567M119.203 37.05c.695-1.093 1.363-2.136 2.137-2.136.773 0 1.441 1.043 2.137 2.137.699 1.097 1.367 2.14 2.14 2.14.774 0 1.442-1.043 2.137-2.14M119.203 41.328c.695-1.094 1.363-2.137 2.137-2.137.773 0 1.441 1.043 2.137 2.137.699 1.094 1.367 2.14 2.14 2.14.774 0 1.442-1.046 2.137-2.14m-2.992-1.281-2.567 2.566"/><path d="M136.727 37.05v1.981l4.207-1.98-4.207-1.977Zm0 0"/><path fill="none" stroke="#000" stroke-miterlimit="10" stroke-width=".7948481000000001" d="M140.934 28.5h17.105v17.105h-17.105Zm0 0"/><path fill="none" stroke="#000" stroke-miterlimit="10" stroke-width=".3979227" d="m143.5 30.469 11.973 6.582-11.973 6.586ZM158.039 37.05h8.902m17.106 0h8.902"/><path fill="none" stroke="#000" stroke-miterlimit="10" stroke-width=".7948481000000001" d="M166.941 28.5h17.106v17.105H166.94Zm0 0"/><path d="M162.734 37.05v1.981l4.207-1.98-4.207-1.977Zm0 0"/><path fill="none" stroke="#000" stroke-miterlimit="10" stroke-width=".3979227" d="m169.508 30.469 11.972 6.582-11.972 6.586Zm0 0"/><path d="M188.742 37.05v1.981l4.207-1.98-4.207-1.977Zm0 0"/><path fill="none" stroke="#000" stroke-miterlimit="10" stroke-width=".7948481000000001" d="M192.95 28.5h17.105v17.105h-17.106Zm0 0"/><path fill="none" stroke="#000" stroke-miterlimit="10" stroke-width=".3979227" d="M197.227 32.777c.695-1.097 1.363-2.14 2.136-2.14.774 0 1.442 1.043 2.137 2.14.7 1.094 1.367 2.137 2.14 2.137.774 0 1.442-1.043 2.137-2.137m-2.992-1.285-2.566 2.567M197.227 37.05c.695-1.093 1.363-2.136 2.136-2.136.774 0 1.442 1.043 2.137 2.137.7 1.097 1.367 2.14 2.14 2.14.774 0 1.442-1.043 2.137-2.14m-2.992-1.281-2.566 2.566M197.227 41.328c.695-1.094 1.363-2.137 2.136-2.137.774 0 1.442 1.043 2.137 2.137.7 1.094 1.367 2.14 2.14 2.14.774 0 1.442-1.046 2.137-2.14M210.055 37.05h4.363m0 0h4.363M218.582 37.05V.399"/><g clip-path="url(#d)"><path fill="none" stroke="#000" stroke-miterlimit="10" stroke-width=".7948481000000001" d="M218.582.398h6.11l-6.11 12.22-6.11-12.22h6.11"/></g><path fill="none" stroke="#000" stroke-miterlimit="10" stroke-width=".3979227" d="M45.453 45.605v8.727m0 0v8.727"/><path d="M45.453 49.809h1.98l-1.98-4.204-1.976 4.204Zm0 0"/><g clip-path="url(#e)"><path fill="none" stroke="#000" stroke-miterlimit="10" stroke-width=".7948481000000001" d="M36.902 63.059h17.106v17.105H36.902Zm0 0"/></g><path fill="none" stroke="#000" stroke-miterlimit="10" stroke-width=".3979227" d="M46.523 67.766c.348-.547.684-1.07 1.07-1.07.387 0 .72.523 1.071 1.07.348.546.68 1.066 1.066 1.066.387 0 .723-.52 1.07-1.066M46.523 69.902c.348-.547.684-1.07 1.07-1.07.387 0 .72.523 1.071 1.07.348.547.68 1.07 1.066 1.07.387 0 .723-.523 1.07-1.07M46.523 72.04c.348-.548.684-1.067 1.07-1.067.387 0 .72.52 1.071 1.066.348.55.68 1.07 1.066 1.07.387 0 .723-.52 1.07-1.07"/><use xlink:href="#f" x="37.706" y="72.867"/><path fill="none" stroke="#000" stroke-miterlimit="10" stroke-width=".3979227" d="M39.469 74.605H51.44M39.469 77.602H51.44V75.89H39.47ZM39.469 78.883H51.44M97.469 45.605v8.727m0 0v8.727"/><path d="M97.469 49.809h1.98l-1.98-4.204-1.977 4.204Zm0 0"/><g clip-path="url(#g)"><path fill="none" stroke="#000" stroke-miterlimit="10" stroke-width=".7948481000000001" d="M88.918 63.059h17.105v17.105H88.918Zm0 0"/></g><path fill="none" stroke="#000" stroke-miterlimit="10" stroke-width=".3979227" d="M93.195 67.336c.696-1.094 1.364-2.137 2.137-2.137.773 0 1.441 1.043 2.137 2.137.699 1.094 1.367 2.14 2.14 2.14.774 0 1.442-1.046 2.137-2.14M93.195 71.613c.696-1.093 1.364-2.136 2.137-2.136.773 0 1.441 1.043 2.137 2.136.699 1.094 1.367 2.137 2.14 2.137.774 0 1.442-1.043 2.137-2.137"/><g clip-path="url(#h)"><path fill="none" stroke="#000" stroke-miterlimit="10" stroke-width=".3979227" d="M93.195 75.89c.696-1.097 1.364-2.14 2.137-2.14.773 0 1.441 1.043 2.137 2.14.699 1.094 1.367 2.137 2.14 2.137.774 0 1.442-1.043 2.137-2.136"/></g><g clip-path="url(#i)"><path fill="none" stroke="#000" stroke-miterlimit="10" stroke-width=".3979227" d="m91.484 75.89 9.434-8.761"/></g><path stroke="#000" stroke-miterlimit="10" stroke-width=".39790674000000004" d="m103.164 65.043-3.367.727 2.39 2.578Zm0 0"/><path fill="none" stroke="#000" stroke-miterlimit="10" stroke-width=".3979227" d="M175.492 45.605v8.727m0 0v8.727"/><path d="M175.492 58.855h-1.976l1.976 4.204 1.98-4.204Zm0 0"/><g clip-path="url(#j)"><path fill="none" stroke="#000" stroke-miterlimit="10" stroke-width=".7948481000000001" d="M166.941 63.059h17.106v17.105H166.94Zm0 0"/></g><use xlink:href="#k" x="166.641" y="74.366"/><use xlink:href="#l" x="172.968" y="74.366"/><use xlink:href="#m" x="178.246" y="74.366"/><path fill="none" stroke="#000" stroke-miterlimit="10" stroke-width=".3979227" d="M166.941 71.613h-17.457V45.605"/><path d="M149.484 49.809h1.98l-1.98-4.204-1.976 4.204Zm0 0"/><use xlink:href="#n" x="12.478" y="55.901"/><use xlink:href="#o" x="19.93" y="55.901"/><use xlink:href="#p" x="57.518" y="75.006"/><use xlink:href="#q" x="64.691" y="75.006"/><use xlink:href="#r" x="109.533" y="75.006"/><use xlink:href="#o" x="116.984" y="75.006"/><use xlink:href="#q" x="123.194" y="75.006"/><use xlink:href="#s" x="169.808" y="24.989"/><use xlink:href="#k" x="174.848" y="24.989"/><use xlink:href="#t" x="136.111" y="24.909"/><use xlink:href="#u" x="141.5" y="24.909"/><use xlink:href="#v" x="144.79" y="24.909"/><use xlink:href="#w" x="148.542" y="24.909"/><use xlink:href="#x" x="150.887" y="24.909"/><use xlink:href="#v" x="155.815" y="24.909"/><use xlink:href="#u" x="159.567" y="24.909"/><use xlink:href="#y" x="83.142" y="24.909"/><use xlink:href="#w" x="90.876" y="24.909"/><use xlink:href="#z" x="93.221" y="24.909"/><use xlink:href="#A" x="96.551" y="24.909"/><use xlink:href="#B" x="100.065" y="24.909"/><use xlink:href="#v" x="104.754" y="24.909"/><use xlink:href="#u" x="108.506" y="24.909"/><use xlink:href="#C" x="26.338" y="24.909"/><use xlink:href="#D" x="33.373" y="24.909"/><use xlink:href="#E" x="37.832" y="24.909"/><use xlink:href="#F" x="42.522" y="24.909"/><use xlink:href="#G" x="47.211" y="24.909"/><use xlink:href="#H" x="49.556" y="24.909"/><use xlink:href="#I" x="53.777" y="24.909"/><use xlink:href="#D" x="57.059" y="24.909"/><use xlink:href="#u" x="61.28" y="24.909"/><use xlink:href="#J" x="29.569" y="12.294"/><use xlink:href="#H" x="35.547" y="12.294"/><use xlink:href="#G" x="39.767" y="12.294"/><use xlink:href="#H" x="42.112" y="12.294"/><use xlink:href="#K" x="46.333" y="12.294"/><use xlink:href="#A" x="51.023" y="12.294"/><use xlink:href="#v" x="54.774" y="12.294"/><use xlink:href="#L" x="58.526" y="12.294"/></svg>