<svg xmlns="http://www.w3.org/2000/svg" xmlns:xlink="http://www.w3.org/1999/xlink" width="230.608" height="174.867"><defs><path id="e" d="M3.734-6.11c.063-.234.094-.343.282-.374h.609c.703 0 1.797 0 1.797.984 0 .328-.156 1.016-.547 1.406-.25.266-.781.578-1.672.578H3.078Zm1.438 2.72c1-.22 2.187-.907 2.187-1.922 0-.844-.906-1.485-2.203-1.485H2.313c-.188 0-.282 0-.282.203 0 .11.094.11.281.11.016 0 .204 0 .376.015.171.016.265.032.265.157 0 .046 0 .078-.031.187L1.578-.781c-.094.39-.11.469-.906.469-.172 0-.266 0-.266.203C.406 0 .531 0 .546 0c.282 0 .97-.031 1.25-.031.282 0 .985.031 1.267.031.078 0 .203 0 .203-.203 0-.11-.094-.11-.282-.11-.359 0-.64 0-.64-.171 0-.063.015-.11.031-.172l.656-2.64h1.172c.906 0 1.094.562 1.094.905 0 .157-.078.454-.14.688-.063.281-.157.64-.157.844C5 .219 6.188.219 6.313.219c.859 0 1.203-1 1.203-1.14 0-.126-.11-.126-.125-.126-.079 0-.11.078-.125.14-.25.735-.672.907-.907.907-.328 0-.39-.219-.39-.61 0-.312.047-.812.093-1.124.016-.141.032-.328.032-.47 0-.765-.657-1.077-.922-1.187m0 0"/><path id="g" d="M3.656-3.984h.86c.187 0 .297 0 .297-.203 0-.11-.11-.11-.282-.11H3.72l.203-1.125c.047-.219.172-.922.234-1.031.094-.203.266-.344.469-.344.047 0 .297 0 .484.172a.552.552 0 0 0-.53.547c0 .219.171.344.374.344.25 0 .547-.22.547-.594 0-.453-.469-.688-.875-.688-.328 0-.969.172-1.266 1.157-.062.218-.078.312-.328 1.562h-.687c-.188 0-.297 0-.297.203 0 .11.094.11.281.11h.656l-.75 3.937c-.171.969-.343 1.875-.859 1.875-.047 0-.297 0-.484-.187.468-.032.547-.391.547-.532 0-.234-.172-.359-.36-.359-.266 0-.547.219-.547.61 0 .437.438.687.844.687.547 0 .938-.594 1.125-.969.313-.625.547-1.828.563-1.906Zm0 0"/><path id="k" d="M7.563-6.922c0-.031-.016-.094-.11-.094-.031 0-.031.016-.14.125l-.704.766c-.093-.14-.546-.89-1.656-.89C2.734-7.016.5-4.814.5-2.516.5-.86 1.672.218 3.188.218c.874 0 1.624-.39 2.156-.86.922-.812 1.093-1.718 1.093-1.75 0-.093-.093-.093-.125-.093-.046 0-.109.015-.125.093-.093.297-.312 1-1 1.579-.687.546-1.312.718-1.828.718-.906 0-1.953-.515-1.953-2.062 0-.578.203-2.188 1.203-3.344.61-.703 1.547-1.203 2.422-1.203 1.016 0 1.61.766 1.61 1.922 0 .39-.032.406-.032.5 0 .093.11.093.157.093.125 0 .125-.015.172-.187Zm0 0"/><path id="f" d="M2.328-4.437c0-.188 0-.188-.203-.188-.453.438-1.078.438-1.36.438v.25c.157 0 .626 0 1-.188v3.547c0 .234 0 .328-.687.328H.812V0c.125 0 .985-.031 1.235-.031.219 0 1.094.031 1.25.031v-.25H3.03c-.703 0-.703-.094-.703-.328Zm0 0"/><path id="h" d="M5.61-2.36a2.56 2.56 0 0 0-2.563-2.546A2.56 2.56 0 0 0 .484-2.36c0 1.375 1.141 2.5 2.563 2.5 1.437 0 2.562-1.125 2.562-2.5M3.046-.093c-.813 0-1.813-.656-1.813-2.375 0-1.61 1.032-2.203 1.813-2.203.797 0 1.828.594 1.828 2.203 0 1.719-1 2.375-1.828 2.375m0 0"/><path id="i" d="M1.734-2.906c-.609-.14-.796-.578-.796-.875 0-.453.421-.89 1.062-.89.938 0 1.344.624 1.453 1.359.016.093.016.14.125.14.11 0 .11-.047.11-.187v-1.36c0-.125 0-.187-.094-.187-.047 0-.063.031-.11.11l-.265.39c-.453-.469-1.031-.5-1.219-.5-.89 0-1.516.64-1.516 1.343 0 .391.172.688.422.922.282.266.516.313 1.266.485.64.14.781.172.984.36.156.171.297.39.297.702 0 .485-.406.985-1.062.985C1.703-.11.78-.375.719-1.422c0-.125 0-.156-.11-.156-.125 0-.125.047-.125.187v1.344c0 .125 0 .188.094.188C.641.14.656.125.703.063c.063-.094.203-.313.25-.407.438.39.985.485 1.438.485.906 0 1.515-.688 1.515-1.438 0-.625-.437-1.219-1.14-1.375Zm0 0"/><path id="j" d="M4.266-4.469c.062-.078.062-.11.062-.156 0-.14-.062-.14-.203-.14H.672L.594-3.157h.234c.063-1.031.563-1.36 1.485-1.36H3.53L.547-.296C.484-.22.484-.204.484-.142.484 0 .547 0 .688 0H4.25l.125-1.906h-.234C4.078-.97 3.953-.281 2.578-.281H1.297Zm0 0"/><path id="p" d="M-4.953-6.203c-.969 0-1.844.984-1.844 2.344v3.515h.313v-.25c0-.765.109-.781.468-.781H-.78c.36 0 .469.016.469.781v.25H0c-.031-.36-.031-1.094-.031-1.469s0-1.124.031-1.468h-.312v.234c0 .766-.11.781-.47.781H-3.14v-1.671c0-1.204-.812-2.266-1.812-2.266m0 1.016c.469 0 1.547 0 1.547 1.578v1.375h-2.688c-.328 0-.39-.016-.39-.485v-.89c0-1.578 1.047-1.578 1.53-1.578m0 0"/><path id="q" d="M0-5.328h-.312c0 .703-.063.781-.547.781h-3.547l.11 1.469h.312c0-.703.078-.781.562-.781h1.766c.875 0 1.547.468 1.547 1.203 0 .828-.47.875-.985.875h-3.312l.11 1.469h.312c0-.782.03-.782.922-.782h1.484c.781 0 1.687 0 1.687-1.515 0-.563-.28-1-.89-1.282h.89Zm0 0"/><path id="r" d="M-6.312-6.25c-.36 0-.704.344-.704.906 0 .594.375 1.032.422 1.078-.375.282-.422.844-.422 1.11 0 .953.516 2.094 1.594 2.094h1.125v.796h.313v-.796H-.75c.438 0 .438.109.438.78H0L-.031-1.39 0-2.484h-.312c0 .656 0 .765-.438.765h-3.234v-2.078H-.75c.438 0 .438.11.438.766H0l-.031-1.125c0-.407 0-.875.031-1.266h-.312v.203c0 .735-.11.766-.47.766h-3.202V-5.61h-.313v1.187h-1.14c-.891 0-1.36-.484-1.36-.937 0-.032 0-.172.063-.328a.44.44 0 0 0 .422.296c.234 0 .437-.156.437-.421 0-.282-.203-.438-.437-.438m-.297 2.344a.43.43 0 0 0 .437.36.42.42 0 0 0 .406-.282c.125.031.22.031.329.031h1.14v2.11h-1.125c-.953 0-1.375-.813-1.375-1.454 0-.5.188-.765.188-.765m0 0"/><path id="s" d="M-1.187-4.125c-.094 0-.11.078-.11.125 0 .094.047.11.125.125C-.14-3.515-.14-2.625-.14-2.531c0 .5-.296.906-.671 1.125-.47.297-1.125.297-1.485.297v-2.766c0-.219 0-.25-.219-.25-.984 0-1.937.531-1.937 1.781 0 1.156 1.016 2.063 2.266 2.063C-.86-.281.108-1.328.108-2.47.11-3.688-1-4.125-1.187-4.125m-1.329.656v2.36c-1.468-.063-1.718-.907-1.718-1.235 0-1.031 1.343-1.125 1.718-1.125m0 0"/><path id="t" d="M-3.797-3.625c-.312 0-.61.313-.61.734 0 .735.673 1.094 1.11 1.235h-1.11l.11 1.375h.313c0-.688.078-.781.562-.781H-.75c.438 0 .438.109.438.78H0l-.031-1.124c0-.407 0-.875.031-1.266h-.312v.203c0 .735-.11.75-.47.75h-1.53c-.985 0-1.876-.406-1.876-1.172 0-.062 0-.078.016-.109a.433.433 0 0 0 .39.234c.282 0 .423-.203.423-.421 0-.188-.11-.438-.438-.438m0 0"/><path id="u" d="M-1.281-3.578c-.516 0-.813.297-.938.406-.312.328-.406.719-.484 1.14-.11.563-.235 1.22-.813 1.22-.343 0-.75-.25-.75-1.11 0-1.094.891-1.14 1.204-1.156.093-.016.093-.125.093-.125 0-.125-.062-.125-.25-.125h-1c-.172 0-.234 0-.234.11 0 .046 0 .062.11.187.046.031.14.14.155.172-.265.375-.265.797-.265.937 0 1.219.656 1.594 1.219 1.594.343 0 .625-.156.843-.422.266-.328.329-.61.454-1.312.046-.235.203-1.047.921-1.047.516 0 .907.359.907 1.125 0 .843-.563 1.203-1.407 1.39-.14.031-.171.031-.171.14 0 .126.062.126.25.126h1.312c.172 0 .234 0 .234-.11 0-.046-.015-.062-.203-.25-.015-.015-.031-.015-.218-.203a1.51 1.51 0 0 0 .421-1.093c0-1.141-.671-1.594-1.39-1.594m0 0"/><path id="v" d="M-1.234-3.297h-.563v.235h.547c.734 0 1.11.312 1.11.671 0 .672-.907.672-1.079.672h-2.765V-3.14h-.313v1.422h-1.828v.25c.813 0 1.89.297 1.922 1.282h.219v-.844h2.75c1.218 0 1.343-.922 1.343-1.281 0-.72-.703-.985-1.343-.985m0 0"/><path id="w" d="M-6.312-3.547c-.375 0-.704.36-.704.89 0 .704.532 1.548 1.579 1.548h1.14v.78h.313v-.78H-.75c.438 0 .438.109.438.765H0l-.031-1.125c0-.406 0-.875.031-1.265h-.312v.203c0 .734-.11.765-.47.765h-3.202v-1.14h-.313v1.172h-1.14c-.875 0-1.36-.485-1.36-.922 0-.031 0-.188.063-.328a.44.44 0 0 0 .422.297c.234 0 .437-.157.437-.422 0-.297-.203-.438-.437-.438m0 0"/><clipPath id="a"><path d="M40 164h1v10.652h-1Zm0 0"/></clipPath><clipPath id="b"><path d="M33 173h14v1.652H33Zm0 0"/></clipPath><clipPath id="c"><path d="M97 164h2v10.652h-2Zm0 0"/></clipPath><clipPath id="d"><path d="M91 173h14v1.652H91Zm0 0"/></clipPath><clipPath id="l"><path d="M184 164h1v10.652h-1Zm0 0"/></clipPath><clipPath id="m"><path d="M178 173h13v1.652h-13Zm0 0"/></clipPath><clipPath id="n"><path d="M200 164h1v10.652h-1Zm0 0"/></clipPath><clipPath id="o"><path d="M194 173h14v1.652h-14Zm0 0"/></clipPath><clipPath id="x"><path d="M184 .082h1V11h-1Zm0 0"/></clipPath><clipPath id="y"><path d="M178 .082h13V1h-13Zm0 0"/></clipPath></defs><path fill="none" stroke="#000" stroke-miterlimit="10" stroke-width=".3983217" d="M1.781 87.367h16.555m5.387 0h16.55l10.625-10.625m7.622-7.62L69.145 58.5 79.77 69.121m7.617 7.621 10.625 10.625-10.625 10.625m-7.617 7.621-10.625 10.625-10.625-10.625m-7.622-7.62L40.273 87.366"/><path fill="none" stroke="#000" stroke-miterlimit="10" stroke-width=".7956451" d="M18.336 79.285V95.45m5.387-16.164V95.45"/><path fill="#FFF" stroke="#000" stroke-miterlimit="10" stroke-width=".3983217" d="M3.367 87.367a1.584 1.584 0 1 0-3.168 0 1.584 1.584 0 1 0 3.168 0Zm0 0"/><path stroke="#000" stroke-miterlimit="10" stroke-width=".3983217" d="M41.86 87.367a1.584 1.584 0 1 0-3.168 0 1.584 1.584 0 1 0 3.167 0Zm0 0"/><path fill="none" stroke="#000" stroke-miterlimit="10" stroke-width=".7956451" d="m50.898 76.742 2.86-12.383 9.523 9.528Zm0 0"/><path fill="none" stroke="#000" stroke-miterlimit="10" stroke-width=".3983217" d="m50.898 76.742 7.622-7.62"/><path fill="none" stroke="#000" stroke-miterlimit="10" stroke-width=".7956451" d="m55.66 81.508-9.523-9.528"/><path stroke="#000" stroke-miterlimit="10" stroke-width=".3983217" d="M70.727 58.5a1.584 1.584 0 1 0-3.168-.004 1.584 1.584 0 0 0 3.168.004Zm0 0"/><path fill="none" stroke="#000" stroke-miterlimit="10" stroke-width=".7956451" d="m79.77 69.121 12.382 2.86-9.527 9.527Zm0 0"/><path fill="none" stroke="#000" stroke-miterlimit="10" stroke-width=".3983217" d="m79.77 69.121 7.617 7.621"/><path fill="none" stroke="#000" stroke-miterlimit="10" stroke-width=".7956451" d="m75.004 73.887 9.527-9.528"/><path stroke="#000" stroke-miterlimit="10" stroke-width=".3983217" d="M99.598 87.367a1.584 1.584 0 1 0-3.168 0 1.584 1.584 0 1 0 3.168 0Zm0 0"/><path fill="none" stroke="#000" stroke-miterlimit="10" stroke-width=".7956451" d="m87.387 97.992-2.856 12.383-9.527-9.527Zm0 0"/><path fill="none" stroke="#000" stroke-miterlimit="10" stroke-width=".3983217" d="m87.387 97.992-7.617 7.621"/><path fill="none" stroke="#000" stroke-miterlimit="10" stroke-width=".7956451" d="m82.625 93.23 9.527 9.524"/><path stroke="#000" stroke-miterlimit="10" stroke-width=".3983217" d="M70.727 116.238a1.584 1.584 0 1 0-3.168-.004 1.584 1.584 0 0 0 3.168.004Zm0 0"/><path fill="none" stroke="#000" stroke-miterlimit="10" stroke-width=".7956451" d="m58.52 105.613-12.383-2.86 9.523-9.523Zm0 0"/><path fill="none" stroke="#000" stroke-miterlimit="10" stroke-width=".3983217" d="m58.52 105.613-7.622-7.62"/><path fill="none" stroke="#000" stroke-miterlimit="10" stroke-width=".7956451" d="m63.281 100.848-9.523 9.527"/><path fill="none" stroke="#000" stroke-miterlimit="10" stroke-width=".3983217" d="M40.273 87.367v35.797m0 5.39v35.798"/><path fill="none" stroke="#000" stroke-miterlimit="10" stroke-width=".7956451" d="M48.36 123.164H32.19m16.168 5.39H32.191"/><g clip-path="url(#a)"><path fill="none" stroke="#000" stroke-miterlimit="10" stroke-width=".3983217" d="M40.273 164.352v9.902"/></g><g clip-path="url(#b)"><path fill="none" stroke="#000" stroke-linecap="round" stroke-miterlimit="10" stroke-width=".7956451" d="M34.332 174.254h11.887"/></g><path fill="none" stroke="#000" stroke-miterlimit="10" stroke-width=".3983217" d="M98.012 87.367v38.492m0 0v38.493"/><g clip-path="url(#c)"><path fill="none" stroke="#000" stroke-miterlimit="10" stroke-width=".3983217" d="M98.012 164.352v9.902"/></g><g clip-path="url(#d)"><path fill="none" stroke="#000" stroke-linecap="round" stroke-miterlimit="10" stroke-width=".7956451" d="M92.07 174.254h11.887"/></g><path fill="none" stroke="#000" stroke-miterlimit="10" stroke-width=".3983217" d="M69.145 58.5v-9.625m0 0v-9.621h28.867m0 0h57.738m0 0h28.871M69.145 116.238v9.621m0 0v9.625h28.867m0 0h57.738m0 0h28.871M126.883 39.254v5.258m0 21.554v10.52m0 21.559v10.52m0 21.554v5.265"/><path fill="none" stroke="#000" stroke-miterlimit="10" stroke-width=".7956451" d="M122.84 66.066V44.512h8.082v21.554Zm0 0"/><path stroke="#000" stroke-miterlimit="10" stroke-width=".3983217" d="M128.465 39.254a1.584 1.584 0 1 0-3.168-.004 1.584 1.584 0 0 0 3.168.004Zm0 0"/><path fill="none" stroke="#000" stroke-miterlimit="10" stroke-width=".7956451" d="M123.11 76.586v21.559h7.542v-21.56ZM117.45 92.754l18.343-10.48"/><path fill="none" stroke="#000" stroke-miterlimit="10" stroke-width=".79560525" d="m134.438 79.496 3.058 5.356"/><use xlink:href="#e" x="102.886" y="89.509"/><use xlink:href="#f" x="110.437" y="91"/><path fill="none" stroke="#000" stroke-miterlimit="10" stroke-width=".7956451" d="M122.84 130.219v-21.555h8.082v21.555Zm0 0"/><path stroke="#000" stroke-miterlimit="10" stroke-width=".3983217" d="M128.465 135.484a1.585 1.585 0 1 0-3.167-.003 1.585 1.585 0 0 0 3.167.003Zm0 0"/><path fill="none" stroke="#000" stroke-miterlimit="10" stroke-width=".3983217" d="M117.45 92.754v35.8m0 0v35.798"/><path fill="#FFF" stroke="#000" stroke-miterlimit="10" stroke-width=".3983217" d="M119.035 164.352a1.584 1.584 0 1 0-3.168 0 1.584 1.584 0 1 0 3.168 0Zm0 0"/><use xlink:href="#g" x="120.963" y="166.837"/><use xlink:href="#h" x="125.833" y="168.328"/><use xlink:href="#i" x="131.939" y="168.328"/><use xlink:href="#j" x="136.332" y="168.328"/><path fill="none" stroke="#000" stroke-linejoin="bevel" stroke-miterlimit="10" stroke-width=".7956451" d="M184.46 76.191c2.231 0 4.04.836 4.04 1.864 0 1.027-1.809 1.863-4.04 1.863 2.231 0 4.04.832 4.04 1.863 0 1.028-1.809 1.86-4.04 1.86 2.231 0 4.04.836 4.04 1.863 0 1.031-1.809 1.863-4.04 1.863 2.231 0 4.04.836 4.04 1.863 0 1.028-1.809 1.864-4.04 1.864 2.231 0 4.04.832 4.04 1.863 0 1.027-1.809 1.86-4.04 1.86 2.231 0 4.04.835 4.04 1.863 0 1.03-1.809 1.863-4.04 1.863M200.945 94.5c-2.23 0-4.043-1.063-4.043-2.375 0-1.316 1.813-2.379 4.043-2.379-2.23 0-4.043-1.066-4.043-2.379 0-1.312 1.813-2.379 4.043-2.379-2.23 0-4.043-1.062-4.043-2.375 0-1.316 1.813-2.379 4.043-2.379"/><path fill="none" stroke="#000" stroke-miterlimit="10" stroke-width=".3983217" d="M184.621 60.422V76.59m0 21.555v16.167m16.164-53.89v20.21m0 13.473v20.207"/><path fill="none" stroke="#000" stroke-miterlimit="10" stroke-width=".7956451" d="M193.715 100.84V73.895m-2.024 26.945V73.895M176.168 105.488l16.648-35.703"/><path fill="none" stroke="#000" stroke-miterlimit="10" stroke-width=".79563713" d="m190.11 68.305 5.585 2.605"/><path fill="none" stroke="#000" stroke-miterlimit="10" stroke-width=".3983217" d="M184.621 39.254V49.84m0 0v10.582h-14.437m0 0H155.75v24.25m0 5.39v24.25h14.434m0 0h14.437"/><path stroke="#000" stroke-miterlimit="10" stroke-width=".3983217" d="M186.203 60.422a1.584 1.584 0 1 0-3.168.003 1.584 1.584 0 0 0 3.168-.003Zm0 0"/><path fill="none" stroke="#000" stroke-miterlimit="10" stroke-width=".7956451" d="M163.832 84.672h-16.164m16.164 5.39h-16.164"/><path stroke="#000" stroke-miterlimit="10" stroke-width=".3983217" d="M186.203 114.312a1.584 1.584 0 1 0-3.167-.004 1.584 1.584 0 0 0 3.167.004Zm0 0"/><path fill="none" stroke="#000" stroke-miterlimit="10" stroke-width=".3983217" d="M184.621 114.312v10.586m0 0v22.325m0 5.386v11.743"/><path stroke="#000" stroke-miterlimit="10" stroke-width=".3983217" d="M186.203 135.484a1.585 1.585 0 1 0-3.167-.003 1.585 1.585 0 0 0 3.167.003Zm0 0"/><path fill="none" stroke="#000" stroke-miterlimit="10" stroke-width=".7956451" d="M192.703 152.61h-16.168m16.168-5.387h-16.168M176.535 158l15.746-15.746"/><path fill="none" stroke="#000" stroke-miterlimit="10" stroke-width=".79562916" d="m190.242 139.934 4.36 4.363"/><use xlink:href="#k" x="162.548" y="152.059"/><use xlink:href="#f" x="169.657" y="153.55"/><g clip-path="url(#l)"><path fill="none" stroke="#000" stroke-miterlimit="10" stroke-width=".3983217" d="M184.621 164.352v9.902"/></g><g clip-path="url(#m)"><path fill="none" stroke="#000" stroke-linecap="round" stroke-miterlimit="10" stroke-width=".7956451" d="M178.676 174.254h11.886"/></g><path fill="none" stroke="#000" stroke-miterlimit="10" stroke-width=".3983217" d="M200.785 114.312v25.02m0 0v25.02"/><g clip-path="url(#n)"><path fill="none" stroke="#000" stroke-miterlimit="10" stroke-width=".3983217" d="M200.785 164.352v9.902"/></g><g clip-path="url(#o)"><path fill="none" stroke="#000" stroke-linecap="round" stroke-miterlimit="10" stroke-width=".7956451" d="M194.844 174.254h11.886"/></g><path fill="none" stroke="#000" stroke-miterlimit="10" stroke-width=".3983217" d="M200.785 60.422h9.625m0 0h9.621"/><path fill="#FFF" stroke="#000" stroke-miterlimit="10" stroke-width=".3983217" d="M221.617 60.422a1.584 1.584 0 1 0-3.167.003 1.584 1.584 0 0 0 3.167-.003Zm0 0"/><use xlink:href="#p" x="223.481" y="111.13"/><use xlink:href="#q" x="223.481" y="104.357"/><use xlink:href="#r" x="223.481" y="98.827"/><use xlink:href="#s" x="223.481" y="93.029"/><use xlink:href="#t" x="223.481" y="88.613"/><use xlink:href="#u" x="223.481" y="84.714"/><use xlink:href="#v" x="223.481" y="80.796"/><use xlink:href="#q" x="223.481" y="76.927"/><use xlink:href="#w" x="223.481" y="71.397"/><use xlink:href="#s" x="223.481" y="68.354"/><path fill="none" stroke="#000" stroke-miterlimit="10" stroke-width=".3983217" d="M184.621 39.254V27.512m0-5.387V10.383"/><path fill="none" stroke="#000" stroke-miterlimit="10" stroke-width=".7956451" d="M176.535 27.512h16.168m-16.168-5.387h16.168"/><g clip-path="url(#x)"><path fill="none" stroke="#000" stroke-miterlimit="10" stroke-width=".3983217" d="M184.621 10.383V.48"/></g><g clip-path="url(#y)"><path fill="none" stroke="#000" stroke-linecap="round" stroke-miterlimit="10" stroke-width=".7956451" d="M190.562.48h-11.886"/></g></svg>