<svg xmlns="http://www.w3.org/2000/svg" xmlns:xlink="http://www.w3.org/1999/xlink" width="223.717" height="143.186"><defs><path id="c" d="M7.281-2.39v-.313l-1.203.031c-.406 0-1.25 0-1.594-.031v.312h.313c.89 0 .922.11.922.47v.64c0 1.11-1.266 1.187-1.532 1.187-.656 0-2.609-.343-2.609-3.297 0-2.953 1.953-3.28 2.547-3.28 1.063 0 1.953.89 2.156 2.343.016.14.016.172.157.172.156 0 .156-.032.156-.235V-6.75c0-.172 0-.234-.11-.234-.03 0-.078 0-.156.125l-.5.734c-.312-.328-.844-.86-1.828-.86C2.156-6.984.563-5.421.563-3.39.563-1.359 2.14.22 4.015.22c.734 0 1.515-.266 1.859-.844.125.219.531.61.64.61.079 0 .079-.079.079-.22v-1.734c0-.375.047-.422.687-.422m0 0"/><path id="p" d="M7.094-6.453v-.313l-1.172.032-1.172-.032v.313c1.016 0 1.016.453 1.016.734v3.438c0 1.406-.97 2.187-1.907 2.187-.468 0-1.625-.25-1.625-2.125V-6c0-.344.016-.453.782-.453h.234v-.313c-.344.032-1.078.032-1.453.032s-1.125 0-1.469-.032v.313h.235c.765 0 .78.11.78.453v3.734C1.344-.859 2.5.22 3.844.22c1.141 0 2.032-.922 2.204-2.047.031-.203.031-.297.031-.688v-3.171c0-.329 0-.766 1.016-.766m0 0"/><path id="q" d="M4.938-1.844c0-.984-.641-1.797-1.485-2l-1.265-.312c-.61-.14-1-.672-1-1.25 0-.703.53-1.297 1.312-1.297 1.656 0 1.875 1.625 1.922 2.062.016.063.016.125.125.125.125 0 .125-.046.125-.234v-2c0-.172 0-.234-.11-.234-.062 0-.078.015-.14.125l-.344.562c-.297-.281-.703-.687-1.594-.687A1.91 1.91 0 0 0 .563-5.062 1.9 1.9 0 0 0 1.859-3.25c.11.047.61.156 1.297.328.266.063.563.14.844.5.203.266.313.594.313.922 0 .703-.5 1.406-1.329 1.406-.296 0-1.046-.047-1.562-.531-.578-.531-.61-1.172-.625-1.531 0-.094-.078-.094-.11-.094-.125 0-.125.078-.125.25v1.984c0 .172 0 .235.094.235C.734.219.75.203.812.094c0 0 .032-.047.36-.563.297.328.937.688 1.812.688 1.172 0 1.954-.969 1.954-2.063m0 0"/><path id="r" d="M6.453-1.812c0-.86-.812-1.61-1.922-1.72.969-.187 1.657-.827 1.657-1.562 0-.86-.922-1.672-2.204-1.672H.36v.313h.235c.765 0 .781.11.781.453v5.234c0 .344-.016.454-.781.454H.359V0h3.875c1.329 0 2.22-.875 2.22-1.812M5.22-5.094c0 .64-.485 1.469-1.578 1.469H2.203v-2.437c0-.329.016-.391.485-.391h1.218c.969 0 1.313.844 1.313 1.36m.234 3.266c0 .703-.516 1.516-1.531 1.516H2.687c-.468 0-.484-.063-.484-.391v-2.703h1.86c.984 0 1.39.922 1.39 1.578m0 0"/><path id="s" d="M5.766-2.562h-.25c-.11 1.015-.25 2.25-1.985 2.25H2.72c-.469 0-.485-.063-.485-.391v-5.281c0-.328 0-.47.938-.47H3.5v-.312c-.36.032-1.266.032-1.672.032-.375 0-1.156 0-1.5-.032v.313h.235c.765 0 .78.11.78.453v5.234c0 .344-.015.454-.78.454H.328V0h5.156Zm0 0"/><path id="x" d="M7-3.328c0-1.875-1.328-3.438-3.031-3.438H.344v.313h.234c.766 0 .781.11.781.453v5.234c0 .344-.015.454-.78.454H.343V0h3.625C5.64 0 7-1.469 7-3.328m-.984 0c0 1.094-.188 1.687-.547 2.172-.203.281-.766.843-1.766.843h-1c-.469 0-.484-.062-.484-.39v-5.36c0-.328.015-.39.484-.39h.985c.624 0 1.312.219 1.812.922.422.578.516 1.437.516 2.203m0 0"/><path id="h" d="M3.64-3.156v.328c0 2.312-1.03 2.766-1.609 2.766-.172 0-.703-.016-.969-.36.438 0 .516-.281.516-.453a.443.443 0 0 0-.453-.453c-.172 0-.469.094-.469.469 0 .672.547 1.078 1.39 1.078 1.267 0 2.485-1.344 2.485-3.485 0-2.656-1.14-3.328-2.031-3.328a1.9 1.9 0 0 0-1.453.625c-.406.438-.625.86-.625 1.594 0 1.25.86 2.219 1.969 2.219.609 0 1.015-.422 1.25-1m-1.234.765c-.156 0-.61 0-.922-.625-.171-.359-.171-.859-.171-1.343 0-.532 0-1 .203-1.36.265-.5.64-.625.984-.625.469 0 .781.328.953.782.125.312.156.937.156 1.39 0 .828-.328 1.781-1.203 1.781m0 0"/><path id="j" d="M4.563-3.172c0-.797-.063-1.578-.407-2.312-.453-.953-1.265-1.11-1.672-1.11-.609 0-1.328.25-1.734 1.172-.312.688-.36 1.453-.36 2.25 0 .75.032 1.64.438 2.39.438.798 1.156 1 1.64 1C3 .219 3.75.017 4.189-.936c.312-.672.375-1.454.375-2.235M2.469 0c-.39 0-.969-.25-1.156-1.203-.11-.594-.11-1.5-.11-2.078 0-.64 0-1.297.078-1.828.188-1.188.938-1.266 1.188-1.266.328 0 .984.172 1.172 1.156.093.547.093 1.313.093 1.938 0 .734 0 1.406-.109 2.047C3.485-.297 2.906 0 2.469 0m0 0"/><path id="k" d="M2.906-6.344c0-.234 0-.25-.219-.25-.609.625-1.484.625-1.812.625v.313c.203 0 .797 0 1.297-.25v5.125c0 .36-.016.469-.906.469H.938V0c.343-.031 1.218-.031 1.609-.031.39 0 1.25 0 1.61.031v-.312h-.329c-.89 0-.922-.11-.922-.47Zm0 0"/><path id="l" d="M4.453-1.984c0-1.188-.812-2.172-1.89-2.172-.47 0-.891.156-1.25.5v-1.938c.187.063.515.14.843.14 1.219 0 1.906-.905 1.906-1.03 0-.063-.03-.11-.093-.11-.016 0-.031 0-.078.032-.203.078-.688.28-1.36.28-.39 0-.844-.062-1.312-.28-.078-.032-.094-.032-.125-.032-.094 0-.094.078-.094.25v2.922c0 .188 0 .266.14.266.063 0 .094-.031.126-.094.109-.156.484-.687 1.28-.687.517 0 .767.453.845.624.156.376.172.75.172 1.25 0 .344 0 .938-.235 1.36-.234.39-.61.64-1.062.64-.72 0-1.282-.515-1.453-1.109.03.016.062.016.171.016.329 0 .485-.235.485-.485 0-.234-.157-.484-.485-.484-.14 0-.484.078-.484.531C.5-.75 1.172.22 2.281.22a2.194 2.194 0 0 0 2.172-2.203m0 0"/><path id="m" d="M2.39-6.547c-.093-.219-.124-.219-.343-.219H.359v.313h.25c.75 0 .782.11.782.453v4.953c0 .281 0 .734-1.032.734V0c.36-.016.844-.031 1.172-.031.328 0 .813.015 1.157.031v-.312c-1.016 0-1.016-.454-1.016-.735v-5.328l2.39 6.156c.047.125.094.219.204.219.109 0 .125-.078.172-.187l2.437-6.266h.016v5.687c0 .344-.032.454-.782.454h-.25V0c.375-.031 1.047-.031 1.438-.031.375 0 1.047 0 1.406.031v-.312H8.47c-.766 0-.781-.11-.781-.454V-6c0-.344.015-.453.78-.453h.235v-.313H7.031c-.25 0-.25.016-.328.188L4.531-1Zm0 0"/><path id="n" d="M6.078-6c0-.344.016-.453.781-.453h.235v-.313c-.344.032-1.078.032-1.453.032s-1.125 0-1.47-.032v.313h.235c.766 0 .782.11.782.453v2.328H2.234V-6c0-.344.016-.453.782-.453h.234v-.313c-.344.032-1.078.032-1.453.032s-1.125 0-1.469-.032v.313h.235c.765 0 .78.11.78.453v5.234c0 .344-.015.454-.78.454H.328V0c.344-.031 1.078-.031 1.453-.031s1.125 0 1.469.031v-.312h-.234c-.766 0-.782-.11-.782-.454v-2.609h2.954v2.61c0 .343-.016.453-.782.453h-.234V0c.344-.031 1.078-.031 1.453-.031s1.125 0 1.469.031v-.312h-.235c-.765 0-.78-.11-.78-.454Zm0 0"/><path id="o" d="M3.86-3.969c.093-.11.093-.125.093-.172 0-.125-.078-.125-.265-.125H.53l-.11 1.594h.235C.72-3.687.906-4.047 2-4.047h1.125L.359-.313c-.078.11-.078.126-.078.172C.281 0 .344 0 .531 0h3.266l.172-1.86h-.25C3.64-.686 3.422-.25 2.28-.25H1.11Zm0 0"/><path id="i" d="M2.016-.016c0-.64-.25-1.03-.641-1.03a.5.5 0 0 0-.516.515c0 .281.188.531.516.531.125 0 .25-.047.344-.125.031-.031.047-.031.047-.031.015 0 .03 0 .03.14 0 .735-.343 1.329-.671 1.657-.11.109-.11.125-.11.156 0 .078.048.11.094.11.11 0 .907-.75.907-1.923m0 0"/><path id="t" d="M3.64-3.969h.844c.204 0 .297 0 .297-.187 0-.11-.093-.11-.265-.11h-.828l.218-1.14c.031-.203.172-.907.235-1.016.093-.203.25-.344.468-.344.032 0 .297 0 .485.172a.552.552 0 0 0-.532.547c0 .219.172.344.36.344.266 0 .547-.219.547-.594 0-.453-.453-.687-.86-.687-.343 0-.968.172-1.265 1.156-.063.219-.078.312-.328 1.562h-.672c-.188 0-.297 0-.297.188 0 .11.078.11.265.11h.657L2.234-.048c-.187.953-.359 1.86-.875 1.86-.03 0-.28 0-.468-.172a.547.547 0 0 0 .547-.547c0-.219-.172-.344-.375-.344-.25 0-.532.219-.532.594 0 .453.422.687.828.687.547 0 .954-.578 1.125-.969.313-.609.547-1.812.563-1.89Zm0 0"/><path id="u" d="M5.594-2.344c0-1.39-1.14-2.531-2.563-2.531A2.534 2.534 0 0 0 .484-2.344C.484-.984 1.61.141 3.031.141c1.422 0 2.563-1.125 2.563-2.485M3.03-.094c-.797 0-1.797-.656-1.797-2.36 0-1.608 1.016-2.202 1.797-2.202.797 0 1.813.593 1.813 2.203 0 1.703-1 2.36-1.813 2.36m0 0"/><path id="v" d="M1.734-2.89C1.11-3.032.922-3.47.922-3.767c0-.453.437-.89 1.062-.89.938 0 1.344.625 1.454 1.36.015.093.015.14.124.14.11 0 .11-.063.11-.188v-1.36c0-.109 0-.171-.094-.171-.047 0-.062.016-.11.094l-.25.39c-.468-.468-1.046-.484-1.234-.484-.875 0-1.5.625-1.5 1.328 0 .39.172.688.422.922.282.266.516.313 1.266.484.625.141.765.157.969.36a.943.943 0 0 1 .297.687c0 .485-.407.985-1.063.985-.672 0-1.61-.266-1.656-1.313 0-.11 0-.156-.11-.156-.125 0-.125.047-.125.187v1.344c0 .125 0 .188.094.188.063 0 .078-.016.11-.078l.265-.407c.438.39.969.485 1.422.485.906 0 1.516-.688 1.516-1.422 0-.625-.438-1.219-1.141-1.375Zm0 0"/><path id="w" d="M4.25-4.453c.063-.078.063-.11.063-.156 0-.125-.063-.125-.204-.125H.672L.594-3.141h.234c.063-1.03.547-1.343 1.469-1.343h1.219L.546-.297C.485-.219.485-.203.485-.14.484 0 .547 0 .688 0h3.546l.125-1.89h-.234C4.063-.97 3.938-.282 2.578-.282H1.281Zm0 0"/><clipPath id="a"><path d="M.492 0H32v36H.492Zm0 0"/></clipPath><clipPath id="b"><path d="M.492 3H2v22H.492Zm0 0"/></clipPath><clipPath id="d"><path d="M155 98h20v44.375h-20Zm0 0"/></clipPath><clipPath id="e"><path d="M68 65h132v77.375H68Zm0 0"/></clipPath><clipPath id="f"><path d="M159 139h4v3.375h-4Zm0 0"/></clipPath><clipPath id="g"><path d="M154 133h15v9.375h-15Zm0 0"/></clipPath></defs><g clip-path="url(#a)"><path fill="none" stroke="#000" stroke-miterlimit="10" stroke-width=".79249695" d="M10.754 4.344c-5.45 0-9.867 4.414-9.867 9.863 0 5.45 4.418 9.867 9.867 9.867 5.45 0 9.863-4.418 9.863-9.867a9.86 9.86 0 0 0-9.863-9.863Zm0 0"/></g><g clip-path="url(#b)"><path fill="none" stroke="#000" stroke-miterlimit="10" stroke-width=".79249695" d="M.887 24.074V4.344"/></g><path fill="none" stroke="#000" stroke-miterlimit="10" stroke-width=".39674565" d="M20.617 14.207h14.496m0 0H49.61"/><path d="M45.418 14.207v1.973l4.191-1.973-4.191-1.973Zm0 0"/><path fill="none" stroke="#000" stroke-miterlimit="10" stroke-width=".79249695" d="M49.61.398h27.62V28.02H49.61Zm0 0"/><path fill="none" stroke="#000" stroke-miterlimit="10" stroke-width=".39674565" d="M53.754 3.574 73.09 14.207 53.754 24.844ZM77.23 14.207h14.497m0 0h14.496"/><path d="M102.031 14.207v1.973l4.192-1.973-4.192-1.973Zm0 0"/><path fill="none" stroke="#000" stroke-miterlimit="10" stroke-width=".79249695" d="M106.223.398h27.62V28.02h-27.62Zm0 0"/><path fill="none" stroke="#000" stroke-miterlimit="10" stroke-width=".39674565" d="M129.703 14.207a9.667 9.667 0 0 0-9.668-9.668 9.667 9.667 0 0 0-9.668 9.668 9.667 9.667 0 0 0 9.668 9.668 9.667 9.667 0 0 0 9.668-9.668ZM113.2 7.371l13.671 13.672m0-13.672L113.2 21.043M133.844 14.207h14.496m0 0h14.496"/><path d="M158.645 14.207v1.973l4.19-1.973-4.19-1.973Zm0 0"/><path fill="none" stroke="#000" stroke-miterlimit="10" stroke-width=".79249695" d="M162.836.398h27.621V28.02h-27.621Zm0 0"/><path fill="none" stroke="#000" stroke-miterlimit="10" stroke-width=".39674565" d="M169.742 7.3c1.125-1.765 2.203-3.448 3.453-3.448s2.328 1.683 3.453 3.449c1.125 1.77 2.204 3.453 3.454 3.453s2.324-1.684 3.453-3.453m-4.836-2.07-4.145 4.144M169.742 14.207c1.125-1.766 2.203-3.453 3.453-3.453s2.328 1.687 3.453 3.453c1.125 1.77 2.204 3.453 3.454 3.453s2.324-1.683 3.453-3.453M169.742 21.113c1.125-1.765 2.203-3.453 3.453-3.453s2.328 1.688 3.453 3.453c1.125 1.77 2.204 3.453 3.454 3.453s2.324-1.683 3.453-3.453m-4.836-2.07-4.145 4.14M190.457 14.207h14.496m0 0h14.496"/><path d="M215.258 14.207v1.973l4.191-1.973-4.191-1.973Zm0 0"/><path fill="none" stroke="#000" stroke-miterlimit="10" stroke-width=".39674565" d="M120.035 28.02v14.496m0 0v14.496"/><path d="M120.035 32.21h1.973l-1.973-4.19-1.972 4.19Zm0 0"/><path fill="none" stroke="#000" stroke-miterlimit="10" stroke-width=".79249695" d="M106.223 57.012h27.62v27.62h-27.62Zm0 0"/><use xlink:href="#c" x="116.144" y="74.203"/><path fill="none" stroke="#000" stroke-miterlimit="10" stroke-width=".39674565" d="M133.844 70.82h21.746m0 0h21.742M186.21 104.363v-9.222m-17.757 9.222v-9.222m8.879-24.32v9.226"/><path fill="#FFF" stroke="#000" stroke-miterlimit="10" stroke-width=".39674565" d="M186.21 96.719a1.579 1.579 0 1 0 0-3.158 1.579 1.579 0 0 0 0 3.158ZM168.453 96.719a1.579 1.579 0 1 0-.001-3.158 1.579 1.579 0 0 0 .001 3.158ZM177.332 81.625a1.579 1.579 0 1 0-.001-3.157 1.579 1.579 0 0 0 .001 3.157Zm0 0"/><path fill="none" stroke="#000" stroke-miterlimit="10" stroke-width=".79249695" d="m177.332 81.625 6.855 13.07"/><g clip-path="url(#d)"><path fill="none" stroke="#000" stroke-miterlimit="10" stroke-width=".39674565" d="m168.453 104.363-3.625 3.625m0 0-3.621 3.625v10.547m0 7.895v10.547"/></g><path fill="none" stroke="#000" stroke-miterlimit="10" stroke-width=".79249695" d="M168.11 122.16H154.3m13.81 7.895H154.3M154.695 128.473v-4.735h13.02v4.735Zm0 0"/><g clip-path="url(#e)"><path fill="none" stroke="#000" stroke-miterlimit="10" stroke-width=".39674565" d="m186.21 104.363 3.626 3.625m0 0 3.621 3.625v10.547m0 7.895v10.547h-16.125m0 0h-59.613m0 0H74.234V70.82h31.989"/></g><path fill="none" stroke="#000" stroke-miterlimit="10" stroke-width=".79249695" d="M200.363 122.16h-13.812m13.812 7.895h-13.812M186.945 128.473v-4.735h13.024v4.735Zm0 0"/><g clip-path="url(#f)"><path d="M162.785 140.602a1.579 1.579 0 1 0-3.157 0 1.579 1.579 0 0 0 3.157 0m0 0"/></g><g clip-path="url(#g)"><path fill="none" stroke="#000" stroke-miterlimit="10" stroke-width=".39674565" d="M162.785 140.602a1.579 1.579 0 1 0-3.157 0 1.579 1.579 0 0 0 3.157 0Zm0 0"/></g><use xlink:href="#h" x="100.715" y="128.526"/><use xlink:href="#i" x="105.669" y="128.526"/><use xlink:href="#j" x="108.42" y="128.526"/><use xlink:href="#j" x="113.373" y="128.526"/><use xlink:href="#k" x="118.326" y="128.526"/><use xlink:href="#l" x="123.28" y="128.526"/><use xlink:href="#m" x="129.877" y="128.526"/><use xlink:href="#n" x="138.958" y="128.526"/><use xlink:href="#o" x="146.388" y="128.526"/><use xlink:href="#p" x="189.708" y="100.645"/><use xlink:href="#q" x="197.138" y="100.645"/><use xlink:href="#r" x="202.646" y="100.645"/><use xlink:href="#s" x="146.238" y="100.645"/><use xlink:href="#q" x="152.43" y="100.645"/><use xlink:href="#r" x="157.937" y="100.645"/><use xlink:href="#t" x="123.532" y="44.991"/><use xlink:href="#u" x="128.383" y="46.477"/><use xlink:href="#v" x="134.464" y="46.477"/><use xlink:href="#w" x="138.84" y="46.477"/><use xlink:href="#x" x="138.294" y="10.49"/><use xlink:href="#q" x="145.863" y="10.49"/><use xlink:href="#r" x="151.371" y="10.49"/><use xlink:href="#q" x="195.937" y="10.49"/><use xlink:href="#q" x="201.444" y="10.49"/><use xlink:href="#r" x="206.952" y="10.49"/></svg>