<svg xmlns="http://www.w3.org/2000/svg" xmlns:xlink="http://www.w3.org/1999/xlink" width="231.008" height="170.655"><defs><path id="b" d="M4.953-2.531v-.219H0v.219Zm0 0"/><path id="h" d="M6.453-1.812c0-.86-.812-1.61-1.906-1.735.953-.187 1.64-.812 1.64-1.547 0-.875-.906-1.687-2.203-1.687H.36v.312h.235c.765 0 .781.11.781.469v5.219c0 .36-.016.469-.781.469H.359V0H4.25c1.313 0 2.203-.89 2.203-1.812M5.234-5.094c0 .625-.484 1.469-1.593 1.469H2.203v-2.453c0-.328.016-.39.485-.39h1.234c.953 0 1.312.843 1.312 1.374m.235 3.266c0 .703-.516 1.516-1.547 1.516H2.687c-.468 0-.484-.063-.484-.391v-2.703h1.86c.984 0 1.406.922 1.406 1.578m0 0"/><path id="i" d="M6.047-4.516 5.78-6.75H.328v.313h.235c.765 0 .78.109.78.468V-.78c0 .36-.015.469-.78.469H.328V0c.344-.031 1.125-.031 1.5-.031.422 0 1.313 0 1.672.031v-.312h-.328c-.938 0-.938-.125-.938-.47v-2.437h.844c.953 0 1.063.313 1.063 1.156h.25v-2.624h-.25c0 .828-.11 1.156-1.063 1.156h-.844v-2.516c0-.328.016-.39.485-.39h1.187c1.485 0 1.735.546 1.89 1.921Zm0 0"/><path id="j" d="M4.453-1.719h-.25c-.047.297-.11.735-.219.875-.062.078-.718.078-.937.078H1.266L2.313-1.78c1.546-1.375 2.14-1.906 2.14-2.907 0-1.125-.89-1.921-2.11-1.921C1.235-6.61.5-5.687.5-4.812c0 .562.484.562.516.562a.516.516 0 0 0 .515-.531c0-.266-.172-.516-.515-.516-.079 0-.11 0-.125.016.218-.657.75-1.016 1.328-1.016.906 0 1.328.797 1.328 1.61 0 .796-.485 1.578-1.031 2.203L.609-.36C.5-.266.5-.234.5 0h3.672Zm0 0"/><path id="k" d="M4.672-1.64v-.298h-.984v-4.515c0-.203 0-.266-.172-.266-.079 0-.11 0-.188.125L.281-1.937v.296h2.64v.86c0 .36-.03.469-.765.469h-.203V0c.406-.031.922-.031 1.344-.031.406 0 .937 0 1.344.031v-.312h-.203c-.735 0-.75-.11-.75-.47v-.859Zm-1.703-.298H.563L2.969-5.64Zm0 0"/><path id="s" d="M7.156-2.484c0-.188-.187-.188-.328-.188H4.062v-2.781c0-.14 0-.328-.203-.328s-.203.187-.203.328v2.781H.891c-.141 0-.328 0-.328.188 0 .203.187.203.328.203h2.765V.5c0 .14 0 .328.203.328.204 0 .204-.187.204-.328v-2.781h2.765c.14 0 .328 0 .328-.203m0 0"/><path id="c" d="M1.313-3.25v-.25c0-2.5 1.234-2.86 1.734-2.86.234 0 .656.063.875.391-.156 0-.547 0-.547.453 0 .313.234.454.453.454.156 0 .453-.094.453-.47 0-.593-.437-1.077-1.25-1.077-1.281 0-2.61 1.28-2.61 3.468C.422-.484 1.564.22 2.485.22c1.11 0 2.047-.938 2.047-2.25 0-1.25-.875-2.203-1.984-2.203-.672 0-1.031.5-1.235.984M2.484-.062c-.625 0-.921-.594-.968-.735-.188-.469-.188-1.265-.188-1.453 0-.766.313-1.766 1.219-1.766.156 0 .61 0 .922.625.172.36.172.875.172 1.36 0 .469 0 .969-.172 1.328-.297.594-.75.64-.985.64m0 0"/><path id="e" d="M3.64-3.156v.312c0 2.328-1.03 2.782-1.609 2.782-.172 0-.703-.016-.969-.36.438 0 .516-.281.516-.453 0-.312-.234-.453-.453-.453-.156 0-.453.094-.453.469 0 .672.531 1.078 1.375 1.078 1.281 0 2.484-1.344 2.484-3.485 0-2.671-1.14-3.343-2.015-3.343-.547 0-1.032.187-1.47.625-.405.453-.624.859-.624 1.609 0 1.234.875 2.219 1.984 2.219.594 0 1-.422 1.235-1m-1.234.765c-.156 0-.61 0-.922-.625-.171-.375-.171-.859-.171-1.343 0-.547 0-1.016.203-1.375.265-.5.64-.625 1-.625.453 0 .78.343.953.78.11.313.156.938.156 1.407 0 .813-.344 1.781-1.219 1.781m0 0"/><path id="f" d="M1.703-3.734v-.657l-1.422.11v.312c.703 0 .766.063.766.5v4.64c0 .454-.11.454-.766.454v.297c.328 0 .844-.031 1.11-.031.265 0 .765.03 1.125.03v-.296c-.672 0-.782 0-.782-.453v-1.75c.047.156.47.687 1.22.687a2.234 2.234 0 0 0 2.218-2.25c0-1.265-.969-2.25-2.078-2.25-.766 0-1.188.438-1.39.657m.031 2.609v-2.219c.297-.5.782-.797 1.282-.797.718 0 1.328.875 1.328 2 0 1.204-.688 2.032-1.422 2.032-.406 0-.781-.203-1.047-.61-.14-.203-.14-.219-.14-.406m0 0"/><path id="g" d="M5.781-6.75H.328v.313h.235c.765 0 .78.109.78.468V-.78c0 .36-.015.469-.78.469H.328V0c.344-.031 1.125-.031 1.5-.031.422 0 1.313 0 1.672.031v-.312h-.328c-.938 0-.938-.125-.938-.47v-2.437h.844c.953 0 1.063.313 1.063 1.156h.25v-2.624h-.25c0 .828-.11 1.156-1.063 1.156h-.844v-2.516c0-.328.016-.39.485-.39h1.187c1.485 0 1.735.546 1.89 1.921h.25Zm0 0"/><path id="t" d="M2.922-6.344c0-.25 0-.265-.235-.265-.609.64-1.484.64-1.796.64v.297c.187 0 .78 0 1.297-.25v5.14c0 .36-.032.47-.922.47H.938V0c.359-.031 1.218-.031 1.609-.031.406 0 1.265 0 1.61.031v-.312h-.313c-.89 0-.922-.11-.922-.47Zm0 0"/><path id="u" d="M1.094-3.406V-.75c0 .438-.11.438-.782.438V0c.36-.016.86-.031 1.126-.031.265 0 .78.015 1.109.031v-.312c-.656 0-.766 0-.766-.438v-1.828c0-1.031.703-1.594 1.328-1.594.625 0 .735.547.735 1.11V-.75c0 .438-.11.438-.766.438V0a30.36 30.36 0 0 1 1.125-.031c.25 0 .766.015 1.11.031v-.312c-.516 0-.766 0-.782-.297V-2.5c0-.86 0-1.156-.297-1.516-.14-.171-.468-.375-1.046-.375-.735 0-1.188.438-1.47 1.047V-4.39l-1.405.11v.312c.703 0 .78.063.78.563m0 0"/><path id="d" d="M2.016-.016c0-.656-.25-1.03-.641-1.03a.5.5 0 0 0-.516.515c0 .265.188.531.516.531.125 0 .25-.047.344-.125.031-.031.047-.031.062-.031 0 0 .016 0 .016.14 0 .735-.344 1.329-.672 1.657-.11.109-.11.14-.11.172 0 .062.048.109.094.109.11 0 .907-.766.907-1.938m0 0"/><path id="l" d="M-3.5-2.875c-.266-.812-.953-1.39-1.734-1.39-.813 0-1.375.874-1.375 1.827 0 1 .593 1.75 1.343 1.75.329 0 .516-.218.516-.5 0-.312-.203-.515-.5-.515-.5 0-.5.469-.5.625-.484-.313-.61-.969-.61-1.328 0-.406.22-.953 1.11-.953.125 0 .703.03 1.125.28.484.298.516.642.516.892.015.078.03.312.03.374.017.094.032.157.126.157.11 0 .11-.063.11-.235v-.437c0-.813.671-1.188 1.64-1.188 1.36 0 1.64.688 1.64 1.125 0 .422-.171 1.172-.75 1.516.047-.344-.171-.656-.546-.656-.36 0-.563.265-.563.562 0 .235.14.547.578.547.907 0 1.563-.922 1.563-2 0-1.203-.906-2.11-1.922-2.11-.813 0-1.578.626-1.797 1.657m0 0"/><path id="n" d="M-.75-1.047c.438 0 .438.11.438.766H0A27.166 27.166 0 0 1-.031-1.36c0-.297.015-.688.031-1.094h-.312c0 .672 0 .781-.438.781h-1.031l-.547-.64C-1.266-3.078-.718-3.5-.531-3.5c.187 0 .219.172.219.36H0C-.016-3.407-.031-4-.031-4.204c0-.297.015-.578.031-.86h-.312c0 .36 0 .579-.516.954L-2.61-2.844c-.016 0-.079.063-.11.063-.047 0-.64-.719-.719-.813-.5-.625-.515-1.047-.53-1.25h-.313c.031.297.031.422.031.703 0 .344-.016.97-.031 1.11h.312c.016-.188.125-.297.25-.297.203 0 .313.14.39.219l1.204 1.406h-4.766l.11 1.422h.312c0-.688.063-.766.563-.766Zm0 0"/><path id="o" d="M-3.172-4.562c-.797 0-1.594.046-2.328.39-.953.469-1.11 1.281-1.11 1.688 0 .593.266 1.328 1.188 1.734.672.313 1.453.36 2.25.36.735 0 1.64-.032 2.39-.438.798-.438 1-1.156 1-1.64C.219-3 .017-3.767-.936-4.204c-.688-.313-1.454-.36-2.235-.36M0-2.47c0 .39-.25.969-1.203 1.156-.594.11-1.5.11-2.094.11-.625 0-1.281 0-1.828-.094-1.172-.187-1.266-.922-1.266-1.172 0-.328.172-.984 1.157-1.172.562-.093 1.312-.093 1.937-.093.75 0 1.422 0 2.063.109C-.297-3.485 0-2.922 0-2.469m0 0"/><path id="p" d="M-6.344-2.922c-.25 0-.265 0-.265.235.64.609.64 1.484.64 1.796h.297c0-.187 0-.78-.25-1.296h5.14c.36 0 .47.03.47.921v.329H0c-.031-.36-.031-1.22-.031-1.61 0-.406 0-1.265.031-1.61h-.312v.313c0 .89-.11.922-.47.922Zm0 0"/><path id="q" d="M-3.406-1.094H-.75c.438 0 .438.11.438.782H0c-.016-.36-.031-.86-.031-1.125 0-.266.015-.782.031-1.11h-.312c0 .656 0 .766-.438.766h-1.828c-1.031 0-1.594-.703-1.594-1.328 0-.625.547-.735 1.11-.735H-.75c.438 0 .438.11.438.766H0a30.36 30.36 0 0 1-.031-1.125c0-.25.015-.766.031-1.11h-.312c0 .516 0 .766-.297.782H-2.5c-.86 0-1.156 0-1.516.297-.171.14-.375.468-.375 1.047 0 .734.438 1.187 1.047 1.468H-4.39l.11 1.407h.312c0-.704.063-.782.563-.782m0 0"/><path id="r" d="M-6.75-5.781v5.453h.313v-.234c0-.766.109-.782.468-.782H-.78c.36 0 .469.016.469.782v.234H0c-.031-.344-.031-1.125-.031-1.5 0-.422 0-1.313.031-1.672h-.312v.328c0 .938-.125.938-.47.938h-2.437v-.844c0-.953.313-1.063 1.156-1.063v-.25h-2.624v.25c.828 0 1.156.11 1.156 1.063v.844h-2.516c-.328 0-.39-.016-.39-.485v-1.187c0-1.485.546-1.735 1.921-1.89v-.25Zm0 0"/><path id="v" d="M-3.156-3.64h.312c2.328 0 2.782 1.03 2.782 1.609 0 .172-.016.703-.36.969 0-.438-.281-.516-.453-.516-.312 0-.453.234-.453.453 0 .156.094.453.469.453.672 0 1.078-.531 1.078-1.375 0-1.281-1.344-2.484-3.485-2.484-2.671 0-3.343 1.14-3.343 2.015 0 .547.187 1.032.625 1.47.453.405.859.624 1.609.624 1.234 0 2.219-.875 2.219-1.984 0-.594-.422-1-1-1.235m.765 1.234c0 .156 0 .61-.625.922-.375.172-.859.172-1.343.172-.547 0-1.016 0-1.375-.204-.5-.265-.625-.64-.625-1 0-.453.343-.78.78-.953.313-.11.938-.156 1.407-.156.813 0 1.781.344 1.781 1.219m0 0"/><path id="w" d="M-3.25-1.312h-.25c-2.5 0-2.86-1.235-2.86-1.735 0-.234.063-.656.391-.875 0 .156 0 .547.453.547.313 0 .454-.234.454-.453 0-.156-.094-.453-.47-.453-.593 0-1.077.437-1.077 1.25 0 1.281 1.28 2.61 3.468 2.61C-.484-.422.22-1.563.22-2.485c0-1.11-.938-2.047-2.25-2.047-1.25 0-2.203.875-2.203 1.984 0 .672.5 1.031.984 1.235m3.188-1.172c0 .625-.594.922-.735.968-.469.188-1.265.188-1.453.188-.766 0-1.766-.313-1.766-1.219 0-.156 0-.61.625-.922.36-.172.875-.172 1.36-.172.469 0 .969 0 1.328.172.594.297.64.75.64.985m0 0"/><path id="x" d="M-6.562-2.39c-.22.093-.22.124-.22.343v1.688h.313v-.25c0-.766.11-.782.469-.782h4.953c.266 0 .734 0 .734 1.032H0a30.97 30.97 0 0 1-.031-1.172c0-.328.015-.813.031-1.156h-.312c0 1.015-.47 1.015-.735 1.015H-6.39l6.172-2.39c.125-.063.219-.11.219-.204 0-.109-.078-.14-.187-.171L-6.47-6.892H-.78c.36 0 .469.016.469.782v.234H0c-.031-.36-.031-1.047-.031-1.422 0-.39 0-1.062.031-1.422h-.312v.235c0 .765-.11.78-.47.78H-6c-.36 0-.469-.015-.469-.78v-.235h-.312v1.672c0 .266.015.266.187.328L-1-4.547Zm0 0"/><path id="y" d="M-6-6.078c-.36 0-.469-.031-.469-.781v-.25h-.312c.031.359.031 1.093.031 1.468s0 1.11-.031 1.47h.312v-.25c0-.75.11-.782.469-.782h2.313v2.969H-6c-.36 0-.469-.016-.469-.782v-.234h-.312c.031.344.031 1.078.031 1.453s0 1.125-.031 1.469h.312v-.234c0-.766.11-.782.469-.782h5.219c.36 0 .469.016.469.782v.234H0c-.031-.344-.031-1.078-.031-1.453s0-1.125.031-1.469h-.312v.234c0 .766-.11.782-.47.782h-2.593v-2.97h2.594c.36 0 .469.032.469.782v.25H0c-.031-.36-.031-1.094-.031-1.469s0-1.109.031-1.468h-.312v.25c0 .75-.11.78-.47.78Zm0 0"/><path id="z" d="M-3.984-3.875c-.11-.078-.125-.078-.157-.078-.14 0-.14.078-.14.25v3.172l1.61.11v-.25C-3.689-.72-4.064-.907-4.064-2v-1.14l3.75 2.78c.11.079.126.079.172.079C0-.281 0-.344 0-.531v-3.281l-1.86-.172v.25c1.173.093 1.61.297 1.61 1.453v1.172Zm0 0"/><path id="A" d="M-.766-1.266-1.78-2.312C-3.156-3.86-3.687-4.453-4.688-4.453c-1.125 0-1.921.89-1.921 2.11 0 1.109.922 1.843 1.797 1.843.562 0 .562-.484.562-.516a.516.516 0 0 0-.531-.515c-.266 0-.516.172-.516.515 0 .079 0 .11.016.125-.657-.218-1.016-.75-1.016-1.328 0-.906.797-1.328 1.61-1.328.796 0 1.578.485 2.203 1.031L-.36-.609C-.266-.5-.234-.5 0-.5v-3.672l-1.719-.281v.25c.297.047.735.11.875.219.078.062.078.718.078.937Zm0 0"/><path id="B" d="M-4.531-1.625c-.297.469-.64.5-.813.5-.593 0-1.015-.64-1.015-1.344 0-.719.515-1.36 1.234-1.36.563 0 1.031.392 1.39.985Zm.937-1.437c-.36-.72-.875-1.204-1.531-1.204-.922 0-1.484.875-1.484 1.782 0 1 .734 1.797 1.656 1.797.187 0 .625-.016 1.094-.438.125-.11.359-.469.53-.719.298.578.845 1.422 1.829 1.422 1.047 0 1.719-1 1.719-2.047 0-1.125-.828-2.062-1.89-2.062-.36 0-.798.11-1.22.484-.203.188-.296.344-.703.984m.422.984.766-1.219c.187-.281.484-.734 1.094-.734.734 0 1.25.734 1.25 1.547 0 .859-.61 1.578-1.438 1.578-.578 0-1.203-.328-1.672-1.172m0 0"/><path id="m" d="M-.016-2.016c-.656 0-1.03.25-1.03.641a.5.5 0 0 0 .515.516c.265 0 .531-.188.531-.516a.546.546 0 0 0-.125-.344c-.031-.031-.031-.047-.031-.062 0 0 0-.016.14-.016.735 0 1.329.344 1.657.672.109.11.14.11.172.11.062 0 .109-.048.109-.094 0-.11-.766-.907-1.938-.907m0 0"/><clipPath id="a"><path d="M21 169h14v1.117H21Zm0 0"/></clipPath></defs><path fill="none" stroke="#000" stroke-miterlimit="10" stroke-width=".39729228000000005" d="M6.695 159.844H17.34m0 0h21.285m0 0h95.785m0 0h85.145"/><path fill="#FFF" stroke="#000" stroke-miterlimit="10" stroke-width=".39729228000000005" d="M8.277 159.844a1.583 1.583 0 0 0-3.164 0 1.582 1.582 0 0 0 3.164 0Zm0 0"/><path stroke="#000" stroke-miterlimit="10" stroke-width=".39729228000000005" d="M29.562 159.844a1.58 1.58 0 1 0-3.16-.003 1.58 1.58 0 0 0 3.16.003Zm0 0"/><path fill="none" stroke="#000" stroke-miterlimit="10" stroke-width=".39729228000000005" d="M27.98 159.844v9.879"/><g clip-path="url(#a)"><path fill="none" stroke="#000" stroke-linecap="round" stroke-miterlimit="10" stroke-width=".7935888400000001" d="M22.055 169.723H33.91"/></g><path stroke="#000" stroke-miterlimit="10" stroke-width=".39729228000000005" d="M50.848 159.844a1.58 1.58 0 1 0-3.161-.003 1.58 1.58 0 0 0 3.16.003Zm0 0"/><path fill="#FFF" stroke="#000" stroke-miterlimit="10" stroke-width=".39729228000000005" d="M221.137 159.844a1.583 1.583 0 0 0-3.164 0 1.582 1.582 0 0 0 3.164 0Zm0 0"/><use xlink:href="#b" x="217.072" y="156.339"/><path fill="none" stroke="#000" stroke-miterlimit="10" stroke-width=".39729228000000005" d="M6.695 95.984H25m5.96 0h28.95m0 0h10.645"/><path fill="none" stroke="#000" stroke-miterlimit="10" stroke-width=".7935888400000001" d="M25 87.043v17.883m5.96-17.883v17.883"/><path fill="#FFF" stroke="#000" stroke-miterlimit="10" stroke-width=".39729228000000005" d="M8.277 95.984a1.582 1.582 0 0 0-3.164 0 1.583 1.583 0 0 0 3.164 0Zm0 0"/><path stroke="#000" stroke-miterlimit="10" stroke-width=".39729228000000005" d="M50.848 95.984a1.58 1.58 0 1 0-3.16.003 1.58 1.58 0 0 0 3.16-.003Zm0 0"/><use xlink:href="#c" x="14.823" y="82.945"/><use xlink:href="#d" x="19.783" y="82.945"/><use xlink:href="#e" x="22.539" y="82.945"/><use xlink:href="#f" x="29.146" y="82.945"/><use xlink:href="#g" x="34.658" y="82.945"/><path fill="none" stroke="#000" stroke-miterlimit="10" stroke-width=".7935888400000001" d="M94.441 95.984c0-6.101-4.945-11.05-11.05-11.05-6.102 0-11.051 4.949-11.051 11.05 0 6.106 4.95 11.051 11.05 11.051 6.106 0 11.051-4.945 11.051-11.05Zm0 0"/><path fill="none" stroke="#000" stroke-miterlimit="10" stroke-width=".39729228000000005" d="M88.434 79.395V89.43l-8.942 4.097"/><path fill="none" stroke="#000" stroke-miterlimit="10" stroke-width=".7935888400000001" d="M79.492 89.43v13.11"/><path fill="none" stroke="#000" stroke-miterlimit="10" stroke-width=".39729228000000005" d="m79.492 98.441 8.942 4.098v10.035"/><path d="m82.21 99.688.95-2.067 3.676 4.188-5.574-.051Zm0 0"/><path fill="none" stroke="#000" stroke-miterlimit="10" stroke-width=".39729228000000005" d="M79.492 95.984h-9.137"/><use xlink:href="#h" x="95.932" y="99.373"/><use xlink:href="#i" x="102.955" y="99.373"/><use xlink:href="#j" x="111.08" y="99.373"/><use xlink:href="#j" x="116.04" y="99.373"/><use xlink:href="#k" x="121" y="99.373"/><path fill="none" stroke="#000" stroke-miterlimit="10" stroke-width=".39729228000000005" d="M49.266 159.844v-20.012m0-23.84V95.984"/><path fill="none" stroke="#000" stroke-miterlimit="10" stroke-width=".7935888400000001" d="M53.738 115.992v23.84h-8.941v-23.84Zm0 0"/><path stroke="#000" stroke-miterlimit="10" stroke-width=".39729228000000005" d="M50.848 95.984a1.58 1.58 0 1 0-3.16.003 1.58 1.58 0 0 0 3.16-.003Zm0 0"/><use xlink:href="#l" x="40.818" y="137.354"/><use xlink:href="#m" x="40.818" y="132.394"/><use xlink:href="#l" x="40.818" y="129.638"/><use xlink:href="#n" x="40.818" y="123.031"/><path fill="none" stroke="#000" stroke-miterlimit="10" stroke-width=".39729228000000005" d="M88.434 112.375v11.813m0 23.84v11.816"/><path fill="none" stroke="#000" stroke-miterlimit="10" stroke-width=".7935888400000001" d="M83.965 148.027v-23.84h8.937v23.84Zm0 0"/><path stroke="#000" stroke-miterlimit="10" stroke-width=".39729228000000005" d="M90.012 159.844a1.58 1.58 0 1 0-3.16-.005 1.58 1.58 0 0 0 3.16.005Zm0 0"/><use xlink:href="#l" x="81.912" y="143.317"/><use xlink:href="#l" x="81.912" y="138.357"/><use xlink:href="#o" x="81.912" y="133.397"/><path fill="none" stroke="#000" stroke-miterlimit="10" stroke-width=".39729228000000005" d="M88.434 112.375h10.644m0 0h10.64v20.754m0 5.96v20.755"/><path stroke="#000" stroke-miterlimit="10" stroke-width=".39729228000000005" d="M90.012 112.375c0-.871-.707-1.582-1.578-1.582a1.583 1.583 0 0 0 0 3.164c.87 0 1.578-.71 1.578-1.582Zm0 0"/><path fill="none" stroke="#000" stroke-miterlimit="10" stroke-width=".7935888400000001" d="M118.66 133.129h-17.883m17.883 5.96h-17.883"/><path stroke="#000" stroke-miterlimit="10" stroke-width=".39729228000000005" d="M111.3 159.844a1.58 1.58 0 1 0-3.16-.003 1.58 1.58 0 0 0 3.16.003Zm0 0"/><use xlink:href="#p" x="127.935" y="144.158"/><use xlink:href="#q" x="127.935" y="137.551"/><use xlink:href="#r" x="127.935" y="132.04"/><path fill="none" stroke="#000" stroke-miterlimit="10" stroke-width=".39729228000000005" d="M88.434 79.594h26.605m0 0h31.93m0 0h5.324"/><path stroke="#000" stroke-miterlimit="10" stroke-width=".39729228000000005" d="M143.227 79.594a1.58 1.58 0 1 0-3.161.003 1.58 1.58 0 0 0 3.16-.003Zm0 0"/><path fill="none" stroke="#000" stroke-linejoin="bevel" stroke-miterlimit="10" stroke-width=".7935888400000001" d="M152.133 44.926c2.469 0 4.469 1.379 4.469 3.082 0 1.699-2 3.078-4.47 3.078 2.47 0 4.47 1.379 4.47 3.078 0 1.703-2 3.082-4.47 3.082 2.47 0 4.47 1.379 4.47 3.078 0 1.7-2 3.078-4.47 3.078 2.47 0 4.47 1.38 4.47 3.078 0 1.704-2 3.083-4.47 3.083M170.328 69.563c-2.465 0-4.469-1.38-4.469-3.083 0-1.699 2.004-3.078 4.47-3.078-2.466 0-4.47-1.379-4.47-3.078 0-1.699 2.004-3.078 4.47-3.078-2.466 0-4.47-1.379-4.47-3.082 0-1.7 2.004-3.078 4.47-3.078-2.466 0-4.47-1.379-4.47-3.078 0-1.703 2.004-3.082 4.47-3.082"/><path fill="none" stroke="#000" stroke-miterlimit="10" stroke-width=".39729228000000005" d="M152.293 34.895v10.43m0 23.84v10.429m17.879-44.7v10.43m0 23.84v10.43"/><path fill="none" stroke="#000" stroke-miterlimit="10" stroke-width=".7935888400000001" d="M162.348 68.418V46.07m-2.235 22.348V46.07"/><path fill="none" stroke="#000" stroke-miterlimit="10" stroke-width=".39729228000000005" d="M141.648 79.594v23.629m0 5.96v37.141m0 0v13.52"/><path fill="none" stroke="#000" stroke-miterlimit="10" stroke-width=".7935888400000001" d="M150.59 109.184h-17.883m17.883-5.961h-17.883M132.707 115.14l17.46-17.456"/><path fill="none" stroke="#000" stroke-miterlimit="10" stroke-width=".7935729" d="m148.133 95.367 4.347 4.352"/><path stroke="#000" stroke-miterlimit="10" stroke-width=".39729228000000005" d="M143.227 159.844a1.58 1.58 0 1 0-3.16-.005 1.58 1.58 0 0 0 3.16.005Zm0 0"/><path fill="none" stroke="#000" stroke-miterlimit="10" stroke-width=".39729228000000005" d="M170.172 79.594v23.629m0 5.96v37.141m0 0v13.52"/><path fill="none" stroke="#000" stroke-miterlimit="10" stroke-width=".7935888400000001" d="M179.113 109.184H161.23m17.883-5.961H161.23M161.23 115.14l17.461-17.456"/><path fill="none" stroke="#000" stroke-miterlimit="10" stroke-width=".7935729" d="m176.656 95.367 4.348 4.352"/><path stroke="#000" stroke-miterlimit="10" stroke-width=".39729228000000005" d="M171.75 159.844a1.58 1.58 0 1 0-3.16-.005 1.58 1.58 0 0 0 3.16.005Zm0 0"/><path fill="none" stroke="#000" stroke-miterlimit="10" stroke-width=".39729228000000005" d="M170.172 34.895h10.64m0 0h10.645v62.472m0 0v62.477"/><path stroke="#000" stroke-miterlimit="10" stroke-width=".39729228000000005" d="M193.039 159.844a1.583 1.583 0 0 0-3.164 0 1.582 1.582 0 0 0 3.164 0Zm0 0"/><path fill="none" stroke="#000" stroke-miterlimit="10" stroke-width=".39729228000000005" d="M170.172 51.285h24.691m0 0h24.692"/><path stroke="#000" stroke-miterlimit="10" stroke-width=".39729228000000005" d="M171.75 51.285a1.58 1.58 0 1 0-3.16-.005 1.58 1.58 0 0 0 3.16.005Zm0 0"/><path fill="#FFF" stroke="#000" stroke-miterlimit="10" stroke-width=".39729228000000005" d="M221.137 51.285a1.583 1.583 0 0 0-3.164 0 1.582 1.582 0 0 0 3.164 0Zm0 0"/><path fill="none" stroke="#000" stroke-miterlimit="10" stroke-width=".39729228000000005" d="m152.293 34.895-.004-10.645m0 0 .004-10.64h14.684m23.843 0h21.711m0 0h7.024"/><path stroke="#000" stroke-miterlimit="10" stroke-width=".39729228000000005" d="M153.871 13.61a1.58 1.58 0 1 0-3.16-.006 1.58 1.58 0 0 0 3.16.005Zm0 0"/><path fill="none" stroke="#000" stroke-linejoin="bevel" stroke-miterlimit="10" stroke-width=".7935888400000001" d="M166.582 13.766c0-2.47 1.379-4.47 3.078-4.47 1.703 0 3.078 2 3.078 4.47 0-2.47 1.38-4.47 3.082-4.47 1.7 0 3.078 2 3.078 4.47 0-2.47 1.38-4.47 3.079-4.47 1.703 0 3.082 2 3.082 4.47 0-2.47 1.375-4.47 3.078-4.47 1.699 0 3.078 2 3.078 4.47"/><path fill="#FFF" stroke="#000" stroke-miterlimit="10" stroke-width=".39729228000000005" d="M221.137 13.61a1.583 1.583 0 0 0-3.164 0 1.582 1.582 0 0 0 3.164 0Zm0 0"/><use xlink:href="#s" x="215.693" y="9.282"/><path fill="none" stroke="#000" stroke-miterlimit="10" stroke-width=".39729228000000005" d="M152.293 13.61h-18.309m-5.96 0h-18.305"/><path fill="none" stroke="#000" stroke-miterlimit="10" stroke-width=".7935888400000001" d="M133.984 22.547V4.668m-5.96 17.879V4.668"/><use xlink:href="#t" x="121.703" y="33.381"/><use xlink:href="#u" x="128.31" y="33.381"/><use xlink:href="#g" x="133.822" y="33.381"/><path fill="none" stroke="#000" stroke-miterlimit="10" stroke-width=".39729228000000005" d="M109.719 13.61v9.878"/><path fill="none" stroke="#000" stroke-linecap="round" stroke-miterlimit="10" stroke-width=".7935888400000001" d="M103.793 23.488h11.855"/><path fill="none" stroke="#000" stroke-dasharray="2.9760378076 2.9760378076" stroke-miterlimit="10" stroke-width=".39729228000000005" d="M166.977 7.156h23.843"/><use xlink:href="#v" x="10.085" y="144.173"/><use xlink:href="#w" x="10.085" y="139.213"/><use xlink:href="#x" x="10.085" y="132.606"/><use xlink:href="#y" x="10.085" y="123.512"/><use xlink:href="#z" x="10.085" y="116.072"/><use xlink:href="#A" x="222.942" y="124.302"/><use xlink:href="#B" x="222.942" y="119.342"/><use xlink:href="#B" x="222.942" y="114.382"/><use xlink:href="#x" x="222.942" y="107.775"/><use xlink:href="#y" x="222.942" y="98.682"/><use xlink:href="#z" x="222.942" y="91.242"/></svg>