<svg xmlns="http://www.w3.org/2000/svg" xmlns:xlink="http://www.w3.org/1999/xlink" width="228.071" height="120.388"><defs><path id="n" d="M7.14-2.484c0-.188-.187-.188-.327-.188H4.047v-2.781c0-.14 0-.328-.188-.328-.203 0-.203.187-.203.328v2.781H.875c-.125 0-.312 0-.312.188 0 .203.187.203.312.203h2.781V.5c0 .14 0 .328.203.328.188 0 .188-.187.188-.328v-2.781h2.766c.14 0 .328 0 .328-.203m0 0"/><path id="o" d="M-5.156-5.969h-.266c.031.36.031.735.031.938 0 .218 0 .593-.03.937h.265c0-.797.375-.797.578-.797h3.39l-4.109 2.97c-.11.077-.125.093-.125.25v1.327h.266v-.234c0-.14 0-.203.015-.36.016-.203.032-.218.188-.218h4.11c.202 0 .577 0 .577.812H0c-.031-.36-.031-.734-.031-.937 0-.219 0-.578.031-.938h-.266c0 .797-.375.797-.578.797H-4.89l4.766-3.437c.094-.063.125-.079.125-.172 0-.125-.078-.125-.219-.125h-4.36c-.202 0-.577 0-.577-.813m0 0"/><path id="p" d="m-3.594-5.14-1.797.234v4.562h.25V-.53c0-.61.094-.625.391-.625h4.11c.296 0 .374.015.374.625v.187H0l-.031-1.234c0-.36 0-.953.031-1.297h-.266v.25c0 .75-.109.75-.39.75h-1.922v-.75c0-.766.25-.875.937-.875v-.234h-2.125v.234c.672 0 .938.11.938.875v.75h-1.985c-.265 0-.328-.016-.328-.39v-1.047c0-1.297.5-1.454 1.547-1.579Zm0 0"/><path id="q" d="M-5.766-3.734c-.109 0-.187.078-.187.172 0 .14.094.171.187.203L1.656-.516c.094.047.14.047.14.047a.18.18 0 0 0 .188-.187c0-.125-.093-.156-.187-.188l-7.422-2.86c-.094-.03-.14-.03-.14-.03m0 0"/><path id="r" d="M-1.453-5.5c-.64 0-1.266.625-1.375 1.61-.188-.86-.719-1.36-1.25-1.36-.703 0-1.344.797-1.344 1.86v3.015h.266v-.187c0-.61.078-.625.375-.625h4.14c.297 0 .375.015.375.625v.187H0v-3.25C0-4.719-.703-5.5-1.453-5.5m-2.625 1.016c.531 0 1.156.468 1.156 1.375v1.25h-1.906c-.281 0-.328-.016-.328-.375v-1.11c0-.781.61-1.14 1.078-1.14m2.625-.203c.64 0 1.187.53 1.187 1.343v1.11c0 .359-.046.375-.328.375h-2.11v-1.61c0-.765.61-1.219 1.25-1.219m0 0"/><path id="s" d="M-.719-4.078h-.437v.25h.437c.328 0 .453.11.453.281 0 .297-.359.297-.453.297h-1.64c-.782 0-1.188.75-1.188 1.469 0 .656.266 1.25.781 1.25.235 0 .391-.172.391-.375a.37.37 0 0 0-.375-.375.385.385 0 0 0-.375.297c-.187-.297-.187-.72-.187-.782 0-.437.296-.89.953-.89h.25c.015.469.046 1 .28 1.547.298.703.75.843 1.017.843.687 0 .89-.812.89-1.359a1.23 1.23 0 0 0-.64-1.11c.296-.03.609-.234.609-.593 0-.078-.031-.75-.766-.75m-.406 1.422c.781 0 .984.656.984.969 0 .421-.28.765-.656.765-.531 0-1.062-.484-1.11-1.734Zm0 0"/><path id="t" d="M-1.031-3.047c-.375 0-.922.235-1.11 1.188-.015.062-.093.5-.093.53-.047.25-.22.626-.532.626-.25 0-.578-.172-.578-.938 0-.89.656-.921.875-.937.063-.016.094-.063.094-.125 0-.125-.062-.125-.219-.125h-.734c-.125 0-.219 0-.219.11 0 .03 0 .062.14.187 0 .015.079.094.079.11 0 0 0 .03-.031.077-.094.125-.188.344-.188.703 0 1.11.61 1.36.985 1.36.406 0 .64-.297.656-.313.234-.312.265-.5.36-1.031.077-.375.187-.984.734-.984.296 0 .671.203.671.937 0 .797-.625 1.031-1.046 1.125-.094.031-.141.047-.141.14 0 .126.062.126.219.126h.984c.125 0 .203 0 .203-.094 0-.047 0-.062-.156-.203-.047-.047-.14-.125-.188-.172.329-.36.344-.719.344-.937 0-1-.578-1.36-1.11-1.36m0 0"/><path id="u" d="M0-2.062h-.266c0 .515-.03.546-.343.546H-3.5l.094 1.157h.25c0-.5.047-.578.437-.578h2.094c.36 0 .36.093.36.609H0c-.031-.313-.031-.766-.031-.875 0-.11 0-.578.031-.86m-4.781.453a.427.427 0 0 0-.438.437c0 .234.172.438.438.438a.437.437 0 1 0 0-.875m0 0"/><path id="v" d="M-1.719-4.39c-1 0-1.781.812-1.781 1.78 0 .626.344 1.016.484 1.157h-2.5l.094 1.172h.266c0-.531.047-.594.437-.594H0v-.25l-.484-.281c.265-.203.562-.563.562-1.11 0-1.015-.781-1.875-1.797-1.875m0 .702c.172 0 .75 0 1.11.282.359.281.468.656.468.922 0 .375-.203.703-.515.906-.14.094-.156.094-.297.094h-1.563c-.14 0-.156 0-.296-.125a1.206 1.206 0 0 1-.47-.953c0-.407.25-.72.485-.876.219-.14.5-.25 1.078-.25m0 0"/><path id="w" d="M0-4.453h-.266c0 .5 0 .594-.359.594h-1.781c-.672 0-1.094.297-1.094 1.14 0 .781.578 1.14.766 1.235v.015H-3.5l.094 1.14h.25c0-.53.062-.593.453-.593h2.078c.36 0 .36.094.36.594H0c-.031-.344-.031-.688-.031-.906 0-.22 0-.563.031-.907h-.266c0 .516 0 .61-.359.61h-1.437c-.829 0-1.22-.64-1.22-1.125s.345-.594.845-.594h1.812c.36 0 .36.094.36.594H0C-.031-3-.031-3.344-.031-3.562c0-.22 0-.563.031-.891m0 0"/><path id="x" d="M0-4.39h-.266c0 .53-.046.593-.437.593h-4.813l.094 1.188h.266c0-.547.047-.61.437-.61h1.672A1.441 1.441 0 0 0-3.5-2.156c0 1 .766 1.875 1.797 1.875.969 0 1.781-.797 1.781-1.797 0-.469-.219-.844-.5-1.11h.5Zm-.984 1.202c.14 0 .172 0 .328.11.328.234.515.594.515.969 0 .359-.187.687-.484.875-.312.203-.703.25-1.078.25-.453 0-.781-.079-1.063-.25a1.14 1.14 0 0 1-.515-.953c0-.391.187-.766.61-1Zm0 0"/><path id="y" d="M-1.531-3.39v.25c.922.078 1.281.234 1.281 1.203v.953l-2.89-2.313c-.079-.047-.094-.062-.157-.062-.125 0-.125.093-.125.218v2.704l1.328.093v-.25c-.828-.047-1.11-.219-1.11-1.11v-.905L-.296-.312c.078.062.094.078.156.078C0-.234 0-.328 0-.454V-3.25Zm0 0"/><path id="z" d="M0-4.453h-.266c0 .531-.046.594-.437.594H-3.5l.094 1.203h.25c0-.531.062-.594.453-.594h1.375c.687 0 1.187.406 1.187 1 0 .688-.343.719-.734.719H-3.5l.094 1.203h.25c0-.594.031-.594.734-.594h1.188c.578 0 1.312 0 1.312-1.281 0-.735-.562-1.031-.64-1.063v-.015h.64Zm0 0"/><path id="A" d="M0-6.797h-.266c0 .5 0 .594-.359.594h-1.781c-.64 0-1.094.281-1.094 1.14 0 .735.5 1.11.734 1.235-.578.14-.734.594-.734 1.11 0 .765.547 1.124.766 1.234v.015H-3.5l.094 1.14h.25c0-.53.062-.593.453-.593h2.078c.36 0 .36.094.36.594H0c-.031-.344-.031-.688-.031-.906 0-.22 0-.563.031-.907h-.266c0 .516 0 .61-.359.61h-1.437c-.829 0-1.22-.625-1.22-1.125 0-.516.407-.61.845-.61h1.812c.36 0 .36.094.36.61H0C-.031-3-.031-3.344-.031-3.562c0-.235 0-.563.031-.907h-.266c0 .516 0 .61-.359.61h-1.437c-.829 0-1.22-.641-1.22-1.141 0-.516.407-.594.845-.594h1.812c.36 0 .36.094.36.594H0c-.031-.328-.031-.687-.031-.89 0-.235 0-.579.031-.907m0 0"/><path id="B" d="M-2.687-6.078c-1.594 0-2.907 1.266-2.907 2.797C-5.594-1.72-4.28-.47-2.687-.47c1.609 0 2.859-1.297 2.859-2.797 0-1.546-1.266-2.812-2.86-2.812m-.126.828c2.016 0 2.72 1.14 2.72 1.969 0 .875-.72 1.984-2.72 1.984-1.89 0-2.53-1.156-2.53-1.969 0-.859.671-1.984 2.53-1.984m0 0"/><path id="C" d="M0-2.125h-.266c0 .516 0 .61-.359.61h-4.89l.093 1.187h.266c0-.547.047-.61.437-.61h4.094c.36 0 .36.094.36.61H0c-.031-.313-.031-.766-.031-.89 0-.157 0-.594.031-.907m0 0"/><path id="D" d="M-.984-2.797h-.453v.235h.421c.563 0 .844.25.844.546 0 .547-.672.547-.797.547h-2.187v-1.187h-.266v1.187h-1.453v.235c.719.015 1.469.343 1.5 1.078h.219v-.719h2.172c.922 0 1.062-.719 1.062-1.078 0-.531-.469-.844-1.062-.844m0 0"/><path id="E" d="M-1.687-3.969c-1 0-1.86.813-1.86 1.86 0 1.047.86 1.875 1.86 1.875.984 0 1.765-.86 1.765-1.875 0-1.016-.781-1.86-1.765-1.86m-.079.703c.375 0 .813.016 1.141.235.313.219.453.578.453.922 0 .437-.203.765-.484.937-.313.203-.703.234-1.11.234-.296 0-.78 0-1.109-.25-.281-.203-.437-.546-.437-.921 0-.407.187-.75.468-.938.328-.203.766-.219 1.078-.219m0 0"/><path id="F" d="M-3-3.047c-.281 0-.5.25-.5.61 0 .515.39.859.828 1.03H-3.5l.094 1.126h.25c0-.531.062-.594.453-.594h2.078c.36 0 .36.094.36.594H0c-.031-.313-.031-.75-.031-.938 0-.468 0-.484.031-1h-.266v.156c0 .594-.078.61-.375.61h-1.171c-.594 0-1.454-.25-1.47-1.016.032.047.095.125.282.125a.34.34 0 0 0 .36-.344c0-.187-.126-.359-.36-.359m0 0"/><clipPath id="a"><path d="M5 116h4v3.777H5Zm0 0"/></clipPath><clipPath id="b"><path d="M.113 110H15v9.777H.113Zm0 0"/></clipPath><clipPath id="c"><path d="M110 116h4v3.777h-4Zm0 0"/></clipPath><clipPath id="d"><path d="M104 110h16v9.777h-16Zm0 0"/></clipPath><clipPath id="e"><path d="M162 116h4v3.777h-4Zm0 0"/></clipPath><clipPath id="f"><path d="M157 110h15v9.777h-15Zm0 0"/></clipPath><clipPath id="g"><path d="M188 116h5v3.777h-5Zm0 0"/></clipPath><clipPath id="h"><path d="M183 110h15v9.777h-15Zm0 0"/></clipPath><clipPath id="i"><path d="M188 116h5v3.777h-5Zm0 0"/></clipPath><clipPath id="j"><path d="M183 110h15v9.777h-15Zm0 0"/></clipPath><clipPath id="k"><path d="M214 116h5v3.777h-5Zm0 0"/></clipPath><clipPath id="l"><path d="M209 110h15v9.777h-15Zm0 0"/></clipPath><clipPath id="m"><path d="M.113 32H15v15H.113Zm0 0"/></clipPath></defs><path fill="none" stroke="#000" stroke-miterlimit="10" stroke-width=".39698106000000005" d="M7.383 118.004H59.68m0 0h78.449m0 0h39.223m0 0H203.5m0 0h13.074"/><g clip-path="url(#a)"><path fill="#FFF" d="M8.96 118.004a1.58 1.58 0 0 0-1.577-1.582 1.58 1.58 0 0 0 0 3.16c.87 0 1.578-.707 1.578-1.578m0 0"/></g><g clip-path="url(#b)"><path fill="none" stroke="#000" stroke-miterlimit="10" stroke-width=".39698106000000005" d="M8.96 118.004a1.58 1.58 0 0 0-1.577-1.582 1.58 1.58 0 0 0 0 3.16c.87 0 1.578-.707 1.578-1.578Zm0 0"/></g><g clip-path="url(#c)"><path d="M113.559 118.004a1.58 1.58 0 1 0-3.16-.005 1.58 1.58 0 0 0 3.16.005m0 0"/></g><g clip-path="url(#d)"><path fill="none" stroke="#000" stroke-miterlimit="10" stroke-width=".39698106000000005" d="M113.559 118.004a1.58 1.58 0 1 0-3.16-.005 1.58 1.58 0 0 0 3.16.005Zm0 0"/></g><g clip-path="url(#e)"><path d="M165.855 118.004a1.58 1.58 0 0 0-1.578-1.582 1.58 1.58 0 0 0 0 3.16c.871 0 1.578-.707 1.578-1.578m0 0"/></g><g clip-path="url(#f)"><path fill="none" stroke="#000" stroke-miterlimit="10" stroke-width=".39698106000000005" d="M165.855 118.004a1.58 1.58 0 0 0-1.578-1.582 1.58 1.58 0 0 0 0 3.16c.871 0 1.578-.707 1.578-1.578Zm0 0"/></g><g clip-path="url(#g)"><path d="M192.004 118.004a1.58 1.58 0 0 0-1.578-1.582 1.58 1.58 0 0 0 0 3.16c.87 0 1.578-.707 1.578-1.578m0 0"/></g><g clip-path="url(#h)"><path fill="none" stroke="#000" stroke-miterlimit="10" stroke-width=".39698106000000005" d="M192.004 118.004a1.58 1.58 0 0 0-1.578-1.582 1.58 1.58 0 0 0 0 3.16c.87 0 1.578-.707 1.578-1.578Zm0 0"/></g><g clip-path="url(#i)"><path d="M192.004 118.004a1.58 1.58 0 0 0-1.578-1.582 1.58 1.58 0 0 0 0 3.16c.87 0 1.578-.707 1.578-1.578m0 0"/></g><g clip-path="url(#j)"><path fill="none" stroke="#000" stroke-miterlimit="10" stroke-width=".39698106000000005" d="M192.004 118.004a1.58 1.58 0 0 0-1.578-1.582 1.58 1.58 0 0 0 0 3.16c.87 0 1.578-.707 1.578-1.578Zm0 0"/></g><g clip-path="url(#k)"><path fill="#FFF" d="M218.156 118.004a1.58 1.58 0 1 0-3.16-.003 1.58 1.58 0 0 0 3.16.003m0 0"/></g><g clip-path="url(#l)"><path fill="none" stroke="#000" stroke-miterlimit="10" stroke-width=".39698106000000005" d="M218.156 118.004a1.58 1.58 0 1 0-3.16-.003 1.58 1.58 0 0 0 3.16.003Zm0 0"/></g><path fill="none" stroke="#000" stroke-miterlimit="10" stroke-width=".39698106000000005" d="M7.383 39.555h16.894m31.586 0h32.555m7.898 0h37.864m7.898 0h35.274m0 0H203.5m0 0h13.074"/><path fill="none" stroke="#000" stroke-linejoin="bevel" stroke-miterlimit="10" stroke-width=".7929671800000001" d="M23.879 39.715c0-3.274 1.812-5.922 4.047-5.922 2.238 0 4.05 2.648 4.05 5.922 0-3.274 1.81-5.922 4.047-5.922 2.235 0 4.047 2.648 4.047 5.922 0-3.274 1.813-5.922 4.047-5.922 2.235 0 4.047 2.648 4.047 5.922 0-3.274 1.813-5.922 4.047-5.922 2.238 0 4.05 2.648 4.05 5.922"/><path fill="#FFF" d="M8.96 39.555a1.579 1.579 0 1 0-3.157 0 1.579 1.579 0 0 0 3.158 0m0 0"/><g clip-path="url(#m)"><path fill="none" stroke="#000" stroke-miterlimit="10" stroke-width=".39698106000000005" d="M8.96 39.555a1.579 1.579 0 1 0-3.157 0 1.579 1.579 0 0 0 3.158 0Zm0 0"/></g><path fill="none" stroke="#000" stroke-miterlimit="10" stroke-width=".7929671800000001" d="M88.418 27.711v23.691m7.898-23.691v23.691"/><path stroke="#000" stroke-miterlimit="10" stroke-width=".39698106000000005" d="M113.559 39.555a1.58 1.58 0 0 0-3.16 0 1.58 1.58 0 0 0 3.16 0Zm0 0"/><path fill="none" stroke="#000" stroke-miterlimit="10" stroke-width=".7929671800000001" d="M134.18 27.711v23.691m7.898-23.691v23.691"/><path stroke="#000" stroke-miterlimit="10" stroke-width=".39698106000000005" d="M165.855 39.555a1.579 1.579 0 1 0-3.157 0 1.579 1.579 0 0 0 3.157 0ZM192.004 39.555a1.579 1.579 0 1 0-3.158 0 1.579 1.579 0 0 0 3.158 0Zm0 0"/><path stroke="#000" stroke-miterlimit="10" stroke-width=".39698106000000005" d="M192.004 39.555a1.579 1.579 0 1 0-3.158 0 1.579 1.579 0 0 0 3.158 0Zm0 0"/><path fill="#FFF" stroke="#000" stroke-miterlimit="10" stroke-width=".39698106000000005" d="M218.156 39.555a1.58 1.58 0 0 0-3.16 0 1.58 1.58 0 0 0 3.16 0Zm0 0"/><path fill="none" stroke="#000" stroke-miterlimit="10" stroke-width=".39698106000000005" d="M111.98 39.555V26.48m0 0V13.406h36.504m31.586 0h36.504"/><path fill="none" stroke="#000" stroke-miterlimit="10" stroke-width=".7929671800000001" d="M148.484 7.484h31.586v11.844h-31.586Zm0 0"/><path fill="#FFF" stroke="#000" stroke-miterlimit="10" stroke-width=".39698106000000005" d="M218.156 13.406a1.58 1.58 0 0 0-3.16 0 1.58 1.58 0 0 0 3.16 0Zm0 0"/><use xlink:href="#n" x="212.716" y="9.083"/><path fill="none" stroke="#000" stroke-miterlimit="10" stroke-width=".39698106000000005" d="M111.98 39.555v31.328m0 15.793v31.328"/><path fill="none" stroke="#000" stroke-miterlimit="10" stroke-width=".7929671800000001" d="m111.98 70.883 9.872 15.793h-19.743Zm0 0"/><path fill="none" stroke="#000" stroke-miterlimit="10" stroke-width=".39698106000000005" d="M111.98 70.883v15.793"/><path fill="none" stroke="#000" stroke-miterlimit="10" stroke-width=".7929671800000001" d="M102.11 70.883h19.742"/><path fill="none" stroke="#000" stroke-miterlimit="10" stroke-width=".39698106000000005" d="M164.277 39.555v35.277m0 7.895v35.277"/><path fill="none" stroke="#000" stroke-miterlimit="10" stroke-width=".7929671800000001" d="M176.121 82.727h-23.687m23.687-7.895h-23.687M152.434 90.625l23.27-23.27"/><path fill="none" stroke="#000" stroke-miterlimit="10" stroke-width=".7929512400000001" d="m173.668 65.043 4.348 4.344"/><path fill="none" stroke="#000" stroke-miterlimit="10" stroke-width=".39698106000000005" d="M190.426 39.555v23.43m0 31.59v23.429"/><path fill="none" stroke="#000" stroke-linejoin="bevel" stroke-miterlimit="10" stroke-width=".7929671800000001" d="M190.27 62.59c3.269 0 5.921 1.812 5.921 4.047 0 2.234-2.652 4.047-5.921 4.047 3.269 0 5.921 1.812 5.921 4.046 0 2.235-2.652 4.047-5.921 4.047 3.269 0 5.921 1.813 5.921 4.051 0 2.235-2.652 4.047-5.921 4.047 3.269 0 5.921 1.813 5.921 4.047s-2.652 4.047-5.921 4.047"/><use xlink:href="#o" x="9.366" y="105.491"/><use xlink:href="#p" x="9.366" y="99.179"/><use xlink:href="#q" x="9.366" y="93.683"/><use xlink:href="#r" x="9.366" y="89.473"/><use xlink:href="#s" x="9.366" y="83.509"/><use xlink:href="#t" x="9.366" y="79.299"/><use xlink:href="#u" x="9.366" y="75.976"/><use xlink:href="#t" x="9.366" y="73.637"/><use xlink:href="#v" x="9.366" y="70.314"/><use xlink:href="#s" x="9.366" y="65.636"/><use xlink:href="#w" x="9.366" y="61.425"/><use xlink:href="#x" x="9.366" y="56.746"/><use xlink:href="#y" x="219.28" y="105.709"/><use xlink:href="#z" x="219.28" y="101.966"/><use xlink:href="#A" x="219.28" y="97.287"/><use xlink:href="#B" x="219.28" y="87.462"/><use xlink:href="#t" x="219.28" y="80.912"/><use xlink:href="#y" x="219.28" y="77.59"/><use xlink:href="#u" x="219.28" y="73.847"/><use xlink:href="#C" x="219.28" y="71.507"/><use xlink:href="#C" x="219.28" y="69.168"/><use xlink:href="#s" x="219.28" y="66.829"/><use xlink:href="#D" x="219.28" y="62.618"/><use xlink:href="#E" x="219.28" y="59.343"/><use xlink:href="#F" x="219.28" y="55.132"/><path fill="none" stroke="#000" stroke-dasharray="2.9737065202000004 2.9737065202000004" stroke-miterlimit="10" stroke-width=".39698106000000005" d="M24.277 31.648h31.586"/></svg>