<svg xmlns="http://www.w3.org/2000/svg" xmlns:xlink="http://www.w3.org/1999/xlink" width="230.828" height="143.763"><defs><clipPath id="a"><path d="M.105 125H4v4H.105Zm0 0"/></clipPath><clipPath id="b"><path d="M.105 120H10v15H.105Zm0 0"/></clipPath><clipPath id="c"><path d="M42 138h14v5.527H42Zm0 0"/></clipPath><clipPath id="e"><path d="M.105 68H4v4H.105Zm0 0"/></clipPath><clipPath id="f"><path d="M.105 63H10v15H.105Zm0 0"/></clipPath><path id="d" d="M7.219 0v-.312H7.03c-.515 0-.718-.047-.937-.36L4-3.844l1.36-2c.218-.312.562-.64 1.452-.64v-.313l-1.109.031c-.39 0-.875 0-1.281-.03v.312c.406 0 .625.218.625.453 0 .093-.016.125-.094.234L3.828-4.125 2.531-6.047c-.015-.031-.062-.11-.062-.14 0-.125.219-.297.64-.297v-.313c-.343.031-1.062.031-1.453.031l-1.281-.03v.312h.188c.546 0 .734.062.921.343l1.829 2.766L1.687-.969c-.14.203-.437.657-1.453.657V0l1.11-.031c.375 0 .922 0 1.281.031v-.312c-.469 0-.64-.282-.64-.454 0-.093.03-.125.109-.234L3.5-3.094 5.078-.719c.016.047.047.078.047.11 0 .125-.219.297-.64.297V0c.343-.031 1.062-.031 1.452-.031Zm0 0"/><path id="g" d="M7.172-2.484c0-.203-.188-.203-.328-.203H4.078V-5.47c0-.14 0-.328-.203-.328s-.203.188-.203.328v2.782H.89c-.141 0-.328 0-.328.203 0 .187.187.187.328.187h2.78V.5c0 .14 0 .328.204.328.203 0 .203-.187.203-.328v-2.797h2.766c.14 0 .328 0 .328-.187m0 0"/></defs><path fill="none" stroke="#000" stroke-miterlimit="10" stroke-width=".39834165" d="M1.887 127.281h9.484m0 0h23.715m0 0h14.23"/><g clip-path="url(#a)"><path fill="#FFF" d="M3.473 127.281a1.587 1.587 0 0 0-3.172 0 1.587 1.587 0 0 0 3.172 0m0 0"/></g><g clip-path="url(#b)"><path fill="none" stroke="#000" stroke-miterlimit="10" stroke-width=".39834165" d="M3.473 127.281a1.587 1.587 0 0 0-3.172 0 1.587 1.587 0 0 0 3.172 0Zm0 0"/></g><path stroke="#000" stroke-miterlimit="10" stroke-width=".39834165" d="M22.441 127.281a1.584 1.584 0 1 0-3.168 0 1.584 1.584 0 1 0 3.168 0ZM50.898 127.281a1.584 1.584 0 1 0-3.168 0 1.584 1.584 0 1 0 3.168 0Zm0 0"/><path fill="none" stroke="#000" stroke-miterlimit="10" stroke-width=".39834165" d="M49.316 127.281v11.887"/><g clip-path="url(#c)"><path fill="none" stroke="#000" stroke-miterlimit="10" stroke-width=".7956849500000001" d="M43.371 139.168h11.887m-9.903 1.98h7.922m-6.437 1.98h4.953"/></g><path fill="none" stroke="#000" stroke-miterlimit="10" stroke-width=".39834165" d="M20.86 127.281V80.992m0-21.25V13.453h14.226m0 0h14.23v25.8m0 5.313v51.602m0 5.312v25.801"/><path fill="none" stroke="#000" stroke-linejoin="bevel" stroke-miterlimit="10" stroke-width=".7956849500000001" d="M20.7 59.344c2.198 0 3.984 1.234 3.984 2.758 0 1.52-1.786 2.753-3.985 2.753 2.2 0 3.985 1.235 3.985 2.758 0 1.52-1.786 2.754-3.985 2.754 2.2 0 3.985 1.235 3.985 2.754 0 1.524-1.786 2.758-3.985 2.758 2.2 0 3.985 1.234 3.985 2.754 0 1.523-1.786 2.758-3.985 2.758M18.668 66.488l10.16 8.13"/><path fill="none" stroke="#000" stroke-miterlimit="10" stroke-width=".79563713" d="m16.586 68.773 3.851-4.816"/><path fill="none" stroke="#000" stroke-miterlimit="10" stroke-width=".7956849500000001" d="M57.285 39.254H41.348m15.937 5.312H41.348"/><path stroke="#000" stroke-miterlimit="10" stroke-width=".39834165" d="M50.898 70.367a1.584 1.584 0 1 0-3.168 0 1.584 1.584 0 1 0 3.168 0Zm0 0"/><path fill="none" stroke="#000" stroke-miterlimit="10" stroke-width=".7956849500000001" d="M57.285 96.168H41.348m15.937 5.312H41.348"/><use xlink:href="#d" x="7.229" y="63.14"/><path fill="none" stroke="#000" stroke-dasharray="2.9838984305 2.9838984305" stroke-miterlimit="10" stroke-width=".39834165" d="M26.832 59.742v21.25"/><path fill="none" stroke="#000" stroke-miterlimit="10" stroke-width=".39834165" d="M20.86 70.367H11.37m0 0H1.887"/><path stroke="#000" stroke-miterlimit="10" stroke-width=".39834165" d="M22.441 70.367a1.584 1.584 0 1 0-3.168 0 1.584 1.584 0 1 0 3.168 0Zm0 0"/><g clip-path="url(#e)"><path fill="#FFF" d="M3.473 70.367a1.587 1.587 0 0 0-3.172 0 1.587 1.587 0 0 0 3.172 0m0 0"/></g><g clip-path="url(#f)"><path fill="none" stroke="#000" stroke-miterlimit="10" stroke-width=".39834165" d="M3.473 70.367a1.587 1.587 0 0 0-3.172 0 1.587 1.587 0 0 0 3.172 0Zm0 0"/></g><path fill="none" stroke="#000" stroke-miterlimit="10" stroke-width=".39834165" d="M49.316 70.367h14.227m0 0h14.23M49.316 127.281h14.227m0 0h14.23V109.45m0-21.25V52.535m0-21.25V13.453"/><path stroke="#000" stroke-miterlimit="10" stroke-width=".39834165" d="M79.355 127.281a1.584 1.584 0 1 0-3.168 0 1.584 1.584 0 1 0 3.168 0Zm0 0"/><path fill="none" stroke="#000" stroke-miterlimit="10" stroke-width=".7956849500000001" d="M81.758 88.2v21.25h-7.969V88.2Zm0 0"/><path stroke="#000" stroke-miterlimit="10" stroke-width=".39834165" d="M79.355 70.367a1.584 1.584 0 1 0-3.168 0 1.584 1.584 0 1 0 3.168 0Zm0 0"/><path fill="none" stroke="#000" stroke-miterlimit="10" stroke-width=".7956849500000001" d="M81.758 31.285v21.25h-7.969v-21.25Zm0 0"/><path fill="none" stroke="#000" stroke-miterlimit="10" stroke-width=".39834165" d="M77.773 70.367H92m0 0h14.23"/><path fill="none" stroke="#000" stroke-miterlimit="10" stroke-width=".7956849500000001" d="M127.523 70.367c0-5.441-4.41-9.847-9.851-9.847-5.438 0-9.848 4.406-9.848 9.847 0 5.442 4.41 9.848 9.848 9.848 5.441 0 9.851-4.406 9.851-9.848Zm0 0"/><path fill="none" stroke="#000" stroke-miterlimit="10" stroke-width=".39834165" d="M122.164 55.559v8.964l-7.965 3.653"/><path fill="none" stroke="#000" stroke-miterlimit="10" stroke-width=".7956849500000001" d="M114.2 64.523v11.688"/><path fill="none" stroke="#000" stroke-miterlimit="10" stroke-width=".39834165" d="m114.2 72.559 7.964 3.652v8.965"/><path d="m116.426 73.578.949-2.074 3.688 4.2-5.59-.048Zm0 0"/><path fill="none" stroke="#000" stroke-miterlimit="10" stroke-width=".39834165" d="M114.2 70.367h-8.169M77.773 127.281h71.141m0 0h71.145"/><path fill="#FFF" stroke="#000" stroke-miterlimit="10" stroke-width=".39834165" d="M221.644 127.281a1.587 1.587 0 0 0-3.171 0 1.587 1.587 0 0 0 3.171 0Zm0 0"/><path fill="none" stroke="#000" stroke-miterlimit="10" stroke-width=".39834165" d="M122.164 84.977v10.527m0 21.25v10.527"/><path fill="none" stroke="#000" stroke-miterlimit="10" stroke-width=".7956849500000001" d="M118.184 116.754v-21.25h7.964v21.25Zm0 0"/><path stroke="#000" stroke-miterlimit="10" stroke-width=".39834165" d="M123.75 84.977a1.585 1.585 0 1 0-3.17-.003 1.585 1.585 0 0 0 3.17.003ZM123.75 127.281a1.585 1.585 0 1 0-3.168 0 1.584 1.584 0 1 0 3.168 0Zm0 0"/><path fill="none" stroke="#000" stroke-miterlimit="10" stroke-width=".39834165" d="M122.164 84.977h-14.227m0 0h-14.23v18.496m0 5.312v18.496"/><path fill="none" stroke="#000" stroke-miterlimit="10" stroke-width=".7956849500000001" d="M101.676 103.473H85.742m15.934 5.312H85.742"/><path stroke="#000" stroke-miterlimit="10" stroke-width=".39834165" d="M95.293 127.281a1.585 1.585 0 1 0-3.168 0 1.584 1.584 0 1 0 3.168 0Zm0 0"/><path fill="none" stroke="#000" stroke-miterlimit="10" stroke-width=".39834165" d="M122.164 55.758v-9.485m0 0V36.79h9.488m0 0h9.485v42.59m0 5.312v42.59"/><path stroke="#000" stroke-miterlimit="10" stroke-width=".39834165" d="M142.723 36.79a1.584 1.584 0 1 0-3.168-.004 1.584 1.584 0 0 0 3.168.003Zm0 0"/><path fill="none" stroke="#000" stroke-miterlimit="10" stroke-width=".7956849500000001" d="M149.105 79.379h-15.937m15.937 5.312h-15.937"/><path stroke="#000" stroke-miterlimit="10" stroke-width=".39834165" d="M142.723 127.281a1.584 1.584 0 1 0-3.168 0 1.584 1.584 0 1 0 3.168 0Zm0 0"/><path fill="none" stroke="#000" stroke-miterlimit="10" stroke-width=".39834165" d="M141.137 36.79h18.972m0 0h18.973"/><path fill="none" stroke="#000" stroke-linejoin="bevel" stroke-miterlimit="10" stroke-width=".7956849500000001" d="M178.922 45.688c2.2 0 3.984 1.23 3.984 2.753 0 1.52-1.785 2.754-3.984 2.754 2.2 0 3.984 1.235 3.984 2.758 0 1.52-1.785 2.754-3.984 2.754 2.2 0 3.984 1.234 3.984 2.754 0 1.523-1.785 2.758-3.984 2.758 2.2 0 3.984 1.234 3.984 2.754 0 1.523-1.785 2.757-3.984 2.757M195.176 62.418c-2.2 0-3.985-1.277-3.985-2.855 0-1.579 1.786-2.856 3.985-2.856-2.2 0-3.985-1.277-3.985-2.855 0-1.575 1.786-2.856 3.985-2.856"/><path fill="none" stroke="#000" stroke-miterlimit="10" stroke-width=".39834165" d="M179.082 36.79v9.292m0 21.25v9.297m15.934-39.84v14.606m0 10.625v14.609"/><path fill="none" stroke="#000" stroke-miterlimit="10" stroke-width=".7956849500000001" d="M188.043 66.668V46.746m-1.992 19.922V46.746M173.297 69.113l11.316-24.27"/><path fill="none" stroke="#000" stroke-miterlimit="10" stroke-width=".7956769800000001" d="m181.902 43.36 5.59 2.605"/><path fill="none" stroke="#000" stroke-miterlimit="10" stroke-width=".39834165" d="M179.082 76.629h-7.117m0 0h-7.113v22.668m0 5.312v22.672"/><path stroke="#000" stroke-miterlimit="10" stroke-width=".39834165" d="M166.437 76.629a1.587 1.587 0 0 0-3.171 0c0 .875.71 1.582 1.586 1.582.875 0 1.585-.707 1.585-1.582Zm0 0"/><path fill="none" stroke="#000" stroke-miterlimit="10" stroke-width=".7956849500000001" d="M172.82 99.297h-15.937m15.937 5.312h-15.937"/><path stroke="#000" stroke-miterlimit="10" stroke-width=".39834165" d="M166.437 127.281a1.587 1.587 0 0 0-3.171 0 1.587 1.587 0 0 0 3.171 0Zm0 0"/><path fill="none" stroke="#000" stroke-miterlimit="10" stroke-width=".39834165" d="M164.852 76.629v-31.59m0 0V13.453h-43.54m0 0H77.773"/><path stroke="#000" stroke-miterlimit="10" stroke-width=".39834165" d="M166.437 13.453a1.587 1.587 0 0 0-3.171 0 1.587 1.587 0 0 0 3.171 0Zm0 0"/><path fill="none" stroke="#000" stroke-miterlimit="10" stroke-width=".39834165" d="M195.016 76.629v25.324m0 0v25.328"/><path stroke="#000" stroke-miterlimit="10" stroke-width=".39834165" d="M196.602 127.281a1.584 1.584 0 1 0-3.168 0 1.584 1.584 0 1 0 3.168 0Zm0 0"/><path fill="none" stroke="#000" stroke-miterlimit="10" stroke-width=".39834165" d="M195.016 36.79h12.523m0 0h12.52"/><path fill="#FFF" stroke="#000" stroke-miterlimit="10" stroke-width=".39834165" d="M221.644 36.79a1.587 1.587 0 0 0-3.171 0c0 .874.71 1.581 1.586 1.581.875 0 1.585-.707 1.585-1.582Zm0 0"/><path fill="none" stroke="#000" stroke-miterlimit="10" stroke-width=".39834165" d="M164.852 13.453h16.98m21.246 0h16.98"/><path fill="none" stroke="#000" stroke-linejoin="bevel" stroke-miterlimit="10" stroke-width=".7956849500000001" d="M181.434 13.613c0-2.203 1.234-3.984 2.753-3.984 1.524 0 2.758 1.781 2.758 3.984 0-2.203 1.235-3.984 2.754-3.984 1.524 0 2.754 1.781 2.754 3.984 0-2.203 1.234-3.984 2.758-3.984 1.52 0 2.754 1.781 2.754 3.984 0-2.203 1.234-3.984 2.758-3.984 1.52 0 2.754 1.781 2.754 3.984"/><path fill="#FFF" stroke="#000" stroke-miterlimit="10" stroke-width=".39834165" d="M221.644 13.453a1.587 1.587 0 0 0-3.171 0 1.587 1.587 0 0 0 3.171 0Zm0 0"/><use xlink:href="#g" x="216.187" y="9.114"/><path fill="none" stroke="#000" stroke-dasharray="2.9838984305 2.9838984305" stroke-miterlimit="10" stroke-width=".39834165" d="M181.832 7.48h21.246"/></svg>