<svg xmlns="http://www.w3.org/2000/svg" xmlns:xlink="http://www.w3.org/1999/xlink" width="230.467" height="138.234"><defs><clipPath id="a"><path d="M.371 125H4v4H.371Zm0 0"/></clipPath><clipPath id="b"><path d="M.371 120H10v15H.371Zm0 0"/></clipPath><clipPath id="c"><path d="M41 127h1v10.473h-1Zm0 0"/></clipPath><clipPath id="d"><path d="M35 136h13v1.473H35Zm0 0"/></clipPath><clipPath id="e"><path d="M.371 66H4v4H.371Zm0 0"/></clipPath><clipPath id="f"><path d="M.371 60H10v16H.371Zm0 0"/></clipPath><path id="g" d="M7.188 0v-.312H7c-.516 0-.719-.047-.922-.344L3.984-3.828l1.36-1.985c.218-.312.547-.64 1.437-.64v-.313l-1.11.032c-.39 0-.874 0-1.265-.032v.313c.39 0 .61.219.61.453 0 .094-.016.11-.079.219l-1.14 1.687L2.53-6.016c-.031-.03-.078-.109-.078-.14 0-.125.219-.297.64-.297v-.313c-.343.032-1.062.032-1.437.032L.36-6.766v.313h.204c.53 0 .718.062.906.344l1.828 2.75L1.672-.953c-.14.187-.438.64-1.438.64V0l1.11-.031c.36 0 .906 0 1.265.031v-.312c-.453 0-.625-.266-.625-.454 0-.093.032-.125.094-.234l1.406-2.078 1.563 2.36c.031.046.062.077.062.109 0 .125-.218.297-.656.297V0c.344-.031 1.078-.031 1.453-.031Zm0 0"/><path id="i" d="M7.14-2.484c0-.188-.187-.188-.327-.188H4.047v-2.781c0-.14 0-.328-.188-.328-.203 0-.203.187-.203.328v2.781H.875c-.125 0-.312 0-.312.188 0 .203.187.203.312.203h2.781V.5c0 .14 0 .328.203.328.188 0 .188-.187.188-.328v-2.781h2.766c.14 0 .328 0 .328-.203m0 0"/><path id="h" d="m3.984-3.828 1.36-1.985c.218-.312.547-.64 1.437-.64v-.313c-.39.016-.86.032-1.11.032-.39 0-.874 0-1.265-.032v.313c.39 0 .61.219.61.453 0 .094-.016.11-.079.219l-1.14 1.687L2.53-6.016c-.031-.03-.078-.109-.078-.14 0-.125.219-.297.64-.297v-.313c-.343.032-1.062.032-1.437.032-.312 0-.922-.016-1.297-.032v.313h.204c.53 0 .718.062.906.344l1.828 2.75L1.672-.953c-.14.187-.438.64-1.438.64V0c.36-.016.782-.031 1.11-.031.36 0 .906 0 1.265.031v-.312c-.453 0-.625-.266-.625-.454 0-.093.032-.125.094-.234l1.406-2.078 1.563 2.36c.031.046.062.077.062.109 0 .125-.218.297-.656.297V0c.344-.031 1.078-.031 1.453-.031.407 0 .875.015 1.282.031v-.312H7c-.516 0-.719-.047-.922-.344Zm0 0"/></defs><path fill="none" stroke="#000" stroke-miterlimit="10" stroke-width=".39680151" d="M2.145 127.21H21.87m0 0h108.484m0 0h88.758"/><g clip-path="url(#a)"><path fill="#FFF" d="M3.723 127.21a1.577 1.577 0 1 0-3.157 0 1.579 1.579 0 0 0 3.157 0m0 0"/></g><g clip-path="url(#b)"><path fill="none" stroke="#000" stroke-miterlimit="10" stroke-width=".39680151" d="M3.723 127.21a1.577 1.577 0 1 0-3.157 0 1.579 1.579 0 0 0 3.157 0Zm0 0"/></g><path stroke="#000" stroke-miterlimit="10" stroke-width=".39680151" d="M43.172 127.21a1.58 1.58 0 0 0-1.578-1.581 1.58 1.58 0 0 0 0 3.16c.87 0 1.578-.707 1.578-1.578Zm0 0"/><g clip-path="url(#c)"><path fill="none" stroke="#000" stroke-miterlimit="10" stroke-width=".39680151" d="M41.594 127.21v9.864"/></g><g clip-path="url(#d)"><path fill="none" stroke="#000" stroke-linecap="round" stroke-miterlimit="10" stroke-width=".79260853" d="M35.676 137.074h11.84"/></g><path fill="#FFF" stroke="#000" stroke-miterlimit="10" stroke-width=".39680151" d="M220.691 127.21a1.58 1.58 0 0 0-1.578-1.581 1.58 1.58 0 0 0 0 3.16c.871 0 1.578-.707 1.578-1.578Zm0 0"/><path fill="none" stroke="#000" stroke-miterlimit="10" stroke-width=".39680151" d="M2.145 68.035h16.964m5.524 0h16.96V94.86m0 5.524v26.828"/><path fill="none" stroke="#000" stroke-miterlimit="10" stroke-width=".79260853" d="M19.11 59.754V76.32m5.523-16.566V76.32M13.586 76.32l16.148-16.148"/><path fill="none" stroke="#000" stroke-miterlimit="10" stroke-width=".79259259" d="m27.703 57.86 4.344 4.343"/><g clip-path="url(#e)"><path fill="#FFF" d="M3.723 68.035a1.579 1.579 0 1 0-3.155.001 1.579 1.579 0 0 0 3.155 0m0 0"/></g><g clip-path="url(#f)"><path fill="none" stroke="#000" stroke-miterlimit="10" stroke-width=".39680151" d="M3.723 68.035a1.579 1.579 0 1 0-3.155.001 1.579 1.579 0 0 0 3.155 0Zm0 0"/></g><path stroke="#000" stroke-miterlimit="10" stroke-width=".39680151" d="M43.172 68.035a1.579 1.579 0 1 0-3.158.001 1.579 1.579 0 0 0 3.158 0Zm0 0"/><use xlink:href="#g" x="18.155" y="55.722"/><path fill="none" stroke="#000" stroke-miterlimit="10" stroke-width=".79260853" d="M49.879 100.383h-16.57m16.57-5.524h-16.57M33.309 105.906l16.148-16.148"/><path fill="none" stroke="#000" stroke-miterlimit="10" stroke-width=".79259259" d="m47.426 87.445 4.344 4.344"/><path stroke="#000" stroke-miterlimit="10" stroke-width=".39680151" d="M43.172 127.21a1.58 1.58 0 0 0-1.578-1.581 1.58 1.58 0 0 0 0 3.16c.87 0 1.578-.707 1.578-1.578Zm0 0"/><use xlink:href="#g" x="23.45" y="99.758"/><path fill="none" stroke="#000" stroke-miterlimit="10" stroke-width=".39680151" d="M41.594 68.035h9.273m11.043 0h9.27v18.543m0 22.09v18.543"/><path fill="none" stroke="#000" stroke-linejoin="bevel" stroke-miterlimit="10" stroke-width=".79260853" d="M50.469 68.195c0-2.289 1.324-4.14 2.96-4.14 1.633 0 2.958 1.851 2.958 4.14 0-2.289 1.328-4.14 2.96-4.14 1.633 0 2.962 1.851 2.962 4.14"/><path stroke="#000" stroke-miterlimit="10" stroke-width=".39680151" d="M72.758 68.035a1.579 1.579 0 1 0-3.155.001 1.579 1.579 0 0 0 3.155 0Zm0 0"/><use xlink:href="#h" x="52.672" y="60.278"/><path fill="none" stroke="#000" stroke-linejoin="bevel" stroke-miterlimit="10" stroke-width=".79260853" d="M71.023 86.18c2.286 0 4.141 1.28 4.141 2.863 0 1.578-1.855 2.86-4.14 2.86 2.285 0 4.14 1.28 4.14 2.859 0 1.582-1.855 2.86-4.14 2.86 2.285 0 4.14 1.28 4.14 2.862 0 1.579-1.855 2.86-4.14 2.86 2.285 0 4.14 1.281 4.14 2.86 0 1.581-1.855 2.862-4.14 2.862"/><path stroke="#000" stroke-miterlimit="10" stroke-width=".39680151" d="M72.758 127.21a1.577 1.577 0 1 0-3.156 0 1.579 1.579 0 0 0 3.156 0Zm0 0"/><path fill="none" stroke="#000" stroke-dasharray="2.9723615467 2.9723615467" stroke-miterlimit="10" stroke-width=".39680151" d="M77.305 86.578v22.09"/><path fill="none" stroke="#000" stroke-miterlimit="10" stroke-width=".39680151" d="M71.18 68.035h9.863m0 0h9.863v18.543m0 22.09v18.543"/><path fill="none" stroke="#000" stroke-miterlimit="10" stroke-width=".79260853" d="M86.762 108.668v-22.09h8.285v22.09Zm0 0"/><path stroke="#000" stroke-miterlimit="10" stroke-width=".39680151" d="M92.484 68.035a1.579 1.579 0 1 0-3.157.001 1.579 1.579 0 0 0 3.157 0ZM92.484 127.21a1.58 1.58 0 0 0-1.578-1.581 1.58 1.58 0 0 0 0 3.16c.871 0 1.578-.707 1.578-1.578Zm0 0"/><path fill="none" stroke="#000" stroke-miterlimit="10" stroke-width=".39680151" d="M90.906 68.035h7.395m0 0h7.398"/><path fill="none" stroke="#000" stroke-miterlimit="10" stroke-width=".79260853" d="M127.836 68.035c0-5.656-4.586-10.238-10.238-10.238-5.657 0-10.243 4.582-10.243 10.238s4.586 10.242 10.243 10.242c5.652 0 10.238-4.586 10.238-10.242Zm0 0"/><path fill="none" stroke="#000" stroke-miterlimit="10" stroke-width=".39680151" d="M122.266 52.648v9.313l-8.282 3.797"/><path fill="none" stroke="#000" stroke-miterlimit="10" stroke-width=".79260853" d="M113.984 61.961v12.148"/><path fill="none" stroke="#000" stroke-miterlimit="10" stroke-width=".39680151" d="m113.984 70.313 8.282 3.796v9.313"/><path d="m116.375 71.41.95-2.066 3.671 4.183-5.566-.05Zm0 0"/><path fill="none" stroke="#000" stroke-miterlimit="10" stroke-width=".39680151" d="M113.984 68.035H105.5M122.266 83.223v10.949m0 22.09v10.949"/><path fill="none" stroke="#000" stroke-miterlimit="10" stroke-width=".79260853" d="M118.125 116.262v-22.09h8.285v22.09Zm0 0"/><path stroke="#000" stroke-miterlimit="10" stroke-width=".39680151" d="M123.844 127.21a1.577 1.577 0 1 0-3.157 0 1.579 1.579 0 0 0 3.157 0Zm0 0"/><path fill="none" stroke="#000" stroke-miterlimit="10" stroke-width=".39680151" d="M122.266 83.223h9.863m0 0h9.863v19.234m0 5.52v19.234"/><path stroke="#000" stroke-miterlimit="10" stroke-width=".39680151" d="M123.844 83.223a1.579 1.579 0 1 0-3.155.001 1.579 1.579 0 0 0 3.155-.001Zm0 0"/><path fill="none" stroke="#000" stroke-miterlimit="10" stroke-width=".79260853" d="M150.277 102.457h-16.57m16.57 5.52h-16.57"/><path stroke="#000" stroke-miterlimit="10" stroke-width=".39680151" d="M143.57 127.21a1.58 1.58 0 0 0-1.578-1.581 1.58 1.58 0 0 0 0 3.16c.871 0 1.578-.707 1.578-1.578Zm0 0"/><path fill="none" stroke="#000" stroke-miterlimit="10" stroke-width=".39680151" d="M122.266 52.848h9.863m0 0h9.863v-8.68m0-22.09v-8.68h12.328m0 0h12.328v9.864m0 0v54.144m0 5.524v44.28"/><path stroke="#000" stroke-miterlimit="10" stroke-width=".39680151" d="M143.57 52.848a1.579 1.579 0 1 0-3.157 0 1.579 1.579 0 0 0 3.157 0Zm0 0"/><path fill="none" stroke="#000" stroke-linejoin="bevel" stroke-miterlimit="10" stroke-width=".79260853" d="M142.148 44.566c-2.285 0-4.14-1.28-4.14-2.859 0-1.582 1.855-2.863 4.14-2.863-2.285 0-4.14-1.278-4.14-2.86 0-1.578 1.855-2.859 4.14-2.859-2.285 0-4.14-1.281-4.14-2.86 0-1.581 1.855-2.863 4.14-2.863-2.285 0-4.14-1.28-4.14-2.859 0-1.578 1.855-2.86 4.14-2.86"/><path stroke="#000" stroke-miterlimit="10" stroke-width=".39680151" d="M168.227 13.398a1.579 1.579 0 1 0-3.158.002 1.579 1.579 0 0 0 3.158-.002Zm0 0"/><path fill="none" stroke="#000" stroke-miterlimit="10" stroke-width=".79260853" d="M174.93 77.406h-16.567m16.567 5.524h-16.567"/><path stroke="#000" stroke-miterlimit="10" stroke-width=".39680151" d="M168.227 127.21a1.577 1.577 0 1 0-3.156 0 1.579 1.579 0 1 0 3.156 0Zm0 0"/><path fill="none" stroke="#000" stroke-dasharray="2.9723615467 2.9723615467" stroke-miterlimit="10" stroke-width=".39680151" d="M135.867 44.168v-22.09"/><path fill="none" stroke="#000" stroke-miterlimit="10" stroke-width=".39680151" d="M166.648 13.398h26.23m0 0h26.235"/><path fill="#FFF" stroke="#000" stroke-miterlimit="10" stroke-width=".39680151" d="M220.691 13.398a1.579 1.579 0 1 0-3.157.002 1.579 1.579 0 0 0 3.157-.002Zm0 0"/><use xlink:href="#i" x="215.257" y="9.079"/><path fill="none" stroke="#000" stroke-miterlimit="10" stroke-width=".39680151" d="M141.992 52.848h9.863m0 0h21.891m5.523 0h12.032v8.68m0 22.09v8.679h13.906m0 0h13.906"/><path fill="none" stroke="#000" stroke-miterlimit="10" stroke-width=".79260853" d="M173.746 44.563v16.57m5.523-16.57v16.57M168.227 61.133l16.144-16.149"/><path fill="none" stroke="#000" stroke-miterlimit="10" stroke-width=".79259259" d="m182.34 42.672 4.344 4.344"/><path fill="none" stroke="#000" stroke-linejoin="bevel" stroke-miterlimit="10" stroke-width=".79260853" d="M191.144 61.133c2.286 0 4.141 1.277 4.141 2.86 0 1.577-1.855 2.859-4.14 2.859 2.285 0 4.14 1.28 4.14 2.859 0 1.582-1.855 2.863-4.14 2.863 2.285 0 4.14 1.278 4.14 2.86 0 1.578-1.855 2.859-4.14 2.859 2.285 0 4.14 1.281 4.14 2.86 0 1.581-1.855 2.863-4.14 2.863"/><path stroke="#000" stroke-miterlimit="10" stroke-width=".39680151" d="M192.879 92.297a1.579 1.579 0 1 0-3.155.001 1.579 1.579 0 0 0 3.155-.001Zm0 0"/><path fill="#FFF" stroke="#000" stroke-miterlimit="10" stroke-width=".39680151" d="M220.691 92.297a1.579 1.579 0 1 0-3.157.001 1.579 1.579 0 0 0 3.157-.001Zm0 0"/><path fill="none" stroke="#000" stroke-miterlimit="10" stroke-width=".39680151" d="M191.3 92.297v14.695m0 5.524v14.695"/><path fill="none" stroke="#000" stroke-miterlimit="10" stroke-width=".79260853" d="M199.586 112.516h-16.567m16.567-5.524h-16.567M183.02 118.035l16.148-16.144"/><path fill="none" stroke="#000" stroke-miterlimit="10" stroke-width=".79259259" d="m197.133 99.578 4.344 4.344"/><path stroke="#000" stroke-miterlimit="10" stroke-width=".39680151" d="M192.879 127.21a1.577 1.577 0 1 0-3.156 0 1.579 1.579 0 0 0 3.156 0Zm0 0"/></svg>