<svg xmlns="http://www.w3.org/2000/svg" xmlns:xlink="http://www.w3.org/1999/xlink" width="229.971" height="223.797"><defs><clipPath id="a"><path d="M.09 88H4v4H.09Zm0 0"/></clipPath><clipPath id="b"><path d="M.09 83H10v15H.09Zm0 0"/></clipPath><clipPath id="c"><path d="M.09 148H4v4H.09Zm0 0"/></clipPath><clipPath id="d"><path d="M.09 142H10v15H.09Zm0 0"/></clipPath><clipPath id="e"><path d="M123 213h1v10.594h-1Zm0 0"/></clipPath><clipPath id="f"><path d="M117 222h13v1.594h-13Zm0 0"/></clipPath><path id="g" d="M4.969-2.531v-.219H0v.219Zm0 0"/><path id="h" d="M7.172-2.484c0-.203-.188-.203-.328-.203H4.078V-5.47c0-.14 0-.328-.203-.328s-.203.188-.203.328v2.782H.89c-.141 0-.328 0-.328.203 0 .187.187.187.328.187h2.78V.5c0 .14 0 .328.204.328.203 0 .203-.187.203-.328v-2.797h2.766c.14 0 .328 0 .328-.187m0 0"/></defs><path fill="none" stroke="#000" stroke-linejoin="bevel" stroke-miterlimit="10" stroke-width=".79627473" d="M19.559 107.742c3.285 0 5.945 1.832 5.945 4.098 0 2.262-2.66 4.097-5.945 4.097 3.285 0 5.945 1.833 5.945 4.098 0 2.262-2.66 4.098-5.945 4.098 3.285 0 5.945 1.832 5.945 4.097 0 2.262-2.66 4.098-5.945 4.098M43.664 136.293c-3.285 0-5.945-1.82-5.945-4.066 0-2.243 2.66-4.063 5.945-4.063-3.285 0-5.945-1.82-5.945-4.066 0-2.243 2.66-4.063 5.945-4.063-3.285 0-5.945-1.82-5.945-4.066 0-2.242 2.66-4.063 5.945-4.063-3.285 0-5.945-1.82-5.945-4.066 0-2.242 2.66-4.063 5.945-4.063"/><path fill="none" stroke="#000" stroke-miterlimit="10" stroke-width=".39863691" d="M1.875 90.297h17.84v17.844m0 23.789v17.84H1.875m59.473-59.473H43.504v13.879m0 31.719v13.875h17.844"/><path fill="none" stroke="#000" stroke-miterlimit="10" stroke-width=".79627473" d="M33.098 134.902v-29.738m-2.973 29.738v-29.738"/><path fill="none" stroke="#000" stroke-miterlimit="10" stroke-width=".39863691" d="M1.875 90.297"/><g clip-path="url(#a)"><path fill="#FFF" d="M3.46 90.297a1.587 1.587 0 0 0-3.17 0 1.587 1.587 0 0 0 3.17 0m0 0"/></g><g clip-path="url(#b)"><path fill="none" stroke="#000" stroke-miterlimit="10" stroke-width=".39863691" d="M3.46 90.297a1.587 1.587 0 0 0-3.17 0 1.587 1.587 0 0 0 3.17 0Zm0 0"/></g><path fill="none" stroke="#000" stroke-miterlimit="10" stroke-width=".39863691" d="M1.875 149.77"/><g clip-path="url(#c)"><path fill="#FFF" d="M3.46 149.77a1.587 1.587 0 1 0-3.173.002 1.587 1.587 0 0 0 3.174-.002m0 0"/></g><g clip-path="url(#d)"><path fill="none" stroke="#000" stroke-miterlimit="10" stroke-width=".39863691" d="M3.46 149.77a1.587 1.587 0 1 0-3.173.002 1.587 1.587 0 0 0 3.174-.002Zm0 0"/></g><path fill="none" stroke="#000" stroke-miterlimit="10" stroke-width=".39863691" d="M61.348 90.297h6.66m0 0h6.66"/><path fill="none" stroke="#000" stroke-miterlimit="10" stroke-width=".79627473" d="M106.457 90.297c0-8.121-6.586-14.703-14.703-14.703-8.121 0-14.703 6.582-14.703 14.703 0 8.121 6.582 14.703 14.703 14.703 8.117 0 14.703-6.582 14.703-14.703Zm0 0"/><path fill="none" stroke="#000" stroke-miterlimit="10" stroke-width=".39863691" d="M98.461 68.289v13.285l-11.895 5.453"/><path fill="none" stroke="#000" stroke-miterlimit="10" stroke-width=".79627473" d="M86.566 81.574V99.02"/><path fill="none" stroke="#000" stroke-miterlimit="10" stroke-width=".39863691" d="m86.566 93.566 11.895 5.454v13.285"/><path d="m90.754 95.488.953-2.078 3.688 4.207-5.594-.05Zm0 0"/><path fill="none" stroke="#000" stroke-miterlimit="10" stroke-width=".39863691" d="M86.566 90.297H74.47M61.348 149.77h6.66m0 0h6.66"/><path fill="none" stroke="#000" stroke-miterlimit="10" stroke-width=".79627473" d="M106.457 149.77c0 8.12-6.586 14.707-14.703 14.707-8.121 0-14.703-6.586-14.703-14.707 0-8.118 6.582-14.704 14.703-14.704 8.117 0 14.703 6.586 14.703 14.704Zm0 0"/><path fill="none" stroke="#000" stroke-miterlimit="10" stroke-width=".39863691" d="M98.461 171.777v-13.285l-11.895-5.449"/><path fill="none" stroke="#000" stroke-miterlimit="10" stroke-width=".79627473" d="M86.566 158.492v-17.445"/><path fill="none" stroke="#000" stroke-miterlimit="10" stroke-width=".39863691" d="m86.566 146.5 11.895-5.453v-13.281"/><path d="m90.754 144.578.953 2.078 3.688-4.203-5.594.05Zm0 0"/><path fill="none" stroke="#000" stroke-miterlimit="10" stroke-width=".39863691" d="M86.566 149.77H74.47M98.461 112.105v7.93m0 0v7.93"/><path fill="none" stroke="#000" stroke-linejoin="bevel" stroke-miterlimit="10" stroke-width=".79627473" d="M203.523 132.328c-3.285 0-5.945-1.836-5.945-4.098 0-2.265 2.66-4.097 5.945-4.097-3.285 0-5.945-1.836-5.945-4.098 0-2.265 2.66-4.098 5.945-4.098-3.285 0-5.945-1.835-5.945-4.097 0-2.266 2.66-4.098 5.945-4.098M179.414 103.777c3.285 0 5.95 1.82 5.95 4.063 0 2.246-2.665 4.066-5.95 4.066 3.285 0 5.95 1.82 5.95 4.063 0 2.246-2.665 4.066-5.95 4.066 3.285 0 5.95 1.82 5.95 4.063 0 2.246-2.665 4.066-5.95 4.066 3.285 0 5.95 1.82 5.95 4.063 0 2.246-2.665 4.066-5.95 4.066"/><path fill="none" stroke="#000" stroke-miterlimit="10" stroke-width=".39863691" d="M203.363 149.77v-17.84m0-23.79V90.298m-23.789 59.473v-13.875m0-31.72V90.298"/><path fill="none" stroke="#000" stroke-miterlimit="10" stroke-width=".79627473" d="M189.984 105.164v29.738m2.973-29.738v29.738"/><path fill="none" stroke="#000" stroke-miterlimit="10" stroke-width=".39863691" d="M98.461 68.488h81.113v21.809M98.461 171.578h81.113V149.77M203.363 149.77h7.996m0 0h7.993"/><path fill="#FFF" stroke="#000" stroke-miterlimit="10" stroke-width=".39863691" d="M220.938 149.77a1.587 1.587 0 1 0-3.175.002 1.587 1.587 0 0 0 3.175-.002Zm0 0"/><path fill="none" stroke="#000" stroke-miterlimit="10" stroke-width=".39863691" d="M203.363 90.297h7.996m0 0h7.993"/><path fill="#FFF" stroke="#000" stroke-miterlimit="10" stroke-width=".39863691" d="M220.938 90.297a1.587 1.587 0 0 0-3.172 0 1.587 1.587 0 0 0 3.172 0Zm0 0"/><path fill="none" stroke="#000" stroke-miterlimit="10" stroke-width=".39863691" d="M43.504 120.035h6.664m0 0h6.66v-19.984m0 0V62.625m0-31.719V13.461"/><path stroke="#000" stroke-miterlimit="10" stroke-width=".39863691" d="M45.09 120.035a1.585 1.585 0 1 0-3.168 0 1.584 1.584 0 1 0 3.168 0ZM58.414 120.035a1.587 1.587 0 0 0-3.172 0 1.587 1.587 0 0 0 3.172 0Zm0 0"/><path fill="none" stroke="#000" stroke-miterlimit="10" stroke-width=".79627473" d="M62.773 30.906v31.719H50.88V30.906Zm0 0"/><path fill="none" stroke="#000" stroke-miterlimit="10" stroke-width=".39863691" d="M56.828 13.46H43.504m0 0h-13.32v9.36m0 7.93v9.355"/><path stroke="#000" stroke-miterlimit="10" stroke-width=".39863691" d="M58.414 13.46a1.587 1.587 0 0 0-3.172 0 1.587 1.587 0 0 0 3.172 0Zm0 0"/><path fill="none" stroke="#000" stroke-miterlimit="10" stroke-width=".79627473" d="M42.078 22.82H18.29m23.79 7.93h-23.79"/><path fill="none" stroke="#000" stroke-miterlimit="10" stroke-width=".39863691" d="M30.184 40.105v9.91"/><path fill="none" stroke="#000" stroke-linecap="round" stroke-miterlimit="10" stroke-width=".79627473" d="M24.238 50.016h11.895"/><path fill="none" stroke="#000" stroke-miterlimit="10" stroke-width=".39863691" d="M56.828 120.035v19.98m0 0v30.766m0 31.719v10.785h33.305m0 0h81.262m0 0h47.957"/><path fill="none" stroke="#000" stroke-miterlimit="10" stroke-width=".79627473" d="M50.879 202.5v-31.719h11.894V202.5Zm0 0"/><path stroke="#000" stroke-miterlimit="10" stroke-width=".39863691" d="M125.02 213.285a1.587 1.587 0 1 0-3.17.002 1.587 1.587 0 0 0 3.17-.002Zm0 0"/><g clip-path="url(#e)"><path fill="none" stroke="#000" stroke-miterlimit="10" stroke-width=".39863691" d="M123.434 213.285v9.914"/></g><g clip-path="url(#f)"><path fill="none" stroke="#000" stroke-linecap="round" stroke-miterlimit="10" stroke-width=".79627473" d="M117.488 223.2h11.895"/></g><path fill="#FFF" stroke="#000" stroke-miterlimit="10" stroke-width=".39863691" d="M220.938 213.285a1.587 1.587 0 0 0-3.172 0 1.587 1.587 0 0 0 3.172 0Zm0 0"/><use xlink:href="#g" x="216.86" y="209.768"/><path fill="none" stroke="#000" stroke-miterlimit="10" stroke-width=".39863691" d="M56.828 13.46h81.262m0 0h81.262"/><path fill="#FFF" stroke="#000" stroke-miterlimit="10" stroke-width=".39863691" d="M220.938 13.46a1.587 1.587 0 0 0-3.172 0 1.587 1.587 0 0 0 3.172 0Zm0 0"/><use xlink:href="#h" x="215.476" y="9.121"/><path fill="none" stroke="#000" stroke-miterlimit="10" stroke-width=".39863691" d="M179.574 120.035h-13.32m0 0h-13.32v9.356m0 7.93v9.355"/><path stroke="#000" stroke-miterlimit="10" stroke-width=".39863691" d="M181.16 120.035a1.587 1.587 0 0 0-3.172 0 1.587 1.587 0 0 0 3.172 0ZM154.516 120.035a1.584 1.584 0 1 0-3.168 0 1.585 1.585 0 1 0 3.168 0Zm0 0"/><path fill="none" stroke="#000" stroke-miterlimit="10" stroke-width=".79627473" d="M164.828 129.39h-23.793m23.793 7.93h-23.793"/><path fill="none" stroke="#000" stroke-miterlimit="10" stroke-width=".39863691" d="M152.934 146.676v9.914"/><path fill="none" stroke="#000" stroke-linecap="round" stroke-miterlimit="10" stroke-width=".79627473" d="M146.984 156.59h11.895"/><path fill="none" stroke="#000" stroke-miterlimit="10" stroke-width=".39863691" d="M152.934 120.035V93.391m0 0V55.965m0-31.719V13.461"/><path fill="none" stroke="#000" stroke-linejoin="bevel" stroke-miterlimit="10" stroke-width=".79627473" d="M153.09 56.363c-3.285 0-5.945-1.82-5.945-4.066 0-2.242 2.66-4.063 5.945-4.063-3.285 0-5.945-1.82-5.945-4.066 0-2.242 2.66-4.063 5.945-4.063-3.285 0-5.945-1.82-5.945-4.066 0-2.242 2.66-4.062 5.945-4.062-3.285 0-5.945-1.82-5.945-4.067 0-2.242 2.66-4.062 5.945-4.062"/><path stroke="#000" stroke-miterlimit="10" stroke-width=".39863691" d="M154.516 13.46a1.584 1.584 0 1 0-3.168 0 1.585 1.585 0 1 0 3.168 0Zm0 0"/><path fill="none" stroke="#000" stroke-miterlimit="10" stroke-width=".39863691" d="M98.461 120.035h24.973v93.25"/><path stroke="#000" stroke-miterlimit="10" stroke-width=".39863691" d="M100.047 120.035a1.587 1.587 0 1 0-3.174.002 1.587 1.587 0 0 0 3.174-.002Zm0 0"/></svg>