<svg xmlns="http://www.w3.org/2000/svg" xmlns:xlink="http://www.w3.org/1999/xlink" width="230.828" height="143.763"><defs><clipPath id="a"><path d="M.105 125H4v4H.105Zm0 0"/></clipPath><clipPath id="b"><path d="M.105 120H10v15H.105Zm0 0"/></clipPath><clipPath id="c"><path d="M42 138h14v5.527H42Zm0 0"/></clipPath><clipPath id="g"><path d="M.105 68H4v4H.105Zm0 0"/></clipPath><clipPath id="h"><path d="M.105 63H10v15H.105Zm0 0"/></clipPath><path id="d" d="M7.563-6.922c0-.031-.016-.094-.11-.094-.031 0-.031.016-.14.125l-.704.766c-.093-.14-.546-.89-1.656-.89C2.734-7.016.5-4.814.5-2.516.5-.86 1.672.218 3.188.218c.874 0 1.624-.39 2.156-.86.922-.812 1.093-1.718 1.093-1.75 0-.093-.093-.093-.125-.093-.046 0-.109.015-.125.093-.093.297-.312 1-1 1.579-.687.546-1.312.718-1.828.718-.906 0-1.953-.515-1.953-2.062 0-.578.203-2.188 1.203-3.344.61-.703 1.547-1.203 2.422-1.203 1.016 0 1.61.766 1.61 1.922 0 .39-.032.406-.032.5 0 .093.11.093.157.093.125 0 .125-.015.172-.187Zm0 0"/><path id="e" d="M2.328-4.437c0-.188 0-.188-.203-.188-.453.438-1.078.438-1.36.438v.25c.157 0 .626 0 1-.188v3.547c0 .234 0 .328-.687.328H.812V0c.125 0 .985-.031 1.235-.031.219 0 1.094.031 1.25.031v-.25H3.03c-.703 0-.703-.094-.703-.328Zm0 0"/><path id="f" d="M3.516-1.266H3.28c-.015.157-.094.563-.187.625-.047.047-.578.047-.688.047H1.125c.734-.64.984-.843 1.39-1.172.516-.406 1-.843 1-1.5 0-.843-.734-1.359-1.624-1.359-.86 0-1.453.61-1.453 1.25 0 .344.296.39.375.39.156 0 .359-.124.359-.374 0-.125-.047-.375-.406-.375.218-.485.687-.641 1.015-.641.703 0 1.063.547 1.063 1.11 0 .609-.438 1.078-.656 1.328L.516-.266C.437-.203.437-.187.437 0h2.876Zm0 0"/><path id="i" d="M7.172-2.484c0-.203-.188-.203-.328-.203H4.078V-5.47c0-.14 0-.328-.203-.328s-.203.188-.203.328v2.782H.89c-.141 0-.328 0-.328.203 0 .187.187.187.328.187h2.78V.5c0 .14 0 .328.204.328.203 0 .203-.187.203-.328v-2.797h2.766c.14 0 .328 0 .328-.187m0 0"/></defs><path fill="none" stroke="#000" stroke-miterlimit="10" stroke-width=".39834165" d="M1.887 127.281h9.484m0 0h23.715m0 0h14.23"/><g clip-path="url(#a)"><path fill="#FFF" d="M3.473 127.281a1.587 1.587 0 0 0-3.172 0 1.587 1.587 0 0 0 3.172 0m0 0"/></g><g clip-path="url(#b)"><path fill="none" stroke="#000" stroke-miterlimit="10" stroke-width=".39834165" d="M3.473 127.281a1.587 1.587 0 0 0-3.172 0 1.587 1.587 0 0 0 3.172 0Zm0 0"/></g><path stroke="#000" stroke-miterlimit="10" stroke-width=".39834165" d="M22.441 127.281a1.584 1.584 0 1 0-3.168 0 1.584 1.584 0 1 0 3.168 0ZM50.898 127.281a1.584 1.584 0 1 0-3.168 0 1.584 1.584 0 1 0 3.168 0Zm0 0"/><path fill="none" stroke="#000" stroke-miterlimit="10" stroke-width=".39834165" d="M49.316 127.281v11.887"/><g clip-path="url(#c)"><path fill="none" stroke="#000" stroke-miterlimit="10" stroke-width=".7956849500000001" d="M43.371 139.168h11.887m-9.903 1.98h7.922m-6.437 1.98h4.953"/></g><path fill="none" stroke="#000" stroke-miterlimit="10" stroke-width=".39834165" d="M20.86 127.281V80.992m0-21.25V13.453h14.226m0 0h14.23v25.8m0 5.313v51.602m0 5.312v25.801"/><path fill="none" stroke="#000" stroke-linejoin="bevel" stroke-miterlimit="10" stroke-width=".7956849500000001" d="M20.7 59.344c2.198 0 3.984 1.234 3.984 2.758 0 1.52-1.786 2.753-3.985 2.753 2.2 0 3.985 1.235 3.985 2.758 0 1.52-1.786 2.754-3.985 2.754 2.2 0 3.985 1.235 3.985 2.754 0 1.524-1.786 2.758-3.985 2.758 2.2 0 3.985 1.234 3.985 2.754 0 1.523-1.786 2.758-3.985 2.758M18.668 66.488l10.16 8.13"/><path fill="none" stroke="#000" stroke-miterlimit="10" stroke-width=".79563713" d="m16.586 68.773 3.851-4.816"/><path fill="none" stroke="#000" stroke-miterlimit="10" stroke-width=".7956849500000001" d="M57.285 39.254H41.348m15.937 5.312H41.348"/><path stroke="#000" stroke-miterlimit="10" stroke-width=".39834165" d="M50.898 70.367a1.584 1.584 0 1 0-3.168 0 1.584 1.584 0 1 0 3.168 0Zm0 0"/><use xlink:href="#d" x="27.372" y="44.053"/><use xlink:href="#e" x="34.481" y="45.546"/><path fill="none" stroke="#000" stroke-miterlimit="10" stroke-width=".7956849500000001" d="M57.285 96.168H41.348m15.937 5.312H41.348"/><use xlink:href="#d" x="27.372" y="100.968"/><use xlink:href="#f" x="34.481" y="102.459"/><path fill="none" stroke="#000" stroke-dasharray="2.9838984305 2.9838984305" stroke-miterlimit="10" stroke-width=".39834165" d="M26.832 59.742v21.25"/><path fill="none" stroke="#000" stroke-miterlimit="10" stroke-width=".39834165" d="M20.86 70.367H11.37m0 0H1.887"/><path stroke="#000" stroke-miterlimit="10" stroke-width=".39834165" d="M22.441 70.367a1.584 1.584 0 1 0-3.168 0 1.584 1.584 0 1 0 3.168 0Zm0 0"/><g clip-path="url(#g)"><path fill="#FFF" d="M3.473 70.367a1.587 1.587 0 0 0-3.172 0 1.587 1.587 0 0 0 3.172 0m0 0"/></g><g clip-path="url(#h)"><path fill="none" stroke="#000" stroke-miterlimit="10" stroke-width=".39834165" d="M3.473 70.367a1.587 1.587 0 0 0-3.172 0 1.587 1.587 0 0 0 3.172 0Zm0 0"/></g><path fill="none" stroke="#000" stroke-miterlimit="10" stroke-width=".39834165" d="M49.316 70.367h14.227m0 0h14.23M49.316 127.281h14.227m0 0h14.23V109.45m0-21.25V52.535m0-21.25V13.453"/><path stroke="#000" stroke-miterlimit="10" stroke-width=".39834165" d="M79.355 127.281a1.584 1.584 0 1 0-3.168 0 1.584 1.584 0 1 0 3.168 0Zm0 0"/><path fill="none" stroke="#000" stroke-miterlimit="10" stroke-width=".7956849500000001" d="M81.758 88.2v21.25h-7.969V88.2Zm0 0"/><path stroke="#000" stroke-miterlimit="10" stroke-width=".39834165" d="M79.355 70.367a1.584 1.584 0 1 0-3.168 0 1.584 1.584 0 1 0 3.168 0Zm0 0"/><path fill="none" stroke="#000" stroke-miterlimit="10" stroke-width=".7956849500000001" d="M81.758 31.285v21.25h-7.969v-21.25Zm0 0"/><path fill="none" stroke="#000" stroke-miterlimit="10" stroke-width=".39834165" d="M77.773 70.367H92m0 0h14.23"/><path fill="none" stroke="#000" stroke-miterlimit="10" stroke-width=".7956849500000001" d="M127.523 70.367c0-5.441-4.41-9.847-9.851-9.847-5.438 0-9.848 4.406-9.848 9.847 0 5.442 4.41 9.848 9.848 9.848 5.441 0 9.851-4.406 9.851-9.848Zm0 0"/><path fill="none" stroke="#000" stroke-miterlimit="10" stroke-width=".39834165" d="M122.164 55.559v8.964l-7.965 3.653"/><path fill="none" stroke="#000" stroke-miterlimit="10" stroke-width=".7956849500000001" d="M114.2 64.523v11.688"/><path fill="none" stroke="#000" stroke-miterlimit="10" stroke-width=".39834165" d="m114.2 72.559 7.964 3.652v8.965"/><path d="m116.426 73.578.949-2.074 3.688 4.2-5.59-.048Zm0 0"/><path fill="none" stroke="#000" stroke-miterlimit="10" stroke-width=".39834165" d="M114.2 70.367h-8.169M77.773 127.281h71.141m0 0h71.145"/><path fill="#FFF" stroke="#000" stroke-miterlimit="10" stroke-width=".39834165" d="M221.644 127.281a1.587 1.587 0 0 0-3.171 0 1.587 1.587 0 0 0 3.171 0Zm0 0"/><path fill="none" stroke="#000" stroke-miterlimit="10" stroke-width=".39834165" d="M122.164 84.977v10.527m0 21.25v10.527"/><path fill="none" stroke="#000" stroke-miterlimit="10" stroke-width=".7956849500000001" d="M118.184 116.754v-21.25h7.964v21.25Zm0 0"/><path stroke="#000" stroke-miterlimit="10" stroke-width=".39834165" d="M123.75 84.977a1.585 1.585 0 1 0-3.17-.003 1.585 1.585 0 0 0 3.17.003ZM123.75 127.281a1.585 1.585 0 1 0-3.168 0 1.584 1.584 0 1 0 3.168 0Zm0 0"/><path fill="none" stroke="#000" stroke-miterlimit="10" stroke-width=".39834165" d="M122.164 84.977h-14.227m0 0h-14.23v18.496m0 5.312v18.496"/><path fill="none" stroke="#000" stroke-miterlimit="10" stroke-width=".7956849500000001" d="M101.676 103.473H85.742m15.934 5.312H85.742"/><path stroke="#000" stroke-miterlimit="10" stroke-width=".39834165" d="M95.293 127.281a1.585 1.585 0 1 0-3.168 0 1.584 1.584 0 1 0 3.168 0Zm0 0"/><path fill="none" stroke="#000" stroke-miterlimit="10" stroke-width=".39834165" d="M122.164 55.758v-9.485m0 0V36.79h9.488m0 0h9.485v42.59m0 5.312v42.59"/><path stroke="#000" stroke-miterlimit="10" stroke-width=".39834165" d="M142.723 36.79a1.584 1.584 0 1 0-3.168-.004 1.584 1.584 0 0 0 3.168.003Zm0 0"/><path fill="none" stroke="#000" stroke-miterlimit="10" stroke-width=".7956849500000001" d="M149.105 79.379h-15.937m15.937 5.312h-15.937"/><path stroke="#000" stroke-miterlimit="10" stroke-width=".39834165" d="M142.723 127.281a1.584 1.584 0 1 0-3.168 0 1.584 1.584 0 1 0 3.168 0Zm0 0"/><path fill="none" stroke="#000" stroke-miterlimit="10" stroke-width=".39834165" d="M141.137 36.79h18.972m0 0h18.973"/><path fill="none" stroke="#000" stroke-linejoin="bevel" stroke-miterlimit="10" stroke-width=".7956849500000001" d="M178.922 45.688c2.2 0 3.984 1.23 3.984 2.753 0 1.52-1.785 2.754-3.984 2.754 2.2 0 3.984 1.235 3.984 2.758 0 1.52-1.785 2.754-3.984 2.754 2.2 0 3.984 1.234 3.984 2.754 0 1.523-1.785 2.758-3.984 2.758 2.2 0 3.984 1.234 3.984 2.754 0 1.523-1.785 2.757-3.984 2.757M195.176 62.418c-2.2 0-3.985-1.277-3.985-2.855 0-1.579 1.786-2.856 3.985-2.856-2.2 0-3.985-1.277-3.985-2.855 0-1.575 1.786-2.856 3.985-2.856"/><path fill="none" stroke="#000" stroke-miterlimit="10" stroke-width=".39834165" d="M179.082 36.79v9.292m0 21.25v9.297m15.934-39.84v14.606m0 10.625v14.609"/><path fill="none" stroke="#000" stroke-miterlimit="10" stroke-width=".7956849500000001" d="M188.043 66.668V46.746m-1.992 19.922V46.746M173.297 69.113l11.316-24.27"/><path fill="none" stroke="#000" stroke-miterlimit="10" stroke-width=".7956769800000001" d="m181.902 43.36 5.59 2.605"/><path fill="none" stroke="#000" stroke-miterlimit="10" stroke-width=".39834165" d="M179.082 76.629h-7.117m0 0h-7.113v22.668m0 5.312v22.672"/><path stroke="#000" stroke-miterlimit="10" stroke-width=".39834165" d="M166.437 76.629a1.587 1.587 0 0 0-3.171 0c0 .875.71 1.582 1.586 1.582.875 0 1.585-.707 1.585-1.582Zm0 0"/><path fill="none" stroke="#000" stroke-miterlimit="10" stroke-width=".7956849500000001" d="M172.82 99.297h-15.937m15.937 5.312h-15.937"/><path stroke="#000" stroke-miterlimit="10" stroke-width=".39834165" d="M166.437 127.281a1.587 1.587 0 0 0-3.171 0 1.587 1.587 0 0 0 3.171 0Zm0 0"/><path fill="none" stroke="#000" stroke-miterlimit="10" stroke-width=".39834165" d="M164.852 76.629v-31.59m0 0V13.453h-43.54m0 0H77.773"/><path stroke="#000" stroke-miterlimit="10" stroke-width=".39834165" d="M166.437 13.453a1.587 1.587 0 0 0-3.171 0 1.587 1.587 0 0 0 3.171 0Zm0 0"/><path fill="none" stroke="#000" stroke-miterlimit="10" stroke-width=".39834165" d="M195.016 76.629v25.324m0 0v25.328"/><path stroke="#000" stroke-miterlimit="10" stroke-width=".39834165" d="M196.602 127.281a1.584 1.584 0 1 0-3.168 0 1.584 1.584 0 1 0 3.168 0Zm0 0"/><path fill="none" stroke="#000" stroke-miterlimit="10" stroke-width=".39834165" d="M195.016 36.79h12.523m0 0h12.52"/><path fill="#FFF" stroke="#000" stroke-miterlimit="10" stroke-width=".39834165" d="M221.644 36.79a1.587 1.587 0 0 0-3.171 0c0 .874.71 1.581 1.586 1.581.875 0 1.585-.707 1.585-1.582Zm0 0"/><path fill="none" stroke="#000" stroke-miterlimit="10" stroke-width=".39834165" d="M164.852 13.453h16.98m21.246 0h16.98"/><path fill="none" stroke="#000" stroke-linejoin="bevel" stroke-miterlimit="10" stroke-width=".7956849500000001" d="M181.434 13.613c0-2.203 1.234-3.984 2.753-3.984 1.524 0 2.758 1.781 2.758 3.984 0-2.203 1.235-3.984 2.754-3.984 1.524 0 2.754 1.781 2.754 3.984 0-2.203 1.234-3.984 2.758-3.984 1.52 0 2.754 1.781 2.754 3.984 0-2.203 1.234-3.984 2.758-3.984 1.52 0 2.754 1.781 2.754 3.984"/><path fill="#FFF" stroke="#000" stroke-miterlimit="10" stroke-width=".39834165" d="M221.644 13.453a1.587 1.587 0 0 0-3.171 0 1.587 1.587 0 0 0 3.171 0Zm0 0"/><use xlink:href="#i" x="216.187" y="9.114"/><path fill="none" stroke="#000" stroke-dasharray="2.9838984305 2.9838984305" stroke-miterlimit="10" stroke-width=".39834165" d="M181.832 7.48h21.246"/></svg>