<svg xmlns="http://www.w3.org/2000/svg" xmlns:xlink="http://www.w3.org/1999/xlink" width="228.759" height="248.68"><defs><path id="f" d="M2.922-6.375c0-.234 0-.25-.219-.25-.625.64-1.5.64-1.812.64v.298c.187 0 .78 0 1.297-.25v5.156c0 .36-.032.469-.922.469H.953V0c.344-.031 1.203-.031 1.61-.031.39 0 1.265 0 1.609.031v-.312h-.313c-.906 0-.937-.11-.937-.47Zm0 0"/><path id="g" d="M4.578-3.187c0-.797-.047-1.594-.39-2.329-.47-.953-1.282-1.109-1.704-1.109-.593 0-1.312.25-1.734 1.188-.312.687-.36 1.453-.36 2.25 0 .75.032 1.64.454 2.406.422.797 1.14 1 1.64 1 .532 0 1.282-.203 1.72-1.156.327-.688.374-1.47.374-2.25M2.484 0c-.39 0-.984-.25-1.156-1.203-.11-.594-.11-1.516-.11-2.094 0-.64 0-1.297.079-1.844.187-1.171.937-1.265 1.187-1.265.329 0 .985.172 1.172 1.156.094.563.094 1.313.094 1.953 0 .735 0 1.422-.11 2.047C3.5-.297 2.923 0 2.485 0m0 0"/><path id="h" d="M1.094-3.422V-.75c0 .438-.11.438-.782.438V0c.36-.016.86-.031 1.126-.031.265 0 .78.015 1.125.031v-.312c-.672 0-.782 0-.782-.438v-1.844c0-1.031.703-1.594 1.344-1.594.625 0 .734.547.734 1.11V-.75c0 .438-.109.438-.78.438V0c.358-.016.858-.031 1.124-.031.266 0 .781.015 1.125.031v-.312c-.516 0-.766 0-.781-.297v-1.907c0-.843 0-1.156-.313-1.515-.14-.172-.468-.375-1.046-.375-.72 0-1.188.437-1.47 1.047v-1.047l-1.405.11v.312c.703 0 .78.078.78.562m0 0"/><path id="i" d="M5.797-6.766H.328v.313h.235c.765 0 .796.11.796.469v5.203c0 .36-.03.469-.796.469H.328V0c.344-.031 1.125-.031 1.516-.031.406 0 1.312 0 1.672.031v-.312h-.328c-.954 0-.954-.125-.954-.47v-2.452h.86c.953 0 1.062.312 1.062 1.172h.25v-2.641h-.25c0 .828-.11 1.156-1.062 1.156h-.86v-2.515c0-.329.032-.391.5-.391h1.188c1.5 0 1.734.547 1.906 1.922h.25Zm0 0"/><path id="v" d="M2.89-3.5c.813-.266 1.391-.969 1.391-1.75 0-.828-.875-1.375-1.828-1.375-1.015 0-1.765.594-1.765 1.344 0 .328.218.531.5.531a.492.492 0 0 0 .515-.516c0-.5-.469-.5-.625-.5.313-.484.969-.609 1.328-.609.406 0 .953.219.953 1.11 0 .124-.015.702-.28 1.14-.298.469-.626.5-.876.516-.078 0-.328.03-.39.03-.079 0-.157.017-.157.11 0 .11.078.11.25.11h.438c.812 0 1.172.687 1.172 1.656 0 1.36-.672 1.64-1.11 1.64-.437 0-1.187-.171-1.531-.75.344.047.656-.171.656-.546 0-.36-.265-.563-.562-.563-.235 0-.547.14-.547.578 0 .907.922 1.563 2 1.563 1.219 0 2.125-.906 2.125-1.922 0-.813-.625-1.594-1.656-1.797m0 0"/><path id="w" d="M6.188-5.828c.125-.36.406-.656 1.078-.656v-.313c-.313.016-.703.031-.97.031-.296 0-.874-.015-1.124-.03v.312c.516 0 .719.265.719.5 0 .078-.032.125-.047.187L4.016-1 2.125-6.016c-.062-.14-.062-.171-.062-.187 0-.281.562-.281.812-.281v-.313c-.36.031-1.047.031-1.422.031-.484 0-.906-.015-1.265-.03v.312c.656 0 .843 0 .984.375L3.469 0c.078.188.125.219.25.219.172 0 .187-.047.25-.188Zm0 0"/><path id="B" d="m1.266-.766 1.047-1.03c1.562-1.376 2.156-1.907 2.156-2.907 0-1.125-.89-1.922-2.11-1.922A1.83 1.83 0 0 0 .5-4.828c0 .562.5.562.531.562.157 0 .516-.125.516-.53a.504.504 0 0 0-.531-.516H.89c.218-.641.765-1 1.343-1 .907 0 1.329.796 1.329 1.609 0 .797-.5 1.594-1.047 2.203L.609-.375C.5-.265.5-.235.5 0h3.688l.28-1.734h-.25c-.046.297-.124.734-.218.89-.062.078-.719.078-.937.078Zm0 0"/><path id="F" d="M4.469-2c0-1.187-.813-2.187-1.89-2.187-.485 0-.907.171-1.267.515v-1.937c.204.062.532.125.844.125 1.235 0 1.922-.907 1.922-1.032 0-.062-.031-.109-.094-.109-.015 0-.03 0-.078.031-.203.078-.687.282-1.36.282-.39 0-.858-.063-1.327-.282-.078-.031-.094-.031-.11-.031-.109 0-.109.078-.109.25v2.938c0 .187 0 .265.14.265.079 0 .094-.031.141-.094.11-.156.469-.703 1.282-.703.515 0 .765.469.843.64.156.376.172.767.172 1.267 0 .343 0 .937-.234 1.359-.235.39-.61.64-1.063.64-.734 0-1.297-.53-1.469-1.109.032 0 .063.016.172.016.329 0 .5-.25.5-.485a.48.48 0 0 0-.5-.484c-.14 0-.484.063-.484.516C.5-.75 1.188.219 2.297.219 3.453.219 4.469-.734 4.469-2m0 0"/><path id="j" d="M-6.375-2.922c-.234 0-.25 0-.25.219.64.625.64 1.5.64 1.812h.298c0-.187 0-.78-.25-1.296h5.156c.36 0 .469.03.469.921v.313H0c-.031-.344-.031-1.203-.031-1.61 0-.39 0-1.265.031-1.609h-.312v.313c0 .906-.11.937-.47.937Zm0 0"/><path id="k" d="M-3.187-4.578c-.797 0-1.594.047-2.329.39-.953.47-1.109 1.282-1.109 1.704 0 .593.25 1.312 1.188 1.734.687.313 1.453.36 2.25.36.75 0 1.64-.032 2.406-.454.797-.422 1-1.14 1-1.64 0-.532-.203-1.282-1.156-1.72-.688-.327-1.47-.374-2.25-.374M0-2.484c0 .39-.25.984-1.203 1.156-.594.11-1.516.11-2.094.11-.64 0-1.297 0-1.844-.079-1.171-.187-1.265-.937-1.265-1.187 0-.328.172-.985 1.156-1.172.563-.094 1.313-.094 1.953-.094.735 0 1.422 0 2.047.11C-.297-3.5 0-2.923 0-2.485m0 0"/><path id="n" d="M-1.64-2.922h.859c.36 0 .469.016.469.75v.219H0c-.031-.422-.031-.938-.031-1.344 0-.422 0-.953.031-1.36h-.312v.204c0 .734-.11.766-.47.766h-.859v-1h-.312v1h-4.531c-.188 0-.25 0-.25.156 0 .094 0 .125.109.203l4.672 3.047h.312Zm-.313-.062v2.422l-3.703-2.422Zm0 0"/><path id="o" d="M-6.062-4.734c-.125-.094-.141-.094-.344-.094v2.422c0 1.219-.14 1.234-.328 1.265v.25l2.062.329v-.25c-.172-.032-.797-.11-.906-.25-.063-.063-.063-.844-.063-.97v-2.062c.157.11 1.235.907 1.563 1.125 1.344.89 2.734 1.219 3.75 1.219.094 0 .547 0 .547-.453 0-.469-.453-.469-.547-.469h-.516c-.547 0-1.094-.031-1.625-.11-.234-.03-1.078-.171-1.703-.609Zm0 0"/><path id="p" d="m-.766-1.266-1.03-1.046C-3.173-3.875-3.704-4.47-4.704-4.47c-1.125 0-1.922.89-1.922 2.11A1.83 1.83 0 0 0-4.828-.5c.562 0 .562-.5.562-.531 0-.157-.125-.516-.53-.516a.504.504 0 0 0-.516.531v.125c-.641-.218-1-.765-1-1.343 0-.907.796-1.328 1.609-1.328.797 0 1.594.5 2.203 1.046L-.375-.609C-.265-.5-.235-.5 0-.5v-3.687l-1.734-.282v.25c.297.047.734.125.89.219.078.063.078.719.078.938Zm0 0"/><path id="r" d="M-.75-1.062c.438 0 .438.109.438.78H0a27.166 27.166 0 0 1-.031-1.077c0-.297.015-.703.031-1.094h-.312c0 .656 0 .765-.438.765h-1.031l-.547-.624C-1.281-3.078-.718-3.5-.531-3.5c.187 0 .219.172.219.36H0A28.952 28.952 0 0 1-.031-4.22c0-.297.015-.578.031-.875h-.312c0 .375 0 .594-.532.969l-1.781 1.266c-.016.015-.078.062-.11.062-.03 0-.624-.703-.703-.812-.515-.625-.53-1.032-.546-1.25h-.313c.031.297.031.422.031.703 0 .36-.015.968-.03 1.11h.312c.015-.188.125-.282.25-.282.203 0 .328.14.39.219l1.219 1.39h-4.781l.11 1.438h.312c0-.688.062-.781.547-.781Zm0 0"/><path id="z" d="M-3.5-2.89c-.266-.813-.969-1.391-1.75-1.391-.828 0-1.375.875-1.375 1.828 0 1.015.594 1.765 1.344 1.765.328 0 .531-.218.531-.5a.492.492 0 0 0-.516-.515c-.5 0-.5.469-.5.625-.484-.313-.609-.969-.609-1.328 0-.406.219-.953 1.11-.953.124 0 .702.015 1.14.28.469.298.5.626.516.876 0 .078.03.328.03.39 0 .079.017.157.11.157.11 0 .11-.078.11-.25v-.438c0-.812.687-1.172 1.656-1.172 1.36 0 1.64.672 1.64 1.11 0 .437-.171 1.187-.75 1.531.047-.344-.171-.656-.546-.656-.36 0-.563.265-.563.562 0 .235.14.547.578.547.907 0 1.563-.922 1.563-2 0-1.219-.906-2.125-1.922-2.125-.813 0-1.594.625-1.797 1.656m0 0"/><path id="E" d="M-4.547-1.625c-.297.453-.64.5-.812.5-.61 0-1.016-.64-1.016-1.36 0-.718.516-1.359 1.234-1.359.563 0 1.047.39 1.391.985Zm.938-1.453c-.36-.719-.875-1.203-1.532-1.203-.921 0-1.484.89-1.484 1.797 0 .984.734 1.797 1.656 1.797.188 0 .625-.016 1.094-.438.125-.11.375-.484.547-.719.281.563.844 1.422 1.828 1.422C-.453-.422.219-1.438.219-2.484c0-1.125-.828-2.063-1.89-2.063-.36 0-.813.11-1.22.484-.218.188-.312.344-.718.985m.422 1 .78-1.219c.188-.281.485-.75 1.095-.75.734 0 1.25.75 1.25 1.563 0 .859-.61 1.562-1.438 1.562-.578 0-1.219-.312-1.687-1.156m0 0"/><path id="G" d="M-2-4.469c-1.187 0-2.187.813-2.187 1.89 0 .485.171.907.515 1.267h-1.937c.062-.204.125-.532.125-.844 0-1.235-.907-1.922-1.032-1.922-.062 0-.109.031-.109.094 0 .015 0 .03.031.078.078.203.282.687.282 1.36 0 .39-.063.858-.282 1.327-.031.078-.031.094-.031.11 0 .109.078.109.25.109h2.938c.187 0 .265 0 .265-.14 0-.079-.031-.094-.094-.141-.156-.11-.703-.469-.703-1.281 0-.516.469-.766.64-.844.376-.156.767-.172 1.267-.172.343 0 .937 0 1.359.234.39.235.64.61.64 1.063 0 .734-.53 1.297-1.109 1.469 0-.032.016-.063.016-.172a.48.48 0 0 0-.485-.5.48.48 0 0 0-.484.5c0 .14.063.484.516.484C-.75-.5.219-1.187.219-2.297.219-3.453-.734-4.469-2-4.469m0 0"/><path id="H" d="M-3.266-1.312H-3.5c-2.516 0-2.875-1.235-2.875-1.75 0-.235.063-.657.39-.876 0 .157 0 .547.454.547.312 0 .453-.234.453-.453 0-.156-.094-.453-.469-.453-.61 0-1.078.438-1.078 1.266 0 1.265 1.281 2.61 3.484 2.61C-.484-.422.22-1.579.22-2.5c0-1.11-.938-2.047-2.25-2.047-1.266 0-2.219.89-2.219 1.984 0 .688.5 1.047.984 1.25M-.062-2.5c0 .625-.594.922-.75.984-.47.188-1.25.188-1.438.188-.781 0-1.766-.328-1.766-1.219 0-.156 0-.625.61-.922.375-.187.875-.187 1.36-.187.483 0 .983 0 1.343.172.594.297.64.75.64.984m0 0"/><path id="q" d="M-.016-2.016c-.656 0-1.046.25-1.046.625 0 .329.25.532.53.532A.526.526 0 0 0 0-1.391a.62.62 0 0 0-.125-.343c-.031-.032-.031-.032-.031-.047 0-.016 0-.016.14-.016.75 0 1.344.344 1.672.672.11.11.125.11.157.11.062 0 .109-.048.109-.094 0-.11-.766-.907-1.938-.907m0 0"/><path id="C" d="M-6.11-3.734c-.234-.063-.343-.094-.374-.282v-.609c0-.703 0-1.797.984-1.797.328 0 1.016.156 1.406.547.266.25.578.781.578 1.672v1.125Zm2.72-1.438c-.22-1-.907-2.187-1.922-2.187-.844 0-1.485.906-1.485 2.203v2.843c0 .188 0 .282.203.282.11 0 .11-.094.11-.281 0-.016 0-.204.015-.376.016-.171.032-.265.157-.265a.55.55 0 0 1 .187.031l5.344 1.344c.39.094.469.11.469.906 0 .172 0 .266.203.266C0-.406 0-.531 0-.546c0-.282-.031-.97-.031-1.25 0-.282.031-.985.031-1.266 0-.079 0-.204-.203-.204-.11 0-.11.094-.11.282 0 .359 0 .64-.171.64-.063 0-.11-.015-.172-.031l-2.64-.656v-1.172c0-.906.562-1.094.905-1.094.157 0 .454.078.688.14.281.063.64.157.844.157C.219-5 .219-6.187.219-6.312c0-.86-1-1.204-1.14-1.204-.126 0-.126.11-.126.125 0 .079.078.11.14.125.735.25.907.672.907.907 0 .328-.219.39-.61.39-.312 0-.812-.047-1.124-.093a4.722 4.722 0 0 0-.47-.032c-.765 0-1.077.657-1.187.922m0 0"/><path id="u" d="M7.172-2.484c0-.203-.188-.203-.328-.203H4.078V-5.47c0-.14 0-.328-.203-.328s-.203.188-.203.328v2.782H.89c-.141 0-.328 0-.328.203 0 .187.187.187.328.187h2.78V.5c0 .14 0 .328.204.328.203 0 .203-.187.203-.328v-2.797h2.766c.14 0 .328 0 .328-.187m0 0"/><path id="y" d="M2.016-.016c0-.656-.25-1.046-.625-1.046a.517.517 0 0 0-.532.53c0 .266.204.532.532.532a.62.62 0 0 0 .343-.125c.032-.031.032-.031.047-.031.016 0 .016 0 .016.14 0 .75-.344 1.344-.672 1.672-.11.11-.11.125-.11.157 0 .062.048.109.094.109.11 0 .907-.766.907-1.938m0 0"/><path id="K" d="M4.25-6.047c.063-.266.11-.328.234-.36.079-.015.407-.015.625-.015 1 0 1.454.031 1.454.813 0 .14-.047.53-.079.797a.784.784 0 0 0-.03.187c0 .063.03.125.109.125.109 0 .14-.078.156-.234l.265-1.72C7-6.5 7-6.593 7-6.624c0-.11-.094-.11-.266-.11H1.22c-.25 0-.25 0-.328.188L.297-4.78a.762.762 0 0 0-.063.172c0 .062.047.109.125.109.094 0 .11-.047.172-.203.532-1.547.797-1.719 2.266-1.719h.39c.282 0 .282.031.282.11a.762.762 0 0 1-.047.218L2.094-.78C2-.421 1.969-.312.906-.312c-.36 0-.422 0-.422.187C.484 0 .594 0 .656 0c.266 0 .547-.016.813-.016.281 0 .578-.015.843-.015.282 0 .563.015.829.015.297 0 .593.016.875.016.093 0 .218 0 .218-.203 0-.11-.078-.11-.343-.11-.25 0-.375 0-.641-.015-.281-.031-.36-.063-.36-.219 0-.015 0-.062.032-.203Zm0 0"/><path id="A" d="M-.219 2.14h-1.047v1.032c0 .14-.109.265-.25.265a.263.263 0 0 1-.265-.265V2.14h-1.031a.274.274 0 0 1-.266-.266c0-.14.125-.25.265-.25h1.032V.578c0-.14.11-.25.265-.25.141 0 .25.11.25.25v1.047h1.047c.14 0 .266.11.266.25s-.125.266-.266.266m0 0"/><path id="D" d="M-3.453-7.172c-.203 0-.203.188-.203.328V-.89c0 .141 0 .329.203.329s.203-.188.203-.329v-5.953c0-.14 0-.328-.203-.328m1.937 0c-.203 0-.203.188-.203.328V-.89c0 .141 0 .329.203.329.188 0 .188-.188.188-.329v-5.953c0-.14 0-.328-.188-.328m0 0"/><path id="L" d="M2.328-4.437c0-.188 0-.188-.203-.188-.453.438-1.078.438-1.36.438v.25c.157 0 .626 0 1-.188v3.547c0 .234 0 .328-.687.328H.812V0c.125 0 .985-.031 1.235-.031.219 0 1.094.031 1.25.031v-.25H3.03c-.703 0-.703-.094-.703-.328Zm0 0"/><clipPath id="a"><path d="M.027 236H4v4H.027Zm0 0"/></clipPath><clipPath id="b"><path d="M.027 230H10v16H.027Zm0 0"/></clipPath><clipPath id="c"><path d="M216 230h12.492v16H216Zm0 0"/></clipPath><clipPath id="d"><path d="M.027 176H4v4H.027Zm0 0"/></clipPath><clipPath id="e"><path d="M.027 170H10v15H.027Zm0 0"/></clipPath><clipPath id="l"><path d="M68 237h2v11.36h-2Zm0 0"/></clipPath><clipPath id="m"><path d="M62 247h14v1.36H62Zm0 0"/></clipPath><clipPath id="s"><path d="M.027 12H4v5H.027Zm0 0"/></clipPath><clipPath id="t"><path d="M.027 7H10v15H.027Zm0 0"/></clipPath><clipPath id="x"><path d="M216 7h12.492v15H216Zm0 0"/></clipPath><clipPath id="I"><path d="M216 112h12.492v16H216Zm0 0"/></clipPath><clipPath id="J"><path d="M216 154h12.492v16H216Zm0 0"/></clipPath></defs><path fill="none" stroke="#000" stroke-miterlimit="10" stroke-width=".39848928000000006" d="M1.809 238.055h110.793m0 0h110.793"/><g clip-path="url(#a)"><path fill="#FFF" d="M3.395 238.055a1.585 1.585 0 1 0-3.168 0 1.584 1.584 0 1 0 3.168 0m0 0"/></g><g clip-path="url(#b)"><path fill="none" stroke="#000" stroke-miterlimit="10" stroke-width=".39848928000000006" d="M3.395 238.055a1.585 1.585 0 1 0-3.168 0 1.584 1.584 0 1 0 3.168 0Zm0 0"/></g><path fill="#FFF" d="M224.98 238.055a1.585 1.585 0 1 0-3.167 0 1.584 1.584 0 1 0 3.167 0m0 0"/><g clip-path="url(#c)"><path fill="none" stroke="#000" stroke-miterlimit="10" stroke-width=".39848928000000006" d="M224.98 238.055a1.585 1.585 0 1 0-3.167 0 1.584 1.584 0 1 0 3.167 0Zm0 0"/></g><path fill="none" stroke="#000" stroke-miterlimit="10" stroke-width=".39848928000000006" d="M1.809 177.621h17.324m5.64 0h22.364m0 0h5.035"/><path fill="none" stroke="#000" stroke-miterlimit="10" stroke-width=".7959798400000001" d="M19.133 169.16v16.922m5.64-16.922v16.922"/><g clip-path="url(#d)"><path fill="#FFF" d="M3.395 177.621a1.585 1.585 0 1 0-3.168 0 1.584 1.584 0 1 0 3.168 0m0 0"/></g><g clip-path="url(#e)"><path fill="none" stroke="#000" stroke-miterlimit="10" stroke-width=".39848928000000006" d="M3.395 177.621a1.585 1.585 0 1 0-3.168 0 1.584 1.584 0 1 0 3.168 0Zm0 0"/></g><path stroke="#000" stroke-miterlimit="10" stroke-width=".39848928000000006" d="M43.684 177.621a1.587 1.587 0 0 0-3.172 0 1.587 1.587 0 0 0 3.172 0Zm0 0"/><use xlink:href="#f" x="10.232" y="196.895"/><use xlink:href="#g" x="15.206" y="196.895"/><use xlink:href="#h" x="21.654" y="196.895"/><use xlink:href="#i" x="27.182" y="196.895"/><path fill="none" stroke="#000" stroke-miterlimit="10" stroke-width=".7959798400000001" d="M74.781 177.621c0-5.777-4.683-10.457-10.46-10.457-5.774 0-10.458 4.68-10.458 10.457 0 5.777 4.684 10.457 10.457 10.457 5.778 0 10.461-4.68 10.461-10.457Zm0 0"/><path fill="none" stroke="#000" stroke-miterlimit="10" stroke-width=".39848928000000006" d="M69.094 161.91v9.508l-8.461 3.875"/><path fill="none" stroke="#000" stroke-miterlimit="10" stroke-width=".7959798400000001" d="M60.633 171.418v12.406"/><path fill="none" stroke="#000" stroke-miterlimit="10" stroke-width=".39848928000000006" d="m60.633 179.95 8.46 3.874v9.508"/><path d="m63.105 181.082.95-2.078 3.687 4.203-5.59-.05Zm0 0"/><path fill="none" stroke="#000" stroke-miterlimit="10" stroke-width=".39848928000000006" d="M60.633 177.621h-8.66M69.094 193.133v11.18m0 22.562v11.18"/><path fill="none" stroke="#000" stroke-miterlimit="10" stroke-width=".7959798400000001" d="M64.863 226.875v-22.563h8.461v22.563Zm0 0"/><path stroke="#000" stroke-miterlimit="10" stroke-width=".39848928000000006" d="M70.676 238.055a1.584 1.584 0 1 0-3.168 0 1.585 1.585 0 1 0 3.168 0Zm0 0"/><use xlink:href="#j" x="62.83" y="220.335"/><use xlink:href="#k" x="62.83" y="215.361"/><g clip-path="url(#l)"><path fill="none" stroke="#000" stroke-miterlimit="10" stroke-width=".39848928000000006" d="M69.094 238.055v9.906"/></g><g clip-path="url(#m)"><path fill="none" stroke="#000" stroke-linecap="round" stroke-miterlimit="10" stroke-width=".7959798400000001" d="M63.148 247.96H75.04"/></g><path fill="none" stroke="#000" stroke-miterlimit="10" stroke-width=".39848928000000006" d="M42.098 177.621v7.754m0 0v18.937m0 22.563v11.18"/><path fill="none" stroke="#000" stroke-miterlimit="10" stroke-width=".7959798400000001" d="M37.867 226.875v-22.563h8.461v22.563Zm0 0"/><path stroke="#000" stroke-miterlimit="10" stroke-width=".39848928000000006" d="M43.684 238.055a1.587 1.587 0 0 0-3.172 0 1.587 1.587 0 0 0 3.172 0Zm0 0"/><use xlink:href="#n" x="35.838" y="222.823"/><use xlink:href="#o" x="35.838" y="217.848"/><use xlink:href="#k" x="35.838" y="212.873"/><path fill="none" stroke="#000" stroke-miterlimit="10" stroke-width=".39848928000000006" d="M42.098 177.621v-18.934m0-22.562v-18.938h13.496m0 0h13.5v22.461m0 0v22.461"/><path fill="none" stroke="#000" stroke-miterlimit="10" stroke-width=".7959798400000001" d="M46.328 136.125v22.562h-8.46v-22.562Zm0 0"/><use xlink:href="#p" x="33.902" y="156.875"/><use xlink:href="#q" x="33.902" y="151.9"/><use xlink:href="#o" x="33.902" y="149.136"/><use xlink:href="#r" x="33.902" y="142.51"/><path stroke="#000" stroke-miterlimit="10" stroke-width=".39848928000000006" d="M70.676 117.187a1.584 1.584 0 1 0-3.168 0 1.585 1.585 0 1 0 3.168 0Zm0 0"/><path fill="none" stroke="#000" stroke-linejoin="bevel" stroke-miterlimit="10" stroke-width=".7959798400000001" d="M68.934 84.36c2.336 0 4.23 1.304 4.23 2.917 0 1.614-1.894 2.922-4.23 2.922 2.336 0 4.23 1.305 4.23 2.918 0 1.613-1.894 2.922-4.23 2.922 2.336 0 4.23 1.305 4.23 2.918 0 1.613-1.894 2.918-4.23 2.918 2.336 0 4.23 1.309 4.23 2.922 0 1.613-1.894 2.918-4.23 2.918M86.172 107.715c-2.336 0-4.23-1.305-4.23-2.918 0-1.613 1.894-2.922 4.23-2.922-2.336 0-4.23-1.305-4.23-2.918 0-1.613 1.894-2.918 4.23-2.918-2.336 0-4.23-1.309-4.23-2.922 0-1.613 1.894-2.918 4.23-2.918-2.336 0-4.23-1.308-4.23-2.922 0-1.613 1.894-2.918 4.23-2.918"/><path fill="none" stroke="#000" stroke-miterlimit="10" stroke-width=".39848928000000006" d="M69.094 74.887v9.87m0 22.56v9.87m16.918-42.3v9.87m0 22.56v9.87"/><path fill="none" stroke="#000" stroke-miterlimit="10" stroke-width=".7959798400000001" d="M78.61 106.613V85.461m-2.114 21.152V85.461"/><path fill="none" stroke="#000" stroke-miterlimit="10" stroke-width=".39848928000000006" d="M69.094 74.887V55.949m0-22.558V14.453h-33.64m0 0H1.808"/><path fill="none" stroke="#000" stroke-linejoin="bevel" stroke-miterlimit="10" stroke-width=".7959798400000001" d="M68.934 56.348c2.336 0 4.23-1.305 4.23-2.918 0-1.614-1.894-2.922-4.23-2.922 2.336 0 4.23-1.305 4.23-2.918 0-1.613-1.894-2.922-4.23-2.922 2.336 0 4.23-1.305 4.23-2.918 0-1.613-1.894-2.918-4.23-2.918 2.336 0 4.23-1.309 4.23-2.922 0-1.613-1.894-2.918-4.23-2.918"/><path stroke="#000" stroke-miterlimit="10" stroke-width=".39848928000000006" d="M70.676 74.887a1.584 1.584 0 1 0-3.168 0 1.585 1.585 0 1 0 3.168 0ZM70.676 14.453a1.584 1.584 0 1 0-3.168 0 1.585 1.585 0 1 0 3.168 0Zm0 0"/><g clip-path="url(#s)"><path fill="#FFF" d="M3.395 14.453a1.585 1.585 0 1 0-3.168 0 1.584 1.584 0 1 0 3.168 0m0 0"/></g><g clip-path="url(#t)"><path fill="none" stroke="#000" stroke-miterlimit="10" stroke-width=".39848928000000006" d="M3.395 14.453a1.585 1.585 0 1 0-3.168 0 1.584 1.584 0 1 0 3.168 0Zm0 0"/></g><use xlink:href="#u" x="5.326" y="10.115"/><use xlink:href="#f" x="13.067" y="10.115"/><use xlink:href="#v" x="18.042" y="10.115"/><use xlink:href="#w" x="24.668" y="10.115"/><path fill="none" stroke="#000" stroke-miterlimit="10" stroke-width=".39848928000000006" d="M69.094 14.453h77.152m0 0h77.149"/><path fill="#FFF" d="M224.98 14.453a1.585 1.585 0 1 0-3.167 0 1.584 1.584 0 1 0 3.167 0m0 0"/><g clip-path="url(#x)"><path fill="none" stroke="#000" stroke-miterlimit="10" stroke-width=".39848928000000006" d="M224.98 14.453a1.585 1.585 0 1 0-3.167 0 1.584 1.584 0 1 0 3.167 0Zm0 0"/></g><path fill="none" stroke="#000" stroke-miterlimit="10" stroke-width=".39848928000000006" d="M69.094 74.887H51.77m-5.641 0H28.805"/><path fill="none" stroke="#000" stroke-miterlimit="10" stroke-width=".7959798400000001" d="M51.77 83.348V66.426m-5.641 16.922V66.426"/><use xlink:href="#g" x="38.514" y="94.161"/><use xlink:href="#y" x="43.489" y="94.161"/><use xlink:href="#f" x="46.253" y="94.161"/><use xlink:href="#i" x="52.88" y="94.161"/><path fill="none" stroke="#000" stroke-miterlimit="10" stroke-width=".39848928000000006" d="M28.805 74.887v9.906"/><path fill="none" stroke="#000" stroke-linecap="round" stroke-miterlimit="10" stroke-width=".7959798400000001" d="M22.86 84.793h11.89"/><path fill="none" stroke="#000" stroke-miterlimit="10" stroke-width=".39848928000000006" d="M86.012 117.187h5.039m0 0h5.035v37.973m0 0v49.152m0 22.563v11.18"/><path stroke="#000" stroke-miterlimit="10" stroke-width=".39848928000000006" d="M97.672 117.187a1.587 1.587 0 0 0-3.172 0 1.587 1.587 0 0 0 3.172 0ZM97.672 193.133a1.587 1.587 0 0 0-3.172 0 1.587 1.587 0 0 0 3.172 0Zm0 0"/><path fill="none" stroke="#000" stroke-miterlimit="10" stroke-width=".7959798400000001" d="M91.855 226.875v-22.563h8.461v22.563Zm0 0"/><path stroke="#000" stroke-miterlimit="10" stroke-width=".39848928000000006" d="M97.672 238.055a1.587 1.587 0 0 0-3.172 0 1.587 1.587 0 0 0 3.172 0Zm0 0"/><use xlink:href="#z" x="89.823" y="220.335"/><use xlink:href="#z" x="89.823" y="215.361"/><path fill="none" stroke="#000" stroke-miterlimit="10" stroke-width=".39848928000000006" d="M96.086 117.187V97.043m0 0V56.957m0-22.562V14.453"/><path fill="none" stroke="#000" stroke-miterlimit="10" stroke-width=".7959798400000001" d="M100.316 34.395v22.562h-8.46V34.395Zm0 0"/><path stroke="#000" stroke-miterlimit="10" stroke-width=".39848928000000006" d="M97.672 14.453a1.587 1.587 0 0 0-3.172 0 1.587 1.587 0 0 0 3.172 0Zm0 0"/><use xlink:href="#n" x="89.823" y="52.909"/><use xlink:href="#o" x="89.823" y="47.934"/><use xlink:href="#k" x="89.823" y="42.959"/><path fill="none" stroke="#000" stroke-miterlimit="10" stroke-width=".39848928000000006" d="M96.086 193.133h10.07m0 0h10.074v19.64m0 5.641v19.64"/><path stroke="#000" stroke-miterlimit="10" stroke-width=".39848928000000006" d="M117.816 193.133a1.587 1.587 0 0 0-3.171 0 1.587 1.587 0 0 0 3.171 0Zm0 0"/><path fill="none" stroke="#000" stroke-miterlimit="10" stroke-width=".7959798400000001" d="M124.691 212.773H107.77m16.921 5.641H107.77"/><path stroke="#000" stroke-miterlimit="10" stroke-width=".39848928000000006" d="M117.816 238.055a1.587 1.587 0 0 0-3.171 0 1.587 1.587 0 0 0 3.171 0Zm0 0"/><use xlink:href="#g" x="119.744" y="228.728"/><use xlink:href="#y" x="124.718" y="228.728"/><use xlink:href="#f" x="127.483" y="228.728"/><use xlink:href="#i" x="134.109" y="228.728"/><path fill="none" stroke="#000" stroke-miterlimit="10" stroke-width=".39848928000000006" d="M116.23 193.133h17.625m0 0h17.625v19.64m0 5.641v19.64"/><path fill="none" stroke="#000" stroke-linecap="square" stroke-miterlimit="10" stroke-width=".7959798400000001" d="M144.43 212.773v1.692h14.101v-1.692H144.43"/><path stroke="#000" stroke-linecap="square" stroke-miterlimit="10" stroke-width=".7959798400000001" d="M144.43 218.414v-1.691h14.101v1.691H144.43"/><use xlink:href="#A" x="148.722" y="208.452"/><path stroke="#000" stroke-miterlimit="10" stroke-width=".39848928000000006" d="M153.066 238.055a1.584 1.584 0 1 0-3.168 0 1.584 1.584 0 1 0 3.168 0Zm0 0"/><use xlink:href="#B" x="154.995" y="228.728"/><use xlink:href="#y" x="159.971" y="228.728"/><use xlink:href="#B" x="162.734" y="228.728"/><use xlink:href="#i" x="169.361" y="228.728"/><path fill="none" stroke="#000" stroke-miterlimit="10" stroke-width=".7959798400000001" d="M200.68 177.621c0-5.777-4.68-10.457-10.457-10.457a10.454 10.454 0 0 0-10.457 10.457c0 5.777 4.68 10.457 10.457 10.457 5.777 0 10.457-4.68 10.457-10.457Zm0 0"/><path fill="none" stroke="#000" stroke-miterlimit="10" stroke-width=".39848928000000006" d="M194.992 161.91v9.508l-8.46 3.875"/><path fill="none" stroke="#000" stroke-miterlimit="10" stroke-width=".7959798400000001" d="M186.531 171.418v12.406"/><path fill="none" stroke="#000" stroke-miterlimit="10" stroke-width=".39848928000000006" d="m186.531 179.95 8.461 3.874v9.508"/><path d="m189.004 181.082.953-2.078 3.688 4.203-5.59-.05Zm0 0"/><path fill="none" stroke="#000" stroke-miterlimit="10" stroke-width=".39848928000000006" d="M186.531 177.621h-8.66M86.012 74.887h7.554m0 0h7.555V95.03m0 0v82.59h76.95"/><path fill="none" stroke="#000" stroke-linejoin="bevel" stroke-miterlimit="10" stroke-width=".7959798400000001" d="M194.836 129.281c2.336 0 4.227 1.305 4.227 2.918 0 1.613-1.891 2.922-4.227 2.922 2.336 0 4.227 1.305 4.227 2.918 0 1.613-1.891 2.918-4.227 2.918 2.336 0 4.227 1.309 4.227 2.922 0 1.613-1.891 2.918-4.227 2.918 2.336 0 4.227 1.308 4.227 2.922 0 1.613-1.891 2.918-4.227 2.918M212.074 152.637c-2.336 0-4.23-1.305-4.23-2.918 0-1.614 1.894-2.922 4.23-2.922-2.336 0-4.23-1.305-4.23-2.918 0-1.613 1.894-2.922 4.23-2.922-2.336 0-4.23-1.305-4.23-2.918 0-1.613 1.894-2.918 4.23-2.918-2.336 0-4.23-1.309-4.23-2.922 0-1.613 1.894-2.918 4.23-2.918"/><path fill="none" stroke="#000" stroke-miterlimit="10" stroke-width=".39848928000000006" d="M194.992 119.809v9.87m0 22.56v9.87m16.922-42.3v9.87m0 22.56v9.87"/><path fill="none" stroke="#000" stroke-miterlimit="10" stroke-width=".7959798400000001" d="M204.512 151.535v-21.152m-2.117 21.152v-21.152"/><path fill="none" stroke="#000" stroke-miterlimit="10" stroke-width=".39848928000000006" d="M194.992 119.809h-5.035m0 0h-5.035v9.87m0 22.56v9.87h5.035m0 0h5.035"/><path stroke="#000" stroke-miterlimit="10" stroke-width=".39848928000000006" d="M196.578 119.809a1.587 1.587 0 0 0-3.172 0c0 .875.711 1.582 1.586 1.582.875 0 1.586-.707 1.586-1.582Zm0 0"/><path fill="none" stroke="#000" stroke-miterlimit="10" stroke-width=".7959798400000001" d="M180.691 152.238V129.68h8.461v22.558Zm0 0"/><use xlink:href="#C" x="178.658" y="155.683"/><use xlink:href="#D" x="178.658" y="148.051"/><use xlink:href="#j" x="178.658" y="140.31"/><use xlink:href="#E" x="178.658" y="135.336"/><use xlink:href="#k" x="178.658" y="130.361"/><path stroke="#000" stroke-miterlimit="10" stroke-width=".39848928000000006" d="M196.578 162.11a1.587 1.587 0 0 0-3.172 0 1.587 1.587 0 0 0 3.172 0Zm0 0"/><path fill="none" stroke="#000" stroke-miterlimit="10" stroke-width=".39848928000000006" d="M194.992 119.809V97.348m0 0V55.949m0-22.558V14.453"/><path fill="none" stroke="#000" stroke-linejoin="bevel" stroke-miterlimit="10" stroke-width=".7959798400000001" d="M195.152 56.348c-2.336 0-4.23-1.305-4.23-2.918 0-1.614 1.894-2.922 4.23-2.922-2.336 0-4.23-1.305-4.23-2.918 0-1.613 1.894-2.922 4.23-2.922-2.336 0-4.23-1.305-4.23-2.918 0-1.613 1.894-2.918 4.23-2.918-2.336 0-4.23-1.309-4.23-2.922 0-1.613 1.894-2.918 4.23-2.918"/><path stroke="#000" stroke-miterlimit="10" stroke-width=".39848928000000006" d="M196.578 14.453a1.587 1.587 0 0 0-3.172 0 1.587 1.587 0 0 0 3.172 0Zm0 0"/><path fill="none" stroke="#000" stroke-miterlimit="10" stroke-width=".39848928000000006" d="M194.992 74.887h-21.754m0 0H151.48V92.21m0 5.64v17.325"/><path stroke="#000" stroke-miterlimit="10" stroke-width=".39848928000000006" d="M196.578 74.887a1.587 1.587 0 0 0-3.172 0 1.587 1.587 0 0 0 3.172 0Zm0 0"/><path fill="none" stroke="#000" stroke-linecap="square" stroke-miterlimit="10" stroke-width=".7959798400000001" d="M144.43 92.21v1.692h14.101v-1.691H144.43"/><path stroke="#000" stroke-linecap="square" stroke-miterlimit="10" stroke-width=".7959798400000001" d="M144.43 97.852v-1.696h14.101v1.696H144.43"/><use xlink:href="#A" x="148.722" y="87.89"/><use xlink:href="#f" x="154.995" y="108.167"/><use xlink:href="#F" x="159.97" y="108.167"/><use xlink:href="#i" x="166.597" y="108.167"/><path fill="none" stroke="#000" stroke-miterlimit="10" stroke-width=".39848928000000006" d="M151.48 74.887h-17.625m0 0H116.23V92.21m0 5.64v17.325"/><path stroke="#000" stroke-miterlimit="10" stroke-width=".39848928000000006" d="M153.066 74.887a1.584 1.584 0 1 0-3.168 0 1.584 1.584 0 1 0 3.168 0Zm0 0"/><path fill="none" stroke="#000" stroke-miterlimit="10" stroke-width=".7959798400000001" d="M124.691 92.21H107.77m16.921 5.642H107.77"/><use xlink:href="#g" x="119.744" y="108.167"/><use xlink:href="#y" x="124.718" y="108.167"/><use xlink:href="#B" x="127.483" y="108.167"/><use xlink:href="#i" x="134.109" y="108.167"/><path fill="none" stroke="#000" stroke-miterlimit="10" stroke-width=".39848928000000006" d="M151.48 115.176h-17.625m0 0H116.23M133.855 115.176"/><path stroke="#000" stroke-miterlimit="10" stroke-width=".39848928000000006" d="M135.441 115.176a1.587 1.587 0 0 0-3.171 0c0 .875.71 1.582 1.585 1.582s1.586-.707 1.586-1.582Zm0 0"/><path fill="none" stroke="#000" stroke-miterlimit="10" stroke-width=".39848928000000006" d="M133.855 115.176v9.906"/><path fill="none" stroke="#000" stroke-linecap="round" stroke-miterlimit="10" stroke-width=".7959798400000001" d="M127.91 125.082h11.89"/><path fill="none" stroke="#000" stroke-miterlimit="10" stroke-width=".39848928000000006" d="M194.992 193.133v11.18m0 22.562v11.18"/><path fill="none" stroke="#000" stroke-miterlimit="10" stroke-width=".7959798400000001" d="M190.762 226.875v-22.563h8.46v22.563Zm0 0"/><path stroke="#000" stroke-miterlimit="10" stroke-width=".39848928000000006" d="M196.578 238.055a1.587 1.587 0 0 0-3.172 0 1.587 1.587 0 0 0 3.172 0Zm0 0"/><use xlink:href="#k" x="207.664" y="225.172"/><use xlink:href="#q" x="207.664" y="220.198"/><use xlink:href="#G" x="207.664" y="217.433"/><use xlink:href="#H" x="207.664" y="212.458"/><path fill="none" stroke="#000" stroke-miterlimit="10" stroke-width=".39848928000000006" d="M211.914 119.809h5.742m0 0h5.739"/><path fill="#FFF" d="M224.98 119.809a1.585 1.585 0 1 0-3.169-.003 1.585 1.585 0 0 0 3.17.003m0 0"/><g clip-path="url(#I)"><path fill="none" stroke="#000" stroke-miterlimit="10" stroke-width=".39848928000000006" d="M224.98 119.809a1.585 1.585 0 1 0-3.169-.003 1.585 1.585 0 0 0 3.17.003Zm0 0"/></g><path fill="none" stroke="#000" stroke-miterlimit="10" stroke-width=".39848928000000006" d="M211.914 162.11h5.742m0 0h5.739"/><path fill="#FFF" d="M224.98 162.11a1.585 1.585 0 1 0-3.167 0 1.584 1.584 0 1 0 3.167 0m0 0"/><g clip-path="url(#J)"><path fill="none" stroke="#000" stroke-miterlimit="10" stroke-width=".39848928000000006" d="M224.98 162.11a1.585 1.585 0 1 0-3.167 0 1.584 1.584 0 1 0 3.167 0Zm0 0"/></g><path fill="none" stroke="#000" stroke-miterlimit="10" stroke-width=".39848928000000006" d="M151.48 14.453v17.324m0 5.64v17.325"/><path fill="none" stroke="#000" stroke-linecap="square" stroke-miterlimit="10" stroke-width=".7959798400000001" d="M144.43 31.777v1.692h14.101v-1.692H144.43"/><path stroke="#000" stroke-linecap="square" stroke-miterlimit="10" stroke-width=".7959798400000001" d="M144.43 37.418v-1.691h14.101v1.69H144.43"/><use xlink:href="#A" x="148.722" y="27.459"/><path stroke="#000" stroke-miterlimit="10" stroke-width=".39848928000000006" d="M153.066 14.453a1.584 1.584 0 1 0-3.168 0 1.584 1.584 0 1 0 3.168 0Zm0 0"/><path fill="none" stroke="#000" stroke-miterlimit="10" stroke-width=".39848928000000006" d="M151.48 54.742v9.906"/><path fill="none" stroke="#000" stroke-linecap="round" stroke-miterlimit="10" stroke-width=".7959798400000001" d="M145.535 64.648h11.89"/><use xlink:href="#f" x="154.995" y="47.735"/><use xlink:href="#F" x="159.97" y="47.735"/><use xlink:href="#i" x="166.597" y="47.735"/><path fill="none" stroke="#000" stroke-miterlimit="10" stroke-width=".39848928000000006" d="M116.23 14.453v17.324m0 5.64v17.325"/><path fill="none" stroke="#000" stroke-miterlimit="10" stroke-width=".7959798400000001" d="M107.77 31.777h16.921m-16.921 5.64h16.921"/><path stroke="#000" stroke-miterlimit="10" stroke-width=".39848928000000006" d="M117.816 14.453a1.587 1.587 0 0 0-3.171 0 1.587 1.587 0 0 0 3.171 0Zm0 0"/><path fill="none" stroke="#000" stroke-miterlimit="10" stroke-width=".39848928000000006" d="M116.23 54.742v9.906"/><path fill="none" stroke="#000" stroke-linecap="round" stroke-miterlimit="10" stroke-width=".7959798400000001" d="M110.285 64.648h11.89"/><use xlink:href="#g" x="119.744" y="47.735"/><use xlink:href="#y" x="124.718" y="47.735"/><use xlink:href="#B" x="127.483" y="47.735"/><use xlink:href="#i" x="134.109" y="47.735"/><use xlink:href="#K" x="72.413" y="85.202"/><use xlink:href="#L" x="78.227" y="86.694"/></svg>