<svg xmlns="http://www.w3.org/2000/svg" xmlns:xlink="http://www.w3.org/1999/xlink" width="232.14" height="243.083"><defs><path id="e" d="M-5.734-6.297c-.407-.11-.703-.281-.735-1.078 0-.047-.015-.172-.203-.172 0 0-.11 0-.11.14 0 .329.032.673.032 1 0 .345-.031.72-.031 1.032 0 .063 0 .188.203.188.11 0 .11-.094.11-.188.015-.562.218-.672.437-.672.031 0 .172.031.203.031l3.547.891c1.328.344 2.187 1.484 2.187 2.469 0 .687-.437 1.219-1.281 1.219-.031 0-.344 0-.781-.11l-3.86-.969c-.359-.078-.453-.109-.453-.828 0-.265 0-.344-.203-.344-.11 0-.11.11-.11.141 0 .281.032 1 .032 1.281 0 .282-.031.985-.031 1.282 0 .078 0 .187.203.187.11 0 .11-.094.11-.281 0-.016 0-.219.015-.375.031-.188.031-.266.156-.266.063 0 .484.094.703.157l.875.218c.39.094 2.266.563 2.453.61.282.062.438.062.579.062 1.218 0 1.906-.89 1.906-1.937 0-1.25-1.125-2.485-2.438-2.813Zm0 0"/><path id="x" d="M-.016-2.016c-.656 0-1.03.25-1.03.641a.5.5 0 0 0 .515.516c.265 0 .531-.188.531-.516a.546.546 0 0 0-.125-.344c-.031-.031-.031-.047-.031-.062 0 0 0-.016.14-.016.735 0 1.329.344 1.657.672.109.11.14.11.172.11.062 0 .109-.048.109-.094 0-.11-.766-.907-1.938-.907m0 0"/><path id="D" d="M-6.094-3.719c-.234-.062-.328-.094-.36-.281-.015-.094-.015-.406-.015-.61 0-.702 0-1.796.985-1.796.328 0 1.015.156 1.406.547.266.25.578.78.578 1.672v1.109Zm2.719-1.437c-.219-1-.906-2.172-1.906-2.172-.86 0-1.5.89-1.5 2.187v2.829c0 .203 0 .28.203.28.11 0 .11-.077.11-.265 0-.031 0-.219.015-.375.031-.187.031-.281.156-.281.047 0 .078.015.188.047l5.328 1.328c.39.094.469.125.469.906 0 .172 0 .266.203.266C0-.406 0-.531 0-.546c0-.282-.031-.97-.031-1.25 0-.282.031-.985.031-1.266 0-.079 0-.188-.203-.188-.11 0-.11.078-.11.281 0 .36 0 .64-.171.64-.063 0-.11-.015-.172-.03l-2.625-.657v-1.187c0-.89.547-1.078.906-1.078.14 0 .453.078.672.14.281.079.656.157.844.157C.219-4.984.219-6.172.219-6.297c0-.844-1-1.187-1.14-1.187-.126 0-.126.109-.126.109 0 .094.078.11.14.125.735.25.907.688.907.906 0 .328-.219.407-.61.407-.296 0-.812-.063-1.124-.11a4.722 4.722 0 0 0-.47-.031c-.765 0-1.077.656-1.171.922m0 0"/><path id="J" d="M-6.89-7.547c-.032 0-.11.031-.11.11 0 .03.016.046.125.156l.766.687C-6.25-6.5-7-6.047-7-4.937-7-2.734-4.797-.5-2.5-.5-.86-.5.219-1.672.219-3.187c0-.86-.39-1.61-.86-2.141-.812-.922-1.703-1.094-1.734-1.094-.11 0-.11.11-.11.125 0 .063.032.11.11.125.281.094.984.313 1.563 1 .546.688.718 1.313.718 1.828 0 .89-.515 1.938-2.062 1.938-.563 0-2.172-.203-3.328-1.188-.703-.61-1.203-1.547-1.203-2.422 0-1.015.765-1.609 1.921-1.609.391 0 .407.031.5.031.094 0 .094-.11.094-.14 0-.125-.016-.125-.187-.188Zm0 0"/><path id="f" d="M-4.75-.422h.25v-.156c0-.547.078-.563.313-.563h3.625c.234 0 .312.016.312.563v.156H0v-2.937c0-.985-.61-1.703-1.266-1.703-.609 0-1.125.609-1.218 1.453-.125-.672-.547-1.25-1.078-1.25-.626 0-1.188.734-1.188 1.703Zm2.188-1.328h-1.672c-.203 0-.266 0-.266-.328V-3.11c0-.688.5-1.047.938-1.047.484 0 1 .468 1 1.265Zm2.312-.328c0 .328-.062.328-.266.328h-1.859v-1.469a1.1 1.1 0 0 1 1.094-1.125c.515 0 1.031.453 1.031 1.219Zm0 0"/><path id="g" d="M-4.172-1.766c-.25 0-.328 0-.328-.578v-.172h-.25c0 .047.031.813.031 1.079 0 .28-.031 1.046-.031 1.078h.25v-.172c0-.578.078-.578.328-.578h3.61c.234 0 .312 0 .312.578v.172H0c0-.047-.031-.797-.031-1.078 0-.266.031-1.032.031-1.079h-.25v.172c0 .578-.078.578-.312.578Zm0 0"/><path id="h" d="M-4.797-3.125c-.11.047-.156.063-.156.203 0 .125.047.14.156.188l4.063 1.609c.172.063.484.188.484.813H0a11.055 11.055 0 0 1-.031-.72c0-.28.031-.796.031-.827h-.25c0 .297-.14.5-.328.5-.063 0-.078-.016-.14-.032l-.86-.343v-1.97l1.016-.405a.294.294 0 0 1 .125-.032c.187 0 .187.375.187.563H0A28.654 28.654 0 0 1-.031-4.61c0-.328.031-.86.031-.938h-.25v.14c0 .47-.062.516-.266.595Zm.703.406 2.266-.89v1.78Zm0 0"/><path id="i" d="M-2.906-1.734c-.125.609-.578.797-.86.797-.468 0-.906-.422-.906-1.047 0-.938.625-1.344 1.36-1.453.109-.016.14-.032.14-.126 0-.124-.047-.124-.172-.124h-1.36c-.124 0-.187 0-.187.093 0 .063.016.078.094.125l.39.25c-.468.453-.484 1.031-.484 1.235 0 .875.625 1.5 1.329 1.5.39 0 .687-.172.921-.422.282-.281.329-.516.485-1.266.14-.625.172-.765.375-.969.156-.156.375-.312.687-.312.485 0 .985.406.985 1.078S-.375-.765-1.422-.719c-.11 0-.156 0-.156.11 0 .125.047.125.187.125h1.344c.125 0 .188 0 .188-.094 0-.063-.016-.078-.078-.125-.094-.063-.313-.188-.407-.25.39-.438.485-.969.485-1.422 0-.922-.688-1.516-1.422-1.516-.625 0-1.219.438-1.375 1.125Zm0 0"/><path id="u" d="M-4.469-4.266c-.078-.046-.11-.046-.14-.046-.141 0-.141.062-.141.187v3.453l1.594.078v-.234C-4.187-.891-4.5-1.391-4.5-2.313V-3.53L-.297-.547c.078.063.094.063.156.063C0-.484 0-.547 0-.687v-3.547l-1.89-.125v.234c.921.063 1.609.188 1.609 1.547v1.297Zm0 0"/><path id="E" d="M-2.281-1.047c-.563 0-1.078-.047-1.5-.312-.375-.235-.64-.61-.64-1.047 0-.219.062-.5.25-.625.015.172.124.312.327.312a.32.32 0 0 0 .328-.328c0-.203-.14-.328-.343-.328-.391 0-.75.281-.75.969 0 1.015.906 2.031 2.406 2.031C-.406-.375.14-1.219.14-1.985c0-.859-.641-1.593-1.563-1.593a1.52 1.52 0 0 0-1.531 1.515c0 .563.36.86.672 1.016m2.203-.937c0 .343-.203.609-.516.765-.203.094-.547.157-.968.157-.672 0-1.204-.407-1.204-.954 0-.328.125-.546.391-.718.266-.172.547-.172.953-.172.406 0 .688 0 .969.187.234.172.375.39.375.735m0 0"/><path id="G" d="M-1.14-3.672h-.25v.766h-3.094c-.157 0-.203 0-.203.156 0 .078 0 .11.093.172L-1.39-.266h.25v-2.046h.579c.234 0 .312 0 .312.562v.188H0A28.392 28.392 0 0 1-.031-2.61c0-.25.015-.703.031-1.047h-.25v.187c0 .563-.078.563-.312.563h-.579Zm-2.798 1.313h2.547v1.828Zm0 0"/><path id="ad" d="M-1.266-3.516v.235c.157.031.563.094.641.187.031.063.031.594.031.688v1.281c-.64-.734-.843-.969-1.172-1.39-.406-.516-.828-1-1.5-1-.843 0-1.343.734-1.343 1.624 0 .875.593 1.454 1.234 1.454.36 0 .39-.297.39-.375 0-.157-.109-.36-.359-.36-.14 0-.375.047-.375.406-.5-.218-.64-.687-.64-1.015 0-.688.53-1.063 1.093-1.063.61 0 1.094.438 1.344.656L-.266-.5c.063.063.079.063.266.063v-2.86Zm0 0"/><path id="af" d="M-2.328-1.89c0-.548.375-.938 1.125-.938.86 0 1.125.5 1.125.906 0 .281-.078.89-.484 1.172-.016-.328-.25-.39-.391-.39-.235 0-.39.156-.39.374 0 .204.124.391.406.391.656 0 1.078-.719 1.078-1.562 0-.97-.641-1.641-1.344-1.641-.547 0-1.078.453-1.25 1.219-.266-.735-.781-1-1.203-1-.547 0-.953.64-.953 1.406 0 .766.375 1.36.922 1.36.234 0 .374-.157.374-.36a.353.353 0 0 0-.359-.36c-.203 0-.344.141-.36.36-.312-.25-.39-.719-.39-.984 0-.313.156-.75.766-.75.297 0 .61.093.828.28.265.235.281.423.297.766.015.188.015.188.015.235 0 .015.016.062.094.062.094 0 .094-.062.094-.172Zm0 0"/><path id="al" d="M-4.75-.406h.25v-.156c0-.547.078-.563.313-.563h3.625c.234 0 .312.016.312.563v.156H0v-2.735a2.34 2.34 0 0 0-2.344-2.343c-1.312 0-2.406 1.047-2.406 2.343Zm4.5-1.688c0 .328-.062.344-.266.344h-3.718c-.203 0-.266-.016-.266-.344v-.86c0-.593.25-1.093.656-1.421.375-.281.906-.39 1.5-.39.813 0 1.235.202 1.516.437.36.312.578.812.578 1.375Zm0 0"/><path id="j" d="M-3.656-4.625v3.844c0 .125.11.219.234.219.125 0 .235-.094.235-.22v-3.843a.24.24 0 0 0-.235-.234.24.24 0 0 0-.234.234m1.781 0v3.844c0 .125.094.219.234.219a.214.214 0 0 0 .22-.22v-3.843c0-.125-.095-.234-.22-.234a.23.23 0 0 0-.234.234m0 0"/><path id="k" d="M-6.344-2.922c-.25 0-.265 0-.265.235.64.609.64 1.484.64 1.796h.297c0-.187 0-.78-.25-1.296h5.14c.36 0 .47.03.47.921v.329H0c-.031-.36-.031-1.22-.031-1.61 0-.406 0-1.265.031-1.61h-.312v.313c0 .89-.11.922-.47.922Zm0 0"/><path id="l" d="M-.766-1.266-1.78-2.312C-3.156-3.86-3.687-4.453-4.688-4.453c-1.125 0-1.921.89-1.921 2.11 0 1.109.922 1.843 1.797 1.843.562 0 .562-.484.562-.516a.516.516 0 0 0-.531-.515c-.266 0-.516.172-.516.515 0 .079 0 .11.016.125-.657-.218-1.016-.75-1.016-1.328 0-.906.797-1.328 1.61-1.328.796 0 1.578.485 2.203 1.031L-.36-.609C-.266-.5-.234-.5 0-.5v-3.672l-1.719-.281v.25c.297.047.735.11.875.219.078.062.078.718.078.937Zm0 0"/><path id="m" d="M-5.797-6.156c-.375-.14-.656-.407-.672-1.094h-.312c.031.313.031.719.031.969 0 .297-.016.875-.031 1.125h.312c.016-.516.266-.719.5-.719.078 0 .14.031.188.047l4.797 1.812L-6-2.109c-.14.062-.156.062-.187.062-.282 0-.282-.578-.282-.828h-.312c.031.36.031 1.047.031 1.422 0 .484-.016.906-.031 1.266h.312c0-.641 0-.829.375-.97L0-3.468c.188-.062.219-.11.219-.234 0-.172-.047-.203-.188-.25Zm0 0"/><path id="w" d="M-3.25-1.312h-.25c-2.5 0-2.86-1.235-2.86-1.735 0-.234.063-.656.391-.875 0 .156 0 .547.453.547.313 0 .454-.234.454-.453 0-.156-.094-.453-.47-.453-.593 0-1.077.437-1.077 1.25 0 1.281 1.28 2.61 3.468 2.61C-.484-.422.22-1.563.22-2.485c0-1.11-.938-2.047-2.25-2.047-1.25 0-2.203.875-2.203 1.984 0 .672.5 1.031.984 1.235m3.188-1.172c0 .625-.594.922-.735.968-.469.188-1.265.188-1.453.188-.766 0-1.766-.313-1.766-1.219 0-.156 0-.61.625-.922.36-.172.875-.172 1.36-.172.469 0 .969 0 1.328.172.594.297.64.75.64.985m0 0"/><path id="C" d="M-3.172-4.562c-.797 0-1.594.046-2.328.39-.953.469-1.11 1.281-1.11 1.688 0 .593.266 1.328 1.188 1.734.672.313 1.453.36 2.25.36.735 0 1.64-.032 2.39-.438.798-.438 1-1.156 1-1.64C.219-3 .017-3.767-.936-4.204c-.688-.313-1.454-.36-2.235-.36M0-2.47c0 .39-.25.969-1.203 1.156-.594.11-1.5.11-2.094.11-.625 0-1.281 0-1.828-.094-1.172-.187-1.266-.922-1.266-1.172 0-.328.172-.984 1.157-1.172.562-.093 1.312-.093 1.937-.093.75 0 1.422 0 2.063.109C-.297-3.485 0-2.922 0-2.469m0 0"/><path id="F" d="M-2-4.453c-1.172 0-2.172.812-2.172 1.89 0 .47.156.891.516 1.25h-1.938a3.01 3.01 0 0 0 .125-.843c0-1.219-.906-1.906-1.031-1.906-.062 0-.11.03-.11.093 0 .016 0 .031.032.078.094.204.281.688.281 1.344 0 .406-.062.86-.266 1.328-.03.078-.03.094-.03.125 0 .094.077.094.234.094h2.937c.172 0 .25 0 .25-.14 0-.063-.015-.094-.078-.126-.156-.109-.703-.484-.703-1.28 0-.517.453-.767.64-.845.36-.156.75-.187 1.25-.187.344 0 .938 0 1.36.25.39.234.64.594.64 1.062 0 .72-.515 1.282-1.109 1.454.016-.032.016-.063.016-.172a.48.48 0 0 0-.485-.5.48.48 0 0 0-.484.5c0 .14.078.484.531.484C-.75-.5.22-1.187.22-2.297c0-1.14-.953-2.156-2.219-2.156m0 0"/><path id="H" d="M-4.531-1.625c-.297.469-.64.5-.813.5-.593 0-1.015-.64-1.015-1.344 0-.719.515-1.36 1.234-1.36.563 0 1.031.392 1.39.985Zm.937-1.437c-.36-.72-.875-1.204-1.531-1.204-.922 0-1.484.875-1.484 1.782 0 1 .734 1.797 1.656 1.797.187 0 .625-.016 1.094-.438.125-.11.359-.469.53-.719.298.578.845 1.422 1.829 1.422 1.047 0 1.719-1 1.719-2.047 0-1.125-.828-2.062-1.89-2.062-.36 0-.798.11-1.22.484-.203.188-.296.344-.703.984m.422.984.766-1.219c.187-.281.484-.734 1.094-.734.734 0 1.25.734 1.25 1.547 0 .859-.61 1.578-1.438 1.578-.578 0-1.203-.328-1.672-1.172m0 0"/><path id="I" d="M-.75-1.047c.438 0 .438.11.438.766H0A27.166 27.166 0 0 1-.031-1.36c0-.297.015-.688.031-1.094h-.312c0 .672 0 .781-.438.781h-1.031l-.547-.64C-1.266-3.078-.718-3.5-.531-3.5c.187 0 .219.172.219.36H0C-.016-3.407-.031-4-.031-4.204c0-.297.015-.578.031-.86h-.312c0 .36 0 .579-.516.954L-2.61-2.844c-.016 0-.079.063-.11.063-.047 0-.64-.719-.719-.813-.5-.625-.515-1.047-.53-1.25h-.313c.031.297.031.422.031.703 0 .344-.016.97-.031 1.11h.312c.016-.188.125-.297.25-.297.203 0 .313.14.39.219l1.204 1.406h-4.766l.11 1.422h.312c0-.688.063-.766.563-.766Zm0 0"/><path id="K" d="M-3.406-1.094H-.75c.438 0 .438.11.438.782H0c-.016-.36-.031-.86-.031-1.125 0-.266.015-.782.031-1.11h-.312c0 .656 0 .766-.438.766h-1.828c-1.031 0-1.594-.703-1.594-1.328 0-.625.547-.735 1.11-.735H-.75c.438 0 .438.11.438.766H0a30.36 30.36 0 0 1-.031-1.125c0-.25.015-.766.031-1.11h-.312c0 .516 0 .766-.297.782H-2.5c-.86 0-1.156 0-1.516.297-.171.14-.375.468-.375 1.047 0 .734.438 1.187 1.047 1.468H-4.39l.11 1.407h.312c0-.704.063-.782.563-.782m0 0"/><path id="L" d="M-6.75-5.781v5.453h.313v-.234c0-.766.109-.782.468-.782H-.78c.36 0 .469.016.469.782v.234H0c-.031-.344-.031-1.125-.031-1.5 0-.422 0-1.313.031-1.672h-.312v.328c0 .938-.125.938-.47.938h-2.437v-.844c0-.953.313-1.063 1.156-1.063v-.25h-2.624v.25c.828 0 1.156.11 1.156 1.063v.844h-2.516c-.328 0-.39-.016-.39-.485v-1.187c0-1.485.546-1.735 1.921-1.89v-.25Zm0 0"/><path id="ag" d="M-1.64-2.922h.859c.36 0 .469.031.469.766v.203H0c-.031-.406-.031-.922-.031-1.344 0-.406 0-.937.031-1.344h-.312v.204c0 .734-.11.75-.47.75h-.859v-.985h-.296v.984h-4.516c-.203 0-.266 0-.266.172 0 .079 0 .11.125.188l4.657 3.047h.296Zm-.298-.047v2.407L-5.64-2.97Zm0 0"/><path id="ah" d="M-6.047-4.719c-.11-.093-.14-.093-.344-.093v2.406c0 1.219-.125 1.234-.312 1.281v.234l2.047.329v-.235c-.172-.031-.797-.125-.907-.25-.062-.078-.062-.844-.062-.984v-2.047c.156.11 1.234.89 1.563 1.11 1.343.89 2.718 1.218 3.734 1.218.094 0 .547 0 .547-.453s-.453-.453-.547-.453h-.5c-.547 0-1.094-.031-1.625-.11-.235-.046-1.094-.187-1.703-.625Zm0 0"/><path id="p" d="M3.719-6.094c.062-.234.094-.328.281-.36.094-.015.406-.015.61-.015.702 0 1.796 0 1.796.985 0 .328-.156 1.015-.547 1.406-.25.266-.78.578-1.671.578h-1.11Zm1.437 2.719c1-.219 2.172-.906 2.172-1.906 0-.86-.89-1.5-2.187-1.5H2.313c-.204 0-.282 0-.282.203 0 .11.078.11.266.11.031 0 .219 0 .375.015.187.031.281.031.281.156 0 .047-.015.078-.047.188L1.578-.781c-.094.39-.125.469-.906.469-.172 0-.266 0-.266.203C.406 0 .531 0 .546 0c.282 0 .97-.031 1.25-.031.282 0 .985.031 1.267.031.078 0 .187 0 .187-.203 0-.11-.078-.11-.281-.11-.36 0-.64 0-.64-.171 0-.063.015-.11.03-.172l.657-2.625h1.187c.89 0 1.078.547 1.078.906 0 .14-.078.453-.14.672-.079.281-.157.656-.157.844C4.984.219 6.172.219 6.297.219c.844 0 1.187-1 1.187-1.14 0-.126-.109-.126-.109-.126-.094 0-.11.078-.125.14C7-.171 6.563 0 6.344 0c-.328 0-.407-.219-.407-.61 0-.296.063-.812.11-1.124.016-.141.031-.328.031-.47 0-.765-.656-1.077-.922-1.171m0 0"/><path id="N" d="M4.234-6.016c.079-.28.11-.343.235-.375.078-.015.406-.015.625-.015 1 0 1.437.031 1.437.812 0 .14-.031.532-.078.797 0 .031-.031.156-.031.188 0 .062.031.125.125.125.11 0 .125-.079.156-.235l.266-1.718c0-.047.015-.141.015-.172 0-.11-.093-.11-.265-.11H1.203c-.234 0-.234.016-.312.203l-.594 1.75a.762.762 0 0 0-.063.172c0 .063.047.11.125.11.094 0 .11-.047.172-.203.532-1.547.782-1.72 2.25-1.72h.39c.282 0 .282.032.282.11a.762.762 0 0 1-.047.219L2.078-.781c-.078.36-.11.469-1.172.469-.36 0-.422 0-.422.187C.484 0 .594 0 .656 0c.266 0 .547-.016.813-.016.281 0 .562-.015.843-.015.282 0 .563.015.829.015.28 0 .578.016.859.016.094 0 .219 0 .219-.203 0-.11-.078-.11-.344-.11-.25 0-.375 0-.625-.015-.297-.031-.375-.063-.375-.219 0-.015 0-.062.047-.203Zm0 0"/><path id="q" d="M2.328-4.422c0-.187-.015-.187-.203-.187-.453.437-1.078.437-1.36.437v.25c.157 0 .626 0 1-.187v3.547c0 .218 0 .312-.687.312H.812V0c.125 0 .97-.031 1.235-.031C2.266-.031 3.14 0 3.28 0v-.25h-.25c-.703 0-.703-.094-.703-.312Zm0 0"/><path id="y" d="M3.516-1.266H3.28c-.031.157-.094.563-.187.641-.063.031-.594.031-.688.031H1.125c.734-.64.969-.843 1.39-1.172.516-.406 1-.828 1-1.5 0-.843-.734-1.343-1.624-1.343-.875 0-1.453.593-1.453 1.234 0 .36.296.39.375.39.156 0 .359-.109.359-.359 0-.14-.047-.375-.406-.375.218-.5.687-.64 1.015-.64.688 0 1.063.53 1.063 1.093 0 .61-.438 1.094-.656 1.344L.5-.266C.438-.203.438-.187.438 0h2.859Zm0 0"/><path id="B" d="M1.89-2.328c.548 0 .938.375.938 1.125 0 .86-.5 1.125-.906 1.125-.281 0-.89-.078-1.172-.484.328-.016.39-.25.39-.391 0-.235-.156-.39-.374-.39-.203 0-.391.124-.391.406C.375-.281 1.094.14 1.938.14c.968 0 1.64-.641 1.64-1.344 0-.547-.453-1.078-1.219-1.25.735-.266 1-.781 1-1.203 0-.547-.64-.953-1.406-.953-.766 0-1.36.375-1.36.922 0 .234.157.374.36.374.219 0 .36-.171.36-.359 0-.203-.141-.344-.36-.36.25-.312.719-.39.985-.39.312 0 .75.156.75.766 0 .297-.094.61-.282.828-.234.265-.422.281-.765.297-.188.015-.188.015-.235.015-.015 0-.062.016-.062.094 0 .094.062.094.172.094Zm0 0"/><path id="M" d="M1.078-3.875c.36.078.563.078.672.078.922 0 1.469-.625 1.469-.719 0-.078-.063-.093-.094-.093-.016 0-.031 0-.047.015-.172.063-.547.203-1.062.203-.188 0-.563-.015-1-.187C.937-4.61.922-4.61.922-4.61c-.094 0-.094.062-.094.187v2.047c0 .11 0 .203.11.203.062 0 .078-.015.14-.11.297-.374.719-.437.969-.437.422 0 .61.344.64.39.126.235.157.5.157.907 0 .203 0 .61-.203.922a.984.984 0 0 1-.813.422c-.453 0-.922-.25-1.094-.719.266.031.407-.156.407-.344 0-.296-.266-.343-.36-.343-.015 0-.343 0-.343.375 0 .625.578 1.25 1.406 1.25.89 0 1.672-.657 1.672-1.532 0-.796-.61-1.515-1.47-1.515-.296 0-.655.078-.968.344Zm0 0"/><path id="X" d="M1.766-4.172c0-.25 0-.328.578-.328h.172v-.25c-.047 0-.813.031-1.078.031-.282 0-1.047-.031-1.079-.031v.25h.172c.578 0 .578.078.578.328v3.61c0 .234 0 .312-.578.312H.36V0c.047 0 .797-.031 1.079-.031.265 0 1.03.031 1.078.031v-.25h-.172c-.578 0-.578-.078-.578-.312Zm0 0"/><path id="Y" d="M1.813-4.64c-.079-.094-.079-.11-.22-.11H.392v.25h.203c.297 0 .484.031.515.047V-.75c0 .188 0 .5-.718.5V0c.28-.016.562-.031.843-.031.282 0 .563.015.86.031v-.25c-.719 0-.719-.312-.719-.5v-3.516L4.453-.109C4.531 0 4.531 0 4.61 0c.141 0 .141-.062.141-.187V-4c0-.187 0-.5.719-.5v-.25c-.282.016-.563.031-.86.031-.28 0-.562-.015-.843-.031v.25c.718 0 .718.313.718.5v2.953Zm0 0"/><path id="aa" d="M5.61-2.344A2.56 2.56 0 0 0 3.046-4.89 2.56 2.56 0 0 0 .484-2.344C.484-.984 1.625.141 3.047.141c1.422 0 2.562-1.125 2.562-2.485M3.046-.094c-.813 0-1.813-.656-1.813-2.375 0-1.61 1.016-2.203 1.813-2.203.797 0 1.812.594 1.812 2.203 0 1.719-1 2.375-1.812 2.375m0 0"/><path id="ab" d="M4.75-4c0-.187 0-.5.719-.5v-.25c-.282.016-.563.031-.844.031s-.562-.015-.844-.031v.25c.719 0 .719.313.719.5v2.39c0 .954-.734 1.5-1.469 1.5-.406 0-1.265-.218-1.265-1.468v-2.61c0-.234.015-.312.547-.312h.171v-.25c-.343.016-.796.031-1.046.031S.734-4.734.39-4.75v.25h.172c.53 0 .546.078.546.313v2.593c0 1 .891 1.735 1.922 1.735.953 0 1.719-.766 1.719-1.735Zm0 0"/><path id="ac" d="M5.188-4.703H.484l-.156 1.61h.235c.109-1.204.312-1.36 1.375-1.36.14 0 .343 0 .406.016.156.015.156.093.156.265v3.61c0 .218 0 .312-.719.312h-.297V0c.344-.031.985-.031 1.36-.031.36 0 1 0 1.328.031v-.25H3.89c-.735 0-.735-.094-.735-.312v-3.61c0-.172 0-.25.156-.266.079-.015.282-.015.422-.015.375 0 .688 0 .922.14.313.188.36.641.375.672l.063.547h.234Zm0 0"/><path id="r" d="M2.875-3.5c.813-.266 1.39-.953 1.39-1.734 0-.813-.874-1.375-1.827-1.375-1 0-1.75.593-1.75 1.343 0 .329.218.516.5.516.312 0 .515-.203.515-.5 0-.5-.469-.5-.625-.5.313-.484.969-.61 1.328-.61.406 0 .953.22.953 1.11 0 .125-.03.703-.28 1.125-.298.484-.642.516-.892.516a3.306 3.306 0 0 1-.374.03c-.094.017-.157.032-.157.126 0 .11.063.11.235.11h.437c.813 0 1.188.671 1.188 1.64 0 1.36-.688 1.64-1.125 1.64-.422 0-1.172-.171-1.516-.75.344.047.656-.171.656-.546 0-.36-.265-.563-.562-.563-.235 0-.547.14-.547.578 0 .907.922 1.563 2 1.563 1.203 0 2.11-.906 2.11-1.922 0-.813-.626-1.578-1.657-1.797m0 0"/><path id="s" d="M4.563-3.172c0-.797-.047-1.594-.391-2.328-.469-.953-1.281-1.11-1.688-1.11-.593 0-1.328.266-1.734 1.188-.312.672-.36 1.453-.36 2.25 0 .735.032 1.64.438 2.39.438.798 1.156 1 1.64 1C3 .219 3.767.017 4.204-.936c.313-.688.36-1.454.36-2.235M2.469 0c-.39 0-.969-.25-1.156-1.203-.11-.594-.11-1.5-.11-2.094 0-.625 0-1.281.094-1.828.187-1.172.922-1.266 1.172-1.266.328 0 .984.172 1.172 1.157.093.562.093 1.312.093 1.937 0 .75 0 1.422-.109 2.063C3.485-.297 2.922 0 2.469 0m0 0"/><path id="z" d="M1.266-.766 2.313-1.78c1.546-1.375 2.14-1.906 2.14-2.907 0-1.125-.89-1.921-2.11-1.921C1.235-6.61.5-5.687.5-4.812c0 .562.484.562.516.562a.516.516 0 0 0 .515-.531c0-.266-.172-.516-.515-.516-.079 0-.11 0-.125.016.218-.657.75-1.016 1.328-1.016.906 0 1.328.797 1.328 1.61 0 .796-.485 1.578-1.031 2.203L.609-.36C.5-.266.5-.234.5 0h3.672l.281-1.719h-.25c-.047.297-.11.735-.219.875-.062.078-.718.078-.937.078Zm0 0"/><path id="A" d="M4.719-6.047c.093-.11.093-.14.093-.344H2.407c-1.219 0-1.234-.125-1.281-.312H.891L.563-4.656h.234c.031-.172.125-.797.25-.907.078-.062.844-.062.984-.062h2.047c-.11.156-.89 1.234-1.11 1.563C2.079-2.72 1.75-1.344 1.75-.328c0 .094 0 .547.453.547s.453-.453.453-.547v-.5c0-.547.031-1.094.11-1.625.046-.235.187-1.094.625-1.703Zm0 0"/><path id="V" d="M6.078-6c0-.36.031-.469.781-.469h.25v-.312c-.359.031-1.093.031-1.468.031s-1.11 0-1.47-.031v.312h.25c.75 0 .782.11.782.469v2.313H2.234V-6c0-.36.016-.469.782-.469h.234v-.312c-.344.031-1.078.031-1.453.031s-1.125 0-1.469-.031v.312h.235c.765 0 .78.11.78.469v5.219c0 .36-.015.469-.78.469H.328V0c.344-.031 1.078-.031 1.453-.031s1.125 0 1.469.031v-.312h-.234c-.766 0-.782-.11-.782-.47v-2.593h2.97v2.594c0 .36-.032.469-.782.469h-.25V0c.36-.031 1.094-.031 1.469-.031s1.109 0 1.468.031v-.312h-.25c-.75 0-.78-.11-.78-.47Zm0 0"/><path id="W" d="M5.781-6.75H.328v.313h.235c.765 0 .78.109.78.468V-.78c0 .36-.015.469-.78.469H.328V0c.344-.031 1.125-.031 1.5-.031.422 0 1.313 0 1.672.031v-.312h-.328c-.938 0-.938-.125-.938-.47v-2.437h.844c.953 0 1.063.313 1.063 1.156h.25v-2.624h-.25c0 .828-.11 1.156-1.063 1.156h-.844v-2.516c0-.328.016-.39.485-.39h1.187c1.485 0 1.735.546 1.89 1.921h.25Zm0 0"/><path id="ae" d="M2.922-6.344c0-.25 0-.265-.235-.265-.609.64-1.484.64-1.796.64v.297c.187 0 .78 0 1.297-.25v5.14c0 .36-.032.47-.922.47H.938V0c.359-.031 1.218-.031 1.609-.031.406 0 1.265 0 1.61.031v-.312h-.313c-.89 0-.922-.11-.922-.47Zm0 0"/><path id="v" d="M-3.437-7.156c-.204 0-.204.187-.204.328v5.937c0 .141 0 .329.204.329.187 0 .187-.188.187-.329v-5.921c0-.157 0-.344-.187-.344m1.921 0c-.203 0-.203.187-.203.343V-.89c0 .141 0 .329.203.329.204 0 .204-.188.204-.329v-5.937c0-.14 0-.328-.204-.328m0 0"/><path id="O" d="M3.281 2.375c0-.031 0-.047-.172-.219C1.875.906 1.563-.969 1.563-2.484c0-1.72.375-3.453 1.593-4.688.125-.125.125-.14.125-.172 0-.062-.031-.093-.094-.093-.109 0-1 .671-1.578 1.937C1.094-4.422.984-3.312.984-2.484c0 .78.11 1.984.657 3.093.593 1.22 1.437 1.875 1.547 1.875.062 0 .093-.03.093-.109m0 0"/><path id="P" d="M4.672-1.64v-.298h-.984v-4.515c0-.203 0-.266-.172-.266-.079 0-.11 0-.188.125L.281-1.937v.296h2.64v.86c0 .36-.03.469-.765.469h-.203V0c.406-.031.922-.031 1.344-.031.406 0 .937 0 1.344.031v-.312h-.203c-.735 0-.75-.11-.75-.47v-.859Zm-1.703-.298H.563L2.969-5.64Zm0 0"/><path id="Q" d="M1.906-3.75a.537.537 0 0 0-.531-.531.534.534 0 0 0-.516.531c0 .281.235.531.516.531.297 0 .531-.25.531-.531m0 3.219A.524.524 0 1 0 .86-.515a.524.524 0 0 0 1.047-.016m0 0"/><path id="R" d="M4.156 0v-.312h-.312c-.89 0-.922-.11-.922-.47v-5.562c0-.25 0-.265-.235-.265-.609.64-1.484.64-1.796.64v.297c.187 0 .78 0 1.297-.25v5.14c0 .36-.032.47-.922.47H.938V0c.359-.031 1.218-.031 1.609-.031.406 0 1.265 0 1.61.031m0 0"/><path id="S" d="M2.875-2.484c0-.766-.11-1.97-.656-3.094C1.625-6.797.766-7.438.672-7.438c-.063 0-.11.032-.11.094 0 .032 0 .047.188.235.969.984 1.547 2.562 1.547 4.625 0 1.703-.375 3.453-1.61 4.703-.125.11-.125.125-.125.156 0 .063.047.11.11.11.094 0 .984-.672 1.578-1.938.5-1.094.625-2.188.625-3.031m0 0"/><path id="Z" d="M4.531-3.266c0-2.671-1.14-3.343-2.015-3.343-.547 0-1.032.187-1.47.625-.405.453-.624.859-.624 1.609 0 1.234.875 2.219 1.984 2.219.594 0 1-.422 1.235-1v.312c0 2.328-1.032 2.782-1.61 2.782-.172 0-.703-.016-.969-.36.438 0 .516-.281.516-.453 0-.312-.234-.453-.453-.453-.156 0-.453.094-.453.469 0 .672.531 1.078 1.375 1.078 1.281 0 2.484-1.344 2.484-3.485m-.906-.906c0 .813-.344 1.781-1.219 1.781-.156 0-.61 0-.922-.625-.171-.375-.171-.859-.171-1.343 0-.547 0-1.016.203-1.375.265-.5.64-.625 1-.625.453 0 .78.343.953.78.11.313.156.938.156 1.407m0 0"/><path id="ai" d="M3.281 0v-.25h-.25c-.703 0-.703-.094-.703-.312v-3.86c0-.187-.015-.187-.203-.187-.453.437-1.078.437-1.36.437v.25c.157 0 .626 0 1-.187v3.547c0 .218 0 .312-.687.312H.812V0l1.235-.031Zm0 0"/><path id="aj" d="M3.516-1.266H3.28c-.031.157-.094.563-.187.641-.063.031-.594.031-.688.031H1.125c.734-.64.969-.843 1.39-1.172.516-.406 1-.828 1-1.5 0-.843-.734-1.343-1.624-1.343-.875 0-1.453.593-1.453 1.234 0 .36.296.39.375.39.156 0 .359-.109.359-.359 0-.14-.047-.375-.406-.375.218-.5.687-.64 1.015-.64.688 0 1.063.53 1.063 1.093 0 .61-.438 1.094-.656 1.344L.5-.266C.438-.203.438-.187.438 0h2.859Zm0 0"/><path id="ak" d="M3.578-1.203c0-.547-.453-1.078-1.219-1.25.735-.266 1-.781 1-1.203 0-.547-.64-.953-1.406-.953-.766 0-1.36.375-1.36.922 0 .234.157.374.36.374.219 0 .36-.171.36-.359 0-.203-.141-.344-.36-.36.25-.312.719-.39.985-.39.312 0 .75.156.75.766 0 .297-.094.61-.282.828-.234.265-.422.281-.765.297-.188.015-.188.015-.235.015 0 0-.062.016-.062.094 0 .094.062.094.172.094h.375c.547 0 .937.375.937 1.125 0 .86-.5 1.125-.906 1.125-.281 0-.89-.078-1.172-.484.328-.016.39-.25.39-.391 0-.235-.156-.39-.374-.39-.203 0-.391.124-.391.406C.375-.281 1.094.14 1.938.14c.968 0 1.64-.641 1.64-1.344m0 0"/><clipPath id="a"><path d="M.008 230H4v4H.008Zm0 0"/></clipPath><clipPath id="b"><path d="M.008 224H10v16H.008Zm0 0"/></clipPath><clipPath id="c"><path d="M.008 208H5v5H.008Zm0 0"/></clipPath><clipPath id="d"><path d="M.008 202H10v17H.008Zm0 0"/></clipPath><clipPath id="n"><path d="M.008 101H4v4H.008Zm0 0"/></clipPath><clipPath id="o"><path d="M.008 95H10v16H.008Zm0 0"/></clipPath><clipPath id="t"><path d="M32 241h14v1.168H32Zm0 0"/></clipPath><clipPath id="T"><path d="M.008 17H4v5H.008Zm0 0"/></clipPath><clipPath id="U"><path d="M.008 12H10v15H.008Zm0 0"/></clipPath></defs><path fill="none" stroke="#000" stroke-miterlimit="10" stroke-width=".39749976000000004" d="M2.184 231.887h110.59m0 0h110.59"/><g clip-path="url(#a)"><path fill="#FFF" d="M3.766 231.887a1.582 1.582 0 0 0-3.164 0 1.583 1.583 0 0 0 3.164 0m0 0"/></g><g clip-path="url(#b)"><path fill="none" stroke="#000" stroke-miterlimit="10" stroke-width=".39749976000000004" d="M3.766 231.887a1.582 1.582 0 0 0-3.164 0 1.583 1.583 0 0 0 3.164 0Zm0 0"/></g><path fill="#FFF" stroke="#000" stroke-miterlimit="10" stroke-width=".39749976000000004" d="M224.945 231.887a1.58 1.58 0 1 0-3.159.003 1.58 1.58 0 0 0 3.16-.003Zm0 0"/><path fill="none" stroke="#000" stroke-miterlimit="10" stroke-width=".39749976000000004" d="M2.184 122.168v90.418m0-109.719h8.109m20.645 0h8.109v59.348m0 10.324v59.348"/><g clip-path="url(#c)"><path d="M2.184 208.383H.207l1.977 4.203 1.976-4.203Zm0 0"/></g><g clip-path="url(#d)"><path fill="none" stroke="#000" stroke-miterlimit="10" stroke-width=".39749976000000004" d="M2.184 208.383H.207l1.977 4.203 1.976-4.203Zm0 0"/></g><use xlink:href="#e" x="12.534" y="194.985"/><use xlink:href="#f" x="14.022" y="188.209"/><use xlink:href="#g" x="14.022" y="182.661"/><use xlink:href="#h" x="14.022" y="179.793"/><use xlink:href="#i" x="14.022" y="173.934"/><use xlink:href="#j" x="12.534" y="166.605"/><use xlink:href="#k" x="12.534" y="158.747"/><use xlink:href="#l" x="12.534" y="153.785"/><use xlink:href="#m" x="12.534" y="147.353"/><path fill="none" stroke="#000" stroke-miterlimit="10" stroke-width=".7940032800000001" d="M10.293 98.996h20.645v7.738H10.293Zm0 0"/><g clip-path="url(#n)"><path fill="#FFF" d="M3.766 102.867a1.583 1.583 0 0 0-3.164 0 1.582 1.582 0 0 0 3.164 0m0 0"/></g><g clip-path="url(#o)"><path fill="none" stroke="#000" stroke-miterlimit="10" stroke-width=".39749976000000004" d="M3.766 102.867a1.583 1.583 0 0 0-3.164 0 1.582 1.582 0 0 0 3.164 0Zm0 0"/></g><path stroke="#000" stroke-miterlimit="10" stroke-width=".39749976000000004" d="M40.629 102.867a1.583 1.583 0 0 0-3.164 0 1.582 1.582 0 0 0 3.164 0Zm0 0"/><use xlink:href="#p" x="14.621" y="95.401"/><use xlink:href="#q" x="22.156" y="96.889"/><use xlink:href="#r" x="12.343" y="117.066"/><use xlink:href="#r" x="17.306" y="117.066"/><use xlink:href="#s" x="22.268" y="117.066"/><path fill="none" stroke="#000" stroke-miterlimit="10" stroke-width=".7940032800000001" d="m39.047 162.215 6.45 10.324H32.593Zm0 0"/><path fill="none" stroke="#000" stroke-miterlimit="10" stroke-width=".39749976000000004" d="M39.047 162.215v10.324"/><path fill="none" stroke="#000" stroke-miterlimit="10" stroke-width=".7940032800000001" d="M32.594 162.215h12.902v2.066"/><path stroke="#000" stroke-miterlimit="10" stroke-width=".39749976000000004" d="M40.629 231.887a1.582 1.582 0 0 0-3.164 0 1.583 1.583 0 0 0 3.164 0Zm0 0"/><path fill="none" stroke="#000" stroke-miterlimit="10" stroke-width=".39749976000000004" d="M39.047 231.887v9.886"/><g clip-path="url(#t)"><path fill="none" stroke="#000" stroke-linecap="round" stroke-miterlimit="10" stroke-width=".7940032800000001" d="M33.117 241.773h11.86"/></g><use xlink:href="#e" x="35.022" y="217.769"/><use xlink:href="#u" x="36.51" y="210.993"/><use xlink:href="#v" x="35.022" y="205.686"/><use xlink:href="#w" x="35.022" y="197.964"/><use xlink:href="#x" x="35.022" y="193.001"/><use xlink:href="#l" x="35.022" y="190.244"/><use xlink:href="#m" x="35.022" y="183.634"/><path fill="none" stroke="#000" stroke-miterlimit="10" stroke-width=".39749976000000004" d="M39.047 102.867h8.11m20.644 0h8.11v13.82m0 0v17.329m0 20.644v30.043m0 20.645v26.539"/><path fill="none" stroke="#000" stroke-miterlimit="10" stroke-width=".7940032800000001" d="M47.156 98.996h20.645v7.738H47.156Zm0 0"/><use xlink:href="#p" x="51.484" y="95.401"/><use xlink:href="#y" x="59.02" y="96.889"/><use xlink:href="#z" x="49.207" y="117.066"/><use xlink:href="#A" x="54.17" y="117.066"/><use xlink:href="#s" x="59.132" y="117.066"/><path fill="none" stroke="#000" stroke-miterlimit="10" stroke-width=".7940032800000001" d="M79.523 134.016v20.644h-7.226v-20.644ZM84.941 149.496l-17.546-10.023"/><path fill="none" stroke="#000" stroke-miterlimit="10" stroke-width=".79396343" d="m65.695 142.043 3.055-5.34"/><use xlink:href="#p" x="87.448" y="146.477"/><use xlink:href="#B" x="94.985" y="147.966"/><use xlink:href="#l" x="64.371" y="151.55"/><use xlink:href="#l" x="64.371" y="146.588"/><use xlink:href="#C" x="64.371" y="141.625"/><path fill="none" stroke="#000" stroke-miterlimit="10" stroke-width=".7940032800000001" d="M72.04 205.348v-20.645h7.741v20.645Zm0 0"/><path stroke="#000" stroke-miterlimit="10" stroke-width=".39749976000000004" d="M77.492 231.887a1.58 1.58 0 0 0-1.582-1.578 1.58 1.58 0 1 0 0 3.16 1.58 1.58 0 0 0 1.582-1.582Zm0 0"/><use xlink:href="#D" x="68.559" y="212.644"/><use xlink:href="#E" x="70.048" y="205.107"/><use xlink:href="#v" x="68.559" y="200.655"/><use xlink:href="#k" x="68.559" y="192.933"/><use xlink:href="#F" x="68.559" y="187.971"/><use xlink:href="#C" x="68.559" y="183.008"/><path fill="none" stroke="#000" stroke-miterlimit="10" stroke-width=".39749976000000004" d="M84.941 149.496h9.215m0 0h9.219v4.332m0 0v30.875m0 20.645v26.539"/><path stroke="#000" stroke-miterlimit="10" stroke-width=".39749976000000004" d="M104.953 149.496a1.58 1.58 0 1 0-3.161.003 1.58 1.58 0 0 0 3.161-.003Zm0 0"/><path fill="none" stroke="#000" stroke-miterlimit="10" stroke-width=".7940032800000001" d="M99.504 205.348v-20.645h7.738v20.645Zm0 0"/><path stroke="#000" stroke-miterlimit="10" stroke-width=".39749976000000004" d="M104.953 231.887a1.58 1.58 0 1 0-3.161.003 1.58 1.58 0 0 0 3.161-.003Zm0 0"/><use xlink:href="#D" x="95.58" y="214.325"/><use xlink:href="#G" x="97.069" y="206.789"/><use xlink:href="#v" x="95.58" y="202.337"/><use xlink:href="#w" x="95.58" y="194.615"/><use xlink:href="#x" x="95.58" y="189.652"/><use xlink:href="#H" x="95.58" y="186.895"/><use xlink:href="#I" x="95.58" y="180.285"/><path fill="none" stroke="#000" stroke-miterlimit="10" stroke-width=".39749976000000004" d="M103.375 149.496H119.5m0 0h16.129v38.617m0 5.16v38.614"/><path fill="none" stroke="#000" stroke-miterlimit="10" stroke-width=".7940032800000001" d="M143.371 188.113h-15.484m15.484 5.16h-15.484"/><path stroke="#000" stroke-miterlimit="10" stroke-width=".39749976000000004" d="M137.211 231.887a1.582 1.582 0 0 0-3.164 0 1.583 1.583 0 0 0 3.164 0Zm0 0"/><use xlink:href="#J" x="124.02" y="215.288"/><use xlink:href="#G" x="125.509" y="208.195"/><use xlink:href="#j" x="124.02" y="201.292"/><use xlink:href="#k" x="124.02" y="193.434"/><use xlink:href="#C" x="124.02" y="188.472"/><use xlink:href="#C" x="124.02" y="183.509"/><use xlink:href="#K" x="124.02" y="177.078"/><use xlink:href="#L" x="124.02" y="171.563"/><path fill="none" stroke="#000" stroke-miterlimit="10" stroke-width=".39749976000000004" d="M103.375 149.496v-35.758m0-20.64V48.12m0 0v-9.215"/><path fill="none" stroke="#000" stroke-miterlimit="10" stroke-width=".7940032800000001" d="M107.242 93.098v20.64h-7.738v-20.64Zm0 0"/><use xlink:href="#p" x="85.522" y="105.559"/><use xlink:href="#M" x="93.058" y="107.047"/><use xlink:href="#F" x="115.631" y="108.151"/><use xlink:href="#k" x="115.631" y="103.188"/><path fill="none" stroke="#000" stroke-linejoin="bevel" stroke-miterlimit="10" stroke-width=".7940032800000001" d="M58.61 28.187c2.136 0 3.87 1.2 3.87 2.68 0 1.48-1.734 2.68-3.87 2.68 2.136 0 3.87 1.2 3.87 2.68 0 1.48-1.734 2.68-3.87 2.68 2.136 0 3.87 1.198 3.87 2.679 0 1.48-1.734 2.68-3.87 2.68 2.136 0 3.87 1.199 3.87 2.68 0 1.48-1.734 2.679-3.87 2.679M74.41 49.625c-2.137 0-3.87-1.2-3.87-2.68 0-1.48 1.733-2.68 3.87-2.68-2.137 0-3.87-1.199-3.87-2.68 0-1.48 1.733-2.679 3.87-2.679-2.137 0-3.87-1.199-3.87-2.68 0-1.48 1.733-2.68 3.87-2.68-2.137 0-3.87-1.198-3.87-2.679 0-1.48 1.733-2.68 3.87-2.68"/><path fill="none" stroke="#000" stroke-miterlimit="10" stroke-width=".39749976000000004" d="M58.77 19.555v9.03m0 20.645v9.032m15.48-38.707v9.03m0 20.645v9.032"/><path fill="none" stroke="#000" stroke-miterlimit="10" stroke-width=".7940032800000001" d="M67.477 48.582V29.23m-1.934 19.352V29.23"/><use xlink:href="#N" x="21.298" y="41.391"/><use xlink:href="#q" x="27.098" y="42.879"/><use xlink:href="#O" x="34.855" y="41.391"/><use xlink:href="#P" x="38.716" y="41.391"/><use xlink:href="#Q" x="43.679" y="41.391"/><use xlink:href="#R" x="46.438" y="41.391"/><use xlink:href="#S" x="51.401" y="41.391"/><path fill="none" stroke="#000" stroke-miterlimit="10" stroke-width=".39749976000000004" d="M58.77 58.262v9.882"/><path fill="none" stroke="#000" stroke-linecap="round" stroke-miterlimit="10" stroke-width=".7940032800000001" d="M52.836 68.144h11.863"/><path fill="none" stroke="#000" stroke-miterlimit="10" stroke-width=".39749976000000004" d="M58.77 19.555H30.477m0 0H2.184"/><g clip-path="url(#T)"><path fill="#FFF" d="M3.766 19.555a1.583 1.583 0 0 0-3.164 0 1.582 1.582 0 0 0 3.164 0m0 0"/></g><g clip-path="url(#U)"><path fill="none" stroke="#000" stroke-miterlimit="10" stroke-width=".39749976000000004" d="M3.766 19.555a1.583 1.583 0 0 0-3.164 0 1.582 1.582 0 0 0 3.164 0Zm0 0"/></g><use xlink:href="#V" x="5.689" y="14.561"/><use xlink:href="#W" x="13.133" y="14.561"/><use xlink:href="#X" x="19.613" y="16.049"/><use xlink:href="#Y" x="22.48" y="16.049"/><path fill="none" stroke="#000" stroke-miterlimit="10" stroke-width=".39749976000000004" d="M103.375 38.906H88.813m0 0H74.25"/><path stroke="#000" stroke-miterlimit="10" stroke-width=".39749976000000004" d="M75.832 38.906a1.583 1.583 0 1 0-3.166.002 1.583 1.583 0 0 0 3.166-.002Zm0 0"/><path fill="none" stroke="#000" stroke-miterlimit="10" stroke-width=".39749976000000004" d="M74.25 19.555h18.434m0 0h18.43M129.18.195v9.422h-9.035"/><path fill="none" stroke="#000" stroke-miterlimit="10" stroke-width=".7940032800000001" d="M120.145 7.488v3.906m0 1.418v3.547m0 1.418v3.907"/><path fill="none" stroke="#000" stroke-miterlimit="10" stroke-width=".39749976000000004" d="M120.145 14.586h9.23m-9.23 4.969h9.035v9.422"/><path fill="none" stroke="#000" stroke-miterlimit="10" stroke-width=".7940032800000001" d="M117.98 9.422V19.75"/><path d="M125.688 14.586v2.277l-5.09-2.277 5.09-2.277Zm0 0"/><path fill="none" stroke="#000" stroke-miterlimit="10" stroke-width=".39749976000000004" d="M117.98 19.555h-7.062M129.18 14.586v14.191"/><path stroke="#000" stroke-miterlimit="10" stroke-width=".39749976000000004" d="M130.285 19.555a1.108 1.108 0 1 0-2.215-.004 1.108 1.108 0 0 0 2.215.004Zm0 0"/><path fill="none" stroke="#000" stroke-miterlimit="10" stroke-width=".39749976000000004" d="M74.25 58.262h18.434m0 0h18.43M129.18 77.617v-9.422h-9.035"/><path fill="none" stroke="#000" stroke-miterlimit="10" stroke-width=".7940032800000001" d="M120.145 70.324v-3.902m0-1.422v-3.547m0-1.418v-3.902"/><path fill="none" stroke="#000" stroke-miterlimit="10" stroke-width=".39749976000000004" d="M120.145 63.227h9.23m-9.23-4.965h9.035v-9.426"/><path fill="none" stroke="#000" stroke-miterlimit="10" stroke-width=".7940032800000001" d="M117.98 68.394V58.062"/><path d="M125.688 63.227v-2.278l-5.09 2.278 5.09 2.277Zm0 0"/><path fill="none" stroke="#000" stroke-miterlimit="10" stroke-width=".39749976000000004" d="M117.98 58.262h-7.062M129.18 63.227V49.035"/><path stroke="#000" stroke-miterlimit="10" stroke-width=".39749976000000004" d="M130.285 58.262a1.107 1.107 0 1 1-2.214-.003 1.107 1.107 0 0 1 2.214.003Zm0 0"/><path fill="none" stroke="#000" stroke-miterlimit="10" stroke-width=".39749976000000004" d="M129.18 28.777v10.13m0 0v10.128M129.18 38.906h-4.61m0 0h-4.609"/><path stroke="#000" stroke-miterlimit="10" stroke-width=".39749976000000004" d="M130.758 38.906c0-.87-.707-1.582-1.578-1.582a1.583 1.583 0 0 0 0 3.164 1.58 1.58 0 0 0 1.578-1.582Zm0 0"/><path fill="none" stroke="#000" stroke-miterlimit="10" stroke-width=".39749976000000004" d="M119.961 38.906v9.883"/><path fill="none" stroke="#000" stroke-linecap="round" stroke-miterlimit="10" stroke-width=".7940032800000001" d="M114.031 48.789h11.86"/><path fill="none" stroke="#000" stroke-miterlimit="10" stroke-width=".39749976000000004" d="M129.18.394h18.43m0 0h18.433v9.579m0 0v9.582"/><path fill="none" stroke="#000" stroke-linejoin="bevel" stroke-miterlimit="10" stroke-width=".7940032800000001" d="M165.883 28.187c2.137 0 3.87 1.2 3.87 2.68 0 1.48-1.733 2.68-3.87 2.68 2.137 0 3.87 1.2 3.87 2.68 0 1.48-1.733 2.68-3.87 2.68 2.137 0 3.87 1.198 3.87 2.679 0 1.48-1.733 2.68-3.87 2.68 2.137 0 3.87 1.199 3.87 2.68 0 1.48-1.733 2.679-3.87 2.679M181.684 49.625c-2.137 0-3.871-1.2-3.871-2.68 0-1.48 1.734-2.68 3.87-2.68-2.136 0-3.87-1.199-3.87-2.68 0-1.48 1.734-2.679 3.87-2.679-2.136 0-3.87-1.199-3.87-2.68 0-1.48 1.734-2.68 3.87-2.68-2.136 0-3.87-1.198-3.87-2.679 0-1.48 1.734-2.68 3.87-2.68"/><path fill="none" stroke="#000" stroke-miterlimit="10" stroke-width=".39749976000000004" d="M166.043 19.555v9.03m0 20.645v9.032m15.48-38.707v9.03m0 20.645v9.032"/><path fill="none" stroke="#000" stroke-miterlimit="10" stroke-width=".7940032800000001" d="M174.75 48.582V29.23m-1.934 19.352V29.23"/><use xlink:href="#N" x="185.029" y="41.391"/><use xlink:href="#y" x="190.829" y="42.879"/><use xlink:href="#O" x="198.587" y="41.391"/><use xlink:href="#R" x="202.448" y="41.391"/><use xlink:href="#Q" x="207.41" y="41.391"/><use xlink:href="#Z" x="210.169" y="41.391"/><use xlink:href="#S" x="215.132" y="41.391"/><path fill="none" stroke="#000" stroke-miterlimit="10" stroke-width=".39749976000000004" d="M181.523 58.262v9.882"/><path fill="none" stroke="#000" stroke-linecap="round" stroke-miterlimit="10" stroke-width=".7940032800000001" d="M175.594 68.144h11.86"/><path fill="none" stroke="#000" stroke-miterlimit="10" stroke-width=".39749976000000004" d="M181.523 19.555h20.922m0 0h20.918"/><path fill="#FFF" stroke="#000" stroke-miterlimit="10" stroke-width=".39749976000000004" d="M224.945 19.555a1.58 1.58 0 1 0-3.16-.004 1.58 1.58 0 0 0 3.16.004Zm0 0"/><use xlink:href="#V" x="187.819" y="14.561"/><use xlink:href="#W" x="195.263" y="14.561"/><use xlink:href="#aa" x="201.743" y="16.049"/><use xlink:href="#ab" x="207.836" y="16.049"/><use xlink:href="#ac" x="213.695" y="16.049"/><path fill="none" stroke="#000" stroke-miterlimit="10" stroke-width=".39749976000000004" d="M129.18 77.422h36.863v-19.16"/><path fill="none" stroke="#000" stroke-miterlimit="10" stroke-width=".39749976000000004" d="M166.043 38.906h-4.61m0 0h-4.609v31.98m0 0v66.262m0 5.16v61.934m0 0v27.645"/><path stroke="#000" stroke-miterlimit="10" stroke-width=".39749976000000004" d="M167.621 38.906c0-.87-.707-1.582-1.578-1.582a1.583 1.583 0 0 0 0 3.164 1.58 1.58 0 0 0 1.578-1.582Zm0 0"/><path fill="none" stroke="#000" stroke-miterlimit="10" stroke-width=".7940032800000001" d="M164.566 137.148h-15.48m15.48 5.16h-15.48"/><use xlink:href="#J" x="145.216" y="164.325"/><use xlink:href="#ad" x="146.704" y="157.231"/><use xlink:href="#j" x="145.216" y="150.329"/><use xlink:href="#k" x="145.216" y="142.471"/><use xlink:href="#C" x="145.216" y="137.508"/><use xlink:href="#C" x="145.216" y="132.545"/><use xlink:href="#K" x="145.216" y="126.114"/><use xlink:href="#L" x="145.216" y="120.599"/><path stroke="#000" stroke-miterlimit="10" stroke-width=".39749976000000004" d="M158.406 231.887a1.58 1.58 0 1 0-3.159.003 1.58 1.58 0 0 0 3.16-.003Zm0 0"/><path fill="none" stroke="#000" stroke-miterlimit="10" stroke-width=".39749976000000004" d="M156.824 102.867h8.114m20.64 0h22.95m0 0h14.835"/><path fill="none" stroke="#000" stroke-linejoin="bevel" stroke-miterlimit="10" stroke-width=".7940032800000001" d="M164.54 103.023c0-2.136 1.198-3.87 2.679-3.87 1.48 0 2.68 1.734 2.68 3.87 0-2.136 1.199-3.87 2.68-3.87 1.48 0 2.679 1.734 2.679 3.87 0-2.136 1.2-3.87 2.68-3.87 1.48 0 2.68 1.734 2.68 3.87 0-2.136 1.198-3.87 2.679-3.87 1.48 0 2.68 1.734 2.68 3.87"/><path stroke="#000" stroke-miterlimit="10" stroke-width=".39749976000000004" d="M158.406 102.867a1.58 1.58 0 1 0-3.16-.003 1.58 1.58 0 0 0 3.16.003ZM195.27 102.867a1.58 1.58 0 1 0-3.161-.003 1.58 1.58 0 0 0 3.16.003Zm0 0"/><path fill="#FFF" stroke="#000" stroke-miterlimit="10" stroke-width=".39749976000000004" d="M224.945 102.867a1.58 1.58 0 1 0-3.16-.003 1.58 1.58 0 0 0 3.16.003Zm0 0"/><use xlink:href="#ae" x="168.44" y="95.49"/><use xlink:href="#s" x="173.403" y="95.49"/><use xlink:href="#s" x="178.366" y="95.49"/><use xlink:href="#V" x="184.976" y="95.49"/><path fill="none" stroke="#000" stroke-miterlimit="10" stroke-width=".39749976000000004" d="M193.688 102.867v23.313m0 0v61.933m0 5.16v38.614"/><path fill="none" stroke="#000" stroke-miterlimit="10" stroke-width=".7940032800000001" d="M201.43 188.113h-15.48m15.48 5.16h-15.48"/><use xlink:href="#J" x="182.079" y="215.288"/><use xlink:href="#af" x="183.568" y="208.194"/><use xlink:href="#j" x="182.079" y="201.292"/><use xlink:href="#ag" x="182.079" y="193.433"/><use xlink:href="#ah" x="182.079" y="188.471"/><use xlink:href="#C" x="182.079" y="183.508"/><use xlink:href="#K" x="182.079" y="177.077"/><use xlink:href="#L" x="182.079" y="171.562"/><path fill="none" stroke="#000" stroke-dasharray="2.9775919992 2.9775919992" stroke-miterlimit="10" stroke-width=".39749976000000004" d="M164.938 97.008h20.64"/><use xlink:href="#ai" x="77.482" y="130.51"/><use xlink:href="#aj" x="88.447" y="157.619"/><use xlink:href="#ak" x="70.384" y="162.78"/><path fill="none" stroke="#000" stroke-miterlimit="10" stroke-width=".39749976000000004" d="M214.148 122.168v90.418"/><path stroke="#000" stroke-miterlimit="10" stroke-width=".39749976000000004" d="M214.148 208.383h-1.976l1.976 4.203 1.977-4.203Zm0 0"/><use xlink:href="#e" x="224.497" y="191.632"/><use xlink:href="#al" x="225.986" y="184.856"/><use xlink:href="#al" x="225.986" y="178.88"/><use xlink:href="#j" x="224.497" y="169.958"/><use xlink:href="#F" x="224.497" y="162.1"/><use xlink:href="#C" x="224.497" y="157.137"/><use xlink:href="#m" x="224.497" y="150.705"/></svg>