<svg xmlns="http://www.w3.org/2000/svg" xmlns:xlink="http://www.w3.org/1999/xlink" width="228.262" height="167.144"><defs><path id="a" d="M6.828 0v-.234h-.187c-.594 0-.61-.094-.61-.375v-4.094c0-.281.016-.36.61-.36h.187v-.234H5.516c-.203 0-.203 0-.266.14L3.563-.78l-1.688-4.36c-.078-.156-.094-.156-.281-.156H.28v.234H.47c.61 0 .625.079.625.36v3.89c0 .204 0 .579-.813.579V0l.922-.016L2.11 0v-.234c-.812 0-.812-.375-.812-.578V-5h.016L3.188-.172c.03.11.078.172.156.172s.11-.062.14-.14l1.907-4.922V-.61c0 .28-.016.375-.61.375h-.187V0c.297-.016.812-.016 1.125-.016.297 0 .812 0 1.11.016m0 0"/><path id="b" d="M2.578 0v-.234h-.187c-.625 0-.641-.094-.641-.375v-4.094c0-.281.016-.36.64-.36h.188v-.234c-.265.016-.875.016-1.172.016-.297 0-.922 0-1.187-.016v.234h.203c.61 0 .64.079.64.36V-.61c0 .28-.03.375-.64.375H.219V0c.265-.016.89-.016 1.172-.016.312 0 .922 0 1.187.016m0 0"/><path id="c" d="M5.172-1.812c0-.079 0-.125-.11-.125-.078 0-.078.046-.093.125-.063 1.109-.89 1.75-1.735 1.75-.484 0-2-.266-2-2.579 0-2.328 1.516-2.593 1.985-2.593.844 0 1.547.703 1.703 1.843.016.11.016.125.125.125.125 0 .125-.015.125-.187v-1.828c0-.14 0-.188-.094-.188-.031 0-.062 0-.125.094l-.39.563c-.282-.282-.688-.657-1.422-.657-1.453 0-2.703 1.235-2.703 2.813 0 1.61 1.25 2.828 2.703 2.828 1.265 0 2.03-1.078 2.03-1.984m0 0"/><path id="f" d="M7.531-6.89c0-.032-.015-.094-.11-.094-.03 0-.046.015-.155.125l-.688.75c-.094-.125-.547-.875-1.64-.875C2.718-6.984.5-4.797.5-2.5.5-.86 1.672.219 3.188.219c.859 0 1.609-.39 2.125-.86.921-.812 1.093-1.703 1.093-1.734 0-.11-.093-.11-.11-.11-.062 0-.109.032-.14.11a3.144 3.144 0 0 1-1 1.563c-.672.562-1.297.718-1.812.718-.89 0-1.953-.515-1.953-2.062 0-.563.218-2.156 1.203-3.328.61-.703 1.531-1.188 2.422-1.188 1 0 1.593.766 1.593 1.906 0 .391-.03.407-.03.5 0 .11.109.11.14.11.14 0 .14-.032.187-.203Zm0 0"/><path id="j" d="M3.719-6.078c.062-.234.078-.344.281-.375h.594c.703 0 1.812 0 1.812.969 0 .343-.172 1.03-.547 1.406-.265.266-.78.578-1.671.578h-1.11ZM5.14-3.375c1-.219 2.187-.906 2.187-1.906 0-.844-.906-1.485-2.203-1.485H2.313c-.204 0-.297 0-.297.204 0 .109.093.109.28.109.017 0 .204 0 .376.016.187.015.265.03.265.156 0 .047 0 .062-.03.187L1.577-.766c-.11.375-.125.454-.906.454-.172 0-.266 0-.266.203C.406 0 .531 0 .546 0c.282 0 .97-.031 1.25-.031.282 0 .985.031 1.25.031.079 0 .204 0 .204-.203 0-.11-.094-.11-.281-.11-.36 0-.64 0-.64-.171 0-.063.015-.11.03-.172l.657-2.625h1.172c.906 0 1.078.562 1.078.906 0 .14-.079.453-.141.688-.062.265-.156.64-.156.828C4.969.219 6.156.219 6.297.219c.828 0 1.187-1 1.187-1.14 0-.126-.109-.126-.125-.126-.093 0-.109.078-.125.14-.25.735-.671.907-.906.907-.328 0-.39-.219-.39-.61 0-.296.062-.812.093-1.124.016-.141.047-.328.047-.47 0-.765-.672-1.062-.937-1.171m0 0"/><path id="g" d="M2.328-4.406c0-.188-.015-.203-.219-.203-.437.437-1.062.453-1.359.453v.25c.172 0 .625 0 1.016-.203v3.547c0 .218 0 .312-.703.312h-.25V0c.109 0 .968-.031 1.234-.031C2.25-.031 3.125 0 3.28 0v-.25h-.265c-.688 0-.688-.094-.688-.312Zm0 0"/><path id="i" d="M1.89-2.312c.548 0 .938.374.938 1.109 0 .86-.5 1.125-.906 1.125-.281 0-.89-.078-1.172-.484a.38.38 0 0 0 .39-.391c0-.219-.156-.39-.374-.39-.203 0-.391.124-.391.406C.375-.281 1.094.14 1.938.14c.968 0 1.625-.641 1.625-1.344 0-.531-.438-1.078-1.204-1.234.735-.266.985-.782.985-1.22 0-.546-.625-.952-1.39-.952-.782 0-1.36.375-1.36.937 0 .235.156.36.36.36.218 0 .343-.157.343-.344 0-.203-.125-.36-.344-.375.235-.297.719-.375.969-.375.312 0 .75.156.75.75 0 .297-.094.625-.266.828-.234.265-.422.281-.781.297-.172.015-.187.015-.219.031-.015 0-.062.016-.062.078 0 .11.062.11.172.11Zm0 0"/><path id="o" d="M3.5-1.266h-.234c-.016.157-.094.563-.172.641-.063.031-.594.031-.688.031H1.125c.734-.64.969-.828 1.39-1.156.516-.422.985-.844.985-1.5 0-.844-.734-1.36-1.625-1.36-.86 0-1.437.61-1.437 1.25 0 .344.296.391.375.391.156 0 .359-.125.359-.375 0-.125-.047-.375-.406-.375.218-.484.687-.64 1.015-.64.688 0 1.047.547 1.047 1.109 0 .594-.422 1.078-.656 1.328L.5-.266C.438-.203.438-.187.438 0h2.859Zm0 0"/><path id="k" d="M5.047-1.266c0-.609-.61-1.125-1.453-1.218.687-.125 1.25-.547 1.25-1.078 0-.626-.735-1.172-1.688-1.172H.422v.25h.156c.531 0 .547.062.547.312v3.61c0 .234-.016.312-.547.312H.422V0h2.937c.985 0 1.688-.61 1.688-1.266m-.89-2.296c0 .5-.47 1-1.266 1H1.734V-4.22c0-.218.016-.265.344-.265h1.016c.687 0 1.062.484 1.062.922m.187 2.28c0 .516-.469 1.032-1.235 1.032H2.08c-.329 0-.345-.062-.345-.266v-1.843H3.22c.734 0 1.125.593 1.125 1.078m0 0"/><path id="l" d="M2.516 0v-.25h-.188c-.562 0-.562-.078-.562-.312v-3.61c0-.234 0-.312.562-.312h.188v-.25l-1.078.03-1.079-.03v.25h.172c.578 0 .578.078.578.312v3.61c0 .234 0 .312-.578.312H.36V0l1.063-.031Zm0 0"/><path id="m" d="M5.531 0v-.25h-.14c-.47 0-.516-.062-.594-.266L3.109-4.78c-.03-.11-.062-.172-.187-.172-.14 0-.156.062-.203.172L1.125-.734C1.047-.562.938-.25.313-.25V0c.234-.016.484-.031.718-.031.266 0 .782.031.828.031v-.25c-.312 0-.5-.14-.5-.328 0-.063 0-.078.032-.14l.343-.86h1.97l.39 1.016c.015.03.047.078.047.125 0 .187-.375.187-.563.187V0L4.61-.031c.329 0 .844.031.922.031M3.594-1.828H1.828l.89-2.25Zm0 0"/><path id="n" d="M3.89-1.281c0-.625-.437-1.219-1.14-1.375l-1.016-.235c-.625-.14-.812-.578-.812-.875 0-.453.437-.89 1.062-.89.938 0 1.344.625 1.454 1.36.015.093.015.14.124.14.11 0 .11-.063.11-.188v-1.36c0-.109 0-.171-.094-.171-.047 0-.062.016-.11.094l-.25.39c-.468-.468-1.046-.484-1.234-.484-.875 0-1.5.625-1.5 1.328 0 .39.172.688.422.922.282.266.516.313 1.266.484.625.141.765.157.969.36a.943.943 0 0 1 .297.687c0 .485-.407.985-1.063.985-.672 0-1.61-.266-1.656-1.313 0-.11 0-.156-.11-.156-.125 0-.125.047-.125.187v1.344c0 .125 0 .188.094.188.063 0 .078-.016.11-.078l.265-.407c.438.39.969.485 1.422.485.906 0 1.516-.688 1.516-1.422m0 0"/><path id="q" d="M-.875-7.25c-.062 0-.172 0-.172.125 0 .11.094.11.172.125.703.063.875.406.875.656 0 .485-.5.563-1.422.703l-.797.125c-.64.172-.969.657-1.156 1.204-.234-.954-.828-1.735-1.61-1.735-.952 0-1.78 1.14-1.78 2.594v3.11h.312v-.235c0-.766.11-.781.453-.781h5.234c.344 0 .454.015.454.78v.235H0c-.031-.36-.031-1.062-.031-1.453 0-.375 0-1.078.031-1.437h-.312V-3c0 .766-.11.781-.454.781H-3.28v-1.14c0-.157 0-.578.344-.922.359-.375.656-.375 1.328-.375.64 0 1.03 0 1.406-.407.36-.406.422-.953.422-1.25 0-.765-.813-.937-1.094-.937m-4.11 2.234c.688 0 1.485.235 1.485 1.704v1.093h-2.562c-.235 0-.344 0-.375-.219-.016-.093-.016-.39-.016-.578 0-.89.031-2 1.469-2m0 0"/><path id="r" d="m-4.5-6.047-2.234.281v5.438h.312v-.234c0-.766.11-.782.453-.782h5.203c.344 0 .454.016.454.782v.234H0c-.031-.344-.031-1.125-.031-1.5 0-.406 0-1.313.031-1.672h-.312v.328c0 .938-.125.938-.47.938h-2.437v-.844c0-.953.313-1.047 1.156-1.047v-.25h-2.624v.25c.828 0 1.156.094 1.156 1.047v.844h-2.5c-.328 0-.39-.016-.39-.485v-1.187c0-1.485.546-1.735 1.921-1.89Zm0 0"/><path id="E" d="M-3.437-7.14c-.204 0-.204.187-.204.327v5.938c0 .125 0 .313.204.313.203 0 .203-.188.203-.329v-5.921c0-.141 0-.329-.203-.329m1.921 0c-.203 0-.203.187-.203.327V-.89c0 .141 0 .329.203.329.204 0 .204-.188.204-.313v-5.937c0-.141 0-.329-.204-.329m0 0"/><path id="s" d="M0-2.516h-.25v.188c0 .562-.078.562-.312.562h-3.61c-.234 0-.312 0-.312-.562v-.188h-.25l.03 1.079-.03 1.078h.25v-.172c0-.578.078-.578.312-.578h3.61c.234 0 .312 0 .312.578v.172H0l-.031-1.063Zm0 0"/><path id="t" d="M-4.484-5.453h-.25c.015.281.03.562.03.844 0 .28-.015.562-.03.843h.25c0-.703.312-.703.5-.703h2.937L-4.64-1.812c-.093.078-.093.078-.093.218V-.39h.25v-.203c0-.297.03-.468.03-.515H-.75c.188 0 .5 0 .5.718H0c-.016-.28-.031-.562-.031-.843 0-.282.015-.563.031-.844h-.25c0 .719-.312.719-.5.719h-3.5l4.14-3.094C0-4.516 0-4.516 0-4.61c0-.125-.062-.125-.187-.125h-3.797c-.188 0-.5 0-.5-.72m0 0"/><path id="u" d="M-2.344-5.594c-1.39 0-2.531 1.14-2.531 2.563A2.534 2.534 0 0 0-2.344-.484C-.984-.484.141-1.61.141-3.031c0-1.422-1.125-2.563-2.485-2.563m-.11.75c1.704 0 2.36 1 2.36 1.813 0 .797-.656 1.797-2.36 1.797-1.608 0-2.202-1.016-2.202-1.797 0-.797.593-1.813 2.203-1.813m0 0"/><path id="v" d="M-4.484-5.453h-.25c.015.281.03.562.03.844 0 .265-.015.562-.03.828h.25c0-.703.312-.703.5-.703h2.375c.953 0 1.5.734 1.5 1.453 0 .406-.22 1.265-1.47 1.265h-2.593c-.234 0-.312-.015-.312-.546v-.172h-.25l.03 1.047-.03 1.046h.25v-.171c0-.532.062-.547.312-.547h2.578c1 0 1.735-.875 1.735-1.907 0-.953-.766-1.718-1.735-1.718h-2.39c-.188 0-.5 0-.5-.72m0 0"/><path id="w" d="m-3.094-5.312-1.594.14v4.688l1.594.156v-.234c-1.203-.11-1.344-.313-1.344-1.375v-.407c.032-.156.11-.156.266-.156h3.61c.218 0 .312 0 .312.719v.297H0c-.031-.344-.031-.985-.031-1.344 0-.36 0-1 .031-1.344h-.25v.297c0 .719-.094.719-.312.719h-3.61c-.156 0-.234 0-.266-.156v-.407c0-.39 0-.687.141-.922.188-.312.625-.375.656-.375l.547-.062Zm0 0"/><path id="y" d="M-1.625-5.156c-.078 0-.125 0-.125.11 0 .046 0 .109.078.124 1.125.047 1.563 1 1.563 1.688 0 .734-.453 2-2.25 2-1.891 0-2.266-1.344-2.266-1.985 0-.687.453-1.515 1.656-1.687.078-.016.078-.078.078-.125 0-.125-.046-.125-.187-.125h-1.625c-.11 0-.172 0-.172.093 0 .032 0 .063.078.11l.531.375c-.296.297-.609.766-.609 1.437 0 1.454 1.125 2.657 2.5 2.657 1.406 0 2.516-1.22 2.516-2.657 0-1.234-.922-2.015-1.766-2.015m0 0"/><path id="D" d="M-2.328-5.469c-1.328 0-2.406 1.047-2.406 2.328v2.735h.25v-.156c0-.547.062-.547.312-.547h3.61c.234 0 .312 0 .312.547v.156H0v-2.735a2.334 2.334 0 0 0-2.328-2.328m0 .703c.797 0 1.219.204 1.515.454.344.312.563.812.563 1.359v.875c0 .328-.062.328-.266.328h-3.703c-.218 0-.265 0-.265-.328v-.86c0-.593.234-1.109.64-1.421.375-.282.906-.407 1.516-.407m0 0"/><path id="x" d="M-5.719-6.297c-.406-.094-.703-.266-.734-1.062 0-.047-.016-.172-.203-.172-.016 0-.11 0-.11.125 0 .328.032.687.032 1.015 0 .344-.032.704-.032 1.032 0 .062 0 .172.204.172.109 0 .109-.094.109-.172 0-.563.219-.672.437-.672.016 0 .172.015.204.031l3.53.89C-.952-4.78-.093-3.64-.093-2.64c0 .671-.437 1.203-1.281 1.203-.016 0-.344 0-.781-.11L-6-2.5c-.36-.094-.453-.11-.453-.844 0-.25 0-.328-.203-.328-.11 0-.11.11-.11.14 0 .266.032.985.032 1.266 0 .282-.032.985-.032 1.282 0 .078 0 .187.204.187.109 0 .109-.094.109-.281 0-.016 0-.203.016-.375.015-.188.03-.266.156-.266.062 0 .468.11.703.157l.875.218c.39.094 2.25.578 2.437.61.282.078.438.078.579.078C-.47-.656.218-1.562.218-2.61c0-1.25-1.125-2.47-2.422-2.797Zm0 0"/><path id="z" d="M4.156 0v-.312h-.328c-.89 0-.922-.11-.922-.47v-5.562c0-.234 0-.25-.219-.25-.609.625-1.484.625-1.812.625v.313c.203 0 .797 0 1.297-.25v5.125c0 .36-.016.469-.906.469H.938V0c.343-.031 1.218-.031 1.609-.031.39 0 1.25 0 1.61.031m0 0"/><path id="A" d="M4.453-1.719h-.25c-.047.297-.125.735-.219.875-.078.078-.718.078-.937.078H1.266L2.313-1.78c1.546-1.375 2.14-1.906 2.14-2.89 0-1.141-.89-1.923-2.11-1.923C1.235-6.594.5-5.687.5-4.797c0 .547.484.547.516.547a.516.516 0 0 0 .515-.531c0-.25-.172-.516-.515-.516-.079 0-.11 0-.141.016.234-.64.766-1.016 1.344-1.016.906 0 1.328.813 1.328 1.625 0 .781-.5 1.578-1.047 2.188L.61-.36C.5-.25.5-.234.5 0h3.672Zm0 0"/><path id="B" d="M4.672-1.64v-.298h-1v-4.515c0-.188 0-.25-.156-.25-.094 0-.125 0-.203.11L.28-1.938v.296h2.625v.875c0 .344-.015.454-.75.454h-.203V0c.406-.031.922-.031 1.328-.031.422 0 .953 0 1.36.031v-.312h-.22c-.734 0-.75-.11-.75-.454v-.875Zm-1.703-.298H.563L2.969-5.64Zm0 0"/><path id="C" d="M4.531-1.687c0-.813-.625-1.594-1.656-1.797.813-.266 1.39-.97 1.39-1.75 0-.813-.874-1.36-1.827-1.36-1 0-1.75.594-1.75 1.344 0 .328.218.516.5.516.312 0 .5-.22.5-.5 0-.5-.454-.5-.61-.5.313-.485.969-.61 1.313-.61.406 0 .953.219.953 1.11 0 .109-.016.687-.266 1.125-.297.468-.64.5-.89.515-.079 0-.313.031-.391.031-.078 0-.14.016-.14.11 0 .11.062.11.234.11h.437c.813 0 1.172.671 1.172 1.656 0 1.343-.672 1.625-1.11 1.625-.421 0-1.171-.172-1.515-.75.344.046.656-.172.656-.547 0-.36-.265-.547-.562-.547-.235 0-.547.14-.547.562 0 .907.922 1.563 2 1.563 1.203 0 2.11-.906 2.11-1.906m0 0"/><path id="F" d="M-1.64-2.906h.874c.344 0 .454.015.454.75v.203H0c-.031-.406-.031-.922-.031-1.328 0-.422 0-.953.031-1.36h-.312v.22c0 .734-.11.75-.454.75h-.875v-1h-.296v1h-4.516c-.188 0-.25 0-.25.155 0 .094 0 .125.11.204l4.656 3.03h.296Zm-.298-.063v2.407L-5.64-2.97Zm0 0"/><path id="G" d="M-5.797-6.156c-.36-.14-.656-.407-.656-1.078h-.313c.016.312.032.703.032.968 0 .297-.016.86-.032 1.125h.313c0-.515.266-.718.484-.718.078 0 .14.03.203.046L-.984-4-6-2.11c-.125.063-.156.063-.172.063-.281 0-.281-.562-.281-.812h-.313c.032.359.032 1.03.032 1.406 0 .484-.016.906-.032 1.266h.313c0-.641 0-.829.375-.97L0-3.452c.188-.078.219-.125.219-.25 0-.172-.047-.188-.188-.235Zm0 0"/><clipPath id="d"><path d="M.215 88H4v4H.215Zm0 0"/></clipPath><clipPath id="e"><path d="M.215 82H10v15H.215Zm0 0"/></clipPath><clipPath id="h"><path d="M215 82h12.313v15H215Zm0 0"/></clipPath><clipPath id="p"><path d="M215 16h12.313v15H215Zm0 0"/></clipPath><clipPath id="H"><path d="M155 155h2v11.293h-2Zm0 0"/></clipPath><clipPath id="I"><path d="M149 165h14v1.293h-14Zm0 0"/></clipPath><clipPath id="J"><path d="M90 155h1v11.293h-1Zm0 0"/></clipPath><clipPath id="K"><path d="M84 165h13v1.293H84Zm0 0"/></clipPath></defs><path fill="none" stroke="#000" stroke-miterlimit="10" stroke-width=".79294327" d="m53.293 52.54 74.3 37.148-74.3 37.148Zm0 0"/><path fill="none" stroke="#000" stroke-miterlimit="10" stroke-width=".39696909" d="M53.293 89.688h-6.191m80.492 0h6.191m-43.344 18.574v6.191m0-43.34v-6.191"/><use xlink:href="#a" x="79.108" y="92.341"/><use xlink:href="#a" x="86.235" y="92.341"/><use xlink:href="#b" x="93.362" y="92.341"/><use xlink:href="#c" x="96.167" y="92.341"/><path fill="none" stroke="#000" stroke-miterlimit="10" stroke-width=".39696909" d="M1.992 89.688H21.45m6.192 0H47.1"/><path fill="none" stroke="#000" stroke-miterlimit="10" stroke-width=".79294327" d="M21.45 80.398v18.575m6.19-18.575v18.575"/><g clip-path="url(#d)"><path fill="#FFF" d="M3.57 89.688a1.58 1.58 0 0 0-3.16 0 1.58 1.58 0 0 0 3.16 0m0 0"/></g><g clip-path="url(#e)"><path fill="none" stroke="#000" stroke-miterlimit="10" stroke-width=".39696909" d="M3.57 89.688a1.58 1.58 0 0 0-3.16 0 1.58 1.58 0 0 0 3.16 0Zm0 0"/></g><use xlink:href="#f" x="18.782" y="76.266"/><use xlink:href="#g" x="25.866" y="77.753"/><path fill="none" stroke="#000" stroke-miterlimit="10" stroke-width=".39696909" d="M133.785 89.688h52.188m6.191 0h30.074"/><path fill="none" stroke="#000" stroke-miterlimit="10" stroke-width=".79294327" d="M185.973 80.398v18.575m6.191-18.575v18.575"/><path fill="#FFF" d="M223.816 89.688a1.58 1.58 0 0 0-3.16 0 1.58 1.58 0 0 0 3.16 0m0 0"/><g clip-path="url(#h)"><path fill="none" stroke="#000" stroke-miterlimit="10" stroke-width=".39696909" d="M223.816 89.688a1.58 1.58 0 0 0-3.16 0 1.58 1.58 0 0 0 3.16 0Zm0 0"/></g><use xlink:href="#f" x="183.301" y="76.266"/><use xlink:href="#i" x="190.384" y="77.753"/><path fill="none" stroke="#000" stroke-miterlimit="10" stroke-width=".39696909" d="M155.898 89.688v-20.79m0-24.765V23.348"/><path fill="none" stroke="#000" stroke-miterlimit="10" stroke-width=".79294327" d="M160.543 44.133v24.765h-9.29V44.133Zm0 0"/><path stroke="#000" stroke-miterlimit="10" stroke-width=".39696909" d="M157.477 89.688a1.58 1.58 0 0 0-3.16 0 1.58 1.58 0 0 0 3.16 0ZM157.477 23.348a1.58 1.58 0 0 0-3.16 0 1.58 1.58 0 0 0 3.16 0Zm0 0"/><use xlink:href="#j" x="122.528" y="58.654"/><use xlink:href="#k" x="130.054" y="60.209"/><use xlink:href="#l" x="135.598" y="60.209"/><use xlink:href="#m" x="138.464" y="60.209"/><use xlink:href="#n" x="144.313" y="60.209"/><path fill="none" stroke="#000" stroke-miterlimit="10" stroke-width=".39696909" d="M155.898 23.348h-29.632m-6.192 0H79.387m0 0H68.332"/><path fill="none" stroke="#000" stroke-miterlimit="10" stroke-width=".79294327" d="M126.266 32.637V14.059m-6.192 18.578V14.059"/><path stroke="#000" stroke-miterlimit="10" stroke-width=".39696909" d="M92.023 23.348a1.58 1.58 0 0 0-3.16 0 1.58 1.58 0 0 0 3.16 0Zm0 0"/><use xlink:href="#f" x="117.404" y="9.928"/><use xlink:href="#o" x="124.489" y="11.415"/><path fill="none" stroke="#000" stroke-miterlimit="10" stroke-width=".39696909" d="M68.332 23.348v9.87"/><path fill="none" stroke="#000" stroke-linecap="round" stroke-miterlimit="10" stroke-width=".79294327" d="M62.406 33.219h11.848"/><path fill="none" stroke="#000" stroke-miterlimit="10" stroke-width=".39696909" d="M90.441 64.922V23.348M155.898 23.348h20.786m24.765 0h20.79"/><path fill="none" stroke="#000" stroke-linejoin="bevel" stroke-miterlimit="10" stroke-width=".79294327" d="M176.29 23.504c0-2.563 1.429-4.64 3.19-4.64 1.766 0 3.196 2.077 3.196 4.64 0-2.563 1.433-4.64 3.195-4.64 1.766 0 3.195 2.077 3.195 4.64 0-2.563 1.43-4.64 3.196-4.64 1.765 0 3.195 2.077 3.195 4.64 0-2.563 1.43-4.64 3.195-4.64 1.766 0 3.196 2.077 3.196 4.64"/><path stroke="#000" stroke-miterlimit="10" stroke-width=".39696909" d="M157.477 23.348a1.58 1.58 0 0 0-3.16 0 1.58 1.58 0 0 0 3.16 0Zm0 0"/><path fill="#FFF" d="M223.816 23.348a1.58 1.58 0 0 0-3.16 0 1.58 1.58 0 0 0 3.16 0m0 0"/><g clip-path="url(#p)"><path fill="none" stroke="#000" stroke-miterlimit="10" stroke-width=".39696909" d="M223.816 23.348a1.58 1.58 0 0 0-3.16 0 1.58 1.58 0 0 0 3.16 0Zm0 0"/></g><path fill="none" stroke="#000" stroke-dasharray="2.9736168553 2.9736168553" stroke-miterlimit="10" stroke-width=".39696909" d="M176.684 16.723h24.765"/><use xlink:href="#q" x="12.264" y="116.166"/><use xlink:href="#r" x="12.264" y="108.871"/><use xlink:href="#s" x="13.75" y="102.399"/><use xlink:href="#t" x="13.75" y="99.533"/><use xlink:href="#q" x="217.108" y="125.048"/><use xlink:href="#r" x="217.108" y="117.752"/><use xlink:href="#u" x="218.594" y="111.28"/><use xlink:href="#v" x="218.594" y="105.195"/><use xlink:href="#w" x="218.594" y="99.346"/><use xlink:href="#x" x="217.108" y="45.436"/><use xlink:href="#y" x="218.594" y="38.668"/><use xlink:href="#y" x="218.594" y="33.006"/><use xlink:href="#z" x="44.625" y="99.79"/><use xlink:href="#A" x="93.945" y="117.753"/><use xlink:href="#B" x="93.945" y="68.276"/><use xlink:href="#C" x="131.305" y="99.79"/><path fill="none" stroke="#000" stroke-miterlimit="10" stroke-width=".39696909" d="M155.898 99.59v46.535"/><path stroke="#000" stroke-miterlimit="10" stroke-width=".39696909" d="M157.477 156.027a1.58 1.58 0 1 0-3.16-.005 1.58 1.58 0 0 0 3.16.005ZM155.898 141.93h-1.976l1.976 4.195 1.973-4.195Zm0 0"/><use xlink:href="#x" x="150.847" y="143.717"/><use xlink:href="#D" x="152.333" y="136.95"/><use xlink:href="#E" x="150.847" y="127.187"/><use xlink:href="#F" x="150.847" y="116.174"/><use xlink:href="#G" x="150.847" y="109.573"/><g clip-path="url(#H)"><path fill="none" stroke="#000" stroke-miterlimit="10" stroke-width=".39696909" d="M155.898 156.027v9.871"/></g><g clip-path="url(#I)"><path fill="none" stroke="#000" stroke-linecap="round" stroke-miterlimit="10" stroke-width=".79294327" d="M149.977 165.898h11.843"/></g><path fill="none" stroke="#000" stroke-miterlimit="10" stroke-width=".39696909" d="M90.441 114.453v20.785m0 0v20.79"/><g clip-path="url(#J)"><path fill="none" stroke="#000" stroke-miterlimit="10" stroke-width=".39696909" d="M90.441 156.027v9.871"/></g><g clip-path="url(#K)"><path fill="none" stroke="#000" stroke-linecap="round" stroke-miterlimit="10" stroke-width=".79294327" d="M84.52 165.898h11.847"/></g></svg>