<svg xmlns="http://www.w3.org/2000/svg" xmlns:xlink="http://www.w3.org/1999/xlink" width="236.192" height="282.912"><defs><path id="a" d="M4.156 0v-.312h-.312c-.89 0-.922-.11-.922-.47v-5.562c0-.25 0-.265-.235-.265-.609.64-1.484.64-1.796.64v.297c.187 0 .78 0 1.297-.25v5.14c0 .36-.032.47-.922.47H.938V0c.359-.031 1.218-.031 1.609-.031.406 0 1.265 0 1.61.031m0 0"/><path id="b" d="M4.453-1.719h-.25c-.047.297-.11.735-.219.875-.062.078-.718.078-.937.078H1.266L2.313-1.78c1.546-1.375 2.14-1.906 2.14-2.907 0-1.125-.89-1.921-2.11-1.921C1.235-6.61.5-5.687.5-4.812c0 .562.484.562.516.562a.516.516 0 0 0 .515-.531c0-.266-.172-.516-.515-.516-.079 0-.11 0-.125.016.218-.657.75-1.016 1.328-1.016.906 0 1.328.797 1.328 1.61 0 .796-.485 1.578-1.031 2.203L.609-.36C.5-.266.5-.234.5 0h3.672Zm0 0"/><path id="j" d="M7.156-2.484c0-.188-.187-.188-.328-.188H4.062v-2.781c0-.14 0-.328-.203-.328s-.203.187-.203.328v2.781H.891c-.141 0-.328 0-.328.188 0 .203.187.203.328.203h2.765V.5c0 .14 0 .328.203.328.204 0 .204-.187.204-.328v-2.781h2.765c.14 0 .328 0 .328-.203m0 0"/><path id="e" d="M-6-6.078c-.36 0-.469-.031-.469-.781v-.25h-.312c.031.359.031 1.093.031 1.468s0 1.11-.031 1.47h.312v-.25c0-.75.11-.782.469-.782h2.313v2.969H-6c-.36 0-.469-.016-.469-.782v-.234h-.312c.031.344.031 1.078.031 1.453s0 1.125-.031 1.469h.312v-.234c0-.766.11-.782.469-.782h5.219c.36 0 .469.016.469.782v.234H0c-.031-.344-.031-1.078-.031-1.453s0-1.125.031-1.469h-.312v.234c0 .766-.11.782-.47.782h-2.593v-2.97h2.594c.36 0 .469.032.469.782v.25H0c-.031-.36-.031-1.094-.031-1.469s0-1.109.031-1.468h-.312v.25c0 .75-.11.78-.47.78Zm0 0"/><path id="f" d="M-6.75-5.781v5.453h.313v-.234c0-.766.109-.782.468-.782H-.78c.36 0 .469.016.469.782v.234H0c-.031-.344-.031-1.125-.031-1.5 0-.422 0-1.313.031-1.672h-.312v.328c0 .938-.125.938-.47.938h-2.437v-.844c0-.953.313-1.063 1.156-1.063v-.25h-2.624v.25c.828 0 1.156.11 1.156 1.063v.844h-2.516c-.328 0-.39-.016-.39-.485v-1.187c0-1.485.546-1.735 1.921-1.89v-.25Zm0 0"/><path id="g" d="M-2.344-5.61A2.56 2.56 0 0 0-4.89-3.046 2.56 2.56 0 0 0-2.344-.484c1.36 0 2.485-1.141 2.485-2.563 0-1.422-1.125-2.562-2.485-2.562m2.25 2.563c0 .813-.656 1.813-2.375 1.813-1.61 0-2.203-1.016-2.203-1.813 0-.797.594-1.812 2.203-1.812 1.719 0 2.375 1 2.375 1.812m0 0"/><path id="h" d="M-4-4.75c-.187 0-.5 0-.5-.719h-.25c.016.282.031.563.031.844s-.015.563-.031.844h.25c0-.719.313-.719.5-.719h2.39c.954 0 1.5.734 1.5 1.469 0 .406-.218 1.265-1.468 1.265h-2.61c-.234 0-.312-.015-.312-.546v-.172h-.25c.016.343.031.797.031 1.047 0 .25-.015.703-.031 1.046h.25v-.171c0-.532.078-.547.313-.547h2.593c1 0 1.735-.891 1.735-1.922 0-.953-.766-1.719-1.735-1.719Zm0 0"/><path id="i" d="M-4.703-5.187v4.703l1.61.156v-.234c-1.204-.11-1.36-.313-1.36-1.375 0-.141 0-.344.016-.407.015-.156.093-.156.265-.156h3.61c.218 0 .312 0 .312.719v.297H0c-.031-.344-.031-.985-.031-1.36 0-.36 0-1 .031-1.328h-.25v.281c0 .735-.094.735-.312.735h-3.61c-.172 0-.25 0-.266-.156-.015-.079-.015-.282-.015-.422 0-.375 0-.688.14-.922.188-.313.641-.36.672-.375l.547-.063v-.234Zm0 0"/><path id="p" d="M-4.172-1.766c-.25 0-.328 0-.328-.578v-.172h-.25c0 .047.031.813.031 1.079 0 .28-.031 1.046-.031 1.078h.25v-.172c0-.578.078-.578.328-.578h3.61c.234 0 .312 0 .312.578v.172H0c0-.047-.031-.797-.031-1.078 0-.266.031-1.032.031-1.079h-.25v.172c0 .578-.078.578-.312.578Zm0 0"/><path id="q" d="M-4.64-1.812c-.094.078-.11.078-.11.218V-.39h.25v-.203c0-.297.031-.484.047-.515H-.75c.188 0 .5 0 .5.718H0c-.016-.28-.031-.562-.031-.843 0-.282.015-.563.031-.86h-.25c0 .719-.312.719-.5.719h-3.516l4.157-3.078C0-4.531 0-4.531 0-4.61c0-.141-.062-.141-.187-.141H-4c-.187 0-.5 0-.5-.719h-.25c.016.282.031.563.031.86 0 .28-.015.562-.031.843h.25c0-.718.313-.718.5-.718h2.953Zm0 0"/><path id="k" d="M4.453-2c0-1.172-.812-2.172-1.89-2.172a1.7 1.7 0 0 0-1.25.516v-1.938c.203.063.515.125.843.125 1.219 0 1.906-.906 1.906-1.031 0-.062-.03-.11-.093-.11-.016 0-.031 0-.078.032a3.26 3.26 0 0 1-1.344.281c-.406 0-.86-.062-1.328-.266-.078-.03-.094-.03-.125-.03C1-6.594 1-6.517 1-6.36v2.937c0 .172 0 .25.14.25.063 0 .094-.015.126-.078.109-.156.484-.703 1.28-.703.517 0 .767.453.845.64.156.36.187.75.187 1.25 0 .344 0 .938-.25 1.36-.234.39-.594.64-1.062.64-.72 0-1.282-.515-1.453-1.109.03.016.062.016.171.016.329 0 .5-.25.5-.485a.48.48 0 0 0-.5-.484c-.14 0-.484.078-.484.531C.5-.75 1.188.22 2.297.22 3.437.219 4.453-.734 4.453-2m0 0"/><path id="l" d="M4.563-3.172c0-.797-.047-1.594-.391-2.328-.469-.953-1.281-1.11-1.688-1.11-.593 0-1.328.266-1.734 1.188-.312.672-.36 1.453-.36 2.25 0 .735.032 1.64.438 2.39.438.798 1.156 1 1.64 1C3 .219 3.767.017 4.204-.936c.313-.688.36-1.454.36-2.235M2.469 0c-.39 0-.969-.25-1.156-1.203-.11-.594-.11-1.5-.11-2.094 0-.625 0-1.281.094-1.828.187-1.172.922-1.266 1.172-1.266.328 0 .984.172 1.172 1.157.093.562.093 1.312.093 1.937 0 .75 0 1.422-.109 2.063C3.485-.297 2.922 0 2.469 0m0 0"/><path id="m" d="M6.156-5.797c.14-.375.407-.656 1.094-.672v-.312c-.312.031-.719.031-.969.031-.297 0-.875-.016-1.125-.031v.312c.516.016.719.266.719.5 0 .078-.031.14-.047.188L4.016-.984 2.109-6c-.062-.14-.062-.156-.062-.187 0-.282.578-.282.828-.282v-.312c-.36.031-1.047.031-1.422.031-.484 0-.906-.016-1.265-.031v.312c.64 0 .828 0 .968.375L3.47 0c.062.188.11.219.234.219.172 0 .203-.047.25-.188Zm0 0"/><path id="n" d="M3.203-.375v-1.922h1.938a.24.24 0 0 0 .234-.234.24.24 0 0 0-.234-.235H3.203v-1.921a.23.23 0 0 0-.234-.235c-.11 0-.219.11-.219.234v1.922H.828a.24.24 0 0 0-.234.235c0 .125.11.234.234.234H2.75v1.922c0 .11.11.219.219.219.14 0 .234-.11.234-.219m0 0"/><path id="r" d="M5.063-3.531c.203-.828.203-1.375.203-1.485C5.266-5.39 5.203-7 4.172-7c-.828 0-1.469 1.047-1.469 1.828 0 .953.922 1.438 1.625 1.656-.219.891-.375 1.47-.703 2.141-.125.281-.61 1.266-1.187 1.266-.688 0-.735-.5-.735-.797 0-.25.078-.578.125-.797.063-.25.11-.469.188-.766l.125-.484c.046-.156.093-.375.093-.516 0-.594-.453-.922-.906-.922s-.64.391-.734.579c-.172.328-.313.921-.313.953 0 .093.11.093.125.093.094 0 .11 0 .172-.218.172-.703.36-1.188.719-1.188.172 0 .312.078.312.469 0 .203-.14.75-.234 1.11-.031.171-.125.515-.172.734-.078.297-.14.547-.14.828 0 .937.687 1.14 1.343 1.14 1.047 0 2.11-1.562 2.61-3.437.109.031.39.094.453.094.031 0 .093-.032.093-.125 0-.079-.062-.079-.203-.11Zm-.672-.203c-.485-.172-1.438-.547-1.438-1.453 0-.61.516-1.594 1.203-1.594.25 0 .516.156.516 1.187 0 .625-.156 1.297-.281 1.86m0 0"/><path id="C" d="M6.297-5.734c.11-.407.281-.703 1.078-.735.047 0 .172-.015.172-.203 0 0 0-.11-.14-.11-.329 0-.673.032-1 .032-.344 0-.72-.031-1.032-.031-.062 0-.187 0-.187.203 0 .11.093.11.187.11.563.015.672.218.672.437 0 .031-.031.172-.031.203l-.891 3.547C4.781-.953 3.641-.094 2.656-.094c-.687 0-1.219-.437-1.219-1.281 0-.031 0-.344.11-.781l.969-3.86c.078-.359.109-.453.828-.453.265 0 .344 0 .344-.203 0-.11-.11-.11-.141-.11-.281 0-1 .032-1.281.032-.282 0-.985-.031-1.282-.031-.078 0-.187 0-.187.203 0 .11.094.11.281.11.016 0 .219 0 .375.015.188.031.266.031.266.156 0 .063-.094.484-.157.703l-.218.875c-.094.39-.563 2.266-.61 2.453-.062.282-.062.438-.062.579 0 1.218.89 1.906 1.937 1.906 1.25 0 2.485-1.125 2.813-2.438Zm0 0"/><path id="H" d="M3.719-6.094c.062-.234.094-.328.281-.36.094-.015.406-.015.61-.015.702 0 1.796 0 1.796.985 0 .328-.156 1.015-.547 1.406-.25.266-.78.578-1.671.578h-1.11Zm1.437 2.719c1-.219 2.172-.906 2.172-1.906 0-.86-.89-1.5-2.187-1.5H2.313c-.204 0-.282 0-.282.203 0 .11.078.11.266.11.031 0 .219 0 .375.015.187.031.281.031.281.156 0 .047-.015.078-.047.188L1.578-.781c-.094.39-.125.469-.906.469-.172 0-.266 0-.266.203C.406 0 .531 0 .546 0c.282 0 .97-.031 1.25-.031.282 0 .985.031 1.267.031.078 0 .187 0 .187-.203 0-.11-.078-.11-.281-.11-.36 0-.64 0-.64-.171 0-.063.015-.11.03-.172l.657-2.625h1.187c.89 0 1.078.547 1.078.906 0 .14-.078.453-.14.672-.079.281-.157.656-.157.844C4.984.219 6.172.219 6.297.219c.844 0 1.187-1 1.187-1.14 0-.126-.109-.126-.109-.126-.094 0-.11.078-.125.14C7-.171 6.563 0 6.344 0c-.328 0-.407-.219-.407-.61 0-.296.063-.812.11-1.124.016-.141.031-.328.031-.47 0-.765-.656-1.077-.922-1.171m0 0"/><path id="s" d="M-1.828-5.062v.234c1.047.187 1.578.344 1.578 1.625v1.11c0 .327-.062.327-.266.327h-1.812v-.703c0-.703.203-.812.812-.812v-.235H-3.39v.235c.61 0 .813.11.813.812v.703h-1.625c-.219 0-.266 0-.266-.328V-3.14c0-1.14.375-1.343 1.344-1.468v-.235l-1.594.203v4.25h.25v-.171c0-.532.063-.547.313-.547h3.593c.235 0 .313.015.313.547v.171H0V-4.75Zm0 0"/><path id="t" d="M0-1.906h-.25c0 .406 0 .468-.297.468h-2.515l.078 1.032h.25c0-.438.03-.5.375-.5h1.812c.297 0 .297.062.297.515H0s-.031-.5-.031-.78c0-.235.015-.485.031-.735m-4.187.39a.4.4 0 0 0-.407.391c0 .234.203.39.407.39.218 0 .39-.171.39-.39a.387.387 0 0 0-.39-.39m0 0"/><path id="u" d="M0-4.11h-.25c0 .454 0 .532-.297.532h-1.562c-.61 0-.953.297-.953 1.047 0 .562.312.937.671 1.125v.015h-.671l.078 1.016h.25c0-.469.046-.516.39-.516h1.797c.297 0 .297.063.297.516H0s-.031-.5-.031-.797c0-.25.031-.734.031-.797h-.25c0 .453 0 .516-.297.516h-1.25a1.029 1.029 0 0 1-1.078-1.031c0-.485.39-.547.734-.547h1.594c.297 0 .297.062.297.515H0s-.031-.5-.031-.78c0-.267.031-.75.031-.813m0 0"/><path id="v" d="M-2.781-3.797c-.156 0-.36.14-.36.422 0 .094.032.469.329.797-.157.219-.25.5-.25.812 0 .72.468 1.235 1.015 1.235.281 0 .531-.14.703-.328.063.046.297.203.563.203.094 0 .422-.016.625-.297.094.328.328.687.687.687.516 0 .89-.765.89-1.703 0-.89-.343-1.703-.905-1.703-.203 0-.578.078-.782.453-.218.422-.218.828-.218 1.5 0 .157 0 .407-.016.453a.45.45 0 0 1-.453.36c-.172 0-.235-.047-.281-.094.062-.11.218-.36.218-.766C-1.016-2.469-1.5-3-2.046-3c-.267 0-.485.125-.673.297-.219-.313-.219-.578-.219-.703.032.031.047.062.157.062.14 0 .234-.11.234-.219a.23.23 0 0 0-.234-.234m.734 1.36c.11 0 .39 0 .578.14a.71.71 0 0 1 .235.531c0 .688-.657.688-.813.688-.11 0-.39 0-.562-.14a.727.727 0 0 1-.25-.548c0-.671.672-.671.812-.671M.531-3.25c.36 0 .688.547.688 1.281C1.219-1.25.89-.703.53-.703c-.25 0-.547-.219-.547-.656v-.407c0-.625 0-1.484.547-1.484m0 0"/><path id="w" d="M-.625-3.781h-.39v.234h.39c.063 0 .39 0 .39.266 0 .25-.327.25-.406.25h-1.218c-.375 0-.641 0-.891.312a1.58 1.58 0 0 0-.344 1.031c0 .672.25 1.126.672 1.126.219 0 .328-.141.328-.329 0-.187-.125-.328-.312-.328-.125 0-.266.063-.328.25-.172-.25-.172-.656-.172-.703 0-.39.25-.812.844-.812h.218c.016.39.032.843.219 1.343.234.641.61.829.922.829.594 0 .766-.72.766-1.22 0-.562-.313-.874-.579-1.03.282-.032.547-.22.547-.532 0 0 0-.687-.656-.687m-.36 1.297c.673 0 .86.593.86.906 0 .344-.234.687-.578.687-.375 0-.922-.343-.969-1.593Zm0 0"/><path id="x" d="M-.906-2.828a.81.81 0 0 0-.64.297c-.25.265-.298.578-.345.828-.093.562-.187 1-.546 1-.22 0-.5-.188-.5-.844 0-.797.562-.844.765-.86.078 0 .078-.077.078-.109 0-.125-.047-.125-.187-.125h-.64c-.11 0-.173 0-.173.11 0 .031 0 .047.078.125a.36.36 0 0 0 .11.125c-.156.219-.188.484-.188.734 0 1 .516 1.235.86 1.235a.688.688 0 0 0 .547-.266c.234-.266.28-.531.343-.953.063-.36.157-.922.625-.922.282 0 .594.187.594.86 0 .671-.437.906-.906 1.03-.094.032-.125.032-.125.125 0 .126.047.126.187.126h.86c.109 0 .172 0 .172-.094 0-.063-.141-.203-.297-.344.297-.297.297-.672.297-.844 0-.906-.485-1.234-.97-1.234m0 0"/><path id="y" d="M-1.266-2.187h-.468v2.046h.468Zm0 0"/><path id="z" d="M-1.5-4.062c-.86 0-1.562.718-1.562 1.593 0 .39.14.797.421 1.078h-.421l.078 1.047h.25c0-.484.03-.515.328-.515H.797c.297 0 .297.062.297.515h.25s-.016-.5-.016-.797c0-.25.016-.734.016-.796h-.25c0 .453 0 .53-.297.53H-.328c.031-.046.39-.359.39-.952 0-.922-.687-1.703-1.562-1.703m0 .64c.797 0 1.375.516 1.375 1.11 0 .609-.531.874-.578.906h-1.61a1.177 1.177 0 0 1-.53-.985c0-.578.609-1.03 1.343-1.03m0 0"/><path id="A" d="M0-4.11h-.25c0 .47-.047.532-.39.532h-2.422l.078 1.062h.25c0-.453.046-.515.39-.515h1.188c.61 0 1.031.39 1.031.922 0 .64-.297.656-.656.656h-2.281l.078 1.078h.25c0-.516.015-.516.64-.516h1.031c.485 0 1.126 0 1.126-1.171 0-.157 0-.657-.579-.985v-.015h.579Zm0 0"/><path id="B" d="M0-5.547h-.25v.14c0 .47-.062.516-.266.595l-4.28 1.687c-.11.047-.157.063-.157.203 0 .125.047.14.156.188l4.063 1.609c.172.063.484.188.484.813H0a11.055 11.055 0 0 1-.031-.72c0-.28.031-.796.031-.827h-.25c0 .297-.14.5-.328.5-.063 0-.078-.016-.14-.032l-.86-.343v-1.97l1.016-.405a.294.294 0 0 1 .125-.032c.187 0 .187.375.187.563H0L-.031-4.61c0-.328.031-.86.031-.938m-1.828 1.938v1.78l-2.266-.89Zm0 0"/><path id="D" d="M.422-4.75v.25h.156c.547 0 .563.078.563.313v3.625c0 .234-.016.312-.563.312H.422V0h2.937c.985 0 1.704-.61 1.704-1.266 0-.609-.61-1.125-1.454-1.218.672-.125 1.25-.547 1.25-1.078 0-.626-.734-1.188-1.703-1.188ZM1.75-2.562v-1.672c0-.203 0-.266.328-.266H3.11c.688 0 1.047.5 1.047.938 0 .484-.468 1-1.265 1ZM2.078-.25c-.328 0-.328-.062-.328-.266v-1.859h1.469a1.1 1.1 0 0 1 1.125 1.094c0 .515-.453 1.031-1.219 1.031Zm0 0"/><path id="E" d="M1.766-4.172c0-.25 0-.328.578-.328h.172v-.25c-.047 0-.813.031-1.078.031-.282 0-1.047-.031-1.079-.031v.25h.172c.578 0 .578.078.578.328v3.61c0 .234 0 .312-.578.312H.36V0c.047 0 .797-.031 1.079-.031.265 0 1.03.031 1.078.031v-.25h-.172c-.578 0-.578-.078-.578-.312Zm0 0"/><path id="F" d="M3.125-4.797c-.047-.11-.062-.156-.203-.156-.125 0-.14.047-.188.156L1.125-.734C1.063-.562.938-.25.313-.25V0c.234-.016.484-.031.718-.031.282 0 .797.031.828.031v-.25c-.296 0-.5-.14-.5-.328 0-.063.016-.078.032-.14l.343-.86h1.97l.405 1.016a.294.294 0 0 1 .032.125c0 .187-.375.187-.563.187V0c.344-.016.797-.031 1.031-.031.329 0 .86.031.938.031v-.25h-.14c-.47 0-.516-.062-.594-.266Zm-.406.703.89 2.266H1.83Zm0 0"/><path id="G" d="M1.734-2.906c-.609-.125-.796-.578-.796-.86 0-.468.421-.906 1.046-.906.938 0 1.344.625 1.454 1.36.015.109.03.14.124.14.126 0 .126-.047.126-.172v-1.36c0-.124 0-.187-.094-.187-.063 0-.078.016-.125.094l-.25.39c-.453-.468-1.031-.484-1.235-.484-.875 0-1.5.625-1.5 1.329 0 .39.172.687.422.921.282.282.516.329 1.266.485.625.14.765.172.969.375.156.156.312.375.312.687 0 .485-.406.985-1.078.985S.765-.375.719-1.422c0-.11 0-.156-.11-.156-.125 0-.125.047-.125.187v1.344c0 .125 0 .188.094.188C.641.14.656.125.703.063c.063-.094.188-.313.25-.407.438.39.969.485 1.422.485.922 0 1.516-.688 1.516-1.422 0-.625-.438-1.219-1.125-1.375Zm0 0"/><path id="I" d="M3.672-1.14v-.25h-.766v-3.094c0-.157 0-.203-.156-.203-.078 0-.11 0-.172.093L.266-1.39v.25h2.047v.579c0 .234 0 .312-.563.312h-.187V0c.343-.016.796-.031 1.046-.031s.704.015 1.047.031v-.25H3.47c-.563 0-.563-.078-.563-.312v-.579ZM2.359-3.939v2.547H.531Zm0 0"/><clipPath id="c"><path d="M216.266 145.375h15.816v6.324h-15.816Zm9.488 6.324h6.328v3.164h-6.328Zm-9.488 3.164h15.816v6.328h-15.816Zm0 0"/></clipPath><clipPath id="d"><path d="M211 140h24.387v27H211Zm0 0"/></clipPath><clipPath id="o"><path d="M0 145.375h15.816v6.324H0Zm0 6.324h6.328v3.164H0Zm0 3.164h15.816v6.328H0Zm0 0"/></clipPath></defs><path fill="none" stroke="#000" stroke-miterlimit="10" stroke-width=".79428223" d="M21.082 189.422h25.813v-72.277H21.082Zm0 0"/><path fill="none" stroke="#000" stroke-miterlimit="10" stroke-width=".39763941" d="M46.895 122.305h29.687m5.164 0h35.77m15.488 0h6.086"/><path fill="none" stroke="#000" stroke-miterlimit="10" stroke-width=".79428223" d="M76.582 114.562v15.489m5.164-15.489v15.489"/><path stroke="#000" stroke-miterlimit="10" stroke-width=".39763941" d="M113.012 122.305a1.583 1.583 0 1 0-3.166.001 1.583 1.583 0 0 0 3.166-.001Zm0 0"/><path fill="none" stroke="#000" stroke-miterlimit="10" stroke-width=".79428223" d="M131.457 118.434h-12.39c-.856 0-1.551 1.734-1.551 3.87 0 2.141.695 3.876 1.55 3.876h12.391c.856 0 1.547-1.735 1.547-3.875 0-2.137-.691-3.871-1.547-3.871"/><path fill="none" stroke="#000" stroke-miterlimit="10" stroke-width=".79428223" d="M131.457 118.434c-.855 0-1.55 1.734-1.55 3.87 0 2.141.695 3.876 1.55 3.876"/><path fill="none" stroke="#000" stroke-miterlimit="10" stroke-width=".39763941" d="M131.457 122.305h1.547M157.16 102.941v9.426h-9.035"/><path fill="none" stroke="#000" stroke-miterlimit="10" stroke-width=".79428223" d="M148.125 110.238v3.903m0 1.421v3.551m0 1.418v3.906"/><path fill="none" stroke="#000" stroke-miterlimit="10" stroke-width=".39763941" d="M148.125 117.336h9.234m-9.234 4.969h9.035v9.43"/><path fill="none" stroke="#000" stroke-miterlimit="10" stroke-width=".79428223" d="M145.957 112.168v10.336"/><path d="M153.668 117.336v2.281l-5.094-2.281 5.094-2.277Zm0 0"/><path fill="none" stroke="#000" stroke-miterlimit="10" stroke-width=".39763941" d="M145.957 122.305h-7.066M157.16 117.336v14.2"/><path stroke="#000" stroke-miterlimit="10" stroke-width=".39763941" d="M158.266 122.305a1.107 1.107 0 1 0-2.214.003 1.107 1.107 0 0 0 2.214-.003Zm0 0"/><use xlink:href="#a" x="160.665" y="120.643"/><path fill="none" stroke="#000" stroke-miterlimit="10" stroke-width=".39763941" d="M46.895 184.258h29.687m5.164 0h35.77m15.488 0h6.086"/><path fill="none" stroke="#000" stroke-miterlimit="10" stroke-width=".79428223" d="M76.582 176.516v15.488m5.164-15.488v15.488"/><path stroke="#000" stroke-miterlimit="10" stroke-width=".39763941" d="M113.012 184.258a1.583 1.583 0 1 0-3.166.002 1.583 1.583 0 0 0 3.166-.002Zm0 0"/><path fill="none" stroke="#000" stroke-miterlimit="10" stroke-width=".79428223" d="M131.457 180.387h-12.39c-.856 0-1.551 1.734-1.551 3.87 0 2.141.695 3.876 1.55 3.876h12.391c.856 0 1.547-1.735 1.547-3.875 0-2.137-.691-3.871-1.547-3.871"/><path fill="none" stroke="#000" stroke-miterlimit="10" stroke-width=".79428223" d="M131.457 180.387c-.855 0-1.55 1.734-1.55 3.87 0 2.141.695 3.876 1.55 3.876"/><path fill="none" stroke="#000" stroke-miterlimit="10" stroke-width=".39763941" d="M131.457 184.258h1.547M157.16 203.625v-9.426h-9.035"/><path fill="none" stroke="#000" stroke-miterlimit="10" stroke-width=".79428223" d="M148.125 196.328v-3.906m0-1.418v-3.55m0-1.419v-3.906"/><path fill="none" stroke="#000" stroke-miterlimit="10" stroke-width=".39763941" d="M148.125 189.227h9.234m-9.234-4.97h9.035v-9.425"/><path fill="none" stroke="#000" stroke-miterlimit="10" stroke-width=".79428223" d="M145.957 194.395v-10.336"/><path d="M153.668 189.227v-2.278l-5.094 2.278 5.094 2.28Zm0 0"/><path fill="none" stroke="#000" stroke-miterlimit="10" stroke-width=".39763941" d="M145.957 184.258h-7.066M157.16 189.227V175.03"/><path stroke="#000" stroke-miterlimit="10" stroke-width=".39763941" d="M158.266 184.258a1.108 1.108 0 1 1-2.216.003 1.108 1.108 0 0 1 2.216-.003Zm0 0"/><use xlink:href="#b" x="160.665" y="192.534"/><path fill="none" stroke="#000" stroke-miterlimit="10" stroke-width=".79428223" d="M185.188 189.422H211v-72.277h-25.812Zm0 0"/><path fill="none" stroke="#000" stroke-miterlimit="10" stroke-width=".39763941" d="M157.16 103.14v-9.222m0 0v-9.219h6.637m5.164 0h6.637v37.606h9.59"/><path fill="none" stroke="#000" stroke-miterlimit="10" stroke-width=".79428223" d="M163.797 76.957v15.488m5.164-15.488v15.488"/><path stroke="#000" stroke-miterlimit="10" stroke-width=".39763941" d="M158.742 84.7a1.583 1.583 0 1 0-3.162.002 1.583 1.583 0 0 0 3.162-.003Zm0 0"/><path fill="none" stroke="#000" stroke-miterlimit="10" stroke-width=".39763941" d="M157.16 203.426v9.219m0 0v9.218h6.637m5.164 0h6.637v-37.605h9.59"/><path fill="none" stroke="#000" stroke-miterlimit="10" stroke-width=".79428223" d="M163.797 214.121v15.488m5.164-15.488v15.488"/><path stroke="#000" stroke-miterlimit="10" stroke-width=".39763941" d="M158.742 221.863a1.583 1.583 0 1 0-3.162.002 1.583 1.583 0 0 0 3.162-.002Zm0 0"/><path fill="none" stroke="#000" stroke-miterlimit="10" stroke-width=".39763941" d="M211 153.281h4.61m0 0h4.609"/><g clip-path="url(#c)"><path fill="none" stroke="#000" stroke-miterlimit="10" stroke-width=".79428223" d="M220.219 153.281a3.954 3.954 0 0 1 3.957-3.953 3.956 3.956 0 1 1-3.957 3.953Zm0 0"/></g><g clip-path="url(#d)"><path fill="none" stroke="#000" stroke-miterlimit="10" stroke-width=".79428223" d="M222.594 153.281c0-.87.707-1.582 1.582-1.582a1.582 1.582 0 0 1 0 3.164 1.58 1.58 0 0 1-1.582-1.582Zm0 0"/></g><path fill="none" stroke="#000" stroke-miterlimit="10" stroke-width=".39763941" d="M222.594 153.281h-2.375"/><use xlink:href="#e" x="226.82" y="145.821"/><use xlink:href="#f" x="226.82" y="138.375"/><use xlink:href="#g" x="228.309" y="131.894"/><use xlink:href="#h" x="228.309" y="125.798"/><use xlink:href="#i" x="228.309" y="119.937"/><path fill="none" stroke="#000" stroke-miterlimit="10" stroke-width=".39763941" d="M157.16 131.535v21.746m0 0v21.75M157.16 153.281h-4.61m0 0h-4.609"/><path stroke="#000" stroke-miterlimit="10" stroke-width=".39763941" d="M158.742 153.281a1.583 1.583 0 1 0-3.162.002 1.583 1.583 0 0 0 3.162-.002Zm0 0"/><path fill="none" stroke="#000" stroke-miterlimit="10" stroke-width=".39763941" d="M147.941 153.281v9.89"/><path fill="none" stroke="#000" stroke-linecap="round" stroke-miterlimit="10" stroke-width=".79428223" d="M142.008 163.172h11.863"/><path fill="none" stroke="#000" stroke-miterlimit="10" stroke-width=".39763941" d="M111.43 122.305v28.398m0 5.16v28.395"/><path fill="none" stroke="#000" stroke-miterlimit="10" stroke-width=".79428223" d="M119.176 155.863h-15.488m15.488-5.16h-15.488M103.688 161.027l15.066-15.066"/><path fill="none" stroke="#000" stroke-miterlimit="10" stroke-width=".79426629" d="m116.719 143.645 4.351 4.351"/><path fill="none" stroke="#000" stroke-miterlimit="10" stroke-width=".39763941" d="M111.43 122.305v-35.77m0-20.652v-35.77"/><path fill="none" stroke="#000" stroke-linejoin="bevel" stroke-miterlimit="10" stroke-width=".79428223" d="M111.59 86.934c-2.137 0-3.871-1.204-3.871-2.684 0-1.48 1.734-2.68 3.87-2.68-2.136 0-3.87-1.199-3.87-2.68 0-1.48 1.734-2.68 3.87-2.68-2.136 0-3.87-1.202-3.87-2.683 0-1.48 1.734-2.68 3.87-2.68-2.136 0-3.87-1.199-3.87-2.68 0-1.48 1.734-2.679 3.87-2.679"/><path fill="none" stroke="#000" stroke-miterlimit="10" stroke-width=".79428223" d="M101.105 15.914h20.653v7.746h-20.653Zm0 0"/><path fill="none" stroke="#000" stroke-miterlimit="10" stroke-width=".39763941" d="M111.43 30.113v-2.992"/><path stroke="#000" stroke-miterlimit="10" stroke-width=".39763941" d="m111.43 24.055-1.754 2.965h3.511Zm0 0"/><path fill="none" stroke="#000" stroke-dasharray="2.9786380897 2.9786380897" stroke-miterlimit="10" stroke-width=".39763941" d="M105.574 86.535V65.883"/><path fill="none" stroke="#000" stroke-miterlimit="10" stroke-width=".39763941" d="M121.758 19.785h4.61m0 0h4.609M130.977 19.785v9.89"/><path fill="none" stroke="#000" stroke-linecap="round" stroke-miterlimit="10" stroke-width=".79428223" d="M125.043 29.676h11.867"/><path fill="none" stroke="#000" stroke-miterlimit="10" stroke-width=".39763941" d="M111.43 184.258v26.555m0 20.648v26.555"/><path fill="none" stroke="#000" stroke-linejoin="bevel" stroke-miterlimit="10" stroke-width=".79428223" d="M111.59 210.414c-2.137 0-3.871 1.2-3.871 2.68 0 1.48 1.734 2.68 3.87 2.68-2.136 0-3.87 1.203-3.87 2.683 0 1.48 1.734 2.68 3.87 2.68-2.136 0-3.87 1.199-3.87 2.68 0 1.48 1.734 2.68 3.87 2.68-2.136 0-3.87 1.202-3.87 2.683 0 1.48 1.734 2.68 3.87 2.68"/><path fill="none" stroke="#000" stroke-miterlimit="10" stroke-width=".79428223" d="M101.105 264.469h20.653v7.742h-20.653Zm0 0"/><path fill="none" stroke="#000" stroke-miterlimit="10" stroke-width=".39763941" d="M111.43 258.016v2.992"/><path stroke="#000" stroke-miterlimit="10" stroke-width=".39763941" d="m111.43 264.07 1.757-2.965h-3.511Zm0 0"/><path fill="none" stroke="#000" stroke-dasharray="2.9786380897 2.9786380897" stroke-miterlimit="10" stroke-width=".39763941" d="M105.574 210.813v20.648"/><path fill="none" stroke="#000" stroke-miterlimit="10" stroke-width=".39763941" d="M121.758 268.34h4.61m0 0h4.609M130.977 268.34v9.887"/><path fill="none" stroke="#000" stroke-linecap="round" stroke-miterlimit="10" stroke-width=".79428223" d="M125.043 278.227h11.867"/><path fill="none" stroke="#000" stroke-miterlimit="10" stroke-width=".39763941" d="M157.16 84.7V62.757m0-20.653V20.164"/><path fill="none" stroke="#000" stroke-linejoin="bevel" stroke-miterlimit="10" stroke-width=".79428223" d="M157.316 63.156c-2.136 0-3.87-1.199-3.87-2.683 0-1.48 1.734-2.68 3.87-2.68-2.136 0-3.87-1.2-3.87-2.68 0-1.48 1.734-2.68 3.87-2.68-2.136 0-3.87-1.203-3.87-2.683 0-1.48 1.734-2.68 3.87-2.68-2.136 0-3.87-1.199-3.87-2.68 0-1.48 1.734-2.68 3.87-2.68"/><path fill="#FFF" stroke="#000" stroke-miterlimit="10" stroke-width=".39763941" d="M158.742 20.164a1.583 1.583 0 1 0-3.162.002 1.583 1.583 0 0 0 3.162-.002Zm0 0"/><use xlink:href="#j" x="143.711" y="15.835"/><use xlink:href="#k" x="151.436" y="15.835"/><use xlink:href="#l" x="156.4" y="15.835"/><use xlink:href="#m" x="163.013" y="15.835"/><path fill="none" stroke="#000" stroke-dasharray="2.9786380897 2.9786380897" stroke-miterlimit="10" stroke-width=".39763941" d="M151.3 62.758V42.105"/><path fill="none" stroke="#000" stroke-miterlimit="10" stroke-width=".39763941" d="M157.16 221.863v12.723m0 20.652v12.723"/><path fill="none" stroke="#000" stroke-linejoin="bevel" stroke-miterlimit="10" stroke-width=".79428223" d="M157.316 234.191c-2.136 0-3.87 1.2-3.87 2.68 0 1.48 1.734 2.68 3.87 2.68-2.136 0-3.87 1.203-3.87 2.683 0 1.48 1.734 2.68 3.87 2.68-2.136 0-3.87 1.2-3.87 2.68 0 1.48 1.734 2.68 3.87 2.68-2.136 0-3.87 1.203-3.87 2.683 0 1.48 1.734 2.68 3.87 2.68"/><path fill="#FFF" stroke="#000" stroke-miterlimit="10" stroke-width=".39763941" d="M158.742 267.961a1.583 1.583 0 1 0-3.162.002 1.583 1.583 0 0 0 3.162-.002Zm0 0"/><use xlink:href="#j" x="143.711" y="278.253"/><use xlink:href="#k" x="151.436" y="278.253"/><use xlink:href="#l" x="156.4" y="278.253"/><use xlink:href="#m" x="163.013" y="278.253"/><path fill="none" stroke="#000" stroke-dasharray="2.9786380897 2.9786380897" stroke-miterlimit="10" stroke-width=".39763941" d="M151.3 234.586v20.652"/><path fill="none" stroke="#000" stroke-miterlimit="10" stroke-width=".39763941" d="M101.105 19.785h-4.609m0 0H80.363m0 0h-23.05m0 0H37.676m-20.653 0H8.91"/><path stroke="#000" stroke-miterlimit="10" stroke-width=".39763941" d="M93.469 19.785a1.583 1.583 0 1 0-3.166.002 1.583 1.583 0 0 0 3.166-.002ZM70.418 19.785c0-.871-.707-1.582-1.582-1.582a1.582 1.582 0 0 0 0 3.164 1.58 1.58 0 0 0 1.582-1.582ZM47.371 19.785a1.583 1.583 0 1 0-3.166.002 1.583 1.583 0 0 0 3.166-.002Zm0 0"/><path fill="none" stroke="#000" stroke-miterlimit="10" stroke-width=".79428223" d="M17.023 15.914h20.653v7.746H17.023Zm0 0"/><path fill="#FFF" stroke="#000" stroke-miterlimit="10" stroke-width=".39763941" d="M10.492 19.785c0-.871-.707-1.582-1.582-1.582a1.582 1.582 0 0 0 0 3.164 1.58 1.58 0 0 0 1.582-1.582Zm0 0"/><use xlink:href="#n" x="12.421" y="11.671"/><use xlink:href="#k" x="18.386" y="11.671"/><use xlink:href="#m" x="24.82" y="11.671"/><path fill="none" stroke="#000" stroke-miterlimit="10" stroke-width=".39763941" d="M21.082 153.281h-4.61m0 0h-4.609"/><g clip-path="url(#o)"><path fill="none" stroke="#000" stroke-miterlimit="10" stroke-width=".79428223" d="M11.863 153.281a3.954 3.954 0 0 0-3.957-3.953 3.956 3.956 0 1 0 3.957 3.953Zm0 0"/></g><path fill="none" stroke="#000" stroke-miterlimit="10" stroke-width=".79428223" d="M9.488 153.281c0-.87-.707-1.582-1.582-1.582a1.582 1.582 0 0 0 0 3.164 1.58 1.58 0 0 0 1.582-1.582Zm0 0"/><path fill="none" stroke="#000" stroke-miterlimit="10" stroke-width=".39763941" d="M9.488 153.281h2.375"/><use xlink:href="#e" x="10.557" y="145.82"/><use xlink:href="#f" x="10.557" y="138.374"/><use xlink:href="#p" x="12.046" y="131.893"/><use xlink:href="#q" x="12.046" y="129.024"/><path fill="none" stroke="#000" stroke-miterlimit="10" stroke-width=".39763941" d="M91.887 19.785V268.34h9.218M68.836 19.785v29.688m0 5.164v29.687"/><path fill="none" stroke="#000" stroke-miterlimit="10" stroke-width=".79428223" d="M76.582 49.473H61.094m15.488 5.164H61.094"/><path fill="none" stroke="#000" stroke-miterlimit="10" stroke-width=".39763941" d="M68.836 84.324v9.887"/><path fill="none" stroke="#000" stroke-linecap="round" stroke-miterlimit="10" stroke-width=".79428223" d="M62.906 94.21H74.77"/><path fill="none" stroke="#000" stroke-miterlimit="10" stroke-width=".39763941" d="M45.79 19.785v5.809m0 20.652v11.617m0 20.653v5.808"/><path fill="none" stroke="#000" stroke-miterlimit="10" stroke-width=".79428223" d="M41.918 46.246V25.594h7.742v20.652ZM41.922 78.516V57.863h7.734v20.653Zm0 0"/><path fill="none" stroke="#000" stroke-miterlimit="10" stroke-width=".79428223" d="M51.313 78.516 39.16 64.059v-6.196"/><path fill="none" stroke="#000" stroke-miterlimit="10" stroke-width=".39763941" d="M45.79 84.324v9.887"/><path fill="none" stroke="#000" stroke-linecap="round" stroke-miterlimit="10" stroke-width=".79428223" d="M39.855 94.21h11.868"/><use xlink:href="#r" x="30.885" y="68.266"/><path fill="none" stroke="#000" stroke-miterlimit="10" stroke-width=".39763941" d="M33.812 78.516V75.52"/><path stroke="#000" stroke-miterlimit="10" stroke-width=".39763941" d="m33.812 72.457-1.757 2.965h3.515Zm0 0"/><path fill="none" stroke="#000" stroke-miterlimit="10" stroke-width=".39763941" d="M36.578 75.055v-2.996"/><path stroke="#000" stroke-miterlimit="10" stroke-width=".39763941" d="m36.578 78.117 1.758-2.965H34.82Zm0 0"/><use xlink:href="#s" x="29.679" y="170.303"/><use xlink:href="#t" x="29.679" y="164.966"/><use xlink:href="#u" x="29.679" y="162.721"/><use xlink:href="#v" x="29.679" y="158.335"/><use xlink:href="#w" x="29.679" y="154.381"/><use xlink:href="#u" x="29.679" y="150.426"/><use xlink:href="#v" x="29.679" y="146.041"/><use xlink:href="#x" x="29.679" y="142.086"/><use xlink:href="#y" x="29.679" y="138.938"/><use xlink:href="#w" x="41.594" y="171.133"/><use xlink:href="#u" x="41.594" y="167.179"/><use xlink:href="#z" x="41.594" y="162.793"/><use xlink:href="#w" x="41.594" y="158.408"/><use xlink:href="#x" x="41.594" y="154.453"/><use xlink:href="#x" x="41.594" y="151.305"/><use xlink:href="#A" x="41.594" y="148.157"/><use xlink:href="#u" x="41.594" y="143.771"/><use xlink:href="#v" x="41.594" y="139.386"/><use xlink:href="#B" x="193.9" y="170.907"/><use xlink:href="#A" x="193.9" y="165.264"/><use xlink:href="#x" x="193.9" y="160.878"/><use xlink:href="#v" x="193.9" y="157.73"/><use xlink:href="#w" x="193.9" y="153.775"/><use xlink:href="#u" x="193.9" y="149.821"/><use xlink:href="#v" x="193.9" y="145.435"/><use xlink:href="#x" x="193.9" y="141.481"/><use xlink:href="#y" x="193.9" y="138.332"/><use xlink:href="#w" x="205.814" y="171.133"/><use xlink:href="#u" x="205.814" y="167.179"/><use xlink:href="#z" x="205.814" y="162.793"/><use xlink:href="#w" x="205.814" y="158.408"/><use xlink:href="#x" x="205.814" y="154.453"/><use xlink:href="#x" x="205.814" y="151.305"/><use xlink:href="#A" x="205.814" y="148.157"/><use xlink:href="#u" x="205.814" y="143.771"/><use xlink:href="#v" x="205.814" y="139.386"/><use xlink:href="#C" x="62.438" y="14.792"/><use xlink:href="#D" x="69.217" y="16.281"/><use xlink:href="#E" x="74.768" y="16.281"/><use xlink:href="#F" x="77.636" y="16.281"/><use xlink:href="#G" x="83.497" y="16.281"/><use xlink:href="#H" x="105.434" y="10.533"/><use xlink:href="#I" x="112.973" y="12.022"/></svg>