<svg xmlns="http://www.w3.org/2000/svg" xmlns:xlink="http://www.w3.org/1999/xlink" width="229.11" height="173.807"><defs><path id="c" d="M7.266-.875c0-.062 0-.172-.125-.172-.11 0-.11.094-.125.156-.063.72-.407.891-.657.891-.484 0-.562-.5-.703-1.422l-.125-.797c-.187-.64-.672-.969-1.218-1.156.968-.234 1.734-.844 1.734-1.61 0-.952-1.125-1.796-2.578-1.796H.344v.312h.234c.766 0 .797.11.797.469v5.219c0 .36-.031.469-.797.469H.344V0c.36-.031 1.062-.031 1.453-.031.39 0 1.094 0 1.453.031v-.312H3c-.75 0-.781-.11-.781-.47v-2.5h1.14c.157 0 .579 0 .922.329.375.36.375.672.375 1.328s0 1.047.407 1.422c.421.36.953.422 1.25.422.78 0 .953-.813.953-1.094M5.03-4.985c0 .673-.234 1.485-1.703 1.485h-1.11v-2.578c0-.219 0-.344.22-.375.109-.016.39-.016.593-.016.89 0 2 .047 2 1.485m0 0"/><path id="d" d="M7.203 0v-.312h-.187c-.516 0-.72-.047-.938-.36L3.984-3.828l1.36-2c.218-.313.562-.625 1.437-.64v-.313l-1.093.031c-.407 0-.875 0-1.266-.031v.312c.39.016.61.235.61.453 0 .11-.016.125-.095.235L3.813-4.11l-1.28-1.907c-.016-.03-.079-.109-.079-.156 0-.125.219-.281.656-.297v-.312c-.343.031-1.078.031-1.453.031L.36-6.781v.312h.204c.53 0 .734.063.921.344l1.813 2.766L1.672-.97c-.14.203-.438.657-1.438.657V0l1.11-.031c.36 0 .906 0 1.265.031v-.312c-.453 0-.625-.266-.625-.454 0-.093.032-.125.094-.234L3.5-3.078l1.563 2.36c.015.046.046.077.046.109 0 .125-.218.297-.64.297V0c.343-.031 1.062-.031 1.437-.031Zm0 0"/><path id="e" d="M3.547-6.297c0-.375-.375-.703-.89-.703-.704 0-1.548.531-1.548 1.578v1.14H.33v.313h.78V-.75c0 .438-.109.438-.765.438V0l1.125-.031c.39 0 .86 0 1.265.031v-.312h-.218c-.735 0-.75-.11-.75-.47v-3.187H2.89v-.312H1.734v-1.14c0-.876.485-1.36.922-1.36a.69.69 0 0 1 .313.078.437.437 0 0 0-.297.406c0 .234.172.438.437.438.282 0 .438-.203.438-.438m0 0"/><path id="f" d="M4.531-3.266c0-2.671-1.14-3.343-2.015-3.343-.547 0-1.032.187-1.47.625-.405.453-.624.859-.624 1.609 0 1.234.875 2.219 1.984 2.219.594 0 1-.422 1.235-1v.312c0 2.328-1.032 2.782-1.61 2.782-.172 0-.703-.016-.969-.36.438 0 .516-.281.516-.453 0-.312-.234-.453-.453-.453-.156 0-.453.094-.453.469 0 .672.531 1.078 1.375 1.078 1.281 0 2.484-1.344 2.484-3.485m-.906-.906c0 .813-.344 1.781-1.219 1.781-.156 0-.61 0-.922-.625-.171-.375-.171-.859-.171-1.343 0-.547 0-1.016.203-1.375.265-.5.64-.625 1-.625.453 0 .78.343.953.78.11.313.156.938.156 1.407m0 0"/><path id="k" d="M4.156 0v-.312h-.312c-.89 0-.922-.11-.922-.47v-5.562c0-.25 0-.265-.235-.265-.609.64-1.484.64-1.796.64v.297c.187 0 .78 0 1.297-.25v5.14c0 .36-.032.47-.922.47H.938V0c.359-.031 1.218-.031 1.609-.031.406 0 1.265 0 1.61.031m0 0"/><path id="l" d="M1.906-.531A.524.524 0 1 0 .86-.515a.524.524 0 0 0 1.047-.016m0 0"/><path id="m" d="M6.047-4.516 5.78-6.75H.328v.313h.235c.765 0 .78.109.78.468V-.78c0 .36-.015.469-.78.469H.328V0c.344-.031 1.125-.031 1.5-.031.422 0 1.313 0 1.672.031v-.312h-.328c-.938 0-.938-.125-.938-.47v-2.437h.844c.953 0 1.063.313 1.063 1.156h.25v-2.624h-.25c0 .828-.11 1.156-1.063 1.156h-.844v-2.516c0-.328.016-.39.485-.39h1.187c1.485 0 1.735.546 1.89 1.921Zm0 0"/><path id="n" d="M2.453 0v-.312c-.656 0-.703-.047-.703-.438v-3.64l-1.39.109v.312c.656 0 .734.063.734.547V-.75c0 .438-.11.438-.766.438V0l1.094-.031c.344 0 .687.015 1.031.031m-.547-6a.534.534 0 0 0-.531-.516A.533.533 0 0 0 .844-6c0 .281.234.531.531.531A.536.536 0 0 0 1.906-6m0 0"/><path id="o" d="M2.531 0v-.312c-.672 0-.781 0-.781-.438v-6.14l-1.422.109v.312c.688 0 .766.063.766.563V-.75c0 .438-.11.438-.766.438V0l1.094-.031Zm0 0"/><path id="p" d="M3.297-1.234v-.563h-.25v.547c0 .734-.297 1.11-.672 1.11-.656 0-.656-.907-.656-1.063V-3.97H3.14v-.312H1.719V-6.11h-.25c-.016.828-.313 1.875-1.281 1.922v.218h.843v2.735c0 1.218.922 1.343 1.282 1.343.703 0 .984-.703.984-1.343m0 0"/><path id="q" d="M4.125-1.187c0-.094-.094-.11-.14-.11-.079 0-.11.063-.126.14C3.516-.14 2.625-.14 2.516-.14c-.485 0-.891-.296-1.11-.656-.312-.484-.312-1.14-.312-1.5h2.781c.219 0 .25 0 .25-.203 0-.984-.547-1.937-1.781-1.937C1.188-4.437.28-3.423.28-2.187.281-.86 1.312.108 2.453.108c1.219 0 1.672-1.093 1.672-1.296M3.469-2.5h-2.36C1.172-3.984 2-4.234 2.344-4.234c1.015 0 1.125 1.343 1.125 1.734m0 0"/><path id="r" d="M3.61-3.781c0-.313-.313-.61-.735-.61-.719 0-1.078.672-1.219 1.094V-4.39l-1.375.11v.312c.688 0 .766.063.766.563V-.75c0 .438-.11.438-.766.438V0l1.125-.031c.407 0 .86 0 1.266.031v-.312h-.219c-.734 0-.75-.11-.75-.47v-1.515c0-.984.422-1.875 1.172-1.875.078 0 .094 0 .11.016a.43.43 0 0 0-.22.39.41.41 0 0 0 .422.422.421.421 0 0 0 .422-.437m0 0"/><path id="A" d="M7.11 0v-.312h-.25c-.75 0-.782-.11-.782-.47V-6c0-.36.031-.469.781-.469h.25v-.312c-.359.031-1.093.031-1.468.031s-1.11 0-1.47-.031v.312h.25c.75 0 .782.11.782.469v2.313H2.234V-6c0-.36.016-.469.782-.469h.234v-.312c-.344.031-1.078.031-1.453.031s-1.125 0-1.469-.031v.312h.235c.765 0 .78.11.78.469v5.219c0 .36-.015.469-.78.469H.328V0c.344-.031 1.078-.031 1.453-.031s1.125 0 1.469.031v-.312h-.234c-.766 0-.782-.11-.782-.47v-2.593h2.97v2.594c0 .36-.032.469-.782.469h-.25V0c.36-.031 1.094-.031 1.469-.031s1.109 0 1.468.031m0 0"/><path id="B" d="M6.594-2.312c0-.094 0-.172-.125-.172-.11 0-.11.062-.125.156C6.266-.906 5.204-.094 4.125-.094c-.61 0-2.547-.328-2.547-3.297 0-2.953 1.938-3.296 2.547-3.296 1.078 0 1.953.906 2.156 2.359.016.125.016.156.157.156.156 0 .156-.031.156-.234V-6.75c0-.172 0-.25-.11-.25-.03 0-.078 0-.156.125l-.5.734C5.468-6.5 4.953-7 4.016-7 2.156-7 .563-5.422.563-3.39.563-1.345 2.156.218 4.015.218c1.609 0 2.578-1.375 2.578-2.531m0 0"/><path id="C" d="M7.156-3.36c0-2.03-1.5-3.64-3.312-3.64C2.078-7 .563-5.406.563-3.36.563-1.327 2.077.22 3.843.22c1.813 0 3.313-1.578 3.313-3.578M6.125-3.5c0 2.625-1.36 3.453-2.266 3.453-.953 0-2.28-.86-2.28-3.453 0-2.578 1.452-3.25 2.265-3.25.875 0 2.281.703 2.281 3.25m0 0"/><path id="D" d="M8.719 0v-.312h-.235c-.765 0-.78-.11-.78-.47V-6c0-.36.015-.469.78-.469h.235v-.312H7.047c-.266 0-.266.015-.328.187L4.547-1 2.39-6.562c-.094-.22-.125-.22-.344-.22H.359v.313h.25c.766 0 .782.11.782.469v4.953c0 .266 0 .734-1.032.734V0l1.172-.031L2.688 0v-.312c-1.016 0-1.016-.47-1.016-.735V-6.39l2.39 6.172c.063.125.11.219.204.219.109 0 .14-.078.172-.187L6.89-6.47V-.78c0 .36-.016.469-.782.469h-.234V0c.36-.031 1.047-.031 1.422-.031.39 0 1.062 0 1.422.031m0 0"/><path id="E" d="M3.578-1.266c0-.53-.297-.828-.422-.953-.328-.312-.719-.39-1.125-.469C1.47-2.796.797-2.921.797-3.5c0-.344.265-.75 1.125-.75 1.078 0 1.14.89 1.156 1.188 0 .093.11.093.11.093.14 0 .14-.047.14-.234v-1c0-.172 0-.234-.11-.234-.046 0-.077 0-.202.109a.819.819 0 0 1-.172.156c-.375-.266-.781-.266-.922-.266-1.219 0-1.594.657-1.594 1.22 0 .343.156.624.422.843.328.25.594.313 1.313.453.218.031 1.03.203 1.03.906 0 .516-.343.907-1.124.907C1.14-.11.78-.672.594-1.516c-.031-.125-.031-.171-.14-.171-.126 0-.126.062-.126.25v1.312c0 .172 0 .234.11.234C.484.11.5.094.688-.094.703-.109.703-.125.89-.312a1.48 1.48 0 0 0 1.078.421c1.14 0 1.61-.671 1.61-1.375m0 0"/><path id="F" d="M4.125-1.187c0-.094-.11-.094-.14-.094-.079 0-.11.047-.126.093C3.58-.265 2.922-.14 2.563-.14c-.532 0-1.407-.421-1.407-2.015 0-1.625.813-2.047 1.344-2.047.094 0 .719.016 1.063.375-.407.031-.47.328-.47.453 0 .266.188.453.454.453.265 0 .469-.156.469-.469 0-.671-.766-1.046-1.532-1.046-1.234 0-2.14 1.062-2.14 2.296 0 1.266.969 2.25 2.125 2.25 1.328 0 1.656-1.187 1.656-1.296m0 0"/><path id="G" d="M5.313 0v-.312c-.516 0-.766 0-.782-.297V-2.5c0-.86 0-1.156-.297-1.516-.14-.171-.468-.375-1.046-.375-.844 0-1.266.594-1.438.954v-3.454l-1.437.11v.312c.703 0 .78.063.78.563V-.75c0 .438-.109.438-.78.438V0l1.125-.031L2.547 0v-.312c-.656 0-.766 0-.766-.438v-1.828c0-1.031.703-1.594 1.328-1.594.625 0 .735.547.735 1.11V-.75c0 .438-.11.438-.766.438V0l1.125-.031Zm0 0"/><path id="H" d="M4.453-1.719h-.25c-.047.297-.11.735-.219.875-.062.078-.718.078-.937.078H1.266L2.313-1.78c1.546-1.375 2.14-1.906 2.14-2.907 0-1.125-.89-1.921-2.11-1.921C1.235-6.61.5-5.687.5-4.812c0 .562.484.562.516.562a.516.516 0 0 0 .515-.531c0-.266-.172-.516-.515-.516-.079 0-.11 0-.125.016.218-.657.75-1.016 1.328-1.016.906 0 1.328.797 1.328 1.61 0 .796-.485 1.578-1.031 2.203L.609-.36C.5-.266.5-.234.5 0h3.672Zm0 0"/><path id="s" d="M2.922-1.64v.859c0 .36-.031.469-.766.469h-.203V0c.406-.031.922-.031 1.344-.031.406 0 .937 0 1.344.031v-.312h-.203c-.735 0-.75-.11-.75-.47v-.859h.984v-.296h-.984v-4.516c0-.203 0-.266-.172-.266-.079 0-.11 0-.188.125L.281-1.937v.296Zm.047-.298H.563L2.969-5.64Zm0 0"/><path id="t" d="M2.875-3.5c.813-.266 1.39-.953 1.39-1.734 0-.813-.874-1.375-1.827-1.375-1 0-1.75.593-1.75 1.343 0 .329.218.516.5.516.312 0 .515-.203.515-.5 0-.5-.469-.5-.625-.5.313-.484.969-.61 1.328-.61.406 0 .953.22.953 1.11 0 .125-.03.703-.28 1.125-.298.484-.642.516-.892.516a3.306 3.306 0 0 1-.374.03c-.094.017-.157.032-.157.126 0 .11.063.11.235.11h.437c.813 0 1.188.671 1.188 1.64 0 1.36-.688 1.64-1.125 1.64-.422 0-1.172-.171-1.516-.75.344.047.656-.171.656-.546 0-.36-.265-.563-.562-.563-.235 0-.547.14-.547.578 0 .907.922 1.563 2 1.563 1.203 0 2.11-.906 2.11-1.922 0-.813-.626-1.578-1.657-1.797m0 0"/><path id="u" d="M1.313-3.25v-.25c0-2.5 1.234-2.86 1.734-2.86.234 0 .656.063.875.391-.156 0-.547 0-.547.453 0 .313.234.454.453.454.156 0 .453-.094.453-.47 0-.593-.437-1.077-1.25-1.077-1.281 0-2.61 1.28-2.61 3.468C.422-.484 1.564.22 2.485.22c1.11 0 2.047-.938 2.047-2.25 0-1.25-.875-2.203-1.984-2.203-.672 0-1.031.5-1.235.984M2.484-.062c-.625 0-.921-.594-.968-.735-.188-.469-.188-1.265-.188-1.453 0-.766.313-1.766 1.219-1.766.156 0 .61 0 .922.625.172.36.172.875.172 1.36 0 .469 0 .969-.172 1.328-.297.594-.75.64-.985.64m0 0"/><path id="w" d="M4.563-3.172c0-.797-.047-1.594-.391-2.328-.469-.953-1.281-1.11-1.688-1.11-.593 0-1.328.266-1.734 1.188-.312.672-.36 1.453-.36 2.25 0 .735.032 1.64.438 2.39.438.798 1.156 1 1.64 1C3 .219 3.767.017 4.204-.936c.313-.688.36-1.454.36-2.235M2.469 0c-.39 0-.969-.25-1.156-1.203-.11-.594-.11-1.5-.11-2.094 0-.625 0-1.281.094-1.828.187-1.172.922-1.266 1.172-1.266.328 0 .984.172 1.172 1.157.093.562.093 1.312.093 1.937 0 .75 0 1.422-.109 2.063C3.485-.297 2.922 0 2.469 0m0 0"/><path id="x" d="M2.39-6.562c-.093-.22-.124-.22-.343-.22H.359v.313h.25c.766 0 .782.11.782.469v4.953c0 .266 0 .734-1.032.734V0c.36-.016.844-.031 1.172-.031.328 0 .813.015 1.157.031v-.312c-1.016 0-1.016-.47-1.016-.735V-6.39l2.39 6.172c.063.125.11.219.204.219.109 0 .14-.078.172-.187L6.89-6.47V-.78c0 .36-.016.469-.782.469h-.234V0c.36-.031 1.047-.031 1.422-.031.39 0 1.062 0 1.422.031v-.312h-.235c-.765 0-.78-.11-.78-.47V-6c0-.36.015-.469.78-.469h.235v-.312H7.047c-.266 0-.266.015-.328.187L4.547-1Zm0 0"/><path id="y" d="M6.078-6c0-.36.031-.469.781-.469h.25v-.312c-.359.031-1.093.031-1.468.031s-1.11 0-1.47-.031v.312h.25c.75 0 .782.11.782.469v2.313H2.234V-6c0-.36.016-.469.782-.469h.234v-.312c-.344.031-1.078.031-1.453.031s-1.125 0-1.469-.031v.312h.235c.765 0 .78.11.78.469v5.219c0 .36-.015.469-.78.469H.328V0c.344-.031 1.078-.031 1.453-.031s1.125 0 1.469.031v-.312h-.234c-.766 0-.782-.11-.782-.47v-2.593h2.97v2.594c0 .36-.032.469-.782.469h-.25V0c.36-.031 1.094-.031 1.469-.031s1.109 0 1.468.031v-.312h-.25c-.75 0-.78-.11-.78-.47Zm0 0"/><path id="z" d="M3.875-3.984c.078-.11.078-.125.078-.157 0-.14-.078-.14-.25-.14H.531l-.11 1.61h.25C.72-3.689.907-4.064 2-4.064h1.14L.36-.312C.28-.202.28-.186.28-.14.281 0 .344 0 .531 0h3.282l.171-1.86h-.25C3.641-.686 3.438-.25 2.281-.25H1.11Zm0 0"/><path id="I" d="M1.266-.766 2.313-1.78c1.546-1.375 2.14-1.906 2.14-2.907 0-1.125-.89-1.921-2.11-1.921C1.235-6.61.5-5.687.5-4.812c0 .562.484.562.516.562a.516.516 0 0 0 .515-.531c0-.266-.172-.516-.515-.516-.079 0-.11 0-.125.016.218-.657.75-1.016 1.328-1.016.906 0 1.328.797 1.328 1.61 0 .796-.485 1.578-1.031 2.203L.609-.36C.5-.266.5-.234.5 0h3.672l.281-1.719h-.25c-.047.297-.11.735-.219.875-.062.078-.718.078-.937.078Zm0 0"/><path id="J" d="M1.625-4.531c-.469-.297-.5-.64-.5-.813 0-.593.64-1.015 1.344-1.015.719 0 1.36.515 1.36 1.234 0 .563-.392 1.031-.985 1.39Zm1.438.937c.718-.36 1.203-.875 1.203-1.531 0-.922-.875-1.484-1.782-1.484-1 0-1.796.734-1.796 1.656 0 .187.015.625.437 1.094.11.125.469.359.719.53C1.266-3.03.422-2.483.422-1.5c0 1.047 1 1.719 2.047 1.719 1.125 0 2.062-.828 2.062-1.89 0-.36-.11-.798-.484-1.22-.188-.203-.344-.296-.984-.703m-.985.422 1.219.766c.281.187.734.484.734 1.094 0 .734-.734 1.25-1.547 1.25C1.625-.062.906-.672.906-1.5c0-.578.328-1.203 1.172-1.672m0 0"/><path id="v" d="M.828-2.297h4.313a.24.24 0 0 0 .234-.234.24.24 0 0 0-.234-.235H.828a.24.24 0 0 0-.234.235c0 .125.11.234.234.234m0 0"/><path id="K" d="M3.64-3.969h.86c.188 0 .297 0 .297-.203 0-.11-.11-.11-.266-.11h-.828l.203-1.124c.047-.203.188-.907.235-1.032.093-.187.265-.343.468-.343.047 0 .297 0 .485.187a.531.531 0 0 0-.532.532c0 .234.188.343.375.343.25 0 .547-.218.547-.593 0-.454-.468-.688-.875-.688-.328 0-.953.188-1.25 1.172-.062.203-.093.297-.328 1.547h-.687c-.188 0-.297 0-.297.187 0 .125.094.125.281.125h.64L2.235-.047c-.187.953-.343 1.86-.859 1.86-.047 0-.297 0-.484-.172a.547.547 0 0 0 .547-.547c0-.219-.172-.344-.36-.344-.266 0-.547.219-.547.594 0 .453.438.687.844.687.547 0 .938-.578 1.11-.953.328-.625.546-1.828.562-1.906Zm0 0"/><path id="L" d="M5.61-2.344A2.56 2.56 0 0 0 3.046-4.89 2.56 2.56 0 0 0 .484-2.344C.484-.984 1.625.141 3.047.141c1.422 0 2.562-1.125 2.562-2.485M3.046-.094c-.813 0-1.813-.656-1.813-2.375 0-1.61 1.016-2.203 1.813-2.203.797 0 1.812.594 1.812 2.203 0 1.719-1 2.375-1.812 2.375m0 0"/><path id="M" d="M1.734-2.906c-.609-.125-.796-.578-.796-.86 0-.468.421-.906 1.046-.906.938 0 1.344.625 1.454 1.36.015.109.03.14.124.14.126 0 .126-.047.126-.172v-1.36c0-.124 0-.187-.094-.187-.063 0-.078.016-.125.094l-.25.39c-.453-.468-1.031-.484-1.235-.484-.875 0-1.5.625-1.5 1.329 0 .39.172.687.422.921.282.282.516.329 1.266.485.625.14.765.172.969.375.156.156.312.375.312.687 0 .485-.406.985-1.078.985S.765-.375.719-1.422c0-.11 0-.156-.11-.156-.125 0-.125.047-.125.187v1.344c0 .125 0 .188.094.188C.641.14.656.125.703.063c.063-.094.188-.313.25-.407.438.39.969.485 1.422.485.922 0 1.516-.688 1.516-1.422 0-.625-.438-1.219-1.125-1.375Zm0 0"/><path id="N" d="M4.266-4.469c.046-.078.046-.11.046-.14 0-.141-.062-.141-.187-.141H.672L.594-3.156h.234C.891-4.187 1.391-4.5 2.313-4.5H3.53L.547-.297C.484-.219.484-.203.484-.14.484 0 .547 0 .688 0h3.546l.125-1.89h-.234C4.063-.97 3.938-.282 2.578-.282H1.281Zm0 0"/><clipPath id="a"><path d="M8 .238h2V52H8Zm0 0"/></clipPath><clipPath id="b"><path d="M0 .238h29V29H0Zm0 0"/></clipPath><clipPath id="g"><path d="M66 162h1v11.375h-1Zm0 0"/></clipPath><clipPath id="h"><path d="M60 172h13v1.375H60Zm0 0"/></clipPath><clipPath id="i"><path d="M96 162h1v11.375h-1Zm0 0"/></clipPath><clipPath id="j"><path d="M90 172h13v1.375H90Zm0 0"/></clipPath></defs><path fill="none" stroke="#000" stroke-miterlimit="10" stroke-width=".39745587" d="M9.328 51.5h6.055m0 0h6.054"/><g clip-path="url(#a)"><path fill="none" stroke="#000" stroke-miterlimit="10" stroke-width=".39745587" d="M9.129 51.5V.637"/></g><g clip-path="url(#b)"><path fill="none" stroke="#000" stroke-miterlimit="10" stroke-width=".79391561" d="M9.129.637h8.476L9.13 17.59.652.637H9.13"/></g><path d="M17.238 51.5v1.977l4.2-1.977-4.2-1.977Zm0 0"/><path fill="none" stroke="#000" stroke-miterlimit="10" stroke-width=".79391561" d="M21.437 39.633h23.739V63.37H21.437Zm0 0"/><path fill="none" stroke="#000" stroke-miterlimit="10" stroke-width=".39745587" d="M27.371 45.566c.969-1.52 1.895-2.964 2.969-2.964 1.074 0 2 1.445 2.965 2.964.968 1.52 1.894 2.97 2.968 2.97 1.075 0 2-1.45 2.965-2.97m-4.152-1.78-3.559 3.562M27.371 51.5c.969-1.52 1.895-2.965 2.969-2.965 1.074 0 2 1.445 2.965 2.965.968 1.52 1.894 2.969 2.968 2.969 1.075 0 2-1.45 2.965-2.969M27.371 57.434c.969-1.516 1.895-2.965 2.969-2.965 1.074 0 2 1.449 2.965 2.965.968 1.52 1.894 2.968 2.968 2.968 1.075 0 2-1.449 2.965-2.968m-4.152-1.778-3.559 3.559M45.176 51.5h24.46m23.739 0h24.465"/><path fill="none" stroke="#000" stroke-miterlimit="10" stroke-width=".79391561" d="M69.637 39.633h23.738V63.37H69.637Zm0 0"/><path d="M65.438 51.5v1.977l4.199-1.977-4.2-1.977Zm0 0"/><path fill="none" stroke="#000" stroke-miterlimit="10" stroke-width=".39745587" d="M73.2 42.363 89.811 51.5 73.2 60.64Zm0 0"/><path fill="none" stroke="#000" stroke-miterlimit="10" stroke-width=".79391561" d="M117.84 39.633h23.734V63.37H117.84Zm0 0"/><path fill="none" stroke="#000" stroke-miterlimit="10" stroke-width=".39745587" d="M138.016 51.5a8.31 8.31 0 1 0-16.62.002 8.31 8.31 0 0 0 16.62-.002ZM123.832 45.625l11.75 11.75m0-11.75-11.75 11.75M141.574 51.5h24.465m23.738 0h24.461"/><path fill="none" stroke="#000" stroke-miterlimit="10" stroke-width=".79391561" d="M166.039 39.633h23.738V63.37H166.04Zm0 0"/><path d="M161.84 51.5v1.977l4.2-1.977-4.2-1.977Zm0 0"/><path fill="none" stroke="#000" stroke-miterlimit="10" stroke-width=".39745587" d="M171.973 45.566c.968-1.52 1.894-2.964 2.968-2.964 1.075 0 2 1.445 2.965 2.964.969 1.52 1.895 2.97 2.969 2.97 1.074 0 2-1.45 2.969-2.97m-4.157-1.78-3.558 3.562M171.973 51.5c.968-1.52 1.894-2.965 2.968-2.965 1.075 0 2 1.445 2.965 2.965.969 1.52 1.895 2.969 2.969 2.969 1.074 0 2-1.45 2.969-2.969M171.973 57.434c.968-1.516 1.894-2.965 2.968-2.965 1.075 0 2 1.449 2.965 2.965.969 1.52 1.895 2.968 2.969 2.968 1.074 0 2-1.449 2.969-2.968m-4.157-1.778-3.558 3.559"/><path fill="#FFF" stroke="#000" stroke-miterlimit="10" stroke-width=".39745587" d="M215.82 51.5a1.58 1.58 0 1 0-3.159.003 1.58 1.58 0 0 0 3.16-.003Zm0 0"/><use xlink:href="#c" x="206.863" y="47.776"/><use xlink:href="#d" x="214.168" y="47.776"/><path fill="none" stroke="#000" stroke-miterlimit="10" stroke-width=".39745587" d="M129.707 63.371v12.11m0 0V87.59"/><path d="M129.707 67.57h1.977l-1.977-4.199-1.977 4.2Zm0 0"/><path fill="none" stroke="#000" stroke-miterlimit="10" stroke-width=".79391561" d="M117.84 87.59h23.734v23.738H117.84Zm0 0"/><path fill="none" stroke="#000" stroke-miterlimit="10" stroke-width=".39745587" d="m117.84 111.328 23.734-23.738"/><use xlink:href="#e" x="122.846" y="97.617"/><use xlink:href="#f" x="131.047" y="108.189"/><use xlink:href="#e" x="136.009" y="108.189"/><path fill="none" stroke="#000" stroke-miterlimit="10" stroke-width=".79391561" d="M69.637 87.59h23.738v23.738H69.637Zm0 0"/><path fill="none" stroke="#000" stroke-miterlimit="10" stroke-width=".39745587" d="M75.574 93.523c.965-1.515 1.89-2.964 2.965-2.964 1.074 0 2 1.449 2.969 2.964.965 1.52 1.89 2.97 2.965 2.97 1.074 0 2-1.45 2.968-2.97M75.574 99.46c.965-1.519 1.89-2.968 2.965-2.968 1.074 0 2 1.45 2.969 2.969.965 1.516 1.89 2.965 2.965 2.965 1.074 0 2-1.45 2.968-2.965M75.574 105.395c.965-1.52 1.89-2.97 2.965-2.97 1.074 0 2 1.45 2.969 2.97.965 1.519 1.89 2.964 2.965 2.964 1.074 0 2-1.445 2.968-2.964M117.84 99.46h-12.235m0 0h-12.23"/><path d="M113.637 99.46v1.978l4.203-1.977-4.203-1.977Zm0 0"/><path fill="none" stroke="#000" stroke-miterlimit="10" stroke-width=".39745587" d="M90.402 144.93v-9.243m-17.789 9.243v-9.243m8.895-24.359v9.242"/><path fill="#FFF" stroke="#000" stroke-miterlimit="10" stroke-width=".39745587" d="M90.402 137.27a1.58 1.58 0 1 0-.003-3.16 1.58 1.58 0 0 0 .003 3.16ZM72.613 137.27a1.58 1.58 0 1 0-.003-3.16 1.58 1.58 0 0 0 .003 3.16ZM81.508 122.148a1.58 1.58 0 1 0-.003-3.161 1.58 1.58 0 0 0 .003 3.161Zm0 0"/><path fill="none" stroke="#000" stroke-miterlimit="10" stroke-width=".79391561" d="m81.508 122.148 6.867 13.098"/><path fill="none" stroke="#000" stroke-miterlimit="10" stroke-width=".39745587" d="m72.613 144.93-3.027 3.027m0 0-3.031 3.027v2.102m0 7.906v2.106"/><path fill="none" stroke="#000" stroke-miterlimit="10" stroke-width=".79391561" d="M73.477 153.086h-13.84m13.84 7.906h-13.84M60.035 159.414v-4.746h13.043v4.746Zm0 0"/><g clip-path="url(#g)"><path fill="none" stroke="#000" stroke-miterlimit="10" stroke-width=".39745587" d="M66.555 163.098v9.882"/></g><g clip-path="url(#h)"><path fill="none" stroke="#000" stroke-linecap="round" stroke-miterlimit="10" stroke-width=".79391561" d="M60.625 172.98h11.863"/></g><path fill="none" stroke="#000" stroke-miterlimit="10" stroke-width=".39745587" d="m90.402 144.93 3.028 3.027m0 0 3.027 3.027v2.102m0 7.906v2.106"/><path fill="none" stroke="#000" stroke-miterlimit="10" stroke-width=".79391561" d="M103.375 153.086H89.539m13.836 7.906H89.539M89.934 159.414v-4.746h13.046v4.746Zm0 0"/><g clip-path="url(#i)"><path fill="none" stroke="#000" stroke-miterlimit="10" stroke-width=".39745587" d="M96.457 163.098v9.882"/></g><g clip-path="url(#j)"><path fill="none" stroke="#000" stroke-linecap="round" stroke-miterlimit="10" stroke-width=".79391561" d="M90.527 172.98h11.86"/></g><use xlink:href="#k" x="16.54" y="36.017"/><use xlink:href="#l" x="21.502" y="36.017"/><use xlink:href="#m" x="25.908" y="36.017"/><use xlink:href="#n" x="32.389" y="36.017"/><use xlink:href="#o" x="35.147" y="36.017"/><use xlink:href="#p" x="37.906" y="36.017"/><use xlink:href="#q" x="41.767" y="36.017"/><use xlink:href="#r" x="46.173" y="36.017"/><use xlink:href="#s" x="3.308" y="73.657"/><use xlink:href="#t" x="8.27" y="73.657"/><use xlink:href="#u" x="13.232" y="73.657"/><use xlink:href="#v" x="19.848" y="73.657"/><use xlink:href="#s" x="25.812" y="73.657"/><use xlink:href="#s" x="30.774" y="73.657"/><use xlink:href="#w" x="35.736" y="73.657"/><use xlink:href="#x" x="42.345" y="73.657"/><use xlink:href="#y" x="51.443" y="73.657"/><use xlink:href="#z" x="58.886" y="73.657"/><use xlink:href="#A" x="74.543" y="36.127"/><use xlink:href="#m" x="81.986" y="36.127"/><use xlink:href="#B" x="51.245" y="102.848"/><use xlink:href="#C" x="58.41" y="102.848"/><use xlink:href="#D" x="112.85" y="36.017"/><use xlink:href="#n" x="121.95" y="36.017"/><use xlink:href="#E" x="124.709" y="36.017"/><use xlink:href="#F" x="128.619" y="36.017"/><use xlink:href="#G" x="132.747" y="36.017"/><use xlink:href="#q" x="138.265" y="36.017"/><use xlink:href="#r" x="142.672" y="36.017"/><use xlink:href="#H" x="161.14" y="36.017"/><use xlink:href="#l" x="166.102" y="36.017"/><use xlink:href="#m" x="170.508" y="36.017"/><use xlink:href="#n" x="176.989" y="36.017"/><use xlink:href="#o" x="179.748" y="36.017"/><use xlink:href="#p" x="182.507" y="36.017"/><use xlink:href="#q" x="186.367" y="36.017"/><use xlink:href="#r" x="190.773" y="36.017"/><use xlink:href="#I" x="152.87" y="73.657"/><use xlink:href="#J" x="157.832" y="73.657"/><use xlink:href="#v" x="164.448" y="73.657"/><use xlink:href="#t" x="170.411" y="73.657"/><use xlink:href="#w" x="175.373" y="73.657"/><use xlink:href="#x" x="181.983" y="73.657"/><use xlink:href="#y" x="191.08" y="73.657"/><use xlink:href="#z" x="198.523" y="73.657"/><use xlink:href="#K" x="105.558" y="77.961"/><use xlink:href="#L" x="110.417" y="79.449"/><use xlink:href="#M" x="116.509" y="79.449"/><use xlink:href="#N" x="120.893" y="79.449"/></svg>