<svg xmlns="http://www.w3.org/2000/svg" xmlns:xlink="http://www.w3.org/1999/xlink" width="228.063" height="113.783"><defs><path id="f" d="M5.563-2.656h-.25c-.079 1.39-.266 2.312-2.11 2.312H1.578l3.844-6.078c.078-.11.078-.125.078-.203 0-.156-.062-.156-.266-.156H.797l-.11 2.234h.25c.063-1.125.36-1.922 1.985-1.922h1.562L.625-.359C.563-.266.563-.25.563-.172.563 0 .609 0 .813 0H5.39Zm0 0"/><path id="g" d="M4.125-1.187c0-.094-.094-.11-.14-.11-.079 0-.11.063-.126.14C3.516-.14 2.625-.14 2.516-.14c-.485 0-.891-.296-1.11-.656-.312-.484-.312-1.14-.312-1.5h2.781c.219 0 .25 0 .25-.203 0-.984-.547-1.937-1.781-1.937C1.188-4.437.28-3.423.28-2.187.281-.86 1.312.108 2.453.108c1.219 0 1.672-1.093 1.672-1.296M3.469-2.5h-2.36C1.172-3.984 2-4.234 2.344-4.234c1.015 0 1.125 1.343 1.125 1.734m0 0"/><path id="h" d="M2.453 0v-.312c-.656 0-.703-.047-.703-.438v-3.64l-1.39.109v.312c.656 0 .734.063.734.547V-.75c0 .438-.11.438-.766.438V0l1.094-.031c.344 0 .687.015 1.031.031m-.547-6a.534.534 0 0 0-.531-.516A.533.533 0 0 0 .844-6c0 .281.234.531.531.531A.536.536 0 0 0 1.906-6m0 0"/><path id="i" d="M3.297-1.234v-.563h-.25v.547c0 .734-.297 1.11-.672 1.11-.656 0-.656-.907-.656-1.063V-3.97H3.14v-.312H1.719V-6.11h-.25c-.016.828-.313 1.875-1.281 1.922v.218h.843v2.735c0 1.218.922 1.343 1.282 1.343.703 0 .984-.703.984-1.343m0 0"/><path id="j" d="M10.016-6.469v-.312c-.297.031-.61.031-.907.031l-1.187-.031v.312c.672.016.875.344.875.532 0 .046-.031.14-.063.187L7.25-1.156l-1.578-4.86a.555.555 0 0 1-.031-.156c0-.297.578-.297.828-.297v-.312c-.36.031-1.032.031-1.407.031l-1.218-.031v.312c.578 0 .781 0 .906.36l.203.687-1.375 4.266-1.594-4.89c-.015-.032-.015-.095-.015-.126 0-.297.578-.297.828-.297v-.312c-.36.031-1.031.031-1.406.031L.17-6.781v.312c.75 0 .798.047.907.422L3.063.031c.03.094.062.188.187.188.14 0 .156-.063.203-.203l1.64-5.032L6.735.031c.032.094.063.188.188.188.14 0 .156-.063.203-.203l1.89-5.813c.188-.578.61-.672 1-.672m0 0"/><path id="k" d="M3.61-3.781c0-.313-.313-.61-.735-.61-.719 0-1.078.672-1.219 1.094V-4.39l-1.375.11v.312c.688 0 .766.063.766.563V-.75c0 .438-.11.438-.766.438V0l1.125-.031c.407 0 .86 0 1.266.031v-.312h-.219c-.734 0-.75-.11-.75-.47v-1.515c0-.984.422-1.875 1.172-1.875.078 0 .094 0 .11.016a.43.43 0 0 0-.22.39.41.41 0 0 0 .422.422.421.421 0 0 0 .422-.437m0 0"/><clipPath id="a"><path d="M41 .125h151v113.316H41Zm0 0"/></clipPath><clipPath id="b"><path d="M214 54h13.129v16H214Zm0 0"/></clipPath><clipPath id="c"><path d="M31 3h2v110.441h-2Zm0 0"/></clipPath><clipPath id="d"><path d="M30 .125h4V4h-4Zm0 0"/></clipPath><clipPath id="e"><path d="M24 .125h16V10H24Zm0 0"/></clipPath></defs><g clip-path="url(#a)"><path fill="none" stroke="#BFBFBF" stroke-miterlimit="10" stroke-width=".19818609" d="M42.09 113.242V.324m9.976 112.918V.324m9.973 112.918V.324m9.977 112.918V.324m9.976 112.918V.324m9.973 112.918V.324m9.976 112.918V.324m9.973 112.918V.324m9.977 112.918V.324m9.972 112.918V.324m9.977 112.918V.324m9.972 112.918V.324m9.977 112.918V.324m9.973 112.918V.324m9.976 112.918V.324m9.973 112.918V.324"/></g><path fill="none" stroke="#7F7F7F" stroke-miterlimit="10" stroke-width=".19818609" d="M42.09 64.363V60.13m9.976 4.234V60.13m9.973 4.234V60.13m9.977 4.234V60.13m9.976 4.234V60.13m9.973 4.234V60.13m9.976 4.234V60.13m9.973 4.234V60.13m9.977 4.234V60.13m9.972 4.234V60.13m9.977 4.234V60.13m9.972 4.234V60.13m9.977 4.234V60.13m9.973 4.234V60.13m9.976 4.234V60.13m9.973 4.234V60.13"/><path fill="none" stroke="#000" stroke-miterlimit="10" stroke-width=".39736809" d="M.2 62.246h219.972"/><path d="m223.234 62.246-2.964-1.754v3.512Zm0 0"/><g clip-path="url(#b)"><path fill="none" stroke="#000" stroke-miterlimit="10" stroke-width=".39736809" d="m223.234 62.246-2.964-1.754v3.512Zm0 0"/></g><g clip-path="url(#c)"><path fill="none" stroke="#000" stroke-miterlimit="10" stroke-width=".39736809" d="M32.117 113.242V3.782"/></g><g clip-path="url(#d)"><path d="m32.117.719-1.758 2.96h3.516Zm0 0"/></g><g clip-path="url(#e)"><path fill="none" stroke="#000" stroke-miterlimit="10" stroke-width=".39736809" d="m32.117.719-1.758 2.96h3.516Zm0 0"/></g><path fill="none" stroke="#000" stroke-miterlimit="10" stroke-width=".39736809" d="M34.102 62.246a1.985 1.985 0 1 0-3.97 0 1.985 1.985 0 0 0 3.97 0ZM44.074 48.309a1.985 1.985 0 1 0-3.968 0 1.985 1.985 0 0 0 3.968 0ZM54.05 36.488a1.985 1.985 0 1 0-3.969 0 1.985 1.985 0 0 0 3.97 0ZM64.027 28.594a1.986 1.986 0 1 0-1.988 1.984c1.098 0 1.988-.89 1.988-1.984ZM74 25.82a1.982 1.982 0 0 0-1.984-1.984A1.985 1.985 0 1 0 74 25.82ZM83.977 28.594a1.985 1.985 0 1 0-3.97 0 1.985 1.985 0 0 0 3.97 0ZM93.95 36.488a1.985 1.985 0 1 0-3.97 0 1.985 1.985 0 0 0 3.97 0ZM103.926 48.309a1.985 1.985 0 1 0-3.97 0 1.985 1.985 0 0 0 3.97 0ZM113.898 62.246a1.985 1.985 0 1 0-3.969 0 1.985 1.985 0 0 0 3.97 0ZM123.875 76.188a1.985 1.985 0 1 0-3.97 0 1.985 1.985 0 0 0 3.97 0ZM133.848 88.004a1.985 1.985 0 1 0-3.97 0 1.985 1.985 0 0 0 3.97 0ZM143.824 95.902a1.985 1.985 0 1 0-3.97.001 1.985 1.985 0 0 0 3.97 0ZM153.797 98.672a1.985 1.985 0 1 0-3.97 0 1.985 1.985 0 0 0 3.97 0ZM163.773 95.902a1.985 1.985 0 1 0-3.969.001 1.985 1.985 0 0 0 3.97 0ZM173.746 88.004a1.985 1.985 0 1 0-3.97 0 1.985 1.985 0 0 0 3.97 0ZM183.723 76.188a1.985 1.985 0 1 0-3.97 0 1.985 1.985 0 0 0 3.97 0ZM193.695 62.246a1.985 1.985 0 1 0-3.97 0 1.985 1.985 0 0 0 3.97 0Zm0 0"/><use xlink:href="#f" x="203.037" y="72.529"/><use xlink:href="#g" x="209.099" y="72.529"/><use xlink:href="#h" x="213.504" y="72.529"/><use xlink:href="#i" x="216.263" y="72.529"/><use xlink:href="#j" x="7.081" y="10.606"/><use xlink:href="#g" x="16.457" y="10.606"/><use xlink:href="#k" x="20.862" y="10.606"/><use xlink:href="#i" x="24.752" y="10.606"/></svg>