<svg xmlns="http://www.w3.org/2000/svg" xmlns:xlink="http://www.w3.org/1999/xlink" width="228.063" height="113.783"><defs><path id="e" d="M5.563-2.656h-.25c-.079 1.39-.266 2.312-2.11 2.312H1.578l3.844-6.078c.078-.11.078-.125.078-.203 0-.156-.062-.156-.266-.156H.797l-.11 2.234h.25c.063-1.125.36-1.922 1.985-1.922h1.562L.625-.359C.563-.266.563-.25.563-.172.563 0 .609 0 .813 0H5.39Zm0 0"/><path id="f" d="M4.125-1.187c0-.094-.094-.11-.14-.11-.079 0-.11.063-.126.14C3.516-.14 2.625-.14 2.516-.14c-.485 0-.891-.296-1.11-.656-.312-.484-.312-1.14-.312-1.5h2.781c.219 0 .25 0 .25-.203 0-.984-.547-1.937-1.781-1.937C1.188-4.437.28-3.423.28-2.187.281-.86 1.312.108 2.453.108c1.219 0 1.672-1.093 1.672-1.296M3.469-2.5h-2.36C1.172-3.984 2-4.234 2.344-4.234c1.015 0 1.125 1.343 1.125 1.734m0 0"/><path id="g" d="M2.453 0v-.312c-.656 0-.703-.047-.703-.438v-3.64l-1.39.109v.312c.656 0 .734.063.734.547V-.75c0 .438-.11.438-.766.438V0l1.094-.031c.344 0 .687.015 1.031.031m-.547-6a.534.534 0 0 0-.531-.516A.533.533 0 0 0 .844-6c0 .281.234.531.531.531A.536.536 0 0 0 1.906-6m0 0"/><path id="h" d="M3.297-1.234v-.563h-.25v.547c0 .734-.297 1.11-.672 1.11-.656 0-.656-.907-.656-1.063V-3.97H3.14v-.312H1.719V-6.11h-.25c-.016.828-.313 1.875-1.281 1.922v.218h.843v2.735c0 1.218.922 1.343 1.282 1.343.703 0 .984-.703.984-1.343m0 0"/><path id="i" d="M10.016-6.469v-.312c-.297.031-.61.031-.907.031l-1.187-.031v.312c.672.016.875.344.875.532 0 .046-.031.14-.063.187L7.25-1.156l-1.578-4.86a.555.555 0 0 1-.031-.156c0-.297.578-.297.828-.297v-.312c-.36.031-1.032.031-1.407.031l-1.218-.031v.312c.578 0 .781 0 .906.36l.203.687-1.375 4.266-1.594-4.89c-.015-.032-.015-.095-.015-.126 0-.297.578-.297.828-.297v-.312c-.36.031-1.031.031-1.406.031L.17-6.781v.312c.75 0 .798.047.907.422L3.063.031c.03.094.062.188.187.188.14 0 .156-.063.203-.203l1.64-5.032L6.735.031c.032.094.063.188.188.188.14 0 .156-.063.203-.203l1.89-5.813c.188-.578.61-.672 1-.672m0 0"/><path id="j" d="M3.61-3.781c0-.313-.313-.61-.735-.61-.719 0-1.078.672-1.219 1.094V-4.39l-1.375.11v.312c.688 0 .766.063.766.563V-.75c0 .438-.11.438-.766.438V0l1.125-.031c.407 0 .86 0 1.266.031v-.312h-.219c-.734 0-.75-.11-.75-.47v-1.515c0-.984.422-1.875 1.172-1.875.078 0 .094 0 .11.016a.43.43 0 0 0-.22.39.41.41 0 0 0 .422.422.421.421 0 0 0 .422-.437m0 0"/><clipPath id="a"><path d="M214 54h13.129v16H214Zm0 0"/></clipPath><clipPath id="b"><path d="M31 3h2v110.441h-2Zm0 0"/></clipPath><clipPath id="c"><path d="M30 .125h4V4h-4Zm0 0"/></clipPath><clipPath id="d"><path d="M24 .125h16V10H24Zm0 0"/></clipPath></defs><path fill="none" stroke="#7F7F7F" stroke-miterlimit="10" stroke-width=".19818609" d="M191.71 64.363V60.13"/><path fill="none" stroke="#000" stroke-miterlimit="10" stroke-width=".39736809" d="M.2 62.246h219.972"/><path d="m223.234 62.246-2.964-1.754v3.512Zm0 0"/><g clip-path="url(#a)"><path fill="none" stroke="#000" stroke-miterlimit="10" stroke-width=".39736809" d="m223.234 62.246-2.964-1.754v3.512Zm0 0"/></g><g clip-path="url(#b)"><path fill="none" stroke="#000" stroke-miterlimit="10" stroke-width=".39736809" d="M32.117 113.242V3.782"/></g><g clip-path="url(#c)"><path d="m32.117.719-1.758 2.96h3.516Zm0 0"/></g><g clip-path="url(#d)"><path fill="none" stroke="#000" stroke-miterlimit="10" stroke-width=".39736809" d="m32.117.719-1.758 2.96h3.516Zm0 0"/></g><path fill="none" stroke="#000" stroke-miterlimit="10" stroke-width=".39736809" d="m32.117 62.246.531-.762c.149-.21.387-.55.532-.761l.535-.762c.144-.211.383-.55.531-.762.149-.21.383-.55.531-.761.149-.208.383-.547.532-.758.148-.207.382-.547.53-.754.15-.211.388-.547.532-.754.149-.207.387-.543.535-.75.145-.207.383-.543.531-.75.149-.207.383-.54.532-.742l.531-.742c.148-.204.387-.532.531-.739l.535-.73c.145-.203.383-.528.532-.73.148-.2.382-.52.53-.723.15-.2.384-.52.532-.715.149-.2.387-.516.531-.715l.536-.707.53-.7c.15-.19.384-.5.532-.69.148-.192.383-.5.531-.688.149-.192.383-.492.532-.68l.53-.672c.15-.187.388-.484.536-.664.144-.183.383-.476.531-.66.149-.18.383-.469.531-.648.149-.176.383-.461.532-.637.148-.176.386-.457.531-.633l.535-.621c.145-.172.383-.445.531-.613.149-.168.383-.438.532-.602.148-.168.382-.43.53-.594.15-.164.388-.422.532-.582l.535-.574c.145-.156.383-.406.532-.558.144-.157.382-.403.53-.551.15-.153.384-.395.532-.54.148-.148.383-.386.531-.53l.532-.516c.148-.14.386-.367.535-.504a59.009 59.009 0 0 1 1.594-1.441c.148-.126.386-.329.53-.454a53.236 53.236 0 0 1 1.598-1.285c.149-.113.383-.293.532-.402l.53-.39a44.487 44.487 0 0 1 1.067-.735c.145-.098.383-.25.531-.348l.532-.332c.148-.09.383-.23.531-.316.148-.086.387-.219.531-.301a35.878 35.878 0 0 1 1.067-.563 32.237 32.237 0 0 1 1.063-.504c.148-.062.386-.163.53-.226.149-.062.387-.156.536-.215.144-.055.382-.144.53-.195.15-.055.384-.133.532-.184.148-.047.383-.12.531-.164a15.825 15.825 0 0 1 1.067-.285 21.296 21.296 0 0 1 1.062-.227l.531-.085c.149-.024.383-.055.532-.07.148-.02.386-.044.53-.06.15-.011.388-.03.536-.038.145-.008.383-.02.531-.024.149-.004.383-.008.532-.008.148 0 .382.004.53.008.15.004.388.016.532.024.149.007.387.027.535.039.145.015.383.039.532.058.148.016.382.047.53.07l.532.086a21.295 21.295 0 0 1 1.598.36c.144.039.382.105.53.152.15.043.384.117.532.164.149.051.383.13.531.184.149.05.387.14.532.195.148.059.386.153.535.215.144.063.383.164.531.227a32.24 32.24 0 0 1 1.063.503 35.888 35.888 0 0 1 1.066.562c.145.083.383.216.531.302.149.086.383.226.531.316l.532.332c.148.098.386.25.531.348.148.098.387.258.535.36.145.1.383.269.531.374l.532.39c.148.11.382.29.53.403.15.113.384.297.532.414.149.117.387.309.531.43.149.121.387.316.536.441.144.125.382.328.53.453a57.14 57.14 0 0 1 1.595 1.442c.148.137.386.363.535.504.144.14.383.37.53.515.15.145.384.383.532.532.149.144.383.386.531.539.149.148.387.394.532.55.148.153.386.403.535.56.144.16.383.413.531.573.145.16.383.418.531.582.149.164.383.426.532.594.148.164.382.434.53.602.15.168.388.441.532.613l.535.621c.145.176.383.457.532.633.148.176.382.46.53.637.15.18.384.468.532.648.148.184.387.477.531.66.149.18.387.477.535.664l.532.672c.148.188.382.488.53.68.15.187.384.496.532.687.149.192.387.5.531.692l.532.699c.148.195.386.512.535.707.144.2.383.516.531.715.149.195.383.515.531.715.149.203.383.523.532.722.148.203.386.528.53.73l.536.731c.145.207.383.535.531.739l.531.742c.149.203.383.535.532.742.148.207.386.543.531.75l.535.75.531.754c.149.207.383.547.532.754.148.21.382.55.53.758.15.21.388.55.532.761.149.211.387.551.531.762.149.21.387.55.536.762.144.21.382.55.53.761.15.211.384.551.532.762l.531.762.532.765.535.762c.144.211.382.547.53.758.15.21.384.55.532.762.149.21.383.547.531.758.149.21.387.546.532.753.148.211.386.547.535.754.144.211.383.543.531.754.149.207.383.54.531.746.149.207.383.54.532.746.148.204.386.536.53.739.15.207.388.535.532.738.149.203.387.531.535.73.145.204.383.528.531.73.149.2.383.524.532.724.148.199.383.52.531.718.148.196.387.516.531.711l.535.707c.145.196.383.508.532.7.148.195.382.503.53.695.15.191.384.496.532.683.149.192.387.493.531.68.149.192.387.488.536.676.144.183.382.48.53.664.15.184.384.477.532.656l.531.649.532.64c.148.176.386.457.53.63.15.175.388.452.536.62.144.172.383.446.531.614.149.168.383.437.531.601.149.168.383.434.532.594.148.164.386.422.531.582.148.16.387.418.535.574.145.156.383.406.531.563.149.152.383.398.532.55.148.149.382.391.53.54.15.148.388.382.532.527.149.144.387.375.535.515.145.141.383.368.532.504.148.14.382.36.53.493.15.136.384.351.532.48.148.133.387.34.531.469a47.653 47.653 0 0 0 1.598 1.324c.148.117.383.305.531.418.149.113.383.293.531.402.149.11.387.282.532.387a44.498 44.498 0 0 0 1.066.734c.149.098.383.254.531.348.149.094.383.242.532.332.148.09.386.23.53.316a37.236 37.236 0 0 0 1.067.594c.149.074.383.2.531.274.149.07.383.187.532.257l.531.243c.148.066.387.168.531.226.149.063.387.156.535.215.145.055.383.145.532.195.148.055.382.137.53.184l.532.168a26.868 26.868 0 0 0 1.066.285 21.186 21.186 0 0 0 1.594.309c.149.023.387.054.532.074.148.016.386.043.535.055.144.011.383.03.531.039.148.007.383.02.531.023.149.004.383.008.531.008.149 0 .383-.004.532-.008.148-.004.386-.016.531-.023.148-.008.387-.028.535-.04.145-.011.383-.038.531-.054a24.794 24.794 0 0 0 1.063-.16 26.215 26.215 0 0 0 1.066-.223c.145-.035.383-.098.532-.137.148-.039.382-.105.53-.148l.532-.168c.148-.047.387-.129.531-.184.149-.05.387-.14.535-.195.145-.059.383-.152.532-.215.148-.058.382-.16.53-.226.15-.067.384-.176.532-.243.149-.07.383-.187.531-.257.149-.075.387-.2.532-.274.148-.078.386-.207.535-.289l.531-.305c.149-.085.383-.226.531-.316.149-.09.383-.238.532-.332.148-.094.386-.25.53-.348.15-.097.388-.257.536-.359l.531-.375c.149-.105.383-.277.531-.387.149-.11.383-.289.532-.402.148-.113.386-.3.531-.418l.535-.426c.145-.12.383-.32.531-.445.149-.121.383-.324.532-.453a57.113 57.113 0 0 0 1.593-1.442c.149-.136.387-.363.536-.504l.53-.515c.15-.145.384-.38.532-.528.148-.148.383-.39.531-.539.149-.152.387-.398.532-.55l.535-.563.53-.574c.15-.16.384-.418.532-.582.149-.16.383-.426.531-.594a86.017 86.017 0 0 0 1.598-1.836c.149-.172.383-.453.531-.629.149-.176.383-.46.532-.64.148-.18.382-.47.53-.649.15-.18.388-.472.532-.656l.535-.664c.145-.188.383-.484.532-.676.148-.187.382-.488.53-.68.15-.187.384-.492.532-.683.148-.192.387-.5.531-.695a108.825 108.825 0 0 0 1.067-1.407c.148-.195.382-.515.53-.71.15-.2.384-.52.532-.72.149-.199.387-.523.531-.722l.536-.73.53-.731c.145-.203.384-.531.532-.738.149-.203.383-.535.531-.739.149-.207.383-.539.532-.746.148-.207.386-.539.53-.746.15-.21.388-.543.536-.754l.531-.754c.149-.207.383-.543.531-.753l.532-.758c.148-.211.386-.551.531-.762l.535-.758c.145-.21.383-.55.531-.762.149-.21.383-.55.532-.765.148-.211.53-.762.53-.762"/><use xlink:href="#e" x="203.037" y="72.529"/><use xlink:href="#f" x="209.099" y="72.529"/><use xlink:href="#g" x="213.504" y="72.529"/><use xlink:href="#h" x="216.263" y="72.529"/><use xlink:href="#i" x="7.081" y="10.606"/><use xlink:href="#f" x="16.457" y="10.606"/><use xlink:href="#j" x="20.862" y="10.606"/><use xlink:href="#h" x="24.752" y="10.606"/></svg>