<svg xmlns="http://www.w3.org/2000/svg" xmlns:xlink="http://www.w3.org/1999/xlink" width="237.803" height="113.781"><defs><path id="d" d="M2.75-1.86v-.577H.11v.578Zm0 0"/><path id="e" d="M4.469-1.734h-.25c-.063.297-.125.734-.219.89-.078.078-.734.078-.953.078H1.266L2.313-1.78c1.546-1.375 2.156-1.922 2.156-2.907 0-1.14-.907-1.937-2.11-1.937C1.234-6.625.5-5.703.5-4.812c0 .546.5.546.531.546.157 0 .516-.109.516-.53a.513.513 0 0 0-.531-.516c-.079 0-.094 0-.125.015.218-.64.765-1.016 1.328-1.016.906 0 1.344.813 1.344 1.625 0 .797-.5 1.579-1.047 2.188L.609-.375C.5-.265.5-.235.5 0h3.688Zm0 0"/><path id="f" d="M7.25-6.484v-.297c-.297.015-.703.031-.953.031l-1.14-.031v.297c.515.015.734.265.734.5 0 .078-.032.14-.063.203L4.016-1 2.109-6.016c-.046-.14-.046-.171-.046-.171 0-.297.562-.297.812-.297v-.297c-.36.031-1.047.031-1.422.031L.188-6.781v.297c.64 0 .843 0 .968.375L3.47 0c.062.188.125.219.25.219.172 0 .187-.047.234-.188l2.219-5.843c.14-.375.406-.657 1.078-.672m0 0"/><path id="g" d="M4.156 0v-.312h-.312c-.89 0-.922-.11-.922-.47v-5.577c0-.235 0-.266-.235-.266-.609.64-1.484.64-1.796.64v.313c.187 0 .78 0 1.297-.266V-.78c0 .36-.032.469-.922.469H.938V0c.359-.031 1.218-.031 1.609-.031.406 0 1.265 0 1.61.031m0 0"/><path id="i" d="M2.047-3.969h.937c.204 0 .297 0 .297-.203 0-.11-.094-.11-.281-.11h-.875c.36-1.405.406-1.609.406-1.671 0-.172-.11-.266-.281-.266-.031 0-.312 0-.406.36l-.39 1.578H.53c-.203 0-.297 0-.297.187 0 .125.078.125.266.125h.875C.672-1.156.625-.984.625-.812c0 .546.375.921.922.921 1 0 1.578-1.453 1.578-1.53 0-.095-.078-.095-.125-.095-.094 0-.094.032-.14.141C2.421-.344 1.89-.109 1.562-.109c-.22 0-.313-.125-.313-.453 0-.25.016-.313.063-.485Zm0 0"/><path id="j" d="M6.313-5.75c.093-.406.28-.703 1.078-.734.046 0 .156 0 .156-.188 0-.016 0-.11-.125-.11-.328 0-.672.032-1.016.032-.328 0-.703-.031-1.031-.031-.062 0-.172 0-.172.187 0 .11.094.11.172.11.563.015.672.218.672.437 0 .031-.016.188-.031.219l-.891 3.547C4.797-.953 3.641-.094 2.656-.094c-.672 0-1.219-.437-1.219-1.281 0-.031 0-.344.11-.781l.969-3.86c.093-.359.109-.468.828-.468.265 0 .344 0 .344-.188 0-.11-.11-.11-.141-.11-.281 0-1 .032-1.266.032-.297 0-1-.031-1.281-.031-.078 0-.187 0-.187.187 0 .11.078.11.265.11.031 0 .219 0 .375.03.188.016.281.032.281.157 0 .063-.109.469-.171.703l-.22.875c-.093.39-.562 2.266-.609 2.453-.062.282-.062.422-.062.579 0 1.203.89 1.906 1.937 1.906 1.25 0 2.485-1.125 2.813-2.438Zm0 0"/><path id="k" d="M3.125-4.797c-.047-.11-.062-.156-.203-.156-.125 0-.14.047-.188.156L1.125-.734C1.063-.562.938-.25.313-.25V0c.234-.016.484-.031.718-.031.282 0 .797.031.828.031v-.25c-.296 0-.5-.14-.5-.328 0-.063.016-.078.032-.14l.343-.86h1.97l.405 1.016a.294.294 0 0 1 .032.125c0 .187-.375.187-.563.187V0c.344-.016.797-.031 1.031-.031.329 0 .86.031.938.031v-.25h-.14c-.47 0-.516-.062-.594-.266Zm-.406.703.89 2.266H1.83Zm0 0"/><clipPath id="a"><path d="M28 21h209.477v85H28Zm0 0"/></clipPath><clipPath id="b"><path d="M228 55h9.477v16H228Zm0 0"/></clipPath><clipPath id="c"><path d="M27 3h2v110.563h-2Zm0 0"/></clipPath><clipPath id="h"><path d="M28.133 26H233v75H28.133Zm0 0"/></clipPath></defs><g clip-path="url(#a)"><path fill="none" stroke="#BFBFBF" stroke-miterlimit="10" stroke-width=".19861792" d="M28.133 104.98H237.28M28.133 84.023H237.28M28.133 42.11H237.28M28.133 21.156H237.28"/></g><path fill="none" stroke="#000" stroke-miterlimit="10" stroke-width=".79546976" d="M26.008 104.98h4.246m-4.246-20.957h4.246M26.008 42.11h4.246m-4.246-20.953h4.246"/><path fill="none" stroke="#000" stroke-miterlimit="10" stroke-width=".39823392" d="M28.133 63.066h205.683"/><path d="m236.883 63.066-2.969-1.757v3.52Zm0 0"/><g clip-path="url(#b)"><path fill="none" stroke="#000" stroke-miterlimit="10" stroke-width=".39823392" d="m236.883 63.066-2.969-1.757v3.52Zm0 0"/></g><g clip-path="url(#c)"><path fill="none" stroke="#000" stroke-miterlimit="10" stroke-width=".39823392" d="M28.133 113.363V3.664"/></g><path stroke="#000" stroke-miterlimit="10" stroke-width=".39823392" d="M28.133.598 26.37 3.563h3.52Zm0 0"/><use xlink:href="#d" x="3.445" y="108.268"/><use xlink:href="#e" x="6.756" y="108.268"/><use xlink:href="#f" x="15.039" y="108.268"/><use xlink:href="#g" x="6.755" y="87.311"/><use xlink:href="#f" x="15.038" y="87.311"/><use xlink:href="#g" x="6.755" y="45.399"/><use xlink:href="#f" x="15.038" y="45.399"/><use xlink:href="#e" x="6.755" y="24.442"/><use xlink:href="#f" x="15.038" y="24.442"/><g clip-path="url(#h)"><path fill="none" stroke="#000" stroke-miterlimit="10" stroke-width=".39823392" d="M28.133 63.07s.285-.574.398-.793c.11-.218.29-.57.399-.789.11-.222.289-.574.398-.793.113-.218.29-.57.399-.789l.402-.785c.11-.219.285-.566.398-.785.11-.215.29-.563.399-.781l.398-.778c.11-.215.29-.558.399-.773.113-.211.289-.555.398-.77.113-.21.29-.55.402-.761l.399-.758c.11-.211.289-.547.398-.754.11-.207.29-.54.399-.746.113-.207.289-.535.398-.738.113-.207.29-.532.403-.735.109-.203.285-.523.398-.722.11-.2.289-.52.398-.715.11-.2.29-.516.399-.711.113-.192.289-.504.398-.696.114-.191.29-.5.403-.687.109-.191.285-.492.398-.68.11-.187.29-.484.399-.668.109-.183.289-.476.398-.656.11-.184.289-.469.398-.648.114-.176.29-.457.403-.633.11-.172.285-.45.398-.621.11-.172.29-.442.399-.61.109-.168.289-.433.398-.597.11-.164.29-.422.398-.582.114-.16.29-.414.399-.57.113-.157.289-.403.402-.555.11-.153.285-.391.399-.54.11-.148.289-.382.398-.527.11-.144.29-.37.399-.512l.398-.496c.113-.132.29-.347.402-.48.11-.129.286-.336.399-.461.11-.129.289-.328.398-.45.11-.12.29-.312.399-.429.113-.121.289-.305.398-.418.113-.11.29-.289.402-.394.11-.11.286-.278.399-.38.11-.105.289-.265.398-.363.11-.097.29-.254.399-.343.11-.094.289-.239.398-.328.113-.086.29-.227.403-.31a14.805 14.805 0 0 1 1.195-.812c.11-.066.289-.171.398-.234a13.345 13.345 0 0 1 .801-.406c.11-.051.285-.13.399-.176.109-.047.289-.117.398-.156.11-.043.289-.102.398-.137.114-.035.29-.086.399-.117a7.527 7.527 0 0 1 .8-.172c.11-.02.29-.047.399-.059a6.872 6.872 0 0 1 .797-.054c.113-.004.289 0 .402 0 .11.004.285.015.399.023.11.012.289.027.398.043.11.016.29.043.399.063.109.02.289.054.398.082.113.027.29.07.398.101.114.031.29.086.403.121.11.04.289.102.398.14.11.044.29.114.399.165.109.047.289.125.398.18.113.05.29.14.399.199.113.058.289.156.402.219a15.286 15.286 0 0 1 1.195.77c.113.077.29.21.399.292.113.086.289.227.402.313.11.09.285.238.398.332a33.58 33.58 0 0 1 .797.715c.11.105.29.277.399.386.113.11.289.285.402.403.11.113.285.296.399.418.109.117.289.312.398.433.11.125.289.324.398.453.11.13.29.336.399.469.113.129.289.348.398.484.114.137.29.356.403.496.109.145.285.372.398.516.11.145.29.383.398.531.11.149.29.391.399.543.113.157.289.403.398.559.114.16.29.414.403.574.11.16.285.422.398.586.11.164.29.434.399.602l.398.609c.113.172.29.453.398.625.114.176.29.461.403.637l.398.652c.11.18.29.473.399.656.109.188.289.485.398.672.11.188.29.492.399.68.113.191.289.5.402.691l.398.703c.11.196.29.508.399.707.11.2.289.52.398.72.11.198.29.523.399.726.113.203.289.527.398.734.113.203.29.535.402.742.11.203.286.54.399.746.11.207.289.543.398.754.11.211.29.547.399.762.113.211.289.55.398.766.113.21.29.554.403.77.109.214.285.558.398.773.11.214.289.562.398.777.11.219.29.566.399.781.113.219.289.57.398.785.114.22.29.57.403.79.109.218.285.57.398.789.11.218.29.57.398.789.11.218.29.57.399.793.11.218.289.57.398.789.114.222.29.574.399.793.113.218.289.57.402.789.11.222.29.57.399.793.109.218.289.566.398.785l.398.785c.114.219.29.566.399.785l.402.781c.11.215.285.563.399.778.109.215.289.558.398.77.11.214.29.554.399.769.113.21.289.55.398.761l.402.758c.11.211.285.543.399.75l.398.746c.11.207.29.536.399.739.109.203.289.527.398.73.113.2.29.52.402.719.11.2.286.52.399.715.11.199.289.511.398.707l.399.695.398.684.399.675c.113.188.289.485.402.668.11.184.285.473.398.653.11.18.29.465.399.644.11.176.289.457.398.63.114.175.29.448.399.62.113.168.289.438.402.606.11.164.285.43.398.593.11.16.29.418.399.579.11.16.289.41.398.566.114.156.29.398.399.55.113.153.289.391.402.54.11.144.285.379.399.52.109.144.289.37.398.507.11.14.29.36.398.492.11.137.29.348.399.477.113.129.289.336.402.46.11.126.285.321.399.442.109.121.289.313.398.43l.399.41a33.136 33.136 0 0 0 .797.766c.113.101.288.261.402.36.11.097.285.25.398.339.11.094.29.234.399.32.109.09.289.223.398.305.113.082.29.207.399.285.113.078.289.195.402.266.11.07.285.183.398.25.11.062.29.168.399.226.11.063.289.153.398.211.113.055.29.137.399.188.113.05.289.129.402.172.11.043.285.113.398.152.11.04.29.098.399.129a7.612 7.612 0 0 0 .797.203c.113.023.289.059.398.074.113.016.29.04.402.051.11.012.29.027.399.035.11.004.289.012.398.012.11 0 .29-.004.399-.008.113-.004.289-.016.398-.027a14.1 14.1 0 0 0 .403-.047c.109-.016.285-.047.398-.067.11-.023.29-.062.398-.09a15 15 0 0 0 .399-.105c.113-.031.289-.09.398-.125.114-.039.29-.105.403-.148.109-.043.285-.117.398-.164.11-.051.29-.133.399-.188.109-.055.289-.144.398-.203.113-.059.289-.16.398-.223.114-.066.29-.175.403-.242.11-.07.285-.187.398-.262l.399-.28c.109-.083.289-.216.398-.302.11-.086.29-.226.399-.316.113-.09.289-.238.398-.336.113-.094.289-.254.402-.351l.399-.372c.11-.105.289-.28.398-.39.11-.11.29-.29.399-.406.113-.114.289-.301.398-.422.113-.121.29-.317.402-.438l.399-.457a53.604 53.604 0 0 0 1.195-1.465c.113-.14.29-.37.402-.52.11-.144.286-.382.399-.53.11-.153.289-.395.398-.551.11-.153.29-.403.399-.563.11-.156.289-.414.398-.574.114-.16.29-.426.403-.59.109-.164.285-.433.398-.601.11-.172.29-.446.398-.618.11-.171.29-.453.399-.628l.398-.637c.114-.18.29-.469.399-.653.113-.183.289-.476.402-.664.11-.183.285-.484.399-.671.109-.188.289-.493.398-.684.11-.191.289-.5.398-.695.114-.192.29-.504.399-.7l.402-.714c.11-.196.285-.52.399-.72.109-.198.289-.523.398-.726.11-.203.29-.531.399-.738.113-.203.289-.535.398-.742.113-.207.289-.54.402-.75.11-.207.285-.543.399-.754.11-.211.289-.55.398-.762l.399-.765c.109-.215.289-.56.398-.774.113-.215.29-.559.398-.773.114-.22.29-.567.403-.782l.398-.78c.11-.22.29-.567.399-.786.11-.219.289-.57.398-.79.113-.218.29-.57.399-.788.113-.219.289-.57.402-.79.11-.222.285-.573.398-.792.11-.219.29-.57.399-.793.11-.219.289-.57.398-.79.114-.218.29-.573.399-.792.113-.219.289-.57.402-.79.11-.218.285-.566.398-.784.11-.22.29-.57.399-.786.11-.218.289-.566.398-.785.11-.215.29-.562.399-.777.113-.215.289-.563.402-.777.11-.215.285-.559.399-.77.109-.215.289-.555.398-.766.11-.214.289-.554.398-.761.11-.211.29-.547.399-.758.113-.207.289-.543.398-.75.114-.207.29-.535.403-.742.109-.203.285-.532.398-.735.11-.203.29-.527.399-.73.109-.2.289-.52.398-.719l.398-.71c.114-.2.29-.513.403-.704.11-.195.285-.504.398-.695.11-.192.29-.492.399-.684.109-.187.289-.484.398-.672.113-.183.29-.48.398-.664.114-.18.29-.469.403-.648.11-.18.285-.465.398-.64.11-.177.29-.458.399-.63.11-.172.289-.445.398-.613.11-.172.29-.438.399-.605.113-.165.289-.426.402-.59.11-.16.285-.418.398-.575.11-.16.29-.41.399-.562.11-.156.289-.398.398-.547.11-.152.29-.39.399-.535.113-.145.289-.379.398-.52.113-.14.29-.367.402-.504.11-.136.286-.355.399-.488.11-.133.289-.344.398-.472.11-.13.29-.332.399-.454l.398-.441c.113-.117.29-.309.403-.422.109-.113.285-.297.398-.406.11-.11.289-.281.398-.387.11-.105.29-.273.399-.37l.398-.356c.114-.094.29-.246.403-.336a15.722 15.722 0 0 1 .797-.614c.109-.082.289-.207.398-.28.11-.079.289-.192.398-.263.114-.07.29-.18.399-.242.113-.066.289-.164.402-.226.11-.059.29-.149.399-.203.109-.055.289-.137.398-.184a8.659 8.659 0 0 1 .797-.313c.113-.039.289-.093.402-.128.11-.032.285-.079.399-.106.11-.027.289-.066.398-.086.11-.023.29-.05.399-.066.113-.02.289-.04.398-.051l.402-.027c.11-.004.286-.008.399-.004.11 0 .289.004.398.011.11.004.29.02.399.032.109.011.289.035.398.05.113.02.29.051.402.075.11.023.286.062.399.09.11.03.289.078.398.113.11.035.29.094.399.133.11.039.289.105.398.148a12.225 12.225 0 0 1 .801.363c.11.055.285.149.398.207.11.063.29.164.399.23a22 22 0 0 1 .398.247c.114.07.29.191.399.266.113.078.289.203.402.285.11.082.285.218.399.304.109.086.289.23.398.32l.398.34c.114.098.29.258.399.36.113.101.289.27.402.375.11.105.285.281.399.394.109.11.289.293.398.41.11.114.29.305.398.426.11.121.29.317.399.442l.402.46c.11.13.285.344.399.477l.398.492c.11.141.29.364.399.508.109.145.289.375.398.524.113.144.29.386.398.535.114.152.29.398.403.55.11.157.285.41.398.567.11.16.29.418.399.582.109.16.289.426.398.594.113.164.29.433.399.605.113.168.289.446.402.618.11.171.285.453.398.632.11.176.29.461.399.641.11.18.289.473.398.656.113.18.29.477.399.664.113.188.289.489.402.676.11.188.285.492.398.684.11.195.29.504.399.699.11.191.289.508.398.703.11.195.29.516.399.715.113.2.289.52.398.722.113.2.29.524.403.731l.398.734.398.746.399.75c.113.211.289.547.398.758.114.211.29.551.403.762.109.215.285.555.398.77.11.214.29.558.398.773.11.215.29.559.399.777.113.215.289.563.398.778.114.218.29.566.403.785.11.219.285.566.398.785.11.219.29.57.399.789.109.219.289.57.398.79.11.218.29.57.398.788.114.223.29.574.403.793l.398.793c.11.219.29.57.399.79l.398.788c.11.223.29.57.399.79.113.218.289.57.398.788.113.22.289.567.402.785.11.215.285.567.399.782.11.215.289.562.398.777l.399.777c.113.211.289.555.398.77.113.21.29.55.402.766.11.21.286.546.399.757.11.211.289.547.398.754.11.211.29.543.399.75.113.207.289.535.398.742.113.204.29.532.403.73.109.204.285.528.398.727.11.204.289.52.398.72.11.198.29.515.399.71l.398.7c.114.19.29.5.403.69.109.192.285.493.398.68.11.188.29.489.398.672.11.184.29.477.399.66l.398.649c.114.176.29.46.399.637.113.175.289.453.402.625.11.172.285.445.399.613.109.168.289.434.398.598.11.164.29.425.398.586.114.16.29.418.399.574.113.156.289.406.402.558a62.697 62.697 0 0 0 .797 1.074c.11.145.29.376.399.516.113.14.289.363.398.5.113.137.289.352.402.485.11.128.285.34.399.464.11.13.289.332.398.454.11.125.29.316.399.437.109.117.289.305.398.418l.399.402c.113.106.289.278.402.383.11.106.289.266.398.367.11.098.29.254.399.348.11.094.289.242.398.332.113.09.29.227.399.313.113.082.289.214.402.293.11.078.285.203.398.277.11.074.29.187.399.258.11.066.289.172.398.234.114.066.29.164.399.219.113.058.289.148.402.203.11.05.285.133.398.18.11.046.29.117.399.16.11.043.289.105.398.14.114.036.29.09.399.121.113.032.289.079.402.102.11.027.285.063.399.082.109.02.289.05.398.063.11.015.29.035.398.043.11.007.29.02.399.023.113.004.289.004.398 0a6.924 6.924 0 0 0 .801-.055 6.967 6.967 0 0 0 .797-.133c.113-.023.289-.066.398-.097a9.663 9.663 0 0 0 .8-.254c.11-.04.29-.11.4-.152.109-.047.289-.125.398-.176.113-.055.29-.14.399-.196.113-.058.289-.152.402-.214.11-.063.285-.168.398-.235.11-.066.29-.18.399-.25.11-.074.289-.195.398-.273.11-.078.29-.207.399-.29.113-.081.289-.218.402-.308.11-.086.285-.23.398-.324.11-.094.29-.246.399-.344.11-.101.289-.262.398-.363.11-.106.29-.274.399-.379.113-.11.289-.285.398-.398.113-.114.29-.297.402-.414a47.956 47.956 0 0 0 .797-.88c.11-.128.29-.335.399-.464.113-.133.289-.344.398-.48.114-.137.29-.356.403-.497l.398-.512c.11-.144.29-.378.398-.523.11-.148.29-.39.399-.543.113-.152.289-.398.398-.555.114-.156.29-.41.403-.57l.398-.582c.11-.164.29-.43.399-.598.109-.168.289-.437.398-.609.11-.168.289-.445.398-.621.114-.172.29-.457.399-.633.113-.18.289-.465.402-.644.11-.184.29-.477.399-.66.109-.184.289-.481.398-.669a103.395 103.395 0 0 0 .797-1.363l.402-.699c.11-.195.285-.512.399-.707.11-.2.289-.516.398-.719.11-.199.29-.52.399-.722.113-.204.289-.528.398-.73l.402-.743c.11-.203.286-.535.399-.746l.398-.75c.11-.211.29-.547.399-.762.113-.21.289-.55.398-.762l.402-.77c.11-.214.286-.558.399-.773.11-.214.289-.562.398-.777.11-.215.29-.562.399-.781.11-.219.289-.567.398-.785.114-.22.29-.567.399-.786.113-.218.289-.57.402-.789.11-.218.29-.57.398-.789.11-.218.29-.574.399-.793l.398-.789"/></g><use xlink:href="#i" x="230.173" y="72.697"/><use xlink:href="#j" x="11.462" y="10.507"/><use xlink:href="#k" x="18.251" y="11.998"/></svg>