<svg xmlns="http://www.w3.org/2000/svg" xmlns:xlink="http://www.w3.org/1999/xlink" width="237.803" height="113.781"><defs><path id="d" d="M2.75-1.86v-.577H.11v.578Zm0 0"/><path id="e" d="M4.469-1.734h-.25c-.063.297-.125.734-.219.89-.078.078-.734.078-.953.078H1.266L2.313-1.78c1.546-1.375 2.156-1.922 2.156-2.907 0-1.14-.907-1.937-2.11-1.937C1.234-6.625.5-5.703.5-4.812c0 .546.5.546.531.546.157 0 .516-.109.516-.53a.513.513 0 0 0-.531-.516c-.079 0-.094 0-.125.015.218-.64.765-1.016 1.328-1.016.906 0 1.344.813 1.344 1.625 0 .797-.5 1.579-1.047 2.188L.609-.375C.5-.265.5-.235.5 0h3.688Zm0 0"/><path id="f" d="M7.25-6.484v-.297c-.297.015-.703.031-.953.031l-1.14-.031v.297c.515.015.734.265.734.5 0 .078-.032.14-.063.203L4.016-1 2.109-6.016c-.046-.14-.046-.171-.046-.171 0-.297.562-.297.812-.297v-.297c-.36.031-1.047.031-1.422.031L.188-6.781v.297c.64 0 .843 0 .968.375L3.47 0c.062.188.125.219.25.219.172 0 .187-.047.234-.188l2.219-5.843c.14-.375.406-.657 1.078-.672m0 0"/><path id="g" d="M4.156 0v-.312h-.312c-.89 0-.922-.11-.922-.47v-5.577c0-.235 0-.266-.235-.266-.609.64-1.484.64-1.796.64v.313c.187 0 .78 0 1.297-.266V-.78c0 .36-.032.469-.922.469H.938V0c.359-.031 1.218-.031 1.609-.031.406 0 1.265 0 1.61.031m0 0"/><path id="i" d="M2.047-3.969h.937c.204 0 .297 0 .297-.203 0-.11-.094-.11-.281-.11h-.875c.36-1.405.406-1.609.406-1.671 0-.172-.11-.266-.281-.266-.031 0-.312 0-.406.36l-.39 1.578H.53c-.203 0-.297 0-.297.187 0 .125.078.125.266.125h.875C.672-1.156.625-.984.625-.812c0 .546.375.921.922.921 1 0 1.578-1.453 1.578-1.53 0-.095-.078-.095-.125-.095-.094 0-.094.032-.14.141C2.421-.344 1.89-.109 1.562-.109c-.22 0-.313-.125-.313-.453 0-.25.016-.313.063-.485Zm0 0"/><path id="j" d="M6.313-5.75c.093-.406.28-.703 1.078-.734.046 0 .156 0 .156-.188 0-.016 0-.11-.125-.11-.328 0-.672.032-1.016.032-.328 0-.703-.031-1.031-.031-.062 0-.172 0-.172.187 0 .11.094.11.172.11.563.015.672.218.672.437 0 .031-.016.188-.031.219l-.891 3.547C4.797-.953 3.641-.094 2.656-.094c-.672 0-1.219-.437-1.219-1.281 0-.031 0-.344.11-.781l.969-3.86c.093-.359.109-.468.828-.468.265 0 .344 0 .344-.188 0-.11-.11-.11-.141-.11-.281 0-1 .032-1.266.032-.297 0-1-.031-1.281-.031-.078 0-.187 0-.187.187 0 .11.078.11.265.11.031 0 .219 0 .375.03.188.016.281.032.281.157 0 .063-.109.469-.171.703l-.22.875c-.093.39-.562 2.266-.609 2.453-.062.282-.062.422-.062.579 0 1.203.89 1.906 1.937 1.906 1.25 0 2.485-1.125 2.813-2.438Zm0 0"/><path id="k" d="M3.125-4.797c-.047-.11-.062-.156-.203-.156-.125 0-.14.047-.188.156L1.125-.734C1.063-.562.938-.25.313-.25V0c.234-.016.484-.031.718-.031.282 0 .797.031.828.031v-.25c-.296 0-.5-.14-.5-.328 0-.063.016-.078.032-.14l.343-.86h1.97l.405 1.016a.294.294 0 0 1 .032.125c0 .187-.375.187-.563.187V0c.344-.016.797-.031 1.031-.031.329 0 .86.031.938.031v-.25h-.14c-.47 0-.516-.062-.594-.266Zm-.406.703.89 2.266H1.83Zm0 0"/><clipPath id="a"><path d="M28 21h209.477v85H28Zm0 0"/></clipPath><clipPath id="b"><path d="M228 55h9.477v16H228Zm0 0"/></clipPath><clipPath id="c"><path d="M27 3h2v110.563h-2Zm0 0"/></clipPath><clipPath id="h"><path d="M28.133 15H233v96H28.133Zm0 0"/></clipPath></defs><g clip-path="url(#a)"><path fill="none" stroke="#BFBFBF" stroke-miterlimit="10" stroke-width=".19861792" d="M28.133 104.98H237.28M28.133 84.023H237.28M28.133 42.11H237.28M28.133 21.156H237.28"/></g><path fill="none" stroke="#000" stroke-miterlimit="10" stroke-width=".79546976" d="M26.008 104.98h4.246m-4.246-20.957h4.246M26.008 42.11h4.246m-4.246-20.953h4.246"/><path fill="none" stroke="#000" stroke-miterlimit="10" stroke-width=".39823392" d="M28.133 63.066h205.683"/><path d="m236.883 63.066-2.969-1.757v3.52Zm0 0"/><g clip-path="url(#b)"><path fill="none" stroke="#000" stroke-miterlimit="10" stroke-width=".39823392" d="m236.883 63.066-2.969-1.757v3.52Zm0 0"/></g><g clip-path="url(#c)"><path fill="none" stroke="#000" stroke-miterlimit="10" stroke-width=".39823392" d="M28.133 113.363V3.664"/></g><path stroke="#000" stroke-miterlimit="10" stroke-width=".39823392" d="M28.133.598 26.37 3.563h3.52Zm0 0"/><use xlink:href="#d" x="3.445" y="108.268"/><use xlink:href="#e" x="6.756" y="108.268"/><use xlink:href="#f" x="15.039" y="108.268"/><use xlink:href="#g" x="6.755" y="87.311"/><use xlink:href="#f" x="15.038" y="87.311"/><use xlink:href="#g" x="6.755" y="45.399"/><use xlink:href="#f" x="15.038" y="45.399"/><use xlink:href="#e" x="6.755" y="24.442"/><use xlink:href="#f" x="15.038" y="24.442"/><g clip-path="url(#h)"><path fill="none" stroke="#000" stroke-miterlimit="10" stroke-width=".39823392" d="M28.133 63.07s.285-.765.398-1.058c.11-.29.29-.762.399-1.055.11-.289.289-.758.398-1.05.113-.294.29-.762.399-1.052l.402-1.05c.11-.29.285-.754.398-1.043.11-.293.29-.754.399-1.043.11-.29.289-.75.398-1.035.11-.29.29-.747.399-1.032.113-.285.289-.742.398-1.027l.402-1.02c.11-.28.29-.73.399-1.011l.398-1.004c.11-.278.29-.719.399-.992.113-.278.289-.715.398-.989.113-.27.29-.707.403-.976.109-.27.285-.7.398-.965.11-.266.289-.691.398-.953.11-.266.29-.684.399-.945.113-.258.289-.672.398-.93.114-.254.29-.664.403-.918.109-.254.285-.656.398-.902.11-.25.29-.649.399-.891.109-.246.289-.637.398-.879.11-.238.289-.621.398-.86.114-.238.29-.613.403-.843.11-.235.285-.602.398-.832.11-.227.29-.586.399-.813.109-.222.289-.574.398-.793.11-.218.29-.562.398-.777l.399-.758c.113-.21.289-.539.402-.742.11-.203.285-.523.399-.723l.398-.699c.11-.191.29-.496.399-.683.113-.184.289-.48.398-.66.113-.18.29-.465.402-.641.11-.172.286-.45.399-.617.11-.168.289-.434.398-.598.11-.164.29-.418.399-.574l.398-.555c.113-.148.29-.383.402-.527.11-.145.286-.371.399-.508.11-.137.289-.352.398-.485.11-.128.29-.332.399-.457.11-.125.289-.316.398-.433a20.407 20.407 0 0 1 .801-.8 15.158 15.158 0 0 1 1.195-1.008c.114-.083.29-.208.399-.286.113-.074.289-.191.402-.258a8.176 8.176 0 0 1 .797-.441c.11-.055.289-.137.398-.184.114-.047.29-.117.399-.156a6.605 6.605 0 0 1 .8-.23c.11-.028.29-.059.399-.079a6.916 6.916 0 0 1 1.2-.07c.109.008.284.02.398.031a6.996 6.996 0 0 1 1.195.25c.113.032.29.094.398.137.114.04.29.113.403.16.11.051.289.133.398.188.11.058.29.152.399.215a10.855 10.855 0 0 1 .797.507 13.074 13.074 0 0 1 1.199.95c.11.101.289.265.398.37a20.706 20.706 0 0 1 .8.809c.11.118.286.317.4.442.109.125.288.332.398.465.11.132.289.347.398.488.11.14.29.367.399.512.113.144.289.382.402.535.11.152.285.402.399.558.109.16.289.418.398.582.11.164.289.43.398.602.11.168.29.45.399.625.113.176.289.46.398.644.114.18.29.477.403.665.109.19.285.496.398.687.11.195.29.508.398.707.11.2.29.523.399.727.113.203.289.535.398.746.114.207.29.547.403.761.11.215.285.563.398.782.11.222.29.578.399.8.109.223.289.586.398.817.113.23.29.601.398.832.114.234.29.613.403.851.11.239.285.622.398.864.11.242.29.633.399.879.109.246.289.644.398.894.11.25.29.656.399.91.113.254.289.664.402.918.11.258.285.676.398.934.11.262.29.683.399.95.11.26.289.687.398.956.11.266.29.695.399.969.113.27.289.703.398.976.113.274.29.715.402.989.11.277.286.718.399.996.11.281.289.726.398 1.008.11.28.29.73.399 1.011.113.286.289.739.398 1.024.113.281.29.738.403 1.023.109.29.285.746.398 1.035.11.286.289.75.398 1.04.11.285.29.75.399 1.039.113.292.289.757.398 1.046.114.293.29.758.403 1.051.109.293.285.758.398 1.051.11.293.29.762.398 1.055.11.293.29.761.399 1.054.11.293.289.762.398 1.055.114.293.29.762.399 1.055.113.293.289.761.402 1.054.11.293.29.762.399 1.055.109.293.289.758.398 1.05.11.29.29.759.398 1.048.114.289.29.754.399 1.043.113.293.289.754.402 1.043.11.285.285.746.399 1.035.109.285.289.746.398 1.027.11.285.29.742.399 1.028.113.28.289.734.398 1.015.113.281.289.73.402 1.008.11.281.285.727.399 1.004.11.277.289.719.398.992.11.273.29.711.399.984.109.27.289.704.398.973l.402.961c.11.266.286.691.399.953.11.262.289.68.398.942l.399.925c.11.258.289.664.398.914.113.254.29.653.399.903.113.246.289.644.402.886.11.247.285.633.398.872.11.242.29.62.399.859l.398.84c.114.23.29.597.399.824.113.227.289.586.402.809.11.222.285.574.398.793l.399.77c.11.214.289.55.398.757.114.203.29.531.399.734.113.2.289.52.402.715.11.195.285.508.399.7.109.187.289.488.398.675.11.184.29.477.398.656.11.18.29.461.399.633.113.176.289.445.402.613a31.442 31.442 0 0 0 .797 1.16 30.485 30.485 0 0 0 1.195 1.574c.114.134.29.348.403.477.11.13.285.329.398.454l.399.43c.109.112.289.292.398.402l.399.382c.113.102.289.258.402.352.11.098.285.242.398.332.11.086.29.223.399.305.11.082.289.203.398.277.113.074.29.187.399.254.113.066.289.168.402.226.11.063.285.153.398.204.11.05.29.128.399.175.11.043.289.11.398.149a8.427 8.427 0 0 0 .797.219c.113.023.29.054.402.07.11.015.29.035.399.043a6.791 6.791 0 0 0 .797.008c.113-.008.289-.024.398-.04.114-.011.29-.038.403-.062.109-.02.285-.062.398-.09a8.08 8.08 0 0 0 .797-.258c.113-.043.289-.117.398-.168.114-.05.29-.136.403-.195.109-.058.285-.156.398-.223.11-.062.29-.171.399-.246.109-.07.289-.191.398-.273a14.63 14.63 0 0 0 1.2-.969c.109-.101.288-.265.398-.375a19.16 19.16 0 0 0 1.195-1.27c.113-.124.289-.335.402-.468.11-.137.285-.356.399-.496a32.246 32.246 0 0 0 .797-1.059c.113-.152.289-.406.398-.562.113-.16.29-.422.402-.586l.399-.61c.11-.171.289-.453.398-.628.11-.18.29-.47.399-.653.113-.183.289-.48.398-.672.113-.187.29-.496.402-.691.11-.195.286-.512.399-.711.11-.2.289-.523.398-.73.11-.208.29-.54.399-.75.11-.211.289-.551.398-.77.114-.215.29-.563.403-.785l.398-.805c.11-.223.29-.59.398-.82.11-.23.29-.602.399-.836.11-.235.289-.613.398-.852.114-.242.29-.629.399-.87.113-.243.289-.638.402-.884.11-.246.285-.644.399-.898.109-.25.289-.656.398-.91.11-.254.289-.664.398-.926.114-.258.29-.672.399-.934.113-.261.289-.687.402-.949.11-.265.285-.695.399-.96.109-.27.289-.7.398-.973.11-.27.29-.707.399-.98.113-.274.289-.716.398-.99.113-.276.289-.722.402-1 .11-.28.285-.726.399-1.007.11-.281.289-.734.398-1.016.11-.285.29-.738.399-1.023.109-.285.289-.742.398-1.027.113-.286.29-.746.398-1.036.114-.285.29-.75.403-1.039.11-.289.289-.753.398-1.043.11-.289.29-.757.399-1.046.11-.293.289-.758.398-1.051.113-.293.29-.758.399-1.051.113-.293.289-.762.402-1.055.11-.293.285-.761.398-1.054.11-.293.29-.762.399-1.055.11-.293.289-.766.398-1.059.114-.289.29-.761.399-1.05.113-.293.289-.762.402-1.055.11-.293.285-.758.398-1.05.11-.29.29-.755.399-1.048.11-.289.289-.754.398-1.043.11-.289.29-.75.399-1.039.113-.285.289-.746.402-1.035.11-.285.285-.742.399-1.027.109-.285.289-.739.398-1.024l.398-1.011c.11-.282.29-.73.399-1.008l.398-1c.114-.278.29-.719.403-.992.109-.274.285-.711.398-.98.11-.27.29-.704.399-.974.109-.265.289-.695.398-.957.113-.265.289-.687.398-.949.114-.262.29-.68.403-.937.11-.258.285-.672.398-.926.11-.254.29-.66.399-.91.109-.25.289-.653.398-.899.113-.246.29-.64.398-.883.114-.242.29-.628.403-.867.11-.238.285-.62.398-.855.11-.235.29-.606.399-.836.11-.23.289-.594.398-.82.11-.227.29-.582.399-.805.113-.219.289-.57.402-.785.11-.215.285-.559.398-.77.11-.21.29-.543.399-.75l.398-.73c.11-.2.29-.516.399-.711l.398-.692c.113-.187.29-.488.402-.671.11-.184.286-.473.399-.653.11-.176.289-.457.398-.629.11-.172.29-.441.399-.605l.398-.586c.113-.16.29-.41.403-.567.109-.152.285-.394.398-.539.11-.148.289-.379.398-.52.11-.14.29-.359.399-.491.113-.137.289-.344.398-.473.114-.129.29-.328.403-.45.109-.116.285-.308.398-.421.11-.113.29-.29.399-.399.109-.105.289-.273.398-.375l.398-.347c.114-.094.29-.238.399-.324.113-.086.289-.22.402-.297.11-.078.29-.2.399-.274a10.183 10.183 0 0 1 .797-.469c.113-.054.289-.144.398-.195.113-.047.289-.125.402-.168a7.672 7.672 0 0 1 .797-.258c.11-.027.29-.066.399-.09.113-.019.289-.046.398-.062a6.685 6.685 0 0 1 .8-.047c.11 0 .29.008.4.016.109.008.288.027.398.043a7.093 7.093 0 0 1 .8.168c.11.031.286.086.399.12.11.04.289.106.398.15.11.046.29.124.399.175.11.055.289.145.398.203a11.422 11.422 0 0 1 .8.48c.11.075.286.2.4.278.109.082.288.219.398.305.11.09.289.238.398.332a17.899 17.899 0 0 1 .8.734c.11.11.286.29.4.406.109.114.289.305.398.426.11.125.289.324.398.457.114.13.29.34.399.477.113.133.289.355.402.5.11.14.285.375.399.523.109.149.289.39.398.547.11.156.29.406.398.57.11.16.29.422.399.59.113.168.289.442.402.614.11.171.285.457.399.636.11.176.289.469.398.656.11.184.29.485.399.676.109.188.289.5.398.696.113.195.29.515.398.714.114.204.29.532.403.739.11.207.285.543.398.754.11.21.29.554.399.773.109.215.289.566.398.79.113.222.29.581.399.808.113.226.289.593.402.824.11.23.285.605.398.844.11.234.29.617.399.855.11.238.289.63.398.871.113.246.29.64.399.887.113.25.289.648.402.902.11.25.285.66.398.914.11.258.29.668.399.93.11.258.289.676.398.938.11.261.29.687.399.953.113.265.289.695.398.96.113.27.29.704.403.977.109.27.289.707.398.98.11.278.289.72.398.997.11.273.29.718.399 1 .113.277.289.726.398 1.008.114.28.29.734.403 1.02.109.28.285.737.398 1.023.11.285.29.742.398 1.027.11.289.29.75.399 1.039.113.285.289.75.398 1.039.114.29.29.754.403 1.043.11.293.285.758.398 1.047.11.293.29.762.399 1.05.109.294.289.762.398 1.055.11.293.29.762.398 1.055.114.293.29.762.403 1.055.11.293.285.761.398 1.054.11.293.29.762.399 1.055.109.293.289.762.398 1.055.11.293.29.761.399 1.05.113.293.289.762.398 1.051.113.29.289.758.402 1.047.11.29.285.754.399 1.043.11.29.289.75.398 1.035.11.29.29.75.399 1.035.113.286.289.743.398 1.028.113.281.29.738.402 1.02.11.28.286.734.399 1.011l.398 1.008.399.996c.113.277.289.715.398.988l.403.98c.109.27.285.7.398.97.11.265.289.69.398.956.11.262.29.684.399.946.11.262.289.676.398.933.114.258.29.668.403.922.109.254.285.657.398.907.11.25.29.648.398.894.11.246.29.637.399.879l.398.867c.114.235.29.613.399.848.113.234.289.605.402.832.11.23.285.594.399.816.109.227.289.582.398.801.11.219.29.566.398.781.114.215.29.555.399.766.113.207.289.539.402.742.11.207.285.527.399.727.109.199.289.515.398.707.11.195.29.5.399.687.113.188.289.485.398.664.113.184.289.473.402.649.11.175.285.453.399.62.11.173.289.442.398.606.11.164.29.422.399.578.109.16.289.407.398.559l.399.535c.113.145.289.375.402.512.11.14.289.36.398.488.11.133.29.34.399.469.11.125.289.32.398.441.113.117.29.305.399.414.113.114.289.29.402.395a15.38 15.38 0 0 0 .797.707c.11.094.289.234.398.32.114.082.29.215.399.29.113.077.289.198.402.269a9.933 9.933 0 0 0 .797.453 9.145 9.145 0 0 0 .797.351c.113.04.289.102.402.137.11.031.285.082.399.11.109.023.289.062.398.082a6.967 6.967 0 0 0 .797.086c.113.003.289.003.398.003.114-.003.29-.015.403-.023.109-.012.289-.031.398-.05a7.446 7.446 0 0 0 .797-.18 6.771 6.771 0 0 0 .8-.286c.11-.046.286-.125.4-.18a10.445 10.445 0 0 0 .797-.441c.112-.07.288-.187.398-.261.113-.075.289-.204.402-.286.11-.082.285-.222.398-.312a15.156 15.156 0 0 0 .797-.695c.11-.106.29-.278.399-.387.113-.11.289-.293.402-.41.11-.117.285-.313.398-.438.11-.12.29-.328.399-.457.11-.133.289-.347.398-.484a26.881 26.881 0 0 0 .797-1.035 34.123 34.123 0 0 0 1.2-1.727c.109-.168.288-.441.398-.617.113-.176.289-.461.398-.64.114-.18.29-.473.403-.66l.398-.684c.11-.192.29-.504.398-.7.11-.199.29-.52.399-.722.113-.203.289-.532.398-.739.114-.21.29-.546.403-.761l.398-.778c.11-.215.29-.57.399-.793.109-.222.289-.586.398-.812.11-.227.289-.598.398-.828.114-.235.29-.61.399-.848.113-.234.289-.617.402-.86.11-.241.29-.632.399-.874l.398-.89c.11-.25.29-.653.399-.907.113-.254.289-.66.398-.918.113-.258.289-.672.402-.93.11-.262.285-.68.399-.945.11-.262.289-.688.398-.953.11-.266.29-.696.399-.965.113-.27.289-.703.398-.977.113-.273.29-.71.402-.984.11-.277.286-.719.399-.996.11-.277.289-.723.398-1.004.11-.281.29-.73.399-1.012.113-.281.289-.734.398-1.02.113-.28.29-.738.402-1.023.11-.285.286-.746.399-1.031.11-.289.289-.75.398-1.039.11-.29.29-.75.399-1.04l.398-1.046c.114-.289.29-.758.399-1.047.113-.293.289-.762.402-1.05.11-.294.29-.762.398-1.055.11-.293.29-.762.399-1.055l.398-1.055"/></g><use xlink:href="#i" x="230.173" y="72.697"/><use xlink:href="#j" x="11.462" y="10.507"/><use xlink:href="#k" x="18.251" y="11.998"/></svg>