<svg xmlns="http://www.w3.org/2000/svg" xmlns:xlink="http://www.w3.org/1999/xlink" width="237.803" height="113.781"><defs><path id="d" d="M2.75-1.86v-.577H.11v.578Zm0 0"/><path id="e" d="M4.469-1.734h-.25c-.063.297-.125.734-.219.89-.078.078-.734.078-.953.078H1.266L2.313-1.78c1.546-1.375 2.156-1.922 2.156-2.907 0-1.14-.907-1.937-2.11-1.937C1.234-6.625.5-5.703.5-4.812c0 .546.5.546.531.546.157 0 .516-.109.516-.53a.513.513 0 0 0-.531-.516c-.079 0-.094 0-.125.015.218-.64.765-1.016 1.328-1.016.906 0 1.344.813 1.344 1.625 0 .797-.5 1.579-1.047 2.188L.609-.375C.5-.265.5-.235.5 0h3.688Zm0 0"/><path id="f" d="M7.25-6.484v-.297c-.297.015-.703.031-.953.031l-1.14-.031v.297c.515.015.734.265.734.5 0 .078-.032.14-.063.203L4.016-1 2.109-6.016c-.046-.14-.046-.171-.046-.171 0-.297.562-.297.812-.297v-.297c-.36.031-1.047.031-1.422.031L.188-6.781v.297c.64 0 .843 0 .968.375L3.47 0c.062.188.125.219.25.219.172 0 .187-.047.234-.188l2.219-5.843c.14-.375.406-.657 1.078-.672m0 0"/><path id="g" d="M4.156 0v-.312h-.312c-.89 0-.922-.11-.922-.47v-5.577c0-.235 0-.266-.235-.266-.609.64-1.484.64-1.796.64v.313c.187 0 .78 0 1.297-.266V-.78c0 .36-.032.469-.922.469H.938V0c.359-.031 1.218-.031 1.609-.031.406 0 1.265 0 1.61.031m0 0"/><path id="i" d="M2.047-3.969h.937c.204 0 .297 0 .297-.203 0-.11-.094-.11-.281-.11h-.875c.36-1.405.406-1.609.406-1.671 0-.172-.11-.266-.281-.266-.031 0-.312 0-.406.36l-.39 1.578H.53c-.203 0-.297 0-.297.187 0 .125.078.125.266.125h.875C.672-1.156.625-.984.625-.812c0 .546.375.921.922.921 1 0 1.578-1.453 1.578-1.53 0-.095-.078-.095-.125-.095-.094 0-.094.032-.14.141C2.421-.344 1.89-.109 1.562-.109c-.22 0-.313-.125-.313-.453 0-.25.016-.313.063-.485Zm0 0"/><path id="j" d="M6.313-5.75c.093-.406.28-.703 1.078-.734.046 0 .156 0 .156-.188 0-.016 0-.11-.125-.11-.328 0-.672.032-1.016.032-.328 0-.703-.031-1.031-.031-.062 0-.172 0-.172.187 0 .11.094.11.172.11.563.015.672.218.672.437 0 .031-.016.188-.031.219l-.891 3.547C4.797-.953 3.641-.094 2.656-.094c-.672 0-1.219-.437-1.219-1.281 0-.031 0-.344.11-.781l.969-3.86c.093-.359.109-.468.828-.468.265 0 .344 0 .344-.188 0-.11-.11-.11-.141-.11-.281 0-1 .032-1.266.032-.297 0-1-.031-1.281-.031-.078 0-.187 0-.187.187 0 .11.078.11.265.11.031 0 .219 0 .375.03.188.016.281.032.281.157 0 .063-.109.469-.171.703l-.22.875c-.093.39-.562 2.266-.609 2.453-.062.282-.062.422-.062.579 0 1.203.89 1.906 1.937 1.906 1.25 0 2.485-1.125 2.813-2.438Zm0 0"/><path id="k" d="M3.125-4.797c-.047-.11-.062-.156-.203-.156-.125 0-.14.047-.188.156L1.125-.734C1.063-.562.938-.25.313-.25V0c.234-.016.484-.031.718-.031.282 0 .797.031.828.031v-.25c-.296 0-.5-.14-.5-.328 0-.063.016-.078.032-.14l.343-.86h1.97l.405 1.016a.294.294 0 0 1 .032.125c0 .187-.375.187-.563.187V0c.344-.016.797-.031 1.031-.031.329 0 .86.031.938.031v-.25h-.14c-.47 0-.516-.062-.594-.266Zm-.406.703.89 2.266H1.83Zm0 0"/><clipPath id="a"><path d="M28 21h209.477v85H28Zm0 0"/></clipPath><clipPath id="b"><path d="M228 55h9.477v16H228Zm0 0"/></clipPath><clipPath id="c"><path d="M27 3h2v110.563h-2Zm0 0"/></clipPath><clipPath id="h"><path d="M28.133 36H233v54H28.133Zm0 0"/></clipPath></defs><g clip-path="url(#a)"><path fill="none" stroke="#BFBFBF" stroke-miterlimit="10" stroke-width=".19861792" d="M28.133 104.98H237.28M28.133 84.023H237.28M28.133 42.11H237.28M28.133 21.156H237.28"/></g><path fill="none" stroke="#000" stroke-miterlimit="10" stroke-width=".79546976" d="M26.008 104.98h4.246m-4.246-20.957h4.246M26.008 42.11h4.246m-4.246-20.953h4.246"/><path fill="none" stroke="#000" stroke-miterlimit="10" stroke-width=".39823392" d="M28.133 63.066h205.683"/><path d="m236.883 63.066-2.969-1.757v3.52Zm0 0"/><g clip-path="url(#b)"><path fill="none" stroke="#000" stroke-miterlimit="10" stroke-width=".39823392" d="m236.883 63.066-2.969-1.757v3.52Zm0 0"/></g><g clip-path="url(#c)"><path fill="none" stroke="#000" stroke-miterlimit="10" stroke-width=".39823392" d="M28.133 113.363V3.664"/></g><path stroke="#000" stroke-miterlimit="10" stroke-width=".39823392" d="M28.133.598 26.37 3.563h3.52Zm0 0"/><use xlink:href="#d" x="3.445" y="108.268"/><use xlink:href="#e" x="6.756" y="108.268"/><use xlink:href="#f" x="15.039" y="108.268"/><use xlink:href="#g" x="6.755" y="87.311"/><use xlink:href="#f" x="15.038" y="87.311"/><use xlink:href="#g" x="6.755" y="45.399"/><use xlink:href="#f" x="15.038" y="45.399"/><use xlink:href="#e" x="6.755" y="24.442"/><use xlink:href="#f" x="15.038" y="24.442"/><g clip-path="url(#h)"><path fill="none" stroke="#000" stroke-miterlimit="10" stroke-width=".39823392" d="M28.133 63.07s.285-.648.398-.898c.11-.25.29-.649.399-.899.11-.246.289-.644.398-.894.113-.246.29-.645.399-.89l.402-.895c.11-.246.285-.64.398-.887.11-.246.29-.64.399-.887l.398-.879c.11-.246.29-.636.399-.879.113-.242.289-.628.398-.87l.402-.868c.11-.238.29-.62.399-.86l.398-.85.399-.848c.113-.23.289-.606.398-.836.113-.23.29-.602.403-.828.109-.23.285-.598.398-.825.11-.226.289-.586.398-.808.11-.227.29-.582.399-.805.113-.219.289-.57.398-.789.114-.219.29-.566.403-.781.109-.215.285-.555.398-.77l.399-.754c.109-.21.289-.543.398-.746.11-.203.289-.613.398-.71.114-.098.29 0 .403 0H67.25c.113 0 .29-.024.398 0 .114.023.29.034.403.16.11.124.285.53.398.734.11.207.29.539.399.75.109.207.289.547.398.758.11.214.29.558.399.773.113.215.289.563.402.781.11.22.285.575.398.797.11.219.29.578.399.801.11.227.289.59.398.816l.399.82c.113.231.289.602.398.833l.402.84c.11.234.286.613.399.847.11.238.289.617.398.856.11.238.29.62.399.863.113.238.289.625.398.867.113.242.29.63.403.871.109.242.285.633.398.88.11.241.289.636.398.882.11.246.29.64.399.887.113.246.289.64.398.886.114.25.29.645.403.895.109.246.285.644.398.894.11.247.29.645.398.895.11.25.29.648.399.895.11.25.289.648.398.898.114.25.29.648.399.898.113.246.289.649.402.895.11.25.29.648.399.894.109.25.289.649.398.895.11.246.29.645.398.89.114.247.29.641.399.887.113.246.289.641.402.887.11.242.285.633.399.879l.398.875c.11.242.29.629.399.871.113.238.289.625.398.863.113.239.289.621.402.86.11.234.285.613.399.851.11.235.289.61.398.844.11.23.29.605.399.836.109.23.289.598.398.828.113.227.29.59.402.816.11.227.286.586.399.81.11.222.289.577.398.8.11.219.29.57.399.789.11.215.289.562.398.777.113.211.29.555.399.766.113.21.289.547.402.754.11.207.285.562.398.738.11.176.29.457.399.527.11.075.289 0 .398 0h28.742c.11 0 .29.051.399 0 .11-.046.289-.191.398-.343.114-.149.29-.532.399-.739.113-.203.289-.539.402-.75.11-.21.285-.55.399-.761.109-.215.289-.559.398-.774.11-.219.289-.566.398-.789.114-.219.29-.574.399-.793.113-.222.289-.582.402-.808.11-.227.285-.59.399-.817.109-.226.289-.594.398-.824.11-.23.29-.602.399-.836.113-.23.289-.605.398-.84.113-.234.289-.613.402-.851.11-.235.285-.618.399-.856.11-.238.289-.62.398-.863.11-.238.29-.625.399-.867l.398-.875c.113-.242.29-.633.398-.88.114-.245.29-.636.403-.882.11-.246.289-.64.398-.887.11-.246.29-.644.399-.89.11-.246.289-.645.398-.895.113-.246.29-.644.399-.894.113-.247.289-.645.402-.895.11-.25.285-.648.398-.898.11-.246.29-.645.399-.895.11-.25.289-.648.398-.898.114-.246.29-.649.399-.895.113-.25.289-.648.402-.894.11-.25.285-.645.398-.895.11-.246.29-.64.399-.89.11-.247.289-.641.398-.887.11-.242.29-.637.399-.883.113-.242.289-.633.402-.879.11-.242.285-.633.399-.871.109-.242.289-.629.398-.871l.398-.863c.11-.239.29-.618.399-.856.113-.238.289-.613.398-.852.114-.234.29-.609.403-.84a54.9 54.9 0 0 1 .398-.835c.11-.23.29-.598.399-.825.109-.226.289-.59.398-.816.113-.223.289-.582.398-.805.114-.222.29-.578.403-.796.11-.22.285-.57.398-.786.11-.218.29-.562.399-.777.109-.21.289-.55.398-.762.113-.21.29-.543.398-.75.114-.207.29-.59.403-.738.11-.152.285-.297.398-.344.11-.047.29 0 .399 0H167.047c.11 0 .285-.074.398 0 .11.074.29.352.399.528.11.175.289.535.398.742.113.207.29.543.399.754.113.21.289.55.402.765l.398.778c.11.215.29.566.399.789.11.218.289.574.398.797.11.222.29.582.399.808.113.227.289.59.398.82.113.227.29.598.403.829.109.23.289.601.398.836.11.23.289.605.398.843.11.235.29.614.399.852.113.234.289.617.398.855.114.239.29.625.403.868.109.238.285.625.398.867.11.242.29.633.398.875.11.246.29.636.399.883.113.242.289.636.398.882.114.246.29.641.403.887.11.25.285.645.398.89.11.25.29.65.399.895.109.25.289.649.398.895.11.25.29.648.398.898.114.246.29.645.403.895.11.25.285.648.398.898.11.25.29.649.399.895.109.25.289.648.398.898.11.246.29.645.399.895.113.246.289.644.398.89.113.246.289.645.402.89.11.247.285.642.399.884l.398.883c.11.246.29.636.399.878.113.243.289.633.398.875.113.239.29.625.402.868.11.238.286.62.399.859.11.238.289.617.398.855l.399.848c.113.235.289.61.398.84.113.23.29.602.403.832.109.23.285.594.398.824.11.227.289.586.398.813.11.222.29.582.399.804.11.223.289.575.398.793.114.22.29.567.403.782.109.218.285.562.398.773.11.211.29.55.398.762.11.207.29.539.399.746.11.207.289.61.398.734.114.125.29.14.399.16.113.024.289 0 .402 0h28.738c.114 0 .29.102.399 0 .113-.097.289-.507.402-.71.11-.2.29-.536.399-.743.109-.21.289-.547.398-.758.11-.21.29-.554.399-.769.113-.215.289-.563.398-.781.113-.215.289-.57.402-.79.11-.222.285-.577.399-.8.11-.227.289-.586.398-.813.11-.226.29-.593.399-.82.113-.23.289-.598.398-.832.113-.23.29-.602.402-.836l.399-.848c.11-.234.289-.613.398-.851.11-.238.29-.621.399-.86.113-.238.289-.625.398-.867.113-.242.29-.629.402-.87.11-.243.286-.634.399-.876.11-.246.289-.637.398-.883.11-.246.29-.64.399-.886.11-.246.289-.64.398-.887.114-.246.29-.645.399-.89l.402-.895c.11-.25.29-.649.398-.895.11-.25.29-.648.399-.898l.398-.895"/></g><use xlink:href="#i" x="230.173" y="72.697"/><use xlink:href="#j" x="11.462" y="10.507"/><use xlink:href="#k" x="18.251" y="11.998"/></svg>