<svg xmlns="http://www.w3.org/2000/svg" xmlns:xlink="http://www.w3.org/1999/xlink" width="233.112" height="113.783"><defs><path id="e" d="M2.328-4.422c0-.187-.015-.187-.203-.187-.453.437-1.078.437-1.36.437v.25c.157 0 .626 0 1-.187v3.547c0 .218 0 .312-.687.312H.812V0c.125 0 .97-.031 1.235-.031C2.266-.031 3.14 0 3.28 0v-.25h-.25c-.703 0-.703-.094-.703-.312Zm0 0"/><path id="f" d="M3.516-1.266H3.28c-.031.157-.094.563-.187.641-.063.031-.594.031-.688.031H1.125c.734-.64.969-.843 1.39-1.172.516-.406 1-.828 1-1.5 0-.843-.734-1.343-1.624-1.343-.875 0-1.453.593-1.453 1.234 0 .36.296.39.375.39.156 0 .359-.109.359-.359 0-.14-.047-.375-.406-.375.218-.5.687-.64 1.015-.64.688 0 1.063.53 1.063 1.093 0 .61-.438 1.094-.656 1.344L.5-.266C.438-.203.438-.187.438 0h2.859Zm0 0"/><path id="h" d="M3.125-4.797c-.047-.11-.062-.156-.203-.156-.125 0-.14.047-.188.156L1.125-.734C1.063-.562.938-.25.313-.25V0c.234-.016.484-.031.718-.031.282 0 .797.031.828.031v-.25c-.296 0-.5-.14-.5-.328 0-.063.016-.078.032-.14l.343-.86h1.97l.405 1.016a.294.294 0 0 1 .032.125c0 .187-.375.187-.563.187V0c.344-.016.797-.031 1.031-.031.329 0 .86.031.938.031v-.25h-.14c-.47 0-.516-.062-.594-.266Zm-.406.703.89 2.266H1.83Zm0 0"/><path id="i" d="M1.89-2.328c.548 0 .938.375.938 1.125 0 .86-.5 1.125-.906 1.125-.281 0-.89-.078-1.172-.484.328-.016.39-.25.39-.391 0-.235-.156-.39-.374-.39-.203 0-.391.124-.391.406C.375-.281 1.094.14 1.938.14c.968 0 1.64-.641 1.64-1.344 0-.547-.453-1.078-1.219-1.25.735-.266 1-.781 1-1.203 0-.547-.64-.953-1.406-.953-.766 0-1.36.375-1.36.922 0 .234.157.374.36.374.219 0 .36-.171.36-.359 0-.203-.141-.344-.36-.36.25-.312.719-.39.985-.39.312 0 .75.156.75.766 0 .297-.094.61-.282.828-.234.265-.422.281-.765.297-.188.015-.188.015-.235.015-.015 0-.062.016-.062.094 0 .094.062.094.172.094Zm0 0"/><path id="g" d="M3.64-3.969h.86c.188 0 .297 0 .297-.203 0-.11-.11-.11-.266-.11h-.828l.203-1.124c.047-.203.188-.907.235-1.032.093-.187.265-.343.468-.343.047 0 .297 0 .485.187a.531.531 0 0 0-.532.532c0 .234.188.343.375.343.25 0 .547-.218.547-.593 0-.454-.468-.688-.875-.688-.328 0-.953.188-1.25 1.172-.062.203-.093.297-.328 1.547h-.687c-.188 0-.297 0-.297.187 0 .125.094.125.281.125h.64L2.235-.047c-.187.953-.343 1.86-.859 1.86-.047 0-.297 0-.484-.172a.547.547 0 0 0 .547-.547c0-.219-.172-.344-.36-.344-.266 0-.547.219-.547.594 0 .453.438.687.844.687.547 0 .938-.578 1.11-.953.328-.625.546-1.828.562-1.906Zm0 0"/><path id="y" d="M1.781-1.14C1.375-.47.984-.345.563-.314c-.125.016-.22.016-.22.204C.344-.047.392 0 .47 0c.281 0 .578-.031.86-.031.327 0 .671.031 1 .031.046 0 .187 0 .187-.187 0-.11-.094-.125-.172-.125-.219-.016-.453-.094-.453-.344 0-.125.046-.235.14-.36l.75-1.28h2.485c.015.218.156 1.562.156 1.655 0 .297-.516.329-.703.329-.14 0-.25 0-.25.203 0 .109.125.109.14.109.407 0 .844-.031 1.25-.031.25 0 .875.031 1.11.031.062 0 .187 0 .187-.203 0-.11-.11-.11-.234-.11-.61 0-.61-.062-.64-.359l-.61-6.187c-.016-.203-.016-.25-.188-.25-.156 0-.203.078-.25.172ZM2.97-2.595l1.953-3.281.312 3.281Zm0 0"/><path id="k" d="M5.969-2.656c0-1.531-1.172-2.766-2.594-2.766H.359v.266h.188c.61 0 .625.078.625.375v4.14c0 .297-.016.375-.625.375H.359V0h3.016c1.438 0 2.594-1.187 2.594-2.656m-.813-.016c0 .406 0 1.188-.5 1.781-.281.313-.781.625-1.484.625H2.25c-.36 0-.375-.046-.375-.328v-4.234c0-.281.016-.328.375-.328h.922c.61 0 1.125.25 1.484.64.5.61.5 1.454.5 1.844m0 0"/><path id="l" d="M4.453 0v-.266c-.531 0-.594-.046-.594-.437V-3.5l-1.203.094v.25c.531 0 .594.062.594.453v1.375c0 .687-.406 1.187-1 1.187-.687 0-.719-.343-.719-.734V-3.5l-1.203.094v.25c.594 0 .594.031.594.734v1.188c0 .578 0 1.312 1.281 1.312.735 0 1.031-.562 1.063-.64h.015v.64Zm0 0"/><path id="m" d="M3.047-3c0-.281-.25-.5-.61-.5-.515 0-.859.39-1.03.828V-3.5L.28-3.406v.25c.532 0 .594.062.594.453v2.078c0 .36-.094.36-.594.36V0c.313-.031.75-.031.938-.031.468 0 .484 0 1 .031v-.266h-.156c-.594 0-.61-.078-.61-.375v-1.171c0-.594.25-1.454 1.016-1.47-.047.032-.125.095-.125.282 0 .25.187.36.344.36.187 0 .359-.126.359-.36m0 0"/><path id="n" d="M3.5-.953c0-.094-.11-.094-.125-.094-.062 0-.094 0-.125.094-.047.156-.281.781-1.062.781-.5 0-1.204-.375-1.204-1.547 0-1.14.594-1.578 1.172-1.578.063 0 .485 0 .766.14a.364.364 0 0 0-.25.36c0 .203.14.375.375.375.203 0 .36-.156.36-.39 0-.485-.532-.735-1.282-.735-1.094 0-1.844.89-1.844 1.828C.281-.703 1.11.078 2.11.078 3.22.078 3.5-.859 3.5-.953m0 0"/><path id="o" d="M4.453 0v-.266c-.5 0-.594 0-.594-.359v-1.781c0-.672-.296-1.094-1.14-1.094a1.34 1.34 0 0 0-1.203.703v-2.719l-1.188.094v.266c.531 0 .594.047.594.437v4.094c0 .36-.094.36-.594.36V0c.344-.031.688-.031.906-.031.22 0 .563 0 .907.031v-.266c-.516 0-.61 0-.61-.359v-1.437c0-.829.64-1.22 1.125-1.22s.594.345.594.845v1.812c0 .36-.094.36-.594.36V0c.344-.031.688-.031.906-.031.22 0 .563 0 .891.031m0 0"/><path id="p" d="M2.125 0v-.266c-.516 0-.61 0-.61-.359v-4.89l-1.187.093v.266c.547 0 .61.047.61.437v4.094c0 .36-.094.36-.61.36V0c.313-.031.766-.031.89-.031.157 0 .595 0 .907.031m0 0"/><path id="q" d="M4.078-.719v-.437h-.25v.437c0 .328-.11.453-.281.453-.297 0-.297-.359-.297-.453v-1.64c0-.782-.75-1.188-1.469-1.188-.656 0-1.25.266-1.25.781 0 .235.172.391.375.391a.37.37 0 0 0 .375-.375.385.385 0 0 0-.297-.375c.297-.187.72-.187.782-.187.437 0 .89.296.89.953v.25c-.469.015-1 .046-1.547.28-.703.298-.843.75-.843 1.017 0 .687.812.89 1.359.89a1.23 1.23 0 0 0 1.11-.64c.03.296.234.609.593.609.078 0 .75-.031.75-.766m-1.422-.406c0 .781-.656.984-.969.984-.421 0-.765-.28-.765-.656 0-.531.484-1.062 1.734-1.11Zm0 0"/><path id="r" d="M3.047-1.031c0-.375-.235-.922-1.188-1.11a9.724 9.724 0 0 0-.53-.093c-.25-.047-.626-.22-.626-.532 0-.25.172-.578.938-.578.89 0 .922.656.937.875.016.063.063.094.125.094.125 0 .125-.062.125-.219v-.734c0-.125 0-.219-.11-.219-.03 0-.062 0-.187.14-.015 0-.094.079-.11.079 0 0-.03 0-.077-.031-.125-.094-.344-.188-.703-.188-1.11 0-1.36.61-1.36.985 0 .406.297.64.313.656.312.234.5.265 1.031.36.375.077.984.187.984.734 0 .296-.203.671-.937.671C.875-.14.64-.766.547-1.187.516-1.281.5-1.328.407-1.328c-.126 0-.126.062-.126.219v.984c0 .125 0 .203.094.203.047 0 .063 0 .203-.156.047-.047.125-.14.172-.188.36.329.719.344.938.344 1 0 1.359-.578 1.359-1.11m0 0"/><path id="s" d="M2.328-1.453v-.516H.094v.516Zm0 0"/><path id="t" d="M4.39-1.719c0-1-.812-1.781-1.78-1.781-.626 0-1.016.344-1.157.484v-2.5l-1.172.094v.266c.532 0 .594.047.594.437V0h.25l.281-.484c.203.265.563.562 1.11.562C3.53.078 4.39-.703 4.39-1.719m-.702 0c0 .172 0 .75-.282 1.11a1.18 1.18 0 0 1-.922.468c-.375 0-.703-.203-.906-.515-.094-.14-.094-.156-.094-.297v-1.563c0-.14 0-.156.125-.296.22-.297.594-.47.954-.47.406 0 .718.25.874.485.141.219.25.5.25 1.078m0 0"/><path id="u" d="M3.5-.953c0-.031-.016-.11-.125-.11-.094 0-.11.047-.125.11a1.141 1.141 0 0 1-1.11.781c-.359 0-.718-.156-.953-.531-.25-.36-.25-.875-.25-1.11h2.344c.172 0 .219 0 .219-.187 0-.703-.39-1.547-1.5-1.547-.984 0-1.766.828-1.766 1.813 0 1.015.86 1.812 1.86 1.812C3.109.078 3.5-.766 3.5-.953m-.547-1.063h-2c.078-1.109.75-1.296 1.047-1.296.922 0 .953 1.109.953 1.296m0 0"/><path id="v" d="M2.063 0v-.266c-.516 0-.547-.03-.547-.343V-3.5l-1.157.094v.25c.5 0 .579.047.579.437v2.094c0 .36-.094.36-.61.36V0c.313-.031.766-.031.875-.031.11 0 .578 0 .86.031m-.454-4.781a.427.427 0 0 0-.437-.438.427.427 0 0 0-.438.438.437.437 0 1 0 .875 0m0 0"/><path id="w" d="M4.203-1.469c0-.687-.453-1.39-1.266-1.593l-1.093-.25c-.5-.11-.875-.516-.875-1 0-.532.453-1.032 1.156-1.032 1.375 0 1.547 1.282 1.594 1.578.015.094.015.141.125.141.125 0 .125-.047.125-.203v-1.547c0-.14 0-.219-.11-.219-.062 0-.078.032-.125.11l-.28.453c-.392-.438-.907-.563-1.345-.563-.937 0-1.64.719-1.64 1.532 0 .609.344.937.484 1.093.297.281.563.344 1.406.547.688.156.813.172 1.063.453.094.094.281.36.281.75 0 .547-.422 1.125-1.156 1.125-.875 0-1.781-.422-1.828-1.531-.016-.125-.016-.172-.125-.172-.125 0-.125.063-.125.203v1.547c0 .14 0 .219.11.219C.64.172.64.156.702.078.734.031.766-.047.984-.375c.5.438 1.094.547 1.563.547 1 0 1.656-.797 1.656-1.64m0 0"/><path id="x" d="M4.39-1.719c0-.984-.796-1.781-1.75-1.781-.312 0-.78.078-1.187.484V-3.5l-1.172.094v.25c.563 0 .594.047.594.39V.922c0 .36-.094.36-.594.36v.265c.344-.031.688-.031.907-.031.218 0 .562 0 .906.03v-.265c-.516 0-.61 0-.61-.36V-.39c.375.407.782.47 1.032.47C3.53.078 4.39-.704 4.39-1.72m-.702 0c0 .922-.563 1.578-1.22 1.578a1.07 1.07 0 0 1-.89-.515c-.094-.14-.094-.14-.094-.297v-1.688c.188-.312.579-.609 1.079-.609.609 0 1.124.672 1.124 1.531m0 0"/><clipPath id="a"><path d="M219 83h13.227v16H219Zm0 0"/></clipPath><clipPath id="b"><path d="M14 3h1v110.46h-1Zm0 0"/></clipPath><clipPath id="c"><path d="M12 .11h5V4h-5Zm0 0"/></clipPath><clipPath id="d"><path d="M6 .11h16V10H6Zm0 0"/></clipPath><clipPath id="j"><path d="M8.129 9H137v12H8.129Zm0 0"/></clipPath></defs><path fill="none" stroke="#7F7F7F" stroke-miterlimit="10" stroke-width=".19824579" d="M75.535 92.79v-4.24m61.277 4.24v-4.24m61.278 4.24v-4.24"/><path fill="none" stroke="#000" stroke-miterlimit="10" stroke-width=".39748779000000006" d="M8.129 90.668h217.137"/><path d="m228.328 90.668-2.96-1.754v3.512Zm0 0"/><g clip-path="url(#a)"><path fill="none" stroke="#000" stroke-miterlimit="10" stroke-width=".39748779000000006" d="m228.328 90.668-2.96-1.754v3.512Zm0 0"/></g><g clip-path="url(#b)"><path fill="none" stroke="#000" stroke-miterlimit="10" stroke-width=".39748779000000006" d="M14.258 113.262V3.766"/></g><g clip-path="url(#c)"><path d="M14.258.703 12.5 3.664h3.516Zm0 0"/></g><g clip-path="url(#d)"><path fill="none" stroke="#000" stroke-miterlimit="10" stroke-width=".39748779000000006" d="M14.258.703 12.5 3.664h3.516Zm0 0"/></g><use xlink:href="#e" x="67.949" y="100.771"/><path fill="none" stroke="#000" stroke-miterlimit="10" stroke-width=".44630208000000005" d="M67.95 102.273h3.956"/><use xlink:href="#f" x="67.949" y="108.403"/><use xlink:href="#g" x="73.097" y="104.808"/><use xlink:href="#h" x="77.955" y="106.296"/><use xlink:href="#g" x="131.203" y="103.186"/><use xlink:href="#h" x="136.063" y="104.674"/><use xlink:href="#i" x="190.501" y="100.771"/><path fill="none" stroke="#000" stroke-miterlimit="10" stroke-width=".44630208000000005" d="M190.5 102.273h3.957"/><use xlink:href="#f" x="190.501" y="108.403"/><use xlink:href="#g" x="195.649" y="104.808"/><use xlink:href="#h" x="200.507" y="106.296"/><g clip-path="url(#j)"><path fill="none" stroke="#000" stroke-miterlimit="10" stroke-width=".39748779000000006" d="M14.258 15.367H130.684"/></g><path fill="none" stroke="#000" stroke-miterlimit="10" stroke-width=".39748779000000006" d="M130.684 15.367s.441.844.613 1.84c.168 1 .441 3.453.613 5.352.168 1.894.442 5.714.613 8.328.168 2.613.442 7.426.61 10.496.172 3.07.445 8.406.613 11.637.172 3.226.445 8.562.613 11.632.172 3.07.446 7.883.614 10.496.172 2.614.441 6.434.613 8.332.168 1.895.441 4.348.613 5.348.168.996.613 1.84.613 1.84M136.812 90.668H198.086"/><use xlink:href="#k" x="56.22" y="49.779"/><use xlink:href="#l" x="62.659" y="49.779"/><use xlink:href="#m" x="67.344" y="49.779"/><use xlink:href="#n" x="70.631" y="49.779"/><use xlink:href="#o" x="74.148" y="49.779"/><use xlink:href="#p" x="78.833" y="49.779"/><use xlink:href="#q" x="81.175" y="49.779"/><use xlink:href="#r" x="85.391" y="49.779"/><use xlink:href="#r" x="88.718" y="49.779"/><use xlink:href="#s" x="92.045" y="49.779"/><use xlink:href="#t" x="62.413" y="61.689"/><use xlink:href="#u" x="67.336" y="61.689"/><use xlink:href="#m" x="71.084" y="61.689"/><use xlink:href="#u" x="74.371" y="61.689"/><use xlink:href="#v" x="78.118" y="61.689"/><use xlink:href="#n" x="80.461" y="61.689"/><use xlink:href="#o" x="83.97" y="61.689"/><use xlink:href="#w" x="144.363" y="77.633"/><use xlink:href="#x" x="149.048" y="77.633"/><use xlink:href="#u" x="153.97" y="77.633"/><use xlink:href="#m" x="157.718" y="77.633"/><use xlink:href="#m" x="161.005" y="77.633"/><use xlink:href="#t" x="164.292" y="77.633"/><use xlink:href="#u" x="169.215" y="77.633"/><use xlink:href="#m" x="172.962" y="77.633"/><use xlink:href="#u" x="176.25" y="77.633"/><use xlink:href="#v" x="179.997" y="77.633"/><use xlink:href="#n" x="182.339" y="77.633"/><use xlink:href="#o" x="185.849" y="77.633"/><use xlink:href="#g" x="219.291" y="101.068"/><use xlink:href="#y" x="3.308" y="10.595"/></svg>