<svg xmlns="http://www.w3.org/2000/svg" xmlns:xlink="http://www.w3.org/1999/xlink" width="226.459" height="84.203"><defs><path id="c" d="M5.922-2.64c0-1.532-1.14-2.75-2.563-2.75h-3v.265h.172c.61 0 .625.078.625.375v4.11c0 .296-.015.374-.625.374H.36V0h3c1.422 0 2.563-1.187 2.563-2.64m-.797-.016c0 .406 0 1.187-.5 1.765-.266.329-.781.625-1.484.625h-.907c-.359 0-.375-.046-.375-.312v-4.234c0-.266.016-.313.375-.313h.907c.625 0 1.14.25 1.484.64.5.61.5 1.454.5 1.829m0 0"/><path id="d" d="M3.484-.953a.12.12 0 0 0-.125-.11c-.093 0-.109.063-.125.11a1.141 1.141 0 0 1-1.109.781 1.13 1.13 0 0 1-.953-.516C.938-1.062.938-1.561.938-1.796h2.328c.172 0 .218 0 .218-.187 0-.703-.39-1.532-1.5-1.532-.984 0-1.75.813-1.75 1.782 0 1.03.86 1.812 1.844 1.812 1 0 1.406-.844 1.406-1.031M2.938-2H.952c.063-1.11.735-1.297 1.031-1.297.922 0 .954 1.11.954 1.297m0 0"/><path id="e" d="M2.313-1.437v-.516H.092v.516Zm0 0"/><path id="f" d="M7.281 0v-.266H7.11c-.609 0-.625-.078-.625-.375V-4.75c0-.297.016-.375.625-.375h.172v-.266H5.953c-.219 0-.234.032-.281.172L3.828-.75 2-5.203c-.062-.156-.062-.188-.281-.188H.39v.266h.172c.609 0 .625.078.625.375v3.906c0 .203 0 .578-.797.578V0c.343-.031.718-.031.922-.031.203 0 .578 0 .937.031v-.266c-.797 0-.797-.375-.797-.578v-4.203l2 4.86c.047.093.078.187.188.187.093 0 .14-.094.172-.187L5.828-5.11l.016.015V-.64c0 .297-.016.375-.625.375h-.172V0l1.11-.031Zm0 0"/><path id="g" d="M4.063-.703v-.438h-.25v.438c0 .312-.126.437-.282.437-.297 0-.297-.359-.297-.437v-1.64c0-.782-.75-1.173-1.468-1.173-.657 0-1.235.25-1.235.766 0 .234.156.375.375.375s.36-.156.36-.36c0-.187-.11-.328-.282-.359.282-.203.72-.203.766-.203.438 0 .89.313.89.953v.25c-.468.016-.984.047-1.546.266-.688.312-.828.766-.828 1.016 0 .687.797.89 1.343.89a1.23 1.23 0 0 0 1.11-.64c.031.296.234.609.594.609.078 0 .75-.031.75-.75M2.64-1.11c0 .765-.657.968-.97.968-.405 0-.75-.28-.75-.656 0-.515.485-1.062 1.72-1.094Zm0 0"/><path id="h" d="M4.375-1.703c0-.984-.797-1.781-1.75-1.781-.312 0-.766.078-1.172.5v-.5l-1.172.093v.266c.563 0 .594.047.594.375V.922c0 .344-.094.344-.594.344v.265C.61 1.5.97 1.5 1.171 1.5c.235 0 .563 0 .907.031v-.265c-.515 0-.61 0-.61-.344V-.391c.376.407.782.47 1.032.47 1 0 1.875-.766 1.875-1.782m-.703 0c0 .906-.578 1.562-1.203 1.562-.281 0-.64-.125-.906-.515-.094-.14-.094-.14-.094-.297v-1.672c.187-.312.578-.61 1.078-.61.61 0 1.125.672 1.125 1.532m0 0"/><path id="i" d="M3.031-2.984c0-.282-.25-.5-.594-.5-.515 0-.874.39-1.03.828H1.39v-.828l-1.11.093v.266c.532 0 .594.047.594.438V-.61c0 .343-.094.343-.594.343V0c.297-.031.735-.031.922-.031.469 0 .484 0 1 .031v-.266h-.156c-.578 0-.594-.078-.594-.359v-1.172c0-.594.25-1.453 1-1.469-.047.032-.125.094-.125.282 0 .25.188.359.344.359.187 0 .36-.125.36-.36m0 0"/><path id="j" d="M6.094.078c0-.078 0-.187-.11-.187-.093 0-.109.078-.109.14-.047.485-.437.672-.75.672-.328 0-.531-.187-.781-.765.718-.282 1.703-1.188 1.703-2.61 0-1.594-1.25-2.89-2.781-2.89-1.563 0-2.797 1.312-2.797 2.89C.469-1.078 1.734.172 3.266.172c.25 0 .515-.047.765-.11.157.797.297 1.47 1.032 1.47.828 0 1.03-1.016 1.03-1.454m-.844-2.75c0 .985-.312 1.828-1.031 2.313-.313-.735-.688-.828-.953-.828-.407 0-.703.296-.703.671 0 .141.062.266.093.329-.844-.329-1.39-1.157-1.39-2.485 0-1.906 1.109-2.64 1.984-2.64.906 0 2 .765 2 2.64M3.969-.234a1.694 1.694 0 0 1-.703.156.446.446 0 0 1-.485-.438.47.47 0 0 1 .485-.453c.39 0 .578.282.703.735m0 0"/><path id="k" d="M4.438 0v-.266c-.547 0-.61-.046-.61-.437v-2.781l-1.187.093v.266c.53 0 .593.047.593.438v1.374c0 .672-.406 1.172-1 1.172-.687 0-.718-.343-.718-.734v-2.61L.328-3.39v.266c.594 0 .594.016.594.719v1.187c0 .563 0 1.297 1.265 1.297.735 0 1.032-.562 1.063-.64h.016v.64Zm0 0"/><path id="l" d="M2.11 0v-.266c-.5 0-.61 0-.61-.343v-4.86L.328-5.39v.266c.547 0 .61.047.61.438V-.61c0 .343-.094.343-.61.343V0c.313-.031.75-.031.89-.031.157 0 .579 0 .891.031m0 0"/><path id="m" d="M4.438 0v-.266c-.516 0-.61 0-.61-.343v-1.782c0-.656-.297-1.093-1.125-1.093-.781 0-1.14.578-1.234.765v-.765l-1.14.093v.266c.53 0 .593.047.593.438V-.61c0 .343-.094.343-.594.343V0c.328-.031.688-.031.89-.031.235 0 .563 0 .907.031v-.266c-.5 0-.61 0-.61-.343v-1.438c0-.828.641-1.219 1.126-1.219.468 0 .593.344.593.844v1.813c0 .343-.093.343-.593.343V0c.328-.031.687-.031.89-.031.235 0 .563 0 .906.031m0 0"/><path id="n" d="M4.375 0v-.266c-.547 0-.61-.046-.61-.437V-5.47l-1.171.078v.266c.531 0 .61.047.61.438v1.671a1.4 1.4 0 0 0-1.063-.468c-.985 0-1.86.765-1.86 1.78A1.77 1.77 0 0 0 2.062.079c.47 0 .844-.219 1.11-.5v.5ZM3.172-.984c0 .14 0 .172-.125.343a1.17 1.17 0 0 1-.953.5 1.01 1.01 0 0 1-.86-.484c-.218-.312-.25-.687-.25-1.062 0-.454.063-.782.25-1.063.188-.281.547-.516.938-.516.39 0 .765.204 1 .61Zm0 0"/><path id="o" d="M3.484-.953c0-.094-.109-.094-.125-.094-.062 0-.093.016-.125.094-.046.156-.28.781-1.062.781-.485 0-1.188-.375-1.188-1.547 0-1.125.579-1.562 1.157-1.562.062 0 .484 0 .765.156-.219.063-.25.25-.25.344 0 .203.14.36.36.36.218 0 .375-.142.375-.376 0-.484-.532-.719-1.282-.719A1.807 1.807 0 0 0 .281-1.703c0 1 .813 1.781 1.813 1.781 1.11 0 1.39-.937 1.39-1.031m0 0"/><path id="p" d="M3.953-1.687c0-.985-.828-1.829-1.86-1.829-1.046 0-1.859.844-1.859 1.829 0 1 .844 1.765 1.86 1.765 1.015 0 1.86-.765 1.86-1.765M3.25-1.75c0 .36-.016.797-.25 1.125-.203.313-.562.453-.906.453-.422 0-.766-.203-.938-.469C.97-.969.938-1.359.938-1.75c0-.297 0-.781.25-1.11.203-.28.53-.437.906-.437.406 0 .75.203.922.469.218.328.234.765.234 1.078m0 0"/><path id="q" d="M2.047 0v-.266c-.516 0-.547-.03-.547-.343v-2.875l-1.14.093v.266c.5 0 .578.047.578.422V-.61c0 .343-.094.343-.61.343V0c.313-.031.75-.031.875-.031.094 0 .578 0 .844.031m-.438-4.75a.436.436 0 0 0-.437-.437.427.427 0 0 0-.438.437c0 .234.188.438.438.438a.447.447 0 0 0 .437-.438m0 0"/><path id="r" d="M6.14 0v-.266c-.28 0-.546 0-.78-.312L3.374-3.281l1.547-1.36c.516-.468.937-.484 1.11-.484v-.266c-.298.032-.313.032-.735.032-.39 0-.422 0-.938-.032v.266c.157 0 .297.078.297.234 0 .063-.031.172-.172.297L1.875-2.28V-4.75c0-.297.016-.375.625-.375h.172v-.266L1.5-5.359.344-5.391v.266h.172c.609 0 .625.078.625.375v4.11c0 .296-.016.374-.625.374H.344V0L1.5-.031 2.672 0v-.266H2.5c-.61 0-.625-.078-.625-.375v-1.312l1.016-.906L4.42-.75c.079.11.126.172.126.266 0 .218-.266.218-.406.218V0l1.078-.031c.203 0 .656 0 .922.031m0 0"/><path id="s" d="M4.688-3.016c0-1.828-1.016-3.125-2.094-3.125C1.484-6.14.5-4.812.5-3.016.5-1.187 1.5.11 2.594.11c1.094 0 2.094-1.328 2.094-3.125M4-3.125C4-1.656 3.36-.5 2.594-.5c-.781 0-1.422-1.156-1.422-2.625 0-1.437.687-2.422 1.422-2.422.719 0 1.406.969 1.406 2.422m0 0"/><path id="t" d="M4.36-.297c0-.312-.235-.312-.391-.312h-.89v-5.125c0-.157 0-.407-.298-.407-.187 0-.25.11-.297.235-.375.843-.89.953-1.078.968-.156.016-.375.032-.375.313 0 .234.188.297.328.297.188 0 .594-.063 1.032-.438v4.157h-.907c-.156 0-.39 0-.39.312 0 .297.25.297.39.297H3.97c.156 0 .39 0 .39-.297m0 0"/><path id="u" d="M2.375-1.5c0-.922-.516-1.562-1.062-1.562-.563 0-1.079.656-1.079 1.546C.234-.594.75.047 1.313.047c.562 0 1.062-.656 1.062-1.547M2-1.562c0 .718-.312 1.28-.687 1.28-.391 0-.704-.562-.704-1.28 0-.704.344-1.172.704-1.172.359 0 .687.468.687 1.172m0 0"/><path id="v" d="M2.234-.156c0-.172-.156-.172-.218-.172h-.453V-2.86c0-.063 0-.203-.157-.203-.11 0-.125.062-.156.109-.219.453-.437.484-.594.484-.078.016-.14.063-.14.172 0 .063.015.156.172.156.234 0 .437-.14.5-.187v2H.75c-.062 0-.219 0-.219.172C.531 0 .687 0 .75 0h1.266c.062 0 .218 0 .218-.156m0 0"/><path id="w" d="M2.422-1.5c0-.203-.188-.203-.235-.203H1.5v-.688c0-.046 0-.234-.187-.234-.188 0-.188.188-.188.234v.688H.438c-.063 0-.25 0-.25.187 0 .204.187.204.25.204h.687v.687c0 .047 0 .234.188.234.187 0 .187-.187.187-.234v-.687h.688c.046 0 .234 0 .234-.188m0 0"/><path id="y" d="M6.031-4.5 5.75-6.719H.328v.313h.235c.765 0 .78.11.78.468v5.172c0 .344-.015.454-.78.454H.328V0c.344-.031 1.11-.031 1.5-.031.406 0 1.297 0 1.656.031v-.312h-.328c-.937 0-.937-.125-.937-.47v-2.421h.86c.937 0 1.046.312 1.046 1.156h.234v-2.625h-.234c0 .828-.11 1.156-1.047 1.156h-.86v-2.5c0-.328.016-.39.485-.39h1.188c1.484 0 1.734.547 1.89 1.906Zm0 0"/><path id="z" d="M6.156-4.906c0-.969-.968-1.844-2.328-1.844H.344v.313h.234c.766 0 .781.109.781.468v5.203c0 .344-.015.454-.78.454H.343V0c.344-.031 1.078-.031 1.453-.031s1.11 0 1.469.031v-.312h-.25c-.75 0-.782-.11-.782-.454v-2.359h1.672c1.188 0 2.25-.797 2.25-1.781m-1.015 0c0 .468 0 1.531-1.563 1.531h-1.36v-2.672c0-.328.016-.39.485-.39h.875c1.563 0 1.563 1.046 1.563 1.53m0 0"/><path id="A" d="M7.266-2.39v-.313l-1.22.031c-.39 0-1.234 0-1.577-.031v.312h.312c.89 0 .922.11.922.47v.64c0 1.11-1.266 1.187-1.531 1.187-.64 0-2.61-.343-2.61-3.281 0-2.953 1.954-3.281 2.547-3.281 1.063 0 1.954.89 2.157 2.343.015.141.015.172.156.172.156 0 .156-.03.156-.25v-2.328c0-.172 0-.25-.11-.25-.046 0-.077 0-.155.125l-.5.735c-.313-.313-.844-.86-1.829-.86-1.828 0-3.437 1.563-3.437 3.594C.547-1.359 2.14.219 4.016.219c.718 0 1.5-.266 1.843-.844.125.219.516.61.625.61.094 0 .094-.079.094-.22v-1.718c0-.39.031-.438.688-.438m0 0"/><path id="B" d="M7.078 0v-.312h-.172c-.593 0-.734-.063-.843-.391L3.938-6.875c-.063-.125-.079-.203-.235-.203-.156 0-.187.062-.234.203L1.422-.969c-.172.5-.578.657-1.11.657V0l1.016-.031L2.453 0v-.312c-.484 0-.734-.235-.734-.5 0-.032.015-.125.015-.141l.454-1.297h2.437l.531 1.516a.368.368 0 0 1 .032.125c0 .297-.563.297-.829.297V0c.36-.031 1.047-.031 1.422-.031ZM4.516-2.562h-2.22l1.11-3.204Zm0 0"/><path id="C" d="M4.656-2.11c0-1.265-1-2.312-2.187-2.312C1.234-4.422.28-3.344.28-2.109.281-.844 1.297.109 2.453.109a2.204 2.204 0 0 0 2.203-2.218m-.828-.078c0 .344 0 .891-.219 1.313-.218.453-.64.734-1.14.734-.422 0-.86-.203-1.125-.656-.25-.437-.25-1.047-.25-1.39 0-.391 0-.922.234-1.36a1.324 1.324 0 0 1 1.125-.656c.438 0 .86.219 1.125.64.25.422.25 1 .25 1.376m0 0"/><path id="D" d="M5.203 0v-.312c-.687 0-.766-.063-.766-.547v-6l-1.421.109v.313c.687 0 .765.062.765.546v2.141a1.547 1.547 0 0 0-1.25-.61c-1.156 0-2.203.97-2.203 2.235 0 1.25.969 2.234 2.094 2.234.64 0 1.078-.343 1.328-.656V.11ZM3.75-1.172c0 .188 0 .203-.11.375-.296.469-.734.688-1.156.688-.453 0-.812-.25-1.046-.625-.25-.407-.282-.97-.282-1.375 0-.375.016-.97.313-1.407.203-.312.578-.625 1.11-.625.343 0 .765.141 1.062.579.109.171.109.187.109.374Zm0 0"/><path id="E" d="M4.094-1.172c0-.11-.078-.125-.125-.125-.094 0-.11.063-.125.14C3.5-.14 2.609-.14 2.516-.14c-.5 0-.891-.296-1.125-.656-.297-.484-.297-1.125-.297-1.484h2.75c.219 0 .25 0 .25-.203 0-.985-.532-1.938-1.766-1.938-1.14 0-2.047 1.016-2.047 2.25C.281-.844 1.312.11 2.453.11c1.203 0 1.64-1.093 1.64-1.28m-.64-1.312H1.108c.063-1.47.891-1.72 1.22-1.72 1.015 0 1.124 1.329 1.124 1.72m0 0"/><path id="F" d="M3.594-3.766c0-.312-.313-.593-.735-.593-.718 0-1.078.656-1.203 1.078V-4.36L.281-4.25v.297c.688 0 .766.078.766.562V-.75c0 .438-.11.438-.766.438V0l1.125-.031c.39 0 .86 0 1.25.031v-.312h-.203c-.734 0-.75-.11-.75-.454v-1.53c0-.97.406-1.845 1.156-1.845h.11a.43.43 0 0 0-.219.391c0 .281.203.422.422.422a.421.421 0 0 0 .422-.438m0 0"/><path id="G" d="M4.922-1.844c0-.984-.64-1.797-1.469-1.984l-1.265-.313c-.626-.14-1-.671-1-1.25 0-.687.53-1.296 1.296-1.296 1.657 0 1.875 1.625 1.938 2.062 0 .063 0 .125.11.125.124 0 .124-.047.124-.234V-6.72c0-.172 0-.25-.11-.25-.062 0-.077.016-.14.14l-.343.563c-.297-.296-.704-.703-1.579-.703-1.109 0-1.937.875-1.937 1.922 0 .828.531 1.547 1.297 1.813.11.03.61.156 1.312.328.266.062.563.125.828.5.22.25.313.578.313.906 0 .703-.5 1.406-1.328 1.406-.281 0-1.031-.047-1.563-.531-.562-.531-.593-1.156-.61-1.516 0-.093-.077-.093-.109-.093-.14 0-.14.062-.14.234v1.984c0 .157 0 .235.11.235.077 0 .077-.016.155-.125 0 0 .032-.047.36-.563.297.328.937.688 1.812.688 1.157 0 1.938-.969 1.938-2.063m0 0"/><path id="H" d="M3.531-6.266c0-.375-.375-.703-.89-.703A1.54 1.54 0 0 0 1.109-5.39v1.141H.33v.297h.78V-.75c0 .438-.109.438-.78.438V0l1.14-.031c.39 0 .86 0 1.25.031v-.312h-.203c-.735 0-.766-.11-.766-.454v-3.187h1.14v-.297H1.735v-1.156c0-.86.47-1.344.907-1.344.03 0 .172 0 .328.078a.418.418 0 0 0-.297.406c0 .235.156.422.422.422.281 0 .437-.187.437-.422m0 0"/><path id="I" d="M3.281-1.219v-.562h-.25v.531c0 .734-.297 1.11-.656 1.11-.672 0-.672-.891-.672-1.063v-2.75h1.422v-.297H1.703v-1.828H1.47c-.016.812-.313 1.875-1.281 1.906v.219h.843v2.734C1.031-.016 1.953.11 2.297.11c.703 0 .984-.703.984-1.328m0 0"/><path id="J" d="M6.938-3.953v-.297c-.22.016-.5.031-.72.031l-.921-.031v.297c.36.015.578.187.578.484 0 .047 0 .078-.047.203L4.922-.734 3.953-3.5c-.047-.11-.047-.14-.047-.187 0-.266.375-.266.578-.266v-.297l-1.03.031c-.298 0-.579-.015-.876-.031v.297c.36 0 .516.015.625.156.047.047.156.344.219.531L2.578-.875 1.641-3.5c-.047-.125-.047-.14-.047-.187 0-.266.375-.266.578-.266v-.297l-1.078.031-.922-.031v.297c.5 0 .625.031.734.344l1.25 3.5c.047.14.078.218.203.218s.157-.062.204-.203l1-2.797 1 2.813c.046.11.062.187.203.187.125 0 .156-.093.187-.187L6.11-3.312c.188-.5.485-.626.829-.641m0 0"/><path id="K" d="M4.766-.875v-.562h-.25v.562c0 .563-.235.625-.344.625-.328 0-.375-.437-.375-.484V-2.72c0-.406 0-.797-.344-1.156-.39-.39-.89-.547-1.36-.547-.812 0-1.484.469-1.484 1.11 0 .296.188.468.454.468a.444.444 0 0 0 .453-.453c0-.125-.047-.453-.516-.453.281-.344.75-.453 1.078-.453.485 0 1.047.375 1.047 1.266v.359c-.516.031-1.203.062-1.828.36-.734.327-.984.843-.984 1.28C.313-.14 1.28.11 1.89.11 2.547.11 3-.28 3.188-.75c.046.39.312.813.765.813.219 0 .813-.141.813-.938m-1.641-.5c0 .938-.719 1.266-1.156 1.266-.485 0-.89-.344-.89-.844 0-.531.405-1.36 2.046-1.422Zm0 0"/><clipPath id="a"><path d="M.793 29H32v17H.793Zm0 0"/></clipPath><clipPath id="b"><path d="M.793 59H32v17H.793Zm0 0"/></clipPath><clipPath id="x"><path d="M8 14h199v69.414H8Zm0 0"/></clipPath></defs><g clip-path="url(#a)"><path fill="none" stroke="#000" stroke-miterlimit="10" stroke-width=".39525738" d="M.996 29.758h15.215v15.215h7.61m0 0h7.609"/></g><path d="M27.254 44.973v1.968l4.176-1.968-4.176-1.965Zm0 0"/><g clip-path="url(#b)"><path fill="none" stroke="#000" stroke-miterlimit="10" stroke-width=".39525738" d="M.996 75.41h15.215V60.191h7.61m0 0h7.609"/></g><path d="M27.254 60.191v1.965l4.176-1.965-4.176-1.964Zm0 0"/><path fill="none" stroke="#000" stroke-miterlimit="10" stroke-width=".39525738" d="M31.43 52.582h1.457m27.52 0h33.351m27.52 0h33.351m27.52 0h20.48m0 0h19.024"/><path fill="none" stroke="#000" stroke-miterlimit="10" stroke-width=".78952414" d="M32.887 38.824h27.52v27.52h-27.52Zm0 0"/><path fill="none" stroke="#000" stroke-miterlimit="10" stroke-width=".39525738" d="m32.887 66.344 27.52-27.52"/><use xlink:href="#c" x="25.969" y="34.258"/><use xlink:href="#d" x="32.373" y="34.258"/><use xlink:href="#e" x="36.099" y="34.258"/><use xlink:href="#f" x="38.894" y="34.258"/><use xlink:href="#g" x="46.576" y="34.258"/><use xlink:href="#h" x="50.769" y="34.258"/><use xlink:href="#h" x="55.427" y="34.258"/><use xlink:href="#d" x="60.322" y="34.258"/><use xlink:href="#i" x="64.049" y="34.258"/><path fill="none" stroke="#000" stroke-miterlimit="10" stroke-width=".78952414" d="M93.758 38.824h27.52v27.52h-27.52Zm0 0"/><path d="M89.582 52.582v1.969l4.176-1.969-4.176-1.965Zm0 0"/><path fill="none" stroke="#000" stroke-miterlimit="10" stroke-width=".39525738" d="m93.758 66.344 27.52-27.52"/><use xlink:href="#j" x="74.779" y="77.604"/><use xlink:href="#k" x="81.301" y="77.604"/><use xlink:href="#d" x="85.959" y="77.604"/><use xlink:href="#l" x="89.686" y="77.604"/><use xlink:href="#l" x="92.015" y="77.604"/><use xlink:href="#d" x="94.344" y="77.604"/><use xlink:href="#m" x="98.071" y="77.604"/><use xlink:href="#n" x="102.729" y="77.604"/><use xlink:href="#d" x="107.387" y="77.604"/><use xlink:href="#o" x="111.114" y="77.604"/><use xlink:href="#p" x="114.841" y="77.604"/><use xlink:href="#n" x="119.27" y="77.604"/><use xlink:href="#q" x="123.928" y="77.604"/><use xlink:href="#d" x="126.257" y="77.604"/><use xlink:href="#i" x="129.984" y="77.604"/><use xlink:href="#d" x="133.253" y="77.604"/><use xlink:href="#i" x="136.979" y="77.604"/><path fill="none" stroke="#000" stroke-miterlimit="10" stroke-width=".78952414" d="M154.63 38.824h27.519v27.52h-27.52Zm0 0"/><path d="M150.453 52.582v1.969l4.176-1.969-4.176-1.965Zm0 0"/><path fill="none" stroke="#000" stroke-miterlimit="10" stroke-width=".39525738" d="m154.63 66.344 27.519-27.52"/><use xlink:href="#r" x="138.682" y="34.258"/><use xlink:href="#g" x="145.195" y="34.258"/><use xlink:href="#m" x="149.388" y="34.258"/><use xlink:href="#g" x="154.046" y="34.258"/><use xlink:href="#l" x="158.238" y="34.258"/><use xlink:href="#n" x="160.568" y="34.258"/><use xlink:href="#d" x="165.226" y="34.258"/><use xlink:href="#o" x="168.952" y="34.258"/><use xlink:href="#p" x="172.679" y="34.258"/><use xlink:href="#n" x="177.108" y="34.258"/><use xlink:href="#q" x="181.767" y="34.258"/><use xlink:href="#d" x="184.096" y="34.258"/><use xlink:href="#i" x="187.822" y="34.258"/><use xlink:href="#d" x="191.091" y="34.258"/><use xlink:href="#i" x="194.818" y="34.258"/><path d="M217.477 52.582v1.969l4.175-1.969-4.175-1.965Zm0 0"/><path fill="none" stroke="#000" stroke-miterlimit="10" stroke-width=".78952414" d="M40.563 40.41v12.172M34.473 46.496h12.176"/><path stroke="#000" stroke-miterlimit="10" stroke-width=".39525738" d="M38.504 43.453a.987.987 0 1 0-1.973 0c0 .543.442.988.985.988a.99.99 0 0 0 .988-.988ZM44.59 43.453a.986.986 0 1 0-1.973 0 .99.99 0 0 0 .989.988.989.989 0 0 0 .984-.988ZM38.504 49.54a.99.99 0 0 0-.988-.99.989.989 0 0 0 0 1.977.987.987 0 0 0 .988-.988ZM44.59 49.54a.989.989 0 0 0-.984-.99.99.99 0 0 0 0 1.977.986.986 0 0 0 .984-.988Zm0 0"/><use xlink:href="#s" x="46.028" y="63.208"/><use xlink:href="#t" x="51.209" y="63.208"/><use xlink:href="#u" x="157.269" y="46.482"/><use xlink:href="#v" x="159.889" y="46.482"/><use xlink:href="#w" x="162.509" y="46.482"/><use xlink:href="#u" x="165.129" y="46.482"/><use xlink:href="#v" x="167.75" y="46.482"/><use xlink:href="#s" x="167.768" y="63.208"/><use xlink:href="#t" x="172.95" y="63.208"/><use xlink:href="#s" x="97.768" y="47.99"/><use xlink:href="#t" x="102.949" y="47.99"/><use xlink:href="#u" x="106.839" y="61.7"/><use xlink:href="#v" x="109.459" y="61.7"/><use xlink:href="#u" x="112.08" y="61.7"/><use xlink:href="#v" x="114.7" y="61.7"/><g clip-path="url(#x)"><path fill="none" stroke="#7F7F7F" stroke-dasharray="2.9607947746 2.9607947746" stroke-miterlimit="10" stroke-width=".78952414" d="M8.606 83.02V14.539h197.828v68.48Zm0 0"/></g><g fill="#7F7F7F"><use xlink:href="#y" x="62.076" y="10.356"/><use xlink:href="#z" x="68.52" y="10.356"/><use xlink:href="#A" x="75.241" y="10.356"/><use xlink:href="#B" x="82.989" y="10.356"/></g><use xlink:href="#C" x="93.677" y="10.356" fill="#7F7F7F"/><g fill="#7F7F7F"><use xlink:href="#D" x="98.888" y="10.356"/><use xlink:href="#E" x="104.375" y="10.356"/><use xlink:href="#F" x="108.757" y="10.356"/></g><g fill="#7F7F7F"><use xlink:href="#G" x="115.912" y="10.356"/><use xlink:href="#C" x="121.4" y="10.356"/><use xlink:href="#H" x="126.334" y="10.356"/><use xlink:href="#I" x="129.354" y="10.356"/></g><use xlink:href="#J" x="132.917" y="10.356" fill="#7F7F7F"/><g fill="#7F7F7F"><use xlink:href="#K" x="139.776" y="10.356"/><use xlink:href="#F" x="144.711" y="10.356"/><use xlink:href="#E" x="148.579" y="10.356"/></g></svg>