<svg xmlns="http://www.w3.org/2000/svg" xmlns:xlink="http://www.w3.org/1999/xlink" width="224.343" height="94.07"><defs><path id="b" d="M6.14 0v-.266c-.28 0-.546 0-.78-.312L3.374-3.281l1.547-1.36c.516-.468.937-.484 1.11-.484v-.266c-.298.032-.313.032-.735.032-.39 0-.422 0-.938-.032v.266c.157 0 .297.078.297.234 0 .063-.031.172-.172.297L1.875-2.28V-4.75c0-.297.016-.375.625-.375h.172v-.266L1.5-5.359.344-5.391v.266h.172c.609 0 .625.078.625.375v4.11c0 .296-.016.374-.625.374H.344V0L1.5-.031 2.672 0v-.266H2.5c-.61 0-.625-.078-.625-.375v-1.312l1.016-.906L4.42-.75c.079.11.126.172.126.266 0 .218-.266.218-.406.218V0l1.078-.031c.203 0 .656 0 .922.031m0 0"/><path id="c" d="M4.063-.703v-.438h-.25v.438c0 .312-.126.437-.282.437-.297 0-.297-.359-.297-.437v-1.64c0-.782-.75-1.173-1.468-1.173-.657 0-1.235.25-1.235.766 0 .234.156.375.375.375s.36-.156.36-.36c0-.187-.11-.328-.282-.359.282-.203.72-.203.766-.203.438 0 .89.313.89.953v.25c-.468.016-.984.047-1.546.266-.688.312-.828.766-.828 1.016 0 .687.797.89 1.343.89a1.23 1.23 0 0 0 1.11-.64c.031.296.234.609.594.609.078 0 .75-.031.75-.75M2.64-1.11c0 .765-.657.968-.97.968-.405 0-.75-.28-.75-.656 0-.515.485-1.062 1.72-1.094Zm0 0"/><path id="d" d="M4.438 0v-.266c-.516 0-.61 0-.61-.343v-1.782c0-.656-.297-1.093-1.125-1.093-.781 0-1.14.578-1.234.765v-.765l-1.14.093v.266c.53 0 .593.047.593.438V-.61c0 .343-.094.343-.594.343V0c.328-.031.688-.031.89-.031.235 0 .563 0 .907.031v-.266c-.5 0-.61 0-.61-.343v-1.438c0-.828.641-1.219 1.126-1.219.468 0 .593.344.593.844v1.813c0 .343-.093.343-.593.343V0c.328-.031.687-.031.89-.031.235 0 .563 0 .906.031m0 0"/><path id="e" d="M2.11 0v-.266c-.5 0-.61 0-.61-.343v-4.86L.328-5.39v.266c.547 0 .61.047.61.438V-.61c0 .343-.094.343-.61.343V0c.313-.031.75-.031.89-.031.157 0 .579 0 .891.031m0 0"/><path id="f" d="M3.484-.953c0-.094-.109-.094-.125-.094-.062 0-.093.016-.125.094-.046.156-.28.781-1.062.781-.485 0-1.188-.375-1.188-1.547 0-1.125.579-1.562 1.157-1.562.062 0 .484 0 .765.156-.219.063-.25.25-.25.344 0 .203.14.36.36.36.218 0 .375-.142.375-.376 0-.484-.532-.719-1.282-.719A1.807 1.807 0 0 0 .281-1.703c0 1 .813 1.781 1.813 1.781 1.11 0 1.39-.937 1.39-1.031m0 0"/><path id="g" d="M3.953-1.687c0-.985-.828-1.829-1.86-1.829-1.046 0-1.859.844-1.859 1.829 0 1 .844 1.765 1.86 1.765 1.015 0 1.86-.765 1.86-1.765M3.25-1.75c0 .36-.016.797-.25 1.125-.203.313-.562.453-.906.453-.422 0-.766-.203-.938-.469C.97-.969.938-1.359.938-1.75c0-.297 0-.781.25-1.11.203-.28.53-.437.906-.437.406 0 .75.203.922.469.218.328.234.765.234 1.078m0 0"/><path id="h" d="M4.375 0v-.266c-.547 0-.61-.046-.61-.437V-5.47l-1.171.078v.266c.531 0 .61.047.61.438v1.671a1.4 1.4 0 0 0-1.063-.468c-.985 0-1.86.765-1.86 1.78A1.77 1.77 0 0 0 2.062.079c.47 0 .844-.219 1.11-.5v.5ZM3.172-.984c0 .14 0 .172-.125.343a1.17 1.17 0 0 1-.953.5 1.01 1.01 0 0 1-.86-.484c-.218-.312-.25-.687-.25-1.062 0-.454.063-.782.25-1.063.188-.281.547-.516.938-.516.39 0 .765.204 1 .61Zm0 0"/><path id="i" d="M2.047 0v-.266c-.516 0-.547-.03-.547-.343v-2.875l-1.14.093v.266c.5 0 .578.047.578.422V-.61c0 .343-.094.343-.61.343V0c.313-.031.75-.031.875-.031.094 0 .578 0 .844.031m-.438-4.75a.436.436 0 0 0-.437-.437.427.427 0 0 0-.438.437c0 .234.188.438.438.438a.447.447 0 0 0 .437-.438m0 0"/><path id="j" d="M3.484-.953a.12.12 0 0 0-.125-.11c-.093 0-.109.063-.125.11a1.141 1.141 0 0 1-1.109.781 1.13 1.13 0 0 1-.953-.516C.938-1.062.938-1.561.938-1.796h2.328c.172 0 .218 0 .218-.187 0-.703-.39-1.532-1.5-1.532-.984 0-1.75.813-1.75 1.782 0 1.03.86 1.812 1.844 1.812 1 0 1.406-.844 1.406-1.031M2.938-2H.952c.063-1.11.735-1.297 1.031-1.297.922 0 .954 1.11.954 1.297m0 0"/><path id="k" d="M3.031-2.984c0-.282-.25-.5-.594-.5-.515 0-.874.39-1.03.828H1.39v-.828l-1.11.093v.266c.532 0 .594.047.594.438V-.61c0 .343-.094.343-.594.343V0c.297-.031.735-.031.922-.031.469 0 .484 0 1 .031v-.266h-.156c-.578 0-.594-.078-.594-.359v-1.172c0-.594.25-1.453 1-1.469-.047.032-.125.094-.125.282 0 .25.188.359.344.359.187 0 .36-.125.36-.36m0 0"/><path id="l" d="M7.281 0v-.266H7.11c-.609 0-.625-.078-.625-.375V-4.75c0-.297.016-.375.625-.375h.172v-.266H5.953c-.219 0-.234.032-.281.172L3.828-.75 2-5.203c-.062-.156-.062-.188-.281-.188H.39v.266h.172c.609 0 .625.078.625.375v3.906c0 .203 0 .578-.797.578V0c.343-.031.718-.031.922-.031.203 0 .578 0 .937.031v-.266c-.797 0-.797-.375-.797-.578v-4.203l2 4.86c.047.093.078.187.188.187.093 0 .14-.094.172-.187L5.828-5.11l.016.015V-.64c0 .297-.016.375-.625.375h-.172V0l1.11-.031Zm0 0"/><path id="m" d="M4.375-1.703c0-.984-.797-1.781-1.75-1.781-.312 0-.766.078-1.172.5v-.5l-1.172.093v.266c.563 0 .594.047.594.375V.922c0 .344-.094.344-.594.344v.265C.61 1.5.97 1.5 1.171 1.5c.235 0 .563 0 .907.031v-.265c-.515 0-.61 0-.61-.344V-.391c.376.407.782.47 1.032.47 1 0 1.875-.766 1.875-1.782m-.703 0c0 .906-.578 1.562-1.203 1.562-.281 0-.64-.125-.906-.515-.094-.14-.094-.14-.094-.297v-1.672c.187-.312.578-.61 1.078-.61.61 0 1.125.672 1.125 1.532m0 0"/><path id="n" d="M6.094.078c0-.078 0-.187-.11-.187-.093 0-.109.078-.109.14-.047.485-.437.672-.75.672-.328 0-.531-.187-.781-.765.718-.282 1.703-1.188 1.703-2.61 0-1.594-1.25-2.89-2.781-2.89-1.563 0-2.797 1.312-2.797 2.89C.469-1.078 1.734.172 3.266.172c.25 0 .515-.047.765-.11.157.797.297 1.47 1.032 1.47.828 0 1.03-1.016 1.03-1.454m-.844-2.75c0 .985-.312 1.828-1.031 2.313-.313-.735-.688-.828-.953-.828-.407 0-.703.296-.703.671 0 .141.062.266.093.329-.844-.329-1.39-1.157-1.39-2.485 0-1.906 1.109-2.64 1.984-2.64.906 0 2 .765 2 2.64M3.969-.234a1.694 1.694 0 0 1-.703.156.446.446 0 0 1-.485-.438.47.47 0 0 1 .485-.453c.39 0 .578.282.703.735m0 0"/><path id="o" d="M4.438 0v-.266c-.547 0-.61-.046-.61-.437v-2.781l-1.187.093v.266c.53 0 .593.047.593.438v1.374c0 .672-.406 1.172-1 1.172-.687 0-.718-.343-.718-.734v-2.61L.328-3.39v.266c.594 0 .594.016.594.719v1.187c0 .563 0 1.297 1.265 1.297.735 0 1.032-.562 1.063-.64h.016v.64Zm0 0"/><path id="p" d="M2.375-1.5c0-.922-.516-1.562-1.062-1.562-.563 0-1.079.656-1.079 1.546C.234-.594.75.047 1.313.047c.562 0 1.062-.656 1.062-1.547M2-1.562c0 .718-.312 1.28-.687 1.28-.391 0-.704-.562-.704-1.28 0-.704.344-1.172.704-1.172.359 0 .687.468.687 1.172m0 0"/><path id="q" d="M2.234-.156c0-.172-.156-.172-.218-.172h-.453V-2.86c0-.063 0-.203-.157-.203-.11 0-.125.062-.156.109-.219.453-.437.484-.594.484-.078.016-.14.063-.14.172 0 .063.015.156.172.156.234 0 .437-.14.5-.187v2H.75c-.062 0-.219 0-.219.172C.531 0 .687 0 .75 0h1.266c.062 0 .218 0 .218-.156m0 0"/><path id="t" d="M2.422-1.5c0-.203-.188-.203-.235-.203H1.5v-.688c0-.046 0-.234-.187-.234-.188 0-.188.188-.188.234v.688H.438c-.063 0-.25 0-.25.187 0 .204.187.204.25.204h.687v.687c0 .047 0 .234.188.234.187 0 .187-.187.187-.234v-.687h.688c.046 0 .234 0 .234-.188m0 0"/><path id="r" d="M4.672-3c0-1.844-1-3.125-2.094-3.125C1.484-6.125.5-4.812.5-3.015.5-1.188 1.5.108 2.578.108 3.688.11 4.672-1.219 4.672-3M4-3.11C4-1.655 3.36-.5 2.578-.5c-.765 0-1.406-1.156-1.406-2.61 0-1.453.687-2.421 1.406-2.421C3.297-5.531 4-4.563 4-3.11m0 0"/><path id="s" d="M4.36-.297c0-.297-.235-.297-.391-.297h-.906v-5.14c0-.157 0-.391-.297-.391-.188 0-.235.11-.297.234-.375.829-.875.938-1.063.97-.156 0-.375.015-.375.296 0 .25.188.297.328.297.188 0 .594-.063 1.032-.438v4.172h-.907c-.156 0-.39 0-.39.297s.25.297.39.297H3.97c.14 0 .39 0 .39-.297m0 0"/><path id="v" d="m6.016-4.484-.282-2.22H.328v.298h.235c.765 0 .78.11.78.468v5.172c0 .344-.015.454-.78.454H.328V0c.344-.031 1.11-.031 1.5-.031.406 0 1.297 0 1.656.031v-.312h-.328c-.937 0-.937-.125-.937-.47v-2.421h.844c.953 0 1.046.312 1.046 1.156h.25v-2.61h-.25c0 .829-.093 1.141-1.046 1.141h-.844V-6c0-.328.015-.406.484-.406h1.188c1.468 0 1.718.562 1.875 1.922Zm0 0"/><path id="w" d="M6.156-4.906c0-.953-.984-1.828-2.328-1.828H.344v.312h.234c.766 0 .781.11.781.453v5.203c0 .344-.015.454-.78.454H.343V0c.344-.031 1.078-.031 1.453-.031s1.11 0 1.453.031v-.312h-.234c-.766 0-.782-.11-.782-.454v-2.343h1.672c1.188 0 2.25-.813 2.25-1.797m-1.015 0c0 .468 0 1.531-1.578 1.531h-1.36v-2.656c0-.328.031-.39.485-.39h.874c1.579 0 1.579 1.03 1.579 1.515m0 0"/><path id="x" d="M7.25-2.39v-.297l-1.203.03c-.39 0-1.234 0-1.594-.03v.296h.313c.89 0 .922.11.922.485v.625c0 1.11-1.25 1.187-1.532 1.187-.64 0-2.593-.343-2.593-3.281 0-2.937 1.953-3.266 2.53-3.266 1.063 0 1.954.875 2.157 2.329.016.14.016.171.156.171.157 0 .157-.03.157-.234v-2.344c0-.156 0-.234-.11-.234-.031 0-.078 0-.156.125l-.484.719c-.329-.313-.86-.844-1.829-.844-1.828 0-3.437 1.562-3.437 3.578C.547-1.344 2.125.219 4 .219c.719 0 1.516-.266 1.844-.844.125.219.531.61.64.61.079 0 .079-.079.079-.22v-1.718c0-.39.046-.438.687-.438m0 0"/><path id="y" d="M7.063 0v-.312H6.89c-.594 0-.735-.063-.844-.391L3.922-6.86c-.047-.125-.063-.203-.219-.203s-.187.062-.25.203L1.422-.97c-.172.5-.578.657-1.11.657V0l1.016-.031L2.453 0v-.312c-.484 0-.734-.235-.734-.5 0-.032 0-.125.015-.141l.454-1.297h2.437l.516 1.516a.373.373 0 0 1 .03.14c0 .282-.546.282-.812.282V0c.36-.031 1.047-.031 1.422-.031ZM4.515-2.547h-2.22l1.11-3.219Zm0 0"/><path id="z" d="M4.64-2.11c0-1.265-.984-2.312-2.171-2.312C1.234-4.422.28-3.344.28-2.109.281-.844 1.297.109 2.453.109a2.2 2.2 0 0 0 2.188-2.218m-.812-.078c0 .36 0 .891-.219 1.313a1.267 1.267 0 0 1-1.14.734c-.422 0-.86-.203-1.125-.656-.25-.437-.25-1.031-.25-1.39 0-.391 0-.922.234-1.36a1.324 1.324 0 0 1 1.125-.656c.438 0 .86.219 1.11.64.265.422.265 1 .265 1.376m0 0"/><path id="A" d="M5.203 0v-.312c-.703 0-.781-.063-.781-.547v-5.985L3-6.734v.312c.703 0 .781.063.781.547v2.125c-.297-.344-.719-.61-1.25-.61-1.156 0-2.203.97-2.203 2.235 0 1.25.969 2.234 2.094 2.234.64 0 1.078-.343 1.328-.656V.11ZM3.75-1.156c0 .172 0 .187-.11.36-.296.468-.734.687-1.171.687-.438 0-.797-.25-1.031-.625-.25-.407-.282-.97-.282-1.375 0-.36.016-.953.297-1.407.219-.296.594-.625 1.125-.625.344 0 .75.141 1.063.594.109.172.109.188.109.36Zm0 0"/><path id="B" d="M4.094-1.172c0-.094-.078-.125-.125-.125-.094 0-.11.063-.14.14C3.483-.14 2.608-.14 2.5-.14c-.484 0-.89-.296-1.11-.656-.296-.469-.296-1.125-.296-1.484h2.75c.219 0 .25 0 .25-.203 0-.97-.532-1.938-1.766-1.938-1.14 0-2.047 1.016-2.047 2.25C.281-.844 1.312.11 2.438.11 3.64.11 4.093-.984 4.093-1.17m-.657-1.312H1.11c.047-1.47.875-1.72 1.22-1.72 1.015 0 1.108 1.329 1.108 1.72m0 0"/><path id="C" d="M3.594-3.75c0-.328-.313-.61-.735-.61-.718 0-1.078.657-1.218 1.094v-1.093L.28-4.25v.313c.688 0 .766.062.766.546V-.75c0 .438-.11.438-.766.438V0l1.125-.031c.39 0 .844 0 1.25.031v-.312h-.219c-.718 0-.734-.11-.734-.454V-2.28c0-.985.406-1.86 1.156-1.86.063 0 .094 0 .11.016-.031 0-.235.125-.235.375 0 .281.22.422.438.422.172 0 .422-.11.422-.422m0 0"/><path id="D" d="M4.922-1.828c0-.984-.656-1.797-1.484-2l-1.266-.297a1.296 1.296 0 0 1-.985-1.266 1.27 1.27 0 0 1 1.297-1.28c1.641 0 1.86 1.609 1.922 2.062.016.046.016.109.125.109.125 0 .125-.047.125-.234V-6.72c0-.156 0-.234-.11-.234-.077 0-.077.016-.155.125l-.344.562c-.297-.28-.688-.687-1.578-.687A1.91 1.91 0 0 0 .547-5.031c0 .812.531 1.531 1.297 1.797.11.046.61.156 1.297.328.265.062.562.14.843.5.204.25.297.578.297.906 0 .703-.484 1.406-1.312 1.406-.281 0-1.031-.047-1.563-.531-.562-.531-.593-1.156-.61-1.516-.015-.093-.093-.093-.109-.093-.14 0-.14.062-.14.25v1.968c0 .157 0 .235.11.235.077 0 .077-.016.155-.125 0 0 .032-.047.344-.563.313.328.938.688 1.828.688 1.141 0 1.938-.969 1.938-2.047m0 0"/><path id="E" d="M3.516-6.266c0-.359-.36-.687-.891-.687-.687 0-1.516.531-1.516 1.562v1.141H.33v.313h.78V-.75c0 .438-.109.438-.78.438V0l1.124-.031c.406 0 .86 0 1.266.031v-.312H2.5c-.719 0-.75-.11-.75-.454v-3.171h1.125v-.313H1.719v-1.14c0-.876.484-1.344.906-1.344.031 0 .188 0 .328.062-.11.047-.297.172-.297.422 0 .219.156.422.438.422.281 0 .422-.203.422-.438m0 0"/><path id="F" d="M3.266-1.219v-.562H3.03v.531c0 .734-.297 1.11-.672 1.11-.656 0-.656-.891-.656-1.063v-2.734H3.11v-.313H1.703v-1.812h-.25c0 .812-.297 1.859-1.265 1.906v.218h.843v2.72c0 1.202.907 1.327 1.266 1.327.703 0 .969-.703.969-1.328m0 0"/><path id="G" d="M6.938-3.937v-.313c-.22.016-.516.031-.72.031l-.921-.031v.313c.36 0 .562.187.562.468 0 .063 0 .078-.046.203L4.922-.734l-.984-2.75c-.032-.125-.047-.141-.047-.188 0-.265.39-.265.578-.265v-.313l-1.016.031c-.297 0-.578-.015-.875-.031v.313c.36 0 .516.015.61.14.062.063.171.36.234.547L2.578-.875 1.641-3.5c-.047-.125-.047-.14-.047-.172 0-.265.375-.265.578-.265v-.313l-1.078.031-.922-.031v.313c.5 0 .61.015.734.343l1.25 3.485c.047.14.078.218.203.218s.141-.062.188-.203l1-2.781L4.562-.078c.032.11.063.187.188.187s.156-.093.203-.187L6.11-3.312c.172-.5.485-.626.829-.626m0 0"/><path id="H" d="M4.766-.875v-.547h-.25v.547c0 .563-.25.625-.36.625-.328 0-.36-.437-.36-.484V-2.72c0-.406 0-.797-.358-1.156-.376-.39-.876-.547-1.344-.547-.813 0-1.5.469-1.5 1.125 0 .297.203.453.469.453a.435.435 0 0 0 .453-.453c0-.11-.063-.437-.516-.453.266-.344.75-.453 1.078-.453.469 0 1.031.39 1.031 1.266v.359c-.5.031-1.187.062-1.812.36-.734.327-.984.843-.984 1.28C.313-.14 1.265.11 1.89.11 2.547.11 3-.28 3.188-.75c.03.39.296.813.765.813.203 0 .813-.141.813-.938m-1.657-.5c0 .938-.703 1.266-1.14 1.266-.485 0-.89-.344-.89-.844 0-.531.405-1.36 2.03-1.406Zm0 0"/><clipPath id="a"><path d="M.773 53H189v1H.773Zm0 0"/></clipPath><clipPath id="u"><path d="M8 14h189v79.148H8Zm0 0"/></clipPath></defs><g clip-path="url(#a)"><path fill="none" stroke="#000" stroke-miterlimit="10" stroke-width=".39509379000000006" d="M.973 53.742h15.601m0 0h17.457m27.508 0h34.914m27.508 0h34.91m27.508 0h1.852"/></g><path fill="none" stroke="#000" stroke-miterlimit="10" stroke-width=".7891973700000001" d="M34.031 39.988H61.54v27.508H34.031Zm0 0"/><path d="M29.855 53.742v1.965l4.176-1.965-4.176-1.965Zm0 0"/><path fill="none" stroke="#000" stroke-miterlimit="10" stroke-width=".39509379000000006" d="M34.031 67.496 61.54 39.988"/><use xlink:href="#b" x="22.285" y="35.425"/><use xlink:href="#c" x="28.796" y="35.425"/><use xlink:href="#d" x="32.987" y="35.425"/><use xlink:href="#c" x="37.643" y="35.425"/><use xlink:href="#e" x="41.834" y="35.425"/><use xlink:href="#f" x="44.162" y="35.425"/><use xlink:href="#g" x="47.887" y="35.425"/><use xlink:href="#h" x="52.315" y="35.425"/><use xlink:href="#i" x="56.971" y="35.425"/><use xlink:href="#j" x="59.299" y="35.425"/><use xlink:href="#k" x="63.024" y="35.425"/><use xlink:href="#j" x="66.291" y="35.425"/><use xlink:href="#k" x="70.016" y="35.425"/><path fill="none" stroke="#000" stroke-miterlimit="10" stroke-width=".7891973700000001" d="M96.453 39.988h27.508v27.508H96.453Zm0 0"/><path d="M92.277 53.742v1.965l4.176-1.965-4.176-1.965Zm0 0"/><path fill="none" stroke="#000" stroke-miterlimit="10" stroke-width=".39509379000000006" d="m96.453 67.496 27.508-27.508"/><use xlink:href="#l" x="95.998" y="78.752"/><use xlink:href="#c" x="103.677" y="78.752"/><use xlink:href="#m" x="107.868" y="78.752"/><use xlink:href="#m" x="112.524" y="78.752"/><use xlink:href="#j" x="117.418" y="78.752"/><use xlink:href="#k" x="121.143" y="78.752"/><path fill="none" stroke="#000" stroke-miterlimit="10" stroke-width=".7891973700000001" d="M158.871 39.988h27.508v27.508h-27.508Zm0 0"/><path fill="none" stroke="#000" stroke-miterlimit="10" stroke-width=".39509379000000006" d="m158.871 67.496 27.508-27.508"/><use xlink:href="#n" x="130.124" y="35.425"/><use xlink:href="#o" x="136.643" y="35.425"/><use xlink:href="#j" x="141.299" y="35.425"/><use xlink:href="#e" x="145.024" y="35.425"/><use xlink:href="#e" x="147.352" y="35.425"/><use xlink:href="#j" x="149.681" y="35.425"/><use xlink:href="#d" x="153.406" y="35.425"/><use xlink:href="#f" x="158.062" y="35.425"/><use xlink:href="#g" x="161.787" y="35.425"/><use xlink:href="#h" x="166.215" y="35.425"/><use xlink:href="#i" x="170.871" y="35.425"/><use xlink:href="#j" x="173.199" y="35.425"/><use xlink:href="#k" x="176.924" y="35.425"/><use xlink:href="#j" x="180.191" y="35.425"/><use xlink:href="#k" x="183.916" y="35.425"/><path fill="none" stroke="#000" stroke-miterlimit="10" stroke-width=".39509379000000006" d="M188.23 45.941h15.606V30.336h7.805m0 0h7.8"/><path d="M215.266 30.336V32.3l4.175-1.965-4.175-1.965Zm0 0"/><path fill="none" stroke="#000" stroke-miterlimit="10" stroke-width=".39509379000000006" d="M188.23 61.547h15.606v15.601h7.805m0 0h7.8"/><path d="M215.266 77.148v1.965l4.175-1.965-4.175-1.964Zm0 0"/><use xlink:href="#p" x="162.704" y="47.447"/><use xlink:href="#q" x="165.323" y="47.447"/><use xlink:href="#p" x="167.942" y="47.447"/><use xlink:href="#q" x="170.561" y="47.447"/><use xlink:href="#r" x="172.126" y="64.559"/><use xlink:href="#s" x="177.305" y="64.559"/><use xlink:href="#r" x="37.925" y="48.954"/><use xlink:href="#s" x="43.104" y="48.954"/><use xlink:href="#p" x="45.918" y="63.052"/><use xlink:href="#q" x="48.537" y="63.052"/><use xlink:href="#t" x="51.156" y="63.052"/><use xlink:href="#p" x="53.775" y="63.052"/><use xlink:href="#q" x="56.394" y="63.052"/><path fill="none" stroke="#000" stroke-miterlimit="10" stroke-width=".7891973700000001" d="M116.45 53.742v12.485M110.207 59.984h12.484"/><path stroke="#000" stroke-miterlimit="10" stroke-width=".39509379000000006" d="M114.313 56.863a.989.989 0 0 0-.985-.988.99.99 0 0 0 0 1.977.986.986 0 0 0 .985-.989ZM120.555 56.863a.989.989 0 0 0-.985-.988.99.99 0 0 0 0 1.977.986.986 0 0 0 .985-.989ZM114.313 63.105a.986.986 0 1 0-1.973 0 .99.99 0 0 0 .988.989.989.989 0 0 0 .985-.989ZM120.555 63.105a.986.986 0 1 0-1.973 0 .99.99 0 0 0 .988.989.989.989 0 0 0 .985-.989Zm0 0"/><use xlink:href="#r" x="100.343" y="48.954"/><use xlink:href="#s" x="105.523" y="48.954"/><g clip-path="url(#u)"><path fill="none" stroke="#7F7F7F" stroke-dasharray="2.9595693543 2.9595693543" stroke-miterlimit="10" stroke-width=".7891973700000001" d="M8.773 92.754V14.73h187.262v78.024Zm0 0"/></g><g fill="#7F7F7F"><use xlink:href="#v" x="56.982" y="10.351"/><use xlink:href="#w" x="63.424" y="10.351"/><use xlink:href="#x" x="70.142" y="10.351"/><use xlink:href="#y" x="77.886" y="10.351"/></g><use xlink:href="#z" x="88.57" y="10.351" fill="#7F7F7F"/><g fill="#7F7F7F"><use xlink:href="#A" x="93.779" y="10.351"/><use xlink:href="#B" x="99.264" y="10.351"/><use xlink:href="#C" x="103.644" y="10.351"/></g><g fill="#7F7F7F"><use xlink:href="#D" x="110.796" y="10.351"/><use xlink:href="#z" x="116.281" y="10.351"/><use xlink:href="#E" x="121.214" y="10.351"/><use xlink:href="#F" x="124.233" y="10.351"/></g><use xlink:href="#G" x="127.794" y="10.351" fill="#7F7F7F"/><g fill="#7F7F7F"><use xlink:href="#H" x="134.64" y="10.351"/><use xlink:href="#C" x="139.573" y="10.351"/><use xlink:href="#B" x="143.44" y="10.351"/></g></svg>