<svg xmlns="http://www.w3.org/2000/svg" xmlns:xlink="http://www.w3.org/1999/xlink" width="227.99" height="90.075"><defs><path id="c" d="M7.063 0v-.312H6.89c-.594 0-.735-.063-.844-.391L3.922-6.86c-.047-.125-.063-.203-.219-.203s-.187.062-.25.203L1.422-.97c-.172.5-.578.657-1.11.657V0l1.016-.031L2.453 0v-.312c-.484 0-.734-.235-.734-.5 0-.032 0-.125.015-.141l.454-1.297h2.437l.516 1.516a.373.373 0 0 1 .03.14c0 .282-.546.282-.812.282V0c.36-.031 1.047-.031 1.422-.031ZM4.515-2.547h-2.22l1.11-3.219Zm0 0"/><path id="d" d="M6.969-3.312c0-1.876-1.328-3.422-3.016-3.422H.343v.312h.235c.766 0 .781.11.781.453v5.203c0 .344-.015.454-.78.454H.343V0h3.61c1.655 0 3.015-1.453 3.015-3.312m-.985 0c0 1.093-.187 1.687-.546 2.171-.188.266-.75.829-1.75.829h-1c-.454 0-.485-.063-.485-.391v-5.328c0-.328.031-.39.485-.39h.984c.61 0 1.297.202 1.797.905.422.594.515 1.438.515 2.204m0 0"/><path id="h" d="M7.25-2.39v-.297l-1.203.03c-.39 0-1.234 0-1.594-.03v.296h.313c.89 0 .922.11.922.485v.625c0 1.11-1.25 1.187-1.532 1.187-.64 0-2.593-.343-2.593-3.281 0-2.937 1.953-3.266 2.53-3.266 1.063 0 1.954.875 2.157 2.329.016.14.016.171.156.171.157 0 .157-.03.157-.234v-2.344c0-.156 0-.234-.11-.234-.031 0-.078 0-.156.125l-.484.719c-.329-.313-.86-.844-1.829-.844-1.828 0-3.437 1.562-3.437 3.578C.547-1.344 2.125.219 4 .219c.719 0 1.516-.266 1.844-.844.125.219.531.61.64.61.079 0 .079-.079.079-.22v-1.718c0-.39.046-.438.687-.438m0 0"/><path id="i" d="M3.281 0v-.312h-.25c-.781 0-.812-.11-.812-.454v-5.203c0-.343.031-.453.812-.453h.25v-.312c-.344.03-1.125.03-1.5.03s-1.156 0-1.5-.03v.312h.25c.782 0 .813.11.813.453v5.203c0 .344-.032.454-.813.454h-.25V0c.344-.031 1.125-.031 1.5-.031s1.157 0 1.5.031m0 0"/><path id="j" d="M7.172.094c0-.094 0-.203-.11-.203-.093 0-.109.078-.109.172-.062.53-.469.828-.906.828-.453 0-.703-.328-.938-.953 1.157-.532 2-1.797 2-3.282 0-2.015-1.484-3.61-3.28-3.61-1.767 0-3.282 1.579-3.282 3.61 0 2 1.5 3.563 3.281 3.563.313 0 .656-.063.938-.156.156.937.297 1.843 1.203 1.843 1.015 0 1.203-1.312 1.203-1.812M6.125-3.344c0 .766-.125 2.157-1.172 2.922-.203-.547-.531-1.031-1.11-1.031-.5 0-.812.422-.812.828 0 .266.14.453.14.469-.53-.203-1.64-.922-1.64-3.188 0-2.562 1.39-3.36 2.297-3.36.953 0 2.297.845 2.297 3.36M4.703-.25a1.748 1.748 0 0 1-.875.219c-.5 0-.578-.453-.578-.594 0-.297.203-.625.594-.625.531 0 .75.422.86 1m0 0"/><path id="e" d="M4.813-6.719c0-.718-.5-1.61-2.204-1.61-1.265 0-1.968.829-1.968 1.595 0 .422.312.515.5.515.203 0 .484-.14.484-.5a.48.48 0 0 0-.5-.484c-.078 0-.094 0-.125.016.266-.625.953-.907 1.578-.907 1.344 0 1.344.86 1.344 1.313 0 .703-.219.922-.422 1.14-.797.86-1.062 1.97-1.062 2.688v.562c0 .22 0 .266.124.266.141 0 .141-.094.141-.297v-.437c0-.703.281-1.735 1.469-2.625.328-.25.64-.625.64-1.235M3.14-.579a.574.574 0 0 0-.578-.562.573.573 0 0 0-.579.563c0 .36.282.578.579.578a.577.577 0 0 0 .578-.578m0 0"/><clipPath id="a"><path d="M1.152 23H27v36H1.152Zm0 0"/></clipPath><clipPath id="b"><path d="M1.152 33H2v16h-.848Zm0 0"/></clipPath><clipPath id="f"><path d="M198 0h28.828v26H198Zm0 0"/></clipPath><clipPath id="g"><path d="M129 69h21v20.16h-21Zm0 0"/></clipPath></defs><g clip-path="url(#a)"><path fill="none" stroke="#000" stroke-miterlimit="10" stroke-width=".7889024800000001" d="M8.316 34.234A6.77 6.77 0 0 0 1.546 41a6.77 6.77 0 0 0 13.54 0 6.77 6.77 0 0 0-6.77-6.766Zm0 0"/></g><g clip-path="url(#b)"><path fill="none" stroke="#000" stroke-miterlimit="10" stroke-width=".7889024800000001" d="M1.547 47.77V34.234"/></g><path fill="none" stroke="#000" stroke-miterlimit="10" stroke-width=".39494616000000005" d="M15.086 41h9.86m18.952 0h9.86"/><path fill="none" stroke="#000" stroke-miterlimit="10" stroke-width=".7889024800000001" d="M24.945 31.527h18.953v18.95H24.945Zm0 0"/><path d="M20.773 41v1.965L24.945 41l-4.172-1.96Zm0 0"/><path fill="none" stroke="#000" stroke-miterlimit="10" stroke-width=".39494616000000005" d="m24.945 50.477 18.953-18.95"/><use xlink:href="#c" x="26.46" y="40.269"/><use xlink:href="#d" x="34.918" y="48.634"/><path d="M49.586 41v1.965L53.758 41l-4.172-1.96Zm0 0"/><path fill="none" stroke="#000" stroke-miterlimit="10" stroke-width=".7889024800000001" d="M53.758 31.527H72.71v18.95H53.758Zm0 0"/><use xlink:href="#e" x="60.5" y="45.168"/><path fill="none" stroke="#000" stroke-miterlimit="10" stroke-width=".39494616000000005" d="M72.71 36.266h4.833m0 0h4.836v-19.34h9.668"/><path d="M87.875 16.926v1.965l4.172-1.965-4.172-1.965Zm0 0"/><path fill="none" stroke="#000" stroke-miterlimit="10" stroke-width=".7889024800000001" d="M92.047 7.453h18.95v18.95h-18.95Zm0 0"/><path fill="none" stroke="#000" stroke-miterlimit="10" stroke-width=".39494616000000005" d="m92.047 26.402 18.95-18.949"/><use xlink:href="#d" x="93.491" y="16.031"/><use xlink:href="#c" x="102.087" y="24.722"/><path fill="none" stroke="#000" stroke-miterlimit="10" stroke-width=".39494616000000005" d="M72.71 45.738h4.833m0 0h4.836v19.34h9.668"/><path d="M87.875 65.078v1.965l4.172-1.965-4.172-1.965Zm0 0"/><path fill="none" stroke="#000" stroke-miterlimit="10" stroke-width=".7889024800000001" d="M92.047 55.602h18.95V74.55h-18.95Zm0 0"/><path fill="none" stroke="#000" stroke-miterlimit="10" stroke-width=".39494616000000005" d="m92.047 74.55 18.95-18.948"/><use xlink:href="#d" x="93.491" y="64.181"/><use xlink:href="#c" x="102.087" y="72.872"/><path fill="none" stroke="#000" stroke-miterlimit="10" stroke-width=".7889024800000001" d="M130.336 31.527h18.95v18.95h-18.95Zm0 0"/><path fill="none" stroke="#000" stroke-miterlimit="10" stroke-width=".39494616000000005" d="M146.441 41a6.633 6.633 0 0 0-13.266 0 6.634 6.634 0 0 0 6.634 6.633A6.632 6.632 0 0 0 146.44 41ZM135.121 36.313l9.379 9.378m0-9.378-9.379 9.378M110.996 16.926h4.836m0 0h4.836v19.34h9.668"/><path d="M126.16 36.266v1.96l4.176-1.96-4.176-1.965Zm0 0"/><path fill="none" stroke="#000" stroke-miterlimit="10" stroke-width=".39494616000000005" d="M110.996 65.078h4.836m0 0h4.836v-19.34h9.668"/><path d="M126.16 45.738v1.965l4.176-1.965-4.176-1.96Zm0 0"/><path fill="none" stroke="#000" stroke-miterlimit="10" stroke-width=".39494616000000005" d="M149.285 41h9.863m18.95 0h9.863"/><path fill="none" stroke="#000" stroke-miterlimit="10" stroke-width=".7889024800000001" d="M159.148 31.527h18.95v18.95h-18.95Zm0 0"/><path fill="none" stroke="#000" stroke-miterlimit="10" stroke-width=".39494616000000005" d="M161.992 33.707 175.254 41l-13.262 7.297Zm0 0"/><path fill="none" stroke="#000" stroke-miterlimit="10" stroke-width=".7889024800000001" d="M187.96 31.527h18.95v18.95h-18.95Zm0 0"/><path fill="none" stroke="#000" stroke-miterlimit="10" stroke-width=".39494616000000005" d="M192.7 36.266c.769-1.215 1.51-2.371 2.366-2.371.86 0 1.598 1.156 2.371 2.37.77 1.212 1.508 2.368 2.368 2.368.855 0 1.597-1.156 2.367-2.367m-3.317-1.422-2.84 2.844M192.7 41c.769-1.21 1.51-2.367 2.366-2.367.86 0 1.598 1.156 2.371 2.367.77 1.215 1.508 2.371 2.368 2.371.855 0 1.597-1.156 2.367-2.371M192.7 45.738c.769-1.21 1.51-2.367 2.366-2.367.86 0 1.598 1.156 2.371 2.367.77 1.215 1.508 2.371 2.368 2.371.855 0 1.597-1.156 2.367-2.37m-3.317-1.423-2.84 2.844M206.91 41h4.836m0 0h4.832M216.383 41V.395"/><g clip-path="url(#f)"><path fill="none" stroke="#000" stroke-miterlimit="10" stroke-width=".7889024800000001" d="M216.383.395h6.77l-6.77 13.535-6.77-13.535h6.77"/></g><path fill="none" stroke="#000" stroke-miterlimit="10" stroke-width=".39494616000000005" d="M139.809 50.477v9.668m0 0v9.671"/><path d="M139.809 54.652h1.964l-1.964-4.175-1.961 4.175Zm0 0"/><g clip-path="url(#g)"><path fill="none" stroke="#000" stroke-miterlimit="10" stroke-width=".7889024800000001" d="M130.336 69.816h18.95v18.95h-18.95Zm0 0"/></g><path fill="none" stroke="#000" stroke-miterlimit="10" stroke-width=".39494616000000005" d="M140.996 75.027c.383-.609.754-1.187 1.184-1.187.43 0 .797.578 1.183 1.187.387.606.754 1.184 1.184 1.184.43 0 .8-.578 1.183-1.184M140.996 77.395c.383-.606.754-1.184 1.184-1.184.43 0 .797.578 1.183 1.184.387.605.754 1.183 1.184 1.183.43 0 .8-.578 1.183-1.183M140.996 79.762c.383-.606.754-1.184 1.184-1.184.43 0 .797.578 1.183 1.184.387.61.754 1.187 1.184 1.187.43 0 .8-.578 1.183-1.187"/><use xlink:href="#h" x="131.674" y="80.288"/><path fill="none" stroke="#000" stroke-miterlimit="10" stroke-width=".39494616000000005" d="M133.176 82.605h13.265M133.176 85.922h13.265v-1.895h-13.265ZM133.176 87.344h13.265"/><use xlink:href="#i" x="134.193" y="26.131"/><use xlink:href="#j" x="137.753" y="26.131"/></svg>