<svg xmlns="http://www.w3.org/2000/svg" xmlns:xlink="http://www.w3.org/1999/xlink" width="223.701" height="82.54"><defs><path id="a" d="M6.11.078c0-.078 0-.187-.11-.187-.094 0-.094.078-.11.14a.736.736 0 0 1-.734.688c-.343 0-.547-.203-.797-.781.72-.282 1.704-1.204 1.704-2.625 0-1.594-1.25-2.891-2.797-2.891-1.547 0-2.797 1.312-2.797 2.89 0 1.61 1.265 2.86 2.797 2.86.265 0 .53-.047.78-.11.157.797.298 1.47 1.032 1.47.828 0 1.031-1.016 1.031-1.454m-.844-2.765c0 1-.313 1.843-1.032 2.328-.312-.735-.687-.844-.968-.844a.684.684 0 0 0-.688.687c0 .141.047.266.078.329-.828-.329-1.39-1.172-1.39-2.5 0-1.907 1.125-2.641 2-2.641.906 0 2 .75 2 2.64M3.984-.235a1.71 1.71 0 0 1-.718.156.44.44 0 0 1-.47-.438c0-.234.188-.453.485-.453.39 0 .578.282.703.735m0 0"/><path id="b" d="M4.453 0v-.266c-.547 0-.61-.046-.61-.437V-3.5l-1.202.094v.265c.547 0 .609.047.609.438v1.375c0 .687-.406 1.187-1.016 1.187-.671 0-.703-.343-.703-.734V-3.5l-1.203.094v.265c.594 0 .594.016.594.72v1.187c0 .578 0 1.312 1.265 1.312.75 0 1.032-.562 1.079-.64v.64Zm0 0"/><path id="c" d="M3.5-.953c0-.031-.031-.11-.14-.11-.079 0-.094.063-.11.11a1.141 1.141 0 0 1-1.11.781c-.359 0-.718-.156-.953-.531-.25-.36-.25-.86-.25-1.11h2.329c.187 0 .234 0 .234-.171 0-.703-.39-1.547-1.516-1.547-.984 0-1.75.812-1.75 1.797 0 1.015.86 1.812 1.86 1.812S3.5-.766 3.5-.953m-.547-1.063h-2c.063-1.109.735-1.296 1.031-1.296.938 0 .97 1.124.97 1.296m0 0"/><path id="d" d="M2.11 0v-.266c-.5 0-.594 0-.594-.359V-5.5l-1.188.094v.25c.547 0 .61.062.61.453v4.078c0 .36-.094.36-.61.36V0c.313-.031.75-.031.89-.031.157 0 .595 0 .891.031m0 0"/><path id="e" d="M4.453 0v-.266c-.516 0-.61 0-.61-.359v-1.781c0-.656-.296-1.094-1.124-1.094-.781 0-1.14.578-1.235.766H1.47V-3.5l-1.14.094v.265c.53 0 .593.047.593.438v2.078c0 .36-.094.36-.594.36V0c.344-.031.688-.031.906-.031.22 0 .563 0 .891.031v-.266c-.5 0-.594 0-.594-.359v-1.422c0-.844.625-1.219 1.11-1.219.484 0 .609.329.609.829v1.812c0 .36-.094.36-.61.36V0c.344-.031.688-.031.907-.031.234 0 .562 0 .906.031m0 0"/><path id="f" d="M4.39 0v-.266c-.546 0-.609-.046-.609-.437V-5.5l-1.172.094v.25c.532 0 .594.062.594.453v1.672A1.406 1.406 0 0 0 2.141-3.5c-.985 0-1.86.781-1.86 1.797A1.78 1.78 0 0 0 2.062.078c.47 0 .86-.219 1.126-.5v.5ZM3.189-.984c0 .14 0 .172-.126.328a1.146 1.146 0 0 1-.953.515c-.359 0-.687-.187-.875-.484-.218-.312-.25-.703-.25-1.062 0-.47.063-.797.25-1.063a1.14 1.14 0 0 1 .954-.516c.374 0 .765.188 1 .594Zm0 0"/><path id="g" d="M3.5-.953c0-.094-.11-.094-.14-.094-.047 0-.094.016-.11.094-.062.156-.281.781-1.078.781-.485 0-1.188-.375-1.188-1.547 0-1.14.579-1.562 1.157-1.562.078 0 .5 0 .78.14a.336.336 0 0 0-.265.344c0 .219.156.375.375.375a.36.36 0 0 0 .375-.375c0-.5-.531-.734-1.281-.734A1.81 1.81 0 0 0 .281-1.72 1.79 1.79 0 0 0 2.094.078C3.219.078 3.5-.859 3.5-.953m0 0"/><path id="h" d="M3.969-1.687c0-.985-.828-1.844-1.875-1.844a1.86 1.86 0 0 0-1.86 1.844c0 .984.844 1.765 1.86 1.765 1.031 0 1.875-.781 1.875-1.765m-.719-.079c0 .375-.016.813-.234 1.141-.22.313-.563.453-.922.453-.422 0-.75-.203-.922-.484C.969-.97.938-1.36.938-1.766c0-.296 0-.765.25-1.109.203-.281.546-.437.906-.437.422 0 .765.203.937.468.219.344.219.766.219 1.078m0 0"/><path id="i" d="M2.063 0v-.266c-.516 0-.547-.03-.547-.343V-3.5l-1.157.094v.265c.5 0 .579.047.579.438v2.078c0 .36-.094.36-.61.36V0c.313-.031.75-.031.875-.031.11 0 .578 0 .86.031m-.454-4.766a.44.44 0 0 0-.437-.453.44.44 0 0 0-.438.453c0 .22.188.438.438.438s.437-.219.437-.438m0 0"/><path id="j" d="M3.047-3c0-.266-.266-.5-.61-.5-.515 0-.859.39-1.03.844V-3.5L.28-3.406v.265c.532 0 .594.047.594.438v2.078c0 .36-.094.36-.594.36V0c.313-.031.735-.031.938-.031.453 0 .468 0 .984.031v-.266h-.156c-.578 0-.594-.078-.594-.375v-1.171c0-.594.25-1.438 1.016-1.454-.047.032-.125.094-.125.266 0 .25.187.36.344.36.187 0 .359-.126.359-.36m0 0"/><path id="k" d="M5.953-2.656c0-1.531-1.156-2.75-2.578-2.75H.359v.25h.172c.625 0 .64.093.64.39V-.64c0 .297-.015.375-.64.375H.36V0h3.016c1.422 0 2.578-1.187 2.578-2.656m-.797 0c0 .406 0 1.172-.5 1.765-.281.313-.797.625-1.5.625H2.25c-.36 0-.375-.046-.375-.328v-4.234c0-.266.016-.328.375-.328h.906c.625 0 1.14.265 1.485.656.515.61.515 1.453.515 1.844m0 0"/><path id="l" d="M2.328-1.453v-.516H.094v.516Zm0 0"/><path id="m" d="M7.313 0v-.266H7.14c-.61 0-.625-.078-.625-.375v-4.125c0-.296.015-.39.625-.39h.172v-.25H5.969c-.203 0-.219.015-.282.156L3.845-.75 2.016-5.234c-.063-.157-.079-.172-.297-.172H.39v.25h.172c.609 0 .625.093.625.39v3.922c0 .203 0 .578-.797.578V0c.359-.031.718-.031.937-.031.203 0 .578 0 .922.031v-.266c-.797 0-.797-.375-.797-.578v-4.203l.016-.016 2 4.876c.047.093.078.187.187.187.094 0 .14-.094.172-.187L5.86-5.125v4.484c0 .297-.015.375-.625.375h-.171V0l1.125-.031Zm0 0"/><path id="n" d="M4.078-.719v-.437h-.25v.437c0 .328-.125.453-.281.453-.297 0-.297-.359-.297-.453v-1.64c0-.782-.75-1.172-1.469-1.172-.672 0-1.25.25-1.25.781a.36.36 0 0 0 .375.375.361.361 0 0 0 .375-.375.356.356 0 0 0-.297-.36c.297-.203.72-.203.782-.203.437 0 .875.313.875.954v.25c-.453.03-.985.046-1.547.28-.688.298-.828.767-.828 1.017 0 .687.797.89 1.343.89a1.23 1.23 0 0 0 1.11-.64c.047.296.25.609.594.609.093 0 .765-.031.765-.766m-1.437-.39c0 .765-.641.968-.97.968-.405 0-.75-.28-.75-.656 0-.531.485-1.062 1.72-1.11Zm0 0"/><path id="o" d="M4.39-1.719c0-.984-.796-1.781-1.765-1.781-.297 0-.766.078-1.172.5v-.5l-1.172.094v.265c.563 0 .594.047.594.375V.922c0 .36-.094.36-.594.36v.25c.344-.016.688-.016.907-.016.218 0 .562 0 .89.015v-.25c-.5 0-.594 0-.594-.36V-.39c.375.407.766.47 1.032.47 1 0 1.875-.782 1.875-1.798m-.702 0c0 .922-.579 1.578-1.22 1.578-.28 0-.64-.125-.89-.515-.094-.14-.094-.14-.094-.297v-1.688c.172-.312.579-.609 1.079-.609.609 0 1.124.672 1.124 1.531m0 0"/><path id="p" d="M6.172 0v-.266c-.281 0-.563 0-.781-.312L3.375-3.297l1.563-1.375c.515-.469.937-.469 1.125-.484v-.25c-.313.015-.329.015-.735.015-.406 0-.437 0-.953-.015v.25c.156.015.297.093.297.25 0 .062-.016.156-.172.297L1.875-2.297v-2.469c0-.296.016-.39.625-.39h.172v-.25l-1.156.015-1.172-.015v.25h.172c.625 0 .64.093.64.39V-.64c0 .297-.015.375-.64.375H.344V0l1.172-.031L2.672 0v-.266H2.5c-.61 0-.625-.078-.625-.375v-1.328l1.031-.906L4.437-.75c.079.094.141.172.141.266 0 .218-.281.218-.422.218V0l1.078-.031c.22 0 .657 0 .938.031m0 0"/><path id="q" d="M4.703-3.016c0-1.843-1.016-3.14-2.11-3.14C1.485-6.156.5-4.828.5-3.031c0 1.844 1 3.14 2.094 3.14 1.11 0 2.11-1.328 2.11-3.125m-.687-.109C4.016-1.672 3.375-.5 2.594-.5c-.766 0-1.422-1.172-1.422-2.625s.687-2.437 1.422-2.437c.719 0 1.422.968 1.422 2.437m0 0"/><path id="r" d="M4.375-.297c0-.312-.234-.312-.39-.312h-.907V-5.75c0-.156 0-.406-.297-.406-.187 0-.25.11-.297.234-.375.844-.89.953-1.078.969-.156.016-.36.031-.36.312 0 .25.173.297.313.297.204 0 .61-.062 1.032-.437V-.61H1.5c-.156 0-.406 0-.406.312 0 .297.25.297.406.297h2.484c.141 0 .391 0 .391-.297m0 0"/><path id="s" d="M2.39-1.516c0-.906-.515-1.562-1.078-1.562-.562 0-1.078.656-1.078 1.562C.234-.594.75.047 1.313.047c.562 0 1.078-.656 1.078-1.563m-.374-.046c0 .703-.328 1.28-.703 1.28-.391 0-.704-.577-.704-1.28 0-.704.344-1.188.704-1.188.359 0 .703.469.703 1.188m0 0"/><path id="t" d="M2.234-.156c0-.172-.156-.172-.218-.172h-.438V-2.86c0-.079 0-.22-.172-.22-.093 0-.125.063-.156.11-.219.469-.437.485-.594.5-.078 0-.14.063-.14.156 0 .063.03.172.172.172a.84.84 0 0 0 .515-.203v2.016H.766c-.079 0-.22 0-.22.172C.547 0 .688 0 .767 0h1.25c.078 0 .218 0 .218-.156m0 0"/><path id="u" d="M2.438-1.516c0-.187-.188-.187-.25-.187H1.5v-.688c0-.062 0-.25-.187-.25-.188 0-.188.188-.188.25v.688H.438c-.063 0-.25 0-.25.187 0 .188.187.188.25.188h.687v.687c0 .063 0 .25.188.25.187 0 .187-.187.187-.25v-.687h.688c.062 0 .25 0 .25-.188m0 0"/><path id="w" d="m6.047-4.5-.281-2.234H.328v.312h.235c.765 0 .78.11.78.453v5.203c0 .344-.015.454-.78.454H.328V0c.344-.031 1.125-.031 1.5-.031.406 0 1.313 0 1.672.031v-.312h-.328c-.938 0-.938-.125-.938-.47v-2.437h.844c.953 0 1.047.313 1.047 1.156h.25v-2.624h-.25c0 .828-.094 1.156-1.047 1.156h-.844v-2.5c0-.328.016-.39.485-.39h1.187c1.485 0 1.735.546 1.89 1.921Zm0 0"/><path id="x" d="M6.188-4.922c0-.969-.985-1.844-2.344-1.844h-3.5v.313h.234c.766 0 .781.11.781.453v5.234c0 .344-.015.454-.78.454H.343V0c.344-.031 1.078-.031 1.453-.031s1.125 0 1.469.031v-.312H3.03c-.765 0-.781-.11-.781-.454v-2.359h1.672c1.187 0 2.266-.812 2.266-1.797m-1.032 0c0 .469 0 1.531-1.562 1.531H2.219v-2.671c0-.329.015-.391.484-.391h.89c1.563 0 1.563 1.047 1.563 1.531m0 0"/><path id="y" d="M7.281-2.39v-.313l-1.203.031c-.406 0-1.25 0-1.594-.031v.312h.313c.89 0 .922.11.922.47v.64c0 1.11-1.266 1.187-1.532 1.187-.656 0-2.609-.343-2.609-3.297 0-2.953 1.953-3.28 2.547-3.28 1.063 0 1.953.89 2.156 2.343.016.14.016.172.157.172.156 0 .156-.032.156-.235V-6.75c0-.172 0-.234-.11-.234-.03 0-.078 0-.156.125l-.5.734c-.312-.328-.844-.86-1.828-.86C2.156-6.984.563-5.421.563-3.39.563-1.359 2.14.22 4.015.22c.734 0 1.515-.266 1.859-.844.125.219.531.61.64.61.079 0 .079-.079.079-.22v-1.734c0-.375.047-.422.687-.422m0 0"/><path id="z" d="M7.11 0v-.312h-.188c-.594 0-.734-.063-.844-.391l-2.14-6.188c-.047-.14-.063-.203-.22-.203-.155 0-.187.063-.234.203L1.422-.969c-.172.5-.563.657-1.11.657V0l1.016-.031L2.468 0v-.312c-.5 0-.75-.25-.75-.5 0-.032.016-.125.032-.141l.453-1.313h2.438L5.17-.75a.58.58 0 0 1 .032.14c0 .298-.562.298-.828.298V0c.36-.031 1.047-.031 1.438-.031ZM4.53-2.562H2.313l1.109-3.22Zm0 0"/><path id="A" d="M4.672-2.125c0-1.266-1-2.312-2.188-2.312-1.25 0-2.203 1.078-2.203 2.312C.281-.844 1.312.109 2.47.109a2.208 2.208 0 0 0 2.203-2.234m-.828-.078c0 .36 0 .89-.219 1.328a1.267 1.267 0 0 1-1.14.734c-.438 0-.876-.203-1.141-.656-.25-.437-.25-1.047-.25-1.406 0-.375 0-.922.25-1.36a1.324 1.324 0 0 1 1.125-.656c.437 0 .86.219 1.125.64.25.423.25 1 .25 1.376m0 0"/><path id="B" d="M5.219 0v-.312c-.688 0-.766-.063-.766-.547v-6.016l-1.437.11v.312c.703 0 .78.062.78.547v2.14c-.296-.359-.718-.609-1.25-.609-1.171 0-2.202.969-2.202 2.25 0 1.25.969 2.234 2.094 2.234.64 0 1.078-.343 1.328-.656V.11ZM3.766-1.172c0 .188 0 .203-.11.375-.297.469-.75.688-1.172.688-.437 0-.796-.25-1.03-.641-.266-.406-.298-.969-.298-1.375 0-.36.016-.953.313-1.406.203-.297.578-.625 1.11-.625.358 0 .765.14 1.077.593.11.172.11.188.11.36Zm0 0"/><path id="C" d="M4.11-1.172c0-.11-.079-.125-.126-.125-.093 0-.109.063-.125.14C3.5-.14 2.61-.14 2.516-.14c-.5 0-.891-.296-1.125-.656-.297-.484-.297-1.14-.297-1.484h2.765c.22 0 .25 0 .25-.219 0-.984-.53-1.937-1.765-1.937C1.188-4.437.28-3.423.28-2.172.281-.859 1.312.11 2.453.11 3.672.11 4.11-.984 4.11-1.17M3.452-2.5H1.11C1.172-3.969 2-4.219 2.344-4.219c1.015 0 1.11 1.344 1.11 1.719m0 0"/><path id="D" d="M3.61-3.781c0-.313-.313-.594-.735-.594-.719 0-1.078.656-1.219 1.094v-1.094l-1.375.11v.296c.688 0 .766.078.766.563V-.75c0 .438-.11.438-.766.438V0l1.125-.031c.39 0 .86 0 1.266.031v-.312h-.219c-.734 0-.75-.11-.75-.454v-1.53c0-.985.422-1.86 1.172-1.86h.11a.459.459 0 0 0-.235.39c0 .282.219.422.438.422.171 0 .421-.11.421-.437m0 0"/><path id="E" d="M4.938-1.844c0-.984-.641-1.797-1.485-2l-1.265-.312c-.61-.14-1-.672-1-1.25 0-.703.53-1.297 1.312-1.297 1.656 0 1.875 1.625 1.922 2.062.016.063.016.125.125.125.125 0 .125-.046.125-.234v-2c0-.172 0-.234-.11-.234-.062 0-.078.015-.14.125l-.344.562c-.297-.281-.703-.687-1.594-.687A1.91 1.91 0 0 0 .563-5.062 1.9 1.9 0 0 0 1.859-3.25c.11.047.61.156 1.297.328.266.063.563.14.844.5.203.266.313.594.313.922 0 .703-.5 1.406-1.329 1.406-.296 0-1.046-.047-1.562-.531-.578-.531-.61-1.172-.625-1.531 0-.094-.078-.094-.11-.094-.125 0-.125.078-.125.25v1.984c0 .172 0 .235.094.235C.734.219.75.203.812.094c0 0 .032-.047.36-.563.297.328.937.688 1.812.688 1.172 0 1.954-.969 1.954-2.063m0 0"/><path id="F" d="M3.531-6.297c0-.36-.36-.687-.89-.687a1.54 1.54 0 0 0-1.532 1.578v1.14H.33v.297h.78V-.75c0 .438-.109.438-.765.438V0l1.125-.031c.39 0 .86 0 1.25.031v-.312h-.203c-.735 0-.75-.11-.75-.454v-3.203H2.89v-.297H1.734v-1.156c0-.875.47-1.344.907-1.344.03 0 .187 0 .328.063-.11.047-.297.172-.297.422 0 .234.156.422.422.422.297 0 .437-.188.437-.438m0 0"/><path id="G" d="M3.281-1.234v-.563h-.234v.547c0 .734-.297 1.11-.672 1.11-.656 0-.656-.907-.656-1.063V-3.97h1.406v-.297H1.719v-1.828h-.25c-.016.813-.313 1.875-1.281 1.907v.218h.843v2.735c0 1.218.922 1.343 1.282 1.343.703 0 .968-.703.968-1.343m0 0"/><path id="H" d="M6.969-3.969v-.297a11.54 11.54 0 0 1-.735.032l-.921-.032v.297c.359.016.578.188.578.485 0 .062 0 .078-.047.203L4.937-.75 3.97-3.5c-.047-.125-.063-.14-.063-.187 0-.282.39-.282.594-.282v-.297l-1.031.032c-.297 0-.594-.016-.89-.032v.297c.374 0 .53.031.624.156.063.063.172.36.235.547l-.86 2.391-.937-2.64c-.047-.126-.047-.141-.047-.172 0-.282.39-.282.578-.282v-.297l-1.078.032-.922-.032v.297c.5 0 .625.031.734.36l1.25 3.5c.047.14.078.218.219.218.125 0 .14-.062.188-.203l1-2.797L4.578-.078c.031.11.063.187.203.187.125 0 .157-.093.188-.187l1.156-3.25c.188-.5.5-.625.844-.64m0 0"/><path id="I" d="M4.781-.875v-.562h-.25v.562c0 .563-.234.625-.343.625-.329 0-.375-.437-.375-.5v-1.969c0-.422 0-.812-.36-1.172-.375-.39-.875-.546-1.36-.546-.812 0-1.484.468-1.484 1.125 0 .296.188.453.454.453.28 0 .453-.188.453-.453 0-.11-.047-.438-.5-.454.265-.343.75-.453 1.062-.453.485 0 1.047.39 1.047 1.266v.375c-.5.015-1.187.047-1.812.344-.75.343-1 .859-1 1.297 0 .796.968 1.046 1.593 1.046.657 0 1.11-.39 1.297-.859.031.39.297.813.766.813.219 0 .812-.141.812-.938m-1.656-.516c0 .938-.703 1.282-1.156 1.282-.485 0-.89-.344-.89-.844 0-.547.421-1.36 2.046-1.422Zm0 0"/><clipPath id="v"><path d="M9 14h196v68.082H9Zm0 0"/></clipPath></defs><path fill="none" stroke="#000" stroke-miterlimit="10" stroke-width=".39678954000000005" d="M2.727 29.375h14.945v14.95h7.473m0 0h7.472"/><path d="M28.426 44.324v1.973l4.191-1.973-4.191-1.976Zm0 0"/><path fill="none" stroke="#000" stroke-miterlimit="10" stroke-width=".39678954000000005" d="M2.727 74.215h14.945V59.27h7.473m0 0h7.472"/><path d="M28.426 59.27v1.972l4.191-1.972-4.191-1.973Zm0 0"/><path fill="none" stroke="#000" stroke-miterlimit="10" stroke-width=".39678954000000005" d="M32.617 51.797h1.133m27.625 0h32.16m27.625 0h32.156m27.625 0h19.817m0 0h18.683"/><path fill="none" stroke="#000" stroke-miterlimit="10" stroke-width=".7925846200000001" d="M33.75 37.984h27.625V65.61H33.75Zm0 0"/><path fill="none" stroke="#000" stroke-miterlimit="10" stroke-width=".39678954000000005" d="m33.75 65.61 27.625-27.626"/><use xlink:href="#a" x="27.325" y="33.398"/><use xlink:href="#b" x="33.871" y="33.398"/><use xlink:href="#c" x="38.548" y="33.398"/><use xlink:href="#d" x="42.289" y="33.398"/><use xlink:href="#d" x="44.627" y="33.398"/><use xlink:href="#c" x="46.965" y="33.398"/><use xlink:href="#e" x="50.706" y="33.398"/><use xlink:href="#f" x="55.382" y="33.398"/><use xlink:href="#c" x="60.059" y="33.398"/><use xlink:href="#g" x="63.8" y="33.398"/><use xlink:href="#h" x="67.541" y="33.398"/><use xlink:href="#f" x="71.987" y="33.398"/><use xlink:href="#i" x="76.664" y="33.398"/><use xlink:href="#c" x="79.002" y="33.398"/><use xlink:href="#j" x="82.743" y="33.398"/><use xlink:href="#c" x="86.024" y="33.398"/><use xlink:href="#j" x="89.765" y="33.398"/><path fill="none" stroke="#000" stroke-miterlimit="10" stroke-width=".7925846200000001" d="M93.535 37.984h27.625V65.61H93.535Zm0 0"/><path d="M89.34 51.797v1.973l4.195-1.973-4.195-1.977Zm0 0"/><path fill="none" stroke="#000" stroke-miterlimit="10" stroke-width=".39678954000000005" d="m93.535 65.61 27.625-27.626"/><use xlink:href="#k" x="86.588" y="76.912"/><use xlink:href="#c" x="93.016" y="76.912"/><use xlink:href="#l" x="96.757" y="76.912"/><use xlink:href="#m" x="99.563" y="76.912"/><use xlink:href="#n" x="107.275" y="76.912"/><use xlink:href="#o" x="111.484" y="76.912"/><use xlink:href="#o" x="116.16" y="76.912"/><use xlink:href="#c" x="121.074" y="76.912"/><use xlink:href="#j" x="124.815" y="76.912"/><path fill="none" stroke="#000" stroke-miterlimit="10" stroke-width=".7925846200000001" d="M153.316 37.984h27.625V65.61h-27.625Zm0 0"/><path d="M149.125 51.797v1.973l4.191-1.973-4.191-1.977Zm0 0"/><path fill="none" stroke="#000" stroke-miterlimit="10" stroke-width=".39678954000000005" d="m153.316 65.61 27.625-27.626"/><use xlink:href="#p" x="137.308" y="33.398"/><use xlink:href="#n" x="143.847" y="33.398"/><use xlink:href="#e" x="148.055" y="33.398"/><use xlink:href="#n" x="152.732" y="33.398"/><use xlink:href="#d" x="156.94" y="33.398"/><use xlink:href="#f" x="159.278" y="33.398"/><use xlink:href="#c" x="163.955" y="33.398"/><use xlink:href="#g" x="167.696" y="33.398"/><use xlink:href="#h" x="171.437" y="33.398"/><use xlink:href="#f" x="175.883" y="33.398"/><use xlink:href="#i" x="180.559" y="33.398"/><use xlink:href="#c" x="182.898" y="33.398"/><use xlink:href="#j" x="186.639" y="33.398"/><use xlink:href="#c" x="189.92" y="33.398"/><use xlink:href="#j" x="193.661" y="33.398"/><path d="M215.246 51.797v1.973l4.195-1.973-4.195-1.977Zm0 0"/><path fill="none" stroke="#000" stroke-miterlimit="10" stroke-width=".7925846200000001" d="M101.367 39.84v11.957M95.39 45.816h11.958"/><path stroke="#000" stroke-miterlimit="10" stroke-width=".39678954000000005" d="M99.371 42.828a.994.994 0 0 0-.992-.992.994.994 0 0 0-.992.992c0 .547.445.992.992.992a.994.994 0 0 0 .992-.992ZM105.348 42.828a.99.99 0 1 0-1.98 0 .991.991 0 1 0 1.98 0ZM99.371 48.805a.99.99 0 0 0-.992-.989.99.99 0 1 0 0 1.98.994.994 0 0 0 .992-.991ZM105.348 48.805a.987.987 0 0 0-.989-.989.991.991 0 1 0 .988.988Zm0 0"/><use xlink:href="#q" x="106.625" y="62.295"/><use xlink:href="#r" x="111.826" y="62.295"/><use xlink:href="#s" x="156.065" y="45.836"/><use xlink:href="#t" x="158.696" y="45.836"/><use xlink:href="#u" x="161.326" y="45.836"/><use xlink:href="#s" x="163.956" y="45.836"/><use xlink:href="#t" x="166.587" y="45.836"/><use xlink:href="#q" x="166.407" y="62.295"/><use xlink:href="#r" x="171.609" y="62.295"/><use xlink:href="#q" x="37.875" y="47.349"/><use xlink:href="#r" x="43.076" y="47.349"/><use xlink:href="#s" x="46.782" y="60.781"/><use xlink:href="#t" x="49.413" y="60.781"/><use xlink:href="#s" x="52.043" y="60.781"/><use xlink:href="#t" x="54.673" y="60.781"/><g clip-path="url(#v)"><path fill="none" stroke="#7F7F7F" stroke-dasharray="2.9722718818000002 2.9722718818000002" stroke-miterlimit="10" stroke-width=".7925846200000001" d="M10.2 81.688V14.43h194.296v67.258Zm0 0"/></g><g fill="#7F7F7F"><use xlink:href="#w" x="61.729" y="10.396"/><use xlink:href="#x" x="68.198" y="10.396"/><use xlink:href="#y" x="74.945" y="10.396"/><use xlink:href="#z" x="82.723" y="10.396"/></g><use xlink:href="#A" x="93.452" y="10.396" fill="#7F7F7F"/><g fill="#7F7F7F"><use xlink:href="#B" x="98.684" y="10.396"/><use xlink:href="#C" x="104.192" y="10.396"/><use xlink:href="#D" x="108.591" y="10.396"/></g><g fill="#7F7F7F"><use xlink:href="#E" x="115.774" y="10.396"/><use xlink:href="#A" x="121.282" y="10.396"/><use xlink:href="#F" x="126.236" y="10.396"/><use xlink:href="#G" x="129.268" y="10.396"/></g><use xlink:href="#H" x="132.844" y="10.396" fill="#7F7F7F"/><g fill="#7F7F7F"><use xlink:href="#I" x="139.72" y="10.396"/><use xlink:href="#D" x="144.674" y="10.396"/><use xlink:href="#C" x="148.558" y="10.396"/></g></svg>