<svg xmlns="http://www.w3.org/2000/svg" xmlns:xlink="http://www.w3.org/1999/xlink" width="228.477" height="79.057"><defs><path id="b" d="M7.063 0v-.312h-.188c-.578 0-.719-.063-.828-.391l-2.125-6.14c-.047-.141-.078-.204-.235-.204-.156 0-.187.063-.234.203L1.422-.969c-.188.5-.578.657-1.11.657V0l1-.031L2.454 0v-.312c-.5 0-.734-.235-.734-.5 0-.032 0-.125.015-.141l.454-1.297h2.421l.532 1.516c0 .03.03.093.03.14 0 .282-.562.282-.827.282V0c.36-.031 1.047-.031 1.422-.031ZM4.515-2.547h-2.22L3.392-5.75Zm0 0"/><path id="c" d="M6.953-3.312c0-1.86-1.328-3.407-3-3.407H.343v.297h.235c.766 0 .781.11.781.469v5.187c0 .36-.015.454-.78.454H.343V0h3.61c1.64 0 3-1.453 3-3.312m-.984 0c0 1.093-.188 1.687-.532 2.171a2.18 2.18 0 0 1-1.75.829h-1c-.468 0-.484-.063-.484-.391v-5.328c0-.313.016-.39.485-.39h.984c.61 0 1.297.218 1.797.921.422.578.5 1.422.5 2.188m0 0"/><path id="g" d="M7.234-2.375v-.312l-1.203.03c-.39 0-1.234 0-1.578-.03v.312h.313c.89 0 .922.094.922.469v.625c0 1.11-1.25 1.187-1.532 1.187-.64 0-2.593-.343-2.593-3.265 0-2.953 1.937-3.282 2.53-3.282 1.048 0 1.954.891 2.141 2.344.032.14.032.156.172.156.157 0 .157-.015.157-.234v-2.328c0-.172 0-.234-.11-.234-.047 0-.078 0-.156.109l-.5.734c-.313-.312-.844-.843-1.813-.843C2.141-6.937.547-5.391.547-3.36.547-1.344 2.125.219 4 .219c.719 0 1.5-.266 1.844-.844.125.219.515.61.625.61.093 0 .093-.079.093-.22v-1.718c0-.375.032-.422.672-.422m0 0"/><path id="h" d="M3.281 0v-.312h-.265c-.766 0-.797-.094-.797-.454v-5.187c0-.36.031-.469.797-.469h.265v-.297c-.344.032-1.125.032-1.5.032-.39 0-1.156 0-1.5-.032v.297h.25c.782 0 .813.11.813.469v5.187c0 .36-.032.454-.813.454h-.25V0c.344-.031 1.11-.031 1.485-.031.39 0 1.172 0 1.515.031m0 0"/><path id="i" d="M7.156.094c0-.094 0-.203-.11-.203-.093 0-.093.078-.109.172-.062.53-.468.828-.89.828-.469 0-.719-.328-.953-.953 1.172-.532 2-1.782 2-3.282 0-2-1.485-3.593-3.282-3.593-1.75 0-3.265 1.578-3.265 3.593 0 2 1.484 3.563 3.281 3.563.313 0 .656-.063.938-.156.14.937.28 1.843 1.203 1.843 1 0 1.187-1.312 1.187-1.812M6.11-3.344c0 .781-.109 2.157-1.156 2.938-.219-.563-.531-1.047-1.11-1.047-.5 0-.812.422-.812.828 0 .266.125.453.14.469-.53-.203-1.64-.922-1.64-3.188 0-2.547 1.375-3.343 2.282-3.343.968 0 2.296.843 2.296 3.343M4.703-.25a1.784 1.784 0 0 1-.875.219c-.5 0-.578-.453-.578-.594 0-.297.203-.61.594-.61.531 0 .75.407.86.985m0 0"/><path id="d" d="M4.813-6.703c0-.734-.5-1.61-2.204-1.61-1.28 0-1.968.829-1.968 1.579 0 .422.312.515.5.515.187 0 .484-.14.484-.484 0-.281-.203-.484-.5-.484H1c.266-.61.953-.891 1.578-.891 1.328 0 1.328.86 1.328 1.312 0 .688-.203.922-.406 1.125a4.069 4.069 0 0 0-1.062 2.688v.562c0 .22 0 .266.124.266.126 0 .126-.078.126-.297v-.437c0-.703.296-1.735 1.484-2.625.328-.25.64-.61.64-1.22M3.125-.578a.56.56 0 0 0-.562-.563.563.563 0 0 0-.579.563c0 .36.282.578.563.578a.577.577 0 0 0 .578-.578m0 0"/><clipPath id="a"><path d="M1.09 0H25v24H1.09Zm0 0"/></clipPath><clipPath id="e"><path d="M197 17h29.871v38H197Zm0 0"/></clipPath><clipPath id="f"><path d="M41 60h18v18.125H41Zm0 0"/></clipPath></defs><path fill="none" stroke="#000" stroke-miterlimit="10" stroke-width=".39429579000000003" d="M7.602 35.93h8.628m16.586 0h8.633M7.406 35.93V.395"/><g clip-path="url(#a)"><path fill="none" stroke="#000" stroke-miterlimit="10" stroke-width=".78760337" d="M7.406.395h5.922L7.406 12.238 1.48.395h5.926"/></g><path fill="none" stroke="#000" stroke-miterlimit="10" stroke-width=".78760337" d="M16.23 27.64h16.586v16.583H16.23Zm0 0"/><path d="M12.066 35.93v1.96l4.164-1.96-4.164-1.961Zm0 0"/><path fill="none" stroke="#000" stroke-miterlimit="10" stroke-width=".39429579000000003" d="m18.719 29.547 11.61 6.383-11.61 6.386Zm0 0"/><path fill="none" stroke="#000" stroke-miterlimit="10" stroke-width=".78760337" d="M41.45 27.64H58.03v16.583H41.45Zm0 0"/><path fill="none" stroke="#000" stroke-miterlimit="10" stroke-width=".39429579000000003" d="M55.543 35.93a5.806 5.806 0 0 0-5.805-5.805 5.805 5.805 0 0 0 0 11.61 5.803 5.803 0 0 0 5.805-5.805ZM45.637 31.828l8.207 8.207m0-8.207-8.207 8.207M58.031 31.785h4.23m0 0h4.231V14.863h8.465"/><path d="M70.79 14.863v1.961l4.167-1.96-4.168-1.962Zm0 0"/><path fill="none" stroke="#000" stroke-miterlimit="10" stroke-width=".78760337" d="M74.957 6.57H91.54v16.586H74.957Zm0 0"/><path fill="none" stroke="#000" stroke-miterlimit="10" stroke-width=".39429579000000003" d="M79.102 10.715c.675-1.059 1.324-2.07 2.074-2.07.75 0 1.394 1.011 2.07 2.07.676 1.062 1.324 2.074 2.074 2.074.75 0 1.399-1.012 2.075-2.074m-2.903-1.242-2.488 2.488M79.102 14.863c.675-1.062 1.324-2.074 2.074-2.074.75 0 1.394 1.012 2.07 2.074.676 1.059 1.324 2.07 2.074 2.07.75 0 1.399-1.011 2.075-2.07m-2.903-1.246-2.488 2.488M79.102 19.008c.675-1.063 1.324-2.074 2.074-2.074.75 0 1.394 1.011 2.07 2.074.676 1.062 1.324 2.074 2.074 2.074.75 0 1.399-1.012 2.075-2.074M91.54 14.863h4.23m0 0H100"/><path d="M95.836 14.863v1.961l4.164-1.96-4.164-1.962Zm0 0"/><path fill="none" stroke="#000" stroke-miterlimit="10" stroke-width=".78760337" d="M100 6.57h16.586v16.586H100Zm0 0"/><path fill="none" stroke="#000" stroke-miterlimit="10" stroke-width=".39429579000000003" d="M100 23.156 116.586 6.57"/><use xlink:href="#b" x="100.87" y="14.656"/><use xlink:href="#c" x="108.264" y="21.956"/><path fill="none" stroke="#000" stroke-miterlimit="10" stroke-width=".39429579000000003" d="M58.031 40.078h4.23m0 0h4.231V57h8.465"/><path d="M70.79 57v1.96L74.956 57l-4.168-1.96Zm0 0"/><path fill="none" stroke="#000" stroke-miterlimit="10" stroke-width=".78760337" d="M74.957 48.707H91.54v16.586H74.957Zm0 0"/><path fill="none" stroke="#000" stroke-miterlimit="10" stroke-width=".39429579000000003" d="M79.102 52.855c.675-1.062 1.324-2.074 2.074-2.074.75 0 1.394 1.012 2.07 2.074.676 1.06 1.324 2.07 2.074 2.07.75 0 1.399-1.01 2.075-2.07m-2.903-1.246-2.488 2.489M79.102 57c.675-1.062 1.324-2.074 2.074-2.074.75 0 1.394 1.012 2.07 2.074.676 1.063 1.324 2.074 2.074 2.074.75 0 1.399-1.011 2.075-2.074m-2.903-1.242-2.488 2.488M79.102 61.148c.675-1.062 1.324-2.074 2.074-2.074.75 0 1.394 1.012 2.07 2.074.676 1.059 1.324 2.07 2.074 2.07.75 0 1.399-1.011 2.075-2.07M91.54 57h4.23m0 0H100"/><path d="M95.836 57v1.96L100 57l-4.164-1.96Zm0 0"/><path fill="none" stroke="#000" stroke-miterlimit="10" stroke-width=".78760337" d="M100 48.707h16.586v16.586H100Zm0 0"/><path fill="none" stroke="#000" stroke-miterlimit="10" stroke-width=".39429579000000003" d="m100 65.293 16.586-16.586"/><use xlink:href="#b" x="100.87" y="56.794"/><use xlink:href="#c" x="108.264" y="64.094"/><path fill="none" stroke="#000" stroke-miterlimit="10" stroke-width=".78760337" d="M133.508 27.64h16.586v16.583h-16.586Zm0 0"/><use xlink:href="#d" x="139.071" y="40.091"/><path fill="none" stroke="#000" stroke-miterlimit="10" stroke-width=".39429579000000003" d="M116.586 14.863h4.23m0 0h4.23v16.922h8.462"/><path d="M129.344 31.785v1.961l4.164-1.96-4.164-1.962Zm0 0"/><path fill="none" stroke="#000" stroke-miterlimit="10" stroke-width=".39429579000000003" d="M116.586 57h4.23m0 0h4.23V40.078h8.462"/><path d="M129.344 40.078v1.961l4.164-1.96-4.164-1.962Zm0 0"/><path fill="none" stroke="#000" stroke-miterlimit="10" stroke-width=".39429579000000003" d="M150.094 35.93h8.633m16.582 0h8.632"/><path fill="none" stroke="#000" stroke-miterlimit="10" stroke-width=".78760337" d="M158.727 27.64h16.582v16.583h-16.582Zm0 0"/><path d="M154.559 35.93v1.96l4.168-1.96-4.168-1.961Zm0 0"/><path fill="none" stroke="#000" stroke-miterlimit="10" stroke-width=".39429579000000003" d="m158.727 44.223 16.582-16.582"/><use xlink:href="#c" x="159.523" y="35.563"/><use xlink:href="#b" x="167.055" y="43.188"/><path d="M179.773 35.93v1.96l4.168-1.96-4.168-1.961Zm0 0"/><path fill="none" stroke="#000" stroke-miterlimit="10" stroke-width=".78760337" d="M183.941 27.64h16.583v16.583H183.94Zm0 0"/><path fill="none" stroke="#000" stroke-miterlimit="10" stroke-width=".39429579000000003" d="m186.43 29.547 11.61 6.383-11.61 6.386ZM200.524 35.93h4.23m0 0h4.234"/><path d="M204.82 35.93v1.96l4.168-1.96-4.168-1.961Zm0 0"/><g clip-path="url(#e)"><path fill="none" stroke="#000" stroke-miterlimit="10" stroke-width=".78760337" d="M223.203 41.262v-10.66c0-.98-.797-1.778-1.777-1.778h-10.664c-.98 0-1.774.797-1.774 1.778v10.66c0 .98.793 1.777 1.774 1.777h10.664c.98 0 1.777-.797 1.777-1.777Zm0 0"/></g><path fill="none" stroke="#000" stroke-miterlimit="10" stroke-opacity=".5" stroke-width=".19665379000000002" d="M210.762 39.469h10.664m-10.664-1.77h10.664m-10.664-1.77h10.664m-10.664-1.765h10.664m-10.664-1.77h10.664m-10.637 7.09V32.38m1.77 7.105V32.38m1.77 7.105V32.38m1.765 7.105V32.38m1.77 7.105V32.38m1.765 7.105V32.38m1.77 7.105V32.38"/><path fill="none" stroke="#000" stroke-miterlimit="10" stroke-width=".39429579000000003" d="M49.738 44.223v8.46m0 0v8.465"/><g clip-path="url(#f)"><path fill="none" stroke="#000" stroke-miterlimit="10" stroke-width=".78760337" d="M41.45 61.148H58.03V77.73H41.45Zm0 0"/></g><path fill="none" stroke="#000" stroke-miterlimit="10" stroke-width=".39429579000000003" d="M50.777 65.707c.336-.531.66-1.035 1.036-1.035.375 0 .699.504 1.039 1.035.336.531.66 1.04 1.035 1.04.375 0 .699-.509 1.035-1.04M50.777 67.781c.336-.531.66-1.035 1.036-1.035.375 0 .699.504 1.039 1.035.336.532.66 1.035 1.035 1.035.375 0 .699-.503 1.035-1.035M50.777 69.855c.336-.53.66-1.039 1.036-1.039.375 0 .699.508 1.039 1.04.336.527.66 1.035 1.035 1.035.375 0 .699-.508 1.035-1.036"/><use xlink:href="#g" x="42.144" y="70.728"/><path fill="none" stroke="#000" stroke-miterlimit="10" stroke-width=".39429579000000003" d="M43.938 72.34h11.605M43.938 75.242h11.605v-1.656H43.938ZM43.938 76.488h11.605"/><use xlink:href="#h" x="44.133" y="22.252"/><use xlink:href="#i" x="47.687" y="22.252"/></svg>