<svg xmlns="http://www.w3.org/2000/svg" xmlns:xlink="http://www.w3.org/1999/xlink" width="222.834" height="130.669"><defs><path id="b" d="M4.156 0v-.312h-.312c-.89 0-.922-.11-.922-.47v-5.577c0-.235 0-.266-.235-.266-.609.64-1.484.64-1.796.64v.313c.187 0 .78 0 1.297-.266V-.78c0 .36-.032.469-.922.469H.938V0c.359-.031 1.218-.031 1.609-.031.406 0 1.265 0 1.61.031m0 0"/><path id="c" d="M4.547-1.703c0-.813-.625-1.594-1.672-1.797.828-.266 1.39-.969 1.39-1.75 0-.812-.859-1.375-1.827-1.375-1 0-1.75.61-1.75 1.36 0 .327.218.515.5.515.312 0 .515-.219.515-.5 0-.5-.469-.5-.625-.5.313-.484.969-.625 1.328-.625.406 0 .953.219.953 1.125 0 .11-.015.688-.28 1.125-.298.484-.642.5-.876.516a3.9 3.9 0 0 1-.39.03c-.079.017-.157.017-.157.126 0 .11.078.11.235.11h.437c.828 0 1.188.671 1.188 1.64 0 1.36-.688 1.64-1.125 1.64-.422 0-1.172-.171-1.516-.75.344.047.656-.171.656-.546 0-.36-.265-.563-.562-.563-.235 0-.547.14-.547.578 0 .907.922 1.563 2 1.563 1.219 0 2.125-.906 2.125-1.922m0 0"/><path id="d" d="M10.031-6.484v-.297c-.297.015-.61.031-.906.031l-1.187-.031v.297c.671.015.859.343.859.53 0 .063-.016.141-.047.204L7.266-1.156 5.672-6.031c0-.047-.031-.094-.031-.157 0-.296.578-.296.843-.296v-.297c-.359.031-1.03.031-1.421.031l-1.204-.031v.297c.563 0 .766 0 .891.359l.219.703-1.375 4.266-1.61-4.89c0-.032-.015-.11-.015-.141 0-.297.578-.297.828-.297v-.297c-.36.031-1.031.031-1.406.031L.17-6.781v.297c.75 0 .798.062.907.422l2 6.093c.016.094.047.188.188.188.14 0 .156-.063.187-.203l1.64-5.047L6.75.03c.031.094.063.188.188.188.14 0 .156-.063.203-.203l1.89-5.828c.188-.563.61-.672 1-.672m0 0"/><path id="e" d="M4.125-1.187c0-.094-.078-.11-.125-.11-.094 0-.11.047-.14.14C3.515-.14 2.624-.14 2.53-.14c-.5 0-.906-.296-1.125-.671-.297-.47-.297-1.125-.297-1.485h2.766c.219 0 .25 0 .25-.203 0-.984-.531-1.953-1.781-1.953C1.188-4.453.28-3.422.28-2.187.281-.86 1.328.108 2.47.108 3.672.11 4.125-1 4.125-1.187M3.469-2.5h-2.36C1.172-3.984 2-4.234 2.344-4.234c1.031 0 1.125 1.343 1.125 1.734m0 0"/><path id="f" d="M2.453 0v-.312c-.656 0-.687-.047-.687-.438v-3.64l-1.391.109v.312c.64 0 .734.047.734.547V-.75c0 .438-.109.438-.78.438V0l1.093-.031c.344 0 .687.015 1.031.031m-.547-6a.547.547 0 0 0-.531-.531A.536.536 0 0 0 .844-6c0 .266.234.531.531.531A.536.536 0 0 0 1.906-6m0 0"/><path id="g" d="M3.297-1.234v-.563h-.25v.547c0 .734-.297 1.11-.656 1.11-.672 0-.672-.907-.672-1.079v-2.75H3.14v-.312H1.719V-6.11h-.25c-.016.812-.313 1.875-1.281 1.922v.218h.843v2.735c0 1.218.922 1.343 1.282 1.343.703 0 .984-.703.984-1.343m0 0"/><path id="h" d="M3.625-3.781c0-.328-.312-.61-.75-.61-.719 0-1.078.657-1.219 1.094V-4.39l-1.375.11v.312c.688 0 .766.063.766.547V-.75c0 .438-.11.438-.766.438V0l1.125-.031c.407 0 .875 0 1.266.031v-.312h-.203c-.735 0-.766-.11-.766-.47v-1.53c0-.985.422-1.86 1.172-1.86.078 0 .094 0 .11.016a.426.426 0 0 0-.22.375c0 .281.204.437.422.437.188 0 .438-.125.438-.437m0 0"/><path id="i" d="m6.813-4.484-.188-2.25H.547l-.188 2.25h.25c.141-1.61.282-1.938 1.782-1.938.187 0 .437 0 .547.016.203.047.203.156.203.39V-.78c0 .328 0 .469-1.047.469h-.39V0c.405-.031 1.421-.031 1.874-.031.453 0 1.485 0 1.89.031v-.312h-.405c-1.032 0-1.032-.141-1.032-.47v-5.234c0-.203 0-.343.172-.39.11-.016.375-.016.563-.016 1.5 0 1.656.328 1.797 1.938Zm0 0"/><path id="j" d="M2.531 0v-.312c-.656 0-.765 0-.765-.438v-6.14l-1.438.109v.297c.703 0 .781.078.781.562V-.75c0 .438-.109.438-.78.438V0l1.109-.031Zm0 0"/><path id="k" d="M5.234 0v-.312c-.687 0-.765-.063-.765-.547v-6.032l-1.438.11v.297c.703 0 .781.078.781.562v2.14a1.6 1.6 0 0 0-1.265-.609c-1.172 0-2.203.97-2.203 2.25 0 1.266.969 2.25 2.094 2.25.64 0 1.093-.343 1.343-.656V.11ZM3.781-1.172c0 .172 0 .203-.11.36-.296.484-.75.703-1.171.703-.453 0-.812-.266-1.047-.641-.266-.406-.297-.969-.297-1.375 0-.375.032-.969.313-1.406.203-.313.593-.64 1.125-.64.344 0 .765.14 1.078.593.11.172.11.187.11.375Zm0 0"/><path id="l" d="M3.578-1.266c0-.53-.297-.828-.422-.953-.328-.312-.719-.39-1.125-.469-.562-.109-1.219-.25-1.219-.828 0-.343.25-.75 1.11-.75 1.094 0 1.14.891 1.156 1.204.016.093.125.093.125.093.125 0 .125-.047.125-.234V-4.22c0-.156 0-.234-.11-.234-.046 0-.062 0-.202.125l-.157.156c-.39-.281-.796-.281-.937-.281-1.219 0-1.594.672-1.594 1.219 0 .359.156.625.422.843.328.266.594.329 1.313.47.218.03 1.03.187 1.03.905 0 .516-.343.907-1.109.907-.843 0-1.203-.563-1.39-1.407-.031-.14-.031-.171-.14-.171-.126 0-.126.062-.126.25v1.312c0 .172 0 .234.11.234C.484.11.5.094.688-.094.703-.109.703-.125.89-.312a1.51 1.51 0 0 0 1.093.421c1.141 0 1.594-.671 1.594-1.375m0 0"/><path id="m" d="M6.484-2.562h-.25c-.25 1.53-.484 2.25-2.187 2.25H2.719c-.469 0-.485-.063-.485-.391V-3.36h.891c.969 0 1.078.312 1.078 1.156h.25v-2.625h-.25c0 .86-.11 1.156-1.078 1.156h-.89v-2.375c0-.328.015-.406.484-.406H4c1.531 0 1.797.547 1.953 1.937h.25L5.922-6.75H.328v.297h.235c.765 0 .78.11.78.469v5.203c0 .36-.015.469-.78.469H.328V0h5.735Zm0 0"/><path id="n" d="M8.078 0v-.312c-.515 0-.765 0-.781-.297V-2.5c0-.86 0-1.172-.297-1.531-.14-.157-.469-.36-1.047-.36-.828 0-1.266.594-1.437.97-.141-.86-.875-.97-1.328-.97-.72 0-1.188.422-1.47 1.047V-4.39l-1.405.11v.312c.703 0 .78.063.78.547V-.75c0 .438-.109.438-.78.438V0l1.125-.031L2.547 0v-.312c-.656 0-.766 0-.766-.438v-1.828c0-1.047.703-1.594 1.344-1.594.625 0 .734.531.734 1.094V-.75c0 .438-.109.438-.78.438V0l1.124-.031L5.313 0v-.312c-.657 0-.766 0-.766-.438v-1.828c0-1.047.703-1.594 1.344-1.594.625 0 .734.531.734 1.094V-.75c0 .438-.11.438-.781.438V0l1.125-.031Zm0 0"/><path id="o" d="M5.172-2.14c0-1.266-.953-2.25-2.078-2.25-.766 0-1.188.437-1.39.656v-.657L.28-4.28v.312c.703 0 .766.047.766.485v4.656c0 .453-.11.453-.766.453v.297l1.11-.031 1.125.03v-.296c-.672 0-.782 0-.782-.453V-.594c.047.172.47.703 1.235.703 1.172 0 2.203-.968 2.203-2.25m-.813 0c0 1.203-.703 2.03-1.437 2.03-.39 0-.781-.202-1.047-.609-.14-.203-.14-.219-.14-.422v-2.203c.296-.515.78-.797 1.28-.797.735 0 1.344.875 1.344 2m0 0"/><path id="p" d="M3.547-6.312c0-.36-.36-.688-.89-.688-.704 0-1.548.516-1.548 1.578v1.14H.33v.313h.78V-.75c0 .438-.109.438-.765.438V0l1.125-.031c.406 0 .86 0 1.265.031v-.312h-.203c-.75 0-.765-.11-.765-.47v-3.187h1.14v-.312H1.734v-1.157c0-.875.485-1.343.922-1.343.031 0 .172 0 .328.062a.44.44 0 0 0-.296.422.41.41 0 0 0 .421.422c.297 0 .438-.203.438-.437m0 0"/><path id="q" d="M4.797-.89v-.547h-.25v.546c0 .579-.25.641-.36.641-.328 0-.359-.453-.359-.5v-1.984c0-.422 0-.797-.36-1.172-.39-.39-.89-.547-1.359-.547-.812 0-1.5.469-1.5 1.125 0 .297.204.469.454.469a.435.435 0 0 0 .453-.453c0-.126-.047-.454-.5-.47.265-.343.75-.452 1.078-.452.484 0 1.047.39 1.047 1.265v.375c-.5.031-1.203.063-1.828.36-.75.343-1 .859-1 1.297 0 .796.968 1.046 1.593 1.046.657 0 1.11-.39 1.297-.859.047.39.313.813.781.813.204 0 .813-.141.813-.954m-1.656-.5c0 .937-.72 1.28-1.157 1.28-.5 0-.906-.343-.906-.843 0-.547.422-1.375 2.063-1.438ZM2.094-6.017a.495.495 0 0 0-.485-.468.473.473 0 0 0-.484.468.484.484 0 1 0 .969 0m1.765 0a.495.495 0 0 0-.484-.468.483.483 0 0 0-.484.468c0 .25.203.485.484.485.297 0 .484-.25.484-.485m0 0"/><path id="r" d="M5.313 0v-.312c-.516 0-.766 0-.766-.297V-2.5c0-.86 0-1.172-.313-1.531-.14-.157-.468-.36-1.046-.36-.72 0-1.188.422-1.47 1.047V-4.39l-1.405.11v.312c.703 0 .78.063.78.547V-.75c0 .438-.109.438-.78.438V0l1.125-.031L2.547 0v-.312c-.656 0-.766 0-.766-.438v-1.828c0-1.047.703-1.594 1.344-1.594.625 0 .734.531.734 1.094V-.75c0 .438-.109.438-.78.438V0l1.124-.031Zm0 0"/><path id="s" d="M4.813-4.016c0-.171-.11-.484-.5-.484-.204 0-.641.063-1.047.469a1.689 1.689 0 0 0-1.063-.36c-.922 0-1.61.688-1.61 1.454 0 .437.22.812.47 1.015-.125.156-.313.484-.313.828 0 .313.14.688.438.89C.594-.046.28.392.28.782c0 .719.985 1.266 2.188 1.266 1.172 0 2.219-.5 2.219-1.281 0-.344-.141-.86-.657-1.141-.515-.266-1.093-.266-1.703-.266-.25 0-.672 0-.75-.015-.312-.047-.531-.344-.531-.672 0-.031 0-.266.172-.453.39.265.797.297.984.297.922 0 1.61-.688 1.61-1.453 0-.36-.157-.735-.407-.954.36-.343.719-.39.89-.39 0 0 .079 0 .11.015-.11.032-.156.141-.156.266a.27.27 0 0 0 .281.281.28.28 0 0 0 .282-.297M3.077-2.937c0 .265-.015.578-.172.828-.078.125-.297.406-.703.406-.86 0-.86-1-.86-1.234 0-.266 0-.579.157-.829a.846.846 0 0 1 .703-.39c.875 0 .875.984.875 1.218M4.156.78c0 .547-.703 1.031-1.672 1.031-1 0-1.687-.5-1.687-1.03 0-.454.375-.829.812-.844h.594c.844 0 1.953 0 1.953.843m0 0"/><path id="t" d="M4.469-1.734h-.25c-.063.297-.125.734-.219.89-.078.078-.734.078-.953.078H1.266L2.313-1.78c1.546-1.375 2.156-1.922 2.156-2.907 0-1.14-.907-1.937-2.11-1.937C1.234-6.625.5-5.703.5-4.812c0 .546.5.546.531.546.157 0 .516-.109.516-.53a.513.513 0 0 0-.531-.516c-.079 0-.094 0-.125.015.218-.64.765-1.016 1.328-1.016.906 0 1.344.813 1.344 1.625 0 .797-.5 1.579-1.047 2.188L.609-.375C.5-.265.5-.235.5 0h3.688Zm0 0"/><path id="u" d="M7.313 0v-.312c-.532 0-.75-.032-1.047-.47L3.969-4.155l1.797-1.735c.078-.078.609-.578 1.406-.593v-.297c-.25.031-.578.031-.844.031-.36 0-.922 0-1.266-.031v.297c.407.015.47.25.47.328 0 .156-.11.265-.188.328L2.234-2.86v-3.157c0-.359.016-.468.782-.468h.25v-.297c-.36.031-1.094.031-1.47.031-.374 0-1.124 0-1.468-.031v.297h.235c.765 0 .78.109.78.468V-.78c0 .36-.015.469-.78.469H.328V0c.344-.031 1.078-.031 1.453-.031.39 0 1.125 0 1.485.031v-.312h-.25c-.766 0-.782-.11-.782-.47v-1.734l1.157-1.093L5.188-.937c.062.078.156.218.156.328 0 .297-.39.297-.594.297V0c.344-.031 1.047-.031 1.422-.031Zm0 0"/><path id="v" d="M4.688-2.125c0-1.281-1-2.328-2.204-2.328C1.25-4.453.281-3.375.281-2.125.281-.844 1.312.109 2.47.109a2.22 2.22 0 0 0 2.219-2.234m-.829-.078c0 .36 0 .89-.218 1.328a1.273 1.273 0 0 1-1.157.734c-.421 0-.859-.203-1.14-.671-.235-.438-.235-1.032-.235-1.391 0-.39 0-.922.235-1.36a1.308 1.308 0 0 1 1.125-.671c.437 0 .875.218 1.125.64.265.438.265 1.016.265 1.39m0 0"/><path id="w" d="M2.75-1.86v-.577H.11v.578Zm0 0"/><path id="x" d="M4.797-.89v-.547h-.25v.546c0 .579-.25.641-.36.641-.328 0-.359-.453-.359-.5v-1.984c0-.422 0-.797-.36-1.172-.39-.39-.89-.547-1.359-.547-.812 0-1.5.469-1.5 1.125 0 .297.204.469.454.469a.435.435 0 0 0 .453-.453c0-.126-.047-.454-.5-.47.265-.343.75-.452 1.078-.452.484 0 1.047.39 1.047 1.265v.375c-.5.031-1.203.063-1.828.36-.75.343-1 .859-1 1.297 0 .796.968 1.046 1.593 1.046.657 0 1.11-.39 1.297-.859.047.39.313.813.781.813.204 0 .813-.141.813-.954m-1.656-.5c0 .937-.72 1.28-1.157 1.28-.5 0-.906-.343-.906-.843 0-.547.422-1.375 2.063-1.438Zm0 0"/><clipPath id="a"><path d="M.2 30H33v44H.2Zm0 0"/></clipPath></defs><path fill="none" stroke="#000" stroke-miterlimit="10" stroke-width=".39799053" d="M11.316 104.723h30.368m29.464 0h30.364M11.117 104.723V41.586"/><g clip-path="url(#a)"><path fill="none" stroke="#000" stroke-miterlimit="10" stroke-width=".79498359" d="M11.117 41.586h10.524L11.117 62.629.597 41.586h10.52"/></g><path fill="none" stroke="#000" stroke-miterlimit="10" stroke-width=".79498359" d="M41.684 89.988h29.464v29.465H41.684Zm0 0"/><path d="M37.477 104.723v1.976l4.207-1.976-4.207-1.98Zm0 0"/><use xlink:href="#b" x="53.931" y="108.031"/><path d="M97.309 104.723v1.976l4.203-1.976-4.203-1.98Zm0 0"/><path fill="none" stroke="#000" stroke-miterlimit="10" stroke-width=".79498359" d="M101.512 89.988h29.465v29.465h-29.465Zm0 0"/><use xlink:href="#c" x="113.759" y="107.922"/><path fill="none" stroke="#000" stroke-miterlimit="10" stroke-width=".39799053" d="M130.977 104.723h15.03m0 0h15.036"/><path d="M156.836 104.723v1.976l4.207-1.976-4.207-1.98Zm0 0"/><use xlink:href="#d" x="164.551" y="89.205"/><use xlink:href="#e" x="173.942" y="89.205"/><use xlink:href="#f" x="178.355" y="89.205"/><use xlink:href="#g" x="181.117" y="89.205"/><use xlink:href="#e" x="184.983" y="89.205"/><use xlink:href="#h" x="189.395" y="89.205"/><use xlink:href="#e" x="193.291" y="89.205"/><use xlink:href="#i" x="164.551" y="101.13"/><use xlink:href="#e" x="170.901" y="101.13"/><use xlink:href="#f" x="175.314" y="101.13"/><use xlink:href="#j" x="178.076" y="101.13"/><use xlink:href="#e" x="180.839" y="101.13"/><use xlink:href="#k" x="164.551" y="113.055"/><use xlink:href="#e" x="170.077" y="113.055"/><use xlink:href="#l" x="174.489" y="113.055"/><use xlink:href="#m" x="164.551" y="124.979"/><use xlink:href="#n" x="171.319" y="124.979"/><use xlink:href="#o" x="179.597" y="124.979"/><use xlink:href="#p" x="185.122" y="124.979"/><use xlink:href="#q" x="188.163" y="124.979"/><use xlink:href="#r" x="193.132" y="124.979"/><use xlink:href="#s" x="198.657" y="124.979"/><use xlink:href="#e" x="203.626" y="124.979"/><use xlink:href="#h" x="208.038" y="124.979"/><use xlink:href="#l" x="211.933" y="124.979"/><path fill="none" stroke="#000" stroke-miterlimit="10" stroke-width=".39799053" d="M116.246 89.988V59.926m0 0V29.859"/><path d="M116.246 85.785h-1.98l1.98 4.203 1.977-4.203Zm0 0"/><path fill="none" stroke="#000" stroke-miterlimit="10" stroke-width=".79498359" d="M101.512.395h29.465v29.464h-29.465Zm0 0"/><use xlink:href="#t" x="113.759" y="18.438"/><path fill="none" stroke="#000" stroke-miterlimit="10" stroke-width=".39799053" d="M101.512 15.129H86.48m0 0H71.45"/><path d="M97.309 15.129v1.976l4.203-1.976-4.203-1.98Zm0 0"/><use xlink:href="#u" x="28.704" y="12.56"/><use xlink:href="#v" x="36.157" y="12.56"/><use xlink:href="#r" x="41.125" y="12.56"/><use xlink:href="#g" x="46.372" y="12.56"/><use xlink:href="#h" x="50.238" y="12.56"/><use xlink:href="#v" x="54.134" y="12.56"/><use xlink:href="#j" x="59.102" y="12.56"/><use xlink:href="#j" x="61.865" y="12.56"/><use xlink:href="#w" x="64.627" y="12.56"/><use xlink:href="#f" x="17.374" y="24.485"/><use xlink:href="#r" x="20.137" y="24.485"/><use xlink:href="#p" x="25.662" y="24.485"/><use xlink:href="#v" x="28.703" y="24.485"/><use xlink:href="#h" x="33.672" y="24.485"/><use xlink:href="#n" x="37.567" y="24.485"/><use xlink:href="#x" x="45.845" y="24.485"/><use xlink:href="#g" x="50.814" y="24.485"/><use xlink:href="#f" x="54.679" y="24.485"/><use xlink:href="#v" x="57.442" y="24.485"/><use xlink:href="#r" x="62.411" y="24.485"/></svg>