<svg xmlns="http://www.w3.org/2000/svg" xmlns:xlink="http://www.w3.org/1999/xlink" width="228.466" height="79.474"><defs><path id="b" d="M7.094 0v-.312h-.188c-.593 0-.718-.063-.828-.391l-2.14-6.188c-.047-.125-.063-.187-.235-.187-.156 0-.187.062-.234.187L1.422-.969c-.172.5-.578.657-1.11.657V0l1.016-.031L2.468 0v-.312c-.5 0-.75-.235-.75-.5 0-.032.016-.125.016-.141l.47-1.297H4.64l.515 1.516a.368.368 0 0 1 .032.125c0 .297-.547.297-.813.297V0c.36-.031 1.047-.031 1.422-.031ZM4.53-2.562H2.297l1.11-3.22Zm0 0"/><path id="c" d="M7-3.328C7-5.203 5.656-6.75 3.969-6.75H.344v.297h.234c.766 0 .781.11.781.469v5.218c0 .344-.015.454-.78.454H.343V0h3.625C5.625 0 7-1.469 7-3.328m-1 0c0 1.11-.187 1.703-.547 2.187-.187.266-.75.829-1.75.829h-1c-.469 0-.484-.063-.484-.391v-5.344c0-.328.015-.406.484-.406h.985c.609 0 1.296.219 1.796.922.438.593.516 1.437.516 2.203m0 0"/><path id="g" d="M7.266-2.39v-.313l-1.203.031c-.391 0-1.235 0-1.594-.031v.312h.312c.89 0 .922.11.922.47v.64c0 1.11-1.25 1.187-1.531 1.187-.64 0-2.594-.343-2.594-3.281 0-2.969 1.938-3.297 2.531-3.297 1.063 0 1.97.89 2.157 2.344.03.14.03.172.156.172.172 0 .172-.032.172-.235v-2.343c0-.172 0-.235-.11-.235-.046 0-.078 0-.171.11l-.485.734c-.312-.312-.86-.844-1.828-.844-1.844 0-3.453 1.563-3.453 3.594C.547-1.359 2.14.219 4.016.219c.718 0 1.515-.266 1.843-.844.141.219.532.61.641.61.094 0 .094-.079.094-.22v-1.718c0-.39.031-.438.672-.438m0 0"/><path id="h" d="M3.297 0v-.312H3.03c-.781 0-.812-.11-.812-.454v-5.218c0-.36.031-.47.812-.47h.266v-.296c-.344.031-1.125.031-1.5.031-.39 0-1.172 0-1.516-.031v.297h.25c.782 0 .813.11.813.469v5.218c0 .344-.032.454-.813.454h-.25V0c.344-.031 1.125-.031 1.5-.031.39 0 1.172 0 1.516.031m0 0"/><path id="i" d="M7.188.094c0-.094 0-.203-.11-.203-.078 0-.094.078-.11.172-.062.546-.468.843-.89.843-.469 0-.719-.343-.953-.968 1.172-.532 2-1.797 2-3.297 0-2.016-1.484-3.61-3.281-3.61-1.781 0-3.297 1.578-3.297 3.61 0 2 1.5 3.578 3.297 3.578.312 0 .656-.063.937-.156.157.953.297 1.859 1.219 1.859 1 0 1.188-1.313 1.188-1.828M6.14-3.36c0 .78-.125 2.172-1.172 2.937-.219-.547-.532-1.047-1.11-1.047-.5 0-.812.438-.812.828 0 .282.125.47.14.485-.53-.203-1.64-.922-1.64-3.203 0-2.563 1.375-3.36 2.297-3.36.953 0 2.297.844 2.297 3.36M4.719-.25a1.784 1.784 0 0 1-.875.219c-.5 0-.578-.453-.578-.61 0-.28.203-.609.593-.609.532 0 .75.422.86 1m0 0"/><path id="d" d="M4.828-6.75c0-.719-.5-1.61-2.203-1.61-1.281 0-1.984.829-1.984 1.594 0 .422.328.516.5.516.203 0 .484-.14.484-.5a.48.48 0 0 0-.5-.484c-.062 0-.094 0-.11.015.25-.625.938-.906 1.579-.906 1.344 0 1.344.875 1.344 1.328 0 .688-.22.922-.422 1.125-.813.875-1.063 1.984-1.063 2.703v.563c0 .219 0 .265.125.265s.125-.078.125-.296v-.438c0-.703.297-1.75 1.485-2.64.343-.25.64-.61.64-1.235M3.141-.578a.574.574 0 0 0-.563-.578A.576.576 0 0 0 2-.578c0 .36.281.578.563.578a.577.577 0 0 0 .578-.578m0 0"/><clipPath id="a"><path d="M.484 0H25v24H.484Zm0 0"/></clipPath><clipPath id="e"><path d="M199 15h28.45v43H199Zm0 0"/></clipPath><clipPath id="f"><path d="M40 61h19v17.953H40Zm0 0"/></clipPath></defs><path fill="none" stroke="#000" stroke-miterlimit="10" stroke-width=".39637857000000004" d="M7.066 36.313h8.723m16.762 0h8.722M6.867 36.313V.395"/><g clip-path="url(#a)"><path fill="none" stroke="#000" stroke-miterlimit="10" stroke-width=".7917637100000001" d="M6.867.395h5.985L6.867 12.367.883.395h5.984"/></g><path fill="none" stroke="#000" stroke-miterlimit="10" stroke-width=".7917637100000001" d="M15.79 27.93h16.76V44.69H15.79Zm0 0"/><path d="M11.598 36.313v1.968l4.191-1.968-4.191-1.973Zm0 0"/><path fill="none" stroke="#000" stroke-miterlimit="10" stroke-width=".39637857000000004" d="m18.3 29.86 11.735 6.453-11.734 6.453Zm0 0"/><path fill="none" stroke="#000" stroke-miterlimit="10" stroke-width=".7917637100000001" d="M41.273 27.93h16.758V44.69H41.273Zm0 0"/><path fill="none" stroke="#000" stroke-miterlimit="10" stroke-width=".39637857000000004" d="M55.52 36.313a5.867 5.867 0 1 0-11.735 0 5.867 5.867 0 0 0 11.735 0ZM45.504 32.164l8.297 8.297m0-8.297-8.297 8.297M58.031 32.121h4.278m0 0h4.273V15.02h8.555"/><path d="M70.945 15.02v1.968l4.192-1.968-4.192-1.973Zm0 0"/><path fill="none" stroke="#000" stroke-miterlimit="10" stroke-width=".7917637100000001" d="M75.137 6.637h16.758v16.761H75.137Zm0 0"/><path fill="none" stroke="#000" stroke-miterlimit="10" stroke-width=".39637857000000004" d="M79.324 10.828c.684-1.074 1.34-2.094 2.098-2.094.758 0 1.41 1.02 2.094 2.094.683 1.074 1.336 2.094 2.093 2.094.762 0 1.414-1.02 2.098-2.094M84.773 9.57l-2.515 2.516M79.324 15.02c.684-1.075 1.34-2.098 2.098-2.098.758 0 1.41 1.023 2.094 2.098.683 1.07 1.336 2.093 2.093 2.093.762 0 1.414-1.023 2.098-2.093m-2.934-1.258-2.515 2.511M79.324 19.207c.684-1.07 1.34-2.094 2.098-2.094.758 0 1.41 1.024 2.094 2.094.683 1.074 1.336 2.098 2.093 2.098.762 0 1.414-1.024 2.098-2.098M91.895 15.02h4.277m0 0h4.277"/><path d="M96.258 15.02v1.968l4.191-1.968-4.191-1.973Zm0 0"/><path fill="none" stroke="#000" stroke-miterlimit="10" stroke-width=".7917637100000001" d="M100.45 6.637h16.757v16.761h-16.758Zm0 0"/><path fill="none" stroke="#000" stroke-miterlimit="10" stroke-width=".39637857000000004" d="m100.45 23.398 16.757-16.761"/><use xlink:href="#b" x="101.345" y="14.791"/><use xlink:href="#c" x="108.818" y="22.169"/><path fill="none" stroke="#000" stroke-miterlimit="10" stroke-width=".39637857000000004" d="M58.031 40.5h4.278m0 0h4.273v17.105h8.555"/><path d="M70.945 57.605v1.973l4.192-1.973-4.192-1.972Zm0 0"/><path fill="none" stroke="#000" stroke-miterlimit="10" stroke-width=".7917637100000001" d="M75.137 49.223h16.758v16.761H75.137Zm0 0"/><path fill="none" stroke="#000" stroke-miterlimit="10" stroke-width=".39637857000000004" d="M79.324 53.414c.684-1.07 1.34-2.094 2.098-2.094.758 0 1.41 1.024 2.094 2.094.683 1.074 1.336 2.098 2.093 2.098.762 0 1.414-1.024 2.098-2.098m-2.934-1.258-2.515 2.516M79.324 57.605c.684-1.074 1.34-2.093 2.098-2.093.758 0 1.41 1.02 2.094 2.093.683 1.07 1.336 2.094 2.093 2.094.762 0 1.414-1.023 2.098-2.094m-2.934-1.257-2.515 2.515M79.324 61.797c.684-1.074 1.34-2.098 2.098-2.098.758 0 1.41 1.024 2.094 2.098.683 1.07 1.336 2.094 2.093 2.094.762 0 1.414-1.024 2.098-2.094M91.895 57.605h4.277m0 0h4.277"/><path d="M96.258 57.605v1.973l4.191-1.973-4.191-1.972Zm0 0"/><path fill="none" stroke="#000" stroke-miterlimit="10" stroke-width=".7917637100000001" d="M100.45 49.223h16.757v16.761h-16.758Zm0 0"/><path fill="none" stroke="#000" stroke-miterlimit="10" stroke-width=".39637857000000004" d="m100.45 65.984 16.757-16.761"/><use xlink:href="#b" x="101.345" y="57.377"/><use xlink:href="#c" x="108.818" y="64.755"/><path fill="none" stroke="#000" stroke-miterlimit="10" stroke-width=".7917637100000001" d="M134.313 27.93h16.761V44.69h-16.761Zm0 0"/><use xlink:href="#d" x="139.948" y="40.492"/><path fill="none" stroke="#000" stroke-miterlimit="10" stroke-width=".39637857000000004" d="M117.207 15.02h4.277m0 0h4.278V32.12h8.55"/><path d="M130.125 32.121v1.973l4.188-1.973-4.188-1.973Zm0 0"/><path fill="none" stroke="#000" stroke-miterlimit="10" stroke-width=".39637857000000004" d="M117.207 57.605h4.277m0 0h4.278V40.5h8.55"/><path d="M130.125 40.5v1.973l4.188-1.973-4.188-1.969Zm0 0"/><path fill="none" stroke="#000" stroke-miterlimit="10" stroke-width=".39637857000000004" d="M151.074 36.313h8.723m16.758 0h8.722"/><path fill="none" stroke="#000" stroke-miterlimit="10" stroke-width=".7917637100000001" d="M159.797 27.93h16.758V44.69h-16.758Zm0 0"/><path d="M155.605 36.313v1.968l4.192-1.968-4.192-1.973Zm0 0"/><path fill="none" stroke="#000" stroke-miterlimit="10" stroke-width=".39637857000000004" d="m159.797 44.691 16.758-16.761"/><use xlink:href="#c" x="160.622" y="35.92"/><use xlink:href="#b" x="168.234" y="43.626"/><path d="M181.09 36.313v1.968l4.187-1.968-4.187-1.973Zm0 0"/><path fill="none" stroke="#000" stroke-miterlimit="10" stroke-width=".7917637100000001" d="M185.277 27.93h16.762V44.69h-16.762Zm0 0"/><path fill="none" stroke="#000" stroke-miterlimit="10" stroke-width=".39637857000000004" d="m187.793 29.86 11.734 6.453-11.734 6.453ZM202.04 36.313h4.276m0 0h4.274"/><path d="M206.402 36.313v1.968l4.188-1.968-4.188-1.973Zm0 0"/><g clip-path="url(#e)"><path fill="none" stroke="#000" stroke-miterlimit="10" stroke-width=".7917637100000001" d="M210.59 45.89V26.735h7.426v19.157Zm7.426-14.367 5.746-2.875v15.325l-5.746-2.871Zm0 0"/></g><path fill="none" stroke="#000" stroke-miterlimit="10" stroke-width=".39637857000000004" d="M49.652 44.691v8.551m0 0v8.555"/><g clip-path="url(#f)"><path fill="none" stroke="#000" stroke-miterlimit="10" stroke-width=".7917637100000001" d="M41.273 61.797h16.758v16.758H41.273Zm0 0"/></g><path fill="none" stroke="#000" stroke-miterlimit="10" stroke-width=".39637857000000004" d="M50.7 66.406c.343-.539.667-1.05 1.046-1.05s.707.511 1.047 1.05c.344.535.672 1.047 1.05 1.047.38 0 .704-.512 1.048-1.047M50.7 68.5c.343-.535.667-1.047 1.046-1.047s.707.512 1.047 1.047c.344.535.672 1.047 1.05 1.047.38 0 .704-.512 1.048-1.047M50.7 70.594c.343-.535.667-1.047 1.046-1.047s.707.512 1.047 1.047c.344.539.672 1.047 1.05 1.047.38 0 .704-.508 1.048-1.047"/><use xlink:href="#g" x="41.996" y="71.46"/><path fill="none" stroke="#000" stroke-miterlimit="10" stroke-width=".39637857000000004" d="M43.785 73.11H55.52M43.785 76.043H55.52v-1.676H43.785ZM43.785 77.3H55.52"/><use xlink:href="#h" x="44.016" y="22.515"/><use xlink:href="#i" x="47.589" y="22.515"/></svg>