<svg xmlns="http://www.w3.org/2000/svg" xmlns:xlink="http://www.w3.org/1999/xlink" width="228.068" height="87.462"><defs><path id="b" d="M7.11 0v-.312h-.188c-.594 0-.734-.063-.844-.391l-2.14-6.188c-.047-.14-.063-.203-.22-.203-.155 0-.187.063-.234.203L1.422-.969c-.172.5-.563.657-1.11.657V0l1.016-.031L2.468 0v-.312c-.5 0-.75-.25-.75-.5 0-.032.016-.125.032-.141l.453-1.313h2.438L5.17-.75a.58.58 0 0 1 .032.14c0 .298-.562.298-.828.298V0c.36-.031 1.047-.031 1.438-.031ZM4.53-2.562H2.313l1.109-3.22Zm0 0"/><path id="c" d="M7-3.328c0-1.875-1.328-3.438-3.031-3.438H.344v.313h.234c.766 0 .781.11.781.453v5.234c0 .344-.015.454-.78.454H.343V0h3.625C5.64 0 7-1.469 7-3.328m-.984 0c0 1.094-.188 1.687-.547 2.172-.203.281-.766.843-1.766.843h-1c-.469 0-.484-.062-.484-.39v-5.36c0-.328.015-.39.484-.39h.985c.624 0 1.312.219 1.812.922.422.578.516 1.437.516 2.203m0 0"/><path id="g" d="M7.281-2.39v-.313l-1.203.031c-.406 0-1.25 0-1.594-.031v.312h.313c.89 0 .922.11.922.47v.64c0 1.11-1.266 1.187-1.532 1.187-.656 0-2.609-.343-2.609-3.297 0-2.953 1.953-3.28 2.547-3.28 1.063 0 1.953.89 2.156 2.343.016.14.016.172.157.172.156 0 .156-.032.156-.235V-6.75c0-.172 0-.234-.11-.234-.03 0-.078 0-.156.125l-.5.734c-.312-.328-.844-.86-1.828-.86C2.156-6.984.563-5.421.563-3.39.563-1.359 2.14.22 4.015.22c.734 0 1.515-.266 1.859-.844.125.219.531.61.64.61.079 0 .079-.079.079-.22v-1.734c0-.375.047-.422.687-.422m0 0"/><path id="h" d="M3.297 0v-.312h-.25c-.781 0-.813-.11-.813-.454V-6c0-.344.032-.453.813-.453h.25v-.313c-.344.032-1.125.032-1.5.032-.39 0-1.172 0-1.516-.032v.313h.25c.782 0 .813.11.813.453v5.234c0 .344-.032.454-.813.454h-.25V0c.344-.031 1.125-.031 1.5-.031.39 0 1.172 0 1.516.031m0 0"/><path id="i" d="M7.203.094c0-.094 0-.203-.11-.203C7-.11 7-.031 6.985.063c-.062.546-.468.843-.906.843-.469 0-.703-.343-.953-.968C6.297-.594 7.141-1.86 7.141-3.36c0-2.016-1.5-3.625-3.297-3.625C2.078-6.984.563-5.406.563-3.36c0 2 1.484 3.578 3.296 3.578.297 0 .641-.063.938-.156.14.953.281 1.859 1.203 1.859 1.016 0 1.203-1.313 1.203-1.828M6.156-3.36c0 .78-.125 2.172-1.172 2.937-.218-.547-.53-1.047-1.125-1.047-.5 0-.812.422-.812.828 0 .282.14.47.14.485-.53-.203-1.64-.922-1.64-3.203 0-2.578 1.39-3.375 2.297-3.375.953 0 2.312.843 2.312 3.375M4.72-.25c-.328.188-.64.219-.86.219-.515 0-.593-.453-.593-.61 0-.28.218-.609.593-.609.532 0 .75.422.86 1m0 0"/><path id="d" d="M4.828-6.75c0-.719-.5-1.61-2.203-1.61-1.281 0-1.984.829-1.984 1.594 0 .422.328.516.5.516.203 0 .484-.14.484-.5a.48.48 0 0 0-.5-.484c-.062 0-.094 0-.11.015.25-.625.938-.906 1.579-.906 1.344 0 1.344.875 1.344 1.328 0 .688-.22.922-.422 1.125-.813.875-1.063 1.984-1.063 2.703v.563c0 .219 0 .265.125.265s.125-.078.125-.296v-.438c0-.703.297-1.75 1.485-2.64.343-.25.64-.61.64-1.235M3.141-.578a.574.574 0 0 0-.563-.578A.576.576 0 0 0 2-.578c0 .36.281.578.563.578a.577.577 0 0 0 .578-.578m0 0"/><clipPath id="a"><path d="M.234 23H32v34H.234Zm0 0"/></clipPath><clipPath id="e"><path d="M198 0h28.906v25H198Zm0 0"/></clipPath><clipPath id="f"><path d="M132 67h20v19.926h-20Zm0 0"/></clipPath></defs><g clip-path="url(#a)"><path fill="none" stroke="#000" stroke-miterlimit="10" stroke-width=".7921303300000001" d="M20.422 34.7v10.554H5.379V34.699ZM5.379 42.616.629 44.2v-8.445l4.75 1.586Zm0 0"/></g><path fill="none" stroke="#000" stroke-miterlimit="10" stroke-width=".39656211" d="M20.422 39.977h9.61m18.472 0h9.613"/><path fill="none" stroke="#000" stroke-miterlimit="10" stroke-width=".7921303300000001" d="M30.031 30.742h18.473v18.469H30.03Zm0 0"/><path d="M25.844 39.977v1.972l4.187-1.972-4.187-1.973Zm0 0"/><path fill="none" stroke="#000" stroke-miterlimit="10" stroke-width=".39656211" d="m30.031 49.21 18.473-18.468"/><use xlink:href="#b" x="31.399" y="39.366"/><use xlink:href="#c" x="39.642" y="47.515"/><path d="M53.926 39.977v1.972l4.191-1.972-4.191-1.973Zm0 0"/><path fill="none" stroke="#000" stroke-miterlimit="10" stroke-width=".7921303300000001" d="M58.117 30.742H76.59v18.469H58.117Zm0 0"/><use xlink:href="#d" x="64.607" y="44.159"/><path fill="none" stroke="#000" stroke-miterlimit="10" stroke-width=".39656211" d="M76.59 35.36h4.71m0 0h4.712V16.511h9.425"/><path d="M91.246 16.512v1.972l4.192-1.972-4.192-1.973Zm0 0"/><path fill="none" stroke="#000" stroke-miterlimit="10" stroke-width=".7921303300000001" d="M95.437 7.277h18.47v18.47h-18.47Zm0 0"/><path fill="none" stroke="#000" stroke-miterlimit="10" stroke-width=".39656211" d="m95.437 25.746 18.47-18.469"/><use xlink:href="#c" x="96.732" y="15.737"/><use xlink:href="#b" x="105.114" y="24.212"/><path fill="none" stroke="#000" stroke-miterlimit="10" stroke-width=".39656211" d="M76.59 44.594h4.71m0 0h4.712V63.44h9.425"/><path d="M91.246 63.441v1.973l4.192-1.973-4.192-1.968Zm0 0"/><path fill="none" stroke="#000" stroke-miterlimit="10" stroke-width=".7921303300000001" d="M95.437 54.207h18.47V72.68h-18.47Zm0 0"/><path fill="none" stroke="#000" stroke-miterlimit="10" stroke-width=".39656211" d="m95.437 72.68 18.47-18.473"/><use xlink:href="#c" x="96.732" y="62.669"/><use xlink:href="#b" x="105.114" y="71.143"/><path fill="none" stroke="#000" stroke-miterlimit="10" stroke-width=".7921303300000001" d="M132.754 30.742h18.473v18.469h-18.473Zm0 0"/><path fill="none" stroke="#000" stroke-miterlimit="10" stroke-width=".39656211" d="M148.457 39.977a6.465 6.465 0 1 0-12.93 0 6.465 6.465 0 0 0 12.93 0ZM137.418 35.406l9.144 9.14m0-9.14-9.144 9.14M113.906 16.512h4.715m0 0h4.711v18.847h9.422"/><path d="M128.566 35.36v1.972l4.188-1.973-4.188-1.972Zm0 0"/><path fill="none" stroke="#000" stroke-miterlimit="10" stroke-width=".39656211" d="M113.906 63.441h4.715m0 0h4.711V44.594h9.422"/><path d="M128.566 44.594v1.972l4.188-1.972-4.188-1.973Zm0 0"/><path fill="none" stroke="#000" stroke-miterlimit="10" stroke-width=".39656211" d="M151.227 39.977h9.613m18.469 0h9.613"/><path fill="none" stroke="#000" stroke-miterlimit="10" stroke-width=".7921303300000001" d="M160.84 30.742h18.469v18.469h-18.47Zm0 0"/><path fill="none" stroke="#000" stroke-miterlimit="10" stroke-width=".39656211" d="m163.61 32.867 12.929 7.11-12.93 7.113Zm0 0"/><path fill="none" stroke="#000" stroke-miterlimit="10" stroke-width=".7921303300000001" d="M188.922 30.742h18.472v18.469h-18.472Zm0 0"/><path fill="none" stroke="#000" stroke-miterlimit="10" stroke-width=".39656211" d="M193.539 35.36c.754-1.184 1.477-2.31 2.312-2.31.836 0 1.555 1.126 2.31 2.31.75 1.183 1.472 2.308 2.308 2.308.836 0 1.554-1.125 2.308-2.309m-3.234-1.386-2.77 2.773M193.539 39.977c.754-1.18 1.477-2.309 2.312-2.309.836 0 1.555 1.129 2.31 2.309.75 1.183 1.472 2.308 2.308 2.308.836 0 1.554-1.125 2.308-2.308M193.539 44.594c.754-1.18 1.477-2.309 2.312-2.309.836 0 1.555 1.13 2.31 2.309.75 1.183 1.472 2.308 2.308 2.308.836 0 1.554-1.125 2.308-2.308m-3.234-1.383-2.77 2.77M207.394 39.977h4.711m0 0h4.715M216.621 39.977V.395"/><g clip-path="url(#e)"><path fill="none" stroke="#000" stroke-miterlimit="10" stroke-width=".7921303300000001" d="M216.621.395h6.598L216.62 13.59 210.023.395h6.598"/></g><path fill="none" stroke="#000" stroke-miterlimit="10" stroke-width=".39656211" d="M141.992 49.21v9.427m0 0v9.425"/><path d="M141.992 53.402h1.973l-1.973-4.191-1.972 4.191Zm0 0"/><g clip-path="url(#f)"><path fill="none" stroke="#000" stroke-miterlimit="10" stroke-width=".7921303300000001" d="M132.754 68.062h18.473v18.47h-18.473Zm0 0"/></g><path fill="none" stroke="#000" stroke-miterlimit="10" stroke-width=".39656211" d="M143.144 73.14c.38-.59.739-1.156 1.157-1.156.418 0 .777.567 1.152 1.157.379.59.738 1.152 1.156 1.152.418 0 .778-.563 1.153-1.152M143.144 75.45c.38-.59.739-1.153 1.157-1.153.418 0 .777.562 1.152 1.152.379.59.738 1.156 1.156 1.156.418 0 .778-.566 1.153-1.156M143.144 77.758c.38-.59.739-1.153 1.157-1.153.418 0 .777.563 1.152 1.153.379.59.738 1.156 1.156 1.156.418 0 .778-.566 1.153-1.156"/><use xlink:href="#g" x="133.948" y="78.368"/><path fill="none" stroke="#000" stroke-miterlimit="10" stroke-width=".39656211" d="M135.527 80.527h12.93M135.527 83.762h12.93v-1.848h-12.93ZM135.527 85.148h12.93"/><use xlink:href="#h" x="136.351" y="25.322"/><use xlink:href="#i" x="139.925" y="25.322"/></svg>