<svg xmlns="http://www.w3.org/2000/svg" xmlns:xlink="http://www.w3.org/1999/xlink" width="226.318" height="94.846"><defs><path id="a" d="M6.14.078c0-.078 0-.187-.109-.187-.093 0-.11.078-.11.14-.046.485-.437.688-.75.688-.343 0-.546-.188-.796-.781.734-.282 1.719-1.204 1.719-2.641 0-1.594-1.266-2.89-2.813-2.89C1.72-5.594.47-4.282.47-2.704.469-1.093 1.734.172 3.28.172c.266 0 .531-.047.781-.11.157.797.297 1.485 1.047 1.485.829 0 1.032-1.016 1.032-1.469m-.859-2.781c0 1-.297 1.86-1.031 2.344-.312-.735-.687-.844-.969-.844-.39 0-.703.312-.703.672a.76.76 0 0 0 .094.344C1.828-.516 1.266-1.36 1.266-2.703 1.266-4.61 2.39-5.36 3.28-5.36c.906 0 2 .765 2 2.656M4-.234a1.71 1.71 0 0 1-.719.156c-.406 0-.469-.344-.469-.453a.46.46 0 0 1 .485-.453c.39 0 .578.297.703.75m0 0"/><path id="b" d="M4.469 0v-.266c-.547 0-.61-.046-.61-.437V-3.5l-1.203.078v.266c.547 0 .61.047.61.437v1.39C3.266-.64 2.844-.14 2.25-.14c-.687 0-.719-.343-.719-.734V-3.5l-1.203.078v.266c.61 0 .61.015.61.734v1.188c0 .578 0 1.312 1.265 1.312.75 0 1.031-.578 1.078-.64v.64Zm0 0"/><path id="c" d="M3.5-.953c0-.031-.016-.11-.125-.11-.078 0-.094.047-.11.094a1.155 1.155 0 0 1-1.124.797 1.11 1.11 0 0 1-.953-.531c-.235-.36-.235-.875-.235-1.11h2.328c.172 0 .219 0 .219-.187 0-.703-.375-1.547-1.5-1.547-.984 0-1.766.813-1.766 1.813 0 1.015.86 1.812 1.86 1.812C3.109.078 3.5-.766 3.5-.953m-.531-1.063H.953C1.031-3.14 1.703-3.328 2-3.328c.922 0 .953 1.125.969 1.312m0 0"/><path id="d" d="M2.125 0v-.266c-.516 0-.61 0-.61-.359v-4.89l-1.187.077v.266c.547 0 .61.063.61.453v4.094c0 .36-.094.36-.61.36V0c.313-.031.766-.031.89-.031.173 0 .595 0 .907.031m0 0"/><path id="e" d="M4.469 0v-.266c-.516 0-.61 0-.61-.359v-1.781c0-.672-.296-1.094-1.125-1.094-.796 0-1.156.563-1.25.75v-.75l-1.156.078v.266c.531 0 .61.047.61.437v2.094c0 .36-.11.36-.61.36V0c.344-.031.688-.031.906-.031.235 0 .563 0 .907.031v-.266c-.516 0-.61 0-.61-.359v-1.437c0-.829.64-1.22 1.125-1.22s.61.345.61.845v1.812c0 .36-.094.36-.61.36V0c.344-.031.688-.031.906-.031.235 0 .563 0 .907.031m0 0"/><path id="f" d="M3.5-.953c0-.094-.094-.094-.125-.094-.047 0-.094 0-.11.078-.062.172-.28.797-1.078.797-.5 0-1.203-.375-1.203-1.547 0-1.156.594-1.578 1.172-1.578.078 0 .485 0 .766.14a.348.348 0 0 0-.25.345c0 .218.156.374.375.374a.36.36 0 0 0 .375-.374c0-.5-.547-.735-1.297-.735A1.823 1.823 0 0 0 .281-1.719C.281-.703 1.11.078 2.11.078 3.234.078 3.5-.859 3.5-.953m0 0"/><path id="g" d="M3.984-1.687c0-1-.828-1.86-1.875-1.86-1.046 0-1.875.86-1.875 1.86 0 .984.86 1.765 1.875 1.765 1.032 0 1.875-.781 1.875-1.765m-.718-.079c0 .36-.016.797-.235 1.141-.219.313-.578.453-.922.453-.437 0-.765-.203-.937-.484-.203-.328-.219-.719-.219-1.11 0-.296 0-.78.235-1.125.218-.28.546-.437.921-.437.407 0 .75.203.938.484.219.328.219.766.219 1.078m0 0"/><path id="h" d="M4.406 0v-.266c-.547 0-.61-.046-.61-.437v-4.813l-1.187.079v.265c.547 0 .61.063.61.453v1.672A1.441 1.441 0 0 0 2.156-3.5c-1 0-1.875.766-1.875 1.797 0 .969.797 1.781 1.797 1.781.469 0 .86-.219 1.125-.5v.5ZM3.203-.984c0 .14 0 .172-.125.328a1.174 1.174 0 0 1-.969.515c-.359 0-.671-.187-.875-.484-.203-.312-.25-.703-.25-1.078 0-.453.079-.781.25-1.063.204-.296.563-.515.954-.515.39 0 .765.187 1.015.594Zm0 0"/><path id="i" d="M2.063 0v-.266c-.516 0-.547-.03-.547-.343V-3.5l-1.157.078v.266c.5 0 .579.047.579.437v2.094c0 .36-.094.36-.61.36V0c.313-.031.766-.031.875-.031.11 0 .594 0 .86.031m-.454-4.781a.44.44 0 0 0-.437-.453.45.45 0 0 0-.438.453c0 .218.188.437.438.437s.437-.218.437-.437m0 0"/><path id="j" d="M3.047-3c0-.281-.25-.5-.594-.5-.515 0-.875.375-1.031.828h-.016V-3.5l-1.125.078v.266c.532 0 .594.047.594.437v2.094c0 .36-.094.36-.594.36V0c.313-.031.75-.031.938-.031.468 0 .484 0 1 .031v-.266h-.156c-.579 0-.594-.078-.594-.375v-1.171c0-.594.234-1.454 1-1.47-.047.032-.125.095-.125.282 0 .234.187.36.36.36.187 0 .343-.141.343-.36m0 0"/><path id="k" d="M6.203 0v-.266c-.297 0-.562 0-.797-.312L3.391-3.312l1.562-1.376c.531-.468.953-.468 1.125-.484v-.266c-.297.032-.312.032-.734.032-.407 0-.422 0-.953-.032v.266c.156.016.297.078.297.234 0 .063-.016.172-.172.313L1.89-2.297V-4.78c0-.297.015-.39.625-.39h.172v-.266l-1.172.03-1.172-.03v.265H.53c.61 0 .625.094.625.39V-.64c0 .297-.015.375-.625.375H.344V0l1.172-.031L2.688 0v-.266h-.172c-.61 0-.625-.078-.625-.375v-1.328l1.015-.906L4.47-.75c.078.094.125.172.125.266 0 .218-.282.218-.422.218V0L5.25-.031c.219 0 .672 0 .953.031m0 0"/><path id="l" d="M4.094-.719v-.437h-.25v.437c0 .328-.125.453-.281.453-.297 0-.297-.359-.297-.453v-1.656c0-.781-.766-1.172-1.485-1.172-.656 0-1.25.25-1.25.781a.36.36 0 0 0 .375.375.361.361 0 0 0 .375-.375c0-.187-.125-.312-.297-.359.297-.203.72-.203.782-.203.453 0 .89.312.89.969v.25c-.469.015-1 .046-1.547.265-.703.313-.843.766-.843 1.032 0 .687.812.89 1.359.89a1.23 1.23 0 0 0 1.11-.64c.046.296.25.609.593.609.078 0 .766-.031.766-.766m-1.438-.406c0 .781-.656.984-.969.984-.421 0-.765-.28-.765-.656 0-.531.5-1.078 1.734-1.11Zm0 0"/><path id="m" d="M7.344 0v-.266h-.172c-.625 0-.64-.078-.64-.375v-4.14c0-.297.015-.39.64-.39h.172v-.266H6c-.219 0-.234.03-.297.171L3.86-.75l-1.843-4.5c-.063-.156-.063-.187-.297-.187H.39v.265h.172c.609 0 .625.094.625.39v3.938c0 .203 0 .578-.797.578V0c.359-.031.734-.031.937-.031.203 0 .578 0 .938.031v-.266c-.797 0-.797-.375-.797-.578v-4.234l2 4.89c.047.094.094.188.203.188.094 0 .14-.094.172-.187l2.031-4.954h.016v4.5c0 .297-.016.375-.641.375h-.172V0l1.14-.031Zm0 0"/><path id="n" d="M4.406-1.719c0-1-.797-1.781-1.765-1.781-.313 0-.766.078-1.172.484V-3.5L.28-3.422v.266c.563 0 .594.047.594.375V.922c0 .36-.094.36-.594.36v.265c.344-.031.688-.031.907-.031.234 0 .562 0 .906.03v-.265c-.516 0-.61 0-.61-.36V-.39c.375.407.782.47 1.032.47 1.015 0 1.89-.782 1.89-1.798m-.703 0c0 .922-.578 1.578-1.219 1.578-.28 0-.64-.125-.906-.515-.094-.14-.094-.14-.094-.297v-1.688a1.253 1.253 0 0 1 1.079-.625c.624 0 1.14.688 1.14 1.547m0 0"/><path id="o" d="M2.39-1.516c0-.921-.515-1.562-1.078-1.562-.562 0-1.078.656-1.078 1.562C.234-.594.75.047 1.313.047 1.89.047 2.39-.61 2.39-1.516m-.374-.046c0 .703-.313 1.28-.703 1.28-.391 0-.704-.577-.704-1.28 0-.72.344-1.188.704-1.188.359 0 .703.469.703 1.188m0 0"/><path id="p" d="M2.234-.156c0-.172-.14-.172-.218-.172h-.438v-2.547c0-.078 0-.203-.156-.203-.11 0-.14.062-.172.11-.219.452-.437.484-.594.484-.062.015-.14.062-.14.172 0 .062.03.156.172.156.234 0 .453-.14.515-.188v2.016H.766c-.079 0-.22 0-.22.172C.547 0 .688 0 .767 0h1.25c.078 0 .218 0 .218-.156m0 0"/><path id="s" d="M2.438-1.516c0-.187-.188-.187-.235-.187h-.687v-.703c0-.047 0-.235-.188-.235-.203 0-.203.188-.203.235v.703H.438c-.063 0-.25 0-.25.187 0 .188.187.188.25.188h.687v.687c0 .063 0 .25.188.25.203 0 .203-.187.203-.25v-.687h.687c.047 0 .235 0 .235-.188m0 0"/><path id="q" d="M4.703-3.031c0-1.844-1-3.156-2.094-3.156C1.484-6.187.5-4.844.5-3.047.5-1.187 1.516.11 2.61.11c1.109 0 2.093-1.328 2.093-3.14m-.672-.11C4.031-1.67 3.375-.5 2.61-.5c-.78 0-1.421-1.172-1.421-2.64 0-1.454.687-2.438 1.421-2.438.72 0 1.422.984 1.422 2.437m0 0"/><path id="r" d="M4.39-.297c0-.312-.234-.312-.39-.312h-.906v-5.172c0-.157 0-.407-.297-.407-.188 0-.25.125-.297.25-.39.844-.906.954-1.094.97-.156.015-.36.03-.36.312 0 .25.173.297.329.297.188 0 .594-.063 1.031-.438v4.188H1.5c-.156 0-.39 0-.39.312C1.11 0 1.343 0 1.5 0H4c.14 0 .39 0 .39-.297m0 0"/><path id="u" d="M6.063-4.516 5.78-6.75H.328v.297h.235c.765 0 .78.11.78.469v5.203c0 .36-.015.469-.78.469H.328V0c.344-.031 1.125-.031 1.516-.031.406 0 1.312 0 1.672.031v-.312h-.328c-.954 0-.954-.125-.954-.47v-2.452h.86c.953 0 1.047.328 1.047 1.172h.25v-2.641h-.25c0 .844-.094 1.172-1.047 1.172h-.86v-2.516c0-.328.016-.406.485-.406h1.203c1.484 0 1.734.562 1.89 1.937Zm0 0"/><path id="v" d="M6.203-4.937c0-.97-.984-1.844-2.344-1.844H.344v.297h.25c.75 0 .781.109.781.468V-.78c0 .36-.031.469-.781.469h-.25V0c.36-.031 1.094-.031 1.469-.031s1.125 0 1.468.031v-.312h-.234c-.766 0-.797-.11-.797-.47V-3.14h1.688c1.187 0 2.265-.796 2.265-1.796m-1.031 0c0 .468 0 1.53-1.578 1.53H2.219v-2.671c0-.328.031-.406.5-.406h.875c1.578 0 1.578 1.062 1.578 1.547m0 0"/><path id="w" d="M7.297-2.406v-.313l-1.203.031c-.407 0-1.25 0-1.61-.03v.312h.329c.89 0 .921.11.921.484v.625c0 1.125-1.265 1.203-1.546 1.203-.641 0-2.61-.343-2.61-3.312s1.953-3.297 2.563-3.297c1.062 0 1.968.906 2.156 2.36.016.14.016.171.156.171.172 0 .172-.031.172-.234v-2.36c0-.171 0-.234-.11-.234-.046 0-.093 0-.171.11l-.485.734C5.531-6.47 5-7 4.016-7 2.172-7 .563-5.437.563-3.406.563-1.36 2.14.219 4.03.219c.735 0 1.532-.266 1.86-.844.125.219.53.61.64.61.094 0 .094-.079.094-.22v-1.734c0-.39.031-.437.672-.437m0 0"/><path id="x" d="M7.125 0v-.312h-.172c-.61 0-.734-.063-.844-.391L3.953-6.922c-.047-.125-.062-.187-.219-.187-.171 0-.203.046-.25.187L1.438-.969c-.188.5-.579.657-1.125.657V0l1.015-.031L2.468 0v-.312c-.484 0-.734-.25-.734-.5 0-.032 0-.125.016-.157l.453-1.297h2.453L5.188-.75a.58.58 0 0 1 .03.14c0 .298-.562.298-.827.298V0c.359-.031 1.062-.031 1.437-.031ZM4.547-2.578H2.313l1.109-3.219Zm0 0"/><path id="y" d="M4.688-2.125c0-1.281-1-2.328-2.204-2.328C1.25-4.453.281-3.375.281-2.125.281-.844 1.312.109 2.47.109a2.22 2.22 0 0 0 2.219-2.234m-.829-.078c0 .36 0 .89-.218 1.328a1.273 1.273 0 0 1-1.157.734c-.421 0-.859-.203-1.14-.671-.235-.438-.235-1.032-.235-1.391 0-.39 0-.922.235-1.36a1.308 1.308 0 0 1 1.125-.671c.437 0 .875.218 1.125.64.265.438.265 1.016.265 1.39m0 0"/><path id="z" d="M5.234 0v-.312c-.687 0-.765-.063-.765-.547v-6.032l-1.438.11v.297c.703 0 .781.078.781.562v2.14a1.6 1.6 0 0 0-1.265-.609c-1.172 0-2.203.97-2.203 2.25 0 1.266.969 2.25 2.094 2.25.64 0 1.093-.343 1.343-.656V.11ZM3.781-1.172c0 .172 0 .203-.11.36-.296.484-.75.703-1.171.703-.453 0-.812-.266-1.047-.641-.266-.406-.297-.969-.297-1.375 0-.375.032-.969.313-1.406.203-.313.593-.64 1.125-.64.344 0 .765.14 1.078.593.11.172.11.187.11.375Zm0 0"/><path id="A" d="M4.125-1.187c0-.094-.078-.11-.125-.11-.094 0-.11.047-.14.14C3.515-.14 2.624-.14 2.53-.14c-.5 0-.906-.296-1.125-.671-.297-.47-.297-1.125-.297-1.485h2.766c.219 0 .25 0 .25-.203 0-.984-.531-1.953-1.781-1.953C1.188-4.453.28-3.422.28-2.187.281-.86 1.328.108 2.47.108 3.672.11 4.125-1 4.125-1.187M3.469-2.5h-2.36C1.172-3.984 2-4.234 2.344-4.234c1.031 0 1.125 1.343 1.125 1.734m0 0"/><path id="B" d="M3.625-3.781c0-.328-.312-.61-.75-.61-.719 0-1.078.657-1.219 1.094V-4.39l-1.375.11v.312c.688 0 .766.063.766.547V-.75c0 .438-.11.438-.766.438V0l1.125-.031c.407 0 .875 0 1.266.031v-.312h-.203c-.735 0-.766-.11-.766-.47v-1.53c0-.985.422-1.86 1.172-1.86.078 0 .094 0 .11.016a.426.426 0 0 0-.22.375c0 .281.204.437.422.437.188 0 .438-.125.438-.437m0 0"/><path id="C" d="M4.953-1.844c0-1-.656-1.812-1.484-2.015l-1.266-.297a1.308 1.308 0 0 1-1.015-1.266A1.3 1.3 0 0 1 2.5-6.734c1.656 0 1.875 1.64 1.938 2.078.015.062.015.125.125.125.125 0 .125-.047.125-.235v-2c0-.171 0-.234-.11-.234-.062 0-.078 0-.14.125l-.36.563C3.781-6.594 3.375-7 2.5-7 1.39-7 .563-6.125.563-5.078a1.9 1.9 0 0 0 1.296 1.812c.11.047.61.172 1.313.329.265.078.562.14.844.515.203.25.312.578.312.906 0 .704-.5 1.422-1.344 1.422-.28 0-1.03-.047-1.562-.531-.578-.531-.61-1.172-.61-1.531C.798-2.25.72-2.25.688-2.25c-.125 0-.125.063-.125.25v1.984c0 .172 0 .235.11.235.062 0 .078-.016.14-.125 0 0 .032-.047.36-.578.312.343.937.703 1.828.703 1.156 0 1.953-.969 1.953-2.063m0 0"/><path id="D" d="M3.547-6.312c0-.36-.36-.688-.89-.688-.704 0-1.548.516-1.548 1.578v1.14H.33v.313h.78V-.75c0 .438-.109.438-.765.438V0l1.125-.031c.406 0 .86 0 1.265.031v-.312h-.203c-.75 0-.765-.11-.765-.47v-3.187h1.14v-.312H1.734v-1.157c0-.875.485-1.343.922-1.343.031 0 .172 0 .328.062a.44.44 0 0 0-.296.422.41.41 0 0 0 .421.422c.297 0 .438-.203.438-.437m0 0"/><path id="E" d="M3.297-1.234v-.563h-.25v.547c0 .734-.297 1.11-.656 1.11-.672 0-.672-.907-.672-1.079v-2.75H3.14v-.312H1.719V-6.11h-.25c-.016.812-.313 1.875-1.281 1.922v.218h.843v2.735c0 1.218.922 1.343 1.282 1.343.703 0 .984-.703.984-1.343m0 0"/><path id="F" d="M6.984-3.969v-.312c-.218.015-.5.031-.718.031l-.922-.031v.312c.343 0 .562.188.562.469 0 .063 0 .078-.047.203L4.953-.75 3.97-3.516c-.031-.125-.047-.14-.047-.187 0-.266.39-.266.594-.266v-.312l-1.032.031c-.296 0-.593-.016-.89-.031v.312c.375 0 .531.016.625.14.047.063.156.36.234.548l-.86 2.406-.937-2.656c-.062-.11-.062-.14-.062-.172 0-.266.39-.266.593-.266v-.312L1.11-4.25l-.937-.031v.312c.5 0 .625.031.75.344l1.25 3.516c.047.14.078.218.203.218s.156-.062.203-.203l1-2.812L4.594-.078c.031.11.062.187.203.187.125 0 .156-.093.187-.187l1.172-3.266c.172-.484.485-.625.828-.625m0 0"/><path id="G" d="M4.797-.89v-.547h-.25v.546c0 .579-.25.641-.36.641-.328 0-.359-.453-.359-.5v-1.984c0-.422 0-.797-.36-1.172-.39-.39-.89-.547-1.359-.547-.812 0-1.5.469-1.5 1.125 0 .297.204.469.454.469a.435.435 0 0 0 .453-.453c0-.126-.047-.454-.5-.47.265-.343.75-.452 1.078-.452.484 0 1.047.39 1.047 1.265v.375c-.5.031-1.203.063-1.828.36-.75.343-1 .859-1 1.297 0 .796.968 1.046 1.593 1.046.657 0 1.11-.39 1.297-.859.047.39.313.813.781.813.204 0 .813-.141.813-.954m-1.656-.5c0 .937-.72 1.28-1.157 1.28-.5 0-.906-.343-.906-.843 0-.547.422-1.375 2.063-1.438Zm0 0"/><clipPath id="t"><path d="M7 14h192v80.625H7Zm0 0"/></clipPath></defs><path fill="none" stroke="#000" stroke-miterlimit="10" stroke-width=".397803" d="M.2 54.598h15.85m0 0h17.86m27.696 0H97.32m27.696 0h35.715m27.695 0h2.004"/><path fill="none" stroke="#000" stroke-miterlimit="10" stroke-width=".794609" d="M33.91 40.75h27.696v27.695H33.91Zm0 0"/><path d="M29.707 54.598v1.98l4.203-1.98-4.203-1.977Zm0 0"/><path fill="none" stroke="#000" stroke-miterlimit="10" stroke-width=".397803" d="M33.91 68.445 61.606 40.75"/><use xlink:href="#a" x="19.031" y="36.155"/><use xlink:href="#b" x="25.594" y="36.155"/><use xlink:href="#c" x="30.282" y="36.155"/><use xlink:href="#d" x="34.033" y="36.155"/><use xlink:href="#d" x="36.377" y="36.155"/><use xlink:href="#c" x="38.721" y="36.155"/><use xlink:href="#e" x="42.472" y="36.155"/><use xlink:href="#f" x="47.16" y="36.155"/><use xlink:href="#g" x="50.911" y="36.155"/><use xlink:href="#h" x="55.368" y="36.155"/><use xlink:href="#i" x="60.057" y="36.155"/><use xlink:href="#c" x="62.401" y="36.155"/><use xlink:href="#j" x="66.151" y="36.155"/><use xlink:href="#c" x="69.441" y="36.155"/><use xlink:href="#j" x="73.192" y="36.155"/><path fill="none" stroke="#000" stroke-miterlimit="10" stroke-width=".794609" d="M97.32 40.75h27.696v27.695H97.32Zm0 0"/><path d="M93.117 54.598v1.98l4.203-1.98-4.203-1.977Zm0 0"/><path fill="none" stroke="#000" stroke-miterlimit="10" stroke-width=".397803" d="m97.32 68.445 27.696-27.695"/><use xlink:href="#k" x="85.491" y="79.78"/><use xlink:href="#l" x="92.047" y="79.78"/><use xlink:href="#e" x="96.266" y="79.78"/><use xlink:href="#l" x="100.955" y="79.78"/><use xlink:href="#d" x="105.174" y="79.78"/><use xlink:href="#f" x="107.518" y="79.78"/><use xlink:href="#g" x="111.269" y="79.78"/><use xlink:href="#h" x="115.727" y="79.78"/><use xlink:href="#i" x="120.415" y="79.78"/><use xlink:href="#c" x="122.759" y="79.78"/><use xlink:href="#j" x="126.509" y="79.78"/><use xlink:href="#c" x="129.799" y="79.78"/><use xlink:href="#j" x="133.55" y="79.78"/><path fill="none" stroke="#000" stroke-miterlimit="10" stroke-width=".794609" d="M160.73 40.75h27.696v27.695H160.73Zm0 0"/><path fill="none" stroke="#000" stroke-miterlimit="10" stroke-width=".397803" d="m160.73 68.445 27.696-27.695"/><use xlink:href="#m" x="160.271" y="36.155"/><use xlink:href="#l" x="168.003" y="36.155"/><use xlink:href="#n" x="172.222" y="36.155"/><use xlink:href="#n" x="176.91" y="36.155"/><use xlink:href="#c" x="181.837" y="36.155"/><use xlink:href="#j" x="185.588" y="36.155"/><path fill="none" stroke="#000" stroke-miterlimit="10" stroke-width=".397803" d="M190.43 46.672h15.851V30.82h7.93m0 0h7.926"/><path d="M217.93 30.82v1.977l4.207-1.977-4.207-1.98Zm0 0"/><path fill="none" stroke="#000" stroke-miterlimit="10" stroke-width=".397803" d="M190.43 62.523h15.851V78.38h7.93m0 0h7.926"/><path d="M217.93 78.379v1.976l4.207-1.976-4.207-1.98Zm0 0"/><use xlink:href="#o" x="37.726" y="48.19"/><use xlink:href="#p" x="40.363" y="48.19"/><use xlink:href="#o" x="43.001" y="48.19"/><use xlink:href="#p" x="45.638" y="48.19"/><use xlink:href="#q" x="47.296" y="65.559"/><use xlink:href="#r" x="52.511" y="65.559"/><use xlink:href="#q" x="101.195" y="49.707"/><use xlink:href="#r" x="106.41" y="49.707"/><use xlink:href="#o" x="109.328" y="64.042"/><use xlink:href="#p" x="111.965" y="64.042"/><use xlink:href="#s" x="114.602" y="64.042"/><use xlink:href="#o" x="117.239" y="64.042"/><use xlink:href="#p" x="119.876" y="64.042"/><path fill="none" stroke="#000" stroke-miterlimit="10" stroke-width=".794609" d="M180.918 54.598V67.28M174.578 60.938h12.68"/><path stroke="#000" stroke-miterlimit="10" stroke-width=".397803" d="M178.742 57.77a.995.995 0 1 0-1.99-.002.995.995 0 0 0 1.99.002ZM185.082 57.77a.994.994 0 1 0-1.989-.004.994.994 0 0 0 1.99.004ZM178.742 64.11a.994.994 0 0 0-1.988 0 .994.994 0 0 0 1.988 0ZM185.082 64.11a.994.994 0 0 0-1.988 0 .994.994 0 0 0 1.988 0Zm0 0"/><use xlink:href="#q" x="164.604" y="49.707"/><use xlink:href="#r" x="169.819" y="49.707"/><g clip-path="url(#t)"><path fill="none" stroke="#7F7F7F" stroke-dasharray="2.97986351 2.97986351" stroke-miterlimit="10" stroke-width=".794609" d="M8.125 94.23V14.97h190.23V94.23Zm0 0"/></g><g fill="#7F7F7F"><use xlink:href="#u" x="57.509" y="10.488"/><use xlink:href="#v" x="63.995" y="10.488"/><use xlink:href="#w" x="70.759" y="10.488"/><use xlink:href="#x" x="78.556" y="10.488"/></g><use xlink:href="#y" x="89.313" y="10.488" fill="#7F7F7F"/><g fill="#7F7F7F"><use xlink:href="#z" x="94.558" y="10.488"/><use xlink:href="#A" x="100.08" y="10.488"/><use xlink:href="#B" x="104.49" y="10.488"/></g><g fill="#7F7F7F"><use xlink:href="#C" x="111.692" y="10.488"/><use xlink:href="#y" x="117.214" y="10.488"/><use xlink:href="#D" x="122.181" y="10.488"/><use xlink:href="#E" x="125.22" y="10.488"/></g><use xlink:href="#F" x="128.806" y="10.488" fill="#7F7F7F"/><g fill="#7F7F7F"><use xlink:href="#G" x="135.699" y="10.488"/><use xlink:href="#B" x="140.665" y="10.488"/><use xlink:href="#A" x="144.559" y="10.488"/></g></svg>