<svg xmlns="http://www.w3.org/2000/svg" xmlns:xlink="http://www.w3.org/1999/xlink" width="226.771" height="226.575"><defs><path id="a" d="M7.219.094c0-.094 0-.203-.11-.203-.078 0-.093.078-.109.172a.887.887 0 0 1-.89.843c-.47 0-.72-.343-.97-.968 1.173-.532 2.032-1.813 2.032-3.313C7.172-5.391 5.672-7 3.859-7 2.08-7 .563-5.422.563-3.375c0 2.016 1.5 3.594 3.296 3.594.313 0 .657-.063.954-.156.14.953.28 1.859 1.203 1.859C7.03 1.922 7.219.609 7.219.094M6.172-3.375c0 .781-.125 2.188-1.172 2.953-.219-.547-.531-1.047-1.125-1.047-.5 0-.812.422-.812.828 0 .266.124.47.14.485-.547-.203-1.656-.922-1.656-3.219 0-2.578 1.39-3.375 2.312-3.375.954 0 2.313.844 2.313 3.375M4.734-.265a1.634 1.634 0 0 1-.875.234c-.5 0-.578-.453-.578-.61 0-.28.203-.609.594-.609.531 0 .75.422.86.984m0 0"/><path id="e" d="M7.297-2.406v-.313l-1.203.031c-.407 0-1.25 0-1.61-.03v.312h.329c.89 0 .921.11.921.484v.625c0 1.125-1.265 1.203-1.546 1.203-.641 0-2.61-.343-2.61-3.312s1.953-3.297 2.563-3.297c1.062 0 1.968.906 2.156 2.36.016.14.016.171.156.171.172 0 .172-.031.172-.234v-2.36c0-.171 0-.234-.11-.234-.046 0-.093 0-.171.11l-.485.734C5.531-6.47 5-7 4.016-7 2.172-7 .563-5.437.563-3.406.563-1.36 2.14.219 4.03.219c.735 0 1.532-.266 1.86-.844.125.219.53.61.64.61.094 0 .094-.079.094-.22v-1.734c0-.39.031-.437.672-.437m0 0"/><path id="f" d="M3.313 0v-.312h-.266c-.781 0-.813-.11-.813-.47v-5.234c0-.359.032-.468.813-.468h.265v-.297c-.343.031-1.14.031-1.515.031-.39 0-1.172 0-1.516-.031v.297h.25c.797 0 .813.109.813.468V-.78c0 .36-.016.469-.813.469h-.25V0c.344-.031 1.125-.031 1.5-.031.39 0 1.188 0 1.532.031m0 0"/><path id="g" d="M7.219 0v-.312H7.03c-.515 0-.734-.047-.937-.36L4-3.828l1.36-2c.218-.328.546-.64 1.437-.656v-.297l-1.11.031c-.39 0-.875 0-1.265-.031v.297c.39.015.61.234.61.468 0 .094-.016.11-.079.22L3.813-4.11 2.53-6.031c-.015-.032-.062-.11-.062-.157 0-.109.219-.28.64-.296v-.297c-.343.031-1.078.031-1.453.031L.375-6.781v.297h.188c.546 0 .734.078.921.359l1.829 2.75L1.672-.969c-.125.203-.422.657-1.438.657V0l1.11-.031c.36 0 .906 0 1.265.031v-.312c-.453 0-.625-.282-.625-.454 0-.093.032-.125.11-.234L3.5-3.094 5.063-.719c.03.047.062.078.062.11 0 .125-.219.297-.656.297V0c.343-.031 1.078-.031 1.453-.031Zm0 0"/><path id="d" d="M4.313-.625c-.25 0-.47 0-.47-.078 0-.031.25-1.375.329-1.688.469-1.828 1.547-3.14 2.797-3.14.937 0 1.36.687 1.36 1.484 0 1.625-1.829 3.422-4.017 3.422m-.625.734c.093.016.234.032.484.032 2.36 0 4.516-2.266 4.516-4.516 0-.875-.391-1.937-1.594-1.937-2.063 0-2.922 2.906-3.735 5.593-1.64-.312-2.328-1.187-2.328-2.14 0-.391.297-1.922 1.125-2.953.156-.188.156-.22.156-.235 0-.125-.109-.125-.14-.125-.375 0-1.469 2.094-1.469 3.453 0 1.61 1.25 2.469 2.422 2.735l-.75 2.422c-.078.203-.078.234-.078.296 0 .344.344.36.375.36.14 0 .406-.063.515-.344.047-.125.454-2.344.5-2.64m0 0"/><clipPath id="b"><path d="M52 197h29v29.152H52Zm0 0"/></clipPath><clipPath id="c"><path d="M51 196h32v30.152H51Zm0 0"/></clipPath></defs><path fill="none" stroke="#000" stroke-miterlimit="10" stroke-width=".39825387" d="M14.66 211.89h19.074m0 0h19.079"/><use xlink:href="#a" x="3.413" y="214.43"/><path fill="#FFF" stroke="#000" stroke-miterlimit="10" stroke-width=".39825387" d="M16.246 211.89a1.584 1.584 0 1 0-3.168-.004 1.584 1.584 0 0 0 3.168.005Zm0 0"/><path d="M48.602 211.89v1.981l4.21-1.98-4.21-1.98Zm0 0"/><g clip-path="url(#b)"><path fill="none" stroke="#000" stroke-miterlimit="10" stroke-width=".79550961" d="M52.813 198.027h27.726v27.727H52.813Zm0 0"/></g><g clip-path="url(#c)"><path fill="none" stroke="#000" stroke-miterlimit="10" stroke-width=".39825387" d="M76.379 211.89c0-5.359-4.344-9.706-9.703-9.706-5.36 0-9.707 4.347-9.707 9.707 0 5.359 4.347 9.703 9.707 9.703a9.703 9.703 0 0 0 9.703-9.703Zm0 0"/></g><path fill="none" stroke="#000" stroke-miterlimit="10" stroke-width=".39825387" d="m59.813 205.027 13.722 13.723m0-13.723L59.813 218.75M66.676 198.027V178.95m0 0v-19.074"/><path d="M66.676 193.816h-1.98l1.98 4.211 1.98-4.21Zm0 0"/><path fill="none" stroke="#000" stroke-miterlimit="10" stroke-width=".79550961" d="M52.813 132.148h27.726v27.727H52.813Zm0 0"/><use xlink:href="#d" x="62.082" y="147.704"/><path fill="none" stroke="#000" stroke-miterlimit="10" stroke-width=".39825387" d="M66.676 132.148v-19.074m0 0V94"/><path d="M66.676 127.941h-1.98l1.98 4.207 1.98-4.207Zm0 0"/><path fill="none" stroke="#000" stroke-miterlimit="10" stroke-width=".79550961" d="M52.813 66.273h27.726V94H52.813Zm0 0"/><path fill="none" stroke="#000" stroke-miterlimit="10" stroke-width=".39825387" d="M68.406 73.898c.567-.886 1.106-1.734 1.735-1.734s1.168.848 1.734 1.734c.563.887 1.105 1.73 1.73 1.73.63 0 1.168-.843 1.735-1.73M68.406 77.363c.567-.886 1.106-1.734 1.735-1.734s1.168.848 1.734 1.734c.563.887 1.105 1.735 1.73 1.735.63 0 1.168-.848 1.735-1.735M68.406 80.828c.567-.887 1.106-1.73 1.735-1.73s1.168.843 1.734 1.73c.563.887 1.105 1.734 1.73 1.734.63 0 1.168-.847 1.735-1.734"/><use xlink:href="#e" x="56.533" y="80.068"/><path fill="none" stroke="#000" stroke-miterlimit="10" stroke-width=".39825387" d="M56.969 84.988h19.41M56.969 89.84h19.41v-2.774h-19.41ZM56.969 91.922h19.41M66.676 66.273V47.2m0 0V28.121"/><path fill="none" stroke="#000" stroke-miterlimit="10" stroke-width=".79550961" d="M52.813.394h27.726v27.727H52.813Zm0 0"/><path fill="none" stroke="#000" stroke-miterlimit="10" stroke-width=".39825387" d="M76.379 14.258a9.703 9.703 0 0 0-9.703-9.703c-5.36 0-9.707 4.343-9.707 9.703 0 5.36 4.347 9.707 9.707 9.707s9.703-4.348 9.703-9.707ZM59.813 7.398l13.722 13.723m0-13.723L59.813 21.121"/><path d="M66.676 32.332h1.98l-1.98-4.21-1.98 4.21Zm0 0"/><path fill="none" stroke="#000" stroke-miterlimit="10" stroke-width=".39825387" d="M52.813 14.258H33.734m0 0H14.66"/><path d="M48.602 14.258v1.98l4.21-1.98-4.21-1.98Zm0 0"/><path fill="#FFF" stroke="#000" stroke-miterlimit="10" stroke-width=".39825387" d="M16.246 14.258a1.584 1.584 0 1 0-3.167.003 1.584 1.584 0 0 0 3.167-.003Zm0 0"/><use xlink:href="#f" x="7.559" y="17.657"/><path fill="none" stroke="#000" stroke-miterlimit="10" stroke-width=".79550961" d="M142.973 99.21h27.726v27.727h-27.726Zm0 0"/><path fill="none" stroke="#000" stroke-miterlimit="10" stroke-width=".39825387" d="M166.543 113.074c0-5.36-4.348-9.703-9.707-9.703a9.703 9.703 0 0 0-9.703 9.703 9.703 9.703 0 0 0 9.703 9.703c5.36 0 9.707-4.343 9.707-9.703Zm0 0"/><path fill="none" stroke="#000" stroke-miterlimit="10" stroke-width=".79550961" d="M162.66 113.074h-11.644m5.82-5.824v11.648"/><path fill="none" stroke="#000" stroke-miterlimit="10" stroke-width=".39825387" d="M80.54 14.258h76.296V99.21"/><path d="M156.836 95h-1.98l1.98 4.21 1.98-4.21Zm0 0"/><path fill="none" stroke="#000" stroke-miterlimit="10" stroke-width=".39825387" d="M80.54 211.89h76.296v-84.953"/><path d="M156.836 131.148h1.98l-1.98-4.21-1.98 4.21Zm0 0"/><path fill="none" stroke="#000" stroke-miterlimit="10" stroke-width=".39825387" d="M170.7 113.074h19.077m0 0h19.075"/><path fill="#FFF" stroke="#000" stroke-miterlimit="10" stroke-width=".39825387" d="M210.434 113.074a1.584 1.584 0 1 0-3.168 0 1.584 1.584 0 1 0 3.168 0Zm0 0"/><use xlink:href="#g" x="212.361" y="116.472"/></svg>