<svg xmlns="http://www.w3.org/2000/svg" xmlns:xlink="http://www.w3.org/1999/xlink" width="227.387" height="89.071"><defs><path id="b" d="M4.125 0v-.312h-.312c-.891 0-.907-.11-.907-.47v-5.53c0-.235 0-.25-.234-.25-.61.625-1.485.625-1.797.625v.312c.203 0 .781 0 1.297-.266v5.11c0 .36-.031.469-.922.469H.938V0C1.28-.031 2.14-.031 2.53-.031c.39 0 1.25 0 1.594.031m0 0"/><path id="d" d="M7.063-6.422v-.312l-1.157.03-1.156-.03v.312c1.016 0 1.016.453 1.016.719v4.219L2.28-6.61c-.078-.11-.094-.125-.281-.125H.328v.312H.61c.157 0 .344 0 .5.016.22.031.235.031.235.218v5.157c0 .265 0 .718-1.016.718V0l1.156-.031L2.625 0v-.312c-1.016 0-1.016-.454-1.016-.72v-5.124a.365.365 0 0 1 .11.11L5.734-.126c.094.11.11.125.172.125.14 0 .14-.062.14-.25v-5.453c0-.266 0-.719 1.016-.719m0 0"/><path id="e" d="M4.094-1.172c0-.094-.078-.125-.125-.125-.094 0-.11.063-.14.14C3.483-.14 2.608-.14 2.5-.14c-.484 0-.89-.296-1.11-.656-.296-.469-.296-1.125-.296-1.484h2.75c.219 0 .25 0 .25-.203 0-.97-.532-1.938-1.766-1.938-1.14 0-2.047 1.016-2.047 2.25C.281-.844 1.312.11 2.438.11 3.64.11 4.093-.984 4.093-1.17m-.657-1.312H1.11c.047-1.47.875-1.72 1.22-1.72 1.015 0 1.108 1.329 1.108 1.72m0 0"/><path id="f" d="M3.266-1.219v-.562H3.03v.531c0 .734-.297 1.11-.672 1.11-.656 0-.656-.891-.656-1.063v-2.734H3.11v-.313H1.703v-1.812h-.25c0 .812-.297 1.859-1.265 1.906v.218h.843v2.72c0 1.202.907 1.327 1.266 1.327.703 0 .969-.703.969-1.328m0 0"/><path id="g" d="M3.953-1.844h-.25C3.625-.687 3.406-.25 2.266-.25H1.109l2.735-3.703c.094-.11.094-.125.094-.172 0-.125-.079-.125-.266-.125H.516L.422-2.656h.234c.063-1.016.25-1.375 1.328-1.375H3.11L.36-.313c-.078.11-.078.126-.078.172C.281 0 .344 0 .531 0h3.25Zm0 0"/><path id="h" d="M6.938-3.937v-.313c-.22.016-.516.031-.72.031l-.921-.031v.313c.36 0 .562.187.562.468 0 .063 0 .078-.046.203L4.922-.734l-.984-2.75c-.032-.125-.047-.141-.047-.188 0-.265.39-.265.578-.265v-.313l-1.016.031c-.297 0-.578-.015-.875-.031v.313c.36 0 .516.015.61.14.062.063.171.36.234.547L2.578-.875 1.641-3.5c-.047-.125-.047-.14-.047-.172 0-.265.375-.265.578-.265v-.313l-1.078.031-.922-.031v.313c.5 0 .61.015.734.343l1.25 3.485c.047.14.078.218.203.218s.141-.062.188-.203l1-2.781L4.562-.078c.032.11.063.187.188.187s.156-.093.203-.187L6.11-3.312c.172-.5.485-.626.829-.626m0 0"/><path id="i" d="M3.594-3.75c0-.328-.313-.61-.735-.61-.718 0-1.078.657-1.218 1.094v-1.093L.28-4.25v.313c.688 0 .766.062.766.546V-.75c0 .438-.11.438-.766.438V0l1.125-.031c.39 0 .844 0 1.25.031v-.312h-.219c-.718 0-.734-.11-.734-.454V-2.28c0-.985.406-1.86 1.156-1.86.063 0 .094 0 .11.016-.031 0-.235.125-.235.375 0 .281.22.422.438.422.172 0 .422-.11.422-.422m0 0"/><path id="j" d="M5.031 0v-.312c-.36 0-.578 0-.953-.516l-1.25-1.766c-.015-.015-.062-.078-.062-.11 0-.03.703-.624.797-.702.624-.516 1.046-.531 1.25-.531v-.313c-.282.031-.422.031-.688.031-.36 0-.969-.015-1.11-.031v.313c.188 0 .282.109.282.234a.497.497 0 0 1-.203.39l-1.39 1.204v-4.735l-1.423.11v.312c.688 0 .766.063.766.547V-.75c0 .438-.11.438-.766.438V0l1.063-.031L2.438 0v-.312c-.657 0-.766 0-.766-.438v-1.016l.625-.546c.765 1.046 1.172 1.609 1.172 1.78 0 .188-.172.22-.36.22V0l1.079-.031c.28 0 .562.015.843.031m0 0"/><path id="k" d="M4.422-1.719h-.234c-.063.297-.125.735-.22.875-.077.078-.718.078-.937.078H1.25L2.297-1.78c1.531-1.36 2.125-1.89 2.125-2.875 0-1.125-.875-1.907-2.078-1.907A1.813 1.813 0 0 0 .5-4.78c0 .547.484.547.516.547.172 0 .515-.11.515-.516A.504.504 0 0 0 1-5.266c-.078 0-.094 0-.125.016.234-.64.766-1.016 1.328-1.016.906 0 1.328.797 1.328 1.61 0 .797-.5 1.562-1.031 2.187L.594-.359C.5-.25.5-.234.5 0h3.656Zm0 0"/><path id="l" d="M4.5-1.687c0-.813-.61-1.579-1.64-1.782.812-.265 1.374-.953 1.374-1.734 0-.813-.859-1.36-1.812-1.36-1 0-1.735.594-1.735 1.344 0 .313.204.5.5.5.297 0 .5-.203.5-.5 0-.484-.468-.484-.609-.484.297-.484.953-.61 1.313-.61.406 0 .937.204.937 1.094 0 .125-.015.688-.265 1.125-.297.469-.641.5-.891.516a3.306 3.306 0 0 1-.375.031c-.078 0-.156.016-.156.11 0 .109.078.109.25.109h.422c.812 0 1.171.672 1.171 1.64 0 1.344-.671 1.626-1.109 1.626-.422 0-1.156-.172-1.5-.75.344.046.64-.157.64-.532a.537.537 0 0 0-.546-.562c-.235 0-.547.14-.547.578 0 .89.906 1.547 1.984 1.547C3.61.219 4.5-.687 4.5-1.687m0 0"/><path id="n" d="M6.14 0v-.266c-.28 0-.546 0-.78-.312L3.374-3.281l1.547-1.36c.516-.468.937-.484 1.11-.484v-.266c-.298.032-.313.032-.735.032-.39 0-.422 0-.938-.032v.266c.157 0 .297.078.297.234 0 .063-.031.172-.172.297L1.875-2.28V-4.75c0-.297.016-.375.625-.375h.172v-.266L1.5-5.359.344-5.391v.266h.172c.609 0 .625.078.625.375v4.11c0 .296-.016.374-.625.374H.344V0L1.5-.031 2.672 0v-.266H2.5c-.61 0-.625-.078-.625-.375v-1.312l1.016-.906L4.42-.75c.079.11.126.172.126.266 0 .218-.266.218-.406.218V0l1.078-.031c.203 0 .656 0 .922.031m0 0"/><path id="o" d="M3.953-1.687c0-.985-.828-1.829-1.86-1.829-1.046 0-1.859.844-1.859 1.829 0 1 .844 1.765 1.86 1.765 1.015 0 1.86-.765 1.86-1.765M3.25-1.75c0 .36-.016.797-.25 1.125-.203.313-.562.453-.906.453-.422 0-.766-.203-.938-.469C.97-.969.938-1.359.938-1.75c0-.297 0-.781.25-1.11.203-.28.53-.437.906-.437.406 0 .75.203.922.469.218.328.234.765.234 1.078m0 0"/><path id="p" d="M4.438 0v-.266c-.516 0-.61 0-.61-.343v-1.782c0-.656-.297-1.093-1.125-1.093-.781 0-1.14.578-1.234.765v-.765l-1.14.093v.266c.53 0 .593.047.593.438V-.61c0 .343-.094.343-.594.343V0c.328-.031.688-.031.89-.031.235 0 .563 0 .907.031v-.266c-.5 0-.61 0-.61-.343v-1.438c0-.828.641-1.219 1.126-1.219.468 0 .593.344.593.844v1.813c0 .343-.093.343-.593.343V0c.328-.031.687-.031.89-.031.235 0 .563 0 .906.031m0 0"/><path id="q" d="M2.781-.984v-.438h-.234V-1c0 .547-.25.828-.547.828-.531 0-.531-.672-.531-.797V-3.14H2.64v-.265H1.469V-4.86h-.25c0 .718-.328 1.468-1.063 1.5v.218h.719v2.157c0 .922.703 1.062 1.063 1.062.53 0 .843-.469.843-1.062m0 0"/><path id="r" d="M3.031-2.984c0-.282-.25-.5-.594-.5-.515 0-.874.39-1.03.828H1.39v-.828l-1.11.093v.266c.532 0 .594.047.594.438V-.61c0 .343-.094.343-.594.343V0c.297-.031.735-.031.922-.031.469 0 .484 0 1 .031v-.266h-.156c-.578 0-.594-.078-.594-.359v-1.172c0-.594.25-1.453 1-1.469-.047.032-.125.094-.125.282 0 .25.188.359.344.359.187 0 .36-.125.36-.36m0 0"/><path id="s" d="M2.11 0v-.266c-.5 0-.61 0-.61-.343v-4.86L.328-5.39v.266c.547 0 .61.047.61.438V-.61c0 .343-.094.343-.61.343V0c.313-.031.75-.031.89-.031.157 0 .579 0 .891.031m0 0"/><path id="t" d="M3.016-1.016c0-.375-.22-.937-1.157-1.109a10.121 10.121 0 0 0-.546-.094c-.235-.047-.61-.219-.61-.531 0-.234.172-.578.922-.578.89 0 .922.656.938.875.015.062.062.078.124.078.126 0 .126-.047.126-.203v-.735c0-.124 0-.203-.11-.203-.031 0-.062 0-.187.125-.016 0-.079.079-.11.079 0 0-.015 0-.078-.032-.125-.094-.344-.172-.703-.172-1.11 0-1.344.594-1.344.97 0 .405.282.624.313.655.312.235.5.266 1.031.36.36.078.969.187.969.718 0 .313-.203.672-.922.672C.875-.14.64-.75.532-1.17.5-1.282.5-1.313.405-1.313c-.125 0-.125.062-.125.203v.984c0 .125 0 .203.094.203.047 0 .063 0 .203-.156.031-.047.125-.14.156-.188.36.329.735.344.938.344 1 0 1.344-.578 1.344-1.094m0 0"/><path id="u" d="M2.047 0v-.266c-.516 0-.547-.03-.547-.343v-2.875l-1.14.093v.266c.5 0 .578.047.578.422V-.61c0 .343-.094.343-.61.343V0c.313-.031.75-.031.875-.031.094 0 .578 0 .844.031m-.438-4.75a.436.436 0 0 0-.437-.437.427.427 0 0 0-.438.437c0 .234.188.438.438.438a.447.447 0 0 0 .437-.438m0 0"/><path id="v" d="M4.063-3.172c0-.125-.094-.39-.454-.39-.125 0-.515.03-.875.359-.187-.14-.5-.281-.875-.281C1.08-3.484.5-2.937.5-2.312c0 .359.203.64.375.796a1.017 1.017 0 0 0-.234.641c0 .328.156.563.328.703C.563-.062.234.25.234.61c0 .563.813 1.016 1.86 1.016.984 0 1.86-.406 1.86-1.031 0-.422-.267-.766-.517-.89-.468-.25-.859-.25-1.624-.25h-.454C1.125-.563.922-.782.922-1.063c0-.188.047-.266.11-.329.327.188.64.235.827.235.782 0 1.36-.547 1.36-1.156 0-.313-.14-.563-.328-.766.109-.094.375-.266.75-.266-.032.016-.063.063-.063.188 0 .14.094.25.235.25a.25.25 0 0 0 .25-.266m-1.47.86c0 .28-.046.484-.155.64a.741.741 0 0 1-.579.281c-.734 0-.734-.75-.734-.921 0-.297.047-.5.156-.657a.717.717 0 0 1 .578-.281c.735 0 .735.75.735.938M3.485.594c0 .437-.609.797-1.39.797-.797 0-1.39-.36-1.39-.797 0-.156.124-.625.765-.625h.765c.22 0 1.25 0 1.25.625m0 0"/><path id="w" d="M4.063-.703v-.438h-.25v.438c0 .312-.126.437-.282.437-.297 0-.297-.359-.297-.437v-1.64c0-.782-.75-1.173-1.468-1.173-.657 0-1.235.25-1.235.766 0 .234.156.375.375.375s.36-.156.36-.36c0-.187-.11-.328-.282-.359.282-.203.72-.203.766-.203.438 0 .89.313.89.953v.25c-.468.016-.984.047-1.546.266-.688.312-.828.766-.828 1.016 0 .687.797.89 1.343.89a1.23 1.23 0 0 0 1.11-.64c.031.296.234.609.594.609.078 0 .75-.031.75-.75M2.64-1.11c0 .765-.657.968-.97.968-.405 0-.75-.28-.75-.656 0-.515.485-1.062 1.72-1.094Zm0 0"/><path id="x" d="M3.484-.953a.12.12 0 0 0-.125-.11c-.093 0-.109.063-.125.11a1.141 1.141 0 0 1-1.109.781 1.13 1.13 0 0 1-.953-.516C.938-1.062.938-1.561.938-1.796h2.328c.172 0 .218 0 .218-.187 0-.703-.39-1.532-1.5-1.532-.984 0-1.75.813-1.75 1.782 0 1.03.86 1.812 1.844 1.812 1 0 1.406-.844 1.406-1.031M2.938-2H.952c.063-1.11.735-1.297 1.031-1.297.922 0 .954 1.11.954 1.297m0 0"/><path id="y" d="M4.188-1.453c0-.688-.454-1.39-1.266-1.578l-1.078-.266c-.516-.11-.875-.515-.875-1 0-.531.453-1.016 1.14-1.016 1.36 0 1.547 1.266 1.579 1.579.015.078.03.14.124.14.141 0 .141-.062.141-.203v-1.547c0-.125 0-.218-.11-.218-.062 0-.077.03-.14.125L3.438-5c-.407-.437-.907-.562-1.344-.562-.938 0-1.625.718-1.625 1.515 0 .61.344.938.484 1.094.281.281.547.344 1.39.531.688.172.798.188 1.063.469.078.078.281.344.281.734 0 .547-.421 1.125-1.156 1.125C1.656-.094.75-.516.703-1.609c0-.125 0-.188-.11-.188-.124 0-.124.063-.124.219v1.531c0 .14 0 .219.094.219C.625.172.64.156.688.078.718.031.75-.047.984-.375c.485.438 1.079.547 1.547.547a1.63 1.63 0 0 0 1.656-1.625m0 0"/><path id="z" d="M4.438 0v-.266c-.547 0-.61-.046-.61-.437v-2.781l-1.187.093v.266c.53 0 .593.047.593.438v1.374c0 .672-.406 1.172-1 1.172-.687 0-.718-.343-.718-.734v-2.61L.328-3.39v.266c.594 0 .594.016.594.719v1.187c0 .563 0 1.297 1.265 1.297.735 0 1.032-.562 1.063-.64h.016v.64Zm0 0"/><path id="A" d="M2.313-1.437v-.516H.092v.516Zm0 0"/><path id="B" d="M4.375 0v-.266c-.547 0-.61-.046-.61-.437V-5.47l-1.171.078v.266c.531 0 .61.047.61.438v1.671a1.4 1.4 0 0 0-1.063-.468c-.985 0-1.86.765-1.86 1.78A1.77 1.77 0 0 0 2.062.079c.47 0 .844-.219 1.11-.5v.5ZM3.172-.984c0 .14 0 .172-.125.343a1.17 1.17 0 0 1-.953.5 1.01 1.01 0 0 1-.86-.484c-.218-.312-.25-.687-.25-1.062 0-.454.063-.782.25-1.063.188-.281.547-.516.938-.516.39 0 .765.204 1 .61Zm0 0"/><path id="C" d="M5.984 0v-.266H5.86c-.5 0-.578-.062-.671-.312L3.343-5.453c-.047-.11-.063-.188-.203-.188-.141 0-.172.063-.203.188L1.172-.813c-.078.22-.234.547-.89.547V0c.25-.031.671-.031.812-.031.25 0 .5 0 .875.031v-.266c-.344 0-.547-.156-.547-.39 0-.047 0-.063.031-.172l.375-.984h2.156l.438 1.171c.031.094.031.141.031.141 0 .234-.406.234-.625.234V0l1.125-.031c.438 0 .578 0 1.031.031M3.875-2.062H1.922l.984-2.579Zm0 0"/><path id="D" d="M2.781 1.875c0-.031 0-.031-.11-.14C1.595.718 1.329-.75 1.329-1.97c0-2.281.938-3.343 1.344-3.703.11-.11.11-.11.11-.156 0-.031-.032-.094-.11-.094-.125 0-.516.406-.578.484C1.03-4.343.813-2.921.813-1.967c0 1.765.734 3.187 1.812 3.937.063 0 .156 0 .156-.094m0 0"/><path id="E" d="M5.922-5.125v-.266c-.344.032-.719.032-.922.032-.203 0-.578 0-.937-.032v.266c.796 0 .796.375.796.578v3.375L1.922-5.266c-.094-.109-.094-.125-.25-.125H.344v.266h.219c.14 0 .203 0 .375.016.203.015.203.03.203.172v4.093c0 .203 0 .578-.797.578V0c.36-.031.734-.031.937-.031.203 0 .578 0 .922.031v-.266c-.797 0-.797-.375-.797-.578v-4.031l3.422 4.75C4.906-.031 4.922 0 5 0c.125 0 .125-.078.125-.219v-4.328c0-.203 0-.578.797-.578m0 0"/><path id="F" d="M5.11-3.578 4.89-5.36H.345v.25h.172c.609 0 .625.093.625.39V-.64c0 .297-.016.375-.625.375H.344V0l1.219-.031c.375 0 .953 0 1.296.031v-.266h-.25c-.734 0-.734-.109-.734-.375v-1.921h.734c.766 0 .86.25.86.921h.25v-2.093h-.25c0 .672-.094.922-.86.922h-.734v-1.97c0-.265.016-.327.375-.327h1.047c1.281 0 1.437.5 1.578 1.53Zm0 0"/><path id="G" d="M2.438-1.969c0-.75-.126-1.656-.61-2.578-.39-.734-1.11-1.375-1.25-1.375-.078 0-.11.063-.11.094s0 .047.094.14c1.11 1.063 1.36 2.5 1.36 3.72C1.922.296.984 1.358.578 1.733c-.094.094-.11.11-.11.141 0 .047.032.094.11.094.125 0 .516-.407.578-.469C2.22.39 2.438-1.031 2.438-1.969m0 0"/><path id="H" d="m5.75-3.547-.156-1.781H.454L.296-3.547h.25c.11-1.328.297-1.531 1.5-1.531.14 0 .39 0 .453.016.156.03.156.109.156.312v4.11c0 .265 0 .374-.812.374H1.53V0c.297-.031 1.157-.031 1.485-.031.343 0 1.203 0 1.484.031v-.266h-.297c-.812 0-.812-.109-.812-.375V-4.75c0-.187 0-.281.156-.312.078-.016.297-.016.453-.016 1.203 0 1.39.203 1.5 1.531Zm0 0"/><path id="I" d="M6.047 0v-.266h-.125c-.484 0-.594-.062-.75-.28L3.375-3.032 4.531-4.61c.375-.516.985-.516 1.172-.516v-.266c-.281.032-.703.032-.89.032-.422 0-.5 0-.985-.032v.266c.36.016.438.219.438.328 0 .094-.016.156-.079.219L3.22-3.25 2.094-4.781c-.016-.032-.047-.078-.047-.11 0-.093.14-.234.469-.234v-.266l-1.141.032c-.469 0-.578 0-1.031-.032v.266h.125c.484 0 .594.063.75.266l1.578 2.172L1.375-.766c-.36.5-.984.5-1.156.5V0c.281-.031.734-.031.89-.031.391 0 .5 0 .985.031v-.266c-.375-.015-.438-.25-.438-.328 0-.031 0-.11.094-.234l1.203-1.64L4.281-.626c.063.094.063.11.063.125 0 .11-.14.234-.469.234V0l1.14-.031c.391 0 .61 0 1.032.031m0 0"/><path id="J" d="M6.14-.719c0-.047 0-.156-.124-.156-.11 0-.11.094-.125.156-.032.485-.313.657-.532.657-.421 0-.468-.36-.609-1.36-.062-.453-.14-1-1.016-1.265.625-.157 1.375-.61 1.375-1.282 0-.781-1-1.422-2.171-1.422H.358v.266h.172c.61 0 .625.078.625.375v4.11c0 .296-.015.374-.625.374H.36V0L1.5-.031 2.656 0v-.266h-.172c-.609 0-.625-.078-.625-.375v-1.953h1c.579 0 .844.297.891.36.234.25.234.406.234.937 0 .5 0 .844.329 1.125.343.297.78.344 1.015.344.656 0 .813-.656.813-.89m-1.843-3.25c0 .875-.64 1.156-1.469 1.156H1.86v-2c0-.203.016-.28.204-.312h.484c.703 0 1.75 0 1.75 1.156m0 0"/><clipPath id="a"><path d="M.871 62H25v24H.871Zm0 0"/></clipPath><clipPath id="c"><path d="M41 54h39v34.152H41Zm0 0"/></clipPath><clipPath id="m"><path d="M194 13h31.91v40H194Zm0 0"/></clipPath></defs><g clip-path="url(#a)"><path fill="none" stroke="#000" stroke-miterlimit="10" stroke-width=".78877496" d="M1.266 62.402h23.172v23.176H1.266Zm0 0"/></g><use xlink:href="#b" x="10.387" y="77.273"/><path fill="none" stroke="#000" stroke-miterlimit="10" stroke-width=".39488232" d="M24.438 73.992h11.824m0 0h11.824"/><path d="M28.61 73.992v-1.965l-4.172 1.965 4.171 1.961ZM43.914 73.992v1.961l4.172-1.96-4.172-1.966Zm0 0"/><g clip-path="url(#c)"><path fill="none" stroke="#000" stroke-miterlimit="10" stroke-width=".39488232" d="M64.285 62.812c-.414-1.539-2.039-2.785-3.633-2.785-1.593 0-3.218 1.246-3.632 2.785-1.239-1-3.286-1.054-4.575-.117-1.289.934-1.87 2.899-1.3 4.387-1.59-.082-3.282 1.078-3.774 2.594-.492 1.515.192 3.449 1.527 4.316-1.335.867-2.02 2.797-1.527 4.313.492 1.515 2.184 2.675 3.774 2.593-.57 1.489.011 3.454 1.3 4.391 1.29.934 3.336.883 4.575-.121.414 1.539 2.039 2.785 3.632 2.785 1.594 0 3.22-1.246 3.633-2.785 1.238 1.004 3.285 1.055 4.574.121 1.29-.937 1.871-2.902 1.301-4.39 1.59.081 3.281-1.079 3.774-2.594.492-1.516-.192-3.446-1.528-4.313 1.336-.867 2.02-2.8 1.528-4.316C73.44 68.16 71.75 67 70.16 67.082c.57-1.488-.012-3.453-1.3-4.387-1.29-.937-3.337-.883-4.575.117Zm0 0"/></g><use xlink:href="#d" x="40.513" y="55.937"/><use xlink:href="#e" x="47.908" y="55.937"/><use xlink:href="#f" x="52.285" y="55.937"/><use xlink:href="#g" x="56.121" y="55.937"/><use xlink:href="#h" x="60.499" y="55.937"/><use xlink:href="#e" x="67.341" y="55.937"/><use xlink:href="#i" x="71.719" y="55.937"/><use xlink:href="#j" x="75.584" y="55.937"/><path fill="none" stroke="#000" stroke-miterlimit="10" stroke-width=".39488232" d="M73.219 73.992h11.824m0 0h11.824"/><path d="M77.39 73.992v-1.965l-4.171 1.965 4.172 1.965ZM92.691 73.992v1.965l4.176-1.965-4.176-1.965Zm0 0"/><path fill="none" stroke="#000" stroke-miterlimit="10" stroke-width=".78877496" d="M96.867 62.406h23.172v23.172H96.867Zm0 0"/><use xlink:href="#k" x="105.987" y="77.275"/><path fill="none" stroke="#000" stroke-miterlimit="10" stroke-width=".39488232" d="M120.04 73.992h23.648m0 0h23.644"/><path d="M124.21 73.992v-1.965l-4.17 1.965 4.17 1.965ZM163.16 73.992v1.965l4.172-1.965-4.172-1.965Zm0 0"/><path fill="none" stroke="#000" stroke-miterlimit="10" stroke-width=".78877496" d="M167.332 62.406h23.176v23.172h-23.176Zm0 0"/><use xlink:href="#l" x="176.454" y="77.166"/><path fill="none" stroke="#000" stroke-miterlimit="10" stroke-width=".39488232" d="M190.508 73.992h11.824m0 0h11.824M213.957 73.992v-49.66"/><g clip-path="url(#m)"><path fill="none" stroke="#000" stroke-miterlimit="10" stroke-width=".78877496" d="M213.957 24.332h8.277l-8.277 16.555-8.277-16.555h8.277"/></g><use xlink:href="#n" x="116.208" y="51.155"/><use xlink:href="#o" x="122.479" y="51.155"/><use xlink:href="#p" x="126.668" y="51.155"/><use xlink:href="#q" x="131.085" y="51.155"/><use xlink:href="#r" x="134.342" y="51.155"/><use xlink:href="#o" x="137.608" y="51.155"/><use xlink:href="#s" x="141.796" y="51.155"/><use xlink:href="#s" x="144.123" y="51.155"/><use xlink:href="#t" x="146.45" y="51.155"/><use xlink:href="#u" x="149.755" y="51.155"/><use xlink:href="#v" x="152.082" y="51.155"/><use xlink:href="#p" x="156.271" y="51.155"/><use xlink:href="#w" x="160.924" y="51.155"/><use xlink:href="#s" x="165.113" y="51.155"/><use xlink:href="#x" x="167.44" y="51.155"/><use xlink:href="#y" x="122.274" y="38.549"/><use xlink:href="#q" x="126.928" y="38.549"/><use xlink:href="#x" x="130.186" y="38.549"/><use xlink:href="#z" x="133.909" y="38.549"/><use xlink:href="#x" x="138.562" y="38.549"/><use xlink:href="#r" x="142.285" y="38.549"/><use xlink:href="#A" x="145.551" y="38.549"/><use xlink:href="#z" x="151.136" y="38.549"/><use xlink:href="#p" x="155.789" y="38.549"/><use xlink:href="#B" x="160.443" y="38.549"/><use xlink:href="#C" x="114.666" y="24.057"/><use xlink:href="#z" x="120.708" y="24.057"/><use xlink:href="#B" x="125.362" y="24.057"/><use xlink:href="#u" x="130.016" y="24.057"/><use xlink:href="#o" x="132.343" y="24.057"/><use xlink:href="#D" x="139.316" y="24.057"/><use xlink:href="#E" x="142.574" y="24.057"/><use xlink:href="#F" x="148.852" y="24.057"/><use xlink:href="#G" x="154.319" y="24.057"/><use xlink:href="#H" x="160.369" y="24.057"/><use xlink:href="#I" x="166.418" y="24.057"/><use xlink:href="#C" x="114.607" y="9.202"/><use xlink:href="#z" x="120.649" y="9.202"/><use xlink:href="#B" x="125.303" y="9.202"/><use xlink:href="#u" x="129.957" y="9.202"/><use xlink:href="#o" x="132.284" y="9.202"/><use xlink:href="#D" x="139.264" y="9.202"/><use xlink:href="#E" x="142.522" y="9.202"/><use xlink:href="#F" x="148.801" y="9.202"/><use xlink:href="#G" x="154.267" y="9.202"/><use xlink:href="#J" x="160.317" y="9.202"/><use xlink:href="#I" x="166.485" y="9.202"/></svg>