<svg xmlns="http://www.w3.org/2000/svg" xmlns:xlink="http://www.w3.org/1999/xlink" width="228.224" height="256.746"><defs><path id="a" d="M3.406-.531c-.047.86-.156 1.953-.11 2.078.048.203.157.25.25.297l.126.078c.11.047.187.078.219 0 .015-.031 0-.063-.016-.063-.047-.109-.016-.28-.016-.343l.282-4.36c0-.125.015-.469-.641-.797-.078-.03-.156-.078-.187 0-.047.079.015.11.015.141.14.078.235.156.219.594L3.422-.812.766-.047C.64-.047.594 0 .53.093.47.25.562.36.641.392c.125.062.218.046.25.015Zm0 0"/><path id="b" d="m3.797.625.11-.234-.688-.344L4.594-2.72c.078-.14.093-.172-.047-.234-.063-.047-.094-.047-.188 0L.86-1.125.75-.891l1.828.907-.265.515c-.11.203-.141.282-.641.031L1.5.485l-.11.22c.313.14.735.327.954.437.234.109.625.328.922.5l.109-.22-.156-.093c-.516-.25-.485-.328-.375-.531L3.109.28Zm.078-3.078L2.735-.187l-1.641-.829Zm0 0"/><path id="f" d="M1.094-3.406V-.75c0 .438-.11.438-.782.438V0c.36-.016.86-.031 1.126-.031.265 0 .78.015 1.109.031v-.312c-.656 0-.766 0-.766-.438v-1.828c0-1.031.703-1.594 1.328-1.594.625 0 .735.547.735 1.11V-.75c0 .438-.11.438-.766.438V0a30.36 30.36 0 0 1 1.125-.031c.25 0 .766.015 1.11.031v-.312c-.672 0-.782 0-.782-.438v-1.828c0-1.031.703-1.594 1.344-1.594.625 0 .734.547.734 1.11V-.75c0 .438-.109.438-.78.438V0c.359-.016.859-.031 1.124-.031.266 0 .781.015 1.11.031v-.312c-.516 0-.766 0-.766-.297V-2.5c0-.86 0-1.156-.313-1.516-.14-.171-.468-.375-1.046-.375-.829 0-1.266.594-1.438.985-.14-.875-.875-.985-1.312-.985-.735 0-1.188.438-1.47 1.047V-4.39l-1.405.11v.312c.703 0 .78.063.78.563m0 0"/><path id="g" d="M1.11-2.5c.062-1.484.89-1.734 1.234-1.734 1.015 0 1.125 1.343 1.125 1.734Zm-.016.203h2.781c.219 0 .25 0 .25-.203 0-.984-.547-1.937-1.781-1.937C1.188-4.437.28-3.423.28-2.187.281-.86 1.312.108 2.453.108c1.219 0 1.672-1.093 1.672-1.296 0-.094-.094-.11-.14-.11-.079 0-.11.063-.126.14C3.516-.14 2.625-.14 2.516-.14c-.485 0-.891-.296-1.11-.656-.312-.484-.312-1.14-.312-1.5m0 0"/><path id="h" d="M1.156-2.156c0-1.625.813-2.047 1.344-2.047.094 0 .719.016 1.063.375-.407.031-.47.328-.47.453 0 .266.188.453.454.453.265 0 .469-.156.469-.469 0-.671-.766-1.046-1.532-1.046-1.234 0-2.14 1.062-2.14 2.296 0 1.266.969 2.25 2.125 2.25 1.328 0 1.656-1.187 1.656-1.296 0-.094-.11-.094-.14-.094-.079 0-.11.047-.126.093C3.58-.265 2.922-.14 2.563-.14c-.532 0-1.407-.421-1.407-2.015m0 0"/><path id="i" d="M1.094-.75c0 .438-.11.438-.782.438V0c.36-.016.86-.031 1.126-.031.265 0 .78.015 1.109.031v-.312c-.656 0-.766 0-.766-.438v-1.828c0-1.031.703-1.594 1.328-1.594.625 0 .735.547.735 1.11V-.75c0 .438-.11.438-.766.438V0a30.36 30.36 0 0 1 1.125-.031c.25 0 .766.015 1.11.031v-.312c-.516 0-.766 0-.782-.297V-2.5c0-.86 0-1.156-.297-1.516-.14-.171-.468-.375-1.046-.375-.844 0-1.266.594-1.438.985v-3.485l-1.437.11v.312c.703 0 .78.063.78.563Zm0 0"/><path id="j" d="M1.906-.531A.524.524 0 1 0 .86-.515a.524.524 0 0 0 1.047-.016m0 0"/><path id="k" d="M.781-.094c.047 0 .078 0 .11-.031L4.75-2.344a.217.217 0 0 0 .11-.187.244.244 0 0 0-.11-.203L.89-4.954c-.03-.015-.062-.03-.109-.03-.11 0-.219.109-.219.234 0 .078.032.156.11.203l3.5 2.016-3.5 2.015a.228.228 0 0 0-.11.204c0 .125.11.218.22.218m0 0"/><path id="l" d="M2.813-1.984c.343.78.734 1.797.812 1.89.14.157.266.157.375.157h.14c.126 0 .204 0 .204-.079 0-.03-.032-.046-.047-.062-.078-.078-.14-.234-.172-.297L2.422-4.391c-.047-.125-.188-.437-.922-.437-.078 0-.172 0-.172.094 0 .093.063.093.094.109.156.016.281.031.453.438l.828 1.937L.656-.39c-.094.062-.14.124-.14.234 0 .172.14.234.234.234.14 0 .219-.078.234-.11Zm0 0"/><path id="m" d="M3.672-1.14v-.25h-.766v-3.094c0-.157 0-.203-.156-.203-.078 0-.11 0-.172.093L.266-1.39v.25h2.047v.579c0 .234 0 .312-.563.312h-.187V0c.343-.016.796-.031 1.046-.031s.704.015 1.047.031v-.25H3.47c-.563 0-.563-.078-.563-.312v-.579ZM2.359-3.939v2.547H.531Zm0 0"/><clipPath id="c"><path d="M31 .309h1V1h-1Zm0 0"/></clipPath><clipPath id="d"><path d="M24 .309h15V11H24Zm0 0"/></clipPath><clipPath id="e"><path d="M28 .309h6V2h-6Zm0 0"/></clipPath><clipPath id="n"><path d="M111 245h2v11.184h-2Zm0 0"/></clipPath><clipPath id="o"><path d="M103 63h124.45v87H103Zm0 0"/></clipPath><clipPath id="p"><path d="M103 123h124.45v86H103Zm0 0"/></clipPath><clipPath id="q"><path d="M111 .309h2V137h-2Zm0 0"/></clipPath></defs><path fill="none" stroke="#999" stroke-miterlimit="10" stroke-width=".0099661" d="M215.742 207.61"/><path fill="none" stroke="#000" stroke-miterlimit="10" stroke-width=".39764739000000004" d="m111.89 155.684 103.587 51.793"/><path stroke="#000" stroke-miterlimit="10" stroke-width=".39761547" d="m112.336 155.906 1.863 2.899.79-1.575.784-1.57Zm0 0"/><path fill="none" stroke="#000" stroke-miterlimit="10" stroke-width=".39761547" d="m110.781 157.684 2.043-4.086"/><path stroke="#000" stroke-miterlimit="10" stroke-width=".39761547" d="m215.031 207.254-1.867-2.899-.785 1.575-.785 1.57Zm0 0"/><path fill="none" stroke="#000" stroke-miterlimit="10" stroke-width=".39761547" d="m216.586 205.477-2.043 4.085"/><path fill="#FFF" d="m174.082 176.113-12.262-6.133-8.535 17.067 12.262 6.133Zm0 0"/><use xlink:href="#a" x="162.205" y="179.271"/><path fill="none" stroke="#000" stroke-miterlimit="10" stroke-width=".44644544" d="m161.535 180.613 4.211 2.106"/><use xlink:href="#b" x="159.127" y="186.268"/><path fill="none" stroke="#999" stroke-miterlimit="10" stroke-width=".0099661" d="M31.383 136.254"/><g clip-path="url(#c)"><path fill="none" stroke="#999" stroke-miterlimit="10" stroke-width=".0099661" d="M31.383.902"/></g><path fill="none" stroke="#000" stroke-miterlimit="10" stroke-width=".39764739000000004" d="M31.383 135.953V1.2"/><path stroke="#000" stroke-miterlimit="10" stroke-width=".39764739000000004" d="m31.383 135.457 1.758-2.965h-3.516Zm0 0"/><path fill="none" stroke="#000" stroke-miterlimit="10" stroke-width=".39764739000000004" d="M33.664 136.055h-4.566"/><path d="M31.383 1.695 29.625 4.66h3.516Zm0 0"/><g clip-path="url(#d)"><path fill="none" stroke="#000" stroke-miterlimit="10" stroke-width=".39764739000000004" d="M31.383 1.695 29.625 4.66h3.516Zm0 0"/></g><g clip-path="url(#e)"><path fill="none" stroke="#000" stroke-miterlimit="10" stroke-width=".39764739000000004" d="M29.098 1.102h4.566"/></g><path fill="#FFF" d="M6.82 78.117h49.121V59.035H6.821Zm0 0"/><use xlink:href="#f" x="10.133" y="71.213"/><use xlink:href="#g" x="18.406" y="71.213"/><use xlink:href="#h" x="22.819" y="71.213"/><use xlink:href="#i" x="26.963" y="71.213"/><use xlink:href="#j" x="32.473" y="71.213"/><use xlink:href="#k" x="37.681" y="71.213"/><use xlink:href="#l" x="46.733" y="67.175"/><path fill="none" stroke="#000" stroke-miterlimit="10" stroke-width=".44648128" d="M46.734 68.676h4.707"/><use xlink:href="#m" x="47.109" y="74.81"/><path fill="none" stroke="#000" stroke-miterlimit="10" stroke-width=".39764739000000004" d="M122.484 136.254v104.113M101.66 136.254v104.113"/><path fill="none" stroke="#000" stroke-dasharray="2.9786978663 2.9786978663" stroke-miterlimit="10" stroke-width=".39764739000000004" d="M112.07 146.664v93.703"/><path fill="none" stroke="#000" stroke-miterlimit="10" stroke-width=".39764739000000004" d="M122.484 136.254c0-2.875-4.664-5.207-10.414-5.207s-10.41 2.332-10.41 5.207 4.66 5.203 10.41 5.203 10.414-2.328 10.414-5.203M122.484 240.367c0 2.875-4.664 5.207-10.414 5.207s-10.41-2.332-10.41-5.207"/><g clip-path="url(#n)"><path fill="none" stroke="#000" stroke-miterlimit="10" stroke-width=".39764739000000004" d="M112.07 245.574v10.41"/></g><g clip-path="url(#o)"><path fill="none" stroke="#000" stroke-linecap="round" stroke-miterlimit="10" stroke-width="1.19194556" d="M119.879 132.348 223.55 80.512"/></g><path stroke="#000" stroke-linecap="round" stroke-miterlimit="10" stroke-width=".99254388" d="M118.988 132.793a.499.499 0 0 0 .89-.445.498.498 0 0 0-.89.445Zm0 0"/><path fill="none" stroke="#000" stroke-linecap="round" stroke-miterlimit="10" stroke-width="1.19194556" d="M104.266 132.348.594 80.512"/><path stroke="#000" stroke-linecap="round" stroke-miterlimit="10" stroke-width=".99254388" d="M105.152 132.793a.497.497 0 1 0-.664.223.494.494 0 0 0 .664-.223Zm0 0"/><g clip-path="url(#p)"><path fill="none" stroke="#000" stroke-linecap="round" stroke-miterlimit="10" stroke-width="1.19194556" d="m119.879 140.156 103.672 51.836"/></g><path stroke="#000" stroke-linecap="round" stroke-miterlimit="10" stroke-width=".99254388" d="M118.988 139.71a.5.5 0 0 0 .223.669.5.5 0 0 0 .668-.223.5.5 0 0 0-.223-.668.5.5 0 0 0-.668.223Zm0 0"/><path fill="none" stroke="#000" stroke-linecap="round" stroke-miterlimit="10" stroke-width="1.19194556" d="M104.266 140.156.594 191.992"/><path stroke="#000" stroke-linecap="round" stroke-miterlimit="10" stroke-width=".99254388" d="M105.152 139.71a.494.494 0 0 0-.664-.222.499.499 0 0 0 .445.89.498.498 0 0 0 .22-.667Zm0 0"/><g clip-path="url(#q)"><path fill="none" stroke="#000" stroke-miterlimit="10" stroke-width="1.19194556" d="M112.07.902v102.762m0 7.91v24.68"/></g><path fill="none" stroke="#000" stroke-miterlimit="10" stroke-width="2.38289451" d="M123.937 103.664h-23.73m23.73 7.91h-23.73"/></svg>