<svg xmlns="http://www.w3.org/2000/svg" xmlns:xlink="http://www.w3.org/1999/xlink" width="227.587" height="412.273"><defs><path id="a" d="M3.406-.531c-.047.86-.156 1.953-.11 2.078.048.203.157.25.25.297l.126.078c.11.047.187.078.219 0 .015-.031 0-.063-.016-.063-.047-.109-.016-.28-.016-.343l.282-4.36c0-.125.015-.469-.641-.797-.078-.03-.156-.078-.187 0-.047.079.015.11.015.141.14.078.235.156.219.594L3.422-.812.766-.047C.64-.047.594 0 .53.093.47.25.562.36.641.392c.125.062.218.046.25.015Zm0 0"/><path id="b" d="m3.797.625.11-.234-.688-.344L4.594-2.72c.078-.14.093-.172-.047-.234-.063-.047-.094-.047-.188 0L.86-1.125.75-.891l1.828.907-.265.515c-.11.203-.141.282-.641.031L1.5.485l-.11.22c.313.14.735.327.954.437.234.109.625.328.922.5l.109-.22-.156-.093c-.516-.25-.485-.328-.375-.531L3.109.28Zm.078-3.078L2.735-.187l-1.641-.829Zm0 0"/><path id="g" d="M1.094-3.422V-.75c0 .438-.11.438-.782.438V0c.36-.016.86-.031 1.126-.031.265 0 .78.015 1.109.031v-.312c-.656 0-.766 0-.766-.438v-1.828c0-1.047.703-1.594 1.344-1.594.625 0 .734.531.734 1.094V-.75c0 .438-.109.438-.78.438V0c.343-.016.858-.031 1.124-.031.266 0 .781.015 1.11.031v-.312c-.657 0-.766 0-.766-.438v-1.828c0-1.047.703-1.594 1.344-1.594.625 0 .734.531.734 1.094V-.75c0 .438-.11.438-.781.438V0c.343-.016.86-.031 1.125-.031.25 0 .765.015 1.11.031v-.312c-.517 0-.767 0-.782-.297V-2.5c0-.86 0-1.172-.297-1.531-.14-.157-.469-.36-1.047-.36-.828 0-1.266.594-1.437.97-.141-.86-.875-.97-1.328-.97-.72 0-1.188.422-1.47 1.047V-4.39l-1.405.11v.312c.703 0 .78.063.78.547m0 0"/><path id="h" d="M1.11-2.5c.062-1.484.89-1.734 1.234-1.734 1.031 0 1.125 1.343 1.125 1.734Zm0 .203h2.765c.219 0 .25 0 .25-.203 0-.984-.531-1.953-1.781-1.953C1.188-4.453.28-3.422.28-2.187.281-.86 1.328.108 2.47.108 3.672.11 4.125-1 4.125-1.187c0-.094-.078-.11-.125-.11-.094 0-.11.047-.14.14C3.515-.14 2.624-.14 2.53-.14c-.5 0-.906-.296-1.125-.671-.297-.47-.297-1.125-.297-1.485m0 0"/><path id="i" d="M1.156-2.172c0-1.61.828-2.031 1.344-2.031.094 0 .719.016 1.063.375-.407.015-.47.312-.47.453 0 .25.188.453.47.453.25 0 .453-.172.453-.469 0-.671-.75-1.062-1.516-1.062-1.25 0-2.156 1.078-2.156 2.312 0 1.266.984 2.25 2.125 2.25a1.626 1.626 0 0 0 1.656-1.296c0-.094-.094-.094-.125-.094-.094 0-.11.031-.14.093C3.577-.265 2.937-.14 2.562-.14c-.532 0-1.407-.421-1.407-2.03m0 0"/><path id="j" d="M1.094-.75c0 .438-.11.438-.782.438V0c.36-.016.86-.031 1.126-.031.265 0 .78.015 1.109.031v-.312c-.656 0-.766 0-.766-.438v-1.828c0-1.047.703-1.594 1.344-1.594.625 0 .734.531.734 1.094V-.75c0 .438-.109.438-.78.438V0c.343-.016.858-.031 1.124-.031.266 0 .781.015 1.11.031v-.312c-.516 0-.766 0-.766-.297V-2.5c0-.86 0-1.172-.313-1.531-.14-.157-.468-.36-1.046-.36-.829 0-1.266.594-1.438.97v-3.47l-1.437.11v.297c.703 0 .78.078.78.562Zm0 0"/><path id="k" d="M1.906-.531A.524.524 0 1 0 .86-.515a.524.524 0 0 0 1.047-.016m0 0"/><path id="n" d="M3.547-2.906c.406 1.047.89 2.562 1.047 2.797.156.218.25.218.531.218h.219c.093-.015.11-.062.11-.093 0-.032-.032-.063-.063-.094-.094-.11-.157-.266-.22-.453l-2.03-5.656c-.203-.579-.75-.704-1.22-.704-.046 0-.171 0-.171.11 0 .078.078.093.094.093.328.063.39.125.64.797l.97 2.704L.703-.47C.593-.344.53-.28.53-.156c0 .172.14.281.297.281.156 0 .25-.11.328-.203Zm0 0"/><path id="l" d="M1.078-3.89c.36.093.563.093.672.093.922 0 1.469-.625 1.469-.734 0-.078-.047-.094-.078-.094-.016 0-.032 0-.063.016-.172.062-.531.203-1.047.203-.203 0-.562-.016-1.015-.188-.079-.031-.094-.031-.094-.031-.094 0-.094.078-.094.188v2.046c0 .125 0 .204.11.204.062 0 .078 0 .14-.094.297-.375.734-.438.969-.438.422 0 .61.328.64.39.126.235.172.5.172.907 0 .203 0 .61-.218.922a.984.984 0 0 1-.813.422c-.453 0-.922-.25-1.094-.719.266.016.407-.156.407-.344 0-.296-.266-.343-.36-.343 0 0-.343 0-.343.375 0 .625.578 1.25 1.406 1.25.89 0 1.672-.657 1.672-1.547 0-.782-.594-1.5-1.453-1.5-.313 0-.672.062-.985.328Zm0 0"/><path id="m" d="M2.469-2.516c.547-.265.89-.593.89-1.078 0-.672-.703-1.031-1.375-1.031-.765 0-1.39.5-1.39 1.156 0 .328.156.563.281.703.125.157.172.188.578.422-.39.172-1.078.547-1.078 1.281 0 .766.797 1.204 1.594 1.204.89 0 1.61-.563 1.61-1.313 0-.469-.267-.86-.673-1.094-.094-.062-.328-.187-.437-.25m-1.125-.656c-.188-.11-.375-.297-.375-.562 0-.438.5-.688 1-.688.547 0 1.031.344 1.031.828 0 .625-.734.938-.734.938-.016 0-.032 0-.079-.031Zm.328.969.969.547c.172.11.515.312.515.718 0 .532-.578.86-1.172.86-.64 0-1.187-.422-1.187-.984 0-.516.375-.922.875-1.141m0 0"/><clipPath id="c"><path d="M31 .012h1V1h-1Zm0 0"/></clipPath><clipPath id="d"><path d="M31 .012h1V292h-1Zm0 0"/></clipPath><clipPath id="e"><path d="M23 .012h16V10H23Zm0 0"/></clipPath><clipPath id="f"><path d="M28 .012h6V1h-6Zm0 0"/></clipPath><clipPath id="o"><path d="M111 400h2v11.535h-2Zm0 0"/></clipPath><clipPath id="p"><path d="M102 219h125.176v86H102Zm0 0"/></clipPath><clipPath id="q"><path d="M102 278h125.176v87H102Zm0 0"/></clipPath><clipPath id="r"><path d="M111 .012h2V293h-2Zm0 0"/></clipPath></defs><path fill="none" stroke="#999" stroke-miterlimit="10" stroke-width=".0099819" d="M215.469 363.023"/><path fill="none" stroke="#000" stroke-miterlimit="10" stroke-width=".39827781" d="m111.754 311.164 103.45 51.727"/><path stroke="#000" stroke-miterlimit="10" stroke-width=".39824589000000005" d="m112.2 311.387 1.866 2.902.786-1.574.789-1.574Zm0 0"/><path fill="none" stroke="#000" stroke-miterlimit="10" stroke-width=".39824589000000005" d="m110.64 313.164 2.048-4.09"/><path stroke="#000" stroke-miterlimit="10" stroke-width=".39824589000000005" d="m214.758 362.668-1.867-2.902-.79 1.574-.785 1.574Zm0 0"/><path fill="none" stroke="#000" stroke-miterlimit="10" stroke-width=".39824589000000005" d="m216.316 360.887-2.046 4.093"/><path fill="#FFF" d="m173.89 331.55-12.28-6.14-8.548 17.094 12.286 6.14Zm0 0"/><use xlink:href="#a" x="161.997" y="334.715"/><path fill="none" stroke="#000" stroke-miterlimit="10" stroke-width=".44715328000000004" d="m161.324 336.059 4.219 2.109"/><use xlink:href="#b" x="158.914" y="341.722"/><path fill="none" stroke="#999" stroke-miterlimit="10" stroke-width=".0099819" d="M31.344 291.758"/><g clip-path="url(#c)"><path fill="none" stroke="#999" stroke-miterlimit="10" stroke-width=".0099819" d="M31.344.601"/></g><g clip-path="url(#d)"><path fill="none" stroke="#000" stroke-miterlimit="10" stroke-width=".39827781" d="M31.344 291.457V.898"/></g><path stroke="#000" stroke-miterlimit="10" stroke-width=".39827781" d="m31.344 290.96 1.761-2.968h-3.52Zm0 0"/><path fill="none" stroke="#000" stroke-miterlimit="10" stroke-width=".39827781" d="M33.633 291.559h-4.574"/><path d="m31.344 1.398-1.758 2.97h3.52Zm0 0"/><g clip-path="url(#e)"><path fill="none" stroke="#000" stroke-miterlimit="10" stroke-width=".39827781" d="m31.344 1.398-1.758 2.97h3.52Zm0 0"/></g><g clip-path="url(#f)"><path fill="none" stroke="#000" stroke-miterlimit="10" stroke-width=".39827781" d="M29.059.8h4.574"/></g><path fill="#FFF" d="M8.648 155.563H54.04v-18.766H8.65Zm0 0"/><use xlink:href="#g" x="11.964" y="148.647"/><use xlink:href="#h" x="20.251" y="148.647"/><use xlink:href="#i" x="24.67" y="148.647"/><use xlink:href="#j" x="28.821" y="148.647"/><use xlink:href="#k" x="34.34" y="148.647"/><use xlink:href="#l" x="39.768" y="144.602"/><path fill="none" stroke="#000" stroke-miterlimit="10" stroke-width=".44718912" d="M39.77 146.105h3.96"/><use xlink:href="#m" x="39.768" y="152.249"/><use xlink:href="#n" x="44.925" y="148.647"/><path fill="none" stroke="#000" stroke-miterlimit="10" stroke-width=".39827781" d="M122.332 291.758v103.984M101.535 291.758v103.984"/><path fill="none" stroke="#000" stroke-dasharray="2.9834202177 2.9834202177" stroke-miterlimit="10" stroke-width=".39827781" d="M111.934 302.156v93.586"/><path fill="none" stroke="#000" stroke-miterlimit="10" stroke-width=".39827781" d="M122.332 291.758c0-2.871-4.656-5.2-10.398-5.2-5.747 0-10.399 2.329-10.399 5.2 0 2.87 4.652 5.199 10.399 5.199 5.742 0 10.398-2.328 10.398-5.2M122.332 395.742c0 2.871-4.656 5.2-10.398 5.2-5.747 0-10.399-2.329-10.399-5.2"/><g clip-path="url(#o)"><path fill="none" stroke="#000" stroke-miterlimit="10" stroke-width=".39827781" d="M111.934 400.941v10.399"/></g><g clip-path="url(#p)"><path fill="none" stroke="#000" stroke-linecap="round" stroke-miterlimit="10" stroke-width="1.19383524" d="m119.73 287.86 103.54-51.77"/></g><path stroke="#000" stroke-linecap="round" stroke-miterlimit="10" stroke-width=".9941175600000001" d="M118.84 288.305a.497.497 0 1 0 .887-.45.497.497 0 0 0-.887.45Zm0 0"/><path fill="none" stroke="#000" stroke-linecap="round" stroke-miterlimit="10" stroke-width="1.19383524" d="M104.133 287.86.593 236.09"/><path stroke="#000" stroke-linecap="round" stroke-miterlimit="10" stroke-width=".9941175600000001" d="M105.023 288.305a.495.495 0 0 0-.222-.668.497.497 0 1 0-.446.886.497.497 0 0 0 .668-.218Zm0 0"/><g clip-path="url(#q)"><path fill="none" stroke="#000" stroke-linecap="round" stroke-miterlimit="10" stroke-width="1.19383524" d="m119.73 295.656 103.54 51.77"/></g><path stroke="#000" stroke-linecap="round" stroke-miterlimit="10" stroke-width=".9941175600000001" d="M118.84 295.21a.5.5 0 0 0 .223.669.499.499 0 1 0-.223-.668Zm0 0"/><path fill="none" stroke="#000" stroke-linecap="round" stroke-miterlimit="10" stroke-width="1.19383524" d="M104.133 295.656.593 347.426"/><path stroke="#000" stroke-linecap="round" stroke-miterlimit="10" stroke-width=".9941175600000001" d="M105.023 295.21a.499.499 0 0 0-.89.446.5.5 0 0 0 .668.223.497.497 0 0 0 .222-.668Zm0 0"/><g clip-path="url(#r)"><path fill="none" stroke="#000" stroke-miterlimit="10" stroke-width="1.19383524" d="M111.934.601v245.477m0 23.77v21.91"/></g><path fill="none" stroke="#000" stroke-linejoin="bevel" stroke-miterlimit="10" stroke-width="1.19383524" d="M111.453 245.48c3.281 0 5.945 1.649 5.945 3.684s-2.664 3.688-5.945 3.688c-1.64 0-2.969-.668-2.969-1.489 0-.82 1.328-1.484 2.97-1.484 3.28 0 5.944 1.648 5.944 3.683 0 2.036-2.664 3.688-5.945 3.688-1.64 0-2.969-.668-2.969-1.488s1.328-1.485 2.97-1.485c3.28 0 5.944 1.649 5.944 3.684s-2.664 3.683-5.945 3.683c-1.64 0-2.969-.664-2.969-1.484s1.328-1.484 2.97-1.484c3.28 0 5.944 1.648 5.944 3.683s-2.664 3.684-5.945 3.684c-1.64 0-2.969-.664-2.969-1.484s1.328-1.485 2.97-1.485c3.28 0 5.944 1.649 5.944 3.684s-2.664 3.683-5.945 3.683"/></svg>