<svg xmlns="http://www.w3.org/2000/svg" xmlns:xlink="http://www.w3.org/1999/xlink" width="227.434" height="25.777"><defs><clipPath id="a"><path d="M.695 10H14v2H.695Zm0 0"/></clipPath><clipPath id="b"><path d="M51 12h6v13.555h-6Zm0 0"/></clipPath><clipPath id="c"><path d="M167 12h5v13.555h-5Zm0 0"/></clipPath><path id="d" d="M7.172 0v-.312h-.188c-.515 0-.718-.047-.937-.344L3.969-3.812l1.36-1.985c.218-.312.546-.625 1.421-.64v-.313l-1.094.031c-.39 0-.86 0-1.265-.031v.313c.406.015.609.218.609.453 0 .093-.016.125-.078.234L3.797-4.094 2.516-6c-.016-.031-.063-.11-.063-.14 0-.126.219-.282.64-.298v-.312c-.343.031-1.062.031-1.437.031L.36-6.75v.313h.188c.547 0 .734.062.922.343l1.812 2.75-1.61 2.39c-.14.188-.437.642-1.437.642V0l1.094-.031c.375 0 .906 0 1.266.031v-.312c-.453 0-.625-.266-.625-.454 0-.078.031-.125.11-.234l1.39-2.078L5.03-.718a.272.272 0 0 1 .047.109c0 .125-.203.297-.64.297V0c.359-.031 1.078-.031 1.453-.031Zm0 0"/></defs><path fill="none" stroke="#000" stroke-miterlimit="10" stroke-width="1.18573832" d="M25.152 11.172h11.551m0 0h11.555"/><g clip-path="url(#a)"><path fill="none" stroke="#000" stroke-dasharray="2.9631858386 2.9631858386" stroke-miterlimit="10" stroke-width=".39557658" d="M.89 11.172h12.708"/></g><path fill="none" stroke="#000" stroke-miterlimit="10" stroke-width=".39557658" d="M13.598 11.172h5.777m0 0h5.777"/><path fill="#FFF" stroke="#000" stroke-miterlimit="10" stroke-width=".39557658" d="M15.172 11.172c0-.867-.703-1.574-1.574-1.574a1.574 1.574 0 0 0 0 3.148c.87 0 1.574-.703 1.574-1.574ZM26.727 11.172a1.575 1.575 0 1 0-3.148 0 1.575 1.575 0 0 0 3.148 0Zm0 0"/><path fill="none" stroke="#000" stroke-miterlimit="10" stroke-width=".39557658" d="M48.258 11.172V7.129m0 0V3.086"/><path stroke="#000" stroke-miterlimit="10" stroke-width=".39557658" d="M49.828 11.172c0-.867-.703-1.574-1.57-1.574a1.575 1.575 0 0 0 0 3.148c.867 0 1.57-.703 1.57-1.574Zm0 0"/><path fill="none" stroke="#000" stroke-miterlimit="10" stroke-width=".39557658" d="M59.809 3.086a2.888 2.888 0 0 0-5.777 0 2.887 2.887 0 0 0-5.774 0M59.809 3.086v4.043m0 0v4.043M48.258 11.172v4.043m0 0v4.043h3.808m3.934 0h3.809v-4.043m0 0v-4.043"/><g clip-path="url(#b)"><path fill="none" stroke="#000" stroke-miterlimit="10" stroke-width=".7901617400000001" d="M52.066 13.355V25.16M56 13.355V25.16"/></g><path stroke="#000" stroke-miterlimit="10" stroke-width=".39557658" d="M61.383 11.172a1.575 1.575 0 1 0-3.148 0 1.575 1.575 0 0 0 3.148 0Zm0 0"/><path fill="none" stroke="#000" stroke-miterlimit="10" stroke-width="1.18573832" d="M59.809 11.172h23.105m0 0h23.102m11.554 0h23.102m0 0h23.105"/><path fill="none" stroke="#000" stroke-miterlimit="10" stroke-width=".39557658" d="M163.777 11.172V7.129m0 0V3.086M175.332 3.086a2.888 2.888 0 0 0-5.777 0 2.888 2.888 0 0 0-5.777 0M175.332 3.086v4.043m0 0v4.043"/><path stroke="#000" stroke-miterlimit="10" stroke-width=".39557658" d="M165.352 11.172a1.575 1.575 0 1 0-3.15 0 1.575 1.575 0 0 0 3.15 0Zm0 0"/><path fill="none" stroke="#000" stroke-miterlimit="10" stroke-width=".39557658" d="M163.777 11.172v4.043m0 0v4.043h3.809m3.934 0h3.812v-4.043m0 0v-4.043"/><g clip-path="url(#c)"><path fill="none" stroke="#000" stroke-miterlimit="10" stroke-width=".7901617400000001" d="M167.586 13.355V25.16m3.934-11.805V25.16"/></g><path stroke="#000" stroke-miterlimit="10" stroke-width=".39557658" d="M176.902 11.172c0-.867-.703-1.574-1.57-1.574a1.575 1.575 0 0 0 0 3.148c.867 0 1.57-.703 1.57-1.574Zm0 0"/><path fill="none" stroke="#000" stroke-miterlimit="10" stroke-width="1.18573832" d="M175.332 11.172h11.55m0 0h11.552"/><path fill="none" stroke="#000" stroke-miterlimit="10" stroke-width=".39557658" d="M198.434 11.172h5.777m0 0h5.777"/><path fill="#FFF" stroke="#000" stroke-miterlimit="10" stroke-width=".39557658" d="M200.008 11.172a1.575 1.575 0 1 0-3.15 0 1.575 1.575 0 0 0 3.15 0Zm0 0"/><path fill="none" stroke="#000" stroke-dasharray="2.9631858386 2.9631858386" stroke-miterlimit="10" stroke-width=".39557658" d="M209.988 11.172h12.707"/><path fill="none" stroke="#000" stroke-miterlimit="10" stroke-width=".39557658" d="M209.988 11.172"/><path fill="#FFF" stroke="#000" stroke-miterlimit="10" stroke-width=".39557658" d="M211.559 11.172c0-.867-.704-1.574-1.57-1.574a1.575 1.575 0 0 0 0 3.148c.866 0 1.57-.703 1.57-1.574Zm0 0"/><path fill="none" stroke="#000" stroke-miterlimit="10" stroke-width=".39557658" d="M106.016 11.172"/><path stroke="#000" stroke-miterlimit="10" stroke-width=".39557658" d="M107.59 11.172c0-.867-.703-1.574-1.574-1.574a1.574 1.574 0 0 0 0 3.148c.87 0 1.574-.703 1.574-1.574Zm0 0"/><use xlink:href="#d" x="102.312" y="21.408"/><path fill="none" stroke="#000" stroke-miterlimit="10" stroke-width=".39557658" d="M117.57 11.172"/><path stroke="#000" stroke-miterlimit="10" stroke-width=".39557658" d="M119.145 11.172a1.575 1.575 0 1 0-3.148 0 1.575 1.575 0 0 0 3.148 0Zm0 0"/><use xlink:href="#d" x="113.864" y="21.408"/></svg>