<svg xmlns="http://www.w3.org/2000/svg" xmlns:xlink="http://www.w3.org/1999/xlink" width="227.434" height="64.704"><defs><path id="b" d="M7.203 0v-.312h-.187c-.516 0-.72-.047-.938-.36L3.984-3.828l1.36-2c.218-.313.562-.625 1.437-.64v-.313l-1.093.031c-.407 0-.875 0-1.266-.031v.312c.39.016.61.235.61.453 0 .11-.016.125-.095.235L3.813-4.11l-1.28-1.907c-.016-.03-.079-.109-.079-.156 0-.125.219-.281.656-.297v-.312c-.343.031-1.078.031-1.453.031L.36-6.781v.312h.204c.53 0 .734.063.921.344l1.813 2.766L1.672-.97c-.14.203-.438.657-1.438.657V0l1.11-.031c.36 0 .906 0 1.265.031v-.312c-.453 0-.625-.266-.625-.454 0-.093.032-.125.094-.234L3.5-3.078l1.563 2.36c.015.046.046.077.046.109 0 .125-.218.297-.64.297V0c.343-.031 1.062-.031 1.437-.031Zm0 0"/><path id="c" d="M3.64-3.969h.86c.188 0 .297 0 .297-.203 0-.11-.11-.11-.266-.11h-.828l.203-1.124c.047-.203.188-.907.235-1.032.093-.187.265-.343.468-.343.047 0 .297 0 .485.187a.531.531 0 0 0-.532.532c0 .234.188.343.375.343.25 0 .547-.218.547-.593 0-.454-.468-.688-.875-.688-.328 0-.953.188-1.25 1.172-.062.203-.093.297-.328 1.547h-.687c-.188 0-.297 0-.297.187 0 .125.094.125.281.125h.64L2.235-.047c-.187.953-.343 1.86-.859 1.86-.047 0-.297 0-.484-.172a.547.547 0 0 0 .547-.547c0-.219-.172-.344-.36-.344-.266 0-.547.219-.547.594 0 .453.438.687.844.687.547 0 .938-.578 1.11-.953.328-.625.546-1.828.562-1.906Zm0 0"/><path id="i" d="M2.016-.016c0-.656-.25-1.03-.641-1.03a.5.5 0 0 0-.516.515c0 .265.188.531.516.531.125 0 .25-.047.344-.125.031-.031.047-.031.062-.031 0 0 .016 0 .016.14 0 .735-.344 1.329-.672 1.657-.11.109-.11.14-.11.172 0 .062.048.109.094.109.11 0 .907-.766.907-1.938m0 0"/><path id="d" d="M1.375-1.578c0-.594.281-1.281.938-1.281a.325.325 0 0 0-.126.25c0 .218.188.312.313.312.172 0 .328-.11.328-.312 0-.235-.219-.453-.547-.453-.36 0-.734.218-.937.75h-.016v-.75l-.984.078v.25c.469 0 .515.046.515.39v1.797C.86-.25.797-.25.344-.25V0c.031 0 .5-.031.781-.031.297 0 .61.015.906.031v-.25h-.14c-.516 0-.516-.078-.516-.312Zm0 0"/><path id="e" d="M3.047-1.578c.156 0 .203 0 .203-.156 0-.61-.344-1.36-1.375-1.36a1.59 1.59 0 0 0-1.61 1.578C.266-.64 1.048.063 1.97.063c.937 0 1.281-.75 1.281-.891 0-.031-.016-.094-.125-.094-.094 0-.094.031-.125.11-.219.562-.734.656-.984.656-.328 0-.641-.14-.844-.406-.266-.329-.266-.75-.266-1.016Zm-2.14-.188c.077-.968.702-1.14.968-1.14.844 0 .875.969.89 1.14Zm0 0"/><path id="f" d="M2.625-2.906c0-.125 0-.188-.094-.188-.031 0-.047 0-.14.078-.016.016-.079.079-.125.11-.203-.14-.47-.188-.72-.188-1 0-1.233.516-1.233.86 0 .234.093.406.265.547.266.234.531.28.953.343.344.063.907.172.907.625 0 .282-.188.594-.844.594-.672 0-.907-.437-1.031-.906C.53-1.125.53-1.156.438-1.156c-.125 0-.125.047-.125.187v.86c0 .109 0 .172.093.172C.47.063.61-.078.75-.234c.297.297.672.297.844.297.89 0 1.234-.485 1.234-.97 0-.265-.125-.468-.297-.64-.265-.25-.594-.297-.828-.344-.562-.093-1.016-.171-1.016-.546 0-.22.188-.485.86-.485.797 0 .828.563.844.75.015.078.093.078.125.078.109 0 .109-.047.109-.172Zm0 0"/><path id="g" d="M4.625-3.656H.781c-.125 0-.219.11-.219.234 0 .125.094.235.22.235h3.843a.24.24 0 0 0 .234-.235.24.24 0 0 0-.234-.234m0 1.781H.781c-.125 0-.219.094-.219.234 0 .125.094.22.22.22h3.843c.125 0 .234-.095.234-.22a.23.23 0 0 0-.234-.234m0 0"/><path id="h" d="M4.719-6.047c.093-.11.093-.14.093-.344H2.407c-1.219 0-1.234-.125-1.281-.312H.891L.563-4.656h.234c.031-.172.125-.797.25-.907.078-.062.844-.062.984-.062h2.047c-.11.156-.89 1.234-1.11 1.563C2.079-2.72 1.75-1.344 1.75-.328c0 .094 0 .547.453.547s.453-.453.453-.547v-.5c0-.547.031-1.094.11-1.625.046-.235.187-1.094.625-1.703Zm0 0"/><path id="j" d="M4.563-3.172c0-.797-.047-1.594-.391-2.328-.469-.953-1.281-1.11-1.688-1.11-.593 0-1.328.266-1.734 1.188-.312.672-.36 1.453-.36 2.25 0 .735.032 1.64.438 2.39.438.798 1.156 1 1.64 1C3 .219 3.767.017 4.204-.936c.313-.688.36-1.454.36-2.235M2.469 0c-.39 0-.969-.25-1.156-1.203-.11-.594-.11-1.5-.11-2.094 0-.625 0-1.281.094-1.828.187-1.172.922-1.266 1.172-1.266.328 0 .984.172 1.172 1.157.093.562.093 1.312.093 1.937 0 .75 0 1.422-.109 2.063C3.485-.297 2.922 0 2.469 0m0 0"/><path id="k" d="M4.453-2c0-1.172-.812-2.172-1.89-2.172a1.7 1.7 0 0 0-1.25.516v-1.938c.203.063.515.125.843.125 1.219 0 1.906-.906 1.906-1.031 0-.062-.03-.11-.093-.11-.016 0-.031 0-.078.032a3.26 3.26 0 0 1-1.344.281c-.406 0-.86-.062-1.328-.266-.078-.03-.094-.03-.125-.03C1-6.594 1-6.517 1-6.36v2.937c0 .172 0 .25.14.25.063 0 .094-.015.126-.078.109-.156.484-.703 1.28-.703.517 0 .767.453.845.64.156.36.187.75.187 1.25 0 .344 0 .938-.25 1.36-.234.39-.594.64-1.062.64-.72 0-1.282-.515-1.453-1.109.03.016.062.016.171.016.329 0 .5-.25.5-.485a.48.48 0 0 0-.5-.484c-.14 0-.484.078-.484.531C.5-.75 1.188.22 2.297.22 3.437.219 4.453-.734 4.453-2m0 0"/><path id="l" d="M2.39-6.562c-.093-.22-.124-.22-.343-.22H.359v.313h.25c.766 0 .782.11.782.469v4.953c0 .266 0 .734-1.032.734V0c.36-.016.844-.031 1.172-.031.328 0 .813.015 1.157.031v-.312c-1.016 0-1.016-.47-1.016-.735V-6.39l2.39 6.172c.063.125.11.219.204.219.109 0 .14-.078.172-.187L6.89-6.47V-.78c0 .36-.016.469-.782.469h-.234V0c.36-.031 1.047-.031 1.422-.031.39 0 1.062 0 1.422.031v-.312h-.235c-.765 0-.78-.11-.78-.47V-6c0-.36.015-.469.78-.469h.235v-.312H7.047c-.266 0-.266.015-.328.187L4.547-1Zm0 0"/><path id="m" d="M6.078-6c0-.36.031-.469.781-.469h.25v-.312c-.359.031-1.093.031-1.468.031s-1.11 0-1.47-.031v.312h.25c.75 0 .782.11.782.469v2.313H2.234V-6c0-.36.016-.469.782-.469h.234v-.312c-.344.031-1.078.031-1.453.031s-1.125 0-1.469-.031v.312h.235c.765 0 .78.11.78.469v5.219c0 .36-.015.469-.78.469H.328V0c.344-.031 1.078-.031 1.453-.031s1.125 0 1.469.031v-.312h-.234c-.766 0-.782-.11-.782-.47v-2.593h2.97v2.594c0 .36-.032.469-.782.469h-.25V0c.36-.031 1.094-.031 1.469-.031s1.109 0 1.468.031v-.312h-.25c-.75 0-.78-.11-.78-.47Zm0 0"/><path id="n" d="M3.875-3.984c.078-.11.078-.125.078-.157 0-.14-.078-.14-.25-.14H.531l-.11 1.61h.25C.72-3.689.907-4.064 2-4.064h1.14L.36-.312C.28-.202.28-.186.28-.14.281 0 .344 0 .531 0h3.282l.171-1.86h-.25C3.641-.686 3.438-.25 2.281-.25H1.11Zm0 0"/><path id="o" d="M1.313-3.25v-.25c0-2.5 1.234-2.86 1.734-2.86.234 0 .656.063.875.391-.156 0-.547 0-.547.453 0 .313.234.454.453.454.156 0 .453-.094.453-.47 0-.593-.437-1.077-1.25-1.077-1.281 0-2.61 1.28-2.61 3.468C.422-.484 1.564.22 2.485.22c1.11 0 2.047-.938 2.047-2.25 0-1.25-.875-2.203-1.984-2.203-.672 0-1.031.5-1.235.984M2.484-.062c-.625 0-.921-.594-.968-.735-.188-.469-.188-1.265-.188-1.453 0-.766.313-1.766 1.219-1.766.156 0 .61 0 .922.625.172.36.172.875.172 1.36 0 .469 0 .969-.172 1.328-.297.594-.75.64-.985.64m0 0"/><path id="p" d="M2.922-6.344c0-.25 0-.265-.235-.265-.609.64-1.484.64-1.796.64v.297c.187 0 .78 0 1.297-.25v5.14c0 .36-.032.47-.922.47H.938V0c.359-.031 1.218-.031 1.609-.031.406 0 1.265 0 1.61.031v-.312h-.313c-.89 0-.922-.11-.922-.47Zm0 0"/><path id="q" d="M1.094-3.406V-.75c0 .438-.11.438-.782.438V0c.36-.016.86-.031 1.126-.031.265 0 .78.015 1.109.031v-.312c-.656 0-.766 0-.766-.438v-1.828c0-1.031.703-1.594 1.328-1.594.625 0 .735.547.735 1.11V-.75c0 .438-.11.438-.766.438V0a30.36 30.36 0 0 1 1.125-.031c.25 0 .766.015 1.11.031v-.312c-.672 0-.782 0-.782-.438v-1.828c0-1.031.703-1.594 1.344-1.594.625 0 .734.547.734 1.11V-.75c0 .438-.109.438-.78.438V0c.359-.016.859-.031 1.124-.031.266 0 .781.015 1.11.031v-.312c-.516 0-.766 0-.766-.297V-2.5c0-.86 0-1.156-.313-1.516-.14-.171-.468-.375-1.046-.375-.829 0-1.266.594-1.438.985-.14-.875-.875-.985-1.312-.985-.735 0-1.188.438-1.47 1.047V-4.39l-1.405.11v.312c.703 0 .78.063.78.563m0 0"/><clipPath id="a"><path d="M.234 34H14v1H.234Zm0 0"/></clipPath></defs><path fill="none" stroke="#000" stroke-miterlimit="10" stroke-width="1.1905582" d="M24.793 34.738h11.598m0 0h11.601"/><g clip-path="url(#a)"><path fill="none" stroke="#000" stroke-dasharray="2.9752308235 2.9752308235" stroke-miterlimit="10" stroke-width=".39718455" d="M.434 34.738H13.19"/></g><path fill="none" stroke="#000" stroke-miterlimit="10" stroke-width=".39718455" d="M13.191 34.738h5.801m0 0h5.801"/><path fill="#FFF" stroke="#000" stroke-miterlimit="10" stroke-width=".39718455" d="M14.773 34.738a1.58 1.58 0 1 0-3.159.003 1.58 1.58 0 0 0 3.16-.003ZM26.371 34.738a1.58 1.58 0 1 0-3.161.003 1.58 1.58 0 0 0 3.161-.003Zm0 0"/><path fill="none" stroke="#000" stroke-miterlimit="10" stroke-width=".39718455" d="M47.992 34.738V30.68m0 0V26.62"/><path stroke="#000" stroke-miterlimit="10" stroke-width=".39718455" d="M49.57 34.738a1.58 1.58 0 1 0-3.161.003 1.58 1.58 0 0 0 3.161-.003Zm0 0"/><path fill="none" stroke="#000" stroke-miterlimit="10" stroke-width=".39718455" d="M59.59 26.621a2.9 2.9 0 0 0-5.8 0 2.897 2.897 0 0 0-2.9-2.898 2.897 2.897 0 0 0-2.898 2.898M59.59 26.621v4.059m0 0v4.058M47.992 34.738v4.063m0 0v4.058h3.824m3.95 0h3.824v-4.058m0 0v-4.063"/><path fill="none" stroke="#000" stroke-miterlimit="10" stroke-width=".79337365" d="M51.816 36.934v11.851m3.95-11.851v11.851"/><path stroke="#000" stroke-miterlimit="10" stroke-width=".39718455" d="M61.168 34.738c0-.87-.707-1.578-1.578-1.578-.871 0-1.582.707-1.582 1.578a1.58 1.58 0 1 0 3.16 0Zm0 0"/><path fill="none" stroke="#000" stroke-miterlimit="10" stroke-width="1.1905582" d="M59.59 34.738h23.199m0 0h23.195m11.602 0h23.195m0 0h23.2"/><path fill="none" stroke="#000" stroke-miterlimit="10" stroke-width=".39718455" d="M163.98 34.738V30.68m0 0V26.62M175.582 26.621a2.9 2.9 0 0 0-5.8 0 2.9 2.9 0 0 0-5.8 0M175.582 26.621v4.059m0 0v4.058"/><path stroke="#000" stroke-miterlimit="10" stroke-width=".39718455" d="M165.562 34.738a1.58 1.58 0 1 0-3.159.003 1.58 1.58 0 0 0 3.16-.003Zm0 0"/><path fill="none" stroke="#000" stroke-miterlimit="10" stroke-width=".39718455" d="M163.98 34.738v4.063m0 0v4.058h3.825m3.953 0h3.824v-4.058m0 0v-4.063"/><path fill="none" stroke="#000" stroke-miterlimit="10" stroke-width=".79337365" d="M167.805 36.934v11.851m3.953-11.851v11.851"/><path stroke="#000" stroke-miterlimit="10" stroke-width=".39718455" d="M177.16 34.738a1.58 1.58 0 1 0-3.161.003 1.58 1.58 0 0 0 3.161-.003Zm0 0"/><path fill="none" stroke="#000" stroke-miterlimit="10" stroke-width="1.1905582" d="M175.582 34.738h11.598m0 0h11.597"/><path fill="none" stroke="#000" stroke-miterlimit="10" stroke-width=".39718455" d="M198.777 34.738h5.801m0 0h5.8"/><path fill="#FFF" stroke="#000" stroke-miterlimit="10" stroke-width=".39718455" d="M200.36 34.738a1.58 1.58 0 1 0-3.16.003 1.58 1.58 0 0 0 3.16-.003Zm0 0"/><path fill="none" stroke="#000" stroke-dasharray="2.9752308235 2.9752308235" stroke-miterlimit="10" stroke-width=".39718455" d="M210.379 34.738h12.758"/><path fill="none" stroke="#000" stroke-miterlimit="10" stroke-width=".39718455" d="M210.379 34.738"/><path fill="#FFF" stroke="#000" stroke-miterlimit="10" stroke-width=".39718455" d="M211.957 34.738a1.58 1.58 0 1 0-3.161.003 1.58 1.58 0 0 0 3.161-.003Zm0 0"/><path fill="none" stroke="#000" stroke-miterlimit="10" stroke-width=".39718455" d="M105.984 34.738"/><path stroke="#000" stroke-miterlimit="10" stroke-width=".39718455" d="M107.566 34.738a1.58 1.58 0 1 0-3.159.003 1.58 1.58 0 0 0 3.16-.003Zm0 0"/><use xlink:href="#b" x="102.265" y="45.017"/><path fill="none" stroke="#000" stroke-miterlimit="10" stroke-width=".39718455" d="M117.586 34.738"/><path stroke="#000" stroke-miterlimit="10" stroke-width=".39718455" d="M119.164 34.738a1.58 1.58 0 1 0-3.161.003 1.58 1.58 0 0 0 3.161-.003Zm0 0"/><use xlink:href="#b" x="113.864" y="45.017"/><use xlink:href="#c" x="21.063" y="59.175"/><use xlink:href="#d" x="25.918" y="60.662"/><use xlink:href="#e" x="29.017" y="60.662"/><use xlink:href="#f" x="32.542" y="60.662"/><use xlink:href="#g" x="38.63" y="59.175"/><use xlink:href="#h" x="46.481" y="59.175"/><use xlink:href="#i" x="51.439" y="59.175"/><use xlink:href="#j" x="54.194" y="59.175"/><use xlink:href="#k" x="59.153" y="59.175"/><use xlink:href="#l" x="65.579" y="59.175"/><use xlink:href="#m" x="74.67" y="59.175"/><use xlink:href="#n" x="82.108" y="59.175"/><path fill="none" stroke="#999" stroke-miterlimit="10" stroke-width=".0099545" d="M47.992 17.34"/><path fill="none" stroke="#000" stroke-miterlimit="10" stroke-width=".39718455" d="M25.09 17.34H47.69"/><path stroke="#000" stroke-miterlimit="10" stroke-width=".39718455" d="m25.586 17.34 2.96 1.758v-3.512Zm0 0"/><path fill="none" stroke="#000" stroke-miterlimit="10" stroke-width=".39718455" d="M24.992 19.621V15.06"/><path stroke="#000" stroke-miterlimit="10" stroke-width=".39718455" d="m47.195 17.34-2.957-1.754v3.512Zm0 0"/><path fill="none" stroke="#000" stroke-miterlimit="10" stroke-width=".39718455" d="M47.793 15.059v4.562"/><path fill="#FFF" d="M19.402 14.93H53.38V0H19.402Zm0 0"/><use xlink:href="#o" x="22.709" y="9.697"/><use xlink:href="#i" x="27.668" y="9.697"/><use xlink:href="#h" x="30.423" y="9.697"/><use xlink:href="#p" x="35.382" y="9.697"/><use xlink:href="#q" x="41.808" y="9.697"/><path fill="none" stroke="#999" stroke-miterlimit="10" stroke-width=".0099545" d="M105.984 17.34"/><path fill="none" stroke="#000" stroke-miterlimit="10" stroke-width=".39718455" d="M59.887 17.34h45.8"/><path stroke="#000" stroke-miterlimit="10" stroke-width=".39718455" d="m60.383 17.34 2.96 1.758v-3.512Zm0 0"/><path fill="none" stroke="#000" stroke-miterlimit="10" stroke-width=".39718455" d="M59.79 19.621V15.06"/><path stroke="#000" stroke-miterlimit="10" stroke-width=".39718455" d="m105.191 17.34-2.96-1.754v3.512Zm0 0"/><path fill="none" stroke="#000" stroke-miterlimit="10" stroke-width=".39718455" d="M105.79 15.059v4.562"/><path fill="#FFF" d="M63.32 14.93h38.934V0H63.32Zm0 0"/><use xlink:href="#p" x="66.625" y="9.697"/><use xlink:href="#j" x="71.584" y="9.697"/><use xlink:href="#i" x="76.543" y="9.697"/><use xlink:href="#j" x="79.297" y="9.697"/><use xlink:href="#h" x="84.256" y="9.697"/><use xlink:href="#q" x="90.682" y="9.697"/><path fill="none" stroke="#999" stroke-miterlimit="10" stroke-width=".0099545" d="M163.98 17.34"/><path fill="none" stroke="#000" stroke-miterlimit="10" stroke-width=".39718455" d="M117.883 17.34h45.8"/><path stroke="#000" stroke-miterlimit="10" stroke-width=".39718455" d="m118.379 17.34 2.96 1.758v-3.512Zm0 0"/><path fill="none" stroke="#000" stroke-miterlimit="10" stroke-width=".39718455" d="M117.785 19.621V15.06"/><path stroke="#000" stroke-miterlimit="10" stroke-width=".39718455" d="m163.187 17.34-2.96-1.754v3.512Zm0 0"/><path fill="none" stroke="#000" stroke-miterlimit="10" stroke-width=".39718455" d="M163.781 15.059v4.562"/><path fill="#FFF" d="M121.316 14.93h38.934V0h-38.934Zm0 0"/><use xlink:href="#p" x="124.62" y="9.697"/><use xlink:href="#j" x="129.579" y="9.697"/><use xlink:href="#i" x="134.538" y="9.697"/><use xlink:href="#j" x="137.292" y="9.697"/><use xlink:href="#h" x="142.251" y="9.697"/><use xlink:href="#q" x="148.677" y="9.697"/><path fill="none" stroke="#999" stroke-miterlimit="10" stroke-width=".0099545" d="M198.777 17.34"/><path fill="none" stroke="#000" stroke-miterlimit="10" stroke-width=".39718455" d="M175.879 17.34h22.601"/><path stroke="#000" stroke-miterlimit="10" stroke-width=".39718455" d="m176.375 17.34 2.96 1.758v-3.512Zm0 0"/><path fill="none" stroke="#000" stroke-miterlimit="10" stroke-width=".39718455" d="M175.777 19.621V15.06"/><path stroke="#000" stroke-miterlimit="10" stroke-width=".39718455" d="m197.984 17.34-2.96-1.754v3.512Zm0 0"/><path fill="none" stroke="#000" stroke-miterlimit="10" stroke-width=".39718455" d="M198.582 15.059v4.562"/><path fill="#FFF" d="M170.191 14.93h33.977V0h-33.977Zm0 0"/><use xlink:href="#o" x="173.496" y="9.697"/><use xlink:href="#i" x="178.454" y="9.697"/><use xlink:href="#h" x="181.208" y="9.697"/><use xlink:href="#p" x="186.167" y="9.697"/><use xlink:href="#q" x="192.593" y="9.697"/></svg>