<svg xmlns="http://www.w3.org/2000/svg" xmlns:xlink="http://www.w3.org/1999/xlink" width="227.549" height="41.292"><defs><path id="b" d="M4.734-.875v-.547h-.25v.547c0 .578-.25.625-.343.625-.328 0-.375-.437-.375-.484v-1.953c0-.422 0-.797-.344-1.157a1.864 1.864 0 0 0-1.344-.547c-.797 0-1.484.47-1.484 1.11 0 .297.203.453.453.453.281 0 .453-.188.453-.438 0-.125-.047-.453-.5-.453.266-.344.75-.453 1.063-.453.468 0 1.03.375 1.03 1.25v.36c-.5.03-1.187.062-1.796.359-.734.328-.984.844-.984 1.265C.313-.14 1.265.11 1.875.11c.656 0 1.11-.39 1.297-.859.031.39.297.813.75.813.219 0 .812-.141.812-.938m-1.64-.5c0 .938-.703 1.266-1.14 1.266-.485 0-.891-.344-.891-.828 0-.547.421-1.36 2.03-1.407Zm0 0"/><path id="c" d="M5.11-2.11c0-1.25-.97-2.218-2.079-2.218-.765 0-1.187.453-1.344.64v-3.109l-1.406.11v.296c.672 0 .75.079.75.547V0h.25l.36-.61c.14.235.547.72 1.28.72C4.079.11 5.11-.86 5.11-2.11m-.813-.015c0 .36-.031.953-.313 1.39-.203.298-.578.626-1.109.626-.437 0-.781-.235-1.016-.594-.14-.203-.14-.235-.14-.406v-2.032c0-.187 0-.187.11-.343a1.409 1.409 0 0 1 1.155-.625c.438 0 .782.25 1.016.625.266.39.297.953.297 1.359m0 0"/><path id="d" d="M7.11 0v-.297h-.188c-.5 0-.703-.062-.922-.36L3.938-3.78 5.28-5.75c.219-.312.547-.625 1.422-.64v-.298l-1.094.032c-.39 0-.859 0-1.25-.032v.297c.391.016.61.235.61.454 0 .093-.016.125-.094.218l-1.11 1.657L2.5-5.953c-.016-.016-.078-.094-.078-.14 0-.126.219-.282.64-.298v-.296c-.343.03-1.046.03-1.421.03l-1.282-.03v.296h.188c.547 0 .734.079.906.344l1.813 2.719-1.61 2.375c-.14.203-.437.656-1.422.656V0l1.094-.031c.36 0 .89 0 1.25.031v-.297c-.453-.016-.625-.281-.625-.453 0-.094.031-.125.11-.234l1.39-2.063L5-.703c.016.031.047.078.047.11 0 .109-.219.28-.64.296V0c.343-.031 1.062-.031 1.437-.031Zm0 0"/><clipPath id="a"><path d="M1.695 10H26v2H1.695Zm0 0"/></clipPath></defs><g clip-path="url(#a)"><path fill="none" stroke="#000" stroke-miterlimit="10" stroke-width="1.17583544" d="M2.285 11.16h11.54m0 0h11.542"/></g><path fill="none" stroke="#000" stroke-miterlimit="10" stroke-width=".39227286" d="M25.367 11.16V7.121m0 0V3.082"/><path stroke="#000" stroke-miterlimit="10" stroke-width=".39227286" d="M26.926 11.16a1.561 1.561 0 1 0-3.123-.002 1.561 1.561 0 0 0 3.123.002Zm0 0"/><path fill="none" stroke="#000" stroke-miterlimit="10" stroke-width=".39227286" d="M36.906 3.082a2.884 2.884 0 1 0-5.77 0 2.884 2.884 0 1 0-5.77 0M36.906 3.082v4.04m0 0v4.038M25.367 11.16v4.04m0 0v4.038h3.82m3.899 0h3.82V15.2m0 0V11.16"/><path fill="none" stroke="#000" stroke-miterlimit="10" stroke-width=".78356258" d="M29.188 13.387V25.09m3.898-11.703V25.09"/><use xlink:href="#b" x="28.687" y="35.487"/><path stroke="#000" stroke-miterlimit="10" stroke-width=".39227286" d="M38.469 11.16a1.561 1.561 0 1 0-3.12-.003 1.561 1.561 0 0 0 3.12.003Zm0 0"/><path fill="none" stroke="#000" stroke-miterlimit="10" stroke-width="1.17583544" d="M36.906 11.16h5.77m0 0h5.773"/><path fill="none" stroke="#000" stroke-miterlimit="10" stroke-width=".39227286" d="M48.45 11.16V7.121m0 0V3.082"/><path stroke="#000" stroke-miterlimit="10" stroke-width=".39227286" d="M50.008 11.16a1.561 1.561 0 1 0-3.123-.002 1.561 1.561 0 0 0 3.123.002Zm0 0"/><path fill="none" stroke="#000" stroke-miterlimit="10" stroke-width=".39227286" d="M59.988 3.082A2.887 2.887 0 0 0 57.105.195a2.887 2.887 0 0 0-2.886 2.887 2.884 2.884 0 1 0-5.77 0M59.988 3.082v4.04m0 0v4.038M48.45 11.16v4.04m0 0v4.038h3.82m3.898 0h3.82V15.2m0 0V11.16"/><path fill="none" stroke="#000" stroke-miterlimit="10" stroke-width=".78356258" d="M52.27 13.387V25.09m3.898-11.703V25.09"/><use xlink:href="#c" x="51.494" y="35.487"/><path stroke="#000" stroke-miterlimit="10" stroke-width=".39227286" d="M61.55 11.16a1.561 1.561 0 1 0-3.12-.003 1.561 1.561 0 0 0 3.12.003Zm0 0"/><path fill="none" stroke="#000" stroke-miterlimit="10" stroke-width="1.17583544" d="M59.988 11.16H83.07m0 0h23.082"/><path stroke="#000" stroke-miterlimit="10" stroke-width=".39227286" d="M107.715 11.16a1.561 1.561 0 1 0-3.12-.003 1.561 1.561 0 0 0 3.12.003ZM119.254 11.16a1.561 1.561 0 1 0-3.123-.002 1.561 1.561 0 0 0 3.123.002Zm0 0"/><path fill="none" stroke="#000" stroke-miterlimit="10" stroke-width="1.17583544" d="M117.695 11.16h23.082m0 0h23.082"/><path fill="none" stroke="#000" stroke-miterlimit="10" stroke-width=".39227286" d="M163.86 11.16V7.121m0 0V3.082"/><path stroke="#000" stroke-miterlimit="10" stroke-width=".39227286" d="M165.418 11.16a1.561 1.561 0 1 0-3.122-.002 1.561 1.561 0 0 0 3.122.002Zm0 0"/><path fill="none" stroke="#000" stroke-miterlimit="10" stroke-width=".39227286" d="M175.398 3.082a2.887 2.887 0 0 0-2.886-2.887 2.887 2.887 0 0 0-2.883 2.887 2.884 2.884 0 1 0-5.77 0M175.398 3.082v4.04m0 0v4.038M163.86 11.16v4.04m0 0v4.038h3.816m3.902 0h3.82V15.2m0 0V11.16"/><path fill="none" stroke="#000" stroke-miterlimit="10" stroke-width=".78356258" d="M167.676 13.387V25.09m3.902-11.703V25.09"/><use xlink:href="#c" x="166.903" y="35.487"/><path stroke="#000" stroke-miterlimit="10" stroke-width=".39227286" d="M176.961 11.16c0-.863-.7-1.562-1.563-1.562s-1.558.699-1.558 1.562a1.561 1.561 0 0 0 3.121 0Zm0 0"/><path fill="none" stroke="#000" stroke-miterlimit="10" stroke-width="1.17583544" d="M175.398 11.16h5.77m0 0h5.773"/><path fill="none" stroke="#000" stroke-miterlimit="10" stroke-width=".39227286" d="M186.941 11.16V7.121m0 0V3.082"/><path stroke="#000" stroke-miterlimit="10" stroke-width=".39227286" d="M188.5 11.16a1.561 1.561 0 1 0-3.122-.002 1.561 1.561 0 0 0 3.122.002Zm0 0"/><path fill="none" stroke="#000" stroke-miterlimit="10" stroke-width=".39227286" d="M198.48 3.082a2.887 2.887 0 0 0-2.886-2.887 2.887 2.887 0 0 0-2.883 2.887 2.884 2.884 0 1 0-5.77 0M198.48 3.082v4.04m0 0v4.038M186.941 11.16v4.04m0 0v4.038h3.817m3.902 0h3.82V15.2m0 0V11.16"/><path fill="none" stroke="#000" stroke-miterlimit="10" stroke-width=".78356258" d="M190.758 13.387V25.09m3.902-11.703V25.09"/><use xlink:href="#b" x="190.259" y="35.487"/><path stroke="#000" stroke-miterlimit="10" stroke-width=".39227286" d="M200.043 11.16c0-.863-.7-1.562-1.563-1.562s-1.558.699-1.558 1.562a1.561 1.561 0 0 0 3.121 0Zm0 0"/><path fill="none" stroke="#000" stroke-miterlimit="10" stroke-width="1.17583544" d="M198.48 11.16h11.543m0 0h11.54"/><use xlink:href="#d" x="102.478" y="21.31"/><use xlink:href="#d" x="114.019" y="21.31"/></svg>