<svg xmlns="http://www.w3.org/2000/svg" xmlns:xlink="http://www.w3.org/1999/xlink" width="227.73" height="250.8"><defs><path id="c" d="M2.563-6.797c0-.016 0-.11-.126-.11-.234 0-.953.079-1.218.095-.078.015-.188.03-.188.218 0 .11.11.11.25.11.485 0 .485.078.485.172l-.032.187-1.25 4.984a.973.973 0 0 0-.046.329.89.89 0 0 0 .906.921c.328 0 .578-.203.75-.562.172-.375.297-.953.297-.969 0-.094-.094-.094-.125-.094-.094 0-.11.032-.141.172-.172.64-.36 1.235-.75 1.235-.297 0-.297-.313-.297-.453 0-.25 0-.297.063-.485Zm0 0"/><path id="r" d="M3.547-2.906c.422 1.047.89 2.562 1.047 2.797.156.218.265.218.531.218h.219c.093-.015.11-.062.11-.093 0-.032-.016-.063-.048-.094-.093-.11-.156-.266-.234-.453L3.14-6.203c-.203-.578-.735-.703-1.203-.703-.063 0-.188 0-.188.11 0 .077.078.093.094.093.328.062.39.125.64.797l.97 2.718-2.75 2.72C.593-.345.53-.282.53-.157c0 .172.14.281.297.281.156 0 .25-.11.328-.203Zm0 0"/><path id="d" d="M7.172-3.453c0-.203-.188-.203-.328-.203H.89c-.141 0-.328 0-.328.203s.187.203.328.203h5.953c.14 0 .328 0 .328-.203m0 1.937c0-.203-.188-.203-.328-.203H.89c-.141 0-.328 0-.328.203 0 .188.187.188.328.188h5.953c.14 0 .328 0 .328-.188m0 0"/><path id="e" d="M4.688-1.64v-.313h-1v-4.531c0-.188 0-.25-.157-.25-.094 0-.125 0-.203.109L.281-1.953v.312h2.64v.86c0 .36-.015.469-.75.469h-.218V0c.422-.031.938-.031 1.344-.031.422 0 .953 0 1.36.031v-.312h-.204c-.734 0-.766-.11-.766-.47v-.859Zm-1.704-.313H.563l2.421-3.703Zm0 0"/><path id="f" d="M4.547-1.703c0-.813-.625-1.594-1.656-1.797.812-.266 1.39-.969 1.39-1.75 0-.828-.875-1.375-1.828-1.375-1.015 0-1.765.594-1.765 1.344 0 .328.218.531.5.531a.492.492 0 0 0 .515-.516c0-.5-.469-.5-.625-.5.313-.484.969-.609 1.328-.609.406 0 .953.219.953 1.11 0 .124-.015.702-.28 1.14-.298.469-.626.5-.876.516-.078 0-.328.03-.39.03-.079 0-.157.017-.157.11 0 .11.078.11.25.11h.438c.812 0 1.172.687 1.172 1.656 0 1.36-.672 1.64-1.11 1.64-.437 0-1.187-.171-1.531-.75.344.047.656-.171.656-.546 0-.36-.265-.563-.562-.563-.235 0-.547.14-.547.578 0 .907.922 1.563 2 1.563 1.219 0 2.125-.906 2.125-1.922m0 0"/><path id="g" d="M2.016-.016c0-.625-.235-1.046-.625-1.046-.36 0-.532.28-.532.53 0 .266.172.532.532.532.14 0 .28-.062.39-.156a2.56 2.56 0 0 1-.703 1.86c-.047.062-.062.062-.062.109 0 .062.046.109.093.109.125 0 .907-.781.907-1.938m0 0"/><path id="h" d="M4.172 0v-.312h-.313c-.906 0-.937-.11-.937-.47v-5.593c0-.234 0-.25-.219-.25-.625.64-1.5.64-1.812.64v.298c.187 0 .78 0 1.297-.25v5.156c0 .36-.032.469-.922.469H.953V0c.344-.031 1.203-.031 1.61-.031.39 0 1.265 0 1.609.031m0 0"/><path id="i" d="M4.547-1.672c0-.36-.11-.812-.484-1.219-.188-.218-.344-.312-.985-.718.719-.36 1.203-.875 1.203-1.532 0-.921-.89-1.484-1.797-1.484-.984 0-1.796.734-1.796 1.656 0 .188.015.625.437 1.094.11.125.484.375.719.547C1.28-3.047.422-2.484.422-1.5.422-.453 1.438.219 2.484.219c1.125 0 2.063-.828 2.063-1.89M3.844-5.14c0 .563-.39 1.047-.985 1.391l-1.234-.797c-.453-.297-.5-.64-.5-.812 0-.61.64-1.016 1.36-1.016.718 0 1.359.516 1.359 1.234m.203 3.829c0 .734-.75 1.25-1.563 1.25C1.625-.062.922-.672.922-1.5c0-.578.312-1.219 1.156-1.687l1.219.78c.281.188.75.485.75 1.095m0 0"/><path id="j" d="M8.094 0v-.312c-.516 0-.766 0-.781-.297v-1.907c0-.843 0-1.156-.313-1.515-.125-.172-.453-.375-1.031-.375-.844 0-1.282.61-1.453.984-.141-.875-.875-.984-1.328-.984-.72 0-1.188.437-1.47 1.047v-1.047l-1.405.11v.312c.703 0 .78.078.78.562V-.75c0 .438-.109.438-.78.438V0l1.125-.031L2.563 0v-.312c-.672 0-.782 0-.782-.438v-1.844c0-1.031.703-1.594 1.344-1.594.625 0 .734.547.734 1.11V-.75c0 .438-.109.438-.78.438V0l1.124-.031L5.328 0v-.312c-.672 0-.781 0-.781-.438v-1.844c0-1.031.703-1.594 1.344-1.594.625 0 .734.547.734 1.11V-.75c0 .438-.11.438-.766.438V0l1.125-.031Zm0 0"/><path id="k" d="M3.547-6.312c0-.375-.36-.704-.89-.704-.704 0-1.548.532-1.548 1.579v1.14H.33v.313h.78V-.75c0 .438-.109.438-.765.438V0l1.125-.031c.406 0 .875 0 1.265.031v-.312h-.203c-.734 0-.765-.11-.765-.47v-3.202h1.14v-.313H1.734v-1.14c0-.875.485-1.36.922-1.36.031 0 .188 0 .328.063a.44.44 0 0 0-.296.422c0 .234.156.437.421.437.297 0 .438-.203.438-.437m0 0"/><path id="l" d="M5.328 0v-.312c-.703 0-.781-.063-.781-.547v-3.547l-1.469.11v.312c.703 0 .781.078.781.562v1.766c0 .875-.468 1.547-1.203 1.547-.828 0-.875-.47-.875-.985v-3.312l-1.468.11v.312c.78 0 .78.03.78.922v1.484c0 .781 0 1.687 1.516 1.687.563 0 1-.28 1.282-.89v.89ZM2.375-6.016a.484.484 0 0 0-.484-.468.473.473 0 0 0-.485.468c0 .25.203.47.469.47.313 0 .5-.25.5-.47m1.766 0a.474.474 0 0 0-.485-.468.483.483 0 0 0-.484.468c0 .25.219.47.484.47.313 0 .485-.25.485-.47m0 0"/><path id="m" d="M3.625-3.797c0-.312-.312-.61-.734-.61-.735 0-1.094.673-1.235 1.11v-1.11l-1.375.11v.313c.688 0 .782.078.782.562V-.75c0 .438-.11.438-.782.438V0l1.125-.031c.407 0 .875 0 1.266.031v-.312h-.203c-.735 0-.75-.11-.75-.47v-1.53c0-.985.406-1.876 1.172-1.876.062 0 .078 0 .109.016a.433.433 0 0 0-.234.39c0 .282.203.423.422.423.187 0 .437-.11.437-.438m0 0"/><path id="n" d="M4.828-6.406H2.406c-1.219 0-1.234-.14-1.265-.328H.89L.563-4.672h.25c.03-.172.109-.797.25-.906.062-.063.843-.063.968-.063h2.063L2.969-4.078C2.079-2.734 1.75-1.344 1.75-.328c0 .094 0 .547.453.547.469 0 .469-.453.469-.547v-.516c0-.547.031-1.094.11-1.625.03-.234.171-1.078.609-1.703l1.343-1.89c.094-.125.094-.141.094-.344m0 0"/><path id="o" d="M8.75 0v-.312h-.234c-.766 0-.797-.11-.797-.47v-5.234c0-.359.031-.468.797-.468h.234v-.313H7.063c-.25 0-.25.016-.329.188L4.563-1 2.406-6.578c-.094-.219-.125-.219-.36-.219H.376v.313h.234c.766 0 .782.109.782.468v4.97c0 .265 0 .734-1.016.734V0l1.156-.031L2.703 0v-.312c-1.031 0-1.031-.47-1.031-.735v-5.36h.016l2.39 6.188c.047.125.11.219.203.219.11 0 .14-.078.172-.187l2.453-6.297h.016v5.703c0 .36-.031.469-.797.469h-.234V0c.375-.031 1.047-.031 1.437-.031.39 0 1.047 0 1.422.031m0 0"/><path id="p" d="M7.125 0v-.312h-.234c-.766 0-.797-.11-.797-.47v-5.234c0-.359.031-.468.797-.468h.234v-.313c-.344.031-1.078.031-1.469.031-.375 0-1.125 0-1.468-.03v.312h.234c.781 0 .797.109.797.468v2.329H2.234v-2.329c0-.359.032-.468.797-.468h.235v-.313c-.344.031-1.078.031-1.47.031-.374 0-1.124 0-1.468-.03v.312h.235c.765 0 .796.109.796.468V-.78c0 .36-.03.469-.796.469H.328V0c.344-.031 1.078-.031 1.469-.031.375 0 1.125 0 1.469.031v-.312H3.03c-.765 0-.797-.11-.797-.47V-3.39H5.22v2.61c0 .36-.016.469-.797.469h-.234V0C4.53-.031 5.28-.031 5.656-.031s1.125 0 1.469.031m0 0"/><path id="q" d="M3.984-1.86H3.75C3.656-.686 3.438-.25 2.297-.25H1.109l2.766-3.734c.094-.11.094-.141.094-.172 0-.14-.078-.14-.25-.14H.53l-.11 1.609h.25c.063-1.016.25-1.391 1.345-1.391H3.14L.375-.312c-.094.109-.094.125-.094.171C.281 0 .344 0 .531 0h3.297Zm0 0"/><path id="s" d="M2.922-1.64v.859c0 .36-.016.469-.75.469h-.219V0c.422-.031.938-.031 1.344-.031.422 0 .953 0 1.36.031v-.312h-.204c-.734 0-.766-.11-.766-.47v-.859h1v-.312h-1v-4.531c0-.188 0-.25-.156-.25-.094 0-.125 0-.203.109L.281-1.953v.312Zm.062-.313H.563l2.421-3.703Zm0 0"/><path id="t" d="M4.734-6.062c.094-.125.094-.141.094-.344H2.406c-1.219 0-1.234-.14-1.265-.328H.89L.563-4.672h.25c.03-.172.109-.797.25-.906.062-.063.843-.063.968-.063h2.063c-.11.157-.907 1.235-1.125 1.563-.89 1.344-1.219 2.734-1.219 3.75 0 .094 0 .547.453.547.469 0 .469-.453.469-.547v-.516c0-.547.031-1.094.11-1.625.03-.234.171-1.078.609-1.703Zm0 0"/><path id="u" d="M4.469-2c0-1.187-.813-2.187-1.89-2.187-.485 0-.907.171-1.267.515v-1.937c.204.062.532.125.844.125 1.235 0 1.922-.907 1.922-1.032 0-.062-.031-.109-.094-.109-.015 0-.03 0-.078.031-.203.078-.687.282-1.36.282-.39 0-.858-.063-1.327-.282-.078-.031-.094-.031-.11-.031-.109 0-.109.078-.109.25v2.938c0 .187 0 .265.14.265.079 0 .094-.031.141-.094.11-.156.469-.703 1.282-.703.515 0 .765.469.843.64.156.376.172.767.172 1.267 0 .343 0 .937-.234 1.359-.235.39-.61.64-1.063.64-.734 0-1.297-.53-1.469-1.109.032 0 .063.016.172.016.329 0 .5-.25.5-.485a.48.48 0 0 0-.5-.484c-.14 0-.484.063-.484.516C.5-.75 1.188.219 2.297.219 3.453.219 4.469-.734 4.469-2m0 0"/><path id="v" d="M4.578-3.187c0-.797-.047-1.594-.39-2.329-.47-.953-1.282-1.109-1.704-1.109-.593 0-1.312.25-1.734 1.188-.312.687-.36 1.453-.36 2.25 0 .75.032 1.64.454 2.406.422.797 1.14 1 1.64 1 .532 0 1.282-.203 1.72-1.156.327-.688.374-1.47.374-2.25M2.484 0c-.39 0-.984-.25-1.156-1.203-.11-.594-.11-1.516-.11-2.094 0-.64 0-1.297.079-1.844.187-1.171.937-1.265 1.187-1.265.329 0 .985.172 1.172 1.156.094.563.094 1.313.094 1.953 0 .735 0 1.422-.11 2.047C3.5-.297 2.923 0 2.485 0m0 0"/><clipPath id="a"><path d="M0 .047h227.46V130H0Zm0 0"/></clipPath><clipPath id="b"><path d="M111 239h2v11.55h-2Zm0 0"/></clipPath></defs><path fill="none" stroke="#000" stroke-miterlimit="10" stroke-width=".39852918000000004" d="M112.074 239.207v-6.133m0-54.625v-16.722m0-23.41v-18.391m0 0v-7.805"/><path fill="none" stroke="#000" stroke-miterlimit="10" stroke-width=".7960595400000001" d="M107.395 180.324V231.2c0 1.035 2.093 1.875 4.68 1.875 2.585 0 4.683-.84 4.683-1.875v-50.875c0-1.035-2.098-1.875-4.684-1.875-2.586 0-4.68.84-4.68 1.875"/><path fill="none" stroke="#000" stroke-miterlimit="10" stroke-width=".7960595400000001" d="M107.395 180.324c0 1.031 2.093 1.871 4.68 1.871 2.585 0 4.683-.84 4.683-1.87"/><path fill="none" stroke="#000" stroke-miterlimit="10" stroke-width=".39852918000000004" d="M112.074 180.324v-1.875"/><path fill="none" stroke="#000" stroke-miterlimit="10" stroke-width=".7960595400000001" d="M107.395 140.191v19.664c0 1.036 2.093 1.872 4.68 1.872 2.585 0 4.683-.836 4.683-1.872v-19.664c0-1.035-2.098-1.875-4.684-1.875-2.586 0-4.68.84-4.68 1.875"/><path fill="none" stroke="#000" stroke-miterlimit="10" stroke-width=".7960595400000001" d="M107.395 140.191c0 1.036 2.093 1.871 4.68 1.871 2.585 0 4.683-.835 4.683-1.87"/><path fill="none" stroke="#000" stroke-miterlimit="10" stroke-width=".39852918000000004" d="M112.074 140.191v-1.875"/><g clip-path="url(#a)"><path fill="none" stroke="#000" stroke-miterlimit="10" stroke-width="1.19458872" d="M112.074 112.121H56.336m0 0H.598l55.738-55.738m0 0L112.074.644l55.739 55.739m0 0 55.742 55.738h-53.399m0 0h-53.398"/></g><path fill="none" stroke="#000" stroke-miterlimit="10" stroke-width=".39852918000000004" d="M116.758 112.121v14.035m0 0v14.035"/><path stroke="#000" stroke-miterlimit="10" stroke-width=".39852918000000004" d="M118.344 140.191a1.587 1.587 0 0 0-3.172 0 1.587 1.587 0 0 0 3.172 0Zm0 0"/><g clip-path="url(#b)"><path fill="none" stroke="#000" stroke-dasharray="2.9853031806000003 2.9853031806000003" stroke-miterlimit="10" stroke-width=".39852918000000004" d="M112.074 239.207v5.57m0 0v5.575"/></g><path fill="none" stroke="#000" stroke-miterlimit="10" stroke-width=".39852918000000004" d="M116.758 180.324V170.09m0 0v-10.235"/><path stroke="#000" stroke-miterlimit="10" stroke-width=".39852918000000004" d="M118.344 180.324c0-.879-.711-1.586-1.586-1.586a1.585 1.585 0 1 0 0 3.168c.875 0 1.586-.707 1.586-1.582ZM118.344 159.855a1.587 1.587 0 0 0-3.172 0 1.587 1.587 0 0 0 3.172 0Zm0 0"/><use xlink:href="#c" x="58.1" y="92.374"/><use xlink:href="#d" x="64.578" y="92.374"/><use xlink:href="#e" x="75.634" y="92.374"/><use xlink:href="#f" x="80.609" y="92.374"/><use xlink:href="#g" x="85.585" y="92.374"/><use xlink:href="#h" x="88.351" y="92.374"/><use xlink:href="#i" x="93.326" y="92.374"/><use xlink:href="#j" x="101.615" y="92.374"/><use xlink:href="#k" x="113.218" y="92.374"/><use xlink:href="#l" x="116.263" y="92.374"/><use xlink:href="#m" x="121.796" y="92.374"/><use xlink:href="#n" x="129.01" y="92.374"/><use xlink:href="#g" x="133.986" y="92.374"/><use xlink:href="#h" x="136.752" y="92.374"/><use xlink:href="#o" x="145.041" y="92.374"/><use xlink:href="#p" x="154.166" y="92.374"/><use xlink:href="#q" x="161.629" y="92.374"/><use xlink:href="#r" x="96.877" y="146.589"/><path fill="none" stroke="#000" stroke-miterlimit="10" stroke-width=".44747136000000004" d="M96.879 150.73h5.805"/><use xlink:href="#s" x="97.292" y="160.37"/><use xlink:href="#t" x="120.271" y="153.23"/><use xlink:href="#u" x="125.247" y="153.23"/><use xlink:href="#u" x="120.271" y="208.969"/><use xlink:href="#v" x="125.247" y="208.969"/></svg>