<svg xmlns="http://www.w3.org/2000/svg" xmlns:xlink="http://www.w3.org/1999/xlink" width="227.434" height="51.815"><defs><path id="b" d="M3.64-3.969h.86c.188 0 .297 0 .297-.203 0-.11-.11-.11-.266-.11h-.828l.203-1.124c.047-.203.188-.907.235-1.032.093-.187.265-.343.468-.343.047 0 .297 0 .485.187a.531.531 0 0 0-.532.532c0 .234.188.343.375.343.25 0 .547-.218.547-.593 0-.454-.468-.688-.875-.688-.328 0-.953.188-1.25 1.172-.062.203-.093.297-.328 1.547h-.687c-.188 0-.297 0-.297.187 0 .125.094.125.281.125h.64L2.235-.047c-.187.953-.343 1.86-.859 1.86-.047 0-.297 0-.484-.172a.547.547 0 0 0 .547-.547c0-.219-.172-.344-.36-.344-.266 0-.547.219-.547.594 0 .453.438.687.844.687.547 0 .938-.578 1.11-.953.328-.625.546-1.828.562-1.906Zm0 0"/><path id="f" d="M2.563-6.781s0-.11-.126-.11c-.234 0-.953.079-1.218.11-.078 0-.188.015-.188.203 0 .11.094.11.25.11.469 0 .485.093.485.171l-.032.188-1.25 4.968a1.01 1.01 0 0 0-.046.344c0 .563.437.906.906.906.328 0 .578-.203.734-.562.188-.375.297-.953.297-.969 0-.094-.078-.094-.11-.094-.109 0-.109.032-.14.172-.172.657-.36 1.235-.75 1.235-.297 0-.297-.313-.297-.453 0-.235 0-.297.047-.485Zm0 0"/><path id="c" d="M1.39-1.578c0-.594.266-1.297.923-1.297a.315.315 0 0 0-.11.25c0 .234.172.328.313.328.156 0 .312-.11.312-.328 0-.234-.219-.437-.547-.437-.344 0-.734.218-.937.734h-.016v-.735l-.984.079v.25c.469 0 .515.046.515.39v1.797C.86-.25.797-.25.344-.25V0c.031 0 .5-.031.797-.031.297 0 .593.015.89.031v-.25h-.14c-.5 0-.5-.078-.5-.312Zm0 0"/><path id="d" d="M3.063-1.578c.14 0 .187 0 .187-.156 0-.61-.344-1.36-1.375-1.36a1.59 1.59 0 0 0-1.61 1.578C.266-.64 1.048.063 1.97.063c.937 0 1.281-.75 1.281-.891 0-.031-.016-.11-.11-.11-.093 0-.109.047-.124.11-.22.578-.75.672-1 .672-.328 0-.641-.14-.844-.406-.266-.329-.266-.75-.266-1.016ZM.906-1.766c.078-.984.703-1.14.969-1.14.86 0 .89.969.89 1.14Zm0 0"/><path id="e" d="M2.64-2.922c0-.11 0-.172-.109-.172-.031 0-.047 0-.125.078a.36.36 0 0 0-.125.11c-.219-.156-.484-.188-.734-.188-1 0-1.234.516-1.234.86 0 .218.093.406.265.547.266.234.531.28.953.343.36.063.922.157.922.625 0 .282-.187.594-.86.594-.671 0-.905-.437-1.03-.906C.53-1.125.53-1.156.438-1.156c-.125 0-.125.047-.125.187v.86c0 .109 0 .172.093.172C.47.063.61-.078.75-.234c.297.297.672.297.844.297.906 0 1.234-.485 1.234-.97a.81.81 0 0 0-.297-.64c-.265-.25-.578-.297-.828-.344-.562-.093-1-.187-1-.546 0-.22.188-.5.844-.5.797 0 .844.562.86.765 0 .078.077.078.109.078.125 0 .125-.047.125-.187Zm0 0"/><clipPath id="a"><path d="M.121 26H14v1H.121Zm0 0"/></clipPath></defs><path fill="none" stroke="#000" stroke-miterlimit="10" stroke-width="1.19174224" d="M24.703 26.496h11.61m0 0h11.613"/><g clip-path="url(#a)"><path fill="none" stroke="#000" stroke-dasharray="2.9781897652000002 2.9781897652000002" stroke-miterlimit="10" stroke-width=".39757956" d="M.32 26.496h12.774"/></g><path fill="none" stroke="#000" stroke-miterlimit="10" stroke-width=".39757956" d="M13.094 26.496h5.804m0 0h5.805"/><path fill="#FFF" stroke="#000" stroke-miterlimit="10" stroke-width=".39757956" d="M14.676 26.496a1.583 1.583 0 0 0-3.164 0 1.582 1.582 0 0 0 3.164 0ZM26.285 26.496a1.58 1.58 0 0 0-1.582-1.582 1.58 1.58 0 1 0 0 3.16 1.58 1.58 0 0 0 1.582-1.578Zm0 0"/><path fill="none" stroke="#000" stroke-miterlimit="10" stroke-width=".39757956" d="M47.926 26.496V22.43m0 0v-4.063"/><path stroke="#000" stroke-miterlimit="10" stroke-width=".39757956" d="M49.508 26.496a1.583 1.583 0 0 0-3.164 0 1.582 1.582 0 0 0 3.164 0Zm0 0"/><path fill="none" stroke="#000" stroke-miterlimit="10" stroke-width=".39757956" d="M59.535 18.367c0-1.601-1.3-2.902-2.902-2.902a2.904 2.904 0 0 0-2.903 2.902 2.902 2.902 0 1 0-5.805 0M59.535 18.367v4.063m0 0v4.066M47.926 26.496v4.063m0 0v4.062h3.828m3.953 0h3.828V30.56m0 0v-4.063"/><path fill="none" stroke="#000" stroke-miterlimit="10" stroke-width=".79416268" d="M51.754 28.691v11.864m3.953-11.864v11.864"/><path stroke="#000" stroke-miterlimit="10" stroke-width=".39757956" d="M61.117 26.496a1.58 1.58 0 0 0-1.582-1.582 1.58 1.58 0 1 0 0 3.16 1.58 1.58 0 0 0 1.582-1.578Zm0 0"/><path fill="none" stroke="#000" stroke-miterlimit="10" stroke-width="1.19174224" d="M59.535 26.496h23.223m0 0h23.219M117.59 26.496h23.219m0 0h23.222"/><path fill="none" stroke="#000" stroke-miterlimit="10" stroke-width=".39757956" d="M164.031 26.496V22.43m0 0v-4.063"/><path stroke="#000" stroke-miterlimit="10" stroke-width=".39757956" d="M165.613 26.496a1.58 1.58 0 0 0-1.582-1.582 1.58 1.58 0 1 0 0 3.16 1.58 1.58 0 0 0 1.582-1.578Zm0 0"/><path fill="none" stroke="#000" stroke-miterlimit="10" stroke-width=".39757956" d="M175.64 18.367a2.902 2.902 0 1 0-5.804 0 2.902 2.902 0 1 0-5.805 0M175.64 18.367v4.063m0 0v4.066M164.031 26.496v4.063m0 0v4.062h3.828m3.953 0h3.829V30.56m0 0v-4.063"/><path fill="none" stroke="#000" stroke-miterlimit="10" stroke-width=".79416268" d="M167.86 28.691v11.864m3.952-11.864v11.864"/><path stroke="#000" stroke-miterlimit="10" stroke-width=".39757956" d="M177.223 26.496a1.58 1.58 0 1 0-3.161-.003 1.58 1.58 0 0 0 3.16.003Zm0 0"/><path fill="none" stroke="#000" stroke-miterlimit="10" stroke-width="1.19174224" d="M175.64 26.496h11.614m0 0h11.61"/><path fill="none" stroke="#000" stroke-miterlimit="10" stroke-width=".39757956" d="M198.863 26.496h5.805m0 0h5.805"/><path fill="#FFF" stroke="#000" stroke-miterlimit="10" stroke-width=".39757956" d="M200.445 26.496a1.58 1.58 0 0 0-1.582-1.582 1.58 1.58 0 1 0 0 3.16 1.58 1.58 0 0 0 1.582-1.578Zm0 0"/><path fill="none" stroke="#000" stroke-dasharray="2.9781897652000002 2.9781897652000002" stroke-miterlimit="10" stroke-width=".39757956" d="M210.473 26.496h12.773"/><path fill="none" stroke="#000" stroke-miterlimit="10" stroke-width=".39757956" d="M210.473 26.496"/><path fill="#FFF" stroke="#000" stroke-miterlimit="10" stroke-width=".39757956" d="M212.055 26.496a1.58 1.58 0 1 0-3.161-.003 1.58 1.58 0 0 0 3.16.003Zm0 0"/><path fill="none" stroke="#000" stroke-miterlimit="10" stroke-width=".39757956" d="M105.977 26.496"/><path stroke="#000" stroke-miterlimit="10" stroke-width=".39757956" d="M107.559 26.496a1.58 1.58 0 1 0-3.161-.003 1.58 1.58 0 0 0 3.16.003Zm0 0"/><path fill="none" stroke="#000" stroke-miterlimit="10" stroke-width=".39757956" d="M117.59 26.496"/><path stroke="#000" stroke-miterlimit="10" stroke-width=".39757956" d="M119.172 26.496a1.583 1.583 0 0 0-3.164 0 1.582 1.582 0 0 0 3.164 0Zm0 0"/><use xlink:href="#b" x="63.579" y="46.391"/><use xlink:href="#c" x="68.439" y="47.88"/><use xlink:href="#d" x="71.541" y="47.88"/><use xlink:href="#e" x="75.07" y="47.88"/><path fill="none" stroke="#000" stroke-miterlimit="10" stroke-width=".39757956" d="m64.18 39.266-10.45-12.77"/><path fill="none" stroke="#999" stroke-miterlimit="10" stroke-width=".0099644" d="M164.031 6.758"/><path fill="none" stroke="#000" stroke-miterlimit="10" stroke-width=".39757956" d="M59.832 6.758h103.902"/><path stroke="#000" stroke-miterlimit="10" stroke-width=".39757956" d="m60.328 6.758 2.965 1.754V5Zm0 0"/><path fill="none" stroke="#000" stroke-miterlimit="10" stroke-width=".39757956" d="M59.734 9.04V4.472"/><path stroke="#000" stroke-miterlimit="10" stroke-width=".39757956" d="M163.238 6.758 160.273 5v3.512Zm0 0"/><path fill="none" stroke="#000" stroke-miterlimit="10" stroke-width=".39757956" d="M163.832 4.473v4.566"/><path fill="#FFF" d="M106.895 13.512h9.777V0h-9.777Zm0 0"/><use xlink:href="#f" x="110.204" y="10.203"/></svg>