<svg xmlns="http://www.w3.org/2000/svg" xmlns:xlink="http://www.w3.org/1999/xlink" width="228.304" height="162.526"><defs><path id="d" d="M4.86-2.203c0-.156-.063-.266-.235-.266-.11 0-.219.078-.219.203-.031.375-.25 1-.703 1-.656 0-1.094-1.234-2-1.234-.922 0-1.14 1.156-1.14 1.39 0 .126.046.282.218.282a.25.25 0 0 0 .235-.219c.03-.375.234-.984.687-.984.656 0 1.094 1.219 2 1.219.922 0 1.156-1.157 1.156-1.391m0-1.766c0-.156-.063-.281-.235-.281a.223.223 0 0 0-.219.219c-.031.375-.25.984-.703.984-.656 0-1.094-1.219-2-1.219-.922 0-1.14 1.141-1.14 1.391 0 .125.046.266.218.266.11 0 .219-.079.235-.203.03-.376.234-1 .687-1 .656 0 1.094 1.234 2 1.234.922 0 1.156-1.156 1.156-1.39m0 0"/><path id="e" d="M2.813-1.984c.343.78.734 1.797.812 1.89.14.157.266.157.375.157h.14c.126 0 .204 0 .204-.079 0-.03-.032-.046-.047-.062-.078-.078-.14-.234-.172-.297L2.422-4.391c-.047-.125-.188-.437-.922-.437-.078 0-.172 0-.172.094 0 .093.063.093.094.109.156.016.281.031.453.438l.828 1.937L.656-.39c-.094.062-.14.124-.14.234 0 .172.14.234.234.234.14 0 .219-.078.234-.11Zm0 0"/><path id="f" d="M3.516-1.266H3.28c-.031.157-.094.563-.187.641-.063.031-.594.031-.688.031H1.125c.734-.64.969-.843 1.39-1.172.516-.406 1-.828 1-1.5 0-.843-.734-1.343-1.624-1.343-.875 0-1.453.593-1.453 1.234 0 .36.296.39.375.39.156 0 .359-.109.359-.359 0-.14-.047-.375-.406-.375.218-.5.687-.64 1.015-.64.688 0 1.063.53 1.063 1.093 0 .61-.438 1.094-.656 1.344L.5-.266C.438-.203.438-.187.438 0h2.859Zm0 0"/><path id="h" d="M.047-4.625v3.844c0 .125.11.219.234.219A.214.214 0 0 0 .5-.782v-3.843c0-.14-.094-.234-.219-.234a.23.23 0 0 0-.234.234M-.687-.781c0-.047-.016-.078-.032-.11L-2.937-4.75c-.047-.062-.11-.11-.188-.11-.094 0-.172.048-.203.11L-5.562-.89c-.016.03-.016.062-.016.109 0 .11.094.219.219.219a.228.228 0 0 0 .203-.11l2.031-3.5 2.016 3.5c.03.078.109.11.187.11.14 0 .235-.11.235-.22m0 0"/><path id="i" d="M-3.187-4.578c-.782 0-1.579.062-2.313.406-.953.453-1.125 1.266-1.125 1.688 0 .593.266 1.328 1.188 1.734.687.313 1.468.36 2.25.36.75 0 1.64-.032 2.406-.438.797-.438 1-1.156 1-1.64 0-.548-.203-1.298-1.156-1.735-.688-.313-1.454-.375-2.25-.375M0-2.468c0 .374-.25.968-1.203 1.14-.594.11-1.516.11-2.094.11-.64 0-1.297 0-1.828-.079-1.187-.187-1.281-.922-1.281-1.172 0-.328.187-.984 1.172-1.172.547-.109 1.312-.109 1.937-.109.75 0 1.422 0 2.047.11C-.297-3.485 0-2.923 0-2.47m0 0"/><path id="k" d="M-2-4.469c-1.187 0-2.172.828-2.172 1.89 0 .485.156.907.5 1.267h-1.937c.062-.204.14-.532.14-.844 0-1.219-.906-1.922-1.047-1.922-.046 0-.109.031-.109.11 0 0 0 .03.031.077.094.188.297.688.297 1.344 0 .406-.078.86-.281 1.328-.031.078-.031.094-.031.11 0 .109.078.109.234.109h2.953c.172 0 .25 0 .25-.14 0-.079-.031-.094-.094-.126a1.508 1.508 0 0 1-.687-1.28c0-.532.453-.767.64-.86.36-.156.75-.172 1.25-.172.344 0 .938 0 1.36.234.39.25.64.61.64 1.063 0 .734-.53 1.297-1.109 1.469.016-.032.016-.063.016-.172a.48.48 0 0 0-.485-.5.48.48 0 0 0-.484.5c0 .14.063.484.531.484C-.75-.5.22-1.187.22-2.297.219-3.453-.734-4.469-2-4.469m0 0"/><path id="j" d="M-.016-2.016c-.656 0-1.03.25-1.03.641 0 .328.234.516.515.516.265 0 .531-.188.531-.516a.626.626 0 0 0-.125-.36c-.031-.03-.031-.03-.031-.046 0 0 0-.016.14-.016.735 0 1.344.344 1.672.672.11.11.125.11.157.11.062 0 .109-.048.109-.094 0-.11-.766-.907-1.938-.907m0 0"/><path id="m" d="M-2.906-3.547c1.047-.406 2.562-.89 2.797-1.047.218-.156.218-.25.218-.531v-.219c-.015-.093-.062-.11-.093-.11-.032 0-.063.032-.094.063-.11.094-.266.157-.453.22l-5.656 2.03c-.579.204-.704.75-.704 1.22 0 .046 0 .171.11.171.078 0 .093-.078.093-.094.063-.328.125-.39.797-.64l2.704-.97L-.47-.703c.125.11.188.173.313.173.172 0 .281-.14.281-.297 0-.156-.11-.25-.203-.328Zm0 0"/><path id="l" d="M-3.078-1.094c0 .313.25.532.547.532.312 0 .531-.25.531-.532a.527.527 0 0 0-.531-.531.53.53 0 0 0-.547.531m0 0"/><path id="n" d="M8.734 0v-.312H8.5c-.766 0-.781-.11-.781-.47v-5.234c0-.359.015-.468.781-.468h.234v-.297H7.063c-.266 0-.266 0-.329.187L4.547-1 2.39-6.562c-.079-.22-.11-.22-.344-.22H.375v.298h.234c.766 0 .782.109.782.468v4.97c0 .265 0 .734-1.016.734V0l1.156-.031L2.688 0v-.312c-1.016 0-1.016-.47-1.016-.735v-5.36L4.078-.218c.047.125.094.219.188.219.109 0 .14-.078.187-.187l2.438-6.297h.015v5.703c0 .36-.015.469-.781.469h-.234V0c.359-.031 1.03-.031 1.422-.031.39 0 1.062 0 1.421.031m0 0"/><path id="o" d="M10.031-6.484v-.297c-.297.015-.61.031-.906.031l-1.187-.031v.297c.671.015.859.343.859.53 0 .063-.016.141-.047.204L7.266-1.156 5.672-6.031c0-.047-.031-.094-.031-.157 0-.296.578-.296.843-.296v-.297c-.359.031-1.03.031-1.421.031l-1.204-.031v.297c.563 0 .766 0 .891.359l.219.703-1.375 4.266-1.61-4.89c0-.032-.015-.11-.015-.141 0-.297.578-.297.828-.297v-.297c-.36.031-1.031.031-1.406.031L.17-6.781v.297c.75 0 .798.062.907.422l2 6.093c.016.094.047.188.188.188.14 0 .156-.063.187-.203l1.64-5.047L6.75.03c.031.094.063.188.188.188.14 0 .156-.063.203-.203l1.89-5.828c.188-.563.61-.672 1-.672m0 0"/><path id="p" d="M4.953-1.844c0-1-.656-1.812-1.484-2.015l-1.266-.297a1.308 1.308 0 0 1-1.015-1.266A1.3 1.3 0 0 1 2.5-6.734c1.656 0 1.875 1.64 1.938 2.078.015.062.015.125.125.125.125 0 .125-.047.125-.235v-2c0-.171 0-.234-.11-.234-.062 0-.078 0-.14.125l-.36.563C3.781-6.594 3.375-7 2.5-7 1.39-7 .563-6.125.563-5.078a1.9 1.9 0 0 0 1.296 1.812c.11.047.61.172 1.313.329.265.078.562.14.844.515.203.25.312.578.312.906 0 .704-.5 1.422-1.344 1.422-.28 0-1.03-.047-1.562-.531-.578-.531-.61-1.172-.61-1.531C.798-2.25.72-2.25.688-2.25c-.125 0-.125.063-.125.25v1.984c0 .172 0 .235.11.235.062 0 .078-.016.14-.125 0 0 .032-.047.36-.578.312.343.937.703 1.828.703 1.156 0 1.953-.969 1.953-2.063m0 0"/><path id="s" d="M5.313 0v-.312c-.688 0-.766-.063-.766-.547v-3.532l-1.469.11v.312c.703 0 .781.063.781.547v1.766c0 .875-.484 1.547-1.203 1.547-.844 0-.875-.47-.875-.985V-4.39l-1.468.11v.312c.78 0 .78.031.78.906v1.5c0 .766 0 1.672 1.516 1.672.547 0 .985-.28 1.282-.89v.89ZM2.359-6.016a.48.48 0 0 0-.468-.468.473.473 0 0 0-.485.468.476.476 0 1 0 .953 0m1.782 0a.495.495 0 0 0-.485-.468.473.473 0 0 0-.484.468.484.484 0 1 0 .969 0m0 0"/><path id="t" d="M7.172-3.453c0-.188-.203-.188-.328-.188H.89c-.141 0-.328 0-.328.188 0 .203.187.203.328.203h5.937c.14 0 .344 0 .344-.203m0 1.937c0-.203-.203-.203-.344-.203H.891c-.141 0-.328 0-.328.203 0 .188.187.188.328.188h5.953c.125 0 .328 0 .328-.188m0 0"/><path id="q" d="M4.469-2c0-1.187-.828-2.172-1.89-2.172-.485 0-.907.156-1.267.5v-1.937c.204.062.532.14.844.14 1.219 0 1.922-.906 1.922-1.047 0-.046-.031-.109-.11-.109 0 0-.03 0-.077.031a3.13 3.13 0 0 1-1.344.297c-.406 0-.86-.078-1.328-.281-.078-.031-.094-.031-.11-.031C1-6.61 1-6.531 1-6.375v2.953c0 .172 0 .25.14.25.079 0 .094-.031.126-.094.109-.156.484-.687 1.28-.687.532 0 .767.453.86.64.156.36.172.75.172 1.25 0 .344 0 .938-.234 1.36-.25.39-.61.64-1.063.64-.734 0-1.297-.53-1.469-1.109.032.016.063.016.172.016.329 0 .5-.25.5-.485a.48.48 0 0 0-.5-.484c-.14 0-.484.063-.484.531C.5-.75 1.188.22 2.297.22 3.453.219 4.469-.734 4.469-2m0 0"/><path id="r" d="M4.578-3.187c0-.782-.062-1.579-.406-2.313-.453-.953-1.266-1.125-1.688-1.125-.593 0-1.328.266-1.734 1.188C.438-4.75.39-3.97.39-3.187c0 .75.032 1.64.438 2.406.438.797 1.156 1 1.64 1 .548 0 1.298-.203 1.735-1.156.313-.688.375-1.454.375-2.25M2.468 0c-.374 0-.968-.25-1.14-1.203-.11-.594-.11-1.516-.11-2.094 0-.64 0-1.297.079-1.828.187-1.187.922-1.281 1.172-1.281.328 0 .984.187 1.172 1.172.109.547.109 1.312.109 1.937 0 .75 0 1.422-.11 2.047C3.485-.297 2.923 0 2.47 0m0 0"/><path id="u" d="M2.922-6.36c0-.234 0-.265-.235-.265-.609.64-1.484.64-1.796.64v.313c.187 0 .78 0 1.297-.266V-.78c0 .36-.032.469-.922.469H.938V0c.359-.031 1.218-.031 1.609-.031.406 0 1.265 0 1.61.031v-.312h-.313c-.89 0-.922-.11-.922-.47Zm0 0"/><path id="w" d="M4.734-6.047c.079-.125.079-.14.079-.36H2.406c-1.219 0-1.234-.124-1.265-.312H.89L.563-4.672h.25c.015-.156.109-.781.234-.906.078-.063.844-.063.984-.063h2.047c-.11.172-.89 1.25-1.11 1.579C2.079-2.72 1.75-1.344 1.75-.328c0 .094 0 .547.453.547s.453-.453.453-.547v-.5c0-.547.031-1.094.11-1.64.046-.22.187-1.079.625-1.688Zm0 0"/><path id="v" d="M1.094-1.656a.53.53 0 0 0-.532.547c0 .297.25.53.532.53.312 0 .531-.25.531-.53a.53.53 0 0 0-.531-.547m0-2.828a.517.517 0 0 0-.532.53c0 .313.25.532.532.532.312 0 .531-.25.531-.531a.527.527 0 0 0-.531-.531m0 0"/><clipPath id="a"><path d="M64 99h36v63.043H64Zm0 0"/></clipPath><clipPath id="b"><path d="M214 2h13.61v15H214Zm0 0"/></clipPath><clipPath id="c"><path d="M141 .012h23V20h-23Zm0 0"/></clipPath><clipPath id="g"><path d="M92 151h15v11.043H92Zm0 0"/></clipPath></defs><path fill="none" stroke="#000" stroke-miterlimit="10" stroke-width=".39778704" d="M23.988 98.32h10.297m14.91 0h14.739m0 0h4.437v3.282m0 11.187v3.281"/><path fill="none" stroke="#000" stroke-miterlimit="10" stroke-width=".79457712" d="M22.496 94.59h-11.93c-.824 0-1.492 1.668-1.492 3.73 0 2.059.668 3.727 1.492 3.727h11.93c.824 0 1.492-1.668 1.492-3.727 0-2.062-.668-3.73-1.492-3.73"/><path fill="none" stroke="#000" stroke-miterlimit="10" stroke-width=".79457712" d="M22.496 94.59c-.824 0-1.492 1.668-1.492 3.73 0 2.059.668 3.727 1.492 3.727"/><path fill="none" stroke="#000" stroke-miterlimit="10" stroke-width=".39778704" d="M22.496 98.32h1.492"/><path fill="none" stroke="#000" stroke-linejoin="bevel" stroke-miterlimit="10" stroke-width=".79457712" d="M33.887 98.16c0 2.059 1.172 3.727 2.617 3.727s2.617-1.668 2.617-3.727c0 2.059 1.172 3.727 2.621 3.727 1.446 0 2.617-1.668 2.617-3.727 0 2.059 1.172 3.727 2.618 3.727 1.445 0 2.617-1.668 2.617-3.727"/><path stroke="#000" stroke-miterlimit="10" stroke-width=".39778704" d="M61.074 98.32a1.583 1.583 0 1 0-3.162.002 1.583 1.583 0 0 0 3.162-.002Zm0 0"/><path fill="none" stroke="#000" stroke-linejoin="bevel" stroke-miterlimit="10" stroke-width=".79457712" d="M68.211 101.207c2.059 0 3.727 1.34 3.727 2.992 0 1.656-1.668 2.996-3.727 2.996 2.059 0 3.727 1.34 3.727 2.996 0 1.653-1.668 2.993-3.727 2.993"/><path fill="none" stroke="#000" stroke-dasharray="2.9797439568 2.9797439568" stroke-miterlimit="10" stroke-width=".39778704" d="M9.074 98.32H.2"/><path fill="none" stroke="#000" stroke-miterlimit="10" stroke-width=".39778704" d="M59.492 98.32v6.899m0 3.953v6.898"/><path fill="none" stroke="#000" stroke-miterlimit="10" stroke-width=".79457712" d="M65.43 105.219H53.559m11.87 3.953H53.56"/><path stroke="#000" stroke-miterlimit="10" stroke-width=".39778704" d="M61.074 116.07a1.583 1.583 0 1 0-3.166.002 1.583 1.583 0 0 0 3.166-.002Zm0 0"/><path fill="none" stroke="#000" stroke-miterlimit="10" stroke-width=".39778704" d="M22.496 102.047v7.012m0 0v7.011h.746m0 0h11.043m14.91 0h14.739m0 0h11.093m0 0h6.657v-3.992m0-80.777v-3.996"/><path stroke="#000" stroke-miterlimit="10" stroke-width=".39778704" d="M24.078 102.047a1.58 1.58 0 0 0-1.582-1.582 1.58 1.58 0 0 0-1.582 1.582 1.58 1.58 0 0 0 1.582 1.582 1.58 1.58 0 0 0 1.582-1.582Zm0 0"/><path fill="none" stroke="#000" stroke-linejoin="bevel" stroke-miterlimit="10" stroke-width=".79457712" d="M33.887 116.23c0-2.058 1.172-3.726 2.617-3.726s2.617 1.668 2.617 3.726c0-2.058 1.172-3.726 2.621-3.726 1.446 0 2.617 1.668 2.617 3.726 0-2.058 1.172-3.726 2.618-3.726 1.445 0 2.617 1.668 2.617 3.726M81.844 112.473c-2.059 0-3.727-1.301-3.727-2.91 0-1.61 1.668-2.915 3.727-2.915-2.059 0-3.727-1.304-3.727-2.914 0-1.609 1.668-2.914 3.727-2.914-2.059 0-3.727-1.304-3.727-2.91 0-1.61 1.668-2.914 3.727-2.914-2.059 0-3.727-1.305-3.727-2.914 0-1.61 1.668-2.914 3.727-2.914-2.059 0-3.727-1.305-3.727-2.914 0-1.61 1.668-2.91 3.727-2.91-2.059 0-3.727-1.305-3.727-2.914 0-1.61 1.668-2.914 3.727-2.914-2.059 0-3.727-1.305-3.727-2.914 0-1.61 1.668-2.915 3.727-2.915-2.059 0-3.727-1.3-3.727-2.91s1.668-2.914 3.727-2.914c-2.059 0-3.727-1.304-3.727-2.914s1.668-2.914 3.727-2.914c-2.059 0-3.727-1.305-3.727-2.91 0-1.61 1.668-2.914 3.727-2.914-2.059 0-3.727-1.305-3.727-2.914 0-1.61 1.668-2.914 3.727-2.914-2.059 0-3.727-1.305-3.727-2.914 0-1.61 1.668-2.91 3.727-2.91-2.059 0-3.727-1.305-3.727-2.914 0-1.61 1.668-2.915 3.727-2.915-2.059 0-3.727-1.304-3.727-2.914 0-1.609 1.668-2.914 3.727-2.914"/><path stroke="#000" stroke-miterlimit="10" stroke-width=".39778704" d="M83.266 116.07a1.583 1.583 0 1 0-3.166.002 1.583 1.583 0 0 0 3.166-.002Zm0 0"/><path fill="none" stroke="#000" stroke-miterlimit="10" stroke-width="1.19236416" d="M81.684 27.305H223.71"/><path fill="none" stroke="#000" stroke-dasharray="2.9797439568 2.9797439568" stroke-miterlimit="10" stroke-width=".39778704" d="M75.027 112.078v-40.39m0 0V31.3M34.285 107.195h7.457m0 0h7.453"/><g clip-path="url(#a)"><path fill="none" stroke="#000" stroke-miterlimit="10" stroke-width="1.19236416" d="M81.684 116.07c2.484 44.383-1.125 22.192.996 45.38"/></g><path fill="none" stroke="#999" stroke-miterlimit="10" stroke-width=".0099696" d="M223.711 9.555"/><path fill="none" stroke="#000" stroke-miterlimit="10" stroke-width=".39778704" d="M81.984 9.555H223.41"/><path stroke="#000" stroke-miterlimit="10" stroke-width=".39778704" d="m82.48 9.555 2.965 1.758V7.797Zm0 0"/><path fill="none" stroke="#000" stroke-miterlimit="10" stroke-width=".39778704" d="M81.883 11.84V7.27"/><path d="m222.914 9.555-2.965-1.758v3.516Zm0 0"/><g clip-path="url(#b)"><path fill="none" stroke="#000" stroke-miterlimit="10" stroke-width=".39778704" d="m222.914 9.555-2.965-1.758v3.516Zm0 0"/></g><path fill="none" stroke="#000" stroke-miterlimit="10" stroke-width=".39778704" d="M223.512 7.27v4.57"/><g clip-path="url(#c)"><path fill="#FFF" d="M141.906 19.098h21.582V.012h-21.582Zm0 0"/></g><use xlink:href="#d" x="145.216" y="12.19"/><use xlink:href="#e" x="154.272" y="8.15"/><path fill="none" stroke="#000" stroke-miterlimit="10" stroke-width=".44663808" d="M154.273 9.652h4.707"/><use xlink:href="#f" x="154.648" y="15.788"/><path fill="none" stroke="#999" stroke-miterlimit="10" stroke-width=".0099696" d="M99.438 160.453"/><path fill="none" stroke="#000" stroke-miterlimit="10" stroke-width=".39778704" d="M99.438 116.371v43.785"/><path stroke="#000" stroke-miterlimit="10" stroke-width=".39778704" d="m99.438 116.867-1.758 2.965h3.515Zm0 0"/><path fill="none" stroke="#000" stroke-miterlimit="10" stroke-width=".39778704" d="M97.152 116.27h4.57"/><path d="m99.438 159.66 1.757-2.965H97.68Zm0 0"/><g clip-path="url(#g)"><path fill="none" stroke="#000" stroke-miterlimit="10" stroke-width=".39778704" d="m99.438 159.66 1.757-2.965H97.68Zm0 0"/></g><path fill="none" stroke="#000" stroke-miterlimit="10" stroke-width=".39778704" d="M101.723 160.254h-4.57"/><path fill="#FFF" d="M105.844 117.465v41.598h15.449v-41.598Zm0 0"/><use xlink:href="#h" x="116.05" y="155.751"/><use xlink:href="#i" x="116.05" y="147.888"/><use xlink:href="#j" x="116.05" y="142.921"/><use xlink:href="#i" x="116.05" y="140.162"/><use xlink:href="#k" x="116.05" y="135.196"/><use xlink:href="#l" x="116.05" y="128.759"/><use xlink:href="#m" x="116.05" y="126.568"/><use xlink:href="#n" x="29.32" y="127.826"/><use xlink:href="#o" x="38.428" y="127.826"/><use xlink:href="#p" x="48.638" y="127.826"/><use xlink:href="#q" x="10.83" y="91.082"/><use xlink:href="#r" x="15.796" y="91.082"/><use xlink:href="#s" x="86.435" y="74.872"/><use xlink:href="#t" x="95.265" y="74.872"/><use xlink:href="#u" x="106.301" y="74.872"/><use xlink:href="#v" x="113.718" y="74.872"/><use xlink:href="#w" x="118.362" y="74.872"/></svg>