<svg xmlns="http://www.w3.org/2000/svg" xmlns:xlink="http://www.w3.org/1999/xlink" width="228.037" height="119.86"><defs><path id="a" d="M4.156 0v-.312h-.312c-.89 0-.922-.11-.922-.47v-5.562c0-.25 0-.265-.235-.265-.609.64-1.484.64-1.796.64v.297c.187 0 .78 0 1.297-.25v5.14c0 .36-.032.47-.922.47H.938V0c.359-.031 1.218-.031 1.609-.031.406 0 1.265 0 1.61.031m0 0"/><path id="b" d="M1.906-3.75a.537.537 0 0 0-.531-.531.534.534 0 0 0-.516.531c0 .281.235.531.516.531.297 0 .531-.25.531-.531m0 3.219A.524.524 0 1 0 .86-.515a.524.524 0 0 0 1.047-.016m0 0"/><path id="c" d="M4.531-2.031c0-1.25-.875-2.203-1.984-2.203-.672 0-1.031.5-1.235.984v-.25c0-2.5 1.235-2.86 1.735-2.86.234 0 .656.063.875.391-.156 0-.547 0-.547.453 0 .313.234.454.453.454.156 0 .453-.094.453-.47 0-.593-.437-1.077-1.25-1.077-1.281 0-2.61 1.28-2.61 3.468C.422-.484 1.564.22 2.485.22c1.11 0 2.047-.938 2.047-2.25m-.89 0c0 .469 0 .969-.172 1.328-.297.594-.75.64-.985.64-.625 0-.921-.593-.968-.734-.188-.469-.188-1.265-.188-1.453 0-.766.313-1.766 1.219-1.766.156 0 .61 0 .922.625.172.36.172.875.172 1.36m0 0"/><path id="e" d="M2.922-6.344c0-.25 0-.265-.235-.265-.609.64-1.484.64-1.796.64v.297c.187 0 .78 0 1.297-.25v5.14c0 .36-.032.47-.922.47H.938V0c.359-.031 1.218-.031 1.609-.031.406 0 1.265 0 1.61.031v-.312h-.313c-.89 0-.922-.11-.922-.47Zm0 0"/><path id="f" d="M2.875-3.5c.813-.266 1.39-.953 1.39-1.734 0-.813-.874-1.375-1.827-1.375-1 0-1.75.593-1.75 1.343 0 .329.218.516.5.516.312 0 .515-.203.515-.5 0-.5-.469-.5-.625-.5.313-.484.969-.61 1.328-.61.406 0 .953.22.953 1.11 0 .125-.03.703-.28 1.125-.298.484-.642.516-.892.516a3.306 3.306 0 0 1-.374.03c-.094.017-.157.032-.157.126 0 .11.063.11.235.11h.437c.813 0 1.188.671 1.188 1.64 0 1.36-.688 1.64-1.125 1.64-.422 0-1.172-.171-1.516-.75.344.047.656-.171.656-.546 0-.36-.265-.563-.562-.563-.235 0-.547.14-.547.578 0 .907.922 1.563 2 1.563 1.203 0 2.11-.906 2.11-1.922 0-.813-.626-1.578-1.657-1.797m0 0"/><path id="h" d="M1.625-4.531c-.469-.297-.5-.64-.5-.813 0-.593.64-1.015 1.344-1.015.719 0 1.36.515 1.36 1.234 0 .563-.392 1.031-.985 1.39Zm1.438.937c.718-.36 1.203-.875 1.203-1.531 0-.922-.875-1.484-1.782-1.484-1 0-1.796.734-1.796 1.656 0 .187.015.625.437 1.094.11.125.469.359.719.53C1.266-3.03.422-2.483.422-1.5c0 1.047 1 1.719 2.047 1.719 1.125 0 2.062-.828 2.062-1.89 0-.36-.11-.798-.484-1.22-.188-.203-.344-.296-.984-.703m-.985.422 1.219.766c.281.187.734.484.734 1.094 0 .734-.734 1.25-1.547 1.25C1.625-.062.906-.672.906-1.5c0-.578.328-1.203 1.172-1.672m0 0"/><path id="i" d="M1.094-3.406V-.75c0 .438-.11.438-.782.438V0c.36-.016.86-.031 1.126-.031.265 0 .78.015 1.109.031v-.312c-.656 0-.766 0-.766-.438v-1.828c0-1.031.703-1.594 1.328-1.594.625 0 .735.547.735 1.11V-.75c0 .438-.11.438-.766.438V0a30.36 30.36 0 0 1 1.125-.031c.25 0 .766.015 1.11.031v-.312c-.672 0-.782 0-.782-.438v-1.828c0-1.031.703-1.594 1.344-1.594.625 0 .734.547.734 1.11V-.75c0 .438-.109.438-.78.438V0c.359-.016.859-.031 1.124-.031.266 0 .781.015 1.11.031v-.312c-.516 0-.766 0-.766-.297V-2.5c0-.86 0-1.156-.313-1.516-.14-.171-.468-.375-1.046-.375-.829 0-1.266.594-1.438.985-.14-.875-.875-.985-1.312-.985-.735 0-1.188.438-1.47 1.047V-4.39l-1.405.11v.312c.703 0 .78.063.78.563m0 0"/><path id="m" d="M2.922-1.64v.859c0 .36-.031.469-.766.469h-.203V0c.406-.031.922-.031 1.344-.031.406 0 .937 0 1.344.031v-.312h-.203c-.735 0-.75-.11-.75-.47v-.859h.984v-.296h-.984v-4.516c0-.203 0-.266-.172-.266-.079 0-.11 0-.188.125L.281-1.937v.296Zm.047-.298H.563L2.969-5.64Zm0 0"/><path id="n" d="M4.453-2c0-1.172-.812-2.172-1.89-2.172a1.7 1.7 0 0 0-1.25.516v-1.938c.203.063.515.125.843.125 1.219 0 1.906-.906 1.906-1.031 0-.062-.03-.11-.093-.11-.016 0-.031 0-.078.032a3.26 3.26 0 0 1-1.344.281c-.406 0-.86-.062-1.328-.266-.078-.03-.094-.03-.125-.03C1-6.594 1-6.517 1-6.36v2.937c0 .172 0 .25.14.25.063 0 .094-.015.126-.078.109-.156.484-.703 1.28-.703.517 0 .767.453.845.64.156.36.187.75.187 1.25 0 .344 0 .938-.25 1.36-.234.39-.594.64-1.062.64-.72 0-1.282-.515-1.453-1.109.03.016.062.016.171.016.329 0 .5-.25.5-.485a.48.48 0 0 0-.5-.484c-.14 0-.484.078-.484.531C.5-.75 1.188.22 2.297.22 3.437.219 4.453-.734 4.453-2m0 0"/><path id="g" d="M2.016-.016c0-.656-.25-1.03-.641-1.03a.5.5 0 0 0-.516.515c0 .265.188.531.516.531.125 0 .25-.047.344-.125.031-.031.047-.031.062-.031 0 0 .016 0 .016.14 0 .735-.344 1.329-.672 1.657-.11.109-.11.14-.11.172 0 .062.048.109.094.109.11 0 .907-.766.907-1.938m0 0"/><clipPath id="d"><path d="M80 100h2v19.54h-2Zm0 0"/></clipPath><clipPath id="j"><path d="M13 .184h16V16H13Zm0 0"/></clipPath><clipPath id="k"><path d="M195 .184h15V16h-15Zm0 0"/></clipPath><clipPath id="l"><path d="M94 .184h35V16H94Zm0 0"/></clipPath></defs><path fill="none" stroke="#000" stroke-dasharray="2.9762470256999998 2.9762470256999998" stroke-miterlimit="10" stroke-width=".39732021" d="M214.27 26.266h9.308"/><path fill="none" stroke="#000" stroke-miterlimit="10" stroke-width=".39732021" d="M80.863 26.266v4.652m0 65.152v4.657"/><path fill="none" stroke="#000" stroke-miterlimit="10" stroke-width=".79364463" d="M84.773 94.508V32.48c0-.863-1.75-1.562-3.91-1.562s-3.91.7-3.91 1.562v62.028c0 .863 1.75 1.562 3.91 1.562s3.91-.699 3.91-1.562"/><path fill="none" stroke="#000" stroke-miterlimit="10" stroke-width=".79364463" d="M84.773 94.508c0-.863-1.75-1.563-3.91-1.563s-3.91.7-3.91 1.563"/><path fill="none" stroke="#000" stroke-miterlimit="10" stroke-width=".39732021" d="M80.863 94.508v1.562"/><path fill="none" stroke="#000" stroke-miterlimit="10" stroke-width="1.19096484" d="M18.813 26.266h186.152"/><path fill="none" stroke="#000" stroke-dasharray="2.9762470256999998 2.9762470256999998" stroke-miterlimit="10" stroke-width=".39732021" d="M.2 26.266h9.304"/><path fill="none" stroke="#000" stroke-miterlimit="10" stroke-width=".39732021" d="M9.504 26.266h4.656m0 0h57.582m18.242 0h83.954m0 0h35.68m0 0h4.652"/><path fill="#FFF" stroke="#000" stroke-miterlimit="10" stroke-width=".39732021" d="M11.086 26.266a1.58 1.58 0 1 0-3.16-.004 1.58 1.58 0 0 0 3.16.004ZM20.395 26.266a1.58 1.58 0 1 0-3.161-.004 1.58 1.58 0 0 0 3.16.004Zm0 0"/><path fill="#FFF" stroke="#000" stroke-miterlimit="10" stroke-width=".79364463" d="M71.742 17.14h18.242v18.247H71.742Zm0 0"/><use xlink:href="#a" x="74.523" y="29.46"/><use xlink:href="#b" x="79.484" y="29.46"/><use xlink:href="#c" x="82.242" y="29.46"/><path fill="#FFF" stroke="#000" stroke-miterlimit="10" stroke-width=".39732021" d="M206.543 26.266a1.58 1.58 0 1 0-3.16-.005 1.58 1.58 0 0 0 3.16.005ZM215.852 26.266a1.58 1.58 0 1 0-3.161-.004 1.58 1.58 0 0 0 3.16.004Zm0 0"/><g clip-path="url(#d)"><path fill="none" stroke="#000" stroke-dasharray="2.9762470256999998 2.9762470256999998" stroke-miterlimit="10" stroke-width=".39732021" d="M80.863 100.727v18.613"/></g><path fill="none" stroke="#999" stroke-miterlimit="10" stroke-width=".0099579" d="M71.742 44.879"/><path fill="none" stroke="#000" stroke-miterlimit="10" stroke-width=".39732021" d="M19.11 44.879h52.335"/><path stroke="#000" stroke-miterlimit="10" stroke-width=".39732021" d="m19.605 44.879 2.965 1.758v-3.512Zm0 0"/><path fill="none" stroke="#000" stroke-miterlimit="10" stroke-width=".39732021" d="M19.012 47.16v-4.562"/><path stroke="#000" stroke-miterlimit="10" stroke-width=".39732021" d="m70.95 44.879-2.962-1.754v3.512Zm0 0"/><path fill="none" stroke="#000" stroke-miterlimit="10" stroke-width=".39732021" d="M71.543 42.598v4.562"/><path fill="#FFF" d="M28.285 52.348H62.27V37.41H28.285Zm0 0"/><use xlink:href="#e" x="31.591" y="47.112"/><use xlink:href="#f" x="36.551" y="47.112"/><use xlink:href="#g" x="41.512" y="47.112"/><use xlink:href="#h" x="44.267" y="47.112"/><use xlink:href="#i" x="50.696" y="47.112"/><path fill="none" stroke="#999" stroke-miterlimit="10" stroke-width=".0099579" d="M204.965 7.648"/><path fill="none" stroke="#000" stroke-miterlimit="10" stroke-width=".39732021" d="M19.11 7.648h185.558"/><path d="m19.605 7.648 2.965 1.758V5.895Zm0 0"/><g clip-path="url(#j)"><path fill="none" stroke="#000" stroke-miterlimit="10" stroke-width=".39732021" d="m19.605 7.648 2.965 1.758V5.895Zm0 0"/></g><path fill="none" stroke="#000" stroke-miterlimit="10" stroke-width=".39732021" d="M19.012 9.93V5.367"/><path d="m204.172 7.648-2.965-1.753v3.511Zm0 0"/><g clip-path="url(#k)"><path fill="none" stroke="#000" stroke-miterlimit="10" stroke-width=".39732021" d="m204.172 7.648-2.965-1.753v3.511Zm0 0"/></g><path fill="none" stroke="#000" stroke-miterlimit="10" stroke-width=".39732021" d="M204.766 5.367V9.93"/><g clip-path="url(#l)"><path fill="#FFF" d="M94.895 15.117h33.988V.18H94.895Zm0 0"/></g><use xlink:href="#m" x="98.2" y="9.882"/><use xlink:href="#e" x="103.161" y="9.882"/><use xlink:href="#g" x="108.121" y="9.882"/><use xlink:href="#n" x="110.877" y="9.882"/><use xlink:href="#i" x="117.305" y="9.882"/></svg>