<svg xmlns="http://www.w3.org/2000/svg" xmlns:xlink="http://www.w3.org/1999/xlink" width="228.039" height="99.086"><defs><path id="b" d="M5.563 0v-.25h-.141c-.453 0-.547-.062-.656-.234L3.125-2.641l1.063-1.406c.328-.422.859-.422 1.046-.422v-.25c-.25.016-.515.032-.765.032l-.922-.032v.25c.328.016.375.203.375.282 0 .078-.031.125-.078.187l-.875 1.14-1-1.312c-.063-.062-.063-.078-.063-.11 0-.077.172-.187.422-.187v-.25l-1.062.032c-.328 0-.86-.032-.907-.032v.25H.5c.406 0 .531.047.672.235l1.406 1.89-1.25 1.64C1.188-.53.922-.25.266-.25V0c.25-.016.515-.031.765-.031.328 0 .875.031.922.031v-.25c-.297-.016-.39-.172-.39-.281 0-.016 0-.094.078-.188L2.734-2.14l1.22 1.61C3.968-.516 4-.47 4-.437c0 .078-.125.187-.406.187V0l1.062-.031c.328 0 .86.031.907.031m0 0"/><path id="c" d="M4.703-6.016c.094-.109.094-.14.094-.343H2.39c-1.203 0-1.22-.125-1.266-.313h-.25L.547-4.64h.25c.031-.156.125-.78.25-.906.062-.047.844-.047.969-.047h2.047c-.11.157-.891 1.235-1.11 1.563-.89 1.328-1.219 2.703-1.219 3.703 0 .094 0 .547.454.547.453 0 .453-.453.453-.547v-.5c0-.547.03-1.094.109-1.625.047-.219.188-1.078.625-1.688Zm0 0"/><path id="d" d="M4.438-1.984c0-1.172-.813-2.157-1.875-2.157-.485 0-.907.157-1.266.5v-1.921c.203.046.531.125.844.125 1.218 0 1.906-.907 1.906-1.032 0-.062-.031-.11-.094-.11-.015 0-.031 0-.078.032a3.26 3.26 0 0 1-1.344.281c-.39 0-.86-.062-1.312-.265-.078-.032-.11-.032-.125-.032C1-6.562 1-6.483 1-6.327v2.922c0 .172 0 .25.14.25.063 0 .079-.031.126-.078.109-.157.468-.703 1.265-.703.516 0 .766.468.844.64.156.36.188.75.188 1.25 0 .344 0 .938-.25 1.344-.235.39-.594.64-1.047.64-.72 0-1.282-.515-1.453-1.109.03.016.062.031.171.031.313 0 .485-.25.485-.484a.476.476 0 0 0-.485-.484c-.14 0-.484.062-.484.515C.5-.734 1.172.22 2.281.22c1.14 0 2.157-.953 2.157-2.203m0 0"/><path id="e" d="M2.906-6.312c0-.25 0-.266-.234-.266-.61.64-1.485.64-1.797.64v.297c.203 0 .781 0 1.297-.25v5.11c0 .36-.031.469-.922.469H.938V0C1.28-.031 2.14-.031 2.53-.031c.406 0 1.266 0 1.61.031v-.312h-.313c-.89 0-.922-.11-.922-.47Zm0 0"/><path id="f" d="M4.547-3.156c0-.797-.047-1.578-.406-2.313-.453-.953-1.25-1.11-1.672-1.11-.594 0-1.313.266-1.719 1.173-.312.687-.36 1.453-.36 2.25 0 .734.032 1.625.438 2.375.422.797 1.14 1 1.625 1 .531 0 1.297-.203 1.719-1.14.328-.688.375-1.454.375-2.235M2.453 0c-.375 0-.969-.25-1.14-1.187-.11-.594-.11-1.516-.11-2.094 0-.625 0-1.281.078-1.813.188-1.172.938-1.265 1.172-1.265.328 0 .985.172 1.172 1.156.094.547.094 1.297.094 1.922 0 .75 0 1.422-.11 2.047C3.47-.297 2.906 0 2.453 0m0 0"/><path id="h" d="M2.86-3.469c.812-.281 1.39-.969 1.39-1.75 0-.812-.875-1.36-1.828-1.36-.985 0-1.735.595-1.735 1.345 0 .328.22.515.5.515.297 0 .5-.218.5-.5 0-.5-.468-.5-.609-.5.297-.484.953-.61 1.313-.61.406 0 .953.22.953 1.11 0 .11-.031.688-.281 1.125-.297.469-.641.5-.876.516-.078 0-.328.015-.39.015-.078.016-.14.032-.14.126 0 .109.062.109.234.109h.437c.797 0 1.172.672 1.172 1.64 0 1.344-.687 1.626-1.125 1.626-.422 0-1.156-.172-1.5-.75.344.046.64-.172.64-.547a.533.533 0 0 0-.546-.547c-.235 0-.547.14-.547.578 0 .89.906 1.547 1.984 1.547 1.203 0 2.11-.906 2.11-1.906 0-.813-.625-1.579-1.657-1.782m0 0"/><path id="i" d="M1.094-3.39v2.64c0 .438-.11.438-.782.438V0c.344-.016.86-.031 1.126-.031.25 0 .765.015 1.093.031v-.312c-.656 0-.765 0-.765-.438v-1.812c0-1.032.703-1.579 1.328-1.579.625 0 .734.532.734 1.094V-.75c0 .438-.11.438-.765.438V0c.343-.016.843-.031 1.109-.031s.781.015 1.11.031v-.312c-.657 0-.766 0-.766-.438v-1.812c0-1.032.703-1.579 1.328-1.579.625 0 .734.532.734 1.094V-.75c0 .438-.11.438-.766.438V0c.344-.016.844-.031 1.11-.031.25 0 .766.015 1.11.031v-.312c-.516 0-.766 0-.766-.297v-1.875c0-.86 0-1.157-.313-1.516-.14-.172-.469-.36-1.031-.36-.844 0-1.266.594-1.438.97-.14-.86-.875-.97-1.312-.97-.719 0-1.188.423-1.469 1.032V-4.36l-1.39.109v.297c.687 0 .78.078.78.562m0 0"/><path id="j" d="M1.25-.766 2.297-1.78c1.547-1.36 2.14-1.89 2.14-2.875 0-1.125-.89-1.922-2.093-1.922A1.813 1.813 0 0 0 .5-4.797c0 .563.484.563.516.563a.516.516 0 0 0 .515-.532c0-.25-.172-.5-.531-.5H.875c.234-.64.766-1 1.344-1 .89 0 1.312.797 1.312 1.61 0 .781-.484 1.562-1.031 2.172L.61-.36C.5-.25.5-.234.5 0h3.656l.282-1.719h-.25c-.047.297-.125.735-.22.875-.062.078-.718.078-.937.078Zm0 0"/><path id="g" d="M2-.016c0-.64-.25-1.03-.625-1.03a.517.517 0 0 0-.531.53c0 .266.203.516.531.516a.58.58 0 0 0 .344-.125c.031-.016.031-.031.047-.031.015 0 .015.015.015.14 0 .735-.343 1.329-.672 1.657C1 1.75 1 1.766 1 1.797c0 .062.063.11.11.11.109 0 .89-.766.89-1.923m0 0"/><clipPath id="a"><path d="M.566 21H11v1H.566Zm0 0"/></clipPath></defs><path fill="none" stroke="#000" stroke-miterlimit="10" stroke-width="1.18506856" d="M19.285 21.32h43.992m0 0h43.993"/><path fill="none" stroke="#000" stroke-miterlimit="10" stroke-width="1.3822497" d="M107.27 67.629h9.261"/><path fill="none" stroke="#FFF" stroke-miterlimit="10" stroke-width=".59253428" d="M107.27 67.629h9.261"/><path fill="none" stroke="#000" stroke-miterlimit="10" stroke-width="1.3822497" d="M107.27 58.367h9.261"/><path fill="none" stroke="#FFF" stroke-miterlimit="10" stroke-width=".59253428" d="M107.27 58.367h9.261"/><path fill="none" stroke="#000" stroke-miterlimit="10" stroke-width="1.3822497" d="M107.27 49.105h9.261"/><path fill="none" stroke="#FFF" stroke-miterlimit="10" stroke-width=".59253428" d="M107.27 49.105h9.261"/><path fill="none" stroke="#000" stroke-miterlimit="10" stroke-width="1.3822497" d="M107.27 39.844h9.261"/><path fill="none" stroke="#FFF" stroke-miterlimit="10" stroke-width=".59253428" d="M107.27 39.844h9.261"/><path fill="none" stroke="#000" stroke-miterlimit="10" stroke-width="1.3822497" d="M107.27 30.582h9.261"/><path fill="none" stroke="#FFF" stroke-miterlimit="10" stroke-width=".59253428" d="M107.27 30.582h9.261"/><g clip-path="url(#a)"><path fill="none" stroke="#000" stroke-dasharray="2.9615120938 2.9615120938" stroke-miterlimit="10" stroke-width=".39535314" d="M.762 21.32h9.261"/></g><path fill="none" stroke="#000" stroke-dasharray="2.9615120938 2.9615120938" stroke-miterlimit="10" stroke-width=".39535314" d="M223.04 21.32h-9.263"/><path fill="none" stroke="#000" stroke-miterlimit="10" stroke-width=".39535314" d="M10.023 21.32h4.633m0 0h4.63"/><path fill="#FFF" stroke="#000" stroke-miterlimit="10" stroke-width=".39535314" d="M11.598 21.32c0-.867-.703-1.57-1.575-1.57a1.57 1.57 0 0 0-1.57 1.57 1.571 1.571 0 1 0 3.145 0ZM20.86 21.32c0-.867-.704-1.57-1.575-1.57a1.57 1.57 0 0 0-1.57 1.57 1.571 1.571 0 1 0 3.144 0Zm0 0"/><path stroke="#000" stroke-miterlimit="10" stroke-width=".39535314" d="M108.844 21.32c0-.867-.703-1.57-1.574-1.57a1.57 1.57 0 0 0-1.57 1.57 1.571 1.571 0 1 0 3.144 0ZM118.105 21.32c0-.867-.703-1.57-1.574-1.57a1.57 1.57 0 0 0-1.57 1.57 1.571 1.571 0 1 0 3.144 0Zm0 0"/><path fill="none" stroke="#000" stroke-miterlimit="10" stroke-width="1.18506856" d="M116.531 21.32h43.992m0 0h43.993"/><path fill="none" stroke="#000" stroke-miterlimit="10" stroke-width=".39535314" d="M204.516 21.32h4.632m0 0h4.63"/><path fill="#FFF" stroke="#000" stroke-miterlimit="10" stroke-width=".39535314" d="M206.09 21.32c0-.867-.707-1.57-1.574-1.57a1.57 1.57 0 0 0-1.57 1.57 1.571 1.571 0 1 0 3.144 0ZM215.352 21.32a1.574 1.574 0 0 0-3.149 0 1.575 1.575 0 0 0 3.149 0Zm0 0"/><path fill="none" stroke="#000" stroke-miterlimit="10" stroke-width=".39535314" d="M107.27 21.32v27.785m0 0v27.786"/><path stroke="#000" stroke-miterlimit="10" stroke-width=".39535314" d="M108.844 76.89c0-.867-.703-1.57-1.574-1.57a1.57 1.57 0 0 0-1.57 1.57c0 .868.702 1.575 1.57 1.575.87 0 1.574-.707 1.574-1.574Zm0 0"/><path fill="none" stroke="#000" stroke-miterlimit="10" stroke-width=".39535314" d="M116.531 21.32v27.785m0 0v27.786"/><path stroke="#000" stroke-miterlimit="10" stroke-width=".39535314" d="M118.105 76.89c0-.867-.703-1.57-1.574-1.57a1.57 1.57 0 0 0-1.57 1.57c0 .868.703 1.575 1.57 1.575.871 0 1.574-.707 1.574-1.574Zm0 0"/><use xlink:href="#b" x="104.357" y="84.808"/><use xlink:href="#b" x="113.618" y="84.808"/><use xlink:href="#c" x="106.141" y="94.89"/><use xlink:href="#d" x="111.077" y="94.89"/><path fill="none" stroke="#999" stroke-miterlimit="10" stroke-width=".0099086" d="M136.906 76.89"/><path fill="none" stroke="#000" stroke-miterlimit="10" stroke-width=".39535314" d="M136.906 24.762v51.832"/><path stroke="#000" stroke-miterlimit="10" stroke-width=".39535314" d="m136.906 21.719-1.746 2.945h3.496ZM136.906 76.102l1.75-2.95h-3.496Zm0 0"/><path fill="none" stroke="#000" stroke-miterlimit="10" stroke-width=".39535314" d="M139.18 76.695h-4.543"/><path fill="#FFF" d="M119.996 56.54h33.82V41.675h-33.82Zm0 0"/><use xlink:href="#e" x="123.287" y="51.329"/><use xlink:href="#f" x="128.223" y="51.329"/><use xlink:href="#g" x="133.158" y="51.329"/><use xlink:href="#h" x="135.901" y="51.329"/><use xlink:href="#i" x="142.297" y="51.329"/><path fill="none" stroke="#999" stroke-miterlimit="10" stroke-width=".0099086" d="M204.516 7.43"/><path fill="none" stroke="#000" stroke-miterlimit="10" stroke-width=".39535314" d="M19.582 7.43h184.637"/><path stroke="#000" stroke-miterlimit="10" stroke-width=".39535314" d="m20.074 7.43 2.95 1.746V5.684Zm0 0"/><path fill="none" stroke="#000" stroke-miterlimit="10" stroke-width=".39535314" d="M19.484 9.7V5.16"/><path stroke="#000" stroke-miterlimit="10" stroke-width=".39535314" d="m203.727 7.43-2.946-1.746v3.492Zm0 0"/><path fill="none" stroke="#000" stroke-miterlimit="10" stroke-width=".39535314" d="M204.32 5.16V9.7"/><path fill="#FFF" d="M94.992 14.86h33.817V0H94.992Zm0 0"/><use xlink:href="#h" x="98.281" y="9.652"/><use xlink:href="#e" x="103.216" y="9.652"/><use xlink:href="#g" x="108.153" y="9.652"/><use xlink:href="#j" x="110.894" y="9.652"/><use xlink:href="#i" x="117.291" y="9.652"/></svg>