<svg xmlns="http://www.w3.org/2000/svg" xmlns:xlink="http://www.w3.org/1999/xlink" width="227.043" height="103.317"><defs><clipPath id="a"><path d="M.27 22H14v1H.27Zm0 0"/></clipPath><clipPath id="b"><path d="M31 99h4v3.637h-4Zm0 0"/></clipPath><clipPath id="c"><path d="M25 93h16v9.637H25Zm0 0"/></clipPath><clipPath id="d"><path d="M44 99h4v3.637h-4Zm0 0"/></clipPath><clipPath id="e"><path d="M38 93h16v9.637H38Zm0 0"/></clipPath><clipPath id="f"><path d="M51 91h16v11.637H51Zm0 0"/></clipPath><path id="g" d="M2.797-1.984c.344.797.734 1.797.812 1.89.141.157.266.157.375.157h.141c.125 0 .188 0 .188-.079 0-.03-.016-.046-.032-.062a.849.849 0 0 1-.172-.297l-1.687-4c-.047-.125-.188-.422-.922-.422-.094 0-.187 0-.187.094 0 .078.078.094.109.094.14.015.281.046.453.437l.813 1.938L.656-.391c-.094.063-.14.125-.14.235 0 .172.14.234.234.234.125 0 .219-.078.234-.11Zm0 0"/><path id="h" d="M3.656-1.14v-.25h-.765V-4.47c0-.14 0-.203-.157-.203-.078 0-.109 0-.171.11L.265-1.392v.25h2.047v.579c0 .234 0 .312-.563.312h-.187V0a27.64 27.64 0 0 1 1.03-.031c.266 0 .704.015 1.048.031v-.25h-.188c-.562 0-.562-.078-.562-.312v-.579ZM2.36-3.923v2.531H.531Zm0 0"/><path id="i" d="M3.5-1.266h-.234c-.032.157-.094.563-.188.641-.047.031-.594.031-.687.031H1.125c.719-.64.969-.828 1.375-1.156.516-.406 1-.844 1-1.5 0-.828-.734-1.344-1.625-1.344-.86 0-1.437.594-1.437 1.235 0 .359.296.39.359.39a.369.369 0 0 0 .375-.375c0-.11-.047-.36-.406-.36.203-.483.687-.64 1-.64.703 0 1.062.532 1.062 1.094 0 .61-.437 1.078-.656 1.328L.5-.266C.438-.203.438-.187.438 0H3.28Zm0 0"/></defs><path fill="none" stroke="#000" stroke-miterlimit="10" stroke-width="1.3858348500000002" d="M33.098 87.812h13.05"/><path fill="none" stroke="#FFF" stroke-miterlimit="10" stroke-width=".5940711399999999" d="M33.098 87.812h13.05"/><path fill="none" stroke="#000" stroke-miterlimit="10" stroke-width="1.3858348500000002" d="M33.098 74.762h13.05"/><path fill="none" stroke="#FFF" stroke-miterlimit="10" stroke-width=".5940711399999999" d="M33.098 74.762h13.05"/><path fill="none" stroke="#000" stroke-miterlimit="10" stroke-width="1.3858348500000002" d="M33.098 61.71h13.05"/><path fill="none" stroke="#FFF" stroke-miterlimit="10" stroke-width=".5940711399999999" d="M33.098 61.71h13.05"/><path fill="none" stroke="#000" stroke-miterlimit="10" stroke-width="1.3858348500000002" d="M33.098 48.66h13.05"/><path fill="none" stroke="#FFF" stroke-miterlimit="10" stroke-width=".5940711399999999" d="M33.098 48.66h13.05"/><path fill="none" stroke="#000" stroke-miterlimit="10" stroke-width="1.3858348500000002" d="M33.098 35.61h13.05"/><path fill="none" stroke="#FFF" stroke-miterlimit="10" stroke-width=".5940711399999999" d="M33.098 35.61h13.05"/><g clip-path="url(#a)"><path fill="none" stroke="#000" stroke-dasharray="2.9691933869000002 2.9691933869000002" stroke-miterlimit="10" stroke-width=".39637857000000004" d="M.469 22.559h13.05"/></g><path fill="none" stroke="#000" stroke-dasharray="2.9691933869000002 2.9691933869000002" stroke-miterlimit="10" stroke-width=".39637857000000004" d="M222.332 22.559h-13.05"/><path fill="none" stroke="#000" stroke-miterlimit="10" stroke-width=".39637857000000004" d="M13.52 22.559h3.261m0 0h6.528m0 0h6.523m0 0h5.438m0 0h4.347m0 0h4.352m0 0h2.172"/><path fill="#FFF" stroke="#000" stroke-miterlimit="10" stroke-width=".39637857000000004" d="M21.621 22.559a1.575 1.575 0 1 0-3.152 0 1.575 1.575 0 1 0 3.152 0ZM28.148 22.559a1.579 1.579 0 1 0-3.157 0 1.579 1.579 0 0 0 3.157 0Zm0 0"/><path stroke="#000" stroke-miterlimit="10" stroke-width=".39637857000000004" d="M34.672 22.559a1.575 1.575 0 1 0-3.152 0 1.575 1.575 0 1 0 3.152 0Zm0 0"/><path fill="#FFF" stroke="#000" stroke-miterlimit="10" stroke-width=".39637857000000004" d="M39.02 22.559a1.575 1.575 0 1 0-3.153 0 1.575 1.575 0 1 0 3.152 0ZM43.371 22.559a1.579 1.579 0 1 0-3.157 0 1.579 1.579 0 0 0 3.157 0Zm0 0"/><path stroke="#000" stroke-miterlimit="10" stroke-width=".39637857000000004" d="M47.719 22.559a1.575 1.575 0 1 0-3.152 0 1.575 1.575 0 1 0 3.152 0Zm0 0"/><path fill="none" stroke="#000" stroke-miterlimit="10" stroke-width="1.1881422799999999" d="M46.14 22.559h75.044m0 0h75.043"/><path fill="none" stroke="#000" stroke-miterlimit="10" stroke-width=".39637857000000004" d="M196.227 22.559h3.261m0 0h6.528m0 0h3.265"/><path fill="#FFF" stroke="#000" stroke-miterlimit="10" stroke-width=".39637857000000004" d="M197.8 22.559a1.575 1.575 0 1 0-3.151 0 1.575 1.575 0 1 0 3.152 0ZM204.328 22.559a1.575 1.575 0 1 0-3.152 0 1.575 1.575 0 1 0 3.152 0Zm0 0"/><path fill="#FFF" stroke="#000" stroke-miterlimit="10" stroke-width=".39637857000000004" d="M204.328 22.559a1.575 1.575 0 1 0-3.152 0 1.575 1.575 0 1 0 3.152 0ZM210.86 22.559a1.579 1.579 0 1 0-3.158 0 1.579 1.579 0 0 0 3.157 0Zm0 0"/><path fill="none" stroke="#000" stroke-miterlimit="10" stroke-width=".39637857000000004" d="M33.098 22.559V61.71m0 0v39.152"/><g clip-path="url(#b)"><path d="M34.672 100.863a1.575 1.575 0 1 0-3.152 0 1.575 1.575 0 1 0 3.152 0m0 0"/></g><g clip-path="url(#c)"><path fill="none" stroke="#000" stroke-miterlimit="10" stroke-width=".39637857000000004" d="M34.672 100.863a1.575 1.575 0 1 0-3.152 0 1.575 1.575 0 1 0 3.152 0Zm0 0"/></g><path fill="none" stroke="#000" stroke-miterlimit="10" stroke-width=".39637857000000004" d="M46.14 22.559V61.71m0 0v39.152"/><g clip-path="url(#d)"><path d="M47.719 100.863a1.575 1.575 0 1 0-3.152 0 1.575 1.575 0 1 0 3.152 0m0 0"/></g><g clip-path="url(#e)"><path fill="none" stroke="#000" stroke-miterlimit="10" stroke-width=".39637857000000004" d="M47.719 100.863a1.575 1.575 0 1 0-3.152 0 1.575 1.575 0 1 0 3.152 0Zm0 0"/></g><path fill="none" stroke="#999" stroke-miterlimit="10" stroke-width=".0099343" d="M59.191 100.863"/><path fill="none" stroke="#000" stroke-miterlimit="10" stroke-width=".39637857000000004" d="M59.191 26.008v74.558"/><path stroke="#000" stroke-miterlimit="10" stroke-width=".39637857000000004" d="m59.191 22.953-1.75 2.957h3.504Zm0 0"/><path d="m59.191 100.07 1.754-2.953h-3.504Zm0 0"/><g clip-path="url(#f)"><path fill="none" stroke="#000" stroke-miterlimit="10" stroke-width=".39637857000000004" d="m59.191 100.07 1.754-2.953h-3.504Zm0 0"/></g><path fill="none" stroke="#000" stroke-miterlimit="10" stroke-width=".39637857000000004" d="M61.469 100.664h-4.555"/><path fill="#FFF" d="M52.36 71.219h13.667v-19.02H52.36Zm0 0"/><use xlink:href="#g" x="56.843" y="60.312"/><path fill="none" stroke="#000" stroke-miterlimit="10" stroke-width=".44505664" d="M56.844 61.809h4.695"/><use xlink:href="#h" x="57.218" y="67.923"/><path fill="none" stroke="#999" stroke-miterlimit="10" stroke-width=".0099343" d="M196.227 9.508"/><path fill="none" stroke="#000" stroke-miterlimit="10" stroke-width=".39637857000000004" d="M46.438 9.508H195.93"/><path stroke="#000" stroke-miterlimit="10" stroke-width=".39637857000000004" d="m46.934 9.508 2.953 1.75V7.754Zm0 0"/><path fill="none" stroke="#000" stroke-miterlimit="10" stroke-width=".39637857000000004" d="M46.34 11.785V7.23"/><path stroke="#000" stroke-miterlimit="10" stroke-width=".39637857000000004" d="m195.434 9.508-2.954-1.754v3.504Zm0 0"/><path fill="none" stroke="#000" stroke-miterlimit="10" stroke-width=".39637857000000004" d="M196.027 7.23v4.555"/><path fill="#FFF" d="M114.352 19.016h13.664V-.004h-13.664Zm0 0"/><use xlink:href="#g" x="118.833" y="8.109"/><path fill="none" stroke="#000" stroke-miterlimit="10" stroke-width=".44505664" d="M118.832 9.605h4.695"/><use xlink:href="#i" x="119.208" y="15.721"/></svg>