<svg xmlns="http://www.w3.org/2000/svg" xmlns:xlink="http://www.w3.org/1999/xlink" width="228.083" height="142.162"><defs><path id="d" d="M4.844-2.187c0-.157-.063-.282-.235-.282-.109 0-.218.094-.218.203-.032.391-.235 1-.703 1-.641 0-1.079-1.218-2-1.218C.78-2.484.563-1.344.563-1.11c0 .125.046.28.218.28a.25.25 0 0 0 .235-.218c.03-.375.234-.984.672-.984.671 0 1.093 1.219 2 1.219.921 0 1.156-1.157 1.156-1.375m0-1.766c0-.156-.063-.281-.235-.281a.223.223 0 0 0-.218.218c-.032.375-.235.985-.703.985-.641 0-1.079-1.219-2-1.219C.78-4.25.563-3.11.563-2.875c0 .125.046.281.218.281a.25.25 0 0 0 .235-.203c.03-.39.234-1 .672-1 .671 0 1.093 1.219 2 1.219.921 0 1.156-1.14 1.156-1.375m0 0"/><path id="e" d="M2.797-1.984c.36.797.75 1.797.828 1.89.125.157.25.157.36.157h.14c.14 0 .203 0 .203-.079 0-.03-.016-.046-.031-.062-.078-.078-.156-.234-.188-.297l-1.687-4c-.047-.125-.188-.437-.922-.437-.078 0-.187 0-.187.093 0 .078.078.094.109.094.14.031.281.047.453.438l.828 1.953L.656-.391c-.094.063-.14.125-.14.235 0 .172.14.234.234.234.125 0 .219-.078.234-.11Zm0 0"/><path id="f" d="M3.5-1.266h-.234c-.016.157-.094.563-.172.641-.063.031-.594.031-.688.031H1.125c.734-.64.969-.828 1.39-1.156.516-.422.985-.844.985-1.5 0-.844-.734-1.36-1.625-1.36-.86 0-1.437.61-1.437 1.25 0 .344.296.391.375.391.156 0 .359-.125.359-.375 0-.125-.047-.375-.406-.375.218-.484.687-.64 1.015-.64.688 0 1.047.547 1.047 1.109 0 .594-.422 1.078-.656 1.328L.5-.266C.438-.203.438-.187.438 0h2.859Zm0 0"/><path id="g" d="M4.563-3.172c0-.797-.063-1.578-.407-2.312-.453-.953-1.265-1.11-1.672-1.11-.609 0-1.328.25-1.734 1.172-.312.688-.36 1.453-.36 2.25 0 .75.032 1.64.438 2.39.438.798 1.156 1 1.64 1C3 .219 3.75.017 4.189-.936c.312-.672.375-1.454.375-2.235M2.469 0c-.39 0-.969-.25-1.156-1.203-.11-.594-.11-1.5-.11-2.078 0-.64 0-1.297.078-1.828.188-1.188.938-1.266 1.188-1.266.328 0 .984.172 1.172 1.156.093.547.093 1.313.093 1.938 0 .734 0 1.406-.109 2.047C3.485-.297 2.906 0 2.469 0m0 0"/><path id="i" d="M4.453-1.984c0-1.188-.812-2.172-1.89-2.172-.47 0-.891.156-1.25.5v-1.938c.187.063.515.14.843.14 1.219 0 1.906-.905 1.906-1.03 0-.063-.03-.11-.093-.11-.016 0-.031 0-.078.032-.203.078-.688.28-1.36.28-.39 0-.844-.062-1.312-.28-.078-.032-.094-.032-.125-.032-.094 0-.094.078-.094.25v2.922c0 .188 0 .266.14.266.063 0 .094-.031.126-.094.109-.156.484-.687 1.28-.687.517 0 .767.453.845.624.156.376.172.75.172 1.25 0 .344 0 .938-.235 1.36-.234.39-.61.64-1.062.64-.72 0-1.282-.515-1.453-1.109.03.016.062.016.171.016.329 0 .485-.235.485-.485 0-.234-.157-.484-.485-.484-.14 0-.484.078-.484.531C.5-.75 1.172.22 2.281.22a2.194 2.194 0 0 0 2.172-2.203m0 0"/><path id="h" d="M2.016-.016c0-.64-.25-1.03-.641-1.03a.5.5 0 0 0-.516.515c0 .281.188.531.516.531.125 0 .25-.047.344-.125.031-.031.047-.031.047-.031.015 0 .03 0 .03.14 0 .735-.343 1.329-.671 1.657-.11.109-.11.125-.11.156 0 .078.048.11.094.11.11 0 .907-.75.907-1.923m0 0"/><path id="k" d="M3.531-2.89c.406 1.03.89 2.546 1.047 2.78.156.22.25.22.531.22h.204c.109-.016.109-.063.109-.094 0-.032-.016-.063-.047-.094-.094-.11-.156-.266-.219-.453l-2.031-5.64c-.203-.579-.734-.704-1.203-.704-.047 0-.172 0-.172.11 0 .077.078.093.078.093.328.063.406.125.656.797l.954 2.688L.703-.47C.578-.344.531-.28.531-.156c0 .172.125.281.297.281.156 0 .235-.11.328-.203Zm0 0"/><path id="j" d="M1.094-3.062a.527.527 0 0 0-.532.53.53.53 0 0 0 .532.548.54.54 0 0 0 .531-.547.527.527 0 0 0-.531-.531m0 0"/><path id="l" d="M8 0v-.281h-.203c-.688 0-.703-.094-.703-.422v-4.672c0-.328.015-.437.703-.437H8v-.266H6.5c-.187 0-.25 0-.312.156l-2 5.047-1.985-5.016c-.078-.171-.078-.187-.328-.187H.391v.266h.203c.687 0 .703.109.703.437v4.438c0 .234 0 .656-.906.656V0C.875-.016 1-.031 1.438-.031c.421 0 .562.015 1.03.031v-.281c-.905 0-.905-.422-.905-.656v-4.766l.015-.016L3.766-.203c.046.125.078.203.187.203.094 0 .14-.078.172-.156l2.234-5.64.016.015v5.078c0 .328-.031.422-.703.422h-.219V0C6-.031 6.593-.031 6.72-.031c.062 0 .718 0 1.281.031m0 0"/><path id="m" d="M9.234-5.812v-.266c-.28.016-.562.016-.843.016l-1.047-.016v.266c.562.015.765.28.765.484 0 .047-.015.078-.046.14L6.687-1.03 5.22-5.391a.58.58 0 0 1-.032-.14c0-.282.5-.282.75-.282v-.265c-.406.016-.859.016-1.25.016-.5 0-.562 0-1.109-.016v.266c.453 0 .625.015.719.171.078.125.266.72.266.72s-.032.109-.032.124L3.266-1.03 1.813-5.375c-.047-.11-.047-.125-.047-.156 0-.282.515-.282.75-.282v-.265c-.391.016-.844.016-1.235.016-.5 0-.562 0-1.11-.016v.266c.5 0 .688 0 .798.343L2.797.016c.047.125.094.187.203.187.063 0 .14-.031.188-.187l1.5-4.547L6.203-.016c.063.157.078.22.203.22.11 0 .157-.063.188-.188l1.734-5.188c.14-.406.375-.625.906-.64m0 0"/><path id="n" d="M4.563-1.64c0-.516-.188-.907-.391-1.172-.39-.485-.781-.594-1.36-.72l-.796-.187c-.703-.187-.938-.75-.938-1.14 0-.594.484-1.172 1.235-1.172 1.14 0 1.609.86 1.734 1.75.016.172.031.218.14.218.125 0 .125-.062.125-.25V-6.03c0-.172 0-.25-.109-.25-.062 0-.078.015-.14.125-.11.156-.016.031-.313.5-.156-.172-.61-.625-1.453-.625C1.25-6.281.5-5.47.5-4.563c0 .704.422 1.125.469 1.172.406.391.562.438 1.625.688.719.172.797.187 1.094.484 0 0 .312.344.312.86C4-.75 3.563-.08 2.75-.08c-.687 0-1.922-.28-2-1.75 0-.14 0-.187-.125-.187S.5-1.953.5-1.766v1.72c0 .171 0 .25.11.25.062 0 .078-.016.14-.126.11-.156.031-.047.313-.5.562.531 1.265.625 1.703.625 1.078 0 1.797-.89 1.797-1.844m0 0"/><path id="q" d="M4.875 0v-.281c-.61 0-.687-.063-.687-.5v-3.156l-1.344.093v.281c.61 0 .687.063.687.5v1.579c0 .797-.453 1.359-1.094 1.359-.734 0-.78-.375-.78-.86v-2.952l-1.344.093v.281C1-3.562 1-3.53 1-2.75v1.344c0 .578 0 .953.406 1.265.266.172.625.235.985.235.453 0 .89-.203 1.156-.735v.735ZM2.188-5.375a.424.424 0 0 0-.422-.437.427.427 0 0 0-.438.437c0 .234.188.438.438.438a.434.434 0 0 0 .422-.438m1.593 0a.427.427 0 0 0-.437-.437.437.437 0 0 0-.438.437c0 .234.203.438.438.438.25 0 .437-.204.437-.438m0 0"/><path id="r" d="M6.594-3.14c0-.188-.188-.188-.328-.188H.844c-.14 0-.344 0-.344.187 0 .188.188.188.297.188h5.516c.125 0 .28 0 .28-.188m0 1.812c0-.188-.157-.188-.282-.188H.798c-.11 0-.297 0-.297.188 0 .203.203.203.344.203h5.422c.14 0 .328 0 .328-.203m0 0"/><path id="o" d="M.922-3.078c0 .172 0 .265.125.265.078 0 .11-.03.156-.124.266-.36.688-.579 1.156-.579.954 0 .954 1.375.954 1.688 0 .281 0 .828-.25 1.234-.235.375-.61.547-.954.547a1.441 1.441 0 0 1-1.343-1c.015 0 .062.016.125.016.172 0 .437-.11.437-.422 0-.281-.203-.438-.437-.438-.188 0-.438.094-.438.454 0 .812.672 1.64 1.672 1.64A1.987 1.987 0 0 0 4.109-1.78c0-1.078-.765-1.953-1.734-1.953-.422 0-.86.14-1.172.453v-1.75c.266.078.547.125.813.125 1.109 0 1.75-.797 1.75-.907 0-.078-.063-.125-.11-.125-.015 0-.031 0-.11.047-.421.172-.827.25-1.202.25-.39 0-.781-.078-1.188-.25-.093-.046-.11-.046-.125-.046-.11 0-.11.093-.11.25Zm0 0"/><path id="p" d="M4.219-2.844c0-.61-.032-1.375-.344-2.031-.39-.844-1.062-1.062-1.594-1.062-.531 0-1.203.218-1.594 1.078C.408-4.25.36-3.531.36-2.844c0 .578.016 1.438.391 2.14.422.75 1.125.907 1.531.907.578 0 1.235-.25 1.61-1.078.265-.594.328-1.266.328-1.969M2.28-.03c-.265 0-.906-.125-1.062-1.125-.094-.532-.094-1.297-.094-1.797 0-.61 0-1.313.11-1.797.171-.797.75-.953 1.046-.953.344 0 .89.172 1.063 1 .11.484.11 1.187.11 1.75 0 .547 0 1.297-.095 1.828C3.172-.109 2.516-.031 2.281-.031m0 0"/><path id="s" d="M2.703-5.687c0-.22 0-.25-.234-.25-.547.578-1.36.578-1.64.578v.28c.171 0 .718 0 1.187-.234v4.594c0 .328-.016.438-.844.438H.875V0C1.203-.031 2-.031 2.359-.031c.36 0 1.172 0 1.485.031v-.281h-.281c-.829 0-.86-.11-.86-.438Zm0 0"/><path id="u" d="M4.36-5.437c.077-.094.077-.11.077-.297H2.235c-1.125 0-1.156-.11-1.187-.282h-.25L.5-4.156h.25c.047-.203.11-.703.234-.813.063-.047.766-.047.891-.047h1.86L2.89-3.859C1.734-2.266 1.625-.812 1.625-.297c0 .094 0 .5.406.5.422 0 .422-.406.422-.516V-.75c0-1.312.188-2.344.672-2.984Zm0 0"/><path id="t" d="M1-1.469a.49.49 0 0 0-.484.5c0 .282.234.485.484.485a.48.48 0 0 0 .5-.485c0-.281-.219-.5-.5-.5M1-4.03a.49.49 0 0 0-.484.5c0 .281.234.484.484.484a.48.48 0 0 0 .5-.484c0-.297-.219-.5-.5-.5m0 0"/><clipPath id="a"><path d="M.21 92H38v31H.21Zm0 0"/></clipPath><clipPath id="b"><path d="M.21 107H11v1H.21Zm0 0"/></clipPath><clipPath id="c"><path d="M213 2h13.957v15H213Zm0 0"/></clipPath></defs><path fill="none" stroke="#000" stroke-miterlimit="10" stroke-width=".39666186000000003" d="M26.152 107.492h6.34m16.137 0h12.105m26.895 0h10.566m0 0H103v3.555m0 12.101v3.555"/><g clip-path="url(#a)"><path fill="none" stroke="#000" stroke-miterlimit="10" stroke-width=".7923295800000001" d="M24.54 103.457H11.628c-.89 0-1.613 1.809-1.613 4.035 0 2.227.722 4.035 1.613 4.035h12.91c.89 0 1.613-1.808 1.613-4.035 0-2.226-.722-4.035-1.613-4.035"/></g><path fill="none" stroke="#000" stroke-miterlimit="10" stroke-width=".7923295800000001" d="M24.54 103.457c-.892 0-1.614 1.809-1.614 4.035 0 2.227.722 4.035 1.613 4.035"/><path fill="none" stroke="#000" stroke-miterlimit="10" stroke-width=".39666186000000003" d="M24.54 107.492h1.612"/><path fill="none" stroke="#000" stroke-linejoin="bevel" stroke-miterlimit="10" stroke-width=".7923295800000001" d="M32.098 107.332c0 2.23 1.261 4.035 2.82 4.035s2.82-1.805 2.82-4.035c0 2.23 1.266 4.035 2.825 4.035 1.558 0 2.82-1.805 2.82-4.035 0 2.23 1.265 4.035 2.82 4.035 1.559 0 2.824-1.805 2.824-4.035"/><path fill="none" stroke="#000" stroke-miterlimit="10" stroke-width=".7923295800000001" d="M86.016 103.457H62.348c-.891 0-1.614 1.809-1.614 4.035 0 2.227.723 4.035 1.614 4.035h23.668c.89 0 1.613-1.808 1.613-4.035 0-2.226-.723-4.035-1.613-4.035"/><path fill="none" stroke="#000" stroke-miterlimit="10" stroke-width=".7923295800000001" d="M86.016 103.457c-.891 0-1.614 1.809-1.614 4.035 0 2.227.723 4.035 1.614 4.035"/><path fill="none" stroke="#000" stroke-miterlimit="10" stroke-width=".39666186000000003" d="M86.016 107.492h1.613"/><path fill="none" stroke="#000" stroke-linejoin="bevel" stroke-miterlimit="10" stroke-width=".7923295800000001" d="M102.84 110.648c2.226 0 4.035 1.446 4.035 3.227s-1.809 3.223-4.035 3.223c2.226 0 4.035 1.445 4.035 3.222 0 1.782-1.809 3.227-4.035 3.227"/><g clip-path="url(#b)"><path fill="none" stroke="#000" stroke-dasharray="2.9713154562 2.9713154562" stroke-miterlimit="10" stroke-width=".39666186000000003" d="M10.016 107.492H.41"/></g><path fill="none" stroke="#000" stroke-miterlimit="10" stroke-width=".39666186000000003" d="M93.395 107.492v7.633m0 3.945v7.633"/><path fill="none" stroke="#000" stroke-miterlimit="10" stroke-width=".7923295800000001" d="M99.313 115.125H87.477m11.836 3.945H87.477"/><path stroke="#000" stroke-miterlimit="10" stroke-width=".39666186000000003" d="M94.969 107.492a1.575 1.575 0 1 0-3.153 0 1.576 1.576 0 1 0 3.153 0ZM94.969 126.703a1.575 1.575 0 1 0-3.153 0 1.576 1.576 0 1 0 3.153 0Zm0 0"/><path fill="none" stroke="#000" stroke-miterlimit="10" stroke-width=".39666186000000003" d="M24.54 111.527v7.586m0 0v7.59h.808m0 0h7.144m16.137 0h13.719v-15.176m0 0"/><path stroke="#000" stroke-miterlimit="10" stroke-width=".39666186000000003" d="M26.117 111.527a1.579 1.579 0 1 0-3.157.002 1.579 1.579 0 0 0 3.157-.002Zm0 0"/><path fill="none" stroke="#000" stroke-linejoin="bevel" stroke-miterlimit="10" stroke-width=".7923295800000001" d="M32.098 126.863c0-2.23 1.261-4.035 2.82-4.035s2.82 1.805 2.82 4.035c0-2.23 1.266-4.035 2.825-4.035 1.558 0 2.82 1.805 2.82 4.035 0-2.23 1.265-4.035 2.82-4.035 1.559 0 2.824 1.805 2.824 4.035"/><path stroke="#000" stroke-miterlimit="10" stroke-width=".39666186000000003" d="M63.926 111.527a1.579 1.579 0 1 0-3.158.002 1.579 1.579 0 0 0 3.158-.002Zm0 0"/><path fill="none" stroke="#000" stroke-miterlimit="10" stroke-width=".39666186000000003" d="M86.016 111.527v15.176h12.18m0 0h12.007m0 0h7.203v-4.32m0-87.414v-4.32"/><path stroke="#000" stroke-miterlimit="10" stroke-width=".39666186000000003" d="M87.594 111.527a1.579 1.579 0 1 0-3.158.002 1.579 1.579 0 0 0 3.158-.002ZM104.574 126.703a1.575 1.575 0 1 0-3.152 0 1.576 1.576 0 1 0 3.152 0Zm0 0"/><path fill="none" stroke="#000" stroke-linejoin="bevel" stroke-miterlimit="10" stroke-width=".7923295800000001" d="M117.566 122.777c-2.23 0-4.035-1.41-4.035-3.148 0-1.742 1.805-3.152 4.035-3.152-2.23 0-4.035-1.41-4.035-3.149 0-1.742 1.805-3.152 4.035-3.152-2.23 0-4.035-1.41-4.035-3.149 0-1.742 1.805-3.152 4.035-3.152-2.23 0-4.035-1.41-4.035-3.148 0-1.739 1.805-3.149 4.035-3.149-2.23 0-4.035-1.414-4.035-3.152 0-1.739 1.805-3.149 4.035-3.149-2.23 0-4.035-1.41-4.035-3.152 0-1.738 1.805-3.148 4.035-3.148-2.23 0-4.035-1.41-4.035-3.153 0-1.738 1.805-3.148 4.035-3.148-2.23 0-4.035-1.41-4.035-3.149 0-1.742 1.805-3.152 4.035-3.152-2.23 0-4.035-1.41-4.035-3.148 0-1.743 1.805-3.153 4.035-3.153-2.23 0-4.035-1.41-4.035-3.148 0-1.742 1.805-3.153 4.035-3.153-2.23 0-4.035-1.41-4.035-3.148 0-1.738 1.805-3.148 4.035-3.148-2.23 0-4.035-1.41-4.035-3.153 0-1.738 1.805-3.148 4.035-3.148-2.23 0-4.035-1.41-4.035-3.153 0-1.738 1.805-3.148 4.035-3.148-2.23 0-4.035-1.41-4.035-3.152 0-1.739 1.805-3.149 4.035-3.149"/><path fill="none" stroke="#000" stroke-miterlimit="10" stroke-width="1.18899144" d="M117.406 30.648H223.07"/><path fill="none" stroke="#000" stroke-dasharray="2.9713154562 2.9713154562" stroke-miterlimit="10" stroke-width=".39666186000000003" d="M110.203 122.383V78.676m0 0V34.969M32.492 117.098h8.07m0 0h8.067"/><path fill="none" stroke="#999" stroke-miterlimit="10" stroke-width=".009941400000000001" d="M223.07 9.516"/><path fill="none" stroke="#000" stroke-miterlimit="10" stroke-width=".39666186000000003" d="M117.703 9.516h105.07"/><path stroke="#000" stroke-miterlimit="10" stroke-width=".39666186000000003" d="m118.2 9.516 2.956 1.754V7.762Zm0 0"/><path fill="none" stroke="#000" stroke-miterlimit="10" stroke-width=".39666186000000003" d="M117.605 11.793V7.238"/><path d="m222.277 9.516-2.957-1.754v3.508Zm0 0"/><g clip-path="url(#c)"><path fill="none" stroke="#000" stroke-miterlimit="10" stroke-width=".39666186000000003" d="m222.277 9.516-2.957-1.754v3.508Zm0 0"/></g><path fill="none" stroke="#000" stroke-miterlimit="10" stroke-width=".39666186000000003" d="M222.871 7.238v4.555"/><path fill="#FFF" d="M159.477 19.031h21.52V0h-21.52Zm0 0"/><use xlink:href="#d" x="162.778" y="12.143"/><use xlink:href="#e" x="171.808" y="8.115"/><path fill="none" stroke="#000" stroke-miterlimit="10" stroke-width=".44537472" d="M171.809 9.613h4.695"/><use xlink:href="#f" x="172.183" y="15.731"/><path fill="none" stroke="#999" stroke-miterlimit="10" stroke-width=".009941400000000001" d="M86.016 93.852"/><path fill="none" stroke="#000" stroke-miterlimit="10" stroke-width=".39666186000000003" d="M62.645 93.852h23.074"/><path stroke="#000" stroke-miterlimit="10" stroke-width=".39666186000000003" d="m63.14 93.852 2.958 1.753v-3.507Zm0 0"/><path fill="none" stroke="#000" stroke-miterlimit="10" stroke-width=".39666186000000003" d="M62.547 96.129v-4.555"/><path stroke="#000" stroke-miterlimit="10" stroke-width=".39666186000000003" d="m85.223 93.852-2.957-1.754v3.507Zm0 0"/><path fill="none" stroke="#000" stroke-miterlimit="10" stroke-width=".39666186000000003" d="M85.816 91.574v4.555"/><path fill="#FFF" d="M57.363 87.465H91V72.059H57.363Zm0 0"/><use xlink:href="#g" x="60.662" y="82.238"/><use xlink:href="#h" x="65.615" y="82.238"/><use xlink:href="#g" x="68.366" y="82.238"/><use xlink:href="#i" x="73.318" y="82.238"/><use xlink:href="#j" x="79.737" y="82.238"/><use xlink:href="#k" x="81.922" y="82.238"/><use xlink:href="#l" x="29.112" y="137.832"/><use xlink:href="#m" x="37.509" y="137.832"/><use xlink:href="#n" x="46.922" y="137.832"/><use xlink:href="#o" x="12.825" y="99.959"/><use xlink:href="#p" x="17.406" y="99.959"/><use xlink:href="#q" x="122.25" y="81.532"/><use xlink:href="#r" x="130.388" y="81.532"/><use xlink:href="#s" x="140.576" y="81.532"/><use xlink:href="#t" x="147.419" y="81.532"/><use xlink:href="#u" x="151.702" y="81.532"/></svg>