<svg xmlns="http://www.w3.org/2000/svg" xmlns:xlink="http://www.w3.org/1999/xlink" width="226.859" height="118.102"><defs><clipPath id="a"><path d="M.785 0h225.149v95H.785Zm0 0"/></clipPath><clipPath id="b"><path d="M.785 30h225.149v65H.785Zm0 0"/></clipPath><clipPath id="c"><path d="M.785 51h225.149v44H.785Zm0 0"/></clipPath><clipPath id="d"><path d="M.785 62h225.149v33H.785Zm0 0"/></clipPath><clipPath id="e"><path d="M.785 82H110v24H.785Zm0 0"/></clipPath><clipPath id="j"><path d="M.785 103H11v14.21H.785Zm0 0"/></clipPath><clipPath id="k"><path d="M212 103h13.934v14.21H212Zm0 0"/></clipPath><clipPath id="l"><path d="M98 104h27v13.21H98Zm0 0"/></clipPath><path id="f" d="M5.219 0v-.312c-.703 0-.782-.063-.782-.547v-6l-1.421.109v.297c.687 0 .765.078.765.562v2.125c-.281-.343-.703-.609-1.234-.609-1.172 0-2.203.969-2.203 2.25 0 1.25.969 2.234 2.094 2.234.624 0 1.078-.343 1.328-.656V.11ZM3.766-1.172c0 .188 0 .203-.11.375-.297.469-.75.688-1.172.688-.453 0-.796-.25-1.046-.625-.25-.407-.282-.985-.282-1.375 0-.375.016-.97.313-1.407.203-.312.578-.64 1.11-.64.343 0 .765.156 1.077.593.11.172.11.188.11.376Zm0 0"/><path id="g" d="M4.11-1.172c0-.11-.11-.11-.141-.11-.078 0-.094.048-.125.11C3.563-.25 2.922-.14 2.547-.14c-.516 0-1.39-.421-1.39-2.015 0-1.61.812-2.031 1.343-2.031.078 0 .703.015 1.047.375-.406.03-.469.328-.469.453 0 .25.188.453.469.453.25 0 .453-.172.453-.469 0-.672-.75-1.062-1.516-1.062-1.234 0-2.14 1.078-2.14 2.296 0 1.266.969 2.25 2.125 2.25 1.312 0 1.64-1.187 1.64-1.28m0 0"/><path id="h" d="M5.156-2.14c0-1.25-.968-2.235-2.093-2.235-.782 0-1.204.469-1.36.64v-3.124L.281-6.75v.297c.688 0 .766.078.766.562V0h.25l.36-.61c.14.22.562.72 1.296.72 1.172 0 2.203-.97 2.203-2.25m-.828 0c0 .359-.016.953-.297 1.406-.218.297-.593.625-1.125.625-.437 0-.797-.235-1.031-.61-.14-.203-.14-.234-.14-.406v-2.047c0-.187 0-.187.109-.344.375-.562.922-.64 1.156-.64.453 0 .813.265 1.047.64.25.407.281.97.281 1.375m0 0"/><path id="i" d="M4.781-.875v-.562h-.25v.562c0 .563-.25.625-.36.625-.327 0-.359-.437-.359-.484V-2.72c0-.422 0-.797-.359-1.172a1.94 1.94 0 0 0-1.36-.546C1.282-4.437.61-3.97.61-3.312c0 .296.188.468.454.468a.444.444 0 0 0 .453-.453c0-.125-.047-.453-.5-.469.265-.343.75-.453 1.062-.453.485 0 1.047.39 1.047 1.266v.375c-.5.031-1.203.062-1.812.36-.75.327-1 .843-1 1.28C.313-.14 1.28.11 1.906.11 2.546.11 3-.28 3.188-.75c.046.39.312.813.78.813.204 0 .813-.141.813-.938m-1.656-.516c0 .954-.719 1.282-1.156 1.282-.485 0-.89-.344-.89-.844 0-.547.421-1.36 2.046-1.422Zm0 0"/><path id="m" d="M2.906-1.625v.86c0 .343-.015.453-.75.453h-.203V0c.406-.031.922-.031 1.328-.031.422 0 .938 0 1.344.031v-.312h-.203c-.734 0-.75-.11-.75-.454v-.859h.984v-.312h-.984v-4.5c0-.204 0-.266-.156-.266-.094 0-.125 0-.203.125L.28-1.938v.313Zm.063-.312H.547l2.422-3.688Zm0 0"/><path id="n" d="M4.547-3.172c0-.781-.047-1.578-.39-2.312-.454-.938-1.266-1.11-1.688-1.11-.594 0-1.313.266-1.719 1.188-.312.672-.36 1.453-.36 2.234 0 .75.032 1.64.438 2.39a1.83 1.83 0 0 0 1.64 1C3 .219 3.75.017 4.189-.936c.312-.672.359-1.454.359-2.235M2.469 0c-.39 0-.969-.25-1.156-1.203-.11-.594-.11-1.5-.11-2.078 0-.64 0-1.281.078-1.828.188-1.172.938-1.266 1.188-1.266.328 0 .969.188 1.156 1.156.11.563.11 1.313.11 1.938 0 .734 0 1.406-.11 2.047C3.469-.297 2.906 0 2.469 0m0 0"/><path id="o" d="M1.094-3.406V-.75c0 .438-.11.438-.782.438V0c.344-.016.86-.031 1.126-.031.25 0 .765.015 1.109.031v-.312c-.672 0-.781 0-.781-.438v-1.828c0-1.016.703-1.578 1.343-1.578.625 0 .735.531.735 1.093V-.75c0 .438-.11.438-.781.438V0c.343-.016.859-.031 1.124-.031.25 0 .766.015 1.11.031v-.312c-.672 0-.781 0-.781-.438v-1.828c0-1.016.703-1.578 1.343-1.578.625 0 .735.531.735 1.093V-.75c0 .438-.11.438-.782.438V0c.344-.016.86-.031 1.125-.031.25 0 .766.015 1.11.031v-.312c-.516 0-.766 0-.781-.297V-2.5c0-.844 0-1.156-.297-1.5-.14-.172-.469-.375-1.047-.375-.828 0-1.266.594-1.438.969-.125-.86-.859-.969-1.312-.969-.719 0-1.188.422-1.453 1.047v-1.047l-1.406.11v.312c.703 0 .78.062.78.547m0 0"/></defs><g clip-path="url(#a)"><path fill="none" stroke="#000" stroke-miterlimit="10" stroke-width=".7909826500000001" d="M1.379 83.145C37.348 40.777 71.773.395 111.715.395c39.941 0 74.367 40.382 110.336 82.75"/></g><g clip-path="url(#b)"><path fill="none" stroke="#000" stroke-miterlimit="10" stroke-width=".7909826500000001" d="M1.379 83.145C19.363 61.96 36.579 41.77 56.547 41.77c19.973 0 37.183 20.19 55.168 41.375C129.699 61.96 146.91 41.77 166.883 41.77c19.969 0 37.183 20.19 55.168 41.375"/></g><g clip-path="url(#c)"><path fill="none" stroke="#000" stroke-miterlimit="10" stroke-width=".7909826500000001" d="M1.379 83.145c8.992-10.59 17.598-20.688 27.586-20.688 9.984 0 18.59 10.098 27.582 20.688 8.992-10.59 17.598-20.688 27.586-20.688 9.984 0 18.59 10.098 27.582 20.688 8.992-10.59 17.598-20.688 27.582-20.688 9.988 0 18.594 10.098 27.586 20.688 8.992-10.59 17.598-20.688 27.582-20.688 9.988 0 18.594 10.098 27.586 20.688"/></g><g clip-path="url(#d)"><path fill="none" stroke="#000" stroke-miterlimit="10" stroke-width=".7909826500000001" d="M1.379 83.145c4.496-4.942 8.8-9.653 13.793-9.653 4.992 0 9.297 4.711 13.793 9.653 4.496-4.942 8.797-9.653 13.789-9.653 4.992 0 9.297 4.711 13.793 9.653 4.496-4.942 8.8-9.653 13.793-9.653 4.992 0 9.297 4.711 13.793 9.653 4.496-4.942 8.797-9.653 13.789-9.653 4.992 0 9.297 4.711 13.793 9.653 4.496-4.942 8.8-9.653 13.793-9.653 4.992 0 9.293 4.711 13.789 9.653 4.5-4.942 8.8-9.653 13.793-9.653 4.992 0 9.297 4.711 13.793 9.653 4.496-4.942 8.8-9.653 13.793-9.653 4.992 0 9.293 4.711 13.789 9.653 4.496-4.942 8.8-9.653 13.793-9.653 4.992 0 9.297 4.711 13.793 9.653"/></g><g clip-path="url(#e)"><path fill="none" stroke="#000" stroke-miterlimit="10" stroke-width="1.1869702" d="M1.379 83.145h53.789m0 0h53.79V94.18m0 0v11.03"/></g><path fill="none" stroke="#000" stroke-miterlimit="10" stroke-width="1.1869702" d="M222.05 83.145h-53.788m0 0h-53.79V94.18m0 0v11.03"/><use xlink:href="#f" x="186.198" y="36.872"/><use xlink:href="#g" x="90.21" y="49.448"/><use xlink:href="#h" x="40.006" y="64.456"/><use xlink:href="#i" x="26.491" y="77.031"/><path fill="none" stroke="#999" stroke-miterlimit="10" stroke-width=".009924500000000001" d="M222.05 110.73"/><path fill="none" stroke="#000" stroke-miterlimit="10" stroke-width=".39598755" d="M1.676 110.73h220.078"/><path d="m2.172 110.73 2.95 1.75v-3.5Zm0 0"/><g clip-path="url(#j)"><path fill="none" stroke="#000" stroke-miterlimit="10" stroke-width=".39598755" d="m2.172 110.73 2.95 1.75v-3.5Zm0 0"/></g><path fill="none" stroke="#000" stroke-miterlimit="10" stroke-width=".39598755" d="M1.578 113.004v-4.547"/><path d="m221.258 110.73-2.95-1.75v3.5Zm0 0"/><g clip-path="url(#k)"><path fill="none" stroke="#000" stroke-miterlimit="10" stroke-width=".39598755" d="m221.258 110.73-2.95-1.75v3.5Zm0 0"/></g><path fill="none" stroke="#000" stroke-miterlimit="10" stroke-width=".39598755" d="M221.852 108.457v4.547"/><g clip-path="url(#l)"><path fill="#FFF" d="M98.625 117.21h26.18v-12.964h-26.18Zm0 0"/></g><use xlink:href="#m" x="101.917" y="113.915"/><use xlink:href="#n" x="106.861" y="113.915"/><use xlink:href="#o" x="113.268" y="113.915"/></svg>