<svg xmlns="http://www.w3.org/2000/svg" xmlns:xlink="http://www.w3.org/1999/xlink" width="225.837" height="46.422"><defs><path id="b" d="M4.75-.875v-.547h-.234v.547c0 .563-.25.625-.36.625-.328 0-.36-.437-.36-.484v-1.97c0-.421 0-.796-.358-1.171a1.913 1.913 0 0 0-1.344-.531c-.813 0-1.5.453-1.5 1.11 0 .296.203.468.453.468a.435.435 0 0 0 .453-.453c0-.125-.047-.453-.5-.453.266-.344.75-.453 1.063-.453.484 0 1.046.375 1.046 1.25v.374c-.5.016-1.187.047-1.812.344-.734.344-.984.844-.984 1.281C.313-.14 1.265.11 1.89.11 2.547.11 3-.28 3.17-.75c.048.39.313.813.782.813.203 0 .797-.141.797-.938m-1.64-.5c0 .938-.704 1.266-1.157 1.266-.469 0-.875-.344-.875-.828 0-.547.406-1.36 2.031-1.422Zm0 0"/><path id="c" d="M5.125-2.125c0-1.25-.969-2.219-2.078-2.219-.766 0-1.203.453-1.36.625v-3.11l-1.406.11v.297c.688 0 .766.078.766.563V0h.25l.344-.61c.156.22.562.72 1.297.72 1.171 0 2.187-.97 2.187-2.235m-.812-.016c0 .375-.016.954-.313 1.407-.203.297-.578.625-1.11.625-.437 0-.796-.235-1.03-.594-.141-.219-.141-.235-.141-.422v-2.031c0-.188 0-.188.11-.344.39-.562.921-.64 1.171-.64.438 0 .797.265 1.031.64.25.406.282.953.282 1.36m0 0"/><clipPath id="a"><path d="M46 0h150v45.852H46Zm0 0"/></clipPath></defs><g clip-path="url(#a)"><path fill="none" stroke="#000" stroke-miterlimit="10" stroke-width=".3940923" d="M51.625 22.926h.004c.004 0 .008 0 .027-.004.016-.004.047-.008.094-.02.05-.007.145-.027.254-.054a31.406 31.406 0 0 0 1.48-.434c.352-.117 1.02-.336 1.567-.527.543-.192 1.57-.559 2.363-.852.793-.293 2.266-.848 3.36-1.262 1.09-.418 3.081-1.183 4.515-1.726 1.438-.543 4.016-1.531 5.824-2.2a484.886 484.886 0 0 1 7.196-2.613c2.191-.765 6.02-2.082 8.59-2.902 2.57-.816 7.011-2.184 9.921-2.988 2.914-.805 7.864-2.09 11.059-2.801 3.191-.711 8.566-1.79 11.95-2.32 3.386-.535 8.983-1.25 12.44-1.524 3.454-.277 9.07-.504 12.465-.453 3.391.05 8.813.395 11.977.813 3.168.414 8.059 1.398 10.836 2.187 2.777.793 6.941 2.383 9.183 3.52 2.239 1.132 5.399 3.254 6.97 4.668 1.57 1.414 3.538 3.93 4.355 5.523.816 1.594 1.523 4.313 1.523 5.969 0 1.656-.707 4.37-1.523 5.965-.817 1.597-2.785 4.109-4.356 5.523-1.57 1.414-4.734 3.535-6.976 4.672-2.243 1.137-6.399 2.723-9.176 3.516-2.774.793-7.672 1.773-10.836 2.191-3.164.414-8.578.762-11.969.812-3.394.051-9.02-.18-12.476-.457-3.457-.273-9.059-.988-12.446-1.523-3.383-.531-8.75-1.61-11.941-2.32-3.192-.711-8.145-1.996-11.059-2.801-2.91-.8-7.351-2.172-9.918-2.988-2.57-.817-6.398-2.133-8.59-2.899-2.19-.765-5.394-1.949-7.199-2.617-1.808-.668-4.386-1.652-5.824-2.2-1.434-.542-3.426-1.308-4.516-1.722a561.737 561.737 0 0 0-3.359-1.262c-.793-.293-1.82-.66-2.363-.851a86.082 86.082 0 0 0-1.567-.528c-.351-.113-.75-.234-.953-.292a19.338 19.338 0 0 0-.527-.141c-.11-.027-.203-.047-.254-.059a.439.439 0 0 0-.094-.015c-.02-.004-.023-.004-.027-.004h-.004"/></g><path fill="none" stroke="#000" stroke-miterlimit="10" stroke-width=".3940923" d="M51.625 22.926h-.004c-.004 0-.008 0-.016.004-.007.004-.027.007-.042.015-.02.008-.055.02-.086.035-.036.016-.098.047-.157.075l-.254.132c-.086.047-.25.141-.375.215l-.53.317c-.173.105-.485.297-.712.437a61.201 61.201 0 0 1-2.062 1.21c-.352.193-.965.525-1.38.732-.417.207-1.14.554-1.616.761a34.14 34.14 0 0 1-1.84.72c-.535.183-1.446.46-2.028.6-.578.141-1.55.329-2.156.403-.605.074-1.597.14-2.203.133-.61-.008-1.59-.086-2.168-.188a12.82 12.82 0 0 1-1.988-.547c-.516-.199-1.297-.601-1.719-.894-.418-.29-1.02-.832-1.316-1.195a6.246 6.246 0 0 1-.828-1.422c-.157-.414-.293-1.117-.293-1.543 0-.43.136-1.133.293-1.543a6.27 6.27 0 0 1 .828-1.426c.297-.363.898-.906 1.32-1.195.422-.29 1.2-.692 1.715-.895.512-.199 1.414-.441 1.988-.547.578-.101 1.559-.18 2.164-.187.606-.008 1.602.058 2.207.133.606.074 1.578.265 2.156.406.582.137 1.493.418 2.028.601.535.184 1.36.512 1.84.72.476.202 1.199.55 1.617.757.414.207 1.027.54 1.379.734.347.192.86.489 1.144.657.285.168.692.418.918.554.227.137.54.328.711.434.172.105.406.242.531.316.125.075.29.168.375.215a6.046 6.046 0 0 0 .497.246c.015.004.035.012.042.012.008.004.012.004.016.004l.004.004"/><path fill="none" stroke="#000" stroke-miterlimit="10" stroke-width="1.1812892" d="M51.625 37.785V8.066"/><use xlink:href="#b" x="4.588" y="25.075"/><use xlink:href="#c" x="212.34" y="26.285"/><path fill="none" stroke="#000" stroke-miterlimit="10" stroke-width=".3940923" d="M16.414 22.926h189.023"/><path stroke="#000" stroke-miterlimit="10" stroke-width=".3940923" d="m13.379 22.926 2.937 1.742v-3.484ZM208.473 22.926l-2.938-1.742v3.484Zm0 0"/></svg>