<svg xmlns="http://www.w3.org/2000/svg" xmlns:xlink="http://www.w3.org/1999/xlink" width="233.163" height="141.107"><defs><path id="c" d="M7.25-.875c0-.062 0-.172-.125-.172-.11 0-.11.094-.125.172-.062.703-.406.875-.656.875-.485 0-.563-.5-.703-1.422l-.125-.797c-.172-.64-.657-.969-1.203-1.156.953-.234 1.734-.828 1.734-1.61 0-.952-1.14-1.78-2.594-1.78H.343v.312h.235c.766 0 .781.11.781.453v5.234c0 .344-.015.454-.78.454H.343V0c.36-.031 1.062-.031 1.453-.031.375 0 1.078 0 1.437.031v-.312H3c-.766 0-.781-.11-.781-.454V-3.28h1.14c.157 0 .579 0 .922.344.375.359.375.656.375 1.328 0 .64 0 1.03.407 1.406.406.36.953.422 1.25.422.765 0 .937-.813.937-1.094m-2.234-4.11c0 .688-.235 1.485-1.703 1.485H2.218v-2.562c0-.235 0-.344.219-.375.093-.016.39-.016.578-.016.89 0 2 .031 2 1.469m0 0"/><path id="d" d="M2.453 0v-.312c-.656 0-.703-.047-.703-.438v-3.625l-1.39.11v.296c.656 0 .734.063.734.547V-.75c0 .438-.11.438-.766.438V0l1.094-.031c.344 0 .687.015 1.031.031m-.547-5.984a.547.547 0 0 0-.531-.532.536.536 0 0 0-.531.532c0 .265.219.53.515.53a.54.54 0 0 0 .547-.53m0 0"/><path id="e" d="M4.11-1.172c0-.11-.094-.11-.126-.11-.093 0-.109.048-.125.11C3.563-.25 2.922-.14 2.563-.14c-.532 0-1.407-.421-1.407-2.015 0-1.625.813-2.031 1.344-2.031.078 0 .703 0 1.063.359-.407.031-.47.328-.47.453 0 .266.173.469.454.469.25 0 .453-.172.453-.469 0-.672-.75-1.062-1.516-1.062-1.234 0-2.14 1.062-2.14 2.296 0 1.266.969 2.25 2.125 2.25 1.328 0 1.64-1.187 1.64-1.28m0 0"/><path id="f" d="M5.297 0v-.312c-.516 0-.766 0-.766-.297V-2.5c0-.844 0-1.156-.312-1.516-.14-.171-.469-.359-1.032-.359-.843 0-1.28.594-1.437.953v-3.453l-1.437.11v.312c.703 0 .78.062.78.547V-.75c0 .438-.109.438-.78.438V0l1.125-.031L2.547 0v-.312c-.672 0-.781 0-.781-.438v-1.828c0-1.031.718-1.578 1.343-1.578s.735.531.735 1.093V-.75c0 .438-.11.438-.766.438V0l1.11-.031Zm0 0"/><path id="g" d="M3.281-1.234v-.563h-.234v.547c0 .734-.297 1.11-.672 1.11-.656 0-.656-.907-.656-1.063V-3.97h1.406v-.297H1.719v-1.828h-.25c-.016.813-.313 1.875-1.281 1.907v.218h.843v2.735c0 1.218.922 1.343 1.282 1.343.703 0 .968-.703.968-1.343m0 0"/><path id="h" d="M4.781-.875v-.562h-.25v.562c0 .563-.234.625-.343.625-.329 0-.375-.437-.375-.5v-1.969c0-.422 0-.812-.36-1.172-.375-.39-.875-.546-1.36-.546-.812 0-1.484.468-1.484 1.125 0 .296.188.453.454.453.28 0 .453-.188.453-.453 0-.11-.047-.438-.5-.454.265-.343.75-.453 1.062-.453.485 0 1.047.39 1.047 1.266v.375c-.5.015-1.187.047-1.812.344-.75.343-1 .859-1 1.297 0 .796.968 1.046 1.593 1.046.657 0 1.11-.39 1.297-.859.031.39.297.813.766.813.219 0 .812-.141.812-.938m-1.656-.516c0 .938-.703 1.282-1.156 1.282-.485 0-.89-.344-.89-.844 0-.547.421-1.36 2.046-1.422Zm0 0"/><path id="i" d="M5.297 0v-.312c-.516 0-.766 0-.766-.297V-2.5c0-.844 0-1.156-.312-1.516-.14-.171-.469-.359-1.032-.359-.734 0-1.203.422-1.468 1.031v-1.031l-1.406.11v.296c.703 0 .78.078.78.563V-.75c0 .438-.109.438-.78.438V0l1.125-.031L2.547 0v-.312c-.672 0-.781 0-.781-.438v-1.828c0-1.031.718-1.578 1.343-1.578s.735.531.735 1.093V-.75c0 .438-.11.438-.766.438V0l1.11-.031Zm0 0"/><path id="j" d="M4.11-1.172c0-.11-.079-.125-.126-.125-.093 0-.109.063-.125.14C3.5-.14 2.61-.14 2.516-.14c-.5 0-.891-.296-1.125-.656-.297-.484-.297-1.14-.297-1.484h2.765c.22 0 .25 0 .25-.219 0-.984-.53-1.937-1.765-1.937C1.188-4.437.28-3.423.28-2.172.281-.859 1.312.11 2.453.11 3.672.11 4.11-.984 4.11-1.17M3.452-2.5H1.11C1.172-3.969 2-4.219 2.344-4.219c1.015 0 1.11 1.344 1.11 1.719m0 0"/><path id="k" d="M7-3.328c0-1.875-1.328-3.438-3.031-3.438H.344v.313h.234c.766 0 .781.11.781.453v5.234c0 .344-.015.454-.78.454H.343V0h3.625C5.64 0 7-1.469 7-3.328m-.984 0c0 1.094-.188 1.687-.547 2.172-.203.281-.766.843-1.766.843h-1c-.469 0-.484-.062-.484-.39v-5.36c0-.328.015-.39.484-.39h.985c.624 0 1.312.219 1.812.922.422.578.516 1.437.516 2.203m0 0"/><path id="l" d="M5.156-2.14c0-1.25-.953-2.235-2.062-2.235-.781 0-1.188.438-1.39.656v-.656l-1.423.11v.296c.703 0 .766.063.766.5v4.64c0 .438-.11.438-.766.438v.313l1.11-.031 1.109.03V1.61c-.656 0-.766 0-.766-.437v-1.75c.047.156.47.687 1.22.687 1.171 0 2.202-.968 2.202-2.25m-.812 0c0 1.203-.703 2.03-1.438 2.03-.39 0-.765-.202-1.031-.609-.14-.203-.14-.219-.14-.406v-2.219c.28-.5.765-.781 1.28-.781.72 0 1.329.86 1.329 1.984m0 0"/><path id="m" d="M4.672-2.125c0-1.266-1-2.312-2.188-2.312-1.25 0-2.203 1.078-2.203 2.312C.281-.844 1.312.109 2.47.109a2.208 2.208 0 0 0 2.203-2.234m-.828-.078c0 .36 0 .89-.219 1.328a1.267 1.267 0 0 1-1.14.734c-.438 0-.876-.203-1.141-.656-.25-.437-.25-1.047-.25-1.406 0-.375 0-.922.25-1.36a1.324 1.324 0 0 1 1.125-.656c.437 0 .86.219 1.125.64.25.423.25 1 .25 1.376m0 0"/><path id="n" d="M2.531 0v-.312c-.672 0-.781 0-.781-.438v-6.125l-1.422.11v.312c.688 0 .766.062.766.547V-.75c0 .438-.11.438-.766.438V0l1.094-.031Zm0 0"/><path id="o" d="M3-3.125h1.688c1.406 0 2.78-1.031 2.78-2.14 0-.766-.655-1.5-1.952-1.5H2.313c-.188 0-.297 0-.297.187 0 .125.078.125.28.125.126 0 .313 0 .423.016.156.015.219.046.219.156 0 .047 0 .062-.032.187L1.578-.766c-.11.375-.125.454-.906.454-.172 0-.281 0-.281.187C.39 0 .516 0 .547 0c.281 0 .984-.031 1.25-.031.219 0 .437.015.64.015.22 0 .438.016.641.016.078 0 .203 0 .203-.203 0-.11-.094-.11-.281-.11-.36 0-.64 0-.64-.171 0-.063.015-.11.03-.172Zm.719-2.953c.078-.344.11-.375.531-.375h.953c.813 0 1.344.266 1.344.937 0 .391-.203 1.25-.578 1.61-.5.437-1.094.515-1.532.515h-1.39Zm0 0"/><path id="p" d="M3.484-2.36c.625-.156 1.25-.562 1.25-1.124 0-.688-.921-1.25-2-1.25H.406v.25h.156c.547 0 .547.062.547.312v3.61c0 .234 0 .312-.546.312H.406V0s.735-.031 1.016-.031c.297 0 .687.015 1.047.031v-.25h-.172c-.531 0-.547-.062-.547-.312v-1.72h.922c.125 0 .484 0 .797.298.234.203.234.375.234.843 0 .454 0 .735.328 1 .297.25.703.282.89.282.595 0 .75-.563.75-.766 0-.062 0-.14-.124-.14-.094 0-.11.062-.11.14-.046.39-.265.563-.484.563-.39 0-.453-.407-.531-1.032-.078-.562-.094-.672-.297-.89-.078-.079-.266-.266-.64-.375m-.828-.109H1.75v-1.75c0-.187 0-.234.188-.265h.437c.656 0 1.61 0 1.61 1 0 .78-.594 1.015-1.329 1.015m0 0"/><path id="q" d="M4.844-4.031c.093-.219.25-.453.781-.453v-.25a9.664 9.664 0 0 1-.672.03c-.281 0-.797-.03-.828-.03v.25c.25 0 .469.109.469.328 0 .047-.016.093-.032.14L3.125-.672l-1.5-3.515c-.031-.079-.031-.094-.031-.11 0-.187.36-.187.547-.187v-.25c-.344.015-.797.03-1.032.03-.359 0-.875-.03-.89-.03v.25h.11c.374 0 .5.03.593.25L2.719-.016c.047.11.062.157.203.157.062 0 .14 0 .203-.141Zm0 0"/><path id="u" d="M.406-4.734v.25h.156c.547 0 .547.062.547.312v3.61c0 .234 0 .312-.546.312H.406V0h2.735a2.334 2.334 0 0 0 2.328-2.328c0-1.328-1.047-2.406-2.328-2.406ZM2.078-.25c-.328 0-.328-.062-.328-.266v-3.703c0-.218 0-.265.328-.265h.86c.593 0 1.109.234 1.421.64.282.375.407.906.407 1.516 0 .797-.203 1.219-.453 1.515C4-.468 3.5-.25 2.952-.25Zm0 0"/><clipPath id="a"><path d="M.316 27H93v96H.316Zm0 0"/></clipPath><clipPath id="b"><path d="M.316 74H221v2H.316Zm0 0"/></clipPath><clipPath id="r"><path d="M76 125h15v15.219H76Zm0 0"/></clipPath><clipPath id="s"><path d="M141 125h15v15.219h-15Zm0 0"/></clipPath><clipPath id="t"><path d="M106 125h20v15.219h-20Zm0 0"/></clipPath><clipPath id="v"><path d="M72 125h15v15.219H72Zm0 0"/></clipPath><clipPath id="w"><path d="M7 125h15v15.219H7Zm0 0"/></clipPath><clipPath id="x"><path d="M37 125h20v15.219H37Zm0 0"/></clipPath></defs><path fill="none" stroke="#7F7F7F" stroke-miterlimit="10" stroke-width="1.18847716" d="M81.375 75.04h-.004v.003h-.004c0 .004 0 .004-.004.008 0 0-.004.004-.004.008-.004 0-.007.007-.011.011 0 .004-.008.012-.012.02l-.016.027-.027.043-.031.059-.043.078c-.016.023-.04.07-.059.101-.015.036-.05.094-.074.133-.023.043-.066.117-.094.172-.031.05-.086.145-.125.207-.039.063-.105.176-.152.25-.05.078-.137.207-.195.297-.063.09-.168.246-.247.348a10.937 10.937 0 0 1-1.105 1.3c-.133.133-.363.36-.523.5-.157.141-.434.372-.618.516a12.057 12.057 0 0 1-1.523 1.004c-.238.129-.645.328-.91.441a10.817 10.817 0 0 1-2.078.668c-.309.063-.825.145-1.145.172-.324.028-.851.043-1.18.031A11.18 11.18 0 0 1 70 81.32a10.9 10.9 0 0 1-1.172-.285 9.893 9.893 0 0 1-1.121-.453 8.47 8.47 0 0 1-1.023-.617 8.04 8.04 0 0 1-.895-.774 7.413 7.413 0 0 1-.734-.91 7.7 7.7 0 0 1-.547-1.015 7.228 7.228 0 0 1-.34-1.094 6.927 6.927 0 0 1-.121-1.133c0-.312.058-.824.121-1.133.062-.308.219-.8.34-1.093.125-.293.37-.75.55-1.016.176-.266.505-.676.731-.91.223-.235.629-.582.895-.774a9.004 9.004 0 0 1 1.023-.617c.3-.148.805-.351 1.121-.453A10.9 10.9 0 0 1 70 68.758a11.18 11.18 0 0 1 1.191-.117c.329-.012.856.004 1.18.03.32.028.836.11 1.145.173.308.066.789.195 1.078.289a11.259 11.259 0 0 1 3.433 1.824c.184.145.457.375.618.516.16.14.39.367.523.5.137.136.328.347.441.472.114.125.274.32.368.434.09.117.222.293.296.394.079.102.184.258.247.348.058.086.144.219.195.297.047.074.113.187.152.25.04.062.094.156.125.207.028.055.07.129.094.172.023.039.059.098.074.133.02.03.043.078.059.101.015.028.031.059.043.078l.031.059c.008.016.02.031.027.043l.016.027c.004.008.012.016.012.02.004.004.007.012.011.012 0 .003.004.007.004.007.004.004.004.004.004.008h.004v.004h.004"/><path fill="none" stroke="#7F7F7F" stroke-miterlimit="10" stroke-width="1.18847716" d="M81.375 75.04h.008c.004-.005.012-.005.015-.009a.593.593 0 0 0 .172-.059c.032-.011.086-.034.13-.054l.187-.09c.062-.031.175-.086.258-.133.082-.043.234-.125.343-.187.106-.063.301-.176.442-.262a28.814 28.814 0 0 0 1.266-.809c.214-.14.593-.398.855-.578.258-.18.71-.5 1.023-.718.309-.223.848-.61 1.211-.875.367-.266.996-.727 1.422-1.043.426-.313 1.156-.856 1.645-1.215a1581.713 1581.713 0 0 1 4.023-2.98c.633-.462 1.703-1.243 2.41-1.755.711-.507 1.914-1.367 2.703-1.918.79-.55 2.121-1.472 2.996-2.058.875-.586 2.34-1.559 3.301-2.176.961-.613 2.574-1.629 3.621-2.262 1.051-.632 2.805-1.668 3.946-2.308a157.98 157.98 0 0 1 4.265-2.309A160.676 160.676 0 0 1 122.184 49c1.308-.61 3.48-1.566 4.867-2.137a124.66 124.66 0 0 1 5.148-1.965 117.997 117.997 0 0 1 5.403-1.738 113.797 113.797 0 0 1 5.62-1.445c1.583-.352 4.157-.836 5.77-1.078a97.765 97.765 0 0 1 5.871-.672c1.64-.121 4.293-.227 5.934-.219 1.644.008 4.277.133 5.902.285 1.625.149 4.235.504 5.817.805 1.582.3 4.07.91 5.586 1.363 1.515.453 3.898 1.305 5.328 1.91a56.152 56.152 0 0 1 4.953 2.457c1.312.75 3.336 2.079 4.515 2.965 1.18.89 2.965 2.426 3.985 3.442 1.015 1.015 2.504 2.754 3.34 3.875.836 1.125 2.039 3.011 2.683 4.222.645 1.207 1.516 3.223 1.953 4.496.442 1.278.98 3.38 1.203 4.692.227 1.312.426 3.453.426 4.781 0 1.328-.199 3.469-.426 4.781-.222 1.317-.761 3.414-1.203 4.688-.437 1.277-1.312 3.289-1.957 4.5-.644 1.21-1.843 3.097-2.68 4.222-.835 1.122-2.324 2.86-3.34 3.872-1.019 1.015-2.804 2.554-3.984 3.445-1.18.887-3.203 2.215-4.515 2.965a56.152 56.152 0 0 1-4.953 2.457c-1.426.605-3.813 1.457-5.328 1.91a67.332 67.332 0 0 1-5.586 1.363c-1.582.301-4.192.653-5.817.805a82.235 82.235 0 0 1-5.894.289 88.692 88.692 0 0 1-5.938-.223 98.26 98.26 0 0 1-5.875-.672 100.778 100.778 0 0 1-5.77-1.078 117.132 117.132 0 0 1-5.62-1.445 124.541 124.541 0 0 1-5.399-1.734 126.65 126.65 0 0 1-5.144-1.965 140.67 140.67 0 0 1-4.875-2.14c-1.309-.606-3.34-1.61-4.567-2.243a170.775 170.775 0 0 1-4.265-2.309 173.57 173.57 0 0 1-3.942-2.308 177.371 177.371 0 0 1-3.625-2.262 212.87 212.87 0 0 1-3.3-2.176 223.613 223.613 0 0 1-2.997-2.058c-.789-.551-1.988-1.41-2.699-1.918-.71-.508-1.781-1.293-2.414-1.754a1581.713 1581.713 0 0 1-4.023-2.98c-.489-.36-1.22-.903-1.645-1.216-.426-.316-1.055-.777-1.422-1.043-.363-.265-.902-.652-1.21-.875-.313-.218-.766-.539-1.024-.718a57.976 57.976 0 0 0-1.555-1.035 20.273 20.273 0 0 0-1.008-.613 12.56 12.56 0 0 0-.343-.188c-.083-.047-.196-.102-.258-.133a3.406 3.406 0 0 0-.188-.086 1.142 1.142 0 0 0-.129-.059.593.593 0 0 0-.086-.03c-.02-.009-.043-.016-.054-.02a.12.12 0 0 0-.032-.008c-.003-.004-.011-.004-.015-.008h-.008"/><g clip-path="url(#a)"><path fill="none" stroke="#000" stroke-miterlimit="10" stroke-width=".79198687" d="M81.375 75.04h-.004v.007c-.004 0-.004.004-.004.008 0 0-.004.008-.004.011 0 .008-.004.016-.008.028 0 .008-.003.023-.003.039a.245.245 0 0 0-.008.062c-.004.02-.004.059-.008.09 0 .035-.004.094-.004.137-.004.047-.004.133-.004.195 0 .063.004.18.004.266 0 .086.004.242.008.36.004.112.008.32.012.468l.015.613c.004.192.008.535.008.778-.004.242-.004.664-.016.964a31.71 31.71 0 0 1-.172 2.598c-.046.43-.14 1.176-.222 1.68a36.996 36.996 0 0 1-.383 1.949 35.83 35.83 0 0 1-.59 2.215 38.62 38.62 0 0 1-.867 2.469 41.44 41.44 0 0 1-1.219 2.683c-.398.77-1.12 2.055-1.644 2.86-.524.804-1.465 2.132-2.137 2.949-.668.812-1.86 2.133-2.687 2.922-.829.793-2.282 2.046-3.278 2.78-.992.735-2.726 1.872-3.887 2.509-1.164.632-3.168 1.578-4.488 2.07-1.316.492-3.57 1.172-5.023 1.473-1.45.3-3.887.62-5.438.687-1.55.07-4.129 0-5.738-.191-1.61-.192-4.238-.715-5.852-1.192-1.609-.48-4.21-1.476-5.761-2.25-1.551-.773-3.996-2.257-5.418-3.324-1.422-1.062-3.606-3.02-4.84-4.351-1.23-1.332-3.05-3.696-4.031-5.254-.985-1.563-2.356-4.262-3.043-6-.688-1.735-1.547-4.672-1.903-6.52-.355-1.848-.664-4.906-.664-6.789s.309-4.941.664-6.789c.356-1.844 1.215-4.781 1.903-6.516.687-1.738 2.066-4.433 3.05-5.996.98-1.562 2.797-3.925 4.024-5.261 1.23-1.332 3.414-3.286 4.84-4.352 1.422-1.062 3.867-2.55 5.418-3.324 1.55-.774 4.152-1.77 5.761-2.246 1.614-.477 4.243-1 5.852-1.196 1.605-.191 4.187-.261 5.738-.191 1.551.066 3.989.387 5.438.687 1.453.301 3.707.985 5.023 1.473 1.32.492 3.32 1.43 4.485 2.067 1.16.632 2.894 1.773 3.89 2.507.992.735 2.45 1.993 3.278 2.786.828.792 2.019 2.109 2.687 2.921.672.817 1.613 2.145 2.137 2.95a38.354 38.354 0 0 1 1.64 2.855c.399.77.93 1.973 1.22 2.688.292.714.667 1.82.87 2.468.203.649.457 1.633.59 2.211.137.578.297 1.45.383 1.953.082.504.176 1.246.222 1.676a31.858 31.858 0 0 1 .172 2.602c.012.3.012.726.016.965 0 .242-.004.586-.008.777l-.015.61c-.004.152-.008.359-.012.472-.004.117-.008.273-.008.36 0 .085-.004.202-.004.265 0 .062 0 .148.004.195 0 .043.004.102.004.137.004.031.004.07.008.09 0 .023.004.05.008.062 0 .016.003.032.003.04.004.011.008.019.008.027 0 .004.004.011.004.011 0 .004 0 .008.004.008v.008h.004"/></g><path fill="none" stroke="#000" stroke-miterlimit="10" stroke-width=".79198687" d="M81.375 75.04v-.005l.004-.004v-.008s.004-.007.004-.011c.004-.008.004-.016.008-.028 0-.007.004-.023.007-.039 0-.011.004-.039.004-.062a.549.549 0 0 0 .008-.09c0-.035.004-.094.004-.137.004-.047.004-.133.004-.195 0-.063 0-.18-.004-.266 0-.086-.004-.242-.008-.36-.004-.112-.008-.32-.011-.468l-.016-.613c0-.191-.008-.535-.004-.777a35.908 35.908 0 0 1 .062-2.145 31.71 31.71 0 0 1 1.317-7.262c.203-.648.578-1.754.871-2.468.29-.715.82-1.914 1.215-2.684.398-.77 1.12-2.055 1.644-2.86.524-.804 1.465-2.132 2.137-2.949.668-.812 1.86-2.132 2.688-2.921.828-.793 2.28-2.047 3.277-2.782.992-.734 2.726-1.87 3.89-2.508 1.16-.632 3.165-1.578 4.485-2.07 1.32-.492 3.57-1.172 5.023-1.473 1.45-.3 3.887-.62 5.438-.687 1.55-.07 4.129 0 5.738.191 1.61.192 4.238.715 5.852 1.192 1.61.48 4.21 1.476 5.761 2.25 1.551.773 3.997 2.258 5.418 3.324 1.426 1.063 3.61 3.02 4.84 4.352 1.23 1.332 3.051 3.695 4.035 5.253.98 1.563 2.356 4.262 3.04 6 .687 1.735 1.546 4.672 1.902 6.52.355 1.848.664 4.906.664 6.79 0 1.882-.309 4.94-.664 6.788-.356 1.844-1.215 4.781-1.903 6.516-.683 1.738-2.066 4.433-3.05 5.996-.98 1.562-2.793 3.926-4.024 5.262-1.23 1.332-3.414 3.285-4.84 4.351-1.421 1.063-3.867 2.55-5.418 3.324-1.55.774-4.152 1.77-5.761 2.246-1.614.477-4.242 1-5.848 1.196-1.61.191-4.191.261-5.742.191-1.55-.066-3.988-.387-5.438-.687-1.453-.301-3.707-.985-5.023-1.473-1.32-.492-3.32-1.43-4.484-2.066-1.16-.633-2.895-1.774-3.891-2.508-.992-.735-2.45-1.992-3.277-2.785-.829-.793-2.02-2.11-2.688-2.922-.668-.817-1.613-2.145-2.137-2.95a38.354 38.354 0 0 1-1.64-2.855c-.399-.77-.93-1.973-1.219-2.687-.29-.715-.668-1.82-.871-2.47a35.021 35.021 0 0 1-.59-2.21 33.334 33.334 0 0 1-.379-1.953 31.86 31.86 0 0 1-.41-5.242c-.004-.243.004-.586.004-.778.004-.191.012-.46.016-.61.003-.152.007-.359.011-.472.004-.117.008-.273.008-.36.004-.085.004-.202.004-.265 0-.062 0-.148-.004-.195 0-.043-.004-.102-.004-.137a.549.549 0 0 0-.008-.09c0-.023-.004-.05-.004-.062a.225.225 0 0 1-.007-.04c-.004-.011-.004-.019-.008-.027 0-.003-.004-.011-.004-.011v-.008l-.004-.004v-.004"/><g clip-path="url(#b)"><path fill="none" stroke="#000" stroke-miterlimit="10" stroke-width=".39649029" d="M.516 75.04h219.472"/></g><g fill="#7F7F7F"><use xlink:href="#c" x="168.354" y="119.95"/><use xlink:href="#d" x="175.64" y="119.95"/><use xlink:href="#e" x="178.392" y="119.95"/></g><use xlink:href="#f" x="182.511" y="119.95" fill="#7F7F7F"/><g fill="#7F7F7F"><use xlink:href="#g" x="187.738" y="119.95"/><use xlink:href="#h" x="191.589" y="119.95"/><use xlink:href="#i" x="196.539" y="119.95"/></g><g fill="#7F7F7F"><use xlink:href="#g" x="201.766" y="119.95"/><use xlink:href="#j" x="205.617" y="119.95"/><use xlink:href="#i" x="210.013" y="119.95"/><use xlink:href="#i" x="215.517" y="119.95"/><use xlink:href="#j" x="221.022" y="119.95"/></g><use xlink:href="#k" x="11.718" y="35.93"/><use xlink:href="#d" x="19.282" y="35.93"/><use xlink:href="#l" x="22.034" y="35.93"/><use xlink:href="#m" x="27.816" y="35.93"/><use xlink:href="#n" x="32.766" y="35.93"/><path fill="none" stroke="#CCC" stroke-miterlimit="10" stroke-width=".0099371" d="M63.93 17.281v70.422M81.375 17.281v70.422"/><path fill="none" stroke="#7F7F7F" stroke-miterlimit="10" stroke-width=".39649029" d="M64.227 17.281h16.851"/><path fill="#7F7F7F" stroke="#7F7F7F" stroke-miterlimit="10" stroke-width=".39649029" d="m64.723 17.281 2.957 1.754v-3.504Zm0 0"/><path fill="none" stroke="#7F7F7F" stroke-miterlimit="10" stroke-width=".39649029" d="M64.129 19.559v-4.555"/><path fill="#7F7F7F" stroke="#7F7F7F" stroke-miterlimit="10" stroke-width=".39649029" d="m80.582 17.281-2.957-1.75v3.504Zm0 0"/><path fill="none" stroke="#7F7F7F" stroke-miterlimit="10" stroke-width=".39649029" d="M81.176 15.004v4.555"/><path fill="#FFF" d="M63.055 14.848H82.25V0H63.055Zm0 0"/><use xlink:href="#o" x="66.353" y="10.064" fill="#7F7F7F"/><use xlink:href="#p" x="72.709" y="11.549" fill="#7F7F7F"/><path fill="none" stroke="#CCC" stroke-miterlimit="10" stroke-width=".0099371" d="M81.375 17.281v70.422M206.59 17.281v70.422"/><path fill="none" stroke="#7F7F7F" stroke-miterlimit="10" stroke-width=".39649029" d="M81.672 17.281h124.62"/><path fill="#7F7F7F" stroke="#7F7F7F" stroke-miterlimit="10" stroke-width=".39649029" d="m82.164 17.281 2.957 1.754v-3.504Zm0 0"/><path fill="none" stroke="#7F7F7F" stroke-miterlimit="10" stroke-width=".39649029" d="M81.57 19.559v-4.555"/><path fill="#7F7F7F" stroke="#7F7F7F" stroke-miterlimit="10" stroke-width=".39649029" d="m205.797 17.281-2.953-1.75v3.504Zm0 0"/><path fill="none" stroke="#7F7F7F" stroke-miterlimit="10" stroke-width=".39649029" d="M206.39 15.004v4.555"/><path fill="#FFF" d="M134.281 24.707h19.403V9.859H134.28Zm0 0"/><use xlink:href="#o" x="137.581" y="19.923" fill="#7F7F7F"/><use xlink:href="#q" x="143.936" y="21.408" fill="#7F7F7F"/><path fill="none" stroke="#999" stroke-miterlimit="10" stroke-width=".0099371" d="M81.375 132.797V62.375M150.68 132.797V62.375"/><path fill="none" stroke="#000" stroke-miterlimit="10" stroke-width=".39649029" d="M81.672 132.797h68.71"/><path d="m82.164 132.797 2.957 1.75v-3.504Zm0 0"/><g clip-path="url(#r)"><path fill="none" stroke="#000" stroke-miterlimit="10" stroke-width=".39649029" d="m82.164 132.797 2.957 1.75v-3.504Zm0 0"/></g><path fill="none" stroke="#000" stroke-miterlimit="10" stroke-width=".39649029" d="M81.57 135.074v-4.554"/><path d="m149.89 132.797-2.956-1.754v3.504Zm0 0"/><g clip-path="url(#s)"><path fill="none" stroke="#000" stroke-miterlimit="10" stroke-width=".39649029" d="m149.89 132.797-2.956-1.754v3.504Zm0 0"/></g><path fill="none" stroke="#000" stroke-miterlimit="10" stroke-width=".39649029" d="M150.484 130.52v4.554"/><g clip-path="url(#t)"><path fill="#FFF" d="M106.32 140.219h19.414V125.37H106.32Zm0 0"/></g><use xlink:href="#o" x="109.622" y="135.435"/><use xlink:href="#u" x="115.977" y="136.92"/><path fill="none" stroke="#999" stroke-miterlimit="10" stroke-width=".0099371" d="M81.375 132.797V62.375M12.066 132.797V62.375"/><path fill="none" stroke="#000" stroke-miterlimit="10" stroke-width=".39649029" d="M81.078 132.797H12.363"/><path d="m80.582 132.797-2.957-1.754v3.504Zm0 0"/><g clip-path="url(#v)"><path fill="none" stroke="#000" stroke-miterlimit="10" stroke-width=".39649029" d="m80.582 132.797-2.957-1.754v3.504Zm0 0"/></g><path fill="none" stroke="#000" stroke-miterlimit="10" stroke-width=".39649029" d="M81.176 130.52v4.554"/><path d="m12.855 132.797 2.957 1.75v-3.504Zm0 0"/><g clip-path="url(#w)"><path fill="none" stroke="#000" stroke-miterlimit="10" stroke-width=".39649029" d="m12.855 132.797 2.957 1.75v-3.504Zm0 0"/></g><path fill="none" stroke="#000" stroke-miterlimit="10" stroke-width=".39649029" d="M12.262 135.074v-4.554"/><g clip-path="url(#x)"><path fill="#FFF" d="M37.016 140.219h19.41V125.37h-19.41Zm0 0"/></g><use xlink:href="#o" x="40.314" y="135.435"/><use xlink:href="#u" x="46.67" y="136.92"/></svg>