<svg xmlns="http://www.w3.org/2000/svg" xmlns:xlink="http://www.w3.org/1999/xlink" width="228.481" height="248.745"><defs><path id="a" d="M2.875-3.5c.828-.266 1.39-.969 1.39-1.75 0-.812-.859-1.375-1.827-1.375-1 0-1.75.61-1.75 1.36 0 .327.218.515.5.515.312 0 .515-.219.515-.5 0-.5-.469-.5-.625-.5.313-.484.969-.625 1.328-.625.406 0 .953.219.953 1.125 0 .11-.015.688-.28 1.125-.298.484-.642.5-.876.516a3.9 3.9 0 0 1-.39.03c-.079.017-.157.017-.157.126 0 .11.078.11.235.11h.437c.828 0 1.188.671 1.188 1.64 0 1.36-.688 1.64-1.125 1.64-.422 0-1.172-.171-1.516-.75.344.047.656-.171.656-.546 0-.36-.265-.563-.562-.563-.235 0-.547.14-.547.578 0 .907.922 1.563 2 1.563 1.219 0 2.125-.906 2.125-1.922 0-.813-.625-1.594-1.672-1.797m0 0"/><path id="b" d="M1.266-.766 2.313-1.78c1.546-1.375 2.156-1.922 2.156-2.907 0-1.14-.907-1.937-2.11-1.937C1.234-6.625.5-5.703.5-4.812c0 .546.5.546.531.546.157 0 .516-.109.516-.53a.513.513 0 0 0-.531-.516c-.079 0-.094 0-.125.015.218-.64.765-1.016 1.328-1.016.906 0 1.344.813 1.344 1.625 0 .797-.5 1.579-1.047 2.188L.609-.375C.5-.265.5-.235.5 0h3.688l.28-1.734h-.25c-.062.297-.124.734-.218.89-.078.078-.734.078-.953.078Zm0 0"/><path id="c" d="M4.578-3.187c0-.782-.062-1.579-.406-2.313-.453-.953-1.266-1.125-1.688-1.125-.593 0-1.328.266-1.734 1.188C.438-4.75.39-3.97.39-3.187c0 .75.032 1.64.438 2.406.438.797 1.156 1 1.64 1 .548 0 1.298-.203 1.735-1.156.313-.688.375-1.454.375-2.25M2.468 0c-.374 0-.968-.25-1.14-1.203-.11-.594-.11-1.516-.11-2.094 0-.64 0-1.297.079-1.828.187-1.187.922-1.281 1.172-1.281.328 0 .984.187 1.172 1.172.109.547.109 1.312.109 1.937 0 .75 0 1.422-.11 2.047C3.485-.297 2.923 0 2.47 0m0 0"/><path id="e" d="M2.922-1.64v.859c0 .36-.016.469-.75.469h-.219V0c.406-.031.922-.031 1.344-.031.422 0 .953 0 1.36.031v-.312h-.22c-.734 0-.75-.11-.75-.47v-.859h1v-.312h-1V-6.47c0-.203 0-.265-.156-.265-.094 0-.125 0-.203.125L.281-1.953v.312Zm.062-.313H.563l2.421-3.703Zm0 0"/><path id="f" d="M4.469-2c0-1.187-.828-2.172-1.89-2.172-.485 0-.907.156-1.267.5v-1.937c.204.062.532.14.844.14 1.219 0 1.922-.906 1.922-1.047 0-.046-.031-.109-.11-.109 0 0-.03 0-.077.031a3.13 3.13 0 0 1-1.344.297c-.406 0-.86-.078-1.328-.281-.078-.031-.094-.031-.11-.031C1-6.61 1-6.531 1-6.375v2.953c0 .172 0 .25.14.25.079 0 .094-.031.126-.094.109-.156.484-.687 1.28-.687.532 0 .767.453.86.64.156.36.172.75.172 1.25 0 .344 0 .938-.234 1.36-.25.39-.61.64-1.063.64-.734 0-1.297-.53-1.469-1.109.032.016.063.016.172.016.329 0 .5-.25.5-.485a.48.48 0 0 0-.5-.484c-.14 0-.484.063-.484.531C.5-.75 1.188.22 2.297.22 3.453.219 4.469-.734 4.469-2m0 0"/><path id="g" d="M2.922-6.36c0-.234 0-.265-.235-.265-.609.64-1.484.64-1.796.64v.313c.187 0 .78 0 1.297-.266V-.78c0 .36-.032.469-.922.469H.938V0c.359-.031 1.218-.031 1.609-.031.406 0 1.265 0 1.61.031v-.312h-.313c-.89 0-.922-.11-.922-.47Zm0 0"/><path id="d" d="M3.219-1.766c0-.796-.64-1.39-1.39-1.39-.782 0-1.376.656-1.376 1.39a1.384 1.384 0 1 0 2.766 0m-1.39 1c-.563 0-1-.453-1-1a1.01 1.01 0 0 1 1-1.015c.593 0 1.015.484 1.015 1.015a1 1 0 0 1-1.016 1m0 0"/><path id="h" d="M4.578-3.187c0-.782-.062-1.579-.406-2.313-.453-.953-1.266-1.125-1.688-1.125-.593 0-1.328.266-1.734 1.188C.438-4.75.39-3.97.39-3.187c0 .75.032 1.64.438 2.406.438.797 1.156 1 1.64 1 .548 0 1.298-.203 1.735-1.156.313-.688.375-1.454.375-2.25m-.828-.11c0 .75 0 1.422-.11 2.047C3.485-.297 2.923 0 2.47 0c-.375 0-.969-.25-1.14-1.203-.11-.594-.11-1.516-.11-2.094 0-.64 0-1.297.078-1.828.187-1.187.922-1.281 1.172-1.281.328 0 .984.187 1.172 1.172.109.547.109 1.312.109 1.937m0 0"/><path id="i" d="M2.016-.016c0-.625-.235-1.03-.641-1.03-.344 0-.516.265-.516.515 0 .265.172.531.516.531a.625.625 0 0 0 .406-.156 2.56 2.56 0 0 1-.703 1.86c-.047.062-.062.062-.062.109 0 .062.046.109.093.109.125 0 .907-.781.907-1.938m0 0"/><path id="j" d="M4.688-1.64v-.313h-1V-6.47c0-.203 0-.265-.157-.265-.094 0-.125 0-.203.125L.281-1.953v.312h2.64v.86c0 .36-.015.469-.75.469h-.218V0c.406-.031.922-.031 1.344-.031.422 0 .953 0 1.36.031v-.312h-.22c-.734 0-.75-.11-.75-.47v-.859Zm-1.704-.313H.563l2.421-3.703Zm0 0"/><path id="k" d="M4.547-2.031c0-1.266-.89-2.219-2-2.219-.672 0-1.031.516-1.235.984V-3.5c0-2.516 1.235-2.875 1.735-2.875.25 0 .656.063.875.406-.14 0-.547 0-.547.438 0 .312.25.468.453.468.172 0 .469-.093.469-.484 0-.594-.438-1.078-1.266-1.078-1.265 0-2.61 1.281-2.61 3.484C.422-.484 1.564.22 2.5.22c1.094 0 2.047-.938 2.047-2.25m-.906 0c0 .469 0 .969-.157 1.328-.296.594-.765.64-.984.64-.625 0-.937-.593-.984-.75-.188-.453-.188-1.25-.188-1.437 0-.766.328-1.766 1.219-1.766.156 0 .61 0 .922.61.172.375.172.875.172 1.375m0 0"/><path id="l" d="M4.547-1.672c0-.36-.11-.797-.5-1.219-.188-.203-.344-.312-.969-.703.703-.375 1.188-.89 1.188-1.547 0-.906-.875-1.484-1.782-1.484-1 0-1.796.734-1.796 1.672 0 .172.015.625.437 1.094.11.109.469.359.719.53C1.266-3.046.422-2.483.422-1.5.422-.453 1.438.219 2.469.219c1.125 0 2.078-.828 2.078-1.89M3.828-5.14c0 .563-.375 1.047-.969 1.391l-1.234-.797c-.469-.297-.5-.625-.5-.797 0-.61.64-1.031 1.344-1.031.734 0 1.36.516 1.36 1.234m.219 3.829c0 .734-.75 1.25-1.563 1.25C1.625-.062.922-.672.922-1.5c0-.578.312-1.219 1.156-1.687l1.219.78c.281.188.75.485.75 1.095m0 0"/><path id="m" d="M4.156 0v-.312h-.312c-.89 0-.922-.11-.922-.47v-5.577c0-.235 0-.266-.235-.266-.609.64-1.484.64-1.796.64v.313c.187 0 .78 0 1.297-.266V-.78c0 .36-.032.469-.922.469H.938V0c.359-.031 1.218-.031 1.609-.031.406 0 1.265 0 1.61.031m0 0"/><path id="n" d="M4.797-.89v-.547h-.25v.546c0 .579-.25.641-.36.641-.328 0-.359-.453-.359-.5v-1.984c0-.422 0-.797-.36-1.172-.39-.39-.89-.547-1.359-.547-.812 0-1.5.469-1.5 1.125 0 .297.204.469.454.469a.435.435 0 0 0 .453-.453c0-.126-.047-.454-.5-.47.265-.343.75-.452 1.078-.452.484 0 1.047.39 1.047 1.265v.375c-.5.031-1.203.063-1.828.36-.75.343-1 .859-1 1.297 0 .796.968 1.046 1.593 1.046.657 0 1.11-.39 1.297-.859.047.39.313.813.781.813.204 0 .813-.141.813-.954m-1.656-.5c0 .937-.72 1.28-1.157 1.28-.5 0-.906-.343-.906-.843 0-.547.422-1.375 2.063-1.438Zm0 0"/><path id="o" d="M5.172-2.14c0-1.266-.969-2.25-2.094-2.25-.781 0-1.203.468-1.375.64v-3.14l-1.422.109v.297c.688 0 .766.078.766.562V0h.25l.36-.61c.155.22.562.72 1.312.72 1.172 0 2.203-.97 2.203-2.25m-.813-.016c0 .375-.03.969-.312 1.406-.219.313-.594.64-1.125.64-.453 0-.813-.234-1.047-.609-.14-.203-.14-.234-.14-.422v-2.046c0-.188 0-.188.109-.344.39-.563.937-.64 1.172-.64.453 0 .812.25 1.047.64.265.406.296.969.296 1.375m0 0"/><path id="p" d="M4.125-1.187c0-.094-.094-.094-.125-.094-.094 0-.11.031-.14.093C3.577-.265 2.937-.14 2.562-.14c-.532 0-1.407-.421-1.407-2.03 0-1.61.828-2.032 1.344-2.032.094 0 .719.016 1.063.375-.407.015-.47.312-.47.453 0 .25.188.453.47.453.25 0 .453-.172.453-.469 0-.671-.75-1.062-1.516-1.062-1.25 0-2.156 1.078-2.156 2.312 0 1.266.984 2.25 2.125 2.25a1.626 1.626 0 0 0 1.656-1.296m0 0"/><path id="q" d="M5.234 0v-.312c-.687 0-.765-.063-.765-.547v-6.032l-1.438.11v.297c.703 0 .781.078.781.562v2.14a1.6 1.6 0 0 0-1.265-.609c-1.172 0-2.203.97-2.203 2.25 0 1.266.969 2.25 2.094 2.25.64 0 1.093-.343 1.343-.656V.11ZM3.781-1.172c0 .172 0 .203-.11.36-.296.484-.75.703-1.171.703-.453 0-.812-.266-1.047-.641-.266-.406-.297-.969-.297-1.375 0-.375.032-.969.313-1.406.203-.313.593-.64 1.125-.64.344 0 .765.14 1.078.593.11.172.11.187.11.375Zm0 0"/><path id="r" d="M5.953-1.844a.29.29 0 0 0 .031-.11c0-.015 0-.109-.109-.109-.094 0-.094.016-.187.188-.5 1.172-.875 1.61-2.172 1.61H2.063C2-.282 1.969-.282 1.969-.329c0-.063.015-.14.031-.188l.547-2.171h.86c.577 0 .702.109.702.359 0 0 0 .14-.062.36-.016.03-.016.077-.016.109 0 0 0 .109.11.109.093 0 .109-.047.14-.187l.422-1.657a.688.688 0 0 0 .031-.156c0-.078-.062-.125-.109-.125-.11 0-.11.063-.156.188-.157.624-.375.75-1.063.75H2.61l.485-1.907c.078-.281.078-.297.406-.297h1.234C5.688-5.14 6-4.953 6-4.25c0 .156-.047.36-.047.516 0 .093.063.125.125.125.11 0 .125-.063.14-.203l.141-1.344v-.14c0-.11-.093-.11-.234-.11H1.938c-.157 0-.25 0-.25.156 0 .11.109.11.234.11.031 0 .172 0 .312.015.157.016.172.031.172.11 0 .03-.015.077-.015.124L1.313-.625c-.063.297-.079.36-.672.36-.141 0-.25 0-.25.156C.39 0 .5 0 .64 0h4.297c.203 0 .203 0 .265-.14Zm0 0"/><path id="s" d="M5.203-1.797c0-.61-.36-.828-.953-.828-.547 0-.875.313-1.016.531-.125-.531-.734-.531-.906-.531-.547 0-.875.297-1.015.547h-.016v-.547l-.922.063v.234c.422 0 .469.031.469.328v1.516c0 .25-.063.25-.469.25V0c.047 0 .453-.031.719-.031.265 0 .656.031.718.031v-.234c-.406 0-.468 0-.468-.25v-1.063c0-.656.562-.89.937-.89.406 0 .5.25.5.624v1.329c0 .25-.062.25-.484.25V0c.047 0 .453-.031.719-.031.265 0 .672.031.734.031v-.234c-.422 0-.484 0-.484-.25v-1.063c0-.656.578-.89.937-.89.406 0 .5.25.5.624v1.329c0 .25-.062.25-.469.25V0c.047 0 .438-.031.72-.031.265 0 .655.031.718.031v-.234c-.406 0-.469 0-.469-.25Zm0 0"/><path id="t" d="M2.828-1.781c0-.547-.562-.875-1.234-.875-.282 0-.985.031-.985.531 0 .156.11.281.297.281a.27.27 0 0 0 .282-.281c0-.11-.047-.203-.157-.25.203-.094.5-.094.563-.094.422 0 .75.25.75.703v.157c-.281.015-.75.015-1.188.172-.39.14-.781.406-.781.812 0 .531.64.688 1.11.688.5 0 .796-.25.921-.485.047.313.25.453.453.453.032 0 .657 0 .657-.562V-.86h-.22v.312c0 .063 0 .328-.233.328-.235 0-.235-.265-.235-.328Zm-.484.937c0 .61-.625.719-.813.719-.312 0-.625-.203-.625-.5 0-.344.328-.766 1.438-.812Zm0 0"/><path id="u" d="m2.125-1.39.578-.626c.313-.296.64-.328.813-.328v-.234a4.191 4.191 0 0 1-.532.031c-.218 0-.578-.015-.625-.031v.234c.079.016.125.063.125.14 0 .095-.046.142-.218.345l-.297.297-.516-.547c-.062-.063-.062-.079-.062-.11 0-.094.093-.125.156-.125v-.234c-.14.015-.547.031-.688.031-.125 0-.484-.015-.609-.031v.234c.328 0 .453.016.594.172l.781.86c.047.03.047.046.047.046 0 .032-.531.579-.594.641-.156.156-.375.39-.875.39V0c.078 0 .344-.031.531-.031.094 0 .5.015.625.031v-.234c-.078 0-.125-.047-.125-.125 0-.11.079-.188.11-.22.156-.187.328-.359.484-.515l.531.563c.125.14.125.156.125.172 0 .062-.062.125-.156.125V0c.188-.016.64-.031.688-.031.218 0 .53.031.609.031v-.234c-.297 0-.437 0-.61-.172Zm0 0"/></defs><path fill="none" stroke="#BFBFBF" stroke-miterlimit="10" stroke-width=".39809427000000003" d="m10.172 103.918 146.86 123.23M7.104 108.297l166.028 95.855M4.843 113.145l180.153 65.57M3.461 118.309l188.8 33.289M2.997 123.633h191.711M3.461 128.96l188.8-33.29M4.845 134.126l180.152-65.57M7.106 138.973l166.027-95.86M10.172 143.352l146.86-123.23M77.047 167.016c23.96-23.961 23.96-62.805 0-86.762m10.848 97.605c29.945-29.949 29.945-78.504 0-108.449m10.843 119.293c35.938-35.937 35.938-94.203 0-130.14m10.844 140.988c41.93-41.93 41.93-109.906 0-151.832m10.848 162.676c47.914-47.918 47.914-125.602 0-173.52m10.843 184.363c53.907-53.906 53.907-141.3 0-195.207m10.844 206.051c59.899-59.894 59.899-157 0-216.898"/><path fill="none" stroke="#7F7F7F" stroke-miterlimit="10" stroke-width=".19854827" d="m157.031 227.148 3.25 2.727m12.852-25.723 3.676 2.121m8.187-27.558 3.988 1.45m3.278-28.567 4.18.738m-1.735-28.703h4.242m-6.687-27.961 4.18-.738m-11.446-26.38 3.988-1.449m-15.851-23.992 3.676-2.12M157.03 20.12l3.25-2.73M77.047 80.254l-3-3m13.848-7.844-3-3m13.843-7.848-3-2.996m13.844-7.847-3-3m13.848-7.844-3-3m13.843-7.844-3-3m13.844-7.847-3-3"/><use xlink:href="#a" x="161.46" y="242.371"/><use xlink:href="#b" x="166.43" y="242.371"/><use xlink:href="#c" x="171.4" y="242.371"/><use xlink:href="#d" x="176.37" y="238.57"/><use xlink:href="#a" x="179.551" y="216.867"/><use xlink:href="#a" x="184.521" y="216.867"/><use xlink:href="#c" x="189.491" y="216.867"/><use xlink:href="#d" x="194.461" y="213.065"/><use xlink:href="#a" x="192.425" y="188.389"/><use xlink:href="#e" x="197.395" y="188.389"/><use xlink:href="#c" x="202.365" y="188.389"/><use xlink:href="#d" x="207.335" y="184.588"/><use xlink:href="#a" x="199.603" y="158.073"/><use xlink:href="#f" x="204.573" y="158.073"/><use xlink:href="#c" x="209.543" y="158.073"/><use xlink:href="#d" x="214.513" y="154.272"/><use xlink:href="#c" x="207.489" y="127.132"/><use xlink:href="#d" x="212.459" y="123.331"/><use xlink:href="#g" x="199.677" y="96.617"/><use xlink:href="#c" x="204.647" y="96.617"/><use xlink:href="#d" x="209.617" y="92.815"/><use xlink:href="#b" x="192.715" y="66.675"/><use xlink:href="#c" x="197.685" y="66.675"/><use xlink:href="#d" x="202.656" y="62.872"/><use xlink:href="#a" x="180.172" y="38.474"/><use xlink:href="#c" x="185.142" y="38.474"/><use xlink:href="#d" x="190.112" y="34.672"/><use xlink:href="#e" x="162.487" y="13.116"/><use xlink:href="#c" x="167.457" y="13.116"/><use xlink:href="#d" x="172.427" y="9.315"/><path fill="none" stroke="#000" stroke-miterlimit="10" stroke-width="1.1932850799999999" d="M33.668 123.633h.012c.004-.004.011-.004.02-.008.007 0 .023-.008.038-.012a.616.616 0 0 0 .063-.027 4.48 4.48 0 0 0 .262-.121c.05-.028.144-.082.218-.121.074-.043.207-.121.305-.184.098-.062.273-.176.402-.262.125-.086.352-.242.516-.359.164-.117.453-.328.656-.484.203-.153.559-.43.809-.63.246-.195.68-.546.98-.792.297-.25.817-.684 1.172-.988.356-.305.969-.833 1.383-1.2.418-.363 1.137-.996 1.617-1.425.484-.43 1.313-1.172 1.871-1.668.555-.497 1.5-1.348 2.137-1.91.633-.567 1.715-1.532 2.434-2.165a483.39 483.39 0 0 1 2.746-2.402c.808-.7 2.18-1.875 3.086-2.633.902-.754 2.43-2.015 3.433-2.824 1.004-.805 2.695-2.14 3.805-2.984 1.11-.848 2.976-2.243 4.199-3.114a179.538 179.538 0 0 1 4.598-3.18c1.336-.886 3.57-2.32 5.015-3.195a155.147 155.147 0 0 1 5.407-3.11 155.03 155.03 0 0 1 5.808-2.976 142.315 142.315 0 0 1 6.192-2.742c1.77-.722 4.687-1.82 6.55-2.441 1.864-.621 4.93-1.551 6.871-2.047 1.938-.5 5.106-1.195 7.106-1.547 1.996-.352 5.25-.8 7.293-.988 2.039-.188 5.351-.356 7.41-.36 2.063-.004 5.383.137 7.434.332 2.054.192 5.351.657 7.363 1.059 2.008.402 5.184 1.23 7.117 1.848 1.938.617 4.996 1.777 6.828 2.609 1.832.828 4.68 2.34 6.375 3.375 1.692 1.04 4.309 2.875 5.836 4.105 1.528 1.235 3.84 3.368 5.164 4.778 1.32 1.41 3.27 3.824 4.36 5.39 1.09 1.563 2.656 4.196 3.496 5.883.84 1.688 1.988 4.5 2.558 6.282.575 1.78 1.274 4.718 1.567 6.554.293 1.836.558 4.828.558 6.684 0 1.855-.261 4.851-.554 6.687-.297 1.836-.996 4.77-1.57 6.551-.571 1.781-1.727 4.59-2.567 6.281-.84 1.688-2.399 4.32-3.488 5.887-1.09 1.563-3.04 3.977-4.36 5.387-1.324 1.41-3.636 3.547-5.164 4.781-1.527 1.23-4.14 3.063-5.836 4.102-1.695 1.039-4.543 2.546-6.375 3.379-1.832.832-4.89 1.988-6.828 2.609-1.933.617-5.11 1.441-7.117 1.848-2.012.402-5.313.867-7.363 1.058-2.051.195-5.364.34-7.422.336-2.063-.004-5.375-.176-7.418-.363-2.043-.188-5.297-.637-7.297-.988-2-.352-5.164-1.047-7.106-1.547-1.937-.5-5.007-1.426-6.87-2.051-1.864-.621-4.778-1.715-6.548-2.434-1.765-.718-4.519-1.949-6.187-2.746a149.556 149.556 0 0 1-5.813-2.976 155.367 155.367 0 0 1-5.41-3.11 174.487 174.487 0 0 1-5.011-3.191 211.402 211.402 0 0 1-4.602-3.18c-1.219-.875-3.09-2.27-4.2-3.117-1.109-.848-2.8-2.18-3.804-2.988a232.616 232.616 0 0 1-6.515-5.453 380.743 380.743 0 0 1-5.184-4.567c-.637-.566-1.582-1.414-2.137-1.91a675.428 675.428 0 0 0-3.488-3.098 124.061 124.061 0 0 0-2.555-2.183c-.3-.246-.734-.598-.98-.797l-.809-.63c-.203-.151-.492-.362-.652-.48-.164-.117-.395-.273-.52-.359-.129-.086-.304-.2-.402-.262a9.069 9.069 0 0 0-.523-.304c-.055-.028-.122-.059-.157-.078l-.105-.047c-.024-.008-.051-.02-.063-.024-.015-.008-.031-.011-.039-.015-.008 0-.015-.004-.02-.004-.003 0-.007 0-.007-.004h-.004"/><path fill="none" stroke="#000" stroke-miterlimit="10" stroke-width="1.1932850799999999" d="M33.668 123.633v.004h-.008c0 .004-.004.004-.004.004-.004.004-.008.004-.008.007-.003.004-.011.008-.015.012-.004 0-.012.008-.02.012-.004.008-.015.015-.027.023l-.04.035-.054.043a1.295 1.295 0 0 1-.07.063c-.024.02-.067.055-.094.082a4.338 4.338 0 0 1-.125.105c-.039.036-.11.094-.156.133-.05.043-.137.114-.2.164a14.072 14.072 0 0 1-.543.43c-.09.066-.25.187-.359.266-.11.078-.297.214-.43.3-.128.09-.35.235-.5.332-.152.094-.41.254-.585.356-.172.098-.47.266-.664.371a19.21 19.21 0 0 1-1.598.746c-.246.098-.656.254-.922.344-.266.09-.71.23-.996.308a21.13 21.13 0 0 1-1.063.254c-.3.059-.8.145-1.113.184-.312.039-.828.082-1.148.098-.317.011-.832.007-1.149-.008a13.654 13.654 0 0 1-1.136-.113c-.309-.047-.801-.149-1.094-.227a10.226 10.226 0 0 1-1.027-.348 8.496 8.496 0 0 1-.926-.457 6.789 6.789 0 0 1-.801-.562 5.999 5.999 0 0 1-.645-.656 4.937 4.937 0 0 1-.48-.723 4.293 4.293 0 0 1-.297-.777 4.022 4.022 0 0 1-.105-.805c0-.223.05-.582.105-.801.055-.219.188-.566.297-.777.11-.207.324-.535.48-.727.157-.191.446-.484.645-.652.2-.168.559-.422.8-.563.239-.144.657-.347.927-.46.27-.11.73-.266 1.027-.344.293-.079.785-.18 1.094-.23.308-.048.82-.095 1.136-.11.317-.02.832-.02 1.149-.008.32.012.836.059 1.148.098.313.039.809.12 1.113.183a17.583 17.583 0 0 1 2.06.559c.265.094.675.25.921.347a19.4 19.4 0 0 1 1.594.746 19.717 19.717 0 0 1 1.254.727c.148.094.37.242.5.328.129.09.32.223.43.305.109.078.269.195.359.266.093.07.222.171.3.23.075.062.184.148.243.2a15.621 15.621 0 0 1 .48.402c.027.023.07.058.094.082l.07.058a.81.81 0 0 1 .055.047c.012.012.031.023.039.031.012.008.023.02.027.024.008.008.016.011.02.015s.012.008.015.012c0 0 .004.004.008.004 0 .004.004.004.004.004.004 0 .004.004.004.004h.004"/><path fill="#FFF" d="M85.352 139.105h19.332v-15.273H85.352Zm0 0"/><use xlink:href="#h" x="88.665" y="133.875"/><use xlink:href="#i" x="93.635" y="133.875"/><use xlink:href="#j" x="96.398" y="133.875"/><path fill="#FFF" d="M116.027 138.996h19.328v-15.164h-19.328Zm0 0"/><use xlink:href="#h" x="119.338" y="133.765"/><use xlink:href="#i" x="124.308" y="133.765"/><use xlink:href="#k" x="127.071" y="133.765"/><path fill="#FFF" d="M146.7 138.996h19.331v-15.164H146.7Zm0 0"/><use xlink:href="#h" x="150.012" y="133.765"/><use xlink:href="#i" x="154.982" y="133.765"/><use xlink:href="#l" x="157.746" y="133.765"/><path fill="#FFF" d="M181.242 137.078h11.594v-13.246h-11.594Zm0 0"/><use xlink:href="#m" x="184.553" y="133.765"/><path fill="#FFF" d="M181.242 123.434h11.594v-11.188h-11.594Zm0 0"/><use xlink:href="#n" x="184.553" y="120.012"/><path fill="#FFF" d="M157.957 123.434h12.152V109.8h-12.152Zm0 0"/><use xlink:href="#o" x="161.269" y="120.012"/><path fill="#FFF" d="M135.508 123.434h11.039v-11.188h-11.04Zm0 0"/><use xlink:href="#p" x="138.821" y="120.012"/><path fill="#FFF" d="M104.277 123.434h12.153V109.8h-12.153Zm0 0"/><use xlink:href="#q" x="107.59" y="120.012"/><path fill="none" stroke="#000" stroke-miterlimit="10" stroke-width=".79519081" d="M2.996 123.633h194.777"/><path stroke="#000" stroke-miterlimit="10" stroke-width=".79519081" d="m201.582 123.633-3.613-2.176v4.356Zm0 0"/><use xlink:href="#r" x="199.056" y="132.58"/><path fill="none" stroke="#000" stroke-miterlimit="10" stroke-width=".39709654" d="M192.309 136.129h20.132"/><use xlink:href="#r" x="192.307" y="144.202"/><use xlink:href="#s" x="198.499" y="145.196"/><use xlink:href="#t" x="204.463" y="145.196"/><use xlink:href="#u" x="208.108" y="145.196"/><path fill="none" stroke="#000" stroke-miterlimit="10" stroke-width="1.1932850799999999" d="M33.668 141.973v-36.68m6.879 34.387v-32.094m6.879 29.8V109.88m6.875 25.215v-22.926M61.18 132.8v-18.34m6.879 16.05v-13.757"/></svg>