<svg xmlns="http://www.w3.org/2000/svg" xmlns:xlink="http://www.w3.org/1999/xlink" width="112.97" height="37.75"><defs><path id="e" d="M4.781-.875v-.562h-.25v.562c0 .563-.25.625-.36.625-.327 0-.359-.437-.359-.484V-2.72c0-.422 0-.797-.359-1.172a1.94 1.94 0 0 0-1.36-.546C1.282-4.437.61-3.97.61-3.312c0 .296.188.468.454.468a.444.444 0 0 0 .453-.453c0-.125-.047-.453-.5-.469.265-.343.75-.453 1.062-.453.485 0 1.047.39 1.047 1.266v.375c-.5.031-1.203.062-1.812.36-.75.327-1 .843-1 1.28C.313-.14 1.28.11 1.906.11 2.546.11 3-.28 3.188-.75c.046.39.312.813.78.813.204 0 .813-.141.813-.938m-1.656-.516c0 .954-.719 1.282-1.156 1.282-.485 0-.89-.344-.89-.844 0-.547.421-1.36 2.046-1.422Zm0 0"/><path id="f" d="M7.125-6.516c0-.046.031-.093.031-.156 0-.078-.062-.078-.25-.078H2.734c-.234 0-.25 0-.312.188l-.547 1.78a.793.793 0 0 0-.031.141c0 .016 0 .11.125.11.093 0 .11-.063.125-.094.375-1.172.89-1.828 2.437-1.828h1.61L.609-.266c0 .016-.03.141-.03.172C.578 0 .64 0 .828 0h4.296c.234 0 .25-.016.313-.203l.687-2.188a.497.497 0 0 0 .047-.14c0-.047-.047-.11-.125-.11-.094 0-.11.047-.172.25-.437 1.344-.906 2.047-2.594 2.047H1.594Zm0 0"/><path id="g" d="M4.61-3.64H.78a.23.23 0 0 0-.234.234c0 .125.11.219.234.219H4.61c.125 0 .235-.094.235-.22a.23.23 0 0 0-.235-.234m0 1.765H.78a.24.24 0 0 0-.234.234c0 .125.11.22.234.22H4.61c.125 0 .235-.095.235-.22a.24.24 0 0 0-.235-.234m0 0"/><path id="h" d="M4.438-1.984c0-1.188-.813-2.172-1.875-2.172-.47 0-.907.156-1.25.5v-1.922c.187.062.515.125.828.125 1.218 0 1.922-.89 1.922-1.031 0-.047-.032-.11-.11-.11 0 0-.031 0-.078.032a3.198 3.198 0 0 1-1.344.296c-.39 0-.844-.078-1.312-.28-.078-.032-.094-.032-.125-.032C1-6.578 1-6.5 1-6.344v2.938c0 .172 0 .25.14.25.063 0 .079-.031.126-.094.109-.156.468-.687 1.28-.687.517 0 .75.453.829.64.172.36.188.75.188 1.235 0 .343 0 .937-.235 1.359-.25.39-.61.64-1.062.64-.72 0-1.282-.515-1.453-1.109.03.016.062.031.171.031.329 0 .485-.25.485-.484 0-.25-.157-.484-.485-.484-.14 0-.484.062-.484.515C.5-.734 1.172.22 2.281.22c1.156 0 2.157-.953 2.157-2.203m0 0"/><path id="i" d="M4.547-3.172c0-.781-.047-1.578-.39-2.312-.454-.938-1.266-1.11-1.688-1.11-.594 0-1.313.266-1.719 1.188-.312.672-.36 1.453-.36 2.234 0 .75.032 1.64.438 2.39a1.83 1.83 0 0 0 1.64 1C3 .219 3.75.017 4.189-.936c.312-.672.359-1.454.359-2.235M2.469 0c-.39 0-.969-.25-1.156-1.203-.11-.594-.11-1.5-.11-2.078 0-.64 0-1.281.078-1.828.188-1.172.938-1.266 1.188-1.266.328 0 .969.188 1.156 1.156.11.563.11 1.313.11 1.938 0 .734 0 1.406-.11 2.047C3.469-.297 2.906 0 2.469 0m0 0"/><clipPath id="a"><path d="M.355 6H104v7H.355Zm0 0"/></clipPath><clipPath id="b"><path d="M.355 6H92v1H.355Zm0 0"/></clipPath><clipPath id="c"><path d="M101 34h5v3.5h-5Zm0 0"/></clipPath><clipPath id="d"><path d="M96 28h15v9.5H96Zm0 0"/></clipPath></defs><g clip-path="url(#a)"><path fill="none" stroke="#000" stroke-miterlimit="10" stroke-width=".39637458000000003" d="M103.516 6.309H91.457m-78.848 0H.555v5.914h14.422m0 0"/></g><path fill="none" stroke="#000" stroke-miterlimit="10" stroke-width=".79175574" d="M14.977 12.223h74.117c1.304 0 2.363-2.645 2.363-5.914 0-3.266-1.059-5.91-2.363-5.91H14.977c-1.309 0-2.368 2.644-2.368 5.91 0 3.27 1.059 5.914 2.368 5.914"/><path fill="none" stroke="#000" stroke-miterlimit="10" stroke-width=".79175574" d="M14.977 12.223c1.304 0 2.363-2.645 2.363-5.914 0-3.266-1.059-5.91-2.363-5.91"/><path fill="none" stroke="#000" stroke-miterlimit="10" stroke-width=".39637458000000003" d="M14.977 6.309h-2.368"/><path fill="#FFF" stroke="#000" stroke-miterlimit="10" stroke-width=".39637458000000003" d="M105.09 6.309a1.575 1.575 0 1 0-1.574 1.578c.87 0 1.574-.707 1.574-1.578Zm0 0"/><path stroke="#000" stroke-miterlimit="10" stroke-width=".39637458000000003" d="M16.55 12.223a1.575 1.575 0 1 0-3.154.002 1.575 1.575 0 0 0 3.155-.002Zm0 0"/><g clip-path="url(#b)"><path fill="none" stroke="#000" stroke-dasharray="2.9691634986 2.9691634986" stroke-miterlimit="10" stroke-width=".39637458000000003" d="M91.457 6.309H.555"/></g><path fill="none" stroke="#000" stroke-miterlimit="10" stroke-width=".39637458000000003" d="M103.516 35.727H89.094V12.223m0 0"/><g clip-path="url(#c)"><path fill="#FFF" d="M105.09 35.727a1.575 1.575 0 1 0-1.574 1.578c.87 0 1.574-.707 1.574-1.578m0 0"/></g><g clip-path="url(#d)"><path fill="none" stroke="#000" stroke-miterlimit="10" stroke-width=".39637458000000003" d="M105.09 35.727a1.575 1.575 0 1 0-1.574 1.578c.87 0 1.574-.707 1.574-1.578Zm0 0"/></g><path stroke="#000" stroke-miterlimit="10" stroke-width=".39637458000000003" d="M90.668 12.223a1.575 1.575 0 1 0-1.574 1.578c.87 0 1.574-.707 1.574-1.578Zm0 0"/><use xlink:href="#e" x="101.041" y="23.18"/><use xlink:href="#f" x="37.482" y="22.483"/><use xlink:href="#g" x="47.389" y="22.483"/><use xlink:href="#h" x="55.224" y="22.483"/><use xlink:href="#i" x="60.173" y="22.483"/></svg>