<svg xmlns="http://www.w3.org/2000/svg" xmlns:xlink="http://www.w3.org/1999/xlink" width="165.171" height="45.626"><defs><path id="f" d="M4.766-.875v-.562h-.25v.562c0 .563-.235.625-.344.625-.328 0-.375-.437-.375-.484V-2.72c0-.406 0-.797-.344-1.156-.39-.39-.89-.547-1.36-.547-.812 0-1.484.469-1.484 1.11 0 .296.188.468.454.468a.444.444 0 0 0 .453-.453c0-.125-.047-.453-.516-.453.281-.344.75-.453 1.078-.453.485 0 1.047.375 1.047 1.266v.359c-.516.031-1.203.062-1.828.36-.734.327-.984.843-.984 1.28C.313-.14 1.28.11 1.89.11 2.547.11 3-.28 3.188-.75c.046.39.312.813.765.813.219 0 .813-.141.813-.938m-1.641-.5c0 .938-.719 1.266-1.156 1.266-.485 0-.89-.344-.89-.844 0-.531.405-1.36 2.046-1.422Zm0 0"/><path id="g" d="M5.14-2.14c0-1.25-.968-2.22-2.093-2.22-.766 0-1.188.454-1.344.641v-3.14L.281-6.75v.313c.688 0 .766.062.766.546V0h.25l.36-.61c.14.22.562.72 1.28.72 1.188 0 2.204-.97 2.204-2.25m-.812 0c0 .359-.016.953-.312 1.406-.203.297-.578.625-1.11.625-.453 0-.797-.235-1.047-.61-.125-.203-.125-.234-.125-.406v-2.031c0-.188 0-.203.11-.36A1.409 1.409 0 0 1 3-4.14c.453 0 .797.25 1.031.625.266.407.297.97.297 1.375m0 0"/><path id="h" d="M7.11-6.5c.015-.047.03-.094.03-.156 0-.094-.046-.094-.25-.094H2.72c-.235 0-.235.016-.297.203l-.547 1.781a.58.58 0 0 0-.031.141s0 .11.125.11c.078 0 .11-.079.125-.11.375-1.156.89-1.812 2.422-1.812h1.609L.609-.266c0 .016-.03.141-.03.172C.578 0 .64 0 .812 0h4.296c.25 0 .25-.016.313-.203l.703-2.172c0-.047.031-.11.031-.156 0-.047-.031-.11-.125-.11-.093 0-.093.047-.172.25-.421 1.344-.906 2.063-2.578 2.063H1.594Zm0 0"/><path id="i" d="M4.61-3.64H.78a.24.24 0 0 0-.234.234c0 .125.11.219.234.219H4.61a.214.214 0 0 0 .22-.22c0-.124-.095-.234-.22-.234m0 1.78H.78c-.125 0-.234.094-.234.22 0 .124.11.234.234.234H4.61c.125 0 .22-.11.22-.235a.214.214 0 0 0-.22-.218m0 0"/><path id="j" d="M4.438-1.984c0-1.172-.813-2.157-1.875-2.157-.485 0-.907.157-1.266.5v-1.921c.203.046.531.125.844.125 1.218 0 1.906-.907 1.906-1.032 0-.062-.031-.11-.094-.11-.015 0-.031 0-.078.032a3.26 3.26 0 0 1-1.344.281c-.39 0-.86-.062-1.312-.265-.078-.032-.11-.032-.125-.032C1-6.562 1-6.483 1-6.327v2.922c0 .172 0 .25.14.25.063 0 .079-.031.126-.078.109-.157.468-.703 1.265-.703.516 0 .766.468.844.64.156.36.188.75.188 1.25 0 .344 0 .938-.25 1.344-.235.39-.594.64-1.047.64-.72 0-1.282-.515-1.453-1.109.03.016.062.031.171.031.313 0 .485-.25.485-.484a.476.476 0 0 0-.485-.484c-.14 0-.484.062-.484.515C.5-.734 1.172.22 2.281.22c1.14 0 2.157-.953 2.157-2.203m0 0"/><path id="k" d="M4.547-3.156c0-.797-.047-1.578-.406-2.313-.453-.953-1.25-1.11-1.672-1.11-.594 0-1.313.266-1.719 1.173-.312.687-.36 1.453-.36 2.25 0 .734.032 1.625.438 2.375.422.797 1.14 1 1.625 1 .531 0 1.297-.203 1.719-1.14.328-.688.375-1.454.375-2.235M2.453 0c-.375 0-.969-.25-1.14-1.187-.11-.594-.11-1.516-.11-2.094 0-.625 0-1.281.078-1.813.188-1.172.938-1.265 1.172-1.265.328 0 .985.172 1.172 1.156.094.547.094 1.297.094 1.922 0 .75 0 1.422-.11 2.047C3.47-.297 2.906 0 2.453 0m0 0"/><clipPath id="a"><path d="M.262 0H14v14H.262Zm0 0"/></clipPath><clipPath id="b"><path d="M4 41h4v4.254H4Zm0 0"/></clipPath><clipPath id="c"><path d="M.262 36H14v9.254H.262Zm0 0"/></clipPath><clipPath id="d"><path d="M153 41h4v4.254h-4Zm0 0"/></clipPath><clipPath id="e"><path d="M147 36h15v9.254h-15Zm0 0"/></clipPath></defs><path fill="none" stroke="#000" stroke-miterlimit="10" stroke-width=".39575613000000004" d="M6.023 6.3h35.004m78.727 0h35.004"/><path fill="none" stroke="#000" stroke-miterlimit="10" stroke-width=".7905203900000001" d="M117.39.395h-74c-1.304 0-2.363 2.644-2.363 5.906 0 3.262 1.059 5.902 2.364 5.902h74c1.304 0 2.363-2.64 2.363-5.902S118.695.395 117.391.395"/><path fill="none" stroke="#000" stroke-miterlimit="10" stroke-width=".7905203900000001" d="M117.39.395c-1.3 0-2.359 2.644-2.359 5.906 0 3.262 1.059 5.902 2.36 5.902"/><path fill="none" stroke="#000" stroke-miterlimit="10" stroke-width=".39575613000000004" d="M117.39 6.3h2.364"/><path fill="#FFF" d="M7.598 6.3a1.575 1.575 0 1 0-3.148 0 1.575 1.575 0 0 0 3.148 0m0 0"/><g clip-path="url(#a)"><path fill="none" stroke="#000" stroke-miterlimit="10" stroke-width=".39575613000000004" d="M7.598 6.3a1.575 1.575 0 1 0-3.148 0 1.575 1.575 0 0 0 3.148 0Zm0 0"/></g><path fill="#FFF" stroke="#000" stroke-miterlimit="10" stroke-width=".39575613000000004" d="M156.332 6.3a1.575 1.575 0 1 0-3.148 0 1.575 1.575 0 0 0 3.148 0Zm0 0"/><path fill="none" stroke="#000" stroke-dasharray="2.9645308121 2.9645308121" stroke-miterlimit="10" stroke-width=".39575613000000004" d="M41.027 6.3h78.727"/><path fill="none" stroke="#000" stroke-miterlimit="10" stroke-width=".39575613000000004" d="M6.023 43.484h37.368v-31.28m0 0"/><g clip-path="url(#b)"><path fill="#FFF" d="M7.598 43.484a1.575 1.575 0 1 0-3.148 0 1.575 1.575 0 0 0 3.148 0m0 0"/></g><g clip-path="url(#c)"><path fill="none" stroke="#000" stroke-miterlimit="10" stroke-width=".39575613000000004" d="M7.598 43.484a1.575 1.575 0 1 0-3.148 0 1.575 1.575 0 0 0 3.148 0Zm0 0"/></g><path stroke="#000" stroke-miterlimit="10" stroke-width=".39575613000000004" d="M44.965 12.203a1.575 1.575 0 1 0-3.15 0 1.575 1.575 0 0 0 3.15 0Zm0 0"/><path fill="none" stroke="#000" stroke-miterlimit="10" stroke-width=".39575613000000004" d="M154.758 43.484H117.39v-31.28m0 0"/><g clip-path="url(#d)"><path fill="#FFF" d="M156.332 43.484a1.575 1.575 0 1 0-3.148 0 1.575 1.575 0 0 0 3.148 0m0 0"/></g><g clip-path="url(#e)"><path fill="none" stroke="#000" stroke-miterlimit="10" stroke-width=".39575613000000004" d="M156.332 43.484a1.575 1.575 0 1 0-3.148 0 1.575 1.575 0 0 0 3.148 0Zm0 0"/></g><path stroke="#000" stroke-miterlimit="10" stroke-width=".39575613000000004" d="M118.965 12.203a1.575 1.575 0 1 0-3.15 0 1.575 1.575 0 0 0 3.15 0Zm0 0"/><use xlink:href="#f" x="3.554" y="27.05"/><use xlink:href="#g" x="152.01" y="28.266"/><use xlink:href="#h" x="65.861" y="22.448"/><use xlink:href="#i" x="75.753" y="22.448"/><use xlink:href="#j" x="83.575" y="22.448"/><use xlink:href="#k" x="88.516" y="22.448"/></svg>