<svg xmlns="http://www.w3.org/2000/svg" xmlns:xlink="http://www.w3.org/1999/xlink" width="171.634" height="106.036"><defs><path id="a" d="m6.766-4.469-.188-2.218H.547L.359-4.47h.25c.125-1.578.282-1.906 1.766-1.906.188 0 .438 0 .531.016.219.046.219.14.219.375v5.203c0 .344 0 .469-1.047.469h-.39V0c.406-.031 1.406-.031 1.875-.031.453 0 1.468 0 1.874.031v-.312h-.406C4-.312 4-.437 4-.782v-5.202c0-.203 0-.328.172-.375.11-.016.375-.016.562-.016 1.5 0 1.641.328 1.782 1.906Zm0 0"/><path id="b" d="M7.234-.875c0-.047 0-.156-.14-.156-.11 0-.11.078-.11.156-.062.703-.406.875-.656.875-.484 0-.562-.5-.703-1.422L5.5-2.219c-.172-.625-.656-.953-1.203-1.14.953-.235 1.734-.844 1.734-1.61 0-.953-1.14-1.781-2.578-1.781H.343v.313h.235c.766 0 .781.109.781.468v5.203c0 .344-.015.454-.78.454H.343V0c.36-.031 1.062-.031 1.437-.031.39 0 1.094 0 1.453.031v-.312h-.25c-.75 0-.765-.11-.765-.454v-2.5h1.125c.156 0 .578 0 .922.329.375.359.375.671.375 1.328 0 .64 0 1.03.406 1.406.406.36.953.422 1.25.422.766 0 .937-.813.937-1.094M5-4.969c0 .688-.234 1.485-1.687 1.485H2.218v-2.563c0-.219 0-.344.203-.375.11-.016.39-.016.594-.016.89 0 1.984.032 1.984 1.47m0 0"/><path id="c" d="M7.172 0v-.312h-.188c-.515 0-.718-.047-.937-.344L3.969-3.812l1.36-1.985c.218-.312.546-.625 1.421-.64v-.313l-1.094.031c-.39 0-.86 0-1.265-.031v.313c.406.015.609.218.609.453 0 .093-.016.125-.078.234L3.797-4.094 2.516-6c-.016-.031-.063-.11-.063-.14 0-.126.219-.282.64-.298v-.312c-.343.031-1.062.031-1.437.031L.36-6.75v.313h.188c.547 0 .734.062.922.343l1.812 2.75-1.61 2.39c-.14.188-.437.642-1.437.642V0l1.094-.031c.375 0 .906 0 1.266.031v-.312c-.453 0-.625-.266-.625-.454 0-.078.031-.125.11-.234l1.39-2.078L5.03-.718a.272.272 0 0 1 .047.109c0 .125-.203.297-.64.297V0c.359-.031 1.078-.031 1.453-.031Zm0 0"/><path id="d" d="M7.078 0v-.312h-.172c-.593 0-.734-.063-.843-.391L3.938-6.875c-.063-.125-.079-.203-.235-.203-.156 0-.187.062-.234.203L1.422-.969c-.172.5-.578.657-1.11.657V0l1.016-.031L2.453 0v-.312c-.484 0-.734-.235-.734-.5 0-.032.015-.125.015-.141l.454-1.297h2.437l.531 1.516a.368.368 0 0 1 .032.125c0 .297-.563.297-.829.297V0c.36-.031 1.047-.031 1.422-.031ZM4.516-2.562h-2.22l1.11-3.204Zm0 0"/><path id="e" d="M7.078-6.437v-.313l-1.156.031-1.156-.031v.313c1.015 0 1.015.468 1.015.734v4.219L2.297-6.61c-.094-.125-.11-.141-.297-.141H.328v.313H.61c.157 0 .344.015.5.015.22.031.235.047.235.234v5.157c0 .265 0 .718-1.016.718V0l1.156-.031L2.641 0v-.312c-1.016 0-1.016-.454-1.016-.72v-5.14c.047.047.047.063.094.125L5.75-.125c.094.11.094.125.172.125.125 0 .125-.062.125-.25v-5.453c0-.266 0-.734 1.031-.734m0 0"/><clipPath id="f"><path d="M77 100h14v5.082H77Zm0 0"/></clipPath></defs><path fill="none" stroke="#000" stroke-miterlimit="10" stroke-width=".39540501000000006" d="M29.172 6.824h13.687m0 0h25.332m31.465 0h25.332m0 0h13.688"/><use xlink:href="#a" x="3.883" y="10.088"/><use xlink:href="#b" x="11.011" y="10.088"/><use xlink:href="#c" x="18.278" y="10.088"/><path fill="#FFF" stroke="#000" stroke-miterlimit="10" stroke-width=".39540501000000006" d="M30.742 6.824c0-.867-.703-1.574-1.57-1.574a1.575 1.575 0 0 0 0 3.148c.867 0 1.57-.707 1.57-1.574Zm0 0"/><path stroke="#000" stroke-miterlimit="10" stroke-width=".39540501000000006" d="M58.121 6.824c0-.867-.707-1.574-1.574-1.574-.867 0-1.574.707-1.574 1.574 0 .867.707 1.574 1.574 1.574.867 0 1.574-.707 1.574-1.574Zm0 0"/><path fill="none" stroke="#000" stroke-linejoin="bevel" stroke-miterlimit="10" stroke-width=".7898190300000001" d="M67.797 6.984c0-3.257 1.805-5.902 4.031-5.902 2.227 0 4.031 2.645 4.031 5.902 0-3.257 1.805-5.902 4.032-5.902 2.226 0 4.03 2.645 4.03 5.902 0-3.257 1.81-5.902 4.036-5.902 2.227 0 4.031 2.645 4.031 5.902 0-3.257 1.805-5.902 4.032-5.902 2.226 0 4.03 2.645 4.03 5.902"/><path stroke="#000" stroke-miterlimit="10" stroke-width=".39540501000000006" d="M112.875 6.824c0-.867-.707-1.574-1.574-1.574-.867 0-1.574.707-1.574 1.574 0 .867.707 1.574 1.574 1.574.867 0 1.574-.707 1.574-1.574Zm0 0"/><path fill="#FFF" stroke="#000" stroke-miterlimit="10" stroke-width=".39540501000000006" d="M140.25 6.824c0-.867-.703-1.574-1.574-1.574a1.574 1.574 0 0 0 0 3.148c.87 0 1.574-.707 1.574-1.574Zm0 0"/><use xlink:href="#d" x="142.164" y="10.36"/><use xlink:href="#e" x="149.568" y="10.36"/><use xlink:href="#a" x="156.973" y="10.36"/><path fill="none" stroke="#000" stroke-miterlimit="10" stroke-width=".39540501000000006" d="M56.547 6.824v37.133m0 7.867v37.133h13.687m0 0h13.688"/><path fill="none" stroke="#000" stroke-miterlimit="10" stroke-width=".7898190300000001" d="M68.344 43.957H44.75m23.594 7.867H44.75M48.238 39.578l20.106 20.11"/><path stroke="#000" stroke-miterlimit="10" stroke-width=".78980309" d="m45.309 36.648 1.113 4.47 3.351-3.352Zm0 0"/><path stroke="#000" stroke-miterlimit="10" stroke-width=".39540501000000006" d="M85.496 88.957a1.572 1.572 0 1 0-3.144-.004 1.572 1.572 0 0 0 3.144.004Zm0 0"/><path fill="none" stroke="#000" stroke-miterlimit="10" stroke-width=".39540501000000006" d="M111.3 6.824v37.133m0 7.867v37.133H97.614m0 0H83.922"/><path fill="none" stroke="#000" stroke-miterlimit="10" stroke-width=".7898190300000001" d="M123.098 43.957H99.504m23.594 7.867H99.504M102.988 39.578l20.11 20.11"/><path stroke="#000" stroke-miterlimit="10" stroke-width=".78980309" d="m100.063 36.648 1.113 4.47 3.351-3.352Zm0 0"/><path fill="none" stroke="#000" stroke-miterlimit="10" stroke-width=".39540501000000006" d="M83.922 88.957v11.797"/><g clip-path="url(#f)"><path fill="none" stroke="#000" stroke-miterlimit="10" stroke-width=".7898190300000001" d="M78.023 100.754h11.801m-9.832 1.965h7.863m-6.39 1.969h4.918"/></g></svg>