<svg xmlns="http://www.w3.org/2000/svg" xmlns:xlink="http://www.w3.org/1999/xlink" width="228.039" height="89.717"><defs><path id="a" d="M7.14-6.531c.016-.047.032-.094.032-.157 0-.093-.047-.093-.25-.093H2.734c-.234 0-.25.015-.296.203L1.89-4.797c-.032.047-.032.125-.032.14 0 .016 0 .11.11.11.093 0 .11-.062.14-.094.375-1.171.891-1.828 2.438-1.828h1.61L.608-.266s-.03.141-.03.172C.578 0 .64 0 .828 0H5.14c.234 0 .25-.016.312-.203l.703-2.188c0-.046.032-.109.032-.156s-.032-.11-.125-.11c-.094 0-.094.048-.172.25-.438 1.36-.907 2.063-2.594 2.063H1.594Zm0 0"/><path id="b" d="M2.328-4.406c0-.188-.015-.203-.219-.203-.437.437-1.062.453-1.359.453v.25c.172 0 .625 0 1.016-.203v3.547c0 .218 0 .312-.703.312h-.25V0c.109 0 .968-.031 1.234-.031C2.25-.031 3.125 0 3.28 0v-.25h-.265c-.688 0-.688-.094-.688-.312Zm0 0"/><path id="c" d="M3.5-1.266h-.234c-.016.157-.094.563-.172.641-.063.031-.594.031-.688.031H1.125c.734-.64.969-.828 1.39-1.156.516-.422.985-.844.985-1.5 0-.844-.734-1.36-1.625-1.36-.86 0-1.437.61-1.437 1.25 0 .344.296.391.375.391.156 0 .359-.125.359-.375 0-.125-.047-.375-.406-.375.218-.484.687-.64 1.015-.64.688 0 1.047.547 1.047 1.109 0 .594-.422 1.078-.656 1.328L.5-.266C.438-.203.438-.187.438 0h2.859Zm0 0"/></defs><path fill="none" stroke="#000" stroke-miterlimit="10" stroke-width="1.1909768" d="M18.812 16.793h44.211m0 0h44.215"/><path fill="none" stroke="#000" stroke-miterlimit="10" stroke-width="1.389141" d="M107.238 63.332h9.305"/><path fill="none" stroke="#FFF" stroke-miterlimit="10" stroke-width=".5954884" d="M107.238 63.332h9.305"/><path fill="none" stroke="#000" stroke-miterlimit="10" stroke-width="1.389141" d="M107.238 54.023h9.305"/><path fill="none" stroke="#FFF" stroke-miterlimit="10" stroke-width=".5954884" d="M107.238 54.023h9.305"/><path fill="none" stroke="#000" stroke-miterlimit="10" stroke-width="1.389141" d="M107.238 44.715h9.305"/><path fill="none" stroke="#FFF" stroke-miterlimit="10" stroke-width=".5954884" d="M107.238 44.715h9.305"/><path fill="none" stroke="#000" stroke-miterlimit="10" stroke-width="1.389141" d="M107.238 35.41h9.305"/><path fill="none" stroke="#FFF" stroke-miterlimit="10" stroke-width=".5954884" d="M107.238 35.41h9.305"/><path fill="none" stroke="#000" stroke-miterlimit="10" stroke-width="1.389141" d="M107.238 26.102h9.305"/><path fill="none" stroke="#FFF" stroke-miterlimit="10" stroke-width=".5954884" d="M107.238 26.102h9.305"/><path fill="none" stroke="#000" stroke-dasharray="2.976276914 2.976276914" stroke-miterlimit="10" stroke-width=".3973242" d="M.2 16.793h9.304M223.582 16.793h-9.309"/><path fill="none" stroke="#000" stroke-miterlimit="10" stroke-width=".3973242" d="M9.504 16.793h4.656m0 0h4.652"/><path fill="#FFF" stroke="#000" stroke-miterlimit="10" stroke-width=".3973242" d="M11.086 16.793a1.58 1.58 0 1 0-3.16.003 1.58 1.58 0 0 0 3.16-.003ZM20.395 16.793a1.58 1.58 0 1 0-3.16.003 1.58 1.58 0 0 0 3.16-.003Zm0 0"/><path stroke="#000" stroke-miterlimit="10" stroke-width=".3973242" d="M108.816 16.793a1.58 1.58 0 1 0-3.161.003 1.58 1.58 0 0 0 3.161-.003ZM118.125 16.793a1.58 1.58 0 1 0-3.16.003 1.58 1.58 0 0 0 3.16-.003Zm0 0"/><path fill="none" stroke="#000" stroke-miterlimit="10" stroke-width="1.1909768" d="M116.543 16.793h44.215m0 0h44.21"/><path fill="none" stroke="#000" stroke-miterlimit="10" stroke-width=".3973242" d="M204.969 16.793h4.652m0 0h4.652"/><path fill="#FFF" stroke="#000" stroke-miterlimit="10" stroke-width=".3973242" d="M206.547 16.793a1.58 1.58 0 1 0-3.161.003 1.58 1.58 0 0 0 3.16-.003ZM215.855 16.793a1.58 1.58 0 1 0-3.159.003 1.58 1.58 0 0 0 3.16-.003Zm0 0"/><path fill="none" stroke="#000" stroke-miterlimit="10" stroke-width=".3973242" d="M107.238 16.793v27.922m0 0V72.64"/><path stroke="#000" stroke-miterlimit="10" stroke-width=".3973242" d="M108.816 72.64a1.58 1.58 0 1 0-3.159-.004 1.58 1.58 0 0 0 3.16.005Zm0 0"/><path fill="none" stroke="#000" stroke-miterlimit="10" stroke-width=".3973242" d="M116.543 16.793v27.922m0 0V72.64"/><path stroke="#000" stroke-miterlimit="10" stroke-width=".3973242" d="M118.125 72.64a1.58 1.58 0 1 0-3.16-.003 1.58 1.58 0 0 0 3.16.004Zm0 0"/><use xlink:href="#a" x="106.278" y="10.133"/><use xlink:href="#b" x="113.051" y="11.621"/><use xlink:href="#a" x="106.278" y="84.593"/><use xlink:href="#c" x="113.051" y="86.081"/></svg>