<svg xmlns="http://www.w3.org/2000/svg" xmlns:xlink="http://www.w3.org/1999/xlink" width="227.579" height="78.133"><defs><clipPath id="a"><path d="M1.04 13H115v49H1.04Zm0 0"/></clipPath><clipPath id="b"><path d="M1.04 8H74v35H1.04Zm0 0"/></clipPath><clipPath id="c"><path d="M213 0h13.121v9H213Zm0 0"/></clipPath><clipPath id="d"><path d="M66 72h13v5.277H66Zm0 0"/></clipPath><path id="e" d="M4.422-1.984c0-1.172-.797-2.157-1.875-2.157-.469 0-.89.157-1.25.5v-1.921c.203.062.531.125.844.125 1.218 0 1.906-.891 1.906-1.016 0-.063-.031-.11-.11-.11 0 0-.015 0-.078.032-.187.078-.671.281-1.328.281-.406 0-.86-.062-1.312-.281-.078-.032-.11-.032-.125-.032-.094 0-.094.079-.094.25v2.907c0 .187 0 .265.14.265.063 0 .079-.03.126-.093.109-.157.468-.688 1.265-.688.516 0 .766.453.844.625.156.375.172.75.172 1.25 0 .344 0 .938-.235 1.344-.234.39-.593.64-1.062.64A1.507 1.507 0 0 1 .813-1.155c.03 0 .062.015.156.015.328 0 .5-.25.5-.484a.48.48 0 0 0-.5-.484c-.125 0-.469.062-.469.515C.5-.734 1.172.22 2.281.22c1.14 0 2.14-.953 2.14-2.203m0 0"/><path id="f" d="M4.531-3.156c0-.781-.047-1.578-.39-2.313-.453-.937-1.266-1.093-1.672-1.093-.594 0-1.313.25-1.719 1.171-.312.672-.36 1.454-.36 2.235 0 .734.032 1.625.438 2.375.422.797 1.14 1 1.625 1 .531 0 1.281-.203 1.719-1.14.312-.688.36-1.454.36-2.235M2.453 0c-.375 0-.969-.25-1.14-1.187-.11-.594-.11-1.5-.11-2.079 0-.64 0-1.296.078-1.828.188-1.172.922-1.25 1.172-1.25.328 0 .985.172 1.172 1.14.094.563.094 1.313.094 1.938 0 .735 0 1.407-.11 2.032C3.453-.297 2.906 0 2.453 0m0 0"/><path id="h" d="M4.688-6c.093-.125.093-.14.093-.344h-2.39c-1.203 0-1.235-.14-1.266-.328h-.25L.547-4.64h.25c.031-.156.125-.765.25-.89.062-.063.844-.063.969-.063h2.03c-.109.157-.874 1.235-1.093 1.563-.89 1.328-1.219 2.703-1.219 3.703 0 .094 0 .547.454.547.453 0 .453-.453.453-.547v-.5c0-.547.03-1.078.109-1.61.047-.234.172-1.078.61-1.687Zm0 0"/><path id="g" d="M4.922-2.516v-.218H0v.218Zm0 0"/></defs><g clip-path="url(#a)"><path fill="none" stroke="#000" stroke-miterlimit="10" stroke-width=".39462297" d="M1.238 25.531h10.137m51.027 0H72.54m0 0v10.34m0 14.973V61.18h8.91m0 0h20.797m0 0h11.883V40.36m0-5.887V13.648h-5.942m0 0h-5.941"/></g><g clip-path="url(#b)"><path fill="none" stroke="#000" stroke-miterlimit="10" stroke-width=".78825691" d="M60.047 19.645H13.73c-1.3 0-2.355 2.636-2.355 5.886s1.055 5.887 2.355 5.887h46.317c1.3 0 2.355-2.637 2.355-5.887 0-3.25-1.054-5.886-2.355-5.886"/></g><path fill="none" stroke="#000" stroke-miterlimit="10" stroke-width=".78825691" d="M60.047 19.645c-1.3 0-2.356 2.636-2.356 5.886s1.055 5.887 2.356 5.887"/><path fill="none" stroke="#000" stroke-miterlimit="10" stroke-width=".39462297" d="M60.047 25.531h2.355"/><path fill="none" stroke="#000" stroke-linejoin="bevel" stroke-miterlimit="10" stroke-width=".78825691" d="M72.379 35.477c2.758 0 4.992 1.761 4.992 3.941 0 2.176-2.234 3.937-4.992 3.937 2.758 0 4.992 1.766 4.992 3.942s-2.234 3.941-4.992 3.941"/><path stroke="#000" stroke-miterlimit="10" stroke-width=".39462297" d="M74.105 61.18c0-.867-.699-1.567-1.566-1.567-.867 0-1.57.7-1.57 1.567s.703 1.57 1.57 1.57c.867 0 1.566-.703 1.566-1.57ZM91.934 61.18c0-.867-.704-1.567-1.57-1.567-.868 0-1.571.7-1.571 1.567a1.57 1.57 0 0 0 3.14 0Zm0 0"/><path fill="none" stroke="#000" stroke-miterlimit="10" stroke-width=".78825691" d="M122.96 40.36h-17.663m17.664-5.887h-17.664M105.297 46.246l14.437-14.433"/><path stroke="#000" stroke-miterlimit="10" stroke-width=".7882330000000001" d="m122.402 29.14-4.054 1.005 1.523 1.527 1.527 1.527Zm0 0"/><path fill="none" stroke="#000" stroke-miterlimit="10" stroke-width=".39462297" d="M90.363 61.18v-8.793m0-29.946v-8.793h5.942m0 0h5.941v-5.94m0 0V1.765"/><path fill="none" stroke="#000" stroke-linejoin="bevel" stroke-miterlimit="10" stroke-width=".78825691" d="M90.52 52.781c-2.754 0-4.989-1.718-4.989-3.84 0-2.125 2.235-3.843 4.988-3.843-2.753 0-4.988-1.72-4.988-3.84 0-2.125 2.235-3.844 4.988-3.844-2.753 0-4.988-1.719-4.988-3.84 0-2.12 2.235-3.844 4.988-3.844-2.753 0-4.988-1.718-4.988-3.84 0-2.12 2.235-3.843 4.988-3.843"/><path stroke="#000" stroke-miterlimit="10" stroke-width=".39462297" d="M103.816 13.648a1.57 1.57 0 1 0-3.14 0 1.57 1.57 0 0 0 3.14 0ZM103.816 1.766a1.57 1.57 0 1 0-3.14 0 1.57 1.57 0 0 0 3.14 0Zm0 0"/><path fill="none" stroke="#000" stroke-miterlimit="10" stroke-width="1.18287988" d="M102.246 1.766h59.414m0 0h59.418"/><path fill="none" stroke="#000" stroke-miterlimit="10" stroke-width=".39462297" d="M221.078 1.766"/><path fill="#FFF" d="M222.648 1.766a1.57 1.57 0 1 0-3.14 0 1.57 1.57 0 0 0 3.14 0m0 0"/><g clip-path="url(#c)"><path fill="none" stroke="#000" stroke-miterlimit="10" stroke-width=".39462297" d="M222.648 1.766a1.57 1.57 0 1 0-3.14 0 1.57 1.57 0 0 0 3.14 0Zm0 0"/></g><path fill="none" stroke="#000" stroke-miterlimit="10" stroke-width=".39462297" d="M72.539 61.18H60.047V31.418m0 0"/><path stroke="#000" stroke-miterlimit="10" stroke-width=".39462297" d="M61.617 31.418a1.57 1.57 0 1 0-3.14 0 1.57 1.57 0 0 0 3.14 0Zm0 0"/><path fill="none" stroke="#000" stroke-miterlimit="10" stroke-width=".39462297" d="M72.539 61.18v11.777"/><g clip-path="url(#d)"><path fill="none" stroke="#000" stroke-miterlimit="10" stroke-width=".78825691" d="M66.648 72.957h11.778m-9.813 1.961h7.848m-6.375 1.965h4.906"/></g><use xlink:href="#e" x="23.749" y="16.164"/><use xlink:href="#f" x="28.675" y="16.164"/><use xlink:href="#g" x="33.602" y="16.164"/><use xlink:href="#h" x="38.529" y="16.164"/><use xlink:href="#e" x="43.455" y="16.164"/></svg>