<svg xmlns="http://www.w3.org/2000/svg" xmlns:xlink="http://www.w3.org/1999/xlink" width="105.861" height="44.835"><defs><path id="e" d="M7.203 0v-.312h-.187c-.516 0-.72-.047-.938-.36L3.984-3.828l1.36-2c.218-.313.562-.625 1.437-.64v-.313l-1.093.031c-.407 0-.875 0-1.266-.031v.312c.39.016.61.235.61.453 0 .11-.016.125-.095.235L3.813-4.11l-1.28-1.907c-.016-.03-.079-.109-.079-.156 0-.125.219-.281.656-.297v-.312c-.343.031-1.078.031-1.453.031L.36-6.781v.312h.204c.53 0 .734.063.921.344l1.813 2.766L1.672-.97c-.14.203-.438.657-1.438.657V0l1.11-.031c.36 0 .906 0 1.265.031v-.312c-.453 0-.625-.266-.625-.454 0-.093.032-.125.094-.234L3.5-3.078l1.563 2.36c.015.046.046.077.046.109 0 .125-.218.297-.64.297V0c.343-.031 1.062-.031 1.437-.031Zm0 0"/><path id="f" d="M7.14-6.531c.016-.047.032-.094.032-.157 0-.093-.047-.093-.25-.093H2.734c-.234 0-.25.015-.296.203L1.89-4.797c-.032.047-.032.125-.032.14 0 .016 0 .11.11.11.093 0 .11-.062.14-.094.375-1.171.891-1.828 2.438-1.828h1.61L.608-.266s-.03.141-.03.172C.578 0 .64 0 .828 0H5.14c.234 0 .25-.016.312-.203l.703-2.188c0-.046.032-.109.032-.156s-.032-.11-.125-.11c-.094 0-.094.048-.172.25-.438 1.36-.907 2.063-2.594 2.063H1.594Zm0 0"/><path id="g" d="M4.625-3.656H.781c-.125 0-.219.11-.219.234 0 .125.094.235.22.235h3.843a.24.24 0 0 0 .234-.235.24.24 0 0 0-.234-.234m0 1.781H.781c-.125 0-.219.094-.219.234 0 .125.094.22.22.22h3.843c.125 0 .234-.095.234-.22a.23.23 0 0 0-.234-.234m0 0"/><path id="h" d="M4.453-2c0-1.172-.812-2.172-1.89-2.172a1.7 1.7 0 0 0-1.25.516v-1.938c.203.063.515.125.843.125 1.219 0 1.906-.906 1.906-1.031 0-.062-.03-.11-.093-.11-.016 0-.031 0-.078.032a3.26 3.26 0 0 1-1.344.281c-.406 0-.86-.062-1.328-.266-.078-.03-.094-.03-.125-.03C1-6.594 1-6.517 1-6.36v2.937c0 .172 0 .25.14.25.063 0 .094-.015.126-.078.109-.156.484-.703 1.28-.703.517 0 .767.453.845.64.156.36.187.75.187 1.25 0 .344 0 .938-.25 1.36-.234.39-.594.64-1.062.64-.72 0-1.282-.515-1.453-1.109.03.016.062.016.171.016.329 0 .5-.25.5-.485a.48.48 0 0 0-.5-.484c-.14 0-.484.078-.484.531C.5-.75 1.188.22 2.297.22 3.437.219 4.453-.734 4.453-2m0 0"/><path id="i" d="M4.563-3.172c0-.797-.047-1.594-.391-2.328-.469-.953-1.281-1.11-1.688-1.11-.593 0-1.328.266-1.734 1.188-.312.672-.36 1.453-.36 2.25 0 .735.032 1.64.438 2.39.438.798 1.156 1 1.64 1C3 .219 3.767.017 4.204-.936c.313-.688.36-1.454.36-2.235M2.469 0c-.39 0-.969-.25-1.156-1.203-.11-.594-.11-1.5-.11-2.094 0-.625 0-1.281.094-1.828.187-1.172.922-1.266 1.172-1.266.328 0 .984.172 1.172 1.157.093.562.093 1.312.093 1.937 0 .75 0 1.422-.109 2.063C3.485-.297 2.922 0 2.469 0m0 0"/><clipPath id="a"><path d="M.125 0H91v24H.125Zm0 0"/></clipPath><clipPath id="b"><path d="M.125 0H17v24H.125Zm0 0"/></clipPath><clipPath id="c"><path d="M94 41h4v3.672h-4Zm0 0"/></clipPath><clipPath id="d"><path d="M88 35h15v9.672H88Zm0 0"/></clipPath></defs><g clip-path="url(#a)"><path fill="none" stroke="#000" stroke-miterlimit="10" stroke-width=".79407501" d="M2.895 12.258h74.332c1.312 0 2.375-2.656 2.375-5.93 0-3.277-1.063-5.93-2.375-5.93H2.895C1.582.398.52 3.051.52 6.328c0 3.274 1.062 5.93 2.375 5.93"/></g><g clip-path="url(#b)"><path fill="none" stroke="#000" stroke-miterlimit="10" stroke-width=".79407501" d="M2.895 12.258c1.308 0 2.37-2.656 2.37-5.93 0-3.277-1.062-5.93-2.37-5.93"/></g><path fill="none" stroke="#000" stroke-miterlimit="10" stroke-width=".39753567000000006" d="M79.602 6.328h7.656m0 0h7.66"/><path fill="#FFF" stroke="#000" stroke-miterlimit="10" stroke-width=".39753567000000006" d="M96.5 6.328a1.583 1.583 0 1 0-3.166.002 1.583 1.583 0 0 0 3.166-.002Zm0 0"/><path fill="none" stroke="#000" stroke-miterlimit="10" stroke-width=".39753567000000006" d="M77.227 12.258V42.89h18.382m0 0"/><path stroke="#000" stroke-miterlimit="10" stroke-width=".39753567000000006" d="M78.809 12.258c0-.871-.707-1.582-1.582-1.582a1.582 1.582 0 0 0 0 3.164 1.58 1.58 0 0 0 1.582-1.582Zm0 0"/><g clip-path="url(#c)"><path fill="#FFF" d="M97.188 42.89a1.58 1.58 0 1 0-3.16 0 1.58 1.58 0 1 0 3.16 0m0 0"/></g><g clip-path="url(#d)"><path fill="none" stroke="#000" stroke-miterlimit="10" stroke-width=".39753567000000006" d="M97.187 42.89a1.58 1.58 0 1 0-3.16 0 1.58 1.58 0 1 0 3.16 0Zm0 0"/></g><path fill="none" stroke="#000" stroke-dasharray="2.9778609939000003 2.9778609939000003" stroke-miterlimit="10" stroke-width=".39753567000000006" d="M2.895 6.328h76.707"/><path d="M3.785 6.328a.894.894 0 1 0-1.787-.002.894.894 0 0 0 1.787.002m0 0"/><use xlink:href="#e" x="91.539" y="27.999"/><use xlink:href="#f" x="25.466" y="22.549"/><use xlink:href="#g" x="35.402" y="22.549"/><use xlink:href="#h" x="43.26" y="22.549"/><use xlink:href="#i" x="48.223" y="22.549"/></svg>