<svg xmlns="http://www.w3.org/2000/svg" xmlns:xlink="http://www.w3.org/1999/xlink" width="227.016" height="147.882"><defs><path id="c" d="m3.563-.422-.126-.125c-.187.188-.28.203-.421.203-.203 0-.235-.25-.282-1.187L2.61-4.063c-.03-.843-.39-.921-.578-.921-.265 0-.531.218-.765.5l.078.109a.93.93 0 0 1 .515-.172c.188 0 .407.14.47 1.14v.298L.155 0l.14.078C.454.031.626 0 .814 0l1.546-2.594.079 1.688c.03.672.124.984.453.984.187 0 .484-.234.672-.5m0 0"/><path id="d" d="M.438-3.344c0 .156.14.281.28.281.126 0 .345-.124.345-.28 0-.063-.016-.11-.032-.157-.015-.047-.062-.11-.062-.172 0-.172.187-.437.703-.437.266 0 .625.187.625.875 0 .453-.156.828-.578 1.25l-.532.515C.485-.75.375-.406.375.016c0 0 .36-.016.594-.016h1.25c.219 0 .547.016.547.016.093-.375.172-.922.172-1.125-.032-.047-.126-.047-.204-.047-.125.515-.25.687-.5.687H.97c0-.343.484-.828.531-.86l.719-.687c.406-.39.703-.718.703-1.25 0-.78-.625-1.093-1.203-1.093-.797 0-1.281.593-1.281 1.015m0 0"/><path id="m" d="M1.36-.875v-1.328c.25 0 .452.078.593.265L3.078-.516c.14.188.25.375.25.485q0 .047.047.047C3.515 0 3.609 0 3.75 0c.25 0 .484 0 .734.016.032-.047.032-.188 0-.235-.218-.031-.421-.047-.64-.297L2.28-2.375c-.047-.062-.094-.125-.094-.187 0-.047.016-.094.25-.344l1.047-1.078c.329-.344.625-.375.907-.407.046-.03.046-.187 0-.234-.22.016-.453.016-.672.016-.266 0-.547 0-.813-.016-.047.047-.047.203 0 .234.25.032.5.063.203.375L1.922-2.75a.77.77 0 0 1-.563.266v-1.25c0-.594.125-.625.625-.657.047-.03.047-.187 0-.234-.328.016-.656.016-.921.016-.282 0-.61 0-.922-.016-.047.047-.047.203 0 .234.5.032.609.063.609.657v2.859c0 .594-.11.625-.61.656-.046.047-.046.188 0 .235C.454 0 .782 0 1.064 0c.265 0 .593 0 .921.016.047-.047.047-.188 0-.235-.5-.031-.625-.062-.625-.656m0 0"/><path id="g" d="M3.688-4.766a.95.95 0 0 0-.329-.406 1.16 1.16 0 0 0-.734-.25c-.906 0-1.398.79-1.469 2.36q.516-.406 1.219-.407.762 0 1.219.375.499.423.5 1.25-.001.798-.5 1.36c-.356.398-.809.593-1.36.593-.617 0-1.086-.257-1.406-.78Q.36-1.407.36-2.72q-.002-1.25.594-2.14c.445-.696 1.063-1.047 1.844-1.047.406 0 .726.074.969.218q.328.189.328.454-.001.375-.407.468M1.156-2.609Q1.17-1.484 1.5-.922c.195.356.469.531.813.531q.435.001.718-.343.296-.359.297-1.016-.001-1.219-1.015-1.219-.751 0-1.157.36m0 0"/><path id="h" d="M2.234-.39q1.092.001 1.094-2.516c0-1.664-.367-2.5-1.094-2.5-.73 0-1.093.836-1.093 2.5 0 1.68.363 2.515 1.093 2.515m-.046.5q-.862 0-1.36-.75Q.296-1.42.297-2.907c0-.977.187-1.735.562-2.266.352-.488.829-.734 1.422-.734q.873.001 1.36.734c.343.531.515 1.29.515 2.266q0 1.487-.562 2.265-.516.75-1.406.75m0 0"/><path id="i" d="M.844-1.094c0 .75-.094.797-.64.813-.048.062-.048.25 0 .297.312 0 .64-.016 1-.016.359 0 .702.016.984.016.062-.047.062-.235 0-.297-.532-.016-.641-.063-.641-.813v-4.11c0-.577.047-.937.047-.937 0-.062-.047-.093-.125-.093-.219.093-.89.218-1.25.25-.016.062 0 .218.062.265.516.032.563.063.563.735Zm0 0"/><path id="j" d="M.531-1.656c-.11.11-.11.343 0 .453H5.25c.11-.11.11-.344 0-.453Zm0-1.781c-.11.109-.11.343 0 .453H5.25c.11-.11.11-.344 0-.453Zm0 0"/><path id="l" d="M4-5.484c.656.046.656.297.469.78L3.062-1.14h-.03L1.593-4.766c-.203-.53-.14-.656.453-.718.062-.047.062-.235 0-.282-.36 0-.75.016-1.078.016-.313 0-.625-.016-.922-.016-.063.047-.047.235 0 .282.5.046.562.203.812.812L2.61-.094c.063.14.125.203.204.203.109 0 .171-.078.218-.203L4.875-4.64c.172-.421.313-.78.875-.843.063-.047.063-.235 0-.282-.266 0-.578.016-.781.016s-.61-.016-.969-.016c-.062.047-.062.235 0 .282m0 0"/><path id="k" d="M1.016-2.75c-.297 0-.5.219-.5.5a.49.49 0 0 0 .5.484.477.477 0 0 0 .484-.484.48.48 0 0 0-.484-.5m0 0"/><clipPath id="a"><path d="M216 2h10.035v16H216Zm0 0"/></clipPath><clipPath id="b"><path d="M106 .262h14V20h-14Zm0 0"/></clipPath><clipPath id="e"><path d="M96 10h130.035v45H96Zm0 0"/></clipPath><clipPath id="f"><path d="M98 133h21v14.504H98Zm0 0"/></clipPath></defs><path fill="none" stroke="#999" stroke-miterlimit="10" stroke-width=".0099568" d="M225.441 9.984"/><path fill="none" stroke="#000" stroke-miterlimit="10" stroke-width=".39727632" d="M.89 9.984h224.255"/><path stroke="#000" stroke-miterlimit="10" stroke-width=".39727632" d="m1.387 9.984 2.96 1.754V8.227Zm0 0"/><path fill="none" stroke="#000" stroke-miterlimit="10" stroke-width=".39727632" d="M.793 12.266V7.703"/><path d="m224.648 9.984-2.96-1.757v3.511Zm0 0"/><g clip-path="url(#a)"><path fill="none" stroke="#000" stroke-miterlimit="10" stroke-width=".39727632" d="m224.648 9.984-2.96-1.757v3.511Zm0 0"/></g><path fill="none" stroke="#000" stroke-miterlimit="10" stroke-width=".39727632" d="M225.246 7.703v4.563"/><g clip-path="url(#b)"><path fill="#FFF" d="M106.953 19.707h12.133V.257h-12.133Zm0 0"/></g><use xlink:href="#c" x="111.118" y="8.149"/><path fill="none" stroke="#000" stroke-miterlimit="10" stroke-width=".58048144" d="M111.117 10.113h3.801"/><use xlink:href="#d" x="111.357" y="16.72"/><g clip-path="url(#e)"><path fill="none" stroke="#000" stroke-miterlimit="10" stroke-width="1.1908332799999999" d="M113.02 26.848h106.8a5.62 5.62 0 0 1 5.621 5.62 5.62 5.62 0 0 1-5.62 5.622H117.515"/></g><path fill="none" stroke="#000" stroke-miterlimit="10" stroke-width="1.1908332799999999" d="M113.02 26.848H6.215a5.62 5.62 0 0 0-5.621 5.62 5.62 5.62 0 0 0 5.62 5.622h102.31"/><path fill="none" stroke="#000" stroke-miterlimit="10" stroke-width=".39727632" d="M108.523 38.09v11.242M97.754 51.23C81.418 57.176 72.996 75.242 78.94 91.578s24.012 24.758 40.348 18.813 24.758-24.008 18.813-40.348a31.48 31.48 0 0 0-18.813-18.813"/><path fill="none" stroke="#000" stroke-miterlimit="10" stroke-width=".39727632" d="M97.754 51.23c1.168-.425 1.426-2.66.578-4.996-.852-2.332-2.484-3.879-3.652-3.453-1.168.422-1.426 2.66-.575 4.992.848 2.336 2.485 3.883 3.649 3.457M119.29 51.23c1.163.426 2.8-1.12 3.647-3.457.852-2.332.594-4.57-.574-4.992-1.168-.426-2.8 1.121-3.648 3.453-.852 2.336-.594 4.57.574 4.996"/><path fill="none" stroke="#000" stroke-miterlimit="10" stroke-width=".39727632" d="M94.68 42.777c-21.004 7.649-31.836 30.871-24.192 51.875 7.645 21.008 30.871 31.836 51.875 24.192 21.004-7.645 31.836-30.871 24.192-51.875a40.49 40.49 0 0 0-24.192-24.192"/><path fill="none" stroke="#000" stroke-dasharray="2.9759182544000002 2.9759182544000002" stroke-miterlimit="10" stroke-width=".39727632" d="M92.75 48.477c-17.855 8.71-25.273 30.246-16.562 48.105 8.71 17.86 30.246 25.273 48.105 16.563 17.86-8.708 25.273-30.247 16.562-48.106a35.97 35.97 0 0 0-16.562-16.562"/><path fill="none" stroke="#000" stroke-miterlimit="10" stroke-width=".39727632" d="M117.516 38.09v7.422l3.312 1.492M108.523 38.09v6.746h-3.375m0 0h-3.37l-5.56 2.168"/><path stroke="#000" stroke-miterlimit="10" stroke-width=".39727632" d="M110.102 44.836a1.58 1.58 0 1 0-3.16-.005 1.58 1.58 0 0 0 3.16.005Zm0 0"/><path fill="#FFF" d="M104.023 49.332v89.941h8.997V49.332Zm0 0"/><path fill="none" stroke="#000" stroke-miterlimit="10" stroke-width=".39727632" d="M113.02 49.332v89.941M104.023 49.332v89.941"/><path fill="none" stroke="#000" stroke-dasharray="2.9759182544000002 2.9759182544000002" stroke-miterlimit="10" stroke-width=".39727632" d="M108.523 54.953v85.442"/><path fill="none" stroke="#000" stroke-miterlimit="10" stroke-width=".39727632" d="M113.02 26.848V38.09m0 0v11.242"/><path stroke="#000" stroke-miterlimit="10" stroke-width=".39727632" d="M114.598 26.848c0-.871-.707-1.582-1.578-1.582a1.583 1.583 0 0 0 0 3.164c.87 0 1.578-.711 1.578-1.582ZM114.598 49.332a1.58 1.58 0 1 0-3.161.003 1.58 1.58 0 0 0 3.16-.003Zm0 0"/><path fill="none" stroke="#000" stroke-miterlimit="10" stroke-width=".39727632" d="m113.02 49.332 3.132.95m0 0 3.137.948"/><path stroke="#000" stroke-miterlimit="10" stroke-width=".39727632" d="M120.867 51.23a1.58 1.58 0 1 0-3.161.003 1.58 1.58 0 0 0 3.161-.003Zm0 0"/><path fill="none" stroke="#000" stroke-miterlimit="10" stroke-width=".39727632" d="m104.023 49.332-3.132.95m0 0-3.137.948"/><path stroke="#000" stroke-miterlimit="10" stroke-width=".39727632" d="M105.605 49.332a1.58 1.58 0 1 0-3.159.003 1.58 1.58 0 0 0 3.16-.003ZM99.336 51.23a1.58 1.58 0 1 0-3.16.003 1.58 1.58 0 0 0 3.16-.003Zm0 0"/><path fill="none" stroke="#000" stroke-miterlimit="10" stroke-width=".39727632" d="M113.02 49.332c0-1.242-2.016-2.25-4.497-2.25-2.484 0-4.5 1.008-4.5 2.25s2.016 2.25 4.5 2.25c2.48 0 4.497-1.008 4.497-2.25"/><g clip-path="url(#f)"><path fill="none" stroke="#000" stroke-miterlimit="10" stroke-width=".39727632" d="M113.02 139.273c0 1.243-2.016 2.247-4.497 2.247-2.484 0-4.5-1.004-4.5-2.247"/></g><path fill="none" stroke="#000" stroke-miterlimit="10" stroke-width=".39727632" d="M108.523 141.52v4.5"/><use xlink:href="#g" x="87.746" y="144.422"/><use xlink:href="#h" x="92.21" y="144.422"/><path fill="none" stroke="#000" stroke-miterlimit="10" stroke-width=".39727632" d="m140.285 112.574 8.098 8.098"/><path stroke="#000" stroke-miterlimit="10" stroke-width=".39727233000000006" d="m138.121 110.41.852 3.336 1.242-1.242 1.242-1.238Zm0 0"/><use xlink:href="#i" x="151.556" y="133.045"/><use xlink:href="#j" x="156.386" y="133.045"/><use xlink:href="#c" x="165.848" y="128.759"/><path fill="none" stroke="#000" stroke-miterlimit="10" stroke-width=".58048144" d="M165.848 130.723h3.8"/><use xlink:href="#d" x="166.087" y="137.33"/><use xlink:href="#k" x="172.822" y="133.045"/><use xlink:href="#l" x="176.831" y="133.045"/><use xlink:href="#m" x="182.651" y="134.92"/></svg>