<svg xmlns="http://www.w3.org/2000/svg" xmlns:xlink="http://www.w3.org/1999/xlink" width="224.235" height="192.229"><defs><path id="b" d="M4.797-.89v-.547h-.25v.546c0 .579-.25.641-.36.641-.328 0-.375-.437-.375-.5v-1.984c0-.407 0-.797-.343-1.172a1.949 1.949 0 0 0-1.36-.531c-.812 0-1.5.453-1.5 1.109 0 .297.188.469.454.469a.435.435 0 0 0 .453-.453c0-.126-.047-.454-.5-.454.265-.359.75-.468 1.062-.468.485 0 1.063.39 1.063 1.28v.36c-.516.031-1.203.063-1.828.36-.75.343-1 .859-1 1.297 0 .796.968 1.046 1.593 1.046.657 0 1.11-.39 1.297-.859.047.39.313.813.781.813.204 0 .813-.141.813-.954m-1.656-.5c0 .937-.72 1.28-1.172 1.28-.485 0-.89-.343-.89-.843 0-.547.421-1.375 2.062-1.422Zm0 0"/><path id="c" d="M8.063 0v-.312c-.516 0-.766 0-.766-.297V-2.5c0-.86 0-1.156-.313-1.516-.14-.171-.468-.375-1.046-.375-.829 0-1.266.594-1.438.985-.14-.875-.875-.985-1.312-.985-.735 0-1.188.438-1.47 1.047V-4.39l-1.405.11v.312c.703 0 .78.063.78.563V-.75c0 .438-.109.438-.78.438V0l1.125-.031L2.547 0v-.312c-.656 0-.766 0-.766-.438v-1.828c0-1.031.703-1.594 1.328-1.594.625 0 .735.547.735 1.11V-.75c0 .438-.11.438-.766.438V0l1.125-.031L5.313 0v-.312c-.672 0-.782 0-.782-.438v-1.828c0-1.031.703-1.594 1.344-1.594.625 0 .734.547.734 1.11V-.75c0 .438-.109.438-.78.438V0l1.124-.031Zm0 0"/><path id="d" d="M5.172-2.14c0-1.266-.969-2.25-2.11-2.25-.765 0-1.203.468-1.359.656v-3.157l-1.422.11v.312c.688 0 .766.063.766.563V0h.25l.36-.61c.155.22.562.72 1.296.72a2.234 2.234 0 0 0 2.219-2.25m-.828-.016c0 .375-.016.969-.313 1.406-.203.313-.578.64-1.11.64-.452 0-.812-.234-1.046-.609-.14-.203-.14-.234-.14-.406v-2.047c0-.187 0-.203.109-.36.39-.562.937-.64 1.172-.64.453 0 .797.266 1.047.64.25.407.28.97.28 1.376m0 0"/><path id="e" d="M4.531-1.672c0-.36-.11-.797-.484-1.219-.188-.203-.344-.296-.984-.703.718-.36 1.203-.875 1.203-1.531 0-.922-.875-1.484-1.782-1.484-1 0-1.796.734-1.796 1.656 0 .187.015.625.437 1.094.11.125.469.359.719.53C1.266-3.03.422-2.483.422-1.5c0 1.047 1 1.719 2.047 1.719 1.125 0 2.062-.828 2.062-1.89m-.703-3.453c0 .563-.39 1.031-.984 1.39L1.625-4.53c-.469-.297-.5-.64-.5-.813 0-.593.64-1.015 1.344-1.015.719 0 1.36.515 1.36 1.234m.203 3.813c0 .734-.734 1.25-1.547 1.25C1.625-.062.906-.672.906-1.5c0-.578.328-1.203 1.172-1.672l1.219.766c.281.187.734.484.734 1.094m0 0"/><path id="f" d="M7.14-6.531c.016-.047.032-.094.032-.157 0-.093-.047-.093-.25-.093H2.734c-.234 0-.25.015-.296.203L1.89-4.797c-.032.047-.032.125-.032.14 0 .016 0 .11.11.11.093 0 .11-.062.14-.094.375-1.171.891-1.828 2.438-1.828h1.61L.608-.266s-.03.141-.03.172C.578 0 .64 0 .828 0H5.14c.234 0 .25-.016.312-.203l.703-2.188c0-.046.032-.109.032-.156s-.032-.11-.125-.11c-.094 0-.094.048-.172.25-.438 1.36-.907 2.063-2.594 2.063H1.594Zm0 0"/><path id="g" d="M3.094-1.86c0-.374 0-.64-.313-.89-.281-.234-.625-.344-1.031-.344-.656 0-1.125.25-1.125.672 0 .219.156.328.328.328.188 0 .328-.125.328-.312 0-.125-.047-.266-.234-.328.25-.172.656-.172.687-.172.391 0 .813.25.813.844v.218c-.375.016-.844.032-1.344.219-.625.234-.828.61-.828.922 0 .594.734.766 1.219.766.562 0 .89-.313 1.031-.579.031.282.219.547.531.547.016 0 .703 0 .703-.656v-.39h-.25v.39c0 .063 0 .39-.25.39-.265 0-.265-.327-.265-.406Zm-.547.876c0 .672-.578.859-.89.859-.36 0-.688-.234-.688-.578 0-.375.328-.922 1.578-.969Zm0 0"/><path id="h" d="M3.578-2.11c0-.609-.297-.953-1.047-.953a1.23 1.23 0 0 0-1.125.672h-.015v-.671l-1.016.078v.25c.469 0 .516.046.516.39v1.797C.89-.25.828-.25.375-.25V0c.016 0 .5-.031.797-.031.25 0 .734.031.797.031v-.25c-.453 0-.516 0-.516-.297v-1.25c0-.734.563-1.078 1.031-1.078.485 0 .547.39.547.734v1.594c0 .297-.062.297-.515.297V0c.015 0 .5-.031.78-.031.267 0 .75.031.813.031v-.25c-.453 0-.53 0-.53-.297Zm0 0"/><path id="i" d="M1.39-2.75h1.094V-3H1.391v-1.281h-.235c0 .625-.281 1.312-.953 1.343v.188h.64v1.875c0 .781.595.938.985.938.453 0 .781-.391.781-.938v-.39h-.234v.374c0 .485-.219.735-.5.735-.484 0-.484-.578-.484-.703Zm0 0"/><path id="j" d="M4.625-3.656H.781c-.125 0-.219.11-.219.234 0 .125.094.235.22.235h3.843a.24.24 0 0 0 .234-.235.24.24 0 0 0-.234-.234m0 1.781H.781c-.125 0-.219.094-.219.234 0 .125.094.22.22.22h3.843c.125 0 .234-.095.234-.22a.23.23 0 0 0-.234-.234m0 0"/><path id="k" d="M1.266-.766 2.313-1.78c1.546-1.375 2.14-1.906 2.14-2.907 0-1.125-.89-1.921-2.11-1.921C1.235-6.61.5-5.687.5-4.812c0 .562.484.562.516.562a.516.516 0 0 0 .515-.531c0-.266-.172-.516-.515-.516-.079 0-.11 0-.125.016.218-.657.75-1.016 1.328-1.016.906 0 1.328.797 1.328 1.61 0 .796-.485 1.578-1.031 2.203L.609-.36C.5-.266.5-.234.5 0h3.672l.281-1.719h-.25c-.047.297-.11.735-.219.875-.062.078-.718.078-.937.078Zm0 0"/><path id="l" d="M4.563-3.172c0-.797-.047-1.594-.391-2.328-.469-.953-1.281-1.11-1.688-1.11-.593 0-1.328.266-1.734 1.188-.312.672-.36 1.453-.36 2.25 0 .735.032 1.64.438 2.39.438.798 1.156 1 1.64 1C3 .219 3.767.017 4.204-.936c.313-.688.36-1.454.36-2.235M2.469 0c-.39 0-.969-.25-1.156-1.203-.11-.594-.11-1.5-.11-2.094 0-.625 0-1.281.094-1.828.187-1.172.922-1.266 1.172-1.266.328 0 .984.172 1.172 1.157.093.562.093 1.312.093 1.937 0 .75 0 1.422-.109 2.063C3.485-.297 2.922 0 2.469 0m0 0"/><clipPath id="a"><path d="M187 177h15v14.46h-15Zm0 0"/></clipPath></defs><path fill="none" stroke="#000" stroke-miterlimit="10" stroke-width=".39740799" d="M15.145 5.586h44.77m0 0h44.769v10.18m0 69.171v20.368m0 69.172v10.183h44.765m0 0h44.77"/><path fill="#FFF" stroke="#000" stroke-miterlimit="10" stroke-width=".39740799" d="M16.727 5.586a1.58 1.58 0 1 0-3.161-.003 1.58 1.58 0 0 0 3.16.003Zm0 0"/><path stroke="#000" stroke-miterlimit="10" stroke-width=".39740799" d="M106.262 5.586a1.58 1.58 0 1 0-3.16-.005 1.58 1.58 0 0 0 3.16.005Zm0 0"/><path fill="none" stroke="#000" stroke-linejoin="bevel" stroke-miterlimit="10" stroke-width=".79381997" d="M104.523 15.371c3.274 0 5.93 1.957 5.93 4.371 0 2.414-2.656 4.375-5.93 4.375 3.274 0 5.93 1.957 5.93 4.371 0 2.414-2.656 4.375-5.93 4.375 3.274 0 5.93 1.957 5.93 4.371 0 2.414-2.656 4.371-5.93 4.371 3.274 0 5.93 1.961 5.93 4.375 0 2.415-2.656 4.372-5.93 4.372 3.274 0 5.93 1.96 5.93 4.375 0 2.414-2.656 4.37-5.93 4.37 3.274 0 5.93 1.958 5.93 4.376 0 2.414-2.656 4.37-5.93 4.37 3.274 0 5.93 1.958 5.93 4.376 0 2.414-2.656 4.37-5.93 4.37 3.274 0 5.93 1.958 5.93 4.376 0 2.414-2.656 4.37-5.93 4.37M104.523 104.906c3.274 0 5.93 1.957 5.93 4.375 0 2.414-2.656 4.371-5.93 4.371 3.274 0 5.93 1.957 5.93 4.375 0 2.414-2.656 4.371-5.93 4.371 3.274 0 5.93 1.957 5.93 4.375 0 2.414-2.656 4.372-5.93 4.372 3.274 0 5.93 1.957 5.93 4.37 0 2.419-2.656 4.376-5.93 4.376 3.274 0 5.93 1.957 5.93 4.37 0 2.419-2.656 4.376-5.93 4.376 3.274 0 5.93 1.957 5.93 4.37 0 2.415-2.656 4.376-5.93 4.376 3.274 0 5.93 1.957 5.93 4.37 0 2.415-2.656 4.376-5.93 4.376 3.274 0 5.93 1.957 5.93 4.371 0 2.414-2.656 4.371-5.93 4.371"/><path fill="#FFF" d="M195.8 184.66a1.583 1.583 0 0 0-3.164 0 1.582 1.582 0 0 0 3.165 0m0 0"/><g clip-path="url(#a)"><path fill="none" stroke="#000" stroke-miterlimit="10" stroke-width=".39740799" d="M195.8 184.66a1.583 1.583 0 0 0-3.164 0 1.582 1.582 0 0 0 3.165 0Zm0 0"/></g><path fill="none" stroke="#000" stroke-miterlimit="10" stroke-width=".39740799" d="M104.684 5.586h44.765m0 0h44.77"/><path fill="#FFF" stroke="#000" stroke-miterlimit="10" stroke-width=".39740799" d="M195.8 5.586a1.583 1.583 0 0 0-3.164 0 1.582 1.582 0 0 0 3.165 0Zm0 0"/><path fill="none" stroke="#000" stroke-miterlimit="10" stroke-width=".39740799" d="M104.684 95.121H82.297m0 0H37.53m0 0H15.145"/><path stroke="#000" stroke-miterlimit="10" stroke-width=".39740799" d="M106.262 95.121c0-.871-.707-1.582-1.578-1.582a1.583 1.583 0 0 0 0 3.164 1.58 1.58 0 0 0 1.578-1.582ZM61.496 95.121a1.583 1.583 0 1 0-3.162.002 1.583 1.583 0 0 0 3.162-.002Zm0 0"/><path fill="#FFF" stroke="#000" stroke-miterlimit="10" stroke-width=".39740799" d="M16.727 95.121c0-.871-.707-1.582-1.582-1.582a1.582 1.582 0 0 0 0 3.164 1.58 1.58 0 0 0 1.582-1.582Zm0 0"/><path fill="none" stroke="#000" stroke-miterlimit="10" stroke-width=".39740799" d="M59.914 95.121v11.86"/><path fill="none" stroke="#000" stroke-miterlimit="10" stroke-width=".79381997" d="M53.984 106.98h11.86m-9.883 1.977h7.906m-6.422 1.977h4.938"/><use xlink:href="#b" x="6.678" y="7.753"/><use xlink:href="#c" x="3.375" y="97.313"/><use xlink:href="#b" x="197.723" y="7.753"/><use xlink:href="#d" x="197.723" y="188.045"/><use xlink:href="#e" x="96.214" y="53.547"/><use xlink:href="#e" x="96.214" y="143.083"/><use xlink:href="#f" x="171.64" y="97.767"/><use xlink:href="#g" x="178.414" y="99.255"/><use xlink:href="#h" x="182.369" y="99.255"/><use xlink:href="#i" x="186.543" y="99.255"/><use xlink:href="#j" x="192.585" y="97.767"/><use xlink:href="#k" x="200.44" y="97.767"/><use xlink:href="#l" x="205.402" y="97.767"/><use xlink:href="#l" x="210.363" y="97.767"/><path fill="none" stroke="#000" stroke-dasharray="2.9769045683 2.9769045683" stroke-miterlimit="10" stroke-width=".39740799" d="M112.598 15.766v158.71"/></svg>