<svg xmlns="http://www.w3.org/2000/svg" xmlns:xlink="http://www.w3.org/1999/xlink" width="227.73" height="146.989"><defs><path id="c" d="M2.813-2c.343.797.75 1.813.828 1.906.125.157.25.157.359.157h.14c.141 0 .204 0 .204-.079 0-.03-.016-.046-.032-.062-.078-.078-.156-.25-.187-.313l-1.687-4c-.047-.125-.188-.453-.938-.453-.078 0-.172 0-.172.11 0 .078.063.093.094.093.156.016.281.047.453.438l.828 1.953L.656-.39c-.078.062-.14.124-.14.234 0 .172.14.234.234.234.14 0 .219-.078.234-.11Zm0 0"/><path id="d" d="M3.516-1.266H3.28c-.015.157-.094.563-.187.625-.047.047-.578.047-.688.047H1.125c.734-.64.984-.843 1.39-1.172.516-.406 1-.843 1-1.5 0-.843-.734-1.359-1.624-1.359-.86 0-1.453.61-1.453 1.25 0 .344.296.39.375.39.156 0 .359-.124.359-.374 0-.125-.047-.375-.406-.375.218-.485.687-.641 1.015-.641.703 0 1.063.547 1.063 1.11 0 .609-.438 1.078-.656 1.328L.516-.266C.437-.203.437-.187.437 0h2.876Zm0 0"/><path id="m" d="M3.156-2.906 4.578-4.11c.328-.282.688-.391 1.031-.407v-.25c-.203.016-.406.032-.593.032-.235 0-.938-.032-.97-.032v.25c.095 0 .266.047.266.204a.384.384 0 0 1-.062.171L1.766-2.03v-2.156c0-.25.015-.329.562-.329h.156v-.25c-.343.016-.796.032-1.046.032S.734-4.75.39-4.766v.25h.172c.53 0 .546.079.546.329v3.625c0 .234-.015.312-.546.312H.39V0c.343-.016.797-.031 1.047-.031.25 0 .703.015 1.046.031v-.25h-.156c-.547 0-.562-.078-.562-.312V-1.72l.937-.797 1.422 1.86c.047.047.11.125.11.219 0 .187-.235.187-.36.187V0a27.64 27.64 0 0 1 1.031-.031c.25 0 .703.031.797.031v-.25c-.375 0-.531-.016-.797-.36Zm0 0"/><path id="f" d="M4.547-2.031c0-1.266-.89-2.219-1.984-2.219-.688 0-1.047.5-1.25.984V-3.5c0-2.516 1.234-2.875 1.75-2.875.234 0 .656.063.874.39-.156 0-.546 0-.546.454 0 .312.234.453.453.453.156 0 .453-.094.453-.469 0-.61-.438-1.078-1.266-1.078-1.265 0-2.61 1.281-2.61 3.484C.422-.484 1.579.22 2.5.22c1.11 0 2.047-.938 2.047-2.25m-.89-.016c0 .485 0 .985-.173 1.344-.296.594-.75.64-.984.64-.625 0-.922-.593-.984-.75-.188-.468-.188-1.25-.188-1.437 0-.781.328-1.766 1.219-1.766.156 0 .625 0 .922.61.187.375.187.875.187 1.36m0 0"/><path id="g" d="M4.578-3.187c0-.797-.047-1.594-.39-2.329-.47-.953-1.282-1.109-1.704-1.109-.593 0-1.312.25-1.734 1.188-.312.687-.36 1.453-.36 2.25 0 .75.032 1.64.454 2.406.422.797 1.14 1 1.64 1 .532 0 1.282-.203 1.72-1.156.327-.688.374-1.47.374-2.25m-.828-.11c0 .735 0 1.422-.11 2.047C3.5-.297 2.923 0 2.485 0c-.39 0-.984-.25-1.156-1.203-.11-.594-.11-1.516-.11-2.094 0-.64 0-1.297.079-1.844.187-1.171.937-1.265 1.187-1.265.329 0 .985.172 1.172 1.156.094.563.094 1.313.094 1.953m0 0"/><path id="h" d="M6.734-1.61h-.25c-.046.25-.078.485-.171.72-.047.156-.079.25-.657.25H4.86c.125-.563.438-1.047.891-1.704.453-.703.875-1.39.875-2.172 0-1.39-1.344-2.5-3.031-2.5-1.719 0-3.031 1.141-3.031 2.5 0 .782.406 1.47.875 2.172.437.656.75 1.14.875 1.703h-.797C.953-.64.922-.734.859-.875c-.078-.234-.125-.484-.171-.734h-.25L.766 0h1.593c.22 0 .25 0 .25-.203 0-.703-.312-1.578-.546-2.219-.204-.578-.485-1.36-.485-2.11 0-1.593 1.094-2.265 2-2.265.953 0 2.016.719 2.016 2.266 0 .75-.266 1.5-.563 2.328-.14.406-.468 1.312-.468 2 0 .203.03.203.265.203h1.578Zm0 0"/><path id="i" d="m1.766-6.906-1.438.11v.312c.703 0 .781.062.781.547V-.75c0 .438-.109.438-.78.438V0c.327-.016.859-.031 1.109-.031S2.172-.016 2.53 0v-.312c-.656 0-.765 0-.765-.438Zm0 0"/><path id="l" d="M6.188-5.828c.125-.36.406-.656 1.078-.656v-.313c-.313.016-.703.031-.97.031-.296 0-.874-.015-1.124-.03v.312c.516 0 .719.265.719.5 0 .078-.032.125-.047.187L4.016-1 2.125-6.016c-.062-.14-.062-.171-.062-.187 0-.281.562-.281.812-.281v-.313c-.36.031-1.047.031-1.422.031-.484 0-.906-.015-1.265-.03v.312c.656 0 .843 0 .984.375L3.469 0c.078.188.125.219.25.219.172 0 .187-.047.25-.188Zm0 0"/><path id="j" d="M4.64-3.656H.782a.214.214 0 0 0-.219.219c0 .14.094.234.22.234H4.64c.125 0 .218-.094.218-.235a.214.214 0 0 0-.218-.218m0 1.781H.782a.214.214 0 0 0-.219.219c0 .14.094.234.22.234H4.64c.125 0 .218-.094.218-.234a.214.214 0 0 0-.218-.219m0 0"/><path id="k" d="M1.094-3.078a.53.53 0 0 0-.532.547c0 .297.25.531.532.531a.537.537 0 0 0 .531-.531c0-.328-.234-.547-.531-.547m0 0"/><clipPath id="a"><path d="M214 2h13.46v16H214Zm0 0"/></clipPath><clipPath id="b"><path d="M105 .082h14V20h-14Zm0 0"/></clipPath><clipPath id="e"><path d="M95 9h132.46v46H95Zm0 0"/></clipPath></defs><path fill="none" stroke="#999" stroke-miterlimit="10" stroke-width=".009988200000000001" d="M223.55 9.64"/><path fill="none" stroke="#000" stroke-miterlimit="10" stroke-width=".39852918000000004" d="M.895 9.64h222.359"/><path stroke="#000" stroke-miterlimit="10" stroke-width=".39852918000000004" d="m1.39 9.64 2.973 1.762V7.88Zm0 0"/><path fill="none" stroke="#000" stroke-miterlimit="10" stroke-width=".39852918000000004" d="M.793 11.93V7.352"/><path d="m222.754 9.64-2.969-1.761v3.523Zm0 0"/><g clip-path="url(#a)"><path fill="none" stroke="#000" stroke-miterlimit="10" stroke-width=".39852918000000004" d="m222.754 9.64-2.969-1.761v3.523Zm0 0"/></g><path fill="none" stroke="#000" stroke-miterlimit="10" stroke-width=".39852918000000004" d="M223.352 7.352v4.578"/><g clip-path="url(#b)"><path fill="#FFF" d="M105.203 19.203h13.742V.082h-13.742Zm0 0"/></g><use xlink:href="#c" x="109.714" y="8.236"/><path fill="none" stroke="#000" stroke-miterlimit="10" stroke-width=".44747136000000004" d="M109.715 9.738h4.719"/><use xlink:href="#d" x="110.09" y="15.888"/><g clip-path="url(#e)"><path fill="none" stroke="#000" stroke-miterlimit="10" stroke-width="1.19458872" d="M112.074 26.363h105.903a5.575 5.575 0 0 1 0 11.149H116.53"/></g><path fill="none" stroke="#000" stroke-miterlimit="10" stroke-width="1.19458872" d="M112.074 26.363H6.168a5.575 5.575 0 0 0 0 11.149h101.445"/><path fill="none" stroke="#000" stroke-miterlimit="10" stroke-width=".39852918000000004" d="M107.613 37.512V48.66M96.937 50.543c-16.199 5.894-24.55 23.805-18.652 40.008 5.895 16.199 23.805 24.55 40.004 18.652 16.2-5.894 24.555-23.808 18.656-40.008a31.204 31.204 0 0 0-18.656-18.652M96.937 50.543c1.16-.422 1.415-2.64.57-4.953-.839-2.317-2.46-3.852-3.62-3.43-1.157.422-1.41 2.64-.567 4.953.84 2.317 2.461 3.848 3.617 3.43M118.29 50.543c1.155.418 2.776-1.113 3.62-3.43.844-2.312.586-4.531-.57-4.953-1.156-.422-2.777 1.113-3.621 3.43-.84 2.312-.586 4.531.57 4.953"/><path fill="none" stroke="#000" stroke-miterlimit="10" stroke-width=".39852918000000004" d="M93.887 42.16C73.059 49.742 62.32 72.77 69.902 93.598c7.582 20.828 30.61 31.566 51.438 23.988 20.828-7.582 31.566-30.61 23.988-51.438A40.15 40.15 0 0 0 121.34 42.16"/><path fill="none" stroke="#000" stroke-dasharray="2.9853031806000003 2.9853031806000003" stroke-miterlimit="10" stroke-width=".39852918000000004" d="M91.977 47.809C74.27 56.445 66.914 77.805 75.55 95.512c8.636 17.707 29.996 25.058 47.703 16.422 17.707-8.633 25.059-29.993 16.422-47.7a35.694 35.694 0 0 0-16.422-16.425"/><path fill="none" stroke="#000" stroke-miterlimit="10" stroke-width=".39852918000000004" d="M116.531 37.512v7.355l3.285 1.485M107.613 37.512v6.687h-3.343m0 0h-3.344l-5.512 2.153"/><path stroke="#000" stroke-miterlimit="10" stroke-width=".39852918000000004" d="M109.2 44.2a1.587 1.587 0 0 0-3.173 0 1.587 1.587 0 0 0 3.172 0Zm0 0"/><path fill="#FFF" d="M103.156 48.66v89.18h8.918V48.66Zm0 0"/><path fill="none" stroke="#000" stroke-miterlimit="10" stroke-width=".39852918000000004" d="M112.074 48.66v89.18M103.156 48.66v89.18"/><path fill="none" stroke="#000" stroke-dasharray="2.9853031806000003 2.9853031806000003" stroke-miterlimit="10" stroke-width=".39852918000000004" d="M107.613 54.234v84.723"/><path fill="none" stroke="#000" stroke-miterlimit="10" stroke-width=".39852918000000004" d="M112.074 26.363v11.149m0 0V48.66"/><path stroke="#000" stroke-miterlimit="10" stroke-width=".39852918000000004" d="M113.66 26.363a1.587 1.587 0 0 0-3.172 0 1.587 1.587 0 0 0 3.172 0ZM113.66 48.66a1.587 1.587 0 0 0-3.172 0 1.587 1.587 0 0 0 3.172 0Zm0 0"/><path fill="none" stroke="#000" stroke-miterlimit="10" stroke-width=".39852918000000004" d="m112.074 48.66 3.11.942m0 0 3.105.941"/><path stroke="#000" stroke-miterlimit="10" stroke-width=".39852918000000004" d="M119.875 50.543a1.587 1.587 0 0 0-3.172 0c0 .875.711 1.582 1.586 1.582.875 0 1.586-.707 1.586-1.582Zm0 0"/><path fill="none" stroke="#000" stroke-miterlimit="10" stroke-width=".39852918000000004" d="m103.156 48.66-3.11.942m0 0-3.109.941"/><path stroke="#000" stroke-miterlimit="10" stroke-width=".39852918000000004" d="M104.742 48.66a1.587 1.587 0 0 0-3.172 0 1.587 1.587 0 0 0 3.172 0ZM98.523 50.543a1.584 1.584 0 1 0-3.168-.004 1.584 1.584 0 0 0 3.168.004Zm0 0"/><path fill="none" stroke="#000" stroke-miterlimit="10" stroke-width=".39852918000000004" d="M112.074 48.66c0-1.23-1.996-2.23-4.46-2.23-2.462 0-4.458 1-4.458 2.23s1.996 2.23 4.457 2.23c2.465 0 4.461-1 4.461-2.23M112.074 137.84c0 1.234-1.996 2.23-4.46 2.23-2.462 0-4.458-.996-4.458-2.23M107.613 140.07v4.461"/><use xlink:href="#f" x="76.959" y="143.361"/><use xlink:href="#g" x="81.934" y="143.361"/><use xlink:href="#h" x="90.223" y="143.361"/><path fill="none" stroke="#000" stroke-miterlimit="10" stroke-width=".39852918000000004" d="m139.148 111.406 7.993 7.992"/><path stroke="#000" stroke-miterlimit="10" stroke-width=".39852519000000003" d="m136.977 109.234.855 3.348 2.492-2.492Zm0 0"/><use xlink:href="#i" x="150.654" y="131.797"/><use xlink:href="#j" x="155.875" y="131.797"/><use xlink:href="#c" x="164.947" y="127.75"/><path fill="none" stroke="#000" stroke-miterlimit="10" stroke-width=".44747136000000004" d="M164.95 129.254h4.718"/><use xlink:href="#d" x="165.324" y="135.403"/><use xlink:href="#k" x="172.826" y="131.797"/><use xlink:href="#l" x="176.987" y="131.797"/><use xlink:href="#m" x="184.45" y="133.29"/></svg>