<svg xmlns="http://www.w3.org/2000/svg" xmlns:xlink="http://www.w3.org/1999/xlink" width="224.837" height="207.88"><defs><path id="e" d="m6.031-.5-.093-4.234h-.016L4.032-.078h-.485L1.703-4.766h-.016L1.61-.5l.61.14q.124.018.125.094 0 .048-.094.266H.39v-.078Q.39-.324.689-.406l.39-.094.063-5.203-.547-.125c-.086-.02-.125-.05-.125-.094q0-.075.094-.25h1.421L3.922-1.25h.015l2-4.922h1.516v.078q-.002.237-.297.297l-.422.094L6.797-.5l.625.14q.124.018.125.094 0 .048-.094.266h-2.11v-.078q-.001-.246.298-.328Zm0 0"/><path id="h" d="m4.5-.484-.594-1.641H1.688l-.594 1.64.672.126q.124.017.125.093 0 .066-.094.266H-.078a.2.2 0 0 1-.016-.078Q-.096-.342.22-.406l.25-.063L2.64-6.172l.562-.078L5.36-.469l.391.11q.124.034.125.093 0 .048-.094.266H3.86a.16.16 0 0 1-.015-.078c0-.164.101-.274.312-.328Zm-2.64-2.11h1.89l-.937-2.625h-.016Zm0 0"/><path id="i" d="M2.563-6.172q2.295 0 2.296 1.547-.002 1.208-1.328 1.453v.016Q4.998-2.967 5-1.734 4.998-.95 4.406-.5c-.43.336-1.023.5-1.781.5H.422a.16.16 0 0 1-.016-.078Q.404-.324.72-.406L1.094-.5v-5.203l-.547-.125c-.086-.02-.125-.05-.125-.094q0-.075.094-.25ZM2.53-.5q.81.001 1.25-.344.388-.328.39-.89a.98.98 0 0 0-.421-.828q-.408-.33-1.156-.329h-.719V-.5ZM2.47-3.36q.796.001 1.219-.343c.238-.195.359-.469.359-.813 0-.77-.524-1.156-1.563-1.156h-.609v2.313Zm0 0"/><path id="n" d="M2.938-3.047Q4.029-2.543 4.03-1.5q0 .737-.547 1.188-.503.42-1.28.421-.77 0-1.25-.39Q.436-.716.437-1.453q0-.92 1.125-1.453-.985-.499-.985-1.485c0-.437.164-.8.5-1.093.344-.29.742-.438 1.203-.438.477 0 .867.133 1.172.39q.451.376.453 1.063 0 .908-.969 1.422m-.407-.156q.67-.405.672-1.266-.002-.42-.25-.672c-.18-.187-.422-.28-.734-.28a.9.9 0 0 0-.688.28.94.94 0 0 0-.25.672q0 .504.344.797c.164.149.469.305.906.469m-.562.484c-.524.293-.782.715-.782 1.266q0 .456.282.766.28.297.765.296.47 0 .75-.28.296-.294.297-.75 0-.47-.36-.798-.268-.217-.952-.5m0 0"/><path id="f" d="M2.86-1.687c0 .843-.454 1.468-.985 1.468-.344 0-.453-.218-.594-.406-.125-.14-.265-.281-.453-.281-.172 0-.344.156-.344.328 0 .375.766.672 1.266.672 1.11 0 1.906-.813 1.906-1.953 0-.86-.61-1.641-1.61-1.641-.374 0-.718.078-.874.14l.187-1.5c.329.048.61.094 1.047.094.266 0 .563-.03.938-.062l.14-.61-.062-.03c-.516.046-1 .093-1.469.093-.328 0-.656-.016-.969-.047L.688-2.844a3.1 3.1 0 0 1 1.125-.203c.593 0 1.046.375 1.046 1.36m0 0"/><path id="g" d="M2.047.094C2.734.094 3.78-.61 3.78-2.72c0-.875-.219-1.64-.61-2.156-.233-.312-.608-.594-1.093-.594-.89 0-1.734 1.063-1.734 2.844 0 .953.297 1.844.797 2.344.25.25.547.375.906.375m.031-5.235c.156 0 .297.047.406.141.266.234.516.922.516 2.11 0 .828-.031 1.39-.156 1.859-.188.734-.625.812-.797.812-.828 0-.922-1.531-.922-2.312 0-2.203.547-2.61.953-2.61m0 0"/><path id="j" d="M4.547.016c.125-.5.328-1.032.516-1.5l-.266-.032C4.5-.875 4.157-.344 3.5-.344h-2c-.14 0-.203-.047-.187-.125 0-.047.046-.094.093-.172l4.125-4.656c.235-.266.313-.422.313-.5 0-.047-.047-.062-.188-.062-.11 0-.297.062-.562.078h-2.75c-.406 0-.36-.078-.672-.11-.14.485-.344 1.125-.484 1.5l.25.047c.296-.625.546-1.078 1.187-1.078h1.984c.063 0 .079.016.063.078 0 .047-.047.094-.094.157L.297-.344C.234-.28.172-.172.172-.109c0 .078.047.109.156.109h3.125c.235 0 1.094.016 1.094.016m0 0"/><path id="k" d="M2.094-.344c.047.219.125.422.484.422.281 0 .531-.125.688-.265-.016-.094-.047-.157-.125-.204a.47.47 0 0 1-.266.125c-.203 0-.219-.28-.219-.609v-1.062c0-1.016-.562-1.22-1.078-1.22-.594 0-1.187.391-1.187.798 0 .172.093.265.25.265.218 0 .343-.156.343-.25 0-.047-.015-.094-.015-.125-.016-.015-.016-.062-.016-.14 0-.22.297-.297.563-.297.25 0 .578.11.578.922 0 .062-.016.078-.031.093l-.626.141C.75-1.578.266-1.187.266-.703c0 .594.39.781.89.781.25 0 .469-.062.782-.312Zm0-1.328v.953c0 .094-.031.14-.094.188-.187.14-.422.312-.625.312-.36 0-.516-.297-.516-.515 0-.313.141-.657.672-.782Zm0 0"/><path id="l" d="M1.313-2.562c-.032.046-.079.062-.079 0-.015-.204-.015-.485-.062-.547-.016-.047-.031-.063-.078-.063-.203.078-.39.14-.89.203a.43.43 0 0 0 .015.203c.39.047.469.079.469.485v1.406c0 .594-.079.61-.5.656C.14-.172.14-.03.188.016.406 0 .688 0 .968 0c.298 0 .516 0 .72.016.046-.047.046-.188 0-.235-.36-.047-.438-.062-.438-.656v-1.172c0-.156.063-.234.125-.312.281-.266.594-.422.875-.422a.43.43 0 0 1 .375.265c.078.141.094.329.094.547v1.094c0 .594-.078.61-.438.656-.047.047-.047.188 0 .235C2.484 0 2.72 0 3 0c.297 0 .547 0 .766.016.03-.047.03-.188 0-.235-.407-.047-.485-.062-.485-.656v-1.062c0-.407-.031-.75-.187-.97-.125-.155-.344-.25-.594-.25-.36 0-.75.095-1.187.595m0 0"/><path id="m" d="M.313-3.078c-.11 0-.141.094-.141.14v.094c0 .047.016.047.047.047H.64V-.64c0 .516.218.72.547.72.328 0 .687-.173.968-.485a.17.17 0 0 0-.125-.125.9.9 0 0 1-.594.203c-.187 0-.234-.203-.234-.656v-1.813h.75c.063 0 .172-.031.172-.094v-.14c0-.031-.031-.047-.062-.047h-.86v-.281c0-.47.031-.75.031-.75 0-.047-.015-.063-.062-.063-.031 0-.094.031-.156.063a.6.6 0 0 1-.235.093c-.094.032-.172.063-.172.11 0 .078.032.031.032.828Zm0 0"/><clipPath id="a"><path d="M7 .016h16V14H7Zm0 0"/></clipPath><clipPath id="b"><path d="M105 .016h16V14h-16Zm0 0"/></clipPath><clipPath id="c"><path d="M203 194h15v13.746h-15Zm0 0"/></clipPath><clipPath id="d"><path d="M203 .016h15V14h-15Zm0 0"/></clipPath></defs><path fill="none" stroke="#000" stroke-miterlimit="10" stroke-width=".39871272" d="M15.078 6.125h48.887m0 0h48.887v18.457m0 158.629v18.457h48.882m0 0h48.887"/><path fill="#FFF" d="M16.668 6.125a1.588 1.588 0 0 0-3.176 0 1.587 1.587 0 0 0 3.176 0m0 0"/><g clip-path="url(#a)"><path fill="none" stroke="#000" stroke-miterlimit="10" stroke-width=".39871272" d="M16.668 6.125a1.588 1.588 0 0 0-3.176 0 1.587 1.587 0 0 0 3.176 0Zm0 0"/></g><path d="M114.438 6.125a1.587 1.587 0 0 0-3.172 0 1.587 1.587 0 0 0 3.171 0m0 0"/><g clip-path="url(#b)"><path fill="none" stroke="#000" stroke-miterlimit="10" stroke-width=".39871272" d="M114.438 6.125a1.587 1.587 0 0 0-3.172 0 1.587 1.587 0 0 0 3.172 0Zm0 0"/></g><path fill="none" stroke="#000" stroke-linejoin="bevel" stroke-miterlimit="10" stroke-width=".79642616" d="M112.691 24.183c3.286 0 5.95 2.231 5.95 4.985 0 2.75-2.664 4.98-5.95 4.98 3.286 0 5.95 2.23 5.95 4.98 0 2.755-2.664 4.985-5.95 4.985 3.286 0 5.95 2.23 5.95 4.98 0 2.755-2.664 4.985-5.95 4.985 3.286 0 5.95 2.23 5.95 4.98s-2.664 4.981-5.95 4.981c3.286 0 5.95 2.23 5.95 4.984 0 2.75-2.664 4.98-5.95 4.98 3.286 0 5.95 2.231 5.95 4.981 0 2.754-2.664 4.985-5.95 4.985 3.286 0 5.95 2.23 5.95 4.98 0 2.754-2.664 4.985-5.95 4.985 3.286 0 5.95 2.23 5.95 4.98s-2.664 4.98-5.95 4.98c3.286 0 5.95 2.23 5.95 4.985 0 2.75-2.664 4.98-5.95 4.98 3.286 0 5.95 2.23 5.95 4.98 0 2.755-2.664 4.985-5.95 4.985 3.286 0 5.95 2.23 5.95 4.98 0 2.755-2.664 4.985-5.95 4.985 3.286 0 5.95 2.23 5.95 4.98s-2.664 4.98-5.95 4.98c3.286 0 5.95 2.231 5.95 4.985 0 2.75-2.664 4.98-5.95 4.98 3.286 0 5.95 2.231 5.95 4.985 0 2.75-2.664 4.98-5.95 4.98 3.286 0 5.95 2.231 5.95 4.981 0 2.754-2.664 4.984-5.95 4.984 3.286 0 5.95 2.231 5.95 4.981s-2.664 4.98-5.95 4.98"/><path fill="#FFF" d="M212.207 201.668c0-.879-.71-1.586-1.586-1.586a1.587 1.587 0 1 0 1.586 1.586m0 0"/><g clip-path="url(#c)"><path fill="none" stroke="#000" stroke-miterlimit="10" stroke-width=".39871272" d="M212.207 201.668c0-.879-.71-1.586-1.586-1.586a1.587 1.587 0 1 0 1.586 1.586Zm0 0"/></g><path fill="none" stroke="#000" stroke-miterlimit="10" stroke-width=".39871272" d="M112.852 6.125h48.882m0 0h48.887"/><path fill="#FFF" d="M212.207 6.125a1.587 1.587 0 0 0-3.172 0 1.587 1.587 0 0 0 3.172 0m0 0"/><g clip-path="url(#d)"><path fill="none" stroke="#000" stroke-miterlimit="10" stroke-width=".39871272" d="M212.207 6.125a1.587 1.587 0 0 0-3.172 0 1.587 1.587 0 0 0 3.172 0Zm0 0"/></g><path fill="none" stroke="#000" stroke-miterlimit="10" stroke-width=".39871272" d="M15.078 103.894h24.445m0 0h48.883m0 0h24.446"/><path fill="#FFF" stroke="#000" stroke-miterlimit="10" stroke-width=".39871272" d="M16.668 103.894a1.588 1.588 0 0 0-3.176 0c0 .88.711 1.586 1.586 1.586.879 0 1.59-.707 1.59-1.586Zm0 0"/><path stroke="#000" stroke-miterlimit="10" stroke-width=".39871272" d="M65.55 103.894a1.587 1.587 0 1 0-3.173.003 1.587 1.587 0 0 0 3.174-.003ZM114.438 103.894a1.587 1.587 0 1 0-3.175.003 1.587 1.587 0 0 0 3.175-.003Zm0 0"/><path fill="none" stroke="#000" stroke-miterlimit="10" stroke-width=".39871272" d="M63.965 103.894v11.899"/><path fill="none" stroke="#000" stroke-miterlimit="10" stroke-width=".79642616" d="M58.016 115.793h11.898M60 117.777h7.93m-6.442 1.98h4.957"/><use xlink:href="#e" x="2.986" y="106.989"/><use xlink:href="#f" x="9.947" y="57.702"/><use xlink:href="#g" x="14.113" y="57.702"/><use xlink:href="#h" x="4.012" y="9.256"/><use xlink:href="#h" x="215.846" y="9.256"/><use xlink:href="#i" x="216.011" y="204.759"/><use xlink:href="#j" x="203.219" y="105.87"/><use xlink:href="#k" x="208.209" y="107.751"/><use xlink:href="#l" x="211.485" y="107.751"/><use xlink:href="#m" x="215.37" y="107.751"/><use xlink:href="#n" x="126.905" y="57.925"/><use xlink:href="#n" x="126.905" y="155.694"/><path fill="none" stroke="#000" stroke-dasharray="2.9866780424 2.9866780424" stroke-miterlimit="10" stroke-width=".39871272" d="M122.629 193.52V14.272"/></svg>