<svg xmlns="http://www.w3.org/2000/svg" xmlns:xlink="http://www.w3.org/1999/xlink" width="224.584" height="204.061"><defs><path id="b" d="M8.719 0v-.312h-.235c-.765 0-.78-.11-.78-.47V-6c0-.36.015-.469.78-.469h.235v-.312H7.047c-.266 0-.266.015-.328.187L4.547-1 2.39-6.562c-.094-.22-.125-.22-.344-.22H.359v.313h.25c.766 0 .782.11.782.469v4.953c0 .266 0 .734-1.032.734V0l1.172-.031L2.688 0v-.312c-1.016 0-1.016-.47-1.016-.735V-6.39l2.39 6.172c.063.125.11.219.204.219.109 0 .14-.078.172-.187L6.89-6.47V-.78c0 .36-.016.469-.782.469h-.234V0c.36-.031 1.047-.031 1.422-.031.39 0 1.062 0 1.422.031m0 0"/><path id="f" d="M7.11 0v-.312h-.173c-.593 0-.734-.063-.843-.391l-2.14-6.203c-.048-.125-.079-.203-.235-.203-.156 0-.188.062-.235.203L1.422-.97c-.172.5-.563.657-1.11.657V0l1.016-.031L2.468 0v-.312c-.5 0-.75-.25-.75-.5 0-.032.016-.125.032-.157l.453-1.297h2.453L5.172-.75a.58.58 0 0 1 .031.14c0 .298-.547.298-.812.298V0c.359-.031 1.047-.031 1.422-.031ZM4.546-2.562H2.313l1.109-3.235Zm0 0"/><path id="g" d="M6.453-1.812c0-.86-.812-1.61-1.906-1.735.953-.187 1.64-.812 1.64-1.547 0-.875-.906-1.687-2.203-1.687H.36v.312h.235c.765 0 .781.11.781.469v5.219c0 .36-.016.469-.781.469H.359V0H4.25c1.313 0 2.203-.89 2.203-1.812M5.234-5.094c0 .625-.484 1.469-1.593 1.469H2.203v-2.453c0-.328.016-.39.485-.39h1.234c.953 0 1.312.843 1.312 1.374m.235 3.266c0 .703-.516 1.516-1.547 1.516H2.687c-.468 0-.484-.063-.484-.391v-2.703h1.86c.984 0 1.406.922 1.406 1.578m0 0"/><path id="l" d="M4.531-1.672c0-.36-.11-.797-.484-1.219-.188-.203-.344-.296-.984-.703.718-.36 1.203-.875 1.203-1.531 0-.922-.875-1.484-1.782-1.484-1 0-1.796.734-1.796 1.656 0 .187.015.625.437 1.094.11.125.469.359.719.53C1.266-3.03.422-2.483.422-1.5c0 1.047 1 1.719 2.047 1.719 1.125 0 2.062-.828 2.062-1.89m-.703-3.453c0 .563-.39 1.031-.984 1.39L1.625-4.53c-.469-.297-.5-.64-.5-.813 0-.593.64-1.015 1.344-1.015.719 0 1.36.515 1.36 1.234m.203 3.813c0 .734-.734 1.25-1.547 1.25C1.625-.062.906-.672.906-1.5c0-.578.328-1.203 1.172-1.672l1.219.766c.281.187.734.484.734 1.094m0 0"/><path id="c" d="M4.453-2c0-1.172-.812-2.172-1.89-2.172a1.7 1.7 0 0 0-1.25.516v-1.938c.203.063.515.125.843.125 1.219 0 1.906-.906 1.906-1.031 0-.062-.03-.11-.093-.11-.016 0-.031 0-.078.032a3.26 3.26 0 0 1-1.344.281c-.406 0-.86-.062-1.328-.266-.078-.03-.094-.03-.125-.03C1-6.594 1-6.517 1-6.36v2.937c0 .172 0 .25.14.25.063 0 .094-.015.126-.078.109-.156.484-.703 1.28-.703.517 0 .767.453.845.64.156.36.187.75.187 1.25 0 .344 0 .938-.25 1.36-.234.39-.594.64-1.062.64-.72 0-1.282-.515-1.453-1.109.03.016.062.016.171.016.329 0 .5-.25.5-.485a.48.48 0 0 0-.5-.484c-.14 0-.484.078-.484.531C.5-.75 1.188.22 2.297.22 3.437.219 4.453-.734 4.453-2m0 0"/><path id="d" d="M4.563-3.172c0-.797-.047-1.594-.391-2.328-.469-.953-1.281-1.11-1.688-1.11-.593 0-1.328.266-1.734 1.188-.312.672-.36 1.453-.36 2.25 0 .735.032 1.64.438 2.39.438.798 1.156 1 1.64 1C3 .219 3.767.017 4.204-.936c.313-.688.36-1.454.36-2.235M2.469 0c-.39 0-.969-.25-1.156-1.203-.11-.594-.11-1.5-.11-2.094 0-.625 0-1.281.094-1.828.187-1.172.922-1.266 1.172-1.266.328 0 .984.172 1.172 1.157.093.562.093 1.312.093 1.937 0 .75 0 1.422-.109 2.063C3.485-.297 2.922 0 2.469 0m0 0"/><path id="e" d="M6.719-1.61h-.25a4.838 4.838 0 0 1-.172.72c-.063.171-.078.25-.656.25h-.797c.125-.563.437-1.032.875-1.688.468-.703.875-1.39.875-2.172 0-1.39-1.328-2.5-3.016-2.5C1.875-7 .563-5.86.563-4.5c0 .781.406 1.469.859 2.172.437.656.766 1.125.89 1.687h-.796c-.578 0-.61-.078-.657-.234-.078-.219-.125-.484-.171-.734h-.25L.766 0h1.578c.219 0 .25 0 .25-.203 0-.703-.297-1.578-.531-2.203-.204-.578-.485-1.36-.485-2.11 0-1.593 1.094-2.265 2-2.265.953 0 2 .718 2 2.265 0 .75-.266 1.5-.562 2.313-.141.422-.47 1.312-.47 2 0 .203.032.203.266.203h1.579Zm0 0"/><path id="h" d="M7.14-6.531c.016-.047.032-.094.032-.157 0-.093-.047-.093-.25-.093H2.734c-.234 0-.25.015-.296.203L1.89-4.797c-.032.047-.032.125-.032.14 0 .016 0 .11.11.11.093 0 .11-.062.14-.094.375-1.171.891-1.828 2.438-1.828h1.61L.608-.266s-.03.141-.03.172C.578 0 .64 0 .828 0H5.14c.234 0 .25-.016.312-.203l.703-2.188c0-.046.032-.109.032-.156s-.032-.11-.125-.11c-.094 0-.094.048-.172.25-.438 1.36-.907 2.063-2.594 2.063H1.594Zm0 0"/><path id="i" d="M3.094-1.86c0-.374 0-.624-.313-.89a1.58 1.58 0 0 0-1.031-.344c-.656 0-1.125.25-1.125.672 0 .219.156.344.328.344a.32.32 0 0 0 .328-.328c0-.125-.047-.266-.234-.313.25-.187.64-.187.687-.187.391 0 .813.265.813.844v.218c-.375.016-.844.032-1.344.219-.625.234-.828.61-.828.922 0 .594.734.766 1.219.766.562 0 .89-.313 1.031-.579.031.282.219.547.531.547.016 0 .688 0 .688-.656V-1h-.235v.375c0 .063 0 .39-.265.39-.25 0-.25-.327-.25-.406Zm-.547.876c0 .672-.578.859-.89.859-.36 0-.688-.234-.688-.578 0-.375.328-.906 1.578-.969Zm0 0"/><path id="j" d="M3.578-2.11c0-.593-.297-.953-1.047-.953a1.23 1.23 0 0 0-1.125.672h-.015v-.671l-1.016.078v.25c.469 0 .516.046.516.39v1.797C.89-.25.828-.25.375-.25V0c.016 0 .5-.031.797-.031.25 0 .734.031.797.031v-.25c-.453 0-.532 0-.532-.297v-1.25c0-.734.579-1.062 1.047-1.062.485 0 .547.375.547.734v1.578c0 .297-.078.297-.531.297V0c.016 0 .5-.031.797-.031.25 0 .734.031.797.031v-.25c-.453 0-.516 0-.516-.297Zm0 0"/><path id="k" d="M1.39-2.734h1.094v-.25H1.391v-1.282h-.235c0 .625-.281 1.313-.953 1.329v.203h.64v1.859c0 .781.579.938.97.938.468 0 .796-.391.796-.938v-.375h-.25v.375c0 .469-.218.719-.484.719-.484 0-.484-.578-.484-.703Zm0 0"/><clipPath id="a"><path d="M198 189h15v14.125h-15Zm0 0"/></clipPath></defs><path fill="none" stroke="#000" stroke-miterlimit="10" stroke-width=".39717258" d="M16.059 6.851h47.394m0 0h47.395v15.786m0 158.011v15.786h47.398m0 0h47.395"/><path fill="#FFF" stroke="#000" stroke-miterlimit="10" stroke-width=".39717258" d="M17.64 6.851a1.579 1.579 0 0 0-3.16 0 1.58 1.58 0 1 0 3.16 0Zm0 0"/><path stroke="#000" stroke-miterlimit="10" stroke-width=".39717258" d="M112.43 6.851a1.58 1.58 0 1 0-3.16.003 1.58 1.58 0 0 0 3.16-.003Zm0 0"/><path fill="none" stroke="#000" stroke-linejoin="bevel" stroke-miterlimit="10" stroke-width=".79334974" d="M110.691 22.238c3.274 0 5.926 2.223 5.926 4.965 0 2.738-2.652 4.961-5.926 4.961 3.274 0 5.926 2.223 5.926 4.965 0 2.738-2.652 4.96-5.926 4.96 3.274 0 5.926 2.223 5.926 4.966 0 2.738-2.652 4.96-5.926 4.96 3.274 0 5.926 2.223 5.926 4.961 0 2.743-2.652 4.965-5.926 4.965 3.274 0 5.926 2.223 5.926 4.961 0 2.742-2.652 4.965-5.926 4.965 3.274 0 5.926 2.223 5.926 4.961 0 2.742-2.652 4.965-5.926 4.965 3.274 0 5.926 2.223 5.926 4.96 0 2.743-2.652 4.966-5.926 4.966 3.274 0 5.926 2.218 5.926 4.96 0 2.743-2.652 4.965-5.926 4.965 3.274 0 5.926 2.22 5.926 4.961 0 2.743-2.652 4.965-5.926 4.965 3.274 0 5.926 2.219 5.926 4.961 0 2.742-2.652 4.961-5.926 4.961 3.274 0 5.926 2.223 5.926 4.965s-2.652 4.96-5.926 4.96c3.274 0 5.926 2.224 5.926 4.966 0 2.738-2.652 4.96-5.926 4.96 3.274 0 5.926 2.223 5.926 4.966 0 2.738-2.652 4.96-5.926 4.96 3.274 0 5.926 2.223 5.926 4.965 0 2.739-2.652 4.961-5.926 4.961 3.274 0 5.926 2.223 5.926 4.965 0 2.738-2.652 4.961-5.926 4.961 3.274 0 5.926 2.223 5.926 4.961 0 2.742-2.652 4.965-5.926 4.965"/><path fill="#FFF" d="M207.219 196.434a1.58 1.58 0 0 0-3.16 0 1.58 1.58 0 0 0 3.16 0m0 0"/><g clip-path="url(#a)"><path fill="none" stroke="#000" stroke-miterlimit="10" stroke-width=".39717258" d="M207.219 196.434a1.58 1.58 0 0 0-3.16 0 1.58 1.58 0 0 0 3.16 0Zm0 0"/></g><path fill="none" stroke="#000" stroke-miterlimit="10" stroke-width=".39717258" d="M110.848 6.851h47.398m0 0h47.395"/><path fill="#FFF" stroke="#000" stroke-miterlimit="10" stroke-width=".39717258" d="M207.219 6.851a1.58 1.58 0 1 0-3.161.003 1.58 1.58 0 0 0 3.16-.003Zm0 0"/><path fill="none" stroke="#000" stroke-miterlimit="10" stroke-width=".39717258" d="M16.059 101.644h23.699m0 0h47.394m0 0h23.696"/><path fill="#FFF" stroke="#000" stroke-miterlimit="10" stroke-width=".39717258" d="M17.64 101.644a1.58 1.58 0 1 0-3.161-.005 1.58 1.58 0 0 0 3.162.005Zm0 0"/><path stroke="#000" stroke-miterlimit="10" stroke-width=".39717258" d="M65.035 101.644a1.58 1.58 0 1 0-3.16-.003 1.58 1.58 0 0 0 3.16.003ZM112.43 101.644a1.58 1.58 0 1 0-3.161-.003 1.58 1.58 0 0 0 3.16.003Zm0 0"/><path fill="none" stroke="#000" stroke-miterlimit="10" stroke-width=".39717258" d="M63.453 101.644v11.852"/><path fill="none" stroke="#000" stroke-miterlimit="10" stroke-width=".79334974" d="M57.527 113.496H69.38m-9.875 1.973h7.902m-6.422 1.976h4.938"/><use xlink:href="#b" x="3.613" y="105.032"/><use xlink:href="#c" x="5.868" y="57.639"/><use xlink:href="#d" x="10.826" y="57.639"/><use xlink:href="#e" x="19.087" y="57.639"/><use xlink:href="#f" x="4.44" y="10.406"/><use xlink:href="#f" x="209.817" y="10.406"/><use xlink:href="#g" x="210.025" y="199.821"/><use xlink:href="#h" x="196.395" y="104.29"/><use xlink:href="#i" x="203.165" y="105.777"/><use xlink:href="#j" x="207.118" y="105.777"/><use xlink:href="#k" x="211.29" y="105.777"/><use xlink:href="#l" x="124.167" y="57.444"/><use xlink:href="#l" x="124.167" y="152.232"/><path fill="none" stroke="#000" stroke-dasharray="2.9751411586 2.9751411586" stroke-miterlimit="10" stroke-width=".39717258" d="M120.328 188.535V14.75"/></svg>