<svg xmlns="http://www.w3.org/2000/svg" xmlns:xlink="http://www.w3.org/1999/xlink" width="225.874" height="133.488"><defs><path id="b" d="M4.453-1.719h-.25c-.047.297-.11.735-.219.875-.062.078-.718.078-.937.078H1.266L2.313-1.78c1.546-1.375 2.14-1.906 2.14-2.907 0-1.125-.89-1.921-2.11-1.921C1.235-6.61.5-5.687.5-4.812c0 .562.484.562.516.562a.516.516 0 0 0 .515-.531c0-.266-.172-.516-.515-.516-.079 0-.11 0-.125.016.218-.657.75-1.016 1.328-1.016.906 0 1.328.797 1.328 1.61 0 .796-.485 1.578-1.031 2.203L.609-.36C.5-.266.5-.234.5 0h3.672Zm0 0"/><path id="c" d="M4.672-1.64v-.298h-.984v-4.515c0-.203 0-.266-.172-.266-.079 0-.11 0-.188.125L.281-1.937v.296h2.64v.86c0 .36-.03.469-.765.469h-.203V0c.406-.031.922-.031 1.344-.031.406 0 .937 0 1.344.031v-.312h-.203c-.735 0-.75-.11-.75-.47v-.859Zm-1.703-.298H.563L2.969-5.64Zm0 0"/><path id="l" d="M4.156 0v-.312h-.312c-.89 0-.922-.11-.922-.47v-5.562c0-.25 0-.265-.235-.265-.609.64-1.484.64-1.796.64v.297c.187 0 .78 0 1.297-.25v5.14c0 .36-.032.47-.922.47H.938V0c.359-.031 1.218-.031 1.609-.031.406 0 1.265 0 1.61.031m0 0"/><path id="m" d="M4.531-1.703c0-.813-.625-1.578-1.656-1.797.813-.266 1.39-.953 1.39-1.734 0-.813-.874-1.375-1.827-1.375-1 0-1.75.593-1.75 1.343 0 .329.218.516.5.516.312 0 .515-.203.515-.5 0-.5-.469-.5-.625-.5.313-.484.969-.61 1.328-.61.406 0 .953.22.953 1.11 0 .125-.03.703-.28 1.125-.298.484-.642.516-.892.516a3.306 3.306 0 0 1-.374.03c-.094.017-.157.032-.157.126 0 .11.063.11.235.11h.437c.813 0 1.188.671 1.188 1.64 0 1.36-.688 1.64-1.125 1.64-.422 0-1.172-.171-1.516-.75.344.047.656-.171.656-.546 0-.36-.265-.563-.562-.563-.235 0-.547.14-.547.578 0 .907.922 1.563 2 1.563 1.203 0 2.11-.906 2.11-1.922m0 0"/><path id="n" d="M6.188-4.937c0-.97-.985-1.844-2.344-1.844h-3.5v.312h.234c.766 0 .797.11.797.469v5.219c0 .36-.031.469-.797.469H.344V0c.344-.031 1.078-.031 1.469-.031.375 0 1.109 0 1.468.031v-.312h-.25c-.765 0-.781-.11-.781-.47V-3.14h1.672c1.203 0 2.266-.796 2.266-1.796m-1.016 0c0 .468 0 1.546-1.578 1.546H2.219v-2.687c0-.328.031-.39.484-.39h.89c1.579 0 1.579 1.046 1.579 1.53m0 0"/><path id="o" d="M7.11 0v-.312h-.173c-.593 0-.734-.063-.843-.391l-2.14-6.203c-.048-.125-.079-.203-.235-.203-.156 0-.188.062-.235.203L1.422-.97c-.172.5-.563.657-1.11.657V0l1.016-.031L2.468 0v-.312c-.5 0-.75-.25-.75-.5 0-.032.016-.125.032-.157l.453-1.297h2.453L5.172-.75a.58.58 0 0 1 .031.14c0 .298-.547.298-.812.298V0c.359-.031 1.047-.031 1.422-.031ZM4.546-2.562H2.313l1.109-3.235Zm0 0"/><path id="p" d="M-1.86-3.984v.25c1.173.093 1.61.297 1.61 1.453v1.172l-3.734-2.766c-.11-.078-.125-.078-.157-.078-.14 0-.14.078-.14.25v3.172l1.61.11v-.25C-3.689-.72-4.064-.907-4.064-2v-1.14l3.75 2.78c.11.079.126.079.172.079C0-.281 0-.344 0-.531v-3.281Zm0 0"/><path id="q" d="M0-5.312h-.312c0 .703-.063.78-.547.78h-3.532l.11 1.454h.312c0-.688.063-.766.563-.766h1.765c.86 0 1.532.469 1.532 1.188 0 .844-.47.875-.985.875H-4.39l.11 1.469h.312c0-.782.031-.782.906-.782h1.5c.766 0 1.672 0 1.672-1.5 0-.562-.28-1-.89-1.281h.89Zm0 0"/><path id="r" d="M0-8.062h-.312c0 .515 0 .765-.297.765H-2.5c-.86 0-1.156 0-1.516.313-.171.14-.375.468-.375 1.047 0 .828.594 1.265.985 1.437-.875.14-.985.875-.985 1.313 0 .734.438 1.187 1.047 1.468H-4.39l.11 1.407h.312c0-.704.063-.782.563-.782H-.75c.438 0 .438.11.438.782H0l-.031-1.125L0-2.548h-.312c0 .656 0 .766-.438.766h-1.828c-1.031 0-1.594-.703-1.594-1.328 0-.625.547-.735 1.11-.735H-.75c.438 0 .438.11.438.766H0l-.031-1.125L0-5.313h-.312c0 .672 0 .782-.438.782h-1.828c-1.031 0-1.594-.703-1.594-1.344 0-.625.547-.734 1.11-.734H-.75c.438 0 .438.109.438.78H0l-.031-1.124Zm0 0"/><path id="s" d="M-6.469-7.11h-.312l.031 1.173-.031 1.156h.312c0-1.016.469-1.016.735-1.016H-1.5l-5.14 3.5c-.126.078-.141.094-.141.281v1.688h.312V-.61c0-.157.016-.36.016-.5.031-.235.047-.235.234-.235h5.172c.266 0 .734 0 .734 1.016H0l-.031-1.156L0-2.656h-.312c0 1.031-.47 1.031-.735 1.031h-5.156c.047-.047.062-.062.125-.094L-.125-5.78c.11-.078.125-.094.125-.157 0-.14-.062-.14-.266-.14h-5.468c-.266 0-.735 0-.735-1.031m0 0"/><path id="t" d="M-1.187-4.125c-.094 0-.11.094-.11.14 0 .079.063.11.14.126C-.14-3.516-.14-2.625-.14-2.516c0 .485-.296.891-.656 1.11-.484.312-1.14.312-1.5.312v-2.781c0-.219 0-.25-.203-.25-.984 0-1.937.547-1.937 1.781 0 1.156 1.015 2.063 2.25 2.063C-.86-.281.108-1.312.108-2.453c0-1.219-1.093-1.672-1.296-1.672m-1.313.656v2.36C-3.984-1.172-4.234-2-4.234-2.344c0-1.015 1.343-1.125 1.734-1.125m0 0"/><path id="u" d="M-1.234-3.297h-.563v.25h.547c.734 0 1.11.297 1.11.672 0 .656-.907.656-1.063.656H-3.97V-3.14h-.312v1.422H-6.11v.25c.828.016 1.875.313 1.922 1.282h.218v-.844h2.735c1.218 0 1.343-.922 1.343-1.281 0-.704-.703-.985-1.343-.985m0 0"/><path id="v" d="M0-2.453h-.312c0 .656-.047.703-.438.703h-3.64l.109 1.39h.312c0-.656.063-.734.547-.734H-.75c.438 0 .438.11.438.766H0l-.031-1.094c0-.344.015-.687.031-1.031m-6 .547a.534.534 0 0 0-.516.531c0 .328.282.531.516.531a.537.537 0 0 0 .531-.531A.536.536 0 0 0-6-1.906m0 0"/><path id="w" d="M0-2.531h-.312c0 .672 0 .781-.438.781h-6.14l.109 1.422h.312c0-.688.063-.766.563-.766H-.75c.438 0 .438.11.438.766H0l-.031-1.094Zm0 0"/><path id="x" d="m-4.484-6.797-2.235.188v6.062l2.235.188v-.25C-6.078-.75-6.406-.891-6.406-2.391c0-.171 0-.437.015-.53.047-.22.157-.22.375-.22H-.78c.328 0 .469 0 .469 1.047v.39H0c-.031-.405-.031-1.405-.031-1.874 0-.453 0-1.469.031-1.875h-.312v.39c0 1.047-.141 1.047-.47 1.047h-5.234c-.203 0-.328 0-.375-.187-.015-.11-.015-.375-.015-.563 0-1.5.328-1.64 1.922-1.78Zm0 0"/><path id="y" d="M0-7.203h-.312v.187c0 .516-.047.72-.36.938l-3.156 2.094-2-1.36c-.313-.218-.625-.562-.64-1.437h-.313l.031 1.093c0 .407 0 .875-.031 1.266h.312c.016-.39.235-.61.453-.61.11 0 .125.016.235.095l1.672 1.125-1.907 1.28c-.03.016-.109.079-.156.079-.125 0-.281-.219-.297-.656h-.312c.031.343.031 1.078.031 1.453L-6.781-.36h.312v-.203c0-.532.063-.735.344-.922l2.766-1.813 2.39 1.625c.203.14.657.438.657 1.438H0l-.031-1.11c0-.36 0-.906.031-1.265h-.312c0 .453-.266.625-.454.625-.093 0-.125-.032-.234-.094L-3.078-3.5l2.36-1.562c.046-.016.077-.047.109-.047.125 0 .297.218.297.64H0c-.031-.343-.031-1.062-.031-1.437Zm0 0"/><clipPath id="a"><path d="M.367 5H15v15H.367Zm0 0"/></clipPath><clipPath id="d"><path d="M5 129h4v3.977H5Zm0 0"/></clipPath><clipPath id="e"><path d="M.367 124H15v8.977H.367Zm0 0"/></clipPath><clipPath id="f"><path d="M35 129h4v3.977h-4Zm0 0"/></clipPath><clipPath id="g"><path d="M29 124h16v8.977H29Zm0 0"/></clipPath><clipPath id="h"><path d="M124 129h4v3.977h-4Zm0 0"/></clipPath><clipPath id="i"><path d="M118 124h16v8.977h-16Zm0 0"/></clipPath><clipPath id="j"><path d="M213 129h4v3.977h-4Zm0 0"/></clipPath><clipPath id="k"><path d="M208 124h15v8.977h-15Zm0 0"/></clipPath></defs><path fill="none" stroke="#000" stroke-miterlimit="10" stroke-width=".39747582" d="M7.176 12.254h14.867m0 0h47.61m23.722 0h65.488m23.719 0h32.742"/><path fill="#FFF" d="M8.754 12.254a1.58 1.58 0 1 0-3.161.003 1.58 1.58 0 0 0 3.16-.003m0 0"/><g clip-path="url(#a)"><path fill="none" stroke="#000" stroke-miterlimit="10" stroke-width=".39747582" d="M8.754 12.254a1.58 1.58 0 1 0-3.161.003 1.58 1.58 0 0 0 3.16-.003Zm0 0"/></g><path stroke="#000" stroke-miterlimit="10" stroke-width=".39747582" d="M38.492 12.254a1.582 1.582 0 0 0-3.164 0 1.583 1.583 0 0 0 3.164 0Zm0 0"/><path fill="none" stroke="#000" stroke-miterlimit="10" stroke-width=".7939554600000001" d="M81.516.395c-6.551 0-11.864 5.312-11.864 11.859 0 6.55 5.313 11.863 11.864 11.863 6.55 0 11.859-5.312 11.859-11.863 0-6.547-5.309-11.86-11.86-11.86Zm0 0"/><use xlink:href="#b" x="79.032" y="15.561"/><path stroke="#000" stroke-miterlimit="10" stroke-width=".39747582" d="M127.7 12.254a1.582 1.582 0 0 0-3.164 0 1.583 1.583 0 0 0 3.163 0Zm0 0"/><path fill="none" stroke="#000" stroke-miterlimit="10" stroke-width=".7939554600000001" d="M170.723.395c-6.551 0-11.86 5.312-11.86 11.859 0 6.55 5.309 11.863 11.86 11.863 6.55 0 11.859-5.312 11.859-11.863 0-6.547-5.309-11.86-11.86-11.86Zm0 0"/><use xlink:href="#c" x="168.239" y="15.616"/><path fill="#FFF" stroke="#000" stroke-miterlimit="10" stroke-width=".39747582" d="M216.906 12.254a1.58 1.58 0 1 0-3.159.003 1.58 1.58 0 0 0 3.16-.003Zm0 0"/><path fill="none" stroke="#000" stroke-miterlimit="10" stroke-width=".39747582" d="M7.176 131.2h14.867m0 0h59.473m0 0h89.207m0 0h44.601"/><g clip-path="url(#d)"><path fill="#FFF" d="M8.754 131.2a1.58 1.58 0 1 0-3.16 0c0 .87.707 1.581 1.582 1.581.87 0 1.578-.71 1.578-1.582m0 0"/></g><g clip-path="url(#e)"><path fill="none" stroke="#000" stroke-miterlimit="10" stroke-width=".39747582" d="M8.754 131.2a1.58 1.58 0 1 0-3.16 0c0 .87.707 1.581 1.582 1.581.87 0 1.578-.71 1.578-1.582Zm0 0"/></g><g clip-path="url(#f)"><path d="M38.492 131.2a1.583 1.583 0 1 0-3.162.002 1.583 1.583 0 0 0 3.162-.003m0 0"/></g><g clip-path="url(#g)"><path fill="none" stroke="#000" stroke-miterlimit="10" stroke-width=".39747582" d="M38.492 131.2a1.583 1.583 0 1 0-3.162.002 1.583 1.583 0 0 0 3.162-.003Zm0 0"/></g><g clip-path="url(#h)"><path d="M127.7 131.2a1.583 1.583 0 1 0-3.162.002 1.583 1.583 0 0 0 3.161-.003m0 0"/></g><g clip-path="url(#i)"><path fill="none" stroke="#000" stroke-miterlimit="10" stroke-width=".39747582" d="M127.7 131.2a1.583 1.583 0 1 0-3.162.002 1.583 1.583 0 0 0 3.161-.003Zm0 0"/></g><g clip-path="url(#j)"><path fill="#FFF" d="M216.906 131.2a1.58 1.58 0 1 0-3.16 0c0 .87.707 1.581 1.578 1.581.875 0 1.582-.71 1.582-1.582m0 0"/></g><g clip-path="url(#k)"><path fill="none" stroke="#000" stroke-miterlimit="10" stroke-width=".39747582" d="M216.906 131.2a1.58 1.58 0 1 0-3.16 0c0 .87.707 1.581 1.578 1.581.875 0 1.582-.71 1.582-1.582Zm0 0"/></g><path fill="none" stroke="#000" stroke-miterlimit="10" stroke-width=".39747582" d="M36.91 12.254v47.613m0 23.719v47.613"/><path fill="none" stroke="#000" stroke-miterlimit="10" stroke-width=".7939554600000001" d="M48.77 71.727c0-6.551-5.31-11.86-11.86-11.86s-11.86 5.309-11.86 11.86c0 6.55 5.31 11.859 11.86 11.859s11.86-5.309 11.86-11.86Zm0 0"/><use xlink:href="#l" x="34.429" y="75.032"/><path fill="none" stroke="#000" stroke-miterlimit="10" stroke-width=".39747582" d="M126.117 12.254v17.879m0 23.719v17.875"/><path fill="none" stroke="#000" stroke-miterlimit="10" stroke-width=".7939554600000001" d="M137.977 41.992c0-6.55-5.309-11.86-11.86-11.86-6.55 0-11.86 5.31-11.86 11.86 0 6.551 5.31 11.86 11.86 11.86 6.551 0 11.86-5.309 11.86-11.86Zm0 0"/><use xlink:href="#m" x="123.636" y="45.188"/><path fill="none" stroke="#000" stroke-miterlimit="10" stroke-width=".7939554600000001" d="M112.281 71.727h27.672v27.675h-27.672Zm0 0"/><path fill="none" stroke="#000" stroke-miterlimit="10" stroke-width=".39747582" d="m116.434 74.91 19.37 10.653-19.37 10.656ZM126.117 99.402v15.899m0 0v15.898"/><use xlink:href="#n" x="143.46" y="89.117"/><use xlink:href="#o" x="149.395" y="89.117"/><use xlink:href="#p" x="10.565" y="99.427"/><use xlink:href="#q" x="10.565" y="95.02"/><use xlink:href="#r" x="10.565" y="89.502"/><use xlink:href="#s" x="10.565" y="77.93"/><use xlink:href="#t" x="10.565" y="70.487"/><use xlink:href="#u" x="10.565" y="66.08"/><use xlink:href="#p" x="10.565" y="62.219"/><use xlink:href="#u" x="10.565" y="57.813"/><use xlink:href="#t" x="10.565" y="53.952"/><use xlink:href="#v" x="10.565" y="49.546"/><use xlink:href="#w" x="10.565" y="46.787"/><use xlink:href="#p" x="218.658" y="89.781"/><use xlink:href="#q" x="218.658" y="85.374"/><use xlink:href="#r" x="218.658" y="79.856"/><use xlink:href="#x" x="218.658" y="68.284"/><use xlink:href="#y" x="218.658" y="61.118"/></svg>