<svg xmlns="http://www.w3.org/2000/svg" xmlns:xlink="http://www.w3.org/1999/xlink" width="230.028" height="154.093"><defs><path id="b" d="M8.703 0v-.312H8.47c-.766 0-.781-.11-.781-.454V-6c0-.344.015-.453.78-.453h.235v-.313H7.031c-.25 0-.25.016-.328.188L4.531-1l-2.14-5.547c-.094-.219-.125-.219-.344-.219H.359v.313h.25c.75 0 .782.11.782.453v4.953c0 .281 0 .734-1.032.734V0l1.172-.031L2.688 0v-.312c-1.016 0-1.016-.454-1.016-.735v-5.328l2.39 6.156c.047.125.094.219.204.219.109 0 .125-.078.172-.187l2.437-6.266h.016v5.687c0 .344-.032.454-.782.454h-.25V0c.375-.031 1.047-.031 1.438-.031.375 0 1.047 0 1.406.031m0 0"/><path id="c" d="M7.094 0v-.312h-.235c-.765 0-.78-.11-.78-.454V-6c0-.344.015-.453.78-.453h.235v-.313c-.344.032-1.078.032-1.453.032s-1.125 0-1.47-.032v.313h.235c.766 0 .782.11.782.453v2.328H2.234V-6c0-.344.016-.453.782-.453h.234v-.313c-.344.032-1.078.032-1.453.032s-1.125 0-1.469-.032v.313h.235c.765 0 .78.11.78.453v5.234c0 .344-.015.454-.78.454H.328V0c.344-.031 1.078-.031 1.453-.031s1.125 0 1.469.031v-.312h-.234c-.766 0-.782-.11-.782-.454v-2.609h2.954v2.61c0 .343-.016.453-.782.453h-.234V0c.344-.031 1.078-.031 1.453-.031s1.125 0 1.469.031m0 0"/><path id="d" d="M3.969-1.86h-.25C3.64-.686 3.422-.25 2.28-.25H1.11l2.75-3.719c.094-.11.094-.125.094-.172 0-.125-.078-.125-.265-.125H.53l-.11 1.594h.235C.72-3.687.906-4.047 2-4.047h1.125L.359-.313c-.078.11-.078.126-.078.172C.281 0 .344 0 .531 0h3.266Zm0 0"/><path id="e" d="M1.906-3.75a.524.524 0 1 0-1.047.016.524.524 0 0 0 1.047-.016m0 3.219A.524.524 0 1 0 .86-.515a.524.524 0 0 0 1.047-.016m0 0"/><path id="f" d="M4.453-1.719h-.25c-.047.297-.125.735-.219.875-.078.078-.718.078-.937.078H1.266L2.313-1.78c1.546-1.375 2.14-1.906 2.14-2.89 0-1.141-.89-1.923-2.11-1.923C1.235-6.594.5-5.687.5-4.797c0 .547.484.547.516.547a.516.516 0 0 0 .515-.531c0-.25-.172-.516-.515-.516-.079 0-.11 0-.141.016.234-.64.766-1.016 1.344-1.016.906 0 1.328.813 1.328 1.625 0 .781-.5 1.578-1.047 2.188L.61-.36C.5-.25.5-.234.5 0h3.672Zm0 0"/><path id="g" d="M2.016-.016c0-.625-.25-1.03-.641-1.03-.344 0-.516.265-.516.515 0 .265.157.531.516.531a.555.555 0 0 0 .39-.156c.032.781-.25 1.39-.687 1.844-.062.062-.062.078-.062.109 0 .078.046.11.093.11.125 0 .907-.782.907-1.923m0 0"/><path id="h" d="M4.453-1.984c0-1.188-.812-2.172-1.89-2.172-.47 0-.891.156-1.25.5v-1.938c.187.063.515.14.843.14 1.219 0 1.906-.905 1.906-1.03 0-.063-.03-.11-.093-.11 0 0-.031 0-.078.032-.203.078-.688.28-1.36.28-.39 0-.844-.062-1.312-.28-.078-.032-.125-.032-.125-.032-.094 0-.094.078-.094.25v2.922c0 .188 0 .266.14.266.063 0 .094-.031.126-.094.109-.156.484-.687 1.28-.687.517 0 .767.453.845.624.156.376.172.75.172 1.25 0 .344 0 .938-.235 1.36-.234.39-.61.64-1.062.64-.72 0-1.282-.515-1.453-1.109.03.016.062.016.171.016.329 0 .485-.235.485-.485 0-.234-.157-.484-.485-.484-.14 0-.484.078-.484.531C.5-.75 1.172.22 2.281.22a2.194 2.194 0 0 0 2.172-2.203m0 0"/><path id="i" d="M4.531-1.687c0-.813-.625-1.594-1.656-1.797.813-.266 1.39-.97 1.39-1.75 0-.813-.874-1.36-1.827-1.36-1 0-1.75.594-1.75 1.344 0 .328.218.516.5.516.312 0 .5-.22.5-.5 0-.5-.454-.5-.61-.5.313-.485.969-.61 1.313-.61.406 0 .953.219.953 1.11 0 .109-.016.687-.266 1.125-.297.468-.64.5-.89.515-.079 0-.313.031-.391.031-.078 0-.14.016-.14.11 0 .11.062.11.234.11h.437c.813 0 1.172.671 1.172 1.656 0 1.343-.672 1.625-1.11 1.625-.421 0-1.171-.172-1.515-.75.344.046.656-.172.656-.547 0-.36-.265-.547-.562-.547-.235 0-.547.14-.547.562 0 .907.922 1.563 2 1.563 1.203 0 2.11-.906 2.11-1.906m0 0"/><path id="j" d="M4.563-3.172c0-.797-.063-1.578-.407-2.312-.453-.953-1.265-1.11-1.672-1.11-.609 0-1.328.25-1.734 1.172-.312.688-.36 1.453-.36 2.25 0 .75.032 1.64.438 2.39.438.798 1.156 1 1.64 1C3 .219 3.75.017 4.189-.936c.312-.672.375-1.454.375-2.235m-.829-.11c0 .735 0 1.407-.109 2.048C3.485-.297 2.906 0 2.469 0c-.39 0-.969-.25-1.156-1.203-.11-.594-.11-1.5-.11-2.078 0-.64 0-1.297.078-1.828.188-1.188.938-1.266 1.188-1.266.328 0 .984.172 1.172 1.156.093.547.093 1.313.093 1.938m0 0"/><path id="k" d="M4.672-1.64v-.298h-1v-4.515c0-.188 0-.25-.156-.25-.094 0-.125 0-.203.11L.28-1.938v.296h2.625v.875c0 .344-.015.454-.75.454h-.203V0c.406-.031.922-.031 1.328-.031.422 0 .953 0 1.36.031v-.312h-.22c-.734 0-.75-.11-.75-.454v-.875Zm-1.703-.298H.563L2.969-5.64Zm0 0"/><path id="l" d="M4.156 0v-.312h-.328c-.89 0-.922-.11-.922-.47v-5.562c0-.234 0-.25-.219-.25-.609.625-1.484.625-1.812.625v.313c.203 0 .797 0 1.297-.25v5.125c0 .36-.016.469-.906.469H.938V0c.343-.031 1.218-.031 1.609-.031.39 0 1.25 0 1.61.031m0 0"/><path id="m" d="M4.938-1.844c0-.984-.641-1.797-1.485-2l-1.265-.312c-.61-.14-1-.672-1-1.25 0-.703.53-1.297 1.312-1.297 1.656 0 1.875 1.625 1.922 2.062.016.063.016.125.125.125.125 0 .125-.046.125-.234v-2c0-.172 0-.234-.11-.234-.062 0-.078.015-.14.125l-.344.562c-.297-.281-.703-.687-1.594-.687A1.91 1.91 0 0 0 .563-5.062 1.9 1.9 0 0 0 1.859-3.25c.11.047.61.156 1.297.328.266.063.563.14.844.5.203.266.313.594.313.922 0 .703-.5 1.406-1.329 1.406-.296 0-1.046-.047-1.562-.531-.578-.531-.61-1.172-.625-1.531 0-.094-.078-.094-.11-.094-.125 0-.125.078-.125.25v1.984c0 .172 0 .235.094.235C.734.219.75.203.812.094c0 0 .032-.047.36-.563.297.328.937.688 1.812.688 1.172 0 1.954-.969 1.954-2.063m0 0"/><path id="n" d="M10-6.453v-.313c-.297.016-.61.032-.906.032l-1.172-.032v.313c.656 0 .86.328.86.516 0 .062-.032.14-.048.203l-1.5 4.578-1.578-4.86a.373.373 0 0 1-.031-.14c0-.297.578-.297.828-.297v-.313c-.344.032-1.031.032-1.406.032l-1.203-.032v.313c.562 0 .765 0 .89.344l.22.703-1.376 4.25-1.594-4.875c-.015-.032-.015-.094-.015-.125 0-.297.562-.297.828-.297v-.313c-.36.032-1.031.032-1.406.032L.17-6.766v.313c.75 0 .782.047.907.406L3.063.031c.03.094.062.188.187.188.14 0 .156-.063.203-.203l1.625-5.032L6.718.031c.032.094.063.188.204.188.125 0 .156-.063.187-.203L9-5.797c.188-.562.61-.656 1-.656m0 0"/><path id="o" d="M7.25-.875c0-.062 0-.172-.125-.172-.11 0-.11.094-.125.172-.062.703-.406.875-.656.875-.485 0-.563-.5-.703-1.422l-.125-.797c-.172-.64-.657-.969-1.203-1.156.953-.234 1.734-.828 1.734-1.61 0-.952-1.14-1.78-2.594-1.78H.343v.312h.235c.766 0 .781.11.781.453v5.234c0 .344-.015.454-.78.454H.343V0c.36-.031 1.062-.031 1.453-.031.375 0 1.078 0 1.437.031v-.312H3c-.766 0-.781-.11-.781-.454V-3.28h1.14c.157 0 .579 0 .922.344.375.359.375.656.375 1.328 0 .64 0 1.03.407 1.406.406.36.953.422 1.25.422.765 0 .937-.813.937-1.094m-2.234-4.11c0 .688-.235 1.485-1.703 1.485H2.218v-2.562c0-.235 0-.344.219-.375.093-.016.39-.016.578-.016.89 0 2 .031 2 1.469m0 0"/><clipPath id="a"><path d="M43 0h98v153.191H43Zm0 0"/></clipPath></defs><path fill="none" stroke="#000" stroke-miterlimit="10" stroke-width=".39666585" d="M32.723 137.773h183.222M32.723 111.598h183.222M32.723 85.426h183.222M32.723 59.25h183.222M32.723 33.074h183.222M32.723 6.91h183.222M32.723 137.773V6.898m26.172 130.875V6.898M85.07 137.773V6.898m26.176 130.875V6.898m26.176 130.875V6.898m26.176 130.875V6.898m26.171 130.875V6.898m26.168 130.875V6.898"/><g clip-path="url(#a)"><path fill="none" stroke="#000" stroke-miterlimit="10" stroke-width="1.5846751000000001" d="m65.441 6.898 21.133 116.239c2.785 15.312 7.297 15.312 10.082 0L117.79 6.898"/></g><use xlink:href="#b" x="20.891" y="148.038"/><use xlink:href="#c" x="29.973" y="148.038"/><use xlink:href="#d" x="37.402" y="148.038"/><use xlink:href="#e" x="41.799" y="148.038"/><use xlink:href="#f" x="52.568" y="147.87"/><use xlink:href="#g" x="57.52" y="147.87"/><use xlink:href="#h" x="60.273" y="147.87"/><use xlink:href="#i" x="78.742" y="147.87"/><use xlink:href="#g" x="83.694" y="147.87"/><use xlink:href="#j" x="86.447" y="147.87"/><use xlink:href="#i" x="104.916" y="147.87"/><use xlink:href="#g" x="109.869" y="147.87"/><use xlink:href="#h" x="112.622" y="147.87"/><use xlink:href="#k" x="131.091" y="147.979"/><use xlink:href="#g" x="136.044" y="147.979"/><use xlink:href="#j" x="138.797" y="147.979"/><use xlink:href="#k" x="157.266" y="147.979"/><use xlink:href="#g" x="162.218" y="147.979"/><use xlink:href="#h" x="164.972" y="147.979"/><use xlink:href="#h" x="183.44" y="147.87"/><use xlink:href="#g" x="188.392" y="147.87"/><use xlink:href="#j" x="191.146" y="147.87"/><use xlink:href="#h" x="209.615" y="147.87"/><use xlink:href="#g" x="214.567" y="147.87"/><use xlink:href="#h" x="217.321" y="147.87"/><use xlink:href="#l" x="24.27" y="134.275"/><use xlink:href="#f" x="24.27" y="108.101"/><use xlink:href="#i" x="24.27" y="81.708"/><use xlink:href="#k" x="24.27" y="55.751"/><use xlink:href="#h" x="24.27" y="29.359"/><use xlink:href="#m" x="3.491" y="10.283"/><use xlink:href="#n" x="8.998" y="10.283"/><use xlink:href="#o" x="19.18" y="10.283"/><use xlink:href="#e" x="26.47" y="10.283"/></svg>