<svg xmlns="http://www.w3.org/2000/svg" xmlns:xlink="http://www.w3.org/1999/xlink" width="234.514" height="184.972"><defs><path id="d" d="M-3.5-2.875c-.266-.828-.969-1.39-1.75-1.39-.812 0-1.375.859-1.375 1.827 0 1 .61 1.75 1.36 1.75.327 0 .515-.218.515-.5 0-.312-.219-.515-.5-.515-.5 0-.5.469-.5.625-.484-.313-.625-.969-.625-1.328 0-.406.219-.953 1.125-.953.11 0 .688.015 1.125.28.484.298.5.642.516.876a3.9 3.9 0 0 1 .03.39c.017.079.017.157.126.157.11 0 .11-.078.11-.235v-.437c0-.828.671-1.188 1.64-1.188 1.36 0 1.64.688 1.64 1.125 0 .422-.171 1.172-.75 1.516.047-.344-.171-.656-.546-.656-.36 0-.563.265-.563.562 0 .235.14.547.578.547.907 0 1.563-.922 1.563-2 0-1.219-.906-2.125-1.922-2.125-.813 0-1.594.625-1.797 1.672m0 0"/><path id="e" d="M-5.812-6.172c-.375-.14-.657-.406-.672-1.078h-.297c.015.297.031.703.031.953 0 .297-.031.875-.031 1.14h.297c.015-.515.265-.734.5-.734.078 0 .14.032.203.063L-1-4.016l-5.016 1.907c-.14.046-.156.046-.171.046-.297 0-.297-.562-.297-.812h-.297c.031.36.031 1.047.031 1.422 0 .484-.031.906-.031 1.266h.297c0-.641 0-.844.375-.97L0-3.468c.188-.062.219-.125.219-.25 0-.172-.047-.187-.188-.234Zm0 0"/><path id="f" d="M-7.25-4.406a.207.207 0 0 0-.203.203c0 .14.094.172.203.203L2.11-.61a.594.594 0 0 0 .171.047c.11 0 .203-.078.203-.187 0-.14-.093-.187-.203-.219l-9.36-3.39c-.124-.047-.171-.047-.171-.047m0 0"/><path id="g" d="M-3.344-7.031c-1.89 0-3.437 1.343-3.437 3.047v3.64h.297v-.25c0-.75.109-.781.468-.781H-.78c.36 0 .469.031.469.781v.25H0v-3.64c0-1.672-1.469-3.047-3.344-3.047m0 1c1.11 0 1.703.187 2.188.547.265.203.843.765.843 1.765v1c0 .469-.062.5-.39.5h-5.375c-.328 0-.406-.031-.406-.5v-.984c0-.625.218-1.313.922-1.813.593-.421 1.453-.515 2.218-.515m0 0"/><path id="h" d="M0-2.453h-.312c0 .656-.047.687-.438.687h-3.64l.109 1.391h.312c0-.64.047-.734.547-.734H-.75c.438 0 .438.109.438.78H0l-.031-1.093c0-.344.015-.687.031-1.031m-6 .547a.547.547 0 0 0-.531.531c0 .328.281.531.531.531a.547.547 0 0 0 .531-.531A.536.536 0 0 0-6-1.906m0 0"/><path id="i" d="M-3.969-5.047h-.312c.015.234.031.516.031.75l-.031.86h.312c0-.376.235-.485.422-.485.094 0 .125.031.235.063l2.53 1.015-2.765 1.11c-.125.062-.172.062-.172.062-.25 0-.25-.39-.25-.562h-.312l.031 1.078c0 .265-.016.672-.031.968h.312c0-.624.047-.671.36-.796l3.53-1.438C.064-2.469.11-2.5.11-2.625s-.093-.172-.187-.203l-3.234-1.313c-.22-.078-.657-.25-.657-.906m0 0"/><path id="j" d="M-.531-1.906A.524.524 0 1 0-.515-.86a.524.524 0 0 0-.016-1.047m0 0"/><clipPath id="a"><path d="M16 .176h215v184.59H16Zm0 0"/></clipPath><clipPath id="b"><path d="M16.969 31h213.554v123H16.97Zm0 0"/></clipPath><clipPath id="c"><path d="M16.969 8h213.554v169H16.97Zm0 0"/></clipPath></defs><g fill="none" stroke="#000" stroke-miterlimit="10" clip-path="url(#a)"><path stroke-width=".19858807" d="M16.969 184.566V.375m30.508 184.191V.375m30.507 184.191V.375m30.508 184.191V.375M139 184.566V.375m30.508 184.191V.375m30.508 184.191V.375m30.507 184.191V.375M16.969 184.566h213.554M16.97 153.867h213.554M16.97 123.172h213.554M16.97 92.472h213.554M16.97 61.774h213.554M16.97 31.074h213.554M16.97.375h213.554"/><path stroke-width=".39817407" d="M16.969 184.566V.375h213.554v184.191Zm0 0"/></g><g clip-path="url(#b)"><path fill="#7F7F7F" fill-opacity=".5" d="m16.969 92.469 1.07-2.914c.297-.809.777-2.102 1.074-2.907.297-.804.774-2.093 1.075-2.894.296-.8.773-2.082 1.07-2.875.3-.797.777-2.067 1.074-2.852.297-.785.777-2.039 1.074-2.816.297-.777.774-2.012 1.074-2.777.297-.766.774-1.98 1.07-2.73.302-.755.778-1.946 1.075-2.684.297-.735.773-1.903 1.074-2.622.297-.722.774-1.859 1.07-2.562.301-.7.778-1.809 1.075-2.492.297-.68.777-1.758 1.074-2.414.297-.66.773-1.703 1.074-2.34.297-.633.774-1.637 1.07-2.25.301-.613.778-1.574 1.075-2.16.297-.586.777-1.508 1.074-2.067.297-.558.773-1.433 1.07-1.965.301-.53.778-1.359 1.074-1.859.297-.504.778-1.281 1.075-1.754a56.875 56.875 0 0 1 2.145-3.16c.3-.406.777-1.031 1.073-1.406a46.41 46.41 0 0 1 1.075-1.282c.297-.335.773-.851 1.074-1.152.297-.305.773-.762 1.07-1.027.297-.27.778-.668 1.074-.899.297-.23.774-.57 1.075-.761.297-.192.773-.473 1.07-.63.3-.156.777-.374 1.074-.491.297-.118.778-.278 1.074-.356a9.35 9.35 0 0 1 1.075-.219 9.87 9.87 0 0 1 1.07-.082c.3 0 .777.024 1.074.059.297.035.777.125 1.074.2.297.07.774.222 1.07.331.301.113.778.324 1.075.473.297.148.777.422 1.074.61.297.187.774.515 1.074.741a21.066 21.066 0 0 1 2.145 1.88c.297.296.777.804 1.074 1.136.297.332.773.895 1.074 1.262.297.367.774.984 1.07 1.383.297.402.778 1.074 1.075 1.507a77.98 77.98 0 0 1 1.074 1.621 84.36 84.36 0 0 1 3.219 5.528c.297.554.773 1.469 1.074 2.05a156.805 156.805 0 0 1 2.145 4.383c.296.633.773 1.668 1.074 2.325a248.66 248.66 0 0 1 2.145 4.883c.296.699.777 1.835 1.073 2.55.297.715.774 1.88 1.075 2.613.297.735.773 1.926 1.07 2.672.3.75.777 1.965 1.074 2.727.297.762.778 1.996 1.074 2.77A1086.122 1086.122 0 0 1 83.5 80.43c.297.793.777 2.07 1.074 2.87.297.802.774 2.09 1.074 2.895.297.805.774 2.098 1.07 2.907.302.804.778 2.105 1.075 2.914.297.808.777 2.105 1.074 2.914a2343.453 2343.453 0 0 0 2.145 5.805c.297.804.777 2.085 1.074 2.878.297.797.773 2.067 1.074 2.856.297.789.774 2.043 1.07 2.82.301.777.778 2.02 1.075 2.785.297.766.777 1.989 1.074 2.742a457.48 457.48 0 0 0 2.145 5.32c.3.723.777 1.868 1.074 2.571a298.396 298.396 0 0 0 2.145 4.934c.3.66.777 1.707 1.073 2.347.297.64.778 1.649 1.075 2.266a145.475 145.475 0 0 0 2.145 4.254c.3.566.776 1.445 1.073 1.98.297.54.778 1.375 1.075 1.88a73.043 73.043 0 0 0 2.144 3.425c.297.445.777 1.133 1.074 1.543a42.343 42.343 0 0 0 2.145 2.723c.3.343.777.867 1.074 1.175.297.309.777.774 1.074 1.047.297.274.774.68 1.075.918.296.235.773.582 1.07.781.3.2.777.489 1.074.653.297.16.777.39 1.074.512.297.125.774.292 1.07.378.301.086.778.192 1.075.239.297.05.777.093 1.074.101a9 9 0 0 0 1.074-.035 10.18 10.18 0 0 0 1.07-.176c.301-.066.778-.207 1.075-.312.297-.106.777-.305 1.074-.45.297-.144.773-.406 1.074-.585.297-.184.774-.504 1.07-.723.297-.219.778-.598 1.075-.855.297-.254.773-.696 1.074-.985a31.537 31.537 0 0 0 2.145-2.36c.296-.359.777-.968 1.074-1.362.297-.399.773-1.06 1.074-1.489.297-.43.773-1.14 1.07-1.601.301-.461.778-1.227 1.074-1.72.297-.491.774-1.304 1.075-1.827a107.579 107.579 0 0 0 2.144-3.969 134.634 134.634 0 0 0 2.149-4.351 219.85 219.85 0 0 0 2.144-4.704c.297-.675.778-1.773 1.074-2.468.297-.696.774-1.829 1.07-2.54.302-.714.778-1.874 1.075-2.605.297-.73.777-1.918 1.074-2.664a517.945 517.945 0 0 0 2.145-5.48c.3-.774.777-2.024 1.074-2.805.297-.785.777-2.047 1.074-2.84.297-.793.774-2.07 1.074-2.867.297-.8.774-2.086 1.07-2.89.298-.805.778-2.098 1.075-2.907.297-.805.773-2.102 1.074-2.91l1.07-2.918c.301-.809.778-2.102 1.075-2.91.297-.805.777-2.098 1.074-2.899.297-.804.773-2.086 1.074-2.883l1.07-2.859c.301-.789.778-2.047 1.075-2.824.296-.781.777-2.024 1.074-2.793.297-.766.773-1.992 1.07-2.746.3-.754.777-1.957 1.074-2.7.297-.738.778-1.917 1.075-2.64a324.523 324.523 0 0 1 2.145-5.094c.3-.687.776-1.777 1.073-2.441.297-.668.778-1.719 1.075-2.364a192.757 192.757 0 0 1 2.145-4.469c.296-.593.776-1.527 1.073-2.093a104.453 104.453 0 0 1 2.145-3.89c.3-.512.777-1.31 1.074-1.79.297-.48.777-1.226 1.074-1.672.297-.449.774-1.144 1.074-1.562.297-.414.774-1.059 1.07-1.441.302-.383.778-.97 1.075-1.32a30.722 30.722 0 0 1 2.145-2.262c.3-.278.777-.696 1.074-.938.297-.238.777-.598 1.074-.805.297-.203.773-.504 1.074-.668.297-.168.774-.406 1.07-.535.301-.133.778-.308 1.075-.402.297-.09.777-.207 1.074-.262.297-.05.773-.105 1.07-.121.301-.016.778-.008 1.074.016.297.023.778.09 1.075.152.297.063.773.191 1.074.293.297.098.773.289 1.07.43.301.136.778.386 1.074.562.297.176.778.488 1.075.703.297.211.773.582 1.074.832.297.25.773.68 1.07.965.297.285.778.774 1.074 1.098.297.32.774.863 1.075 1.219.297.359.773.957 1.07 1.347.3.39.777 1.043 1.074 1.469a62.03 62.03 0 0 1 2.149 3.285c.296.488.773 1.293 1.07 1.809.3.52.777 1.37 1.074 1.918.297.547.777 1.445 1.074 2.02a152.069 152.069 0 0 1 2.145 4.323c.297.63.777 1.649 1.074 2.301.297.649.774 1.707 1.074 2.38a306.905 306.905 0 0 1 3.22 7.577c.296.73.773 1.914 1.073 2.656a683.714 683.714 0 0 1 2.145 5.465c.297.774.773 2.02 1.074 2.801.297.781.773 2.043 1.07 2.836.301.79.778 2.066 1.075 2.863.296.797.777 2.082 1.074 2.887.297.8.773 2.094 1.074 2.902l1.07 2.91c.301.81 1.075 2.919 1.075 2.919v-3.098s-.774 2.105-1.075 2.914l-1.07 2.914c-.3.805-.777 2.098-1.074 2.902-.297.805-.778 2.09-1.074 2.887-.297.797-.774 2.074-1.075 2.863-.297.79-.773 2.055-1.07 2.836-.3.782-.777 2.028-1.074 2.797-.297.774-.778 2-1.074 2.758-.297.758-.774 1.965-1.07 2.71-.302.743-.778 1.927-1.075 2.653a351.489 351.489 0 0 1-2.148 5.125c-.297.692-.774 1.785-1.07 2.457-.301.672-.778 1.73-1.075 2.38-.297.648-.777 1.671-1.074 2.296a146.401 146.401 0 0 1-2.145 4.328c-.297.57-.777 1.473-1.074 2.016a92.94 92.94 0 0 1-2.145 3.73c-.3.485-.777 1.242-1.074 1.7-.297.457-.777 1.16-1.074 1.585a45.153 45.153 0 0 1-2.145 2.813c-.3.355-.777.902-1.074 1.223-.296.32-.777.808-1.074 1.093-.297.29-.773.72-1.07.97-.3.245-.777.62-1.074.831-.297.215-.778.524-1.075.7-.296.175-.773.429-1.074.566-.297.136-.773.328-1.07.43-.3.097-.777.23-1.074.292a11.28 11.28 0 0 1-1.075.153 9.843 9.843 0 0 1-1.074.015 9.983 9.983 0 0 1-1.07-.125 10.743 10.743 0 0 1-1.074-.261c-.297-.09-.774-.27-1.075-.399a13.667 13.667 0 0 1-1.07-.535 15.211 15.211 0 0 1-2.148-1.476c-.297-.243-.774-.66-1.074-.938a30.554 30.554 0 0 1-1.07-1.066c-.302-.313-.778-.844-1.075-1.196a44.656 44.656 0 0 1-1.074-1.32 51.26 51.26 0 0 1-2.145-3 78.312 78.312 0 0 1-1.074-1.676c-.297-.48-.773-1.273-1.074-1.785a104.45 104.45 0 0 1-2.145-3.89c-.297-.57-.777-1.504-1.074-2.098-.297-.594-.773-1.57-1.07-2.188-.301-.62-.778-1.636-1.074-2.281-.297-.64-.778-1.695-1.075-2.36-.297-.667-.773-1.753-1.074-2.44-.297-.688-.773-1.81-1.07-2.516-.301-.704-.778-1.856-1.074-2.579-.297-.726-.778-1.902-1.075-2.644-.297-.738-.773-1.941-1.074-2.695-.297-.758-.773-1.98-1.07-2.75-.297-.766-.778-2.008-1.074-2.79-.297-.777-.774-2.038-1.075-2.828-.297-.789-.773-2.062-1.07-2.855-.3-.797-.777-2.082-1.074-2.883-.297-.805-.778-2.094-1.074-2.902-.297-.805-.774-2.102-1.075-2.91l-1.07-2.914a2354.694 2354.694 0 0 0-2.148-5.816c-.297-.805-.774-2.095-1.07-2.891l-1.075-2.868a741.13 741.13 0 0 0-3.219-8.41c-.3-.761-.777-1.969-1.074-2.715a376.602 376.602 0 0 0-2.148-5.27c-.297-.714-.774-1.843-1.07-2.538-.297-.696-.778-1.797-1.075-2.469a218.933 218.933 0 0 0-2.145-4.703c-.3-.629-.777-1.621-1.074-2.223-.296-.605-.777-1.554-1.074-2.133a108.838 108.838 0 0 0-2.144-3.968c-.301-.52-.778-1.336-1.075-1.825a68.895 68.895 0 0 0-2.144-3.324c-.3-.426-.777-1.09-1.074-1.484a52.192 52.192 0 0 0-1.075-1.367c-.296-.36-.773-.914-1.074-1.242-.297-.325-.773-.82-1.07-1.114-.3-.293-.777-.73-1.074-.988a22.737 22.737 0 0 0-1.074-.852 17.175 17.175 0 0 0-1.07-.722c-.302-.18-.778-.442-1.075-.586a12.546 12.546 0 0 0-1.074-.45c-.297-.109-.774-.246-1.074-.316a10.163 10.163 0 0 0-1.07-.172 9.91 9.91 0 0 0-1.075-.039 9.986 9.986 0 0 0-1.074.102c-.297.047-.774.156-1.074.242-.297.086-.774.254-1.07.375-.298.125-.778.355-1.075.516-.297.16-.773.449-1.074.648-.297.2-.774.55-1.07.785-.301.235-.778.645-1.075.918-.297.27-.777.738-1.074 1.047-.297.309-.773.832-1.074 1.172-.297.344-.774.926-1.07 1.3-.301.38-.778 1.012-1.075 1.423a75.414 75.414 0 0 0-1.074 1.543 87.345 87.345 0 0 0-1.07 1.656 81.49 81.49 0 0 0-2.149 3.648c-.296.535-.773 1.418-1.074 1.98-.297.567-.773 1.493-1.07 2.083-.3.59-.778 1.558-1.074 2.175a178.884 178.884 0 0 0-2.149 4.614 298.38 298.38 0 0 0-2.144 4.93c-.297.706-.774 1.851-1.075 2.574-.296.718-.773 1.894-1.07 2.632-.3.739-.777 1.934-1.074 2.688-.297.754-.777 1.973-1.074 2.742l-1.075 2.781a732.14 732.14 0 0 0-1.07 2.825c-.3.785-.777 2.058-1.074 2.851-.297.797-.777 2.078-1.074 2.88-.297.8-.774 2.093-1.07 2.898-.301.804-.778 2.101-1.075 2.91-.297.808-.777 2.105-1.074 2.914-.297.808-.773 2.105-1.074 2.914l-1.07 2.906c-.301.805-.778 2.094-1.075 2.89-.297.802-.777 2.079-1.074 2.876-.297.793-.773 2.058-1.074 2.843a721.57 721.57 0 0 1-1.07 2.81c-.297.776-.778 2.007-1.075 2.772-.297.762-.773 1.973-1.074 2.723-.297.75-.773 1.942-1.07 2.672-.301.734-.778 1.898-1.075 2.617-.296.715-.777 1.852-1.074 2.547-.297.7-.773 1.805-1.074 2.48-.297.68-.773 1.75-1.07 2.407-.301.656-.778 1.691-1.074 2.324-.297.633-.774 1.629-1.075 2.234-.297.61-.773 1.567-1.07 2.149-.3.582-.777 1.496-1.074 2.05a88.547 88.547 0 0 1-2.148 3.793 84.36 84.36 0 0 1-1.071 1.735c-.3.465-.777 1.187-1.074 1.621a47.617 47.617 0 0 1-2.145 2.89c-.3.368-.777.93-1.074 1.262a25.547 25.547 0 0 1-2.148 2.14c-.297.263-.774.653-1.07.876-.301.223-.778.555-1.075.742a16.63 16.63 0 0 1-1.074.61c-.297.148-.774.359-1.074.468-.297.114-.774.262-1.07.336-.298.075-.778.16-1.075.196a9.845 9.845 0 0 1-1.074.058 9.86 9.86 0 0 1-1.07-.078c-.301-.043-.778-.14-1.075-.219a11.514 11.514 0 0 1-1.074-.355c-.297-.117-.773-.34-1.074-.492a16.951 16.951 0 0 1-1.07-.63c-.301-.195-.778-.534-1.075-.765-.296-.23-.777-.629-1.074-.894a28.926 28.926 0 0 1-1.07-1.028c-.3-.3-.777-.816-1.074-1.156a37.127 37.127 0 0 1-1.075-1.281 56.9 56.9 0 0 1-1.074-1.403 56.902 56.902 0 0 1-2.145-3.164 85.962 85.962 0 0 1-1.074-1.75 150.08 150.08 0 0 1-1.074-1.863 127.565 127.565 0 0 1-2.144-4.027c-.297-.59-.774-1.551-1.075-2.164-.296-.61-.773-1.614-1.07-2.25-.3-.637-.777-1.676-1.074-2.336-.297-.66-.777-1.735-1.074-2.418-.297-.68-.774-1.79-1.074-2.489a426.866 426.866 0 0 1-2.145-5.187c-.297-.734-.773-1.93-1.074-2.68-.297-.75-.774-1.968-1.07-2.734-.301-.762-.778-2-1.075-2.777-.297-.774-.777-2.028-1.074-2.817-.297-.785-.773-2.055-1.074-2.847-.297-.793-.774-2.075-1.07-2.876-.301-.8-.778-2.09-1.075-2.894-.297-.805-.777-2.102-1.074-2.91-.297-.805-1.07-2.914-1.07-2.914m0 0"/></g><g fill="none" stroke="#000" stroke-miterlimit="10" stroke-width="1.594" clip-path="url(#c)"><path stroke-width="1.5907004200000001" d="m16.969 92.469 1.07-2.914c.297-.809.777-2.102 1.074-2.907.297-.804.774-2.093 1.074-2.894l1.07-2.875c.302-.797.778-2.067 1.075-2.852.297-.785.777-2.039 1.074-2.816.297-.777.774-2.012 1.074-2.777.297-.766.774-1.98 1.07-2.73.302-.755.778-1.946 1.075-2.684.297-.735.773-1.903 1.074-2.622.297-.722.774-1.859 1.07-2.562.301-.7.778-1.809 1.075-2.492.297-.68.777-1.758 1.074-2.414.297-.66.773-1.703 1.074-2.34.297-.633.774-1.637 1.07-2.25.301-.613.778-1.574 1.075-2.16.297-.586.777-1.508 1.074-2.067.297-.558.773-1.433 1.07-1.965.301-.53.778-1.359 1.074-1.859.297-.504.778-1.281 1.075-1.754a56.873 56.873 0 0 1 2.145-3.16c.3-.406.777-1.031 1.073-1.406a46.41 46.41 0 0 1 1.075-1.282c.297-.335.773-.851 1.074-1.152.297-.305.773-.762 1.07-1.027.297-.27.778-.668 1.074-.899.297-.23.774-.57 1.075-.761.297-.192.773-.473 1.07-.63.3-.156.777-.374 1.074-.491.297-.118.778-.278 1.074-.356a9.35 9.35 0 0 1 1.075-.219 9.87 9.87 0 0 1 1.07-.082c.3 0 .777.024 1.074.059.297.035.777.125 1.074.2.297.07.774.222 1.07.331.301.113.778.324 1.075.473.297.148.777.422 1.074.61.297.187.774.515 1.074.741a21.067 21.067 0 0 1 2.145 1.88c.297.296.777.804 1.074 1.136.297.332.774.895 1.074 1.262.297.367.774.984 1.07 1.383.297.402.778 1.074 1.075 1.507a77.99 77.99 0 0 1 1.074 1.621 84.362 84.362 0 0 1 3.219 5.528c.297.554.773 1.469 1.074 2.05a156.814 156.814 0 0 1 2.145 4.383c.296.633.773 1.668 1.074 2.325a248.666 248.666 0 0 1 2.145 4.883c.296.699.777 1.835 1.074 2.55.296.715.773 1.88 1.074 2.613.297.735.773 1.926 1.07 2.672.3.75.777 1.965 1.074 2.727.297.762.778 1.996 1.074 2.77A1085.922 1085.922 0 0 1 83.5 80.43c.297.793.777 2.07 1.074 2.87.297.802.774 2.09 1.074 2.895.297.805.774 2.098 1.07 2.907.302.804.778 2.105 1.075 2.914.297.808.777 2.105 1.074 2.914a2343.511 2343.511 0 0 0 2.145 5.805c.297.804.777 2.085 1.074 2.878.297.797.773 2.067 1.074 2.856.297.789.774 2.043 1.07 2.82.301.777.778 2.02 1.075 2.785.297.766.777 1.988 1.074 2.742a457.49 457.49 0 0 0 2.145 5.32c.3.723.777 1.868 1.074 2.571a298.442 298.442 0 0 0 2.145 4.934c.3.66.777 1.707 1.073 2.347.297.64.778 1.649 1.075 2.266a145.468 145.468 0 0 0 2.145 4.254c.3.566.777 1.445 1.073 1.98.297.54.778 1.375 1.075 1.88a73.044 73.044 0 0 0 2.144 3.425 58.65 58.65 0 0 0 1.074 1.543 42.343 42.343 0 0 0 2.145 2.723c.3.343.777.867 1.074 1.175.297.309.777.774 1.074 1.047.297.274.774.68 1.075.918.296.235.773.582 1.07.781.3.2.777.489 1.074.653.297.16.777.39 1.074.512.297.125.774.292 1.07.378.301.086.778.192 1.075.239.297.05.777.093 1.074.101.297.012.773-.004 1.074-.035a10.18 10.18 0 0 0 1.07-.176c.301-.066.778-.207 1.075-.312.297-.106.777-.305 1.074-.45.297-.144.773-.406 1.074-.585.297-.184.774-.504 1.07-.723.297-.219.778-.598 1.075-.855.297-.254.773-.696 1.074-.985a31.537 31.537 0 0 0 2.145-2.36c.296-.359.777-.968 1.074-1.362a74.26 74.26 0 0 0 1.074-1.489c.297-.43.773-1.14 1.07-1.601.301-.461.778-1.227 1.074-1.72.297-.491.774-1.304 1.075-1.827a107.566 107.566 0 0 0 2.144-3.969 134.625 134.625 0 0 0 2.149-4.352 219.855 219.855 0 0 0 2.144-4.703c.297-.675.778-1.773 1.074-2.468.297-.696.774-1.829 1.07-2.54.302-.714.778-1.874 1.075-2.605.297-.73.777-1.918 1.074-2.664a517.906 517.906 0 0 0 2.145-5.48c.3-.774.777-2.024 1.074-2.805.297-.785.777-2.047 1.074-2.84.297-.793.774-2.07 1.074-2.867.297-.8.774-2.086 1.07-2.89.298-.805.778-2.098 1.075-2.907.297-.805.773-2.102 1.074-2.91l1.07-2.918c.301-.809.778-2.102 1.075-2.91.297-.805.777-2.098 1.074-2.899.297-.804.773-2.086 1.074-2.883l1.07-2.859c.301-.789.778-2.047 1.075-2.824.296-.781.777-2.024 1.074-2.793.297-.766.773-1.992 1.07-2.746.3-.754.777-1.957 1.074-2.7.297-.738.778-1.917 1.075-2.64a324.53 324.53 0 0 1 2.145-5.094c.3-.687.776-1.777 1.073-2.441.297-.668.778-1.719 1.075-2.364a192.736 192.736 0 0 1 2.145-4.469c.296-.593.776-1.527 1.073-2.093a104.447 104.447 0 0 1 2.145-3.89c.3-.512.777-1.31 1.074-1.79.297-.48.777-1.226 1.074-1.672.297-.449.774-1.144 1.074-1.562.297-.414.774-1.059 1.07-1.441.302-.383.778-.97 1.075-1.32a30.722 30.722 0 0 1 2.145-2.262c.3-.278.777-.696 1.074-.938.297-.238.777-.598 1.074-.805.297-.203.773-.504 1.074-.668.297-.168.774-.406 1.07-.535.301-.133.778-.308 1.075-.402.297-.09.777-.207 1.074-.262.297-.05.773-.105 1.07-.121.301-.016.778-.008 1.074.016.297.023.778.09 1.075.152.297.062.773.191 1.074.293.297.098.773.289 1.07.43.301.136.778.386 1.074.562.297.176.778.488 1.075.703.297.211.773.582 1.074.832.297.25.773.68 1.07.965.297.285.778.774 1.074 1.098.297.32.774.863 1.075 1.219.297.359.773.957 1.07 1.347.3.39.777 1.043 1.074 1.469a62.03 62.03 0 0 1 2.149 3.285c.296.488.773 1.293 1.07 1.809.3.52.777 1.37 1.074 1.918.297.547.777 1.445 1.074 2.02a152.072 152.072 0 0 1 2.145 4.323c.297.63.777 1.649 1.074 2.301.297.649.774 1.707 1.074 2.38a306.948 306.948 0 0 1 3.22 7.577c.296.73.773 1.914 1.073 2.656a683.79 683.79 0 0 1 2.145 5.465c.297.774.773 2.02 1.074 2.801.297.781.773 2.043 1.07 2.836.301.79.778 2.066 1.075 2.863.296.797.777 2.082 1.074 2.887.297.8.773 2.094 1.074 2.902l1.07 2.91c.301.81 1.075 2.919 1.075 2.919"/><path stroke-width="1.5907004200000001" d="M16.969 92.469s.773 2.11 1.07 2.914c.297.808.777 2.105 1.074 2.91.297.805.774 2.094 1.074 2.894.297.801.774 2.083 1.07 2.875.302.793.778 2.063 1.075 2.848.297.79.777 2.043 1.074 2.817.297.777.774 2.015 1.074 2.777.297.766.774 1.984 1.07 2.734.302.75.778 1.946 1.075 2.68a426.85 426.85 0 0 0 2.145 5.188 245.245 245.245 0 0 0 2.148 4.906c.297.66.773 1.699 1.074 2.336.297.636.774 1.64 1.07 2.25.301.613.778 1.574 1.075 2.164a127.572 127.572 0 0 0 2.145 4.027c.3.531.777 1.36 1.073 1.863.297.5.778 1.282 1.075 1.75a56.902 56.902 0 0 0 2.144 3.164 56.9 56.9 0 0 0 1.074 1.403c.297.375.778.945 1.075 1.281.297.34.773.855 1.074 1.156.297.301.773.762 1.07 1.028.297.265.778.664 1.074.894.297.23.774.57 1.075.766.297.191.773.472 1.07.629.3.152.777.375 1.074.492.297.117.778.277 1.074.355.297.078.774.176 1.075.22.296.038.773.077 1.07.077.3.004.777-.023 1.074-.058.297-.036.777-.122 1.074-.196.297-.074.774-.222 1.07-.336.301-.109.778-.32 1.075-.468.297-.153.777-.422 1.074-.61.297-.187.774-.52 1.074-.742.297-.223.774-.613 1.07-.875a25.548 25.548 0 0 0 2.15-2.14c.296-.333.773-.895 1.073-1.262a47.613 47.613 0 0 0 2.145-2.89c.297-.435.773-1.157 1.074-1.622a84.359 84.359 0 0 0 3.219-5.527c.297-.555.773-1.47 1.074-2.051.297-.582.773-1.54 1.07-2.149.301-.605.778-1.601 1.075-2.234.296-.633.773-1.668 1.074-2.324.297-.656.773-1.727 1.07-2.406.3-.676.777-1.782 1.074-2.48.297-.696.778-1.833 1.075-2.548l1.074-2.617c.297-.73.773-1.922 1.07-2.672.3-.75.777-1.96 1.074-2.723.297-.765.778-1.996 1.074-2.773.297-.773.774-2.023 1.07-2.809.302-.785.778-2.05 1.075-2.843.297-.797.777-2.075 1.074-2.875.297-.797.774-2.086 1.074-2.89.297-.806.774-2.099 1.07-2.907.302-.809.778-2.106 1.075-2.914.297-.809.777-2.106 1.074-2.914a639.5 639.5 0 0 1 1.074-2.91l1.07-2.899 1.075-2.879c.297-.793.773-2.066 1.074-2.851.297-.79.774-2.047 1.07-2.825.301-.777.778-2.015 1.075-2.78.297-.77.777-1.99 1.074-2.743.297-.754.773-1.95 1.074-2.688.297-.738.774-1.914 1.07-2.632.301-.723.778-1.868 1.075-2.575a320.08 320.08 0 0 1 2.144-4.93 178.882 178.882 0 0 1 2.148-4.613c.298-.617.774-1.585 1.075-2.175.297-.59.773-1.516 1.07-2.082.3-.563.778-1.446 1.074-1.98a81.494 81.494 0 0 1 2.148-3.648c.298-.474.774-1.212 1.071-1.657.297-.442.777-1.13 1.074-1.543.297-.41.774-1.043 1.075-1.422.296-.375.773-.957 1.07-1.301.3-.34.777-.863 1.074-1.172.297-.309.777-.777 1.074-1.047.297-.273.774-.683 1.075-.918.296-.234.773-.586 1.07-.785.3-.2.777-.488 1.074-.648.297-.16.777-.391 1.074-.516.297-.121.774-.29 1.07-.375.301-.086.778-.195 1.075-.242a9.986 9.986 0 0 1 1.074-.102 9.91 9.91 0 0 1 1.074.04c.297.027.774.105 1.07.171.301.07.778.207 1.075.317.297.105.777.304 1.074.449.297.144.773.406 1.074.586.297.18.774.504 1.07.722.297.22.778.598 1.075.852.297.258.773.695 1.074.988.297.293.773.79 1.07 1.113.301.329.778.883 1.075 1.243.296.363.777.972 1.074 1.367.297.394.773 1.058 1.074 1.484a68.902 68.902 0 0 1 2.145 3.324c.296.489.773 1.305 1.074 1.825a108.838 108.838 0 0 1 2.145 3.969c.296.578.777 1.527 1.073 2.132.297.602.774 1.594 1.075 2.223a218.938 218.938 0 0 1 4.289 9.71 376.563 376.563 0 0 1 2.148 5.27c.297.746.774 1.953 1.074 2.715.297.762.774 1.992 1.07 2.766a741.148 741.148 0 0 1 2.148 5.645l1.075 2.867c.297.796.774 2.085 1.07 2.89a2356.378 2356.378 0 0 1 2.15 5.817l1.07 2.914c.3.808.777 2.105 1.074 2.91.297.808.777 2.097 1.074 2.902.297.8.773 2.086 1.074 2.883l1.07 2.855c.301.79.778 2.051 1.075 2.829.296.78.777 2.023 1.074 2.789.297.77.773 1.992 1.07 2.75.3.754.777 1.957 1.074 2.695.297.742.778 1.918 1.075 2.644.296.723.773 1.875 1.074 2.579.297.707.773 1.828 1.07 2.515.3.688.777 1.774 1.074 2.442.297.664.778 1.718 1.075 2.359a156.76 156.76 0 0 0 2.144 4.469c.297.593.777 1.527 1.074 2.097a104.444 104.444 0 0 0 2.145 3.891c.3.512.777 1.305 1.074 1.785.297.48.777 1.227 1.074 1.676a51.553 51.553 0 0 0 2.145 3c.3.387.777.973 1.074 1.32.297.352.773.883 1.074 1.196.297.312.774.789 1.07 1.066.301.277.778.695 1.075.937a15.211 15.211 0 0 0 2.148 1.477c.297.168.774.406 1.07.535.301.13.778.309 1.075.399.297.093.777.207 1.074.261.297.055.773.11 1.07.125.301.016.778.008 1.074-.015a11.28 11.28 0 0 0 1.075-.153 12.57 12.57 0 0 0 1.074-.293c.297-.101.773-.293 1.07-.43.301-.136.778-.39 1.074-.566.297-.175.778-.484 1.075-.699.297-.21.773-.586 1.074-.832.297-.25.773-.68 1.07-.969a31.8 31.8 0 0 0 1.074-1.093c.297-.32.774-.868 1.075-1.223a45.15 45.15 0 0 0 2.144-2.813c.297-.425.778-1.128 1.074-1.586.297-.457.774-1.214 1.075-1.699a92.94 92.94 0 0 0 2.144-3.73 135.2 135.2 0 0 0 1.074-2.016 146.424 146.424 0 0 0 2.145-4.328c.297-.625.777-1.648 1.074-2.297.297-.648.774-1.707 1.074-2.379a306.948 306.948 0 0 0 2.145-4.988c.297-.71.777-1.863 1.074-2.594.297-.726.774-1.91 1.074-2.652a657.978 657.978 0 0 0 2.145-5.469c.297-.77.773-2.015 1.074-2.797.297-.781.773-2.047 1.07-2.836.301-.789.778-2.066 1.075-2.863.296-.797.777-2.082 1.074-2.887.297-.804.773-2.097 1.074-2.902l1.07-2.914c.301-.809 1.075-2.914 1.075-2.914"/></g><use xlink:href="#d" x="10.771" y="41.654"/><use xlink:href="#e" x="10.771" y="35.033"/><use xlink:href="#f" x="10.771" y="27.432"/><use xlink:href="#g" x="10.771" y="22.461"/><use xlink:href="#h" x="10.771" y="14.865"/><use xlink:href="#i" x="10.771" y="12.101"/><use xlink:href="#j" x="10.771" y="6.852"/></svg>