<svg xmlns="http://www.w3.org/2000/svg" xmlns:xlink="http://www.w3.org/1999/xlink" width="228.106" height="95.425"><defs><clipPath id="a"><path d="M.238 1.746h14.153v5.66H.238Zm0 5.66h5.66v2.832H.238Zm0 2.832h14.153v5.66H.238Zm0 0"/></clipPath><clipPath id="b"><path d="M.238 0H20v22H.238Zm0 0"/></clipPath><clipPath id="c"><path d="M209.531 1.746h14.153v5.66H209.53Zm8.492 5.66h5.66v2.832h-5.66Zm-8.492 2.832h14.153v5.66H209.53Zm0 0"/></clipPath><clipPath id="d"><path d="M203 0h23.98v22H203Zm0 0"/></clipPath><clipPath id="e"><path d="M42 91h5v3.852h-5Zm0 0"/></clipPath><clipPath id="f"><path d="M37 85h15v9.852H37Zm0 0"/></clipPath><clipPath id="g"><path d="M59 58h38v36.852H59Zm0 0"/></clipPath><clipPath id="i"><path d="M93 91h4v3.852h-4Zm0 0"/></clipPath><clipPath id="j"><path d="M87 85h16v9.852H87Zm0 0"/></clipPath><clipPath id="k"><path d="M177 91h4v3.852h-4Zm0 0"/></clipPath><clipPath id="l"><path d="M172 85h15v9.852h-15Zm0 0"/></clipPath><clipPath id="m"><path d="M127 58h37v36.852h-37Zm0 0"/></clipPath><clipPath id="n"><path d="M127 91h4v3.852h-4Zm0 0"/></clipPath><clipPath id="o"><path d="M121 85h15v9.852h-15Zm0 0"/></clipPath><clipPath id="p"><path d="M.238 5H15v15H.238Zm0 0"/></clipPath><path id="h" d="M7.11 0v-.312h-.188c-.594 0-.734-.063-.844-.391l-2.14-6.188c-.047-.14-.063-.203-.22-.203-.155 0-.187.063-.234.203L1.422-.969c-.172.5-.563.657-1.11.657V0l1.016-.031L2.468 0v-.312c-.5 0-.75-.25-.75-.5 0-.032.016-.125.032-.141l.453-1.313h2.438L5.17-.75a.58.58 0 0 1 .032.14c0 .298-.562.298-.828.298V0c.36-.031 1.047-.031 1.438-.031ZM4.53-2.562H2.313l1.109-3.22Zm0 0"/></defs><path fill="none" stroke="#000" stroke-miterlimit="10" stroke-width=".39660999" d="M10.852 8.82H111.96m0 0h101.11"/><g clip-path="url(#a)"><path fill="none" stroke="#000" stroke-miterlimit="10" stroke-width=".79222597" d="M10.852 8.82a3.534 3.534 0 0 0-3.536-3.535A3.535 3.535 0 0 0 3.777 8.82a3.536 3.536 0 0 0 3.54 3.54 3.535 3.535 0 0 0 3.535-3.54Zm0 0"/></g><g clip-path="url(#b)"><path fill="none" stroke="#000" stroke-miterlimit="10" stroke-width=".79222597" d="M8.73 8.82c0-.78-.632-1.414-1.414-1.414-.785 0-1.418.633-1.418 1.414a1.417 1.417 0 1 0 2.832 0Zm0 0"/></g><path fill="none" stroke="#000" stroke-miterlimit="10" stroke-width=".39660999" d="M8.73 8.82h2.122"/><g clip-path="url(#c)"><path fill="none" stroke="#000" stroke-miterlimit="10" stroke-width=".79222597" d="M213.07 8.82a3.534 3.534 0 0 1 3.535-3.535 3.535 3.535 0 0 1 3.54 3.535 3.536 3.536 0 0 1-3.54 3.54 3.535 3.535 0 0 1-3.535-3.54Zm0 0"/></g><g clip-path="url(#d)"><path fill="none" stroke="#000" stroke-miterlimit="10" stroke-width=".79222597" d="M215.191 8.82c0-.78.633-1.414 1.414-1.414.786 0 1.418.633 1.418 1.414a1.417 1.417 0 1 1-2.832 0Zm0 0"/></g><path fill="none" stroke="#000" stroke-miterlimit="10" stroke-width=".39660999" d="M215.191 8.82h-2.12"/><path fill="none" stroke="#000" stroke-miterlimit="10" stroke-width=".79222597" d="M23.492 8.82c0-4.652-1.887-8.425-4.215-8.425-2.324 0-4.21 3.773-4.21 8.425 0 4.657 1.886 8.426 4.21 8.426 2.328 0 4.215-3.77 4.215-8.426ZM204.644 17.246c2.325 0 4.211-3.77 4.211-8.426 0-4.652-1.886-8.425-4.21-8.425"/><path fill="none" stroke="#000" stroke-miterlimit="10" stroke-width=".39660999" d="M19.277 17.246v16.852m0 0v16.851H29.56m4.718 0h10.278V36.711m0-9.438V13.035h25.277m0 0h25.277"/><path stroke="#000" stroke-miterlimit="10" stroke-width=".39660999" d="M20.855 17.246a1.579 1.579 0 1 0-3.157.001 1.579 1.579 0 0 0 3.157 0ZM20.855 50.95a1.579 1.579 0 1 0-3.157 0 1.579 1.579 0 0 0 3.157 0Zm0 0"/><path fill="none" stroke="#000" stroke-miterlimit="10" stroke-width=".79222597" d="M29.559 43.871v14.156m4.718-14.156v14.156"/><path stroke="#000" stroke-miterlimit="10" stroke-width=".39660999" d="M46.133 50.95a1.579 1.579 0 1 0-3.158 0 1.579 1.579 0 0 0 3.158 0Zm0 0"/><path fill="none" stroke="#000" stroke-miterlimit="10" stroke-width=".79222597" d="m44.555 36.711-5.899-9.438h11.797Zm0 0"/><path fill="none" stroke="#000" stroke-miterlimit="10" stroke-width=".39660999" d="M44.555 36.711v-9.438"/><path fill="none" stroke="#000" stroke-miterlimit="10" stroke-width=".79222597" d="M50.453 36.711H38.656"/><path fill="none" stroke="#000" stroke-miterlimit="10" stroke-width=".39660999" d="M44.555 50.95v11.628m0 18.871v11.63H19.277v-42.13"/><path fill="none" stroke="#000" stroke-miterlimit="10" stroke-width=".79222597" d="M47.86 62.578V81.45h-6.606V62.58ZM52.812 76.73l-12.53-7.16"/><path stroke="#000" stroke-miterlimit="10" stroke-width=".79218612" d="m36.984 67.687 2.051 3.668 2.149-3.765Zm0 0"/><g clip-path="url(#e)"><path d="M46.133 93.078a1.579 1.579 0 1 0-3.158.001 1.579 1.579 0 0 0 3.158 0m0 0"/></g><g clip-path="url(#f)"><path fill="none" stroke="#000" stroke-miterlimit="10" stroke-width=".39660999" d="M46.133 93.078a1.579 1.579 0 1 0-3.158.001 1.579 1.579 0 0 0 3.158 0Zm0 0"/></g><path fill="none" stroke="#000" stroke-miterlimit="10" stroke-width=".39660999" d="M95.11 13.035v22.41m0 18.875v22.41h-9.774m-14.156 0H57.11m0 0h-4.298"/><path fill="none" stroke="#000" stroke-miterlimit="10" stroke-width=".79222597" d="M91.57 54.32V35.445h7.078V54.32Zm0 0"/><path stroke="#000" stroke-miterlimit="10" stroke-width=".39660999" d="M96.687 76.73c0-.87-.707-1.574-1.578-1.574a1.575 1.575 0 1 0 0 3.153c.871 0 1.578-.704 1.578-1.579Zm0 0"/><g clip-path="url(#g)"><path fill="none" stroke="#000" stroke-miterlimit="10" stroke-width=".79222597" d="M78.258 83.809a7.077 7.077 0 1 0 0-14.153 7.076 7.076 0 1 0 0 14.153Zm0 0"/></g><use xlink:href="#h" x="74.544" y="80.277"/><path fill="none" stroke="#000" stroke-miterlimit="10" stroke-width=".39660999" d="M95.11 76.73v8.176m0 0v8.172"/><g clip-path="url(#i)"><path d="M96.688 93.078a1.579 1.579 0 1 0-3.158.001 1.579 1.579 0 0 0 3.157 0m0 0"/></g><g clip-path="url(#j)"><path fill="none" stroke="#000" stroke-miterlimit="10" stroke-width=".39660999" d="M96.687 93.078a1.579 1.579 0 1 0-3.157.001 1.579 1.579 0 0 0 3.157 0Zm0 0"/></g><path fill="none" stroke="#000" stroke-miterlimit="10" stroke-width=".39660999" d="M204.644 17.246v16.852m0 0v16.851h-10.28m-4.72 0h-10.277V36.711m0-9.438V13.035H154.09m0 0h-25.278"/><path stroke="#000" stroke-miterlimit="10" stroke-width=".39660999" d="M206.223 17.246a1.579 1.579 0 1 0-3.158.001 1.579 1.579 0 0 0 3.158 0ZM206.223 50.95a1.579 1.579 0 1 0-3.158 0 1.579 1.579 0 0 0 3.158 0Zm0 0"/><path fill="none" stroke="#000" stroke-miterlimit="10" stroke-width=".79222597" d="M194.363 58.027V43.871m-4.719 14.156V43.871"/><path stroke="#000" stroke-miterlimit="10" stroke-width=".39660999" d="M180.945 50.95a1.579 1.579 0 1 0-3.157 0 1.579 1.579 0 0 0 3.157 0Zm0 0"/><path fill="none" stroke="#000" stroke-miterlimit="10" stroke-width=".79222597" d="m179.367 36.711-5.898-9.438h11.797Zm0 0"/><path fill="none" stroke="#000" stroke-miterlimit="10" stroke-width=".39660999" d="M179.367 36.711v-9.438"/><path fill="none" stroke="#000" stroke-miterlimit="10" stroke-width=".79222597" d="M185.266 36.711h-11.797"/><path fill="none" stroke="#000" stroke-miterlimit="10" stroke-width=".39660999" d="M179.367 50.95v11.628m0 18.871v11.63h25.277v-42.13"/><path fill="none" stroke="#000" stroke-miterlimit="10" stroke-width=".79222597" d="M176.062 62.578V81.45h6.606V62.58ZM171.11 76.73l12.53-7.16"/><path stroke="#000" stroke-miterlimit="10" stroke-width=".79218612" d="m186.938 67.687-4.2-.097 2.149 3.765Zm0 0"/><g clip-path="url(#k)"><path d="M180.945 93.078a1.579 1.579 0 1 0-3.157.001 1.579 1.579 0 0 0 3.157 0m0 0"/></g><g clip-path="url(#l)"><path fill="none" stroke="#000" stroke-miterlimit="10" stroke-width=".39660999" d="M180.945 93.078a1.579 1.579 0 1 0-3.157.001 1.579 1.579 0 0 0 3.157 0Zm0 0"/></g><path fill="none" stroke="#000" stroke-miterlimit="10" stroke-width=".39660999" d="M128.812 13.035v22.41m0 18.875v22.41h9.774m14.156 0h14.07m0 0h4.297"/><path fill="none" stroke="#000" stroke-miterlimit="10" stroke-width=".79222597" d="M125.273 54.32V35.445h7.079V54.32Zm0 0"/><path stroke="#000" stroke-miterlimit="10" stroke-width=".39660999" d="M130.39 76.73c0-.87-.706-1.574-1.578-1.574a1.575 1.575 0 1 0 0 3.153c.872 0 1.579-.704 1.579-1.579Zm0 0"/><g clip-path="url(#m)"><path fill="none" stroke="#000" stroke-miterlimit="10" stroke-width=".79222597" d="M145.664 69.656a7.076 7.076 0 1 0 0 14.153 7.077 7.077 0 1 0 0-14.153Zm0 0"/></g><use xlink:href="#h" x="141.949" y="80.277"/><path fill="none" stroke="#000" stroke-miterlimit="10" stroke-width=".39660999" d="M128.812 76.73v8.176m0 0v8.172"/><g clip-path="url(#n)"><path d="M130.39 93.078a1.579 1.579 0 1 0-3.157.001 1.579 1.579 0 0 0 3.158 0m0 0"/></g><g clip-path="url(#o)"><path fill="none" stroke="#000" stroke-miterlimit="10" stroke-width=".39660999" d="M130.39 93.078a1.579 1.579 0 1 0-3.157.001 1.579 1.579 0 0 0 3.158 0Zm0 0"/></g><path fill="none" stroke="#000" stroke-miterlimit="10" stroke-width=".39660999" d="M44.555 93.078h67.406m0 0h67.406"/><path fill="none" stroke="#000" stroke-miterlimit="10" stroke-width=".79222597" d="M19.277.395h185.367M19.277 17.246h22.75m5.055 0h45.5m5.055 0h27.804m5.055 0h45.5m5.055 0h23.593"/><path fill="none" stroke="#000" stroke-dasharray="2.9709269083 2.9709269083" stroke-miterlimit="10" stroke-width=".39660999" d="M61.406 76.73v12.641h101.11v-12.64"/><path fill="none" stroke="#000" stroke-miterlimit="10" stroke-width=".39660999" d="M19.277 17.246H7.317V12.36m0 0"/><path d="M8.89 12.36a1.575 1.575 0 1 0-3.152 0 1.575 1.575 0 1 0 3.152 0m0 0"/><g clip-path="url(#p)"><path fill="none" stroke="#000" stroke-miterlimit="10" stroke-width=".39660999" d="M8.89 12.36a1.575 1.575 0 1 0-3.152 0 1.575 1.575 0 1 0 3.152 0Zm0 0"/></g><path fill="none" stroke="#000" stroke-miterlimit="10" stroke-width=".39660999" d="M204.644 17.246h11.961V12.36m0 0"/><path stroke="#000" stroke-miterlimit="10" stroke-width=".39660999" d="M218.184 12.36a1.576 1.576 0 1 0-3.153 0 1.575 1.575 0 1 0 3.153 0Zm0 0"/></svg>