<svg xmlns="http://www.w3.org/2000/svg" xmlns:xlink="http://www.w3.org/1999/xlink" width="233.012" height="117.644"><defs><path id="a" d="M2.922-6.344c0-.25 0-.265-.235-.265-.609.64-1.484.64-1.796.64v.297c.187 0 .78 0 1.297-.25v5.14c0 .36-.032.47-.922.47H.938V0c.359-.031 1.218-.031 1.609-.031.406 0 1.265 0 1.61.031v-.312h-.313c-.89 0-.922-.11-.922-.47Zm0 0"/><path id="b" d="M1.047-.75c0 .438-.11.438-.766.438V0c.328-.016.797-.031 1.078-.031.297 0 .688.015 1.094.031v-.312c-.672 0-.781 0-.781-.438v-1.031l.64-.547C3.079-1.266 3.5-.718 3.5-.531c0 .187-.172.219-.36.219V0c.266-.016.86-.031 1.063-.031.297 0 .578.015.86.031v-.312c-.36 0-.579 0-.954-.516L2.844-2.61c0-.016-.063-.079-.063-.11 0-.047.719-.64.813-.719.625-.5 1.047-.515 1.25-.53v-.313c-.297.031-.422.031-.703.031-.344 0-.97-.016-1.11-.031v.312c.188.016.297.125.297.25 0 .203-.14.313-.219.39L1.703-2.124v-4.766l-1.422.11v.312c.688 0 .766.063.766.563Zm0 0"/><path id="c" d="M2.922-1.64v.859c0 .36-.031.469-.766.469h-.203V0c.406-.031.922-.031 1.344-.031.406 0 .937 0 1.344.031v-.312h-.203c-.735 0-.75-.11-.75-.47v-.859h.984v-.296h-.984v-4.516c0-.203 0-.266-.172-.266-.079 0-.11 0-.188.125L.281-1.937v.296Zm.047-.298H.563L2.969-5.64Zm0 0"/><path id="e" d="M4.719-6.047c.093-.11.093-.14.093-.344H2.407c-1.219 0-1.234-.125-1.281-.312H.891L.563-4.656h.234c.031-.172.125-.797.25-.907.078-.062.844-.062.984-.062h2.047c-.11.156-.89 1.234-1.11 1.563C2.079-2.72 1.75-1.344 1.75-.328c0 .094 0 .547.453.547s.453-.453.453-.547v-.5c0-.547.031-1.094.11-1.625.046-.235.187-1.094.625-1.703Zm0 0"/><path id="f" d="M1.094-3.406V-.75c0 .438-.11.438-.782.438V0c.36-.016.86-.031 1.126-.031.265 0 .78.015 1.109.031v-.312c-.656 0-.766 0-.766-.438v-1.828c0-1.031.703-1.594 1.328-1.594.625 0 .735.547.735 1.11V-.75c0 .438-.11.438-.766.438V0a30.36 30.36 0 0 1 1.125-.031c.25 0 .766.015 1.11.031v-.312c-.516 0-.766 0-.782-.297V-2.5c0-.86 0-1.156-.297-1.516-.14-.171-.468-.375-1.046-.375-.735 0-1.188.438-1.47 1.047V-4.39l-1.405.11v.312c.703 0 .78.063.78.563m0 0"/><path id="g" d="M5.781-6.75H.328v.313h.235c.765 0 .78.109.78.468V-.78c0 .36-.015.469-.78.469H.328V0c.344-.031 1.125-.031 1.5-.031.422 0 1.313 0 1.672.031v-.312h-.328c-.938 0-.938-.125-.938-.47v-2.437h.844c.953 0 1.063.313 1.063 1.156h.25v-2.624h-.25c0 .828-.11 1.156-1.063 1.156h-.844v-2.516c0-.328.016-.39.485-.39h1.187c1.485 0 1.735.546 1.89 1.921h.25Zm0 0"/><path id="d" d="M2.016-.016c0-.656-.25-1.03-.641-1.03a.5.5 0 0 0-.516.515c0 .265.188.531.516.531.125 0 .25-.047.344-.125.031-.031.047-.031.062-.031 0 0 .016 0 .016.14 0 .735-.344 1.329-.672 1.657-.11.109-.11.14-.11.172 0 .062.048.109.094.109.11 0 .907-.766.907-1.938m0 0"/><path id="h" d="M-6.344-2.922c-.25 0-.265 0-.265.235.64.609.64 1.484.64 1.796h.297c0-.187 0-.78-.25-1.296h5.14c.36 0 .47.03.47.921v.329H0c-.031-.36-.031-1.22-.031-1.61 0-.406 0-1.265.031-1.61h-.312v.313c0 .89-.11.922-.47.922Zm0 0"/><path id="i" d="M-3.406-1.094H-.75c.438 0 .438.11.438.782H0c-.016-.36-.031-.86-.031-1.125 0-.266.015-.782.031-1.11h-.312c0 .656 0 .766-.438.766h-1.828c-1.031 0-1.594-.703-1.594-1.328 0-.625.547-.735 1.11-.735H-.75c.438 0 .438.11.438.766H0a30.36 30.36 0 0 1-.031-1.125c0-.25.015-.766.031-1.11h-.312c0 .516 0 .766-.297.782H-2.5c-.86 0-1.156 0-1.516.297-.171.14-.375.468-.375 1.047 0 .734.438 1.187 1.047 1.468H-4.39l.11 1.407h.312c0-.704.063-.782.563-.782m0 0"/><path id="j" d="M-6.75-5.781v5.453h.313v-.234c0-.766.109-.782.468-.782H-.78c.36 0 .469.016.469.782v.234H0c-.031-.344-.031-1.125-.031-1.5 0-.422 0-1.313.031-1.672h-.312v.328c0 .938-.125.938-.47.938h-2.437v-.844c0-.953.313-1.063 1.156-1.063v-.25h-2.624v.25c.828 0 1.156.11 1.156 1.063v.844h-2.516c-.328 0-.39-.016-.39-.485v-1.187c0-1.485.546-1.735 1.921-1.89v-.25Zm0 0"/><path id="m" d="M-1.64-2.922h.859c.36 0 .469.031.469.766v.203H0c-.031-.406-.031-.922-.031-1.344 0-.406 0-.937.031-1.344h-.312v.204c0 .734-.11.75-.47.75h-.859v-.985h-.296v.984h-4.516c-.203 0-.266 0-.266.172 0 .079 0 .11.125.188l4.657 3.047h.296Zm-.298-.047v2.407L-5.64-2.97Zm0 0"/><path id="o" d="M-6.047-4.719c-.11-.093-.14-.093-.344-.093v2.406c0 1.219-.125 1.234-.312 1.281v.234l2.047.329v-.235c-.172-.031-.797-.125-.907-.25-.062-.078-.062-.844-.062-.984v-2.047c.156.11 1.234.89 1.563 1.11 1.343.89 2.718 1.218 3.734 1.218.094 0 .547 0 .547-.453s-.453-.453-.547-.453h-.5c-.547 0-1.094-.031-1.625-.11-.235-.046-1.094-.187-1.703-.625Zm0 0"/><path id="p" d="M-3.172-4.562c-.797 0-1.594.046-2.328.39-.953.469-1.11 1.281-1.11 1.688 0 .593.266 1.328 1.188 1.734.672.313 1.453.36 2.25.36.735 0 1.64-.032 2.39-.438.798-.438 1-1.156 1-1.64C.219-3 .017-3.767-.936-4.204c-.688-.313-1.454-.36-2.235-.36M0-2.47c0 .39-.25.969-1.203 1.156-.594.11-1.5.11-2.094.11-.625 0-1.281 0-1.828-.094-1.172-.187-1.266-.922-1.266-1.172 0-.328.172-.984 1.157-1.172.562-.093 1.312-.093 1.937-.093.75 0 1.422 0 2.063.109C-.297-3.485 0-2.922 0-2.469m0 0"/><path id="q" d="M-.75-1.047c.438 0 .438.11.438.766H0A27.166 27.166 0 0 1-.031-1.36c0-.297.015-.688.031-1.094h-.312c0 .672 0 .781-.438.781h-1.031l-.547-.64C-1.266-3.078-.718-3.5-.531-3.5c.187 0 .219.172.219.36H0C-.016-3.407-.031-4-.031-4.204c0-.297.015-.578.031-.86h-.312c0 .36 0 .579-.516.954L-2.61-2.844c-.016 0-.079.063-.11.063-.047 0-.64-.719-.719-.813-.5-.625-.515-1.047-.53-1.25h-.313c.031.297.031.422.031.703 0 .344-.016.97-.031 1.11h.312c.016-.188.125-.297.25-.297.203 0 .313.14.39.219l1.204 1.406h-4.766l.11 1.422h.312c0-.688.063-.766.563-.766Zm0 0"/><path id="n" d="M-.016-2.016c-.656 0-1.03.25-1.03.641a.5.5 0 0 0 .515.516c.265 0 .531-.188.531-.516a.546.546 0 0 0-.125-.344c-.031-.031-.031-.047-.031-.062 0 0 0-.016.14-.016.735 0 1.329.344 1.657.672.109.11.14.11.172.11.062 0 .109-.048.109-.094 0-.11-.766-.907-1.938-.907m0 0"/><path id="r" d="M6.469-2.562h-.25c-.25 1.53-.469 2.25-2.188 2.25H2.72c-.469 0-.485-.063-.485-.391V-3.36h.891c.969 0 1.078.328 1.078 1.172h.234v-2.641h-.234c0 .86-.11 1.172-1.078 1.172h-.89v-2.39c0-.329.015-.391.484-.391H4c1.516 0 1.781.546 1.938 1.921h.25L5.906-6.75H.328v.313h.235c.765 0 .78.109.78.468V-.78c0 .36-.015.469-.78.469H.328V0h5.719Zm0 0"/><path id="s" d="M7.11 0v-.312h-.173c-.593 0-.734-.063-.843-.391l-2.14-6.203c-.048-.125-.079-.203-.235-.203-.156 0-.188.062-.235.203L1.422-.97c-.172.5-.563.657-1.11.657V0l1.016-.031L2.468 0v-.312c-.5 0-.75-.25-.75-.5 0-.032.016-.125.032-.157l.453-1.297h2.453L5.172-.75a.58.58 0 0 1 .031.14c0 .298-.547.298-.812.298V0c.359-.031 1.047-.031 1.422-.031ZM4.546-2.562H2.313l1.109-3.235Zm0 0"/><clipPath id="k"><path d="M87 106h1v11.219h-1Zm0 0"/></clipPath><clipPath id="l"><path d="M80 116h14v1.219H80Zm0 0"/></clipPath></defs><path fill="none" stroke="#000" stroke-miterlimit="10" stroke-width=".39731622" d="M51.48 44.23 65.383 33.8m8.027-6.019 13.906-10.43h43.72m20.066 0h70.597"/><path fill="none" stroke="#000" stroke-miterlimit="10" stroke-width=".79363666" d="m73.41 27.781-11.789 1.004 7.524 10.031Zm0 0"/><path fill="none" stroke="#000" stroke-miterlimit="10" stroke-width=".39731622" d="m73.41 27.781-8.027 6.02"/><path fill="none" stroke="#000" stroke-miterlimit="10" stroke-width=".79363666" d="m77.172 32.797-7.524-10.031"/><path stroke="#000" stroke-miterlimit="10" stroke-width=".39731622" d="M53.059 44.23a1.58 1.58 0 1 0-3.16-.004 1.58 1.58 0 0 0 3.16.004Zm0 0"/><path fill="none" stroke="#000" stroke-miterlimit="10" stroke-width=".79363666" d="M131.035 13.59h20.067v7.527h-20.067Zm0 0"/><path stroke="#000" stroke-miterlimit="10" stroke-width=".39731622" d="M124.73 17.352a1.58 1.58 0 1 0-3.161.003 1.58 1.58 0 0 0 3.161-.003ZM160.566 17.352a1.58 1.58 0 1 0-3.161.003 1.58 1.58 0 0 0 3.161-.003Zm0 0"/><use xlink:href="#a" x="135.143" y="10.007"/><use xlink:href="#b" x="141.75" y="10.007"/><path stroke="#000" stroke-miterlimit="10" stroke-width=".39731622" d="M196.402 17.352a1.58 1.58 0 1 0-3.161.003 1.58 1.58 0 0 0 3.161-.003Zm0 0"/><path fill="#FFF" stroke="#000" stroke-miterlimit="10" stroke-width=".39731622" d="M223.281 17.352a1.58 1.58 0 1 0-3.159.002 1.58 1.58 0 0 0 3.16-.002Zm0 0"/><path fill="none" stroke="#000" stroke-miterlimit="10" stroke-width=".39731622" d="M51.48 44.23H31.59m-5.016 0H6.684"/><path fill="none" stroke="#000" stroke-miterlimit="10" stroke-width=".79363666" d="M31.59 51.754v-15.05m-5.016 15.05v-15.05"/><use xlink:href="#c" x="16.015" y="32.745"/><use xlink:href="#d" x="20.975" y="32.745"/><use xlink:href="#e" x="23.731" y="32.745"/><use xlink:href="#f" x="30.16" y="32.745"/><use xlink:href="#g" x="35.672" y="32.745"/><path stroke="#000" stroke-miterlimit="10" stroke-width=".39731622" d="M8.414 44.23v-1.976l-4.2 1.976 4.2 1.977Zm0 0"/><path fill="none" stroke="#000" stroke-miterlimit="10" stroke-width=".39731622" d="m51.48 44.23 13.903 10.43m8.027 6.02 13.906 10.425v15.41m0 5.02v15.406"/><path fill="none" stroke="#000" stroke-miterlimit="10" stroke-width=".79363666" d="m65.383 54.66 11.789 1-7.524 10.035Zm0 0"/><path fill="none" stroke="#000" stroke-miterlimit="10" stroke-width=".39731622" d="m65.383 54.66 8.027 6.02"/><path fill="none" stroke="#000" stroke-miterlimit="10" stroke-width=".79363666" d="m61.621 59.676 7.524-10.035"/><path stroke="#000" stroke-miterlimit="10" stroke-width=".39731622" d="M88.895 71.105a1.58 1.58 0 1 0-3.161.003 1.58 1.58 0 0 0 3.16-.003Zm0 0"/><path fill="none" stroke="#000" stroke-miterlimit="10" stroke-width=".79363666" d="M94.84 86.516H79.79m15.05 5.02H79.79"/><path stroke="#000" stroke-miterlimit="10" stroke-width=".39731622" d="M88.895 106.941a1.58 1.58 0 1 0-3.161.003 1.58 1.58 0 0 0 3.16-.003Zm0 0"/><use xlink:href="#h" x="103.975" y="96.981"/><use xlink:href="#i" x="103.975" y="90.553"/><use xlink:href="#j" x="103.975" y="85.041"/><g clip-path="url(#k)"><path fill="none" stroke="#000" stroke-miterlimit="10" stroke-width=".39731622" d="M87.316 106.941v9.883"/></g><g clip-path="url(#l)"><path fill="none" stroke="#000" stroke-linecap="round" stroke-miterlimit="10" stroke-width=".79363666" d="M81.387 116.824h11.855"/></g><path fill="none" stroke="#000" stroke-miterlimit="10" stroke-width=".39731622" d="M87.316 106.941H6.684"/><path stroke="#000" stroke-miterlimit="10" stroke-width=".39731622" d="M8.414 106.941v-1.972l-4.2 1.972 4.2 1.977Zm0 0"/><path fill="none" stroke="#000" stroke-miterlimit="10" stroke-width=".39731622" d="M87.316 106.941h35.836V91.535m0-5.02V17.353"/><path fill="none" stroke="#000" stroke-miterlimit="10" stroke-width=".79363666" d="M115.625 91.535h15.05m-15.05-5.02h15.05"/><path stroke="#000" stroke-miterlimit="10" stroke-width=".39731622" d="M124.73 106.941a1.58 1.58 0 1 0-3.161.003 1.58 1.58 0 0 0 3.161-.003Zm0 0"/><use xlink:href="#h" x="139.811" y="96.981"/><use xlink:href="#i" x="139.811" y="90.553"/><use xlink:href="#j" x="139.811" y="85.041"/><path fill="none" stroke="#000" stroke-miterlimit="10" stroke-width=".39731622" d="M123.152 106.941h35.836V91.535m0-5.02v-32.25m0-20.07V17.352"/><path fill="none" stroke="#000" stroke-miterlimit="10" stroke-width=".79363666" d="M151.461 91.535h15.05m-15.05-5.02h15.05"/><path stroke="#000" stroke-miterlimit="10" stroke-width=".39731622" d="M160.566 106.941a1.58 1.58 0 1 0-3.161.003 1.58 1.58 0 0 0 3.161-.003Zm0 0"/><use xlink:href="#m" x="175.646" y="101.804"/><use xlink:href="#n" x="175.646" y="96.843"/><use xlink:href="#o" x="175.646" y="94.087"/><use xlink:href="#i" x="175.646" y="87.659"/><use xlink:href="#j" x="175.646" y="82.147"/><path fill="none" stroke="#000" stroke-miterlimit="10" stroke-width=".79363666" d="M162.75 34.195v20.07h-7.527v-20.07Zm0 0"/><path stroke="#000" stroke-miterlimit="10" stroke-width=".39731622" d="M160.566 71.105a1.58 1.58 0 1 0-3.161.003 1.58 1.58 0 0 0 3.161-.003ZM160.566 17.352a1.58 1.58 0 1 0-3.161.003 1.58 1.58 0 0 0 3.161-.003Zm0 0"/><use xlink:href="#h" x="171.617" y="53.808"/><use xlink:href="#p" x="171.617" y="48.848"/><use xlink:href="#p" x="171.617" y="43.888"/><use xlink:href="#q" x="171.617" y="37.281"/><path fill="none" stroke="#000" stroke-miterlimit="10" stroke-width=".39731622" d="M158.988 106.941h35.836V91.535m0-5.02V17.353"/><path fill="none" stroke="#000" stroke-miterlimit="10" stroke-width=".79363666" d="M187.297 91.535h15.05m-15.05-5.02h15.05"/><use xlink:href="#m" x="211.482" y="101.804"/><use xlink:href="#n" x="211.482" y="96.844"/><use xlink:href="#o" x="211.482" y="94.087"/><use xlink:href="#i" x="211.482" y="87.659"/><use xlink:href="#j" x="211.482" y="82.147"/><path fill="none" stroke="#000" stroke-miterlimit="10" stroke-width=".39731622" d="M87.316 71.105h43.72m20.066 0h70.597"/><path fill="none" stroke="#000" stroke-miterlimit="10" stroke-width=".79363666" d="M131.035 67.344h20.067v7.527h-20.067Zm0 0"/><use xlink:href="#a" x="135.143" y="63.761"/><use xlink:href="#b" x="141.75" y="63.761"/><path fill="#FFF" stroke="#000" stroke-miterlimit="10" stroke-width=".39731622" d="M223.281 71.105a1.58 1.58 0 1 0-3.159.003 1.58 1.58 0 0 0 3.16-.003Zm0 0"/><use xlink:href="#r" x="3.307" y="40.725"/><use xlink:href="#s" x="217.978" y="13.849"/></svg>