<svg xmlns="http://www.w3.org/2000/svg" xmlns:xlink="http://www.w3.org/1999/xlink" width="229.858" height="117.054"><defs><path id="c" d="M2.86-3.469c.812-.281 1.39-.969 1.39-1.75 0-.812-.875-1.36-1.828-1.36-.985 0-1.735.595-1.735 1.345 0 .328.22.515.5.515.297 0 .5-.218.5-.5 0-.5-.468-.5-.609-.5.297-.484.953-.61 1.313-.61.406 0 .953.22.953 1.11 0 .11-.031.688-.281 1.125-.297.469-.641.5-.876.516-.078 0-.328.015-.39.015-.078.016-.14.032-.14.126 0 .109.062.109.234.109h.437c.797 0 1.172.672 1.172 1.64 0 1.344-.687 1.626-1.125 1.626-.422 0-1.156-.172-1.5-.75.344.046.64-.172.64-.547a.533.533 0 0 0-.546-.547c-.235 0-.547.14-.547.578 0 .89.906 1.547 1.984 1.547 1.203 0 2.11-.906 2.11-1.906 0-.813-.625-1.579-1.657-1.782m0 0"/><path id="d" d="M4.547-3.156c0-.797-.047-1.578-.406-2.313-.453-.953-1.25-1.11-1.672-1.11-.594 0-1.313.266-1.719 1.173-.312.687-.36 1.453-.36 2.25 0 .734.032 1.625.438 2.375.422.797 1.14 1 1.625 1 .531 0 1.297-.203 1.719-1.14.328-.688.375-1.454.375-2.235M2.453 0c-.375 0-.969-.25-1.14-1.187-.11-.594-.11-1.516-.11-2.094 0-.625 0-1.281.078-1.813.188-1.172.938-1.265 1.172-1.265.328 0 .985.172 1.172 1.156.094.547.094 1.297.094 1.922 0 .75 0 1.422-.11 2.047C3.47-.297 2.906 0 2.453 0m0 0"/><path id="q" d="M1.25-.766 2.297-1.78c1.547-1.36 2.14-1.89 2.14-2.875 0-1.125-.89-1.922-2.093-1.922A1.813 1.813 0 0 0 .5-4.797c0 .563.484.563.516.563a.516.516 0 0 0 .515-.532c0-.25-.172-.5-.531-.5H.875c.234-.64.766-1 1.344-1 .89 0 1.312.797 1.312 1.61 0 .781-.484 1.562-1.031 2.172L.61-.36C.5-.25.5-.234.5 0h3.656l.282-1.719h-.25c-.047.297-.125.735-.22.875-.062.078-.718.078-.937.078Zm0 0"/><path id="s" d="M2.906-6.312c0-.25 0-.266-.234-.266-.61.64-1.485.64-1.797.64v.297c.203 0 .781 0 1.297-.25v5.11c0 .36-.031.469-.922.469H.938V0C1.28-.031 2.14-.031 2.53-.031c.406 0 1.266 0 1.61.031v-.312h-.313c-.89 0-.922-.11-.922-.47Zm0 0"/><path id="u" d="M1.297-3.234v-.235c0-2.5 1.234-2.86 1.734-2.86.235 0 .656.063.875.391-.156 0-.547 0-.547.454 0 .297.235.453.454.453a.446.446 0 0 0 .453-.485c0-.593-.438-1.062-1.25-1.062C1.75-6.578.422-5.297.422-3.125c0 2.64 1.14 3.344 2.062 3.344 1.094 0 2.032-.938 2.032-2.235 0-1.25-.875-2.203-1.985-2.203-.672 0-1.031.5-1.234.985M2.484-.062c-.625 0-.921-.594-.984-.735-.172-.469-.172-1.25-.172-1.437 0-.766.313-1.75 1.203-1.75.156 0 .61 0 .922.609.172.36.172.86.172 1.344 0 .484 0 .969-.172 1.328-.297.594-.75.64-.969.64m0 0"/><path id="v" d="M8.969-5.781c.187-.563.61-.657 1-.657v-.312c-.297.031-.61.031-.906.031-.282 0-.922-.015-1.172-.031v.313c.656.015.859.328.859.515 0 .063-.031.14-.047.203L7.22-1.156 5.64-6a.373.373 0 0 1-.032-.14c0-.298.579-.298.829-.298v-.312c-.36.031-1.032.031-1.407.031s-.797-.015-1.203-.031v.313c.563 0 .781 0 .89.359l.22.687-1.375 4.235-1.594-4.86c0-.03-.016-.093-.016-.125 0-.296.578-.296.828-.296v-.313c-.36.031-1.031.031-1.406.031S.578-6.734.172-6.75v.313c.75 0 .781.046.906.406L3.047.03c.031.094.062.188.187.188.141 0 .157-.078.204-.203L5.062-5 6.704.031c.031.094.063.188.188.188.14 0 .156-.078.203-.203Zm0 0"/><path id="i" d="M7.078 0v-.312h-.172c-.593 0-.734-.063-.843-.391L3.938-6.875c-.063-.125-.079-.203-.235-.203-.156 0-.187.062-.234.203L1.422-.969c-.172.5-.578.657-1.11.657V0l1.016-.031L2.453 0v-.312c-.484 0-.734-.235-.734-.5 0-.032.015-.125.015-.141l.454-1.297h2.437l.531 1.516a.368.368 0 0 1 .032.125c0 .297-.563.297-.829.297V0c.36-.031 1.047-.031 1.422-.031ZM4.516-2.562h-2.22l1.11-3.204Zm0 0"/><path id="l" d="M4.656-1.625v-.312h-1v-4.485c0-.203 0-.266-.156-.266-.078 0-.11 0-.187.125L.28-1.936v.312h2.625v.86c0 .343-.015.453-.75.453h-.203V0c.39-.031.906-.031 1.328-.031.406 0 .938 0 1.344.031v-.312h-.203c-.734 0-.766-.11-.766-.454v-.859ZM2.97-1.937H.547l2.422-3.688Zm0 0"/><path id="m" d="M2-.016c0-.625-.234-1.03-.625-1.03a.517.517 0 0 0-.531.53c0 .25.172.516.531.516.14 0 .281-.062.39-.156.016.781-.25 1.375-.687 1.844C1.016 1.75 1 1.75 1 1.797c0 .062.063.11.11.11.109 0 .89-.782.89-1.923m0 0"/><path id="n" d="M4.797-6.36H2.39c-1.203 0-1.22-.124-1.266-.312h-.25L.547-4.64h.25c.031-.156.125-.78.25-.906.062-.047.844-.047.969-.047h2.047L2.952-4.03c-.89 1.328-1.219 2.703-1.219 3.703 0 .094 0 .547.454.547.453 0 .453-.453.453-.547v-.5c0-.547.03-1.094.109-1.625.047-.219.188-1.078.625-1.688l1.328-1.875c.094-.109.094-.14.094-.343m0 0"/><path id="o" d="M5.281 0v-.312c-.515 0-.765 0-.765-.297v-1.875c0-.86 0-1.157-.313-1.516-.14-.172-.453-.36-1.031-.36-.719 0-1.188.423-1.469 1.032V-4.36l-1.39.109v.297c.687 0 .78.078.78.562V-.75c0 .438-.109.438-.78.438V0l1.125-.031L2.53 0v-.312c-.656 0-.765 0-.765-.438v-1.812c0-1.032.703-1.579 1.328-1.579.625 0 .734.532.734 1.094V-.75c0 .438-.11.438-.765.438V0l1.109-.031Zm0 0"/><path id="p" d="M6.031-4.5 5.75-6.719H.328v.313h.235c.765 0 .78.11.78.468v5.172c0 .344-.015.454-.78.454H.328V0c.344-.031 1.11-.031 1.5-.031.406 0 1.297 0 1.656.031v-.312h-.328c-.937 0-.937-.125-.937-.47v-2.421h.86c.937 0 1.046.312 1.046 1.156h.234v-2.625h-.234c0 .828-.11 1.156-1.047 1.156h-.86v-2.5c0-.328.016-.39.485-.39h1.188c1.484 0 1.734.547 1.89 1.906Zm0 0"/><path id="w" d="M6.438-2.547h-.25c-.25 1.516-.47 2.235-2.172 2.235H2.703c-.469 0-.484-.063-.484-.391v-2.64h.89c.954 0 1.063.327 1.063 1.156h.25v-2.61h-.25c0 .844-.11 1.156-1.063 1.156h-.89v-2.375c0-.328.015-.39.484-.39h1.281c1.5 0 1.766.547 1.938 1.906h.234l-.265-2.219H.328v.313h.235c.765 0 .78.11.78.468v5.172c0 .344-.015.454-.78.454H.328V0h5.703Zm0 0"/><path id="r" d="M4.688-4.469a.2.2 0 0 0-.157.063L2.97-2.844 1.406-4.406a.224.224 0 0 0-.156-.063c-.125 0-.234.078-.234.219 0 .063.015.125.062.156l1.563 1.578L1.078-.953c-.047.031-.062.094-.062.156 0 .11.093.219.234.219.047 0 .11-.016.156-.047L2.97-2.203 4.53-.625a.264.264 0 0 0 .157.047c.125 0 .234-.078.234-.219a.192.192 0 0 0-.078-.156L3.28-2.516l1.563-1.578a.192.192 0 0 0 .078-.156.227.227 0 0 0-.234-.219m0 0"/><path id="t" d="M2-.016c0-.64-.25-1.03-.625-1.03a.517.517 0 0 0-.531.53c0 .266.203.516.531.516a.58.58 0 0 0 .344-.125c.031-.016.031-.031.047-.031.015 0 .015.015.015.14 0 .735-.343 1.329-.672 1.657C1 1.75 1 1.766 1 1.797c0 .062.063.11.11.11.109 0 .89-.766.89-1.923m0 0"/><clipPath id="a"><path d="M.852 9.57h15.742v6.297H.852Zm0 6.297h6.296v3.149H.852Zm0 3.149h15.742v6.297H.852Zm0 0"/></clipPath><clipPath id="b"><path d="M.852 4H22v27H.852Zm0 0"/></clipPath><clipPath id="e"><path d="M102 107h15v9.117h-15Zm0 0"/></clipPath><clipPath id="f"><path d="M29 107h16v9.117H29Zm0 0"/></clipPath><clipPath id="g"><path d="M78 107h15v9.117H78Zm0 0"/></clipPath><clipPath id="h"><path d="M102 107h15v9.117h-15Zm0 0"/></clipPath><clipPath id="j"><path d="M175 107h15v9.117h-15Zm0 0"/></clipPath><clipPath id="k"><path d="M211 107h15v9.117h-15Zm0 0"/></clipPath></defs><path fill="none" stroke="#000" stroke-miterlimit="10" stroke-width=".39580002000000003" d="M12.66 17.441h12.11m0 0h36.34m0 0h36.34m0 0h12.112v10.66m0 27.133v21.317m0 27.133v10.66"/><g clip-path="url(#a)"><path fill="none" stroke="#000" stroke-miterlimit="10" stroke-width=".7906080600000001" d="M12.66 17.441a3.939 3.939 0 0 0-7.875 0 3.939 3.939 0 0 0 7.875 0Zm0 0"/></g><g clip-path="url(#b)"><path fill="none" stroke="#000" stroke-miterlimit="10" stroke-width=".7906080600000001" d="M10.297 17.441c0-.87-.703-1.574-1.574-1.574a1.575 1.575 0 1 0 1.574 1.574Zm0 0"/></g><path fill="none" stroke="#000" stroke-miterlimit="10" stroke-width=".39580002000000003" d="M10.297 17.441h2.363"/><path stroke="#000" stroke-miterlimit="10" stroke-width=".39580002000000003" d="M38.457 17.441a1.575 1.575 0 1 0-3.148 0 1.575 1.575 0 0 0 3.148 0ZM86.91 17.441c0-.87-.703-1.574-1.574-1.574a1.575 1.575 0 1 0 1.574 1.574Zm0 0"/><path fill="none" stroke="#000" stroke-miterlimit="10" stroke-width=".7906080600000001" d="M104.473 55.234V28.102h10.175v27.132Zm0 0"/><path stroke="#000" stroke-miterlimit="10" stroke-width=".39580002000000003" d="M111.137 65.89a1.575 1.575 0 0 0-3.148 0c0 .872.702 1.579 1.573 1.579.868 0 1.575-.707 1.575-1.578Zm0 0"/><use xlink:href="#c" x="116.754" y="43.797"/><use xlink:href="#c" x="121.696" y="43.797"/><use xlink:href="#d" x="126.637" y="43.797"/><path fill="none" stroke="#000" stroke-miterlimit="10" stroke-width=".7906080600000001" d="M104.473 103.684V76.55h10.175v27.133Zm0 0"/><path d="M111.137 114.344a1.575 1.575 0 1 0-3.15 0 1.575 1.575 0 0 0 3.15 0m0 0"/><g clip-path="url(#e)"><path fill="none" stroke="#000" stroke-miterlimit="10" stroke-width=".39580002000000003" d="M111.137 114.344a1.575 1.575 0 1 0-3.15 0 1.575 1.575 0 0 0 3.15 0Zm0 0"/></g><use xlink:href="#c" x="116.754" y="92.247"/><use xlink:href="#c" x="121.696" y="92.247"/><use xlink:href="#d" x="126.637" y="92.247"/><path fill="none" stroke="#000" stroke-miterlimit="10" stroke-width=".39580002000000003" d="M8.723 21.379v92.965H24.77m0 0h36.34m0 0h36.34m0 0h12.112"/><path d="M38.457 114.344a1.575 1.575 0 1 0-3.148 0 1.575 1.575 0 0 0 3.148 0m0 0"/><g clip-path="url(#f)"><path fill="none" stroke="#000" stroke-miterlimit="10" stroke-width=".39580002000000003" d="M38.457 114.344a1.575 1.575 0 1 0-3.148 0 1.575 1.575 0 0 0 3.148 0Zm0 0"/></g><path d="M86.91 114.344c0-.871-.703-1.574-1.574-1.574-.871 0-1.574.703-1.574 1.574 0 .87.703 1.574 1.574 1.574.871 0 1.574-.703 1.574-1.574m0 0"/><g clip-path="url(#g)"><path fill="none" stroke="#000" stroke-miterlimit="10" stroke-width=".39580002000000003" d="M86.91 114.344c0-.871-.703-1.574-1.574-1.574-.871 0-1.574.703-1.574 1.574 0 .87.703 1.574 1.574 1.574.871 0 1.574-.703 1.574-1.574Zm0 0"/></g><path d="M111.137 114.344a1.575 1.575 0 1 0-3.15 0 1.575 1.575 0 0 0 3.15 0m0 0"/><g clip-path="url(#h)"><path fill="none" stroke="#000" stroke-miterlimit="10" stroke-width=".39580002000000003" d="M111.137 114.344a1.575 1.575 0 1 0-3.15 0 1.575 1.575 0 0 0 3.15 0Zm0 0"/></g><path fill="none" stroke="#000" stroke-miterlimit="10" stroke-width=".39580002000000003" d="M109.562 65.89h29.555m13.567 0h47.722m0 0h18.172"/><path fill="none" stroke="#000" stroke-miterlimit="10" stroke-width=".7906080600000001" d="m152.684 65.89-13.567-8.476v16.957Zm0 0"/><path fill="none" stroke="#000" stroke-miterlimit="10" stroke-width=".39580002000000003" d="M152.684 65.89h-13.567"/><path fill="none" stroke="#000" stroke-miterlimit="10" stroke-width=".7906080600000001" d="M152.684 74.371V57.414"/><path stroke="#000" stroke-miterlimit="10" stroke-width=".39580002000000003" d="M183.812 65.89a1.575 1.575 0 0 0-3.148 0c0 .872.707 1.579 1.574 1.579.871 0 1.574-.707 1.574-1.578Zm0 0"/><path fill="#FFF" stroke="#000" stroke-miterlimit="10" stroke-width=".39580002000000003" d="M220.152 65.89a1.575 1.575 0 0 0-3.148 0c0 .872.703 1.579 1.574 1.579.867 0 1.574-.707 1.574-1.578Zm0 0"/><use xlink:href="#i" x="214.869" y="62.401"/><path fill="none" stroke="#000" stroke-miterlimit="10" stroke-width=".39580002000000003" d="M109.562 114.344h36.336m0 0h54.508m0 0h18.172"/><path d="M183.813 114.344a1.575 1.575 0 1 0-3.148 0 1.575 1.575 0 0 0 3.148 0m0 0"/><g clip-path="url(#j)"><path fill="none" stroke="#000" stroke-miterlimit="10" stroke-width=".39580002000000003" d="M183.812 114.344a1.575 1.575 0 1 0-3.148 0 1.575 1.575 0 0 0 3.148 0Zm0 0"/></g><path fill="#FFF" d="M220.152 114.344a1.575 1.575 0 1 0-3.149 0 1.575 1.575 0 0 0 3.15 0m0 0"/><g clip-path="url(#k)"><path fill="none" stroke="#000" stroke-miterlimit="10" stroke-width=".39580002000000003" d="M220.152 114.344a1.575 1.575 0 1 0-3.149 0 1.575 1.575 0 0 0 3.15 0Zm0 0"/></g><path fill="none" stroke="#000" stroke-miterlimit="10" stroke-width=".39580002000000003" d="M36.883 17.441v34.883m0 27.133v34.887"/><path fill="none" stroke="#000" stroke-miterlimit="10" stroke-width=".7906080600000001" d="M31.797 79.457V52.324h10.176v27.133Zm0 0"/><path fill="none" stroke="#000" stroke-miterlimit="10" stroke-width=".39580002000000003" d="M85.336 17.441v34.883m0 27.133v34.887"/><path fill="none" stroke="#000" stroke-miterlimit="10" stroke-width=".7906080600000001" d="M80.25 79.457V52.324h10.172v27.133Zm0 0"/><path fill="none" stroke="#000" stroke-miterlimit="10" stroke-width=".39580002000000003" d="M182.238 65.89v20.837m0 6.78v20.837"/><path fill="none" stroke="#000" stroke-miterlimit="10" stroke-width=".7906080600000001" d="M192.414 86.727h-20.352m20.352 6.78h-20.352"/><use xlink:href="#l" x="195.027" y="92.247"/><use xlink:href="#m" x="199.968" y="92.247"/><use xlink:href="#n" x="202.715" y="92.247"/><use xlink:href="#o" x="210.948" y="92.247"/><use xlink:href="#p" x="216.443" y="92.247"/><use xlink:href="#q" x="55.67" y="56.257"/><use xlink:href="#r" x="60.611" y="56.257"/><use xlink:href="#s" x="52.874" y="68.117"/><use xlink:href="#s" x="57.815" y="68.117"/><use xlink:href="#d" x="62.756" y="68.117"/><use xlink:href="#d" x="48.825" y="79.976"/><use xlink:href="#t" x="53.766" y="79.976"/><use xlink:href="#u" x="56.511" y="79.976"/><use xlink:href="#v" x="63.093" y="79.976"/><use xlink:href="#w" x="5.358" y="10.014"/></svg>