<svg xmlns="http://www.w3.org/2000/svg" xmlns:xlink="http://www.w3.org/1999/xlink" width="228.128" height="226.441"><defs><clipPath id="a"><path d="M0 9.758h15.809v6.324H0Zm0 6.324h6.324v3.164H0Zm0 3.164h15.809v6.324H0Zm0 0"/></clipPath><clipPath id="e"><path d="M48 222h5v3.73h-5Zm0 0"/></clipPath><clipPath id="f"><path d="M43 216h15v9.73H43Zm0 0"/></clipPath><clipPath id="g"><path d="M87 222h4v3.73h-4Zm0 0"/></clipPath><clipPath id="h"><path d="M82 216h15v9.73H82Zm0 0"/></clipPath><clipPath id="i"><path d="M126 222h4v3.73h-4Zm0 0"/></clipPath><clipPath id="j"><path d="M120 216h16v9.73h-16Zm0 0"/></clipPath><path id="b" d="M-6.344-2.922c-.25 0-.265 0-.265.235.64.609.64 1.484.64 1.796h.297c0-.187 0-.78-.25-1.296h5.14c.36 0 .47.03.47.921v.329H0c-.031-.36-.031-1.22-.031-1.61 0-.406 0-1.265.031-1.61h-.312v.313c0 .89-.11.922-.47.922Zm0 0"/><path id="c" d="M-2-4.453c-1.172 0-2.172.812-2.172 1.89 0 .47.156.891.516 1.25h-1.938a3.01 3.01 0 0 0 .125-.843c0-1.219-.906-1.906-1.031-1.906-.062 0-.11.03-.11.093 0 .016 0 .031.032.078.094.204.281.688.281 1.344 0 .406-.062.86-.266 1.328-.03.078-.03.094-.03.125 0 .094.077.094.234.094h2.937c.172 0 .25 0 .25-.14 0-.063-.015-.094-.078-.126-.156-.109-.703-.484-.703-1.28 0-.517.453-.767.64-.845.36-.156.75-.187 1.25-.187.344 0 .938 0 1.36.25.39.234.64.594.64 1.062 0 .72-.515 1.282-1.109 1.454.016-.032.016-.063.016-.172a.48.48 0 0 0-.485-.5.48.48 0 0 0-.484.5c0 .14.078.484.531.484C-.75-.5.22-1.187.22-2.297c0-1.14-.953-2.156-2.219-2.156m0 0"/><path id="d" d="M-3.172-4.562c-.797 0-1.594.046-2.328.39-.953.469-1.11 1.281-1.11 1.688 0 .593.266 1.328 1.188 1.734.672.313 1.453.36 2.25.36.735 0 1.64-.032 2.39-.438.798-.438 1-1.156 1-1.64C.219-3 .017-3.767-.936-4.204c-.688-.313-1.454-.36-2.235-.36M0-2.47c0 .39-.25.969-1.203 1.156-.594.11-1.5.11-2.094.11-.625 0-1.281 0-1.828-.094-1.172-.187-1.266-.922-1.266-1.172 0-.328.172-.984 1.157-1.172.562-.093 1.312-.093 1.937-.093.75 0 1.422 0 2.063.109C-.297-3.485 0-2.922 0-2.469m0 0"/><path id="k" d="M6.469-2.562h-.25c-.25 1.53-.469 2.25-2.188 2.25H2.72c-.469 0-.485-.063-.485-.391V-3.36h.891c.969 0 1.078.328 1.078 1.172h.234v-2.641h-.234c0 .86-.11 1.172-1.078 1.172h-.89v-2.39c0-.329.015-.391.484-.391H4c1.516 0 1.781.546 1.938 1.921h.25L5.906-6.75H.328v.313h.235c.765 0 .78.109.78.468V-.78c0 .36-.015.469-.78.469H.328V0h5.719Zm0 0"/></defs><path fill="none" stroke="#000" stroke-miterlimit="10" stroke-width=".39747981000000004" d="M11.86 17.664h64.46m0 0h64.465m51.574 0h12.891m0 0h12.895"/><g clip-path="url(#a)"><path fill="none" stroke="#000" stroke-miterlimit="10" stroke-width=".79396343" d="M11.86 17.664a3.953 3.953 0 1 0-7.906 0 3.953 3.953 0 0 0 7.905 0Zm0 0"/></g><path fill="none" stroke="#000" stroke-miterlimit="10" stroke-width=".79396343" d="M9.484 17.664c0-.871-.707-1.582-1.578-1.582a1.583 1.583 0 0 0 0 3.164 1.58 1.58 0 0 0 1.578-1.582Zm0 0"/><path fill="none" stroke="#000" stroke-miterlimit="10" stroke-width=".39747981000000004" d="M9.484 17.664h2.375"/><path fill="none" stroke="#000" stroke-dasharray="2.9774425577000003 2.9774425577000003" stroke-miterlimit="10" stroke-width=".39747981000000004" d="M140.785 17.664h51.574"/><path fill="none" stroke="#000" stroke-miterlimit="10" stroke-width=".39747981000000004" d="M50.535 17.664v11.348m0 28.879v22.691m0 28.879v22.691m0 28.883v22.692m0 28.878v11.348"/><path fill="none" stroke="#000" stroke-miterlimit="10" stroke-width=".79396343" d="M45.121 57.89V29.013h10.832V57.89Zm0 0"/><path stroke="#000" stroke-miterlimit="10" stroke-width=".39747981000000004" d="M52.117 17.664c0-.871-.707-1.582-1.582-1.582a1.582 1.582 0 0 0 0 3.164 1.58 1.58 0 0 0 1.582-1.582Zm0 0"/><use xlink:href="#b" x="42.976" y="50.665"/><use xlink:href="#c" x="42.976" y="45.702"/><use xlink:href="#d" x="42.976" y="40.74"/><path fill="none" stroke="#000" stroke-miterlimit="10" stroke-width=".79396343" d="M45.121 109.461V80.582h10.832v28.879Zm0 0"/><use xlink:href="#b" x="42.976" y="102.236"/><use xlink:href="#c" x="42.976" y="97.274"/><use xlink:href="#d" x="42.976" y="92.312"/><path fill="none" stroke="#000" stroke-miterlimit="10" stroke-width=".79396343" d="M45.121 161.035v-28.883h10.832v28.883Zm0 0"/><use xlink:href="#b" x="42.976" y="153.807"/><use xlink:href="#c" x="42.976" y="148.845"/><use xlink:href="#d" x="42.976" y="143.883"/><path fill="none" stroke="#000" stroke-miterlimit="10" stroke-width=".79396343" d="M45.121 212.605v-28.878h10.832v28.878Zm0 0"/><g clip-path="url(#e)"><path d="M52.117 223.953a1.58 1.58 0 1 0-3.16-.003 1.58 1.58 0 0 0 3.16.003m0 0"/></g><g clip-path="url(#f)"><path fill="none" stroke="#000" stroke-miterlimit="10" stroke-width=".39747981000000004" d="M52.117 223.953a1.58 1.58 0 1 0-3.16-.003 1.58 1.58 0 0 0 3.16.003Zm0 0"/></g><use xlink:href="#b" x="42.976" y="205.378"/><use xlink:href="#c" x="42.976" y="200.416"/><use xlink:href="#d" x="42.976" y="195.454"/><path fill="none" stroke="#000" stroke-miterlimit="10" stroke-width=".39747981000000004" d="M89.215 17.664v11.348m0 28.879v22.691m0 28.879v22.691m0 28.883v22.692m0 28.878v11.348"/><path fill="none" stroke="#000" stroke-miterlimit="10" stroke-width=".79396343" d="M83.8 57.89V29.013H94.63V57.89Zm0 0"/><path stroke="#000" stroke-miterlimit="10" stroke-width=".39747981000000004" d="M90.797 17.664a1.583 1.583 0 1 0-3.166.002 1.583 1.583 0 0 0 3.166-.002Zm0 0"/><use xlink:href="#b" x="81.654" y="50.665"/><use xlink:href="#c" x="81.654" y="45.702"/><use xlink:href="#d" x="81.654" y="40.74"/><path fill="none" stroke="#000" stroke-miterlimit="10" stroke-width=".79396343" d="M83.8 109.461V80.582H94.63v28.879Zm0 0"/><use xlink:href="#b" x="81.654" y="102.236"/><use xlink:href="#c" x="81.654" y="97.274"/><use xlink:href="#d" x="81.654" y="92.312"/><path fill="none" stroke="#000" stroke-miterlimit="10" stroke-width=".79396343" d="M83.8 161.035v-28.883H94.63v28.883Zm0 0"/><use xlink:href="#b" x="81.654" y="153.807"/><use xlink:href="#c" x="81.654" y="148.845"/><use xlink:href="#d" x="81.654" y="143.883"/><path fill="none" stroke="#000" stroke-miterlimit="10" stroke-width=".79396343" d="M83.8 212.605v-28.878H94.63v28.878Zm0 0"/><g clip-path="url(#g)"><path d="M90.797 223.953a1.583 1.583 0 0 0-3.164 0 1.582 1.582 0 0 0 3.164 0m0 0"/></g><g clip-path="url(#h)"><path fill="none" stroke="#000" stroke-miterlimit="10" stroke-width=".39747981000000004" d="M90.797 223.953a1.583 1.583 0 0 0-3.164 0 1.582 1.582 0 0 0 3.164 0Zm0 0"/></g><use xlink:href="#b" x="81.654" y="205.378"/><use xlink:href="#c" x="81.654" y="200.416"/><use xlink:href="#d" x="81.654" y="195.454"/><path fill="none" stroke="#000" stroke-miterlimit="10" stroke-width=".39747981000000004" d="M127.895 17.664v11.348m0 28.879v22.691m0 28.879v22.691m0 28.883v22.692m0 28.878v11.348"/><path fill="none" stroke="#000" stroke-miterlimit="10" stroke-width=".79396343" d="M122.48 57.89V29.013h10.829V57.89Zm0 0"/><path stroke="#000" stroke-miterlimit="10" stroke-width=".39747981000000004" d="M129.477 17.664a1.583 1.583 0 1 0-3.162.002 1.583 1.583 0 0 0 3.162-.002Zm0 0"/><use xlink:href="#b" x="120.332" y="50.665"/><use xlink:href="#c" x="120.332" y="45.702"/><use xlink:href="#d" x="120.332" y="40.74"/><path fill="none" stroke="#000" stroke-miterlimit="10" stroke-width=".79396343" d="M122.48 109.461V80.582h10.829v28.879Zm0 0"/><use xlink:href="#b" x="120.332" y="102.236"/><use xlink:href="#c" x="120.332" y="97.274"/><use xlink:href="#d" x="120.332" y="92.312"/><path fill="none" stroke="#000" stroke-miterlimit="10" stroke-width=".79396343" d="M122.48 161.035v-28.883h10.829v28.883Zm0 0"/><use xlink:href="#b" x="120.332" y="153.807"/><use xlink:href="#c" x="120.332" y="148.845"/><use xlink:href="#d" x="120.332" y="143.883"/><path fill="none" stroke="#000" stroke-miterlimit="10" stroke-width=".79396343" d="M122.48 212.605v-28.878h10.829v28.878Zm0 0"/><g clip-path="url(#i)"><path d="M129.477 223.953a1.583 1.583 0 0 0-3.165 0 1.582 1.582 0 0 0 3.164 0m0 0"/></g><g clip-path="url(#j)"><path fill="none" stroke="#000" stroke-miterlimit="10" stroke-width=".39747981000000004" d="M129.477 223.953a1.583 1.583 0 0 0-3.165 0 1.582 1.582 0 0 0 3.164 0Zm0 0"/></g><use xlink:href="#b" x="120.332" y="205.378"/><use xlink:href="#c" x="120.332" y="200.416"/><use xlink:href="#d" x="120.332" y="195.454"/><path fill="none" stroke="#000" stroke-miterlimit="10" stroke-width=".39747981000000004" d="M218.145 17.664v11.348m0 28.879v22.691m0 28.879v22.691m0 28.883v22.692m0 28.878v11.348"/><path fill="none" stroke="#000" stroke-miterlimit="10" stroke-width=".79396343" d="M212.73 57.89V29.013h10.829V57.89Zm0 0"/><use xlink:href="#b" x="210.581" y="50.665"/><use xlink:href="#c" x="210.581" y="45.702"/><use xlink:href="#d" x="210.581" y="40.74"/><path fill="none" stroke="#000" stroke-miterlimit="10" stroke-width=".79396343" d="M212.73 109.461V80.582h10.829v28.879Zm0 0"/><use xlink:href="#b" x="210.581" y="102.236"/><use xlink:href="#c" x="210.581" y="97.274"/><use xlink:href="#d" x="210.581" y="92.312"/><path fill="none" stroke="#000" stroke-miterlimit="10" stroke-width=".79396343" d="M212.73 161.035v-28.883h10.829v28.883Zm0 0"/><use xlink:href="#b" x="210.581" y="153.807"/><use xlink:href="#c" x="210.581" y="148.845"/><use xlink:href="#d" x="210.581" y="143.883"/><path fill="none" stroke="#000" stroke-miterlimit="10" stroke-width=".79396343" d="M212.73 212.605v-28.878h10.829v28.878Zm0 0"/><use xlink:href="#b" x="210.581" y="205.378"/><use xlink:href="#c" x="210.581" y="200.416"/><use xlink:href="#d" x="210.581" y="195.454"/><path fill="none" stroke="#000" stroke-miterlimit="10" stroke-width=".39747981000000004" d="M7.906 21.617v101.168m0 0v101.168h64.465m0 0h64.461m51.574 0h14.867m0 0h14.872"/><path fill="none" stroke="#000" stroke-dasharray="2.9774425577000003 2.9774425577000003" stroke-miterlimit="10" stroke-width=".39747981000000004" d="M136.832 223.953h51.574"/><use xlink:href="#k" x="4.526" y="10.209"/></svg>