<svg xmlns="http://www.w3.org/2000/svg" xmlns:xlink="http://www.w3.org/1999/xlink" width="228.765" height="166.253"><defs><path id="e" d="M4.672-1.64v-.298h-.984v-4.515c0-.203 0-.266-.172-.266-.079 0-.11 0-.188.125L.281-1.937v.296h2.64v.86c0 .36-.03.469-.765.469h-.203V0c.406-.031.922-.031 1.344-.031.406 0 .937 0 1.344.031v-.312h-.203c-.735 0-.75-.11-.75-.47v-.859Zm-1.703-.298H.563L2.969-5.64Zm0 0"/><path id="f" d="M4.813-6.39H2.406c-1.219 0-1.234-.126-1.281-.313H.891L.563-4.656h.234c.031-.172.125-.797.25-.907.078-.062.844-.062.984-.062h2.047l-1.11 1.563C2.079-2.72 1.75-1.344 1.75-.328c0 .094 0 .547.453.547s.453-.453.453-.547v-.5c0-.547.031-1.094.11-1.625.046-.235.187-1.094.625-1.703l1.328-1.89c.093-.11.093-.141.093-.345m0 0"/><path id="g" d="M5.313 0v-.312c-.516 0-.766 0-.782-.297V-2.5c0-.86 0-1.156-.297-1.516-.14-.171-.468-.375-1.046-.375-.735 0-1.188.438-1.47 1.047V-4.39l-1.405.11v.312c.703 0 .78.063.78.563V-.75c0 .438-.109.438-.78.438V0l1.125-.031L2.547 0v-.312c-.656 0-.766 0-.766-.438v-1.828c0-1.031.703-1.594 1.328-1.594.625 0 .735.547.735 1.11V-.75c0 .438-.11.438-.766.438V0l1.125-.031Zm0 0"/><path id="h" d="M6.047-4.516 5.78-6.75H.328v.313h.235c.765 0 .78.109.78.468V-.78c0 .36-.015.469-.78.469H.328V0c.344-.031 1.125-.031 1.5-.031.422 0 1.313 0 1.672.031v-.312h-.328c-.938 0-.938-.125-.938-.47v-2.437h.844c.953 0 1.063.313 1.063 1.156h.25v-2.624h-.25c0 .828-.11 1.156-1.063 1.156h-.844v-2.516c0-.328.016-.39.485-.39h1.187c1.485 0 1.735.546 1.89 1.921Zm0 0"/><path id="r" d="M6.469-2.562h-.25c-.25 1.53-.469 2.25-2.188 2.25H2.72c-.469 0-.485-.063-.485-.391V-3.36h.891c.969 0 1.078.328 1.078 1.172h.234v-2.641h-.234c0 .86-.11 1.172-1.078 1.172h-.89v-2.39c0-.329.015-.391.484-.391H4c1.516 0 1.781.546 1.938 1.921h.25L5.906-6.75H.328v.313h.235c.765 0 .78.109.78.468V-.78c0 .36-.015.469-.78.469H.328V0h5.719Zm0 0"/><path id="s" d="M7.11 0v-.312h-.173c-.593 0-.734-.063-.843-.391l-2.14-6.203c-.048-.125-.079-.203-.235-.203-.156 0-.188.062-.235.203L1.422-.97c-.172.5-.563.657-1.11.657V0l1.016-.031L2.468 0v-.312c-.5 0-.75-.25-.75-.5 0-.032.016-.125.032-.157l.453-1.297h2.453L5.172-.75a.58.58 0 0 1 .031.14c0 .298-.547.298-.812.298V0c.359-.031 1.047-.031 1.422-.031ZM4.546-2.562H2.313l1.109-3.235Zm0 0"/><path id="i" d="M4.453-2c0-1.172-.812-2.172-1.89-2.172a1.7 1.7 0 0 0-1.25.516v-1.938c.203.063.515.125.843.125 1.219 0 1.906-.906 1.906-1.031 0-.062-.03-.11-.093-.11-.016 0-.031 0-.078.032a3.26 3.26 0 0 1-1.344.281c-.406 0-.86-.062-1.328-.266-.078-.03-.094-.03-.125-.03C1-6.594 1-6.517 1-6.36v2.937c0 .172 0 .25.14.25.063 0 .094-.015.126-.078.109-.156.484-.703 1.28-.703.517 0 .767.453.845.64.156.36.187.75.187 1.25 0 .344 0 .938-.25 1.36-.234.39-.594.64-1.062.64-.72 0-1.282-.515-1.453-1.109.03.016.062.016.171.016.329 0 .5-.25.5-.485a.48.48 0 0 0-.5-.484c-.14 0-.484.078-.484.531C.5-.75 1.188.22 2.297.22 3.437.219 4.453-.734 4.453-2m0 0"/><path id="j" d="M1.313-3.25v-.25c0-2.5 1.234-2.86 1.734-2.86.234 0 .656.063.875.391-.156 0-.547 0-.547.453 0 .313.234.454.453.454.156 0 .453-.094.453-.47 0-.593-.437-1.077-1.25-1.077-1.281 0-2.61 1.28-2.61 3.468C.422-.484 1.564.22 2.485.22c1.11 0 2.047-.938 2.047-2.25 0-1.25-.875-2.203-1.984-2.203-.672 0-1.031.5-1.235.984M2.484-.062c-.625 0-.921-.594-.968-.735-.188-.469-.188-1.265-.188-1.453 0-.766.313-1.766 1.219-1.766.156 0 .61 0 .922.625.172.36.172.875.172 1.36 0 .469 0 .969-.172 1.328-.297.594-.75.64-.985.64m0 0"/><path id="k" d="M2.922-1.64v.859c0 .36-.031.469-.766.469h-.203V0c.406-.031.922-.031 1.344-.031.406 0 .937 0 1.344.031v-.312h-.203c-.735 0-.75-.11-.75-.47v-.859h.984v-.296h-.984v-4.516c0-.203 0-.266-.172-.266-.079 0-.11 0-.188.125L.281-1.937v.296Zm.047-.298H.563L2.969-5.64Zm0 0"/><path id="l" d="M4.719-6.047c.093-.11.093-.14.093-.344H2.407c-1.219 0-1.234-.125-1.281-.312H.891L.563-4.656h.234c.031-.172.125-.797.25-.907.078-.062.844-.062.984-.062h2.047c-.11.156-.89 1.234-1.11 1.563C2.079-2.72 1.75-1.344 1.75-.328c0 .094 0 .547.453.547s.453-.453.453-.547v-.5c0-.547.031-1.094.11-1.625.046-.235.187-1.094.625-1.703Zm0 0"/><path id="m" d="M4.563-3.172c0-.797-.047-1.594-.391-2.328-.469-.953-1.281-1.11-1.688-1.11-.593 0-1.328.266-1.734 1.188-.312.672-.36 1.453-.36 2.25 0 .735.032 1.64.438 2.39.438.798 1.156 1 1.64 1C3 .219 3.767.017 4.204-.936c.313-.688.36-1.454.36-2.235M2.469 0c-.39 0-.969-.25-1.156-1.203-.11-.594-.11-1.5-.11-2.094 0-.625 0-1.281.094-1.828.187-1.172.922-1.266 1.172-1.266.328 0 .984.172 1.172 1.157.093.562.093 1.312.093 1.937 0 .75 0 1.422-.109 2.063C3.485-.297 2.922 0 2.469 0m0 0"/><path id="n" d="M2.922-6.344c0-.25 0-.265-.235-.265-.609.64-1.484.64-1.796.64v.297c.187 0 .78 0 1.297-.25v5.14c0 .36-.032.47-.922.47H.938V0c.359-.031 1.218-.031 1.609-.031.406 0 1.265 0 1.61.031v-.312h-.313c-.89 0-.922-.11-.922-.47Zm0 0"/><path id="o" d="M1.047-.75c0 .438-.11.438-.766.438V0c.328-.016.797-.031 1.078-.031.297 0 .688.015 1.094.031v-.312c-.672 0-.781 0-.781-.438v-1.031l.64-.547C3.079-1.266 3.5-.718 3.5-.531c0 .187-.172.219-.36.219V0c.266-.016.86-.031 1.063-.031.297 0 .578.015.86.031v-.312c-.36 0-.579 0-.954-.516L2.844-2.61c0-.016-.063-.079-.063-.11 0-.047.719-.64.813-.719.625-.5 1.047-.515 1.25-.53v-.313c-.297.031-.422.031-.703.031-.344 0-.97-.016-1.11-.031v.312c.188.016.297.125.297.25 0 .203-.14.313-.219.39L1.703-2.124v-4.766l-1.422.11v.312c.688 0 .766.063.766.563Zm0 0"/><path id="p" d="M1.094-3.406V-.75c0 .438-.11.438-.782.438V0c.36-.016.86-.031 1.126-.031.265 0 .78.015 1.109.031v-.312c-.656 0-.766 0-.766-.438v-1.828c0-1.031.703-1.594 1.328-1.594.625 0 .735.547.735 1.11V-.75c0 .438-.11.438-.766.438V0a30.36 30.36 0 0 1 1.125-.031c.25 0 .766.015 1.11.031v-.312c-.516 0-.766 0-.782-.297V-2.5c0-.86 0-1.156-.297-1.516-.14-.171-.468-.375-1.046-.375-.735 0-1.188.438-1.47 1.047V-4.39l-1.405.11v.312c.703 0 .78.063.78.563m0 0"/><path id="q" d="M5.781-6.75H.328v.313h.235c.765 0 .78.109.78.468V-.78c0 .36-.015.469-.78.469H.328V0c.344-.031 1.125-.031 1.5-.031.422 0 1.313 0 1.672.031v-.312h-.328c-.938 0-.938-.125-.938-.47v-2.437h.844c.953 0 1.063.313 1.063 1.156h.25v-2.624h-.25c0 .828-.11 1.156-1.063 1.156h-.844v-2.516c0-.328.016-.39.485-.39h1.187c1.485 0 1.735.546 1.89 1.921h.25Zm0 0"/><clipPath id="a"><path d="M.395 44.55h15.8v6.321H.395Zm0 6.321h6.32v3.16H.395Zm0 3.16h15.8v6.32H.395Zm0 0"/></clipPath><clipPath id="b"><path d="M.395 39H22v27H.395Zm0 0"/></clipPath><clipPath id="c"><path d="M127 155h2v10.508h-2Zm0 0"/></clipPath><clipPath id="d"><path d="M121 164h14v1.508h-14Zm0 0"/></clipPath></defs><path fill="none" stroke="#000" stroke-miterlimit="10" stroke-width=".39721647000000004" d="M12.246 52.453h6.422m0 0h25.695m0 0h32.121m0 0h12.848l14.184-14.183m10.175-10.176 14.184-14.184h19.273m0 0h32.118m0 0h25.699m0 0h12.848"/><g clip-path="url(#a)"><path fill="none" stroke="#000" stroke-miterlimit="10" stroke-width=".79343741" d="M12.246 52.453a3.95 3.95 0 0 0-3.953-3.95 3.949 3.949 0 1 0 0 7.9 3.952 3.952 0 0 0 3.953-3.95Zm0 0"/></g><g clip-path="url(#b)"><path fill="none" stroke="#000" stroke-miterlimit="10" stroke-width=".79343741" d="M9.875 52.453a1.58 1.58 0 1 0-3.16-.003 1.58 1.58 0 0 0 3.16.003Zm0 0"/></g><path fill="none" stroke="#000" stroke-miterlimit="10" stroke-width=".39721647000000004" d="M9.875 52.453h2.371"/><path stroke="#000" stroke-miterlimit="10" stroke-width=".39721647000000004" d="M26.672 52.453a1.58 1.58 0 1 0-3.16-.005 1.58 1.58 0 0 0 3.16.005ZM65.215 52.453a1.58 1.58 0 1 0-3.16-.005 1.58 1.58 0 0 0 3.16.005ZM90.91 52.453a1.58 1.58 0 1 0-3.159-.005 1.58 1.58 0 0 0 3.16.005Zm0 0"/><path fill="none" stroke="#000" stroke-miterlimit="10" stroke-width=".79343741" d="M113.691 28.094 97.156 31.91l12.719 12.719Zm0 0"/><path fill="none" stroke="#000" stroke-miterlimit="10" stroke-width=".39721647000000004" d="M113.691 28.094 103.516 38.27"/><path fill="none" stroke="#000" stroke-miterlimit="10" stroke-width=".79343741" d="m120.05 34.453-12.718-12.719"/><path stroke="#000" stroke-miterlimit="10" stroke-width=".39721647000000004" d="M168 13.91a1.58 1.58 0 1 0-3.16-.003 1.58 1.58 0 0 0 3.16.003ZM193.695 13.91a1.58 1.58 0 1 0-3.16-.003 1.58 1.58 0 0 0 3.16.003Zm0 0"/><path fill="#FFF" stroke="#000" stroke-miterlimit="10" stroke-width=".39721647000000004" d="M219.39 13.91a1.58 1.58 0 1 0-3.159-.005 1.58 1.58 0 0 0 3.16.005Zm0 0"/><path fill="none" stroke="#000" stroke-miterlimit="10" stroke-width=".39721647000000004" d="m89.332 52.453 14.184 14.184m10.175 10.175 14.184 14.184h32.121m0 0h44.969m0 0h12.848"/><path fill="none" stroke="#000" stroke-miterlimit="10" stroke-width=".79343741" d="m103.516 66.637 16.535 3.816-12.719 12.719Zm0 0"/><path fill="none" stroke="#000" stroke-miterlimit="10" stroke-width=".39721647000000004" d="m103.516 66.637 10.175 10.175"/><path fill="none" stroke="#000" stroke-miterlimit="10" stroke-width=".79343741" d="m97.156 72.996 12.719-12.719"/><path stroke="#000" stroke-miterlimit="10" stroke-width=".39721647000000004" d="M129.457 90.996a1.58 1.58 0 1 0-3.16.003 1.58 1.58 0 0 0 3.16-.003ZM193.695 90.996a1.58 1.58 0 1 0-3.159.003 1.58 1.58 0 0 0 3.16-.003Zm0 0"/><path fill="#FFF" stroke="#000" stroke-miterlimit="10" stroke-width=".39721647000000004" d="M219.39 90.996a1.58 1.58 0 1 0-3.161.003 1.58 1.58 0 0 0 3.162-.003Zm0 0"/><path fill="none" stroke="#000" stroke-miterlimit="10" stroke-width=".39721647000000004" d="M8.293 56.402v98.832h10.375m0 0h25.695m0 0h51.39m0 0h51.395m0 0h19.27v-28.52m0-7.194V52.453m0 0V13.91"/><path stroke="#000" stroke-miterlimit="10" stroke-width=".39721647000000004" d="M26.672 155.234a1.58 1.58 0 1 0-3.161.003 1.58 1.58 0 0 0 3.16-.003ZM65.215 155.234a1.58 1.58 0 1 0-3.161.003 1.58 1.58 0 0 0 3.16-.003ZM129.457 155.234a1.58 1.58 0 1 0-3.16.003 1.58 1.58 0 0 0 3.16-.003Zm0 0"/><g clip-path="url(#c)"><path fill="none" stroke="#000" stroke-miterlimit="10" stroke-width=".39721647000000004" d="M127.875 155.234v9.88"/></g><g clip-path="url(#d)"><path fill="none" stroke="#000" stroke-linecap="round" stroke-miterlimit="10" stroke-width=".79343741" d="M121.95 165.113h11.85"/></g><path fill="none" stroke="#000" stroke-miterlimit="10" stroke-width=".79343741" d="M155.629 126.715h21.582m-21.582-7.195h21.582"/><use xlink:href="#e" x="179.892" y="125.254"/><use xlink:href="#f" x="184.851" y="125.254"/><use xlink:href="#g" x="193.113" y="125.254"/><use xlink:href="#h" x="198.627" y="125.254"/><path fill="none" stroke="#000" stroke-miterlimit="10" stroke-width=".39721647000000004" d="M25.094 52.453v37m0 28.781v37"/><path fill="none" stroke="#000" stroke-miterlimit="10" stroke-width=".79343741" d="M19.695 118.234v-28.78h10.793v28.78Zm0 0"/><use xlink:href="#i" x="32.631" y="105.982"/><use xlink:href="#j" x="37.59" y="105.982"/><path fill="none" stroke="#000" stroke-miterlimit="10" stroke-width=".39721647000000004" d="M63.637 52.453v37m0 28.781v37"/><path fill="none" stroke="#000" stroke-miterlimit="10" stroke-width=".79343741" d="M58.238 118.234v-28.78h10.793v28.78Zm0 0"/><use xlink:href="#k" x="71.175" y="105.982"/><use xlink:href="#l" x="76.134" y="105.982"/><use xlink:href="#m" x="81.093" y="105.982"/><path fill="none" stroke="#000" stroke-miterlimit="10" stroke-width=".39721647000000004" d="M192.113 90.996V66.844m0-28.782V13.91"/><path fill="none" stroke="#000" stroke-miterlimit="10" stroke-width=".79343741" d="M197.512 38.062v28.782h-10.793V38.062Zm0 0"/><use xlink:href="#n" x="199.652" y="54.591"/><use xlink:href="#m" x="204.611" y="54.591"/><use xlink:href="#m" x="209.57" y="54.591"/><use xlink:href="#o" x="216.176" y="54.591"/><path fill="none" stroke="#000" stroke-miterlimit="10" stroke-width=".39721647000000004" d="M127.875 90.996v28.524m0 7.195v28.52"/><path fill="none" stroke="#000" stroke-miterlimit="10" stroke-width=".79343741" d="M138.668 119.52h-21.586m21.586 7.195h-21.586"/><use xlink:href="#k" x="90.844" y="125.254"/><use xlink:href="#l" x="95.803" y="125.254"/><use xlink:href="#p" x="102.409" y="125.254"/><use xlink:href="#q" x="107.919" y="125.254"/><use xlink:href="#r" x="4.917" y="45"/><use xlink:href="#s" x="214.09" y="10.406"/></svg>