<svg xmlns="http://www.w3.org/2000/svg" xmlns:xlink="http://www.w3.org/1999/xlink" width="229.858" height="117.054"><defs><path id="c" d="M2.86-3.469c.812-.281 1.39-.969 1.39-1.75 0-.812-.875-1.36-1.828-1.36-.985 0-1.735.595-1.735 1.345 0 .328.22.515.5.515.297 0 .5-.218.5-.5 0-.5-.468-.5-.609-.5.297-.484.953-.61 1.313-.61.406 0 .953.22.953 1.11 0 .11-.031.688-.281 1.125-.297.469-.641.5-.876.516-.078 0-.328.015-.39.015-.078.016-.14.032-.14.126 0 .109.062.109.234.109h.437c.797 0 1.172.672 1.172 1.64 0 1.344-.687 1.626-1.125 1.626-.422 0-1.156-.172-1.5-.75.344.046.64-.172.64-.547a.533.533 0 0 0-.546-.547c-.235 0-.547.14-.547.578 0 .89.906 1.547 1.984 1.547 1.203 0 2.11-.906 2.11-1.906 0-.813-.625-1.579-1.657-1.782m0 0"/><path id="d" d="M4.547-3.156c0-.797-.047-1.578-.406-2.313-.453-.953-1.25-1.11-1.672-1.11-.594 0-1.313.266-1.719 1.173-.312.687-.36 1.453-.36 2.25 0 .734.032 1.625.438 2.375.422.797 1.14 1 1.625 1 .531 0 1.297-.203 1.719-1.14.328-.688.375-1.454.375-2.235M2.453 0c-.375 0-.969-.25-1.14-1.187-.11-.594-.11-1.516-.11-2.094 0-.625 0-1.281.078-1.813.188-1.172.938-1.265 1.172-1.265.328 0 .985.172 1.172 1.156.094.547.094 1.297.094 1.922 0 .75 0 1.422-.11 2.047C3.47-.297 2.906 0 2.453 0m0 0"/><path id="h" d="M7.078 0v-.312h-.172c-.593 0-.734-.063-.843-.391L3.938-6.875c-.063-.125-.079-.203-.235-.203-.156 0-.187.062-.234.203L1.422-.969c-.172.5-.578.657-1.11.657V0l1.016-.031L2.453 0v-.312c-.484 0-.734-.235-.734-.5 0-.032.015-.125.015-.141l.454-1.297h2.437l.531 1.516a.368.368 0 0 1 .032.125c0 .297-.563.297-.829.297V0c.36-.031 1.047-.031 1.422-.031ZM4.516-2.562h-2.22l1.11-3.204Zm0 0"/><path id="v" d="M6.438-2.547h-.25c-.25 1.516-.47 2.235-2.172 2.235H2.703c-.469 0-.484-.063-.484-.391v-2.64h.89c.954 0 1.063.327 1.063 1.156h.25v-2.61h-.25c0 .844-.11 1.156-1.063 1.156h-.89v-2.375c0-.328.015-.39.484-.39h1.281c1.5 0 1.766.547 1.938 1.906h.234l-.265-2.219H.328v.313h.235c.765 0 .78.11.78.468v5.172c0 .344-.015.454-.78.454H.328V0h5.703Zm0 0"/><path id="l" d="M-6.312-2.906c-.25 0-.266 0-.266.234.64.61.64 1.485.64 1.797h.297c0-.203 0-.781-.25-1.297h5.11c.36 0 .469.031.469.922v.313H0c-.031-.344-.031-1.204-.031-1.594 0-.406 0-1.266.031-1.61h-.312v.313c0 .89-.11.922-.47.922Zm0 0"/><path id="m" d="M-3.156-4.547c-.797 0-1.578.047-2.313.406-.953.454-1.11 1.25-1.11 1.672 0 .594.266 1.313 1.173 1.719.687.313 1.453.36 2.25.36.734 0 1.625-.032 2.375-.438a1.81 1.81 0 0 0 1-1.625c0-.531-.203-1.297-1.14-1.719-.688-.328-1.454-.375-2.235-.375M0-2.453c0 .375-.25.969-1.187 1.14-.594.11-1.516.11-2.094.11-.625 0-1.281 0-1.813-.078-1.172-.188-1.265-.938-1.265-1.172 0-.328.172-.985 1.156-1.172.547-.094 1.297-.094 1.922-.094.75 0 1.422 0 2.047.11C-.297-3.47 0-2.906 0-2.453m0 0"/><path id="n" d="M-.75-1.047c.438 0 .438.11.438.766H0A26.346 26.346 0 0 1-.031-1.36c0-.297.015-.688.031-1.078h-.312c0 .656 0 .765-.438.765h-1.016l-.546-.625c1.046-.765 1.593-1.172 1.78-1.172.188 0 .22.156.22.344H0c-.016-.266-.031-.86-.031-1.062 0-.282.015-.579.031-.86h-.312c0 .36 0 .578-.516.953l-1.766 1.266c-.015 0-.078.047-.11.047-.046 0-.64-.688-.718-.797-.5-.625-.515-1.031-.531-1.235h-.297c.031.282.031.407.031.688 0 .36-.031.969-.031 1.11h.297c.015-.188.125-.297.25-.297.203 0 .312.14.39.218l1.204 1.39h-4.75L-6.75-.28h.313c0-.688.062-.766.546-.766Zm0 0"/><path id="q" d="M-1.625-2.906h.86c.343 0 .453.015.453.75v.203H0c-.031-.39-.031-.906-.031-1.328 0-.406 0-.938.031-1.344h-.312v.203c0 .734-.11.766-.454.766h-.859v-1h-.312v1h-4.485c-.203 0-.266 0-.266.156 0 .078 0 .11.125.188l4.626 3.03h.312Zm-.312-.063v2.422l-3.688-2.422Zm0 0"/><path id="s" d="M-6.016-4.703c-.109-.094-.14-.094-.343-.094v2.406c0 1.204-.125 1.22-.313 1.266v.25l2.031.328v-.25c-.156-.031-.78-.125-.906-.25-.047-.062-.047-.844-.047-.969v-2.046c.157.109 1.235.89 1.563 1.109 1.328.89 2.703 1.219 3.703 1.219.094 0 .547 0 .547-.453 0-.454-.453-.454-.547-.454h-.5c-.547 0-1.094-.03-1.625-.109-.219-.047-1.078-.187-1.688-.625Zm0 0"/><path id="t" d="M-3.39-1.094h2.64c.438 0 .438.11.438.782H0c-.016-.344-.031-.86-.031-1.125 0-.25.015-.766.031-1.094h-.312c0 .656 0 .765-.438.765h-1.812c-1.032 0-1.579-.703-1.579-1.328 0-.625.532-.734 1.094-.734H-.75c.438 0 .438.11.438.765H0a30.512 30.512 0 0 1-.031-1.109c0-.266.015-.781.031-1.11h-.312c0 .516 0 .766-.297.766h-1.875c-.86 0-1.157 0-1.516.313-.172.14-.36.453-.36 1.031 0 .719.423 1.188 1.032 1.469H-4.36l.109 1.39h.297c0-.687.078-.78.562-.78m0 0"/><path id="u" d="M-6.719-5.75v5.422h.313v-.234c0-.766.11-.782.468-.782h5.172c.344 0 .454.016.454.782v.234H0c-.031-.344-.031-1.11-.031-1.5 0-.406 0-1.297.031-1.656h-.312v.328c0 .937-.125.937-.47.937h-2.421v-.86c0-.937.312-1.046 1.156-1.046v-.234h-2.625v.234c.828 0 1.156.11 1.156 1.047v.86h-2.5c-.328 0-.39-.016-.39-.485v-1.188c0-1.484.547-1.734 1.906-1.89v-.25Zm0 0"/><path id="o" d="M3.703-6.062c.063-.235.094-.344.281-.36.079-.016.407-.016.594-.016.703 0 1.797 0 1.797.985 0 .328-.156 1.016-.531 1.39-.266.266-.782.579-1.672.579h-1.11ZM5.125-3.36c1-.22 2.172-.907 2.172-1.907 0-.843-.89-1.484-2.188-1.484H2.297c-.188 0-.281 0-.281.203 0 .11.093.11.28.11.017 0 .204 0 .376.015.172.016.265.031.265.156 0 .047-.015.079-.046.188L1.563-.766c-.094.375-.11.454-.891.454-.172 0-.266 0-.266.203 0 .109.11.109.14.109.266 0 .97-.031 1.235-.031.282 0 .985.031 1.266.031.078 0 .187 0 .187-.203 0-.11-.078-.11-.265-.11-.375 0-.64 0-.64-.171 0-.063.015-.11.015-.172L3-3.266h1.172c.906 0 1.078.547 1.078.891 0 .156-.078.453-.14.688-.063.28-.157.64-.157.843C4.953.22 6.141.22 6.266.22c.843 0 1.187-1 1.187-1.14 0-.11-.11-.11-.11-.11-.093 0-.109.062-.14.125-.234.734-.672.906-.89.906-.329 0-.391-.219-.391-.61 0-.296.047-.796.094-1.124.015-.125.03-.313.03-.453 0-.766-.655-1.079-.921-1.172m0 0"/><path id="p" d="M2.313-4.406c0-.188 0-.188-.204-.188-.437.438-1.078.438-1.359.438v.25c.172 0 .625 0 1.016-.188v3.532c0 .218 0 .312-.703.312H.797V0C.922 0 1.78-.031 2.03-.031c.219 0 1.094.031 1.25.031v-.25h-.265c-.703 0-.703-.094-.703-.312Zm0 0"/><path id="r" d="M-.016-2c-.64 0-1.03.25-1.03.625 0 .328.25.531.53.531A.514.514 0 0 0 0-1.375a.58.58 0 0 0-.125-.344c-.016-.031-.031-.031-.031-.047 0-.015.015-.015.14-.015.735 0 1.329.343 1.657.672C1.75-1 1.766-1 1.797-1c.062 0 .11-.062.11-.11 0-.109-.766-.89-1.923-.89m0 0"/><clipPath id="a"><path d="M.852 9.57h15.742v6.297H.852Zm0 6.297h6.296v3.149H.852Zm0 3.149h15.742v6.297H.852Zm0 0"/></clipPath><clipPath id="b"><path d="M.852 4H22v27H.852Zm0 0"/></clipPath><clipPath id="e"><path d="M66 107h15v9.117H66Zm0 0"/></clipPath><clipPath id="f"><path d="M29 107h16v9.117H29Zm0 0"/></clipPath><clipPath id="g"><path d="M66 107h15v9.117H66Zm0 0"/></clipPath><clipPath id="i"><path d="M138 107h16v9.117h-16Zm0 0"/></clipPath><clipPath id="j"><path d="M187 107h15v9.117h-15Zm0 0"/></clipPath><clipPath id="k"><path d="M211 107h15v9.117h-15Zm0 0"/></clipPath></defs><path fill="none" stroke="#000" stroke-miterlimit="10" stroke-width=".39580002000000003" d="M12.66 17.441h12.11m0 0h30.285m0 0h18.168v8.477m0 31.496v16.957m0 31.492v8.48"/><g clip-path="url(#a)"><path fill="none" stroke="#000" stroke-miterlimit="10" stroke-width=".7906080600000001" d="M12.66 17.441a3.939 3.939 0 0 0-7.875 0 3.939 3.939 0 0 0 7.875 0Zm0 0"/></g><g clip-path="url(#b)"><path fill="none" stroke="#000" stroke-miterlimit="10" stroke-width=".7906080600000001" d="M10.297 17.441c0-.87-.703-1.574-1.574-1.574a1.575 1.575 0 1 0 1.574 1.574Zm0 0"/></g><path fill="none" stroke="#000" stroke-miterlimit="10" stroke-width=".39580002000000003" d="M10.297 17.441h2.363"/><path stroke="#000" stroke-miterlimit="10" stroke-width=".39580002000000003" d="M38.457 17.441a1.575 1.575 0 1 0-3.148 0 1.575 1.575 0 0 0 3.148 0Zm0 0"/><path fill="none" stroke="#000" stroke-miterlimit="10" stroke-width=".7906080600000001" d="M67.316 57.414V25.918H79.13v31.496Zm0 0"/><path stroke="#000" stroke-miterlimit="10" stroke-width=".39580002000000003" d="M74.797 65.89a1.575 1.575 0 0 0-3.149 0 1.575 1.575 0 1 0 3.149 0Zm0 0"/><use xlink:href="#c" x="81.316" y="43.797"/><use xlink:href="#c" x="86.257" y="43.797"/><use xlink:href="#d" x="91.198" y="43.797"/><path fill="none" stroke="#000" stroke-miterlimit="10" stroke-width=".7906080600000001" d="M67.316 105.863V74.371H79.13v31.492Zm0 0"/><path d="M74.797 114.344c0-.871-.703-1.574-1.574-1.574-.871 0-1.575.703-1.575 1.574 0 .87.704 1.574 1.575 1.574.87 0 1.574-.703 1.574-1.574m0 0"/><g clip-path="url(#e)"><path fill="none" stroke="#000" stroke-miterlimit="10" stroke-width=".39580002000000003" d="M74.797 114.344c0-.871-.703-1.574-1.574-1.574-.871 0-1.575.703-1.575 1.574 0 .87.704 1.574 1.575 1.574.87 0 1.574-.703 1.574-1.574Zm0 0"/></g><use xlink:href="#c" x="81.316" y="92.247"/><use xlink:href="#c" x="86.257" y="92.247"/><use xlink:href="#d" x="91.198" y="92.247"/><path fill="none" stroke="#000" stroke-miterlimit="10" stroke-width=".39580002000000003" d="M8.723 21.379v92.965H24.77m0 0h30.285m0 0h18.168"/><path d="M38.457 114.344a1.575 1.575 0 1 0-3.148 0 1.575 1.575 0 0 0 3.148 0m0 0"/><g clip-path="url(#f)"><path fill="none" stroke="#000" stroke-miterlimit="10" stroke-width=".39580002000000003" d="M38.457 114.344a1.575 1.575 0 1 0-3.148 0 1.575 1.575 0 0 0 3.148 0Zm0 0"/></g><path d="M74.797 114.344c0-.871-.703-1.574-1.574-1.574-.871 0-1.575.703-1.575 1.574 0 .87.704 1.574 1.575 1.574.87 0 1.574-.703 1.574-1.574m0 0"/><g clip-path="url(#g)"><path fill="none" stroke="#000" stroke-miterlimit="10" stroke-width=".39580002000000003" d="M74.797 114.344c0-.871-.703-1.574-1.574-1.574-.871 0-1.575.703-1.575 1.574 0 .87.704 1.574 1.575 1.574.87 0 1.574-.703 1.574-1.574Zm0 0"/></g><path fill="none" stroke="#000" stroke-miterlimit="10" stroke-width=".39580002000000003" d="M73.223 65.89h28.464m15.747 0h52.691m0 0h36.34m0 0h12.113"/><path fill="none" stroke="#000" stroke-miterlimit="10" stroke-width=".7906080600000001" d="m117.434 65.89-15.747-9.84v19.684Zm0 0"/><path fill="none" stroke="#000" stroke-miterlimit="10" stroke-width=".39580002000000003" d="M117.434 65.89h-15.747"/><path fill="none" stroke="#000" stroke-miterlimit="10" stroke-width=".7906080600000001" d="M117.434 75.734V56.051"/><path stroke="#000" stroke-miterlimit="10" stroke-width=".39580002000000003" d="M147.473 65.89a1.575 1.575 0 0 0-3.149 0c0 .872.707 1.579 1.574 1.579.872 0 1.575-.707 1.575-1.578ZM195.926 65.89a1.575 1.575 0 0 0-3.149 0 1.575 1.575 0 1 0 3.149 0Zm0 0"/><path fill="#FFF" stroke="#000" stroke-miterlimit="10" stroke-width=".39580002000000003" d="M220.152 65.89a1.575 1.575 0 0 0-3.148 0c0 .872.703 1.579 1.574 1.579.867 0 1.574-.707 1.574-1.578Zm0 0"/><use xlink:href="#h" x="214.869" y="62.401"/><path fill="none" stroke="#000" stroke-miterlimit="10" stroke-width=".39580002000000003" d="M73.223 114.344h36.34m0 0h60.562m0 0h36.34m0 0h12.113"/><path d="M147.473 114.344a1.575 1.575 0 1 0-3.148 0 1.575 1.575 0 0 0 3.148 0m0 0"/><g clip-path="url(#i)"><path fill="none" stroke="#000" stroke-miterlimit="10" stroke-width=".39580002000000003" d="M147.473 114.344a1.575 1.575 0 1 0-3.148 0 1.575 1.575 0 0 0 3.148 0Zm0 0"/></g><path d="M195.926 114.344c0-.871-.703-1.574-1.574-1.574-.872 0-1.575.703-1.575 1.574 0 .87.703 1.574 1.575 1.574.87 0 1.574-.703 1.574-1.574m0 0"/><g clip-path="url(#j)"><path fill="none" stroke="#000" stroke-miterlimit="10" stroke-width=".39580002000000003" d="M195.926 114.344c0-.871-.703-1.574-1.574-1.574-.872 0-1.575.703-1.575 1.574 0 .87.703 1.574 1.575 1.574.87 0 1.574-.703 1.574-1.574Zm0 0"/></g><path fill="#FFF" d="M220.152 114.344a1.575 1.575 0 1 0-3.149 0 1.575 1.575 0 0 0 3.15 0m0 0"/><g clip-path="url(#k)"><path fill="none" stroke="#000" stroke-miterlimit="10" stroke-width=".39580002000000003" d="M220.152 114.344a1.575 1.575 0 1 0-3.149 0 1.575 1.575 0 0 0 3.15 0Zm0 0"/></g><path fill="none" stroke="#000" stroke-miterlimit="10" stroke-width=".39580002000000003" d="M194.352 65.89v8.481m0 31.492v8.48"/><path fill="none" stroke="#000" stroke-miterlimit="10" stroke-width=".7906080600000001" d="M188.445 105.863V74.371h11.813v31.492Zm0 0"/><use xlink:href="#l" x="209.305" y="97.19"/><use xlink:href="#m" x="209.305" y="92.248"/><use xlink:href="#n" x="209.305" y="85.666"/><path fill="none" stroke="#000" stroke-miterlimit="10" stroke-width=".39580002000000003" d="M36.883 17.441v32.704m0 31.496v32.703"/><path fill="none" stroke="#000" stroke-miterlimit="10" stroke-width=".7906080600000001" d="M30.98 81.64V50.146h11.81V81.64Zm0 0"/><use xlink:href="#o" x="44.977" y="68.022"/><use xlink:href="#p" x="52.481" y="69.504"/><path fill="none" stroke="#000" stroke-miterlimit="10" stroke-width=".39580002000000003" d="M145.898 65.89v20.29m0 7.875v20.289"/><path fill="none" stroke="#000" stroke-miterlimit="10" stroke-width=".7906080600000001" d="M157.71 86.18h-23.62m23.62 7.875h-23.62"/><use xlink:href="#q" x="167.24" y="102.941"/><use xlink:href="#r" x="167.24" y="97.999"/><use xlink:href="#s" x="167.24" y="95.254"/><use xlink:href="#t" x="167.24" y="88.672"/><use xlink:href="#u" x="167.24" y="83.181"/><use xlink:href="#v" x="5.358" y="10.014"/></svg>