<svg xmlns="http://www.w3.org/2000/svg" xmlns:xlink="http://www.w3.org/1999/xlink" width="227.73" height="130.855"><defs><path id="a" d="M7.14 0v-.312h-.187c-.594 0-.734-.063-.844-.391L3.97-6.922c-.063-.14-.078-.203-.235-.203-.156 0-.187.063-.234.203L1.438-.969c-.188.5-.579.657-1.125.657V0l1.015-.031L2.484 0v-.312c-.5 0-.75-.25-.75-.5 0-.032 0-.141.016-.157l.453-1.297h2.469L5.203-.75c0 .047.016.11.016.14 0 .298-.547.298-.813.298V0c.344-.031 1.047-.031 1.422-.031ZM4.564-2.578h-2.25l1.124-3.234Zm0 0"/><path id="b" d="M5.328 0v-.312c-.516 0-.766 0-.781-.297v-1.907c0-.843 0-1.156-.313-1.515-.14-.172-.468-.375-1.046-.375-.72 0-1.188.437-1.47 1.047v-1.047l-1.405.11v.312c.703 0 .78.078.78.562V-.75c0 .438-.109.438-.78.438V0l1.125-.031L2.563 0v-.312c-.672 0-.782 0-.782-.438v-1.844c0-1.031.703-1.594 1.344-1.594.625 0 .734.547.734 1.11V-.75c0 .438-.109.438-.78.438V0l1.124-.031Zm0 0"/><path id="c" d="M3.297-1.234v-.563h-.235v.547c0 .734-.312 1.11-.671 1.11-.672 0-.672-.907-.672-1.079v-2.765H3.14v-.313H1.719v-1.828h-.25c0 .813-.297 1.89-1.281 1.922v.219h.843v2.75c0 1.218.922 1.343 1.282 1.343.718 0 .984-.703.984-1.343m0 0"/><path id="d" d="M4.125-1.187c0-.094-.078-.11-.125-.11-.094 0-.11.047-.125.125C3.515-.14 2.625-.14 2.531-.14c-.5 0-.906-.296-1.125-.671-.297-.47-.297-1.125-.297-1.485h2.766c.219 0 .25 0 .25-.219 0-.984-.531-1.937-1.781-1.937C1.188-4.453.28-3.437.28-2.187.281-.86 1.328.108 2.47.108 3.688.11 4.125-1 4.125-1.187m-.656-1.329h-2.36c.063-1.468.907-1.718 1.235-1.718 1.031 0 1.125 1.343 1.125 1.718m0 0"/><path id="e" d="M7.125 0v-.312h-.234c-.766 0-.797-.11-.797-.47v-5.234c0-.359.031-.468.797-.468h.234v-.313c-.344.031-1.078.031-1.469.031-.375 0-1.125 0-1.468-.03v.312h.234c.781 0 .797.109.797.468v2.329H2.234v-2.329c0-.359.032-.468.797-.468h.235v-.313c-.344.031-1.078.031-1.47.031-.374 0-1.124 0-1.468-.03v.312h.235c.765 0 .796.109.796.468V-.78c0 .36-.03.469-.796.469H.328V0c.344-.031 1.078-.031 1.469-.031.375 0 1.125 0 1.469.031v-.312H3.03c-.765 0-.797-.11-.797-.47V-3.39H5.22v2.61c0 .36-.016.469-.797.469h-.234V0C4.53-.031 5.28-.031 5.656-.031s1.125 0 1.469.031m0 0"/><path id="f" d="m6.078-4.531-.281-2.235H.328v.313h.235c.765 0 .796.11.796.469v5.203c0 .36-.03.469-.796.469H.328V0c.344-.031 1.125-.031 1.516-.031.406 0 1.312 0 1.672.031v-.312h-.328c-.954 0-.954-.125-.954-.47v-2.452h.86c.953 0 1.062.312 1.062 1.172h.25v-2.641h-.25c0 .828-.11 1.156-1.062 1.156h-.86v-2.515c0-.329.032-.391.5-.391h1.188c1.5 0 1.734.547 1.906 1.922Zm0 0"/><path id="g" d="M2.75-1.86v-.577H.11v.578Zm0 0"/><path id="h" d="M7.031-3.344c0-1.89-1.343-3.453-3.047-3.453H.344v.313h.25c.765 0 .781.109.781.468V-.78c0 .36-.016.469-.781.469h-.25V0h3.64c1.672 0 3.047-1.469 3.047-3.344m-.984 0c0 1.11-.188 1.703-.547 2.188-.203.265-.766.843-1.781.843h-1c-.469 0-.485-.062-.485-.39v-5.39c0-.329.016-.391.485-.391h1c.61 0 1.297.218 1.812.922.422.593.516 1.437.516 2.218m0 0"/><path id="i" d="M2.453 0v-.312c-.656 0-.687-.047-.687-.438v-3.656l-1.391.11v.312c.64 0 .734.062.734.547V-.75c0 .438-.109.438-.78.438V0l1.093-.031c.344 0 .703.015 1.031.031m-.547-6.016c0-.265-.218-.53-.515-.53a.54.54 0 0 0-.547.53c0 .266.234.532.531.532a.525.525 0 0 0 .531-.532m0 0"/><path id="j" d="M4.688-2.125c0-1.281-1-2.328-2.204-2.328C1.25-4.453.281-3.375.281-2.125A2.217 2.217 0 0 0 2.484.109a2.208 2.208 0 0 0 2.204-2.234m-.829-.078c0 .36 0 .89-.218 1.328a1.273 1.273 0 0 1-1.157.734c-.421 0-.859-.203-1.125-.671-.25-.438-.25-1.032-.25-1.391 0-.39 0-.938.235-1.375a1.33 1.33 0 0 1 1.14-.656c.438 0 .86.218 1.125.64.25.422.25 1 .25 1.39m0 0"/><path id="k" d="M5.25 0v-.312c-.703 0-.781-.063-.781-.547v-6.047l-1.438.11v.312c.703 0 .781.062.781.547v2.156c-.296-.36-.718-.625-1.25-.625-1.171 0-2.218.984-2.218 2.265 0 1.266.969 2.25 2.11 2.25.624 0 1.077-.343 1.327-.656V.11ZM3.781-1.172c0 .172 0 .203-.11.36-.296.484-.75.703-1.171.703-.453 0-.812-.266-1.047-.641-.266-.406-.281-.969-.281-1.375 0-.375.016-.969.297-1.422.218-.312.593-.64 1.125-.64.36 0 .765.156 1.078.609.11.172.11.187.11.36Zm0 0"/><path id="l" d="M7.563-6.922c0-.031-.016-.094-.11-.094-.031 0-.031.016-.14.125l-.704.766c-.093-.14-.546-.89-1.656-.89C2.734-7.016.5-4.814.5-2.516.5-.86 1.672.218 3.188.218c.874 0 1.624-.39 2.156-.86.922-.812 1.093-1.718 1.093-1.75 0-.093-.093-.093-.125-.093-.046 0-.109.015-.125.093-.093.297-.312 1-1 1.579-.687.546-1.312.718-1.828.718-.906 0-1.953-.515-1.953-2.062 0-.578.203-2.188 1.203-3.344.61-.703 1.547-1.203 2.422-1.203 1.016 0 1.61.766 1.61 1.922 0 .39-.032.406-.032.5 0 .093.11.093.157.093.125 0 .125-.015.172-.187Zm0 0"/><path id="n" d="M3.969-6.922c-.063-.14-.078-.203-.235-.203-.156 0-.187.063-.234.203L1.438-.969c-.188.5-.579.657-1.125.657V0c.234-.016.656-.031 1.015-.031.313 0 .828.015 1.156.031v-.312c-.5 0-.75-.25-.75-.5 0-.032 0-.141.016-.157l.453-1.297h2.469L5.203-.75c0 .047.016.11.016.14 0 .298-.547.298-.813.298V0c.344-.031 1.047-.031 1.422-.031.438 0 .89.015 1.313.031v-.312h-.188c-.594 0-.734-.063-.844-.391Zm-.531 1.11 1.124 3.234h-2.25Zm0 0"/><clipPath id="m"><path d="M88 95h48v35.707H88Zm0 0"/></clipPath></defs><path fill="none" stroke="#000" stroke-miterlimit="10" stroke-width=".39852918000000004" d="m201.258 13.625-11.149 11.148"/><use xlink:href="#a" x="183.01" y="10.447"/><use xlink:href="#b" x="190.473" y="10.447"/><use xlink:href="#c" x="195.727" y="10.447"/><use xlink:href="#d" x="199.598" y="10.447"/><use xlink:href="#b" x="204.016" y="10.447"/><use xlink:href="#b" x="209.549" y="10.447"/><use xlink:href="#d" x="215.082" y="10.447"/><path fill="none" stroke="#000" stroke-miterlimit="10" stroke-width="1.19458872" d="M.598 29.234h44.59m0 0H89.78"/><path fill="none" stroke="#000" stroke-miterlimit="10" stroke-width=".39852918000000004" d="M89.781 29.234h14.367m15.856 0h14.367"/><path fill="none" stroke="#000" stroke-miterlimit="10" stroke-width=".7960595400000001" d="m120.004 29.234-15.856-9.91v19.817Zm0 0"/><path fill="none" stroke="#000" stroke-miterlimit="10" stroke-width=".39852918000000004" d="M120.004 29.234h-15.856"/><path fill="none" stroke="#000" stroke-miterlimit="10" stroke-width=".7960595400000001" d="M120.004 39.14V19.325"/><path stroke="#000" stroke-miterlimit="10" stroke-width=".39852918000000004" d="M91.363 29.234c0-.879-.707-1.586-1.582-1.586-.879 0-1.586.707-1.586 1.586 0 .875.707 1.582 1.586 1.582a1.58 1.58 0 0 0 1.582-1.582ZM135.957 29.234c0-.879-.71-1.586-1.586-1.586a1.585 1.585 0 1 0 0 3.168c.875 0 1.586-.707 1.586-1.582Zm0 0"/><use xlink:href="#e" x="90.65" y="15.117"/><use xlink:href="#f" x="98.113" y="15.117"/><use xlink:href="#g" x="104.611" y="15.117"/><use xlink:href="#h" x="107.924" y="15.117"/><use xlink:href="#i" x="115.527" y="15.117"/><use xlink:href="#j" x="118.293" y="15.117"/><use xlink:href="#k" x="123.547" y="15.117"/><use xlink:href="#d" x="129.08" y="15.117"/><path fill="none" stroke="#000" stroke-miterlimit="10" stroke-width="1.19458872" d="M134.371 29.234h44.59m0 0h44.594"/><path fill="none" stroke="#000" stroke-miterlimit="10" stroke-width=".39852918000000004" d="M89.781 73.824v-6.441m0-31.711v-6.438"/><path fill="none" stroke="#000" stroke-linejoin="bevel" stroke-miterlimit="10" stroke-width=".7960595400000001" d="M89.938 67.781c-3.282 0-5.946-1.82-5.946-4.062 0-2.246 2.664-4.063 5.946-4.063-3.282 0-5.946-1.82-5.946-4.066 0-2.242 2.664-4.063 5.946-4.063-3.282 0-5.946-1.82-5.946-4.062 0-2.246 2.664-4.063 5.946-4.063-3.282 0-5.946-1.82-5.946-4.062 0-2.246 2.664-4.067 5.946-4.067"/><path fill="none" stroke="#000" stroke-miterlimit="10" stroke-width=".39852918000000004" d="M134.371 29.234v6.438m0 31.71v6.442"/><path fill="none" stroke="#000" stroke-linejoin="bevel" stroke-miterlimit="10" stroke-width=".7960595400000001" d="M134.211 35.273c3.285 0 5.945 1.82 5.945 4.067 0 2.242-2.66 4.062-5.945 4.062 3.285 0 5.945 1.817 5.945 4.063 0 2.242-2.66 4.062-5.945 4.062 3.285 0 5.945 1.82 5.945 4.063 0 2.246-2.66 4.066-5.945 4.066 3.285 0 5.945 1.817 5.945 4.063 0 2.242-2.66 4.062-5.945 4.062"/><path fill="none" stroke="#000" stroke-miterlimit="10" stroke-width=".39852918000000004" d="M89.781 73.824v5.574m0 0v5.575h18.328m7.93 0h18.332V73.824"/><path stroke="#000" stroke-miterlimit="10" stroke-width=".39852918000000004" d="M91.363 84.973a1.584 1.584 0 1 0-3.167-.005 1.584 1.584 0 0 0 3.167.005Zm0 0"/><path fill="none" stroke="#000" stroke-miterlimit="10" stroke-width=".7960595400000001" d="M108.11 73.078v23.785m7.93-23.785v23.785"/><path stroke="#000" stroke-miterlimit="10" stroke-width=".39852918000000004" d="M135.957 84.973a1.587 1.587 0 0 0-3.172 0c0 .875.711 1.582 1.586 1.582.875 0 1.586-.707 1.586-1.582Zm0 0"/><use xlink:href="#l" x="108.162" y="68.676"/><path fill="none" stroke="#000" stroke-miterlimit="10" stroke-width=".39852918000000004" d="M89.781 84.973v16.718m0 0v16.723h10.403m23.78 0h10.407v-16.723m0 0V84.973"/><g clip-path="url(#m)"><path fill="none" stroke="#000" stroke-miterlimit="10" stroke-width=".7960595400000001" d="M112.074 106.523c-6.566 0-11.89 5.325-11.89 11.891s5.324 11.89 11.89 11.89c6.57 0 11.89-5.324 11.89-11.89 0-6.566-5.32-11.89-11.89-11.89Zm0 0"/></g><use xlink:href="#n" x="108.342" y="121.816"/></svg>