<svg xmlns="http://www.w3.org/2000/svg" width="115.863" height="97.256"><defs><clipPath id="a"><path d="M.371 82H4v4H.371Zm0 0"/></clipPath><clipPath id="b"><path d="M.371 77H10v15H.371Zm0 0"/></clipPath><clipPath id="c"><path d="M51 72h10v24.52H51Zm0 0"/></clipPath><clipPath id="d"><path d="M103 77h12.355v15H103Zm0 0"/></clipPath><clipPath id="e"><path d="M.371 10H4v4H.371Zm0 0"/></clipPath><clipPath id="f"><path d="M.371 5H10v15H.371Zm0 0"/></clipPath><clipPath id="g"><path d="M103 5h12.355v15H103Zm0 0"/></clipPath></defs><path fill="none" stroke="#000" stroke-miterlimit="10" stroke-width=".39597159000000004" d="M2.145 84.309h9.011m0 0h41.121m7.88 0h41.12m0 0h9.012"/><g clip-path="url(#a)"><path fill="#FFF" d="M3.719 84.309a1.575 1.575 0 1 0-3.151-.006 1.575 1.575 0 0 0 3.15.006m0 0"/></g><g clip-path="url(#b)"><path fill="none" stroke="#000" stroke-miterlimit="10" stroke-width=".39597159000000004" d="M3.719 84.309a1.575 1.575 0 1 0-3.151-.006 1.575 1.575 0 0 0 3.15.006Zm0 0"/></g><path stroke="#000" stroke-miterlimit="10" stroke-width=".39597159000000004" d="M21.742 84.309a1.575 1.575 0 1 0-3.15-.006 1.575 1.575 0 0 0 3.15.006Zm0 0"/><g clip-path="url(#c)"><path fill="none" stroke="#000" stroke-miterlimit="10" stroke-width=".79095077" d="M52.277 72.492v23.63m7.88-23.63v23.63"/></g><path stroke="#000" stroke-miterlimit="10" stroke-width=".39597159000000004" d="M93.84 84.309a1.575 1.575 0 1 0-3.151-.006 1.575 1.575 0 0 0 3.15.006Zm0 0"/><path fill="#FFF" d="M111.867 84.309c0-.871-.707-1.579-1.578-1.579a1.577 1.577 0 1 0 1.578 1.578m0 0"/><g clip-path="url(#d)"><path fill="none" stroke="#000" stroke-miterlimit="10" stroke-width=".39597159000000004" d="M111.867 84.309c0-.871-.707-1.579-1.578-1.579a1.577 1.577 0 1 0 1.578 1.578Zm0 0"/></g><path fill="none" stroke="#000" stroke-miterlimit="10" stroke-width=".39597159000000004" d="M2.145 12.21h9.011m0 0h41.121m7.88 0h41.12m0 0h9.012"/><g clip-path="url(#e)"><path fill="#FFF" d="M3.719 12.21a1.575 1.575 0 1 0-3.151-.004 1.575 1.575 0 0 0 3.15.005m0 0"/></g><g clip-path="url(#f)"><path fill="none" stroke="#000" stroke-miterlimit="10" stroke-width=".39597159000000004" d="M3.719 12.21a1.575 1.575 0 1 0-3.151-.004 1.575 1.575 0 0 0 3.15.005Zm0 0"/></g><path stroke="#000" stroke-miterlimit="10" stroke-width=".39597159000000004" d="M21.742 12.21a1.575 1.575 0 1 0-3.15-.004 1.575 1.575 0 0 0 3.15.005Zm0 0"/><path fill="none" stroke="#000" stroke-miterlimit="10" stroke-width=".79095077" d="M52.277.395v23.628M60.157.395v23.628"/><path stroke="#000" stroke-miterlimit="10" stroke-width=".39597159000000004" d="M93.84 12.21a1.575 1.575 0 1 0-3.151-.004 1.575 1.575 0 0 0 3.15.005Zm0 0"/><path fill="#FFF" d="M111.867 12.21c0-.87-.707-1.577-1.578-1.577a1.577 1.577 0 1 0 1.578 1.578m0 0"/><g clip-path="url(#g)"><path fill="none" stroke="#000" stroke-miterlimit="10" stroke-width=".39597159000000004" d="M111.867 12.21c0-.87-.707-1.577-1.578-1.577a1.577 1.577 0 1 0 1.578 1.578Zm0 0"/></g><path fill="none" stroke="#000" stroke-miterlimit="10" stroke-width=".39597159000000004" d="M20.168 84.309V64.012m0-31.508V12.21"/><path fill="none" stroke="#000" stroke-linejoin="bevel" stroke-miterlimit="10" stroke-width=".79095077" d="M20.328 64.406c-3.266 0-5.91-1.804-5.91-4.035 0-2.23 2.644-4.039 5.91-4.039-3.266 0-5.91-1.809-5.91-4.035 0-2.23 2.644-4.04 5.91-4.04-3.266 0-5.91-1.808-5.91-4.034 0-2.23 2.644-4.04 5.91-4.04-3.266 0-5.91-1.808-5.91-4.038 0-2.227 2.644-4.036 5.91-4.036"/><path fill="none" stroke="#000" stroke-miterlimit="10" stroke-width=".39597159000000004" d="M92.266 84.309V64.012m0-31.508V12.21"/><path fill="none" stroke="#000" stroke-linejoin="bevel" stroke-miterlimit="10" stroke-width=".79095077" d="M92.426 64.406c-3.266 0-5.91-1.804-5.91-4.035 0-2.23 2.644-4.039 5.91-4.039-3.266 0-5.91-1.809-5.91-4.035 0-2.23 2.644-4.04 5.91-4.04-3.266 0-5.91-1.808-5.91-4.034 0-2.23 2.644-4.04 5.91-4.04-3.266 0-5.91-1.808-5.91-4.038 0-2.227 2.644-4.036 5.91-4.036"/><path fill="none" stroke="#000" stroke-dasharray="2.9661447803 1.9774265455" stroke-miterlimit="10" stroke-width=".39597159000000004" d="M12.285 32.504v31.508M84.383 32.504v31.508"/></svg>