<svg xmlns="http://www.w3.org/2000/svg" width="115.863" height="82.579"><defs><clipPath id="a"><path d="M.227 78H4v4H.227Zm0 0"/></clipPath><clipPath id="b"><path d="M.227 73H10v9.16H.227Zm0 0"/></clipPath><clipPath id="c"><path d="M103 73h12.5v9.16H103Zm0 0"/></clipPath><clipPath id="d"><path d="M.227 6H4v4H.227Zm0 0"/></clipPath><clipPath id="e"><path d="M.227 0H10v16H.227Zm0 0"/></clipPath><clipPath id="f"><path d="M103 0h12.5v16H103Zm0 0"/></clipPath><clipPath id="g"><path d="M12 73h16v9.16H12Zm0 0"/></clipPath><clipPath id="h"><path d="M85 73h15v9.16H85Zm0 0"/></clipPath></defs><path fill="none" stroke="#000" stroke-miterlimit="10" stroke-width=".39697707" d="M2.004 80.383h9.035m0 0h29.379m31.59 0h29.379m0 0h9.035"/><g clip-path="url(#a)"><path fill="#FFF" d="M3.582 80.383a1.58 1.58 0 0 0-3.16 0 1.58 1.58 0 0 0 3.16 0m0 0"/></g><g clip-path="url(#b)"><path fill="none" stroke="#000" stroke-miterlimit="10" stroke-width=".39697707" d="M3.582 80.383a1.58 1.58 0 0 0-3.16 0 1.58 1.58 0 0 0 3.16 0Zm0 0"/></g><path fill="none" stroke="#000" stroke-linejoin="bevel" stroke-miterlimit="10" stroke-width=".79295921" d="M40.023 80.543c0-3.273 1.813-5.922 4.047-5.922 2.235 0 4.047 2.649 4.047 5.922 0-3.273 1.813-5.922 4.047-5.922 2.238 0 4.05 2.649 4.05 5.922 0-3.273 1.81-5.922 4.048-5.922 2.234 0 4.047 2.649 4.047 5.922 0-3.273 1.812-5.922 4.046-5.922 2.235 0 4.047 2.649 4.047 5.922"/><path fill="#FFF" d="M112.004 80.383a1.58 1.58 0 0 0-3.16 0 1.58 1.58 0 0 0 3.16 0m0 0"/><g clip-path="url(#c)"><path fill="none" stroke="#000" stroke-miterlimit="10" stroke-width=".39697707" d="M112.004 80.383a1.58 1.58 0 0 0-3.16 0 1.58 1.58 0 0 0 3.16 0Zm0 0"/></g><path fill="none" stroke="#000" stroke-miterlimit="10" stroke-width=".39697707" d="M2.004 8.102h9.035m0 0h29.379m31.59 0h29.379m0 0h9.035"/><g clip-path="url(#d)"><path fill="#FFF" d="M3.582 8.102a1.58 1.58 0 1 0-3.161.003 1.58 1.58 0 0 0 3.161-.003m0 0"/></g><g clip-path="url(#e)"><path fill="none" stroke="#000" stroke-miterlimit="10" stroke-width=".39697707" d="M3.582 8.102a1.58 1.58 0 1 0-3.161.003 1.58 1.58 0 0 0 3.161-.003Zm0 0"/></g><path fill="none" stroke="#000" stroke-linejoin="bevel" stroke-miterlimit="10" stroke-width=".79295921" d="M40.023 8.262c0-3.27 1.813-5.922 4.047-5.922 2.235 0 4.047 2.652 4.047 5.922 0-3.27 1.813-5.922 4.047-5.922 2.238 0 4.05 2.652 4.05 5.922 0-3.27 1.81-5.922 4.048-5.922 2.234 0 4.047 2.652 4.047 5.922 0-3.27 1.812-5.922 4.046-5.922 2.235 0 4.047 2.652 4.047 5.922"/><path fill="#FFF" d="M112.004 8.102a1.58 1.58 0 1 0-3.16.002 1.58 1.58 0 0 0 3.16-.002m0 0"/><g clip-path="url(#f)"><path fill="none" stroke="#000" stroke-miterlimit="10" stroke-width=".39697707" d="M112.004 8.102a1.58 1.58 0 1 0-3.16.002 1.58 1.58 0 0 0 3.16-.002Zm0 0"/></g><path fill="none" stroke="#000" stroke-miterlimit="10" stroke-width=".39697707" d="M20.074 80.383V48.19m0-7.898V8.102"/><path fill="none" stroke="#000" stroke-miterlimit="10" stroke-width=".79295921" d="M8.227 48.191h23.691M8.227 40.293h23.691"/><path d="M21.652 80.383a1.58 1.58 0 0 0-3.16 0 1.58 1.58 0 0 0 3.16 0m0 0"/><g clip-path="url(#g)"><path fill="none" stroke="#000" stroke-miterlimit="10" stroke-width=".39697707" d="M21.652 80.383a1.58 1.58 0 0 0-3.16 0 1.58 1.58 0 0 0 3.16 0Zm0 0"/></g><path stroke="#000" stroke-miterlimit="10" stroke-width=".39697707" d="M21.652 8.102a1.58 1.58 0 1 0-3.161.003 1.58 1.58 0 0 0 3.161-.003Zm0 0"/><path fill="none" stroke="#000" stroke-miterlimit="10" stroke-width=".39697707" d="M92.352 80.383V48.19m0-7.898V8.102"/><path fill="none" stroke="#000" stroke-miterlimit="10" stroke-width=".79295921" d="M80.508 48.191h23.691m-23.691-7.898h23.691"/><path d="M93.934 80.383a1.58 1.58 0 0 0-3.16 0 1.58 1.58 0 0 0 3.16 0m0 0"/><g clip-path="url(#h)"><path fill="none" stroke="#000" stroke-miterlimit="10" stroke-width=".39697707" d="M93.934 80.383a1.58 1.58 0 0 0-3.16 0 1.58 1.58 0 0 0 3.16 0Zm0 0"/></g><path stroke="#000" stroke-miterlimit="10" stroke-width=".39697707" d="M93.934 8.102a1.58 1.58 0 1 0-3.16.002 1.58 1.58 0 0 0 3.16-.002Zm0 0"/><path fill="none" stroke="#000" stroke-dasharray="2.9736766319 1.9824477715" stroke-miterlimit="10" stroke-width=".39697707" d="M40.418 72.477h31.59M40.418.2h31.59"/></svg>