<svg xmlns="http://www.w3.org/2000/svg" width="115.863" height="80.786"><defs><clipPath id="a"><path d="M.086 77H4v3.574H.086Zm0 0"/></clipPath><clipPath id="b"><path d="M.086 71H10v9.574H.086Zm0 0"/></clipPath><clipPath id="c"><path d="M108 77h5v3.574h-5Zm0 0"/></clipPath><clipPath id="d"><path d="M103 71h12.64v9.574H103Zm0 0"/></clipPath><clipPath id="e"><path d="M.086 4H4v4H.086Zm0 0"/></clipPath><clipPath id="f"><path d="M.086 0H10v14H.086Zm0 0"/></clipPath><clipPath id="g"><path d="M103 0h12.64v14H103Zm0 0"/></clipPath></defs><path fill="none" stroke="#000" stroke-miterlimit="10" stroke-width=".39794664" d="M1.867 78.793h54.34m0 0h54.344"/><g clip-path="url(#a)"><path fill="#FFF" d="M3.45 78.793a1.584 1.584 0 1 0-3.168-.004 1.584 1.584 0 0 0 3.167.004m0 0"/></g><g clip-path="url(#b)"><path fill="none" stroke="#000" stroke-miterlimit="10" stroke-width=".39794664" d="M3.45 78.793a1.584 1.584 0 1 0-3.168-.004 1.584 1.584 0 0 0 3.167.004Zm0 0"/></g><g clip-path="url(#c)"><path fill="#FFF" d="M112.133 78.793c0-.875-.707-1.586-1.582-1.586a1.584 1.584 0 0 0 0 3.168c.875 0 1.582-.71 1.582-1.582m0 0"/></g><g clip-path="url(#d)"><path fill="none" stroke="#000" stroke-miterlimit="10" stroke-width=".39794664" d="M112.133 78.793c0-.875-.707-1.586-1.582-1.586a1.584 1.584 0 0 0 0 3.168c.875 0 1.582-.71 1.582-1.582Zm0 0"/></g><path fill="none" stroke="#000" stroke-miterlimit="10" stroke-width=".39794664" d="M1.867 6.336h9.055m0 0h29.453m31.668 0h29.453m0 0h9.055"/><g clip-path="url(#e)"><path fill="#FFF" d="M3.45 6.336a1.584 1.584 0 1 0-3.168-.004 1.584 1.584 0 0 0 3.167.004m0 0"/></g><g clip-path="url(#f)"><path fill="none" stroke="#000" stroke-miterlimit="10" stroke-width=".39794664" d="M3.45 6.336a1.584 1.584 0 1 0-3.168-.004 1.584 1.584 0 0 0 3.167.004Zm0 0"/></g><path stroke="#000" stroke-miterlimit="10" stroke-width=".39794664" d="M21.562 6.336c0-.875-.707-1.586-1.582-1.586a1.584 1.584 0 0 0 0 3.168c.875 0 1.582-.711 1.582-1.582Zm0 0"/><path fill="none" stroke="#000" stroke-miterlimit="10" stroke-width=".7948959200000001" d="M40.375.398h31.668V12.27H40.375Zm0 0"/><path stroke="#000" stroke-miterlimit="10" stroke-width=".39794664" d="M94.02 6.336a1.584 1.584 0 1 0-1.582 1.582c.874 0 1.582-.711 1.582-1.582Zm0 0"/><path fill="#FFF" d="M112.133 6.336c0-.875-.707-1.586-1.582-1.586a1.584 1.584 0 0 0 0 3.168c.875 0 1.582-.711 1.582-1.582m0 0"/><g clip-path="url(#g)"><path fill="none" stroke="#000" stroke-miterlimit="10" stroke-width=".39794664" d="M112.133 6.336c0-.875-.707-1.586-1.582-1.586a1.584 1.584 0 0 0 0 3.168c.875 0 1.582-.711 1.582-1.582Zm0 0"/></g><path fill="none" stroke="#000" stroke-miterlimit="10" stroke-width=".39794664" d="M19.98 6.336v18.113m0 0v18.114h32.27m7.918 0h32.27V24.449m0 0V6.336"/><path fill="none" stroke="#000" stroke-miterlimit="10" stroke-width=".7948959200000001" d="M52.25 30.688v23.75m7.918-23.75v23.75"/></svg>