<svg xmlns="http://www.w3.org/2000/svg" width="115.863" height="86.739"><defs><clipPath id="a"><path d="M.105 83H4v3.48H.105Zm0 0"/></clipPath><clipPath id="b"><path d="M.105 77H10v9.48H.105Zm0 0"/></clipPath><clipPath id="c"><path d="M108 83h5v3.48h-5Zm0 0"/></clipPath><clipPath id="d"><path d="M103 77h12.621v9.48H103Zm0 0"/></clipPath><clipPath id="e"><path d="M.105 10H4v4H.105Zm0 0"/></clipPath><clipPath id="f"><path d="M.105 5H10v15H.105Zm0 0"/></clipPath><clipPath id="g"><path d="M103 5h12.621v15H103Zm0 0"/></clipPath><clipPath id="h"><path d="M54 83h4v3.48h-4Zm0 0"/></clipPath><clipPath id="i"><path d="M49 77h15v9.48H49Zm0 0"/></clipPath></defs><path fill="none" stroke="#000" stroke-miterlimit="10" stroke-width=".397803" d="M1.887 84.7h27.16m0 0H83.37m0 0h27.16"/><g clip-path="url(#a)"><path fill="#FFF" d="M3.469 84.7a1.58 1.58 0 0 0-1.582-1.583A1.583 1.583 0 1 0 3.469 84.7m0 0"/></g><g clip-path="url(#b)"><path fill="none" stroke="#000" stroke-miterlimit="10" stroke-width=".397803" d="M3.469 84.7a1.58 1.58 0 0 0-1.582-1.583A1.583 1.583 0 1 0 3.469 84.7Zm0 0"/></g><g clip-path="url(#c)"><path fill="#FFF" d="M112.117 84.7a1.584 1.584 0 0 0-3.168 0c0 .87.711 1.581 1.582 1.581.875 0 1.586-.71 1.586-1.582m0 0"/></g><g clip-path="url(#d)"><path fill="none" stroke="#000" stroke-miterlimit="10" stroke-width=".397803" d="M112.117 84.7a1.584 1.584 0 0 0-3.168 0c0 .87.711 1.581 1.582 1.581.875 0 1.586-.71 1.586-1.582Zm0 0"/></g><path fill="none" stroke="#000" stroke-miterlimit="10" stroke-width=".397803" d="M1.887 12.266H25.09m7.914 0h46.41m7.914 0h23.203"/><path fill="none" stroke="#000" stroke-miterlimit="10" stroke-width=".794609" d="M25.09.398v23.739M33.004.398v23.739"/><g clip-path="url(#e)"><path fill="#FFF" d="M3.469 12.266a1.583 1.583 0 1 0-3.166.001 1.583 1.583 0 0 0 3.166-.001m0 0"/></g><g clip-path="url(#f)"><path fill="none" stroke="#000" stroke-miterlimit="10" stroke-width=".397803" d="M3.469 12.266a1.583 1.583 0 1 0-3.166.001 1.583 1.583 0 0 0 3.166-.001Zm0 0"/></g><path stroke="#000" stroke-miterlimit="10" stroke-width=".397803" d="M57.793 12.266a1.583 1.583 0 1 0-3.162.002 1.583 1.583 0 0 0 3.162-.002Zm0 0"/><path fill="none" stroke="#000" stroke-miterlimit="10" stroke-width=".794609" d="M79.414.398v23.739M87.328.398v23.739"/><path fill="#FFF" d="M112.117 12.266c0-.871-.71-1.582-1.586-1.582a1.583 1.583 0 1 0 1.586 1.582m0 0"/><g clip-path="url(#g)"><path fill="none" stroke="#000" stroke-miterlimit="10" stroke-width=".397803" d="M112.117 12.266c0-.871-.71-1.582-1.586-1.582a1.583 1.583 0 1 0 1.586 1.582Zm0 0"/></g><path fill="none" stroke="#000" stroke-miterlimit="10" stroke-width=".397803" d="M56.21 84.7V64.308m0-31.653v-20.39"/><g clip-path="url(#h)"><path d="M57.793 84.7a1.583 1.583 0 1 0-3.166.001 1.583 1.583 0 0 0 3.166-.002m0 0"/></g><g clip-path="url(#i)"><path fill="none" stroke="#000" stroke-miterlimit="10" stroke-width=".397803" d="M57.793 84.7a1.583 1.583 0 1 0-3.166.001 1.583 1.583 0 0 0 3.166-.002Zm0 0"/></g><path fill="none" stroke="#000" stroke-linejoin="bevel" stroke-miterlimit="10" stroke-width=".794609" d="M56.367 64.707c-3.277 0-5.933-1.816-5.933-4.055 0-2.242 2.656-4.058 5.933-4.058-3.277 0-5.933-1.817-5.933-4.055 0-2.242 2.656-4.055 5.933-4.055-3.277 0-5.933-1.816-5.933-4.058 0-2.239 2.656-4.055 5.933-4.055-3.277 0-5.933-1.816-5.933-4.055 0-2.242 2.656-4.058 5.933-4.058"/><path fill="none" stroke="#000" stroke-dasharray="2.97986351 1.98657235" stroke-miterlimit="10" stroke-width=".397803" d="M48.29 64.309V32.656"/></svg>