<svg xmlns="http://www.w3.org/2000/svg" xmlns:xlink="http://www.w3.org/1999/xlink" width="217.874" height="138.54"><defs><path id="a" d="M3.64-3.969h.86c.188 0 .297 0 .297-.203 0-.11-.11-.11-.266-.11h-.828l.203-1.124c.047-.203.188-.907.235-1.032.093-.187.265-.343.468-.343.047 0 .297 0 .485.187a.531.531 0 0 0-.532.532c0 .234.188.343.375.343.25 0 .547-.218.547-.593 0-.454-.468-.688-.875-.688-.328 0-.953.188-1.25 1.172-.062.203-.093.297-.328 1.547h-.687c-.188 0-.297 0-.297.187 0 .125.094.125.281.125h.64L2.235-.047c-.187.953-.343 1.86-.859 1.86-.047 0-.297 0-.484-.172a.547.547 0 0 0 .547-.547c0-.219-.172-.344-.36-.344-.266 0-.547.219-.547.594 0 .453.438.687.844.687.547 0 .938-.578 1.11-.953.328-.625.546-1.828.562-1.906Zm0 0"/><path id="b" d="M6.297-5.734c.11-.407.281-.703 1.078-.735.047 0 .172-.015.172-.203 0 0 0-.11-.14-.11-.329 0-.673.032-1 .032-.344 0-.72-.031-1.032-.031-.062 0-.187 0-.187.203 0 .11.093.11.187.11.563.015.672.218.672.437 0 .031-.031.172-.031.203l-.891 3.547C4.781-.953 3.641-.094 2.656-.094c-.687 0-1.219-.437-1.219-1.281 0-.031 0-.344.11-.781l.969-3.86c.078-.359.109-.453.828-.453.265 0 .344 0 .344-.203 0-.11-.11-.11-.141-.11-.281 0-1 .032-1.281.032-.282 0-.985-.031-1.282-.031-.078 0-.187 0-.187.203 0 .11.094.11.281.11.016 0 .219 0 .375.015.188.031.266.031.266.156 0 .063-.094.484-.157.703l-.218.875c-.094.39-.563 2.266-.61 2.453-.062.282-.062.438-.062.579 0 1.218.89 1.906 1.937 1.906 1.25 0 2.485-1.125 2.813-2.438Zm0 0"/></defs><path fill="none" stroke="#000" stroke-miterlimit="10" stroke-width=".39767931" d="M14.977 122.438H204.41"/><path stroke="#000" stroke-miterlimit="10" stroke-width=".39767931" d="m207.477 122.438-2.965-1.758v3.515Zm0 0"/><use xlink:href="#a" x="204.904" y="132.841"/><path fill="none" stroke="#000" stroke-miterlimit="10" stroke-width=".39767931" d="M14.977 122.438V10.16"/><path stroke="#000" stroke-miterlimit="10" stroke-width=".39767931" d="m14.977 7.098-1.758 2.965h3.515Zm0 0"/><use xlink:href="#b" x="3.608" y="10.094"/><path fill="none" stroke="#000" stroke-miterlimit="10" stroke-width=".79436193" d="M176.652 17.824s-20.379-.828-38.578 27.004c-18.199 27.836-12.02 73.3-27.008 73.3s-8.804-45.464-27.003-73.3c-18.2-27.832-38.579-27.004-38.579-27.004"/><path fill="none" stroke="#000" stroke-dasharray="2.9789369727 2.9789369727" stroke-miterlimit="10" stroke-width=".39767931" d="M111.426 122.438V6.699"/></svg>