<svg xmlns="http://www.w3.org/2000/svg" width="198.384" height="162.185"><defs><clipPath id="a"><path d="M.191 0H194v161.375H.191Zm0 0"/></clipPath><clipPath id="b"><path d="M.191 0H195v161.375H.191Zm0 0"/></clipPath><clipPath id="c"><path d="M.586 12h193.3v137H.587Zm0 0"/></clipPath></defs><g fill="none" stroke="#000" stroke-miterlimit="10" stroke-width=".199" clip-path="url(#a)"><path stroke-width=".19800500000000001" d="M.586 160.977V.395M32.8 160.977V.395M65.02 160.977V.395m32.214 160.582V.395m32.22 160.582V.395m32.214 160.582V.395m32.219 160.582V.395M.586 160.977h193.3M.587 134.215h193.3M.587 107.449h193.3M.587 80.688h193.3M.587 53.922h193.3M.587 27.16h193.3M.587.395h193.3"/></g><g clip-path="url(#b)"><path fill="none" stroke="#000" stroke-miterlimit="10" stroke-width=".793015" d="M.586 160.977V.395h193.3v160.582Zm0 0"/></g><g clip-path="url(#c)"><path fill="none" stroke="#000" stroke-miterlimit="10" stroke-width="1.58603" d="m.586 80.688.973-2.543c.27-.704.699-1.832.968-2.536.27-.703.703-1.824.973-2.523.27-.7.703-1.813.973-2.508.27-.691.699-1.797.968-2.484a779.65 779.65 0 0 1 2.914-7.258 337.377 337.377 0 0 1 2.914-6.855 236.44 236.44 0 0 1 1.946-4.282c.27-.574.7-1.48.969-2.035.27-.555.703-1.43.972-1.965a125.509 125.509 0 0 1 1.941-3.684 85.126 85.126 0 0 1 1.945-3.336c.27-.437.7-1.117.97-1.527.27-.41.703-1.156.972-1.43.27-.269.703-.46.973-.534.27-.075.7 0 .969 0H42.355c.27 0 .7-.043.97 0 .269.042.702.082.972.32.27.242.703 1.008.973 1.414a73.238 73.238 0 0 1 1.94 3.121c.27.46.704 1.215.974 1.7a123.62 123.62 0 0 1 2.914 5.609 215.88 215.88 0 0 1 1.941 4.121c.27.593.703 1.554.973 2.164a313.841 313.841 0 0 1 3.883 9.207c.27.664.703 1.742.972 2.414.27.676.703 1.77.973 2.453.27.684.7 1.789.969 2.48.27.692.703 1.805.972 2.5.27.7.703 1.82.973 2.524.27.7.7 1.828.969 2.535.27.703.703 1.832.972 2.54.27.702.703 1.835.973 2.542.27.703.7 1.832.969 2.535.273.703.703 1.828.972 2.528l.973 2.507a1674.007 1674.007 0 0 0 1.941 4.95l.973 2.425a479.006 479.006 0 0 0 1.941 4.734 338.944 338.944 0 0 0 1.946 4.536c.27.613.699 1.586.969 2.183.27.594.703 1.54.972 2.118a187.903 187.903 0 0 0 1.941 4.023 109.082 109.082 0 0 0 2.914 5.437c.27.465.704 1.196.973 1.637.27.442.703 1.125.973 1.543.27.414.7 1.137.969 1.442.27.308.703.652.972.754.27.105.704 0 .973 0H106.465c.27 0 .703.015.973 0 .269-.016.699.101.968-.11.27-.21.703-.996.973-1.398.27-.403.703-1.067.973-1.496.27-.43.699-1.14.968-1.594.27-.453.703-1.207.973-1.684.27-.48.703-1.273.973-1.777a134.634 134.634 0 0 0 2.914-5.809 214.347 214.347 0 0 0 1.941-4.238 248.37 248.37 0 0 0 1.942-4.484 350.807 350.807 0 0 0 1.945-4.692c.27-.664.699-1.734.969-2.41a532.977 532.977 0 0 0 1.945-4.922c.27-.687.7-1.8.969-2.5a1749.76 1749.76 0 0 0 1.945-5.05c.27-.704.7-1.832.969-2.54.27-.703.703-1.835.972-2.542l.973-2.536.969-2.527.972-2.516a1672.49 1672.49 0 0 1 1.942-4.953 526.39 526.39 0 0 1 2.914-7.183 323.024 323.024 0 0 1 2.914-6.742c.27-.602.703-1.547.973-2.13a190.603 190.603 0 0 1 1.941-4.047 129.83 129.83 0 0 1 1.945-3.734c.27-.496.7-1.27.97-1.742a77.718 77.718 0 0 1 1.945-3.207c.269-.418.702-1.125.972-1.46.27-.337.7-.837.969-.973.27-.137.703 0 .972 0h20.399c.27 0 .703-.18.973 0s.699.898.968 1.285c.27.382.703 1.054.973 1.48.27.426.703 1.129.973 1.578.27.45.699 1.196.968 1.672.27.477.703 1.258.973 1.758s.703 1.324.973 1.848a147.05 147.05 0 0 1 1.941 3.93 175.794 175.794 0 0 1 1.941 4.214c.27.602.704 1.586.973 2.203.27.621.703 1.63.973 2.266.27.633.699 1.664.969 2.312a508.964 508.964 0 0 1 1.945 4.766 819.76 819.76 0 0 1 1.941 4.91c.27.692.703 1.8.973 2.5a1750.921 1750.921 0 0 1 1.941 5.047 1998.606 1998.606 0 0 1 1.941 5.078"/></g></svg>