<svg xmlns="http://www.w3.org/2000/svg" width="115.56" height="36.369"><defs><clipPath id="a"><path d="M.77 0h113.59v35.75H.77Zm0 0"/></clipPath></defs><path fill="#BFBFBF" d="M7.766 17.875h10.879c3.433 0 7.851-2.25 9.87-5.027l5.118-7.04c2.02-2.777 6.437-5.027 9.87-5.027h38.845v17.094h27.968-27.968v17.09H43.504c-3.434 0-7.852-2.25-9.871-5.028l-5.117-7.039c-2.02-2.773-6.438-5.023-9.871-5.023zc-3.43 0-3.43 0 0 0m0 0"/><g clip-path="url(#a)"><path fill="none" stroke="#000" stroke-miterlimit="10" stroke-width="1.5668223000000001" d="M7.766 17.875h10.879c3.433 0 7.851-2.25 9.87-5.027l5.118-7.04c2.02-2.777 6.437-5.027 9.87-5.027h38.845v17.094h27.968-27.968v17.09H43.504c-3.434 0-7.852-2.25-9.871-5.027l-5.117-7.04c-2.02-2.773-6.438-5.023-9.871-5.023H7.765c-3.43 0-3.43 0 0 0Zm0 0"/></g></svg>