<svg xmlns="http://www.w3.org/2000/svg" width="228.164" height="42.185"><defs><clipPath id="a"><path d="M1.754 19H223v3H1.754Zm0 0"/></clipPath><clipPath id="b"><path d="M21 0h23v41.387H21Zm0 0"/></clipPath><clipPath id="c"><path d="M61 0h62v41.387H61Zm0 0"/></clipPath><clipPath id="d"><path d="M141 0h22v41.387h-22Zm0 0"/></clipPath><clipPath id="e"><path d="M180 0h23v41.387h-23Zm0 0"/></clipPath></defs><g clip-path="url(#a)"><path fill="none" stroke="#000" stroke-miterlimit="10" stroke-width="1.5637937" d="M2.535 20.691H221.56"/></g><path fill="#BFBFBF" d="M22.445 40.605V.781h19.91v39.824Zm0 0"/><g clip-path="url(#b)"><path fill="none" stroke="#000" stroke-miterlimit="10" stroke-width="1.5637937" d="M22.445 40.605V.781h19.91v39.824Zm0 0"/></g><path fill="#BFBFBF" d="M62.27 40.605V.781H122v39.824Zm0 0"/><g clip-path="url(#c)"><path fill="none" stroke="#000" stroke-miterlimit="10" stroke-width="1.5637937" d="M62.27 40.605V.781H122v39.824Zm0 0"/></g><path fill="#BFBFBF" d="M141.914 40.605V.781h19.91v39.824Zm0 0"/><g clip-path="url(#d)"><path fill="none" stroke="#000" stroke-miterlimit="10" stroke-width="1.5637937" d="M141.914 40.605V.781h19.91v39.824Zm0 0"/></g><path fill="#BFBFBF" d="M181.734 40.605V.781h19.914v39.824Zm0 0"/><g clip-path="url(#e)"><path fill="none" stroke="#000" stroke-miterlimit="10" stroke-width="1.5637937" d="M181.734 40.605V.781h19.915v39.824Zm0 0"/></g></svg>