<svg xmlns="http://www.w3.org/2000/svg" width="115.56" height="36.369"><defs><clipPath id="a"><path d="M.77 0h113.59v35.75H.77Zm0 0"/></clipPath></defs><path fill="#BFBFBF" d="M1.55 17.875h27.97V.781h38.843c3.434 0 7.852 2.25 9.871 5.028l5.121 7.039c2.016 2.777 6.438 5.027 9.868 5.027h10.879c3.43 0 3.43 0 0 0h-10.88c-3.429 0-7.85 2.25-9.867 5.023l-5.12 7.04c-2.02 2.777-6.438 5.027-9.872 5.027H29.52v-17.09Zm0 0"/><g clip-path="url(#a)"><path fill="none" stroke="#000" stroke-miterlimit="10" stroke-width="1.5668223000000001" d="M1.55 17.875h27.97V.781h38.843c3.434 0 7.852 2.25 9.871 5.028l5.121 7.039c2.016 2.777 6.438 5.027 9.868 5.027h10.879c3.43 0 3.43 0 0 0h-10.88c-3.429 0-7.85 2.25-9.867 5.023l-5.12 7.04c-2.02 2.777-6.438 5.027-9.872 5.027H29.52v-17.09Zm0 0"/></g></svg>