<svg xmlns="http://www.w3.org/2000/svg" xmlns:xlink="http://www.w3.org/1999/xlink" width="227.901" height="111.356"><defs><path id="b" d="m2.563-2.453-.188-.188-.203.188c-.547.531-.625.469-.828.265l-3.032-3.171c-.156-.157-.171-.141-.328 0 0 .437-.187.875-.734 1.39l.188.188c.156-.14.468-.438.64-.906L.891-1.75c.203.203.25.281-.297.813L.406-.75l.188.188c.219-.235.703-.704.953-.954.266-.25.766-.718 1.016-.937m0 0"/><path id="c" d="M2.578-3.156c-.344-.563-1.094-.797-1.86-.531.407-.516.516-1.22.188-1.766C.578-5.984-.25-6-.954-5.578c-.718.437-1.046 1.156-.733 1.672.156.25.39.265.562.156.219-.125.25-.36.14-.547-.156-.25-.437-.219-.577-.14.062-.532.562-.875.687-.954.172-.109.719-.375 1.14.329.298.484.282.89.25 1.03-.078.345-.218.454-.624.75-.125.063-.172.11-.11.204.047.094.094.062.219 0l.328-.203c.547-.328 1.125-.172 1.563.547.515.843.172 1.39-.188 1.609-.375.234-.953.39-1.422.188.25-.157.344-.391.203-.625-.14-.22-.406-.282-.609-.157a.45.45 0 0 0-.14.625c.39.64 1.343.64 2.124.172.891-.547 1.125-1.562.72-2.234m0 0"/><path id="d" d="M3.078-2.719C2.781-3.594 1.875-4.14 1-3.844a1.57 1.57 0 0 0-.89.719l-.5-1.453c.124 0 .453-.016.765-.125.938-.328 1.281-1.172 1.234-1.281-.03-.094-.078-.094-.109-.079 0 0-.031.016-.11.063a3.075 3.075 0 0 1-.952.563c-.454.14-.86.14-1.141.14h-.078c-.11.047-.094.125-.031.266l.734 2.187c.047.14.078.219.203.172.047-.015.063-.047.078-.11.078-.155.219-.624.86-.843.406-.14.734.125.859.25.219.234.344.563.453.86.094.28.219.671.11 1.093-.047.266-.282.578-.688.719-.484.172-1.063.031-1.39-.39l.062-.032c.203-.062.328-.25.25-.5-.078-.266-.344-.281-.5-.234-.125.046-.328.187-.219.515.234.688 1.031 1.172 1.906.875.938-.312 1.469-1.328 1.172-2.25m0 0"/><path id="e" d="m3.484-5.516-2 .22c-.187.015-.437.046-.64.046-.39.016-.406-.062-.438-.187l-.25.03-.093 1.688.25-.031c.015-.11.03-.656.125-.719.093-.062.671-.125.796-.14l1.672-.188-.687 1.172c-.781 1.297-.828 2.563-.766 3.188.016.078.047.453.422.406.36-.047.328-.406.313-.5l-.047-.39c-.125-1.126-.016-2.063.297-2.626l1.015-1.687c.063-.079.063-.094.031-.282m0 0"/><path id="f" d="M4.11-2.172C4.343-4.219 3.5-4.922 2.686-5A1.764 1.764 0 0 0 .72-3.453c-.11 1.015.578 1.86 1.469 1.953.562.063.953-.266 1.171-.64l-.015.156C3.14-.062 2.188.156 1.734.109 1.563.094 1.172.031.97-.234c.36 0 .406-.266.422-.344.03-.235-.141-.375-.328-.39-.141-.016-.391.03-.422.327-.063.547.343.922 1.062 1C2.781.484 3.922-.484 4.11-2.17m-.673-.797c-.062.625-.484 1.328-1.187 1.25-.375-.031-.578-.234-.703-.547-.156-.296-.11-.687-.078-1.093.062-.453.093-.782.343-1.094a.86.86 0 0 1 .844-.344c.531.063.719.594.735.64.125.407.062 1.016.046 1.188m0 0"/><path id="g" d="M6.375.078c.047-.172-.11-.234-.219-.265l-2.203-.75.766-2.22c.031-.093.078-.265-.094-.327-.172-.047-.219.125-.25.218l-.766 2.22-2.218-.766c-.094-.032-.266-.079-.313.093-.062.172.11.219.203.25L3.5-.703 2.75 1.5c-.031.125-.094.281.078.328.172.063.235-.094.266-.219l.75-2.203 2.203.75c.11.032.266.094.328-.078m0 0"/><path id="h" d="m4.031-.125-.234-.078c-.063.125-.25.5-.39.594C3.327.437 2.765.25 2.64.203L1.313-.25l1.312-.562c.172-.063.563-.22.703-.282.64-.265 1.219-.531 1.438-1.203.312-.89-.25-1.734-1.188-2.047-.906-.297-1.703.172-1.937.844-.125.375.156.516.25.547a.385.385 0 0 0 .515-.25c.14-.406-.234-.531-.328-.563.406-.484.969-.484 1.344-.359.687.234.86.953.64 1.578-.265.781-1 1.156-2.203 1.781L.58-.109c-.11.047-.11.062-.173.25l2.953 1Zm0 0"/><path id="i" d="M4.484-1.14c.266-.813.344-1.329.266-1.876-.11-.796-.672-1.156-1.078-1.296-.953-.329-1.516.265-1.703.453-.453.453-.719 1.187-.844 1.578-.172.5-.406 1.25-.234 1.969.14.671.625 1 1.03 1.14.376.125 1.048.235 1.688-.39.454-.454.704-1.094.875-1.579m-.64-.329c-.156.438-.375 1.125-.594 1.5-.437.75-1 .672-1.25.578-.25-.078-.719-.375-.625-1.218.063-.453.297-1.157.438-1.547.171-.516.343-1.031.562-1.422.438-.719 1.063-.594 1.234-.531.266.093.735.406.657 1.125-.063.453-.25 1.015-.422 1.515m0 0"/><path id="j" d="M6.219 1.438c.093-.141-.063-.22-.157-.282L4.079-.047l1.203-2c.063-.094.157-.25 0-.36-.156-.077-.25.079-.312.173l-1.203 2-2-1.22c-.094-.062-.235-.14-.328 0-.094.173.046.25.14.313l2 1.22L2.36 2.062c-.062.109-.14.25.016.328.156.109.234-.032.297-.141L3.89.266l1.984 1.203c.094.062.25.14.344-.032m0 0"/><path id="k" d="m4.063.953.14-.219-.719-.437L5.328-2.75c.078-.14.11-.187-.031-.281-.094-.047-.094-.063-.219 0L1.016-1.203l-.141.219L2.781.172l-.344.562c-.156.25-.203.297-.718-.015L1.562.625l-.14.234.984.563.953.625.141-.235-.156-.093c-.516-.328-.5-.39-.344-.64l.344-.563ZM2.968-.016 1.25-1.062l3.234-1.454Zm0 0"/><path id="l" d="M4.625-.14c.438-.735.625-1.22.672-1.782.062-.797-.406-1.265-.766-1.484-.86-.531-1.562-.078-1.765.062-.547.344-.953 1-1.172 1.36C1.312-1.531.922-.86.922-.125c0 .703.406 1.14.781 1.36.328.187.969.452 1.719-.016.547-.344.937-.922 1.203-1.36m-.547-.47c-.234.407-.61 1.016-.937 1.344-.563.625-1.094.438-1.313.313-.234-.14-.64-.531-.344-1.344.157-.422.532-1.062.75-1.422.282-.468.563-.922.875-1.25.563-.61 1.141-.36 1.313-.25.234.14.625.547.375 1.235-.125.422-.438.922-.719 1.375m0 0"/><path id="m" d="M5.75 2.75c.11-.125-.016-.234-.094-.312L3.984.827 5.61-.859c.079-.079.204-.203.063-.328-.125-.125-.25 0-.328.078L3.719.578 2.03-1.047c-.078-.078-.203-.187-.312-.062-.125.14 0 .25.078.328L3.484.844 1.86 2.53c-.078.078-.203.203-.078.328.14.125.266 0 .344-.078L3.75 1.094l1.672 1.61c.078.077.203.187.328.046m0 0"/><path id="n" d="M3.89 1.5c.72-.75.657-1.812.016-2.422-.422-.406-.906-.36-1.297-.219.454-.484.891-.843 1.422-1 .453-.125.969-.078 1.328.266.11.11.36.375.313.703-.281-.25-.484-.062-.547 0a.372.372 0 0 0 .016.531.36.36 0 0 0 .53-.03c.329-.329.345-.86-.187-1.36-.78-.75-2.312-.781-3.5.453C.5-.031.844 1.047 1.406 1.578c.282.281.64.484 1.14.484.438-.015.876-.078 1.345-.562M3.36 1c-.266.281-.516.531-.813.625-.422.11-.719.016-.969-.234-.312-.282-.297-.657-.219-.907.11-.375.47-.796.672-1 .531-.562 1.281-.703 1.719-.28.281.28.313.577.219.89-.078.344-.328.61-.61.906m0 0"/><path id="o" d="M4.547.844c.578-.61.875-1.047 1.031-1.578.234-.75-.11-1.313-.422-1.61-.718-.703-1.5-.406-1.734-.328-.594.219-1.156.781-1.438 1.078-.359.39-.906.953-1.046 1.688-.157.672.14 1.187.453 1.484.28.266.859.64 1.703.36.594-.235 1.094-.72 1.453-1.094M4.109.297c-.328.328-.812.86-1.203 1.11-.687.484-1.156.171-1.344 0C1.376 1.218 1.047.75 1.5.03c.266-.375.781-.906 1.063-1.203.374-.406.765-.797 1.109-1.062.687-.47 1.187-.094 1.328.046.203.188.5.657.11 1.282-.22.39-.626.812-1 1.203m0 0"/><path id="p" d="m3.172 3.031.187-.187c-.39-.375-.406-.453-.14-.75L6.53-1.36l-.906-.75-.172.187c.375.375.375.469.11.75L4.406.031a1.404 1.404 0 0 0-.437-1.078c-.719-.687-1.89-.734-2.594 0-.656.703-.656 1.844.063 2.531.343.329.765.422 1.156.407l-.344.375Zm-.188-1.547c-.109.11-.125.125-.312.172a1.158 1.158 0 0 1-1.047-.312 1.009 1.009 0 0 1-.297-.938c.047-.375.313-.672.563-.937.312-.344.578-.547.906-.594A1.115 1.115 0 0 1 4.14.265Zm0 0"/><path id="q" d="M4.969 2.75c.453-.469.422-1.344-.219-2.125.766.484 1.484.453 1.86.047.5-.5.343-1.5-.423-2.234L4-3.641l-.172.188.125.11c.453.437.406.515.203.734L1.296.359C1.095.58 1.032.625.579.188L.453.078.266.266 2.609 2.5c.782.75 1.844.781 2.36.25M6.047.14C5.672.548 4.907.657 4.25.032l-.89-.86 1.328-1.374c.171-.188.234-.219.484.031l.797.75c.578.563.406 1.235.078 1.563M4.39 2.188c-.438.454-1.203.5-1.782-.062l-.812-.766c-.25-.25-.234-.296-.047-.5L3.219-.67 4.375.452c.563.516.453 1.281.016 1.735m0 0"/><path id="r" d="M.547-4.594c-.64-.547-1.094-.797-1.64-.937-.782-.188-1.313.203-1.594.531-.641.766-.297 1.531-.204 1.75.266.594.844 1.11 1.157 1.375.406.344 1.03.844 1.765.938.688.109 1.172-.235 1.438-.563.25-.297.593-.89.265-1.703C1.47-3.781.938-4.266.547-4.593m-.531.469c.359.297.922.766 1.203 1.125.531.672.25 1.14.078 1.344-.172.203-.61.547-1.36.156-.406-.234-.968-.719-1.296-.984-.422-.344-.828-.703-1.11-1.032-.515-.656-.172-1.187-.047-1.343.188-.203.625-.532 1.297-.188.375.203.828.578 1.235.922m0 0"/><path id="s" d="m2.719-2.281-.172-.203-.219.187c-.578.485-.656.422-.844.203l-2.828-3.36c-.14-.171-.156-.171-.328-.03-.031.437-.234.859-.797 1.343l.172.204c.14-.141.485-.422.688-.86L1-1.687c.188.218.234.296-.344.796l-.203.172.172.203c.234-.25.75-.687 1.016-.906.28-.234.812-.672 1.078-.86m0 0"/><path id="t" d="M1.344-4.422c-.547-.64-.953-1-1.469-1.203-.719-.312-1.328-.031-1.656.25-.766.64-.563 1.453-.5 1.672.156.64.64 1.25.906 1.562.344.407.875 1 1.563 1.235.671.219 1.203-.047 1.53-.313.298-.25.735-.781.548-1.64-.172-.61-.594-1.172-.922-1.563m-.594.375c.297.36.766.922.969 1.297.39.75.047 1.188-.157 1.36C1.36-1.22.86-.97.188-1.5c-.329-.281-.813-.844-1.079-1.172-.343-.422-.703-.828-.937-1.234-.375-.735.031-1.172.187-1.297.204-.188.72-.438 1.313.016.36.28.734.734 1.078 1.14m0 0"/><path id="u" d="M2.578-3.125 2.36-3c.063.156.204.531.172.703 0 .094-.515.39-.625.453L.688-1.14 1.14-2.5c.046-.172.187-.578.25-.734.203-.641.39-1.25.03-1.875-.468-.813-1.468-.938-2.312-.453-.828.484-1.015 1.421-.671 2.03.203.345.5.22.593.157.125-.078.297-.297.14-.547-.202-.375-.53-.172-.624-.125-.094-.61.266-1.031.61-1.234.624-.36 1.28-.016 1.609.547.422.718.218 1.53-.11 2.828L.313-.5c-.063.11-.047.125.046.297l2.72-1.563Zm0 0"/><path id="v" d="M2.094-4.125c-.422-.734-.75-1.14-1.219-1.437A1.596 1.596 0 0 0-.812-5.61c-.86.5-.797 1.343-.782 1.578.032.64.407 1.328.61 1.687.265.453.687 1.125 1.343 1.485a1.506 1.506 0 0 0 1.532-.032c.343-.187.859-.64.828-1.53-.047-.642-.36-1.267-.625-1.704m-.656.281c.234.39.593 1.016.734 1.453.265.782-.156 1.172-.39 1.297-.235.14-.766.297-1.329-.328-.297-.36-.656-1-.875-1.36-.265-.484-.547-.952-.703-1.359-.25-.796.266-1.187.422-1.28.25-.141.781-.282 1.281.265.297.328.594.843.86 1.312m0 0"/><path id="w" d="M3.14-2.594c-.218-.61-.906-1-1.734-.875.516-.437.766-1.094.547-1.703C1.75-5.75.937-5.953.156-5.656c-.797.281-1.234.937-1.031 1.5.094.281.313.343.5.265a.389.389 0 0 0 .25-.515c-.094-.282-.375-.297-.547-.25.172-.516.735-.75.86-.797.187-.063.796-.234 1.062.531.203.531.094.938.031 1.078-.14.313-.312.39-.75.594-.14.047-.187.078-.14.188.03.093.078.078.218.03l.36-.14c.594-.203 1.125.078 1.406.86.344.937-.094 1.39-.484 1.53-.407.157-1.016.22-1.422-.077.265-.094.39-.344.297-.594a.416.416 0 0 0-.563-.25c-.187.062-.344.266-.25.562C.22-.437 1.156-.234 2-.547c.984-.36 1.422-1.297 1.14-2.047m0 0"/><path id="x" d="M2.781-3.703c-.297-.797-.562-1.25-.969-1.625a1.598 1.598 0 0 0-1.64-.344C-.766-5.328-.86-4.5-.875-4.25c-.062.625.188 1.375.328 1.766.172.5.469 1.234 1.031 1.687.547.438 1.157.375 1.547.235.36-.125.953-.47 1.063-1.344.062-.64-.14-1.313-.313-1.797m-.687.156c.156.438.406 1.125.453 1.563.125.828-.344 1.109-.594 1.203-.25.094-.812.172-1.25-.547C.47-1.734.22-2.422.078-2.828c-.187-.516-.375-1.031-.453-1.453C-.5-5.11.078-5.406.25-5.47c.266-.093.828-.14 1.203.485.25.375.453.937.64 1.437m0 0"/><path id="y" d="m3.688-1.969-.047-.25-.828.14-.626-3.515c-.03-.156-.03-.218-.203-.187-.093.015-.109.015-.171.14L-.032-1.578l.047.25 2.203-.375.11.656c.046.281.046.36-.563.469l-.188.031.047.266L2.75-.516l1.125-.171-.047-.266-.187.031c-.594.11-.625.031-.672-.25l-.11-.656Zm-1.454 0-2 .344L1.72-4.859Zm0 0"/><path id="z" d="M3.375-3.172C3.219-4 3.047-4.484 2.719-4.937c-.485-.625-1.14-.688-1.578-.61-.985.172-1.203.969-1.282 1.203-.156.625-.047 1.39.032 1.782.093.53.25 1.312.734 1.874.453.516 1.047.563 1.469.5.39-.078 1.031-.312 1.297-1.156.156-.625.078-1.312-.016-1.828m-.703.047c.078.453.203 1.156.187 1.61-.03.843-.546 1.046-.812 1.093-.266.047-.813.016-1.125-.766C.766-1.624.64-2.343.562-2.75.47-3.297.376-3.828.376-4.281c.031-.828.625-1.016.813-1.047.28-.047.828 0 1.109.672.172.422.281 1 .375 1.531m0 0"/><path id="A" d="M3.781-1.578c0-.922-.672-1.734-1.61-1.734-.39 0-.765.124-1.062.39v-1.531c.11.031.422.11.75.11 1 0 1.594-.688 1.594-.813 0-.094-.047-.11-.094-.11 0 0-.03 0-.109.032a2.835 2.835 0 0 1-1.094.218c-.469 0-.86-.125-1.11-.218-.077-.032-.093-.032-.093-.032-.11 0-.11.079-.11.235v2.312c0 .14 0 .235.126.235.062 0 .094-.032.125-.094.11-.11.406-.516 1.078-.516.437 0 .656.36.734.516.125.281.14.64.14.953 0 .297 0 .719-.233 1.078-.141.235-.454.469-.876.469-.515 0-1.03-.313-1.203-.828h.079c.218 0 .39-.14.39-.39 0-.282-.234-.391-.39-.391-.141 0-.391.078-.391.421 0 .72.61 1.438 1.531 1.438.984 0 1.828-.781 1.828-1.75m0 0"/><path id="B" d="M3.875-2.531c0-.844-.094-1.36-.344-1.86-.36-.703-1-.875-1.437-.875-1 0-1.36.75-1.469.97C.344-3.72.328-2.938.328-2.532c0 .531.016 1.328.406 1.953.36.594.938.75 1.36.75.39 0 1.062-.125 1.469-.906.28-.578.312-1.282.312-1.797m-.703-.094c0 .469 0 1.188-.094 1.625-.172.828-.719.938-.984.938-.266 0-.813-.125-.985-.954-.078-.453-.078-1.187-.078-1.609 0-.547 0-1.094.078-1.531.172-.813.797-.89.985-.89.281 0 .828.14.984.859.094.437.094 1.03.094 1.562m0 0"/><path id="R" d="M3.844-1.36c0-.656-.516-1.25-1.328-1.421.625-.235 1.093-.766 1.093-1.406 0-.625-.703-1.079-1.53-1.079-.845 0-1.485.454-1.485 1.063 0 .297.187.422.39.422.25 0 .407-.188.407-.406 0-.297-.25-.407-.422-.422.328-.422.937-.453 1.078-.453.203 0 .812.062.812.875 0 .562-.234.89-.343 1.015-.235.25-.422.266-.907.297-.14 0-.203.016-.203.125 0 .11.063.11.203.11H2c.625 0 1.031.453 1.031 1.28 0 1-.562 1.282-.984 1.282-.438 0-1.031-.156-1.313-.578.282 0 .485-.172.485-.438A.427.427 0 0 0 .78-1.53a.43.43 0 0 0-.437.453c0 .75.812 1.25 1.719 1.25 1.046 0 1.78-.734 1.78-1.531m0 0"/><path id="C" d="M4.063-.906c.171-1.016-.454-1.89-1.313-2.047-.578-.094-.953.203-1.219.562.11-.656.282-1.203.64-1.64.298-.328.75-.594 1.235-.5.156.015.516.11.656.406-.359-.047-.437.219-.453.297-.046.234.125.406.313.437.14.032.375-.03.422-.328.078-.453-.188-.906-.89-1.031-1.079-.187-2.376.656-2.673 2.328C.406-.297 1.297.406 2.047.531c.39.078.797.031 1.219-.25.375-.234.672-.515.797-1.187m-.72-.125c-.062.375-.124.734-.343.984-.281.297-.547.39-.906.328-.422-.062-.61-.39-.688-.625-.125-.375-.062-.937 0-1.219.125-.78.657-1.28 1.266-1.171.39.062.578.312.687.625.11.312.047.672-.015 1.078m0 0"/><path id="D" d="M4.25-1.828c.156-.828.14-1.344 0-1.89-.234-.75-.828-1.032-1.266-1.11C2-5 1.5-4.328 1.36-4.125.984-3.594.844-2.828.766-2.437c-.094.53-.22 1.312.046 2 .266.64.797.906 1.22.968.39.078 1.062.063 1.609-.625.375-.531.515-1.218.609-1.734m-.672-.203c-.078.453-.203 1.156-.375 1.578-.312.781-.86.797-1.125.75C1.813.25 1.297.03 1.266-.813c0-.468.125-1.187.203-1.593.093-.547.187-1.078.343-1.5.313-.766.938-.735 1.126-.703.28.046.796.28.828 1.015.015.453-.094 1.031-.188 1.563m0 0"/><path id="E" d="m5.578-3.406-1.89-.688c-.172-.062-.407-.14-.594-.234-.375-.172-.36-.25-.344-.36l-.234-.093-.813 1.468.234.094c.047-.094.313-.578.422-.61.11-.015.672.188.782.235l1.578.578-1.125.75C2.313-1.453 1.719-.344 1.5.25c-.031.078-.156.422.203.547.328.125.453-.203.484-.297l.141-.36c.39-1.078.906-1.874 1.422-2.218l1.672-1.078c.078-.063.094-.078.156-.25m0 0"/><path id="F" d="M4.5-1.047c.297-.797.375-1.312.313-1.875-.079-.781-.641-1.172-1.047-1.312-.938-.344-1.532.234-1.703.422-.47.437-.75 1.156-.891 1.546C1-1.766.734-1 .89-.296A1.55 1.55 0 0 0 1.906.874c.36.125 1.047.25 1.688-.344.469-.453.734-1.094.906-1.578m-.625-.344c-.156.438-.406 1.125-.64 1.5-.438.735-1 .641-1.25.547-.25-.094-.72-.39-.594-1.234.078-.438.328-1.125.468-1.531.188-.516.375-1.032.61-1.422.437-.703 1.047-.563 1.219-.5.265.093.734.422.64 1.14-.062.438-.266 1-.453 1.5m0 0"/><path id="G" d="M3.984.766c.25-.422.188-.86.141-1.032-.047-.171-.031-.187-.437-.89.515.015 1.171-.047 1.484-.594.375-.64-.078-1.39-.719-1.766-.734-.421-1.594-.25-1.969.407-.14.234-.203.53-.14.812.015.219.047.235.328.766-1.078-.11-1.563.281-1.781.656-.438.766.093 1.64.843 2.078.844.484 1.829.297 2.25-.437m.844-2.703c-.234.406-.75.562-1.266.515l-.546-1a.776.776 0 0 1-.032-.781c.25-.422.875-.422 1.36-.14.531.296.75.937.484 1.406M3.484.78c-.312.532-1.078.532-1.625.203C1.25.641.953-.078 1.281-.656c.297-.516.922-.688 1.532-.625L3.39-.187c.078.109.328.562.093.968m0 0"/><path id="H" d="M4.625-.25c.422-.734.594-1.234.625-1.781.047-.797-.437-1.266-.812-1.485-.86-.5-1.547-.03-1.75.11-.532.36-.938 1.015-1.141 1.375C1.28-1.578.89-.875.922-.141c.031.704.453 1.125.812 1.344.344.188.985.422 1.704-.062.546-.36.921-.953 1.187-1.391m-.562-.437c-.235.39-.594 1.015-.891 1.359-.578.625-1.094.453-1.328.328-.235-.14-.64-.516-.39-1.328.171-.422.53-1.063.75-1.422.265-.484.546-.953.827-1.297.563-.61 1.14-.375 1.297-.281.25.14.656.531.438 1.234-.141.422-.438.938-.703 1.406m0 0"/><path id="I" d="M4.61.469c1.327-1.578 1.03-2.61.406-3.14-.72-.595-1.828-.595-2.5.202-.657.781-.563 1.86.14 2.438.422.36.922.297 1.328.11l-.109.124c-1.234 1.485-2.156 1.14-2.5.844C1.25.937.953.672.938.344c.28.203.468.015.53-.047a.365.365 0 0 0-.062-.516c-.11-.093-.328-.187-.515.047-.36.406-.235.938.328 1.406.828.704 2.297.547 3.39-.765M4.515-.562c-.407.468-1.157.828-1.703.375-.282-.235-.344-.5-.266-.844.031-.344.281-.64.547-.953.297-.36.515-.61.875-.72a.947.947 0 0 1 .906.188c.406.344.266.891.25.938-.125.422-.5.875-.61 1.016m0 0"/><path id="J" d="M4.594.547c.547-.64.797-1.094.937-1.64.188-.782-.203-1.313-.531-1.594-.766-.641-1.531-.297-1.75-.204-.594.266-1.11.844-1.375 1.157-.344.406-.844 1.03-.937 1.765-.11.688.234 1.172.562 1.438.297.25.89.593 1.703.265.578-.265 1.063-.796 1.39-1.187M4.125.016C3.828.375 3.359.938 3 1.219c-.672.531-1.14.25-1.344.078-.203-.172-.547-.61-.156-1.36.234-.406.719-.968.984-1.296.344-.422.704-.828 1.032-1.11.656-.515 1.187-.172 1.343-.047.204.188.532.625.188 1.297-.203.375-.578.828-.922 1.235m0 0"/><path id="K" d="m2.281 2.719.203-.172-.187-.219c-.485-.578-.422-.656-.203-.844l3.36-2.828c.171-.14.171-.156.03-.328-.437-.031-.859-.234-1.343-.797l-.203.172c.14.14.421.485.859.688L1.687 1c-.218.188-.296.234-.796-.344L.719.453.516.625c.25.234.687.75.906 1.016.234.28.672.812.86 1.078m0 0"/><path id="L" d="M4.422 1.344c.64-.547 1-.953 1.203-1.469.313-.719.031-1.328-.25-1.656-.64-.766-1.453-.563-1.672-.5-.64.156-1.25.64-1.562.906-.407.344-1 .875-1.235 1.563-.219.671.047 1.203.313 1.53.25.298.781.735 1.64.548.61-.172 1.172-.594 1.563-.922M4.047.75c-.36.297-.922.766-1.297.969-.75.39-1.187.047-1.36-.157C1.22 1.36.97.86 1.5.188c.281-.329.844-.813 1.172-1.079.422-.343.828-.703 1.234-.937.735-.375 1.172.031 1.297.187.188.204.438.72-.016 1.313-.28.36-.734.734-1.14 1.078m0 0"/><path id="M" d="m2.281-2.719-.203-.172-.187.22c-.485.577-.578.53-.797.343l-3.36-2.828c-.171-.14-.171-.125-.312.047.031.437-.11.89-.594 1.453l.203.172c.14-.141.422-.485.547-.97l3.11 2.61c.218.188.296.266-.204.844l-.171.203.203.172c.187-.266.625-.781.843-1.047.235-.281.672-.812.922-1.047m0 0"/><path id="N" d="m2.969-1.953-.14-.219-.235.156c-.625.422-.719.36-.875.11L-.688-5.578c-.125-.188-.14-.188-.328-.063-.078.438-.343.829-.968 1.235l.156.218c.172-.109.531-.343.781-.765l2.234 3.39c.157.25.22.329-.421.75L.53-.671l.14.219c.266-.203.829-.578 1.126-.766.297-.203.875-.578 1.172-.734m0 0"/><path id="O" d="M1.11-1.25a.429.429 0 0 0-.61-.125c-.234.14-.266.406-.125.61.14.218.406.25.61.124a.457.457 0 0 0 .124-.609m0 0"/><path id="P" d="M2.297-3.39C1.78-4.173.78-4.47 0-3.954a1.603 1.603 0 0 0-.687.906l-.844-1.281c.125-.031.422-.14.687-.313C0-5.203.125-6.094.063-6.203 0-6.281-.047-6.281-.078-6.25c0 0-.031.016-.078.094a2.924 2.924 0 0 1-.797.781c-.39.266-.797.36-1.047.422-.078.016-.094.016-.094.016-.094.062-.047.14.031.265l1.266 1.938c.078.109.14.187.25.125.047-.032.063-.079.031-.141.032-.156.063-.656.625-1.016.375-.25.75-.062.891.016.266.156.484.453.656.719.157.25.39.61.39 1.031.017.266-.124.64-.468.875C1.141-.844.531-.828.11-1.156c.016 0 .063-.047.063-.047.187-.11.25-.328.11-.531C.14-1.97-.11-1.937-.25-1.86c-.11.078-.281.28-.094.562.407.61 1.297.875 2.063.36.828-.532 1.11-1.657.578-2.454m0 0"/><path id="Q" d="m3.219-2.437-.235.062c.032.14.079.563.016.734-.031.063-.594.235-.719.282L.937-.97l.735-1.219c.094-.14.328-.5.406-.64.36-.578.688-1.125.485-1.813-.266-.89-1.22-1.265-2.157-.984-.922.281-1.297 1.14-1.11 1.813.126.374.423.343.532.312.14-.047.36-.234.281-.516-.125-.406-.5-.296-.593-.265.046-.61.5-.953.875-1.063.703-.203 1.265.282 1.453.907.234.796-.157 1.53-.766 2.734L.422-.422c-.078.094-.078.11-.016.297l2.985-.89Zm0 0"/><path id="S" d="M3.719 1.61c-.703-.032-1.36-.032-1.735-.485-.375-.437-.28-1.11.188-1.5.25-.203.594-.234.922-.187.187.015.36.109.484.25.406.5.219 1.328.14 1.921m.25 2.577c.61.735 1.656.547 2.14.141.61-.516.72-1.437.204-2.047-.5-.594-1.266-.578-2-.64.078-.641.296-1.5-.25-2.157-.235-.28-.579-.5-.922-.53a1.653 1.653 0 0 0-1.22.374c-.624.531-.765 1.438-.25 2.063.5.578 1.282.578 2.016.625-.078.625-.28 1.5.282 2.172m.312-2.156c.703.047 1.344.031 1.735.5a1.07 1.07 0 0 1-.157 1.5c-.265.219-.625.266-.953.235-.203-.016-.36-.157-.484-.313-.406-.484-.219-1.297-.14-1.922m0 0"/><path id="Y" d="m3.594-4.828-.219-.156-.078.109c-.313.406-.406.422-.656.344L-2.406-5.97c-.078-.015-.172-.031-.235.063-.093.11-.062.172 0 .25L.047-1.437c.125.203.297.53-.094 1.062l.219.156c.11-.218.36-.562.453-.672.156-.218.297-.406.563-.703l-.22-.156c-.218.297-.468.36-.655.219-.047-.032-.063-.047-.11-.14l-.562-.891 1.297-1.72 1.203.345a.342.342 0 0 1 .125.062c.187.14-.063.453-.188.64l.219.157.64-.922c.266-.36.344-.469.657-.828M.656-4.36-.516-2.781-2-5.141Zm0 0"/><path id="Z" d="m1.281-5.172-.156.203c.61.578 1.313 1.25.453 2.407l-.453.593c-.219.297-.25.282-.469.11l-3.36-2.485c-.202-.156-.312-.234.126-.843l.156-.204-.203-.156c-.203.313-.547.781-.766 1.078l-.75.953.204.157.109-.125c.375-.516.453-.453.687-.282l3.313 2.47c.234.171.297.218-.078.734l-.11.125.22.156L2.796-3.75Zm0 0"/><path id="aa" d="M1.86-5.594c-.063-.047-.126-.078-.204.016-.047.062-.031.11.032.156.937.766.812 1.906.312 2.578-.406.531-1.625 1.5-3.39.188-1.72-1.281-1.25-2.703-.798-3.297.438-.61 1.422-1.031 2.626-.375.062.047.125.062.187-.031.078-.094.031-.125-.094-.22l-1.5-1.109c-.094-.078-.156-.125-.219-.046-.03.046-.03.046 0 .172l.235.687a2.051 2.051 0 0 0-1.485.828c-.953 1.281-.734 3.11.547 4.063 1.282.953 3.11.656 4.063-.641.797-1.062.453-2.39-.313-2.969m0 0"/><path id="ab" d="M1.39-4.219C.86-4.64.017-4.703-.64-4.187l-.844.718c-.422.328-.953.375-1.344.078-.422-.328-.547-.984-.125-1.53.844-1.095 1.969-.454 2.234-.298.078.032.125.047.188-.015.094-.125.047-.157-.078-.25l-1.235-.938c-.093-.078-.156-.125-.234-.031-.031.047-.031.078 0 .172l.203.5c-.594.047-1 .375-1.266.718-.562.75-.437 1.735.204 2.22.484.359.953.296 1.156.28.422-.062.61-.218 1.297-.78.547-.454.64-.516 1-.579.125 0 .453 0 .765.25.438.328.64 1 .188 1.594-.532.703-1.406 1.156-2.313.531-.125-.078-.156-.11-.219-.016-.078.094-.03.125.094.235L.25-.406c.11.094.172.14.25.062.031-.062.016-.078-.016-.172 0-.046-.046-.125-.187-.5.656-.125 1.094-.515 1.39-.89.61-.782.375-1.797-.296-2.313m0 0"/><path id="ac" d="m1.063-9.86-.188-.156c-.156.22-.312.422-.469.625-.14.188-.297.375-.547.704l.188.156c.25-.344.562-.375.734-.25.031.015.047.031.11.125l2.125 3.234-3.86-1.297c-.11-.031-.125-.047-.14-.062-.203-.157.046-.469.187-.657l-.187-.156-.657.875c-.187.235-.39.516-.609.782l.188.156c.25-.328.343-.422.515-.422.125.016.578.187.578.187l.063.079 2 3.03-3.875-1.296c-.125-.031-.14-.047-.14-.047-.204-.156.062-.484.202-.672l-.187-.156-.672.875c-.188.25-.39.516-.61.781l.188.156c.281-.375.375-.484.688-.375L1.53-2.03c.11.047.203.078.282-.031.062-.079.03-.172-.047-.266l-2.36-3.563L3.47-4.547c.094.031.187.063.265-.031.079-.094.032-.172-.046-.266L1.03-8.906c-.203-.281-.234-.578.032-.953m0 0"/><path id="ad" d="M3.188-5.328c-.047-.031-.126-.094-.204.016-.062.078 0 .14.047.156.36.36.328.687.188.86-.25.343-.563.155-1.438-.345-.406-.234-.89-.5-1.625.032.235-.594.36-1.47-.187-1.891-.625-.484-1.735-.062-2.453.86l-1.578 2.062.187.156.11-.14c.374-.5.468-.438.703-.266L.203-1.312c.25.187.297.234-.078.734l-.11.14.204.157.672-.938.734-.906-.203-.156-.11.14c-.359.485-.437.454-.687.266L-.922-3.062l.61-.797c.359-.453.75-.5.843-.485.328-.031.438.047.875.375.407.313.672.516 1.094.422.438-.078.766-.406.89-.578.407-.531-.03-1.062-.203-1.203m-3.72-.516C.157-5.312 0-4.625-.5-3.969l-.594.766-1.593-1.219c-.157-.125-.235-.187-.141-.344.031-.078.187-.265.281-.39.438-.578 1.078-1.407 2.016-.688m0 0"/><path id="ae" d="M.172-6.562c-.61-.485-1.672-.25-2.375.64L-4.016-3.64l.188.157.11-.141c.39-.484.484-.437.718-.25L.234-1.312c.235.171.282.234-.109.718l-.11.14.204.173.703-.938.75-.89-.203-.172-.11.14c-.375.47-.453.438-.687.266l-1.438-1.14.891-1.126c.61-.765.703-1.906.047-2.421m-.5.656c.266.218.953.765.11 1.812l-.75.953-1.657-1.328c-.219-.156-.25-.218-.031-.5l.515-.656c.844-1.047 1.532-.5 1.813-.281m0 0"/><path id="af" d="M1.203-9.844 1.016-10c-.157.203-.313.422-.47.61-.155.187-.296.39-.562.703l.188.156c.266-.328.578-.375.734-.25.047.031.047.047.094.125l2.11 3.281-3.86-1.36c-.094-.03-.11-.046-.125-.062-.203-.156.047-.469.188-.656l-.188-.156-.672.875c-.187.234-.406.5-.625.765l.188.157c.265-.329.359-.422.53-.391.126-.016.579.172.579.172l.063.078L1.14-2.891l-3.86-1.343c-.125-.047-.14-.063-.14-.063-.203-.156.062-.484.203-.672l-.188-.156-.672.875c-.203.25-.406.5-.625.766l.188.156c.297-.36.375-.469.703-.36L1.547-2c.125.047.219.063.297-.031.062-.094.031-.172-.047-.281L-.516-5.892 3.531-4.5c.094.031.188.078.266-.031.078-.094.047-.157-.031-.266L1.156-8.89c-.187-.28-.218-.578.047-.953m0 0"/><path id="ag" d="M3.25-5.281c-.031-.016-.125-.094-.203 0-.063.093.015.156.047.187.36.344.328.672.187.844-.25.328-.562.14-1.437-.36-.39-.234-.875-.515-1.625 0 .25-.609.375-1.468-.156-1.89-.61-.484-1.735-.094-2.47.828L-4.015-3.64l.188.157.11-.141c.39-.484.484-.437.718-.25L.234-1.312c.235.171.282.234-.109.718l-.11.14.204.173.687-.922.75-.89-.203-.173-.11.125c-.374.485-.452.454-.687.282L-.875-3.08l.625-.78c.36-.453.75-.5.828-.485.344-.031.453.063.89.407.391.296.657.515 1.079.437.437-.094.765-.406.906-.578.406-.516-.015-1.047-.203-1.203m-3.703-.563c.687.547.531 1.219.016 1.86l-.61.765-1.578-1.25c-.172-.125-.234-.172-.125-.343.031-.063.188-.266.281-.391.453-.563 1.094-1.375 2.016-.64m0 0"/><path id="ah" d="M1.516-4.187A1.596 1.596 0 0 0-.5-4.203l-.89.703c-.423.297-.97.328-1.344.031-.407-.344-.516-1.015-.079-1.547.876-1.062 1.97-.39 2.25-.234.063.047.125.078.188 0 .078-.11.031-.14-.078-.234l-1.219-.985c-.094-.078-.156-.125-.219-.031-.046.047-.015.063 0 .156l.188.5c-.61.047-1.016.36-1.297.688-.594.734-.469 1.734.14 2.234.485.375.954.328 1.172.313.407-.063.61-.203 1.297-.75.563-.438.657-.5 1.016-.547.125 0 .469.015.781.265.422.344.594 1.032.11 1.61-.547.687-1.438 1.11-2.313.453-.125-.078-.156-.11-.219-.016-.078.094-.03.14.094.235l1.188.968c.109.094.172.141.234.047C.547-.39.531-.406.5-.5.5-.547.453-.625.328-1c.656-.11 1.11-.484 1.422-.86a1.648 1.648 0 0 0-.234-2.327m0 0"/><clipPath id="a"><path d="M177 25h46.898v50H177Zm0 0"/></clipPath><clipPath id="T"><path d="M109 0h114.898v85H109Zm0 0"/></clipPath><clipPath id="U"><path d="M.605 0H153v85H.605Zm0 0"/></clipPath><clipPath id="V"><path d="M.605 0h223.293v110.715H.605Zm0 0"/></clipPath><clipPath id="W"><path d="M.605 0H211v110.715H.605Zm0 0"/></clipPath><clipPath id="X"><path d="M.605 0H152v110.715H.605Zm0 0"/></clipPath><clipPath id="ai"><path d="M104 7h66v103.715h-66Zm0 0"/></clipPath></defs><path fill="none" stroke="#000" stroke-miterlimit="10" stroke-width="1.5848345" d="m32.336 52.191-3.86-4.03"/><path fill="none" stroke="#000" stroke-miterlimit="10" stroke-width=".79241725" d="m42.348 43.605-3.399-4.43"/><path fill="none" stroke="#000" stroke-miterlimit="10" stroke-width="1.5848345" d="m53.23 36.16-2.898-4.773"/><path fill="none" stroke="#000" stroke-miterlimit="10" stroke-width=".79241725" d="m64.855 29.937-2.359-5.058"/><path fill="none" stroke="#000" stroke-miterlimit="10" stroke-width="1.5848345" d="M77.098 25.031 75.3 19.742"/><path fill="none" stroke="#000" stroke-miterlimit="10" stroke-width=".79241725" d="m89.797 21.477-1.211-5.45"/><path fill="none" stroke="#000" stroke-miterlimit="10" stroke-width="1.5848345" d="m102.809 19.332-.61-5.55"/><path fill="none" stroke="#000" stroke-miterlimit="10" stroke-width=".79241725" d="M115.973 18.605v-5.582"/><path fill="none" stroke="#000" stroke-miterlimit="10" stroke-width="1.5848345" d="m129.137 19.332.61-5.55"/><path fill="none" stroke="#7F7F7F" stroke-miterlimit="10" stroke-width=".79241725" d="m142.148 21.477 1.211-5.45"/><path fill="none" stroke="#7F7F7F" stroke-miterlimit="10" stroke-width="1.5848345" d="m154.848 25.031 1.797-5.289"/><path fill="none" stroke="#7F7F7F" stroke-miterlimit="10" stroke-width=".79241725" d="m167.09 29.937 2.36-5.058"/><path fill="none" stroke="#7F7F7F" stroke-miterlimit="10" stroke-width="1.5848345" d="m178.715 36.16 2.898-4.773"/><path fill="none" stroke="#7F7F7F" stroke-miterlimit="10" stroke-width=".79241725" d="m189.602 43.605 3.394-4.43"/><g clip-path="url(#a)"><path fill="none" stroke="#7F7F7F" stroke-miterlimit="10" stroke-width="1.5848345" d="m199.61 52.191 3.859-4.03"/></g><use xlink:href="#b" x="24.921" y="47.484"/><use xlink:href="#c" x="46.964" y="29.889"/><use xlink:href="#d" x="72.336" y="17.551"/><use xlink:href="#e" x="99.785" y="11.042"/><use xlink:href="#f" x="127.983" y="10.541"/><use xlink:href="#g" x="150.64" y="14.159"/><use xlink:href="#h" x="156.838" y="16.263"/><use xlink:href="#i" x="160.823" y="17.616"/><use xlink:href="#j" x="176.939" y="24.67"/><use xlink:href="#k" x="182.535" y="28.066"/><use xlink:href="#l" x="186.132" y="30.249"/><use xlink:href="#m" x="195.454" y="35.996"/><use xlink:href="#n" x="200.182" y="40.522"/><use xlink:href="#o" x="203.222" y="43.431"/><use xlink:href="#p" x="208.287" y="48.281"/><use xlink:href="#q" x="211.665" y="51.514"/><path fill="none" stroke="#000" stroke-miterlimit="10" stroke-width=".39670575" d="m24.746 63.008 1.426 1.195M26.094 61.426l1.402 1.222M27.473 59.871l1.382 1.246M28.875 58.336l1.363 1.27M30.305 56.832l1.34 1.293M31.762 55.348l1.316 1.316M33.246 53.89l1.293 1.34M34.754 52.46l1.27 1.36M36.285 51.059l1.246 1.382M37.84 49.68l1.223 1.402M39.422 48.332l1.195 1.422M41.027 47.008l1.172 1.445M42.652 45.715l1.149 1.465M44.3 44.445l1.122 1.489M45.973 43.21l1.093 1.505M47.664 42.004l1.07 1.523M49.379 40.828l1.039 1.543M51.11 39.68l1.015 1.562M52.863 38.563l.989 1.578M54.637 37.477l.957 1.597M56.426 36.422l.933 1.613M58.234 35.398l.903 1.63M60.063 34.406l.875 1.645M61.906 33.45l.844 1.655M63.766 32.52l.816 1.671M65.645 31.625l.785 1.688M67.535 30.766l.758 1.699M69.441 29.934l.727 1.714M71.363 29.14l.696 1.723M73.293 28.379l.668 1.734M75.242 27.648l.637 1.75M77.2 26.953l.605 1.762M79.172 26.297l.574 1.77M81.152 25.672l.547 1.781M83.148 25.082l.512 1.79M85.148 24.527l.485 1.797M87.164 24.004l.45 1.805M89.184 23.52l.418 1.812M91.21 23.07l.388 1.82M93.25 22.656l.355 1.824M95.293 22.277l.324 1.832M97.344 21.934l.289 1.84M99.398 21.629l.258 1.84M101.46 21.355l.228 1.848M103.527 21.121l.192 1.848M105.594 20.922l.16 1.855M107.664 20.758l.129 1.855M109.738 20.633l.098 1.855M111.816 20.54l.067 1.858M113.895 20.484l.03 1.864M115.973 20.469v1.86M118.05 20.484l-.03 1.864M120.129 20.54l-.066 1.858M122.207 20.633l-.098 1.855M124.281 20.758l-.129 1.855M126.352 20.922l-.16 1.855M128.422 21.121l-.195 1.848M130.488 21.355l-.23 1.848M132.547 21.629l-.258 1.84M134.602 21.934l-.29 1.84M136.652 22.277l-.324 1.832M138.695 22.656l-.355 1.824M140.734 23.07l-.386 1.82M142.762 23.52l-.418 1.812M144.781 24.004l-.449 1.805M146.797 24.527l-.484 1.797M148.797 25.082l-.512 1.79M150.793 25.672l-.547 1.781M152.773 26.297l-.574 1.77M154.746 26.953l-.605 1.762M156.703 27.648l-.637 1.75M158.652 28.379l-.668 1.734M160.586 29.14l-.7 1.723M162.504 29.934l-.727 1.714M164.41 30.766l-.754 1.699M166.305 31.625l-.79 1.688M168.18 32.52l-.817 1.671M170.04 33.45l-.845 1.655M171.883 34.406l-.875 1.645M173.71 35.398l-.901 1.63M175.52 36.422l-.934 1.613M177.309 37.477l-.957 1.597M179.082 38.563l-.988 1.578M180.836 39.68l-1.016 1.562M182.566 40.828l-1.039 1.543M184.281 42.004l-1.066 1.523M185.973 43.21l-1.094 1.505M187.645 44.445l-1.122 1.489M189.293 45.715l-1.148 1.465M190.918 47.008l-1.172 1.445M192.523 48.332l-1.195 1.422M194.105 49.68l-1.222 1.402M195.66 51.059l-1.246 1.382M197.191 52.46l-1.265 1.36M198.7 53.89l-1.294 1.34M200.184 55.348l-1.317 1.316M201.64 56.832l-1.34 1.293M203.07 58.336l-1.36 1.27M204.473 59.871l-1.383 1.246M205.852 61.426l-1.403 1.222M207.2 63.008l-1.427 1.195M25.457 63.605l1.426 1.196M32.422 56.008l1.316 1.312M40.02 49.043l1.195 1.426M48.2 42.766l1.066 1.527M56.895 37.227l.93 1.613M66.035 32.469l.785 1.687M75.559 28.523l.636 1.75M85.39 25.426l.481 1.797M95.453 23.191l.324 1.832M105.676 21.848l.16 1.855M115.973 21.398v1.86M126.27 21.848l-.16 1.855M136.492 23.191l-.324 1.832M146.555 25.426l-.48 1.797M156.387 28.523l-.637 1.75M165.91 32.469l-.785 1.687M175.055 37.227l-.934 1.613M183.746 42.766l-1.066 1.527M191.926 49.043l-1.196 1.426M199.523 56.008l-1.316 1.312M206.488 63.605l-1.425 1.196M26.883 64.8l2.14 1.798M41.215 50.469l1.797 2.136M57.824 38.84l1.395 2.418M76.195 30.273l.953 2.622M95.777 25.023l.485 2.75M115.973 23.258v2.793M136.168 25.023l-.484 2.75M155.75 30.273l-.953 2.622M174.121 38.84l-1.394 2.418M190.73 50.469l-1.796 2.136M205.063 64.8l-2.137 1.798"/><use xlink:href="#r" x="32.477" y="72.24"/><use xlink:href="#s" x="43.821" y="60.117"/><use xlink:href="#t" x="47.044" y="57.413"/><use xlink:href="#u" x="58.713" y="48.795"/><use xlink:href="#v" x="62.357" y="46.691"/><use xlink:href="#w" x="75.343" y="40.23"/><use xlink:href="#x" x="79.297" y="38.791"/><use xlink:href="#y" x="93.216" y="34.722"/><use xlink:href="#z" x="97.36" y="33.992"/><use xlink:href="#A" x="111.765" y="32.324"/><use xlink:href="#B" x="115.973" y="32.324"/><use xlink:href="#C" x="130.45" y="33.222"/><use xlink:href="#D" x="134.594" y="33.953"/><use xlink:href="#E" x="148.681" y="37.393"/><use xlink:href="#F" x="152.635" y="38.832"/><use xlink:href="#G" x="165.946" y="44.587"/><use xlink:href="#H" x="169.59" y="46.691"/><use xlink:href="#I" x="181.679" y="54.709"/><use xlink:href="#J" x="184.902" y="57.413"/><use xlink:href="#K" x="194.061" y="65.793"/><use xlink:href="#L" x="196.766" y="69.017"/><use xlink:href="#L" x="199.471" y="72.24"/><path fill="none" stroke="#000" stroke-miterlimit="10" stroke-width=".39670575" d="m36.152 72.578 2.852 2.39M58.719 52.5l2.043 3.11M86.09 39.738l1.066 3.563M115.973 35.355v3.72M145.855 39.738l-1.066 3.563M173.227 52.5l-2.043 3.11M195.793 72.578l-2.852 2.39"/><use xlink:href="#M" x="42.523" y="80.666"/><use xlink:href="#N" x="59.718" y="63.804"/><use xlink:href="#O" x="63.234" y="61.492"/><use xlink:href="#P" x="65.187" y="60.208"/><use xlink:href="#Q" x="86.966" y="49.996"/><use xlink:href="#R" x="113.869" y="45.35"/><use xlink:href="#S" x="186.218" y="75.422"/><g clip-path="url(#T)"><path fill="none" stroke="#7F7F7F" stroke-miterlimit="10" stroke-width="1.5848345" d="M131.758 19.645a120.97 120.97 0 0 1 76.867 42.167"/></g><g clip-path="url(#U)"><path fill="none" stroke="#000" stroke-miterlimit="10" stroke-width="1.5848345" d="M23.32 61.812c26.082-31.085 66.028-47.015 106.344-42.421"/></g><path fill="none" stroke="#000" stroke-miterlimit="10" stroke-width=".79241725" d="M24.746 63.008C52.09 30.422 94.758 14.89 136.652 22.278a119.08 119.08 0 0 1 70.547 40.73"/><path fill="none" stroke="#000" stroke-miterlimit="10" stroke-width=".79241725" d="M36.148 72.578c23.926-28.515 61.262-42.105 97.918-35.64a104.193 104.193 0 0 1 61.73 35.64"/><g clip-path="url(#V)"><path fill="none" stroke="#000" stroke-linecap="square" stroke-miterlimit="10" stroke-width="7.221237749999999" d="M49.969 82.18a87.468 87.468 0 0 1 81.191-28.75"/></g><g clip-path="url(#W)"><path fill="none" stroke="#FFF" stroke-linecap="square" stroke-miterlimit="10" stroke-width="5.636403249999999" d="M49.969 82.18a87.468 87.468 0 0 1 81.191-28.75"/></g><g clip-path="url(#X)"><path fill="none" stroke="#7F7F7F" stroke-linecap="square" stroke-miterlimit="10" stroke-width="5.636403249999999" d="M49.969 82.18a87.518 87.518 0 0 1 22.277-18.364"/></g><use xlink:href="#Y" x="35.403" y="105.932"/><use xlink:href="#Z" x="39.17" y="100.873"/><use xlink:href="#aa" x="42.312" y="96.653"/><use xlink:href="#ab" x="24.397" y="98.295"/><use xlink:href="#ac" x="27.244" y="94.586"/><use xlink:href="#ad" x="32.507" y="87.727"/><use xlink:href="#ae" x="14.073" y="89.665"/><use xlink:href="#af" x="17.627" y="85.172"/><use xlink:href="#ag" x="22.989" y="78.391"/><use xlink:href="#ah" x="14.812" y="67.691"/><g clip-path="url(#ai)"><path fill="none" stroke="#000" stroke-miterlimit="10" stroke-width=".79241725" d="M115.973 139.559 157.84 18.605"/></g></svg>