<svg xmlns="http://www.w3.org/2000/svg" width="227.895" height="88.717"><defs><clipPath id="a"><path d="M139 78h15v10.434h-15Zm0 0"/></clipPath><clipPath id="b"><path d="M71 0h6v88.434h-6Zm0 0"/></clipPath><clipPath id="c"><path d="M148 0h5v88.434h-5Zm0 0"/></clipPath><clipPath id="d"><path d="M.309 42H76v5H.309Zm0 0"/></clipPath></defs><path fill="none" stroke="#7F7F7F" stroke-miterlimit="10" stroke-width=".39773118" d="M76.39 2.39h68.243"/><path fill="#7F7F7F" stroke="#7F7F7F" stroke-miterlimit="10" stroke-width=".39773118" d="M147.7 2.39 144.733.634v3.515Zm0 0"/><path fill="none" stroke="#7F7F7F" stroke-miterlimit="10" stroke-width=".39773118" d="M76.39 8.367h68.243"/><path fill="#7F7F7F" stroke="#7F7F7F" stroke-miterlimit="10" stroke-width=".39773118" d="m147.7 8.367-2.966-1.758v3.516Zm0 0"/><path fill="none" stroke="#7F7F7F" stroke-miterlimit="10" stroke-width=".39773118" d="M76.39 14.34h68.243"/><path fill="#7F7F7F" stroke="#7F7F7F" stroke-miterlimit="10" stroke-width=".39773118" d="m147.7 14.34-2.966-1.758v3.516Zm0 0"/><path fill="none" stroke="#7F7F7F" stroke-miterlimit="10" stroke-width=".39773118" d="M76.39 20.316h68.243"/><path fill="#7F7F7F" stroke="#7F7F7F" stroke-miterlimit="10" stroke-width=".39773118" d="m147.7 20.316-2.966-1.757v3.515Zm0 0"/><path fill="none" stroke="#7F7F7F" stroke-miterlimit="10" stroke-width=".39773118" d="M76.39 26.293h68.243"/><path fill="#7F7F7F" stroke="#7F7F7F" stroke-miterlimit="10" stroke-width=".39773118" d="m147.7 26.293-2.966-1.758v3.516Zm0 0"/><path fill="none" stroke="#7F7F7F" stroke-miterlimit="10" stroke-width=".39773118" d="M76.39 32.266h68.243"/><path fill="#7F7F7F" stroke="#7F7F7F" stroke-miterlimit="10" stroke-width=".39773118" d="m147.7 32.266-2.966-1.758v3.515Zm0 0"/><path fill="none" stroke="#7F7F7F" stroke-miterlimit="10" stroke-width=".39773118" d="M76.39 38.242h68.243"/><path fill="#7F7F7F" stroke="#7F7F7F" stroke-miterlimit="10" stroke-width=".39773118" d="m147.7 38.242-2.966-1.758V40Zm0 0"/><path fill="none" stroke="#7F7F7F" stroke-miterlimit="10" stroke-width=".39773118" d="M76.39 44.219h68.243"/><path fill="#7F7F7F" stroke="#7F7F7F" stroke-miterlimit="10" stroke-width=".39773118" d="m147.7 44.219-2.966-1.758v3.516Zm0 0"/><path fill="none" stroke="#7F7F7F" stroke-miterlimit="10" stroke-width=".39773118" d="M76.39 50.191h68.243"/><path fill="#7F7F7F" stroke="#7F7F7F" stroke-miterlimit="10" stroke-width=".39773118" d="m147.7 50.191-2.966-1.757v3.515Zm0 0"/><path fill="none" stroke="#7F7F7F" stroke-miterlimit="10" stroke-width=".39773118" d="M76.39 56.168h68.243"/><path fill="#7F7F7F" stroke="#7F7F7F" stroke-miterlimit="10" stroke-width=".39773118" d="m147.7 56.168-2.966-1.758v3.516Zm0 0"/><path fill="none" stroke="#7F7F7F" stroke-miterlimit="10" stroke-width=".39773118" d="M76.39 62.145h68.243"/><path fill="#7F7F7F" stroke="#7F7F7F" stroke-miterlimit="10" stroke-width=".39773118" d="m147.7 62.145-2.966-1.758v3.515Zm0 0"/><path fill="none" stroke="#7F7F7F" stroke-miterlimit="10" stroke-width=".39773118" d="M76.39 68.121h68.243"/><path fill="#7F7F7F" stroke="#7F7F7F" stroke-miterlimit="10" stroke-width=".39773118" d="m147.7 68.121-2.966-1.758v3.516Zm0 0"/><path fill="none" stroke="#7F7F7F" stroke-miterlimit="10" stroke-width=".39773118" d="M76.39 74.094h68.243"/><path fill="#7F7F7F" stroke="#7F7F7F" stroke-miterlimit="10" stroke-width=".39773118" d="m147.7 74.094-2.966-1.758v3.516Zm0 0"/><path fill="none" stroke="#7F7F7F" stroke-miterlimit="10" stroke-width=".39773118" d="M76.39 80.07h68.243"/><path fill="#7F7F7F" stroke="#7F7F7F" stroke-miterlimit="10" stroke-width=".39773118" d="m147.7 80.07-2.966-1.757v3.515Zm0 0"/><path fill="none" stroke="#7F7F7F" stroke-miterlimit="10" stroke-width=".39773118" d="M76.39 86.047h68.243"/><path fill="#7F7F7F" d="m147.7 86.047-2.966-1.758v3.516Zm0 0"/><g clip-path="url(#a)"><path fill="none" stroke="#7F7F7F" stroke-miterlimit="10" stroke-width=".39773118" d="m147.7 86.047-2.966-1.758v3.516Zm0 0"/></g><g clip-path="url(#b)"><path d="M76.39 0v88.438h-4.78V0Zm0 0"/></g><g clip-path="url(#c)"><path d="M148.094 0v88.438h4.781V0Zm0 0"/></g><g clip-path="url(#d)"><path fill="none" stroke="#000" stroke-miterlimit="10" stroke-width="3.9723277" d="M74 44.219H2.297"/></g><path fill="none" stroke="#000" stroke-miterlimit="10" stroke-width="3.9723277" d="M150.484 44.219h71.707"/></svg>