<svg xmlns="http://www.w3.org/2000/svg" xmlns:xlink="http://www.w3.org/1999/xlink" width="227.109" height="224.366"><defs><path id="b" d="M7.016-3.328c0-1.89-1.344-3.453-3.032-3.453H.344v.312h.234c.766 0 .797.11.797.469v5.219c0 .36-.031.469-.797.469H.344V0h3.64c1.657 0 3.032-1.469 3.032-3.328m-1 0c0 1.094-.188 1.687-.532 2.172-.203.265-.765.843-1.78.843h-1c-.454 0-.485-.062-.485-.39v-5.375c0-.328.031-.39.484-.39h1c.61 0 1.297.218 1.797.921.438.594.516 1.438.516 2.219m0 0"/><path id="c" d="M2.453 0v-.312c-.656 0-.703-.047-.703-.438v-3.64l-1.39.109v.312c.656 0 .734.063.734.547V-.75c0 .438-.11.438-.766.438V0l1.094-.031c.344 0 .687.015 1.031.031m-.547-6a.534.534 0 0 0-.531-.516A.533.533 0 0 0 .844-6c0 .281.234.531.531.531A.536.536 0 0 0 1.906-6m0 0"/><path id="d" d="M4.125-1.187c0-.094-.094-.11-.14-.11-.079 0-.11.063-.126.14C3.516-.14 2.625-.14 2.516-.14c-.485 0-.891-.296-1.11-.656-.312-.484-.312-1.14-.312-1.5h2.781c.219 0 .25 0 .25-.203 0-.984-.547-1.937-1.781-1.937C1.188-4.437.28-3.423.28-2.187.281-.86 1.312.108 2.453.108c1.219 0 1.672-1.093 1.672-1.296M3.469-2.5h-2.36C1.172-3.984 2-4.234 2.344-4.234c1.015 0 1.125 1.343 1.125 1.734m0 0"/><path id="e" d="M2.531 0v-.312c-.672 0-.781 0-.781-.438v-6.14l-1.422.109v.312c.688 0 .766.063.766.563V-.75c0 .438-.11.438-.766.438V0l1.094-.031Zm0 0"/><path id="f" d="M5.063 0v-.312c-.36 0-.579 0-.954-.516L2.844-2.61c0-.016-.063-.079-.063-.11 0-.047.719-.64.813-.719.625-.5 1.047-.515 1.25-.53v-.313c-.297.031-.422.031-.703.031-.344 0-.97-.016-1.11-.031v.312c.188.016.297.125.297.25 0 .203-.14.313-.219.39L1.703-2.124v-4.766l-1.422.11v.312c.688 0 .766.063.766.563V-.75c0 .438-.11.438-.766.438V0L1.36-.031 2.453 0v-.312c-.672 0-.781 0-.781-.438v-1.031l.64-.547C3.079-1.266 3.5-.718 3.5-.531c0 .187-.172.219-.36.219V0l1.063-.031c.297 0 .578.015.86.031m0 0"/><path id="g" d="M3.297-1.234v-.563h-.25v.547c0 .734-.297 1.11-.672 1.11-.656 0-.656-.907-.656-1.063V-3.97H3.14v-.312H1.719V-6.11h-.25c-.016.828-.313 1.875-1.281 1.922v.218h.843v2.735c0 1.218.922 1.343 1.282 1.343.703 0 .984-.703.984-1.343m0 0"/><path id="h" d="M3.61-3.781c0-.313-.313-.61-.735-.61-.719 0-1.078.672-1.219 1.094V-4.39l-1.375.11v.312c.688 0 .766.063.766.563V-.75c0 .438-.11.438-.766.438V0l1.125-.031c.407 0 .86 0 1.266.031v-.312h-.219c-.734 0-.75-.11-.75-.47v-1.515c0-.984.422-1.875 1.172-1.875.078 0 .094 0 .11.016a.43.43 0 0 0-.22.39.41.41 0 0 0 .422.422.421.421 0 0 0 .422-.437m0 0"/><path id="i" d="M5.313 0v-.312c-.704 0-.782-.063-.782-.547v-3.532l-1.453.11v.312c.688 0 .766.063.766.563v1.765c0 .86-.469 1.532-1.188 1.532-.844 0-.875-.47-.875-.985V-4.39l-1.468.11v.312c.78 0 .78.031.78.906v1.5c0 .766 0 1.672 1.5 1.672.563 0 1-.28 1.282-.89v.89Zm0 0"/><path id="j" d="M8.063 0v-.312c-.516 0-.766 0-.766-.297V-2.5c0-.86 0-1.156-.313-1.516-.14-.171-.468-.375-1.046-.375-.829 0-1.266.594-1.438.985-.14-.875-.875-.985-1.312-.985-.735 0-1.188.438-1.47 1.047V-4.39l-1.405.11v.312c.703 0 .78.063.78.563V-.75c0 .438-.109.438-.78.438V0l1.125-.031L2.547 0v-.312c-.656 0-.766 0-.766-.438v-1.828c0-1.031.703-1.594 1.328-1.594.625 0 .735.547.735 1.11V-.75c0 .438-.11.438-.766.438V0l1.125-.031L5.313 0v-.312c-.672 0-.782 0-.782-.438v-1.828c0-1.031.703-1.594 1.344-1.594.625 0 .734.547.734 1.11V-.75c0 .438-.109.438-.78.438V0l1.124-.031Zm0 0"/><path id="k" d="M8.719 0v-.312h-.235c-.765 0-.78-.11-.78-.47V-6c0-.36.015-.469.78-.469h.235v-.312H7.047c-.266 0-.266.015-.328.187L4.547-1 2.39-6.562c-.094-.22-.125-.22-.344-.22H.359v.313h.25c.766 0 .782.11.782.469v4.953c0 .266 0 .734-1.032.734V0l1.172-.031L2.688 0v-.312c-1.016 0-1.016-.47-1.016-.735V-6.39l2.39 6.172c.063.125.11.219.204.219.109 0 .14-.078.172-.187L6.89-6.47V-.78c0 .36-.016.469-.782.469h-.234V0c.36-.031 1.047-.031 1.422-.031.39 0 1.062 0 1.422.031m0 0"/><path id="l" d="M4.797-.89v-.547h-.25v.546c0 .579-.25.641-.36.641-.328 0-.375-.437-.375-.5v-1.984c0-.407 0-.797-.343-1.172a1.949 1.949 0 0 0-1.36-.531c-.812 0-1.5.453-1.5 1.109 0 .297.188.469.454.469a.435.435 0 0 0 .453-.453c0-.126-.047-.454-.5-.454.265-.359.75-.468 1.062-.468.485 0 1.063.39 1.063 1.28v.36c-.516.031-1.203.063-1.828.36-.75.343-1 .859-1 1.297 0 .796.968 1.046 1.593 1.046.657 0 1.11-.39 1.297-.859.047.39.313.813.781.813.204 0 .813-.141.813-.954m-1.656-.5c0 .937-.72 1.28-1.172 1.28-.485 0-.89-.343-.89-.843 0-.547.421-1.375 2.062-1.422Zm0 0"/><path id="m" d="M5.172-2.14c0-1.266-.969-2.25-2.11-2.25-.765 0-1.203.468-1.359.656v-3.157l-1.422.11v.312c.688 0 .766.063.766.563V0h.25l.36-.61c.155.22.562.72 1.296.72a2.234 2.234 0 0 0 2.219-2.25m-.828-.016c0 .375-.016.969-.313 1.406-.203.313-.578.64-1.11.64-.452 0-.812-.234-1.046-.609-.14-.203-.14-.234-.14-.406v-2.047c0-.187 0-.203.109-.36.39-.562.937-.64 1.172-.64.453 0 .797.266 1.047.64.25.407.28.97.28 1.376m0 0"/><path id="n" d="M4.797-.89v-.547h-.25v.546c0 .579-.25.641-.36.641-.328 0-.375-.437-.375-.5v-1.984c0-.407 0-.797-.343-1.172a1.949 1.949 0 0 0-1.36-.531c-.812 0-1.5.453-1.5 1.109 0 .297.188.469.454.469a.435.435 0 0 0 .453-.453c0-.126-.047-.454-.5-.454.265-.359.75-.468 1.062-.468.485 0 1.063.39 1.063 1.28v.36c-.516.031-1.203.063-1.828.36-.75.343-1 .859-1 1.297 0 .796.968 1.046 1.593 1.046.657 0 1.11-.39 1.297-.859.047.39.313.813.781.813.204 0 .813-.141.813-.954m-1.656-.5c0 .937-.72 1.28-1.172 1.28-.485 0-.89-.343-.89-.843 0-.547.421-1.375 2.062-1.422ZM2.078-6a.48.48 0 0 0-.469-.469.473.473 0 0 0-.484.469c0 .25.203.469.469.469.312 0 .484-.25.484-.469m1.766 0a.48.48 0 0 0-.469-.469.473.473 0 0 0-.484.469c0 .25.203.469.468.469.313 0 .485-.25.485-.469m0 0"/><path id="o" d="M4.813-4.016c0-.156-.125-.484-.5-.484-.204 0-.641.063-1.063.469a1.627 1.627 0 0 0-1.047-.36c-.922 0-1.61.688-1.61 1.454 0 .437.22.812.47 1.015-.125.156-.313.484-.313.828 0 .313.14.688.438.89C.594-.046.28.392.28.782c0 .719.985 1.266 2.188 1.266 1.172 0 2.203-.516 2.203-1.281 0-.344-.14-.86-.64-1.125-.532-.282-1.11-.282-1.704-.282-.25 0-.687 0-.75-.015-.312-.031-.531-.344-.531-.656 0-.047 0-.282.172-.47.39.266.797.298.984.298.922 0 1.61-.672 1.61-1.438 0-.375-.157-.734-.407-.969.36-.343.719-.39.89-.39 0 0 .063 0 .095.015-.11.032-.157.141-.157.266 0 .172.125.297.297.297a.295.295 0 0 0 .282-.313m-1.75 1.079c0 .265 0 .593-.157.828-.078.125-.312.406-.703.406-.86 0-.86-1-.86-1.219 0-.265 0-.594.157-.844.078-.109.313-.39.703-.39.86 0 .86.984.86 1.218M4.156.78c0 .532-.703 1.031-1.672 1.031-1 0-1.687-.5-1.687-1.03 0-.454.375-.829.812-.844h.579c.859 0 1.968 0 1.968.843m0 0"/><path id="p" d="M10.016-6.469v-.312c-.297.031-.61.031-.907.031l-1.187-.031v.312c.672.016.875.344.875.532 0 .046-.031.14-.063.187L7.25-1.156l-1.578-4.86a.555.555 0 0 1-.031-.156c0-.297.578-.297.828-.297v-.312c-.36.031-1.032.031-1.407.031l-1.218-.031v.312c.578 0 .781 0 .906.36l.203.687-1.375 4.266-1.594-4.89c-.015-.032-.015-.095-.015-.126 0-.297.578-.297.828-.297v-.312c-.36.031-1.031.031-1.406.031L.17-6.781v.312c.75 0 .798.047.907.422L3.063.031c.03.094.062.188.187.188.14 0 .156-.063.203-.203l1.64-5.032L6.735.031c.032.094.063.188.188.188.14 0 .156-.063.203-.203l1.89-5.813c.188-.578.61-.672 1-.672m0 0"/><path id="q" d="M4.125-1.187c0-.094-.11-.094-.14-.094-.079 0-.11.047-.126.093C3.58-.265 2.922-.14 2.563-.14c-.532 0-1.407-.421-1.407-2.015 0-1.625.813-2.047 1.344-2.047.094 0 .719.016 1.063.375-.407.031-.47.328-.47.453 0 .266.188.453.454.453.265 0 .469-.156.469-.469 0-.671-.766-1.046-1.532-1.046-1.234 0-2.14 1.062-2.14 2.296 0 1.266.969 2.25 2.125 2.25 1.328 0 1.656-1.187 1.656-1.296m0 0"/><clipPath id="a"><path d="M0 177h141v46.613H0Zm0 0"/></clipPath></defs><path fill="none" stroke="#000" stroke-miterlimit="10" stroke-width=".39743991" d="m5.395 77.574.078-.12.082-.118.172-.242.082-.117.086-.122.082-.117.09-.12.09-.118.085-.121.09-.117.086-.121.09-.118.094-.12.18-.235.093-.117.094-.121.09-.118.097-.117.188-.234.097-.117.094-.117.195-.235.102-.117.098-.113.097-.117.102-.118.098-.117.105-.117.102-.113.101-.118.102-.113.105-.117.102-.117.11-.113.21-.227.106-.117.109-.113.105-.118.329-.34.113-.113.105-.113.453-.453.114-.11.113-.113.117-.113.113-.113.122-.11.113-.113.117-.11.121-.113.117-.11.121-.112.118-.11.12-.11.122-.112.242-.22.25-.218.121-.11.375-.327.129-.11.125-.105.129-.11.125-.109.129-.105.129-.11.132-.105.13-.11.132-.105.13-.11.398-.316.136-.105.399-.317.14-.105.41-.317.137-.101.14-.106.138-.105.14-.102.14-.105.282-.203.14-.106 1.012-.71.297-.204.145-.098.148-.101.145-.102.152-.097.149-.102.152-.098.148-.097.153-.102.148-.097.152-.098.157-.098.457-.293.312-.195.156-.094.157-.097.156-.094.16-.098.156-.097.16-.094.157-.094.16-.098.48-.28.329-.188.16-.094.164-.094.16-.09.168-.093.164-.094.164-.09.164-.094.168-.09.164-.09.168-.093.504-.27.172-.09.336-.18.172-.09.172-.085.171-.09.172-.086.344-.18.172-.085.176-.086.172-.086.175-.086.176-.09.176-.086.176-.082.18-.086.35-.172.18-.082.176-.086.18-.082.18-.086.36-.164.179-.086.183-.082.18-.082.367-.164.184-.078.18-.082.187-.082.184-.078.183-.082.188-.078.183-.079.184-.082.937-.39.192-.078.187-.075.192-.078M34.707 79.8l.219-.218.074-.07.074-.075.074-.07.079-.07.074-.074.074-.07.078-.071.074-.074.313-.281.078-.075.156-.14.082-.07.078-.07.246-.212.079-.066.086-.07.246-.212.086-.066.082-.07.086-.067.082-.07.086-.07.082-.067.09-.07.085-.066.086-.07.086-.067.086-.07.18-.133.086-.067.09-.07.359-.266.094-.066.09-.066.09-.07.09-.063.28-.2.09-.066.188-.133.094-.062.097-.067.094-.062.094-.066.097-.067.094-.062.098-.063.097-.066.196-.125.097-.067.196-.125.101-.066.102-.063.195-.125.61-.375.101-.058.106-.063.101-.062.106-.063.101-.058.106-.063.105-.058.106-.063.105-.058.106-.063.105-.059.105-.062.211-.117.22-.117.105-.063.437-.234.11-.055.218-.117.114-.059.109-.058.113-.055.11-.059.113-.058.11-.055.113-.059.226-.109.113-.058.114-.055.117-.059.226-.11.118-.054.113-.055.586-.273.117-.05.234-.11.118-.05.12-.056.118-.054.12-.051.118-.055.363-.152.118-.055.363-.152.125-.05.242-.102.125-.051.121-.051.125-.05.121-.052.125-.046.25-.102.125-.047.125-.05.25-.094.13-.051.25-.094.128-.047.125-.047.129-.047.125-.05.258-.094.129-.043.386-.14.13-.044.128-.047.133-.043.129-.046.129-.043.133-.043.129-.047.53-.172.13-.043.265-.086.137-.043.266-.086.132-.039.133-.043.137-.043.133-.039.137-.043.136-.039.133-.039.137-.043.957-.273M105.074 69.266l.153.05.156.051.152.047.61.203.156.051.152.05.149.055.304.102.153.055.148.05.152.055.297.11.153.05.296.11.153.058.144.055.153.055.297.109.144.059.149.054.148.059.144.058.149.055.148.059.434.176.148.058.145.059.144.062.141.059.145.062.289.118.144.062.14.063.145.062.141.059.14.062.145.063.422.187.14.067.282.125.137.066.14.062.137.067.14.062.274.133.14.067.548.265.132.067.137.066.133.07.137.067.132.066.137.07.133.07.133.067.531.281.129.07.133.071.129.07.132.07.13.071.128.074.133.07.129.075.129.07.129.074.125.07.129.075.125.074.257.148.75.446.125.078.122.074.125.078.12.074.126.079.12.078.122.074.484.312.235.157.12.078.118.082.234.156.117.082.118.078.117.082.117.078.117.082.113.082.114.079.226.164.118.082.113.082.11.082.112.082.11.082.113.086.113.082.11.082.11.086.109.082.109.086.11.082.105.086.11.086.105.082.109.086.527.43.102.085.105.086.106.09.203.172.101.09.204.172.101.09.098.09.101.085.098.09.102.09.097.09.098.086.098.09.093.09.196.179.097.094.282.27.093.093.094.09.367.367.09.094.09.09.18.187.086.094.09.09.09.094.429.468.086.098.164.187.086.098.164.188.082.097.082.094.078.098.082.093.082.098.078.098.078.093.079.098M79.207 81.531h.098l.097.004h.098l.102.004h.195l.098.004.101.004.098.004h.097l.102.004.195.007.102.004.293.012.101.004.098.008.102.004.097.004.098.007.101.004.098.008.102.004.195.016.102.008.097.007.102.004.097.008.102.008.098.008.097.011.102.008.098.008.101.008.098.012.101.007.098.012.102.008.195.023.101.008.098.012.102.012.097.011.102.012.195.023.102.012.097.012.102.016.195.023.102.016.097.011.098.016.102.016.097.011.102.016.195.031.098.012.101.015.098.016.098.02.097.015.102.016.195.031.098.02.101.015.098.02.098.015.293.06.097.015.102.02.488.097.098.023.094.02.101.02.094.023.098.02.097.023.098.02.098.023.097.02.098.023.094.023.195.047.094.023.195.047.094.024.097.023.094.028.098.023.094.023.097.028.094.023.094.028.097.027.094.023.098.028.469.136.097.028.281.082.094.031.094.027.094.032.093.027.09.031.094.028.281.093.09.032.094.03.09.032.094.027.09.036.093.03.18.063.094.032.09.035.09.031.09.035.093.031.18.07.09.032.269.105.086.036.27.105.085.035.09.035.086.04.09.035.086.035.09.039.086.035.086.039.09.035.257.117.086.035.258.118.082.039.086.039.086.043.086.039.082.039.086.043.082.039.086.039.082.043.082.039.086.043.082.043.082.039.41.215.078.043.164.086.078.043.082.043.078.047.082.043.079.043.078.046.078.043.082.047.078.047"/><path fill="none" stroke="#000" stroke-miterlimit="10" stroke-width=".39743991" d="m74.418 72.117.316-.152.36-.117.398-.078.426-.04.441.004.45.047.449.094.437.137.41.18.38.226.335.262.285.3.223.336.149.368.074.386-.008.41-.102.426-.191.43-.29.434-.386.43-.488.413-.586.399-.68.37-.773.337-.86.297-.94.254-1.017.199-1.078.144-1.132.082-1.176.012-1.211-.055-1.227-.132-1.23-.208-1.223-.289-1.195-.363-1.16-.441-1.106-.52-1.039-.594-.953-.664-.855-.734-.747-.797-.625-.855-.484-.907-.344-.945-.183-.984-.02-1.012.153-1.027.328-1.035.507-1.036.688-1.02.871-.995 1.05-.961 1.227-.914 1.399-.864 1.558-.792 1.711-.72 1.852-.632 1.984-.535 2.094-.434 2.191-.324 2.274-.207 2.332-.086 2.371.047 2.39.172 2.387.308 2.364.442 2.316.578 2.242.707 2.149.84 2.035.96 1.894 1.087 1.735 1.199 1.558 1.305 1.356 1.398 1.14 1.488.907 1.563.656 1.625.402 1.672.133 1.71-.148 1.731-.43 1.734-.715 1.73-1 1.7-1.285 1.66-1.566 1.606-1.832 1.527-2.098 1.441-2.344 1.34-2.582 1.223-2.793 1.09-2.988.945-3.16.793-3.313.625-3.433.453-3.528.27-3.593.082-3.625-.11-3.633-.308-3.602-.504-3.543-.7-3.45-.894-3.32-1.086-3.167-1.273-2.977-1.446-2.766-1.613-2.511-1.77-2.246-1.917-1.946-2.043-1.629-2.16-1.289-2.258-.925-2.336-.563-2.395-.176-2.441.215-2.457.61-2.461 1.007-2.434 1.407-2.394 1.793-2.328 2.175-2.243 2.543-2.136 2.895-2.004 3.23-1.863 3.543-1.696 3.825-1.511 4.085-1.313 4.309-1.102 4.5-.87 4.66-.637 4.774-.391 4.855-.137 4.895.121 4.89.383 4.844.649 4.758.906 4.629 1.16 4.457 1.414 4.242 1.656 3.992 1.887 3.7 2.106 3.378 2.308 3.016 2.496 2.625 2.664 2.207 2.813 1.766 2.933 1.296 3.04.817 3.113.32 3.168-.183 3.191-.692 3.192-1.207 3.16-1.715 3.105-2.21 3.02-2.7 2.91-3.176 2.773-3.617 2.61-4.047 2.425-4.441 2.211-4.805 1.985-5.133 1.73-5.418 1.461-5.66 1.176-5.863.879-6.012.562-6.113.25-6.164-.074-6.164-.402-6.11-.735-6.007-1.058-5.844-1.38-5.637-1.69-5.379-1.993-5.066-2.285-4.707-2.555-4.317-2.808-3.867-3.043-3.39-3.254-2.88-3.441-2.331-3.594-1.766-3.727-1.172-3.82-.562-3.895.054-3.925.676-3.926 1.305-3.899 1.93-3.832 2.539-3.734 3.14-3.605 3.715-3.442 4.27-3.25 4.785-3.023 5.277-2.774 5.723-2.5 6.129-2.195 6.48-1.875 6.785-1.531 7.04-1.172 7.226-.8 7.363-.419 7.438-.027"/><g clip-path="url(#a)"><path fill="none" stroke="#000" stroke-miterlimit="10" stroke-width=".39743991" d="m134.57 187.898-.023.543-.04.54-.054.542-.07.543-.086.54-.102.542-.113.54-.129.542-.144.54-.157.539-.172.539-.187.539-.203.535-.219.535-.23.535-.246.531-.262.532-.278.527-.289.527-.304.524-.317.523-.332.52-.351.515-.36.516-.379.512-.39.511-.403.504-.418.504-.433.5-.445.496-.461.493-.473.492-.492.484-.5.48-.516.477-.527.477-.54.468-.554.465-.566.461-.582.453-.594.453-.61.446-.617.441-.629.434-.644.43-.656.425-.668.422-.68.414-.691.406-.704.403-.714.394-.727.395-.738.383-.75.379-.758.37-.77.368-.78.36-.794.35-.8.345-.813.335-.82.333-.832.324-.84.316-.852.313-.855.304-.871.293-.875.29-.887.277-.895.273-.902.266-.91.254-.918.25-.926.242-.933.234-.938.223-.95.215-.952.21-.961.2-.965.191-.973.184-.98.172-.98.168-.989.156-.996.148-1 .137-1.004.133-1.008.121-1.015.11-1.016.105-1.02.094-1.023.086-1.027.078-1.032.066-1.03.059-1.036.047-1.04.039-1.038.03-1.043.024-1.04.012h-1.046l-1.043-.008-1.047-.015-1.047-.028-1.047-.035-1.046-.043-1.047-.055-1.043-.062-1.047-.074-1.043-.082-1.043-.09-1.043-.102-1.04-.113-1.034-.121-1.035-.129-1.036-.137-1.027-.152-1.027-.156-1.024-.164-1.02-.18-1.015-.188-1.012-.195-1.007-.203-1.004-.215-.996-.222-.993-.231-.988-.238-.98-.254-.977-.258-.969-.27-.965-.277-.957-.285-.949-.297-.945-.3-.934-.313-.93-.32-.917-.329-.91-.34-.907-.347-.894-.356-.887-.363-.875-.37-.867-.38-.86-.39-.851-.395-.836-.402-.832-.414-.813-.418-.808-.43-.797-.434-.785-.445-.778-.45-.761-.456-.754-.461-.738-.473-.727-.48-.715-.485-.703-.492-.691-.5-.676-.508-.664-.511-.653-.52-.636-.523-.625-.532-.61-.539-.593-.543-.582-.546-.57-.555-.555-.559-.54-.566-.523-.574-.508-.575-.492-.582-.48-.586-.461-.59-.45-.597-.433-.598-.414-.605-.403-.61-.386-.613-.368-.617-.351-.621-.332-.621-.32-.63-.301-.632-.285-.633-.27-.636-.254-.641-.234-.645-.219-.644-.2-.649-.183-.652-.164-.652-.148-.653-.13-.66-.116-.656-.094-.66-.078-.66-.063-.664-.039-.664"/></g><path fill="none" stroke="#000" stroke-miterlimit="10" stroke-width=".39743991" d="m74.418 72.117.3-.144.34-.11.38-.078.402-.035.422.004.43.043.425.09.414.129.39.171.36.215.32.25.27.285.211.32.145.348.07.368-.012.39-.094.403-.183.41-.274.41-.367.406-.465.395-.554.379-.649.351-.734.32-.817.286-.894.238-.965.191-1.023.137-1.078.074-1.118.016-1.148-.055-1.164-.125L66.59 78l-1.164-.27-1.137-.347-1.101-.418-1.051-.492-.985-.567-.906-.633-.812-.695-.711-.758-.59-.812-.465-.86-.324-.902-.172-.933-.02-.961.145-.977.308-.98.485-.985.652-.969.828-.945 1-.914 1.164-.871 1.329-.816 1.48-.754 1.625-.684 1.762-.598 1.882-.511 1.989-.414 2.082-.305 2.16-.2 2.215-.077 2.254.039 2.27.168 2.269.293 2.246.418 2.2.546 2.128.676 2.043.793 1.934.918 1.8 1.031 1.645 1.137 1.48 1.238 1.29 1.332 1.081 1.414.86 1.48.629 1.548.379 1.59.125 1.625-.141 1.64-.406 1.653-.68 1.64-.95 1.617-1.222 1.575-1.484 1.523-1.742 1.453-1.993 1.371-2.23 1.274-2.45 1.156-2.656 1.04-2.835.897-3.004.754-3.149.594-3.258.43-3.351.254-3.414.078-3.446-.106-3.449-.289-3.422-.48-3.367-.664-3.277-.852-3.156-1.031-3.008-1.207-2.828-1.375-2.625-1.531-2.391-1.684-2.129-1.82-1.848-1.942-1.546-2.05-1.227-2.145-.883-2.219-.531-2.277-.168-2.316.203-2.336.582-2.336.957-2.317 1.332-2.273 1.703-2.211 2.07-2.129 2.415-2.027 2.754-1.91 3.066-1.766 3.363-1.61 3.637-1.437 3.879-1.246 4.094-1.047 4.277-.832 4.426-.602 4.535-.37 4.613-.133 4.649.117 4.648.363 4.602.617 4.52.86 4.394 1.105 4.234 1.344 4.031 1.57 3.79 1.793 3.519 2 3.207 2.195 2.863 2.372 2.496 2.527 2.094 2.672 1.68 2.789 1.234 2.887.774 2.96.304 3.008-.172 3.031-.66 3.032-1.144 3.004-1.63 2.949-2.105 2.867-2.562 2.766-3.016 2.632-3.437 2.481-3.844 2.3-4.219 2.106-4.566 1.883-4.875 1.64-5.145 1.391-5.379 1.117-5.57.836-5.71.536-5.806.238-5.859-.074-5.855-.383-5.805-.696-5.707-1.003-5.55-1.313-5.356-1.605-5.11-1.895-4.812-2.168-4.473-2.43-4.098-2.668-3.68-2.89-3.218-3.09-2.73-3.27-2.22-3.414-1.675-3.539-1.117-3.632-.531-3.696.05-3.73.645-3.73 1.238-3.704 1.832-3.64 2.414-3.551 2.98-3.422 3.528-3.27 4.059-3.086 4.547-2.875 5.011-2.632 5.438-2.375 5.82-2.09 6.16-1.778 6.446-1.453 6.683-1.117 6.867-.758 6.996-.398 7.063-.027M134.574 75.398v112.5M.2 70.77v112.5M28.418 71.281l.191 29M106.46 73.863l-.136 28.52M56.64 71.793l.122 20.328M74.418 72.117l-.191 5.852M79.55 74.414l-.128 18.453M81.71 27.563h112.5M194.21 27.563l-.35 6.824 1.456 3.101.82 6.219-1.007 4.61.723 3.25-.543 5.226-1.567 6.941 1.367 4.512-1.293 2.945.774 7.528.242 4.625-1.922 2.781.402 7.766.317 2.504-.574 5.667-.77 3.426.758 6.309 2.352 4.074.597 5.05-2.226 4.49-1.246 5.257 2.113 6.008-.422 3.386M194.21 140.062h-59.636v47.836"/><path fill="none" stroke="#000" stroke-miterlimit="10" stroke-width=".39743991" d="M82.098 25.219h140.625v114.843H194.21"/><path fill="none" stroke="#000" stroke-miterlimit="10" stroke-width=".39743991" d="M114.352 49.063h56.25v70.312h-36.028v68.523M195.91 49.063h14.063v70.312H195.91"/><path fill="none" stroke="#000" stroke-miterlimit="10" stroke-width=".39743991" d="m154.574 128.367 28.125 28.125 28.125-28.125"/><use xlink:href="#b" x="154.356" y="166.882"/><use xlink:href="#c" x="161.938" y="166.882"/><use xlink:href="#d" x="164.697" y="166.882"/><use xlink:href="#e" x="169.103" y="166.882"/><use xlink:href="#d" x="171.862" y="166.882"/><use xlink:href="#f" x="176.268" y="166.882"/><use xlink:href="#g" x="181.508" y="166.882"/><use xlink:href="#h" x="185.368" y="166.882"/><use xlink:href="#c" x="189.258" y="166.882"/><use xlink:href="#f" x="192.017" y="166.882"/><use xlink:href="#i" x="197.257" y="166.882"/><use xlink:href="#j" x="202.774" y="166.882"/><path fill="none" stroke="#000" stroke-miterlimit="10" stroke-width=".39743991" d="m147.543 58.055 28.125-42.188 28.125 42.188"/><use xlink:href="#k" x="148.099" y="10.317"/><use xlink:href="#d" x="157.199" y="10.317"/><use xlink:href="#g" x="161.605" y="10.317"/><use xlink:href="#l" x="165.465" y="10.317"/><use xlink:href="#e" x="170.427" y="10.317"/><use xlink:href="#e" x="173.186" y="10.317"/><use xlink:href="#m" x="175.945" y="10.317"/><use xlink:href="#d" x="181.74" y="10.317"/><use xlink:href="#e" x="186.146" y="10.317"/><use xlink:href="#n" x="188.905" y="10.317"/><use xlink:href="#o" x="193.867" y="10.317"/><use xlink:href="#d" x="198.829" y="10.317"/><path fill="none" stroke="#000" stroke-miterlimit="10" stroke-width=".39743991" d="m116.605 170.555 42.188 28.125"/><use xlink:href="#p" x="162.298" y="202.011"/><use xlink:href="#c" x="172.5" y="202.011"/><use xlink:href="#q" x="175.259" y="202.011"/><use xlink:href="#f" x="179.387" y="202.011"/><use xlink:href="#d" x="184.349" y="202.011"/><use xlink:href="#e" x="188.755" y="202.011"/></svg>