<svg xmlns="http://www.w3.org/2000/svg" xmlns:xlink="http://www.w3.org/1999/xlink" width="226.28" height="207.094"><defs><clipPath id="a"><path d="M.133 181H223v2H.133Zm0 0"/></clipPath><clipPath id="b"><path d="M.133 182H222v8H.133Zm0 0"/></clipPath><clipPath id="c"><path d="M.531 182.094h221.2v7.902H.53Zm0 0"/></clipPath><clipPath id="e"><path d="M99 170h84v36.191H99Zm0 0"/></clipPath><clipPath id="f"><path d="M39 170h84v36.191H39Zm0 0"/></clipPath><clipPath id="g"><path d="M99 170h103v36.191H99Zm0 0"/></clipPath><clipPath id="h"><path d="M20 170h103v36.191H20Zm0 0"/></clipPath><path id="i" d="M7.203 0v-.312h-.187c-.516 0-.72-.047-.938-.36L3.984-3.828l1.36-2c.218-.313.562-.625 1.437-.64v-.313l-1.093.031c-.407 0-.875 0-1.266-.031v.312c.39.016.61.235.61.453 0 .11-.016.125-.095.235L3.813-4.11l-1.28-1.907c-.016-.03-.079-.109-.079-.156 0-.125.219-.281.656-.297v-.312c-.343.031-1.078.031-1.453.031L.36-6.781v.312h.204c.53 0 .734.063.921.344l1.813 2.766L1.672-.97c-.14.203-.438.657-1.438.657V0l1.11-.031c.36 0 .906 0 1.265.031v-.312c-.453 0-.625-.266-.625-.454 0-.093.032-.125.094-.234L3.5-3.078l1.563 2.36c.015.046.046.077.046.109 0 .125-.218.297-.64.297V0c.343-.031 1.062-.031 1.437-.031Zm0 0"/><path id="j" d="M6.469-2.562h-.25c-.25 1.53-.469 2.25-2.188 2.25H2.72c-.469 0-.485-.063-.485-.391V-3.36h.891c.969 0 1.078.328 1.078 1.172h.234v-2.641h-.234c0 .86-.11 1.172-1.078 1.172h-.89v-2.39c0-.329.015-.391.484-.391H4c1.516 0 1.781.546 1.938 1.921h.25L5.906-6.75H.328v.313h.235c.765 0 .78.109.78.468V-.78c0 .36-.015.469-.78.469H.328V0h5.719Zm0 0"/><path id="k" d="M3.61-3.781c0-.313-.313-.61-.735-.61-.719 0-1.078.672-1.219 1.094V-4.39l-1.375.11v.312c.688 0 .766.063.766.563V-.75c0 .438-.11.438-.766.438V0l1.125-.031c.407 0 .86 0 1.266.031v-.312h-.219c-.734 0-.75-.11-.75-.47v-1.515c0-.984.422-1.875 1.172-1.875.078 0 .094 0 .11.016a.43.43 0 0 0-.22.39.41.41 0 0 0 .422.422.421.421 0 0 0 .422-.437m0 0"/><path id="l" d="M5.234 0v-.312c-.703 0-.78-.063-.78-.547v-6.032l-1.423.11v.312c.688 0 .766.063.766.563v2.14a1.582 1.582 0 0 0-1.25-.625c-1.172 0-2.203.985-2.203 2.25 0 1.266.969 2.25 2.094 2.25.64 0 1.078-.343 1.328-.656V.11ZM3.766-1.172c0 .188 0 .203-.11.375-.297.469-.734.688-1.172.688-.437 0-.796-.25-1.03-.641-.266-.406-.298-.969-.298-1.375 0-.36.032-.953.313-1.406.203-.313.578-.64 1.125-.64.344 0 .765.155 1.062.593.11.172.11.187.11.375Zm0 0"/><path id="m" d="M4.125-1.187c0-.094-.094-.11-.14-.11-.079 0-.11.063-.126.14C3.516-.14 2.625-.14 2.516-.14c-.485 0-.891-.296-1.11-.656-.312-.484-.312-1.14-.312-1.5h2.781c.219 0 .25 0 .25-.203 0-.984-.547-1.937-1.781-1.937C1.188-4.437.28-3.423.28-2.187.281-.86 1.312.108 2.453.108c1.219 0 1.672-1.093 1.672-1.296M3.469-2.5h-2.36C1.172-3.984 2-4.234 2.344-4.234c1.015 0 1.125 1.343 1.125 1.734m0 0"/><linearGradient id="d" x1="0" x2="0" y1="25.001" y2="74.999" gradientTransform="matrix(4.42455 0 0 -.158 -110.098 193.946)" gradientUnits="userSpaceOnUse"><stop offset="0" stop-color="#FFF"/><stop offset=".008" stop-color="#FEFEFE"/><stop offset=".016" stop-color="#FEFEFE"/><stop offset=".023" stop-color="#FDFDFD"/><stop offset=".031" stop-color="#FCFCFC"/><stop offset=".039" stop-color="#FBFBFB"/><stop offset=".047" stop-color="#FAFAFA"/><stop offset=".055" stop-color="#F9F9F9"/><stop offset=".063" stop-color="#F8F8F8"/><stop offset=".07" stop-color="#F7F7F7"/><stop offset=".078" stop-color="#F6F6F6"/><stop offset=".086" stop-color="#F5F5F5"/><stop offset=".094" stop-color="#F4F4F4"/><stop offset=".102" stop-color="#F3F3F3"/><stop offset=".109" stop-color="#F2F2F2"/><stop offset=".117" stop-color="#F1F1F1"/><stop offset=".125" stop-color="#F0F0F0"/><stop offset=".133" stop-color="#EFEFEF"/><stop offset=".141" stop-color="#EEE"/><stop offset=".148" stop-color="#EDEDED"/><stop offset=".156" stop-color="#ECECEC"/><stop offset=".164" stop-color="#EBEBEB"/><stop offset=".172" stop-color="#EAEAEA"/><stop offset=".18" stop-color="#E9E9E9"/><stop offset=".188" stop-color="#E8E8E8"/><stop offset=".195" stop-color="#E7E7E7"/><stop offset=".203" stop-color="#E6E6E6"/><stop offset=".211" stop-color="#E5E5E5"/><stop offset=".219" stop-color="#E4E4E4"/><stop offset=".227" stop-color="#E3E3E3"/><stop offset=".234" stop-color="#E2E2E2"/><stop offset=".242" stop-color="#E1E1E1"/><stop offset=".25" stop-color="#E0E0E0"/><stop offset=".258" stop-color="#DFDFDF"/><stop offset=".266" stop-color="#DEDEDE"/><stop offset=".273" stop-color="#DDD"/><stop offset=".281" stop-color="#DCDCDC"/><stop offset=".289" stop-color="#DBDBDB"/><stop offset=".297" stop-color="#DADADA"/><stop offset=".305" stop-color="#D9D9D9"/><stop offset=".313" stop-color="#D8D8D8"/><stop offset=".32" stop-color="#D7D7D7"/><stop offset=".328" stop-color="#D6D6D6"/><stop offset=".336" stop-color="#D5D5D5"/><stop offset=".344" stop-color="#D4D4D4"/><stop offset=".352" stop-color="#D3D3D3"/><stop offset=".359" stop-color="#D2D2D2"/><stop offset=".367" stop-color="#D1D1D1"/><stop offset=".375" stop-color="#D0D0D0"/><stop offset=".383" stop-color="#CFCFCF"/><stop offset=".391" stop-color="#CECECE"/><stop offset=".398" stop-color="#CDCDCD"/><stop offset=".406" stop-color="#CCC"/><stop offset=".414" stop-color="#CBCBCB"/><stop offset=".422" stop-color="#CACACA"/><stop offset=".43" stop-color="#C9C9C9"/><stop offset=".438" stop-color="#C8C8C8"/><stop offset=".445" stop-color="#C7C7C7"/><stop offset=".453" stop-color="#C6C6C6"/><stop offset=".461" stop-color="#C5C5C5"/><stop offset=".469" stop-color="#C4C4C4"/><stop offset=".477" stop-color="#C3C3C3"/><stop offset=".484" stop-color="#C2C2C2"/><stop offset=".492" stop-color="#C1C1C1"/><stop offset=".5" stop-color="silver"/><stop offset=".508" stop-color="#BFBFBF"/><stop offset=".516" stop-color="#BEBEBE"/><stop offset=".523" stop-color="#BDBDBD"/><stop offset=".531" stop-color="#BCBCBC"/><stop offset=".539" stop-color="#BBB"/><stop offset=".547" stop-color="#BABABA"/><stop offset=".555" stop-color="#B9B9B9"/><stop offset=".563" stop-color="#B8B8B8"/><stop offset=".57" stop-color="#B7B7B7"/><stop offset=".578" stop-color="#B6B6B6"/><stop offset=".586" stop-color="#B5B5B5"/><stop offset=".594" stop-color="#B4B4B4"/><stop offset=".602" stop-color="#B3B3B3"/><stop offset=".609" stop-color="#B2B2B2"/><stop offset=".617" stop-color="#B1B1B1"/><stop offset=".625" stop-color="#B0B0B0"/><stop offset=".633" stop-color="#AFAFAF"/><stop offset=".641" stop-color="#AEAEAE"/><stop offset=".648" stop-color="#ADADAD"/><stop offset=".656" stop-color="#ACACAC"/><stop offset=".664" stop-color="#ABABAB"/><stop offset=".672" stop-color="#AAA"/><stop offset=".68" stop-color="#A9A9A9"/><stop offset=".688" stop-color="#A8A8A8"/><stop offset=".695" stop-color="#A7A7A7"/><stop offset=".703" stop-color="#A6A6A6"/><stop offset=".711" stop-color="#A5A5A5"/><stop offset=".719" stop-color="#A4A4A4"/><stop offset=".727" stop-color="#A3A3A3"/><stop offset=".734" stop-color="#A2A2A2"/><stop offset=".742" stop-color="#A1A1A1"/><stop offset=".75" stop-color="#A0A0A0"/><stop offset=".758" stop-color="#9F9F9F"/><stop offset=".766" stop-color="#9E9E9E"/><stop offset=".773" stop-color="#9D9D9D"/><stop offset=".781" stop-color="#9C9C9C"/><stop offset=".789" stop-color="#9B9B9B"/><stop offset=".797" stop-color="#9A9A9A"/><stop offset=".805" stop-color="#999"/><stop offset=".813" stop-color="#989898"/><stop offset=".82" stop-color="#979797"/><stop offset=".828" stop-color="#969696"/><stop offset=".836" stop-color="#959595"/><stop offset=".844" stop-color="#949494"/><stop offset=".852" stop-color="#939393"/><stop offset=".859" stop-color="#929292"/><stop offset=".867" stop-color="#919191"/><stop offset=".875" stop-color="#909090"/><stop offset=".883" stop-color="#8F8F8F"/><stop offset=".891" stop-color="#8E8E8E"/><stop offset=".898" stop-color="#8D8D8D"/><stop offset=".906" stop-color="#8C8C8C"/><stop offset=".914" stop-color="#8B8B8B"/><stop offset=".922" stop-color="#8A8A8A"/><stop offset=".93" stop-color="#898989"/><stop offset=".938" stop-color="#888"/><stop offset=".945" stop-color="#878787"/><stop offset=".953" stop-color="#868686"/><stop offset=".961" stop-color="#858585"/><stop offset=".969" stop-color="#848484"/><stop offset=".977" stop-color="#838383"/><stop offset=".984" stop-color="#828282"/><stop offset=".992" stop-color="#818181"/><stop offset="1" stop-color="gray"/></linearGradient></defs><g clip-path="url(#a)"><path fill="none" stroke="#000" stroke-miterlimit="10" stroke-width=".79352508" d="M.531 182.094h221.2"/></g><g clip-path="url(#b)"><path d="M.531 182.094v7.902h221.2v-7.902Zm0 0"/></g><g clip-path="url(#c)"><path fill="url(#d)" d="M.531 189.996v-7.902h221.2v7.902Zm0 0"/></g><path fill="none" stroke="#000" stroke-miterlimit="10" stroke-width=".79352508" d="M111.129 182.094v-61.711m0-34.574V24.094"/><path stroke="#000" stroke-miterlimit="10" stroke-width=".79352508" d="M112.71 182.094a1.58 1.58 0 1 0-3.158.003 1.58 1.58 0 0 0 3.159-.003Zm0 0"/><path fill="none" stroke="#000" stroke-linejoin="bevel" stroke-miterlimit="10" stroke-width="1.58705016" d="M111.445 121.176c-2.289 0-4.148-1.621-4.148-3.617s1.86-3.618 4.148-3.618c-2.289 0-4.148-1.617-4.148-3.613s1.86-3.617 4.148-3.617c-2.289 0-4.148-1.617-4.148-3.617 0-1.996 1.86-3.614 4.148-3.614-2.289 0-4.148-1.62-4.148-3.617 0-1.996 1.86-3.617 4.148-3.617-2.289 0-4.148-1.617-4.148-3.613 0-2 1.86-3.617 4.148-3.617"/><path stroke="#000" stroke-miterlimit="10" stroke-width=".79352508" d="M112.71 24.094a1.58 1.58 0 1 0-3.158.003 1.58 1.58 0 0 0 3.159-.003Zm0 0"/><path fill="none" stroke="#000" stroke-miterlimit="10" stroke-width=".79352508" d="M111.129 24.094c0-6.805 9.195-12.324 20.539-12.324 11.344 0 20.543 5.52 20.543 12.324v158"/><path fill="none" stroke="#000" stroke-dasharray="9.9193323228 4.9596611832" stroke-miterlimit="10" stroke-width=".79352508" d="M152.21 182.094c0 6.808-9.194 12.324-20.538 12.324-11.348 0-20.543-5.516-20.543-12.324"/><path fill="none" stroke="#000" stroke-miterlimit="10" stroke-width=".79352508" d="M111.129 24.094c0-6.805-9.195-12.324-20.54-12.324-11.343 0-20.538 5.52-20.538 12.324v158"/><path fill="none" stroke="#000" stroke-dasharray="9.9193323228 4.9596611832" stroke-miterlimit="10" stroke-width=".79352508" d="M70.05 182.094c0 6.808 9.196 12.324 20.54 12.324s20.539-5.516 20.539-12.324"/><path fill="none" stroke="#000" stroke-miterlimit="10" stroke-width=".79352508" d="M111.129 24.094c0-9.946 13.441-18.012 30.02-18.012 16.581 0 30.019 8.066 30.019 18.012v158"/><g clip-path="url(#e)"><path fill="none" stroke="#000" stroke-dasharray="9.9193323228 4.9596611832" stroke-miterlimit="10" stroke-width=".79352508" d="M171.168 182.094c0 9.949-13.438 18.011-30.02 18.011-16.578 0-30.02-8.062-30.02-18.011"/></g><path fill="none" stroke="#000" stroke-miterlimit="10" stroke-width=".79352508" d="M111.129 24.094c0-9.946-13.438-18.012-30.02-18.012-16.578 0-30.02 8.066-30.02 18.012v158"/><g clip-path="url(#f)"><path fill="none" stroke="#000" stroke-dasharray="9.9193323228 4.9596611832" stroke-miterlimit="10" stroke-width=".79352508" d="M51.09 182.094c0 9.949 13.441 18.011 30.02 18.011 16.581 0 30.019-8.062 30.019-18.011"/></g><path fill="none" stroke="#000" stroke-miterlimit="10" stroke-width=".79352508" d="M111.129 24.094c0-13.09 17.683-23.7 39.5-23.7 21.816 0 39.5 10.61 39.5 23.7v158"/><g clip-path="url(#g)"><path fill="none" stroke="#000" stroke-dasharray="9.9193323228 4.9596611832" stroke-miterlimit="10" stroke-width=".79352508" d="M190.129 182.094c0 13.09-17.684 23.703-39.5 23.703-21.817 0-39.5-10.613-39.5-23.703"/></g><path fill="none" stroke="#000" stroke-miterlimit="10" stroke-width=".79352508" d="M111.129 24.094c0-13.09-17.684-23.7-39.5-23.7s-39.5 10.61-39.5 23.7v158"/><g clip-path="url(#h)"><path fill="none" stroke="#000" stroke-dasharray="9.9193323228 4.9596611832" stroke-miterlimit="10" stroke-width=".79352508" d="M32.129 182.094c0 13.09 17.684 23.703 39.5 23.703s39.5-10.613 39.5-23.703"/></g><use xlink:href="#i" x="206.658" y="74.884"/><path fill="none" stroke="#000" stroke-miterlimit="10" stroke-width=".59539272" d="M190.129 71.496h12.828"/><path fill="none" stroke="#000" stroke-dasharray="9.9193323228 4.9596611832" stroke-miterlimit="10" stroke-width=".79352508" d="M152.21 103.094c0-9.074-18.394-16.43-41.081-16.43-22.688 0-41.078 7.356-41.078 16.43 0 9.078 18.39 16.433 41.078 16.433 22.687 0 41.082-7.355 41.082-16.433Zm0 0"/><path fill="none" stroke="#000" stroke-dasharray="9.9193323228 4.9596611832" stroke-miterlimit="10" stroke-width=".79352508" d="M171.168 103.094c0-13.262-26.879-24.016-60.04-24.016-33.16 0-60.038 10.754-60.038 24.016 0 13.265 26.879 24.02 60.039 24.02s60.039-10.755 60.039-24.02Zm0 0"/><path fill="none" stroke="#000" stroke-dasharray="9.9193323228 4.9596611832" stroke-miterlimit="10" stroke-width=".79352508" d="M190.129 103.094c0-17.45-35.367-31.598-79-31.598-43.629 0-79 14.149-79 31.598 0 17.453 35.371 31.601 79 31.601 43.633 0 79-14.148 79-31.601Zm0 0"/><path fill="#FFF" d="M99.855 199.371h22.547v-8.98H99.855Zm0 0"/><use xlink:href="#j" x="100.849" y="198.269"/><use xlink:href="#k" x="107.604" y="198.269"/><use xlink:href="#l" x="111.492" y="198.269"/><use xlink:href="#m" x="117.007" y="198.269"/></svg>