<svg xmlns="http://www.w3.org/2000/svg" width="116.413" height="132.415"><defs><clipPath id="a"><path d="M0 .043h115.828v131.75H0Zm0 0"/></clipPath><clipPath id="b"><path d="M0 .043h115.828v131.75H0Zm0 0"/></clipPath><clipPath id="c"><path d="M39 .043h13V46H39Zm0 0"/></clipPath><clipPath id="d"><path d="M0 .043h115.828v131.75H0Zm0 0"/></clipPath></defs><g fill="none" stroke="#000" stroke-linecap="round" stroke-miterlimit="10" stroke-width="11.955" clip-path="url(#a)"><path stroke-width="11.8949859" d="M11.602 125.844 38.738 76.09M5.95 69.309l28.265-13.57M16.125 26.34l29.398 13.57M45.523 5.988l13.57 27.137M77.184 10.508 74.922 39.91M102.059 35.387 79.445 55.738M106.582 69.309l-31.66 6.78"/></g><path fill="#BFBFBF" fill-rule="evenodd" stroke="#000" stroke-miterlimit="10" stroke-width=".39699702000000003" d="M104.32 58c0-26.23-21.261-47.492-47.488-47.492C30.602 10.508 9.34 31.77 9.34 58c0 26.23 21.262 47.492 47.492 47.492 26.227 0 47.488-21.262 47.488-47.492Zm-18.09 0c0-16.238-13.164-29.398-29.398-29.398-16.238 0-29.398 13.16-29.398 29.398s13.16 29.398 29.398 29.398c16.234 0 29.398-13.16 29.398-29.398Zm0 0"/><g fill="none" stroke="#000" stroke-linecap="round" stroke-miterlimit="10" stroke-width="11.955" clip-path="url(#b)"><path stroke-width="11.8949859" d="M38.738 76.09 5.95 69.309M34.215 55.738 16.125 26.34"/></g><g clip-path="url(#c)"><path fill="none" stroke="#000" stroke-linecap="round" stroke-miterlimit="10" stroke-width="11.8949859" d="M45.523 39.91V5.988"/></g><g fill="none" stroke="#000" stroke-linecap="round" stroke-miterlimit="10" stroke-width="11.955" clip-path="url(#d)"><path stroke-width="11.8949859" d="m59.094 33.125 18.09-22.617M74.922 39.91l27.137-4.523M79.445 55.738l27.137 13.57M74.922 76.09l27.137 49.754"/></g></svg>