<svg xmlns="http://www.w3.org/2000/svg" width="225.055" height="129.468"><defs><clipPath id="a"><path d="M44 .004h36V76H44Zm0 0"/></clipPath><clipPath id="b"><path d="M68 .004h36V76H68Zm0 0"/></clipPath><clipPath id="c"><path d="M92 .004h36V76H92Zm0 0"/></clipPath><clipPath id="d"><path d="M116 .004h36V76h-36Zm0 0"/></clipPath><clipPath id="e"><path d="M140 .004h36V76h-36Zm0 0"/></clipPath><clipPath id="f"><path d="M164 .004h36V76h-36Zm0 0"/></clipPath><clipPath id="g"><path d="M24 .004h67V92H24Zm0 0"/></clipPath><clipPath id="h"><path d="M48 .004h67V92H48Zm0 0"/></clipPath><clipPath id="i"><path d="M72 .004h67V92H72Zm0 0"/></clipPath><clipPath id="j"><path d="M96 .004h67V92H96Zm0 0"/></clipPath><clipPath id="k"><path d="M120 .004h67V92h-67Zm0 0"/></clipPath><clipPath id="l"><path d="M144 .004h67V92h-67Zm0 0"/></clipPath><clipPath id="m"><path d="M173 .004h51V52h-51Zm0 0"/></clipPath><clipPath id="n"><path d="M1 .004h66V52H1Zm0 0"/></clipPath><clipPath id="o"><path d="M197 109h27.113v19.934H197Zm0 0"/></clipPath><clipPath id="p"><path d="M0 109h28v19.934H0Zm0 0"/></clipPath></defs><path fill="none" stroke="#BFBFBF" stroke-miterlimit="10" stroke-width=".7936685400000001" d="M.398 10.527h220.02M.398 22.527h220.02M.398 34.527h220.02M.398 70.531h220.02M.398 58.531h220.02M.398 46.527h220.02"/><g clip-path="url(#a)"><path fill="none" stroke="#000" stroke-dasharray="2.9763366906 5.9526733812" stroke-miterlimit="10" stroke-width=".7936685400000001" d="M55.73 8.164s1.72 2 2.34 2.84c.625.836 1.586 2.27 2.157 3.203a58.6 58.6 0 0 1 1.941 3.54 64.408 64.408 0 0 1 1.719 3.823 71.226 71.226 0 0 1 1.472 4.063c.375 1.152.918 3.05 1.22 4.246.3 1.2.726 3.156.952 4.383a89.78 89.78 0 0 1 .676 4.465c.148 1.238.328 3.242.402 4.48.07 1.242.13 3.23.125 4.453a84.155 84.155 0 0 1-.148 4.36 80.376 80.376 0 0 1-.41 4.218 73.708 73.708 0 0 1-.664 4.02c-.219 1.078-.907 3.77-.907 3.77"/></g><g clip-path="url(#b)"><path fill="none" stroke="#000" stroke-dasharray="2.9763366906 5.9526733812" stroke-miterlimit="10" stroke-width=".7936685400000001" d="M79.734 8.164s1.715 2 2.34 2.84c.625.836 1.586 2.27 2.153 3.203.57.938 1.437 2.516 1.945 3.54a67.03 67.03 0 0 1 1.719 3.823 74.348 74.348 0 0 1 1.472 4.063c.375 1.152.918 3.05 1.22 4.246.3 1.2.722 3.156.948 4.383a89.8 89.8 0 0 1 .68 4.465c.148 1.238.328 3.242.398 4.48a89.87 89.87 0 0 1 .13 4.453 84.155 84.155 0 0 1-.15 4.36 80.376 80.376 0 0 1-.41 4.218 73.688 73.688 0 0 1-.667 4.02c-.219 1.078-.907 3.77-.907 3.77"/></g><g clip-path="url(#c)"><path fill="none" stroke="#000" stroke-dasharray="2.9763366906 5.9526733812" stroke-miterlimit="10" stroke-width=".7936685400000001" d="M103.738 8.164s1.715 2 2.34 2.84c.621.836 1.582 2.27 2.152 3.203a60.876 60.876 0 0 1 1.946 3.54 64.384 64.384 0 0 1 1.715 3.823 71.246 71.246 0 0 1 1.476 4.063c.371 1.152.914 3.05 1.215 4.246.3 1.2.727 3.156.953 4.383.227 1.226.528 3.222.676 4.465.148 1.238.328 3.242.402 4.48a85.32 85.32 0 0 1 .125 4.453 88.781 88.781 0 0 1-.144 4.36 76.37 76.37 0 0 1-.414 4.218 70.11 70.11 0 0 1-.664 4.02c-.22 1.078-.907 3.77-.907 3.77"/></g><g clip-path="url(#d)"><path fill="none" stroke="#000" stroke-dasharray="2.9763366906 5.9526733812" stroke-miterlimit="10" stroke-width=".7936685400000001" d="M127.738 8.164s1.72 2 2.34 2.84c.625.836 1.586 2.27 2.153 3.203.57.938 1.437 2.516 1.945 3.54a64.408 64.408 0 0 1 1.719 3.823 71.226 71.226 0 0 1 1.472 4.063c.375 1.152.918 3.05 1.219 4.246.3 1.2.727 3.156.95 4.383.226 1.226.527 3.222.679 4.465.148 1.238.328 3.242.402 4.48.07 1.242.13 3.23.125 4.453a84.154 84.154 0 0 1-.148 4.36 80.375 80.375 0 0 1-.41 4.218 70.093 70.093 0 0 1-.668 4.02c-.215 1.078-.907 3.77-.907 3.77"/></g><g clip-path="url(#e)"><path fill="none" stroke="#000" stroke-dasharray="2.9763366906 5.9526733812" stroke-miterlimit="10" stroke-width=".7936685400000001" d="M151.742 8.164s1.715 2 2.34 2.84c.621.836 1.586 2.27 2.152 3.203.57.938 1.438 2.516 1.946 3.54a67.032 67.032 0 0 1 1.718 3.823 74.349 74.349 0 0 1 1.473 4.063 81.88 81.88 0 0 1 1.215 4.246c.305 1.2.727 3.156.953 4.383.227 1.226.527 3.222.676 4.465.152 1.238.328 3.242.402 4.48.074 1.242.13 3.23.125 4.453 0 1.223-.066 3.172-.144 4.36a80.375 80.375 0 0 1-.41 4.218 73.687 73.687 0 0 1-.668 4.02c-.22 1.078-.907 3.77-.907 3.77"/></g><g clip-path="url(#f)"><path fill="none" stroke="#000" stroke-dasharray="2.9763366906 5.9526733812" stroke-miterlimit="10" stroke-width=".7936685400000001" d="M175.742 8.164s1.719 2 2.34 2.84c.625.836 1.586 2.27 2.156 3.203a58.6 58.6 0 0 1 1.942 3.54 64.408 64.408 0 0 1 1.718 3.823 71.226 71.226 0 0 1 1.473 4.063c.375 1.152.918 3.05 1.219 4.246.3 1.2.726 3.156.953 4.383.227 1.226.527 3.222.676 4.465.148 1.238.328 3.242.402 4.48.074 1.242.13 3.23.125 4.453a84.155 84.155 0 0 1-.148 4.36 76.392 76.392 0 0 1-.41 4.218 70.11 70.11 0 0 1-.665 4.02c-.218 1.078-.906 3.77-.906 3.77"/></g><g clip-path="url(#g)"><path fill="none" stroke="#000" stroke-miterlimit="10" stroke-width=".7936685400000001" d="M66.602 64.04s-2.684 7.28-3.985 9.37c-1.3 2.086-3.804 4.703-5.39 5.676-1.586.977-4.391 1.602-6.047 1.355-1.653-.246-4.383-1.687-5.88-3.128-1.495-1.438-3.777-4.782-4.91-7.254-1.132-2.473-2.648-7.34-3.245-10.567-.602-3.226-1.114-9.074-1.075-12.695.043-3.621.653-9.793 1.367-13.399.72-3.605 2.446-9.41 3.797-12.597 1.352-3.192 4.067-7.973 5.942-10.387 1.875-2.414 5.34-5.64 7.57-7.008C56.973 2.043 60.863.734 63.234.57c2.371-.168 6.309.59 8.598 1.64 2.29 1.056 7.89 5.942 7.89 5.942"/></g><g clip-path="url(#h)"><path fill="none" stroke="#000" stroke-miterlimit="10" stroke-width=".7936685400000001" d="M90.602 64.04s-2.684 7.28-3.985 9.37c-1.3 2.086-3.8 4.703-5.387 5.676-1.585.977-4.39 1.602-6.046 1.355-1.657-.246-4.383-1.687-5.883-3.128-1.496-1.438-3.778-4.782-4.91-7.254-1.13-2.473-2.645-7.34-3.246-10.567-.598-3.226-1.114-9.074-1.07-12.695.038-3.621.648-9.793 1.366-13.399.715-3.605 2.442-9.41 3.793-12.597 1.352-3.192 4.07-7.973 5.946-10.387 1.875-2.414 5.34-5.64 7.566-7.008C80.976 2.043 84.867.734 87.234.57c2.371-.168 6.313.59 8.602 1.64 2.285 1.056 7.89 5.942 7.89 5.942"/></g><g clip-path="url(#i)"><path fill="none" stroke="#000" stroke-miterlimit="10" stroke-width=".7936685400000001" d="M114.605 64.04s-2.683 7.28-3.984 9.37c-1.3 2.086-3.805 4.703-5.39 5.676-1.586.977-4.391 1.602-6.043 1.355-1.657-.246-4.387-1.687-5.883-3.128-1.496-1.438-3.778-4.782-4.91-7.254-1.133-2.473-2.649-7.34-3.247-10.567-.597-3.226-1.113-9.074-1.074-12.695.043-3.621.653-9.793 1.367-13.399.72-3.605 2.446-9.41 3.797-12.597 1.352-3.192 4.067-7.973 5.942-10.387 1.875-2.414 5.343-5.64 7.57-7.008 2.227-1.363 6.117-2.672 8.488-2.836 2.371-.168 6.309.59 8.598 1.64 2.289 1.056 7.895 5.942 7.895 5.942"/></g><g clip-path="url(#j)"><path fill="none" stroke="#000" stroke-miterlimit="10" stroke-width=".7936685400000001" d="M138.61 64.04s-2.684 7.28-3.985 9.37c-1.3 2.086-3.805 4.703-5.39 5.676-1.587.977-4.391 1.602-6.047 1.355-1.653-.246-4.383-1.687-5.88-3.128-1.5-1.438-3.78-4.782-4.91-7.254-1.132-2.473-2.648-7.34-3.246-10.567-.601-3.226-1.113-9.074-1.074-12.695.043-3.621.652-9.793 1.367-13.399.715-3.605 2.446-9.41 3.797-12.597 1.352-3.192 4.067-7.973 5.942-10.387 1.875-2.414 5.34-5.64 7.57-7.008C128.98 2.043 132.87.734 135.242.57c2.371-.168 6.309.59 8.598 1.64 2.289 1.056 7.89 5.942 7.89 5.942"/></g><g clip-path="url(#k)"><path fill="none" stroke="#000" stroke-miterlimit="10" stroke-width=".7936685400000001" d="M162.61 64.04s-2.684 7.28-3.985 9.37c-1.3 2.086-3.8 4.703-5.387 5.676-1.59.977-4.394 1.602-6.047 1.355-1.656-.246-4.382-1.687-5.882-3.128-1.496-1.438-3.778-4.782-4.91-7.254-1.13-2.473-2.645-7.34-3.247-10.567-.597-3.226-1.113-9.074-1.07-12.695.04-3.621.649-9.793 1.367-13.399.715-3.605 2.442-9.41 3.793-12.597 1.352-3.192 4.07-7.973 5.946-10.387 1.875-2.414 5.34-5.64 7.566-7.008 2.227-1.363 6.117-2.672 8.488-2.836 2.371-.168 6.313.59 8.598 1.64 2.289 1.056 7.894 5.942 7.894 5.942"/></g><g clip-path="url(#l)"><path fill="none" stroke="#000" stroke-miterlimit="10" stroke-width=".7936685400000001" d="M186.613 64.04s-2.683 7.28-3.984 9.37c-1.3 2.086-3.805 4.703-5.39 5.676-1.587.977-4.391 1.602-6.048 1.355-1.652-.246-4.382-1.687-5.878-3.128-1.497-1.438-3.778-4.782-4.91-7.254-1.133-2.473-2.649-7.34-3.247-10.567-.601-3.226-1.113-9.074-1.074-12.695.043-3.621.652-9.793 1.367-13.399.719-3.605 2.446-9.41 3.797-12.597 1.352-3.192 4.067-7.973 5.942-10.387 1.875-2.414 5.34-5.64 7.57-7.008 2.226-1.363 6.117-2.672 8.488-2.836 2.371-.168 6.309.59 8.598 1.64 2.289 1.056 7.89 5.942 7.89 5.942"/></g><g clip-path="url(#m)"><path fill="none" stroke="#000" stroke-miterlimit="10" stroke-width=".7936685400000001" d="M184.414.523s2.094.118 2.89.254c.798.141 2.075.477 2.86.75.785.278 2.035.832 2.8 1.243.763.41 1.974 1.18 2.708 1.718.734.54 1.89 1.504 2.586 2.168.7.66 1.789 1.82 2.441 2.594.653.773 1.668 2.11 2.27 2.988a52.002 52.002 0 0 1 2.07 3.344 59.259 59.259 0 0 1 1.86 3.656 71.087 71.087 0 0 1 1.62 3.926 75.563 75.563 0 0 1 1.372 4.14 77.3 77.3 0 0 1 1.113 4.31 88.24 88.24 0 0 1 .844 4.421c.195 1.235.566 4.477.566 4.477"/></g><g clip-path="url(#n)"><path fill="none" stroke="#000" stroke-miterlimit="10" stroke-width=".7936685400000001" d="M12.398 40.527s.555-4.539.872-6.254a84.516 84.516 0 0 1 1.406-6.105c.46-1.648 1.32-4.25 1.922-5.797.597-1.547 1.672-3.945 2.402-5.351.727-1.403 2-3.543 2.84-4.774.84-1.226 2.285-3.055 3.222-4.074.942-1.024 2.528-2.492 3.543-3.281 1.02-.79 2.715-1.868 3.79-2.403 1.074-.539 2.847-1.195 3.957-1.468C37.46.746 39.27.527 40.39.527c1.12-.004 2.93.22 4.039.489 1.11.27 2.883.925 3.957 1.46 1.074.536 2.773 1.614 3.789 2.403 1.02.785 3.543 3.273 3.543 3.273"/></g><path fill="none" stroke="#000" stroke-miterlimit="10" stroke-width=".7936685400000001" d="M12.398 40.527v80.008M212.414 40.527v80.008"/><g clip-path="url(#o)"><path fill="none" stroke="#000" stroke-miterlimit="10" stroke-width=".7936685400000001" d="M216.418 124.535a4.003 4.003 0 0 0-8.004 0 4 4 0 0 0 4 4c2.211 0 4.004-1.789 4.004-4Zm0 0"/></g><g clip-path="url(#p)"><path fill="none" stroke="#000" stroke-miterlimit="10" stroke-width=".7936685400000001" d="M16.398 124.535a4 4 0 1 0-8 0 4 4 0 0 0 8 0Zm0 0"/></g></svg>