<svg xmlns="http://www.w3.org/2000/svg" width="405.446" height="434.694"><defs><clipPath id="a"><path d="M196 172h36v262.246h-36Zm0 0"/></clipPath><clipPath id="b"><path d="M196 421h36v13.246h-36Zm0 0"/></clipPath><clipPath id="c"><path d="M196 365h36v69.246h-36Zm0 0"/></clipPath></defs><g clip-path="url(#a)"><path fill="none" stroke="#000" stroke-linecap="round" stroke-linejoin="round" stroke-miterlimit="10" stroke-width=".99464544" d="M197.266 433.746V207.274l16.984-33.97m-5.66 249.118V195.949l5.66-22.644m16.984 249.117V195.949l-16.984-22.644m5.664 260.441V207.274l-5.664-33.97"/></g><path fill="none" stroke="#000" stroke-linecap="round" stroke-linejoin="round" stroke-miterlimit="10" stroke-width="1.9902895200000001" d="M214.25 201.613V60.067"/><path fill="none" stroke="#000" stroke-linecap="round" stroke-linejoin="round" stroke-miterlimit="10" stroke-width=".99464544" d="m197.266 207.274 33.968-11.325m-11.32 11.325-11.324-11.325"/><g clip-path="url(#b)"><path fill="none" stroke="#000" stroke-linecap="round" stroke-linejoin="round" stroke-miterlimit="10" stroke-width=".99464544" d="M197.266 433.746h22.648l11.32-11.324H208.59Zm0 0"/></g><path fill="none" stroke="#000" stroke-linecap="round" stroke-linejoin="round" stroke-miterlimit="10" stroke-width=".99464544" d="M197.266 377.129h22.648l11.32-11.324H208.59ZM197.266 320.512h22.648l11.32-11.324H208.59ZM197.266 263.89h22.648l11.32-11.32H208.59ZM197.266 207.274h22.648l11.32-11.325H208.59Zm0 0"/><g clip-path="url(#c)"><path fill="none" stroke="#000" stroke-linecap="round" stroke-linejoin="round" stroke-miterlimit="10" stroke-width=".99464544" d="m197.266 433.746 22.648-56.617m0 56.617 11.32-67.941m0 56.617-22.644-56.617m0 56.617-11.324-45.293"/></g><path fill="none" stroke="#000" stroke-linecap="round" stroke-linejoin="round" stroke-miterlimit="10" stroke-width=".99464544" d="m197.266 377.129 22.648-56.617m0 56.617 11.32-67.941m0 56.617-22.644-56.617m0 56.617-11.324-45.293M197.266 320.512l22.648-56.621m0 56.62 11.32-67.94m0 56.617L208.59 252.57m0 56.618-11.324-45.297M197.266 263.89l22.648-56.616m0 56.617 11.32-67.942m0 56.621-22.644-56.62m0 56.62-11.324-45.296"/><path fill="none" stroke="#000" stroke-linecap="round" stroke-linejoin="round" stroke-miterlimit="10" stroke-width="1.59183216" d="M348.008 60.082H50.774"/><path fill="none" stroke="#000" stroke-linecap="round" stroke-linejoin="round" stroke-miterlimit="10" stroke-width=".99464544" d="M294.93 113.16 401.086 7.004m-259.023 97.664 89.171-89.172M88.992 102.543l84.922-84.922m-163.48 82.801 80.68-80.68m104.03 80.54v.28c0 3.438 1.973 4.258 4.403 1.825l84.61-84.61c2.433-2.433 4.405-7.19 4.405-10.632v-.281c0-3.442-1.972-4.258-4.406-1.825l-84.61 84.61c-2.429 2.433-4.401 7.191-4.401 10.632m0 0"/><path fill="none" stroke="#000" stroke-linecap="round" stroke-linejoin="round" stroke-miterlimit="10" stroke-width="4.97422584" d="M237.61 60.082h8.488"/></svg>