<svg xmlns="http://www.w3.org/2000/svg" xmlns:xlink="http://www.w3.org/1999/xlink" width="227.276" height="129.603"><defs><path id="b" d="M6.484-2.562h-.25c-.25 1.53-.484 2.25-2.187 2.25H2.719c-.469 0-.485-.063-.485-.391V-3.36h.891c.969 0 1.078.312 1.078 1.156h.25v-2.625h-.25c0 .86-.11 1.156-1.078 1.156h-.89v-2.375c0-.328.015-.406.484-.406H4c1.531 0 1.797.547 1.953 1.937h.25L5.922-6.75H.328v.297h.235c.765 0 .78.11.78.469v5.203c0 .36-.015.469-.78.469H.328V0h5.735Zm0 0"/><path id="c" d="M3.625-3.781c0-.328-.312-.61-.75-.61-.719 0-1.078.657-1.219 1.094V-4.39l-1.375.11v.312c.688 0 .766.063.766.547V-.75c0 .438-.11.438-.766.438V0l1.125-.031c.407 0 .875 0 1.266.031v-.312h-.203c-.735 0-.766-.11-.766-.47v-1.53c0-.985.422-1.86 1.172-1.86.078 0 .094 0 .11.016a.426.426 0 0 0-.22.375c0 .281.204.437.422.437.188 0 .438-.125.438-.437m0 0"/><path id="d" d="M5.234 0v-.312c-.687 0-.765-.063-.765-.547v-6.032l-1.438.11v.297c.703 0 .781.078.781.562v2.14a1.6 1.6 0 0 0-1.265-.609c-1.172 0-2.203.97-2.203 2.25 0 1.266.969 2.25 2.094 2.25.64 0 1.093-.343 1.343-.656V.11ZM3.781-1.172c0 .172 0 .203-.11.36-.296.484-.75.703-1.171.703-.453 0-.812-.266-1.047-.641-.266-.406-.297-.969-.297-1.375 0-.375.032-.969.313-1.406.203-.313.593-.64 1.125-.64.344 0 .765.14 1.078.593.11.172.11.187.11.375Zm0 0"/><path id="e" d="M4.125-1.187c0-.094-.078-.11-.125-.11-.094 0-.11.047-.14.14C3.515-.14 2.624-.14 2.53-.14c-.5 0-.906-.296-1.125-.671-.297-.47-.297-1.125-.297-1.485h2.766c.219 0 .25 0 .25-.203 0-.984-.531-1.953-1.781-1.953C1.188-4.453.28-3.422.28-2.187.281-.86 1.328.108 2.47.108 3.672.11 4.125-1 4.125-1.187M3.469-2.5h-2.36C1.172-3.984 2-4.234 2.344-4.234c1.031 0 1.125 1.343 1.125 1.734m0 0"/><path id="f" d="M4.953-1.844c0-1-.656-1.812-1.484-2.015l-1.266-.297a1.308 1.308 0 0 1-1.015-1.266A1.3 1.3 0 0 1 2.5-6.734c1.656 0 1.875 1.64 1.938 2.078.015.062.015.125.125.125.125 0 .125-.047.125-.235v-2c0-.171 0-.234-.11-.234-.062 0-.078 0-.14.125l-.36.563C3.781-6.594 3.375-7 2.5-7 1.39-7 .563-6.125.563-5.078a1.9 1.9 0 0 0 1.296 1.812c.11.047.61.172 1.313.329.265.078.562.14.844.515.203.25.312.578.312.906 0 .704-.5 1.422-1.344 1.422-.28 0-1.03-.047-1.562-.531-.578-.531-.61-1.172-.61-1.531C.798-2.25.72-2.25.688-2.25c-.125 0-.125.063-.125.25v1.984c0 .172 0 .235.11.235.062 0 .078-.016.14-.125 0 0 .032-.047.36-.578.312.343.937.703 1.828.703 1.156 0 1.953-.969 1.953-2.063m0 0"/><path id="g" d="M7.11 0v-.312h-.235c-.766 0-.781-.11-.781-.47v-5.234c0-.359.015-.468.781-.468h.234v-.297c-.343.031-1.078.031-1.453.031s-1.125 0-1.468-.031v.297h.234c.766 0 .781.109.781.468v2.329H2.234v-2.329c0-.359.016-.468.782-.468h.25v-.297c-.36.031-1.094.031-1.47.031-.374 0-1.124 0-1.468-.031v.297h.235c.765 0 .78.109.78.468V-.78c0 .36-.015.469-.78.469H.328V0c.344-.031 1.078-.031 1.453-.031.39 0 1.125 0 1.485.031v-.312h-.25c-.766 0-.782-.11-.782-.47v-2.593h2.97v2.594c0 .36-.016.469-.782.469h-.234V0C4.53-.031 5.266-.031 5.64-.031s1.125 0 1.468.031m0 0"/><clipPath id="a"><path d="M0 76h224v53.2H0Zm0 0"/></clipPath></defs><g clip-path="url(#a)"><path fill="#BFBFBF" d="m0 110.02 165.707-33.141 57.543 19.18-165.707 33.14Zm0 0"/></g><use xlink:href="#b" x="52.428" y="113.411"/><use xlink:href="#c" x="59.191" y="113.411"/><use xlink:href="#d" x="63.084" y="113.411"/><use xlink:href="#e" x="68.606" y="113.411"/><path fill="none" stroke="#7F7F7F" stroke-miterlimit="10" stroke-width=".79446554" d="m28.77 69.262 160.683-32.137"/><path fill="#7F7F7F" stroke="#7F7F7F" stroke-miterlimit="10" stroke-width=".79444163" d="m193.46 36.324-4.148-.914.672 3.352Zm0 0"/><use xlink:href="#f" x="198.184" y="39.512"/><path fill="none" stroke="#000" stroke-miterlimit="10" stroke-width=".79446554" d="m28.77 69.262 1.523-3.348 1.52-3.332 1.523-3.309 1.52-3.27 1.523-3.226 1.52-3.164 1.523-3.09 1.52-3.007 1.523-2.918 1.52-2.809 1.523-2.695 1.52-2.57 1.523-2.442 1.52-2.297 1.523-2.144 1.52-1.993 1.523-1.824 1.52-1.656 1.523-1.48 1.52-1.301 1.523-1.114 1.52-.93 1.523-.734 1.523-.547 1.52-.355 1.523-.156 1.52.031 1.523.223 1.52.414 1.523.597 1.52.782 1.523.96 1.52 1.13 1.523 1.3 1.52 1.461 1.523 1.613 1.52 1.758 1.523 1.899 1.52 2.027 1.523 2.145 1.52 2.254 1.523 2.355 1.52 2.441 1.523 2.52 1.52 2.586 1.523 2.64 1.52 2.684 1.523 2.715 1.52 2.73 1.523 2.739 1.52 2.73L107.89 61l1.52 2.684 1.523 2.64 1.52 2.586 1.523 2.52 1.52 2.445 1.523 2.355 1.52 2.254 1.523 2.145 1.52 2.027 1.523 1.899 1.519 1.761 1.523 1.618 1.524 1.457 1.52 1.304 1.523 1.133 1.52.957 1.523.785 1.52.598 1.523.418 1.52.223 1.523.035 1.52-.156 1.523-.356 1.52-.543 1.523-.734 1.52-.926 1.523-1.117 1.52-1.297 1.523-1.48 1.52-1.653 1.523-1.824 1.52-1.988 1.523-2.145 1.52-2.297 1.523-2.437 1.52-2.57 1.523-2.696 1.52-2.809 1.523-2.914 1.52-3.007 1.522-3.09 1.52-3.164 1.523-3.227 1.52-3.27 1.523-3.308 1.52-3.332 1.523-3.344"/><path fill="none" stroke="#000" stroke-dasharray="3.9724273820000002 1.9862136910000001" stroke-miterlimit="10" stroke-width=".79446554" d="m28.77 69.262 3.347.3 3.336.305 3.324.293 3.305.29 3.273.28 3.235.27 3.195.25 3.145.238 3.086.219 3.027.195 2.957.176 2.879.149 2.805.12 2.718.094 2.625.067 2.532.031h2.437l2.332-.035 2.227-.066 2.117-.106 2.008-.144 1.898-.176 1.781-.219 1.664-.258 1.551-.293 1.434-.336 1.32-.37 1.207-.411 1.09-.445.98-.485.872-.523.761-.555.66-.594.56-.625.464-.656.371-.687.281-.72.203-.741.121-.774.051-.793-.011-.816-.075-.836-.125-.852-.175-.87-.211-.883-.246-.891-.27-.902-.29-.91-.3-.91-.305-.915-.3-.91-.29-.906-.269-.903-.246-.894-.215-.883-.172-.867-.125-.856-.074-.836-.016-.816.051-.793.121-.773.203-.743.282-.718.37-.688.462-.656.558-.629.66-.59.762-.558.867-.52.98-.484 1.09-.45 1.204-.41 1.32-.37 1.434-.337 1.55-.293 1.665-.257 1.78-.22 1.895-.179 2.008-.14 2.117-.106 2.227-.07 2.332-.035h2.434l2.53.035 2.626.062 2.719.094 2.8.121 2.88.148 2.956.176 3.028.196 3.086.218 3.144.239 3.191.25 3.239.27 3.273.276 3.301.29 3.324.296 3.34.301 3.344.305"/><use xlink:href="#b" x="63.049" y="10.072"/><use xlink:href="#g" x="82.501" y="83.034"/><path fill="none" stroke="#000" stroke-miterlimit="10" stroke-width=".79446554" d="M41.324 66.75V47.898"/><path stroke="#000" stroke-miterlimit="10" stroke-width=".79446554" d="m41.324 43.812-1.71 3.887h3.421Zm0 0"/><path fill="none" stroke="#000" stroke-dasharray="3.9724273820000002 1.9862136910000001" stroke-miterlimit="10" stroke-width=".79446554" d="m41.324 66.75 9.524 3.176"/><path stroke="#000" stroke-miterlimit="10" stroke-width=".79443366" d="m54.723 71.215-3.145-2.848-.539 1.621-.543 1.621Zm0 0"/><path fill="none" stroke="#000" stroke-miterlimit="10" stroke-width=".79446554" d="M53.879 64.238V27.836"/><path stroke="#000" stroke-miterlimit="10" stroke-width=".79446554" d="m53.879 23.75-1.711 3.887h3.418Zm0 0"/><path fill="none" stroke="#000" stroke-dasharray="3.9724273820000002 1.9862136910000001" stroke-miterlimit="10" stroke-width=".79446554" d="m53.879 64.238 20.055 6.688"/><path stroke="#000" stroke-miterlimit="10" stroke-width=".79443366" d="m77.809 72.215-3.145-2.852-.543 1.625-.539 1.621Zm0 0"/><path fill="none" stroke="#000" stroke-miterlimit="10" stroke-width=".79446554" d="M66.43 61.727V18.898"/><path stroke="#000" stroke-miterlimit="10" stroke-width=".79446554" d="m66.43 14.816-1.707 3.887h3.418Zm0 0"/><path fill="none" stroke="#000" stroke-dasharray="3.9724273820000002 1.9862136910000001" stroke-miterlimit="10" stroke-width=".79446554" d="m66.43 61.727 23.914 7.972"/><path stroke="#000" stroke-miterlimit="10" stroke-width=".79443366" d="m94.219 70.988-3.149-2.847-.539 1.62-.543 1.622Zm0 0"/><path fill="none" stroke="#000" stroke-miterlimit="10" stroke-width=".79446554" d="M78.984 59.219V22.812"/><path stroke="#000" stroke-miterlimit="10" stroke-width=".79446554" d="m78.984 18.73-1.71 3.883h3.421Zm0 0"/><path fill="none" stroke="#000" stroke-dasharray="3.9724273820000002 1.9862136910000001" stroke-miterlimit="10" stroke-width=".79446554" d="m78.984 59.219 20.059 6.683"/><path stroke="#000" stroke-miterlimit="10" stroke-width=".79443366" d="m102.918 67.195-3.148-2.851-.54 1.62-.543 1.622Zm0 0"/><path fill="none" stroke="#000" stroke-miterlimit="10" stroke-width=".79446554" d="M91.54 56.707V37.855"/><path stroke="#000" stroke-miterlimit="10" stroke-width=".79446554" d="m91.54 33.77-1.712 3.886h3.422Zm0 0"/><path fill="none" stroke="#000" stroke-dasharray="3.9724273820000002 1.9862136910000001" stroke-miterlimit="10" stroke-width=".79446554" d="m91.54 56.707 9.523 3.176"/><path stroke="#000" stroke-miterlimit="10" stroke-width=".79443366" d="m104.938 61.172-3.145-2.848-.54 1.621-.542 1.621Zm0 0"/><path fill="none" stroke="#000" stroke-miterlimit="10" stroke-width=".79446554" d="M116.645 51.684v18.855"/><path stroke="#000" stroke-miterlimit="10" stroke-width=".79446554" d="m116.645 74.621 1.71-3.883h-3.418Zm0 0"/><path fill="none" stroke="#000" stroke-dasharray="3.9724273820000002 1.9862136910000001" stroke-miterlimit="10" stroke-width=".79446554" d="m116.645 51.684-9.524-3.172"/><path stroke="#000" stroke-miterlimit="10" stroke-width=".79443366" d="m103.246 47.219 3.145 2.851.543-1.62.539-1.626Zm0 0"/><path fill="none" stroke="#000" stroke-miterlimit="10" stroke-width=".79446554" d="M129.2 49.176v36.402"/><path stroke="#000" stroke-miterlimit="10" stroke-width=".79446554" d="m129.2 89.664 1.71-3.887h-3.422Zm0 0"/><path fill="none" stroke="#000" stroke-dasharray="3.9724273820000002 1.9862136910000001" stroke-miterlimit="10" stroke-width=".79446554" d="m129.2 49.176-20.055-6.688"/><path stroke="#000" stroke-miterlimit="10" stroke-width=".79443366" d="m105.27 41.2 3.144 2.847.54-1.621.542-1.621Zm0 0"/><path fill="none" stroke="#000" stroke-miterlimit="10" stroke-width=".79446554" d="M141.754 46.664v42.828"/><path stroke="#000" stroke-miterlimit="10" stroke-width=".79446554" d="m141.754 93.578 1.707-3.887h-3.418Zm0 0"/><path fill="none" stroke="#000" stroke-dasharray="3.9724273820000002 1.9862136910000001" stroke-miterlimit="10" stroke-width=".79446554" d="m141.754 46.664-23.91-7.969"/><path stroke="#000" stroke-miterlimit="10" stroke-width=".79443366" d="m113.969 37.402 3.144 2.852.54-1.621.542-1.625Zm0 0"/><path fill="none" stroke="#000" stroke-miterlimit="10" stroke-width=".79446554" d="M154.309 44.152V80.56"/><path stroke="#000" stroke-miterlimit="10" stroke-width=".79446554" d="m154.309 84.64 1.707-3.886h-3.418Zm0 0"/><path fill="none" stroke="#000" stroke-dasharray="3.9724273820000002 1.9862136910000001" stroke-miterlimit="10" stroke-width=".79446554" d="M154.309 44.152 134.25 37.47"/><path stroke="#000" stroke-miterlimit="10" stroke-width=".79443366" d="m130.375 36.176 3.145 2.851.542-1.62.54-1.622Zm0 0"/><path fill="none" stroke="#000" stroke-miterlimit="10" stroke-width=".79446554" d="M166.86 41.645v18.851"/><path stroke="#000" stroke-miterlimit="10" stroke-width=".79446554" d="m166.86 64.582 1.71-3.887h-3.418Zm0 0"/><path fill="none" stroke="#000" stroke-dasharray="3.9724273820000002 1.9862136910000001" stroke-miterlimit="10" stroke-width=".79446554" d="m166.86 41.645-9.524-3.176"/><path stroke="#000" stroke-miterlimit="10" stroke-width=".79443366" d="m153.46 37.176 3.145 2.851.54-1.62.542-1.626Zm0 0"/></svg>