<svg xmlns="http://www.w3.org/2000/svg" xmlns:xlink="http://www.w3.org/1999/xlink" width="232.593" height="116.72"><defs><path id="b" d="M6.484-2.562h-.25c-.25 1.53-.484 2.25-2.187 2.25H2.719c-.469 0-.485-.063-.485-.391V-3.36h.891c.969 0 1.078.312 1.078 1.156h.25v-2.625h-.25c0 .86-.11 1.156-1.078 1.156h-.89v-2.375c0-.328.015-.406.484-.406H4c1.531 0 1.797.547 1.953 1.937h.25L5.922-6.75H.328v.297h.235c.765 0 .78.11.78.469v5.203c0 .36-.015.469-.78.469H.328V0h5.735Zm0 0"/><path id="c" d="M3.625-3.781c0-.328-.312-.61-.75-.61-.719 0-1.078.657-1.219 1.094V-4.39l-1.375.11v.312c.688 0 .766.063.766.547V-.75c0 .438-.11.438-.766.438V0l1.125-.031c.407 0 .875 0 1.266.031v-.312h-.203c-.735 0-.766-.11-.766-.47v-1.53c0-.985.422-1.86 1.172-1.86.078 0 .094 0 .11.016a.426.426 0 0 0-.22.375c0 .281.204.437.422.437.188 0 .438-.125.438-.437m0 0"/><path id="d" d="M5.234 0v-.312c-.687 0-.765-.063-.765-.547v-6.032l-1.438.11v.297c.703 0 .781.078.781.562v2.14a1.6 1.6 0 0 0-1.265-.609c-1.172 0-2.203.97-2.203 2.25 0 1.266.969 2.25 2.094 2.25.64 0 1.093-.343 1.343-.656V.11ZM3.781-1.172c0 .172 0 .203-.11.36-.296.484-.75.703-1.171.703-.453 0-.812-.266-1.047-.641-.266-.406-.297-.969-.297-1.375 0-.375.032-.969.313-1.406.203-.313.593-.64 1.125-.64.344 0 .765.14 1.078.593.11.172.11.187.11.375Zm0 0"/><path id="e" d="M4.125-1.187c0-.094-.078-.11-.125-.11-.094 0-.11.047-.14.14C3.515-.14 2.624-.14 2.53-.14c-.5 0-.906-.296-1.125-.671-.297-.47-.297-1.125-.297-1.485h2.766c.219 0 .25 0 .25-.203 0-.984-.531-1.953-1.781-1.953C1.188-4.453.28-3.422.28-2.187.281-.86 1.328.108 2.47.108 3.672.11 4.125-1 4.125-1.187M3.469-2.5h-2.36C1.172-3.984 2-4.234 2.344-4.234c1.031 0 1.125 1.343 1.125 1.734m0 0"/><path id="f" d="M4.953-1.844c0-1-.656-1.812-1.484-2.015l-1.266-.297a1.308 1.308 0 0 1-1.015-1.266A1.3 1.3 0 0 1 2.5-6.734c1.656 0 1.875 1.64 1.938 2.078.015.062.015.125.125.125.125 0 .125-.047.125-.235v-2c0-.171 0-.234-.11-.234-.062 0-.078 0-.14.125l-.36.563C3.781-6.594 3.375-7 2.5-7 1.39-7 .563-6.125.563-5.078a1.9 1.9 0 0 0 1.296 1.812c.11.047.61.172 1.313.329.265.078.562.14.844.515.203.25.312.578.312.906 0 .704-.5 1.422-1.344 1.422-.28 0-1.03-.047-1.562-.531-.578-.531-.61-1.172-.61-1.531C.798-2.25.72-2.25.688-2.25c-.125 0-.125.063-.125.25v1.984c0 .172 0 .235.11.235.062 0 .078-.016.14-.125 0 0 .032-.047.36-.578.312.343.937.703 1.828.703 1.156 0 1.953-.969 1.953-2.063m0 0"/><path id="g" d="M7.11 0v-.312h-.235c-.766 0-.781-.11-.781-.47v-5.234c0-.359.015-.468.781-.468h.234v-.297c-.343.031-1.078.031-1.453.031s-1.125 0-1.468-.031v.297h.234c.766 0 .781.109.781.468v2.329H2.234v-2.329c0-.359.016-.468.782-.468h.25v-.297c-.36.031-1.094.031-1.47.031-.374 0-1.124 0-1.468-.031v.297h.235c.765 0 .78.109.78.468V-.78c0 .36-.015.469-.78.469H.328V0c.344-.031 1.078-.031 1.453-.031.39 0 1.125 0 1.485.031v-.312h-.25c-.766 0-.782-.11-.782-.47v-2.593h2.97v2.594c0 .36-.016.469-.782.469h-.234V0C4.53-.031 5.266-.031 5.64-.031s1.125 0 1.468.031m0 0"/><clipPath id="a"><path d="M23 68h206v48.441H23Zm0 0"/></clipPath></defs><g clip-path="url(#a)"><path fill="#BFBFBF" d="M23.242 98.781 175.82 68.266l52.985 17.66L76.227 116.44Zm0 0"/></g><use xlink:href="#b" x="69.573" y="102.175"/><use xlink:href="#c" x="76.341" y="102.175"/><use xlink:href="#d" x="80.237" y="102.175"/><use xlink:href="#e" x="85.763" y="102.175"/><path fill="none" stroke="#7F7F7F" stroke-miterlimit="10" stroke-width=".7950951700000001" d="m49.734 61.25 157.954-31.59"/><path fill="#7F7F7F" stroke="#7F7F7F" stroke-miterlimit="10" stroke-width=".79506329" d="m211.7 28.86-4.153-.915.336 1.676.336 1.68Zm0 0"/><use xlink:href="#f" x="216.424" y="32.05"/><path fill="none" stroke="#000" stroke-dasharray="3.975575611 1.9877878055" stroke-miterlimit="10" stroke-width=".7950951700000001" d="m69.602 67.875.265-1.312.235-1.317.207-1.324.18-1.328.148-1.332.125-1.328.093-1.332.07-1.325.04-1.32.015-1.316-.011-1.305-.04-1.297-.062-1.281-.086-1.27-.113-1.254L70.531 47l-.16-1.219-.183-1.195-.204-1.176-.226-1.148-.246-1.125-.27-1.098-.285-1.066-.3-1.04-.325-1.007-.336-.977-.355-.941-.368-.906-.382-.868-.395-.832-.41-.793-.418-.754-.43-.71-.437-.672-.446-.625-.449-.586-.46-.54-.462-.495-.468-.45-.473-.402-.469-.36-.472-.308-.473-.266-.469-.21-.469-.169-.464-.12-.461-.07-.453-.024-.446.027-.441.07-.43.125-.418.168-.41.215-.398.262-.387.308-.371.356-.356.402-.34.442-.324.492-.308.531-.29.574-.269.614-.25.66-.23.695-.211.73-.184.774-.168.805-.14.843-.118.875-.09.91-.07.938-.043.969-.016.996.008 1.023.04 1.047.062 1.07.09 1.094.117 1.114.144 1.128.176 1.149.203 1.164.23 1.176.259 1.187.285 1.2.316 1.203.344 1.214.371 1.215.398 1.219.43 1.219.453 1.219.485 1.214.507 1.211.536 1.207.566 1.196.586 1.187.617 1.172.637 1.16.664 1.149.687 1.125.715 1.109.73 1.09.759 1.066.777 1.047.8 1.016.817.992.84.965.855.93.875.906.891.867.906.84.922.797.938.765.945.727.96.691.974.649.984.609.992.566 1 .524 1.008.484 1.012.438 1.02.39 1.023.348 1.023.3 1.027.255 1.028.207 1.027.16 1.027.113 1.024.067 1.02.015 1.019-.031 1.008-.078 1.004-.13 1-.175.988-.222.976-.27.97-.32.952-.364.946-.41.93-.46.913-.5.899-.548.887-.593.863-.637.851-.676.829-.719.808-.761.79-.797.769-.84.746-.875.726-.914.7-.945.68-.98.652-1.013.629-1.046.601-1.075.578-1.101.551-1.13.527-1.151.496-1.18.47-1.2.445-1.222.414-1.238.386-1.254.36-1.274.332-1.285.3-1.297.278-1.304.246-1.317.215-1.324.191-1.324.16-1.332.137-1.328.102-1.332.082-1.329.05-1.32.024-1.32-.004-1.309-.027-1.297-.055-1.289-.078-1.273-.102-1.262-.129-1.242-.152-1.223-.172-1.207-.2-1.18-.218-1.16-.238-1.132-.258-1.11-.277-1.078-.297-1.05-.317-1.02-.332-.989-.347-.953-.364-.918-.378-.886-.391-.844-.402-.809-.414-.765-.426-.727-.434-.687-.441-.645-.453-.601-.457-.555-.461-.512-.465-.469-.469-.418-.473-.375-.468-.328-.473-.28-.473-.231-.468-.188-.465-.137-.461-.09-.457-.039-.45.008-.44.055-.438.102-.422.152-.414.195-.403.246-.39.293-.375.34-.364.383-.347.426-.328.472-.317.516-.297.559-.273.601-.262.64-.234.684-.219.72-.195.757-.172.793-.149.828-.128.863-.102.899-.078.925-.05.958-.028.988v1.012l.027 1.039.055 1.062.078 1.082.105 1.106.137 1.125.164 1.144.192 1.156.218 1.172.25 1.184.274 1.195.304 1.203.336 1.207.36 1.215.39 1.219.414 1.219.446 1.218.472 1.22.5 1.21.528 1.207.55 1.203.583 1.188.601 1.18.633 1.167.652 1.149.68 1.137.703 1.117.727 1.094.75 1.078.77 1.05.788 1.028.813 1.004.832.972.847.946.868.914.882.883.903.847.918.817.93.777.945.742.957.703.965.664.98.625.988.582.996.54 1.008.5 1.008.453 1.02.41 1.02.363 1.023.316 1.027.274 1.027.226 1.028.176 1.027.133 1.027.082 1.02.035 1.02-.015 1.011-.06 1.008-.108 1-.157.992-.207.98-.254.973-.3.961-.348.945-.395.938-.441.918-.484.906-.532.89-.574.872-.621.86-.66.835-.703.817-.746.797-.785.777-.825.754-.863.734-.898.707-.934.688-.965.664-1.004.636-1.031.614-1.063.586-1.093.562-1.117.535-1.145.508-1.172.48-1.191.454-1.215.426-1.23.398-1.25.367-1.266.344-1.281.312-1.293.286-1.301.253-1.313.23-1.32.2-1.324.172-1.332.145-1.328.117-1.332.086-1.329.062-1.324.035-1.32.008-1.313-.02-1.304-.042-1.29-.07-1.28-.094-1.266-.118-1.25-.144-1.23-.168-1.212-.188-1.191-.21-1.168-.231-1.145-.25-1.117-.273-1.09-.29-1.062-.308-1.031-.324-1-.344-.965-.356-.934-.375-.894-.382-.86-.403-.824-.41-.781-.418-.742-.433-.703-.438-.66-.45-.618-.452-.57-.461-.531-.465-.485-.469-.437-.469-.39-.472-.349-.473-.296-.469-.25-.472-.204-.465-.156-.465-.105-.457-.059-.453-.012-.445.04-.438.085-.426.133-.418.18-.406.227-.398.277-.38.32-.366.363-.356.415-.336.453-.32.5-.301.547-.285.582-.266.625-.246.668-.222.703-.204.746-.183.781-.156.816-.137.848-.11.887-.09.914-.058.95-.039.972-.008 1.004.016 1.027.043 1.055.07 1.078.098 1.097.125 1.118.152 1.136.18 1.153.21 1.164.235 1.18.27 1.19.293 1.2.32 1.207.351 1.215.38 1.215.406 1.219.433 1.222.461 1.215.492 1.215.516 1.21.543 1.204.57 1.195.594 1.18.621 1.172.648 1.156.668 1.14.696 1.126.715 1.105.742 1.082.762 1.063.78 1.039.805 1.008.825.984.84.957.863.926.879.894.894.864.91.828.926.789.938.758.953.718.965.676.976.64.985.598.992.555 1.004.516 1.007.472 1.016.426 1.02.379 1.023.336 1.024.289 1.027.242 1.027.2 1.031.144 1.024.102 1.023.054 1.02.004 1.015-.043 1.008-.09 1.004-.14.996-.188.985-.238.976-.281.965-.332.953-.375.938-.422.925-.473.91-.512.9-.558.878-.606.863-.644.844-.688.824-.73.805-.77.785-.808.762-.848.742-.887.719-.918.695-.957.668-.988.648-1.023.622-1.051.597-1.082.57-1.11.547-1.136.516-1.157.492-1.187.465-1.203.434-1.227.41-1.242.379-1.262.351-1.273.324-1.29.297-1.3"/><path fill="none" stroke="#000" stroke-miterlimit="10" stroke-width=".7950951700000001" d="m49.734 28.137-.472-.282-.469-.234-.473-.184-.465-.14-.46-.09-.458-.043-.449.004-.441.055-.434.101-.426.149-.414.199-.402.242-.39.29-.38.339-.359.379-.347.43-.333.468-.316.516-.297.555-.277.601-.258.64-.238.68-.219.72-.195.753-.172.793-.153.828-.125.864-.101.894-.082.926-.05.957-.028.984v1.012l.023 1.039.051 1.063.082 1.082.105 1.105.133 1.125.164 1.14.192 1.157.219 1.172.246 1.183.273 1.192.305 1.203.332 1.21.36 1.216.39 1.218.414 1.22.445 1.218.469 1.219.5 1.21.527 1.208.551 1.203.578 1.187.606 1.18.629 1.168.652 1.152.68 1.133.703 1.117.722 1.098.75 1.078.766 1.055.793 1.027.809 1 .832.977.847.945.867.918.883.883.903.847.914.817.93.781.945.742.957.703.968.668.977.625.988.582.996.543 1.004.5 1.012.453 1.016.415 1.023.363 1.023.32 1.028.274 1.027.226 1.028.18 1.027.133 1.023.086 1.024.035 1.02-.012 1.011-.062 1.008-.106 1-.156.992-.203.98-.254.973-.297.961-.348.95-.39.933-.442.922-.484.906-.528.89-.574.872-.62.86-.661.835-.7.82-.741.797-.786.778-.824.753-.86.735-.898.71-.93.688-.968.664-1 .637-1.031.613-1.063.59-1.094.563-1.117.535-1.14.508-1.172.48-1.192.453-1.21.43-1.231.398-1.25.371-1.266.34-1.28.317-1.294.285-1.3.258-1.313.226-1.32.203-1.325.172-1.328.145-1.332.117-1.328.09-1.332.062-1.324.035-1.32.008-1.313-.015-1.3-.043-1.294-.07-1.281-.094-1.266-.118-1.25-.14-1.234-.168-1.211-.188-1.191-.207-1.168-.23-1.145-.25-1.121-.274-1.09-.289-1.062-.308-1.032-.324-1-.344-.968-.356-.934-.37-.898-.388-.86-.398-.824-.41-.781-.418-.746-.434-.703-.437-.66-.45-.622-.453-.574-.46-.527-.461-.489-.47-.437-.472-.395-.469-.347-.472-.297-.473-.254-.469-.203-.468-.16-.465-.11-.457-.058-.453-.012-.446.035-.437.086-.426.13-.418.179-.406.226-.399.274-.379.32-.37.363-.352.41-.34.454-.32.5-.301.543-.285.582-.266.625-.246.664-.227.703-.203.746-.183.777-.157.817-.136.847-.114.883-.09.914-.058.945-.039.977-.012 1 .016 1.031.043 1.051.07 1.078.094 1.098.125 1.117.152 1.133.18 1.152.207 1.164.238 1.18.266 1.191.293 1.2.32 1.207.348 1.21.379 1.22.406 1.218.434 1.219.46 1.219.489 1.214.515 1.211.543 1.203.567 1.192.594 1.183.62 1.172.645 1.16.672 1.141.691 1.125.715 1.106.742 1.082.762 1.062.781 1.04.805 1.01.82.985.844.957.86.93.878.895.895.863.91.828.922.793.941.758.95.718.965.68.976.64.984.598.993.559 1.004.516 1.007.472 1.012.426 1.02.383 1.023.336 1.027.293 1.028.246 1.027.195 1.027.149 1.028.101 1.023.055 1.02.008 1.015-.04 1.008-.09 1.004-.14.996-.183.985-.239.976-.28.965-.33.953-.37.941-.422.926-.469.91-.515.899-.555.879-.602.863-.644.844-.688.824-.726.805-.77.789-.808.761-.848.743-.883.718-.918.696-.957.672-.988.648-1.02.625-1.05.598-1.079.57-1.109.547-1.137.516-1.16.492-1.18.465-1.207.437-1.222.41-1.242.383-1.262.352-1.274.324-1.289.297-1.3.27-1.309.237-1.316.211-1.32.184-1.329.156-1.332.125-1.328.102-1.332.07-1.328.047-1.32.02-1.317-.008-1.305-.035-1.296-.059-1.286-.086-1.273-.11-1.254-.132-1.238-.156-1.223-.18-1.2-.2-1.175-.222-1.156-.242-1.129-.266-1.098-.281-1.074-.305-1.047-.316-1.011-.336-.98-.352-.946-.367-.91-.379-.875-.394-.836-.406-.801-.415-.758-.43-.719-.433-.675-.445-.637-.453-.59-.457-.547-.461-.504-.469-.457-.469-.41-.472-.363-.473-.317-.469-.273-.472-.219-.47-.18-.464-.125-.461-.078-.453-.027-.45.016-.44.066-.43.113-.422.16-.41.211-.403.254-.387.305-.375.348-.355.39-.344.438-.328.484-.308.527-.293.567-.274.61-.254.648-.234.691-.211.727-.191.765-.168.801-.145.84-.121.867-.094.906-.074.934-.047.965-.02.992.004 1.016.032 1.043.062 1.07.086 1.09.113 1.11.141 1.128.168 1.145.2 1.16.226 1.175.254 1.184.281 1.195.312 1.207.34 1.211.367 1.215.395 1.219.422 1.223.45 1.214.48 1.22.503 1.21.536 1.207.558 1.195.582 1.188.614 1.176.632 1.164.66 1.148.688 1.133.707 1.11.73 1.093.754 1.07.774 1.047.797 1.024.812.996.836.965.856.937.87.91.887.875.907.84.918.809.933.77.95.734.957.695.972.652.98.618.989.574 1 .531 1.008.488 1.011.442 1.016.402 1.024.352 1.023.308 1.027.262 1.028.215 1.027.168 1.027.12 1.028.071 1.02.028 1.015-.024 1.012-.074 1.007-.121.996-.168.989-.215.98-.262.969-.312.96-.36.946-.402.93-.453.918-.492.902-.543.887-.582.867-.633.852-.668.832-.715.812-.754.793-.793.774-.832.75-.87.726-.907.707-.942.68-.972.656-1.012.633-1.039.61-1.066.577-1.102.56-1.125.526-1.148.504-1.176.473-1.196.45-1.218.417-1.235.39-1.254.364-1.27.336-1.284.309-1.293.277-1.305.25-1.316.223-1.32.195-1.329.164-1.328.137-1.332.113-1.328.082-1.328.055-1.324.027-1.317.004-1.312-.024-1.301-.05-1.29-.075-1.276-.101-1.262-.125-1.246-.149-1.227-.167-1.207-.196-1.187-.215-1.16-.234-1.141-.258-1.11-.273-1.085-.297-1.055-.309-1.024-.332-.992-.344-.96-.363-.923-.375-.89-.387-.852-.402-.812-.414-.774-.422-.734-.433-.691-.442-.653-.449-.605-.453-.567-.465-.52-.465-.472-.469-.426-.468-.382-.473-.336"/><use xlink:href="#g" x="57.565" y="22.116"/><use xlink:href="#b" x="30.946" y="55.695"/><path fill="none" stroke="#000" stroke-dasharray="3.975575611 1.9877878055" stroke-miterlimit="10" stroke-width=".7950951700000001" d="m49.734 61.25 15.004 5.004"/><path stroke="#000" stroke-miterlimit="10" stroke-width=".79505532" d="M68.617 67.547 65.47 64.69l-.54 1.625-.542 1.622Zm0 0"/><path fill="none" stroke="#000" stroke-miterlimit="10" stroke-width=".7950951700000001" d="M49.734 61.25V33.266"/><path stroke="#000" stroke-miterlimit="10" stroke-width=".7950951700000001" d="m49.734 29.176-1.71 3.89h3.421Zm0 0"/><path fill="none" stroke="#000" stroke-dasharray="3.975575611 1.9877878055" stroke-miterlimit="10" stroke-width=".7950951700000001" d="M61.293 58.937V30.953"/><path stroke="#000" stroke-miterlimit="10" stroke-width=".7950951700000001" d="m61.293 26.863-1.711 3.89h3.422Zm0 0"/><path fill="none" stroke="#000" stroke-miterlimit="10" stroke-width=".7950951700000001" d="m61.293 58.937-15.004-5"/><path stroke="#000" stroke-miterlimit="10" stroke-width=".79505532" d="m42.41 52.645 3.149 2.851.543-1.621.539-1.625Zm0 0"/><path fill="none" stroke="#000" stroke-dasharray="3.975575611 1.9877878055" stroke-miterlimit="10" stroke-width=".7950951700000001" d="m72.852 56.629-15.004-5.004"/><path stroke="#000" stroke-miterlimit="10" stroke-width=".79505532" d="m53.969 50.332 3.148 2.856.543-1.626.54-1.62Zm0 0"/><path fill="none" stroke="#000" stroke-miterlimit="10" stroke-width=".7950951700000001" d="M72.852 56.629v27.984"/><path stroke="#000" stroke-miterlimit="10" stroke-width=".7950951700000001" d="m72.852 88.703 1.71-3.89h-3.421Zm0 0"/><path fill="none" stroke="#000" stroke-dasharray="3.975575611 1.9877878055" stroke-miterlimit="10" stroke-width=".7950951700000001" d="M84.41 54.316v27.985"/><path stroke="#000" stroke-miterlimit="10" stroke-width=".7950951700000001" d="m84.41 86.39 1.711-3.89H82.7Zm0 0"/><path fill="none" stroke="#000" stroke-miterlimit="10" stroke-width=".7950951700000001" d="m84.41 54.316 15.004 5"/><path stroke="#000" stroke-miterlimit="10" stroke-width=".79505532" d="m103.293 60.61-3.148-2.852-.54 1.62-.542 1.626Zm0 0"/><path fill="none" stroke="#000" stroke-dasharray="3.975575611 1.9877878055" stroke-miterlimit="10" stroke-width=".7950951700000001" d="m95.969 52.004 15.008 5"/><path stroke="#000" stroke-miterlimit="10" stroke-width=".79505532" d="m114.852 58.297-3.149-2.852-.539 1.625-.543 1.621Zm0 0"/><path fill="none" stroke="#000" stroke-miterlimit="10" stroke-width=".7950951700000001" d="M95.969 52.004V24.016"/><path stroke="#000" stroke-miterlimit="10" stroke-width=".7950951700000001" d="m95.969 19.93-1.711 3.89h3.422Zm0 0"/><path fill="none" stroke="#000" stroke-dasharray="3.975575611 1.9877878055" stroke-miterlimit="10" stroke-width=".7950951700000001" d="M107.527 49.691V21.707"/><path stroke="#000" stroke-miterlimit="10" stroke-width=".7950951700000001" d="m107.527 17.617-1.71 3.89h3.425Zm0 0"/><path fill="none" stroke="#000" stroke-miterlimit="10" stroke-width=".7950951700000001" d="m107.527 49.691-15.004-5"/><path stroke="#000" stroke-miterlimit="10" stroke-width=".79504735" d="m88.645 43.398 3.148 2.852.543-1.621.539-1.625Zm0 0"/><path fill="none" stroke="#000" stroke-dasharray="3.975575611 1.9877878055" stroke-miterlimit="10" stroke-width=".7950951700000001" d="m119.086 47.379-15.004-5"/><path stroke="#000" stroke-miterlimit="10" stroke-width=".79505532" d="m100.207 41.086 3.145 2.852.543-1.622.543-1.625Zm0 0"/><path fill="none" stroke="#000" stroke-miterlimit="10" stroke-width=".7950951700000001" d="M119.086 47.379v27.988"/><path stroke="#000" stroke-miterlimit="10" stroke-width=".79507923" d="m119.086 79.453 1.71-3.887h-3.421Zm0 0"/><path fill="none" stroke="#000" stroke-dasharray="3.975575611 1.9877878055" stroke-miterlimit="10" stroke-width=".7950951700000001" d="m130.648 45.07-.003 27.985"/><path stroke="#000" stroke-miterlimit="10" stroke-width=".79507923" d="m130.645 77.145 1.71-3.891h-3.421Zm0 0"/><path fill="none" stroke="#000" stroke-miterlimit="10" stroke-width=".7950951700000001" d="m130.648 45.07 15.004 5"/><path stroke="#000" stroke-miterlimit="10" stroke-width=".79504735" d="m149.531 51.363-3.148-2.851-.543 1.62-.54 1.626Zm0 0"/><path fill="none" stroke="#000" stroke-dasharray="3.975575611 1.9877878055" stroke-miterlimit="10" stroke-width=".7950951700000001" d="m142.207 42.758 15.004 5"/><path stroke="#000" stroke-miterlimit="10" stroke-width=".79505532" d="m161.09 49.05-3.149-2.85-.543 1.62-.539 1.625Zm0 0"/><path fill="none" stroke="#000" stroke-miterlimit="10" stroke-width=".7950951700000001" d="M142.207 42.758V14.77"/><path stroke="#000" stroke-miterlimit="10" stroke-width=".79507923" d="m142.207 10.684-1.71 3.886h3.421Zm0 0"/><path fill="none" stroke="#000" stroke-dasharray="3.975575611 1.9877878055" stroke-miterlimit="10" stroke-width=".7950951700000001" d="M153.766 40.445V12.457"/><path stroke="#000" stroke-miterlimit="10" stroke-width=".79507923" d="m153.766 8.371-1.711 3.89h3.422Zm0 0"/><path fill="none" stroke="#000" stroke-miterlimit="10" stroke-width=".7950951700000001" d="m153.766 40.445-15.004-5.004"/><path stroke="#000" stroke-miterlimit="10" stroke-width=".79504735" d="m134.883 34.148 3.148 2.856.54-1.625.542-1.621Zm0 0"/><path fill="none" stroke="#000" stroke-dasharray="3.975575611 1.9877878055" stroke-miterlimit="10" stroke-width=".7950951700000001" d="m165.324 38.133-15.004-5"/><path stroke="#000" stroke-miterlimit="10" stroke-width=".79504735" d="m146.441 31.84 3.149 2.851.539-1.62.543-1.626Zm0 0"/><path fill="none" stroke="#000" stroke-miterlimit="10" stroke-width=".7950951700000001" d="M165.324 38.133V66.12"/><path stroke="#000" stroke-miterlimit="10" stroke-width=".79507923" d="m165.324 70.207 1.711-3.887h-3.422Zm0 0"/><path fill="none" stroke="#000" stroke-dasharray="3.975575611 1.9877878055" stroke-miterlimit="10" stroke-width=".7950951700000001" d="M176.883 35.82V63.81"/><path stroke="#000" stroke-miterlimit="10" stroke-width=".79507923" d="m176.883 67.895 1.71-3.887h-3.421Zm0 0"/><path fill="none" stroke="#000" stroke-miterlimit="10" stroke-width=".7950951700000001" d="m176.883 35.82 15.004 5.004"/><path stroke="#000" stroke-miterlimit="10" stroke-width=".79504735" d="m195.766 42.117-3.149-2.851-.543 1.62-.539 1.626Zm0 0"/><path fill="none" stroke="#000" stroke-dasharray="3.975575611 1.9877878055" stroke-miterlimit="10" stroke-width=".7950951700000001" d="m188.441 33.512 15.004 5"/><path stroke="#000" stroke-miterlimit="10" stroke-width=".79504735" d="m207.324 39.805-3.148-2.852-.54 1.621-.542 1.625Zm0 0"/><path fill="none" stroke="#000" stroke-miterlimit="10" stroke-width=".7950951700000001" d="M188.441 33.512V5.523"/><path stroke="#000" stroke-miterlimit="10" stroke-width=".79507923" d="m188.441 1.437-1.71 3.887h3.421Zm0 0"/></svg>