<svg xmlns="http://www.w3.org/2000/svg" xmlns:xlink="http://www.w3.org/1999/xlink" width="227.276" height="129.632"><defs><path id="b" d="M6.484-2.562h-.25c-.25 1.53-.484 2.25-2.187 2.25H2.719c-.469 0-.485-.063-.485-.391V-3.36h.891c.969 0 1.078.312 1.078 1.156h.25v-2.625h-.25c0 .86-.11 1.156-1.078 1.156h-.89v-2.375c0-.328.015-.406.484-.406H4c1.531 0 1.797.547 1.953 1.937h.25L5.922-6.75H.328v.297h.235c.765 0 .78.11.78.469v5.203c0 .36-.015.469-.78.469H.328V0h5.735Zm0 0"/><path id="c" d="M3.625-3.781c0-.328-.312-.61-.75-.61-.719 0-1.078.657-1.219 1.094V-4.39l-1.375.11v.312c.688 0 .766.063.766.547V-.75c0 .438-.11.438-.766.438V0l1.125-.031c.407 0 .875 0 1.266.031v-.312h-.203c-.735 0-.766-.11-.766-.47v-1.53c0-.985.422-1.86 1.172-1.86.078 0 .094 0 .11.016a.426.426 0 0 0-.22.375c0 .281.204.437.422.437.188 0 .438-.125.438-.437m0 0"/><path id="d" d="M5.234 0v-.312c-.687 0-.765-.063-.765-.547v-6.032l-1.438.11v.297c.703 0 .781.078.781.562v2.14a1.6 1.6 0 0 0-1.265-.609c-1.172 0-2.203.97-2.203 2.25 0 1.266.969 2.25 2.094 2.25.64 0 1.093-.343 1.343-.656V.11ZM3.781-1.172c0 .172 0 .203-.11.36-.296.484-.75.703-1.171.703-.453 0-.812-.266-1.047-.641-.266-.406-.297-.969-.297-1.375 0-.375.032-.969.313-1.406.203-.313.593-.64 1.125-.64.344 0 .765.14 1.078.593.11.172.11.187.11.375Zm0 0"/><path id="e" d="M4.125-1.187c0-.094-.078-.11-.125-.11-.094 0-.11.047-.14.14C3.515-.14 2.624-.14 2.53-.14c-.5 0-.906-.296-1.125-.671-.297-.47-.297-1.125-.297-1.485h2.766c.219 0 .25 0 .25-.203 0-.984-.531-1.953-1.781-1.953C1.188-4.453.28-3.422.28-2.187.281-.86 1.328.108 2.47.108 3.672.11 4.125-1 4.125-1.187M3.469-2.5h-2.36C1.172-3.984 2-4.234 2.344-4.234c1.031 0 1.125 1.343 1.125 1.734m0 0"/><path id="f" d="M4.953-1.844c0-1-.656-1.812-1.484-2.015l-1.266-.297a1.308 1.308 0 0 1-1.015-1.266A1.3 1.3 0 0 1 2.5-6.734c1.656 0 1.875 1.64 1.938 2.078.015.062.015.125.125.125.125 0 .125-.047.125-.235v-2c0-.171 0-.234-.11-.234-.062 0-.078 0-.14.125l-.36.563C3.781-6.594 3.375-7 2.5-7 1.39-7 .563-6.125.563-5.078a1.9 1.9 0 0 0 1.296 1.812c.11.047.61.172 1.313.329.265.078.562.14.844.515.203.25.312.578.312.906 0 .704-.5 1.422-1.344 1.422-.28 0-1.03-.047-1.562-.531-.578-.531-.61-1.172-.61-1.531C.798-2.25.72-2.25.688-2.25c-.125 0-.125.063-.125.25v1.984c0 .172 0 .235.11.235.062 0 .078-.016.14-.125 0 0 .032-.047.36-.578.312.343.937.703 1.828.703 1.156 0 1.953-.969 1.953-2.063m0 0"/><path id="g" d="M7.11 0v-.312h-.235c-.766 0-.781-.11-.781-.47v-5.234c0-.359.015-.468.781-.468h.234v-.297c-.343.031-1.078.031-1.453.031s-1.125 0-1.468-.031v.297h.234c.766 0 .781.109.781.468v2.329H2.234v-2.329c0-.359.016-.468.782-.468h.25v-.297c-.36.031-1.094.031-1.47.031-.374 0-1.124 0-1.468-.031v.297h.235c.765 0 .78.109.78.468V-.78c0 .36-.015.469-.78.469H.328V0c.344-.031 1.078-.031 1.453-.031.39 0 1.125 0 1.485.031v-.312h-.25c-.766 0-.782-.11-.782-.47v-2.593h2.97v2.594c0 .36-.016.469-.782.469h-.234V0C4.53-.031 5.266-.031 5.64-.031s1.125 0 1.468.031m0 0"/><clipPath id="a"><path d="M0 76h224v53.242H0Zm0 0"/></clipPath></defs><g clip-path="url(#a)"><path fill="#BFBFBF" d="m0 110.063 165.707-33.141 57.543 19.18-165.707 33.14Zm0 0"/></g><use xlink:href="#b" x="52.428" y="113.454"/><use xlink:href="#c" x="59.191" y="113.454"/><use xlink:href="#d" x="63.084" y="113.454"/><use xlink:href="#e" x="68.606" y="113.454"/><path fill="none" stroke="#7F7F7F" stroke-miterlimit="10" stroke-width=".79446554" d="m28.77 69.305 160.683-32.137"/><path fill="#7F7F7F" stroke="#7F7F7F" stroke-miterlimit="10" stroke-width=".79444163" d="m193.46 36.367-4.147-.914.671 3.352Zm0 0"/><use xlink:href="#f" x="198.184" y="39.555"/><path fill="none" stroke="#000" stroke-dasharray="3.9724273820000002 1.9862136910000001" stroke-miterlimit="10" stroke-width=".79446554" d="m28.77 69.305 1.523-3.348 1.52-3.332 1.523-3.309 1.52-3.27 1.523-3.226 1.52-3.16 1.523-3.094 1.52-3.007 1.523-2.914 1.52-2.813 1.523-2.695 1.52-2.57 1.523-2.442 1.52-2.297 1.523-2.144 1.52-1.989 1.523-1.828 1.52-1.656 1.523-1.48 1.52-1.297 1.523-1.118 1.52-.93 1.523-.734 1.523-.547 1.52-.351 1.523-.16 1.52.031 1.523.223 1.52.414 1.523.597 1.52.782 1.523.96 1.52 1.13 1.523 1.3 1.52 1.461 1.523 1.613 1.52 1.762 1.523 1.895 1.52 2.027 1.523 2.145 1.52 2.253 1.523 2.356 1.52 2.441 1.523 2.52 1.52 2.586 1.523 2.64 1.52 2.684 1.523 2.715 1.52 2.73 1.523 2.739 1.52 2.73 1.523 2.715 1.52 2.684 1.523 2.64 1.52 2.586 1.523 2.52 1.52 2.445 1.523 2.355 1.52 2.254 1.523 2.145 1.52 2.031 1.523 1.895 1.519 1.761 1.523 1.618 1.524 1.46 1.52 1.301 1.523 1.133 1.52.961 1.523.781 1.52.598 1.523.418 1.52.223 1.523.035 1.52-.157 1.523-.351 1.52-.547 1.523-.734 1.52-.926 1.523-1.113 1.52-1.301 1.523-1.477 1.52-1.656 1.523-1.824 1.52-1.988 1.523-2.145 1.52-2.297 1.523-2.437 1.52-2.57 1.523-2.696 1.52-2.809 1.523-2.914 1.52-3.008 1.522-3.09 1.52-3.163 1.523-3.223 1.52-3.274 1.523-3.308 1.52-3.332 1.523-3.344"/><path fill="none" stroke="#000" stroke-miterlimit="10" stroke-width=".79446554" d="m28.77 69.305-.301-.914-.297-.91-.281-.903-.258-.898-.23-.89-.196-.876-.148-.863-.102-.844-.047-.828.02-.805.086-.781.16-.758.242-.73.324-.703.418-.672.508-.645.61-.605.71-.575.817-.543.925-.5 1.036-.468 1.144-.43 1.262-.39 1.379-.352 1.492-.313 1.61-.277 1.722-.238 1.836-.196 1.953-.164 2.063-.12 2.171-.09 2.282-.051 2.383-.016 2.484.016 2.578.047 2.676.082 2.758.105 2.843.137 2.918.164 2.993.183 3.054.207 3.121.23 3.168.243 3.215.262 3.258.273 3.289.285 3.312.293 3.333.301 3.343.3 3.344.306 3.344.3 3.332.301 3.316.293 3.29.285 3.253.274 3.219.261 3.168.247 3.117.226 3.059.207 2.992.188 2.922.16 2.84.137 2.761.109 2.672.078 2.582.05 2.485.016 2.382-.015 2.282-.055 2.175-.086 2.063-.12 1.953-.161 1.84-.2 1.723-.238 1.609-.273 1.496-.316 1.375-.352 1.266-.39 1.144-.43 1.04-.465.921-.504.817-.54.714-.573.61-.606.512-.644.414-.672.328-.703.242-.73.16-.759.086-.78.02-.806-.043-.828-.102-.843-.148-.864-.196-.875-.23-.886-.258-.899-.281-.906-.297-.91-.301-.91"/><use xlink:href="#g" x="62.707" y="10.115"/><use xlink:href="#b" x="18.492" y="52.271"/><path fill="none" stroke="#000" stroke-dasharray="3.9724273820000002 1.9862136910000001" stroke-miterlimit="10" stroke-width=".79446554" d="M41.324 66.793V47.941"/><path stroke="#000" stroke-miterlimit="10" stroke-width=".79446554" d="m41.324 43.855-1.71 3.887h3.421Zm0 0"/><path fill="none" stroke="#000" stroke-miterlimit="10" stroke-width=".79446554" d="m41.324 66.793-9.527-3.176"/><path stroke="#000" stroke-miterlimit="10" stroke-width=".79443366" d="m27.926 62.328 3.144 2.848.54-1.621.542-1.621Zm0 0"/><path fill="none" stroke="#000" stroke-dasharray="3.9724273820000002 1.9862136910000001" stroke-miterlimit="10" stroke-width=".79446554" d="M53.879 64.281V27.88"/><path stroke="#000" stroke-miterlimit="10" stroke-width=".79446554" d="m53.879 23.793-1.711 3.887h3.418Zm0 0"/><path fill="none" stroke="#000" stroke-miterlimit="10" stroke-width=".79446554" d="M53.879 64.281 33.82 57.598"/><path stroke="#000" stroke-miterlimit="10" stroke-width=".79443366" d="m29.945 56.305 3.149 2.851 1.078-3.242Zm0 0"/><path fill="none" stroke="#000" stroke-dasharray="3.9724273820000002 1.9862136910000001" stroke-miterlimit="10" stroke-width=".79446554" d="M66.43 61.773V18.945"/><path stroke="#000" stroke-miterlimit="10" stroke-width=".79446554" d="m66.43 14.86-1.707 3.886h3.418Zm0 0"/><path fill="none" stroke="#000" stroke-miterlimit="10" stroke-width=".79446554" d="m66.43 61.773-23.91-7.972"/><path stroke="#000" stroke-miterlimit="10" stroke-width=".79443366" d="m38.645 52.512 3.144 2.847.543-1.62.54-1.622Zm0 0"/><path fill="none" stroke="#000" stroke-dasharray="3.9724273820000002 1.9862136910000001" stroke-miterlimit="10" stroke-width=".79446554" d="M78.984 59.262V22.855"/><path stroke="#000" stroke-miterlimit="10" stroke-width=".79446554" d="m78.984 18.773-1.71 3.887h3.421Zm0 0"/><path fill="none" stroke="#000" stroke-miterlimit="10" stroke-width=".79446554" d="M78.984 59.262 58.93 52.574"/><path stroke="#000" stroke-miterlimit="10" stroke-width=".79443366" d="m55.055 51.285 3.144 2.852.54-1.625.542-1.621Zm0 0"/><path fill="none" stroke="#000" stroke-dasharray="3.9724273820000002 1.9862136910000001" stroke-miterlimit="10" stroke-width=".79446554" d="M91.54 56.75V37.898"/><path stroke="#000" stroke-miterlimit="10" stroke-width=".79446554" d="M91.54 33.812 89.827 37.7h3.422Zm0 0"/><path fill="none" stroke="#000" stroke-miterlimit="10" stroke-width=".79446554" d="m91.54 56.75-9.528-3.176"/><path stroke="#000" stroke-miterlimit="10" stroke-width=".79443366" d="m78.137 52.285 3.148 2.848 1.078-3.242Zm0 0"/><path fill="none" stroke="#000" stroke-dasharray="3.9724273820000002 1.9862136910000001" stroke-miterlimit="10" stroke-width=".79446554" d="M116.645 51.73v18.852"/><path stroke="#000" stroke-miterlimit="10" stroke-width=".79446554" d="m116.645 74.664 1.71-3.883h-3.418Zm0 0"/><path fill="none" stroke="#000" stroke-miterlimit="10" stroke-width=".79446554" d="m116.645 51.73 9.527 3.172"/><path stroke="#000" stroke-miterlimit="10" stroke-width=".79443366" d="m130.047 56.195-3.149-2.851-.539 1.625-.539 1.62Zm0 0"/><path fill="none" stroke="#000" stroke-dasharray="3.9724273820000002 1.9862136910000001" stroke-miterlimit="10" stroke-width=".79446554" d="M129.2 49.219V85.62"/><path stroke="#000" stroke-miterlimit="10" stroke-width=".79446554" d="m129.2 89.707 1.71-3.887h-3.422Zm0 0"/><path fill="none" stroke="#000" stroke-miterlimit="10" stroke-width=".79446554" d="m129.2 49.219 20.058 6.683"/><path stroke="#000" stroke-miterlimit="10" stroke-width=".79443366" d="m153.133 57.195-3.149-2.851-.539 1.62-.543 1.626Zm0 0"/><path fill="none" stroke="#000" stroke-dasharray="3.9724273820000002 1.9862136910000001" stroke-miterlimit="10" stroke-width=".79446554" d="M141.754 46.707v42.828"/><path stroke="#000" stroke-miterlimit="10" stroke-width=".79446554" d="m141.754 93.621 1.707-3.887h-3.418Zm0 0"/><path fill="none" stroke="#000" stroke-miterlimit="10" stroke-width=".79446554" d="m141.754 46.707 23.91 7.969"/><path stroke="#000" stroke-miterlimit="10" stroke-width=".79443366" d="m169.54 55.969-3.145-2.852-.543 1.625-.54 1.621Zm0 0"/><path fill="none" stroke="#000" stroke-dasharray="3.9724273820000002 1.9862136910000001" stroke-miterlimit="10" stroke-width=".79446554" d="M154.309 44.195v36.407"/><path stroke="#000" stroke-miterlimit="10" stroke-width=".79446554" d="m154.309 84.684 1.707-3.883h-3.418Zm0 0"/><path fill="none" stroke="#000" stroke-miterlimit="10" stroke-width=".79446554" d="m154.309 44.195 20.054 6.688"/><path stroke="#000" stroke-miterlimit="10" stroke-width=".79443366" d="m178.238 52.172-3.144-2.848-.543 1.621-.54 1.621Zm0 0"/><path fill="none" stroke="#000" stroke-dasharray="3.9724273820000002 1.9862136910000001" stroke-miterlimit="10" stroke-width=".79446554" d="M166.86 41.687V60.54"/><path stroke="#000" stroke-miterlimit="10" stroke-width=".79446554" d="m166.86 64.625 1.71-3.887h-3.418Zm0 0"/><path fill="none" stroke="#000" stroke-miterlimit="10" stroke-width=".79446554" d="m166.86 41.687 9.527 3.176"/><path stroke="#000" stroke-miterlimit="10" stroke-width=".79443366" d="m180.262 46.152-3.145-2.851-.543 1.625-.539 1.62Zm0 0"/></svg>