<svg xmlns="http://www.w3.org/2000/svg" width="312.899" height="481.466"><defs><clipPath id="a"><path d="M157 219h36v261.934h-36Zm0 0"/></clipPath><clipPath id="b"><path d="M157 468h36v12.934h-36Zm0 0"/></clipPath><clipPath id="c"><path d="M157 411h36v69.934h-36Zm0 0"/></clipPath></defs><g clip-path="url(#a)"><path fill="none" stroke="#000" stroke-linecap="round" stroke-linejoin="round" stroke-miterlimit="10" stroke-width=".9948944399999999" d="M157.59 480.434V253.902l16.988-33.976m-5.664 249.183V242.58l5.664-22.653m16.988 249.183V242.58l-16.988-22.653m5.66 260.508V253.902l-5.66-33.976"/></g><path fill="none" stroke="#000" stroke-linecap="round" stroke-linejoin="round" stroke-miterlimit="10" stroke-width="1.99078777" d="M174.578 248.242V106.66"/><path fill="none" stroke="#000" stroke-linecap="round" stroke-linejoin="round" stroke-miterlimit="10" stroke-width=".9948944399999999" d="m157.59 253.902 33.976-11.324m-11.328 11.324-11.324-11.324"/><g clip-path="url(#b)"><path fill="none" stroke="#000" stroke-linecap="round" stroke-linejoin="round" stroke-miterlimit="10" stroke-width=".9948944399999999" d="M157.59 480.434h22.648l11.328-11.325h-22.652Zm0 0"/></g><path fill="none" stroke="#000" stroke-linecap="round" stroke-linejoin="round" stroke-miterlimit="10" stroke-width=".9948944399999999" d="M157.59 423.8h22.648l11.328-11.323h-22.652ZM157.59 367.168h22.648l11.328-11.324h-22.652ZM157.59 310.535h22.648l11.328-11.324h-22.652ZM157.59 253.902h22.648l11.328-11.324h-22.652Zm0 0"/><g clip-path="url(#c)"><path fill="none" stroke="#000" stroke-linecap="round" stroke-linejoin="round" stroke-miterlimit="10" stroke-width=".9948944399999999" d="m157.59 480.434 22.648-56.633m0 56.633 11.328-67.957m0 56.632-22.652-56.632m0 56.632-11.324-45.308"/></g><path fill="none" stroke="#000" stroke-linecap="round" stroke-linejoin="round" stroke-miterlimit="10" stroke-width=".9948944399999999" d="m157.59 423.8 22.648-56.632m0 56.633 11.328-67.957m0 56.633-22.652-56.633m0 56.633-11.324-45.309M157.59 367.168l22.648-56.633m0 56.633 11.328-67.957m0 56.633-22.652-56.633m0 56.633-11.324-45.309M157.59 310.535l22.648-56.633m0 56.633 11.328-67.957m0 56.633-22.652-56.633m0 56.633-11.324-45.309"/><path fill="none" stroke="#000" stroke-linecap="round" stroke-linejoin="round" stroke-miterlimit="10" stroke-width="1.99078777" d="M308.367 106.672H11.06"/><path fill="none" stroke="#000" stroke-linecap="round" stroke-linejoin="round" stroke-miterlimit="10" stroke-width=".9948944399999999" d="M308.367 212.856V.492M146.97 195.872V17.476m-55.211 174.14V21.727m-80.7 165.648V25.973m194.294 170.976.039-.039c-1.77 1.77-3.204 1.176-3.204-1.324V17.762c0-2.5 1.434-5.965 3.204-7.735l-.04.04c1.77-1.77 3.204-1.176 3.204 1.324v177.824c0 2.5-1.434 5.965-3.203 7.734m0 0"/><path fill="none" stroke="#000" stroke-linecap="round" stroke-linejoin="round" stroke-miterlimit="10" stroke-width="3.9805766499999997" d="M197.941 106.672h8.489"/></svg>