<svg xmlns="http://www.w3.org/2000/svg" xmlns:xlink="http://www.w3.org/1999/xlink" width="236.41" height="142.131"><defs><path id="d" d="M.703-1.812h3.61c.109 0 .203-.094.203-.188a.207.207 0 0 0-.203-.203H.703A.207.207 0 0 0 .5-2c0 .094.094.188.203.188m0 0"/><path id="e" d="M2.484-5.047c0-.219-.015-.219-.234-.219-.312.313-.734.5-1.484.5v.266c.203 0 .64 0 1.093-.219v4.063c0 .297-.015.39-.78.39H.812V0c.328-.031 1-.031 1.359-.031.36 0 1.047 0 1.375.031v-.266h-.281c-.75 0-.782-.093-.782-.39Zm0 0"/><path id="f" d="M3.875-2.531c0-.844-.094-1.36-.344-1.86-.36-.703-1-.875-1.437-.875-1 0-1.36.75-1.469.97C.344-3.72.328-2.938.328-2.532c0 .531.016 1.328.406 1.953.36.594.938.75 1.36.75.39 0 1.062-.125 1.469-.906.28-.578.312-1.282.312-1.797M2.094-.062c-.266 0-.813-.125-.985-.954-.078-.453-.078-1.187-.078-1.609 0-.547 0-1.094.078-1.531.172-.813.797-.89.985-.89.281 0 .828.14.984.859.094.437.094 1.03.094 1.562 0 .469 0 1.188-.094 1.625-.172.828-.719.938-.984.938m0 0"/><path id="h" d="M4.016-4.828c.062-.078.062-.094.062-.281H2.062c-.187 0-.437 0-.64-.016-.406-.031-.422-.11-.438-.234h-.25L.47-3.687h.25c.015-.11.094-.657.203-.72.094-.046.687-.046.812-.046h1.672L2.594-3.36C1.688-2.156 1.5-.906 1.5-.281c0 .078 0 .453.375.453.36 0 .36-.36.36-.453v-.39c0-1.141.203-2.063.578-2.579Zm0 0"/><path id="i" d="M1.11-4.453c.109.031.421.11.75.11 1 0 1.593-.688 1.593-.813 0-.094-.047-.11-.094-.11-.015 0-.03 0-.109.032a2.835 2.835 0 0 1-1.094.218c-.469 0-.86-.125-1.11-.218-.077-.032-.093-.032-.093-.032-.11 0-.11.079-.11.235v2.312c0 .14 0 .235.126.235.062 0 .094-.032.125-.094.11-.11.406-.516 1.078-.516.437 0 .656.36.734.516.125.281.14.64.14.953 0 .297 0 .719-.233 1.078-.141.235-.454.469-.876.469-.515 0-1.03-.313-1.203-.828h.079c.218 0 .39-.14.39-.39 0-.282-.234-.391-.39-.391-.141 0-.391.078-.391.421 0 .72.61 1.438 1.531 1.438.984 0 1.828-.781 1.828-1.75 0-.922-.672-1.734-1.61-1.734-.39 0-.765.124-1.062.39Zm0 0"/><path id="g" d="M1.484-.125c0 .516-.109.969-.609 1.469-.031.015-.047.031-.047.078 0 .062.063.11.125.11.094 0 .75-.626.75-1.563 0-.5-.187-.844-.531-.844a.426.426 0 0 0-.438.438c0 .218.141.437.438.437.187 0 .312-.11.312-.125m0 0"/><path id="k" d="M2.047-3.969h.922c.203 0 .297 0 .297-.187 0-.11-.094-.11-.282-.11h-.859c.36-1.406.406-1.609.406-1.671 0-.172-.125-.266-.297-.266-.03 0-.296.016-.39.36l-.39 1.577H.53c-.203 0-.297 0-.297.188 0 .11.078.11.266.11h.875C.656-1.157.625-.985.625-.798c0 .531.375.906.906.906C2.547.11 3.11-1.344 3.11-1.42c0-.095-.078-.095-.125-.095-.078 0-.093.032-.14.141C2.422-.344 1.89-.109 1.563-.109c-.22 0-.313-.125-.313-.453 0-.235.016-.313.063-.485Zm0 0"/><path id="l" d="M6.297-5.719c.094-.406.266-.703 1.062-.734.047 0 .172-.016.172-.203 0-.016 0-.11-.125-.11-.328 0-.687.032-1.015.032-.344 0-.703-.032-1.032-.032-.062 0-.171 0-.171.204 0 .109.093.109.171.109.563 0 .672.219.672.437 0 .016-.015.172-.031.204l-.89 3.53C4.78-.952 3.64-.093 2.64-.093c-.671 0-1.203-.437-1.203-1.281 0-.016 0-.344.11-.781L2.5-6c.094-.36.11-.453.844-.453.25 0 .328 0 .328-.203 0-.11-.11-.11-.14-.11-.266 0-.985.032-1.266.032-.282 0-.985-.032-1.282-.032-.078 0-.187 0-.187.204 0 .109.094.109.281.109.016 0 .203 0 .375.016.188.015.266.03.266.156 0 .062-.11.468-.157.703l-.218.875c-.094.39-.578 2.25-.61 2.437-.078.282-.078.438-.078.579C.656-.47 1.563.218 2.61.218c1.25 0 2.47-1.125 2.797-2.422Zm0 0"/><clipPath id="a"><path d="M25 23h210.398v95H25Zm0 0"/></clipPath><clipPath id="b"><path d="M226 63h9.398v15H226Zm0 0"/></clipPath><clipPath id="c"><path d="M24 3h2v138.266h-2Zm0 0"/></clipPath><clipPath id="j"><path d="M25.11 12h210.093v117H25.11Zm0 0"/></clipPath></defs><g clip-path="url(#a)"><path fill="none" stroke="#BFBFBF" stroke-miterlimit="10" stroke-width=".19779008" d="M25.11 117.59h210.093M25.11 103.504h210.094M25.11 94.114h210.094M25.11 47.151h210.094M25.11 37.762h210.094M25.11 23.676h210.094"/></g><path fill="none" stroke="#000" stroke-miterlimit="10" stroke-width=".79215424" d="M23 117.59h4.223M23 103.504h4.223M23 94.114h4.223M23 47.151h4.223M23 37.762h4.223M23 23.676h4.223"/><path fill="none" stroke="#000" stroke-miterlimit="10" stroke-width=".39657408000000005" d="M25.11 70.633h206.644"/><path d="m234.809 70.633-2.957-1.754v3.508Zm0 0"/><g clip-path="url(#b)"><path fill="none" stroke="#000" stroke-miterlimit="10" stroke-width=".39657408000000005" d="m234.809 70.633-2.957-1.754v3.508Zm0 0"/></g><g clip-path="url(#c)"><path fill="none" stroke="#000" stroke-miterlimit="10" stroke-width=".39657408000000005" d="M25.11 141.07V3.648"/></g><path stroke="#000" stroke-miterlimit="10" stroke-width=".39657408000000005" d="M25.11.594 23.36 3.55h3.503Zm0 0"/><use xlink:href="#d" x="10.272" y="120.143"/><use xlink:href="#e" x="15.291" y="120.143"/><use xlink:href="#d" x="3.726" y="105.286"/><use xlink:href="#f" x="8.745" y="105.286"/><use xlink:href="#g" x="12.954" y="105.286"/><use xlink:href="#h" x="15.291" y="105.286"/><use xlink:href="#d" x="3.726" y="95.895"/><use xlink:href="#f" x="8.745" y="95.895"/><use xlink:href="#g" x="12.954" y="95.895"/><use xlink:href="#i" x="15.291" y="95.895"/><use xlink:href="#f" x="8.745" y="48.938"/><use xlink:href="#g" x="12.954" y="48.938"/><use xlink:href="#i" x="15.291" y="48.938"/><use xlink:href="#f" x="8.745" y="39.546"/><use xlink:href="#g" x="12.954" y="39.546"/><use xlink:href="#h" x="15.291" y="39.546"/><use xlink:href="#e" x="15.291" y="26.23"/><g clip-path="url(#j)"><path fill="none" stroke="#000" stroke-miterlimit="10" stroke-width=".79215424" d="m25.11 70.633.421-.649c.117-.183.305-.472.422-.652l.422-.648.422-.649c.117-.183.3-.472.418-.652l.422-.649.422-.648c.117-.176.304-.465.421-.645.118-.18.305-.468.422-.644.114-.18.301-.469.418-.649.118-.175.305-.464.422-.64l.422-.645c.117-.175.305-.46.422-.64.117-.176.305-.461.418-.637.117-.18.305-.461.422-.637.117-.18.304-.46.422-.636.117-.176.304-.458.422-.633l.421-.633c.114-.176.301-.453.418-.629l.422-.625c.117-.176.305-.453.422-.625.117-.176.305-.45.422-.621.117-.172.305-.45.418-.621l.422-.617c.117-.168.305-.442.422-.614l.422-.61.421-.605c.118-.167.305-.437.418-.605l.422-.602.422-.593c.117-.168.305-.43.422-.594l.422-.59c.113-.164.3-.426.418-.586l.422-.582.422-.578.422-.574c.117-.156.304-.41.417-.567.118-.156.305-.41.422-.566.118-.156.305-.406.422-.559.117-.156.305-.402.422-.554.117-.157.305-.399.422-.551.117-.152.3-.395.418-.547.117-.152.305-.39.422-.543l.422-.535c.117-.149.304-.383.422-.531.117-.145.304-.38.421-.524.114-.144.301-.375.418-.52.118-.144.305-.374.422-.515l.422-.508c.117-.14.305-.367.422-.504.117-.14.305-.359.418-.5.117-.136.305-.355.422-.488.117-.137.305-.355.422-.488.117-.133.304-.348.422-.48.117-.133.304-.344.422-.473.113-.13.3-.34.417-.47l.422-.46c.118-.125.305-.328.422-.453l.422-.45c.117-.124.305-.32.422-.44.113-.122.3-.317.418-.434.117-.121.305-.313.422-.43l.422-.422c.117-.117.304-.3.422-.414.117-.113.304-.297.418-.406.117-.114.304-.293.421-.403l.422-.394c.117-.106.305-.277.422-.387l.422-.379c.113-.101.3-.27.418-.37l.422-.364c.117-.102.305-.258.422-.356l.422-.351.418-.34.421-.336.422-.324c.118-.09.305-.23.422-.317.117-.09.305-.226.422-.312.117-.086.3-.219.418-.3.117-.087.305-.216.422-.298l.422-.285c.117-.078.305-.203.422-.277.117-.078.304-.196.422-.27.113-.074.3-.191.418-.261.117-.075.304-.188.421-.254.118-.07.305-.18.422-.246l.422-.239a21.709 21.709 0 0 1 .84-.445c.117-.063.305-.156.422-.215.117-.055.305-.144.422-.203.117-.055.304-.14.422-.191a19.628 19.628 0 0 1 .84-.364c.117-.047.304-.125.421-.168.118-.047.305-.117.422-.16l.422-.152c.113-.04.3-.102.418-.14.117-.04.305-.098.422-.134.117-.035.305-.093.422-.125a16.98 16.98 0 0 1 .84-.222c.117-.028.304-.074.422-.098a16.238 16.238 0 0 1 .843-.168c.117-.023.305-.055.422-.074.113-.016.301-.043.418-.063.117-.015.305-.039.422-.05.117-.016.305-.036.422-.043l.422-.04c.117-.007.304-.019.422-.023.113-.008.3-.015.418-.02.117-.003.304-.003.421-.007h.422l.422.012c.117.003.305.011.418.019.117.004.305.02.422.027.117.008.305.024.422.036.117.011.305.035.422.046l.422.055c.113.016.3.047.418.063l.422.074c.117.023.304.058.421.082.118.023.305.062.422.09.117.027.305.07.418.101.117.028.305.074.422.106.117.031.305.086.422.117.117.035.305.09.422.129.117.035.305.094.422.133.117.039.3.105.418.144l.422.153c.117.042.304.117.421.16.118.047.305.125.422.172.118.046.305.128.422.18.114.05.301.132.418.187.117.05.305.14.422.195a20.76 20.76 0 0 1 .844.418c.117.059.305.156.418.219.117.062.304.168.422.23l.422.239c.117.066.304.18.421.246a65.541 65.541 0 0 1 .84.52c.117.073.305.194.422.273a26.025 26.025 0 0 1 .844.566c.117.082.305.21.422.297.113.082.3.219.418.3.117.087.304.227.422.313l.421.32a30.881 30.881 0 0 1 .84.665c.118.093.305.246.422.34l.422.35.422.36c.117.098.305.262.422.364.113.105.3.27.418.375l.422.378c.117.106.304.282.422.387l.421.395.418.402c.118.113.305.297.422.41.117.114.305.301.422.418.117.113.305.301.422.422.117.117.305.309.422.43.117.117.305.312.418.433.117.125.305.32.422.446l.422.449c.117.125.304.328.421.457.118.125.305.332.422.46.114.13.301.337.418.47.118.129.305.343.422.476.117.13.305.344.422.48a53.61 53.61 0 0 1 .84.977c.117.14.305.363.422.5l.422.504c.117.14.304.367.422.512.117.14.304.37.421.515.118.145.301.375.418.52.118.145.305.379.422.527l.422.532c.117.148.305.386.422.539l.422.539c.113.152.3.394.418.547l.422.55c.117.157.304.403.422.559l.421.559c.118.156.305.41.418.566.118.16.305.41.422.57l.422.574.422.579.422.582c.113.164.3.422.418.586l.422.59c.117.163.304.43.422.593.117.168.304.434.422.598l.421.601c.114.168.301.438.418.606l.422.605c.117.172.305.442.422.614.117.168.305.441.422.613.117.172.305.445.418.617l.422.617c.117.176.305.45.422.625l.422.625.421.625c.114.176.301.457.418.63l.422.632.422.633c.117.18.305.46.422.637.117.175.305.46.418.636.117.18.305.465.422.64.117.18.305.466.422.641l.422.645c.117.176.304.465.422.64.117.18.3.47.418.65.117.175.304.464.421.644l.422.648.422.645c.117.183.305.468.422.652.113.18.3.469.418.648l.422.649.422.648c.117.184.304.473.422.653.117.18.304.468.418.648.117.184.304.473.421.652l.422.649.422.652.422.649c.117.18.3.468.418.648l.422.648.422.649c.117.18.304.469.422.648.117.176.304.465.422.645.113.18.3.465.418.644l.421.645c.118.176.305.46.422.64.117.176.305.461.422.641.117.176.305.461.418.637.117.18.305.46.422.637.117.18.305.46.422.636l.422.633.422.633c.113.172.3.453.418.629l.421.625c.118.172.305.45.422.625.118.172.305.45.422.62.117.173.305.446.418.618l.422.617.422.61c.117.172.305.441.422.613l.422.605c.117.168.304.434.418.602l.422.602c.117.164.304.43.421.593.118.168.305.43.422.594l.422.59.418.586.422.578.422.578c.117.16.305.414.422.57l.418.57a276337.283 276337.283 0 0 0 .843 1.122l.422.555c.118.156.305.398.422.55l.418.547.422.54.422.534c.117.149.305.383.422.528.117.148.304.383.422.527.113.145.3.375.418.52.117.14.304.37.422.511l.421.508.422.504c.117.137.305.36.418.496l.422.492c.117.133.305.348.422.485l.422.476c.117.133.305.344.422.473.113.133.3.34.418.469.117.125.304.332.422.457.117.129.304.328.421.453l.422.449c.118.121.305.32.422.441.113.122.301.313.418.434l.422.426.422.422c.117.113.305.297.422.414.117.113.304.293.418.406.117.11.304.29.422.398.117.11.304.286.422.391a37.907 37.907 0 0 0 .843.762c.114.105.301.27.418.37.117.102.305.267.422.364.117.102.305.258.422.356.117.097.305.254.422.347.117.098.305.246.418.34.117.094.305.242.422.332.117.094.304.238.422.324.117.09.304.23.421.317.118.09.305.226.422.308l.418.305.422.293.422.281c.117.078.305.203.422.278.117.078.305.195.422.27.113.073.3.187.418.26.117.071.304.184.422.25.117.071.304.18.422.247l.421.234a21.709 21.709 0 0 0 .84.445c.117.06.305.153.422.212.117.054.305.144.422.199.117.055.305.14.422.191.117.055.3.137.418.188l.422.172c.117.05.304.125.422.168a18.588 18.588 0 0 0 .843.308c.114.04.301.102.418.14a17.502 17.502 0 0 0 .844.255c.117.03.305.082.422.113.117.031.305.078.418.105l.422.098c.117.024.304.063.422.086.117.023.304.059.422.078.117.024.304.05.421.07.114.02.301.047.418.063.118.016.305.035.422.05l.422.044.422.031.418.027.422.016c.117 0 .305.004.422.004h.422l.421-.012c.118-.008.305-.015.418-.023.118-.004.305-.02.422-.028.117-.011.305-.027.422-.039.117-.011.305-.031.422-.047.117-.015.305-.039.422-.058.113-.016.3-.043.418-.063l.422-.074c.117-.023.304-.058.422-.086.117-.023.304-.062.422-.09.117-.027.304-.074.417-.101.118-.031.305-.078.422-.11.118-.035.305-.086.422-.12.117-.036.305-.09.422-.13.117-.035.305-.093.422-.132.117-.04.3-.106.418-.149.117-.039.305-.11.422-.152.117-.043.305-.117.422-.164.117-.047.304-.121.422-.172.117-.047.304-.13.421-.18.114-.05.301-.137.418-.187.118-.055.305-.141.422-.2.117-.054.305-.148.422-.207.117-.054.305-.152.422-.21.117-.063.305-.16.418-.227.117-.063.305-.164.422-.23l.422-.239.422-.25.422-.254.417-.265c.118-.075.305-.196.422-.274l.422-.281c.117-.078.305-.207.422-.29l.422-.296c.113-.086.3-.219.418-.305.117-.086.305-.226.422-.316.117-.086.305-.23.422-.32.117-.09.304-.235.422-.329.117-.093.304-.242.418-.335.117-.094.304-.25.421-.344l.422-.352.422-.36c.117-.1.305-.265.422-.366.113-.106.3-.27.418-.375.117-.106.305-.274.422-.383a37.907 37.907 0 0 0 .844-.785c.117-.11.304-.29.418-.403l.421-.41a11807907229660.916 11807907229660.916 0 0 1 .844-.84l.422-.433c.117-.117.3-.313.418-.438.117-.12.305-.316.422-.441.117-.125.305-.324.422-.453.117-.125.305-.328.422-.457.117-.125.304-.332.422-.461.113-.13.3-.34.418-.473a51.451 51.451 0 0 0 .843-.957 54.351 54.351 0 0 0 .84-.98c.117-.141.305-.36.422-.5.117-.141.305-.364.422-.508l.422-.508.422-.52c.117-.144.3-.375.418-.52.117-.148.304-.382.421-.526l.422-.536.422-.535.422-.543c.113-.152.3-.394.418-.547.117-.156.305-.398.422-.554.117-.153.305-.403.422-.559a52.552 52.552 0 0 0 .84-1.125c.117-.16.304-.414.422-.57l.421-.578c.118-.16.305-.414.422-.578.117-.16.305-.418.422-.582.113-.165.301-.422.418-.586.117-.164.305-.426.422-.594.117-.164.305-.426.422-.594.117-.164.305-.43.422-.598l.422-.601c.113-.168.3-.438.418-.606l.421-.605c.118-.172.305-.441.422-.613.118-.172.305-.446.422-.614.117-.171.305-.445.418-.617l.422-.62.422-.622.422-.629.422-.625a3494233079482.852 3494233079482.852 0 0 0 .84-1.262l.421-.636c.118-.176.305-.457.422-.637.117-.176.305-.457.418-.637.117-.176.305-.46.422-.64.117-.176.305-.461.422-.641.117-.176.305-.465.422-.64l.422-.645c.117-.18.3-.465.418-.645l.422-.648.421-.645.422-.648.422-.649c.114-.18.301-.468.418-.652l.422-.648.422-.649c.117-.183.305-.472.422-.652.117-.18.305-.469.418-.649.117-.183.304-.472.422-.652.117-.18.304-.469.422-.648l.421-.653.422-.648c.114-.18.301-.469.418-.649l.422-.648.422-.648.422-.645.422-.648c.113-.176.3-.465.418-.641l.422-.645c.117-.18.304-.464.421-.64.118-.18.305-.465.422-.64.118-.18.305-.462.418-.641.118-.176.305-.457.422-.637l.422-.633.422-.633.422-.633c.113-.171.3-.453.418-.625l.422-.628c.117-.172.304-.45.422-.622l.421-.62.418-.618.422-.617c.117-.168.305-.441.422-.613l.422-.606c.117-.172.305-.441.422-.61.117-.167.305-.433.418-.6.117-.169.305-.434.422-.598.117-.168.304-.43.422-.598l.421-.59.422-.59c.114-.16.301-.422.418-.582l.422-.582.422-.574.422-.574c.117-.156.305-.41.418-.567l.422-.562.422-.559c.117-.152.304-.402.422-.554l.421-.547.418-.547c.118-.149.305-.387.422-.54.117-.148.305-.386.422-.53l.422-.532"/></g><use xlink:href="#k" x="228.127" y="80.223"/><use xlink:href="#l" x="13.773" y="10.463"/></svg>