<svg xmlns="http://www.w3.org/2000/svg" xmlns:xlink="http://www.w3.org/1999/xlink" width="226.064" height="192.842"><defs><path id="c" d="M4.453-2c0-1.172-.812-2.172-1.89-2.172a1.7 1.7 0 0 0-1.25.516v-1.938c.203.063.515.125.843.125 1.219 0 1.906-.906 1.906-1.031 0-.062-.03-.11-.093-.11-.016 0-.031 0-.078.032a3.26 3.26 0 0 1-1.344.281c-.406 0-.86-.062-1.328-.266-.078-.03-.094-.03-.125-.03C1-6.594 1-6.517 1-6.36v2.937c0 .172 0 .25.14.25.063 0 .094-.015.126-.078.109-.156.484-.703 1.28-.703.517 0 .767.453.845.64.156.36.187.75.187 1.25 0 .344 0 .938-.25 1.36-.234.39-.594.64-1.062.64-.72 0-1.282-.515-1.453-1.109.03.016.062.016.171.016.329 0 .5-.25.5-.485a.48.48 0 0 0-.5-.484c-.14 0-.484.078-.484.531C.5-.75 1.188.22 2.297.22 3.437.219 4.453-.734 4.453-2m0 0"/><path id="d" d="M1.094-3.406V-.75c0 .438-.11.438-.782.438V0c.36-.016.86-.031 1.126-.031.265 0 .78.015 1.109.031v-.312c-.656 0-.766 0-.766-.438v-1.828c0-1.031.703-1.594 1.328-1.594.625 0 .735.547.735 1.11V-.75c0 .438-.11.438-.766.438V0a30.36 30.36 0 0 1 1.125-.031c.25 0 .766.015 1.11.031v-.312c-.672 0-.782 0-.782-.438v-1.828c0-1.031.703-1.594 1.344-1.594.625 0 .734.547.734 1.11V-.75c0 .438-.109.438-.78.438V0c.359-.016.859-.031 1.124-.031.266 0 .781.015 1.11.031v-.312c-.516 0-.766 0-.766-.297V-2.5c0-.86 0-1.156-.313-1.516-.14-.171-.468-.375-1.046-.375-.829 0-1.266.594-1.438.985-.14-.875-.875-.985-1.312-.985-.735 0-1.188.438-1.47 1.047V-4.39l-1.405.11v.312c.703 0 .78.063.78.563m0 0"/><path id="e" d="M2.063-1.922c.218.031 1.03.203 1.03.906 0 .516-.343.907-1.124.907C1.14-.11.78-.672.594-1.516c-.031-.125-.031-.171-.14-.171-.126 0-.126.062-.126.25v1.312c0 .172 0 .234.11.234C.484.11.5.094.688-.094.703-.109.703-.125.89-.312a1.48 1.48 0 0 0 1.078.421c1.14 0 1.61-.671 1.61-1.375 0-.53-.298-.828-.423-.953-.328-.312-.719-.39-1.125-.469C1.47-2.796.797-2.921.797-3.5c0-.344.265-.75 1.125-.75 1.078 0 1.14.89 1.156 1.188 0 .093.094.093.11.093.14 0 .14-.047.14-.234v-1c0-.172 0-.234-.11-.234-.046 0-.077 0-.202.109a.819.819 0 0 1-.172.156c-.375-.266-.781-.266-.922-.266-1.219 0-1.594.657-1.594 1.22 0 .343.156.624.422.843.328.25.594.313 1.313.453m0 0"/><path id="f" d="M4.39-7.25a.18.18 0 0 0-.187-.187c-.14 0-.187.093-.219.187L.61 2.11c-.046.124-.046.171-.046.171 0 .11.078.203.187.203.14 0 .188-.109.219-.203l3.375-9.343c.047-.125.047-.188.047-.188m0 0"/><path id="g" d="M7.016-3.328c0-1.89-1.344-3.453-3.032-3.453H.344v.312h.234c.766 0 .797.11.797.469v5.219c0 .36-.031.469-.797.469H.344V0h3.64c1.657 0 3.032-1.469 3.032-3.328m-1 0c0 1.094-.188 1.687-.532 2.172-.203.265-.765.843-1.78.843h-1c-.454 0-.485-.062-.485-.39v-5.375c0-.328.031-.39.484-.39h1c.61 0 1.297.218 1.797.921.438.594.516 1.438.516 2.219m0 0"/><path id="h" d="M2.453 0v-.312c-.656 0-.703-.047-.703-.438v-3.64l-1.39.109v.312c.656 0 .734.063.734.547V-.75c0 .438-.11.438-.766.438V0l1.094-.031c.344 0 .687.015 1.031.031m-.547-6a.534.534 0 0 0-.531-.516A.533.533 0 0 0 .844-6c0 .281.234.531.531.531A.536.536 0 0 0 1.906-6m0 0"/><path id="i" d="M5.047-3.969v-.312c-.234.031-.516.031-.75.031l-.86-.031v.312c.36.016.47.235.47.422 0 .094-.016.14-.063.25l-1 2.516-1.125-2.766c-.047-.125-.047-.156-.047-.156 0-.266.375-.266.562-.266v-.312l-1.078.031c-.265 0-.672 0-.968-.031v.312c.625 0 .671.063.796.36L2.406-.08c.063.142.078.188.219.188.125 0 .156-.093.203-.187l1.297-3.219c.094-.234.266-.656.922-.672m0 0"/><path id="j" d="M1.906-.531A.524.524 0 1 0 .86-.515a.524.524 0 0 0 1.047-.016m0 0"/><path id="k" d="M-6.344-2.922c-.25 0-.265 0-.265.235.64.609.64 1.484.64 1.796h.297c0-.187 0-.78-.25-1.296h5.14c.36 0 .47.03.47.921v.329H0c-.031-.36-.031-1.22-.031-1.61 0-.406 0-1.265.031-1.61h-.312v.313c0 .89-.11.922-.47.922Zm0 0"/><path id="l" d="M-3.172-4.562c-.797 0-1.594.046-2.328.39-.953.469-1.11 1.281-1.11 1.688 0 .593.266 1.328 1.188 1.734.672.313 1.453.36 2.25.36.735 0 1.64-.032 2.39-.438.798-.438 1-1.156 1-1.64C.219-3 .017-3.767-.936-4.204c-.688-.313-1.454-.36-2.235-.36M0-2.47c0 .39-.25.969-1.203 1.156-.594.11-1.5.11-2.094.11-.625 0-1.281 0-1.828-.094-1.172-.187-1.266-.922-1.266-1.172 0-.328.172-.984 1.157-1.172.562-.093 1.312-.093 1.937-.093.75 0 1.422 0 2.063.109C-.297-3.485 0-2.922 0-2.469m0 0"/><path id="m" d="M-5.797-6.156c-.375-.14-.656-.407-.672-1.094h-.312c.031.313.031.719.031.969 0 .297-.016.875-.031 1.125h.312c.016-.516.266-.719.5-.719.078 0 .14.031.188.047l4.797 1.812L-6-2.109c-.14.062-.156.062-.187.062-.282 0-.282-.578-.282-.828h-.312c.031.36.031 1.047.031 1.422 0 .484-.016.906-.031 1.266h.312c0-.641 0-.829.375-.97L0-3.468c.188-.062.219-.11.219-.234 0-.172-.047-.203-.188-.25Zm0 0"/><path id="n" d="M-7.25-4.39a.18.18 0 0 0-.187.187c0 .14.093.187.187.219L2.11-.61a.594.594 0 0 0 .171.046c.11 0 .203-.078.203-.187 0-.14-.109-.187-.203-.219l-9.343-3.375c-.125-.047-.188-.047-.188-.047m0 0"/><path id="o" d="M-3.328-7.016c-1.89 0-3.453 1.344-3.453 3.032v3.64h.312v-.234c0-.766.11-.797.469-.797h5.219c.36 0 .469.031.469.797v.234H0v-3.64c0-1.657-1.469-3.032-3.328-3.032m0 1c1.094 0 1.687.188 2.172.532.265.203.843.765.843 1.78v1c0 .454-.062.485-.39.485h-5.375c-.328 0-.39-.031-.39-.484v-1c0-.61.218-1.297.921-1.797.594-.437 1.438-.516 2.219-.516m0 0"/><path id="p" d="M0-2.453h-.312c0 .656-.047.703-.438.703h-3.64l.109 1.39h.312c0-.656.063-.734.547-.734H-.75c.438 0 .438.11.438.766H0l-.031-1.094c0-.344.015-.687.031-1.031m-6 .547a.534.534 0 0 0-.516.531c0 .328.282.531.516.531a.537.537 0 0 0 .531-.531A.536.536 0 0 0-6-1.906m0 0"/><path id="q" d="M-3.969-5.047h-.312c.031.234.031.516.031.75l-.031.86h.312c.016-.36.235-.47.422-.47.094 0 .14.016.25.063l2.516 1-2.766 1.125c-.125.047-.156.047-.156.047-.266 0-.266-.375-.266-.562h-.312l.031 1.078c0 .265 0 .672-.031.968h.312c0-.624.063-.671.36-.796l3.53-1.422c.142-.063.188-.078.188-.219 0-.125-.093-.156-.187-.203l-3.219-1.297c-.234-.094-.656-.266-.672-.922m0 0"/><path id="r" d="M-.531-1.906A.524.524 0 1 0-.515-.86a.524.524 0 0 0-.016-1.047m0 0"/><clipPath id="a"><path d="M16 .32h206V176H16Zm0 0"/></clipPath><clipPath id="b"><path d="M0 7h225.133v162H0Zm0 0"/></clipPath></defs><g clip-path="url(#a)"><path fill="none" stroke="#000" stroke-miterlimit="10" stroke-width=".39735612000000003" d="M16.734 175.633h204.301m-204.3-29.188h204.3m-204.3-29.183h204.3m-204.3-29.188h204.3m-204.3-29.187h204.3m-204.3-29.184h204.3M16.735.527h204.3m-204.3 175.106V.516m29.183 175.117V.516m29.187 175.117V.516m29.188 175.117V.516m29.184 175.117V.516m29.187 175.117V.516m29.188 175.117V.516m29.175 175.117V.516"/></g><g clip-path="url(#b)"><path fill="none" stroke="#000" stroke-miterlimit="10" stroke-width="1.58743272" d="M16.734 88.074c9.516-29.887 18.621-58.37 29.184-58.37 10.566 0 19.672 28.483 29.187 58.37 9.516 29.887 18.622 58.371 29.188 58.371 10.566 0 19.672-28.484 29.184-58.37 9.515-29.888 18.62-58.372 29.187-58.372s19.672 28.484 29.188 58.371c9.515 29.887 18.62 58.371 29.183 58.371"/></g><use xlink:href="#c" x="175.437" y="186.579"/><use xlink:href="#d" x="182.044" y="186.579"/><use xlink:href="#e" x="190.312" y="186.579"/><use xlink:href="#f" x="194.234" y="186.579"/><use xlink:href="#g" x="199.195" y="186.579"/><use xlink:href="#h" x="206.775" y="186.579"/><use xlink:href="#i" x="209.533" y="186.579"/><use xlink:href="#j" x="214.771" y="186.579"/><use xlink:href="#k" x="10.748" y="46.473"/><use xlink:href="#l" x="10.748" y="41.512"/><use xlink:href="#m" x="10.748" y="34.904"/><use xlink:href="#n" x="10.748" y="27.319"/><use xlink:href="#o" x="10.748" y="22.358"/><use xlink:href="#p" x="10.748" y="14.778"/><use xlink:href="#q" x="10.748" y="12.02"/><use xlink:href="#r" x="10.748" y="6.781"/></svg>