<svg xmlns="http://www.w3.org/2000/svg" xmlns:xlink="http://www.w3.org/1999/xlink" width="110.127" height="32.946"><defs><clipPath id="a"><path d="M26 .102h54V31H26Zm0 0"/></clipPath><path id="b" d="M7.078-6.453v-.297l-1.156.031-1.188-.031v.297c1.016 0 1.016.469 1.016.734v3.438c0 1.406-.953 2.187-1.89 2.187-.47 0-1.641-.25-1.641-2.125v-3.765c0-.36.031-.47.781-.47h.25v-.296c-.36.031-1.078.031-1.453.031s-1.125 0-1.469-.031v.297h.235c.765 0 .78.11.78.469v3.734C1.344-.86 2.5.219 3.844.219c1.126 0 2.016-.922 2.188-2.047.032-.203.032-.281.032-.688v-3.156c0-.328 0-.781 1.015-.781m0 0"/></defs><path fill="none" stroke="#000" stroke-miterlimit="10" stroke-width=".39585987" d="M.2 8.926h37.034m31.5 0h37.04"/><path fill="none" stroke="#000" stroke-miterlimit="10" stroke-width=".79072761" d="M37.234 3.027h31.5V14.82h-31.5Zm0 0"/><g clip-path="url(#a)"><path fill="none" stroke="#000" stroke-miterlimit="10" stroke-width=".79072761" d="m68.734.5-22.05 18.535h-9.45"/></g><use xlink:href="#b" x="35.779" y="29.277"/></svg>