<svg xmlns="http://www.w3.org/2000/svg" xmlns:xlink="http://www.w3.org/1999/xlink" width="83.086" height="53.973"><defs><clipPath id="a"><path d="M0 .281h79V41H0Zm0 0"/></clipPath><clipPath id="b"><path d="M0 .281h79V42H0Zm0 0"/></clipPath><clipPath id="c"><path d="M0 .281h28V21H0Zm0 0"/></clipPath><clipPath id="g"><path d="M56 22h23v31.664H56Zm0 0"/></clipPath><clipPath id="h"><path d="M51 38h6v15.664h-6Zm0 0"/></clipPath><path id="d" d="M6.547 2.61 7 2.25l-.516-.203c-1.468-.578-1.328-.735-.703-1.235l9.625-7.703c.36-.28.36-.312.125-.39-1.469.36-2.734.172-3.703-.203-.062-.016-.14-.047-.203-.016-.047.016-.078.047-.437.328a6.474 6.474 0 0 0 2.593.438L4.828.438c-.61.484-.828.625-2.297.03L2.016.267l-.453.359 2.515.984Zm0 0"/><path id="e" d="M12.625-1.516c1.031-.828 2.797-2.25 3.438-3.609.546-1.219-.032-1.953-.907-2.312-.828-.329-2.234-.454-4.125.28-1.953.735-3.594 1.985-4.906 3.048-.984.78-2.437 1.968-3.219 3.203C1.891.78 2.97 1.516 3.641 1.78c.78.313 2.297.516 4.609-.484 1.672-.75 3.125-1.813 4.375-2.813m-.906-.578C10.609-1.219 9.25-.125 8.03.61 5.828 1.938 4.5 1.797 3.906 1.563c-1.094-.438-.812-1.454.25-2.579.813-.875 2.282-2.046 3.235-2.796 1.312-1.063 2.39-1.922 3.656-2.672 1.765-1.032 3.172-1 3.844-.735.687.282 1.125 1 .062 2.25-.75.86-1.875 1.782-3.234 2.875m0 0"/><path id="f" d="M10.172.531c1.656-1.328 1.5-2.828.047-3.61 1.594.298 3.984-.124 5.547-1.374 1.312-1.047.937-2.36-.594-2.984-1.563-.61-3.875-.391-5.235.703-.593.468-.234.718-.015.812.36.14.86.094 1.312-.266.438-.343.36-.656 0-.796-.078-.032-.156-.063-.25-.063 1.61-.703 3.188-.328 3.782-.078.593.234 1.406.906-.235 2.219-.484.375-1.375 1.031-2.703 1.406-1.187.328-1.812.125-2.406-.062a5.15 5.15 0 0 0-.594-.188c-.125-.031-.219-.047-.344.047-.109.094-.109.094.25.234l.813.328c1.531.61.875 1.938-.64 3.141C6.874 1.64 5 1.828 4 1.438 3.094 1.078 2.078.14 2.938-1.094c.015.063.109.094.203.125.406.156 1 .078 1.437-.265.516-.407.344-.735 0-.875-.297-.11-.86-.203-1.484.312-1.578 1.25-1.266 2.844.547 3.578 1.875.75 4.797.14 6.53-1.25m0 0"/></defs><g clip-path="url(#a)"><path d="m56.273 40.852 22.43-17.946L22.63.476.195 18.423Zm0 0"/></g><g clip-path="url(#b)"><path fill="none" stroke="#000" stroke-linecap="round" stroke-linejoin="round" stroke-miterlimit="10" stroke-width=".39465888000000005" d="m56.273 40.852 22.43-17.946L22.63.476.195 18.423Zm0 0"/></g><path fill="#7F7F7F" stroke="#000" stroke-linecap="round" stroke-linejoin="round" stroke-miterlimit="10" stroke-width=".39465888000000005" d="m56.273 40.852 22.43-17.946-5.047-2.02-22.43 17.946Zm0 0"/><g clip-path="url(#c)"><path fill="#7F7F7F" stroke="#000" stroke-linecap="round" stroke-linejoin="round" stroke-miterlimit="10" stroke-width=".39465888000000005" d="m5.242 20.441 22.43-17.945-5.043-2.02L.195 18.423Zm0 0"/></g><g fill="#FFF"><use xlink:href="#d" x="22.237" y="20.368"/><use xlink:href="#e" x="30.052" y="23.494"/><use xlink:href="#f" x="37.867" y="26.62"/></g><g clip-path="url(#g)"><path fill="#7F7F7F" stroke="#000" stroke-linecap="round" stroke-linejoin="round" stroke-miterlimit="10" stroke-width=".39465888000000005" d="m56.273 53.469 22.43-17.946V22.906l-22.43 17.946Zm0 0"/></g><g clip-path="url(#h)"><path fill="#7F7F7F" stroke="#000" stroke-linecap="round" stroke-linejoin="round" stroke-miterlimit="10" stroke-width=".39465888000000005" d="m56.273 53.469-5.046-2.02V38.832l5.046 2.02Zm0 0"/></g><path stroke="#000" stroke-linecap="round" stroke-linejoin="round" stroke-miterlimit="10" stroke-width=".39465888000000005" d="M51.227 51.45 5.242 33.058V20.44l45.985 18.391Zm0 0"/><path fill="#7F7F7F" stroke="#000" stroke-linecap="round" stroke-linejoin="round" stroke-miterlimit="10" stroke-width=".39465888000000005" d="m5.242 33.059-5.047-2.02V18.422l5.047 2.02Zm0 0"/><path fill="none" stroke="#7F7F7F" stroke-linecap="round" stroke-linejoin="round" stroke-miterlimit="10" stroke-width=".39465888000000005" d="m5.242 20.441 45.985 18.391"/></svg>