<svg xmlns="http://www.w3.org/2000/svg" xmlns:xlink="http://www.w3.org/1999/xlink" width="110.02" height="42.567"><defs><clipPath id="a"><path d="M.07 26H106v2H.07Zm0 0"/></clipPath><clipPath id="b"><path d="M26 7h54v35.137H26Zm0 0"/></clipPath><path id="c" d="M5.031-3.516c.203-.828.203-1.359.203-1.468 0-.375-.062-1.97-1.093-1.97-.813 0-1.453 1.032-1.453 1.813 0 .954.921 1.422 1.609 1.657-.219.875-.375 1.453-.703 2.125C3.469-1.08 3-.11 2.422-.11c-.672 0-.735-.5-.735-.782 0-.265.079-.578.125-.812.063-.234.125-.453.188-.75l.125-.469c.047-.172.094-.375.094-.531 0-.594-.438-.906-.89-.906-.454 0-.641.39-.735.562a4.75 4.75 0 0 0-.313.953c0 .11.11.11.125.11.094 0 .11-.016.172-.235.156-.703.36-1.172.719-1.172.156 0 .297.079.297.454 0 .218-.14.75-.219 1.109-.047.172-.125.5-.187.719a3.133 3.133 0 0 0-.125.828c0 .937.687 1.14 1.328 1.14 1.047 0 2.093-1.562 2.593-3.406.11.016.391.078.454.078.03 0 .093-.031.093-.11 0-.077-.062-.093-.203-.124Zm-.672-.187c-.484-.172-1.437-.563-1.437-1.453 0-.61.515-1.578 1.203-1.578.25 0 .516.14.516 1.172 0 .625-.157 1.296-.282 1.859m0 0"/></defs><g clip-path="url(#a)"><path fill="none" stroke="#000" stroke-miterlimit="10" stroke-width=".39498207" d="M.266 27.02h36.902m31.43 0H105.5"/></g><path fill="none" stroke="#000" stroke-miterlimit="10" stroke-width=".78897421" d="M37.168 21.137h31.43v11.77h-31.43Zm0 0"/><g clip-path="url(#b)"><path fill="none" stroke="#000" stroke-miterlimit="10" stroke-width=".78897421" d="m68.598 18.613-22 18.496h-9.43"/></g><use xlink:href="#c" x="72.081" y="38.851"/><path fill="none" stroke="#000" stroke-miterlimit="10" stroke-width=".39498207" d="M76.488 18.613V3.633"/><path stroke="#000" stroke-miterlimit="10" stroke-width=".39498207" d="m76.488.59-1.746 2.945h3.492Zm0 0"/><path fill="none" stroke="#000" stroke-miterlimit="10" stroke-width=".39498207" d="M84.383 18.613V3.633"/><path stroke="#000" stroke-miterlimit="10" stroke-width=".39498207" d="m84.383.59-1.746 2.945h3.492Zm0 0"/></svg>