<svg xmlns="http://www.w3.org/2000/svg" xmlns:xlink="http://www.w3.org/1999/xlink" width="222.713" height="143.868"><defs><path id="d" d="M5.797-2.562h-.25c-.11 1.015-.25 2.25-2 2.25h-.813c-.468 0-.5-.063-.5-.391v-5.313c0-.328 0-.468.954-.468h.328v-.313c-.36.031-1.266.031-1.672.031-.39 0-1.172 0-1.516-.03v.312h.235c.765 0 .796.109.796.468V-.78c0 .36-.03.469-.796.469H.328V0h5.188Zm0 0"/><path id="e" d="M4.813-.89v-.547h-.25v.546c0 .579-.25.641-.36.641-.328 0-.375-.453-.375-.5v-1.984c0-.422 0-.813-.36-1.172a1.874 1.874 0 0 0-1.359-.547c-.812 0-1.5.469-1.5 1.125 0 .297.204.469.454.469.28 0 .453-.203.453-.47 0-.108-.047-.437-.5-.452.265-.344.75-.453 1.078-.453.484 0 1.047.375 1.047 1.265v.375c-.5.031-1.203.063-1.828.36-.75.328-1 .843-1 1.28C.313-.14 1.28.11 1.906.11c.657 0 1.125-.39 1.313-.859.031.39.297.813.765.813.22 0 .829-.141.829-.954m-1.672-.5c0 .937-.72 1.28-1.157 1.28-.484 0-.906-.343-.906-.843 0-.547.422-1.375 2.063-1.438Zm0 0"/><path id="f" d="M8.094 0v-.312c-.516 0-.766 0-.781-.297v-1.907c0-.843 0-1.156-.313-1.515-.125-.172-.453-.375-1.031-.375-.844 0-1.282.61-1.453.984-.141-.875-.875-.984-1.328-.984-.72 0-1.188.437-1.47 1.047v-1.047l-1.405.11v.312c.703 0 .78.078.78.562V-.75c0 .438-.109.438-.78.438V0l1.125-.031L2.563 0v-.312c-.672 0-.782 0-.782-.438v-1.844c0-1.031.703-1.594 1.344-1.594.625 0 .734.547.734 1.11V-.75c0 .438-.109.438-.78.438V0l1.124-.031L5.328 0v-.312c-.672 0-.781 0-.781-.438v-1.844c0-1.031.703-1.594 1.344-1.594.625 0 .734.547.734 1.11V-.75c0 .438-.11.438-.766.438V0l1.125-.031Zm0 0"/><path id="g" d="M5.188-2.156c0-1.25-.97-2.25-2.079-2.25-.78 0-1.203.437-1.39.656v-.656l-1.438.11v.312c.703 0 .782.062.782.5v4.656c0 .453-.11.453-.782.453v.313l1.11-.032 1.125.032v-.313c-.672 0-.782 0-.782-.453V-.594c.063.172.47.703 1.235.703 1.187 0 2.219-.968 2.219-2.265m-.829 0C4.36-.953 3.656-.11 2.922-.11c-.39 0-.766-.203-1.047-.61-.14-.203-.14-.219-.14-.422v-2.218c.296-.5.78-.797 1.296-.797.719 0 1.328.875 1.328 2m0 0"/><path id="h" d="M4.125-1.187c0-.094-.078-.11-.125-.11-.094 0-.11.047-.125.125C3.515-.14 2.625-.14 2.531-.14c-.5 0-.906-.296-1.125-.671-.297-.47-.297-1.125-.297-1.485h2.766c.219 0 .25 0 .25-.219 0-.984-.531-1.937-1.781-1.937C1.188-4.453.28-3.437.28-2.187.281-.86 1.328.108 2.47.108 3.688.11 4.125-1 4.125-1.187m-.656-1.329h-2.36c.063-1.468.907-1.718 1.235-1.718 1.031 0 1.125 1.343 1.125 1.718m0 0"/><path id="i" d="M2.328-4.437c0-.188 0-.188-.203-.188-.453.438-1.078.438-1.36.438v.25c.157 0 .626 0 1-.188v3.547c0 .234 0 .328-.687.328H.812V0c.125 0 .985-.031 1.235-.031.219 0 1.094.031 1.25.031v-.25H3.03c-.703 0-.703-.094-.703-.328Zm0 0"/><path id="l" d="M3.516-1.266H3.28c-.015.157-.094.563-.187.625-.047.047-.578.047-.688.047H1.125c.734-.64.984-.843 1.39-1.172.516-.406 1-.843 1-1.5 0-.843-.734-1.359-1.624-1.359-.86 0-1.453.61-1.453 1.25 0 .344.296.39.375.39.156 0 .359-.124.359-.374 0-.125-.047-.375-.406-.375.218-.485.687-.641 1.015-.641.703 0 1.063.547 1.063 1.11 0 .609-.438 1.078-.656 1.328L.516-.266C.437-.203.437-.187.437 0h2.876Zm0 0"/><clipPath id="a"><path d="M37 .027h48V22H37Zm0 0"/></clipPath><clipPath id="b"><path d="M107 140h5v3.71h-5Zm0 0"/></clipPath><clipPath id="c"><path d="M102 134h15v9.71h-15Zm0 0"/></clipPath><clipPath id="j"><path d="M183 86h39.426v47H183Zm0 0"/></clipPath><clipPath id="k"><path d="M187 89h35.426v41H187Zm0 0"/></clipPath></defs><path fill="none" stroke="#000" stroke-miterlimit="10" stroke-width=".39848529" d="M12.29 141.926V83.023m0-11.89V12.234h33.769m29.726 0h33.774v16.567m0 31.71v16.567H95.687V52.582M12.29 79.043v3.98m0-7.906v-3.984"/><path fill="none" stroke="#000" stroke-miterlimit="10" stroke-width=".79597187" d="M.398 75.117H24.18"/><path fill="none" stroke="#000" stroke-miterlimit="10" stroke-width="2.38791561" d="M6.344 79.043h11.89"/><g clip-path="url(#a)"><path fill="none" stroke="#000" stroke-linecap="round" stroke-miterlimit="10" stroke-width=".63418085" d="M46.059 12.234 75.785.344"/></g><path stroke="#000" stroke-miterlimit="10" stroke-width=".39848529" d="M47.645 12.234a1.585 1.585 0 1 0-3.17-.002 1.585 1.585 0 0 0 3.17.002ZM77.371 12.234a1.587 1.587 0 0 0-3.172 0c0 .875.711 1.582 1.586 1.582.875 0 1.586-.707 1.586-1.582ZM111.145 12.234a1.587 1.587 0 0 0-3.172 0c0 .875.71 1.582 1.586 1.582.875 0 1.586-.707 1.586-1.582Zm0 0"/><path fill="none" stroke="#000" stroke-miterlimit="10" stroke-width=".79597187" d="M104.008 28.8v31.712h11.097V28.8ZM95.687 52.582l27.223-15.555"/><path fill="none" stroke="#000" stroke-miterlimit="10" stroke-width=".7959320200000001" d="m121.555 34.25 3.058 5.355"/><path stroke="#000" stroke-miterlimit="10" stroke-width=".39848529" d="M111.145 77.078c0-.875-.711-1.582-1.586-1.582a1.584 1.584 0 1 0 0 3.168c.875 0 1.586-.71 1.586-1.586Zm0 0"/><path fill="none" stroke="#000" stroke-miterlimit="10" stroke-width=".39848529" d="M109.559 77.078v20.535m0 23.782v20.53"/><path fill="none" stroke="#000" stroke-miterlimit="10" stroke-width=".79597187" d="M121.45 109.504c0-6.566-5.325-11.89-11.891-11.89-6.567 0-11.891 5.324-11.891 11.89 0 6.566 5.324 11.89 11.89 11.89 6.567 0 11.891-5.324 11.891-11.89ZM117.965 101.094l-16.817 16.816m0-16.816 16.817 16.816"/><g clip-path="url(#b)"><path d="M111.145 141.926a1.587 1.587 0 0 0-3.172 0 1.587 1.587 0 0 0 3.172 0m0 0"/></g><g clip-path="url(#c)"><path fill="none" stroke="#000" stroke-miterlimit="10" stroke-width=".39848529" d="M111.145 141.926a1.587 1.587 0 0 0-3.172 0 1.587 1.587 0 0 0 3.172 0Zm0 0"/></g><use xlink:href="#d" x="60.696" y="111.647"/><use xlink:href="#e" x="66.914" y="111.647"/><use xlink:href="#f" x="71.889" y="111.647"/><use xlink:href="#g" x="80.178" y="111.647"/><use xlink:href="#h" x="85.988" y="111.647"/><use xlink:href="#i" x="90.405" y="114.075"/><path fill="none" stroke="#000" stroke-miterlimit="10" stroke-width=".39848529" d="M109.559 12.234h48.632m0 0h48.637v16.567m0 31.71v37.102m0 23.782v20.53h-48.637m0 0h-97.27m0 0H12.29"/><path fill="none" stroke="#000" stroke-linejoin="bevel" stroke-miterlimit="10" stroke-width=".79597187" d="M206.668 28.406c3.285 0 5.945 1.817 5.945 4.063 0 2.242-2.66 4.062-5.945 4.062 3.285 0 5.945 1.817 5.945 4.063 0 2.242-2.66 4.062-5.945 4.062 3.285 0 5.945 1.82 5.945 4.063 0 2.246-2.66 4.062-5.945 4.062 3.285 0 5.945 1.82 5.945 4.063 0 2.246-2.66 4.062-5.945 4.062"/><g clip-path="url(#j)"><path fill="none" stroke="#000" stroke-miterlimit="10" stroke-width=".79597187" d="M218.719 109.504c0-6.566-5.324-11.89-11.89-11.89-6.567 0-11.892 5.324-11.892 11.89 0 6.566 5.325 11.89 11.891 11.89 6.567 0 11.89-5.324 11.89-11.89Zm0 0"/></g><g clip-path="url(#k)"><path fill="none" stroke="#000" stroke-miterlimit="10" stroke-width=".79597187" d="m215.234 101.094-16.816 16.816m0-16.816 16.816 16.816"/></g><use xlink:href="#d" x="157.963" y="111.647"/><use xlink:href="#e" x="164.182" y="111.647"/><use xlink:href="#f" x="169.157" y="111.647"/><use xlink:href="#g" x="177.445" y="111.647"/><use xlink:href="#h" x="183.256" y="111.647"/><use xlink:href="#l" x="187.674" y="114.075"/><path fill="none" stroke="#000" stroke-miterlimit="10" stroke-width=".79597187" d="M214.762 60.512V28.8"/></svg>