<svg xmlns="http://www.w3.org/2000/svg" xmlns:xlink="http://www.w3.org/1999/xlink" width="233.588" height="98.207"><defs><clipPath id="a"><path d="M220 77h12.45v15H220Zm0 0"/></clipPath><clipPath id="b"><path d="M15.344 3H228.96v81.555H15.344Zm0 0"/></clipPath><path id="c" d="M2.031-3.953h.938c.203 0 .297 0 .297-.203 0-.11-.094-.11-.282-.11H2.11c.36-1.406.407-1.593.407-1.656 0-.172-.11-.266-.282-.266-.03 0-.312 0-.39.36l-.39 1.562H.53c-.203 0-.297 0-.297.188 0 .125.078.125.266.125h.875C.656-1.141.625-.984.625-.797c0 .531.375.906.906.906C2.547.11 3.11-1.328 3.11-1.42c0-.095-.078-.095-.125-.095-.093 0-.093.032-.14.141C2.406-.344 1.89-.109 1.547-.109c-.203 0-.297-.125-.297-.453 0-.235.016-.313.063-.47Zm0 0"/><path id="d" d="M6.281-5.719c.094-.406.282-.703 1.063-.734.047 0 .172 0 .172-.188 0-.015 0-.109-.125-.109-.328 0-.672.031-1.016.031-.328 0-.703-.031-1.031-.031-.047 0-.172 0-.172.188 0 .109.094.109.172.109.578.016.672.219.672.437 0 .032-.016.188-.016.204l-.89 3.53C4.765-.952 3.624-.093 2.64-.093c-.671 0-1.203-.437-1.203-1.281 0-.016 0-.344.11-.766L2.5-6c.094-.344.11-.453.828-.453.266 0 .344 0 .344-.188 0-.109-.11-.109-.14-.109-.282 0-.985.031-1.266.031-.282 0-.985-.031-1.282-.031-.078 0-.187 0-.187.188 0 .109.094.109.281.109.016 0 .203 0 .375.031.172.016.266.016.266.156 0 .047-.11.47-.172.704l-.219.859C1.25-4.313.766-2.437.734-2.25c-.078.266-.078.422-.078.563C.656-.47 1.563.218 2.594.218c1.25 0 2.484-1.125 2.812-2.422Zm0 0"/></defs><path fill="none" stroke="#000" stroke-miterlimit="10" stroke-width=".39580401000000004" d="M15.344 84.555H225.52"/><path d="m228.566 84.555-2.949-1.746v3.496Zm0 0"/><g clip-path="url(#a)"><path fill="none" stroke="#000" stroke-miterlimit="10" stroke-width=".39580401000000004" d="m228.566 84.555-2.949-1.746v3.496Zm0 0"/></g><path fill="none" stroke="#000" stroke-miterlimit="10" stroke-width=".39580401000000004" d="M15.344 84.555V3.64"/><path stroke="#000" stroke-miterlimit="10" stroke-width=".39580401000000004" d="m15.344.594-1.75 2.949h3.496Zm0 0"/><g clip-path="url(#b)"><path fill="none" stroke="#000" stroke-miterlimit="10" stroke-width=".79061603" d="M15.344 84.531s6.43-.004 8.898-.008l8.903-.011c2.468-.004 6.43-.012 8.902-.02 2.469-.008 6.43-.015 8.898-.027a6790.466 6790.466 0 0 0 17.801-.082 3368.245 3368.245 0 0 0 17.805-.164c2.469-.035 6.43-.09 8.898-.137 2.473-.043 6.434-.125 8.903-.187a1134.1 1134.1 0 0 0 8.902-.262 752.63 752.63 0 0 0 8.898-.363c2.473-.122 6.434-.34 8.903-.512 2.468-.168 6.43-.473 8.902-.711 2.469-.235 6.43-.66 8.898-.992 2.47-.328 6.43-.922 8.903-1.383 2.469-.461 6.43-1.29 8.898-1.934 2.473-.64 6.434-1.8 8.903-2.695 2.468-.898 6.43-2.512 8.902-3.766 2.469-1.25 6.43-3.507 8.898-5.25 2.473-1.746 6.434-4.894 8.903-7.332 2.468-2.437 6.43-6.832 8.902-10.23 2.469-3.403 6.43-9.535 8.899-14.281 2.472-4.747 8.902-19.926 8.902-19.926"/></g><use xlink:href="#c" x="221.899" y="94.126"/><use xlink:href="#d" x="4.026" y="10.443"/></svg>