<svg xmlns="http://www.w3.org/2000/svg" width="229.612" height="167.799"><defs><clipPath id="a"><path d="M14 .043h30V46H14Zm0 0"/></clipPath><clipPath id="b"><path d="M26 .043h31V46H26Zm0 0"/></clipPath><clipPath id="c"><path d="M39 .043h30V46H39Zm0 0"/></clipPath><clipPath id="d"><path d="M52 .043h30V46H52Zm0 0"/></clipPath><clipPath id="e"><path d="M64 .043h31V46H64Zm0 0"/></clipPath><clipPath id="f"><path d="M77 .043h30V46H77Zm0 0"/></clipPath><clipPath id="g"><path d="M3 .043h47V54H3Zm0 0"/></clipPath><clipPath id="h"><path d="M16 .043h46V54H16Zm0 0"/></clipPath><clipPath id="i"><path d="M29 .043h46V54H29Zm0 0"/></clipPath><clipPath id="j"><path d="M41 .043h47V54H41Zm0 0"/></clipPath><clipPath id="k"><path d="M54 .043h47V54H54Zm0 0"/></clipPath><clipPath id="l"><path d="M67 .043h46V54H67Zm0 0"/></clipPath><clipPath id="m"><path d="M82 .043h38V33H82Zm0 0"/></clipPath><clipPath id="n"><path d="M0 .043h37V33H0Zm0 0"/></clipPath><clipPath id="o"><path d="M193 88h36.227v44H193Zm0 0"/></clipPath><clipPath id="p"><path d="M210 151h19.227v16.559H210Zm0 0"/></clipPath><clipPath id="q"><path d="M0 151h19v16.559H0Zm0 0"/></clipPath></defs><g clip-path="url(#a)"><path fill="none" stroke="#000" stroke-miterlimit="10" stroke-width=".7956530700000001" d="M25.398 4.54s.907 1.054 1.235 1.495c.332.445.84 1.2 1.137 1.695.3.493.761 1.329 1.027 1.868.27.539.676 1.441.91 2.02.23.577.578 1.538.777 2.144.196.61.485 1.613.641 2.246.16.633.387 1.668.504 2.316.121.645.277 1.7.36 2.356.077.656.171 1.71.21 2.367.04.656.067 1.703.067 2.351 0 .645-.036 1.676-.079 2.305a40.93 40.93 0 0 1-.214 2.227c-.082.601-.239 1.55-.352 2.12-.117.571-.48 1.993-.48 1.993"/></g><g clip-path="url(#b)"><path fill="none" stroke="#000" stroke-miterlimit="10" stroke-width=".7956530700000001" d="M38.074 4.54s.906 1.054 1.238 1.495c.329.445.836 1.2 1.137 1.695a30.3 30.3 0 0 1 1.028 1.868c.265.539.671 1.441.906 2.02.234.577.582 1.538.777 2.144.2.61.485 1.613.645 2.246.16.633.382 1.668.504 2.316.117.645.277 1.7.355 2.356.078.656.172 1.71.211 2.367.04.656.07 1.703.066 2.351 0 .645-.035 1.676-.078 2.305a40.93 40.93 0 0 1-.215 2.227c-.078.601-.238 1.55-.351 2.12-.117.571-.48 1.993-.48 1.993"/></g><g clip-path="url(#c)"><path fill="none" stroke="#000" stroke-miterlimit="10" stroke-width=".7956530700000001" d="M50.754 4.54s.906 1.054 1.234 1.495c.328.445.836 1.2 1.137 1.695a30.3 30.3 0 0 1 1.027 1.868c.27.539.672 1.441.907 2.02.234.577.582 1.538.78 2.144.196.61.485 1.613.641 2.246.16.633.383 1.668.504 2.316.118.645.278 1.7.356 2.356.082.656.176 1.71.215 2.367.039.656.066 1.703.066 2.351-.004.645-.039 1.676-.078 2.305-.043.625-.14 1.621-.219 2.227-.078.601-.234 1.55-.351 2.12-.114.571-.477 1.993-.477 1.993"/></g><g clip-path="url(#d)"><path fill="none" stroke="#000" stroke-miterlimit="10" stroke-width=".7956530700000001" d="M63.43 4.54s.906 1.054 1.234 1.495c.332.445.84 1.2 1.14 1.695.298.493.758 1.329 1.024 1.868.27.539.676 1.441.91 2.02.235.577.578 1.538.778 2.144.195.61.484 1.613.644 2.246.156.633.383 1.668.5 2.316.121.645.281 1.7.36 2.356.078.656.171 1.71.21 2.367.04.656.067 1.703.067 2.351 0 .645-.035 1.676-.078 2.305-.04.625-.137 1.621-.215 2.227-.082.601-.238 1.55-.352 2.12-.117.571-.48 1.993-.48 1.993"/></g><g clip-path="url(#e)"><path fill="none" stroke="#000" stroke-miterlimit="10" stroke-width=".7956530700000001" d="M76.105 4.54s.907 1.054 1.239 1.495c.328.445.836 1.2 1.136 1.695a30.3 30.3 0 0 1 1.028 1.868c.265.539.672 1.441.906 2.02.234.577.582 1.538.777 2.144.2.61.485 1.613.645 2.246.16.633.383 1.668.504 2.316.117.645.277 1.7.355 2.356.078.656.176 1.71.211 2.367.04.656.07 1.703.067 2.351 0 .645-.036 1.676-.075 2.305-.043.625-.14 1.621-.218 2.227-.078.601-.239 1.55-.352 2.12-.117.571-.48 1.993-.48 1.993"/></g><g clip-path="url(#f)"><path fill="none" stroke="#000" stroke-miterlimit="10" stroke-width=".7956530700000001" d="M88.785 4.54s.906 1.054 1.235 1.495c.328.445.835 1.2 1.136 1.695a30.3 30.3 0 0 1 1.028 1.868c.27.539.671 1.441.906 2.02.234.577.582 1.538.781 2.144.195.61.484 1.613.64 2.246.16.633.384 1.668.505 2.316.117.645.277 1.7.355 2.356.082.656.176 1.71.215 2.367.039.656.066 1.703.066 2.351-.004.645-.039 1.676-.078 2.305a40.916 40.916 0 0 1-.219 2.227 35.31 35.31 0 0 1-.351 2.12c-.113.571-.477 1.993-.477 1.993"/></g><g clip-path="url(#g)"><path fill="none" stroke="#000" stroke-miterlimit="10" stroke-width=".7956530700000001" d="M31.14 34.05s-1.417 3.845-2.105 4.946c-.687 1.106-2.008 2.484-2.848 3-.835.516-2.32.844-3.19.715-.876-.129-2.317-.89-3.11-1.652-.79-.758-1.992-2.524-2.59-3.829-.598-1.308-1.399-3.878-1.715-5.582-.316-1.707-.59-4.793-.566-6.707.02-1.91.343-5.171.718-7.074.38-1.906 1.293-4.972 2.008-6.656.711-1.684 2.149-4.211 3.137-5.484.992-1.274 2.82-2.98 4-3.7 1.176-.722 3.23-1.414 4.48-1.5 1.254-.09 3.332.313 4.543.868 1.207.554 4.168 3.136 4.168 3.136"/></g><g clip-path="url(#h)"><path fill="none" stroke="#000" stroke-miterlimit="10" stroke-width=".7956530700000001" d="M43.816 34.05s-1.418 3.845-2.105 4.946c-.688 1.106-2.008 2.484-2.848 3-.836.516-2.316.844-3.191.715s-2.317-.89-3.106-1.652c-.793-.758-1.996-2.524-2.593-3.829-.598-1.308-1.399-3.878-1.715-5.582-.317-1.707-.586-4.793-.567-6.707.024-1.91.344-5.171.723-7.074.379-1.906 1.29-4.972 2.004-6.656.715-1.684 2.148-4.211 3.14-5.484.989-1.274 2.82-2.98 3.997-3.7 1.175-.722 3.23-1.414 4.484-1.5 1.25-.09 3.332.313 4.54.868 1.21.554 4.167 3.136 4.167 3.136"/></g><g clip-path="url(#i)"><path fill="none" stroke="#000" stroke-miterlimit="10" stroke-width=".7956530700000001" d="M56.492 34.05s-1.418 3.845-2.105 4.946c-.684 1.106-2.008 2.484-2.844 3-.84.516-2.32.844-3.195.715-.871-.129-2.313-.89-3.106-1.652-.789-.758-1.996-2.524-2.594-3.829-.597-1.308-1.398-3.878-1.714-5.582-.317-1.707-.586-4.793-.567-6.707.024-1.91.344-5.171.723-7.074.379-1.906 1.293-4.972 2.004-6.656.715-1.684 2.148-4.211 3.14-5.484.989-1.274 2.82-2.98 3.996-3.7 1.176-.722 3.23-1.414 4.485-1.5 1.254-.09 3.332.313 4.543.868 1.207.554 4.168 3.136 4.168 3.136"/></g><g clip-path="url(#j)"><path fill="none" stroke="#000" stroke-miterlimit="10" stroke-width=".7956530700000001" d="M69.172 34.05s-1.418 3.845-2.106 4.946c-.687 1.106-2.007 2.484-2.847 3-.836.516-2.32.844-3.192.715-.875-.129-2.316-.89-3.105-1.652-.793-.758-1.996-2.524-2.594-3.829-.598-1.308-1.398-3.878-1.715-5.582-.316-1.707-.59-4.793-.566-6.707.02-1.91.344-5.171.723-7.074.375-1.906 1.289-4.972 2.003-6.656.711-1.684 2.149-4.211 3.137-5.484.992-1.274 2.82-2.98 4-3.7 1.176-.722 3.23-1.414 4.48-1.5 1.255-.09 3.337.313 4.544.868 1.207.554 4.168 3.136 4.168 3.136"/></g><g clip-path="url(#k)"><path fill="none" stroke="#000" stroke-miterlimit="10" stroke-width=".7956530700000001" d="M81.848 34.05s-1.418 3.845-2.106 4.946c-.687 1.106-2.008 2.484-2.844 3-.84.516-2.32.844-3.195.715s-2.316-.89-3.105-1.652c-.793-.758-1.996-2.524-2.594-3.829-.598-1.308-1.399-3.878-1.715-5.582-.316-1.707-.586-4.793-.566-6.707.023-1.91.343-5.171.722-7.074.38-1.906 1.29-4.972 2.004-6.656.715-1.684 2.149-4.211 3.14-5.484.99-1.274 2.821-2.98 3.997-3.7 1.176-.722 3.23-1.414 4.484-1.5 1.25-.09 3.332.313 4.54.868 1.21.554 4.167 3.136 4.167 3.136"/></g><g clip-path="url(#l)"><path fill="none" stroke="#000" stroke-miterlimit="10" stroke-width=".7956530700000001" d="M94.523 34.05s-1.418 3.845-2.101 4.946c-.688 1.106-2.012 2.484-2.848 3-.84.516-2.32.844-3.195.715-.871-.129-2.313-.89-3.106-1.652-.789-.758-1.996-2.524-2.593-3.829-.598-1.308-1.399-3.878-1.715-5.582-.317-1.707-.586-4.793-.567-6.707.024-1.91.344-5.171.723-7.074.379-1.906 1.293-4.972 2.004-6.656.715-1.684 2.148-4.211 3.14-5.484.989-1.274 2.82-2.98 3.997-3.7 1.18-.722 3.234-1.414 4.484-1.5 1.254-.09 3.332.313 4.543.868 1.207.554 4.168 3.136 4.168 3.136"/></g><g clip-path="url(#m)"><path fill="none" stroke="#000" stroke-miterlimit="10" stroke-width=".7956530700000001" d="M93.363.504s1.106.059 1.528.133c.421.074 1.097.25 1.511.398.414.145 1.075.438 1.477.653.402.218 1.043.625 1.43.906.39.285 1 .797 1.367 1.148.367.348.945.961 1.289 1.367.344.41.879 1.118 1.2 1.579a28.88 28.88 0 0 1 1.093 1.769c.289.512.726 1.375.98 1.93.254.554.637 1.48.856 2.074.218.59.543 1.566.726 2.187.184.618.446 1.637.586 2.274.145.64.344 1.683.446 2.336.105.652.3 2.367.3 2.367"/></g><g clip-path="url(#n)"><path fill="none" stroke="#000" stroke-miterlimit="10" stroke-width=".7956530700000001" d="M2.512 21.633s.293-2.399.46-3.305c.165-.906.497-2.351.743-3.223a39.04 39.04 0 0 1 1.012-3.062c.316-.816.886-2.086 1.27-2.828a30.197 30.197 0 0 1 1.5-2.52 23.332 23.332 0 0 1 1.702-2.152 18.824 18.824 0 0 1 1.871-1.734c.54-.414 1.434-.985 2.004-1.27.567-.281 1.5-.629 2.086-.773a10.724 10.724 0 0 1 2.137-.262c.59 0 1.547.117 2.133.258.586.144 1.523.488 2.09.773.566.281 1.464.852 2 1.266.539.418 1.87 1.73 1.87 1.73"/></g><path fill="none" stroke="#000" stroke-miterlimit="10" stroke-width=".7956530700000001" d="M2.512 21.633v42.254M108.152 21.633v42.254M110.266 66a2.115 2.115 0 0 0-2.114-2.113A2.112 2.112 0 1 0 110.265 66ZM4.625 66a2.115 2.115 0 0 0-2.113-2.113A2.112 2.112 0 1 0 4.625 66ZM34.207 103.586s1.129 1.055 1.543 1.496c.414.445 1.062 1.2 1.445 1.695.387.493.985 1.328 1.34 1.868.352.539.895 1.44 1.215 2.02.32.577.805 1.534 1.086 2.144.285.609.71 1.613.953 2.246.246.632.61 1.664.813 2.312.207.649.503 1.703.668 2.36.164.656.394 1.71.52 2.367.124.656.292 1.703.374 2.351.086.645.188 1.676.234 2.301.043.629.086 1.625.09 2.23.008.602-.011 1.551-.039 2.122-.031.57-.172 1.992-.172 1.992M64.207 103.586s1.133 1.055 1.547 1.496c.414.445 1.058 1.2 1.445 1.695.387.493.985 1.328 1.336 1.868.356.539.899 1.44 1.219 2.02.316.577.805 1.534 1.086 2.144.285.609.707 1.613.953 2.246.246.632.605 1.664.812 2.312.204.649.5 1.703.665 2.36.167.656.398 1.71.523 2.367.125.656.293 1.703.375 2.351.086.645.187 1.676.23 2.301.047.629.086 1.625.094 2.23.008.602-.012 1.551-.043 2.122-.027.57-.168 1.992-.168 1.992M94.21 103.586s1.13 1.055 1.544 1.496c.418.445 1.062 1.2 1.45 1.695.386.493.98 1.328 1.335 1.868.356.539.895 1.44 1.215 2.02.32.577.805 1.534 1.09 2.144.281.609.707 1.613.953 2.246.242.632.605 1.664.808 2.312.207.649.504 1.703.668 2.36.164.656.399 1.71.524 2.367.121.656.289 1.703.375 2.351.082.645.187 1.676.23 2.301.047.629.086 1.625.094 2.23a41.93 41.93 0 0 1-.043 2.122c-.031.57-.172 1.992-.172 1.992M124.215 103.586s1.129 1.055 1.543 1.496c.414.445 1.062 1.2 1.445 1.695.387.493.984 1.328 1.34 1.868.352.539.894 1.44 1.215 2.02.32.577.804 1.534 1.086 2.144.285.609.71 1.613.953 2.246.246.632.605 1.664.812 2.312.207.649.504 1.703.668 2.36.164.656.395 1.71.52 2.367.125.656.293 1.703.375 2.351.086.645.187 1.676.234 2.301.043.629.086 1.625.09 2.23.008.602-.012 1.551-.039 2.122-.031.57-.172 1.992-.172 1.992M154.215 103.586s1.133 1.055 1.547 1.496c.414.445 1.058 1.2 1.445 1.695a31.46 31.46 0 0 1 1.336 1.868c.355.539.898 1.44 1.219 2.02.316.577.804 1.534 1.086 2.144.285.609.707 1.613.953 2.246.246.632.605 1.664.812 2.312.203.649.5 1.703.664 2.36.168.656.399 1.71.524 2.367.125.656.293 1.703.375 2.351.086.645.187 1.676.23 2.301.047.629.086 1.625.094 2.23.008.602-.012 1.551-.043 2.122-.027.57-.168 1.992-.168 1.992M184.219 103.586s1.129 1.055 1.543 1.496c.418.445 1.062 1.2 1.449 1.695.387.493.98 1.328 1.336 1.868.355.539.894 1.44 1.215 2.02.32.577.804 1.534 1.09 2.144.28.609.707 1.613.953 2.246.242.632.605 1.664.808 2.312.207.649.504 1.703.668 2.36.164.656.399 1.71.524 2.367.12.656.289 1.703.375 2.351.082.645.187 1.676.23 2.301.047.629.086 1.625.094 2.23a41.93 41.93 0 0 1-.043 2.122c-.031.57-.172 1.992-.172 1.992"/><path fill="none" stroke="#000" stroke-miterlimit="10" stroke-width=".7956530700000001" d="M44.277 133.098s-.746 3.843-1.175 4.945c-.43 1.105-1.34 2.484-1.918 3-.582.516-1.649.844-2.266.715-.617-.13-1.645-.89-2.18-1.653-.531-.757-1.324-2.523-1.664-3.832-.34-1.304-.726-3.875-.785-5.578-.059-1.707.082-4.793.36-6.707.28-1.91 1.015-5.172 1.652-7.074.633-1.906 1.96-4.973 2.93-6.656.972-1.684 2.82-4.211 4.07-5.485 1.246-1.273 3.488-2.98 4.922-3.703 1.437-.718 3.902-1.41 5.414-1.496 1.508-.09 4.004.313 5.468.867 1.465.555 5.094 3.137 5.094 3.137M74.281 133.098s-.75 3.843-1.176 4.945c-.43 1.105-1.34 2.484-1.921 3-.579.516-1.649.844-2.262.715-.617-.13-1.645-.89-2.18-1.653-.535-.757-1.324-2.523-1.664-3.832-.34-1.304-.73-3.875-.789-5.578-.059-1.707.082-4.793.363-6.707.278-1.91 1.012-5.172 1.649-7.074.636-1.906 1.96-4.973 2.933-6.656.973-1.684 2.82-4.211 4.067-5.485 1.25-1.273 3.492-2.98 4.926-3.703 1.433-.718 3.902-1.41 5.41-1.496 1.511-.09 4.004.313 5.472.867 1.465.555 5.094 3.137 5.094 3.137M104.281 133.098s-.746 3.843-1.176 4.945c-.43 1.105-1.335 2.484-1.918 3-.582.516-1.648.844-2.265.715-.617-.13-1.645-.89-2.176-1.653-.535-.757-1.328-2.523-1.668-3.832-.34-1.304-.726-3.875-.785-5.578-.059-1.707.082-4.793.363-6.707.278-1.91 1.012-5.172 1.649-7.074.636-1.906 1.96-4.973 2.933-6.656.969-1.684 2.817-4.211 4.067-5.485 1.246-1.273 3.492-2.98 4.925-3.703 1.434-.718 3.903-1.41 5.41-1.496 1.512-.09 4.005.313 5.47.867 1.468.555 5.097 3.137 5.097 3.137M134.285 133.098s-.746 3.843-1.176 4.945c-.43 1.105-1.34 2.484-1.918 3-.582.516-1.648.844-2.265.715-.617-.13-1.645-.89-2.18-1.653-.531-.757-1.324-2.523-1.664-3.832-.34-1.304-.727-3.875-.785-5.578-.059-1.707.082-4.793.36-6.707.28-1.91 1.015-5.172 1.652-7.074.632-1.906 1.96-4.973 2.93-6.656.972-1.684 2.82-4.211 4.07-5.485 1.246-1.273 3.488-2.98 4.921-3.703 1.438-.718 3.903-1.41 5.415-1.496 1.507-.09 4.003.313 5.468.867 1.465.555 5.094 3.137 5.094 3.137M164.29 133.098s-.75 3.843-1.177 4.945c-.43 1.105-1.34 2.484-1.922 3-.578.516-1.648.844-2.261.715-.618-.13-1.645-.89-2.18-1.653-.535-.757-1.324-2.523-1.664-3.832-.34-1.304-.73-3.875-.79-5.578-.058-1.707.083-4.793.364-6.707.277-1.91 1.012-5.172 1.649-7.074.636-1.906 1.96-4.973 2.933-6.656.973-1.684 2.82-4.211 4.067-5.485 1.25-1.273 3.492-2.98 4.925-3.703 1.434-.718 3.903-1.41 5.41-1.496 1.512-.09 4.004.313 5.473.867 1.465.555 5.094 3.137 5.094 3.137M194.29 133.098s-.747 3.843-1.177 4.945c-.43 1.105-1.336 2.484-1.918 3-.582.516-1.648.844-2.265.715-.618-.13-1.645-.89-2.176-1.653-.535-.757-1.328-2.523-1.668-3.832-.34-1.304-.727-3.875-.785-5.578-.059-1.707.082-4.793.363-6.707.277-1.91 1.012-5.172 1.648-7.074.637-1.906 1.961-4.973 2.934-6.656.969-1.684 2.816-4.211 4.066-5.485 1.247-1.273 3.493-2.98 4.926-3.703 1.434-.718 3.903-1.41 5.41-1.496 1.512-.09 4.004.313 5.47.867 1.468.555 5.097 3.137 5.097 3.137"/><g clip-path="url(#o)"><path fill="none" stroke="#000" stroke-miterlimit="10" stroke-width=".7956530700000001" d="M204.39 99.55s1.329.06 1.837.134c.507.074 1.32.25 1.82.394.5.149 1.297.442 1.789.656a20.46 20.46 0 0 1 1.738.907c.473.285 1.223.796 1.676 1.148.453.348 1.168.961 1.598 1.367a30.53 30.53 0 0 1 1.507 1.578 30.336 30.336 0 0 1 1.403 1.77c.375.512.949 1.375 1.293 1.93.34.554.86 1.48 1.164 2.074.305.59.765 1.566 1.035 2.187.266.617.668 1.637.895 2.274.23.64.566 1.683.757 2.336.188.652.61 2.367.61 2.367"/></g><path fill="none" stroke="#000" stroke-miterlimit="10" stroke-width=".7956530700000001" d="M4.977 122.004s.543-2.469.804-3.406c.266-.942.762-2.446 1.11-3.356a43.64 43.64 0 0 1 1.398-3.215c.426-.859 1.172-2.199 1.672-2.988.5-.785 1.363-1.988 1.93-2.684a29.022 29.022 0 0 1 2.148-2.312 23.65 23.65 0 0 1 2.336-1.879 20.092 20.092 0 0 1 2.48-1.394c.704-.317 1.86-.711 2.586-.88a15.51 15.51 0 0 1 2.637-.335c.734-.02 1.914.078 2.64.215.727.132 1.891.472 2.602.757.707.282 1.832.856 2.508 1.282.676.421 2.371 1.773 2.371 1.773M5.148 120.68v42.254M223.406 120.68v42.254"/><g clip-path="url(#p)"><path fill="none" stroke="#000" stroke-miterlimit="10" stroke-width=".7956530700000001" d="M225.52 165.047c0-1.164-.95-2.113-2.114-2.113a2.112 2.112 0 1 0 2.113 2.113Zm0 0"/></g><g clip-path="url(#q)"><path fill="none" stroke="#000" stroke-miterlimit="10" stroke-width=".7956530700000001" d="M7.262 165.047a2.115 2.115 0 0 0-2.114-2.113 2.112 2.112 0 1 0 2.113 2.113Zm0 0"/></g></svg>