<svg xmlns="http://www.w3.org/2000/svg" xmlns:xlink="http://www.w3.org/1999/xlink" width="233.588" height="98.207"><defs><clipPath id="a"><path d="M220 77h12.45v15H220Zm0 0"/></clipPath><clipPath id="b"><path d="M15.344 3H228.96v81.555H15.344Zm0 0"/></clipPath><path id="c" d="M2.031-3.953h.938c.203 0 .297 0 .297-.203 0-.11-.094-.11-.282-.11H2.11c.36-1.406.407-1.593.407-1.656 0-.172-.11-.266-.282-.266-.03 0-.312 0-.39.36l-.39 1.562H.53c-.203 0-.297 0-.297.188 0 .125.078.125.266.125h.875C.656-1.141.625-.984.625-.797c0 .531.375.906.906.906C2.547.11 3.11-1.328 3.11-1.42c0-.095-.078-.095-.125-.095-.093 0-.093.032-.14.141C2.406-.344 1.89-.109 1.547-.109c-.203 0-.297-.125-.297-.453 0-.235.016-.313.063-.47Zm0 0"/><path id="d" d="M6.281-5.719c.094-.406.282-.703 1.063-.734.047 0 .172 0 .172-.188 0-.015 0-.109-.125-.109-.328 0-.672.031-1.016.031-.328 0-.703-.031-1.031-.031-.047 0-.172 0-.172.188 0 .109.094.109.172.109.578.016.672.219.672.437 0 .032-.016.188-.016.204l-.89 3.53C4.765-.952 3.624-.093 2.64-.093c-.671 0-1.203-.437-1.203-1.281 0-.016 0-.344.11-.766L2.5-6c.094-.344.11-.453.828-.453.266 0 .344 0 .344-.188 0-.109-.11-.109-.14-.109-.282 0-.985.031-1.266.031-.282 0-.985-.031-1.282-.031-.078 0-.187 0-.187.188 0 .109.094.109.281.109.016 0 .203 0 .375.031.172.016.266.016.266.156 0 .047-.11.47-.172.704l-.219.859C1.25-4.313.766-2.437.734-2.25c-.078.266-.078.422-.078.563C.656-.47 1.563.218 2.594.218c1.25 0 2.484-1.125 2.812-2.422Zm0 0"/></defs><path fill="none" stroke="#000" stroke-miterlimit="10" stroke-width=".39580401000000004" d="M15.344 84.555H225.52"/><path d="m228.566 84.555-2.949-1.746v3.496Zm0 0"/><g clip-path="url(#a)"><path fill="none" stroke="#000" stroke-miterlimit="10" stroke-width=".39580401000000004" d="m228.566 84.555-2.949-1.746v3.496Zm0 0"/></g><path fill="none" stroke="#000" stroke-miterlimit="10" stroke-width=".39580401000000004" d="M15.344 84.555V3.64"/><path stroke="#000" stroke-miterlimit="10" stroke-width=".39580401000000004" d="m15.344.594-1.75 2.949h3.496Zm0 0"/><g clip-path="url(#b)"><path fill="none" stroke="#000" stroke-miterlimit="10" stroke-width=".79061603" d="M15.344 14.258s6.43 15.18 8.898 19.926c2.473 4.746 6.434 10.878 8.903 14.28 2.468 3.4 6.43 7.794 8.902 10.231 2.469 2.438 6.43 5.586 8.898 7.332 2.47 1.743 6.43 4 8.903 5.25 2.468 1.254 6.43 2.868 8.898 3.766 2.473.894 6.434 2.055 8.902 2.695 2.47.645 6.43 1.473 8.903 1.934 2.469.46 6.43 1.055 8.898 1.383 2.473.332 6.434.757 8.903.992 2.468.238 6.43.543 8.902.71 2.469.173 6.43.391 8.898.513 2.473.12 6.434.277 8.903.363 2.468.086 6.43.199 8.902.262 2.469.062 6.43.144 8.898.187 2.47.047 6.43.102 8.903.137a3379.256 3379.256 0 0 0 26.703.21c2.469.012 6.43.028 8.898.036 2.473.012 6.434.02 8.903.027 2.468.008 6.43.016 8.902.02l8.899.011c2.472.004 8.902.008 8.902.008"/></g><use xlink:href="#c" x="221.899" y="94.126"/><use xlink:href="#d" x="4.026" y="10.443"/></svg>