<svg xmlns="http://www.w3.org/2000/svg" width="224.727" height="136.689"><defs><clipPath id="a"><path d="M175 0h49.336v55H175Zm0 0"/></clipPath><clipPath id="b"><path d="M.117 0H62v55H.117Zm0 0"/></clipPath><clipPath id="c"><path d="M200 116h24.336v20.379H200Zm0 0"/></clipPath><clipPath id="d"><path d="M.117 116H21v20.379H.117Zm0 0"/></clipPath></defs><path fill="none" stroke="#000" stroke-dasharray="2.9820453559 5.9640907118" stroke-miterlimit="10" stroke-width=".79519081" d="M50.602 8.61s1.816 2.117 2.476 3.003a52.84 52.84 0 0 1 2.277 3.39 58.08 58.08 0 0 1 2.06 3.747 68.117 68.117 0 0 1 1.815 4.043 76.627 76.627 0 0 1 1.563 4.3 81.846 81.846 0 0 1 1.285 4.497c.32 1.265.77 3.34 1.008 4.637.238 1.296.559 3.406.719 4.722.156 1.313.347 3.43.422 4.742.078 1.313.136 3.414.132 4.711 0 1.293-.07 3.356-.152 4.614a81.128 81.128 0 0 1-.437 4.464 74.156 74.156 0 0 1-.704 4.25c-.23 1.145-.96 3.993-.96 3.993M76 8.61s1.816 2.117 2.477 3.003a52.84 52.84 0 0 1 2.277 3.39c.601.993 1.52 2.665 2.059 3.747a68.117 68.117 0 0 1 1.816 4.043 76.627 76.627 0 0 1 1.562 4.3 81.846 81.846 0 0 1 1.286 4.497c.32 1.265.77 3.34 1.007 4.637.239 1.296.559 3.406.72 4.722.155 1.313.343 3.43.421 4.742.078 1.313.137 3.414.133 4.711 0 1.293-.074 3.356-.153 4.614a81.128 81.128 0 0 1-.437 4.464 74.156 74.156 0 0 1-.703 4.25c-.23 1.145-.961 3.993-.961 3.993M101.398 8.61s1.817 2.117 2.477 3.003a52.84 52.84 0 0 1 2.277 3.39c.602.993 1.52 2.665 2.059 3.747a68.117 68.117 0 0 1 1.816 4.043 79.843 79.843 0 0 1 1.563 4.3 81.845 81.845 0 0 1 1.285 4.497c.32 1.265.77 3.34 1.008 4.637.238 1.296.558 3.406.715 4.722.16 1.313.347 3.43.425 4.742a90.79 90.79 0 0 1 .133 4.711 89.608 89.608 0 0 1-.156 4.614 81.15 81.15 0 0 1-.434 4.464 74.156 74.156 0 0 1-.703 4.25c-.23 1.145-.96 3.993-.96 3.993M126.797 8.61s1.816 2.117 2.476 3.003a52.84 52.84 0 0 1 2.278 3.39c.601.993 1.52 2.665 2.058 3.747a70.736 70.736 0 0 1 1.817 4.043 76.605 76.605 0 0 1 1.558 4.3 78.553 78.553 0 0 1 1.29 4.497c.32 1.265.769 3.34 1.007 4.637.239 1.296.559 3.406.715 4.722.16 1.313.348 3.43.426 4.742a90.79 90.79 0 0 1 .133 4.711 89.608 89.608 0 0 1-.157 4.614 81.15 81.15 0 0 1-.433 4.464 74.156 74.156 0 0 1-.703 4.25c-.23 1.145-.961 3.993-.961 3.993M152.195 8.61s1.817 2.117 2.477 3.003a52.84 52.84 0 0 1 2.277 3.39c.602.993 1.52 2.665 2.059 3.747a70.736 70.736 0 0 1 1.816 4.043 76.605 76.605 0 0 1 1.559 4.3 81.862 81.862 0 0 1 1.289 4.497c.32 1.265.77 3.34 1.008 4.637.238 1.296.558 3.406.715 4.722.16 1.313.347 3.43.425 4.742a90.79 90.79 0 0 1 .133 4.711 89.608 89.608 0 0 1-.156 4.614 85.154 85.154 0 0 1-.434 4.464 77.746 77.746 0 0 1-.703 4.25c-.234 1.145-.96 3.993-.96 3.993M177.594 8.61s1.816 2.117 2.476 3.003a52.84 52.84 0 0 1 2.278 3.39c.601.993 1.52 2.665 2.058 3.747a70.736 70.736 0 0 1 1.817 4.043 76.605 76.605 0 0 1 1.558 4.3 85.463 85.463 0 0 1 1.29 4.497c.316 1.265.769 3.34 1.007 4.637.238 1.296.559 3.406.715 4.722.16 1.313.348 3.43.426 4.742a90.79 90.79 0 0 1 .133 4.711 89.608 89.608 0 0 1-.157 4.614 85.154 85.154 0 0 1-.433 4.464 74.138 74.138 0 0 1-.707 4.25c-.23 1.145-.957 3.993-.957 3.993"/><path fill="none" stroke="#000" stroke-miterlimit="10" stroke-width=".79519081" d="M62.105 67.734s-2.843 7.704-4.218 9.914c-1.375 2.211-4.024 4.977-5.703 6.008-1.676 1.035-4.645 1.692-6.395 1.434-1.754-.262-4.64-1.785-6.223-3.309-1.586-1.523-4-5.058-5.199-7.676-1.195-2.617-2.8-7.765-3.433-11.183-.633-3.414-1.176-9.602-1.133-13.434.043-3.832.687-10.36 1.445-14.176.758-3.816 2.586-9.957 4.016-13.332 1.43-3.375 4.304-8.437 6.289-10.988 1.984-2.555 5.648-5.969 8.008-7.414C51.914 2.133 56.03.75 58.543.574c2.508-.176 6.676.625 9.098 1.738 2.418 1.114 8.347 6.286 8.347 6.286"/><path fill="none" stroke="#000" stroke-miterlimit="10" stroke-width=".79519081" d="M87.5 67.734s-2.84 7.704-4.215 9.914c-1.375 2.211-4.023 4.977-5.703 6.008-1.68 1.035-4.644 1.692-6.394 1.434-1.754-.262-4.641-1.785-6.227-3.309-1.582-1.523-3.996-5.058-5.195-7.676-1.196-2.617-2.801-7.765-3.434-11.183-.633-3.414-1.18-9.602-1.137-13.434.047-3.832.692-10.36 1.45-14.176.757-3.816 2.585-9.957 4.015-13.332 1.43-3.375 4.305-8.437 6.29-10.988 1.984-2.555 5.648-5.969 8.007-7.414C77.313 2.133 81.43.75 83.937.574c2.512-.176 6.68.625 9.102 1.738 2.418 1.114 8.348 6.286 8.348 6.286"/><path fill="none" stroke="#000" stroke-miterlimit="10" stroke-width=".79519081" d="M112.898 67.734s-2.84 7.704-4.214 9.914c-1.375 2.211-4.024 4.977-5.704 6.008-1.68 1.035-4.644 1.692-6.398 1.434-1.75-.262-4.637-1.785-6.223-3.309-1.582-1.523-3.996-5.058-5.195-7.676-1.195-2.617-2.8-7.765-3.434-11.183-.632-3.414-1.18-9.602-1.136-13.434.043-3.832.691-10.36 1.449-14.176.758-3.816 2.586-9.957 4.016-13.332 1.43-3.375 4.304-8.437 6.289-10.988 1.98-2.555 5.648-5.969 8.007-7.414 2.356-1.445 6.473-2.828 8.98-3.004 2.513-.176 6.68.625 9.099 1.738 2.421 1.114 8.351 6.286 8.351 6.286"/><path fill="none" stroke="#000" stroke-miterlimit="10" stroke-width=".79519081" d="M138.297 67.734s-2.84 7.704-4.215 9.914c-1.375 2.211-4.023 4.977-5.703 6.008-1.68 1.035-4.645 1.692-6.399 1.434-1.75-.262-4.636-1.785-6.222-3.309-1.582-1.523-3.996-5.058-5.195-7.676-1.196-2.617-2.801-7.765-3.434-11.183-.637-3.414-1.18-9.602-1.137-13.434.043-3.832.688-10.36 1.45-14.176.757-3.816 2.585-9.957 4.015-13.332 1.43-3.375 4.305-8.437 6.29-10.988 1.98-2.555 5.648-5.969 8.007-7.414 2.355-1.445 6.473-2.828 8.98-3.004 2.508-.176 6.68.625 9.098 1.738 2.422 1.114 8.352 6.286 8.352 6.286"/><path fill="none" stroke="#000" stroke-miterlimit="10" stroke-width=".79519081" d="M163.695 67.734s-2.84 7.704-4.215 9.914c-1.378 2.211-4.023 4.977-5.703 6.008-1.68 1.035-4.644 1.692-6.398 1.434-1.75-.262-4.637-1.785-6.223-3.309-1.582-1.523-3.996-5.058-5.195-7.676-1.2-2.617-2.8-7.765-3.434-11.183-.636-3.414-1.18-9.602-1.136-13.434.043-3.832.687-10.36 1.445-14.176.758-3.816 2.59-9.957 4.02-13.332 1.43-3.375 4.304-8.437 6.285-10.988 1.984-2.555 5.652-5.969 8.011-7.414 2.356-1.445 6.473-2.828 8.98-3.004 2.509-.176 6.677.625 9.098 1.738 2.422 1.114 8.352 6.286 8.352 6.286"/><path fill="none" stroke="#000" stroke-miterlimit="10" stroke-width=".79519081" d="M189.094 67.734s-2.84 7.704-4.215 9.914c-1.379 2.211-4.024 4.977-5.703 6.008-1.68 1.035-4.649 1.692-6.399 1.434-1.75-.262-4.636-1.785-6.222-3.309-1.586-1.523-4-5.058-5.196-7.676-1.199-2.617-2.8-7.765-3.433-11.183-.637-3.414-1.18-9.602-1.137-13.434.043-3.832.688-10.36 1.445-14.176.758-3.816 2.586-9.957 4.016-13.332 1.43-3.375 4.305-8.437 6.29-10.988 1.983-2.555 5.651-5.969 8.007-7.414 2.36-1.445 6.476-2.828 8.984-3.004 2.508-.176 6.676.625 9.098 1.738 2.422 1.114 8.351 6.286 8.351 6.286"/><g clip-path="url(#a)"><path fill="none" stroke="#000" stroke-miterlimit="10" stroke-width=".79519081" d="M186.77.527s2.214.121 3.058.266c.844.148 2.195.504 3.024.797.832.293 2.156.879 2.964 1.312a29.48 29.48 0 0 1 2.864 1.817c.777.57 2 1.593 2.738 2.293.738.699 1.89 1.925 2.582 2.746.691.82 1.762 2.23 2.398 3.16.641.93 1.618 2.512 2.196 3.539a66.4 66.4 0 0 1 1.965 3.871 70.506 70.506 0 0 1 1.714 4.152 77.8 77.8 0 0 1 1.454 4.383 82.09 82.09 0 0 1 1.175 4.563c.29 1.281.688 3.37.895 4.676.207 1.308.601 4.738.601 4.738"/></g><g clip-path="url(#b)"><path fill="none" stroke="#000" stroke-miterlimit="10" stroke-width=".79519081" d="M4.75 42.855s.586-4.804.922-6.62c.332-1.813 1-4.708 1.488-6.458.488-1.746 1.395-4.496 2.031-6.132.633-1.637 1.774-4.176 2.543-5.665.77-1.484 2.114-3.75 3.004-5.05.89-1.297 2.422-3.23 3.414-4.313.993-1.078 2.672-2.637 3.75-3.472 1.075-.833 2.868-1.973 4.008-2.543 1.137-.567 3.012-1.262 4.184-1.551C31.27.76 33.184.527 34.37.527c1.184 0 3.098.23 4.274.52 1.171.285 3.05.98 4.187 1.547 1.137.566 2.934 1.707 4.008 2.539 1.078.832 3.75 3.465 3.75 3.465"/></g><path fill="none" stroke="#000" stroke-miterlimit="10" stroke-width=".79519081" d="M4.75 42.855v84.66M216.398 42.855v84.66"/><g clip-path="url(#c)"><path fill="none" stroke="#000" stroke-miterlimit="10" stroke-width=".79519081" d="M220.629 131.75a4.232 4.232 0 1 0-8.465 0 4.232 4.232 0 0 0 8.465 0Zm0 0"/></g><g clip-path="url(#d)"><path fill="none" stroke="#000" stroke-miterlimit="10" stroke-width=".79519081" d="M8.984 131.75a4.235 4.235 0 0 0-8.468 0 4.234 4.234 0 0 0 8.469 0Zm0 0"/></g></svg>