<svg xmlns="http://www.w3.org/2000/svg" xmlns:xlink="http://www.w3.org/1999/xlink" width="107.343" height="83.501"><defs><path id="a" d="M4.781-.875v-.562h-.25v.562c0 .563-.234.625-.343.625-.329 0-.375-.437-.375-.5v-1.969c0-.422 0-.812-.36-1.172-.375-.39-.875-.546-1.36-.546-.812 0-1.484.468-1.484 1.125 0 .296.188.453.454.453.28 0 .453-.188.453-.453 0-.11-.047-.438-.5-.454.265-.343.75-.453 1.062-.453.485 0 1.047.39 1.047 1.266v.375c-.5.015-1.187.047-1.812.344-.75.343-1 .859-1 1.297 0 .796.968 1.046 1.593 1.046.657 0 1.11-.39 1.297-.859.031.39.297.813.766.813.219 0 .812-.141.812-.938m-1.656-.516c0 .938-.703 1.282-1.156 1.282-.485 0-.89-.344-.89-.844 0-.547.421-1.36 2.046-1.422Zm0 0"/><path id="b" d="M5.156-2.14c0-1.25-.968-2.235-2.093-2.235-.782 0-1.204.469-1.36.64v-3.14l-1.422.11v.312c.688 0 .766.062.766.547V0h.25l.36-.61c.14.22.562.72 1.296.72 1.172 0 2.203-.97 2.203-2.25m-.812-.016c0 .375-.032.969-.313 1.406-.203.313-.578.64-1.125.64-.437 0-.797-.234-1.031-.609-.14-.203-.14-.234-.14-.406v-2.047c0-.187 0-.203.109-.36a1.45 1.45 0 0 1 1.172-.624c.437 0 .797.25 1.03.625.266.406.298.969.298 1.375m0 0"/><path id="c" d="M4.11-1.578h-.25c-.016.125-.079.64-.204.781-.047.078-.656.078-.844.078H1.235l.875-.828c1.47-1.265 2-1.734 2-2.64 0-1.032-.843-1.75-1.937-1.75-1.016 0-1.719.812-1.719 1.625 0 .453.39.484.469.484a.45.45 0 0 0 .453-.453c0-.266-.187-.469-.453-.469-.047 0-.078 0-.11.016.22-.641.782-.922 1.266-.922.906 0 1.219.843 1.219 1.468 0 .907-.688 1.641-1.11 2.11L.548-.328C.453-.218.453-.203.453 0H3.86Zm0 0"/><path id="d" d="M4.188-1.516c0-.765-.61-1.437-1.47-1.625.829-.312 1.22-.953 1.22-1.578 0-.672-.766-1.218-1.688-1.218-.922 0-1.625.53-1.625 1.203 0 .297.203.468.469.468.25 0 .437-.187.437-.453 0-.297-.218-.437-.515-.437.234-.375.78-.547 1.218-.547.735 0 .875.578.875 1 0 .266-.046.687-.28 1.031-.267.406-.579.422-.845.438-.218.015-.234.015-.312.015-.078.016-.156.016-.156.125 0 .11.078.11.234.11h.422c.765 0 1.11.625 1.11 1.468 0 1.141-.61 1.47-1.063 1.47-.172 0-1.031-.048-1.438-.704.328.031.578-.187.578-.484a.477.477 0 0 0-.484-.485c-.219 0-.484.14-.484.5C.39-.422 1.219.203 2.25.203c1.11 0 1.938-.812 1.938-1.719m0 0"/><path id="e" d="M4.219-2.844c0-.61-.032-1.375-.344-2.031-.39-.844-1.062-1.062-1.594-1.062-.531 0-1.203.218-1.594 1.078C.408-4.25.36-3.531.36-2.844c0 .578.016 1.438.391 2.14.422.75 1.125.907 1.531.907.578 0 1.235-.25 1.61-1.078.265-.594.328-1.266.328-1.969m-.766-.11c0 .548 0 1.298-.094 1.829C3.172-.109 2.516-.031 2.281-.031c-.265 0-.906-.125-1.062-1.125-.094-.532-.094-1.297-.094-1.797 0-.61 0-1.313.11-1.797.171-.797.75-.953 1.046-.953.344 0 .89.172 1.063 1 .11.484.11 1.187.11 1.75m0 0"/><path id="f" d="M6.688-5.812v-.266c-.313.016-.579.016-.875.016l-1-.016v.266c.437.015.625.218.625.453 0 .062 0 .093-.047.172L3.703-.86 1.922-5.375c-.047-.11-.047-.172-.047-.172 0-.266.453-.266.703-.266v-.265c-.39.016-.844.016-1.265.016L.172-6.078v.266c.656 0 .75.046.875.359L3.203 0c.063.14.078.203.219.203.156 0 .172-.062.219-.187l2.062-5.22c.188-.484.563-.609.984-.609m0 0"/></defs><path fill="none" stroke="#000" stroke-linejoin="bevel" stroke-miterlimit="10" stroke-width=".79215424" d="M37.672 24.719c3.27 0 5.918 1.812 5.918 4.043 0 2.234-2.649 4.047-5.918 4.047 3.27 0 5.918 1.808 5.918 4.043 0 2.23-2.649 4.043-5.918 4.043 3.27 0 5.918 1.808 5.918 4.043 0 2.234-2.649 4.042-5.918 4.042 3.27 0 5.918 1.81 5.918 4.043 0 2.235-2.649 4.043-5.918 4.043M61.656 57.066c-3.27 0-5.918-1.808-5.918-4.043 0-2.234 2.649-4.043 5.918-4.043-3.27 0-5.918-1.808-5.918-4.042 0-2.235 2.649-4.043 5.918-4.043-3.27 0-5.918-1.813-5.918-4.043 0-2.235 2.649-4.043 5.918-4.043-3.27 0-5.918-1.813-5.918-4.047 0-2.23 2.649-4.043 5.918-4.043"/><path fill="none" stroke="#000" stroke-miterlimit="10" stroke-width=".39657408000000005" d="M20.082 12.79h17.75v12.327m0 31.555v12.324h-17.75M79.246 12.79h-17.75v12.328m0 31.555v12.324h17.75"/><path fill="#FFF" stroke="#000" stroke-miterlimit="10" stroke-width=".39657408000000005" d="M21.66 12.79a1.579 1.579 0 1 0-3.157 0 1.579 1.579 0 0 0 3.157 0ZM21.66 68.996c0-.871-.707-1.574-1.578-1.574a1.575 1.575 0 1 0 0 3.152c.871 0 1.578-.707 1.578-1.578Zm0 0"/><path fill="none" stroke="#000" stroke-miterlimit="10" stroke-width=".39657408000000005" d="M79.246 12.79"/><path fill="#FFF" stroke="#000" stroke-miterlimit="10" stroke-width=".39657408000000005" d="M80.824 12.79a1.579 1.579 0 1 0-3.157 0 1.579 1.579 0 0 0 3.157 0Zm0 0"/><path fill="none" stroke="#000" stroke-miterlimit="10" stroke-width=".39657408000000005" d="M79.246 68.996"/><path fill="#FFF" stroke="#000" stroke-miterlimit="10" stroke-width=".39657408000000005" d="M80.824 68.996c0-.871-.707-1.574-1.578-1.574a1.575 1.575 0 1 0 0 3.152c.871 0 1.578-.707 1.578-1.578Zm0 0"/><use xlink:href="#a" x="94.863" y="7.743"/><use xlink:href="#b" x="94.587" y="79.59"/><path fill="none" stroke="#000" stroke-miterlimit="10" stroke-width=".39657408000000005" d="M49.664 23.234v17.66m0 0v17.657M3.754 49.723c1.726-2.711 3.379-5.297 5.297-5.297 1.918 0 3.57 2.586 5.297 5.297 1.726 2.71 3.379 5.297 5.297 5.297 1.917 0 3.57-2.586 5.296-5.297"/><use xlink:href="#c" x="3.301" y="35.011"/><use xlink:href="#d" x="7.881" y="35.011"/><use xlink:href="#e" x="12.462" y="35.011"/><use xlink:href="#f" x="18.522" y="35.011"/></svg>