<svg xmlns="http://www.w3.org/2000/svg" xmlns:xlink="http://www.w3.org/1999/xlink" width="226.77" height="20.639"><defs><path id="a" d="M.813-2.266h4.265c.11 0 .219-.109.219-.234a.223.223 0 0 0-.219-.219H.813a.223.223 0 0 0-.22.219c0 .125.11.234.22.234m0 0"/><path id="b" d="M2.875-6.266c0-.234 0-.265-.219-.265-.61.64-1.469.64-1.781.64v.297c.188 0 .766 0 1.281-.25V-.78c0 .36-.031.484-.906.484H.938V0c.343-.031 1.187-.031 1.578-.031.39 0 1.25 0 1.593.031v-.297h-.312c-.89 0-.922-.11-.922-.484Zm0 0"/><path id="d" d="M2.875-1.61v.844c0 .36-.016.47-.734.47h-.203V0c.39-.031.906-.031 1.312-.031s.938 0 1.328.031v-.297h-.203c-.719 0-.734-.11-.734-.469v-.843h.968v-.313h-.968v-4.453c0-.203 0-.25-.157-.25-.093 0-.125 0-.203.11l-3 4.593v.313Zm.063-.312H.547l2.39-3.656Zm0 0"/><path id="e" d="M6.078-5.734c.14-.36.406-.641 1.078-.657v-.296a22.29 22.29 0 0 1-.953.03c-.297 0-.86-.03-1.125-.03v.296c.516.016.719.266.719.5 0 .079-.031.125-.047.188L3.953-.984l-1.86-4.938c-.062-.14-.062-.156-.062-.187 0-.282.563-.282.797-.282v-.296c-.344.03-1.031.03-1.39.03-.485 0-.907-.03-1.25-.03v.296c.64 0 .828 0 .953.375L3.42 0c.063.188.11.219.235.219.172 0 .188-.047.25-.188Zm0 0"/><path id="h" d="M4.5-3.14c0-.782-.047-1.563-.39-2.282-.454-.953-1.25-1.11-1.657-1.11-.594 0-1.312.266-1.703 1.173-.312.672-.375 1.437-.375 2.218 0 .735.047 1.625.453 2.36.422.797 1.125 1 1.61 1 .53 0 1.28-.203 1.703-1.14.312-.673.359-1.438.359-2.22M2.438 0c-.376 0-.954-.25-1.141-1.187-.11-.579-.11-1.485-.11-2.063 0-.625 0-1.281.094-1.812.172-1.157.907-1.25 1.157-1.25.328 0 .968.171 1.156 1.156.094.547.094 1.281.094 1.906 0 .734 0 1.39-.11 2.031C3.438-.297 2.875 0 2.438 0m0 0"/><path id="i" d="M4.656-5.969c.094-.11.094-.14.094-.343H2.375c-1.203 0-1.219-.125-1.266-.313H.875L.547-4.609h.25c.031-.157.11-.766.234-.891.078-.062.844-.062.969-.062h2.031c-.11.171-.89 1.234-1.11 1.562C2.048-2.687 1.72-1.328 1.72-.328c0 .11 0 .547.453.547s.453-.438.453-.547v-.5c0-.531.031-1.078.11-1.594.03-.234.171-1.078.609-1.687Zm0 0"/><path id="c" d="M1.984-.016c0-.64-.234-1.015-.625-1.015-.328 0-.515.234-.515.515A.5.5 0 0 0 1.359 0c.125 0 .25-.047.344-.125.031-.016.047-.031.047-.031.016 0 .016.015.016.14 0 .735-.328 1.313-.657 1.641C1 1.735 1 1.75 1 1.781c0 .078.047.11.094.11.11 0 .89-.75.89-1.907m0 0"/><clipPath id="f"><path d="M92 0h39v20.285H92Zm0 0"/></clipPath><clipPath id="g"><path d="M119 0h1v20.285h-1Zm0 0"/></clipPath></defs><use xlink:href="#a" x="8.977" y="12.536"/><use xlink:href="#b" x="14.86" y="12.536"/><use xlink:href="#c" x="19.757" y="12.536"/><use xlink:href="#d" x="22.476" y="12.536"/><use xlink:href="#e" x="28.997" y="12.536"/><path fill="none" stroke="#000" stroke-miterlimit="10" stroke-width=".39214119000000003" d="M43.82 10.14h60.024m15.601 0h60.02"/><g clip-path="url(#f)"><path fill="none" stroke="#000" stroke-miterlimit="10" stroke-width=".7832995700000001" d="M119.445 10.14 103.844.39v19.5Zm0 0"/></g><path fill="none" stroke="#000" stroke-miterlimit="10" stroke-width=".39214119000000003" d="M119.445 10.14h-15.601"/><g clip-path="url(#g)"><path fill="none" stroke="#000" stroke-miterlimit="10" stroke-width=".7832995700000001" d="M119.445 19.89V.39"/></g><use xlink:href="#a" x="186.8" y="12.536"/><use xlink:href="#h" x="192.684" y="12.536"/><use xlink:href="#c" x="197.579" y="12.536"/><use xlink:href="#i" x="200.299" y="12.536"/><use xlink:href="#e" x="206.82" y="12.536"/></svg>