<svg xmlns="http://www.w3.org/2000/svg" xmlns:xlink="http://www.w3.org/1999/xlink" width="233.108" height="116.206"><defs><path id="c" d="M3.172 4.547c.781 0 1.578-.047 2.312-.39.938-.454 1.11-1.266 1.11-1.688 0-.594-.266-1.313-1.188-1.719C4.734.438 3.953.39 3.172.39c-.75 0-1.64.032-2.39.438a1.83 1.83 0 0 0-1 1.64c0 .532.202 1.282 1.156 1.72.671.312 1.453.359 2.234.359M0 2.469c0-.39.25-.969 1.203-1.156.594-.11 1.5-.11 2.078-.11.64 0 1.281 0 1.828.078 1.172.188 1.266.938 1.266 1.188 0 .328-.187.969-1.156 1.156-.563.11-1.313.11-1.938.11-.734 0-1.406 0-2.047-.11C.297 3.469 0 2.906 0 2.469m0 0"/><path id="e" d="M.766 1.25 1.78 2.297c1.36 1.547 1.89 2.14 2.89 2.14 1.126 0 1.923-.89 1.923-2.093A1.826 1.826 0 0 0 4.797.5c-.547 0-.547.484-.547.516 0 .172.11.515.516.515.265 0 .515-.172.515-.515 0-.079 0-.11-.015-.141.656.234 1.015.766 1.015 1.344 0 .89-.797 1.328-1.61 1.328-.796 0-1.577-.5-2.187-1.047L.36.61C.25.5.234.5 0 .5v3.656l1.719.282v-.25c-.297-.047-.735-.11-.875-.22-.078-.062-.078-.718-.078-.937Zm0 0"/><path id="f" d="M5.781 6.14c.375.141.657.407.672 1.079h.297a22.29 22.29 0 0 1-.031-.953c0-.297.031-.875.031-1.125h-.297c-.016.5-.266.718-.5.718-.078 0-.14-.03-.203-.046L.984 4l5-1.89c.141-.063.157-.063.172-.063.297 0 .297.562.297.812h.297c-.031-.359-.031-1.046-.031-1.421 0-.47.031-.891.031-1.25h-.297c0 .64 0 .828-.375.968L0 3.453c-.187.063-.219.125-.219.25 0 .172.047.188.188.235Zm0 0"/><path id="g" d="M1.625 2.906h-.86c-.343 0-.452-.015-.452-.75v-.203H0c.031.406.031.922.031 1.328 0 .422 0 .938-.031 1.344h.313v-.203c0-.734.109-.75.453-.75h.859v.984h.313v-.984h4.5c.203 0 .265 0 .265-.156 0-.094 0-.125-.125-.203L1.938.28h-.313Zm.313.063V.547l3.687 2.422Zm0 0"/><path id="h" d="M3.25 1.313h.234c2.5 0 2.86 1.218 2.86 1.718 0 .25-.063.656-.407.875 0-.14 0-.547-.437-.547-.312 0-.453.235-.453.454 0 .156.094.453.469.453.593 0 1.078-.422 1.078-1.25C6.594 1.75 5.312.422 3.125.422c-2.64 0-3.344 1.14-3.344 2.062 0 1.094.938 2.032 2.235 2.032 1.265 0 2.203-.875 2.203-1.97 0-.671-.5-1.046-.969-1.233M.063 2.484c0-.625.593-.921.734-.984.469-.172 1.265-.172 1.437-.172C3 1.328 4 1.641 4 2.531c0 .156 0 .61-.625.922-.36.172-.86.172-1.344.172-.484 0-.969 0-1.328-.156-.594-.297-.64-.766-.64-.985m0 0"/><path id="i" d="M4.516 1.61c.297-.454.64-.485.812-.485.594 0 1.016.64 1.016 1.344 0 .719-.516 1.344-1.235 1.344-.562 0-1.03-.376-1.375-.97Zm-.938 1.453c.375.703.875 1.187 1.531 1.187.907 0 1.485-.875 1.485-1.781 0-.985-.735-1.781-1.657-1.781-.187 0-.625.015-1.093.437-.11.094-.36.469-.531.719C3.03 1.266 2.469.422 1.5.422c-1.062 0-1.719 1-1.719 2.047 0 1.11.828 2.047 1.875 2.047.36 0 .813-.11 1.219-.485.203-.187.313-.343.703-.968m-.406-1L2.39 3.28c-.188.281-.485.75-1.078.75-.735 0-1.25-.75-1.25-1.562C.063 1.625.672.906 1.5.906c.563 0 1.203.313 1.672 1.156m0 0"/><path id="j" d="M6.328 2.906c.234 0 .266 0 .266-.219-.64-.624-.64-1.484-.64-1.812H5.64c0 .203 0 .781.265 1.297H.781c-.36 0-.468-.031-.468-.922V.938H0c.031.343.031 1.203.031 1.609 0 .39 0 1.25-.031 1.594h.313v-.313c0-.89.109-.922.468-.922Zm0 0"/><path id="d" d="M.016 2c.64 0 1.03-.234 1.03-.625A.514.514 0 0 0 .532.844.517.517 0 0 0 0 1.375c0 .125.047.25.125.344a.193.193 0 0 0 .031.047c0 .015-.015.03-.14.03-.735 0-1.328-.359-1.657-.671-.109-.11-.125-.11-.156-.11-.078 0-.11.048-.11.094 0 .11.766.891 1.923.891m0 0"/><path id="l" d="M4.14 0v-.312h-.312c-.89 0-.922-.11-.922-.47v-5.546c0-.234 0-.266-.219-.266-.624.64-1.484.64-1.812.64v.313c.203 0 .781 0 1.297-.265v5.125c0 .36-.031.469-.922.469H.938V0C1.28-.031 2.14-.031 2.547-.031c.39 0 1.25 0 1.594.031m0 0"/><path id="n" d="M4.438-1.719h-.25c-.047.297-.11.735-.22.875-.062.078-.718.078-.937.078H1.25L2.297-1.78c1.547-1.36 2.14-1.89 2.14-2.89 0-1.126-.89-1.923-2.093-1.923A1.826 1.826 0 0 0 .5-4.797c0 .547.484.547.516.547.172 0 .515-.11.515-.516 0-.265-.172-.515-.515-.515-.079 0-.11 0-.141.015.234-.656.766-1.015 1.344-1.015.89 0 1.328.797 1.328 1.61 0 .796-.5 1.577-1.047 2.187L.61-.36C.5-.25.5-.234.5 0h3.656Zm0 0"/><path id="p" d="M4.516-1.687c0-.813-.625-1.594-1.641-1.797.797-.266 1.375-.953 1.375-1.735 0-.812-.875-1.375-1.812-1.375-1 0-1.75.594-1.75 1.36 0 .312.218.5.5.5.312 0 .5-.203.5-.5 0-.5-.47-.5-.61-.5.313-.485.953-.61 1.313-.61.406 0 .953.219.953 1.11 0 .125-.016.687-.281 1.125-.297.484-.626.515-.876.515a3.29 3.29 0 0 1-.39.031c-.078.016-.14.016-.14.126 0 .109.062.109.234.109h.437c.813 0 1.172.672 1.172 1.64 0 1.344-.687 1.626-1.11 1.626-.437 0-1.171-.172-1.515-.75.344.046.64-.172.64-.547 0-.36-.265-.547-.546-.547-.235 0-.547.14-.547.578 0 .89.906 1.547 1.984 1.547 1.219 0 2.11-.906 2.11-1.906m0 0"/><path id="r" d="M4.656-1.625v-.312h-.984v-4.5c0-.204 0-.266-.156-.266-.094 0-.125 0-.203.125L.28-1.938v.313h2.625v.86c0 .343-.015.453-.75.453h-.203V0c.406-.031.922-.031 1.328-.031.422 0 .938 0 1.344.031v-.312h-.203c-.734 0-.75-.11-.75-.454v-.859ZM2.97-1.937H.547l2.422-3.688Zm0 0"/><path id="s" d="M6.281-5.719c.094-.406.282-.703 1.063-.734.047 0 .172 0 .172-.188 0-.015 0-.109-.125-.109-.328 0-.672.031-1.016.031-.328 0-.703-.031-1.031-.031-.047 0-.172 0-.172.188 0 .109.094.109.172.109.578.016.672.219.672.437 0 .032-.016.188-.016.204l-.89 3.53C4.765-.952 3.624-.093 2.64-.093c-.671 0-1.203-.437-1.203-1.281 0-.016 0-.344.11-.766L2.5-6c.094-.344.11-.453.828-.453.266 0 .344 0 .344-.188 0-.109-.11-.109-.14-.109-.282 0-.985.031-1.266.031-.282 0-.985-.031-1.282-.031-.078 0-.187 0-.187.188 0 .109.094.109.281.109.016 0 .203 0 .375.031.172.016.266.016.266.156 0 .047-.11.47-.172.704l-.219.859C1.25-4.313.766-2.437.734-2.25c-.078.266-.078.422-.078.563C.656-.47 1.563.218 2.594.218c1.25 0 2.484-1.125 2.812-2.422Zm0 0"/><path id="u" d="M3.703-6c.078-.344.11-.453.89-.453.25 0 .329 0 .329-.188 0-.109-.11-.109-.156-.109-.282 0-1.016.031-1.297.031-.297 0-1.031-.031-1.328-.031-.063 0-.188 0-.188.188 0 .109.078.109.266.109.422 0 .687 0 .687.187 0 .047 0 .079-.015.157L1.547-.766c-.078.36-.11.454-.89.454-.235 0-.313 0-.313.203 0 .109.11.109.14.109C.766 0 1.5-.031 1.781-.031 2.078-.031 2.813 0 3.11 0c.079 0 .188 0 .188-.187 0-.125-.078-.125-.297-.125-.172 0-.219 0-.422-.016-.203-.016-.25-.063-.25-.172 0-.078.031-.156.047-.219Zm0 0"/><path id="t" d="M4.516-4.703H.39v.25h.156c.547 0 .547.078.547.312v3.579c0 .234 0 .312-.547.312H.39V0s.78-.031 1.047-.031c.28 0 1.109.031 1.218.031v-.25h-.25c-.64 0-.64-.094-.64-.312v-1.672h.656c.703 0 .797.218.797.812h.234v-1.86H3.22c0 .595-.094.798-.797.798h-.656v-1.703c0-.204 0-.266.328-.266h.969c1.109 0 1.296.375 1.421 1.344h.235Zm0 0"/><clipPath id="a"><path d="M228 82h3.875v5H228Zm0 0"/></clipPath><clipPath id="b"><path d="M222 77h9.875v16H222Zm0 0"/></clipPath><clipPath id="k"><path d="M17.09 1H59v83.66H17.09Zm0 0"/></clipPath><clipPath id="m"><path d="M17.09 1H93v83.66H17.09Zm0 0"/></clipPath><clipPath id="o"><path d="M17.09 1H103v83.66H17.09Zm0 0"/></clipPath><clipPath id="q"><path d="M17.09 1H208v83.66H17.09Zm0 0"/></clipPath></defs><path fill="none" stroke="#7F7F7F" stroke-miterlimit="10" stroke-width=".19764879000000002" d="M27.309 86.773v-4.222m10.218 4.222v-4.222m10.22 4.222v-4.222m10.218 4.222v-4.222m10.219 4.222v-4.222m10.218 4.222v-4.222m10.22 4.222v-4.222m10.218 4.222v-4.222m10.219 4.222v-4.222m10.218 4.222v-4.222m10.22 4.222v-4.222m10.214 4.222v-4.222m10.219 4.222v-4.222m10.218 4.222v-4.222m10.22 4.222v-4.222m10.218 4.222v-4.222m10.219 4.222v-4.222m10.218 4.222v-4.222"/><path fill="none" stroke="#000" stroke-miterlimit="10" stroke-width=".39629079000000006" d="M17.09 84.66h211.14"/><g clip-path="url(#a)"><path d="m231.281 84.66-2.953-1.75v3.5Zm0 0"/></g><g clip-path="url(#b)"><path fill="none" stroke="#000" stroke-miterlimit="10" stroke-width=".39629079000000006" d="m231.281 84.66-2.953-1.75v3.5Zm0 0"/></g><path fill="none" stroke="#000" stroke-miterlimit="10" stroke-width=".39629079000000006" d="M17.09 84.66V3.645"/><path stroke="#000" stroke-miterlimit="10" stroke-width=".39629079000000006" d="m17.09.594-1.75 2.953h3.504Zm0 0"/><use xlink:href="#c" x="35.109" y="90.267"/><use xlink:href="#d" x="35.109" y="95.215"/><use xlink:href="#e" x="35.109" y="97.964"/><use xlink:href="#f" x="35.109" y="104.554"/><use xlink:href="#c" x="55.546" y="90.267"/><use xlink:href="#d" x="55.546" y="95.215"/><use xlink:href="#g" x="55.546" y="97.964"/><use xlink:href="#f" x="55.546" y="104.554"/><use xlink:href="#c" x="75.983" y="90.267"/><use xlink:href="#d" x="75.983" y="95.214"/><use xlink:href="#h" x="75.983" y="97.963"/><use xlink:href="#f" x="75.983" y="104.553"/><use xlink:href="#c" x="96.42" y="90.267"/><use xlink:href="#d" x="96.42" y="95.214"/><use xlink:href="#i" x="96.42" y="97.964"/><use xlink:href="#f" x="96.42" y="104.554"/><use xlink:href="#j" x="116.856" y="90.267"/><use xlink:href="#d" x="116.856" y="95.214"/><use xlink:href="#c" x="116.856" y="97.964"/><use xlink:href="#f" x="116.856" y="104.554"/><use xlink:href="#j" x="137.292" y="90.267"/><use xlink:href="#d" x="137.292" y="95.215"/><use xlink:href="#e" x="137.292" y="97.964"/><use xlink:href="#f" x="137.292" y="104.554"/><use xlink:href="#j" x="157.73" y="90.267"/><use xlink:href="#d" x="157.73" y="95.214"/><use xlink:href="#g" x="157.73" y="97.963"/><use xlink:href="#f" x="157.73" y="104.553"/><use xlink:href="#j" x="178.166" y="90.267"/><use xlink:href="#d" x="178.166" y="95.214"/><use xlink:href="#h" x="178.166" y="97.964"/><use xlink:href="#f" x="178.166" y="104.554"/><use xlink:href="#j" x="198.602" y="90.267"/><use xlink:href="#d" x="198.602" y="95.214"/><use xlink:href="#i" x="198.602" y="97.964"/><use xlink:href="#f" x="198.602" y="104.554"/><g clip-path="url(#k)"><path fill="none" stroke="#000" stroke-miterlimit="10" stroke-width=".79158837" d="M17.09 84.66h10.219m0 0h10.218c5.11 0 9.07-56.105 10.22-72.398"/></g><use xlink:href="#l" x="45.273" y="8.319"/><g clip-path="url(#m)"><path fill="none" stroke="#000" stroke-miterlimit="10" stroke-width=".79158837" d="M17.09 84.66h12.773m0 0h12.774c19.414 0 34.46-56.105 38.832-72.398"/></g><use xlink:href="#n" x="78.994" y="8.319"/><g clip-path="url(#o)"><path fill="none" stroke="#000" stroke-miterlimit="10" stroke-width=".79158837" d="M17.09 84.66h30.656m0 0h30.656c6.641 0 11.79-56.105 13.286-72.398"/></g><use xlink:href="#p" x="89.212" y="8.21"/><g clip-path="url(#q)"><path fill="none" stroke="#000" stroke-miterlimit="10" stroke-width=".79158837" d="M17.09 84.66h75.105m0 0h75.106c14.308 0 25.394-56.105 28.613-72.398"/></g><use xlink:href="#r" x="193.439" y="8.374"/><use xlink:href="#s" x="215.824" y="94.917"/><use xlink:href="#t" x="222.58" y="96.401"/><use xlink:href="#u" x="3.646" y="10.456"/><use xlink:href="#t" x="7.996" y="11.939"/></svg>