<svg xmlns="http://www.w3.org/2000/svg" xmlns:xlink="http://www.w3.org/1999/xlink" width="226.77" height="20.639"><defs><path id="a" d="M2.844-3.453c.797-.266 1.375-.953 1.375-1.719 0-.797-.875-1.36-1.813-1.36-.984 0-1.734.595-1.734 1.345 0 .312.219.5.5.5.312 0 .5-.204.5-.5 0-.485-.453-.485-.61-.485.313-.484.954-.61 1.313-.61.39 0 .938.22.938 1.095 0 .125-.016.687-.282 1.125-.281.468-.625.5-.86.5a3.29 3.29 0 0 1-.39.03c-.078.016-.14.032-.14.126 0 .11.062.11.234.11h.422c.812 0 1.172.655 1.172 1.624 0 1.328-.672 1.61-1.11 1.61-.421 0-1.156-.157-1.5-.735.344.047.657-.172.657-.547 0-.343-.266-.547-.563-.547-.234 0-.547.141-.547.563 0 .89.922 1.547 1.985 1.547 1.187 0 2.093-.89 2.093-1.89 0-.813-.625-1.579-1.64-1.782m0 0"/><path id="c" d="M3.594-3.11v.313c0 2.281-1.016 2.735-1.578 2.735-.172 0-.703-.016-.97-.344.438 0 .517-.297.517-.453 0-.313-.235-.453-.454-.453-.156 0-.453.093-.453.468 0 .657.532 1.063 1.36 1.063C3.28.219 4.484-1.11 4.484-3.22c0-2.64-1.14-3.312-2-3.312-.546 0-1.03.187-1.453.625-.39.437-.625.843-.625 1.578 0 1.234.875 2.187 1.969 2.187.594 0 1-.406 1.219-.968m-1.219.75c-.156 0-.61 0-.906-.624-.172-.36-.172-.844-.172-1.328 0-.532 0-.985.203-1.344.266-.5.64-.625.984-.625.438 0 .766.328.938.781.11.313.156.922.156 1.375 0 .813-.328 1.766-1.203 1.766m0 0"/><path id="d" d="M6.078-5.734c.14-.36.406-.641 1.078-.657v-.296a22.29 22.29 0 0 1-.953.03c-.297 0-.86-.03-1.125-.03v.296c.516.016.719.266.719.5 0 .079-.031.125-.047.188L3.953-.984l-1.86-4.938c-.062-.14-.062-.156-.062-.187 0-.282.563-.282.797-.282v-.296c-.344.03-1.031.03-1.39.03-.485 0-.907-.03-1.25-.03v.296c.64 0 .828 0 .953.375L3.42 0c.063.188.11.219.235.219.172 0 .188-.047.25-.188Zm0 0"/><path id="g" d="m1.25-.75 1.031-1.016C3.812-3.109 4.406-3.64 4.406-4.625c0-1.11-.89-1.906-2.078-1.906-1.11 0-1.844.906-1.844 1.781 0 .547.5.547.532.547.156 0 .5-.125.5-.516 0-.265-.172-.515-.516-.515-.078 0-.094 0-.125.015.219-.64.75-1 1.313-1 .906 0 1.312.797 1.312 1.594 0 .781-.484 1.563-1.016 2.172L.594-.36C.484-.25.484-.234.484 0h3.641l.281-1.703h-.25c-.047.297-.125.719-.218.875-.063.078-.72.078-.938.078Zm0 0"/><path id="b" d="M1.984-.016c0-.64-.234-1.015-.625-1.015-.328 0-.515.234-.515.515A.5.5 0 0 0 1.359 0c.125 0 .25-.047.344-.125.031-.016.047-.031.047-.031.016 0 .016.015.016.14 0 .735-.328 1.313-.657 1.641C1 1.735 1 1.75 1 1.781c0 .078.047.11.094.11.11 0 .89-.75.89-1.907m0 0"/><clipPath id="e"><path d="M92 0h39v20.285H92Zm0 0"/></clipPath><clipPath id="f"><path d="M103 0h2v20.285h-2Zm0 0"/></clipPath></defs><use xlink:href="#a" x="11.919" y="12.536"/><use xlink:href="#b" x="16.815" y="12.536"/><use xlink:href="#c" x="19.535" y="12.536"/><use xlink:href="#d" x="26.056" y="12.536"/><path fill="none" stroke="#000" stroke-miterlimit="10" stroke-width=".39214119000000003" d="M43.82 10.14h60.024m15.601 0h60.02"/><g clip-path="url(#e)"><path fill="none" stroke="#000" stroke-miterlimit="10" stroke-width=".7832995700000001" d="M103.844 10.14 119.445.39v19.5Zm0 0"/></g><path fill="none" stroke="#000" stroke-miterlimit="10" stroke-width=".39214119000000003" d="M103.844 10.14h15.601"/><g clip-path="url(#f)"><path fill="none" stroke="#000" stroke-miterlimit="10" stroke-width=".7832995700000001" d="M103.844 19.89V.39"/></g><use xlink:href="#a" x="189.741" y="12.536"/><use xlink:href="#b" x="194.638" y="12.536"/><use xlink:href="#g" x="197.357" y="12.536"/><use xlink:href="#d" x="203.878" y="12.536"/></svg>