<svg xmlns="http://www.w3.org/2000/svg" xmlns:xlink="http://www.w3.org/1999/xlink" width="226.77" height="20.639"><defs><path id="a" d="M2.875-6.266c0-.234 0-.265-.219-.265-.61.64-1.469.64-1.781.64v.297c.188 0 .766 0 1.281-.25V-.78c0 .36-.031.484-.906.484H.938V0c.343-.031 1.187-.031 1.578-.031.39 0 1.25 0 1.593.031v-.297h-.312c-.89 0-.922-.11-.922-.484Zm0 0"/><path id="b" d="M4.406-1.969c0-1.172-.812-2.14-1.875-2.14-.469 0-.89.156-1.234.5v-1.922c.187.062.516.14.828.14 1.203 0 1.89-.906 1.89-1.03 0-.048-.03-.11-.093-.11-.016 0-.031 0-.078.031a3.167 3.167 0 0 1-1.328.281c-.407 0-.844-.062-1.313-.265-.078-.032-.094-.032-.11-.032-.109 0-.109.079-.109.235v2.906c0 .172 0 .25.141.25.063 0 .094-.031.125-.094.11-.156.469-.687 1.266-.687.515 0 .75.453.828.64.156.36.187.735.187 1.235 0 .344 0 .922-.234 1.328-.235.39-.61.64-1.047.64-.719 0-1.281-.515-1.453-1.093.031.015.062.015.172.015a.455.455 0 0 0 .484-.468c0-.25-.156-.485-.484-.485-.14 0-.485.063-.485.516 0 .844.688 1.797 1.782 1.797 1.14 0 2.14-.938 2.14-2.188m0 0"/><path id="d" d="M4.5-3.14c0-.782-.047-1.563-.39-2.282-.454-.953-1.25-1.11-1.657-1.11-.594 0-1.312.266-1.703 1.173-.312.672-.375 1.437-.375 2.218 0 .735.047 1.625.453 2.36.422.797 1.125 1 1.61 1 .53 0 1.28-.203 1.703-1.14.312-.673.359-1.438.359-2.22M2.438 0c-.376 0-.954-.25-1.141-1.187-.11-.579-.11-1.485-.11-2.063 0-.625 0-1.281.094-1.812.172-1.157.907-1.25 1.157-1.25.328 0 .968.171 1.156 1.156.094.547.094 1.281.094 1.906 0 .734 0 1.39-.11 2.031C3.438-.297 2.875 0 2.438 0m0 0"/><path id="e" d="M6.078-5.734c.14-.36.406-.641 1.078-.657v-.296a22.29 22.29 0 0 1-.953.03c-.297 0-.86-.03-1.125-.03v.296c.516.016.719.266.719.5 0 .079-.031.125-.047.188L3.953-.984l-1.86-4.938c-.062-.14-.062-.156-.062-.187 0-.282.563-.282.797-.282v-.296c-.344.03-1.031.03-1.39.03-.485 0-.907-.03-1.25-.03v.296c.64 0 .828 0 .953.375L3.42 0c.063.188.11.219.235.219.172 0 .188-.047.25-.188Zm0 0"/><path id="h" d="M1.594-4.484c-.453-.282-.485-.625-.485-.782 0-.609.641-1.015 1.329-1.015.718 0 1.343.515 1.343 1.218 0 .563-.375 1.032-.969 1.375Zm1.437.937c.703-.36 1.188-.875 1.188-1.515 0-.907-.875-1.47-1.766-1.47-.984 0-1.781.735-1.781 1.641 0 .172.031.625.437 1.079.11.124.47.359.72.53C1.25-3 .405-2.452.405-1.483c0 1.047 1 1.703 2.031 1.703 1.11 0 2.047-.813 2.047-1.86 0-.359-.109-.796-.484-1.203-.187-.219-.344-.312-.969-.703m-.984.406 1.203.766c.281.188.734.484.734 1.078 0 .734-.734 1.235-1.53 1.235-.845 0-1.548-.61-1.548-1.422 0-.563.313-1.188 1.14-1.657m0 0"/><path id="c" d="M1.984-.016c0-.64-.234-1.015-.625-1.015-.328 0-.515.234-.515.515A.5.5 0 0 0 1.359 0c.125 0 .25-.047.344-.125.031-.016.047-.031.047-.031.016 0 .016.015.016.14 0 .735-.328 1.313-.657 1.641C1 1.735 1 1.75 1 1.781c0 .078.047.11.094.11.11 0 .89-.75.89-1.907m0 0"/><clipPath id="f"><path d="M92 0h39v20.285H92Zm0 0"/></clipPath><clipPath id="g"><path d="M119 0h1v20.285h-1Zm0 0"/></clipPath></defs><use xlink:href="#a" x="9.472" y="12.536"/><use xlink:href="#b" x="14.367" y="12.536"/><use xlink:href="#c" x="19.262" y="12.536"/><use xlink:href="#d" x="21.983" y="12.536"/><use xlink:href="#e" x="28.504" y="12.536"/><path fill="none" stroke="#000" stroke-miterlimit="10" stroke-width=".39214119000000003" d="M43.82 10.14h60.024m15.601 0h60.02"/><g clip-path="url(#f)"><path fill="none" stroke="#000" stroke-miterlimit="10" stroke-width=".7832995700000001" d="M119.445 10.14 103.844.39v19.5Zm0 0"/></g><path fill="none" stroke="#000" stroke-miterlimit="10" stroke-width=".39214119000000003" d="M119.445 10.14h-15.601"/><g clip-path="url(#g)"><path fill="none" stroke="#000" stroke-miterlimit="10" stroke-width=".7832995700000001" d="M119.445 19.89V.39"/></g><use xlink:href="#a" x="187.294" y="12.536"/><use xlink:href="#h" x="192.19" y="12.536"/><use xlink:href="#c" x="197.085" y="12.536"/><use xlink:href="#d" x="199.805" y="12.536"/><use xlink:href="#e" x="206.326" y="12.536"/></svg>