<svg xmlns="http://www.w3.org/2000/svg" xmlns:xlink="http://www.w3.org/1999/xlink" width="226.77" height="20.639"><defs><path id="a" d="M2.875-6.266c0-.234 0-.265-.219-.265-.61.64-1.469.64-1.781.64v.297c.188 0 .766 0 1.281-.25V-.78c0 .36-.031.484-.906.484H.938V0c.343-.031 1.187-.031 1.578-.031.39 0 1.25 0 1.593.031v-.297h-.312c-.89 0-.922-.11-.922-.484Zm0 0"/><path id="c" d="M1.297-3.219v-.234c0-2.469 1.219-2.828 1.703-2.828.25 0 .656.062.875.39-.156 0-.547 0-.547.438 0 .312.235.453.453.453.156 0 .453-.078.453-.469 0-.578-.437-1.062-1.25-1.062-1.25 0-2.578 1.265-2.578 3.437C.406-.484 1.546.22 2.453.22 3.547.219 4.484-.703 4.484-2c0-1.25-.875-2.187-1.968-2.187-.657 0-1.032.5-1.22.968M2.453-.062c-.61 0-.906-.579-.969-.735-.171-.453-.171-1.234-.171-1.422 0-.765.312-1.734 1.203-1.734.156 0 .593 0 .906.61.172.359.172.859.172 1.327 0 .485 0 .97-.172 1.313-.281.594-.735.64-.969.64m0 0"/><path id="d" d="M6.078-5.734c.14-.36.406-.641 1.078-.657v-.296a22.29 22.29 0 0 1-.953.03c-.297 0-.86-.03-1.125-.03v.296c.516.016.719.266.719.5 0 .079-.031.125-.047.188L3.953-.984l-1.86-4.938c-.062-.14-.062-.156-.062-.187 0-.282.563-.282.797-.282v-.296c-.344.03-1.031.03-1.39.03-.485 0-.907-.03-1.25-.03v.296c.64 0 .828 0 .953.375L3.42 0c.063.188.11.219.235.219.172 0 .188-.047.25-.188Zm0 0"/><path id="g" d="M4.5-3.14c0-.782-.047-1.563-.39-2.282-.454-.953-1.25-1.11-1.657-1.11-.594 0-1.312.266-1.703 1.173-.312.672-.375 1.437-.375 2.218 0 .735.047 1.625.453 2.36.422.797 1.125 1 1.61 1 .53 0 1.28-.203 1.703-1.14.312-.673.359-1.438.359-2.22M2.438 0c-.376 0-.954-.25-1.141-1.187-.11-.579-.11-1.485-.11-2.063 0-.625 0-1.281.094-1.812.172-1.157.907-1.25 1.157-1.25.328 0 .968.171 1.156 1.156.094.547.094 1.281.094 1.906 0 .734 0 1.39-.11 2.031C3.438-.297 2.875 0 2.438 0m0 0"/><path id="h" d="M3.594-3.11v.313c0 2.281-1.016 2.735-1.578 2.735-.172 0-.703-.016-.97-.344.438 0 .517-.297.517-.453 0-.313-.235-.453-.454-.453-.156 0-.453.093-.453.468 0 .657.532 1.063 1.36 1.063C3.28.219 4.484-1.11 4.484-3.22c0-2.64-1.14-3.312-2-3.312-.546 0-1.03.187-1.453.625-.39.437-.625.843-.625 1.578 0 1.234.875 2.187 1.969 2.187.594 0 1-.406 1.219-.968m-1.219.75c-.156 0-.61 0-.906-.624-.172-.36-.172-.844-.172-1.328 0-.532 0-.985.203-1.344.266-.5.64-.625.984-.625.438 0 .766.328.938.781.11.313.156.922.156 1.375 0 .813-.328 1.766-1.203 1.766m0 0"/><path id="b" d="M1.984-.016c0-.64-.234-1.015-.625-1.015-.328 0-.515.234-.515.515A.5.5 0 0 0 1.359 0c.125 0 .25-.047.344-.125.031-.016.047-.031.047-.031.016 0 .016.015.016.14 0 .735-.328 1.313-.657 1.641C1 1.735 1 1.75 1 1.781c0 .078.047.11.094.11.11 0 .89-.75.89-1.907m0 0"/><clipPath id="e"><path d="M92 0h39v20.285H92Zm0 0"/></clipPath><clipPath id="f"><path d="M103 0h2v20.285h-2Zm0 0"/></clipPath></defs><use xlink:href="#a" x="11.919" y="12.536"/><use xlink:href="#b" x="16.815" y="12.536"/><use xlink:href="#c" x="19.535" y="12.536"/><use xlink:href="#d" x="26.056" y="12.536"/><path fill="none" stroke="#000" stroke-miterlimit="10" stroke-width=".39214119000000003" d="M43.82 10.14h60.024m15.601 0h60.02"/><g clip-path="url(#e)"><path fill="none" stroke="#000" stroke-miterlimit="10" stroke-width=".7832995700000001" d="M103.844 10.14 119.445.39v19.5Zm0 0"/></g><path fill="none" stroke="#000" stroke-miterlimit="10" stroke-width=".39214119000000003" d="M103.844 10.14h15.601"/><g clip-path="url(#f)"><path fill="none" stroke="#000" stroke-miterlimit="10" stroke-width=".7832995700000001" d="M103.844 19.89V.39"/></g><use xlink:href="#g" x="189.741" y="12.536"/><use xlink:href="#b" x="194.638" y="12.536"/><use xlink:href="#h" x="197.357" y="12.536"/><use xlink:href="#d" x="203.878" y="12.536"/></svg>