<svg xmlns="http://www.w3.org/2000/svg" width="164.352" height="112.542"><defs><clipPath id="a"><path d="M.012 4H4v4H.012Zm0 0"/></clipPath><clipPath id="b"><path d="M.012 0H9v14H.012Zm0 0"/></clipPath><clipPath id="c"><path d="M144 49h19.695v18H144Zm0 0"/></clipPath><clipPath id="d"><path d="M150 53h13.695v16H150Zm0 0"/></clipPath><clipPath id="e"><path d="M148 58h15.695v16H148Zm0 0"/></clipPath><clipPath id="f"><path d="M.012 108H4v4H.012Zm0 0"/></clipPath><clipPath id="g"><path d="M.012 103H9v9.086H.012Zm0 0"/></clipPath></defs><path fill="none" stroke="#000" stroke-miterlimit="10" stroke-width=".39738405000000004" d="M1.79 6.324H55.3m31.622 0h53.512V50.41m0 15.809v44.09H71.109m0 0H1.79"/><path fill="none" stroke="#000" stroke-miterlimit="10" stroke-width=".79377215" d="M55.3.395h31.622v11.859H55.3Zm0 0"/><g clip-path="url(#a)"><path fill="#FFF" d="M3.371 6.324a1.583 1.583 0 0 0-3.164 0 1.583 1.583 0 0 0 3.164 0m0 0"/></g><g clip-path="url(#b)"><path fill="none" stroke="#000" stroke-miterlimit="10" stroke-width=".39738405000000004" d="M3.371 6.324a1.583 1.583 0 0 0-3.164 0 1.583 1.583 0 0 0 3.164 0Zm0 0"/></g><path fill="none" stroke="#000" stroke-miterlimit="10" stroke-width=".79377215" d="m140.434 66.219 9.879-15.809H130.55Zm0 0"/><path fill="none" stroke="#000" stroke-miterlimit="10" stroke-width=".39738405000000004" d="M140.434 66.219V50.41"/><path fill="none" stroke="#000" stroke-miterlimit="10" stroke-width=".79377215" d="M130.55 66.219h19.763"/><g clip-path="url(#c)"><path fill="none" stroke="#000" stroke-miterlimit="10" stroke-width=".39738405000000004" d="m150.313 55.152 7.183 5.746"/></g><path d="m159.887 62.813-1.219-3.223-1.094 1.37-1.097 1.372Zm0 0"/><g clip-path="url(#d)"><path fill="none" stroke="#000" stroke-miterlimit="10" stroke-width=".39735612000000003" d="m159.887 62.812-1.219-3.222-1.094 1.37-1.097 1.372Zm0 0"/></g><path fill="none" stroke="#000" stroke-miterlimit="10" stroke-width=".39738405000000004" d="m148.336 59.898 7.184 5.743"/><path d="m157.91 67.555-1.219-3.223-1.093 1.371-1.098 1.371Zm0 0"/><g clip-path="url(#e)"><path fill="none" stroke="#000" stroke-miterlimit="10" stroke-width=".39735612000000003" d="m157.91 67.555-1.219-3.223-1.093 1.371-1.098 1.371Zm0 0"/></g><g clip-path="url(#f)"><path fill="#FFF" d="M3.371 110.309a1.583 1.583 0 0 0-3.164 0 1.582 1.582 0 0 0 3.164 0m0 0"/></g><g clip-path="url(#g)"><path fill="none" stroke="#000" stroke-miterlimit="10" stroke-width=".39738405000000004" d="M3.371 110.309a1.583 1.583 0 0 0-3.164 0 1.582 1.582 0 0 0 3.164 0Zm0 0"/></g></svg>