<svg xmlns="http://www.w3.org/2000/svg" xmlns:xlink="http://www.w3.org/1999/xlink" width="226.77" height="20.639"><defs><path id="a" d="M2.875-1.61v.844c0 .36-.016.47-.734.47h-.203V0c.39-.031.906-.031 1.312-.031s.938 0 1.328.031v-.297h-.203c-.719 0-.734-.11-.734-.469v-.843h.968v-.313h-.968v-4.453c0-.203 0-.25-.157-.25-.093 0-.125 0-.203.11l-3 4.593v.313Zm.063-.312H.547l2.39-3.656Zm0 0"/><path id="c" d="M2.844-3.453c.797-.266 1.375-.953 1.375-1.719 0-.797-.875-1.36-1.813-1.36-.984 0-1.734.595-1.734 1.345 0 .312.219.5.5.5.312 0 .5-.204.5-.5 0-.485-.453-.485-.61-.485.313-.484.954-.61 1.313-.61.39 0 .938.22.938 1.095 0 .125-.016.687-.282 1.125-.281.468-.625.5-.86.5a3.29 3.29 0 0 1-.39.03c-.078.016-.14.032-.14.126 0 .11.062.11.234.11h.422c.812 0 1.172.655 1.172 1.624 0 1.328-.672 1.61-1.11 1.61-.421 0-1.156-.157-1.5-.735.344.047.657-.172.657-.547 0-.343-.266-.547-.563-.547-.234 0-.547.141-.547.563 0 .89.922 1.547 1.985 1.547 1.187 0 2.093-.89 2.093-1.89 0-.813-.625-1.579-1.64-1.782m0 0"/><path id="d" d="M6.078-5.734c.14-.36.406-.641 1.078-.657v-.296a22.29 22.29 0 0 1-.953.03c-.297 0-.86-.03-1.125-.03v.296c.516.016.719.266.719.5 0 .079-.031.125-.047.188L3.953-.984l-1.86-4.938c-.062-.14-.062-.156-.062-.187 0-.282.563-.282.797-.282v-.296c-.344.03-1.031.03-1.39.03-.485 0-.907-.03-1.25-.03v.296c.64 0 .828 0 .953.375L3.42 0c.063.188.11.219.235.219.172 0 .188-.047.25-.188Zm0 0"/><path id="g" d="M4.406-1.969c0-1.172-.812-2.14-1.875-2.14-.469 0-.89.156-1.234.5v-1.922c.187.062.516.14.828.14 1.203 0 1.89-.906 1.89-1.03 0-.048-.03-.11-.093-.11-.016 0-.031 0-.078.031a3.167 3.167 0 0 1-1.328.281c-.407 0-.844-.062-1.313-.265-.078-.032-.094-.032-.11-.032-.109 0-.109.079-.109.235v2.906c0 .172 0 .25.141.25.063 0 .094-.031.125-.094.11-.156.469-.687 1.266-.687.515 0 .75.453.828.64.156.36.187.735.187 1.235 0 .344 0 .922-.234 1.328-.235.39-.61.64-1.047.64-.719 0-1.281-.515-1.453-1.093.031.015.062.015.172.015a.455.455 0 0 0 .484-.468c0-.25-.156-.485-.484-.485-.14 0-.485.063-.485.516 0 .844.688 1.797 1.782 1.797 1.14 0 2.14-.938 2.14-2.188m0 0"/><path id="h" d="M4.5-3.14c0-.782-.047-1.563-.39-2.282-.454-.953-1.25-1.11-1.657-1.11-.594 0-1.312.266-1.703 1.173-.312.672-.375 1.437-.375 2.218 0 .735.047 1.625.453 2.36.422.797 1.125 1 1.61 1 .53 0 1.28-.203 1.703-1.14.312-.673.359-1.438.359-2.22M2.438 0c-.376 0-.954-.25-1.141-1.187-.11-.579-.11-1.485-.11-2.063 0-.625 0-1.281.094-1.812.172-1.157.907-1.25 1.157-1.25.328 0 .968.171 1.156 1.156.094.547.094 1.281.094 1.906 0 .734 0 1.39-.11 2.031C3.438-.297 2.875 0 2.438 0m0 0"/><path id="b" d="M1.984-.016c0-.64-.234-1.015-.625-1.015-.328 0-.515.234-.515.515A.5.5 0 0 0 1.359 0c.125 0 .25-.047.344-.125.031-.016.047-.031.047-.031.016 0 .016.015.016.14 0 .735-.328 1.313-.657 1.641C1 1.735 1 1.75 1 1.781c0 .078.047.11.094.11.11 0 .89-.75.89-1.907m0 0"/><clipPath id="e"><path d="M92 0h39v20.285H92Zm0 0"/></clipPath><clipPath id="f"><path d="M119 0h1v20.285h-1Zm0 0"/></clipPath></defs><use xlink:href="#a" x="11.919" y="12.536"/><use xlink:href="#b" x="16.815" y="12.536"/><use xlink:href="#c" x="19.535" y="12.536"/><use xlink:href="#d" x="26.056" y="12.536"/><path fill="none" stroke="#000" stroke-miterlimit="10" stroke-width=".39214119000000003" d="M43.82 10.14h60.024m15.601 0h60.02"/><g clip-path="url(#e)"><path fill="none" stroke="#000" stroke-miterlimit="10" stroke-width=".7832995700000001" d="M119.445 10.14 103.844.39v19.5Zm0 0"/></g><path fill="none" stroke="#000" stroke-miterlimit="10" stroke-width=".39214119000000003" d="M119.445 10.14h-15.601"/><g clip-path="url(#f)"><path fill="none" stroke="#000" stroke-miterlimit="10" stroke-width=".7832995700000001" d="M119.445 19.89V.39"/></g><use xlink:href="#g" x="189.741" y="12.536"/><use xlink:href="#b" x="194.638" y="12.536"/><use xlink:href="#h" x="197.357" y="12.536"/><use xlink:href="#d" x="203.878" y="12.536"/></svg>