<svg xmlns="http://www.w3.org/2000/svg" width="224.832" height="117.109"><defs><clipPath id="a"><path d="M.766 112H5v4.227H.766Zm0 0"/></clipPath><clipPath id="b"><path d="M.766 107H10v9.227H.766Zm0 0"/></clipPath><clipPath id="c"><path d="M217 112h4v4.227h-4Zm0 0"/></clipPath><clipPath id="d"><path d="M211 107h12.898v9.227H211Zm0 0"/></clipPath><clipPath id="e"><path d="M.766 0h223.132v12H.766Zm0 0"/></clipPath><clipPath id="f"><path d="M.766 4H5v4H.766Zm0 0"/></clipPath><clipPath id="g"><path d="M.766 0H10v14H.766Zm0 0"/></clipPath><clipPath id="h"><path d="M211 0h12.898v14H211Zm0 0"/></clipPath><clipPath id="i"><path d="M145 112h4v4.227h-4Zm0 0"/></clipPath><clipPath id="j"><path d="M139 107h15v9.227h-15Zm0 0"/></clipPath></defs><path fill="none" stroke="#000" stroke-miterlimit="10" stroke-width=".39598755" d="M2.54 114.453h72.097m0 0h108.152m0 0h36.047"/><g clip-path="url(#a)"><path fill="#FFF" d="M4.113 114.453a1.575 1.575 0 0 0-3.152 0 1.577 1.577 0 0 0 3.152 0m0 0"/></g><g clip-path="url(#b)"><path fill="none" stroke="#000" stroke-miterlimit="10" stroke-width=".39598755" d="M4.113 114.453a1.575 1.575 0 0 0-3.152 0 1.577 1.577 0 0 0 3.152 0Zm0 0"/></g><g clip-path="url(#c)"><path fill="#FFF" d="M220.414 114.453a1.575 1.575 0 1 0-1.578 1.574c.871 0 1.578-.707 1.578-1.574m0 0"/></g><g clip-path="url(#d)"><path fill="none" stroke="#000" stroke-miterlimit="10" stroke-width=".39598755" d="M220.414 114.453a1.575 1.575 0 1 0-1.578 1.574c.871 0 1.578-.707 1.578-1.574Zm0 0"/></g><g clip-path="url(#e)"><path fill="none" stroke="#000" stroke-miterlimit="10" stroke-width=".39598755" d="m2.54 6.3 56.343.005m31.508 0 56.347-.004 36.051.004m0 0 36.047-.004"/></g><path fill="none" stroke="#000" stroke-miterlimit="10" stroke-width=".7909826500000001" d="M58.883.395H90.39V12.21H58.883Zm0 0"/><g clip-path="url(#f)"><path fill="#FFF" d="M4.113 6.3a1.577 1.577 0 0 0-3.152 0c0 .872.707 1.579 1.578 1.579.867 0 1.574-.707 1.574-1.578m0 0"/></g><g clip-path="url(#g)"><path fill="none" stroke="#000" stroke-miterlimit="10" stroke-width=".39598755" d="M4.113 6.3a1.577 1.577 0 0 0-3.152 0c0 .872.707 1.579 1.578 1.579.867 0 1.574-.707 1.574-1.578Zm0 0"/></g><path fill="#FFF" d="M220.414 6.3a1.577 1.577 0 1 0-1.578 1.578c.871 0 1.578-.706 1.578-1.577m0 0"/><g clip-path="url(#h)"><path fill="none" stroke="#000" stroke-miterlimit="10" stroke-width=".39598755" d="M220.414 6.3a1.577 1.577 0 1 0-1.578 1.578c.871 0 1.578-.706 1.578-1.577Zm0 0"/></g><path fill="none" stroke="#000" stroke-miterlimit="10" stroke-width=".39598755" d="M146.738 114.453v-46.2m0-15.753V6.3"/><path fill="none" stroke="#000" stroke-miterlimit="10" stroke-width=".7909826500000001" d="m146.738 52.5 9.844 15.754h-19.691Zm0 0"/><path fill="none" stroke="#000" stroke-miterlimit="10" stroke-width=".39598755" d="M146.738 52.5v15.754"/><path fill="none" stroke="#000" stroke-miterlimit="10" stroke-width=".7909826500000001" d="M136.89 52.5h19.692v3.152"/><g clip-path="url(#i)"><path d="M148.313 114.453a1.575 1.575 0 1 0-3.15 0 1.575 1.575 0 0 0 3.15 0m0 0"/></g><g clip-path="url(#j)"><path fill="none" stroke="#000" stroke-miterlimit="10" stroke-width=".39598755" d="M148.312 114.453a1.575 1.575 0 1 0-3.149 0 1.575 1.575 0 0 0 3.15 0Zm0 0"/></g><path stroke="#000" stroke-miterlimit="10" stroke-width=".39598755" d="M148.312 6.3a1.575 1.575 0 0 0-3.148 0c0 .872.703 1.579 1.574 1.579.867 0 1.574-.707 1.574-1.578Zm0 0"/></svg>