<svg xmlns="http://www.w3.org/2000/svg" xmlns:xlink="http://www.w3.org/1999/xlink" width="226.77" height="20.639"><defs><path id="a" d="M4.406-1.969c0-1.172-.812-2.14-1.875-2.14-.469 0-.89.156-1.234.5v-1.922c.187.062.516.14.828.14 1.203 0 1.89-.906 1.89-1.03 0-.048-.03-.11-.093-.11-.016 0-.031 0-.078.031a3.167 3.167 0 0 1-1.328.281c-.407 0-.844-.062-1.313-.265-.078-.032-.094-.032-.11-.032-.109 0-.109.079-.109.235v2.906c0 .172 0 .25.141.25.063 0 .094-.031.125-.094.11-.156.469-.687 1.266-.687.515 0 .75.453.828.64.156.36.187.735.187 1.235 0 .344 0 .922-.234 1.328-.235.39-.61.64-1.047.64-.719 0-1.281-.515-1.453-1.093.031.015.062.015.172.015a.455.455 0 0 0 .484-.468c0-.25-.156-.485-.484-.485-.14 0-.485.063-.485.516 0 .844.688 1.797 1.782 1.797 1.14 0 2.14-.938 2.14-2.188m0 0"/><path id="c" d="M2.875-1.61v.844c0 .36-.016.47-.734.47h-.203V0c.39-.031.906-.031 1.312-.031s.938 0 1.328.031v-.297h-.203c-.719 0-.734-.11-.734-.469v-.843h.968v-.313h-.968v-4.453c0-.203 0-.25-.157-.25-.093 0-.125 0-.203.11l-3 4.593v.313Zm.063-.312H.547l2.39-3.656Zm0 0"/><path id="d" d="M6.078-5.734c.14-.36.406-.641 1.078-.657v-.296a22.29 22.29 0 0 1-.953.03c-.297 0-.86-.03-1.125-.03v.296c.516.016.719.266.719.5 0 .079-.031.125-.047.188L3.953-.984l-1.86-4.938c-.062-.14-.062-.156-.062-.187 0-.282.563-.282.797-.282v-.296c-.344.03-1.031.03-1.39.03-.485 0-.907-.03-1.25-.03v.296c.64 0 .828 0 .953.375L3.42 0c.063.188.11.219.235.219.172 0 .188-.047.25-.188Zm0 0"/><path id="g" d="M4.656-5.969c.094-.11.094-.14.094-.343H2.375c-1.203 0-1.219-.125-1.266-.313H.875L.547-4.609h.25c.031-.157.11-.766.234-.891.078-.062.844-.062.969-.062h2.031c-.11.171-.89 1.234-1.11 1.562C2.048-2.687 1.72-1.328 1.72-.328c0 .11 0 .547.453.547s.453-.438.453-.547v-.5c0-.531.031-1.078.11-1.594.03-.234.171-1.078.609-1.687Zm0 0"/><path id="b" d="M1.984-.016c0-.64-.234-1.015-.625-1.015-.328 0-.515.234-.515.515A.5.5 0 0 0 1.359 0c.125 0 .25-.047.344-.125.031-.016.047-.031.047-.031.016 0 .016.015.016.14 0 .735-.328 1.313-.657 1.641C1 1.735 1 1.75 1 1.781c0 .078.047.11.094.11.11 0 .89-.75.89-1.907m0 0"/><clipPath id="e"><path d="M92 0h39v20.285H92Zm0 0"/></clipPath><clipPath id="f"><path d="M103 0h2v20.285h-2Zm0 0"/></clipPath></defs><use xlink:href="#a" x="11.919" y="12.536"/><use xlink:href="#b" x="16.815" y="12.536"/><use xlink:href="#c" x="19.535" y="12.536"/><use xlink:href="#d" x="26.056" y="12.536"/><path fill="none" stroke="#000" stroke-miterlimit="10" stroke-width=".39214119000000003" d="M43.82 10.14h60.024m15.601 0h60.02"/><g clip-path="url(#e)"><path fill="none" stroke="#000" stroke-miterlimit="10" stroke-width=".7832995700000001" d="M103.844 10.14 119.445.39v19.5Zm0 0"/></g><path fill="none" stroke="#000" stroke-miterlimit="10" stroke-width=".39214119000000003" d="M103.844 10.14h15.601"/><g clip-path="url(#f)"><path fill="none" stroke="#000" stroke-miterlimit="10" stroke-width=".7832995700000001" d="M103.844 19.89V.39"/></g><use xlink:href="#c" x="189.741" y="12.536"/><use xlink:href="#b" x="194.638" y="12.536"/><use xlink:href="#g" x="197.357" y="12.536"/><use xlink:href="#d" x="203.878" y="12.536"/></svg>