<svg xmlns="http://www.w3.org/2000/svg" xmlns:xlink="http://www.w3.org/1999/xlink" width="221.916" height="107.512"><defs><path id="c" d="M3.719-6.094c.062-.234.094-.328.281-.36.094-.015.406-.015.61-.015.702 0 1.796 0 1.796.985 0 .328-.156 1.015-.547 1.406-.25.266-.78.578-1.671.578h-1.11Zm1.437 2.719c1-.219 2.172-.906 2.172-1.906 0-.86-.89-1.5-2.187-1.5H2.313c-.204 0-.282 0-.282.203 0 .11.078.11.266.11.031 0 .219 0 .375.015.187.031.281.031.281.156 0 .047-.015.078-.047.188L1.578-.781c-.094.39-.125.469-.906.469-.172 0-.266 0-.266.203C.406 0 .531 0 .546 0c.282 0 .97-.031 1.25-.031.282 0 .985.031 1.267.031.078 0 .187 0 .187-.203 0-.11-.078-.11-.281-.11-.36 0-.64 0-.64-.171 0-.063.015-.11.03-.172l.657-2.625h1.187c.89 0 1.078.547 1.078.906 0 .14-.078.453-.14.672-.079.281-.157.656-.157.844C4.984.219 6.172.219 6.297.219c.844 0 1.187-1 1.187-1.14 0-.126-.109-.126-.109-.126-.094 0-.11.078-.125.14C7-.171 6.563 0 6.344 0c-.328 0-.407-.219-.407-.61 0-.296.063-.812.11-1.124.016-.141.031-.328.031-.47 0-.765-.656-1.077-.922-1.171m0 0"/><path id="g" d="M2.016-.016c0-.656-.25-1.03-.641-1.03a.5.5 0 0 0-.516.515c0 .265.188.531.516.531.125 0 .25-.047.344-.125.031-.031.047-.031.062-.031 0 0 .016 0 .016.14 0 .735-.344 1.329-.672 1.657-.11.109-.11.14-.11.172 0 .062.048.109.094.109.11 0 .907-.766.907-1.938m0 0"/><path id="j" d="M3.703-6.016c.094-.359.125-.453.906-.453.25 0 .329 0 .329-.187 0-.125-.11-.125-.157-.125-.281 0-1.015.031-1.312.031-.297 0-1.016-.031-1.313-.031-.078 0-.203 0-.203.203 0 .11.094.11.281.11.422 0 .688 0 .688.187 0 .047 0 .062-.031.156L1.563-.781c-.094.375-.125.469-.907.469-.234 0-.312 0-.312.203 0 .109.11.109.14.109C.781 0 1.5-.031 1.781-.031 2.078-.031 2.813 0 3.11 0c.079 0 .204 0 .204-.187 0-.125-.079-.125-.297-.125-.172 0-.235 0-.422-.016-.219-.016-.25-.063-.25-.172 0-.078.015-.156.031-.219Zm0 0"/><path id="d" d="M4.844-4.031c.093-.219.25-.453.781-.453v-.25a9.664 9.664 0 0 1-.672.03c-.281 0-.797-.03-.828-.03v.25c.25 0 .469.109.469.328 0 .047-.016.093-.032.14L3.125-.672l-1.5-3.515c-.031-.079-.031-.094-.031-.11 0-.187.36-.187.547-.187v-.25c-.344.015-.797.03-1.032.03-.359 0-.875-.03-.89-.03v.25h.11c.374 0 .5.03.593.25L2.719-.016c.047.11.062.157.203.157.062 0 .14 0 .203-.141Zm0 0"/><path id="k" d="M4.25-4.453c.063-.078.063-.11.063-.156 0-.125-.063-.125-.204-.125H.672L.594-3.141h.234c.063-1.03.547-1.343 1.469-1.343h1.219L.546-.297C.485-.219.485-.203.485-.14.484 0 .547 0 .688 0h3.546l.125-1.89h-.234C4.063-.97 3.938-.282 2.578-.282H1.281Zm0 0"/><path id="l" d="M4.516-1.828H4.28c-.078.687-.187 1.578-1.5 1.578h-.687c-.328 0-.328-.062-.328-.266v-3.656c0-.219 0-.312.656-.312h.234v-.25c-.14 0-1.031.03-1.219.03-.265 0-1.046-.03-1.046-.03v.25h.172c.53 0 .546.062.546.312v3.61c0 .234-.015.312-.546.312H.39V0h3.922Zm0 0"/><path id="f" d="M2.922-1.64v.859c0 .36-.031.469-.766.469h-.203V0c.406-.031.922-.031 1.344-.031.406 0 .937 0 1.344.031v-.312h-.203c-.735 0-.75-.11-.75-.47v-.859h.984v-.296h-.984v-4.516c0-.203 0-.266-.172-.266-.079 0-.11 0-.188.125L.281-1.937v.296Zm.047-.298H.563L2.969-5.64Zm0 0"/><path id="h" d="M4.719-6.047c.093-.11.093-.14.093-.344H2.407c-1.219 0-1.234-.125-1.281-.312H.891L.563-4.656h.234c.031-.172.125-.797.25-.907.078-.062.844-.062.984-.062h2.047c-.11.156-.89 1.234-1.11 1.563C2.079-2.72 1.75-1.344 1.75-.328c0 .094 0 .547.453.547s.453-.453.453-.547v-.5c0-.547.031-1.094.11-1.625.046-.235.187-1.094.625-1.703Zm0 0"/><path id="i" d="M6.156-5.797c.14-.375.407-.656 1.094-.672v-.312c-.312.031-.719.031-.969.031-.297 0-.875-.016-1.125-.031v.312c.516.016.719.266.719.5 0 .078-.031.14-.047.188L4.016-.984 2.109-6c-.062-.14-.062-.156-.062-.187 0-.282.578-.282.828-.282v-.312c-.36.031-1.047.031-1.422.031-.484 0-.906-.016-1.265-.031v.312c.64 0 .828 0 .968.375L3.47 0c.062.188.11.219.234.219.172 0 .203-.047.25-.188Zm0 0"/><path id="o" d="M2.922-6.344c0-.25 0-.265-.235-.265-.609.64-1.484.64-1.796.64v.297c.187 0 .78 0 1.297-.25v5.14c0 .36-.032.47-.922.47H.938V0c.359-.031 1.218-.031 1.609-.031.406 0 1.265 0 1.61.031v-.312h-.313c-.89 0-.922-.11-.922-.47Zm0 0"/><path id="p" d="M2.875-3.5c.813-.266 1.39-.953 1.39-1.734 0-.813-.874-1.375-1.827-1.375-1 0-1.75.593-1.75 1.343 0 .329.218.516.5.516.312 0 .515-.203.515-.5 0-.5-.469-.5-.625-.5.313-.484.969-.61 1.328-.61.406 0 .953.22.953 1.11 0 .125-.03.703-.28 1.125-.298.484-.642.516-.892.516a3.306 3.306 0 0 1-.374.03c-.094.017-.157.032-.157.126 0 .11.063.11.235.11h.437c.813 0 1.188.671 1.188 1.64 0 1.36-.688 1.64-1.125 1.64-.422 0-1.172-.171-1.516-.75.344.047.656-.171.656-.546 0-.36-.265-.563-.562-.563-.235 0-.547.14-.547.578 0 .907.922 1.563 2 1.563 1.203 0 2.11-.906 2.11-1.922 0-.813-.626-1.578-1.657-1.797m0 0"/><path id="q" d="M1.625-4.531c-.469-.297-.5-.64-.5-.813 0-.593.64-1.015 1.344-1.015.719 0 1.36.515 1.36 1.234 0 .563-.392 1.031-.985 1.39Zm1.438.937c.718-.36 1.203-.875 1.203-1.531 0-.922-.875-1.484-1.782-1.484-1 0-1.796.734-1.796 1.656 0 .187.015.625.437 1.094.11.125.469.359.719.53C1.266-3.03.422-2.483.422-1.5c0 1.047 1 1.719 2.047 1.719 1.125 0 2.062-.828 2.062-1.89 0-.36-.11-.798-.484-1.22-.188-.203-.344-.296-.984-.703m-.985.422 1.219.766c.281.187.734.484.734 1.094 0 .734-.734 1.25-1.547 1.25C1.625-.062.906-.672.906-1.5c0-.578.328-1.203 1.172-1.672m0 0"/><path id="r" d="M4.563-3.172c0-.797-.047-1.594-.391-2.328-.469-.953-1.281-1.11-1.688-1.11-.593 0-1.328.266-1.734 1.188-.312.672-.36 1.453-.36 2.25 0 .735.032 1.64.438 2.39.438.798 1.156 1 1.64 1C3 .219 3.767.017 4.204-.936c.313-.688.36-1.454.36-2.235M2.469 0c-.39 0-.969-.25-1.156-1.203-.11-.594-.11-1.5-.11-2.094 0-.625 0-1.281.094-1.828.187-1.172.922-1.266 1.172-1.266.328 0 .984.172 1.172 1.157.093.562.093 1.312.093 1.937 0 .75 0 1.422-.109 2.063C3.485-.297 2.922 0 2.469 0m0 0"/><path id="n" d="M7.156-2.484c0-.188-.187-.188-.328-.188H4.062v-2.781c0-.14 0-.328-.203-.328s-.203.187-.203.328v2.781H.891c-.141 0-.328 0-.328.188 0 .203.187.203.328.203h2.765V.5c0 .14 0 .328.203.328.204 0 .204-.187.204-.328v-2.781h2.765c.14 0 .328 0 .328-.203m0 0"/><clipPath id="a"><path d="M34 93h16v14.027H34Zm0 0"/></clipPath><clipPath id="b"><path d="M173 93h16v14.027h-16Zm0 0"/></clipPath><clipPath id="e"><path d="M127 93h15v14.027h-15Zm0 0"/></clipPath><clipPath id="m"><path d="M173 93h16v14.027h-16Zm0 0"/></clipPath></defs><path fill="none" stroke="#000" stroke-miterlimit="10" stroke-width=".39719652000000005" d="M41.844 100.332h46.34m0 0h69.507m0 0h23.168"/><path fill="#FFF" d="M43.426 100.332a1.58 1.58 0 1 0-3.16.003 1.58 1.58 0 0 0 3.16-.003m0 0"/><g clip-path="url(#a)"><path fill="none" stroke="#000" stroke-miterlimit="10" stroke-width=".39719652000000005" d="M43.426 100.332a1.58 1.58 0 1 0-3.16.003 1.58 1.58 0 0 0 3.16-.003Zm0 0"/></g><path fill="#FFF" d="M182.438 100.332a1.58 1.58 0 1 0-3.161.003 1.58 1.58 0 0 0 3.16-.003m0 0"/><g clip-path="url(#b)"><path fill="none" stroke="#000" stroke-miterlimit="10" stroke-width=".39719652000000005" d="M182.437 100.332a1.58 1.58 0 1 0-3.161.003 1.58 1.58 0 0 0 3.161-.003Zm0 0"/></g><path fill="none" stroke="#000" stroke-miterlimit="10" stroke-width=".39719652000000005" d="M41.844 7.656h30.539m31.601 0h53.707m0 0h23.168"/><path fill="none" stroke="#000" stroke-miterlimit="10" stroke-width=".7933975600000001" d="M72.383 1.73h31.601v11.852H72.383Zm0 0"/><path fill="#FFF" stroke="#000" stroke-miterlimit="10" stroke-width=".39719652000000005" d="M43.426 7.656a1.58 1.58 0 1 0-3.16.003 1.58 1.58 0 0 0 3.16-.003Zm0 0"/><use xlink:href="#c" x="81.189" y="24.111"/><use xlink:href="#d" x="88.719" y="25.598"/><path fill="#FFF" stroke="#000" stroke-miterlimit="10" stroke-width=".39719652000000005" d="M182.437 7.656a1.58 1.58 0 1 0-3.161.003 1.58 1.58 0 0 0 3.161-.003Zm0 0"/><path fill="none" stroke="#000" stroke-miterlimit="10" stroke-width=".39719652000000005" d="M134.52 100.332V61.895m14.027-33.786v51.77m-14.028-33.785V7.656"/><path fill="none" stroke="#000" stroke-miterlimit="10" stroke-width=".7933975600000001" d="m134.52 46.094 9.878 15.8h-19.754Zm0 0"/><path fill="none" stroke="#000" stroke-miterlimit="10" stroke-width=".39719652000000005" d="M134.52 46.094v15.8"/><path fill="none" stroke="#000" stroke-miterlimit="10" stroke-width=".7933975600000001" d="M124.644 46.094h19.754v3.16"/><path d="M136.102 100.332a1.58 1.58 0 1 0-3.16.003 1.58 1.58 0 0 0 3.16-.003m0 0"/><g clip-path="url(#e)"><path fill="none" stroke="#000" stroke-miterlimit="10" stroke-width=".39719652000000005" d="M136.102 100.332a1.58 1.58 0 1 0-3.16.003 1.58 1.58 0 0 0 3.16-.003Zm0 0"/></g><path stroke="#000" stroke-miterlimit="10" stroke-width=".39719652000000005" d="M136.102 7.656a1.58 1.58 0 1 0-3.16.003 1.58 1.58 0 0 0 3.16-.003ZM148.547 75.684h-1.977l1.977 4.195 1.972-4.195Zm0 0"/><use xlink:href="#f" x="150.726" y="56.419"/><use xlink:href="#g" x="155.685" y="56.419"/><use xlink:href="#h" x="158.439" y="56.419"/><use xlink:href="#i" x="165.045" y="56.419"/><path stroke="#000" stroke-miterlimit="10" stroke-width=".39719652000000005" d="M134.52 25.148h-1.973l1.972 4.196 1.977-4.196Zm0 0"/><use xlink:href="#j" x="121.353" y="29.521"/><use xlink:href="#k" x="125.713" y="31.008"/><path fill="none" stroke="#000" stroke-miterlimit="10" stroke-width=".39719652000000005" d="M180.86 7.656h15.445m0 0h15.445v30.535m0 31.606v30.535h-15.445m0 0h-15.446"/><path fill="#FFF" stroke="#000" stroke-miterlimit="10" stroke-width=".39719652000000005" d="M182.437 7.656a1.58 1.58 0 1 0-3.161.003 1.58 1.58 0 0 0 3.161-.003Zm0 0"/><path fill="none" stroke="#000" stroke-miterlimit="10" stroke-width=".7933975600000001" d="M205.824 69.797V38.19h11.852v31.606Zm0 0"/><use xlink:href="#c" x="190.697" y="56.132"/><use xlink:href="#l" x="198.227" y="57.619"/><path stroke="#000" stroke-miterlimit="10" stroke-width=".39719652000000005" d="M211.75 21.195h-1.977l1.977 4.2 1.976-4.2Zm0 0"/><use xlink:href="#j" x="198.485" y="25.57"/><use xlink:href="#l" x="202.845" y="27.057"/><path fill="#FFF" d="M182.438 100.332a1.58 1.58 0 1 0-3.161.003 1.58 1.58 0 0 0 3.16-.003m0 0"/><g clip-path="url(#m)"><path fill="none" stroke="#000" stroke-miterlimit="10" stroke-width=".39719652000000005" d="M182.437 100.332a1.58 1.58 0 1 0-3.161.003 1.58 1.58 0 0 0 3.161-.003Zm0 0"/></g><use xlink:href="#n" x="3.766" y="10.082"/><use xlink:href="#o" x="11.481" y="10.082"/><use xlink:href="#p" x="16.439" y="10.082"/><use xlink:href="#g" x="21.399" y="10.082"/><use xlink:href="#q" x="24.154" y="10.082"/><use xlink:href="#i" x="30.759" y="10.082"/><use xlink:href="#r" x="24.154" y="103.72"/><use xlink:href="#i" x="30.759" y="103.72"/></svg>