<svg xmlns="http://www.w3.org/2000/svg" xmlns:xlink="http://www.w3.org/1999/xlink" width="217.439" height="110.22"><defs><path id="c" d="M3.703-6.078c.063-.234.094-.328.281-.36.094-.015.407-.015.61-.015.703 0 1.797 0 1.797.984 0 .328-.157 1.016-.547 1.407-.25.25-.782.578-1.672.578h-1.11ZM5.141-3.36c.984-.22 2.172-.907 2.172-1.907 0-.859-.891-1.484-2.188-1.484H2.297c-.188 0-.281 0-.281.188 0 .109.093.109.28.109.017 0 .204 0 .376.031.172.016.265.016.265.156 0 .032-.015.063-.046.188L1.578-.766c-.11.375-.125.454-.906.454-.172 0-.266 0-.266.203C.406 0 .531 0 .546 0c.282 0 .97-.031 1.25-.031.266 0 .97.031 1.25.031.079 0 .204 0 .204-.203 0-.11-.094-.11-.281-.11-.375 0-.64 0-.64-.171 0-.063.015-.11.03-.172L3-3.281h1.188c.89 0 1.078.562 1.078.906 0 .156-.079.453-.141.688-.078.265-.156.64-.156.843C4.969.22 6.156.22 6.28.22c.844 0 1.188-1 1.188-1.14 0-.11-.11-.11-.125-.11-.078 0-.11.062-.125.125-.25.734-.672.906-.907.906-.312 0-.39-.219-.39-.61 0-.296.062-.812.094-1.124.03-.141.046-.328.046-.47 0-.75-.656-1.062-.921-1.155m0 0"/><path id="f" d="M3.703-6c.078-.344.11-.453.89-.453.25 0 .329 0 .329-.188 0-.109-.11-.109-.156-.109-.282 0-1.016.031-1.297.031-.297 0-1.031-.031-1.328-.031-.063 0-.188 0-.188.188 0 .109.078.109.266.109.422 0 .687 0 .687.187 0 .047 0 .079-.015.157L1.547-.766c-.078.36-.11.454-.89.454-.235 0-.313 0-.313.203 0 .109.11.109.14.109C.766 0 1.5-.031 1.781-.031 2.078-.031 2.813 0 3.11 0c.079 0 .188 0 .188-.187 0-.125-.078-.125-.297-.125-.172 0-.219 0-.422-.016-.203-.016-.25-.063-.25-.172 0-.078.031-.156.047-.219Zm0 0"/><path id="k" d="M2-.016c0-.64-.234-1.03-.625-1.03a.514.514 0 0 0-.531.515c0 .281.203.531.531.531.125 0 .25-.047.344-.125.031-.016.047-.031.047-.031.015 0 .03.015.03.14 0 .735-.359 1.329-.671 1.657-.11.109-.11.125-.11.156 0 .078.048.11.094.11.11 0 .891-.766.891-1.923m0 0"/><path id="p" d="M6.281-5.719c.094-.406.282-.703 1.063-.734.047 0 .172 0 .172-.188 0-.015 0-.109-.125-.109-.328 0-.672.031-1.016.031-.328 0-.703-.031-1.031-.031-.047 0-.172 0-.172.188 0 .109.094.109.172.109.578.016.672.219.672.437 0 .032-.016.188-.016.204l-.89 3.53C4.765-.952 3.624-.093 2.64-.093c-.671 0-1.203-.437-1.203-1.281 0-.016 0-.344.11-.766L2.5-6c.094-.344.11-.453.828-.453.266 0 .344 0 .344-.188 0-.109-.11-.109-.14-.109-.282 0-.985.031-1.266.031-.282 0-.985-.031-1.282-.031-.078 0-.187 0-.187.188 0 .109.094.109.281.109.016 0 .203 0 .375.031.172.016.266.016.266.156 0 .047-.11.47-.172.704l-.219.859C1.25-4.313.766-2.437.734-2.25c-.078.266-.078.422-.078.563C.656-.47 1.563.218 2.594.218c1.25 0 2.484-1.125 2.812-2.422Zm0 0"/><path id="d" d="M4.828-4.016c.094-.218.266-.453.781-.468v-.25c-.203.03-.468.03-.671.03-.266 0-.782-.03-.829-.03v.25c.266 0 .485.109.485.328A.35.35 0 0 1 4.547-4L3.125-.672l-1.5-3.5c-.047-.078-.047-.094-.047-.125 0-.187.36-.187.547-.187v-.25a27.64 27.64 0 0 1-1.031.03c-.344 0-.86-.03-.875-.03v.25h.11c.374 0 .5.046.577.25L2.72-.016c.047.11.062.157.203.157.062 0 .125 0 .187-.141Zm0 0"/><path id="g" d="M4.25-4.437c.047-.079.047-.11.047-.157 0-.14-.063-.14-.188-.14H.672L.594-3.141h.234c.063-1.03.547-1.343 1.469-1.343h1.219L.546-.297C.485-.219.485-.203.485-.14.484 0 .547 0 .672 0h3.547l.125-1.89h-.235C4.047-.97 3.922-.282 2.563-.282H1.28Zm0 0"/><path id="q" d="M2.313-4.406c0-.188 0-.188-.204-.188-.437.438-1.078.438-1.359.438v.25c.172 0 .625 0 1.016-.188v3.532c0 .218 0 .312-.703.312H.797V0C.922 0 1.78-.031 2.03-.031c.219 0 1.094.031 1.25.031v-.25h-.265c-.703 0-.703-.094-.703-.312Zm0 0"/><path id="h" d="M7.125-2.469c0-.203-.187-.203-.312-.203H4.047v-2.765c0-.141 0-.329-.203-.329-.188 0-.188.188-.188.329v2.765H.875c-.14 0-.328 0-.328.203 0 .188.187.188.328.188h2.781V.5c0 .14 0 .328.188.328.203 0 .203-.187.203-.328v-2.781h2.766c.125 0 .312 0 .312-.188m0 0"/><path id="i" d="M2.906-6.328c0-.234 0-.266-.219-.266-.624.64-1.484.64-1.812.64v.313c.203 0 .781 0 1.297-.265v5.125c0 .36-.031.469-.922.469H.938V0C1.28-.031 2.14-.031 2.547-.031c.39 0 1.25 0 1.594.031v-.312h-.313c-.89 0-.922-.11-.922-.47Zm0 0"/><path id="j" d="M2.875-3.484C3.672-3.75 4.25-4.437 4.25-5.22c0-.812-.875-1.375-1.812-1.375-1 0-1.75.594-1.75 1.36 0 .312.218.5.5.5.312 0 .5-.203.5-.5 0-.5-.47-.5-.61-.5.313-.485.953-.61 1.313-.61.406 0 .953.219.953 1.11 0 .125-.016.687-.281 1.125-.297.484-.626.515-.876.515a3.29 3.29 0 0 1-.39.031c-.078.016-.14.016-.14.126 0 .109.062.109.234.109h.437c.813 0 1.172.672 1.172 1.64 0 1.344-.687 1.626-1.11 1.626-.437 0-1.171-.172-1.515-.75.344.046.64-.172.64-.547 0-.36-.265-.547-.546-.547-.235 0-.547.14-.547.578 0 .89.906 1.547 1.984 1.547 1.219 0 2.11-.906 2.11-1.906 0-.813-.625-1.594-1.641-1.797m0 0"/><path id="l" d="M1.61-4.516c-.454-.296-.485-.64-.485-.812 0-.594.64-1.016 1.344-1.016.719 0 1.344.516 1.344 1.235 0 .562-.376 1.03-.97 1.375Zm1.453.938c.703-.375 1.187-.875 1.187-1.531 0-.907-.875-1.485-1.781-1.485-.985 0-1.781.735-1.781 1.657 0 .187.015.625.437 1.093.094.11.469.36.719.531C1.266-3.03.422-2.468.422-1.5c0 1.063 1 1.719 2.047 1.719 1.11 0 2.047-.828 2.047-1.875 0-.36-.11-.813-.485-1.219-.187-.203-.343-.312-.968-.703m-1 .406 1.218.781c.281.188.75.485.75 1.079 0 .734-.75 1.25-1.562 1.25C1.625-.062.906-.672.906-1.5c0-.562.313-1.203 1.156-1.672m0 0"/><path id="m" d="M6.14-5.781c.141-.375.407-.657 1.079-.672v-.297a22.29 22.29 0 0 1-.953.031c-.297 0-.875-.031-1.125-.031v.297c.5.016.718.266.718.5 0 .078-.03.14-.046.203L4-.984l-1.89-5c-.063-.141-.063-.157-.063-.172 0-.297.562-.297.812-.297v-.297c-.359.031-1.046.031-1.421.031-.47 0-.891-.031-1.25-.031v.297c.64 0 .828 0 .968.375L3.453 0c.063.188.125.219.25.219.172 0 .188-.047.235-.188Zm0 0"/><path id="n" d="M4.547-3.172c0-.781-.047-1.578-.39-2.312-.454-.938-1.266-1.11-1.688-1.11-.594 0-1.313.266-1.719 1.188-.312.672-.36 1.453-.36 2.234 0 .75.032 1.64.438 2.39a1.83 1.83 0 0 0 1.64 1C3 .219 3.75.017 4.189-.936c.312-.672.359-1.454.359-2.235M2.469 0c-.39 0-.969-.25-1.156-1.203-.11-.594-.11-1.5-.11-2.078 0-.64 0-1.281.078-1.828.188-1.172.938-1.266 1.188-1.266.328 0 .969.188 1.156 1.156.11.563.11 1.313.11 1.938 0 .734 0 1.406-.11 2.047C3.469-.297 2.906 0 2.469 0m0 0"/><path id="o" d="M4.438-1.984c0-1.188-.813-2.172-1.875-2.172-.47 0-.907.156-1.25.5v-1.922c.187.062.515.125.828.125 1.218 0 1.922-.89 1.922-1.031 0-.047-.032-.11-.11-.11 0 0-.031 0-.078.032a3.198 3.198 0 0 1-1.344.296c-.39 0-.844-.078-1.312-.28-.078-.032-.094-.032-.125-.032C1-6.578 1-6.5 1-6.344v2.938c0 .172 0 .25.14.25.063 0 .079-.031.126-.094.109-.156.468-.687 1.28-.687.517 0 .75.453.829.64.172.36.188.75.188 1.235 0 .343 0 .937-.235 1.359-.25.39-.61.64-1.062.64-.72 0-1.282-.515-1.453-1.109.03.016.062.031.171.031.329 0 .485-.25.485-.484 0-.25-.157-.484-.485-.484-.14 0-.484.062-.484.515C.5-.734 1.172.22 2.281.22c1.156 0 2.157-.953 2.157-2.203m0 0"/><clipPath id="a"><path d="M34 95h15v14.445H34Zm0 0"/></clipPath><clipPath id="b"><path d="M177 95h15v14.445h-15Zm0 0"/></clipPath><clipPath id="e"><path d="M129 95h16v14.445h-16Zm0 0"/></clipPath></defs><path fill="none" stroke="#000" stroke-miterlimit="10" stroke-width=".39619503" d="M41.766 102.77h47.566m0 0h71.348m0 0h23.785"/><path fill="#FFF" d="M43.344 102.77c0-.872-.707-1.579-1.578-1.579-.868 0-1.575.707-1.575 1.579 0 .87.707 1.574 1.575 1.574.87 0 1.578-.703 1.578-1.574m0 0"/><g clip-path="url(#a)"><path fill="none" stroke="#000" stroke-miterlimit="10" stroke-width=".39619503" d="M43.344 102.77c0-.872-.707-1.579-1.578-1.579-.868 0-1.575.707-1.575 1.579 0 .87.707 1.574 1.575 1.574.87 0 1.578-.703 1.578-1.574Zm0 0"/></g><path fill="#FFF" d="M186.04 102.77a1.575 1.575 0 1 0-3.153 0c0 .87.707 1.574 1.578 1.574.87 0 1.574-.703 1.574-1.574m0 0"/><g clip-path="url(#b)"><path fill="none" stroke="#000" stroke-miterlimit="10" stroke-width=".39619503" d="M186.04 102.77a1.575 1.575 0 1 0-3.153 0c0 .87.707 1.574 1.578 1.574.87 0 1.574-.703 1.574-1.574Zm0 0"/></g><path fill="none" stroke="#000" stroke-miterlimit="10" stroke-width=".39619503" d="M41.766 7.637H73.57m31.524 0h55.586m0 0h23.785"/><path fill="none" stroke="#000" stroke-miterlimit="10" stroke-width=".79139709" d="M73.57 1.727h31.524V13.55H73.57Zm0 0"/><path fill="#FFF" stroke="#000" stroke-miterlimit="10" stroke-width=".39619503" d="M43.344 7.637a1.575 1.575 0 1 0-3.151.002 1.575 1.575 0 0 0 3.15-.002Zm0 0"/><use xlink:href="#c" x="82.356" y="24.05"/><use xlink:href="#d" x="89.867" y="25.533"/><path fill="#FFF" stroke="#000" stroke-miterlimit="10" stroke-width=".39619503" d="M186.04 7.637c0-.871-.704-1.575-1.575-1.575a1.575 1.575 0 1 0 0 3.153c.87 0 1.574-.707 1.574-1.578Zm0 0"/><path fill="none" stroke="#000" stroke-miterlimit="10" stroke-width=".39619503" d="M136.898 102.77V63.086m0-15.766V7.637"/><path fill="none" stroke="#000" stroke-miterlimit="10" stroke-width=".79139709" d="m136.898 47.32 9.852 15.766h-19.703Zm0 0"/><path fill="none" stroke="#000" stroke-miterlimit="10" stroke-width=".39619503" d="M136.898 47.32v15.766"/><path fill="none" stroke="#000" stroke-miterlimit="10" stroke-width=".79139709" d="M127.047 47.32h19.703v3.153"/><path d="M138.473 102.77a1.575 1.575 0 1 0-3.153 0c0 .87.707 1.574 1.578 1.574.872 0 1.575-.703 1.575-1.574m0 0"/><g clip-path="url(#e)"><path fill="none" stroke="#000" stroke-miterlimit="10" stroke-width=".39619503" d="M138.473 102.77a1.575 1.575 0 1 0-3.153 0c0 .87.707 1.574 1.578 1.574.872 0 1.575-.703 1.575-1.574Zm0 0"/></g><path stroke="#000" stroke-miterlimit="10" stroke-width=".39619503" d="M138.473 7.637c0-.871-.703-1.575-1.575-1.575a1.575 1.575 0 1 0 0 3.153c.872 0 1.575-.707 1.575-1.578ZM136.898 25.758h-1.968l1.968 4.183 1.97-4.183Zm0 0"/><use xlink:href="#f" x="123.763" y="30.119"/><use xlink:href="#g" x="128.112" y="31.602"/><use xlink:href="#h" x="3.783" y="10.057"/><use xlink:href="#i" x="11.479" y="10.057"/><use xlink:href="#j" x="16.425" y="10.057"/><use xlink:href="#k" x="21.372" y="10.057"/><use xlink:href="#l" x="24.12" y="10.057"/><use xlink:href="#m" x="30.709" y="10.057"/><use xlink:href="#n" x="24.12" y="106.148"/><use xlink:href="#m" x="30.709" y="106.148"/><use xlink:href="#h" x="187.957" y="10.608"/><use xlink:href="#o" x="195.653" y="10.608"/><use xlink:href="#m" x="202.242" y="10.608"/><path fill="none" stroke="#000" stroke-miterlimit="10" stroke-width=".39619503" d="M41.766 21.86v66.687"/><path stroke="#000" stroke-miterlimit="10" stroke-width=".39619503" d="M41.766 84.363h-1.97l1.97 4.184 1.972-4.184Zm0 0"/><use xlink:href="#p" x="27.019" y="57.842"/><use xlink:href="#q" x="33.773" y="59.325"/><path fill="none" stroke="#000" stroke-miterlimit="10" stroke-width=".39619503" d="M184.465 21.86v66.687"/><path stroke="#000" stroke-miterlimit="10" stroke-width=".39619503" d="M184.465 84.363h-1.973l1.973 4.184 1.969-4.184Zm0 0"/><use xlink:href="#p" x="188.017" y="57.842"/><use xlink:href="#g" x="194.773" y="59.325"/></svg>