<svg xmlns="http://www.w3.org/2000/svg" xmlns:xlink="http://www.w3.org/1999/xlink" width="217.439" height="110.22"><defs><path id="a" d="M4.547-3.172c0-.781-.047-1.578-.39-2.312-.454-.938-1.266-1.11-1.688-1.11-.594 0-1.313.266-1.719 1.188-.312.672-.36 1.453-.36 2.234 0 .75.032 1.64.438 2.39a1.83 1.83 0 0 0 1.64 1C3 .219 3.75.017 4.189-.936c.312-.672.359-1.454.359-2.235M2.469 0c-.39 0-.969-.25-1.156-1.203-.11-.594-.11-1.5-.11-2.078 0-.64 0-1.281.078-1.828.188-1.172.938-1.266 1.188-1.266.328 0 .969.188 1.156 1.156.11.563.11 1.313.11 1.938 0 .734 0 1.406-.11 2.047C3.469-.297 2.906 0 2.469 0m0 0"/><path id="b" d="M6.14-5.781c.141-.375.407-.657 1.079-.672v-.297a22.29 22.29 0 0 1-.953.031c-.297 0-.875-.031-1.125-.031v.297c.5.016.718.266.718.5 0 .078-.03.14-.046.203L4-.984l-1.89-5c-.063-.141-.063-.157-.063-.172 0-.297.562-.297.812-.297v-.297c-.359.031-1.046.031-1.421.031-.47 0-.891-.031-1.25-.031v.297c.64 0 .828 0 .968.375L3.453 0c.063.188.125.219.25.219.172 0 .188-.047.235-.188Zm0 0"/><path id="f" d="M2.906-6.328c0-.234 0-.266-.219-.266-.624.64-1.484.64-1.812.64v.313c.203 0 .781 0 1.297-.265v5.125c0 .36-.031.469-.922.469H.938V0C1.28-.031 2.14-.031 2.547-.031c.39 0 1.25 0 1.594.031v-.312h-.313c-.89 0-.922-.11-.922-.47Zm0 0"/><path id="g" d="M1.25-.766 2.297-1.78c1.547-1.36 2.14-1.89 2.14-2.89 0-1.126-.89-1.923-2.093-1.923A1.826 1.826 0 0 0 .5-4.797c0 .547.484.547.516.547.172 0 .515-.11.515-.516 0-.265-.172-.515-.515-.515-.079 0-.11 0-.141.015.234-.656.766-1.015 1.344-1.015.89 0 1.328.797 1.328 1.61 0 .796-.5 1.577-1.047 2.187L.61-.36C.5-.25.5-.234.5 0h3.656l.282-1.719h-.25c-.047.297-.11.735-.22.875-.062.078-.718.078-.937.078Zm0 0"/><path id="h" d="M2.906-1.625v.86c0 .343-.015.453-.75.453h-.203V0c.406-.031.922-.031 1.328-.031.422 0 .938 0 1.344.031v-.312h-.203c-.734 0-.75-.11-.75-.454v-.859h.984v-.312h-.984v-4.5c0-.204 0-.266-.156-.266-.094 0-.125 0-.203.125L.28-1.938v.313Zm.063-.312H.547l2.422-3.688Zm0 0"/><path id="j" d="M4.703-6.016c.094-.125.094-.14.094-.359H2.39c-1.203 0-1.22-.125-1.266-.312h-.25l-.328 2.03h.25c.031-.155.125-.78.25-.89.078-.062.844-.062.969-.062h2.047c-.11.156-.891 1.234-1.11 1.562-.89 1.344-1.219 2.719-1.219 3.719 0 .094 0 .547.47.547.452 0 .452-.453.452-.547v-.5c0-.547.031-1.094.11-1.625.03-.235.172-1.078.609-1.688Zm0 0"/><path id="e" d="M7.125-2.469c0-.203-.187-.203-.312-.203H4.047v-2.765c0-.141 0-.329-.203-.329-.188 0-.188.188-.188.329v2.765H.875c-.14 0-.328 0-.328.203 0 .188.187.188.328.188h2.781V.5c0 .14 0 .328.188.328.203 0 .203-.187.203-.328v-2.781h2.766c.125 0 .312 0 .312-.188m0 0"/><path id="i" d="M2-.016c0-.64-.234-1.03-.625-1.03a.514.514 0 0 0-.531.515c0 .281.203.531.531.531.125 0 .25-.047.344-.125.031-.016.047-.031.047-.031.015 0 .03.015.03.14 0 .735-.359 1.329-.671 1.657-.11.109-.11.125-.11.156 0 .078.048.11.094.11.11 0 .891-.766.891-1.923m0 0"/><clipPath id="c"><path d="M26 95h16v14.445H26Zm0 0"/></clipPath><clipPath id="d"><path d="M169 95h15v14.445h-15Zm0 0"/></clipPath><clipPath id="k"><path d="M74 95h15v14.445H74Zm0 0"/></clipPath></defs><path fill="none" stroke="#000" stroke-miterlimit="10" stroke-width=".39619503" d="M34.074 102.77h23.781m0 0h71.348m0 0h47.567"/><use xlink:href="#a" x="16.426" y="106.148"/><use xlink:href="#b" x="23.014" y="106.148"/><path fill="#FFF" d="M35.648 102.77c0-.872-.707-1.579-1.574-1.579a1.575 1.575 0 1 0 1.574 1.578m0 0"/><g clip-path="url(#c)"><path fill="none" stroke="#000" stroke-miterlimit="10" stroke-width=".39619503" d="M35.648 102.77c0-.872-.707-1.579-1.574-1.579a1.575 1.575 0 1 0 1.574 1.578Zm0 0"/></g><path fill="#FFF" d="M178.344 102.77a1.575 1.575 0 1 0-3.153 0c0 .87.707 1.574 1.579 1.574.87 0 1.574-.703 1.574-1.574m0 0"/><g clip-path="url(#d)"><path fill="none" stroke="#000" stroke-miterlimit="10" stroke-width=".39619503" d="M178.344 102.77a1.575 1.575 0 1 0-3.153 0c0 .87.707 1.574 1.579 1.574.87 0 1.574-.703 1.574-1.574Zm0 0"/></g><path fill="none" stroke="#000" stroke-miterlimit="10" stroke-width=".39619503" d="M34.074 7.637h23.781m0 0h55.586m31.524 0h31.805"/><use xlink:href="#e" x="3.783" y="10.608"/><use xlink:href="#f" x="11.479" y="10.608"/><use xlink:href="#g" x="16.425" y="10.608"/><use xlink:href="#b" x="23.013" y="10.608"/><path fill="#FFF" stroke="#000" stroke-miterlimit="10" stroke-width=".39619503" d="M35.648 7.637a1.575 1.575 0 1 0-3.154.002 1.575 1.575 0 0 0 3.154-.002Zm0 0"/><path fill="none" stroke="#000" stroke-miterlimit="10" stroke-width=".79139709" d="M113.441 1.727h31.524V13.55H113.44Zm0 0"/><path fill="#FFF" stroke="#000" stroke-miterlimit="10" stroke-width=".39619503" d="M178.344 7.637a1.575 1.575 0 1 0-1.574 1.578c.87 0 1.574-.707 1.574-1.578Zm0 0"/><use xlink:href="#e" x="180.262" y="10.057"/><use xlink:href="#h" x="187.959" y="10.057"/><use xlink:href="#i" x="192.905" y="10.057"/><use xlink:href="#j" x="195.653" y="10.057"/><use xlink:href="#b" x="202.242" y="10.057"/><path fill="none" stroke="#000" stroke-miterlimit="10" stroke-width=".39619503" d="M81.637 102.77V63.086m0-15.766V7.637"/><path fill="none" stroke="#000" stroke-miterlimit="10" stroke-width=".79139709" d="m81.637 47.32 9.851 15.766H71.785Zm0 0"/><path fill="none" stroke="#000" stroke-miterlimit="10" stroke-width=".39619503" d="M81.637 47.32v15.766"/><path fill="none" stroke="#000" stroke-miterlimit="10" stroke-width=".79139709" d="M71.785 47.32h19.703v3.153"/><path d="M83.215 102.77c0-.872-.707-1.579-1.578-1.579-.867 0-1.575.707-1.575 1.579 0 .87.708 1.574 1.575 1.574.87 0 1.578-.703 1.578-1.574m0 0"/><g clip-path="url(#k)"><path fill="none" stroke="#000" stroke-miterlimit="10" stroke-width=".39619503" d="M83.215 102.77c0-.872-.707-1.579-1.578-1.579-.867 0-1.574.707-1.574 1.579a1.575 1.575 0 0 0 3.152 0Zm0 0"/></g><path stroke="#000" stroke-miterlimit="10" stroke-width=".39619503" d="M83.215 7.637a1.575 1.575 0 1 0-3.151.002 1.575 1.575 0 0 0 3.15-.002Zm0 0"/></svg>