<svg xmlns="http://www.w3.org/2000/svg" xmlns:xlink="http://www.w3.org/1999/xlink" width="226.771" height="122.353"><defs><path id="a" d="M4.563-3.172c0-.797-.063-1.578-.407-2.312-.453-.953-1.265-1.11-1.672-1.11-.609 0-1.328.25-1.734 1.172-.312.688-.36 1.453-.36 2.25 0 .75.032 1.64.438 2.39.438.798 1.156 1 1.64 1C3 .219 3.75.017 4.189-.936c.312-.672.375-1.454.375-2.235M2.469 0c-.39 0-.969-.25-1.156-1.203-.11-.594-.11-1.5-.11-2.078 0-.64 0-1.297.078-1.828.188-1.188.938-1.266 1.188-1.266.328 0 .984.172 1.172 1.156.093.547.093 1.313.093 1.938 0 .734 0 1.406-.109 2.047C3.485-.297 2.906 0 2.469 0m0 0"/><path id="b" d="M6.156-5.797c.14-.36.407-.656 1.078-.656v-.313c-.312.016-.703.032-.968.032a25.6 25.6 0 0 1-1.125-.032v.313c.515 0 .718.266.718.484 0 .078-.03.14-.046.203L4-.984 2.11-6c-.063-.125-.063-.156-.063-.172 0-.281.562-.281.812-.281v-.313c-.359.032-1.03.032-1.406.032-.484 0-.906-.016-1.265-.032v.313c.64 0 .828 0 .968.375L3.453 0c.078.188.125.219.25.219.172 0 .188-.047.235-.188Zm0 0"/><path id="f" d="M2.906-6.344c0-.234 0-.25-.219-.25-.609.625-1.484.625-1.812.625v.313c.203 0 .797 0 1.297-.25v5.125c0 .36-.016.469-.906.469H.938V0c.343-.031 1.218-.031 1.609-.031.39 0 1.25 0 1.61.031v-.312h-.329c-.89 0-.922-.11-.922-.47Zm0 0"/><path id="g" d="M1.266-.766 2.313-1.78c1.546-1.375 2.14-1.906 2.14-2.89 0-1.141-.89-1.923-2.11-1.923C1.235-6.594.5-5.687.5-4.797c0 .547.484.547.516.547a.516.516 0 0 0 .515-.531c0-.25-.172-.516-.515-.516-.079 0-.11 0-.141.016.234-.64.766-1.016 1.344-1.016.906 0 1.328.813 1.328 1.625 0 .781-.5 1.578-1.047 2.188L.61-.36C.5-.25.5-.234.5 0h3.672l.281-1.719h-.25c-.047.297-.125.735-.219.875-.078.078-.718.078-.937.078Zm0 0"/><path id="h" d="M2.906-1.64v.874c0 .344-.015.454-.75.454h-.203V0c.406-.031.922-.031 1.328-.031.422 0 .953 0 1.36.031v-.312h-.22c-.734 0-.75-.11-.75-.454v-.875h1v-.296h-1v-4.516c0-.188 0-.25-.155-.25-.094 0-.125 0-.203.11L.28-1.938v.296Zm.063-.298H.563L2.969-5.64Zm0 0"/><path id="j" d="M4.719-6.031c.078-.125.078-.14.078-.344H2.39c-1.203 0-1.22-.14-1.266-.328h-.25L.563-4.656h.234c.031-.157.125-.782.25-.907.078-.046.844-.046.969-.046h2.062c-.11.156-.89 1.234-1.11 1.562C2.079-2.719 1.75-1.344 1.75-.328c0 .094 0 .547.453.547s.453-.453.453-.547v-.5c0-.547.031-1.094.11-1.625.03-.235.172-1.078.609-1.703Zm0 0"/><path id="e" d="M2.734-1.86v-.562H.11v.563Zm0 0"/><path id="i" d="M2.016-.016c0-.64-.25-1.03-.641-1.03a.5.5 0 0 0-.516.515c0 .281.188.531.516.531.125 0 .25-.047.344-.125.031-.031.047-.031.047-.031.015 0 .03 0 .03.14 0 .735-.343 1.329-.671 1.657-.11.109-.11.125-.11.156 0 .078.048.11.094.11.11 0 .907-.75.907-1.923m0 0"/><clipPath id="c"><path d="M22 107h15v14.71H22Zm0 0"/></clipPath><clipPath id="d"><path d="M183 107h15v14.71h-15Zm0 0"/></clipPath><clipPath id="k"><path d="M129 107h16v14.71h-16Zm0 0"/></clipPath></defs><path fill="none" stroke="#000" stroke-miterlimit="10" stroke-width=".39690126" d="M29.719 115.02h53.687m0 0h80.524m0 0h26.843"/><use xlink:href="#a" x="12.04" y="118.406"/><use xlink:href="#b" x="18.641" y="118.406"/><path fill="#FFF" d="M31.297 115.02a1.579 1.579 0 1 0-3.155.001 1.579 1.579 0 0 0 3.155-.001m0 0"/><g clip-path="url(#c)"><path fill="none" stroke="#000" stroke-miterlimit="10" stroke-width=".39690126" d="M31.297 115.02a1.579 1.579 0 1 0-3.155.001 1.579 1.579 0 0 0 3.155-.001Zm0 0"/></g><path fill="#FFF" d="M192.352 115.02a1.579 1.579 0 1 0-3.158 0 1.579 1.579 0 0 0 3.158 0m0 0"/><g clip-path="url(#d)"><path fill="none" stroke="#000" stroke-miterlimit="10" stroke-width=".39690126" d="M192.352 115.02a1.579 1.579 0 1 0-3.158 0 1.579 1.579 0 0 0 3.158 0Zm0 0"/></g><path fill="none" stroke="#000" stroke-miterlimit="10" stroke-width=".39690126" d="M29.719 7.652h37.894m31.582 0h64.735m0 0h26.843"/><use xlink:href="#e" x="3.786" y="11.039"/><use xlink:href="#f" x="7.086" y="11.039"/><use xlink:href="#g" x="12.041" y="11.039"/><use xlink:href="#b" x="18.641" y="11.039"/><path fill="none" stroke="#000" stroke-miterlimit="10" stroke-width=".79280778" d="M67.613 1.73h31.582v11.844H67.613Zm0 0"/><path fill="#FFF" stroke="#000" stroke-miterlimit="10" stroke-width=".39690126" d="M31.297 7.652a1.579 1.579 0 1 0-3.155.001 1.579 1.579 0 0 0 3.155 0ZM192.352 7.652a1.579 1.579 0 1 0-3.158.002 1.579 1.579 0 0 0 3.158-.002Zm0 0"/><use xlink:href="#e" x="194.273" y="10.075"/><use xlink:href="#h" x="197.572" y="10.075"/><use xlink:href="#i" x="202.528" y="10.075"/><use xlink:href="#j" x="205.281" y="10.075"/><use xlink:href="#b" x="211.881" y="10.075"/><path fill="none" stroke="#000" stroke-miterlimit="10" stroke-width=".39690126" d="M137.09 115.02V69.23m0-15.789V7.652"/><path fill="none" stroke="#000" stroke-miterlimit="10" stroke-width=".79280778" d="m137.09 53.441 9.867 15.79H127.22Zm0 0"/><path fill="none" stroke="#000" stroke-miterlimit="10" stroke-width=".39690126" d="M137.09 53.441v15.79"/><path fill="none" stroke="#000" stroke-miterlimit="10" stroke-width=".79280778" d="M127.219 53.441h19.738v3.157"/><path d="M138.668 115.02a1.579 1.579 0 1 0-3.158 0 1.579 1.579 0 0 0 3.158 0m0 0"/><g clip-path="url(#k)"><path fill="none" stroke="#000" stroke-miterlimit="10" stroke-width=".39690126" d="M138.668 115.02a1.579 1.579 0 1 0-3.157 0 1.579 1.579 0 0 0 3.157 0Zm0 0"/></g><path stroke="#000" stroke-miterlimit="10" stroke-width=".39690126" d="M138.668 7.652a1.579 1.579 0 1 0-3.157.002 1.579 1.579 0 0 0 3.157-.002Zm0 0"/></svg>