<svg xmlns="http://www.w3.org/2000/svg" width="113.386" height="44.451"><defs><clipPath id="a"><path d="M62 0h50.39v43.91H62Zm0 0"/></clipPath><clipPath id="b"><path d="M88 0h16v43.91H88Zm0 0"/></clipPath><clipPath id="c"><path d="M.387 29H76v1H.387Zm0 0"/></clipPath></defs><g clip-path="url(#a)"><path fill="none" stroke="#000" stroke-miterlimit="10" stroke-width=".7872766000000001" d="M108.719 21.953c0-9.558-7.75-17.308-17.309-17.308-9.562 0-17.312 7.75-17.312 17.308 0 9.563 7.75 17.313 17.312 17.313 9.559 0 17.309-7.75 17.309-17.313Zm0 0"/></g><g clip-path="url(#b)"><path fill="none" stroke="#000" stroke-miterlimit="10" stroke-width=".39413220000000004" d="M102.914.195V14.41H89.191m0 15.09h13.723v14.21"/></g><path fill="none" stroke="#000" stroke-miterlimit="10" stroke-width=".7872766000000001" d="M89.191 11.176v21.558"/><path fill="none" stroke="#000" stroke-miterlimit="10" stroke-width=".39413220000000004" d="M75.473 29.5H89.19m-13.718 0"/><path d="M81.793 29.5v-2.258L86.84 29.5l-5.047 2.262Zm0 0"/><g clip-path="url(#c)"><path fill="none" stroke="#000" stroke-miterlimit="10" stroke-width=".39413220000000004" d="M75.473 29.5H.586"/></g></svg>