<svg xmlns="http://www.w3.org/2000/svg" width="110.229" height="61.975"><defs><clipPath id="a"><path d="M23 .203h39V32H23Zm0 0"/></clipPath><clipPath id="b"><path d="M50 .203h2V21h-2Zm0 0"/></clipPath><clipPath id="c"><path d="M97 23h12.465v16H97Zm0 0"/></clipPath><clipPath id="d"><path d="M23 30h39v31.746H23Zm0 0"/></clipPath><clipPath id="e"><path d="M50 41h2v20.746h-2Zm0 0"/></clipPath></defs><path fill="none" stroke="#000" stroke-miterlimit="10" stroke-width=".39622695" d="M1.773 10.45h33.168m15.762 0h33.168v20.527h20.524"/><path fill="#FFF" stroke="#000" stroke-miterlimit="10" stroke-width=".39622695" d="M3.352 10.45c0-.868-.707-1.575-1.579-1.575a1.575 1.575 0 1 0 1.578 1.574Zm0 0"/><g clip-path="url(#a)"><path fill="none" stroke="#000" stroke-miterlimit="10" stroke-width=".79146085" d="M50.703 10.45 34.941.597v19.707Zm0 0"/></g><path fill="none" stroke="#000" stroke-miterlimit="10" stroke-width=".39622695" d="M50.703 10.45H34.941"/><g clip-path="url(#b)"><path fill="none" stroke="#000" stroke-miterlimit="10" stroke-width=".79146085" d="M50.703 20.305V.598"/></g><path fill="#FFF" d="M105.973 30.977a1.575 1.575 0 1 0-3.152 0c0 .87.702 1.574 1.574 1.574.87 0 1.578-.703 1.578-1.574m0 0"/><g clip-path="url(#c)"><path fill="none" stroke="#000" stroke-miterlimit="10" stroke-width=".39622695" d="M105.973 30.977a1.575 1.575 0 1 0-3.152 0c0 .87.702 1.574 1.574 1.574.87 0 1.578-.703 1.578-1.574Zm0 0"/></g><path fill="none" stroke="#000" stroke-miterlimit="10" stroke-width=".39622695" d="M83.871 30.977V51.5H50.703m-15.762 0H1.773"/><g clip-path="url(#d)"><path fill="none" stroke="#000" stroke-miterlimit="10" stroke-width=".79146085" d="m50.703 51.5-15.762 9.852V41.648Zm0 0"/></g><path fill="none" stroke="#000" stroke-miterlimit="10" stroke-width=".39622695" d="M50.703 51.5H34.941"/><g clip-path="url(#e)"><path fill="none" stroke="#000" stroke-miterlimit="10" stroke-width=".79146085" d="M50.703 41.648v19.704"/></g><path fill="#FFF" stroke="#000" stroke-miterlimit="10" stroke-width=".39622695" d="M3.352 51.5c0-.871-.707-1.574-1.579-1.574-.87 0-1.574.703-1.574 1.574 0 .871.703 1.574 1.574 1.574.872 0 1.579-.703 1.579-1.574Zm0 0"/><path stroke="#000" stroke-miterlimit="10" stroke-width=".39622695" d="M85.45 30.977a1.575 1.575 0 1 0-3.152 0 1.575 1.575 0 0 0 3.152 0Zm0 0"/></svg>