<svg xmlns="http://www.w3.org/2000/svg" xmlns:xlink="http://www.w3.org/1999/xlink" width="47.352" height="70.824"><defs><path id="b" d="M4.406-1.703h-.234c-.047.281-.125.719-.219.875-.078.078-.719.078-.937.078H1.25l1.047-1.016c1.531-1.359 2.11-1.89 2.11-2.875 0-1.125-.876-1.906-2.079-1.906-1.11 0-1.844.906-1.844 1.781 0 .547.5.547.532.547.156 0 .5-.11.5-.515C1.516-5 1.344-5.25 1-5.25c-.078 0-.094 0-.125.016.219-.641.75-1 1.328-1 .89 0 1.313.797 1.313 1.593 0 .782-.485 1.563-1.032 2.172L.594-.359C.484-.25.484-.234.484 0h3.657Zm0 0"/><path id="c" d="M4.484-1.687c0-.797-.609-1.563-1.64-1.766.812-.266 1.375-.953 1.375-1.735 0-.812-.86-1.359-1.797-1.359-1 0-1.75.594-1.75 1.344 0 .312.219.5.5.5.312 0 .516-.203.516-.5 0-.484-.47-.484-.61-.484.297-.485.953-.61 1.297-.61.406 0 .953.219.953 1.094 0 .125-.031.687-.281 1.125-.297.469-.625.5-.875.516-.078 0-.313.03-.39.03-.079 0-.141.016-.141.11 0 .11.062.11.234.11h.438c.796 0 1.171.671 1.171 1.624 0 1.344-.687 1.626-1.109 1.626-.422 0-1.172-.157-1.516-.75.344.062.657-.157.657-.532 0-.36-.266-.547-.547-.547-.235 0-.563.125-.563.563 0 .89.922 1.547 1.985 1.547 1.203 0 2.093-.89 2.093-1.906m0 0"/><path id="d" d="M4.125 0v-.297h-.328c-.875 0-.906-.11-.906-.484v-5.516c0-.234 0-.25-.235-.25-.61.625-1.469.625-1.781.625v.313c.203 0 .781 0 1.281-.266v5.094c0 .36-.031.484-.906.484H.938V0C1.28-.031 2.125-.031 2.53-.031c.39 0 1.25 0 1.594.031m0 0"/><clipPath id="a"><path d="M2 9h44.71v52H2Zm0 0"/></clipPath></defs><g clip-path="url(#a)"><path fill="none" stroke="#000" stroke-miterlimit="10" stroke-width=".7862405000000001" d="M43.047 35.219c0-8.02-6.5-14.52-14.52-14.52-8.015 0-14.515 6.5-14.515 14.52 0 8.015 6.5 14.515 14.515 14.515 8.02 0 14.52-6.5 14.52-14.515Zm0 0"/></g><path fill="none" stroke="#000" stroke-miterlimit="10" stroke-width=".39361350000000006" d="M35.152 13.488v13.117l-11.746 5.383"/><path fill="none" stroke="#000" stroke-miterlimit="10" stroke-width=".7862405000000001" d="M23.406 26.605v17.227"/><path fill="none" stroke="#000" stroke-miterlimit="10" stroke-width=".39361350000000006" d="m23.406 38.45 11.746 5.382v13.113"/><path d="m27.543 40.344.941-2.051 3.641 4.152-5.52-.05Zm0 0"/><path fill="none" stroke="#000" stroke-miterlimit="10" stroke-width=".39361350000000006" d="M23.406 35.219H11.465"/><use xlink:href="#b" x="3.276" y="38.49"/><use xlink:href="#c" x="32.695" y="66.767"/><use xlink:href="#d" x="32.695" y="10.213"/></svg>