<svg xmlns="http://www.w3.org/2000/svg" xmlns:xlink="http://www.w3.org/1999/xlink" width="113.386" height="115.597"><defs><path id="a" d="M6.453-1.813c0-.859-.812-1.609-1.922-1.718.969-.188 1.657-.828 1.657-1.563 0-.86-.922-1.672-2.204-1.672H.36v.313h.235c.765 0 .781.11.781.453v5.234c0 .344-.016.454-.781.454H.359V0h3.875c1.329 0 2.22-.875 2.22-1.813ZM5.22-5.092c0 .64-.485 1.468-1.578 1.468H2.203v-2.438c0-.328.016-.39.485-.39h1.218c.969 0 1.313.844 1.313 1.36Zm.234 3.265c0 .703-.516 1.516-1.531 1.516H2.687c-.468 0-.484-.063-.484-.391v-2.703h1.86c.984 0 1.39.922 1.39 1.578Zm0 0"/><path id="b" d="M6.594-2.313c0-.093 0-.171-.14-.171-.11 0-.11.062-.11.171-.078 1.407-1.14 2.22-2.219 2.22-.61 0-2.547-.329-2.547-3.282 0-2.969 1.922-3.297 2.531-3.297 1.079 0 1.97.89 2.157 2.344.03.14.03.172.156.172.172 0 .172-.032.172-.235V-6.75c0-.172 0-.234-.11-.234-.046 0-.078 0-.171.125l-.485.734c-.375-.36-.875-.86-1.828-.86C2.156-6.984.562-5.405.562-3.39.563-1.344 2.157.22 4 .22c1.61 0 2.594-1.375 2.594-2.531Zm0 0"/><path id="c" d="M6.453-2.563H6.22c-.25 1.532-.485 2.25-2.188 2.25H2.72c-.469 0-.485-.062-.485-.39v-2.64h.891c.953 0 1.063.312 1.063 1.155h.25v-2.624h-.25c0 .843-.11 1.156-1.063 1.156h-.89v-2.375c0-.328.015-.39.484-.39H4c1.516 0 1.781.53 1.938 1.921h.25l-.282-2.234H.328v.312h.234c.766 0 .782.11.782.453v5.203c0 .344-.016.454-.782.454H.329V0h5.719Zm0 0"/><path id="e" d="M6.297-5.719c.094-.406.266-.703 1.062-.734.047 0 .172-.016.172-.203 0-.016 0-.11-.125-.11-.328 0-.687.032-1.015.032-.344 0-.704-.032-1.032-.032-.062 0-.171 0-.171.204 0 .109.093.109.171.109.563 0 .672.219.672.437 0 .016-.015.172-.031.204l-.89 3.53C4.78-.952 3.64-.093 2.64-.093c-.671 0-1.203-.437-1.203-1.281 0-.016 0-.344.11-.781L2.5-6c.094-.36.11-.453.844-.453.25 0 .328 0 .328-.203 0-.11-.11-.11-.14-.11-.266 0-.985.032-1.266.032-.282 0-.985-.032-1.282-.032-.078 0-.187 0-.187.204 0 .109.094.109.281.109.016 0 .203 0 .375.016.188.015.266.03.266.156 0 .062-.11.468-.157.703l-.218.875c-.094.39-.578 2.25-.61 2.437-.078.282-.078.438-.078.579C.656-.47 1.562.218 2.61.218c1.25 0 2.47-1.125 2.797-2.422Zm0 0"/><path id="f" d="M.422-4.734v.25h.156c.531 0 .547.062.547.312v3.61c0 .234-.016.312-.547.312H.422V0h2.937c.985 0 1.688-.61 1.688-1.266 0-.609-.61-1.125-1.453-1.218.687-.125 1.25-.547 1.25-1.079 0-.624-.735-1.171-1.688-1.171Zm1.312 2.171v-1.656c0-.218.016-.265.344-.265h1.016c.687 0 1.062.484 1.062.921 0 .5-.468 1-1.265 1ZM2.078-.25c-.328 0-.344-.063-.344-.266v-1.843H3.22c.734 0 1.125.593 1.125 1.078 0 .515-.469 1.031-1.235 1.031Zm0 0"/><path id="g" d="M5.047-1.828h-.234C4.64-.781 4.468-.25 3.188-.25H2.093c-.328 0-.328-.063-.328-.266v-1.812h.703c.687 0 .797.219.797.812H3.5V-3.39h-.234c0 .61-.11.813-.797.813h-.703v-1.61c0-.218 0-.265.328-.265H3.14c1.14 0 1.328.36 1.453 1.344h.234l-.203-1.594H.391v.25h.171c.532 0 .547.062.547.297v3.593c0 .235-.015.313-.546.313H.39V0h4.343Zm0 0"/><clipPath id="d"><path d="M44 101h16v14.086H44Zm0 0"/></clipPath></defs><path fill="none" stroke="#000" stroke-miterlimit="10" stroke-width=".79270417" d="M78.11 52.152c0-8.086-6.551-14.64-14.637-14.64-8.082 0-14.637 6.554-14.637 14.64 0 8.082 6.555 14.637 14.637 14.637 8.086 0 14.636-6.555 14.636-14.637Zm0 0"/><path fill="none" stroke="#000" stroke-miterlimit="10" stroke-width=".39684939" d="M70.148 30.242V43.47l-11.84 5.426"/><path fill="none" stroke="#000" stroke-miterlimit="10" stroke-width=".79270417" d="M58.309 43.469v17.367"/><path fill="none" stroke="#000" stroke-miterlimit="10" stroke-width=".39684939" d="m58.309 55.406 11.84 5.43v13.223"/><path d="m62.48 57.32.946-2.07 3.676 4.188-5.57-.051Zm0 0"/><path fill="none" stroke="#000" stroke-miterlimit="10" stroke-width=".39684939" d="M58.309 52.152h-12.04M46.469 52.152H30.14m0 0H13.816"/><use xlink:href="#a" x="3.303" y="55.536"/><path fill="none" stroke="#000" stroke-miterlimit="10" stroke-width=".39684939" d="M70.148 30.441v-8.16m0 0v-8.164"/><use xlink:href="#b" x="66.573" y="10.399"/><path fill="none" stroke="#000" stroke-miterlimit="10" stroke-width=".39684939" d="M70.148 73.86v8.163m0 0v8.16M70.148 90.184v9.87"/><path fill="none" stroke="#000" stroke-linecap="round" stroke-miterlimit="10" stroke-width=".79270417" d="M64.23 100.055h11.84"/><use xlink:href="#c" x="99.425" y="77.23"/><path fill="none" stroke="#000" stroke-miterlimit="10" stroke-width=".39684939" d="m4.852 78.27 46.101 30.734"/><path d="m53.496 110.7-1.488-3.102-.973 1.46-.972 1.458Zm0 0"/><g clip-path="url(#d)"><path fill="none" stroke="#000" stroke-miterlimit="10" stroke-width=".39683343" d="m53.496 110.7-1.488-3.102-.973 1.46-.973 1.458Zm0 0"/></g><use xlink:href="#e" x="5.585" y="110.296"/><use xlink:href="#f" x="12.35" y="111.782"/><use xlink:href="#g" x="17.889" y="111.782"/></svg>