<svg xmlns="http://www.w3.org/2000/svg" xmlns:xlink="http://www.w3.org/1999/xlink" width="113.386" height="93.465"><defs><path id="a" d="M7.14-2.484c0-.188-.187-.188-.327-.188H4.047v-2.781c0-.14 0-.328-.188-.328-.203 0-.203.187-.203.328v2.781H.875c-.125 0-.312 0-.312.188 0 .203.187.203.312.203h2.781V.5c0 .14 0 .328.203.328.188 0 .188-.187.188-.328v-2.781h2.766c.14 0 .328 0 .328-.203m0 0"/><path id="b" d="M4.453-1.984c0-1.188-.812-2.172-1.89-2.172-.47 0-.891.156-1.25.5v-1.938c.187.063.515.14.843.14 1.219 0 1.906-.905 1.906-1.03 0-.063-.03-.11-.093-.11 0 0-.031 0-.078.032-.203.078-.688.28-1.36.28-.39 0-.844-.062-1.312-.28-.078-.032-.125-.032-.125-.032-.094 0-.094.078-.094.25v2.922c0 .188 0 .266.14.266.063 0 .094-.031.126-.094.109-.156.484-.687 1.28-.687.517 0 .767.453.845.624.156.376.172.75.172 1.25 0 .344 0 .938-.235 1.36-.234.39-.61.64-1.062.64-.72 0-1.282-.515-1.453-1.109.03.016.062.016.171.016.329 0 .485-.235.485-.485 0-.234-.157-.484-.485-.484-.14 0-.484.078-.484.531C.5-.75 1.172.22 2.281.22a2.194 2.194 0 0 0 2.172-2.203m0 0"/><path id="c" d="M2.016-.016c0-.625-.25-1.03-.641-1.03-.344 0-.516.265-.516.515 0 .265.157.531.516.531a.555.555 0 0 0 .39-.156c.032.781-.25 1.39-.687 1.844-.062.062-.062.078-.062.109 0 .078.046.11.093.11.125 0 .907-.782.907-1.923m0 0"/><path id="d" d="M4.531-2.016c0-1.265-.89-2.218-1.984-2.218-.672 0-1.047.515-1.235.984v-.234c0-2.516 1.22-2.86 1.735-2.86.234 0 .64.047.86.39-.141 0-.532 0-.532.438 0 .313.234.47.453.47a.446.446 0 0 0 .453-.485c0-.594-.437-1.063-1.265-1.063C1.75-6.594.422-5.312.422-3.125c0 2.64 1.14 3.344 2.062 3.344 1.11 0 2.047-.938 2.047-2.235m-.89-.015c0 .469 0 .969-.172 1.328-.297.594-.75.64-.985.64-.625 0-.921-.593-.984-.734-.172-.469-.172-1.265-.172-1.437C1.328-3.016 1.641-4 2.531-4c.156 0 .625 0 .922.61.188.374.188.874.188 1.359m0 0"/><path id="e" d="M7.234-6.453v-.313c-.312.016-.703.032-.968.032L5.14-6.766v.313c.515 0 .718.266.718.484 0 .078-.03.14-.046.203L4-.984 2.11-6c-.063-.125-.063-.172-.063-.172 0-.281.562-.281.812-.281v-.313c-.359.032-1.03.032-1.406.032L.188-6.766v.313c.64 0 .828 0 .968.375L3.453 0c.078.188.125.219.25.219.172 0 .188-.047.235-.188l2.218-5.828c.14-.36.407-.656 1.078-.656m0 0"/><path id="f" d="M4.563-3.172c0-.797-.063-1.578-.407-2.312-.453-.953-1.265-1.11-1.672-1.11-.609 0-1.328.25-1.734 1.172-.312.688-.36 1.453-.36 2.25 0 .75.032 1.64.438 2.39.438.798 1.156 1 1.64 1C3 .219 3.75.017 4.189-.936c.312-.672.375-1.454.375-2.235m-.829-.11c0 .735 0 1.407-.109 2.048C3.485-.297 2.906 0 2.469 0c-.39 0-.969-.25-1.156-1.203-.11-.594-.11-1.5-.11-2.078 0-.64 0-1.297.078-1.828.188-1.188.938-1.266 1.188-1.266.328 0 .984.172 1.172 1.156.093.547.093 1.313.093 1.938m0 0"/><path id="g" d="M4.453-1.719h-.25c-.047.297-.125.735-.219.875-.078.078-.718.078-.937.078H1.266L2.313-1.78c1.546-1.375 2.14-1.906 2.14-2.89 0-1.141-.89-1.923-2.11-1.923C1.235-6.594.5-5.687.5-4.797c0 .547.484.547.516.547a.516.516 0 0 0 .515-.531c0-.25-.172-.516-.515-.516-.079 0-.11 0-.141.016.234-.64.766-1.016 1.344-1.016.906 0 1.328.813 1.328 1.625 0 .781-.5 1.578-1.047 2.188L.61-.36C.5-.25.5-.234.5 0h3.672Zm0 0"/></defs><path fill="none" stroke="#000" stroke-miterlimit="10" stroke-width=".7924650700000001" d="M99.395 46.043c0 8.082-6.551 14.633-14.633 14.633-8.082 0-14.633-6.551-14.633-14.633 0-8.082 6.55-14.633 14.633-14.633 8.082 0 14.633 6.55 14.633 14.633Zm0 0"/><path fill="none" stroke="#000" stroke-miterlimit="10" stroke-width=".39672969" d="M91.438 67.945V54.723l-11.84-5.426"/><path fill="none" stroke="#000" stroke-miterlimit="10" stroke-width=".7924650700000001" d="M79.598 54.723v-17.36"/><path fill="none" stroke="#000" stroke-miterlimit="10" stroke-width=".39672969" d="m79.598 42.79 11.84-5.427V24.141"/><path d="m87.266 52.813.949-2.067-5.567-.05 3.672 4.183Zm0 0"/><path fill="none" stroke="#000" stroke-miterlimit="10" stroke-width=".39672969" d="M79.598 46.043H67.563M67.758 46.043H53.137"/><use xlink:href="#a" x="3.32" y="48.471"/><use xlink:href="#b" x="11.026" y="48.471"/><use xlink:href="#c" x="15.979" y="48.471"/><use xlink:href="#d" x="18.733" y="48.471"/><use xlink:href="#e" x="25.331" y="48.471"/><use xlink:href="#f" x="84.417" y="10.067"/><use xlink:href="#e" x="91.015" y="10.067"/><use xlink:href="#a" x="76.71" y="87.72"/><use xlink:href="#d" x="84.417" y="87.72"/><use xlink:href="#c" x="89.37" y="87.72"/><use xlink:href="#g" x="92.124" y="87.72"/><use xlink:href="#e" x="98.721" y="87.72"/></svg>