<svg xmlns="http://www.w3.org/2000/svg" xmlns:xlink="http://www.w3.org/1999/xlink" width="113.386" height="94.316"><defs><path id="a" d="M7.125-2.469c0-.203-.187-.203-.312-.203H4.047v-2.765c0-.141 0-.329-.203-.329-.188 0-.188.188-.188.329v2.765H.875c-.14 0-.328 0-.328.203 0 .188.187.188.328.188h2.781V.5c0 .14 0 .328.188.328.203 0 .203-.187.203-.328v-2.781h2.766c.125 0 .312 0 .312-.188m0 0"/><path id="b" d="M4.438-1.719h-.25c-.047.297-.11.735-.22.875-.062.078-.718.078-.937.078H1.25L2.297-1.78c1.547-1.36 2.14-1.89 2.14-2.89 0-1.126-.89-1.923-2.093-1.923A1.826 1.826 0 0 0 .5-4.797c0 .547.484.547.516.547.172 0 .515-.11.515-.516 0-.265-.172-.515-.515-.515-.079 0-.11 0-.141.015.234-.656.766-1.015 1.344-1.015.89 0 1.328.797 1.328 1.61 0 .796-.5 1.577-1.047 2.187L.61-.36C.5-.25.5-.234.5 0h3.656Zm0 0"/><path id="c" d="M2-.016c0-.625-.234-1.03-.625-1.03a.513.513 0 0 0-.531.515c0 .265.172.531.531.531.14 0 .281-.062.39-.156a2.451 2.451 0 0 1-.687 1.844c-.062.062-.062.078-.062.109 0 .078.046.11.093.11.11 0 .891-.782.891-1.923m0 0"/><path id="d" d="M4.547-3.172c0-.781-.047-1.578-.39-2.312-.454-.938-1.266-1.11-1.688-1.11-.594 0-1.313.266-1.719 1.188-.312.672-.36 1.453-.36 2.234 0 .75.032 1.64.438 2.39a1.83 1.83 0 0 0 1.64 1C3 .219 3.75.017 4.189-.936c.312-.672.359-1.454.359-2.235m-.813-.11c0 .735 0 1.407-.109 2.048C3.469-.297 2.906 0 2.469 0c-.39 0-.969-.25-1.156-1.203-.11-.594-.11-1.5-.11-2.078 0-.64 0-1.281.078-1.828.188-1.172.938-1.266 1.188-1.266.328 0 .969.188 1.156 1.156.11.563.11 1.313.11 1.938m0 0"/><path id="e" d="M7.219-6.453v-.297a22.29 22.29 0 0 1-.953.031L5.14-6.75v.297c.5.016.718.266.718.5 0 .078-.03.14-.046.203L4-.984l-1.89-5c-.063-.141-.063-.172-.063-.172 0-.297.562-.297.812-.297v-.297c-.359.031-1.046.031-1.421.031L.188-6.75v.297c.64 0 .828 0 .968.375L3.453 0c.063.188.125.219.25.219.172 0 .188-.047.235-.188L6.14-5.78c.14-.375.406-.657 1.078-.672m0 0"/><path id="f" d="M2.734-1.844v-.578H.11v.578Zm0 0"/><path id="g" d="M4.438-1.984c0-1.188-.813-2.172-1.875-2.172-.47 0-.907.156-1.25.5v-1.922c.187.062.515.125.828.125 1.218 0 1.922-.89 1.922-1.031 0-.047-.032-.11-.11-.11 0 0-.031 0-.078.032a3.198 3.198 0 0 1-1.344.296c-.39 0-.844-.078-1.312-.28-.078-.032-.125-.032-.125-.032C1-6.578 1-6.5 1-6.344v2.938c0 .172 0 .25.14.25.063 0 .079-.031.126-.094.109-.156.468-.687 1.28-.687.517 0 .75.453.829.64.172.36.188.75.188 1.235 0 .343 0 .937-.235 1.359-.25.39-.61.64-1.062.64-.72 0-1.282-.515-1.453-1.109.03.016.062.031.171.031.329 0 .485-.25.485-.484 0-.25-.157-.484-.485-.484-.14 0-.484.062-.484.515C.5-.734 1.172.22 2.281.22c1.156 0 2.157-.953 2.157-2.203m0 0"/><path id="h" d="M4.516-2.016c0-1.265-.875-2.203-1.97-2.203-.671 0-1.046.5-1.233.969v-.234c0-2.5 1.218-2.86 1.718-2.86.25 0 .656.063.875.407-.14 0-.547 0-.547.437 0 .313.235.453.454.453.156 0 .453-.094.453-.469 0-.593-.422-1.078-1.25-1.078C1.75-6.594.422-5.312.422-3.125c0 2.64 1.14 3.344 2.062 3.344 1.094 0 2.032-.938 2.032-2.235m-.891-.015c0 .484 0 .969-.156 1.328-.297.594-.766.64-.985.64-.625 0-.921-.593-.984-.734-.172-.469-.172-1.265-.172-1.437C1.328-3 1.641-4 2.531-4c.156 0 .61 0 .922.625.172.36.172.86.172 1.344m0 0"/><path id="i" d="M4.14 0v-.312h-.312c-.89 0-.922-.11-.922-.47v-5.546c0-.234 0-.266-.219-.266-.624.64-1.484.64-1.812.64v.313c.203 0 .781 0 1.297-.265v5.125c0 .36-.031.469-.922.469H.938V0C1.28-.031 2.14-.031 2.547-.031c.39 0 1.25 0 1.594.031m0 0"/><path id="j" d="M4.656-1.625v-.312h-.984v-4.5c0-.204 0-.266-.156-.266-.094 0-.125 0-.203.125L.28-1.938v.313h2.625v.86c0 .343-.015.453-.75.453h-.203V0c.406-.031.922-.031 1.328-.031.422 0 .938 0 1.344.031v-.312h-.203c-.734 0-.75-.11-.75-.454v-.859ZM2.97-1.937H.547l2.422-3.688Zm0 0"/></defs><path fill="none" stroke="#000" stroke-miterlimit="10" stroke-width=".7912616" d="M99.328 46.82c0 8.067-6.539 14.61-14.61 14.61-8.07 0-14.613-6.543-14.613-14.61 0-8.07 6.543-14.613 14.614-14.613 8.07 0 14.61 6.543 14.61 14.613Zm0 0"/><path fill="none" stroke="#000" stroke-miterlimit="10" stroke-width=".3961272" d="M91.383 68.688V55.484l-11.82-5.414"/><path fill="none" stroke="#000" stroke-miterlimit="10" stroke-width=".7912616" d="M79.563 55.484V38.152"/><path fill="none" stroke="#000" stroke-miterlimit="10" stroke-width=".3961272" d="m79.563 43.566 11.82-5.414V24.95"/><path d="m87.219 53.578.945-2.062-5.555-.051 3.664 4.176Zm0 0"/><path fill="none" stroke="#000" stroke-miterlimit="10" stroke-width=".3961272" d="M79.563 46.82H67.547M67.742 46.82H53.145"/><use xlink:href="#a" x="3.4" y="49.242"/><use xlink:href="#b" x="11.096" y="49.242"/><use xlink:href="#c" x="16.041" y="49.242"/><use xlink:href="#d" x="18.791" y="49.242"/><use xlink:href="#e" x="25.378" y="49.242"/><use xlink:href="#f" x="78.881" y="10.052"/><use xlink:href="#g" x="82.175" y="10.052"/><use xlink:href="#c" x="87.12" y="10.052"/><use xlink:href="#h" x="89.87" y="10.052"/><use xlink:href="#e" x="96.457" y="10.052"/><use xlink:href="#a" x="76.68" y="88.432"/><use xlink:href="#i" x="84.375" y="88.432"/><use xlink:href="#c" x="89.321" y="88.432"/><use xlink:href="#j" x="92.07" y="88.432"/><use xlink:href="#e" x="98.658" y="88.432"/></svg>