<svg xmlns="http://www.w3.org/2000/svg" xmlns:xlink="http://www.w3.org/1999/xlink" width="113.386" height="96.594"><defs><path id="b" d="M2.734-1.86v-.562H.11v.563Zm0 0"/><path id="c" d="M4.453-1.984c0-1.188-.812-2.172-1.89-2.172-.47 0-.891.156-1.25.5v-1.938c.187.063.515.14.843.14 1.219 0 1.906-.905 1.906-1.03 0-.063-.03-.11-.093-.11 0 0-.031 0-.078.032-.203.078-.688.28-1.36.28-.39 0-.844-.062-1.312-.28-.078-.032-.125-.032-.125-.032-.094 0-.094.078-.094.25v2.922c0 .188 0 .266.14.266.063 0 .094-.031.126-.094.109-.156.484-.687 1.28-.687.517 0 .767.453.845.624.156.376.172.75.172 1.25 0 .344 0 .938-.235 1.36-.234.39-.61.64-1.062.64-.72 0-1.282-.515-1.453-1.109.03.016.062.016.171.016.329 0 .485-.235.485-.485 0-.234-.157-.484-.485-.484-.14 0-.484.078-.484.531C.5-.75 1.172.22 2.281.22a2.194 2.194 0 0 0 2.172-2.203m0 0"/><path id="d" d="M2.016-.016c0-.625-.25-1.03-.641-1.03-.344 0-.516.265-.516.515 0 .265.157.531.516.531a.555.555 0 0 0 .39-.156c.032.781-.25 1.39-.687 1.844-.062.062-.062.078-.062.109 0 .078.046.11.093.11.125 0 .907-.782.907-1.923m0 0"/><path id="e" d="M4.531-2.016c0-1.265-.89-2.218-1.984-2.218-.672 0-1.047.515-1.235.984v-.234c0-2.516 1.22-2.86 1.735-2.86.234 0 .64.047.86.39-.141 0-.532 0-.532.438 0 .313.234.47.453.47a.446.446 0 0 0 .453-.485c0-.594-.437-1.063-1.265-1.063C1.75-6.594.422-5.312.422-3.125c0 2.64 1.14 3.344 2.062 3.344 1.11 0 2.047-.938 2.047-2.235m-.89-.015c0 .469 0 .969-.172 1.328-.297.594-.75.64-.985.64-.625 0-.921-.593-.984-.734-.172-.469-.172-1.265-.172-1.437C1.328-3.016 1.641-4 2.531-4c.156 0 .625 0 .922.61.188.374.188.874.188 1.359m0 0"/><path id="f" d="M7.234-6.453v-.313c-.312.016-.703.032-.968.032L5.14-6.766v.313c.515 0 .718.266.718.484 0 .078-.03.14-.046.203L4-.984 2.11-6c-.063-.125-.063-.172-.063-.172 0-.281.562-.281.812-.281v-.313c-.359.032-1.03.032-1.406.032L.188-6.766v.313c.64 0 .828 0 .968.375L3.453 0c.078.188.125.219.25.219.172 0 .188-.047.235-.188l2.218-5.828c.14-.36.407-.656 1.078-.656m0 0"/><path id="g" d="M4.563-3.172c0-.797-.063-1.578-.407-2.312-.453-.953-1.265-1.11-1.672-1.11-.609 0-1.328.25-1.734 1.172-.312.688-.36 1.453-.36 2.25 0 .75.032 1.64.438 2.39.438.798 1.156 1 1.64 1C3 .219 3.75.017 4.189-.936c.312-.672.375-1.454.375-2.235m-.829-.11c0 .735 0 1.407-.109 2.048C3.485-.297 2.906 0 2.469 0c-.39 0-.969-.25-1.156-1.203-.11-.594-.11-1.5-.11-2.078 0-.64 0-1.297.078-1.828.188-1.188.938-1.266 1.188-1.266.328 0 .984.172 1.172 1.156.093.547.093 1.313.093 1.938m0 0"/><path id="h" d="M4.453-1.719h-.25c-.047.297-.125.735-.219.875-.078.078-.718.078-.937.078H1.266L2.313-1.78c1.546-1.375 2.14-1.906 2.14-2.89 0-1.141-.89-1.923-2.11-1.923C1.235-6.594.5-5.687.5-4.797c0 .547.484.547.516.547a.516.516 0 0 0 .515-.531c0-.25-.172-.516-.515-.516-.079 0-.11 0-.141.016.234-.64.766-1.016 1.344-1.016.906 0 1.328.813 1.328 1.625 0 .781-.5 1.578-1.047 2.188L.61-.36C.5-.25.5-.234.5 0h3.672Zm0 0"/><clipPath id="a"><path d="M61 21h51.773v53H61Zm0 0"/></clipPath></defs><g clip-path="url(#a)"><path fill="none" stroke="#000" stroke-miterlimit="10" stroke-width=".79270417" d="M101.613 47.672c0-8.086-6.554-14.637-14.64-14.637-8.082 0-14.637 6.55-14.637 14.637 0 8.082 6.555 14.637 14.637 14.637 8.086 0 14.64-6.555 14.64-14.637Zm0 0"/></g><path fill="none" stroke="#000" stroke-miterlimit="10" stroke-width=".39684939" d="M93.652 25.766v13.222L81.81 44.414"/><path fill="none" stroke="#000" stroke-miterlimit="10" stroke-width=".79270417" d="M81.809 38.988v17.367"/><path fill="none" stroke="#000" stroke-miterlimit="10" stroke-width=".39684939" d="m81.809 50.926 11.843 5.43v13.222"/><path d="m85.98 52.84.95-2.067 3.672 4.184-5.57-.05Zm0 0"/><path fill="none" stroke="#000" stroke-miterlimit="10" stroke-width=".39684939" d="M81.809 47.672h-12.04M69.969 47.672H54.043"/><use xlink:href="#b" x="3.303" y="50.099"/><use xlink:href="#c" x="6.603" y="50.099"/><use xlink:href="#d" x="11.557" y="50.099"/><use xlink:href="#e" x="14.312" y="50.099"/><use xlink:href="#f" x="20.911" y="50.099"/><use xlink:href="#g" x="86.631" y="10.129"/><use xlink:href="#f" x="93.23" y="10.129"/><use xlink:href="#b" x="81.127" y="90.917"/><use xlink:href="#e" x="84.426" y="90.917"/><use xlink:href="#d" x="89.381" y="90.917"/><use xlink:href="#h" x="92.136" y="90.917"/><use xlink:href="#f" x="98.735" y="90.917"/></svg>