<svg xmlns="http://www.w3.org/2000/svg" xmlns:xlink="http://www.w3.org/1999/xlink" width="110.524" height="138.473"><defs><clipPath id="d"><path d="M57 134h4v3.914h-4Zm0 0"/></clipPath><clipPath id="e"><path d="M52 128h15v9.914H52Zm0 0"/></clipPath><clipPath id="g"><path d="M57 134h4v3.914h-4Zm0 0"/></clipPath><clipPath id="h"><path d="M52 128h15v9.914H52Zm0 0"/></clipPath><clipPath id="i"><path d="M11 134h4v3.914h-4Zm0 0"/></clipPath><clipPath id="j"><path d="M6 128h15v9.914H6Zm0 0"/></clipPath><clipPath id="k"><path d="M88 134h4v3.914h-4Zm0 0"/></clipPath><clipPath id="l"><path d="M82 128h16v9.914H82Zm0 0"/></clipPath><path id="a" d="M3.703-6.016c.094-.359.125-.453.906-.453.25 0 .329 0 .329-.187 0-.125-.11-.125-.157-.125-.281 0-1.015.031-1.312.031-.297 0-1.016-.031-1.313-.031-.078 0-.203 0-.203.203 0 .11.094.11.281.11.422 0 .688 0 .688.187 0 .047 0 .062-.031.156L1.563-.781c-.094.375-.125.469-.907.469-.234 0-.312 0-.312.203 0 .109.11.109.14.109C.781 0 1.5-.031 1.781-.031 2.078-.031 2.813 0 3.11 0c.079 0 .204 0 .204-.187 0-.125-.079-.125-.297-.125-.172 0-.235 0-.422-.016-.219-.016-.25-.063-.25-.172 0-.078.015-.156.031-.219Zm0 0"/><path id="b" d="M3.719-6.094c.062-.234.094-.328.281-.36.094-.015.406-.015.61-.015.702 0 1.796 0 1.796.985 0 .328-.156 1.015-.547 1.406-.25.266-.78.578-1.671.578h-1.11Zm1.437 2.719c1-.219 2.172-.906 2.172-1.906 0-.86-.89-1.5-2.187-1.5H2.313c-.204 0-.282 0-.282.203 0 .11.078.11.266.11.031 0 .219 0 .375.015.187.031.281.031.281.156 0 .047-.015.078-.047.188L1.578-.781c-.094.39-.125.469-.906.469-.172 0-.266 0-.266.203C.406 0 .531 0 .546 0c.282 0 .97-.031 1.25-.031.282 0 .985.031 1.267.031.078 0 .187 0 .187-.203 0-.11-.078-.11-.281-.11-.36 0-.64 0-.64-.171 0-.063.015-.11.03-.172l.657-2.625h1.187c.89 0 1.078.547 1.078.906 0 .14-.078.453-.14.672-.079.281-.157.656-.157.844C4.984.219 6.172.219 6.297.219c.844 0 1.187-1 1.187-1.14 0-.126-.109-.126-.109-.126-.094 0-.11.078-.125.14C7-.171 6.563 0 6.344 0c-.328 0-.407-.219-.407-.61 0-.296.063-.812.11-1.124.016-.141.031-.328.031-.47 0-.765-.656-1.077-.922-1.171m0 0"/><path id="m" d="M6.297-5.734c.11-.407.281-.703 1.078-.735.047 0 .172-.015.172-.203 0 0 0-.11-.14-.11-.329 0-.673.032-1 .032-.344 0-.72-.031-1.032-.031-.062 0-.187 0-.187.203 0 .11.093.11.187.11.563.015.672.218.672.437 0 .031-.031.172-.031.203l-.891 3.547C4.781-.953 3.641-.094 2.656-.094c-.687 0-1.219-.437-1.219-1.281 0-.031 0-.344.11-.781l.969-3.86c.078-.359.109-.453.828-.453.265 0 .344 0 .344-.203 0-.11-.11-.11-.141-.11-.281 0-1 .032-1.281.032-.282 0-.985-.031-1.282-.031-.078 0-.187 0-.187.203 0 .11.094.11.281.11.016 0 .219 0 .375.015.188.031.266.031.266.156 0 .063-.094.484-.157.703l-.218.875c-.094.39-.563 2.266-.61 2.453-.062.282-.062.438-.062.579 0 1.218.89 1.906 1.937 1.906 1.25 0 2.485-1.125 2.813-2.438Zm0 0"/><path id="c" d="M2.328-4.406c0-.188-.015-.203-.219-.203-.437.437-1.062.453-1.359.453v.25c.172 0 .625 0 1.016-.203v3.547c0 .218 0 .312-.703.312h-.25V0c.109 0 .968-.031 1.234-.031C2.25-.031 3.125 0 3.28 0v-.25h-.265c-.688 0-.688-.094-.688-.312Zm0 0"/><path id="f" d="M3.5-1.266h-.234c-.016.157-.094.563-.172.641-.063.031-.594.031-.688.031H1.125c.734-.64.969-.828 1.39-1.156.516-.422.985-.844.985-1.5 0-.844-.734-1.36-1.625-1.36-.86 0-1.437.61-1.437 1.25 0 .344.296.391.375.391.156 0 .359-.125.359-.375 0-.125-.047-.375-.406-.375.218-.484.687-.64 1.015-.64.688 0 1.047.547 1.047 1.109 0 .594-.422 1.078-.656 1.328L.5-.266C.438-.203.438-.187.438 0h2.859Zm0 0"/></defs><path fill="none" stroke="#000" stroke-miterlimit="10" stroke-width=".39728829" d="M13.402 13.625h22.973m0 0H74.66m0 0h15.313"/><path fill="#FFF" stroke="#000" stroke-miterlimit="10" stroke-width=".39728829" d="M14.984 13.625a1.58 1.58 0 1 0-3.16-.003 1.58 1.58 0 0 0 3.16.003Zm0 0"/><path stroke="#000" stroke-miterlimit="10" stroke-width=".39728829" d="M34.648 13.625v1.977l4.196-1.977-4.196-1.977Zm0 0"/><use xlink:href="#a" x="33.805" y="10.12"/><path fill="#FFF" stroke="#000" stroke-miterlimit="10" stroke-width=".39728829" d="M91.555 13.625a1.58 1.58 0 1 0-3.161-.003 1.58 1.58 0 0 0 3.16.003Zm0 0"/><path fill="none" stroke="#000" stroke-miterlimit="10" stroke-width=".39728829" d="M59.348 13.625v14.82m0 31.614v29.644m0 31.61v14.824"/><path fill="none" stroke="#000" stroke-miterlimit="10" stroke-width=".79358087" d="M53.418 60.059V28.445h11.855V60.06Zm0 0"/><path stroke="#000" stroke-miterlimit="10" stroke-width=".39728829" d="M60.926 13.625a1.58 1.58 0 1 0-3.16-.005 1.58 1.58 0 0 0 3.16.005ZM60.926 74.879a1.58 1.58 0 1 0-3.161.003 1.58 1.58 0 0 0 3.16-.003Zm0 0"/><use xlink:href="#b" x="39.24" y="46.39"/><use xlink:href="#c" x="46.773" y="47.877"/><path fill="none" stroke="#000" stroke-miterlimit="10" stroke-width=".79358087" d="M53.418 121.313v-31.61h11.855v31.61Zm0 0"/><path stroke="#000" stroke-miterlimit="10" stroke-width=".39728829" d="M60.926 74.879a1.58 1.58 0 1 0-3.161.003 1.58 1.58 0 0 0 3.16-.003Zm0 0"/><g clip-path="url(#d)"><path d="M60.926 136.137a1.58 1.58 0 1 0-3.16-.005 1.58 1.58 0 0 0 3.16.005m0 0"/></g><g clip-path="url(#e)"><path fill="none" stroke="#000" stroke-miterlimit="10" stroke-width=".39728829" d="M60.926 136.137a1.58 1.58 0 1 0-3.16-.005 1.58 1.58 0 0 0 3.16.005Zm0 0"/></g><use xlink:href="#b" x="39.24" y="107.645"/><use xlink:href="#f" x="46.773" y="109.133"/><path fill="none" stroke="#000" stroke-miterlimit="10" stroke-width=".39728829" d="M59.348 136.137H36.375m0 0H13.402"/><g clip-path="url(#g)"><path d="M60.926 136.137a1.58 1.58 0 1 0-3.16-.005 1.58 1.58 0 0 0 3.16.005m0 0"/></g><g clip-path="url(#h)"><path fill="none" stroke="#000" stroke-miterlimit="10" stroke-width=".39728829" d="M60.926 136.137a1.58 1.58 0 1 0-3.16-.005 1.58 1.58 0 0 0 3.16.005Zm0 0"/></g><g clip-path="url(#i)"><path fill="#FFF" d="M14.984 136.137a1.58 1.58 0 1 0-3.16-.004 1.58 1.58 0 0 0 3.16.004m0 0"/></g><g clip-path="url(#j)"><path fill="none" stroke="#000" stroke-miterlimit="10" stroke-width=".39728829" d="M14.984 136.137a1.58 1.58 0 1 0-3.16-.003 1.58 1.58 0 0 0 3.16.003Zm0 0"/></g><path fill="none" stroke="#000" stroke-miterlimit="10" stroke-width=".39728829" d="M59.348 136.137H74.66m0 0h15.313"/><g clip-path="url(#k)"><path fill="#FFF" d="M91.555 136.137a1.58 1.58 0 1 0-3.161-.004 1.58 1.58 0 0 0 3.16.004m0 0"/></g><g clip-path="url(#l)"><path fill="none" stroke="#000" stroke-miterlimit="10" stroke-width=".39728829" d="M91.555 136.137a1.58 1.58 0 1 0-3.161-.003 1.58 1.58 0 0 0 3.16.003Zm0 0"/></g><path fill="none" stroke="#000" stroke-miterlimit="10" stroke-width=".39728829" d="M59.348 74.879H74.66m0 0h15.313"/><path stroke="#000" stroke-miterlimit="10" stroke-width=".39728829" d="M60.926 74.879a1.58 1.58 0 1 0-3.161.003 1.58 1.58 0 0 0 3.16-.003Zm0 0"/><path fill="#FFF" stroke="#000" stroke-miterlimit="10" stroke-width=".39728829" d="M91.555 74.879a1.58 1.58 0 1 0-3.16.003 1.58 1.58 0 0 0 3.16-.003Zm0 0"/><path fill="none" stroke="#000" stroke-miterlimit="10" stroke-width=".39728829" d="M89.973 84.02v42.976"/><path stroke="#000" stroke-miterlimit="10" stroke-width=".39728829" d="M89.973 122.797H88l1.973 4.2 1.976-4.2Zm0 0"/><use xlink:href="#m" x="93.539" y="108.153"/><use xlink:href="#f" x="100.313" y="109.64"/><path fill="none" stroke="#000" stroke-miterlimit="10" stroke-width=".39728829" d="M13.402 31.953v85.856"/><path stroke="#000" stroke-miterlimit="10" stroke-width=".39728829" d="M13.402 113.61H11.43l1.972 4.199 1.977-4.2Zm0 0"/><use xlink:href="#m" x="1.984" y="78.269"/></svg>