<svg xmlns="http://www.w3.org/2000/svg" xmlns:xlink="http://www.w3.org/1999/xlink" width="113.04" height="118.417"><defs><clipPath id="a"><path d="M0 .21h4V4H0Zm0 0"/></clipPath><clipPath id="b"><path d="M0 .21h9V10H0Zm0 0"/></clipPath><clipPath id="c"><path d="M28 .21h4V4h-4Zm0 0"/></clipPath><clipPath id="d"><path d="M23 .21h15V10H23Zm0 0"/></clipPath><clipPath id="e"><path d="M28 .21h4V4h-4Zm0 0"/></clipPath><clipPath id="f"><path d="M23 .21h15V10H23Zm0 0"/></clipPath><clipPath id="i"><path d="M28 114h4v3.629h-4Zm0 0"/></clipPath><clipPath id="j"><path d="M23 108h15v9.629H23Zm0 0"/></clipPath><clipPath id="l"><path d="M0 114h4v3.629H0Zm0 0"/></clipPath><clipPath id="m"><path d="M0 108h9v9.629H0Zm0 0"/></clipPath><path id="g" d="M3.703-6.062c.063-.235.094-.344.281-.36.079-.016.407-.016.594-.016.703 0 1.797 0 1.797.985 0 .328-.156 1.016-.531 1.39-.266.266-.782.579-1.672.579h-1.11ZM5.125-3.36c1-.22 2.172-.907 2.172-1.907 0-.843-.89-1.484-2.188-1.484H2.297c-.188 0-.281 0-.281.203 0 .11.093.11.28.11.017 0 .204 0 .376.015.172.016.265.031.265.156 0 .047-.015.079-.046.188L1.563-.766c-.094.375-.11.454-.891.454-.172 0-.266 0-.266.203 0 .109.11.109.14.109.266 0 .97-.031 1.235-.031.282 0 .985.031 1.266.031.078 0 .187 0 .187-.203 0-.11-.078-.11-.265-.11-.375 0-.64 0-.64-.171 0-.063.015-.11.015-.172L3-3.266h1.172c.906 0 1.078.547 1.078.891 0 .156-.078.453-.14.688-.063.28-.157.64-.157.843C4.953.22 6.141.22 6.266.22c.843 0 1.187-1 1.187-1.14 0-.11-.11-.11-.11-.11-.093 0-.109.062-.14.125-.234.734-.672.906-.89.906-.329 0-.391-.219-.391-.61 0-.296.047-.796.094-1.124.015-.125.03-.313.03-.453 0-.766-.655-1.079-.921-1.172m0 0"/><path id="h" d="M2.313-4.406c0-.188 0-.188-.204-.188-.437.438-1.078.438-1.359.438v.25c.172 0 .625 0 1.016-.188v3.532c0 .218 0 .312-.703.312H.797V0C.922 0 1.78-.031 2.03-.031c.219 0 1.094.031 1.25.031v-.25h-.265c-.703 0-.703-.094-.703-.312Zm0 0"/><path id="k" d="M3.5-1.266h-.234c-.032.157-.094.563-.188.641-.047.031-.594.031-.687.031H1.125c.719-.64.969-.828 1.375-1.156.516-.406 1-.844 1-1.5 0-.828-.734-1.344-1.625-1.344-.86 0-1.437.594-1.437 1.235 0 .359.296.39.359.39a.369.369 0 0 0 .375-.375c0-.11-.047-.36-.406-.36.203-.483.687-.64 1-.64.703 0 1.062.532 1.062 1.094 0 .61-.437 1.078-.656 1.328L.5-.266C.438-.203.438-.187.438 0H3.28Zm0 0"/><path id="n" d="M1.89-2.312c.532 0 .923.374.923 1.109 0 .86-.5 1.125-.891 1.125-.281 0-.89-.078-1.188-.484.329-.016.407-.25.407-.391a.37.37 0 0 0-.375-.375c-.203 0-.391.11-.391.39 0 .657.719 1.079 1.563 1.079.953 0 1.625-.641 1.625-1.344 0-.531-.454-1.078-1.204-1.234.72-.266.985-.782.985-1.204 0-.546-.625-.953-1.406-.953-.766 0-1.344.375-1.344.922 0 .235.14.375.36.375.202 0 .343-.156.343-.36 0-.202-.14-.343-.344-.359.235-.296.719-.375.969-.375.312 0 .75.141.75.75 0 .297-.094.61-.281.829-.22.265-.422.265-.766.296-.172.016-.187.016-.219.016-.015 0-.078.016-.078.094 0 .094.063.094.188.094Zm0 0"/></defs><path fill="none" stroke="#000" stroke-miterlimit="10" stroke-width=".39564042000000005" d="M1.77 1.98h14.234m0 0H58.71m0 0H87.18"/><g clip-path="url(#a)"><path fill="#FFF" d="M3.344 1.98a1.575 1.575 0 1 0-3.15.001 1.575 1.575 0 0 0 3.15 0m0 0"/></g><g clip-path="url(#b)"><path fill="none" stroke="#000" stroke-miterlimit="10" stroke-width=".39564042000000005" d="M3.344 1.98a1.575 1.575 0 1 0-3.15.001 1.575 1.575 0 0 0 3.15 0Zm0 0"/></g><g clip-path="url(#c)"><path d="M31.813 1.98c0-.867-.704-1.574-1.57-1.574a1.575 1.575 0 0 0 0 3.149c.866 0 1.57-.703 1.57-1.575m0 0"/></g><g clip-path="url(#d)"><path fill="none" stroke="#000" stroke-miterlimit="10" stroke-width=".39564042000000005" d="M31.813 1.98c0-.867-.704-1.574-1.57-1.574a1.575 1.575 0 0 0 0 3.149c.866 0 1.57-.703 1.57-1.575Zm0 0"/></g><path fill="none" stroke="#000" stroke-miterlimit="10" stroke-width=".39564042000000005" d="M30.242 1.98v12.73m0 31.481v25.457m0 31.48v12.731H16.004m0 0H1.77"/><path fill="none" stroke="#000" stroke-miterlimit="10" stroke-width=".7902892600000001" d="M24.336 46.191v-31.48h11.809v31.48Zm0 0"/><g clip-path="url(#e)"><path d="M31.813 1.98c0-.867-.704-1.574-1.57-1.574a1.575 1.575 0 0 0 0 3.149c.866 0 1.57-.703 1.57-1.575m0 0"/></g><g clip-path="url(#f)"><path fill="none" stroke="#000" stroke-miterlimit="10" stroke-width=".39564042000000005" d="M31.813 1.98c0-.867-.704-1.574-1.57-1.574a1.575 1.575 0 0 0 0 3.149c.866 0 1.57-.703 1.57-1.575Zm0 0"/></g><use xlink:href="#g" x="38.33" y="32.579"/><use xlink:href="#h" x="45.831" y="34.06"/><path fill="none" stroke="#000" stroke-miterlimit="10" stroke-width=".7902892600000001" d="M24.336 103.129v-31.48h11.809v31.48Zm0 0"/><g clip-path="url(#i)"><path d="M31.813 115.86a1.571 1.571 0 1 0-3.145 0c0 .867.703 1.574 1.574 1.574.867 0 1.57-.707 1.57-1.575m0 0"/></g><g clip-path="url(#j)"><path fill="none" stroke="#000" stroke-miterlimit="10" stroke-width=".39564042000000005" d="M31.813 115.86a1.571 1.571 0 1 0-3.145 0c0 .867.703 1.574 1.574 1.574.867 0 1.57-.707 1.57-1.575Zm0 0"/></g><use xlink:href="#g" x="38.33" y="89.517"/><use xlink:href="#k" x="45.831" y="91"/><g clip-path="url(#l)"><path fill="#FFF" d="M3.344 115.86a1.575 1.575 0 1 0-3.148 0 1.575 1.575 0 0 0 3.148 0m0 0"/></g><g clip-path="url(#m)"><path fill="none" stroke="#000" stroke-miterlimit="10" stroke-width=".39564042000000005" d="M3.344 115.86a1.575 1.575 0 1 0-3.148 0 1.575 1.575 0 0 0 3.148 0Zm0 0"/></g><path fill="none" stroke="#000" stroke-miterlimit="10" stroke-width=".39564042000000005" d="M30.242 115.86h28.469m0 0H87.18v-41.2m0-31.48V1.98"/><path fill="none" stroke="#000" stroke-miterlimit="10" stroke-width=".7902892600000001" d="M93.082 43.18v31.48H81.277V43.18Zm0 0"/><use xlink:href="#g" x="95.269" y="61.048"/><use xlink:href="#n" x="102.769" y="62.529"/></svg>