<svg xmlns="http://www.w3.org/2000/svg" xmlns:xlink="http://www.w3.org/1999/xlink" width="110.229" height="180.776"><defs><clipPath id="b"><path d="M97 6h12.465v16H97Zm0 0"/></clipPath><clipPath id="f"><path d="M56 171h15v9.035H56Zm0 0"/></clipPath><clipPath id="h"><path d="M56 171h15v9.035H56Zm0 0"/></clipPath><clipPath id="i"><path d="M0 171h9v9.035H0Zm0 0"/></clipPath><clipPath id="j"><path d="M97 171h12.465v9.035H97Zm0 0"/></clipPath><clipPath id="k"><path d="M97 88h12.465v16H97Zm0 0"/></clipPath><path id="a" d="M3.703-6c.078-.344.11-.453.89-.453.25 0 .329 0 .329-.188 0-.109-.11-.109-.156-.109-.282 0-1.016.031-1.297.031-.297 0-1.031-.031-1.328-.031-.063 0-.188 0-.188.188 0 .109.078.109.266.109.422 0 .687 0 .687.187 0 .047 0 .079-.015.157L1.547-.766c-.078.36-.11.454-.89.454-.235 0-.313 0-.313.203 0 .109.11.109.14.109C.766 0 1.5-.031 1.781-.031 2.078-.031 2.813 0 3.11 0c.079 0 .188 0 .188-.187 0-.125-.078-.125-.297-.125-.172 0-.219 0-.422-.016-.203-.016-.25-.063-.25-.172 0-.078.031-.156.047-.219Zm0 0"/><path id="c" d="M3.703-6.078c.063-.234.094-.328.281-.36.094-.015.407-.015.61-.015.703 0 1.797 0 1.797.984 0 .328-.157 1.016-.547 1.407-.25.25-.782.578-1.672.578h-1.11ZM5.141-3.36c.984-.22 2.172-.907 2.172-1.907 0-.859-.891-1.484-2.188-1.484H2.297c-.188 0-.281 0-.281.188 0 .109.093.109.28.109.017 0 .204 0 .376.031.172.016.265.016.265.156 0 .032-.015.063-.046.188L1.578-.766c-.11.375-.125.454-.906.454-.172 0-.266 0-.266.203C.406 0 .531 0 .546 0c.282 0 .97-.031 1.25-.031.266 0 .97.031 1.25.031.079 0 .204 0 .204-.203 0-.11-.094-.11-.281-.11-.375 0-.64 0-.64-.171 0-.063.015-.11.03-.172L3-3.281h1.188c.89 0 1.078.562 1.078.906 0 .156-.079.453-.141.688-.078.265-.156.64-.156.843C4.969.22 6.156.22 6.28.22c.844 0 1.188-1 1.188-1.14 0-.11-.11-.11-.125-.11-.078 0-.11.062-.125.125-.25.734-.672.906-.907.906-.312 0-.39-.219-.39-.61 0-.296.062-.812.094-1.124.03-.141.046-.328.046-.47 0-.75-.656-1.062-.921-1.155m0 0"/><path id="e" d="M6.281-5.719c.094-.406.282-.703 1.063-.734.047 0 .172 0 .172-.188 0-.015 0-.109-.125-.109-.328 0-.672.031-1.016.031-.328 0-.703-.031-1.031-.031-.047 0-.172 0-.172.188 0 .109.094.109.172.109.578.016.672.219.672.437 0 .032-.016.188-.016.204l-.89 3.53C4.765-.952 3.624-.093 2.64-.093c-.671 0-1.203-.437-1.203-1.281 0-.016 0-.344.11-.766L2.5-6c.094-.344.11-.453.828-.453.266 0 .344 0 .344-.188 0-.109-.11-.109-.14-.109-.282 0-.985.031-1.266.031-.282 0-.985-.031-1.282-.031-.078 0-.187 0-.187.188 0 .109.094.109.281.109.016 0 .203 0 .375.031.172.016.266.016.266.156 0 .047-.11.47-.172.704l-.219.859C1.25-4.313.766-2.437.734-2.25c-.078.266-.078.422-.078.563C.656-.47 1.563.218 2.594.218c1.25 0 2.484-1.125 2.812-2.422Zm0 0"/><path id="d" d="M2.313-4.406c0-.188 0-.188-.204-.188-.437.438-1.078.438-1.359.438v.25c.172 0 .625 0 1.016-.188v3.532c0 .218 0 .312-.703.312H.797V0C.922 0 1.78-.031 2.03-.031c.219 0 1.094.031 1.25.031v-.25h-.265c-.703 0-.703-.094-.703-.312Zm0 0"/><path id="g" d="M3.5-1.266h-.234c-.032.157-.094.563-.188.641-.047.031-.594.031-.687.031H1.125c.719-.64.969-.828 1.375-1.156.516-.406 1-.844 1-1.5 0-.828-.734-1.344-1.625-1.344-.86 0-1.437.594-1.437 1.235 0 .359.296.39.359.39a.369.369 0 0 0 .375-.375c0-.11-.047-.36-.406-.36.203-.483.687-.64 1-.64.703 0 1.062.532 1.062 1.094 0 .61-.437 1.078-.656 1.328L.5-.266C.438-.203.438-.187.438 0H3.28Zm0 0"/></defs><path fill="none" stroke="#000" stroke-miterlimit="10" stroke-width=".39622695" d="M1.773 14.07H32.56m0 0H83.87m0 0h20.524"/><path fill="#FFF" stroke="#000" stroke-miterlimit="10" stroke-width=".39622695" d="M3.352 14.07a1.575 1.575 0 1 0-3.152 0 1.575 1.575 0 0 0 3.152 0Zm0 0"/><path stroke="#000" stroke-miterlimit="10" stroke-width=".39622695" d="M30.836 14.07v1.97l4.187-1.97-4.187-1.972Zm0 0"/><use xlink:href="#a" x="29.997" y="10.574"/><path fill="#FFF" d="M105.973 14.07a1.575 1.575 0 1 0-3.152 0 1.575 1.575 0 0 0 3.152 0m0 0"/><g clip-path="url(#b)"><path fill="none" stroke="#000" stroke-miterlimit="10" stroke-width=".39622695" d="M105.973 14.07a1.575 1.575 0 1 0-3.152 0 1.575 1.575 0 0 0 3.152 0Zm0 0"/></g><path fill="none" stroke="#000" stroke-miterlimit="10" stroke-width=".39622695" d="M63.348 14.07v25.285m9.656-13.695v58.914m-9.656-13.691v50.57m9.656-13.695v58.914m-9.656-13.692v25.286"/><path fill="none" stroke="#000" stroke-miterlimit="10" stroke-width=".79146085" d="M57.434 70.883V39.355h11.824v31.528Zm0 0"/><path stroke="#000" stroke-miterlimit="10" stroke-width=".39622695" d="M64.922 14.07a1.575 1.575 0 1 0-3.152 0c0 .871.707 1.575 1.578 1.575.87 0 1.574-.704 1.574-1.575ZM64.922 96.168a1.575 1.575 0 1 0-3.152 0c0 .871.707 1.574 1.578 1.574.87 0 1.574-.703 1.574-1.574Zm0 0"/><use xlink:href="#c" x="43.294" y="57.25"/><use xlink:href="#d" x="50.807" y="58.733"/><path stroke="#000" stroke-miterlimit="10" stroke-width=".39622695" d="M73.004 80.387H71.03l1.973 4.187 1.969-4.187Zm0 0"/><use xlink:href="#e" x="75.178" y="57.756"/><use xlink:href="#d" x="81.933" y="59.24"/><path fill="none" stroke="#000" stroke-miterlimit="10" stroke-width=".79146085" d="M57.434 152.98v-31.527h11.824v31.527Zm0 0"/><path stroke="#000" stroke-miterlimit="10" stroke-width=".39622695" d="M64.922 96.168a1.575 1.575 0 1 0-3.152 0c0 .871.707 1.574 1.578 1.574.87 0 1.574-.703 1.574-1.574Zm0 0"/><path d="M64.922 178.266a1.575 1.575 0 1 0-3.152 0c0 .87.707 1.574 1.578 1.574.87 0 1.574-.703 1.574-1.574m0 0"/><g clip-path="url(#f)"><path fill="none" stroke="#000" stroke-miterlimit="10" stroke-width=".39622695" d="M64.922 178.266a1.575 1.575 0 1 0-3.152 0c0 .87.707 1.574 1.578 1.574.87 0 1.574-.703 1.574-1.574Zm0 0"/></g><use xlink:href="#c" x="43.294" y="139.347"/><use xlink:href="#g" x="50.807" y="140.83"/><path stroke="#000" stroke-miterlimit="10" stroke-width=".39622695" d="M73.004 162.484H71.03l1.973 4.188 1.969-4.188Zm0 0"/><use xlink:href="#e" x="75.178" y="139.853"/><use xlink:href="#g" x="81.933" y="141.337"/><path fill="none" stroke="#000" stroke-miterlimit="10" stroke-width=".39622695" d="M63.348 178.266h-30.79m0 0H1.774"/><path d="M64.922 178.266a1.575 1.575 0 1 0-3.152 0c0 .87.707 1.574 1.578 1.574.87 0 1.574-.703 1.574-1.574m0 0"/><g clip-path="url(#h)"><path fill="none" stroke="#000" stroke-miterlimit="10" stroke-width=".39622695" d="M64.922 178.266a1.575 1.575 0 1 0-3.152 0c0 .87.707 1.574 1.578 1.574.87 0 1.574-.703 1.574-1.574Zm0 0"/></g><path fill="#FFF" d="M3.352 178.266a1.575 1.575 0 1 0-3.152 0 1.575 1.575 0 0 0 3.152 0m0 0"/><g clip-path="url(#i)"><path fill="none" stroke="#000" stroke-miterlimit="10" stroke-width=".39622695" d="M3.352 178.266a1.575 1.575 0 1 0-3.152 0 1.575 1.575 0 0 0 3.152 0Zm0 0"/></g><path fill="none" stroke="#000" stroke-miterlimit="10" stroke-width=".39622695" d="M63.348 178.266H83.87m0 0h20.524"/><path fill="#FFF" d="M105.973 178.266a1.575 1.575 0 1 0-3.152 0c0 .87.702 1.574 1.574 1.574.87 0 1.578-.703 1.578-1.574m0 0"/><g clip-path="url(#j)"><path fill="none" stroke="#000" stroke-miterlimit="10" stroke-width=".39622695" d="M105.973 178.266a1.575 1.575 0 1 0-3.152 0c0 .87.702 1.574 1.574 1.574.87 0 1.578-.703 1.578-1.574Zm0 0"/></g><path fill="none" stroke="#000" stroke-miterlimit="10" stroke-width=".39622695" d="M63.348 96.168H83.87m0 0h20.524"/><path stroke="#000" stroke-miterlimit="10" stroke-width=".39622695" d="M64.922 96.168a1.575 1.575 0 1 0-3.152 0c0 .871.707 1.574 1.578 1.574.87 0 1.574-.703 1.574-1.574Zm0 0"/><path fill="#FFF" d="M105.973 96.168a1.575 1.575 0 1 0-3.152 0c0 .871.702 1.574 1.574 1.574.87 0 1.578-.703 1.578-1.574m0 0"/><g clip-path="url(#k)"><path fill="none" stroke="#000" stroke-miterlimit="10" stroke-width=".39622695" d="M105.973 96.168a1.575 1.575 0 1 0-3.152 0c0 .871.702 1.574 1.574 1.574.87 0 1.578-.703 1.578-1.574Zm0 0"/></g></svg>