<svg xmlns="http://www.w3.org/2000/svg" xmlns:xlink="http://www.w3.org/1999/xlink" width="227.697" height="164.141"><defs><path id="e" d="M2.906-1.64v.874c0 .344-.015.454-.75.454h-.203V0c.406-.031.922-.031 1.328-.031.422 0 .953 0 1.36.031v-.312h-.22c-.734 0-.75-.11-.75-.454v-.875h1v-.296h-1v-4.516c0-.188 0-.25-.155-.25-.094 0-.125 0-.203.11L.28-1.938v.296Zm.063-.298H.563L2.969-5.64Zm0 0"/><path id="f" d="M4.563-3.172c0-.797-.063-1.578-.407-2.312-.453-.953-1.265-1.11-1.672-1.11-.609 0-1.328.25-1.734 1.172-.312.688-.36 1.453-.36 2.25 0 .75.032 1.64.438 2.39.438.798 1.156 1 1.64 1C3 .219 3.75.017 4.189-.936c.312-.672.375-1.454.375-2.235M2.469 0c-.39 0-.969-.25-1.156-1.203-.11-.594-.11-1.5-.11-2.078 0-.64 0-1.297.078-1.828.188-1.188.938-1.266 1.188-1.266.328 0 .984.172 1.172 1.156.093.547.093 1.313.093 1.938 0 .734 0 1.406-.109 2.047C3.485-.297 2.906 0 2.469 0m0 0"/><path id="g" d="M6.703-1.61h-.25c-.047.266-.078.485-.172.735-.047.156-.078.234-.656.234h-.797c.14-.562.438-1.03.89-1.687.47-.703.876-1.39.876-2.172 0-1.375-1.344-2.484-3.016-2.484C1.875-6.984.563-5.86.563-4.5c0 .781.39 1.469.859 2.172.437.656.75 1.125.89 1.687h-.796c-.578 0-.61-.078-.657-.234-.078-.219-.125-.484-.171-.734h-.25L.766 0h1.578c.219 0 .25 0 .25-.203 0-.703-.313-1.563-.531-2.203-.204-.578-.485-1.36-.485-2.094 0-1.594 1.094-2.266 1.985-2.266.953 0 2 .72 2 2.266 0 .734-.266 1.484-.547 2.297-.157.422-.47 1.312-.47 2 0 .203.032.203.25.203h1.579Zm0 0"/><path id="i" d="M2.906-6.344c0-.234 0-.25-.219-.25-.609.625-1.484.625-1.812.625v.313c.203 0 .797 0 1.297-.25v5.125c0 .36-.016.469-.906.469H.938V0c.343-.031 1.218-.031 1.609-.031.39 0 1.25 0 1.61.031v-.312h-.329c-.89 0-.922-.11-.922-.47Zm0 0"/><path id="j" d="M4.453-1.984c0-1.188-.812-2.172-1.89-2.172-.47 0-.891.156-1.25.5v-1.938c.187.063.515.14.843.14 1.219 0 1.906-.905 1.906-1.03 0-.063-.03-.11-.093-.11-.016 0-.031 0-.078.032-.203.078-.688.28-1.36.28-.39 0-.844-.062-1.312-.28-.078-.032-.094-.032-.125-.032-.094 0-.094.078-.094.25v2.922c0 .188 0 .266.14.266.063 0 .094-.031.126-.094.109-.156.484-.687 1.28-.687.517 0 .767.453.845.624.156.376.172.75.172 1.25 0 .344 0 .938-.235 1.36-.234.39-.61.64-1.062.64-.72 0-1.282-.515-1.453-1.109.03.016.062.016.171.016.329 0 .485-.235.485-.485 0-.234-.157-.484-.485-.484-.14 0-.484.078-.484.531C.5-.75 1.172.22 2.281.22a2.194 2.194 0 0 0 2.172-2.203m0 0"/><path id="k" d="M1.266-.766 2.313-1.78c1.546-1.375 2.14-1.906 2.14-2.89 0-1.141-.89-1.923-2.11-1.923C1.235-6.594.5-5.687.5-4.797c0 .547.484.547.516.547a.516.516 0 0 0 .515-.531c0-.25-.172-.516-.515-.516-.079 0-.11 0-.141.016.234-.64.766-1.016 1.344-1.016.906 0 1.328.813 1.328 1.625 0 .781-.5 1.578-1.047 2.188L.61-.36C.5-.25.5-.234.5 0h3.672l.281-1.719h-.25c-.047.297-.125.735-.219.875-.078.078-.718.078-.937.078Zm0 0"/><clipPath id="a"><path d="M.441 66H4v5H.441Zm0 0"/></clipPath><clipPath id="b"><path d="M.441 61H10v15H.441Zm0 0"/></clipPath><clipPath id="c"><path d="M.441 140H4v4H.441Zm0 0"/></clipPath><clipPath id="d"><path d="M.441 134H10v15H.441Zm0 0"/></clipPath><clipPath id="h"><path d="M214 61h12.953v15H214Zm0 0"/></clipPath></defs><g clip-path="url(#a)"><path fill="#FFF" d="M3.797 68.457a1.579 1.579 0 1 0-3.158.001 1.579 1.579 0 0 0 3.158-.001m0 0"/></g><g clip-path="url(#b)"><path fill="none" stroke="#000" stroke-miterlimit="10" stroke-width=".39692121" d="M3.797 68.457a1.579 1.579 0 1 0-3.158.001 1.579 1.579 0 0 0 3.158-.001Zm0 0"/></g><g clip-path="url(#c)"><path fill="#FFF" d="M3.797 141.676a1.579 1.579 0 1 0-3.158.001 1.579 1.579 0 0 0 3.158-.001m0 0"/></g><g clip-path="url(#d)"><path fill="none" stroke="#000" stroke-miterlimit="10" stroke-width=".39692121" d="M3.797 141.676a1.579 1.579 0 1 0-3.158.001 1.579 1.579 0 0 0 3.158-.001Zm0 0"/></g><path fill="none" stroke="#000" stroke-miterlimit="10" stroke-width=".39692121" d="M3.797 68.457h19.242m31.582 0h41.637m31.582 0h41.637m31.582 0h20.82v36.61m0 0v36.609h-94.04m-31.581 0H3.797"/><path fill="none" stroke="#000" stroke-miterlimit="10" stroke-width=".79284763" d="M23.04 62.535H54.62V74.38H23.04Zm0 0"/><use xlink:href="#e" x="26.166" y="58.74"/><use xlink:href="#f" x="31.122" y="58.74"/><use xlink:href="#f" x="36.077" y="58.74"/><use xlink:href="#g" x="44.333" y="58.74"/><path fill="none" stroke="#000" stroke-miterlimit="10" stroke-width=".79284763" d="M96.258 62.535h31.582V74.38H96.258Zm0 0"/><use xlink:href="#e" x="99.385" y="58.74"/><use xlink:href="#f" x="104.341" y="58.74"/><use xlink:href="#f" x="109.296" y="58.74"/><use xlink:href="#g" x="117.552" y="58.74"/><path fill="none" stroke="#000" stroke-miterlimit="10" stroke-width=".79284763" d="M169.477 62.535h31.582V74.38h-31.582Zm0 0"/><path d="M223.457 68.457a1.579 1.579 0 1 0-3.157.001 1.579 1.579 0 0 0 3.157-.001m0 0"/><g clip-path="url(#h)"><path fill="none" stroke="#000" stroke-miterlimit="10" stroke-width=".39692121" d="M223.457 68.457a1.579 1.579 0 1 0-3.157.001 1.579 1.579 0 0 0 3.157-.001Zm0 0"/></g><use xlink:href="#e" x="172.605" y="58.74"/><use xlink:href="#f" x="177.56" y="58.74"/><use xlink:href="#f" x="182.516" y="58.74"/><use xlink:href="#g" x="190.771" y="58.74"/><path fill="none" stroke="#000" stroke-miterlimit="10" stroke-width=".79284763" d="M96.258 135.754h31.582v11.844H96.258Zm0 0"/><use xlink:href="#i" x="99.385" y="158.117"/><use xlink:href="#j" x="104.341" y="158.117"/><use xlink:href="#f" x="109.296" y="158.117"/><use xlink:href="#g" x="117.552" y="158.117"/><path fill="none" stroke="#000" stroke-miterlimit="10" stroke-width=".39692121" d="M75.438 68.457v24.406m0 0v24.407h20.82m31.582 0h20.82v-8.614m0-31.586v-8.613"/><path stroke="#000" stroke-miterlimit="10" stroke-width=".39692121" d="M77.02 68.457a1.58 1.58 0 0 0-3.16 0 1.58 1.58 0 0 0 3.16 0Zm0 0"/><path fill="none" stroke="#000" stroke-miterlimit="10" stroke-width=".79284763" d="M96.258 111.348h31.582v11.843H96.258Zm0 0"/><use xlink:href="#k" x="99.385" y="107.552"/><use xlink:href="#f" x="104.341" y="107.552"/><use xlink:href="#f" x="109.296" y="107.552"/><use xlink:href="#g" x="117.552" y="107.552"/><path fill="none" stroke="#000" stroke-miterlimit="10" stroke-width=".79284763" d="M154.582 77.07v31.586h-11.844V77.07Zm0 0"/><path stroke="#000" stroke-miterlimit="10" stroke-width=".39692121" d="M150.238 68.457a1.58 1.58 0 0 0-3.16 0 1.58 1.58 0 0 0 3.16 0Zm0 0"/><use xlink:href="#k" x="156.773" y="94.999"/><use xlink:href="#f" x="161.728" y="94.999"/><use xlink:href="#f" x="166.684" y="94.999"/><use xlink:href="#g" x="174.939" y="94.999"/><path fill="none" stroke="#000" stroke-miterlimit="10" stroke-width=".39692121" d="M148.66 68.457V59.84m0-31.582v-8.613h20.817m31.582 0h20.82V44.05m0 0v24.406"/><path fill="none" stroke="#000" stroke-miterlimit="10" stroke-width=".79284763" d="M154.582 28.258V59.84h-11.844V28.258Zm0 0"/><use xlink:href="#k" x="156.773" y="46.186"/><use xlink:href="#f" x="161.728" y="46.186"/><use xlink:href="#f" x="166.684" y="46.186"/><use xlink:href="#g" x="174.939" y="46.186"/><path fill="none" stroke="#000" stroke-miterlimit="10" stroke-width=".79284763" d="M169.477 13.723h31.582v11.843h-31.582Zm0 0"/><use xlink:href="#k" x="172.605" y="9.926"/><use xlink:href="#f" x="177.56" y="9.926"/><use xlink:href="#f" x="182.516" y="9.926"/><use xlink:href="#g" x="190.771" y="9.926"/></svg>