<svg xmlns="http://www.w3.org/2000/svg" xmlns:xlink="http://www.w3.org/1999/xlink" width="227.214" height="163.956"><defs><path id="a" d="M2.578-1.094v-3.093c0-.547 0-1.079.016-1.204 0-.046-.016-.046-.047-.046-.485.312-.969.53-1.75.89.015.11.047.188.125.25.422-.172.61-.219.781-.219.156 0 .188.204.188.516v2.906c0 .75-.25.797-.875.813-.047.062-.047.25 0 .297C1.453.016 1.78 0 2.266 0c.422 0 .64.016 1.093.016.047-.047.047-.235 0-.297-.64-.016-.78-.063-.78-.813m0 0"/><path id="b" d="M2.031.094c.688 0 1.735-.703 1.735-2.797 0-.89-.203-1.656-.61-2.172a1.32 1.32 0 0 0-1.078-.578c-.89 0-1.734 1.062-1.734 2.828 0 .953.297 1.844.797 2.344q.375.375.89.375m.047-5.235c.14 0 .297.063.39.157.282.234.532.906.532 2.109 0 .813-.031 1.375-.156 1.844-.203.734-.64.812-.797.812-.828 0-.922-1.531-.922-2.312 0-2.203.547-2.61.953-2.61m0 0"/><path id="e" d="M2.844-1.687c0 .843-.438 1.468-.969 1.468-.344 0-.469-.218-.594-.39-.125-.157-.265-.297-.453-.297-.172 0-.344.156-.344.328 0 .375.766.672 1.266.672 1.11 0 1.89-.813 1.89-1.938 0-.875-.593-1.656-1.593-1.656-.39 0-.719.078-.875.14l.172-1.484c.343.032.625.078 1.047.078q.398 0 .937-.046l.156-.61-.062-.031c-.516.047-1 .094-1.469.094-.328 0-.656-.016-.969-.047L.672-2.828a2.9 2.9 0 0 1 1.14-.219c.579 0 1.032.39 1.032 1.36m0 0"/><clipPath id="c"><path d="M223 67h3.43v4H223Zm0 0"/></clipPath><clipPath id="d"><path d="M217 61h9.43v15H217Zm0 0"/></clipPath></defs><path fill="#FFF" stroke="#000" stroke-miterlimit="10" stroke-width=".39762345000000004" d="M3.363 68.746a1.582 1.582 0 0 0-3.164 0 1.583 1.583 0 0 0 3.164 0ZM3.363 143.04a1.583 1.583 0 1 0-3.166 0 1.583 1.583 0 0 0 3.166 0Zm0 0"/><path fill="none" stroke="#000" stroke-miterlimit="10" stroke-width=".39762345000000004" d="M3.363 68.746h19.742m31.641 0h42.652m31.637 0h42.653m31.64 0h21.324v37.149m0 0v37.144h-95.617m-31.637 0H3.363"/><path fill="none" stroke="#000" stroke-miterlimit="10" stroke-width=".7942503500000001" d="M23.105 62.816h31.641V74.68h-31.64Zm0 0"/><use xlink:href="#a" x="31.727" y="59.005"/><use xlink:href="#b" x="35.882" y="59.005"/><use xlink:href="#b" x="40.037" y="59.005"/><path fill="none" stroke="#000" stroke-miterlimit="10" stroke-width=".7942503500000001" d="M97.398 62.816h31.637V74.68H97.398Zm0 0"/><use xlink:href="#a" x="106.017" y="59.005"/><use xlink:href="#b" x="110.172" y="59.005"/><use xlink:href="#b" x="114.327" y="59.005"/><path fill="none" stroke="#000" stroke-miterlimit="10" stroke-width=".7942503500000001" d="M171.688 62.816h31.64V74.68h-31.64Zm0 0"/><g clip-path="url(#c)"><path d="M226.234 68.746a1.58 1.58 0 0 0-1.582-1.578 1.58 1.58 0 1 0 0 3.16 1.58 1.58 0 0 0 1.582-1.582m0 0"/></g><g clip-path="url(#d)"><path fill="none" stroke="#000" stroke-miterlimit="10" stroke-width=".39762345000000004" d="M226.234 68.746a1.58 1.58 0 0 0-1.582-1.578 1.58 1.58 0 1 0 0 3.16 1.58 1.58 0 0 0 1.582-1.582Zm0 0"/></g><use xlink:href="#a" x="180.307" y="59.005"/><use xlink:href="#b" x="184.462" y="59.005"/><use xlink:href="#b" x="188.617" y="59.005"/><path fill="none" stroke="#000" stroke-miterlimit="10" stroke-width=".7942503500000001" d="M97.398 137.105h31.637v11.868H97.398Zm0 0"/><use xlink:href="#e" x="108.095" y="158.781"/><use xlink:href="#b" x="112.25" y="158.781"/><path fill="none" stroke="#000" stroke-miterlimit="10" stroke-width=".39762345000000004" d="M76.07 68.746v24.766m0 0v24.761h21.328m31.637 0h21.328v-8.941m0-31.64v-8.946"/><path stroke="#000" stroke-miterlimit="10" stroke-width=".39762345000000004" d="M77.652 68.746a1.58 1.58 0 0 0-1.582-1.578 1.58 1.58 0 1 0 0 3.16 1.58 1.58 0 0 0 1.582-1.582Zm0 0"/><path fill="none" stroke="#000" stroke-miterlimit="10" stroke-width=".7942503500000001" d="M97.398 112.344h31.637v11.863H97.398Zm0 0"/><use xlink:href="#e" x="108.095" y="108.532"/><use xlink:href="#b" x="112.25" y="108.532"/><path fill="none" stroke="#000" stroke-miterlimit="10" stroke-width=".7942503500000001" d="M156.293 77.691v31.641H144.43v-31.64Zm0 0"/><path stroke="#000" stroke-miterlimit="10" stroke-width=".39762345000000004" d="M151.941 68.746a1.58 1.58 0 1 0-3.161.003 1.58 1.58 0 0 0 3.161-.003Zm0 0"/><use xlink:href="#e" x="158.494" y="95.656"/><use xlink:href="#b" x="162.649" y="95.656"/><path fill="none" stroke="#000" stroke-miterlimit="10" stroke-width=".39762345000000004" d="M150.363 68.746v-8.941m0-31.641v-8.945h21.325m31.64 0h21.324v24.765m0 0v24.762"/><path fill="none" stroke="#000" stroke-miterlimit="10" stroke-width=".7942503500000001" d="M156.293 28.164v31.64H144.43v-31.64Zm0 0"/><use xlink:href="#e" x="158.494" y="46.129"/><use xlink:href="#b" x="162.649" y="46.129"/><path fill="none" stroke="#000" stroke-miterlimit="10" stroke-width=".7942503500000001" d="M171.688 13.289h31.64v11.863h-31.64Zm0 0"/><use xlink:href="#e" x="182.385" y="9.479"/><use xlink:href="#b" x="186.54" y="9.479"/></svg>