<svg xmlns="http://www.w3.org/2000/svg" xmlns:xlink="http://www.w3.org/1999/xlink" width="226.771" height="121.466"><defs><clipPath id="a"><path d="M.383 18H4v4H.383Zm0 0"/></clipPath><clipPath id="b"><path d="M.383 12H10v15H.383Zm0 0"/></clipPath><clipPath id="c"><path d="M.383 117H4v3.934H.383Zm0 0"/></clipPath><clipPath id="d"><path d="M.383 111H10v9.934H.383Zm0 0"/></clipPath><clipPath id="h"><path d="M149 117h4v3.934h-4Zm0 0"/></clipPath><clipPath id="i"><path d="M144 111h15v9.934h-15Zm0 0"/></clipPath><path id="e" d="M3.719-6.094c.062-.234.094-.328.281-.36.094-.015.406-.015.61-.015.702 0 1.796 0 1.796.985 0 .328-.156 1.015-.547 1.406-.25.266-.78.578-1.671.578h-1.11Zm1.437 2.719c1-.219 2.172-.906 2.172-1.906 0-.86-.89-1.5-2.187-1.5H2.313c-.204 0-.282 0-.282.203 0 .11.078.11.266.11.031 0 .219 0 .375.015.187.031.281.031.281.156 0 .047-.015.078-.047.188L1.578-.781c-.094.39-.125.469-.906.469-.172 0-.266 0-.266.203C.406 0 .531 0 .546 0c.282 0 .97-.031 1.25-.031.282 0 .985.031 1.267.031.078 0 .187 0 .187-.203 0-.11-.078-.11-.281-.11-.36 0-.64 0-.64-.171 0-.063.015-.11.03-.172l.657-2.625h1.187c.89 0 1.078.547 1.078.906 0 .14-.078.453-.14.672-.079.281-.157.656-.157.844C4.984.219 6.172.219 6.297.219c.844 0 1.187-1 1.187-1.14 0-.126-.109-.126-.109-.126-.094 0-.11.078-.125.14C7-.171 6.563 0 6.344 0c-.328 0-.407-.219-.407-.61 0-.296.063-.812.11-1.124.016-.141.031-.328.031-.47 0-.765-.656-1.077-.922-1.171m0 0"/><path id="f" d="M2.328-4.406c0-.188-.015-.203-.219-.203-.437.437-1.062.453-1.359.453v.25c.172 0 .625 0 1.016-.203v3.547c0 .218 0 .312-.703.312h-.25V0c.109 0 .968-.031 1.234-.031C2.25-.031 3.125 0 3.28 0v-.25h-.265c-.688 0-.688-.094-.688-.312Zm0 0"/><path id="g" d="M1.89-2.312c.548 0 .938.374.938 1.109 0 .86-.5 1.125-.906 1.125-.281 0-.89-.078-1.172-.484a.38.38 0 0 0 .39-.391c0-.219-.156-.39-.374-.39-.203 0-.391.124-.391.406C.375-.281 1.094.14 1.938.14c.968 0 1.625-.641 1.625-1.344 0-.531-.438-1.078-1.204-1.234.735-.266.985-.782.985-1.22 0-.546-.625-.952-1.39-.952-.782 0-1.36.375-1.36.937 0 .235.156.36.36.36.218 0 .343-.157.343-.344 0-.203-.125-.36-.344-.375.235-.297.719-.375.969-.375.312 0 .75.156.75.75 0 .297-.094.625-.266.828-.234.265-.422.281-.781.297-.172.015-.187.015-.219.031-.015 0-.062.016-.062.078 0 .11.062.11.172.11Zm0 0"/><path id="j" d="M3.5-1.266h-.234c-.016.157-.094.563-.172.641-.063.031-.594.031-.688.031H1.125c.734-.64.969-.828 1.39-1.156.516-.422.985-.844.985-1.5 0-.844-.734-1.36-1.625-1.36-.86 0-1.437.61-1.437 1.25 0 .344.296.391.375.391.156 0 .359-.125.359-.375 0-.125-.047-.375-.406-.375.218-.484.687-.64 1.015-.64.688 0 1.047.547 1.047 1.109 0 .594-.422 1.078-.656 1.328L.5-.266C.438-.203.438-.187.438 0h2.859Zm0 0"/></defs><g clip-path="url(#a)"><path fill="#FFF" d="M3.742 19.66a1.58 1.58 0 1 0-3.161-.005 1.58 1.58 0 0 0 3.161.005m0 0"/></g><g clip-path="url(#b)"><path fill="none" stroke="#000" stroke-miterlimit="10" stroke-width=".39725238" d="M3.742 19.66a1.58 1.58 0 1 0-3.161-.005 1.58 1.58 0 0 0 3.161.005Zm0 0"/></g><g clip-path="url(#c)"><path fill="#FFF" d="M3.742 119.156c0-.87-.71-1.582-1.582-1.582-.87 0-1.578.711-1.578 1.582 0 .871.707 1.578 1.578 1.578.871 0 1.582-.707 1.582-1.578m0 0"/></g><g clip-path="url(#d)"><path fill="none" stroke="#000" stroke-miterlimit="10" stroke-width=".39725238" d="M3.742 119.156c0-.87-.71-1.582-1.582-1.582-.87 0-1.578.711-1.578 1.582 0 .871.707 1.578 1.578 1.578.871 0 1.582-.707 1.582-1.578Zm0 0"/></g><path fill="none" stroke="#000" stroke-miterlimit="10" stroke-width=".39725238" d="M3.742 19.66h57.235m31.609 0h58.82"/><path fill="none" stroke="#000" stroke-miterlimit="10" stroke-width=".79350914" d="M60.977 13.734h31.609v11.852h-31.61Zm0 0"/><use xlink:href="#e" x="70.792" y="9.935"/><use xlink:href="#f" x="78.323" y="11.423"/><path fill="none" stroke="#000" stroke-miterlimit="10" stroke-width=".39725238" d="M151.406 19.66h24.871m0 0h24.875v33.942m0 31.609v33.945h-99.496m0 0H3.742"/><path fill="none" stroke="#000" stroke-miterlimit="10" stroke-width=".79350914" d="M195.227 85.21V53.603h11.851V85.21Zm0 0"/><use xlink:href="#e" x="209.273" y="71.545"/><use xlink:href="#g" x="216.805" y="73.033"/><path fill="none" stroke="#000" stroke-miterlimit="10" stroke-width=".39725238" d="M151.406 19.66v33.942m0 31.609v33.945"/><path fill="none" stroke="#000" stroke-miterlimit="10" stroke-width=".79350914" d="M145.477 85.21V53.603h11.855V85.21Zm0 0"/><path stroke="#000" stroke-miterlimit="10" stroke-width=".39725238" d="M152.984 19.66a1.58 1.58 0 1 0-3.159-.005 1.58 1.58 0 0 0 3.16.005Zm0 0"/><g clip-path="url(#h)"><path d="M152.984 119.156c0-.87-.707-1.582-1.578-1.582a1.58 1.58 0 1 0 1.578 1.582m0 0"/></g><g clip-path="url(#i)"><path fill="none" stroke="#000" stroke-miterlimit="10" stroke-width=".39725238" d="M152.984 119.156c0-.87-.707-1.582-1.578-1.582a1.58 1.58 0 1 0 1.578 1.582Zm0 0"/></g><use xlink:href="#e" x="131.3" y="71.545"/><use xlink:href="#j" x="138.831" y="73.033"/></svg>