<svg xmlns="http://www.w3.org/2000/svg" xmlns:xlink="http://www.w3.org/1999/xlink" width="224.832" height="111.247"><defs><clipPath id="a"><path d="M.672 60H5v4H.672Zm0 0"/></clipPath><clipPath id="b"><path d="M.672 55H10v15H.672Zm0 0"/></clipPath><clipPath id="c"><path d="M.672 60H5v4H.672Zm0 0"/></clipPath><clipPath id="d"><path d="M.672 55H10v15H.672Zm0 0"/></clipPath><clipPath id="h"><path d="M211 55h12.992v15H211Zm0 0"/></clipPath><clipPath id="i"><path d="M106 86h10v24.5h-10Zm0 0"/></clipPath><path id="e" d="M7.516-6.875c0-.031-.016-.094-.11-.094-.031 0-.031 0-.14.11l-.703.765c-.079-.14-.547-.875-1.641-.875C2.719-6.969.5-4.78.5-2.5.5-.86 1.656.219 3.172.219c.86 0 1.61-.39 2.14-.86.922-.796 1.094-1.703 1.094-1.734 0-.094-.11-.094-.125-.094-.062 0-.11.016-.125.094-.093.281-.328.984-1 1.563-.687.562-1.312.718-1.828.718-.89 0-1.937-.515-1.937-2.047 0-.562.218-2.171 1.203-3.328C3.188-6.172 4.125-6.672 5-6.672c1.016 0 1.594.766 1.594 1.922 0 .39-.032.39-.032.5 0 .094.11.094.157.094.125 0 .125-.016.172-.203Zm0 0"/><path id="f" d="M2.313-4.406c0-.188 0-.188-.204-.188-.437.438-1.078.438-1.359.438v.25c.172 0 .625 0 1.016-.188v3.532c0 .218 0 .312-.703.312H.797V0C.922 0 1.78-.031 2.03-.031c.219 0 1.094.031 1.25.031v-.25h-.265c-.703 0-.703-.094-.703-.312Zm0 0"/><path id="g" d="M3.5-1.266h-.234c-.032.157-.094.563-.188.641-.047.031-.594.031-.687.031H1.125c.719-.64.969-.828 1.375-1.156.516-.406 1-.844 1-1.5 0-.828-.734-1.344-1.625-1.344-.86 0-1.437.594-1.437 1.235 0 .359.296.39.359.39a.369.369 0 0 0 .375-.375c0-.11-.047-.36-.406-.36.203-.483.687-.64 1-.64.703 0 1.062.532 1.062 1.094 0 .61-.437 1.078-.656 1.328L.5-.266C.438-.203.438-.187.438 0H3.28Zm0 0"/><path id="j" d="M1.89-2.312c.532 0 .923.374.923 1.109 0 .86-.5 1.125-.891 1.125-.281 0-.89-.078-1.188-.484.329-.016.407-.25.407-.391a.37.37 0 0 0-.375-.375c-.203 0-.391.11-.391.39 0 .657.719 1.079 1.563 1.079.953 0 1.625-.641 1.625-1.344 0-.531-.454-1.078-1.204-1.234.72-.266.985-.782.985-1.204 0-.546-.625-.953-1.406-.953-.766 0-1.344.375-1.344.922 0 .235.14.375.36.375.202 0 .343-.156.343-.36 0-.202-.14-.343-.344-.359.235-.296.719-.375.969-.375.312 0 .75.141.75.75 0 .297-.094.61-.281.829-.22.265-.422.265-.766.296-.172.016-.187.016-.219.016-.015 0-.078.016-.078.094 0 .094.063.094.188.094Zm0 0"/></defs><path fill="none" stroke="#000" stroke-miterlimit="10" stroke-width=".39631872000000007" d="M2.445 62.2h18.04m0 0h18.042"/><g clip-path="url(#a)"><path fill="#FFF" d="M4.023 62.2a1.575 1.575 0 1 0-3.152 0c0 .87.703 1.573 1.574 1.573.871 0 1.578-.703 1.578-1.574m0 0"/></g><g clip-path="url(#b)"><path fill="none" stroke="#000" stroke-miterlimit="10" stroke-width=".39631872000000007" d="M4.023 62.2a1.575 1.575 0 1 0-3.152 0c0 .87.703 1.573 1.574 1.573.871 0 1.578-.703 1.578-1.574Zm0 0"/></g><g clip-path="url(#c)"><path fill="#FFF" d="M4.023 62.2a1.575 1.575 0 1 0-3.152 0c0 .87.703 1.573 1.574 1.573.871 0 1.578-.703 1.578-1.574m0 0"/></g><g clip-path="url(#d)"><path fill="none" stroke="#000" stroke-miterlimit="10" stroke-width=".39631872000000007" d="M4.023 62.2a1.575 1.575 0 1 0-3.152 0c0 .87.703 1.573 1.574 1.573.871 0 1.578-.703 1.578-1.574Zm0 0"/></g><path fill="none" stroke="#000" stroke-miterlimit="10" stroke-width=".39631872000000007" d="M38.527 62.2V44.155m0 0V26.117h32.137m7.883 0h64.277m7.883 0h32.14v18.04m0 0v18.042h36.079"/><path stroke="#000" stroke-miterlimit="10" stroke-width=".39631872000000007" d="M40.102 62.2a1.575 1.575 0 1 0-3.153 0c0 .87.707 1.573 1.578 1.573.871 0 1.575-.703 1.575-1.574Zm0 0"/><path fill="none" stroke="#000" stroke-miterlimit="10" stroke-width=".79164416" d="M70.664 14.293v23.652m7.883-23.652v23.652"/><use xlink:href="#e" x="68.85" y="9.912"/><use xlink:href="#f" x="75.922" y="11.396"/><path fill="none" stroke="#000" stroke-miterlimit="10" stroke-width=".79164416" d="M142.824 14.293v23.652m7.883-23.652v23.652"/><use xlink:href="#e" x="141.008" y="9.912"/><use xlink:href="#g" x="148.082" y="11.396"/><path stroke="#000" stroke-miterlimit="10" stroke-width=".39631872000000007" d="M184.422 62.2c0-.872-.707-1.579-1.574-1.579a1.575 1.575 0 1 0 1.574 1.578Zm0 0"/><path fill="#FFF" d="M220.504 62.2a1.579 1.579 0 0 0-3.156 0c0 .87.707 1.573 1.578 1.573.87 0 1.578-.703 1.578-1.574m0 0"/><g clip-path="url(#h)"><path fill="none" stroke="#000" stroke-miterlimit="10" stroke-width=".39631872000000007" d="M220.504 62.2a1.579 1.579 0 0 0-3.156 0c0 .87.707 1.573 1.578 1.573.87 0 1.578-.703 1.578-1.574Zm0 0"/></g><path fill="none" stroke="#000" stroke-miterlimit="10" stroke-width=".39631872000000007" d="M38.527 62.2v36.077h68.22m7.882 0h68.219V62.2"/><g clip-path="url(#i)"><path fill="none" stroke="#000" stroke-miterlimit="10" stroke-width=".79164416" d="M106.746 86.453v23.652m7.883-23.652v23.652"/></g><use xlink:href="#e" x="104.929" y="82.07"/><use xlink:href="#j" x="112.002" y="83.554"/></svg>