<svg xmlns="http://www.w3.org/2000/svg" xmlns:xlink="http://www.w3.org/1999/xlink" width="226.052" height="101.217"><defs><clipPath id="a"><path d="M.398 55H4v4H.398Zm0 0"/></clipPath><clipPath id="b"><path d="M.398 49H10v16H.398Zm0 0"/></clipPath><clipPath id="e"><path d="M212 49h12.715v16H212Zm0 0"/></clipPath><clipPath id="g"><path d="M137 76h10v24.441h-10Zm0 0"/></clipPath><path id="c" d="M7.516-6.875c0-.031-.016-.094-.11-.094-.031 0-.031 0-.14.11l-.703.765c-.079-.14-.547-.875-1.641-.875C2.719-6.969.5-4.78.5-2.5.5-.86 1.656.219 3.172.219c.86 0 1.61-.39 2.14-.86.922-.796 1.094-1.703 1.094-1.734 0-.094-.11-.094-.125-.094-.062 0-.11.016-.125.094-.093.281-.328.984-1 1.563-.687.562-1.312.718-1.828.718-.89 0-1.937-.515-1.937-2.047 0-.562.218-2.171 1.203-3.328C3.188-6.172 4.125-6.672 5-6.672c1.016 0 1.594.766 1.594 1.922 0 .39-.032.39-.032.5 0 .094.11.094.157.094.125 0 .125-.016.172-.203Zm0 0"/><path id="d" d="M2.313-4.406c0-.188 0-.188-.204-.188-.437.438-1.078.438-1.359.438v.25c.172 0 .625 0 1.016-.188v3.532c0 .218 0 .312-.703.312H.797V0C.922 0 1.78-.031 2.03-.031c.219 0 1.094.031 1.25.031v-.25h-.265c-.703 0-.703-.094-.703-.312Zm0 0"/><path id="f" d="M3.5-1.266h-.234c-.032.157-.094.563-.188.641-.047.031-.594.031-.687.031H1.125c.719-.64.969-.828 1.375-1.156.516-.406 1-.844 1-1.5 0-.828-.734-1.344-1.625-1.344-.86 0-1.437.594-1.437 1.235 0 .359.296.39.359.39a.369.369 0 0 0 .375-.375c0-.11-.047-.36-.406-.36.203-.483.687-.64 1-.64.703 0 1.062.532 1.062 1.094 0 .61-.437 1.078-.656 1.328L.5-.266C.438-.203.438-.187.438 0H3.28Zm0 0"/><path id="h" d="M1.89-2.312c.532 0 .923.374.923 1.109 0 .86-.5 1.125-.891 1.125-.281 0-.89-.078-1.188-.484.329-.016.407-.25.407-.391a.37.37 0 0 0-.375-.375c-.203 0-.391.11-.391.39 0 .657.719 1.079 1.563 1.079.953 0 1.625-.641 1.625-1.344 0-.531-.454-1.078-1.204-1.234.72-.266.985-.782.985-1.204 0-.546-.625-.953-1.406-.953-.766 0-1.344.375-1.344.922 0 .235.14.375.36.375.202 0 .343-.156.343-.36 0-.202-.14-.343-.344-.359.235-.296.719-.375.969-.375.312 0 .75.141.75.75 0 .297-.094.61-.281.829-.22.265-.422.265-.766.296-.172.016-.187.016-.219.016-.015 0-.078.016-.078.094 0 .094.063.094.188.094Zm0 0"/></defs><path fill="none" stroke="#000" stroke-miterlimit="10" stroke-width=".39593568" d="M2.168 57.16h42.668m7.875 0h42.664m93.207 0h15.535m0 0h15.535"/><g clip-path="url(#a)"><path fill="#FFF" d="M3.746 57.16a1.577 1.577 0 1 0-1.578 1.578c.871 0 1.578-.707 1.578-1.578m0 0"/></g><g clip-path="url(#b)"><path fill="none" stroke="#000" stroke-miterlimit="10" stroke-width=".39593568" d="M3.746 57.16a1.577 1.577 0 1 0-1.578 1.578c.871 0 1.578-.707 1.578-1.578Zm0 0"/></g><path fill="none" stroke="#000" stroke-miterlimit="10" stroke-width=".79087904" d="M44.836 45.348v23.629m7.875-23.63v23.63"/><path stroke="#000" stroke-miterlimit="10" stroke-width=".39593568" d="M96.953 57.16a1.577 1.577 0 1 0-1.578 1.578c.871 0 1.578-.707 1.578-1.578Zm0 0"/><use xlink:href="#c" x="43.023" y="40.97"/><use xlink:href="#d" x="50.088" y="42.454"/><path stroke="#000" stroke-miterlimit="10" stroke-width=".39593568" d="M190.156 57.16a1.575 1.575 0 0 0-3.148 0c0 .871.707 1.578 1.574 1.578.871 0 1.574-.707 1.574-1.578Zm0 0"/><path fill="#FFF" d="M221.227 57.16a1.575 1.575 0 0 0-3.149 0 1.575 1.575 0 1 0 3.149 0m0 0"/><g clip-path="url(#e)"><path fill="none" stroke="#000" stroke-miterlimit="10" stroke-width=".39593568" d="M221.227 57.16a1.575 1.575 0 0 0-3.149 0 1.575 1.575 0 1 0 3.149 0Zm0 0"/></g><path fill="none" stroke="#000" stroke-miterlimit="10" stroke-width=".39593568" d="M95.375 57.16V26.094h42.668m7.875 0h42.664V57.16"/><path fill="none" stroke="#000" stroke-miterlimit="10" stroke-width=".79087904" d="M138.043 14.277v23.63m7.875-23.63v23.63"/><use xlink:href="#c" x="136.228" y="9.902"/><use xlink:href="#f" x="143.294" y="11.385"/><path fill="none" stroke="#000" stroke-miterlimit="10" stroke-width=".39593568" d="M95.375 57.16v31.07h42.668m7.875 0h42.664V57.16"/><g clip-path="url(#g)"><path fill="none" stroke="#000" stroke-miterlimit="10" stroke-width=".79087904" d="M138.043 76.418v23.629m7.875-23.629v23.629"/></g><use xlink:href="#c" x="136.228" y="72.039"/><use xlink:href="#h" x="143.294" y="73.521"/></svg>