<svg xmlns="http://www.w3.org/2000/svg" xmlns:xlink="http://www.w3.org/1999/xlink" width="168.907" height="106.716"><defs><path id="b" d="M3.64-3.969h.86c.203 0 .297 0 .297-.203 0-.11-.094-.11-.266-.11h-.828l.219-1.14c.031-.203.172-.906.234-1.031.094-.188.25-.328.469-.328.031 0 .297 0 .484.172-.437.046-.53.39-.53.53 0 .235.171.36.359.36.265 0 .546-.218.546-.593 0-.47-.453-.688-.859-.688-.344 0-.969.172-1.266 1.156-.062.203-.093.313-.328 1.563h-.687c-.188 0-.297 0-.297.187 0 .125.094.125.281.125h.656l-.75 3.922c-.171.969-.343 1.86-.859 1.86-.047 0-.297 0-.484-.172a.544.544 0 0 0 .547-.532c0-.234-.172-.359-.36-.359-.266 0-.547.219-.547.594 0 .453.438.687.844.687.547 0 .938-.578 1.125-.953.313-.625.547-1.828.547-1.906Zm0 0"/><path id="c" d="M7.156-6.547c.016-.047.032-.094.032-.156 0-.078-.047-.078-.25-.078H2.75c-.25 0-.25 0-.312.187L1.89-4.797a.58.58 0 0 0-.032.14s0 .11.125.11c.079 0 .11-.078.125-.11.375-1.171.891-1.827 2.438-1.827h1.625L.609-.266s-.03.141-.03.172C.578 0 .64 0 .828 0H5.14c.25 0 .25-.016.312-.203l.703-2.188c.016-.046.047-.109.047-.156s-.047-.11-.125-.11c-.094 0-.11.048-.172.25-.437 1.36-.922 2.063-2.61 2.063H1.595Zm0 0"/><clipPath id="a"><path d="M156 83h12.637v16H156Zm0 0"/></clipPath></defs><path fill="none" stroke="#000" stroke-miterlimit="10" stroke-width=".39794265" d="M14.492 90.777h147.176"/><path d="m164.734 90.777-2.968-1.757v3.52Zm0 0"/><g clip-path="url(#a)"><path fill="none" stroke="#000" stroke-miterlimit="10" stroke-width=".39794265" d="m164.734 90.777-2.968-1.757v3.52Zm0 0"/></g><use xlink:href="#b" x="155.684" y="101.189"/><path fill="none" stroke="#000" stroke-miterlimit="10" stroke-width=".39794265" d="M14.492 90.777V3.86"/><path stroke="#000" stroke-miterlimit="10" stroke-width=".39794265" d="m14.492.793-1.758 2.969h3.52Zm0 0"/><use xlink:href="#c" x="3.49" y="10.698"/><path fill="none" stroke="#000" stroke-miterlimit="10" stroke-width=".79488795" d="m77.762.395 8.316 62.363c2.063 15.476 5.406 15.476 7.469 0L101.863.395"/></svg>