<svg xmlns="http://www.w3.org/2000/svg" xmlns:xlink="http://www.w3.org/1999/xlink" width="216.868" height="113.918"><defs><clipPath id="a"><path d="M140 110h4v3.836h-4Zm0 0"/></clipPath><clipPath id="b"><path d="M134 104h15v9.836h-15Zm0 0"/></clipPath><clipPath id="c"><path d="M16 110h4v3.836h-4Zm0 0"/></clipPath><clipPath id="d"><path d="M11 104h15v9.836H11Zm0 0"/></clipPath><clipPath id="e"><path d="M193 110h4v3.836h-4Zm0 0"/></clipPath><clipPath id="f"><path d="M187 104h15v9.836h-15Zm0 0"/></clipPath><path id="g" d="M6.313-5.75c.109-.406.28-.703 1.078-.734.046 0 .172-.016.172-.203 0-.016 0-.11-.125-.11-.329 0-.672.031-1.016.031s-.703-.03-1.031-.03c-.063 0-.188 0-.188.202 0 .11.11.11.188.11.562 0 .672.218.672.437a.914.914 0 0 1-.032.203l-.89 3.547C4.797-.953 3.656-.094 2.656-.094c-.672 0-1.219-.437-1.219-1.297 0-.015 0-.328.11-.765l.969-3.875c.093-.36.109-.453.843-.453.25 0 .329 0 .329-.203 0-.11-.11-.11-.141-.11-.266 0-.985.031-1.266.031-.297 0-1-.03-1.281-.03-.078 0-.187 0-.187.202 0 .11.078.11.265.11.031 0 .219 0 .39.015.173.016.266.032.266.157 0 .062-.109.484-.171.703l-.22.875c-.093.39-.562 2.28-.609 2.468-.062.282-.062.422-.062.579 0 1.203.906 1.906 1.953 1.906 1.25 0 2.484-1.125 2.813-2.438Zm0 0"/><path id="h" d="M5.078-1.828h-.234C4.656-.781 4.5-.25 3.204-.25H2.108c-.328 0-.343-.062-.343-.266v-1.812h.703c.703 0 .812.203.812.812h.235v-1.89H3.28c0 .61-.11.828-.812.828h-.703v-1.625c0-.219.015-.281.343-.281h1.047c1.14 0 1.344.375 1.469 1.359h.234l-.218-1.61H.39v.25h.172c.53 0 .546.079.546.313v3.61c0 .234-.015.312-.546.312H.39V0h4.375Zm0 0"/><path id="i" d="M3.125-4.812c-.031-.11-.062-.157-.187-.157-.141 0-.157.047-.204.157L1.125-.734C1.063-.562.938-.25.313-.25V0c.234-.016.484-.031.718-.031.282 0 .797.031.844.031v-.25c-.312 0-.516-.14-.516-.328 0-.063.016-.078.047-.14l.328-.86H3.72l.406 1.016c0 .03.031.078.031.109 0 .203-.375.203-.562.203V0c.344-.016.797-.031 1.031-.031.328 0 .86.031.922.031v-.25h-.125c-.469 0-.516-.078-.594-.266Zm-.406.718.89 2.266H1.83Zm0 0"/></defs><path fill="none" stroke="#000" stroke-miterlimit="10" stroke-width=".39871272" d="M18.227 112.05h61.757m0 0h88.22m0 0h26.464"/><g clip-path="url(#a)"><path d="M143.324 112.05a1.587 1.587 0 1 0-3.174.003 1.587 1.587 0 0 0 3.174-.002m0 0"/></g><g clip-path="url(#b)"><path fill="none" stroke="#000" stroke-miterlimit="10" stroke-width=".39871272" d="M143.324 112.05a1.587 1.587 0 1 0-3.174.003 1.587 1.587 0 0 0 3.174-.002Zm0 0"/></g><path fill="none" stroke="#000" stroke-miterlimit="10" stroke-width=".39871272" d="M18.227 6.187h37.07m31.726 0h45.891m0 0h35.29m0 0h26.464"/><path fill="none" stroke="#000" stroke-linejoin="bevel" stroke-miterlimit="10" stroke-width=".79642616" d="M54.898 6.348c0-3.29 1.82-5.95 4.067-5.95 2.246 0 4.066 2.66 4.066 5.95 0-3.29 1.82-5.95 4.063-5.95 2.246 0 4.066 2.66 4.066 5.95 0-3.29 1.82-5.95 4.067-5.95 2.246 0 4.062 2.66 4.062 5.95 0-3.29 1.82-5.95 4.066-5.95 2.247 0 4.067 2.66 4.067 5.95"/><path stroke="#000" stroke-miterlimit="10" stroke-width=".39871272" d="M143.324 6.187c0-.878-.71-1.585-1.586-1.585-.879 0-1.586.707-1.586 1.585a1.587 1.587 0 0 0 3.172 0Zm0 0"/><path fill="none" stroke="#000" stroke-miterlimit="10" stroke-width=".39871272" d="M141.738 110.465v-47.38m0-7.933V7.773"/><path fill="none" stroke="#000" stroke-miterlimit="10" stroke-width=".79642616" d="M129.84 63.086h23.793m-23.793-7.934h23.793"/><path fill="#FFF" stroke="#000" stroke-miterlimit="10" stroke-width=".39871272" d="M19.813 6.187c0-.878-.708-1.585-1.586-1.585-.875 0-1.586.707-1.586 1.585a1.587 1.587 0 0 0 3.172 0Zm0 0"/><g clip-path="url(#c)"><path fill="#FFF" d="M19.813 112.05a1.587 1.587 0 1 0-3.17.002 1.587 1.587 0 0 0 3.17-.001m0 0"/></g><g clip-path="url(#d)"><path fill="none" stroke="#000" stroke-miterlimit="10" stroke-width=".39871272" d="M19.813 112.05a1.587 1.587 0 1 0-3.17.002 1.587 1.587 0 0 0 3.17-.001Zm0 0"/></g><path fill="#FFF" stroke="#000" stroke-miterlimit="10" stroke-width=".39871272" d="M196.254 6.187c0-.878-.707-1.585-1.586-1.585-.875 0-1.586.707-1.586 1.585a1.587 1.587 0 0 0 3.172 0Zm0 0"/><g clip-path="url(#e)"><path fill="#FFF" d="M196.254 112.05a1.587 1.587 0 1 0-3.17.002 1.587 1.587 0 0 0 3.17-.001m0 0"/></g><g clip-path="url(#f)"><path fill="none" stroke="#000" stroke-miterlimit="10" stroke-width=".39871272" d="M196.254 112.05a1.587 1.587 0 1 0-3.17.002 1.587 1.587 0 0 0 3.17-.001Zm0 0"/></g><path fill="none" stroke="#000" stroke-miterlimit="10" stroke-width=".39871272" d="M18.227 22.016v74.207"/><path stroke="#000" stroke-miterlimit="10" stroke-width=".39871272" d="M18.227 92.008h-1.98l1.98 4.215 1.984-4.215Zm0 0"/><use xlink:href="#g" x="2.004" y="61.775"/><use xlink:href="#h" x="8.801" y="63.267"/><path fill="none" stroke="#000" stroke-miterlimit="10" stroke-width=".39871272" d="M194.668 22.016v74.207"/><path stroke="#000" stroke-miterlimit="10" stroke-width=".39871272" d="M194.668 92.008h-1.98l1.98 4.215 1.984-4.215Zm0 0"/><use xlink:href="#g" x="198.246" y="61.775"/><use xlink:href="#i" x="205.043" y="63.267"/></svg>