<svg xmlns="http://www.w3.org/2000/svg" xmlns:xlink="http://www.w3.org/1999/xlink" width="168.989" height="105.76"><defs><path id="b" d="M3.64-3.969h.86c.203 0 .297 0 .297-.203 0-.11-.094-.11-.266-.11h-.828l.219-1.14c.031-.203.172-.906.234-1.031.094-.188.25-.328.469-.328.031 0 .297 0 .484.172-.437.046-.53.39-.53.53 0 .235.171.36.359.36.265 0 .546-.218.546-.593 0-.47-.453-.688-.859-.688-.344 0-.969.172-1.266 1.156-.062.203-.093.313-.328 1.563h-.687c-.188 0-.297 0-.297.187 0 .125.094.125.281.125h.656l-.75 3.922c-.171.969-.343 1.86-.859 1.86-.047 0-.297 0-.484-.172a.544.544 0 0 0 .547-.532c0-.234-.172-.359-.36-.359-.266 0-.547.219-.547.594 0 .453.438.687.844.687.547 0 .938-.578 1.125-.953.313-.625.547-1.828.547-1.906Zm0 0"/><path id="c" d="M-2.562-5.781v.25c1.015.11 2.25.25 2.25 2v.812c0 .469-.063.485-.391.485H-6c-.344 0-.484 0-.484-.953v-.329h-.297c.031.36.031 1.266.031 1.672 0 .39 0 1.172-.031 1.516h.297v-.234c0-.766.109-.782.468-.782H-.78c.36 0 .469.016.469.782v.234H0V-5.5Zm0 0"/><path id="d" d="M-1.187-4.125c-.094 0-.11.078-.11.125 0 .094.047.11.14.14C-.14-3.515-.14-2.624-.14-2.53c0 .5-.296.906-.671 1.125-.47.297-1.125.297-1.485.297v-2.766c0-.219 0-.25-.203-.25-.984 0-1.953.531-1.953 1.781 0 1.156 1.031 2.063 2.266 2.063C-.86-.281.108-1.328.108-2.47.11-3.672-1-4.125-1.187-4.125m-1.313.656v2.36C-3.984-1.172-4.234-2-4.234-2.344c0-1.031 1.343-1.125 1.734-1.125m0 0"/><path id="e" d="M0-2.453h-.312c0 .656-.047.687-.438.687h-3.64l.109 1.391h.312c0-.64.047-.734.547-.734H-.75c.438 0 .438.109.438.78H0l-.031-1.093c0-.344.015-.687.031-1.031m-6 .547a.547.547 0 0 0-.531.531c0 .328.281.531.531.531a.547.547 0 0 0 .531-.531A.536.536 0 0 0-6-1.906m0 0"/><path id="f" d="M-1.266-3.578c-.53 0-.828.297-.953.422-.312.328-.39.719-.469 1.125-.109.562-.25 1.219-.828 1.219-.343 0-.75-.25-.75-1.11 0-1.094.891-1.14 1.204-1.156.093-.016.093-.125.093-.125 0-.125-.047-.125-.234-.125H-4.22c-.156 0-.234 0-.234.11 0 .046 0 .062.125.202l.156.157c-.281.39-.281.797-.281.937 0 1.219.672 1.594 1.219 1.594.359 0 .625-.156.843-.422.266-.328.329-.594.47-1.312.03-.22.187-1.032.905-1.032.516 0 .907.344.907 1.11 0 .843-.563 1.203-1.407 1.39-.14.031-.171.031-.171.14 0 .126.062.126.25.126h1.312c.172 0 .234 0 .234-.11 0-.046-.015-.062-.203-.25-.015-.015-.031-.015-.218-.203a1.51 1.51 0 0 0 .421-1.093c0-1.141-.671-1.594-1.375-1.594m0 0"/><path id="g" d="M-1.234-3.297h-.563v.25h.547c.734 0 1.11.297 1.11.656 0 .672-.907.672-1.079.672h-2.75V-3.14h-.312v1.422H-6.11v.25c.812.016 1.875.313 1.922 1.282h.218v-.844h2.735c1.218 0 1.343-.922 1.343-1.281 0-.704-.703-.985-1.343-.985m0 0"/><path id="h" d="M0-5.312h-.312c0 .687-.063.765-.547.765h-3.532l.11 1.469h.312c0-.703.063-.781.547-.781h1.766c.875 0 1.547.484 1.547 1.203 0 .844-.47.875-.985.875H-4.39l.11 1.469h.312c0-.782.031-.782.906-.782h1.5c.766 0 1.672 0 1.672-1.515 0-.547-.28-.985-.89-1.282h.89Zm0 0"/><path id="i" d="M0-5.312h-.312c0 .515 0 .765-.297.765H-2.5c-.86 0-1.172 0-1.531.313-.157.14-.36.468-.36 1.047 0 .718.422 1.187 1.047 1.468H-4.39l.11 1.407h.312c0-.704.063-.782.547-.782H-.75c.438 0 .438.11.438.782H0l-.031-1.125L0-2.548h-.312c0 .656 0 .766-.438.766h-1.828c-1.047 0-1.594-.703-1.594-1.344 0-.625.531-.734 1.094-.734H-.75c.438 0 .438.109.438.78H0l-.031-1.124Zm0 0"/><path id="j" d="M-4.016-4.812c-.171 0-.484.109-.484.5 0 .203.063.64.469 1.046-.328.422-.36.844-.36 1.063 0 .922.688 1.61 1.454 1.61.437 0 .812-.22 1.015-.47.156.125.484.313.828.313.313 0 .688-.14.89-.437.157.593.595.906.985.906.719 0 1.266-.985 1.266-2.188 0-1.172-.5-2.218-1.281-2.218-.344 0-.86.14-1.141.656-.266.515-.266 1.093-.266 1.703 0 .25 0 .672-.015.75-.047.312-.344.531-.672.531-.031 0-.266 0-.453-.172a1.77 1.77 0 0 0 .297-.984c0-.922-.688-1.61-1.453-1.61-.36 0-.735.157-.954.407-.343-.36-.39-.719-.39-.89 0 0 0-.079.015-.11.032.11.141.156.266.156a.27.27 0 0 0 .281-.281.28.28 0 0 0-.297-.282m1.079 1.734c.265 0 .578.015.828.172.125.078.406.297.406.703 0 .86-1 .86-1.234.86-.266 0-.579 0-.829-.157a.846.846 0 0 1-.39-.703c0-.875.984-.875 1.218-.875M.78-4.156c.547 0 1.031.703 1.031 1.672 0 1-.5 1.687-1.03 1.687a.855.855 0 0 1-.844-.812v-.594c0-.844 0-1.953.843-1.953m0 0"/><clipPath id="a"><path d="M156 82h12.793v16H156Zm0 0"/></clipPath><clipPath id="k"><path d="M4 3h164.793v99H4Zm0 0"/></clipPath></defs><path fill="none" stroke="#000" stroke-miterlimit="10" stroke-width=".39809826" d="M15.848 89.86H161.82"/><path d="m164.887 89.86-2.965-1.758v3.52Zm0 0"/><g clip-path="url(#a)"><path fill="none" stroke="#000" stroke-miterlimit="10" stroke-width=".39809826" d="m164.887 89.86-2.965-1.758v3.52Zm0 0"/></g><use xlink:href="#b" x="155.836" y="100.274"/><path fill="none" stroke="#000" stroke-miterlimit="10" stroke-width=".39809826" d="M15.848 89.86V3.66"/><path stroke="#000" stroke-miterlimit="10" stroke-width=".39809826" d="M15.848.594 14.09 3.562h3.515Zm0 0"/><use xlink:href="#c" x="10.288" y="40.906"/><use xlink:href="#d" x="10.288" y="34.694"/><use xlink:href="#e" x="10.288" y="30.28"/><use xlink:href="#f" x="10.288" y="27.517"/><use xlink:href="#g" x="10.288" y="23.6"/><use xlink:href="#h" x="10.288" y="19.734"/><use xlink:href="#i" x="10.288" y="14.207"/><use xlink:href="#j" x="10.288" y="8.68"/><g clip-path="url(#k)"><path fill="none" stroke="#000" stroke-miterlimit="10" stroke-width=".79519878" d="M15.848 15.14h102.097c4.688 0 9.371 3.696 10.465 8.25l13.973 58.22c1.094 4.558 5.781 8.25 10.465 8.25h9.449"/></g><path fill="none" stroke="#000" stroke-dasharray="2.9820752442 2.9820752442" stroke-miterlimit="10" stroke-width=".39809826" d="M120.453 89.86V.2"/></svg>