<svg xmlns="http://www.w3.org/2000/svg" width="113.781" height="93.577"><defs><clipPath id="a"><path d="M.148 89H4v4H.148Zm0 0"/></clipPath><clipPath id="b"><path d="M.148 84H10v9.156H.148Zm0 0"/></clipPath><clipPath id="c"><path d="M47 84h16v9.156H47Zm0 0"/></clipPath><clipPath id="d"><path d="M101 84h12.414v9.156H101Zm0 0"/></clipPath><clipPath id="e"><path d="M.148 9H4v5H.148Zm0 0"/></clipPath><clipPath id="f"><path d="M.148 4H10v15H.148Zm0 0"/></clipPath><clipPath id="g"><path d="M101 4h12.414v15H101Zm0 0"/></clipPath><clipPath id="h"><path d="M47 84h16v9.156H47Zm0 0"/></clipPath></defs><path fill="none" stroke="#000" stroke-miterlimit="10" stroke-width=".3972045" d="M1.926 91.379h26.601m0 0h53.207m0 0h26.602"/><g clip-path="url(#a)"><path fill="#FFF" d="M3.504 91.379a1.58 1.58 0 1 0-3.16-.005 1.58 1.58 0 0 0 3.16.005m0 0"/></g><g clip-path="url(#b)"><path fill="none" stroke="#000" stroke-miterlimit="10" stroke-width=".3972045" d="M3.504 91.379a1.58 1.58 0 1 0-3.16-.005 1.58 1.58 0 0 0 3.16.005Zm0 0"/></g><path d="M56.71 91.379a1.58 1.58 0 1 0-3.16-.003 1.58 1.58 0 0 0 3.16.003m0 0"/><g clip-path="url(#c)"><path fill="none" stroke="#000" stroke-miterlimit="10" stroke-width=".3972045" d="M56.71 91.379a1.58 1.58 0 1 0-3.16-.003 1.58 1.58 0 0 0 3.16.003Zm0 0"/></g><path fill="#FFF" d="M109.918 91.379a1.58 1.58 0 1 0-3.161-.005 1.58 1.58 0 0 0 3.161.005m0 0"/><g clip-path="url(#d)"><path fill="none" stroke="#000" stroke-miterlimit="10" stroke-width=".3972045" d="M109.918 91.379a1.58 1.58 0 1 0-3.161-.005 1.58 1.58 0 0 0 3.161.005Zm0 0"/></g><path fill="none" stroke="#000" stroke-miterlimit="10" stroke-width=".3972045" d="M1.926 11.57h22.879m7.449 0h45.754m7.449 0h22.879"/><path fill="none" stroke="#000" stroke-miterlimit="10" stroke-width=".7934135000000001" d="M24.805.395v22.347M32.254.395v22.347"/><g clip-path="url(#e)"><path fill="#FFF" d="M3.504 11.57a1.58 1.58 0 1 0-3.16-.005 1.58 1.58 0 0 0 3.16.005m0 0"/></g><g clip-path="url(#f)"><path fill="none" stroke="#000" stroke-miterlimit="10" stroke-width=".3972045" d="M3.504 11.57a1.58 1.58 0 1 0-3.16-.005 1.58 1.58 0 0 0 3.16.005Zm0 0"/></g><path stroke="#000" stroke-miterlimit="10" stroke-width=".3972045" d="M56.71 11.57a1.58 1.58 0 1 0-3.16-.003 1.58 1.58 0 0 0 3.16.003Zm0 0"/><path fill="none" stroke="#000" stroke-miterlimit="10" stroke-width=".7934135000000001" d="M78.008.395v22.347M85.457.395v22.347"/><path fill="#FFF" d="M109.918 11.57a1.58 1.58 0 1 0-3.161-.005 1.58 1.58 0 0 0 3.161.005m0 0"/><g clip-path="url(#g)"><path fill="none" stroke="#000" stroke-miterlimit="10" stroke-width=".3972045" d="M109.918 11.57a1.58 1.58 0 1 0-3.161-.005 1.58 1.58 0 0 0 3.161.005Zm0 0"/></g><path fill="none" stroke="#000" stroke-miterlimit="10" stroke-width=".3972045" d="M55.129 91.379V66.37m0-29.797V11.57"/><path d="M56.71 91.379a1.58 1.58 0 1 0-3.16-.003 1.58 1.58 0 0 0 3.16.003m0 0"/><g clip-path="url(#h)"><path fill="none" stroke="#000" stroke-miterlimit="10" stroke-width=".3972045" d="M56.71 91.379a1.58 1.58 0 1 0-3.16-.003 1.58 1.58 0 0 0 3.16.003Zm0 0"/></g><path fill="none" stroke="#000" stroke-linejoin="bevel" stroke-miterlimit="10" stroke-width=".7934135000000001" d="M55.29 66.77c-3.087 0-5.587-1.715-5.587-3.825 0-2.113 2.5-3.824 5.586-3.824-3.086 0-5.586-1.71-5.586-3.824 0-2.11 2.5-3.824 5.586-3.824-3.086 0-5.586-1.711-5.586-3.825 0-2.109 2.5-3.82 5.586-3.82-3.086 0-5.586-1.715-5.586-3.824 0-2.113 2.5-3.824 5.586-3.824"/></svg>