<svg xmlns="http://www.w3.org/2000/svg" width="113.781" height="87.965"><defs><clipPath id="a"><path d="M0 84h4v3.863H0Zm0 0"/></clipPath><clipPath id="b"><path d="M0 78h9v9.863H0Zm0 0"/></clipPath><clipPath id="c"><path d="M106 84h5v3.863h-5Zm0 0"/></clipPath><clipPath id="d"><path d="M101 78h12.563v9.863H101Zm0 0"/></clipPath><clipPath id="e"><path d="M13 .066h31V13H13Zm0 0"/></clipPath><clipPath id="f"><path d="M0 .066h9V14H0Zm0 0"/></clipPath><clipPath id="g"><path d="M47 .066h16V14H47Zm0 0"/></clipPath><clipPath id="h"><path d="M66 .066h32V13H66Zm0 0"/></clipPath><clipPath id="i"><path d="M101 .066h12.563V14H101Zm0 0"/></clipPath></defs><path fill="none" stroke="#000" stroke-miterlimit="10" stroke-width=".39823392" d="M1.781 86.082h26.672m0 0h53.344m0 0h26.672"/><g clip-path="url(#a)"><path fill="#FFF" d="M3.367 86.082A1.584 1.584 0 1 0 .2 86.078a1.584 1.584 0 0 0 3.168.004m0 0"/></g><g clip-path="url(#b)"><path fill="none" stroke="#000" stroke-miterlimit="10" stroke-width=".39823392" d="M3.367 86.082A1.584 1.584 0 1 0 .2 86.078a1.584 1.584 0 0 0 3.168.004Zm0 0"/></g><g clip-path="url(#c)"><path fill="#FFF" d="M110.055 86.082a1.584 1.584 0 1 0-3.168-.004 1.584 1.584 0 0 0 3.168.004m0 0"/></g><g clip-path="url(#d)"><path fill="none" stroke="#000" stroke-miterlimit="10" stroke-width=".39823392" d="M110.055 86.082a1.584 1.584 0 1 0-3.168-.004 1.584 1.584 0 0 0 3.168.004Zm0 0"/></g><path fill="none" stroke="#000" stroke-miterlimit="10" stroke-width=".39823392" d="M1.781 6.066H13.52m29.87 0h23.473m29.871 0h11.735"/><g clip-path="url(#e)"><path fill="none" stroke="#000" stroke-miterlimit="10" stroke-width=".79546976" d="M13.52.465h29.87v11.203H13.52Zm0 0"/></g><path fill="#FFF" d="M3.367 6.066A1.584 1.584 0 1 0 .2 6.062a1.584 1.584 0 0 0 3.168.004m0 0"/><g clip-path="url(#f)"><path fill="none" stroke="#000" stroke-miterlimit="10" stroke-width=".39823392" d="M3.367 6.066A1.584 1.584 0 1 0 .2 6.062a1.584 1.584 0 0 0 3.168.004Zm0 0"/></g><path d="M56.71 6.066a1.584 1.584 0 1 0-3.168-.004 1.584 1.584 0 0 0 3.169.004m0 0"/><g clip-path="url(#g)"><path fill="none" stroke="#000" stroke-miterlimit="10" stroke-width=".39823392" d="M56.71 6.066a1.584 1.584 0 1 0-3.168-.004 1.584 1.584 0 0 0 3.169.004Zm0 0"/></g><g clip-path="url(#h)"><path fill="none" stroke="#000" stroke-miterlimit="10" stroke-width=".79546976" d="M66.863.465h29.871v11.203h-29.87Zm0 0"/></g><path fill="#FFF" d="M110.055 6.066a1.584 1.584 0 1 0-3.168-.004 1.584 1.584 0 0 0 3.168.004m0 0"/><g clip-path="url(#i)"><path fill="none" stroke="#000" stroke-miterlimit="10" stroke-width=".39823392" d="M110.055 6.066a1.584 1.584 0 1 0-3.168-.004 1.584 1.584 0 0 0 3.168.004Zm0 0"/></g><path fill="none" stroke="#000" stroke-miterlimit="10" stroke-width=".39823392" d="M55.125 86.082V49.809m0-7.47V6.067"/><path fill="none" stroke="#000" stroke-miterlimit="10" stroke-width=".79546976" d="M43.926 49.809h22.402m-22.402-7.47h22.402"/></svg>