<svg xmlns="http://www.w3.org/2000/svg" xmlns:xlink="http://www.w3.org/1999/xlink" width="216.868" height="109.513"><defs><clipPath id="a"><path d="M99 100h15v9.027H99Zm0 0"/></clipPath><clipPath id="b"><path d="M11 100h15v9.027H11Zm0 0"/></clipPath><clipPath id="c"><path d="M187 100h15v9.027h-15Zm0 0"/></clipPath><path id="d" d="M6.297-5.734c.11-.407.281-.703 1.078-.735.047 0 .172-.015.172-.203 0 0 0-.11-.14-.11-.329 0-.673.032-1 .032-.344 0-.72-.031-1.032-.031-.062 0-.187 0-.187.203 0 .11.093.11.187.11.563.015.672.218.672.437 0 .031-.031.172-.031.203l-.891 3.547C4.781-.953 3.641-.094 2.656-.094c-.687 0-1.219-.437-1.219-1.281 0-.031 0-.344.11-.781l.969-3.86c.078-.359.109-.453.828-.453.265 0 .344 0 .344-.203 0-.11-.11-.11-.141-.11-.281 0-1 .032-1.281.032-.282 0-.985-.031-1.282-.031-.078 0-.187 0-.187.203 0 .11.094.11.281.11.016 0 .219 0 .375.015.188.031.266.031.266.156 0 .063-.094.484-.157.703l-.218.875c-.094.39-.563 2.266-.61 2.453-.062.282-.062.438-.062.579 0 1.218.89 1.906 1.937 1.906 1.25 0 2.485-1.125 2.813-2.438Zm0 0"/><path id="e" d="M5.047-1.828h-.234C4.64-.781 4.469-.25 3.188-.25H2.093c-.328 0-.328-.062-.328-.266v-1.812h.703c.687 0 .797.219.797.812H3.5V-3.39h-.234c0 .61-.11.813-.797.813h-.703v-1.61c0-.218 0-.265.328-.265H3.14c1.14 0 1.328.36 1.453 1.344h.234l-.203-1.594H.391v.25h.172c.53 0 .546.062.546.297v3.593c0 .235-.015.313-.546.313H.39V0h4.343Zm0 0"/><path id="f" d="M3.11-4.781c-.032-.11-.063-.172-.188-.172-.14 0-.156.062-.203.172L1.125-.734C1.047-.562.938-.25.313-.25V0c.234-.016.484-.031.718-.031.266 0 .782.031.828.031v-.25c-.312 0-.5-.14-.5-.328 0-.063 0-.078.032-.14l.343-.86h1.97l.39 1.016c.015.03.047.078.047.125 0 .187-.375.187-.563.187V0A27.64 27.64 0 0 1 4.61-.031c.329 0 .844.031.922.031v-.25h-.14c-.47 0-.516-.062-.594-.266Zm-.391.703.875 2.25H1.828Zm0 0"/></defs><path fill="none" stroke="#000" stroke-miterlimit="10" stroke-width=".39723243" d="M18.562 107.25h43.946m0 0h87.894m0 0h43.946"/><path d="M108.035 107.25a1.58 1.58 0 1 0-3.161.003 1.58 1.58 0 0 0 3.161-.003m0 0"/><g clip-path="url(#a)"><path fill="none" stroke="#000" stroke-miterlimit="10" stroke-width=".39723243" d="M108.035 107.25a1.58 1.58 0 1 0-3.161.003 1.58 1.58 0 0 0 3.161-.003Zm0 0"/></g><path fill="none" stroke="#000" stroke-miterlimit="10" stroke-width=".39723243" d="M18.562 1.777h43.946m0 0h87.894m0 0h43.946"/><path stroke="#000" stroke-miterlimit="10" stroke-width=".39723243" d="M108.035 1.777a1.58 1.58 0 1 0-3.161.003 1.58 1.58 0 0 0 3.161-.003Zm0 0"/><path fill="none" stroke="#000" stroke-miterlimit="10" stroke-width=".39723243" d="M106.457 3.36v13.378m0 31.606v32.98m0 7.903v16.445"/><path fill="none" stroke="#000" stroke-linejoin="bevel" stroke-miterlimit="10" stroke-width=".79346929" d="M106.297 16.34c3.273 0 5.926 1.812 5.926 4.05 0 2.239-2.653 4.051-5.926 4.051 3.273 0 5.926 1.813 5.926 4.051 0 2.235-2.653 4.047-5.926 4.047 3.273 0 5.926 1.816 5.926 4.05 0 2.24-2.653 4.052-5.926 4.052 3.273 0 5.926 1.812 5.926 4.05 0 2.239-2.653 4.051-5.926 4.051"/><path fill="none" stroke="#000" stroke-miterlimit="10" stroke-width=".79346929" d="M118.309 81.324H94.602m23.707 7.903H94.602"/><path fill="#FFF" stroke="#000" stroke-miterlimit="10" stroke-width=".39723243" d="M20.145 1.777c0-.87-.711-1.578-1.583-1.578a1.58 1.58 0 1 0 1.582 1.578Zm0 0"/><path fill="#FFF" d="M20.145 107.25c0-.871-.711-1.578-1.582-1.578-.872 0-1.579.707-1.579 1.578 0 .871.707 1.582 1.578 1.582.872 0 1.583-.71 1.583-1.582m0 0"/><g clip-path="url(#b)"><path fill="none" stroke="#000" stroke-miterlimit="10" stroke-width=".39723243" d="M20.145 107.25c0-.871-.711-1.578-1.583-1.578-.87 0-1.578.707-1.578 1.578 0 .871.707 1.582 1.578 1.582.872 0 1.583-.71 1.583-1.582Zm0 0"/></g><path fill="#FFF" stroke="#000" stroke-miterlimit="10" stroke-width=".39723243" d="M195.93 1.777a1.58 1.58 0 1 0-3.16.003 1.58 1.58 0 0 0 3.16-.003Zm0 0"/><path fill="#FFF" d="M195.93 107.25a1.58 1.58 0 1 0-3.16.003 1.58 1.58 0 0 0 3.16-.003m0 0"/><g clip-path="url(#c)"><path fill="none" stroke="#000" stroke-miterlimit="10" stroke-width=".39723243" d="M195.93 107.25a1.58 1.58 0 1 0-3.16.003 1.58 1.58 0 0 0 3.16-.003Zm0 0"/></g><path fill="none" stroke="#000" stroke-miterlimit="10" stroke-width=".39723243" d="M18.562 17.55v73.93"/><path stroke="#000" stroke-miterlimit="10" stroke-width=".39723243" d="M18.562 87.281h-1.976l1.976 4.2 1.977-4.2Zm0 0"/><use xlink:href="#d" x="2.399" y="57.16"/><use xlink:href="#e" x="9.17" y="58.647"/><path fill="none" stroke="#000" stroke-miterlimit="10" stroke-width=".39723243" d="M194.348 17.55v73.93"/><path stroke="#000" stroke-miterlimit="10" stroke-width=".39723243" d="M194.348 87.281h-1.973l1.973 4.2 1.976-4.2Zm0 0"/><use xlink:href="#d" x="197.913" y="57.16"/><use xlink:href="#f" x="204.685" y="58.647"/></svg>