<svg xmlns="http://www.w3.org/2000/svg" width="113.781" height="87.965"><defs><clipPath id="a"><path d="M0 84h4v3.863H0Zm0 0"/></clipPath><clipPath id="b"><path d="M0 78h9v9.863H0Zm0 0"/></clipPath><clipPath id="c"><path d="M26 84h5v3.863h-5Zm0 0"/></clipPath><clipPath id="d"><path d="M21 78h15v9.863H21Zm0 0"/></clipPath><clipPath id="e"><path d="M80 84h4v3.863h-4Zm0 0"/></clipPath><clipPath id="f"><path d="M74 78h16v9.863H74Zm0 0"/></clipPath><clipPath id="g"><path d="M106 84h5v3.863h-5Zm0 0"/></clipPath><clipPath id="h"><path d="M101 78h12.563v9.863H101Zm0 0"/></clipPath><clipPath id="i"><path d="M0 .066h9V14H0Zm0 0"/></clipPath><clipPath id="j"><path d="M21 .066h15V14H21Zm0 0"/></clipPath><clipPath id="k"><path d="M39 .066h32V13H39Zm0 0"/></clipPath><clipPath id="l"><path d="M74 .066h16V14H74Zm0 0"/></clipPath><clipPath id="m"><path d="M101 .066h12.563V14H101Zm0 0"/></clipPath></defs><path fill="none" stroke="#000" stroke-miterlimit="10" stroke-width=".39823392" d="M1.781 86.082h13.336m0 0h40.008m0 0h40.008m0 0h13.336"/><g clip-path="url(#a)"><path fill="#FFF" d="M3.367 86.082A1.584 1.584 0 1 0 .2 86.078a1.584 1.584 0 0 0 3.168.004m0 0"/></g><g clip-path="url(#b)"><path fill="none" stroke="#000" stroke-miterlimit="10" stroke-width=".39823392" d="M3.367 86.082A1.584 1.584 0 1 0 .2 86.078a1.584 1.584 0 0 0 3.168.004Zm0 0"/></g><g clip-path="url(#c)"><path d="M30.04 86.082a1.584 1.584 0 1 0-3.168-.004 1.584 1.584 0 0 0 3.167.004m0 0"/></g><g clip-path="url(#d)"><path fill="none" stroke="#000" stroke-miterlimit="10" stroke-width=".39823392" d="M30.04 86.082a1.584 1.584 0 1 0-3.168-.004 1.584 1.584 0 0 0 3.167.004Zm0 0"/></g><g clip-path="url(#e)"><path d="M83.383 86.082a1.584 1.584 0 1 0-3.168-.004 1.584 1.584 0 0 0 3.168.004m0 0"/></g><g clip-path="url(#f)"><path fill="none" stroke="#000" stroke-miterlimit="10" stroke-width=".39823392" d="M83.383 86.082a1.584 1.584 0 1 0-3.168-.004 1.584 1.584 0 0 0 3.168.004Zm0 0"/></g><g clip-path="url(#g)"><path fill="#FFF" d="M110.055 86.082a1.584 1.584 0 1 0-3.168-.004 1.584 1.584 0 0 0 3.168.004m0 0"/></g><g clip-path="url(#h)"><path fill="none" stroke="#000" stroke-miterlimit="10" stroke-width=".39823392" d="M110.055 86.082a1.584 1.584 0 1 0-3.168-.004 1.584 1.584 0 0 0 3.168.004Zm0 0"/></g><path fill="none" stroke="#000" stroke-miterlimit="10" stroke-width=".39823392" d="M1.781 6.066h13.336m0 0h25.074m29.872 0h25.07m0 0h13.336"/><path fill="#FFF" d="M3.367 6.066A1.584 1.584 0 1 0 .2 6.062a1.584 1.584 0 0 0 3.168.004m0 0"/><g clip-path="url(#i)"><path fill="none" stroke="#000" stroke-miterlimit="10" stroke-width=".39823392" d="M3.367 6.066A1.584 1.584 0 1 0 .2 6.062a1.584 1.584 0 0 0 3.168.004Zm0 0"/></g><path d="M30.04 6.066a1.584 1.584 0 1 0-3.168-.004 1.584 1.584 0 0 0 3.167.004m0 0"/><g clip-path="url(#j)"><path fill="none" stroke="#000" stroke-miterlimit="10" stroke-width=".39823392" d="M30.04 6.066a1.584 1.584 0 1 0-3.168-.004 1.584 1.584 0 0 0 3.167.004Zm0 0"/></g><g clip-path="url(#k)"><path fill="none" stroke="#000" stroke-miterlimit="10" stroke-width=".79546976" d="M40.191.465h29.872v11.203H40.19Zm0 0"/></g><path d="M83.383 6.066a1.584 1.584 0 1 0-3.168-.004 1.584 1.584 0 0 0 3.168.004m0 0"/><g clip-path="url(#l)"><path fill="none" stroke="#000" stroke-miterlimit="10" stroke-width=".39823392" d="M83.383 6.066a1.584 1.584 0 1 0-3.168-.004 1.584 1.584 0 0 0 3.168.004Zm0 0"/></g><path fill="#FFF" d="M110.055 6.066a1.584 1.584 0 1 0-3.168-.004 1.584 1.584 0 0 0 3.168.004m0 0"/><g clip-path="url(#m)"><path fill="none" stroke="#000" stroke-miterlimit="10" stroke-width=".39823392" d="M110.055 6.066a1.584 1.584 0 1 0-3.168-.004 1.584 1.584 0 0 0 3.168.004Zm0 0"/></g><path fill="none" stroke="#000" stroke-miterlimit="10" stroke-width=".39823392" d="M28.453 86.082V49.809m0-7.47V6.067"/><path fill="none" stroke="#000" stroke-miterlimit="10" stroke-width=".79546976" d="M17.254 49.809h22.402m-22.402-7.47h22.402"/><path fill="none" stroke="#000" stroke-miterlimit="10" stroke-width=".39823392" d="M81.797 86.082V49.809m0-7.47V6.067"/><path fill="none" stroke="#000" stroke-miterlimit="10" stroke-width=".79546976" d="M70.594 49.809H93m-22.406-7.47H93"/></svg>