<svg xmlns="http://www.w3.org/2000/svg" width="113.781" height="87.805"><defs><clipPath id="a"><path d="M.016 84H4v3.61H.016Zm0 0"/></clipPath><clipPath id="b"><path d="M.016 78H10v9.61H.016Zm0 0"/></clipPath><clipPath id="c"><path d="M106 84h5v3.61h-5Zm0 0"/></clipPath><clipPath id="d"><path d="M101 78h12.547v9.61H101Zm0 0"/></clipPath><clipPath id="e"><path d="M.016 4H4v4H.016Zm0 0"/></clipPath><clipPath id="f"><path d="M.016 0H10v14H.016Zm0 0"/></clipPath><clipPath id="g"><path d="M101 0h12.547v14H101Zm0 0"/></clipPath></defs><path fill="none" stroke="#000" stroke-miterlimit="10" stroke-width=".39811422" d="M1.8 85.828h53.325m0 0h53.328"/><g clip-path="url(#a)"><path fill="#FFF" d="M3.383 85.828a1.583 1.583 0 1 0-3.166.002 1.583 1.583 0 0 0 3.166-.002m0 0"/></g><g clip-path="url(#b)"><path fill="none" stroke="#000" stroke-miterlimit="10" stroke-width=".39811422" d="M3.383 85.828a1.583 1.583 0 1 0-3.166.002 1.583 1.583 0 0 0 3.166-.002Zm0 0"/></g><g clip-path="url(#c)"><path fill="#FFF" d="M110.04 85.828a1.584 1.584 0 0 0-3.169 0 1.584 1.584 0 0 0 3.168 0m0 0"/></g><g clip-path="url(#d)"><path fill="none" stroke="#000" stroke-miterlimit="10" stroke-width=".39811422" d="M110.04 85.828a1.584 1.584 0 0 0-3.169 0 1.584 1.584 0 0 0 3.168 0Zm0 0"/></g><path fill="none" stroke="#000" stroke-miterlimit="10" stroke-width=".39811422" d="M1.8 5.836h6.665m0 0h31.73m29.864 0h31.73m0 0h6.664"/><g clip-path="url(#e)"><path fill="#FFF" d="M3.383 5.836a1.583 1.583 0 1 0-3.166.002 1.583 1.583 0 0 0 3.166-.002m0 0"/></g><g clip-path="url(#f)"><path fill="none" stroke="#000" stroke-miterlimit="10" stroke-width=".39811422" d="M3.383 5.836a1.583 1.583 0 1 0-3.166.002 1.583 1.583 0 0 0 3.166-.002Zm0 0"/></g><path stroke="#000" stroke-miterlimit="10" stroke-width=".39811422" d="M16.715 5.836a1.584 1.584 0 1 0-3.168.003 1.584 1.584 0 0 0 3.168-.003Zm0 0"/><path fill="none" stroke="#000" stroke-linejoin="bevel" stroke-miterlimit="10" stroke-width=".7952306600000001" d="M39.797 5.996c0-3.094 1.715-5.598 3.832-5.598s3.832 2.504 3.832 5.598c0-3.094 1.715-5.598 3.832-5.598s3.832 2.504 3.832 5.598c0-3.094 1.719-5.598 3.832-5.598 2.117 0 3.836 2.504 3.836 5.598 0-3.094 1.715-5.598 3.832-5.598 2.113 0 3.832 2.504 3.832 5.598"/><path stroke="#000" stroke-miterlimit="10" stroke-width=".39811422" d="M96.707 5.836a1.584 1.584 0 1 0-3.167.003 1.584 1.584 0 0 0 3.167-.003Zm0 0"/><path fill="#FFF" d="M110.04 5.836a1.584 1.584 0 1 0-3.168.003 1.584 1.584 0 0 0 3.167-.003m0 0"/><g clip-path="url(#g)"><path fill="none" stroke="#000" stroke-miterlimit="10" stroke-width=".39811422" d="M110.04 5.836a1.584 1.584 0 1 0-3.168.003 1.584 1.584 0 0 0 3.167-.003Zm0 0"/></g><path fill="none" stroke="#000" stroke-miterlimit="10" stroke-width=".39811422" d="M15.129 5.836v13.332m0 0V32.5h36.266m7.464 0h36.262V19.168m0 0V5.836"/><path fill="none" stroke="#000" stroke-miterlimit="10" stroke-width=".7952306600000001" d="M51.395 21.3v22.4m7.464-22.4v22.4"/></svg>