<svg xmlns="http://www.w3.org/2000/svg" width="113.781" height="93.577"><defs><clipPath id="a"><path d="M.148 89H4v4H.148Zm0 0"/></clipPath><clipPath id="b"><path d="M.148 84H10v9.156H.148Zm0 0"/></clipPath><clipPath id="c"><path d="M87 84h16v9.156H87Zm0 0"/></clipPath><clipPath id="d"><path d="M101 84h12.414v9.156H101Zm0 0"/></clipPath><clipPath id="e"><path d="M.148 9H4v5H.148Zm0 0"/></clipPath><clipPath id="f"><path d="M.148 4H10v15H.148Zm0 0"/></clipPath><clipPath id="g"><path d="M101 4h12.414v15H101Zm0 0"/></clipPath></defs><path fill="none" stroke="#000" stroke-miterlimit="10" stroke-width=".3972045" d="M1.926 91.379H48.48m0 0h53.204m0 0h6.652"/><g clip-path="url(#a)"><path fill="#FFF" d="M3.504 91.379a1.58 1.58 0 1 0-3.16-.005 1.58 1.58 0 0 0 3.16.005m0 0"/></g><g clip-path="url(#b)"><path fill="none" stroke="#000" stroke-miterlimit="10" stroke-width=".3972045" d="M3.504 91.379a1.58 1.58 0 1 0-3.16-.005 1.58 1.58 0 0 0 3.16.005Zm0 0"/></g><path d="M96.613 91.379a1.58 1.58 0 1 0-3.159-.005 1.58 1.58 0 0 0 3.16.005m0 0"/><g clip-path="url(#c)"><path fill="none" stroke="#000" stroke-miterlimit="10" stroke-width=".3972045" d="M96.613 91.379a1.58 1.58 0 1 0-3.159-.005 1.58 1.58 0 0 0 3.16.005Zm0 0"/></g><path fill="#FFF" d="M109.918 91.379a1.58 1.58 0 1 0-3.161-.005 1.58 1.58 0 0 0 3.161.005m0 0"/><g clip-path="url(#d)"><path fill="none" stroke="#000" stroke-miterlimit="10" stroke-width=".3972045" d="M109.918 91.379a1.58 1.58 0 1 0-3.161-.005 1.58 1.58 0 0 0 3.161.005Zm0 0"/></g><path fill="none" stroke="#000" stroke-miterlimit="10" stroke-width=".3972045" d="M1.926 11.57h16.226m7.45 0h21.28m29.798 0h11.703m0 0h13.3m0 0h6.653"/><path fill="none" stroke="#000" stroke-miterlimit="10" stroke-width=".7934135000000001" d="M18.152.395v22.347M25.602.395v22.347"/><g clip-path="url(#e)"><path fill="#FFF" d="M3.504 11.57a1.58 1.58 0 1 0-3.16-.005 1.58 1.58 0 0 0 3.16.005m0 0"/></g><g clip-path="url(#f)"><path fill="none" stroke="#000" stroke-miterlimit="10" stroke-width=".3972045" d="M3.504 11.57a1.58 1.58 0 1 0-3.16-.005 1.58 1.58 0 0 0 3.16.005Zm0 0"/></g><path fill="none" stroke="#000" stroke-miterlimit="10" stroke-width=".7934135000000001" d="M46.883 5.984H76.68v11.172H46.883Zm0 0"/><path stroke="#000" stroke-miterlimit="10" stroke-width=".3972045" d="M96.613 11.57a1.58 1.58 0 1 0-3.159-.005 1.58 1.58 0 0 0 3.16.005Zm0 0"/><path fill="#FFF" d="M109.918 11.57a1.58 1.58 0 1 0-3.161-.005 1.58 1.58 0 0 0 3.161.005m0 0"/><g clip-path="url(#g)"><path fill="none" stroke="#000" stroke-miterlimit="10" stroke-width=".3972045" d="M109.918 11.57a1.58 1.58 0 1 0-3.161-.005 1.58 1.58 0 0 0 3.161.005Zm0 0"/></g><path fill="none" stroke="#000" stroke-miterlimit="10" stroke-width=".3972045" d="M95.035 91.379V66.37m0-29.797V11.57"/><path fill="none" stroke="#000" stroke-linejoin="bevel" stroke-miterlimit="10" stroke-width=".7934135000000001" d="M95.195 66.77c-3.086 0-5.59-1.715-5.59-3.825 0-2.113 2.504-3.824 5.59-3.824-3.086 0-5.59-1.71-5.59-3.824 0-2.11 2.504-3.824 5.59-3.824-3.086 0-5.59-1.711-5.59-3.825 0-2.109 2.504-3.82 5.59-3.82-3.086 0-5.59-1.715-5.59-3.824 0-2.113 2.504-3.824 5.59-3.824"/></svg>