<svg xmlns="http://www.w3.org/2000/svg" width="119.606" height="85.437"><defs><clipPath id="a"><path d="M109 35h10.02v15H109Zm0 0"/></clipPath><clipPath id="b"><path d="M8 3h2v81.879H8Zm0 0"/></clipPath><clipPath id="c"><path d="M9.105 3H115v79H9.105Zm0 0"/></clipPath></defs><path fill="none" stroke="#000" stroke-miterlimit="10" stroke-width=".39638655000000006" d="M9.105 42.438h106.27"/><path d="m118.426 42.438-2.953-1.75v3.503Zm0 0"/><g clip-path="url(#a)"><path fill="none" stroke="#000" stroke-miterlimit="10" stroke-width=".39638655000000006" d="m118.426 42.438-2.953-1.75v3.503Zm0 0"/></g><g clip-path="url(#b)"><path fill="none" stroke="#000" stroke-miterlimit="10" stroke-width=".39638655000000006" d="M9.105 84.68V3.645"/></g><path stroke="#000" stroke-miterlimit="10" stroke-width=".39638655000000006" d="M9.105.594 7.352 3.547h3.503Zm0 0"/><g clip-path="url(#c)"><path fill="none" stroke="#000" stroke-miterlimit="10" stroke-width=".39638655000000006" d="m9.105 42.438.2-.637.199-.637c.055-.18.144-.46.2-.64.054-.176.144-.458.198-.637.059-.176.145-.457.2-.637.058-.176.144-.457.203-.633.054-.176.144-.457.199-.633l.2-.632c.054-.176.144-.457.198-.63.055-.175.145-.452.2-.628.058-.176.144-.453.203-.625.054-.176.144-.453.199-.625l.2-.621c.054-.172.144-.446.198-.618.055-.167.145-.44.2-.613.054-.172.144-.441.199-.61.058-.171.144-.44.203-.609l.2-.605.198-.598.2-.593c.054-.168.144-.43.199-.594.054-.164.144-.422.199-.586.059-.16.145-.422.203-.582l.2-.574c.054-.16.144-.414.199-.575.054-.156.144-.406.199-.562.054-.156.144-.406.199-.563.055-.152.145-.398.2-.554.058-.153.144-.395.202-.547.055-.152.145-.39.2-.54.054-.152.144-.39.199-.538l.199-.528.2-.52c.054-.144.144-.374.198-.515.059-.14.145-.367.204-.508.054-.14.144-.363.199-.5l.199-.492c.055-.136.145-.351.2-.484.054-.133.144-.348.198-.477.059-.132.145-.34.2-.468.058-.13.144-.336.203-.461.054-.13.144-.328.199-.453.055-.125.145-.32.2-.442.054-.125.144-.316.198-.437l.2-.426c.058-.117.144-.301.203-.414.054-.117.14-.297.199-.41l.2-.399c.054-.11.144-.281.198-.387.055-.105.145-.277.2-.378.054-.106.144-.27.199-.372.058-.101.144-.261.203-.359.055-.098.145-.254.2-.348.054-.097.144-.246.198-.34.055-.093.145-.238.2-.328.054-.09.144-.234.199-.32l.2-.308c.058-.082.144-.215.202-.297.055-.082.145-.207.2-.285.054-.079.144-.204.199-.278.054-.074.144-.191.199-.265l.2-.254.198-.243c.059-.066.145-.168.203-.23.055-.063.145-.16.2-.223.054-.058.144-.152.199-.207l.2-.199.198-.184c.055-.05.145-.128.2-.175.058-.047.144-.121.203-.164a6.57 6.57 0 0 1 .199-.149c.055-.043.144-.105.2-.14.054-.04.144-.094.198-.13.055-.03.145-.085.2-.113.058-.03.144-.078.199-.105.058-.027.144-.07.203-.094.055-.023.144-.058.2-.078l.198-.07.2-.055c.054-.016.144-.035.199-.043a3.68 3.68 0 0 1 .203-.035c.055-.004.14-.016.2-.02.054-.004.144-.007.198-.007l.2.003.199.016c.054.008.144.02.199.031.059.008.144.028.203.04.055.011.145.035.2.05.054.016.144.047.199.067.054.02.144.05.199.074.054.023.144.062.199.09.055.023.144.07.2.097l.202.114c.055.03.145.086.2.125.054.035.144.093.199.132.054.04.144.106.199.149.055.043.144.113.2.16l.198.168c.059.05.145.133.204.184l.199.195c.054.055.144.144.199.203.055.059.144.156.2.219l.198.226.2.239c.058.07.144.18.203.25.054.074.144.187.199.261l.2.274.198.281c.055.082.145.21.2.297.058.082.144.219.199.305.058.086.144.226.203.312.055.09.144.234.2.328.054.09.144.238.198.336.055.094.145.246.2.344l.199.355c.058.102.144.266.2.368.058.101.144.27.202.375.055.105.145.277.2.386.054.11.144.285.199.395l.199.406.2.41c.058.117.144.305.202.426.055.117.145.309.2.43.054.12.144.316.199.441.054.125.144.324.199.45l.2.456c.054.13.144.336.198.465.059.133.145.344.203.477l.2.48c.054.137.144.356.199.492.055.137.144.356.199.496l.2.504.198.512c.06.145.145.375.204.52.054.148.144.382.199.527l.199.535c.055.149.145.387.2.54.054.148.144.394.198.546.055.152.145.395.2.55.058.153.144.403.203.56l.199.562c.055.156.145.41.2.57.054.156.144.414.198.574l.2.579c.054.164.144.421.199.586.059.164.144.425.203.59l.2.593.198.598.2.601c.054.168.144.438.199.61.059.168.144.437.2.61.058.167.144.44.202.612l.2.618c.054.171.144.445.199.617l.199.625.2.625c.058.172.144.449.202.625.055.176.14.453.2.629.054.175.144.457.199.632.054.176.144.457.199.633l.2.633.198.637c.059.176.145.46.203.637l.2.636.199.637c.055.18.144.46.2.64l.198.637c.055.18.145.461.2.64.058.177.144.462.203.638l.199.636.2.637c.054.176.144.457.198.633l.2.637c.054.175.144.457.199.632.058.172.144.454.203.63l.2.628c.054.176.144.453.198.625.055.176.145.453.2.625.054.172.144.45.199.621.054.172.144.45.199.621.059.168.145.446.203.614.055.172.145.445.2.613l.199.61.199.605.199.601c.059.164.145.43.2.594.058.168.144.43.202.594l.2.59.199.582c.054.16.144.418.199.578.055.16.145.414.2.57.058.16.144.414.202.57.055.157.141.407.2.563l.199.555.199.55c.055.153.145.395.2.543l.198.54c.059.144.145.382.204.527.054.148.144.383.199.527.054.145.144.371.199.516l.2.508.198.504c.055.14.145.359.2.496.058.136.144.351.203.488.054.133.144.348.199.476.055.133.145.344.2.473l.198.465.2.453c.054.125.144.324.199.445.058.125.144.32.203.438.055.121.145.312.2.43l.198.421.2.41c.054.114.144.29.199.4.055.112.144.284.2.394.058.105.144.277.202.382l.2.372c.054.101.144.261.199.363l.199.351c.055.098.144.25.2.344.058.094.144.242.198.332.059.09.145.235.203.32.055.09.145.227.2.313.054.086.144.219.199.3.055.083.144.212.2.294.054.078.144.203.198.277.059.078.145.195.203.27a13.596 13.596 0 0 0 .598.738l.2.226c.054.059.144.153.199.211.058.059.144.149.203.203.054.055.144.137.199.188.055.05.144.133.2.18.054.047.144.12.198.168.055.043.145.113.2.152.054.043.144.105.199.145.058.039.144.097.203.132.055.035.144.086.2.118.054.035.144.082.198.109l.2.098c.054.023.144.062.199.082.054.023.144.054.199.074.059.015.145.043.203.058.055.016.145.036.2.047.054.012.144.032.199.04.054.007.144.019.199.023.054.004.144.011.199.011h.2c.058 0 .144-.007.202-.011.055-.004.145-.016.2-.024.054-.007.144-.027.199-.039.054-.011.144-.031.199-.047l.2-.058c.054-.02.144-.051.198-.074.059-.02.145-.059.204-.082.054-.028.144-.07.199-.098.054-.027.144-.074.199-.11.055-.03.145-.082.2-.117a5.878 5.878 0 0 0 .398-.277c.058-.04.144-.11.203-.152.054-.047.144-.121.199-.168.055-.047.145-.13.2-.18.054-.05.144-.133.198-.188.055-.054.145-.144.2-.203.058-.058.144-.152.203-.21.054-.063.14-.165.199-.227a12.467 12.467 0 0 0 .398-.48c.055-.07.145-.184.2-.258.054-.075.144-.192.199-.27.058-.074.144-.2.203-.277l.2-.293c.054-.082.144-.215.198-.301.055-.086.145-.223.2-.313a22.984 22.984 0 0 0 .398-.652c.059-.094.145-.246.203-.344l.2-.351c.054-.102.144-.262.199-.363l.199-.372.2-.382c.054-.11.144-.282.198-.395.059-.11.145-.285.203-.398l.2-.41c.054-.118.144-.305.199-.422l.2-.43c.054-.117.144-.313.198-.438.055-.12.145-.32.2-.445.058-.125.144-.328.203-.453.054-.129.144-.336.199-.465l.2-.473c.054-.128.144-.343.198-.476.055-.137.145-.352.2-.488.058-.137.144-.356.199-.496.058-.137.144-.364.203-.504l.2-.508c.054-.145.144-.371.198-.516.055-.144.145-.379.2-.527l.199-.527c.058-.149.144-.391.203-.54.055-.148.14-.39.2-.543l.198-.55.2-.555c.054-.156.144-.406.199-.562l.199-.57c.059-.157.144-.411.203-.571l.2-.578.199-.582c.054-.164.144-.426.199-.59.054-.164.144-.426.199-.594l.2-.594c.058-.168.144-.437.202-.601l.2-.606.199-.609.199-.613c.055-.168.144-.446.2-.614l.198-.62c.059-.173.145-.45.203-.622.055-.172.145-.449.2-.625l.199-.625.2-.629c.054-.175.144-.457.198-.629l.2-.632c.058-.176.144-.461.203-.637.054-.176.144-.457.199-.633l.2-.637.198-.636.2-.637c.058-.18.144-.461.199-.64.058-.176.144-.462.203-.637.055-.18.144-.461.2-.641l.198-.637.2-.636.199-.637c.058-.176.144-.461.203-.637.055-.176.14-.457.2-.633.054-.176.144-.457.198-.633l.2-.632c.054-.176.144-.453.199-.63.054-.175.144-.452.199-.624.059-.176.145-.453.203-.625.055-.176.145-.453.2-.625.054-.172.144-.446.199-.617.054-.172.144-.45.199-.618.054-.172.144-.445.199-.613.055-.172.145-.441.2-.61.058-.171.144-.44.202-.609l.2-.601.199-.598.199-.594.2-.59c.054-.164.144-.421.198-.585.06-.16.145-.418.204-.579.054-.16.144-.418.199-.574.054-.16.144-.414.199-.57l.2-.563c.054-.156.144-.406.198-.558.055-.156.145-.399.2-.55.058-.153.144-.4.203-.548.054-.152.144-.39.199-.539l.2-.535c.054-.145.144-.379.198-.527l.2-.52.199-.512c.058-.14.144-.363.203-.504.055-.14.145-.359.2-.496.054-.136.144-.355.198-.492l.2-.48c.054-.133.144-.344.199-.477.058-.129.144-.336.2-.465.058-.129.144-.332.202-.457l.2-.449c.054-.125.144-.32.199-.441.054-.121.144-.313.199-.43.055-.121.144-.309.2-.426.058-.113.144-.297.202-.41.055-.113.14-.297.2-.406.054-.11.144-.285.199-.395.054-.11.144-.281.199-.386.055-.106.144-.274.2-.375l.198-.368c.059-.097.145-.257.203-.355.055-.098.145-.25.2-.344.054-.098.144-.246.199-.336.055-.094.144-.238.2-.328l.198-.312c.055-.086.145-.223.2-.305.058-.086.144-.215.203-.297.054-.078.144-.203.199-.281.055-.078.144-.2.2-.274.054-.074.144-.187.198-.261l.2-.25c.054-.067.144-.172.199-.239.058-.062.144-.164.203-.226.055-.063.144-.16.2-.219.054-.059.144-.148.198-.203l.2-.195.199-.184c.054-.047.144-.121.199-.168.059-.047.145-.117.203-.16.055-.043.145-.11.2-.149a5.88 5.88 0 0 1 .199-.132c.054-.04.144-.094.199-.125l.199-.114c.059-.027.145-.074.2-.097.058-.028.144-.067.202-.09.055-.024.145-.055.2-.074.054-.02.144-.051.199-.067.054-.015.144-.039.199-.05.055-.012.145-.032.2-.04.058-.011.144-.023.202-.03.055-.005.141-.013.2-.017l.199-.003c.054 0 .144.003.199.007.055.004.145.016.2.02.054.008.144.023.198.035.059.008.145.027.204.043.054.016.144.04.199.055l.199.07c.055.02.145.055.2.078a4.572 4.572 0 0 1 .398.2c.058.027.144.081.203.113.054.035.144.09.199.129a6.568 6.568 0 0 1 .398.29 7.363 7.363 0 0 1 .399.338c.058.051.144.133.203.184l.2.2c.054.054.144.148.198.206.055.063.145.16.2.223.054.062.144.164.199.23l.2.243c.058.07.144.183.202.254.055.074.145.19.2.265l.199.278c.054.078.144.203.199.285l.2.297c.058.085.144.222.198.308.059.086.145.23.203.32.055.09.145.235.2.329.054.093.144.242.199.34.055.093.144.25.2.347.054.098.144.258.198.36.059.101.145.265.203.37.055.102.141.274.2.38.054.105.144.277.199.386.055.11.144.29.2.399.054.113.144.293.198.41.055.113.145.297.2.414.058.117.144.308.203.426.054.12.144.312.199.437l.2.442c.054.125.144.324.198.453l.2.46c.054.13.144.337.199.47.058.128.144.343.203.476l.2.484c.054.137.144.356.198.492l.2.5c.054.141.144.368.199.508l.199.516c.059.14.144.375.203.52l.2.527c.054.148.144.386.199.539.054.148.144.387.199.539.054.152.144.394.199.547.055.156.144.402.2.554.058.157.144.407.202.563l.2.562c.054.16.144.414.199.575l.199.574.2.582c.054.164.144.422.198.586.059.164.145.426.204.594.054.164.144.425.199.593l.199.598.2.605c.054.168.144.438.198.61.059.168.145.437.2.61.058.171.144.445.203.612.054.172.144.446.199.618l.2.62c.054.173.144.45.198.626.055.172.145.449.2.625.058.176.144.453.203.629.054.172.14.453.199.629l.2.632c.054.176.144.457.198.633l.2.633c.054.18.144.461.199.637.058.176.144.46.203.636.055.18.144.461.2.641l.198.637.2.637"/></g></svg>