<svg xmlns="http://www.w3.org/2000/svg" width="121.749" height="85.437"><defs><clipPath id="a"><path d="M108 35h13.227v15H108Zm0 0"/></clipPath><clipPath id="b"><path d="M8 3h2v81.879H8Zm0 0"/></clipPath><clipPath id="c"><path d="M9.18.195h108.75V49H9.18Zm0 0"/></clipPath></defs><path fill="none" stroke="#000" stroke-miterlimit="10" stroke-width=".39638655000000006" d="M9.18 42.438h105.297"/><path d="m117.531 42.438-2.953-1.75v3.503Zm0 0"/><g clip-path="url(#a)"><path fill="none" stroke="#000" stroke-miterlimit="10" stroke-width=".39638655000000006" d="m117.531 42.438-2.953-1.75v3.503Zm0 0"/></g><g clip-path="url(#b)"><path fill="none" stroke="#000" stroke-miterlimit="10" stroke-width=".39638655000000006" d="M9.18 84.68V3.645"/></g><path stroke="#000" stroke-miterlimit="10" stroke-width=".39638655000000006" d="M9.18.594 7.43 3.547h3.504Zm0 0"/><g clip-path="url(#c)"><path fill="none" stroke="#000" stroke-miterlimit="10" stroke-width=".39638655000000006" d="M9.18 42.438h.761l.11-.028.11-.36.109-.745.109-.778.105-.78.22-1.548.218-1.531.11-.758.105-.754.11-.75.108-.746.11-.738.11-.734.109-.727.109-.723.105-.715.11-.707.11-.699.109-.695.109-.688.11-.675.105-.672.11-.664.109-.653.109-.644.11-.637.109-.629.105-.617.11-.61.109-.6.11-.587.109-.582.109-.566.105-.559.11-.547.11-.539.109-.523.109-.516.11-.5.105-.492.11-.48.109-.47.109-.452.11-.446.109-.43.11-.417.105-.407.109-.39.11-.38.109-.366.109-.356.11-.34.105-.328.11-.312.109-.301.109-.285.11-.274.109-.261.105-.243.11-.234.109-.219.11-.203.109-.191.11-.176.105-.164.109-.152.11-.137.109-.121.11-.114.108-.097.106-.086.11-.07.109-.063.109-.05.11-.04.109-.031.11-.023.105-.016.109-.008h.219l.11.008.108.004.106.012.11.007.218.024.11.008.109.011.105.012.11.012.11.008.327.035.106.008.328.035.11.008.218.023.105.012.11.007.328.036.11.007.105.012.328.035.11.008.109.012.105.012.11.011.109.008.219.024.109.007.105.012.22.024.109.007.218.024.106.011.11.008.327.035.11.008.109.012.105.012.11.011.11.008.218.024.11.007.105.012.219.024.109.007.219.024.105.012.11.007.218.024.11.008.109.011.105.012.11.012.11.008.327.035.106.008.219.023.109.008.219.023.11.008.105.012.218.023.11.008.218.024.106.007.328.035.11.008.109.012.105.012.11.008.218.023.11.008.11.012.105.011.109.008.328.035.11.008.109.012.105.011.11.008.218.024.11.008.11.011.105.012.109.008.219.023.11.008.109.012.105.011.11.012.109.008.218.023.11.008.105.012.11.012.11.007.218.024.11.008.105.011.11.012.108.008.22.023.109.008.109.012.105.012.11.007.219.024.109.008.11.011.105.012.11.008.218.023.11.008.109.012.105.008.219.023.11.008.218.023.105.008.22.024.109.008.218.023.106.008.219.023.109.008.11.012.109.008.109.011.105.012.11.008.219.023.109.008.11.012.105.011.11.008.109.012.109.008.219.023.105.008.219.024.11.007.109.012.109.008.106.012.109.011.11.008.218.024.11.007.109.012.105.008.219.023.11.008.218.024.106.007.109.012.11.008.218.023.11.008.105.012.11.008.218.023.11.008.109.012.105.007.219.024.11.008.109.011.11.008.105.012.109.012.11.008.109.011.11.008.218.023.105.008.11.012.11.008.218.023.11.008.105.012.109.008.219.023.11.008.109.012.105.007.11.012.109.008.219.023.109.008.105.012.11.008.218.023.11.008.11.012.105.007.11.012.108.008.22.023.109.008.109.012.105.008.11.012.11.007.218.024.11.008.105.011.11.008.109.012.109.008.219.023.105.008.11.012.109.007.11.012.109.008.109.012.105.007.22.024.109.008.109.011.11.008.109.012.105.008.11.012.109.007.219.024.109.008.106.011.109.008.11.012.109.008.109.011.11.008.105.012.11.008.218.023.11.008.109.012.105.007.11.012.328.024.11-.008.105-.047.109-.125.11-.207.109-.242.109-.246.11-.235.109-.222.105-.207.11-.196.109-.183.11-.168.109-.153.11-.14.105-.13.109-.116.11-.102.109-.09.11-.074.108-.066.106-.055.11-.043.109-.035.11-.024.108-.02.11-.007.105-.004h.11l.109.004.328.023.106.012.109.012.11.008.328.035.109.008.105.011.22.024.108.008.22.023.105.012.11.012.108.007.329.035.105.008.328.035.11.008.109.012.105.012.11.011.11.008.327.035.106.008.328.035.11.008.218.024.105.011.11.008.219.024.109.007.11.012.105.012.11.012.109.007.328.036.105.007.328.035.11.008.109.012.105.012.11.011.11.008.218.024.11.008.109.011.105.012.11.012.109.007.219.024.11.008.105.011.218.024.11.008.218.023.106.008.328.035.11.008.109.012.105.011.11.008.328.035.11.008.105.012.109.012.11.007.218.024.11.008.109.011.105.012.11.012.109.008.219.023.11.008.105.012.109.011.11.008.218.024.11.007.105.012.11.012.109.008.328.035.105.008.22.023.108.008.22.023.105.008.218.024.11.007.219.024.109.008.105.011.11.012.11.008.218.023.11.008.105.012.11.012.108.007.22.024.109.008.105.011.11.012.109.008.219.023.109.008.105.012.11.012.11.007.218.024.11.008.109.011.105.012.11.008.109.012.11.007.218.024.105.008.22.023.109.008.218.023.106.008.219.024.109.007.11.012.109.008.105.012.11.011.109.008.219.024.109.007.105.012.11.012.11.008.109.011.109.008.219.024.105.007.219.024.11.008.109.011.11.008.105.012.109.012.11.007.218.024.11.008.105.011.11.008.218.024.11.007.109.012.105.012.11.008.109.011.11.008.218.024.106.008.109.011.11.008.218.023.11.008.109.012.105.008.22.023.108.008.11.012.11.008.105.011.109.012.11.008.109.012.11.007.109.012.105.012.11.008.109.011.11.008.218.024.105.007.11.012.11.008.108.012.11.007.219.024.105.008.11.011.109.008.219.024.109.008.105.011.11.008.11.012.109.008.218.023.106.008.11.012.108.007.11.012.11.008.109.012.105.011.11.008.109.012.11.008.109.011.109.008.105.012.11.012.11.007.109.012.109.008.11.012.109.008.105.011.11.008.218.023.11.008.109.012.105.008.11.012.11.007.109.012.109.008.11.012.105.011.11.008.109.012.109.008.11.011.109.008.105.012.11.008.109.011.11.008.218.024.106.008.109.011.11.008.109.012.109.008.11.011.109.008.105.012.11.008h.109l.11-.032.109-.097.11-.184.105-.234L89 8.64l.11-.239.109-.226.11-.215.108-.2.106-.187.11-.172.109-.16.11-.144.108-.133.11-.117.105-.106.11-.094.109-.082.11-.07.109-.058.11-.047.109-.035.105-.028.11-.02.109-.011.11-.008h.108l.11.004.105.004.11.008.11.011.108.008.11.012.11.008.105.012.218.023.11.008.219.023.105.012.11.012.109.007.328.036.105.007.328.036.11.007.219.024.105.012.11.007.328.036.109.007.105.012.22.023.109.008.218.024.106.011.11.008.327.035.11.008.105.012.219.023.11.008.218.024.105.011.11.008.219.024.109.007.219.024.105.012.11.007.328.036.11.007.105.012.109.012.11.008.327.035.106.008.328.035.11.008.109.011.105.012.11.008.328.035.11.008.108.011.106.012.11.008.218.023.11.008.109.012.105.012.11.011.109.008.219.024.11.007.105.012.218.024.11.007.218.024.106.008.219.023.11.008.218.023.105.008.328.035.11.008.219.024.105.007.219.024.11.008.218.023.105.008.22.023.108.008.22.024.105.007.218.024.11.008.219.023.105.008.219.023.11.008.218.024.105.007.22.024.109.008.218.023.11.008.105.012.11.011.109.008.219.024.109.007.105.012.11.012.11.008.218.023.11.008.105.012.11.011.109.008.218.024.11.007.105.012.11.008.218.023.11.008.218.024.106.007.219.024.109.008.219.023.105.008.11.012.109.007.219.024.11.008.105.011.109.012.11.008.109.012.109.008.11.011.105.012.11.008.218.023.11.008.109.012.105.008.219.023.11.008.218.023.11.008.105.012.11.008.218.023.11.008.109.012.105.007.219.024.11.008.218.023.106.008.109.012.11.007.218.024.11.008.105.011.11.008.218.024.11.007.109.012.105.008.22.023.108.008.11.012.11.008.109.011.105.008.219.024.11.008.109.011.109.008.105.012.11.011.11.008.109.012.109.008.11.012.105.011"/></g></svg>