<svg xmlns="http://www.w3.org/2000/svg" xmlns:xlink="http://www.w3.org/1999/xlink" width="226.771" height="68.657"><defs><clipPath id="a"><path d="M27 64h5v4.316h-5Zm0 0"/></clipPath><clipPath id="b"><path d="M22 59h15v9.316H22Zm0 0"/></clipPath><clipPath id="d"><path d="M.45 26H34v25H.45Zm0 0"/></clipPath><path id="c" d="M6.297-5.719c.094-.406.266-.703 1.062-.734.047 0 .172-.016.172-.203 0-.016 0-.11-.125-.11-.328 0-.687.032-1.015.032-.344 0-.703-.032-1.032-.032-.062 0-.171 0-.171.204 0 .109.093.109.171.109.563 0 .672.219.672.437 0 .016-.015.172-.031.204l-.89 3.53C4.78-.952 3.64-.093 2.64-.093c-.671 0-1.203-.437-1.203-1.281 0-.016 0-.344.11-.781L2.5-6c.094-.36.11-.453.844-.453.25 0 .328 0 .328-.203 0-.11-.11-.11-.14-.11-.266 0-.985.032-1.266.032-.282 0-.985-.032-1.282-.032-.078 0-.187 0-.187.204 0 .109.094.109.281.109.016 0 .203 0 .375.016.188.015.266.03.266.156 0 .062-.11.468-.157.703l-.218.875c-.094.39-.578 2.25-.61 2.437-.078.282-.078.438-.078.579C.656-.47 1.563.218 2.61.218c1.25 0 2.47-1.125 2.797-2.422Zm0 0"/></defs><path fill="none" stroke="#000" stroke-linejoin="bevel" stroke-miterlimit="10" stroke-width=".79303891" d="M47.09 22.21c3.27 0 5.922 1.813 5.922 4.048 0 2.238-2.653 4.05-5.922 4.05 3.27 0 5.922 1.813 5.922 4.047 0 2.235-2.653 4.047-5.922 4.047 3.27 0 5.922 1.813 5.922 4.047 0 2.239-2.653 4.051-5.922 4.051 3.27 0 5.922 1.813 5.922 4.047s-2.653 4.047-5.922 4.047M71.098 54.594c-3.27 0-5.922-1.813-5.922-4.047s2.652-4.047 5.922-4.047c-3.27 0-5.922-1.812-5.922-4.05 0-2.235 2.652-4.048 5.922-4.048-3.27 0-5.922-1.812-5.922-4.047 0-2.234 2.652-4.046 5.922-4.046-3.27 0-5.922-1.813-5.922-4.051 0-2.235 2.652-4.047 5.922-4.047"/><path fill="none" stroke="#000" stroke-miterlimit="10" stroke-width=".39701697" d="M29.477 10.27h17.77v12.34m0 31.59v12.34h-17.77M88.71 10.27H70.94v12.34m0 31.59v12.34h17.77"/><path fill="none" stroke="#000" stroke-miterlimit="10" stroke-width=".79303891" d="M60.574 52.473V24.336m-2.96 28.137V24.336"/><path fill="none" stroke="#000" stroke-miterlimit="10" stroke-width=".39701697" d="M29.477 10.27"/><path fill="#FFF" stroke="#000" stroke-miterlimit="10" stroke-width=".39701697" d="M31.059 10.27a1.58 1.58 0 1 0-3.161-.004 1.58 1.58 0 0 0 3.16.004Zm0 0"/><path fill="none" stroke="#000" stroke-miterlimit="10" stroke-width=".39701697" d="M29.477 66.54"/><g clip-path="url(#a)"><path fill="#FFF" d="M31.059 66.54a1.58 1.58 0 0 0-3.16 0 1.58 1.58 0 0 0 3.16 0m0 0"/></g><g clip-path="url(#b)"><path fill="none" stroke="#000" stroke-miterlimit="10" stroke-width=".39701697" d="M31.059 66.54a1.58 1.58 0 0 0-3.16 0 1.58 1.58 0 0 0 3.16 0Zm0 0"/></g><path fill="none" stroke="#000" stroke-miterlimit="10" stroke-width=".39701697" d="M88.71 10.27h48.302m15.793 0h48.3"/><path fill="none" stroke="#000" stroke-miterlimit="10" stroke-width=".79303891" d="M152.805 10.27 137.012.395V20.14Zm0 0"/><path fill="none" stroke="#000" stroke-miterlimit="10" stroke-width=".39701697" d="M152.805 10.27h-15.793"/><path fill="none" stroke="#000" stroke-miterlimit="10" stroke-width=".79303891" d="M152.805 20.14V.396"/><path fill="none" stroke="#000" stroke-miterlimit="10" stroke-width=".39701697" d="M88.71 66.54h56.2m0 0h56.195M201.105 10.27v12.34m9.676-5.926V60.12m-9.676-5.922v12.34"/><path fill="none" stroke="#000" stroke-miterlimit="10" stroke-width=".79303891" d="M195.184 54.2V22.61h11.847V54.2Zm0 0"/><path stroke="#000" stroke-miterlimit="10" stroke-width=".39701697" d="M210.781 55.926h-1.972l1.972 4.195 1.973-4.195Zm0 0"/><use xlink:href="#c" x="212.96" y="41.79"/><g clip-path="url(#d)"><path fill="none" stroke="#000" stroke-miterlimit="10" stroke-width=".39701697" d="M.648 38.402C2.844 34.95 4.95 31.66 7.391 31.66c2.441 0 4.546 3.29 6.742 6.742 2.199 3.453 4.304 6.746 6.746 6.746 2.441 0 4.543-3.293 6.742-6.746"/></g></svg>