<svg xmlns="http://www.w3.org/2000/svg" xmlns:xlink="http://www.w3.org/1999/xlink" width="229.182" height="170.378"><defs><path id="c" d="M2.922-6.344c0-.25 0-.265-.235-.265-.609.64-1.484.64-1.796.64v.297c.187 0 .78 0 1.297-.25v5.14c0 .36-.032.47-.922.47H.938V0c.359-.031 1.218-.031 1.609-.031.406 0 1.265 0 1.61.031v-.312h-.313c-.89 0-.922-.11-.922-.47Zm0 0"/><path id="d" d="M5.781-6.75H.328v.313h.235c.765 0 .78.109.78.468V-.78c0 .36-.015.469-.78.469H.328V0c.344-.031 1.125-.031 1.5-.031.422 0 1.313 0 1.672.031v-.312h-.328c-.938 0-.938-.125-.938-.47v-2.437h.844c.953 0 1.063.313 1.063 1.156h.25v-2.624h-.25c0 .828-.11 1.156-1.063 1.156h-.844v-2.516c0-.328.016-.39.485-.39h1.187c1.485 0 1.735.546 1.89 1.921h.25Zm0 0"/><path id="h" d="M6.719-1.61h-.25a4.838 4.838 0 0 1-.172.72c-.063.171-.078.25-.656.25h-.797c.125-.563.437-1.032.875-1.688.468-.703.875-1.39.875-2.172 0-1.39-1.328-2.5-3.016-2.5C1.875-7 .563-5.86.563-4.5c0 .781.406 1.469.859 2.172.437.656.766 1.125.89 1.687h-.796c-.578 0-.61-.078-.657-.234-.078-.219-.125-.484-.171-.734h-.25L.766 0h1.578c.219 0 .25 0 .25-.203 0-.703-.297-1.578-.531-2.203-.204-.578-.485-1.36-.485-2.11 0-1.593 1.094-2.265 2-2.265.953 0 2 .718 2 2.265 0 .75-.266 1.5-.562 2.313-.141.422-.47 1.312-.47 2 0 .203.032.203.266.203h1.579Zm0 0"/><path id="k" d="M2.922-1.64v.859c0 .36-.031.469-.766.469h-.203V0c.406-.031.922-.031 1.344-.031.406 0 .937 0 1.344.031v-.312h-.203c-.735 0-.75-.11-.75-.47v-.859h.984v-.296h-.984v-4.516c0-.203 0-.266-.172-.266-.079 0-.11 0-.188.125L.281-1.937v.296Zm.047-.298H.563L2.969-5.64Zm0 0"/><path id="m" d="M4.719-6.047c.093-.11.093-.14.093-.344H2.407c-1.219 0-1.234-.125-1.281-.312H.891L.563-4.656h.234c.031-.172.125-.797.25-.907.078-.062.844-.062.984-.062h2.047c-.11.156-.89 1.234-1.11 1.563C2.079-2.72 1.75-1.344 1.75-.328c0 .094 0 .547.453.547s.453-.453.453-.547v-.5c0-.547.031-1.094.11-1.625.046-.235.187-1.094.625-1.703Zm0 0"/><path id="r" d="M4.563-3.172c0-.797-.047-1.594-.391-2.328-.469-.953-1.281-1.11-1.688-1.11-.593 0-1.328.266-1.734 1.188-.312.672-.36 1.453-.36 2.25 0 .735.032 1.64.438 2.39.438.798 1.156 1 1.64 1C3 .219 3.767.017 4.204-.936c.313-.688.36-1.454.36-2.235M2.469 0c-.39 0-.969-.25-1.156-1.203-.11-.594-.11-1.5-.11-2.094 0-.625 0-1.281.094-1.828.187-1.172.922-1.266 1.172-1.266.328 0 .984.172 1.172 1.157.093.562.093 1.312.093 1.937 0 .75 0 1.422-.109 2.063C3.485-.297 2.922 0 2.469 0m0 0"/><path id="e" d="M4.156 0v-.312h-.312c-.89 0-.922-.11-.922-.47v-5.562c0-.25 0-.265-.235-.265-.609.64-1.484.64-1.796.64v.297c.187 0 .78 0 1.297-.25v5.14c0 .36-.032.47-.922.47H.938V0c.359-.031 1.218-.031 1.609-.031.406 0 1.265 0 1.61.031m0 0"/><path id="f" d="M4.563-3.172c0-.797-.047-1.594-.391-2.328-.469-.953-1.281-1.11-1.688-1.11-.593 0-1.328.266-1.734 1.188-.312.672-.36 1.453-.36 2.25 0 .735.032 1.64.438 2.39.438.798 1.156 1 1.64 1C3 .219 3.767.017 4.204-.936c.313-.688.36-1.454.36-2.235m-.829-.125c0 .75 0 1.422-.109 2.063C3.485-.297 2.922 0 2.469 0c-.39 0-.969-.25-1.156-1.203-.11-.594-.11-1.5-.11-2.094 0-.625 0-1.281.094-1.828.187-1.172.922-1.266 1.172-1.266.328 0 .984.172 1.172 1.157.093.562.093 1.312.093 1.937m0 0"/><path id="g" d="M5.063 0v-.312c-.36 0-.579 0-.954-.516L2.844-2.61c0-.016-.063-.079-.063-.11 0-.047.719-.64.813-.719.625-.5 1.047-.515 1.25-.53v-.313c-.297.031-.422.031-.703.031-.344 0-.97-.016-1.11-.031v.312c.188.016.297.125.297.25 0 .203-.14.313-.219.39L1.703-2.124v-4.766l-1.422.11v.312c.688 0 .766.063.766.563V-.75c0 .438-.11.438-.766.438V0L1.36-.031 2.453 0v-.312c-.672 0-.781 0-.781-.438v-1.031l.64-.547C3.079-1.266 3.5-.718 3.5-.531c0 .187-.172.219-.36.219V0l1.063-.031c.297 0 .578.015.86.031m0 0"/><path id="i" d="M4.453-1.719h-.25c-.047.297-.11.735-.219.875-.062.078-.718.078-.937.078H1.266L2.313-1.78c1.546-1.375 2.14-1.906 2.14-2.907 0-1.125-.89-1.921-2.11-1.921C1.235-6.61.5-5.687.5-4.812c0 .562.484.562.516.562a.516.516 0 0 0 .515-.531c0-.266-.172-.516-.515-.516-.079 0-.11 0-.125.016.218-.657.75-1.016 1.328-1.016.906 0 1.328.797 1.328 1.61 0 .796-.485 1.578-1.031 2.203L.609-.36C.5-.266.5-.234.5 0h3.672Zm0 0"/><path id="p" d="M4.672-1.64v-.298h-.984v-4.515c0-.203 0-.266-.172-.266-.079 0-.11 0-.188.125L.281-1.937v.296h2.64v.86c0 .36-.03.469-.765.469h-.203V0c.406-.031.922-.031 1.344-.031.406 0 .937 0 1.344.031v-.312h-.203c-.735 0-.75-.11-.75-.47v-.859Zm-1.703-.298H.563L2.969-5.64Zm0 0"/><path id="q" d="M4.813-6.39H2.406c-1.219 0-1.234-.126-1.281-.313H.891L.563-4.656h.234c.031-.172.125-.797.25-.907.078-.062.844-.062.984-.062h2.047l-1.11 1.563C2.079-2.72 1.75-1.344 1.75-.328c0 .094 0 .547.453.547s.453-.453.453-.547v-.5c0-.547.031-1.094.11-1.625.046-.235.187-1.094.625-1.703l1.328-1.89c.093-.11.093-.141.093-.345m0 0"/><path id="s" d="M6.469-2.562h-.25c-.25 1.53-.469 2.25-2.188 2.25H2.72c-.469 0-.485-.063-.485-.391V-3.36h.891c.969 0 1.078.328 1.078 1.172h.234v-2.641h-.234c0 .86-.11 1.172-1.078 1.172h-.89v-2.39c0-.329.015-.391.484-.391H4c1.516 0 1.781.546 1.938 1.921h.25L5.906-6.75H.328v.313h.235c.765 0 .78.109.78.468V-.78c0 .36-.015.469-.78.469H.328V0h5.719Zm0 0"/><path id="t" d="M4.953-2.531v-.219H0v.219Zm0 0"/><path id="u" d="M7.156-2.484c0-.188-.187-.188-.328-.188H4.062v-2.781c0-.14 0-.328-.203-.328s-.203.187-.203.328v2.781H.891c-.141 0-.328 0-.328.188 0 .203.187.203.328.203h2.765V.5c0 .14 0 .328.203.328.204 0 .204-.187.204-.328v-2.781h2.765c.14 0 .328 0 .328-.203m0 0"/><path id="j" d="M.219 2.125H1.25v1.047c0 .14.125.25.266.25.14 0 .265-.11.265-.25V2.125h1.032c.14 0 .265-.11.265-.25a.274.274 0 0 0-.265-.266H1.78V.58c0-.141-.125-.25-.265-.25-.141 0-.266.108-.266.25v1.03H.219a.274.274 0 0 0-.266.266c0 .14.125.25.266.25m0 0"/><path id="l" d="M2.016-.016c0-.656-.25-1.03-.641-1.03a.5.5 0 0 0-.516.515c0 .265.188.531.516.531.125 0 .25-.047.344-.125.031-.031.047-.031.062-.031 0 0 .016 0 .016.14 0 .735-.344 1.329-.672 1.657-.11.109-.11.14-.11.172 0 .062.048.109.094.109.11 0 .907-.766.907-1.938m0 0"/><clipPath id="a"><path d="M.008 152H14v15H.008Zm0 0"/></clipPath><clipPath id="b"><path d="M.008 75H14v16H.008Zm0 0"/></clipPath><clipPath id="n"><path d="M159 159h1v10.758h-1Zm0 0"/></clipPath><clipPath id="o"><path d="M153 168h13v1.758h-13Zm0 0"/></clipPath></defs><path fill="none" stroke="#000" stroke-miterlimit="10" stroke-width=".39754764000000004" d="M6.7 159.477h25.476m0 0h50.953m0 0h50.957m0 0h50.953m0 0h25.477"/><path fill="#FFF" d="M8.277 159.477a1.58 1.58 0 1 0-3.16 0c0 .87.707 1.582 1.582 1.582.871 0 1.578-.711 1.578-1.582m0 0"/><g clip-path="url(#a)"><path fill="none" stroke="#000" stroke-miterlimit="10" stroke-width=".39754764000000004" d="M8.277 159.477a1.58 1.58 0 1 0-3.16 0c0 .87.707 1.582 1.582 1.582.871 0 1.578-.711 1.578-1.582Zm0 0"/></g><path stroke="#000" stroke-miterlimit="10" stroke-width=".39754764000000004" d="M59.234 159.477a1.58 1.58 0 0 0-1.582-1.582 1.583 1.583 0 1 0 1.582 1.582ZM110.188 159.477a1.58 1.58 0 1 0-3.16 0c0 .87.706 1.582 1.578 1.582.875 0 1.582-.711 1.582-1.582ZM161.145 159.477a1.583 1.583 0 1 0-3.166.001 1.583 1.583 0 0 0 3.166-.001Zm0 0"/><path fill="#FFF" stroke="#000" stroke-miterlimit="10" stroke-width=".39754764000000004" d="M212.098 159.477a1.583 1.583 0 1 0-3.162.002 1.583 1.583 0 0 0 3.162-.002Zm0 0"/><path fill="none" stroke="#000" stroke-miterlimit="10" stroke-width=".79409892" d="M116.582 83.043c0-8.098-6.566-14.664-14.664-14.664-8.098 0-14.664 6.566-14.664 14.664 0 8.098 6.566 14.664 14.664 14.664 8.098 0 14.664-6.566 14.664-14.664Zm0 0"/><path fill="none" stroke="#000" stroke-miterlimit="10" stroke-width=".39754764000000004" d="M108.606 61.098v13.246l-11.86 5.437"/><path fill="none" stroke="#000" stroke-miterlimit="10" stroke-width=".79409892" d="M96.746 74.344v17.398"/><path fill="none" stroke="#000" stroke-miterlimit="10" stroke-width=".39754764000000004" d="m96.746 86.305 11.86 5.437v13.246"/><path d="m100.922 88.223.95-2.075 3.679 4.196-5.578-.051Zm0 0"/><path fill="none" stroke="#000" stroke-miterlimit="10" stroke-width=".39754764000000004" d="M96.746 83.043H84.684M6.7 83.043h21.523m7.906 0h35.137m0 0h13.617"/><path fill="none" stroke="#000" stroke-miterlimit="10" stroke-width=".79409892" d="M28.223 71.18v23.726m7.906-23.726v23.726"/><path fill="#FFF" d="M8.277 83.043c0-.871-.707-1.582-1.578-1.582a1.583 1.583 0 0 0 0 3.164 1.58 1.58 0 0 0 1.578-1.582m0 0"/><g clip-path="url(#b)"><path fill="none" stroke="#000" stroke-miterlimit="10" stroke-width=".39754764000000004" d="M8.277 83.043c0-.871-.707-1.582-1.578-1.582a1.583 1.583 0 0 0 0 3.164 1.58 1.58 0 0 0 1.578-1.582Zm0 0"/></g><path stroke="#000" stroke-miterlimit="10" stroke-width=".39754764000000004" d="M59.234 83.043a1.583 1.583 0 1 0-3.165.002 1.583 1.583 0 0 0 3.165-.002Zm0 0"/><use xlink:href="#c" x="25.626" y="66.788"/><use xlink:href="#d" x="32.237" y="66.788"/><path fill="none" stroke="#000" stroke-miterlimit="10" stroke-width=".39754764000000004" d="M57.652 83.043v22.398m0 31.637v22.399"/><path fill="none" stroke="#000" stroke-miterlimit="10" stroke-width=".79409892" d="M51.723 137.078v-31.637h11.86v31.637Zm0 0"/><use xlink:href="#e" x="65.78" y="123.4"/><use xlink:href="#f" x="70.743" y="123.4"/><use xlink:href="#g" x="79.012" y="123.4"/><use xlink:href="#h" x="84.254" y="123.4"/><path fill="none" stroke="#000" stroke-miterlimit="10" stroke-width=".39754764000000004" d="M108.606 104.793v11.523m0 31.633v11.528"/><path fill="none" stroke="#000" stroke-miterlimit="10" stroke-width=".79409892" d="M102.676 147.95v-31.634h11.863v31.633Zm0 0"/><path stroke="#000" stroke-miterlimit="10" stroke-width=".39754764000000004" d="M110.188 104.793a1.58 1.58 0 1 0-3.161-.003 1.58 1.58 0 0 0 3.16.003Zm0 0"/><use xlink:href="#e" x="116.734" y="134.274"/><use xlink:href="#i" x="121.697" y="134.274"/><use xlink:href="#f" x="126.661" y="134.274"/><use xlink:href="#h" x="134.93" y="134.274"/><path fill="none" stroke="#000" stroke-miterlimit="10" stroke-width=".39754764000000004" d="M108.606 104.793h25.48m0 0h25.477v23.387m0 7.906v23.39"/><path fill="none" stroke="#000" stroke-linecap="square" stroke-miterlimit="10" stroke-width=".79409892" d="M169.445 128.18v2.37h-19.77v-2.37h19.77"/><path stroke="#000" stroke-linecap="square" stroke-miterlimit="10" stroke-width=".79409892" d="M169.445 136.086v-2.371h-19.77v2.37h19.77"/><use xlink:href="#j" x="164.022" y="123.641"/><use xlink:href="#k" x="172.038" y="134.274"/><use xlink:href="#l" x="177.001" y="134.274"/><use xlink:href="#m" x="179.758" y="134.274"/><use xlink:href="#d" x="186.369" y="134.274"/><g clip-path="url(#n)"><path fill="none" stroke="#000" stroke-miterlimit="10" stroke-width=".39754764000000004" d="M159.563 159.477v9.882"/></g><g clip-path="url(#o)"><path fill="none" stroke="#000" stroke-linecap="round" stroke-miterlimit="10" stroke-width=".79409892" d="M153.629 169.36h11.863"/></g><path fill="none" stroke="#000" stroke-miterlimit="10" stroke-width=".39754764000000004" d="M57.652 83.043V60.644m0-31.632V6.613H44.914m0 0H32.176v8.781m0 7.91v8.786"/><path fill="none" stroke="#000" stroke-miterlimit="10" stroke-width=".79409892" d="M63.582 29.012v31.632h-11.86V29.012Zm0 0"/><path stroke="#000" stroke-miterlimit="10" stroke-width=".39754764000000004" d="M59.234 6.613a1.58 1.58 0 0 0-1.582-1.582 1.58 1.58 0 1 0 0 3.16 1.58 1.58 0 0 0 1.582-1.578Zm0 0"/><use xlink:href="#p" x="65.78" y="46.969"/><use xlink:href="#q" x="70.743" y="46.969"/><use xlink:href="#g" x="79.012" y="46.969"/><use xlink:href="#h" x="84.254" y="46.969"/><path fill="none" stroke="#000" stroke-linecap="square" stroke-miterlimit="10" stroke-width=".79409892" d="M42.059 15.394v2.375h-19.77v-2.375h19.77"/><path stroke="#000" stroke-linecap="square" stroke-miterlimit="10" stroke-width=".79409892" d="M42.059 23.305v-2.371h-19.77v2.37h19.77"/><use xlink:href="#j" x="36.637" y="10.858"/><use xlink:href="#c" x="1.635" y="21.492"/><use xlink:href="#r" x="6.599" y="21.492"/><use xlink:href="#d" x="13.21" y="21.492"/><path fill="none" stroke="#000" stroke-miterlimit="10" stroke-width=".39754764000000004" d="M32.176 32.09v9.883"/><path fill="none" stroke="#000" stroke-linecap="round" stroke-miterlimit="10" stroke-width=".79409892" d="M26.242 41.973h11.863"/><path fill="none" stroke="#000" stroke-miterlimit="10" stroke-width=".39754764000000004" d="M57.652 6.613H83.13m0 0h25.477v11.524m0 31.632v11.528"/><path stroke="#000" stroke-miterlimit="10" stroke-width=".39754764000000004" d="M110.188 6.613a1.58 1.58 0 1 0-3.161-.003 1.58 1.58 0 0 0 3.16.003Zm0 0"/><path fill="none" stroke="#000" stroke-miterlimit="10" stroke-width=".79409892" d="M102.676 49.77V18.136h12.258v31.632Zm12.258-23.723 9.488-4.746v25.304l-9.488-4.742Zm0 0"/><path fill="none" stroke="#000" stroke-miterlimit="10" stroke-width=".39754764000000004" d="M108.606 6.613h50.957m0 0h50.953"/><path fill="#FFF" stroke="#000" stroke-miterlimit="10" stroke-width=".39754764000000004" d="M212.098 6.613a1.583 1.583 0 0 0-3.164 0 1.582 1.582 0 0 0 3.164 0Zm0 0"/><use xlink:href="#s" x="3.318" y="79.538"/><use xlink:href="#t" x="214.021" y="160.851"/><use xlink:href="#u" x="214.021" y="9.096"/></svg>