<svg xmlns="http://www.w3.org/2000/svg" xmlns:xlink="http://www.w3.org/1999/xlink" width="232.733" height="85.439"><defs><path id="e" d="M2.031-3.953h.938c.203 0 .297 0 .297-.203 0-.11-.094-.11-.282-.11H2.11c.36-1.406.407-1.593.407-1.656 0-.172-.11-.266-.282-.266-.03 0-.312 0-.39.36l-.39 1.562H.53c-.203 0-.297 0-.297.188 0 .125.078.125.266.125h.875C.656-1.141.625-.984.625-.797c0 .531.375.906.906.906C2.547.11 3.11-1.328 3.11-1.42c0-.095-.078-.095-.125-.095-.093 0-.093.032-.14.141C2.406-.344 1.89-.109 1.547-.109c-.203 0-.297-.125-.297-.453 0-.235.016-.313.063-.47Zm0 0"/><path id="f" d="M0-7.094h-.312v.188c0 .593-.063.718-.391.828l-6.188 2.14c-.125.047-.187.063-.187.235 0 .156.062.187.187.234l5.922 2.047c.5.172.657.578.657 1.11H0l-.031-1.016L0-2.468h-.312c0 .5-.235.75-.5.75-.032 0-.125-.016-.141-.016l-1.297-.47V-4.64l1.516-.515a.368.368 0 0 1 .125-.032c.297 0 .297.547.297.813H0c-.031-.36-.031-1.047-.031-1.422ZM-2.562-4.53v2.234l-3.22-1.11Zm0 0"/><path id="g" d="M0-8.047h-.312c0 .516 0 .766-.297.781H-2.5c-.844 0-1.156 0-1.5.297-.172.14-.375.469-.375 1.047 0 .828.594 1.266.969 1.438-.86.125-.969.859-.969 1.312 0 .719.422 1.188 1.047 1.453h-1.047l.11 1.407h.312c0-.704.062-.782.547-.782H-.75c.438 0 .438.11.438.782H0l-.031-1.125L0-2.548h-.312c0 .672 0 .781-.438.781h-1.828c-1.016 0-1.578-.703-1.578-1.343 0-.625.531-.735 1.093-.735H-.75c.438 0 .438.11.438.781H0l-.031-1.124L0-5.297h-.312c0 .672 0 .781-.438.781h-1.828c-1.016 0-1.578-.703-1.578-1.343 0-.625.531-.735 1.093-.735H-.75c.438 0 .438.11.438.782H0l-.031-1.125Zm0 0"/><path id="h" d="M-2.14-5.156c-1.25 0-2.235.968-2.235 2.078 0 .765.438 1.172.656 1.375h-.656l.11 1.422h.312c0-.703.062-.766.484-.766h4.64c.438 0 .438.11.438.766h.313l-.031-1.11.03-1.109H1.61c0 .656 0 .766-.437.766h-1.75c.156-.047.687-.47.687-1.22 0-1.171-.968-2.202-2.25-2.202m0 .828c1.203 0 2.03.687 2.03 1.422 0 .39-.202.765-.609 1.031-.203.14-.219.14-.406.14h-2.203c-.516-.28-.797-.765-.797-1.265 0-.734.875-1.328 1.984-1.328m0 0"/><path id="i" d="M0-2.516h-.312c0 .657 0 .766-.438.766h-6.11l.11 1.422h.297c0-.688.078-.766.562-.766H-.75c.438 0 .438.11.438.766H0l-.031-1.094Zm0 0"/><path id="j" d="M0-2.437h-.312c0 .64-.047.687-.422.687h-3.641l.11 1.39h.312c0-.656.062-.734.547-.734H-.75c.438 0 .438.11.438.766H0l-.031-1.094c0-.344.015-.687.031-1.016m-5.969.53a.547.547 0 0 0-.531.532c0 .344.281.531.531.531a.52.52 0 0 0 .516-.515.537.537 0 0 0-.516-.547m0 0"/><path id="k" d="M-1.219-3.281h-.578v.25h.547c.734 0 1.11.297 1.11.656 0 .656-.891.656-1.063.656h-2.75v-1.406h-.313v1.406h-1.812v.25c.812.016 1.86.313 1.906 1.282h.219v-.844h2.734C-.016-1.031.11-1.953.11-2.297.11-3-.594-3.28-1.219-3.28m0 0"/><path id="l" d="M0-5.297h-.312c0 .703-.063.781-.547.781h-3.516l.11 1.454h.312c0-.704.062-.782.547-.782h1.765c.86 0 1.532.485 1.532 1.203 0 .829-.47.875-.985.875h-3.281l.11 1.454h.312c0-.782.031-.782.906-.782h1.485c.765 0 1.671 0 1.671-1.5 0-.547-.28-.984-.89-1.281h.89Zm0 0"/><path id="m" d="M0-5.219h-.312c0 .703-.063.782-.547.782h-6l.109 1.421h.297c0-.687.078-.765.562-.765h2.125c-.343.281-.609.703-.609 1.234 0 1.172.969 2.203 2.25 2.203 1.25 0 2.234-.968 2.234-2.093 0-.626-.343-1.079-.656-1.329H.11Zm-1.172 1.453c.188 0 .203 0 .375.11.469.297.688.75.688 1.172 0 .453-.25.797-.625 1.047-.407.25-.985.28-1.375.28-.375 0-.97-.015-1.407-.312-.312-.203-.64-.578-.64-1.11 0-.343.156-.765.593-1.077.172-.11.188-.11.376-.11Zm0 0"/><path id="n" d="M-1.172-4.11c-.11 0-.125.079-.125.141 0 .078.063.094.14.125C-.14-3.5-.14-2.609-.14-2.516c0 .5-.296.891-.656 1.125-.484.297-1.125.297-1.484.297v-2.765c0-.22 0-.25-.219-.25-.969 0-1.937.53-1.937 1.78 0 1.142 1.03 2.048 2.265 2.048C-.844-.281.11-1.312.11-2.453.11-3.656-.984-4.11-1.17-4.11m-1.328.657v2.344C-3.969-1.172-4.219-2-4.219-2.33c0-1.03 1.344-1.124 1.719-1.124m0 0"/><clipPath id="a"><path d="M228 40h3.84v5H228Zm0 0"/></clipPath><clipPath id="b"><path d="M222 35h9.84v15H222Zm0 0"/></clipPath><clipPath id="c"><path d="M16 3h1v81.883h-1Zm0 0"/></clipPath><clipPath id="d"><path d="M16.43 3H224v79H16.43Zm0 0"/></clipPath></defs><path fill="none" stroke="#000" stroke-miterlimit="10" stroke-width=".39639852000000003" d="M16.43 42.441h211.765"/><g clip-path="url(#a)"><path d="m231.25 42.441-2.953-1.754v3.504Zm0 0"/></g><g clip-path="url(#b)"><path fill="none" stroke="#000" stroke-miterlimit="10" stroke-width=".39639852000000003" d="m231.25 42.441-2.953-1.754v3.504Zm0 0"/></g><g clip-path="url(#c)"><path fill="none" stroke="#000" stroke-miterlimit="10" stroke-width=".39639852000000003" d="M16.43 84.684V3.648"/></g><path stroke="#000" stroke-miterlimit="10" stroke-width=".39639852000000003" d="m16.43.594-1.754 2.953h3.504Zm0 0"/><g clip-path="url(#d)"><path fill="none" stroke="#000" stroke-miterlimit="10" stroke-width=".7918035600000001" d="m16.43 14.277.062.051.067.145.066.242.066.336.063.43.066.523.067.617.062.703.067.79.066.874.063.953.066 1.032.066 1.105.067 1.176.062 1.242.067 1.305.066 1.36.063 1.413.066 1.461.066 1.504.063 1.54.066 1.573.067 1.602.066 1.621.063 1.637.066 1.644.066 1.653.063 1.652.066 1.64.067 1.633.062 1.614.067 1.586.066 1.562.066 1.524.063 1.484.066 1.441.067 1.39.062 1.337.067 1.277.066 1.211.063 1.145.066 1.074.066.996.067.918.062.84.067.75.066.664.063.574.066.484.066.387.063.297.066.195.067.106.066.004.063-.094.066-.188.066-.285.063-.379.066-.472.067-.563.062-.656.067-.742.066-.828.066-.91.063-.989.066-1.062.067-1.14.062-1.204.067-1.27.066-1.332.067-1.382.062-1.438.066-1.48.067-1.52.062-1.555.067-1.585.066-1.614.063-1.629.066-1.64.066-1.649.067-1.652.062-1.649.067-1.64.066-1.621.063-1.602.066-1.578.066-1.547.063-1.508.066-1.464.067-1.418.066-1.368.063-1.308.066-1.25.067-1.18.062-1.113.066-1.043.067-.961.062-.883.067-.8.066-.712.067-.625.062-.535.066-.437.067-.348.062-.254.067-.152.066-.063.063.04.066.136.066.23.067.325.062.422.067.515.066.606.063.691.066.781.067.868.062.945.066 1.023.067 1.098.066 1.168.063 1.234.066 1.297.067 1.356.062 1.406.066 1.457.067 1.5.062 1.535.067 1.57.066 1.598.067 1.621.062 1.637.066 1.644.067 1.653.062 1.652.067 1.64.066 1.634.063 1.617.066 1.59.067 1.562.066 1.531.062 1.489.067 1.445.066 1.394.063 1.344.066 1.281.067 1.223.062 1.152.066 1.079.067 1.007.066.926.063.848.066.758.067.675.062.582.066.497.067.398.062.305.067.207.066.113.067.016.062-.082.067-.176.066-.278.062-.367.067-.46.066-.555.063-.649.066-.73.067-.82.066-.903.062-.98.067-1.055.066-1.133.063-1.195.066-1.266.067-1.324.066-1.379.062-1.43.067-1.472.066-1.52.063-1.55.066-1.587.067-1.605.062-1.629.067-1.64.066-1.649.066-1.652.063-1.649.066-1.64.067-1.625.062-1.606.067-1.578.066-1.55.062-1.512.067-1.47.066-1.425.067-1.371.062-1.316.067-1.254.066-1.192.062-1.12.067-1.048.066-.972.063-.891.066-.809.067-.722.066-.633.063-.543.066-.45.066-.359.063-.261.066-.164.067-.07.062.027.067.125.066.218.066.317.063.414.066.504.067.593.062.684.067.773.066.856.062.937.067 1.016.066 1.09.067 1.16.062 1.227.067 1.293.066 1.347.063 1.403.066 1.453.066 1.492.063 1.535.066 1.566.067 1.594.066 1.617.063 1.637.066 1.645.066 1.652.063 1.648.066 1.645.067 1.637.062 1.617.067 1.594.066 1.566.066 1.531.063 1.496.066 1.45.067 1.402.062 1.348.067 1.289.066 1.226.063 1.16.066 1.09.066 1.012.067.937.062.856.067.77.066.683.063.594.066.5.066.41.063.316.066.22.067.12.066.028.063-.07.066-.169.066-.265.063-.36.066-.453.067-.543.062-.637.067-.722.066-.809.066-.894.063-.973.066-1.047.067-1.125.062-1.191.067-1.254.066-1.32.066-1.372.063-1.425.066-1.47.067-1.515.062-1.547.067-1.582.066-1.605.063-1.625.066-1.64.066-1.65.067-1.652.062-1.648.067-1.64.066-1.63.063-1.605.066-1.582.066-1.555.063-1.515.066-1.473.067-1.43.066-1.379.063-1.32.066-1.265.066-1.196.063-1.129.066-1.054.067-.98.062-.9.067-.82.066-.73.066-.645.063-.55.066-.461.067-.368.062-.273.067-.176.066-.078.063.016.066.113.066.211.067.309.062.398.067.496.066.586.063.672.066.766.066.843.063.93.066 1.008.067 1.082.066 1.152.063 1.223.066 1.285.066 1.34.063 1.398.066 1.446.067 1.492.062 1.527.067 1.567.066 1.59.067 1.617.062 1.632.066 1.645.067 1.648.062 1.653.067 1.644.066 1.637.063 1.621.066 1.594.066 1.57.067 1.54.062 1.495.067 1.457.066 1.407.063 1.355.066 1.293.066 1.234.063 1.168.066 1.098.067 1.02.066.945.063.863.066.781.067.692.062.601.066.516.067.418.062.324.067.23.066.133.067.036.062-.059.066-.16.067-.25.062-.352.067-.441.066-.535.063-.625.066-.715.066-.8.067-.884.062-.965.067-1.043.066-1.113.063-1.183.066-1.25.067-1.313.062-1.367.066-1.418.067-1.469.066-1.508.063-1.543.066-1.578.067-1.601.062-1.625.066-1.64.133-3.298.063-1.652.066-1.64.067-1.63.062-1.61.066-1.585.067-1.555.062-1.523.067-1.477.066-1.437.067-1.383.062-1.328.067-1.27.066-1.203.062-1.137.067-1.062.066-.988.063-.91.066-.825.067-.742.066-.652.062-.563.067-.472.066-.375.063-.286.066-.183.067-.09.062.004.066.105.067.2.066.297.063.39.066.485.067.574.062.668.067.754.066.836.062.921.067 1 .066 1.075.067 1.144.062 1.215.067 1.277.066 1.336.062 1.39.067 1.442.066 1.485.063 1.527.066 1.559.067 1.59.066 1.613.062 1.633.067 1.64.066 1.653.063 1.652.066 1.644.067 1.637.062 1.621.067 1.602.066 1.574.066 1.54.063 1.503.066 1.46.067 1.411.062 1.36.067 1.304.066 1.238.062 1.176.067 1.102.066 1.031.067.953.062.871.067.79.066.702.062.614.067.523.066.43.063.332.066.242.067.14.066.048.063-.051.066-.145.066-.242.063-.34.066-.433.067-.524.062-.617.067-.707.066-.79.066-.874.063-.957.066-1.031.067-1.11.062-1.176.067-1.242.066-1.304.062-1.364.067-1.414.066-1.46.067-1.505.062-1.543.067-1.574.066-1.597.063-1.622.066-1.64.066-1.645.067-1.652.062-1.652.067-1.641.066-1.633.063-1.61.066-1.589.066-1.559.063-1.523.066-1.484.067-1.442.066-1.39.063-1.333.066-1.277.066-1.21.063-1.145.066-1.07.067-.997.062-.918.067-.836.066-.75.066-.66.063-.574.066-.48.067-.387.062-.293.067-.195.066-.102.063-.004.066.094.066.191.067.285.062.38.067.476.066.566.063.653.066.746.066.828.063.914.066.988.067 1.067.066 1.14.063 1.207.066 1.27.066 1.332.063 1.383.066 1.437.067 1.48.062 1.524.067 1.555.066 1.586.066 1.613.063 1.629.066 1.64.067 1.653.062 1.648.067 1.649.066 1.64.063 1.621.066 1.602.066 1.578.067 1.543.062 1.508.067 1.465.066 1.418.063 1.367.066 1.308.066 1.247.063 1.18.066 1.112.067 1.04.066.96.063.883.066.797.066.711.063.621.066.531.067.442.062.344.067.25.066.156.066.055.063-.04.066-.136.067-.23.062-.333.067-.422.066-.515.063-.606.066-.695.066-.781.067-.867.062-.95.067-1.023.066-1.098.063-1.172.066-1.234.066-1.3.063-1.356.066-1.407.067-1.457.066-1.5.063-1.539.066-1.57.066-1.598.063-1.62.066-1.637.067-1.645.062-1.652.067-1.649.066-1.644.067-1.633.062-1.613.066-1.594.067-1.563.062-1.527.067-1.488.066-1.446.067-1.394.062-1.34.066-1.281.067-1.219.062-1.152.067-1.078.066-1.008.063-.926.066-.844.066-.758.067-.671.062-.582.067-.493.066-.398.063-.3.066-.208.067-.113.062-.012.066.082.067.18.066.277.063.371.066.461.067.559.062.644.066.735.067.82.062.906.067.98.066 1.06.067 1.132.062 1.2.066 1.261.067 1.324.062 1.383.067 1.43.066 1.476.063 1.516.066 1.555.067 1.582.066 1.61.062 1.628.067 1.64.066 1.65.063 1.651.066 1.649.067 1.64.062 1.625.066 1.606.067 1.578.066 1.547.063 1.512.066 1.468.067 1.426.062 1.371.066 1.313.067 1.254.062 1.191.067 1.117.066 1.047.067.973.062.887.067.808.066.719.062.633.067.543.066.449.063.355.066.262.067.164.066.067.062-.032.067-.125.066-.222.063-.317.066-.414.067-.504.062-.597.066-.688.067-.773.066-.856.063-.941.066-1.016.067-1.09.062-1.164.067-1.23.066-1.29.062-1.35.067-1.403.066-1.453.067-1.496.062-1.532.067-1.57.066-1.594.062-1.617.067-1.633.066-1.648.063-1.649.066-1.652.067-1.644.066-1.637.062-1.613.067-1.594.066-1.567.063-1.535.066-1.492.067-1.45.066-1.398.063-1.347.066-1.29.066-1.226.063-1.156.066-1.09.067-1.012.062-.933.067-.856.066-.765.066-.684.063-.59.066-.504.067-.406.062-.312.067-.22.066-.12.062-.024.067.074.066.168.067.266.062.36.067.456.066.543.063.641.066.723.066.812.063.895.066.972.067 1.051.066 1.125.063 1.192.066 1.257.066 1.317.063 1.375.066 1.426.067 1.472.062 1.512.067 1.55.066 1.583.066 1.605.063 1.625.066 1.64.067 1.65.062 1.652.067 1.648.066 1.64.063 1.63.066 1.605.066 1.582.067 1.55.062 1.517.067 1.476.066 1.426.063 1.379.066 1.32.066 1.262.063 1.195.066 1.129.067 1.055.066.976.063.899.066.816.066.73.063.641.066.551.067.46.062.364.067.274.066.172.066.078.063-.02.066-.113.067-.215.062-.305.067-.406.066-.492.063-.59.066-.676.066-.765.067-.848.062-.93.067-1.008.066-1.085.063-1.153.066-1.222.066-1.286.063-1.343.066-1.399.067-1.445.066-1.492.063-1.532.066-1.562.066-1.594.063-1.613.066-1.633.067-1.648.062-1.649.067-1.652.066-1.645.066-1.636.063-1.618.066-1.597.067-1.57.062-1.536.067-1.496.066-1.457.063-1.406.066-1.352.066-1.293.067-1.234.062-1.164.067-1.098.066-1.02.063-.945.066-.859.066-.777.067-.692.062-.601.067-.512.066-.418.063-.324.066-.227.066-.133.063-.03.066.062.067.156.066.254.063.351.066.446.066.535.063.629.066.715.067.804.062.883.067.965.066 1.043.067 1.117.062 1.184.066 1.254.067 1.308.062 1.371.067 1.418.066 1.47.063 1.507.066 1.547.066 1.578.067 1.605.062 1.621.067 1.641.066 1.649.063 1.652.066 1.648.066 1.64.063 1.63.066 1.61.067 1.585.066 1.555.063 1.52.066 1.48.067 1.433.062 1.383.066 1.324.067 1.27.062 1.203.067 1.137.066 1.062.067.985.062.906.066.824.067.742.062.649.067.562.066.47.063.378.066.277.066.188.067.086.062-.008.067-.106.066-.203.063-.297.066-.39.067-.488.062-.579.066-.664.067-.757.066-.84.063-.918.066-1.004.067-1.074.062-1.149.066-1.215.067-1.277.062-1.336.067-1.394.066-1.442.067-1.488.062-1.524.066-1.562.067-1.59.062-1.613.067-1.633.066-1.64.063-1.653.066-1.652.067-1.645.066-1.637.062-1.62.067-1.602.066-1.57.063-1.54.066-1.504.067-1.457.062-1.414.066-1.359.067-1.3.066-1.24.063-1.171.066-1.105.067-1.028.062-.953.066-.871.067-.785.066-.7.063-.613.066-.52.067-.429.062-.332.067-.238.066-.14.062-.048.067.055.066.148.067.243.062.34.067.437.066.527.062.618.067.707.066.793.063.875.066.957.067 1.035.066 1.11.062 1.175.067 1.246.066 1.305.063 1.363.066 1.414.067 1.46.062 1.509.067 1.539.066 1.574.066 1.602.063 1.625.066 1.636.067 1.645.062 1.652.067 1.653.066 1.64.062 1.633.067 1.61.066 1.59.067 1.558.062 1.523.067 1.485.066 1.437.062 1.387.067 1.336.066 1.273.063 1.211.066 1.14.067 1.071.066.996.063.914.066.836.066.75.063.66.066.57.067.481.062.383.067.293.066.195.066.098h.063l.066-.094.067-.191.062-.29.067-.378.066-.477.062-.57.067-.656.066-.747.067-.832.062-.91.067-.992.066-1.07.063-1.137.066-1.21.066-1.27.063-1.332.066-1.387.067-1.438.066-1.48.063-1.524.066-1.558.066-1.586.063-1.61.066-1.632.067-1.64.062-1.653.133-3.297.066-1.64.063-1.622.066-1.601.067-1.575.062-1.543.067-1.507.066-1.465.063-1.418.066-1.363.066-1.31.067-1.245.062-1.18.067-1.11.066-1.038.063-.961.066-.88.066-.792.067-.711.062-.621.067-.531.066-.438.063-.344.066-.25.066-.148.063-.059.066.043.067.137.066.234.063.332.066.426.066.516.063.61.066.695.067.785.062.867.067.95.066 1.026.066 1.098.063 1.172.066 1.238.067 1.297.062 1.36.067 1.406.066 1.46.063 1.5.066 1.54.066 1.57.067 1.598.062 1.62.067 1.638.066 1.644.063 1.652.066 1.653.066 1.64.063 1.633.066 1.613.067 1.594.066 1.559.063 1.531.066 1.488.066 1.442.063 1.394.066 1.34.067 1.281.062 1.215.067 1.153.066 1.078.066 1.004.063.921.066.844.067.758.062.672.067.578.066.492.063.395.066.3.066.208.067.105.062.016.067-.086.066-.184.063-.273.066-.375.066-.465.063-.559.066-.648.067-.735.066-.824.063-.902.066-.985.066-1.058.063-1.133.066-1.203.067-1.266.062-1.324.067-1.379.066-1.433.067-1.477.062-1.52.066-1.554.067-1.582.062-1.61.067-1.628.066-1.641.063-1.649.066-1.652.066-1.648.067-1.64.062-1.626.067-1.602.066-1.578.063-1.55.066-1.508.066-1.469.063-1.422.066-1.371.067-1.316.066-1.25.063-1.188.066-1.121.067-1.043.062-.969.066-.89.067-.805.062-.719.067-.629.066-.543.067-.445.062-.355.066-.258.067-.16.062-.067.067.031.066.125.067.227.062.32.066.414.067.508.062.598.067.687.066.774.063.86.066.94.067 1.016.066 1.094.062 1.164.067 1.23.066 1.293.063 1.352.066 1.402.067 1.454.062 1.496.066 1.535.067 1.566.066 1.598.063 1.617.066 1.637.067 1.644.062 1.653.066 1.648.067 1.645.062 1.636.067 1.614.066 1.593.067 1.567.062 1.531.067 1.492.066 1.45.062 1.398.067 1.347.066 1.286.063 1.226.066 1.156.067 1.086.066 1.012.062.934.067.851.066.766.063.68.066.593.067.496.062.407.066.312.067.215.066.121.063.02.066-.075.067-.168.062-.27.067-.358.066-.457.062-.551.067-.637.066-.727.067-.812.062-.895.067-.976.066-1.05.129-2.321.066-1.258.063-1.32.066-1.375.067-1.426.066-1.473.062-1.515.067-1.551.066-1.578.063-1.61.066-1.625.067-1.64.062-1.649.067-1.652.066-1.649.066-1.64.063-1.625.066-1.61.067-1.582.062-1.55.067-1.512.066-1.477.062-1.425.067-1.375.066-1.32.067-1.262.062-1.196.067-1.125.066-1.054.062-.977.067-.895.066-.816.063-.727.066-.64.067-.55.066-.458.063-.363.066-.27.066-.172.063-.078.066.024.067.117.062.215.067.308.066.403.066.5.063.586.066.68.067.765.062.851.067.93.066 1.012.066 1.082.063 1.156.066 1.223.067 1.289.062 1.344.067 1.398.066 1.45.063 1.491.066 1.528.066 1.566.067 1.594.062 1.617.067 1.633.066 1.644.063 1.649.066 1.652.066 1.645.063 1.637.066 1.617.067 1.597.066 1.567.063 1.539.066 1.496.066 1.453.063 1.406.066 1.352.067 1.293.062 1.23.067 1.164.066 1.094.066 1.02.063.941.066.863.067.774.062.691.067.598.066.512.063.414.066.324.066.222.067.133.062.032.067-.063.066-.16.063-.258.066-.351.066-.45.063-.535.066-.629.067-.719.066-.804.063-.887.066-.965.066-1.047.063-1.117.066-1.183.067-1.254.062-1.313.067-1.37.066-1.419.066-1.469.063-1.511.066-1.547.067-1.578.062-1.602.067-1.625.066-1.64.063-1.649.066-1.648.066-1.653.067-1.64.062-1.63.067-1.609.066-1.582.063-1.554.066-1.52.066-1.48.063-1.43.066-1.383.067-1.328.066-1.266.063-1.203.066-1.133.066-1.062.063-.984.066-.907.067-.82.062-.738.067-.653.066-.558.066-.469.063-.371.066-.281.067-.184.062-.086.067.012.066.105.063.203.066.301.066.395.067.488.062.578.067.668.066.758.063.84.066.926.066 1 .067 1.078.062 1.148.067 1.215.066 1.281.063 1.336.066 1.395.066 1.441.063 1.488.066 1.528.067 1.562.066 1.59.063 1.613.066 1.633.067 1.64.062 1.653.066 1.652.067 1.645.062 1.637.067 1.62.066 1.598.067 1.575.062 1.539.066 1.5.067 1.46.062 1.41.067 1.356.066 1.301.063 1.238.066 1.172.066 1.102.067 1.027.062.95.067.87.066.786.063.699.066.61.067.519.062.426.066.332.067.234.066.14.063.044.066-.051.067-.153.062-.246.066-.343.067-.434.062-.527.067-.621.066-.707.067-.797.062-.88.066-.956.067-1.035.062-1.11.067-1.18.066-1.246.063-1.304.066-1.364.067-1.418.066-1.46.062-1.508.067-1.543.066-1.574.063-1.602.066-1.621.067-1.64.062-1.645.133-3.305.066-1.64.063-1.63.066-1.613.067-1.586.062-1.558.066-1.524.067-1.484.062-1.438.067-1.386.066-1.332.067-1.274.062-1.21.067-1.141.066-1.067.062-.996.067-.914.066-.832.063-.746.066-.66.067-.57.066-.477.062-.383.067-.289.066-.195.063-.098h.066l.067.098.062.195.066.29.067.382.066.476.063.57.066.66.067.747.062.832.067.914.066.996.066 1.067.063 1.14.066 1.211.067 1.274.062 1.332.067 1.386.066 1.438.062 1.484.067 1.524.066 1.558.067 1.586.062 1.61.067 1.632.066 1.641.062 1.652.067 1.653.066 1.644.063 1.64.066 1.622.067 1.602.066 1.574.063 1.543.066 1.508.066 1.46.063 1.418.066 1.364.067 1.304.062 1.246.067 1.18.066 1.11.066 1.035.063.957.066.879.067.797.062.707.067.617.066.531.062.434.067.343.066.246.067.153.062.05.067-.042.066-.141.063-.234.066-.332.066-.426.063-.52.066-.61.067-.698.066-.786.063-.867.066-.953.066-1.027.063-1.102.066-1.172.067-1.238.062-1.3.067-1.356.066-1.41.066-1.461.063-1.5.066-1.54.067-1.57.062-1.601.067-1.621.066-1.633.063-1.649.066-1.652.066-1.648.067-1.645.062-1.633.067-1.613.066-1.59.063-1.562.066-1.528.066-1.488.063-1.441.066-1.395.067-1.336.066-1.281.063-1.215.066-1.148.066-1.078.063-1 .066-.926.067-.84.062-.758.067-.668.066-.578.066-.488.063-.395.066-.3.067-.204.062-.105.067-.012.066.086.063.184.066.28.066.372.067.469.062.558.067.653.066.738.063.82.066.907.066.984.063 1.062.066 1.133.067 1.203.066 1.266.063 1.328.066 1.379.066 1.434.063 1.48.066 1.52.067 1.55.066 1.586.063 1.61.066 1.629.066 1.64.063 1.649.066 1.652.067 1.648.062 1.641.067 1.625.066 1.602.066 1.578.063 1.547.066 1.511.067 1.47.062 1.417.067 1.371.066 1.313.063 1.254.066 1.183.066 1.117.067 1.047.062.965.067.887.066.804.063.72.066.628.066.535.063.45.066.351.067.254.066.164.063.063.066-.032.066-.133.063-.222.066-.324.067-.414.062-.508.067-.602.066-.691.067-.774.062-.863.066-.941.067-1.02.062-1.094.067-1.164.066-1.23.063-1.293.066-1.352.066-1.406.067-1.453.062-1.496.067-1.535.066-1.57.063-1.598.066-1.617.066-1.633.063-1.649.066-1.652.067-1.649.066-1.644.063-1.633.066-1.617.067-1.594.062-1.562.066-1.532.067-1.492.062-1.449.067-1.398.066-1.344.067-1.285.062-1.227.066-1.156.067-1.082.062-1.012.067-.93.066-.851.063-.766.066-.68.066-.585.067-.5.062-.403.067-.308.066-.215.063-.117.066-.024.067.078.062.172.066.27.067.363.066.457.063.55.066.641.067.727.062.816.066.895.067.977.062 1.054.067 1.125.066 1.196.067 1.261.062 1.32.066 1.376.067 1.425.062 1.477.067 1.512.066 1.55.067 1.582.062 1.61.067 1.625.066 1.64.062 1.649.067 1.652.066 1.649.063 1.64.066 1.625.067 1.61.066 1.578.062 1.55.067 1.516.066 1.473.063 1.426.066 1.375.067 1.32.062 1.258.066 1.195.067 1.125.066 1.05.063.977.066.895.067.812.062.727.067.637.066.55.062.458.067.359.066.27.067.167.062.075.067-.02.066-.121.062-.215.067-.312.066-.407.063-.496.066-.593.067-.68.066-.766.062-.851.067-.934.066-1.012.063-1.086.066-1.156.067-1.226.062-1.286.067-1.347.066-1.399.066-1.449.063-1.492.066-1.531.067-1.567.062-1.593.067-1.614.066-1.633.062-1.648.067-1.648.066-1.653.067-1.644.062-1.637.067-1.617.066-1.594.062-1.57.067-1.535.066-1.496.063-1.454.066-1.402.067-1.352.066-1.292.063-1.231.066-1.164.066-1.09.063-1.02.066-.94.067-.86.062-.774.067-.687.066-.598.066-.508.063-.414.066-.32.067-.227.062-.125.067-.03.066.066.062.16.067.258.066.355.067.445.062.543.067.63.066.718.063.805.066.89.066.97.063 1.042.066 1.121.067 1.188.066 1.25.063 1.316.066 1.371.066 1.422.063 1.469.066 1.508.067 1.546.062 1.582.067 1.602.066 1.625.066 1.64.063 1.65.066 1.651.067 1.649.062 1.64.067 1.63.066 1.609.066 1.582.063 1.555.066 1.52.067 1.476.062 1.433.067 1.38.066 1.323.063 1.266.066 1.203.066 1.133.067 1.058.062.985.067.902.066.824.063.735.066.648.066.559.063.465.066.37.067.278.066.184.063.086.066-.016.066-.105.063-.207.066-.301.067-.395.062-.492.067-.578.066-.672.066-.758.063-.844.066-.921.067-1.004.062-1.078.067-1.149.066-1.219.063-1.28.066-1.34.066-1.395.067-1.442.062-1.488.067-1.527.066-1.563.063-1.594.066-1.613.066-1.629.063-1.644.133-3.305.066-1.644.063-1.637.066-1.621.066-1.598.063-1.57.066-1.54.067-1.5.062-1.456.067-1.41.066-1.36.067-1.297.062-1.238.066-1.172.067-1.098.062-1.027.067-.95.066-.866.063-.785.066-.696.066-.61.067-.515.062-.426.067-.332.066-.234.063-.137.066-.043.066.059.063.148.066.25.067.344.066.438.063.53.066.622.067.707.062.797.066.879.067.96.062 1.04.067 1.11.066 1.179.067 1.246.062 1.309.066 1.363.067 1.418.062 1.465.067 1.504.066 1.546.063 1.575.066 1.601.066 1.621.067 1.64.062 1.65.067 1.648.066 1.652.063 1.64.066 1.634.067 1.609.066 1.586.062 1.558.067 1.524.066 1.48.063 1.438.066 1.387.067 1.332.062 1.27.066 1.21.067 1.137.066 1.07.063.992.066.91.067.832.062.747.066.656.067.57.062.477.067.379.066.289.067.191.062.094h.067l.066-.098.062-.195.067-.293.066-.383.063-.48.066-.57.067-.66.066-.75.062-.837.067-.914.066-.996.063-1.07.066-1.14.067-1.212.062-1.273.066-1.336.067-1.387.066-1.437.063-1.485.066-1.523.067-1.559.062-1.59.067-1.609.066-1.633.062-1.64.067-1.653.133-3.297.062-1.636.067-1.625.066-1.598.062-1.578.067-1.54.066-1.507.063-1.461.066-1.414.067-1.363.066-1.305.062-1.246.067-1.176.066-1.11.063-1.034.066-.957.067-.875.062-.793.067-.707.066-.618.066-.527.063-.438.066-.34.067-.242.062-.148.067-.055.066.047.062.14.067.24.066.331.067.43.062.52.067.613.066.699.062.785.067.871.066.953.063 1.028.066 1.105.067 1.172.066 1.238.063 1.301.066 1.36.066 1.413.063 1.457.066 1.504.067 1.54.062 1.57.067 1.601.066 1.621.066 1.637.063 1.645.133 3.304.062 1.641.067 1.633.066 1.613.062 1.59.067 1.562.066 1.524.067 1.488.062 1.442.067 1.39.066 1.34.063 1.277.066 1.215.066 1.149.067 1.074.062 1 .067.922.066.84.063.757.066.664.066.579.063.488.066.39.067.297.066.203.063.106.066.008.066-.086.063-.188.066-.277.067-.379.062-.469.067-.558.066-.653.066-.742.063-.824.066-.906.067-.985.062-1.062.067-1.137.066-1.203.063-1.266.066-1.328.066-1.383.067-1.433.062-1.48.067-1.52.066-1.555.063-1.586.066-1.61.066-1.628.063-1.64.066-1.65.067-1.651.066-1.649.063-1.64.066-1.622.066-1.605.063-1.578.066-1.543.067-1.512.062-1.469.067-1.418.066-1.367.066-1.312.063-1.25.066-1.188.067-1.117.062-1.04.067-.968.066-.883.063-.804.066-.715.066-.63.067-.534.062-.446.067-.347.066-.258.063-.156.066-.063.066.031.063.133.066.227.067.324.066.418.063.512.066.601.066.692.063.777.066.86.067.945.062 1.02.067 1.097.066 1.164.066 1.23.063 1.297.066 1.352.067 1.406.062 1.457.067 1.496.066 1.535.063 1.57.066 1.598.066 1.618.067 1.636.062 1.645.067 1.652.066 1.649.063 1.644.066 1.633.066 1.617.063 1.594.066 1.562.067 1.532.066 1.492.063 1.445.066 1.399.066 1.343.063 1.286.066 1.222.067 1.153.066 1.085.063 1.008.066.93.067.848.062.765.066.676.067.59.062.492.067.402.066.309.067.215.062.113.066.02.067-.078.062-.172.067-.274.066-.363.063-.461.066-.55.066-.641.067-.73.062-.817.067-.899.066-.976.063-1.055.066-1.129.067-1.195.062-1.262.066-1.32.067-1.38.066-1.425.063-1.476.066-1.516.067-1.55.062-1.583.066-1.605.067-1.63.062-1.64.067-1.648.066-1.653.067-1.648.062-1.64.066-1.626.067-1.605.062-1.582.067-1.551.066-1.512.063-1.472.066-1.426.067-1.375.066-1.317.062-1.257.067-1.192.066-1.125.063-1.05.066-.973.067-.895.062-.812.066-.723.067-.637.066-.547.063-.457.066-.359.067-.266.062-.168.066-.074.067.024.062.12.067.22.066.312.067.406.062.504.067.59.066.684.062.765.067.856.066.933.063 1.012.066 1.09.067 1.156.066 1.227.062 1.289.067 1.343.066 1.403.063 1.449.066 1.492.067 1.535.062 1.563.066 1.598.067 1.613.066 1.637.063 1.644.066 1.649.067 1.652.062 1.644.067 1.637.066 1.617.062 1.594.067 1.57.066 1.532.067 1.496.062 1.453.067 1.402.066 1.352.062 1.289.067 1.23.066 1.164.067 1.09.062 1.016.067.941.066.856.062.773.067.688.066.597.063.504.066.414.067.317.066.222.063.125.066.032.066-.067.063-.164.066-.262.067-.355.062-.45.067-.542.066-.633.066-.719.063-.808.066-.887.067-.973.062-1.047.067-1.117.066-1.191.062-1.254.067-1.313.066-1.37.067-1.427.062-1.468.067-1.512.066-1.547.063-1.578.066-1.606.066-1.625.063-1.64.066-1.649.067-1.652.066-1.648.063-1.641.066-1.629.066-1.605.063-1.586.066-1.551.067-1.52.062-1.476.067-1.43.066-1.383.066-1.324.063-1.262.066-1.199.067-1.133.062-1.058.067-.98.066-.903.063-.82.066-.739.066-.644.067-.559.062-.46.067-.372.066-.277.063-.18.066-.082.066.012.063.113.066.207.067.301.066.398.063.493.066.582.066.671.063.758.066.844.067.926.062 1.004.067 1.082.066 1.152.066 1.215.063 1.285.066 1.34.067 1.394.062 1.446.067 1.488.066 1.527.063 1.563.066 1.59.066 1.617.067 1.633.062 1.644.067 1.649.066 1.652.063 1.645.066 1.636.066 1.621.063 1.598.066 1.57.067 1.54.066 1.5.063 1.456.066 1.407.066 1.355.063 1.301.066 1.234.067 1.168.062 1.102.067 1.023.066.95.066.867.063.781.066.695.067.606.062.515.067.422.066.328.066.235.063.136.066.04.067-.055.062-.156.067-.25.066-.344.063-.442.066-.53.066-.622.067-.71.062-.798.067-.883.066-.96.063-1.04.066-1.113.066-1.18.063-1.246.066-1.308.067-1.367.066-1.418.063-1.465.066-1.508.066-1.543.063-1.578.066-1.602.067-1.62.062-1.641.067-1.645.133-3.305.062-1.64.066-1.63.067-1.612.062-1.586.067-1.555.066-1.523.063-1.48.066-1.438.066-1.383.067-1.332.062-1.27.067-1.207.066-1.14.063-1.067.066-.988.066-.914.063-.828.066-.743.067-.656.066-.566.063-.477.066-.379.067-.285.062-.191.066-.094.067.004.062.102.067.195.066.293.067.387.062.48.066.574.067.66.062.75.067.836.066.918.063.996.066 1.07.066 1.145.067 1.211.062 1.277.067 1.333.066 1.39.063 1.442.066 1.484.067 1.523.062 1.559.066 1.59.067 1.61.066 1.632.063 1.64.133 3.305.062 1.645.066 1.637.067 1.625.062 1.597.067 1.574.066 1.543.067 1.504.062 1.461.066 1.414.067 1.364.062 1.304.067 1.242.066 1.176.063 1.11.066 1.03.067.958.066.875.062.789.067.707.066.617.063.524.066.433.067.34.062.242.066.145.067.05.066-.046.063-.14.066-.243.067-.332.062-.43.066-.523.067-.614.066-.703.063-.789.066-.87.067-.954.062-1.027.067-1.106.066-1.176.062-1.238.067-1.305.066-1.359.067-1.41.062-1.461.067-1.504.066-1.539.062-1.574.067-1.598.066-1.62.063-1.638.066-1.648.067-1.652.066-1.649.062-1.644.067-1.633.066-1.614.063-1.59.066-1.558.067-1.527.062-1.485.067-1.441.066-1.39.066-1.337.063-1.277.066-1.215.067-1.144.062-1.075.067-1 .066-.921.062-.836.067-.754.066-.668.067-.574.062-.485.067-.39.066-.297.062-.2.067-.105.066-.004.063.09.066.183.067.286.066.375.063.472.066.563.066.652.063.742.066.825.067.91.062.988.067 1.062.066 1.137.066 1.203.063 1.27.066 1.328.067 1.383.062 1.433.067 1.48.066 1.524.062 1.555.067 1.586.066 1.61.067 1.628.062 1.64.067 1.65.066 1.652.063 1.648.066 1.64.066 1.622.063 1.605.066 1.574.067 1.547.066 1.508.063 1.469.066 1.418.066 1.367.063 1.313.066 1.25.067 1.183.062 1.113.067 1.043.066.965.066.883.063.8.066.716.067.625.062.535.067.441.066.352.063.25.066.16.066.059.067-.036.062-.132.067-.23.066-.325.063-.418.066-.516.066-.601.067-.692.062-.78.067-.864.066-.946.063-1.019.066-1.098.066-1.168.063-1.234.066-1.293.067-1.355.066-1.407.063-1.457.066-1.496.066-1.539.063-1.566.066-1.598.067-1.621.062-1.633.067-1.648.066-1.653.066-1.648.063-1.645.066-1.632.067-1.618.062-1.59.067-1.566.066-1.527.063-1.492.066-1.446.066-1.394.067-1.344.062-1.285.067-1.219.066-1.156.063-1.082.066-1.008.066-.926.063-.847.066-.766.067-.672.066-.586.063-.496.066-.398.066-.309.063-.211.066-.113.067-.016.062.078.067.176.066.273.066.368.063.46.066.551.067.645.062.73.067.82.066.9.063.98.066 1.054.066 1.13.067 1.195.062 1.261.067 1.324.066 1.38.063 1.429.066 1.473.066 1.515.063 1.555.066 1.582.067 1.606.066 1.628.063 1.641.066 1.648.066 1.653.063 1.648.066 1.64.067 1.626.062 1.605.067 1.582.066 1.547.067 1.512.062 1.473.066 1.425.067 1.372.062 1.32.067 1.254.066 1.191.063 1.121.066 1.051.066.973.067.894.062.809.067.722.066.637.063.543.066.453.066.36.063.265.066.168.067.07.066-.027.063-.12.066-.22.067-.316.062-.41.066-.5.067-.594.066-.684.063-.77.066-.855.067-.937.062-1.012.066-1.09.067-1.16.062-1.226.067-1.29.066-1.347.067-1.402.062-1.45.066-1.496.067-1.53.062-1.567.067-1.594.066-1.617.063-1.633.133-3.297.066-1.652.062-1.645.067-1.637.066-1.617.063-1.594.066-1.566.067-1.535.062-1.492.066-1.453.067-1.403.066-1.347.063-1.29.066-1.23.067-1.16.062-1.09.066-1.016.067-.937.062-.856.067-.773.066-.684.067-.593.062-.504.067-.414.066-.317.062-.218.067-.125.066-.028.063.07.066.165.067.261.066.356.062.453.067.543.066.633.063.722.066.809.067.89.062.973.066 1.047.067 1.121.066 1.192.063 1.254.066 1.316.067 1.371.062 1.426.067 1.469.066 1.511.062 1.551.067 1.578.066 1.606.067 1.625.062 1.64.067 1.649.066 1.652.062 1.648.067 1.641.066 1.629.063 1.605.066 1.586.067 1.551.066 1.516.062 1.476.067 1.43.066 1.379.063 1.324.066 1.266.067 1.195.062 1.133.067 1.055.066.98.066.902.063.82.066.731.067.649.062.554.067.461.066.367.062.278.067.176.066.082.067-.016.062-.113.067-.207.066-.305.062-.398.067-.493.066-.586.067-.671.062-.762.067-.848.066-.926.063-1.007.066-1.079.066-1.152.063-1.223.066-1.28.067-1.34.066-1.399.063-1.445.066-1.489.066-1.53.063-1.563.066-1.59.067-1.617.062-1.63.067-1.644.132-3.305.063-1.644.066-1.637.067-1.62.062-1.595.067-1.57.066-1.539.063-1.5.066-1.457.066-1.406.067-1.356.062-1.297.067-1.234.066-1.168.063-1.098.066-1.023.066-.945.063-.868.066-.78.067-.692.066-.606.063-.515.066-.418.066-.328.063-.23.066-.138.067-.039.062.063.067.152.066.254.066.348.063.437.066.535.067.625.062.711.067.801.066.883.063.96.066 1.04.066 1.113.067 1.184.062 1.25.067 1.308.066 1.368.063 1.418.066 1.464.066 1.508.063 1.547.066 1.574.067 1.606.066 1.62.063 1.641.132 3.297.063 1.653.066 1.64.067 1.63.062 1.613.067 1.585.066 1.555.066 1.52.063 1.48.066 1.438.067 1.382.062 1.332.067 1.27.066 1.203.063 1.137.066 1.066.066.989.067.91.062.828.067.742.066.656.063.563.066.472.066.38.063.284.066.188.067.094.066-.004.063-.106.066-.195.066-.297.063-.387.066-.484.067-.574.062-.664.067-.75.066-.836.066-.922.063-.996.066-1.074.067-1.145.062-1.21.067-1.278.066-1.336.067-1.39.062-1.442.066-1.484.067-1.524.062-1.559.067-1.59.066-1.613.063-1.629.066-1.644.066-1.652.067-1.649.062-1.648.067-1.637.066-1.621.063-1.602.066-1.574.066-1.539.063-1.504.066-1.46.067-1.415.066-1.36.063-1.304.066-1.242.067-1.176.062-1.105.066-1.032.067-.953.062-.875.067-.789.066-.703.067-.617.062-.524.066-.43.067-.335.062-.242.067-.145.066-.05"/></g><use xlink:href="#e" x="224.572" y="52.025"/><use xlink:href="#f" x="11.012" y="49.62"/><use xlink:href="#g" x="11.012" y="42.197"/><use xlink:href="#h" x="11.012" y="33.952"/><use xlink:href="#i" x="11.012" y="28.449"/><use xlink:href="#j" x="11.012" y="25.698"/><use xlink:href="#k" x="11.012" y="22.946"/><use xlink:href="#l" x="11.012" y="19.096"/><use xlink:href="#m" x="11.012" y="13.593"/><use xlink:href="#n" x="11.012" y="8.09"/></svg>