<svg xmlns="http://www.w3.org/2000/svg" xmlns:xlink="http://www.w3.org/1999/xlink" width="236.546" height="85.439"><defs><path id="d" d="M2.031-3.953h.938c.203 0 .297 0 .297-.203 0-.11-.094-.11-.282-.11H2.11c.36-1.406.407-1.593.407-1.656 0-.172-.11-.266-.282-.266-.03 0-.312 0-.39.36l-.39 1.562H.53c-.203 0-.297 0-.297.188 0 .125.078.125.266.125h.875C.656-1.141.625-.984.625-.797c0 .531.375.906.906.906C2.547.11 3.11-1.328 3.11-1.42c0-.095-.078-.095-.125-.095-.093 0-.093.032-.14.141C2.406-.344 1.89-.109 1.547-.109c-.203 0-.297-.125-.297-.453 0-.235.016-.313.063-.47Zm0 0"/><path id="e" d="M6.281-5.719c.094-.406.282-.703 1.063-.734.047 0 .172 0 .172-.188 0-.015 0-.109-.125-.109-.328 0-.672.031-1.016.031-.328 0-.703-.031-1.031-.031-.047 0-.172 0-.172.188 0 .109.094.109.172.109.578.016.672.219.672.437 0 .032-.016.188-.016.204l-.89 3.53C4.765-.952 3.624-.093 2.64-.093c-.671 0-1.203-.437-1.203-1.281 0-.016 0-.344.11-.766L2.5-6c.094-.344.11-.453.828-.453.266 0 .344 0 .344-.188 0-.109-.11-.109-.14-.109-.282 0-.985.031-1.266.031-.282 0-.985-.031-1.282-.031-.078 0-.187 0-.187.188 0 .109.094.109.281.109.016 0 .203 0 .375.031.172.016.266.016.266.156 0 .047-.11.47-.172.704l-.219.859C1.25-4.313.766-2.437.734-2.25c-.078.266-.078.422-.078.563C.656-.47 1.563.218 2.594.218c1.25 0 2.484-1.125 2.812-2.422Zm0 0"/><path id="f" d="M4.734-4.172c0-.234 0-.312.547-.312h.157v-.25a27.64 27.64 0 0 1-1.032.03c-.265 0-.703-.015-1.047-.03v.25h.157c.547 0 .547.078.547.312v1.594H1.765v-1.594c0-.234 0-.312.547-.312h.156v-.25a27.64 27.64 0 0 1-1.031.03c-.266 0-.704-.015-1.047-.03v.25h.156c.547 0 .547.078.547.312v3.61c0 .234 0 .312-.547.312H.39V0a27.64 27.64 0 0 1 1.03-.031c.266 0 .704.015 1.048.031v-.25h-.156c-.547 0-.547-.062-.547-.312v-1.766h2.297v1.765c0 .235 0 .313-.547.313h-.157V0a27.64 27.64 0 0 1 1.032-.031c.265 0 .703.015 1.047.031v-.25H5.28c-.547 0-.547-.062-.547-.312Zm0 0"/><path id="g" d="M4.516-4.703H.39v.25h.156c.547 0 .547.078.547.312v3.579c0 .234 0 .312-.547.312H.39V0s.78-.031 1.047-.031c.28 0 1.109.031 1.218.031v-.25h-.25c-.64 0-.64-.094-.64-.312v-1.672h.656c.703 0 .797.218.797.812h.234v-1.86H3.22c0 .595-.094.798-.797.798h-.656v-1.703c0-.204 0-.266.328-.266h.969c1.109 0 1.296.375 1.421 1.344h.235Zm0 0"/><clipPath id="a"><path d="M226 35h9.55v15H226Zm0 0"/></clipPath><clipPath id="b"><path d="M25 3h1v81.883h-1Zm0 0"/></clipPath><clipPath id="c"><path d="M25.543 3H228v79H25.543Zm0 0"/></clipPath></defs><path fill="none" stroke="#000" stroke-miterlimit="10" stroke-width=".39639852000000003" d="M25.543 42.441h206.36"/><path d="m234.957 42.441-2.953-1.754v3.504Zm0 0"/><g clip-path="url(#a)"><path fill="none" stroke="#000" stroke-miterlimit="10" stroke-width=".39639852000000003" d="m234.957 42.441-2.953-1.754v3.504Zm0 0"/></g><g clip-path="url(#b)"><path fill="none" stroke="#000" stroke-miterlimit="10" stroke-width=".39639852000000003" d="M25.543 84.684V3.648"/></g><path stroke="#000" stroke-miterlimit="10" stroke-width=".39639852000000003" d="m25.543.594-1.75 2.953h3.504Zm0 0"/><g clip-path="url(#c)"><path fill="none" stroke="#000" stroke-miterlimit="10" stroke-width=".7918035600000001" d="m25.543 14.277.066.067.063.187.062.317.063.437.066.563.063.68.062.796.063.91.066 1.016.063 1.121.062 1.223.067 1.316.062 1.402.063 1.481.062 1.559.067 1.625.062 1.687.063 1.738.066 1.785.062 1.82.063 1.848.062 1.868.067 1.882.062 1.883.063 1.88.066 1.866.063 1.844.062 1.813.063 1.777.066 1.73.063 1.676.062 1.613.067 1.547.062 1.473.063 1.39.062 1.301.066 1.207.063 1.11.062 1.008.063.894.066.785.063.668.062.551.067.434.062.304.063.184.062.059.067-.063.062-.191.063-.313.066-.437.063-.555.062-.672.063-.785.066-.899.062-1.003.063-1.106.066-1.2.063-1.292.062-1.383.063-1.457.066-1.531.063-1.598.062-1.66.067-1.707.062-1.754.063-1.793.062-1.816.067-1.84.062-1.852.063-1.86.062-1.85.067-1.844.062-1.82.063-1.798.066-1.757.062-1.72.063-1.667.062-1.61.067-1.542.062-1.477.063-1.398.066-1.317.063-1.226.062-1.133.063-1.035.066-.934.063-.828.062-.715.067-.605.062-.493.063-.37.062-.259.066-.132.063-.02.062.102.067.222.062.34.063.453.062.567.067.68.062.785.063.89.066.988.063 1.09.062 1.176.063 1.266.066 1.343.063 1.422.062 1.489.063 1.55.066 1.61.062 1.656.063 1.7.066 1.734.063 1.761.062 1.782.063 1.796.066 1.801.063 1.801.062 1.79.067 1.776.062 1.75.063 1.72.062 1.683.067 1.64.062 1.586.063 1.532.066 1.468.063 1.399.062 1.324.063 1.246.066 1.164.062 1.07.063.981.066.883.063.785.062.684.063.574.066.468.063.364.062.25.063.144.066.032.063-.082.062-.188.067-.297.062-.406.063-.508.062-.613.066-.715.063-.809.062-.906.067-.992.062-1.082.063-1.16.062-1.239.067-1.312.062-1.375.063-1.438.066-1.496.063-1.543.062-1.586.063-1.625.066-1.656.063-1.68.062-1.699.066-1.71.063-1.715.062-1.72.063-1.706.066-1.696.063-1.68.062-1.648.063-1.617.066-1.582.063-1.539.062-1.488.067-1.434.062-1.379.063-1.312.062-1.242.067-1.172.062-1.094.063-1.016.066-.93.063-.843.062-.758.063-.66.066-.57.062-.477.063-.375.066-.281.063-.184.062-.082.063.016.066.113.063.207.062.309.067.398.062.496.063.582.062.672.067.762.062.84.063.922.066.996.062 1.07.063 1.137.062 1.203.067 1.262.062 1.32.063 1.367.062 1.414.067 1.457.062 1.492.063 1.528.066 1.547.063 1.574.062 1.586.063 1.597.066 1.602.063 1.601.062 1.594.066 1.586.063 1.57.062 1.551.063 1.528.066 1.492.063 1.46.062 1.423.067 1.375.062 1.328.063 1.277.062 1.223.067 1.164.062 1.101.063 1.035.066.97.063.898.062.82.063.75.066.668.063.594.062.508.063.43.066.347.062.262.063.18.066.097.063.012.062-.07.063-.153.066-.238.063-.313.062-.394.067-.473.062-.55.063-.622.062-.695.067-.762.062-.832.063-.894.066-.954.062-1.015.063-1.067.062-1.12.067-1.173.062-1.21.063-1.254.066-1.293.063-1.329.062-1.355.063-1.379.066-1.406.063-1.422.062-1.434.063-1.445.066-1.453.125-2.906.066-1.446.063-1.437.062-1.426.063-1.41.066-1.387.063-1.363.062-1.336.067-1.305.062-1.273.063-1.234.062-1.196.067-1.152.062-1.106.063-1.058.066-1.008.063-.957.062-.902.063-.844.066-.79.063-.726.062-.664.066-.601.063-.54.062-.476.063-.406.066-.344.063-.277.062-.211.063-.14.066-.079.063-.012.062.059.067.12.062.185.063.25.062.316.067.371.062.438.063.496.066.55.062.61.063.66.062.715.067.77.062.812.063.86.066.905.063.946.062.988.063 1.023.066 1.055.063 1.09.062 1.121.067 1.145.062 1.171.063 1.192.062 1.21.066 1.231.063 1.239.062 1.253.067 1.262.125 2.531.062 1.27.067 1.27.062 1.261.063 1.254.062 1.246.067 1.23.062 1.22.063 1.199.066 1.183.063 1.16.062 1.137.063 1.11.066 1.082.063 1.054.062 1.024.066.988.063.957.062.918.063.879.066.844.063.8.062.762.067.715.062.676.063.629.062.582.067.539.062.492.063.441.066.399.063.347.062.297.063.254.066.2.062.156.063.105.062.055.067.012.062-.04.063-.085.066-.133.063-.18.062-.223.063-.27.066-.312.063-.355.062-.399.067-.437.062-.48.063-.52.062-.555.066-.593.063-.63.062-.66.067-.695.062-.73.063-.754.062-.79.067-.812.062-.84.063-.863.066-.887.063-.906.062-.93.063-.945.066-.96.063-.981.062-.992.063-1 .066-1.016.063-1.024.062-1.027.066-1.039.063-1.039.125-2.086.066-1.043.063-1.043.062-1.039.067-1.035.062-1.031.063-1.02.062-1.016.067-1.003.062-.993.063-.98.066-.965.063-.953.062-.934.063-.922.066-.902.062-.879.063-.863.066-.844.063-.82.062-.797.063-.773.066-.75.063-.723.062-.7.067-.675.062-.645.063-.62.062-.59.067-.563.062-.535.063-.504.062-.477.066-.449.063-.414.062-.387.067-.355.062-.324.063-.293.062-.266.067-.234.062-.2.063-.171.066-.145.063-.11.062-.077.063-.051.066-.024.063.012.062.04.067.066.062.097.063.125.062.153.066.18.063.206.062.235.067.261.062.285.063.31.062.335.067.363.062.383.063.406.062.426.067.453.062.469.063.492.066.512.063.531.062.551.063.566.066.582.062.602.063.613.066.633.063.645.062.656.063.672.066.683.063.696.062.707.067.714.062.723.063.735.062.742.067.746.062.754.063.761.066.766.062.766.063.773.062.777.067.778.187 2.344.067.78.062.782.063.777.066.778.063.773.125 1.54.066.761.063.758.062.754.067.746.062.738.063.734.062.727.066.719.063.707.062.703.067.691.062.684.063.672.062.66.067.652.062.64.063.63.066.617.063.605.062.594.063.582.066.567.063.554.062.54.066.527.063.515.062.5.063.485.066.472.063.457.062.442.063.426.066.414.063.394.062.383.067.367.062.352.063.336.062.32.067.305.062.289.063.273.066.258.062.242.063.227.062.21.067.196.062.18.063.164.066.148.063.133.062.117.063.102.066.09.063.07.062.059.067.042.062.028.063.012h.062l.067-.016.062-.031.063-.047.062-.059.066-.07.063-.086.062-.102.067-.109.062-.129.063-.137.062-.152.067-.164.062-.18.13-.386.062-.215.062-.223.063-.238.066-.246.063-.258.062-.27.066-.28.063-.29.062-.3.063-.31.066-.32.063-.332.062-.336.067-.347.062-.36.063-.363.062-.375.067-.379.062-.39.063-.399.062-.402.067-.414.062-.418.063-.426.066-.43.062-.437.063-.446.062-.449.067-.457.062-.46.063-.466.066-.472.063-.477.062-.48.063-.485.066-.488.063-.492.062-.496.067-.5.125-1.008.062-.508.067-.512.062-.511.063-.516.066-.52.187-1.558.067-.523.062-.524.063-.527.062-.524.067-.527.062-.523.063-.528.066-.527.188-1.57.066-.524.063-.523.062-.52.066-.52.063-.519.125-1.031.066-.512.125-1.016.067-.507.187-1.5.067-.493.062-.492.063-.484.066-.484.063-.48.062-.477.063-.473.066-.469.062-.465.063-.46.066-.458.063-.453.062-.445.063-.442.066-.441.125-.86.063-.421.066-.418.063-.414.062-.406.067-.403.062-.394.063-.391.062-.383.067-.379.062-.375.063-.367.066-.36.062-.355.063-.347.062-.344.067-.336.062-.328.063-.324.066-.317.063-.308.062-.301.063-.297.066-.29.063-.28.062-.278.067-.27.062-.261.063-.254.062-.246.066-.242.063-.23.062-.227.063-.219.066-.21.063-.204.062-.195.067-.188.062-.183.063-.172.062-.164.067-.16.062-.153.063-.14.066-.137.063-.125.062-.121.063-.114.066-.101.062-.098.063-.09.066-.082.063-.07.062-.066.063-.059.066-.047.063-.043.062-.031.067-.027.062-.02.063-.008.062-.004.067.008.062.012.063.023.062.032.067.035.062.047.063.054.066.059.062.07.063.078.062.082.067.094.062.102.063.105.066.117.063.125.062.13.063.14.066.148.063.153.062.164.067.168.062.175.063.188.062.191.066.2.063.207.062.214.067.223.062.227.063.238.062.242.067.254.062.258.063.262.066.273.063.277.062.29.063.292.066.297.063.309.062.312.063.32.066.325.062.332.063.34.066.343.063.352.062.36.063.363.066.37.063.376.062.383.067.386.062.391.125.805.067.41.062.414.063.422.066.426.063.43.062.433.063.441.066.446.062.449.063.453.066.46.063.462.062.465.063.472.066.477.063.476.062.48.063.49.066.487.063.493.062.496.067.5.062.5.063.504.062.507.066.508.125 1.024.067.515.062.516.125 1.039.067.523.125 1.047.066.524.063.523.062.527.063.524.066.527.063.524.062.527.066.523.063.528.062.523.063.52.066.523.125 1.04.063.515.066.512.125 1.023.067.508.062.504.063.5.062.496.067.496.062.492.063.485.066.484.063.476.062.473.063.469.066.465.062.457.063.453.066.45.063.44.062.434.063.43.066.422.063.414.062.41.067.398.062.395.063.387.062.375.067.37.062.36.063.352.062.343.066.336.063.325.062.316.067.305.062.293.063.285.062.277.067.262.062.254.063.242.066.23.063.22.062.206.063.195.066.184.063.168.062.16.066.145.063.133.062.117.063.11.066.089.063.082.062.062.067.055.062.035.063.024.062.008.067-.004.062-.02.063-.035.066-.05.063-.067.062-.078.063-.094.066-.113.063-.125.062-.141.063-.156.066-.172.062-.188.063-.203.066-.219.063-.234.062-.25.063-.266.066-.28.063-.298.062-.312.067-.328.062-.344.063-.36.062-.37.067-.391.062-.406.063-.418.066-.434.062-.45.063-.464.062-.477.067-.496.062-.504.063-.523.066-.531.063-.551.062-.559.063-.574.066-.586.063-.601.062-.61.063-.625.066-.636.063-.645.062-.656.066-.668.063-.676.062-.687.063-.7.066-.703.063-.715.062-.722.067-.73.062-.735.063-.746.062-.75.067-.754.125-1.524.066-.77.063-.773.125-1.554.066-.778.125-1.562.066-.781.063-.782.125-1.554.066-.778.125-1.539.063-.761.066-.758.063-.75.062-.742.067-.739.062-.73.063-.719.062-.71.067-.7.062-.691.063-.676.066-.664.062-.653.063-.636.062-.625.067-.61.062-.59.063-.574.066-.558.063-.54.062-.523.063-.5.066-.484.063-.461.062-.438.067-.418.062-.394.063-.371.062-.348.066-.324.063-.301.062-.273.067-.246.062-.22.063-.195.062-.168.067-.136.062-.114.063-.082.062-.05.067-.024.062.004.063.035.066.067.063.093.062.13.063.156.066.183.063.219.062.25.066.277.063.313.062.34.063.37.066.4.063.433.062.46.067.489.062.52.063.55.062.578.067.606.062.633.063.66.066.683.063.715.062.735.063.761.066.79.062.808.063.828.062.856.067.87.062.891.063.91.066.93.063.946.062.957.063.972.066.988.063.997.062 1.011.067 1.016.062 1.027.063 1.032.062 1.035.066 1.043.125 2.086.067 1.046.125 2.079.062 1.035.067 1.023.062 1.02.063 1.008.066 1 .063.984.062.969.063.957.066.933.063.918.062.899.063.875.066.851.063.828.062.801.066.77.063.742.062.715.063.68.066.644.063.61.062.574.067.539.062.5.063.457.062.421.067.375.062.336.063.29.066.246.063.203.062.156.063.105.066.063.062.016.063-.032.066-.082.063-.129.062-.18.063-.226.066-.273.063-.325.062-.375.063-.418.066-.468.063-.512.062-.562.067-.606.062-.652.063-.696.062-.738.066-.781.063-.82.062-.864.067-.898.062-.938.063-.972.062-1.008.067-1.04.062-1.066.063-1.097.066-1.125.063-1.149.062-1.172.063-1.191.066-1.21.063-1.224.062-1.238.067-1.25.125-2.523.062-1.27.066-1.27.125-2.53.067-1.258.062-1.247.063-1.234.062-1.219.067-1.203.062-1.18.063-1.16.062-1.132.067-1.106.062-1.074.063-1.043.066-1.004.063-.965.062-.926.063-.882.066-.84.062-.79.063-.742.066-.687.063-.637.062-.582.063-.523.066-.465.063-.402.062-.348.067-.281.062-.219.063-.152.062-.09.067-.02.062.043.063.11.066.175.062.243.063.312.062.375.067.441.062.508.063.57.062.633.067.696.062.758.063.816.066.875.063.93.062.98.063 1.035.066 1.082.063 1.13.062 1.175.067 1.215.062 1.254.063 1.289.062 1.32.066 1.352.063 1.375.062 1.398.067 1.418.062 1.43.063 1.441.062 1.453.067 1.453.062 1.454.063 1.449.066 1.441.063 1.43.062 1.414.063 1.39.066 1.372.063 1.34.062 1.308.063 1.273.066 1.235.062 1.195.063 1.145.066 1.093.063 1.043.062.985.063.926.066.863.063.797.062.726.067.66.062.586.063.512.062.434.067.355.062.274.063.195.066.113.062.028.063-.055.062-.137.067-.223.062-.304.063-.387.066-.469.063-.55.062-.633.063-.707.066-.79.063-.859.062-.933.067-1 .062-1.07.063-1.133.062-1.192.067-1.25.062-1.305.063-1.355.062-1.398.066-1.442.063-1.476.062-1.512.067-1.535.062-1.563.063-1.578.062-1.594.067-1.597.125-3.203.066-1.594.063-1.578.062-1.563.063-1.535.066-1.512.063-1.472.062-1.438.066-1.394.063-1.344.062-1.29.063-1.234.066-1.171.063-1.102.062-1.035.067-.961.062-.879.063-.8.062-.716.067-.629.062-.543.063-.445.062-.355.067-.258.062-.16.063-.063.066.031.062.133.063.235.062.328.067.426.062.523.063.613.066.711.063.801.062.887.063.972.066 1.055.063 1.137.062 1.207.067 1.277.062 1.344.063 1.406.062 1.465.067 1.512.062 1.562.063 1.602.066 1.633.062 1.664.063 1.687.062 1.703.067 1.715.125 3.43.062 1.707.067 1.691.062 1.668.063 1.64.066 1.61.063 1.563.062 1.52.063 1.468.066 1.406.063 1.344.062 1.277.066 1.2.063 1.12.062 1.04.063.949.066.86.063.761.062.66.067.563.062.457.063.351.062.246.067.133.062.024.063-.086.066-.196.063-.308.062-.414.063-.524.066-.629.062-.734.063-.836.066-.93.063-1.027.062-1.117.063-1.203.066-1.29.063-1.359.062-1.437.063-1.5.066-1.559.063-1.617.062-1.66.067-1.703.062-1.735.063-1.765.062-1.785.067-1.793.062-1.805.063-1.797.066-1.789.062-1.773.063-1.75.062-1.72.067-1.675.062-1.637.063-1.578.066-1.52.063-1.456.062-1.383.063-1.305.066-1.223.063-1.132.062-1.04.067-.94.062-.84.063-.735.062-.621.066-.512.063-.394.062-.282.063-.16.066-.043.063.074.062.196.067.316.062.43.063.55.062.66.067.774.062.88.063.984.066 1.085.063 1.18.062 1.274.063 1.355.066 1.438.062 1.511.063 1.578.066 1.641.063 1.691.062 1.743.063 1.777.066 1.809.063 1.832.062 1.851.067 1.856.062 1.855.063 1.848.062 1.828.067 1.808.062 1.77.063 1.734.062 1.684.067 1.629.062 1.566.063 1.496.066 1.422.062 1.336.063 1.25.062 1.153.067 1.054.062.95.063.843.066.73.063.614.062.496.063.375.066.25.063.129.062.004.067-.121.062-.246.063-.371.062-.489.066-.61.063-.73.062-.84.067-.953.062-1.054.063-1.16.062-1.258.067-1.344.062-1.434.063-1.507.062-1.582.067-1.649.062-1.703.063-1.754.066-1.797.063-1.828.062-1.855.063-1.875.066-1.883.062-1.883.063-1.875.066-1.863.063-1.832.062-1.805.063-1.762.066-1.71.063-1.66.062-1.59.067-1.524.062-1.445.063-1.356.062-1.27.067-1.171.062-1.074.063-.961.066-.856.063-.738.062-.621.063-.5.066-.38.062-.25.063-.128h.066l.063.129.062.25.063.379.066.5.063.62.062.74.063.855.066.96.063 1.075.062 1.172.067 1.265.062 1.36.063 1.445.062 1.523.066 1.59.063 1.656.062 1.715.067 1.762.062 1.8.063 1.837.062 1.86.067 1.878.125 3.766.066 1.875.063 1.855.062 1.828.063 1.797.066 1.754.063 1.703.062 1.649.066 1.582.063 1.507.062 1.434.063 1.344.066 1.258.063 1.16.062 1.054.063.954.066.84.063.73.062.61.067.488.062.37.063.247.062.12.067-.003.062-.129.063-.25.066-.375.063-.496.062-.613.063-.73.066-.84.062-.954.063-1.054.066-1.153.063-1.25.062-1.336.063-1.422.066-1.496.063-1.566.062-1.629.067-1.684.062-1.73.063-1.774.062-1.808.067-1.828.062-1.848.125-3.71.066-1.849.063-1.835.062-1.809.067-1.777.062-1.743.063-1.691.062-1.64.067-1.579.062-1.511.063-1.438.066-1.355.063-1.274.062-1.18.063-1.085.066-.985.063-.879.062-.773.066-.66.063-.551.062-.43.063-.316.066-.196.063-.074.062.043.067.16.062.282.063.394.062.512.067.621.062.734.063.84.066.938.063 1.043.062 1.132.063 1.223.066 1.305.063 1.383.062 1.453.063 1.523.066 1.578.062 1.633.063 1.68.066 1.719.063 1.746.062 1.773.063 1.793.066 1.797.063 1.8.062 1.798.067 1.785.062 1.761.063 1.739.062 1.703.067 1.66.062 1.617.063 1.559.066 1.5.062 1.433.063 1.364.062 1.285.067 1.207.062 1.117.063 1.027.066.93.063.836.062.734.063.63.066.523.063.414.062.308.063.196.066.086.063-.024.062-.133.066-.246.063-.351.062-.457.063-.559.066-.664.063-.762.062-.859.067-.95.062-1.038.063-1.121.062-1.2.067-1.277.062-1.344.063-1.406.066-1.469.063-1.52.062-1.562.063-1.61.066-1.64.063-1.668.062-1.691.066-1.703.063-1.715.062-1.719.063-1.715.066-1.703.063-1.687.062-1.664.063-1.633.066-1.602.063-1.558.062-1.516.067-1.465.062-1.406.063-1.344.062-1.277.067-1.207.062-1.137.063-1.055.066-.972.062-.887.063-.8.062-.708.067-.617.062-.523.063-.426.066-.328.063-.235.062-.133.063-.03.066.062.063.16.062.258.067.355.062.445.063.543.062.625.066.72.063.8.062.879.063.96.066 1.036.063 1.102.062 1.171.067 1.235.062 1.289.063 1.344.062 1.394.067 1.438.062 1.472.063 1.512.066 1.535.063 1.563.062 1.578.063 1.594.066 1.597.063 1.606.062 1.597.066 1.594.063 1.578.062 1.563.063 1.535.066 1.512.063 1.476.062 1.442.067 1.398.062 1.355.063 1.305.062 1.25.067 1.192.062 1.132.063 1.07.066 1 .063.934.062.86.063.785.066.71.062.634.063.55.062.47.067.386.062.304.063.223.066.137.063.055.062-.028.063-.113.066-.195.063-.274.062-.355.067-.434.062-.512.063-.586.062-.66.066-.726.063-.797.062-.863.067-.926.062-.985.063-1.043.062-1.093.067-1.145.062-1.191.063-1.239.066-1.273.063-1.309.062-1.34.063-1.37.066-1.391.063-1.414.062-1.43.063-1.441.066-1.45.125-2.906.066-1.449.063-1.445.062-1.43.063-1.418.066-1.398.063-1.375.062-1.352.067-1.32.062-1.29.063-1.253.062-1.215.067-1.176.062-1.129.063-1.082.066-1.035.063-.98.062-.93.063-.875.066-.816.062-.754.063-.7.066-.632.063-.57.062-.509.063-.441.066-.375.063-.312.062-.243.063-.175.066-.11.063-.043.062.02.067.09.062.152.063.219.062.281.066.348.063.402.062.465.067.523.062.582.063.637.062.687.067.743.062.789.063.84.066.882.063.926.062.965.063 1.004.066 1.043.063 1.074.062 1.106.067 1.132.062 1.16.063 1.18.062 1.203.066 1.22.063 1.233.062 1.247.063 1.257.066 1.262.125 2.54.067 1.269.125 2.523.062 1.25.067 1.238.062 1.223.063 1.211.066 1.191.063 1.172.062 1.149.063 1.125.066 1.097.062 1.067.063 1.039.066 1.008.063.972.062.934.063.902.066.86.063.824.062.781.067.738.062.696.063.652.062.606.067.562.062.512.063.468.066.418.062.375.063.325.063.273.066.227.062.18.063.128.062.082.067.032.062-.016.063-.063.066-.105.063-.156.062-.203.063-.247.066-.289.063-.336.062-.375.067-.421.062-.457.063-.5.062-.54.066-.574.063-.61.062-.644.067-.68.062-.714.063-.742.062-.77.067-.8.062-.829.063-.851.066-.875.063-.895.062-.918.063-.937.066-.957.063-.97.062-.983.063-1 .066-1.008.062-1.02.063-1.023.066-1.035.125-2.079.063-1.043.066-1.046.063-1.043.062-1.04.067-1.038.062-1.032.063-1.027.062-1.016.067-1.011.062-.997.063-.988.066-.972.063-.957.062-.946.063-.93.066-.91.062-.89.063-.871.066-.856.063-.828.062-.809.063-.785.066-.765.063-.735.062-.715.063-.683.066-.66.063-.633.062-.606.067-.578.062-.55.063-.52.062-.488.066-.461.063-.434.062-.398.067-.371.062-.34.063-.313.062-.277.067-.25.062-.219.063-.183.066-.157.063-.129.062-.093.063-.067.066-.035.063-.004.062.024.066.05.063.082.062.114.063.136.066.168.063.196.062.219.067.246.062.273.063.3.062.325.067.348.062.37.063.395.062.418.067.438.062.46.063.485.066.5.063.52.062.543.063.558.066.574.062.59.063.61.066.625.063.636.062.653.063.664.066.676.063.691.062.7.067.71.062.719.063.73.062.735.067.746.062.75.063.758.066.761.125 1.54.062.777.067.777.062.777.125 1.563.067.781.062.781.063.778.066.777.063.777.062.774.063.77.066.761.063.762.062.754.066.75.063.746.062.734.063.73.066.723.063.715.062.703.067.7.062.687.063.676.062.668.067.656.062.645.063.636.066.625.063.61.062.597.063.59.066.574.063.559.062.55.063.532.066.523.062.504.063.496.066.477.063.465.062.45.063.433.066.418.063.406.062.39.067.372.062.359.063.344.062.328.067.312.062.297.063.281.128.516.063.234.062.22.067.202.062.188.063.172.066.156.063.14.062.126.063.113.066.094.063.078.062.066.067.051.062.035.063.02.062.004.066-.008.063-.024.062-.035.063-.055.066-.062.063-.082.062-.09.067-.11.062-.116.063-.133.062-.145.067-.16.062-.168.063-.184.066-.195.063-.207.062-.219.063-.23.066-.242.063-.254.062-.262.066-.277.063-.285.062-.293.063-.305.066-.316.063-.325.062-.336.067-.343.062-.352.063-.36.062-.37.067-.375.062-.387.063-.395.062-.398.067-.41.062-.414.063-.422.066-.43.062-.433.063-.442.062-.45.067-.452.062-.457.063-.465.066-.469.063-.473.062-.476.063-.484.066-.485.125-.984.067-.5.062-.5.063-.504.062-.508.066-.512.125-1.023.067-.516.125-1.039.062-.523.067-.52.062-.523.063-.528.062-.523.067-.523.125-1.055.066-.524.063-.527.125-1.047.066-.523.125-1.047.066-.52.063-.52.125-1.03.066-.512.063-.512.062-.508.067-.507.062-.504.125-1 .067-.496.062-.493.063-.488.066-.484.063-.485.125-.953.066-.469.062-.468.125-.922.067-.453.062-.45.063-.445.066-.441.063-.434.062-.43.063-.425.066-.422.063-.414.062-.41.067-.403.062-.402.063-.39.062-.387.066-.383.063-.375.062-.371.067-.364.062-.359.063-.352.062-.343.067-.34.062-.332.063-.324.066-.32.063-.313.062-.309.063-.297.066-.293.063-.289.062-.277.067-.273.062-.262.063-.258.062-.254.066-.242.063-.238.062-.227.063-.223.066-.214.063-.207.062-.2.067-.191.062-.188.063-.175.062-.168.067-.164.062-.153.063-.148.066-.14.063-.13.062-.125.063-.117.066-.105.062-.102.063-.094.066-.082.063-.078.062-.07.063-.059.066-.054.063-.047.062-.035.067-.032.062-.023.063-.012.062-.008.067.004.062.008.063.02.062.027.066.031.063.043.062.047.067.059.062.066.063.07.062.082.067.09.062.098.063.101.066.114.063.12.062.126.063.137.066.14.063.152.062.16.067.165.062.172.063.183.062.188.066.195.063.203.062.211.067.219.062.226.063.23.062.243.067.246.062.254.063.262.062.27.067.273.062.285.063.289.066.297.063.3.062.31.063.316.066.324.062.328.063.336.066.344.063.347.062.356.063.36.066.366.063.375.062.38.067.382.062.39.063.395.062.403.067.406.062.414.063.418.066.422.125.859.062.438.067.445.062.445.063.453.066.457.063.461.062.465.063.469.066.473.063.476.062.48.063.485.066.484.125.985.067.5.125 1 .062.507.066.508.063.508.062.512.067.515.062.516.125 1.04.067.519.125 1.047.066.523.125 1.047.063.527.066.528.063.523.062.527.066.524.063.527.125 1.047.066.52.188 1.558.066.516.125 1.023.067.508.125 1.008.062.5.067.496.062.492.063.488.066.485.062.48.063.477.062.469.067.468.062.461.063.457.066.45.063.445.062.437.063.43.066.426.063.418.062.414.067.402.062.399.063.39.062.38.067.374.062.363.063.36.062.347.066.336.063.332.062.32.067.31.062.3.063.29.062.28.067.27.062.258.063.246.066.238.063.223.062.215.063.199.066.187.063.18.062.164.066.152.063.137.062.129.063.11.066.101.063.086.062.07.067.059.062.047.063.03.062.017h.067l.062-.012.063-.028.062-.042.067-.06.062-.07.063-.09.066-.1.062-.118.063-.133.062-.148.067-.164.062-.18.063-.195.066-.211.063-.227.062-.242.063-.258.066-.273.063-.29.062-.304.067-.32.062-.336.063-.352.062-.367.067-.383.062-.394.063-.414.066-.426.062-.442.063-.457.062-.472.067-.485.062-.5.063-.511.066-.532.063-.539.062-.554.063-.567.066-.582.063-.594.062-.605.063-.617.066-.63.063-.64.062-.652.066-.66.063-.672.062-.684.063-.691.066-.703.063-.707.062-.719.067-.727.062-.734.063-.738.062-.746.067-.754.062-.758.063-.762.066-.77.063-.769.062-.773.063-.778.066-.777.125-1.562.066-.782.125-1.562.063-.778.066-.777.125-1.539.063-.766.066-.761.063-.754.062-.746.067-.742.062-.735.063-.723.062-.714.067-.707.062-.696.063-.683.066-.668.062-.66.063-.645.062-.633.067-.613.062-.602.063-.582.066-.566.063-.55.062-.532.063-.512.066-.492.063-.469.062-.453.067-.426.062-.406.063-.383.062-.363.066-.336.063-.309.062-.285.063-.261.066-.235.063-.207.062-.18.067-.152.062-.125.063-.097.062-.067.067-.039.062-.012.063.024.066.05.063.079.062.109.063.145.066.171.062.2.063.234.066.266.063.293.062.324.063.355.066.387.063.414.062.45.067.472.062.508.063.535.062.562.067.59.062.621.063.645.066.676.063.699.062.723.063.75.066.773.062.797.063.82.062.844.067.863.062.88.063.901.066.922.063.934.062.953.063.965.066.98.063.993.062 1.003.067 1.016.062 1.02.063 1.03.062 1.036.066 1.04.063 1.038.062 1.047.067 1.043.062 1.043.125 2.078.067 1.027.062 1.024.063 1.016.066 1 .063.992.062.976.063.965.066.945.063.93.062.906.063.887.066.863.062.84.063.813.066.785.063.758.062.73.063.695.066.66.063.63.062.593.067.555.062.52.063.48.062.437.067.399.062.355.063.313.066.27.063.222.062.18.063.133.066.085.062.04.063-.012.066-.055.063-.105.062-.157.063-.199.066-.254.063-.297.062-.347.063-.399.066-.441.063-.492.062-.54.067-.581.062-.63.063-.675.062-.715.066-.762.063-.8.062-.844.067-.879.062-.918.063-.957.062-.988.067-1.024.062-1.054.063-1.082.066-1.11.063-1.137.062-1.16.063-1.183.066-1.2.063-1.218.062-1.23.066-1.247.063-1.254.062-1.261.063-1.27.066-1.266.063-1.27.062-1.265.063-1.262.066-1.25.063-1.242.062-1.226.067-1.215.062-1.192.063-1.167.062-1.149.067-1.121.062-1.09.063-1.055.066-1.023.063-.988.062-.946.063-.906.066-.86.062-.812.063-.765.066-.72.063-.66.062-.609.063-.55.066-.496.063-.434.062-.375.067-.316.062-.25.063-.184.062-.121.067-.059.062.012.063.078.066.14.062.212.063.277.062.344.067.406.062.477.063.539.062.601.067.664.062.727.063.789.066.844.063.902.062.957.063 1.008.066 1.058.063 1.106.062 1.152.066 1.196.063 1.234.062 1.273.063 1.305.066 1.336.063 1.363.062 1.387.067 1.41.062 1.422.063 1.437.062 1.45.067 1.453.125 2.906.066 1.445.063 1.434.062 1.422.063 1.406.066 1.379.063 1.355.062 1.329.063 1.293.066 1.253.062 1.211.063 1.172.066 1.117.063 1.07.062 1.016.063.954.066.894.063.832.062.762.067.695.062.621.063.551.062.473.067.394.062.313.063.238.066.152.062.07.063-.011.062-.098.067-.18.062-.261.063-.348.066-.43.063-.507.062-.594.063-.668.066-.75.063-.82.062-.899.063-.969.066-1.035.063-1.101.062-1.164.066-1.219.063-1.281.062-1.328.063-1.375.066-1.422.063-1.461.062-1.492.067-1.528.062-1.547.063-1.57.062-1.586.067-1.598.125-3.203.066-1.597.063-1.586.062-1.57.063-1.551.066-1.524.063-1.496.062-1.457.066-1.414.063-1.367.062-1.32.063-1.262.066-1.203.063-1.137.062-1.07.067-.996.062-.922.063-.84.062-.762.067-.672.062-.582.063-.496.062-.398.067-.309.062-.207.063-.113.066-.016.062.082.063.184.062.281.067.375.062.477.063.566.066.664.063.758.062.844.063.93.066 1.015.063 1.094.062 1.172.067 1.242.062 1.312.063 1.375.062 1.438.066 1.488.063 1.54.062 1.577.067 1.621.062 1.649.063 1.676.062 1.699.067 1.707.062 1.715.063 1.718.062 1.711.067 1.7.062 1.68.063 1.655.066 1.625.063 1.586.062 1.543.063 1.496.066 1.438.063 1.375.062 1.312.066 1.239.063 1.16.062 1.082.063.992.066.906.063.809.062.715.067.613.062.508.063.406.062.297.067.188.062.082.063-.032.066-.144.063-.25.062-.36.063-.472.066-.574.062-.684.063-.785.062-.883.067-.98.062-1.07.063-1.165.066-1.242.063-1.328.062-1.399.063-1.468.066-1.532.063-1.586.062-1.64.067-1.684.062-1.719.063-1.75.062-1.777.066-1.789.125-3.602.067-1.796.062-1.782.063-1.761.062-1.735.067-1.699.062-1.656.063-1.61.066-1.55.063-1.489.062-1.418.063-1.347.066-1.266.063-1.176.062-1.086.063-.992.066-.89.063-.786.062-.68.066-.566.063-.453.062-.34.063-.222.066-.102.063.02.062.132.067.258.062.371.063.493.062.605.067.715.062.828.063.934.066 1.035.063 1.133.062 1.226.063 1.317.066 1.398.062 1.473.063 1.547.066 1.609.063 1.668.062 1.719.063 1.757.066 1.797.063 1.82.062 1.844.067 1.852.125 3.71.062 1.84.067 1.817.062 1.793.063 1.754.062 1.707.066 1.656.063 1.602.062 1.531.067 1.457.062 1.379.063 1.297.062 1.2.067 1.105.062 1.003.063.899.066.785.063.672.062.555.063.437.066.313.063.187.062.067.067-.059.062-.184.063-.304.062-.434.066-.55.063-.669.062-.785.067-.894.062-1.008.063-1.11.062-1.207.067-1.3.062-1.391.063-1.469.062-1.547.067-1.617.062-1.676.063-1.73.066-1.777.063-1.813.062-1.844.063-1.867.066-1.879.125-3.765.066-1.868.063-1.847.062-1.82.063-1.786.066-1.738.063-1.684.062-1.628.067-1.555.062-1.485.063-1.402.062-1.316.067-1.219.062-1.125.063-1.016.066-.91.062-.797.063-.68.062-.562.067-.437.062-.317.063-.187.062-.067"/></g><use xlink:href="#d" x="228.281" y="52.025"/><use xlink:href="#e" x="3.845" y="10.458"/><use xlink:href="#f" x="10.603" y="11.943"/><use xlink:href="#g" x="16.446" y="11.943"/></svg>