<svg xmlns="http://www.w3.org/2000/svg" xmlns:xlink="http://www.w3.org/1999/xlink" width="232.733" height="85.439"><defs><path id="e" d="M2.031-3.953h.938c.203 0 .297 0 .297-.203 0-.11-.094-.11-.282-.11H2.11c.36-1.406.407-1.593.407-1.656 0-.172-.11-.266-.282-.266-.03 0-.312 0-.39.36l-.39 1.562H.53c-.203 0-.297 0-.297.188 0 .125.078.125.266.125h.875C.656-1.141.625-.984.625-.797c0 .531.375.906.906.906C2.547.11 3.11-1.328 3.11-1.42c0-.095-.078-.095-.125-.095-.093 0-.093.032-.14.141C2.406-.344 1.89-.109 1.547-.109c-.203 0-.297-.125-.297-.453 0-.235.016-.313.063-.47Zm0 0"/><path id="f" d="M0-7.094h-.312v.188c0 .593-.063.718-.391.828l-6.188 2.14c-.125.047-.187.063-.187.235 0 .156.062.187.187.234l5.922 2.047c.5.172.657.578.657 1.11H0l-.031-1.016L0-2.468h-.312c0 .5-.235.75-.5.75-.032 0-.125-.016-.141-.016l-1.297-.47V-4.64l1.516-.515a.368.368 0 0 1 .125-.032c.297 0 .297.547.297.813H0c-.031-.36-.031-1.047-.031-1.422ZM-2.562-4.53v2.234l-3.22-1.11Zm0 0"/><path id="g" d="M0-8.047h-.312c0 .516 0 .766-.297.781H-2.5c-.844 0-1.156 0-1.5.297-.172.14-.375.469-.375 1.047 0 .828.594 1.266.969 1.438-.86.125-.969.859-.969 1.312 0 .719.422 1.188 1.047 1.453h-1.047l.11 1.407h.312c0-.704.062-.782.547-.782H-.75c.438 0 .438.11.438.782H0l-.031-1.125L0-2.548h-.312c0 .672 0 .781-.438.781h-1.828c-1.016 0-1.578-.703-1.578-1.343 0-.625.531-.735 1.093-.735H-.75c.438 0 .438.11.438.781H0l-.031-1.124L0-5.297h-.312c0 .672 0 .781-.438.781h-1.828c-1.016 0-1.578-.703-1.578-1.343 0-.625.531-.735 1.093-.735H-.75c.438 0 .438.11.438.782H0l-.031-1.125Zm0 0"/><path id="h" d="M-2.14-5.156c-1.25 0-2.235.968-2.235 2.078 0 .765.438 1.172.656 1.375h-.656l.11 1.422h.312c0-.703.062-.766.484-.766h4.64c.438 0 .438.11.438.766h.313l-.031-1.11.03-1.109H1.61c0 .656 0 .766-.437.766h-1.75c.156-.047.687-.47.687-1.22 0-1.171-.968-2.202-2.25-2.202m0 .828c1.203 0 2.03.687 2.03 1.422 0 .39-.202.765-.609 1.031-.203.14-.219.14-.406.14h-2.203c-.516-.28-.797-.765-.797-1.265 0-.734.875-1.328 1.984-1.328m0 0"/><path id="i" d="M0-2.516h-.312c0 .657 0 .766-.438.766h-6.11l.11 1.422h.297c0-.688.078-.766.562-.766H-.75c.438 0 .438.11.438.766H0l-.031-1.094Zm0 0"/><path id="j" d="M0-2.437h-.312c0 .64-.047.687-.422.687h-3.641l.11 1.39h.312c0-.656.062-.734.547-.734H-.75c.438 0 .438.11.438.766H0l-.031-1.094c0-.344.015-.687.031-1.016m-5.969.53a.547.547 0 0 0-.531.532c0 .344.281.531.531.531a.52.52 0 0 0 .516-.515.537.537 0 0 0-.516-.547m0 0"/><path id="k" d="M-1.219-3.281h-.578v.25h.547c.734 0 1.11.297 1.11.656 0 .656-.891.656-1.063.656h-2.75v-1.406h-.313v1.406h-1.812v.25c.812.016 1.86.313 1.906 1.282h.219v-.844h2.734C-.016-1.031.11-1.953.11-2.297.11-3-.594-3.28-1.219-3.28m0 0"/><path id="l" d="M0-5.297h-.312c0 .703-.063.781-.547.781h-3.516l.11 1.454h.312c0-.704.062-.782.547-.782h1.765c.86 0 1.532.485 1.532 1.203 0 .829-.47.875-.985.875h-3.281l.11 1.454h.312c0-.782.031-.782.906-.782h1.485c.765 0 1.671 0 1.671-1.5 0-.547-.28-.984-.89-1.281h.89Zm0 0"/><path id="m" d="M0-5.219h-.312c0 .703-.063.782-.547.782h-6l.109 1.421h.297c0-.687.078-.765.562-.765h2.125c-.343.281-.609.703-.609 1.234 0 1.172.969 2.203 2.25 2.203 1.25 0 2.234-.968 2.234-2.093 0-.626-.343-1.079-.656-1.329H.11Zm-1.172 1.453c.188 0 .203 0 .375.11.469.297.688.75.688 1.172 0 .453-.25.797-.625 1.047-.407.25-.985.28-1.375.28-.375 0-.97-.015-1.407-.312-.312-.203-.64-.578-.64-1.11 0-.343.156-.765.593-1.077.172-.11.188-.11.376-.11Zm0 0"/><path id="n" d="M-1.172-4.11c-.11 0-.125.079-.125.141 0 .078.063.094.14.125C-.14-3.5-.14-2.609-.14-2.516c0 .5-.296.891-.656 1.125-.484.297-1.125.297-1.484.297v-2.765c0-.22 0-.25-.219-.25-.969 0-1.937.53-1.937 1.78 0 1.142 1.03 2.048 2.265 2.048C-.844-.281.11-1.312.11-2.453.11-3.656-.984-4.11-1.17-4.11m-1.328.657v2.344C-3.969-1.172-4.219-2-4.219-2.33c0-1.03 1.344-1.124 1.719-1.124m0 0"/><clipPath id="a"><path d="M228 40h3.84v5H228Zm0 0"/></clipPath><clipPath id="b"><path d="M222 35h9.84v15H222Zm0 0"/></clipPath><clipPath id="c"><path d="M16 3h1v81.883h-1Zm0 0"/></clipPath><clipPath id="d"><path d="M16.43 3H77v79H16.43Zm0 0"/></clipPath></defs><path fill="none" stroke="#000" stroke-miterlimit="10" stroke-width=".39639852000000003" d="M16.43 42.441h211.765"/><g clip-path="url(#a)"><path d="m231.25 42.441-2.953-1.754v3.504Zm0 0"/></g><g clip-path="url(#b)"><path fill="none" stroke="#000" stroke-miterlimit="10" stroke-width=".39639852000000003" d="m231.25 42.441-2.953-1.754v3.504Zm0 0"/></g><g clip-path="url(#c)"><path fill="none" stroke="#000" stroke-miterlimit="10" stroke-width=".39639852000000003" d="M16.43 84.684V3.648"/></g><path stroke="#000" stroke-miterlimit="10" stroke-width=".39639852000000003" d="m16.43.594-1.754 2.953h3.504Zm0 0"/><g clip-path="url(#d)"><path fill="none" stroke="#000" stroke-miterlimit="10" stroke-width=".7918035600000001" d="m16.43 14.277.164.305.164.906.16 1.489.164 2.039.164 2.543.164 2.996.164 3.379.164 3.695.164 3.93.164 4.074.16 4.14.165 4.106.164 3.992.164 3.79.164 3.5.164 3.14.164 2.715.164 2.222.16 1.688.164 1.117.164.52.164-.086.164-.692.164-1.285.165-1.844.164-2.37.16-2.84.164-3.25.164-3.594.164-3.852.164-4.035.164-4.125.164-4.13.164-4.042.16-3.871.164-3.613.164-3.278.165-2.875.164-2.402.164-1.887.164-1.324.164-.734.16-.13.164.477.164 1.074.164 1.649.164 2.187.164 2.68.164 3.113.164 3.477.164 3.77.16 3.98.165 4.101.164 4.141.164 4.082.164 3.942.164 3.714.164 3.407.164 3.027.16 2.578.164 2.074.164 1.528.164.949.164.348.165-.262.164-.863.164-1.446.16-2 .164-2.511.164-2.965.164-3.356.164-3.676.164-3.914.164-4.066.164-4.137.16-4.113.164-4.004.165-3.805.164-3.523.164-3.172.164-2.742.164-2.262.164-1.73.16-1.157.164-.562.164.043.164.648.164 1.243.164 1.808.164 2.332.164 2.809.164 3.222.16 3.57.165 3.84.164 4.024.164 4.121.164 4.133.164 4.05.164 3.887.164 3.633.16 3.305.164 2.902.164 2.442.164 1.922.164 1.367.165.777.164.176.164-.434.16-1.035.164-1.61.164-2.148.164-2.644.164-3.086.164-3.453.164-3.754.164-3.965.16-4.098.164-4.14.165-4.09.164-3.953.164-3.735.164-3.43.164-3.054.164-2.613.16-2.114.164-1.566.164-.992.164-.39.164.218.164.82.164 1.406.164 1.961.165 2.473.16 2.938.164 3.328.164 3.656.164 3.898.164 4.063.164 4.133.164 4.117.164 4.015.16 3.82.164 3.548.164 3.199.164 2.777.165 2.297.164 1.766.164 1.203.164.605h.16l.164-.605.164-1.203.164-1.766.164-2.297.164-2.777.164-3.2.164-3.546.16-3.82.165-4.016.164-4.117.164-4.133.164-4.063.164-3.898.164-3.656.164-3.328.16-2.934.164-2.477.164-1.96.164-1.407.164-.82.164-.219.164.39.164.993.165 1.566.16 2.114.164 2.613.164 3.055.164 3.43.164 3.734.164 3.953.164 4.09.164 4.14.16 4.098.164 3.965.164 3.754.164 3.453.165 3.086.164 2.644.164 2.149.164 1.61.16 1.034.164.434.164-.176.164-.777.164-1.367.164-1.922.164-2.442.164-2.902.16-3.305.165-3.633.164-3.886.164-4.051.164-4.133.164-4.121.164-4.023.164-3.84.16-3.57.164-3.223.164-2.809.164-2.332.164-1.808.164-1.243.164-.648.165-.043.16.562.164 1.157.164 1.73.164 2.262.164 2.742.164 3.172.164 3.523.164 3.805.164 4.004.16 4.113.164 4.137.164 4.066.165 3.914.164 3.676.164 3.356.164 2.965.164 2.511.16 2 .164 1.446.164.863.164.262.164-.348.164-.95.164-1.527.164-2.074.16-2.578.165-3.027.164-3.407.164-3.714.164-3.942.164-4.082.164-4.14.164-4.102.16-3.98.164-3.77.164-3.477.164-3.113.164-2.68.164-2.187.164-1.649.165-1.074.16-.476.164.129.164.734.164 1.324.164 1.887.164 2.402.164 2.875.164 3.278.164 3.613.16 3.871.164 4.043.164 4.129.165 4.125.164 4.035.164 3.852.164 3.593.164 3.25.16 2.84.164 2.371.164 1.844.164 1.285.164.692.164.085.164-.519.164-1.117.16-1.688.165-2.222.164-2.715.164-3.14.164-3.5.164-3.79.164-3.992.164-4.106.16-4.14.164-4.074.164-3.93.164-3.695.164-3.38.164-2.995.165-2.543.164-2.04.16-1.488.164-.906.164-.305"/></g><path fill="none" stroke="#000" stroke-miterlimit="10" stroke-width=".7918035600000001" d="m65.34 14.277.164.078.164.227.164.379.164.527.164.672.164.817.16.953.164 1.086.165 1.21.164 1.333.164 1.445.164 1.55.164 1.645.164 1.735.16 1.812.164 1.883.164 1.941.164 1.989.164 2.023.164 2.05.164 2.067.164 2.074.16 2.063.165 2.043.164 2.016.164 1.976.164 1.926.164 1.863.164 1.79.164 1.71.16 1.621.164 1.52.164 1.414.164 1.3.164 1.176.164 1.047.165.914.164.774.16.633.164.484.164.336.164.183.164.036.164-.121.164-.27.164-.422.164-.57.16-.715.164-.852.165-.992.164-1.12.164-1.25.164-1.364.164-1.477.164-1.578.16-1.672.164-1.758.164-1.835.164-1.899.164-1.953.164-2 .164-2.035.164-2.059.16-2.066.165-2.07.164-2.06.164-2.038.164-2.004.164-1.965.164-1.906.164-1.844.16-1.77.164-1.687.164-1.59.164-1.492.164-1.383.165-1.261.164-1.141.164-1.012.16-.875.164-.734.164-.59.164-.441.164-.293.164-.141.164.012.164.16.16.316.164.465.165.61.164.753.164.895.164 1.031.164 1.156.164 1.282.164 1.398.16 1.504.164 1.61.164 1.695.164 1.78.164 1.856.164 1.914.164 1.97.164 2.01.16 2.044.165 2.058.328 4.141.164 2.055.164 2.027.164 1.996.164 1.946.16 1.89.164 1.824.164 1.746.164 1.66.164 1.567.165 1.461.164 1.348.164 1.23.16 1.102.164.972.164.836.164.692.164.55.164.399.164.25.164.098.16-.055.164-.207.165-.356.164-.507.164-.653.164-.793.164-.933.164-1.067.164-1.195.16-1.316.164-1.43.164-1.535.164-1.633.164-1.723.164-1.8.164-1.876.165-1.93.16-1.984.164-2.02.164-2.046.164-2.066.164-2.07.164-2.067.164-2.047.164-2.023.16-1.981.164-1.934.164-1.87.164-1.801.165-1.723.164-1.637.164-1.535.164-1.43.16-1.312.164-1.195.164-1.067.164-.933.164-.797.164-.653.164-.504.164-.359.16-.203.165-.055.164.098.164.25.164.398.164.547.164.696.164.835.164.973.16 1.102.164 1.23.164 1.348.164 1.46.164 1.563.164 1.66.164 1.746.165 1.825.16 1.89.164 1.95.164 1.992.164 2.031.164 2.055.164 2.066.164 2.07.164 2.063.16 2.043.164 2.008.164 1.968.164 1.918.165 1.852.164 1.781.164 1.7.164 1.605.16 1.508.164 1.394.164 1.285.164 1.157.164 1.03.164.892.164.757.164.61.16.465.165.312.164.164.164.012.164-.14.164-.294.164-.445.164-.59.164-.734.16-.875.164-1.008.164-1.14.164-1.266.164-1.38.164-1.491.165-1.594.164-1.684.16-1.77.164-1.843.164-1.91.164-1.961.164-2.004.164-2.04.164-2.058.164-2.07.16-2.07.164-2.055.164-2.035.165-2 .164-1.953.164-1.903.164-1.832.164-1.758.16-1.671.164-1.579.164-1.476.164-1.367.164-1.246.164-1.121.164-.993.164-.855.16-.711.165-.57.164-.422.164-.27.164-.12.164.03.164.188.164.332.164.488.16.63.164.776.164.915.164 1.046.164 1.176.164 1.297.165 1.414.164 1.524.16 1.617.164 1.71.164 1.794.164 1.863.164 1.922.164 1.976.164 2.016.164 2.047.16 2.062.164 2.07.164 2.067.165 2.05.164 2.028.164 1.988.164 1.942.164 1.879.16 1.812.164 1.735.164 1.648.164 1.55.164 1.446.164 1.332.164 1.211.164 1.086.16.953.165.813.164.676.164.527.164.375.164.23.164.075"/><path fill="none" stroke="#000" stroke-miterlimit="10" stroke-width=".7918035600000001" d="m114.254 70.602.164-.305.16-.902.164-1.489.164-2.039.164-2.543.164-2.996.164-3.383.165-3.691.164-3.93.164-4.078.16-4.137.164-4.109.164-3.988.164-3.79.164-3.503.164-3.14.164-2.712.164-2.222.16-1.692.164-1.113.165-.524.164.09.164.692.164 1.28.164 1.849.164 2.367.16 2.843.164 3.25.164 3.59.164 3.856.164 4.035.164 4.125.164 4.129.164 4.043.16 3.87.165 3.614.164 3.278.164 2.87.164 2.407.164 1.883.164 1.324.164.738.16.13.164-.477.164-1.075.164-1.648.164-2.188.164-2.68.165-3.113.164-3.48.164-3.77.16-3.976.164-4.106.164-4.136.164-4.086.164-3.942.164-3.715.164-3.406.164-3.023.16-2.578.164-2.075.165-1.53.164-.946.164-.348.164.258.164.863.164 1.45.16 2 .164 2.507.164 2.965.164 3.36.164 3.671.164 3.915.164 4.07.164 4.137.16 4.113.165 4.004.164 3.804.164 3.524.164 3.168.164 2.746.164 2.262.164 1.726.16 1.16.164.563.164-.043.164-.649.164-1.242.165-1.808.164-2.332.164-2.809.164-3.227.16-3.57.164-3.836.164-4.023.164-4.121.164-4.133.164-4.055.164-3.883.164-3.636.16-3.305.165-2.902.164-2.438.164-1.926.164-1.363.164-.781.164-.172.164.434.16 1.03.164 1.61.164 2.153.164 2.644.164 3.082.164 3.457.164 3.75.164 3.969.16 4.098.165 4.136.164 4.094.164 3.953.164 3.734.164 3.43.164 3.055.164 2.613.16 2.11.164 1.57.164.992.164.39.164-.218.165-.82.164-1.407.164-1.96.164-2.477.16-2.934.164-3.332.164-3.652.164-3.902.164-4.06.164-4.132.164-4.121.164-4.012.16-3.824.165-3.547.164-3.195.164-2.777.164-2.297.164-1.77.164-1.2.164-.605h.16l.164.606.164 1.2.164 1.769.164 2.297.164 2.777.164 3.195.165 3.547.16 3.824.164 4.012.164 4.117.164 4.137.164 4.059.164 3.902.164 3.652.164 3.332.16 2.934.164 2.476.164 1.961.164 1.407.165.82.164.219.164-.391.164-.992.16-1.567.164-2.113.164-2.613.164-3.055.164-3.43.164-3.734.164-3.953.164-4.094.164-4.136.16-4.098.165-3.969.164-3.75.164-3.453.164-3.086.164-2.644.164-2.153.164-1.61.16-1.03.164-.434.164.172.164.781.164 1.363.164 1.926.165 2.438.164 2.902.16 3.305.164 3.636.164 3.883.164 4.055.164 4.129.164 4.125.164 4.023.164 3.836.16 3.57.164 3.227.164 2.809.165 2.332.164 1.808.164 1.242.164.649.164.043.16-.563.164-1.16.164-1.726.164-2.262.164-2.746.164-3.168.164-3.524.164-3.804.164-4.004.16-4.113.165-4.137.164-4.07.164-3.915.164-3.671.164-3.36.164-2.965.164-2.507.16-2 .164-1.446.164-.867.164-.258.164.348.164.945.165 1.531.164 2.075.16 2.578.164 3.023.164 3.406.164 3.715.164 3.942.164 4.086.164 4.136.164 4.106.16 3.976.164 3.77.164 3.48.165 3.114.164 2.675.164 2.192.164 1.648.164 1.075.16.476.164-.129.164-.738.164-1.324.164-1.883.164-2.406.164-2.871.164-3.278.164-3.613.16-3.871.165-4.043.164-4.129.164-4.125.164-4.035.164-3.856.164-3.59.164-3.25.16-2.843.164-2.367.164-1.848.164-1.281.164-.692.165-.09.164.52.164 1.117.16 1.692.164 2.222.164 2.711.164 3.14.164 3.505.164 3.785.164 3.992.164 4.11.16 4.136.164 4.078.165 3.926.164 3.695.164 3.383.164 2.996.164 2.543.164 2.04.16 1.488.164.902.164.305M163.164 70.602l.164-.075.164-.23.164-.375.164-.527.164-.676.164-.813.16-.953.165-1.086.164-1.21.164-1.333.164-1.445.164-1.55.164-1.65.164-1.734.16-1.812.164-1.88.164-1.94.164-1.989.164-2.027.165-2.05.164-2.067.164-2.07.16-2.063.164-2.047.164-2.016.164-1.972.164-1.926.164-1.863.164-1.793.164-1.711.16-1.617.164-1.524.165-1.41.164-1.3.164-1.177.164-1.046.164-.915.164-.777.16-.629.164-.484.164-.336.164-.188.164-.03.164.12.164.27.164.422.16.57.165.71.164.856.164.993.164 1.12.164 1.247.164 1.367.164 1.476.164 1.579.16 1.671.164 1.758.164 1.832.164 1.903.165 1.953.164 2 .164 2.035.164 2.055.16 2.07.164 2.07.164 2.059.164 2.039.164 2.004.164 1.96.164 1.91.164 1.845.16 1.77.165 1.683.164 1.594.164 1.492.164 1.379.164 1.265.164 1.14.164 1.009.16.875.164.734.164.59.164.445.164.293.164.14.164-.01.164-.165.16-.312.165-.465.164-.61.164-.757.164-.891.164-1.031.164-1.157.164-1.28.164-1.4.16-1.507.164-1.606.164-1.699.164-1.781.165-1.852.164-1.918.164-1.968.164-2.008.16-2.043.164-2.063.164-2.07.164-2.066.164-2.055.164-2.031.164-1.992.164-1.95.16-1.89.165-1.825.164-1.746.164-1.66.164-1.562.164-1.461.164-1.348.164-1.23.16-1.102.164-.973.164-.835.164-.696.164-.547.164-.398.164-.25.165-.098.16.055.164.203.164.36.164.503.164.653.164.797.164.933.164 1.067.164 1.195.16 1.312.164 1.43.164 1.535.165 1.637.164 1.723.164 1.8.164 1.871.164 1.934.16 1.98.164 2.024.164 2.047.164 2.066.164 2.07.164 2.067.164 2.047.164 2.02.16 1.984.165 1.93.164 1.874.164 1.801.164 1.723.164 1.633.164 1.535.164 1.43.16 1.316.164 1.195.164 1.067.164.933.164.793.164.653.164.507.165.356.16.207.164.055.164-.098.164-.25.164-.399.164-.55.164-.692.164-.836.164-.972.16-1.102.164-1.23.164-1.348.165-1.46.164-1.567.164-1.66.164-1.747.164-1.824.16-1.89.164-1.946.164-1.996.164-2.027.164-2.055.328-4.14.164-2.06.16-2.042.165-2.012.164-1.969.164-1.914.164-1.855.164-1.781.164-1.696.164-1.609.16-1.504.164-1.398.164-1.282.164-1.156.164-1.031.164-.895.165-.754.164-.609.16-.465.164-.316.164-.16.164-.012.164.14.164.294.164.441.164.59.164.734.16.875.164 1.012.165 1.14.164 1.262.164 1.383.164 1.492.164 1.59.164 1.688.16 1.77.164 1.843.164 1.906.164 1.965.164 2.004.164 2.039.164 2.059.164 2.07.16 2.066.165 2.059.164 2.035.164 2 .164 1.953.164 1.899.164 1.835.164 1.758.16 1.672.164 1.578.164 1.477.164 1.363.164 1.25.164 1.121.165.992.164.852.16.715.164.57.164.422.164.27.164.12.164-.035.164-.183.164-.336.16-.484.164-.633.164-.774.165-.914.164-1.047.164-1.175.164-1.301.164-1.414.164-1.52.16-1.62.164-1.712.164-1.789.164-1.863.164-1.926.164-1.976.164-2.016.164-2.043.16-2.063.329-4.14.164-2.051.164-2.023.164-1.989.164-1.941.164-1.883.16-1.812.164-1.735.164-1.644.164-1.551.164-1.445.165-1.332.164-1.211.164-1.086.16-.953.164-.817.164-.672.164-.527.164-.379.164-.227.164-.078"/><use xlink:href="#e" x="224.572" y="52.025"/><use xlink:href="#f" x="11.012" y="49.62"/><use xlink:href="#g" x="11.012" y="42.197"/><use xlink:href="#h" x="11.012" y="33.952"/><use xlink:href="#i" x="11.012" y="28.449"/><use xlink:href="#j" x="11.012" y="25.698"/><use xlink:href="#k" x="11.012" y="22.946"/><use xlink:href="#l" x="11.012" y="19.096"/><use xlink:href="#m" x="11.012" y="13.593"/><use xlink:href="#n" x="11.012" y="8.09"/></svg>