<svg xmlns="http://www.w3.org/2000/svg" xmlns:xlink="http://www.w3.org/1999/xlink" width="232.733" height="85.439"><defs><path id="e" d="M2.031-3.953h.938c.203 0 .297 0 .297-.203 0-.11-.094-.11-.282-.11H2.11c.36-1.406.407-1.593.407-1.656 0-.172-.11-.266-.282-.266-.03 0-.312 0-.39.36l-.39 1.562H.53c-.203 0-.297 0-.297.188 0 .125.078.125.266.125h.875C.656-1.141.625-.984.625-.797c0 .531.375.906.906.906C2.547.11 3.11-1.328 3.11-1.42c0-.095-.078-.095-.125-.095-.093 0-.093.032-.14.141C2.406-.344 1.89-.109 1.547-.109c-.203 0-.297-.125-.297-.453 0-.235.016-.313.063-.47Zm0 0"/><path id="f" d="M0-7.094h-.312v.188c0 .593-.063.718-.391.828l-6.188 2.14c-.125.047-.187.063-.187.235 0 .156.062.187.187.234l5.922 2.047c.5.172.657.578.657 1.11H0l-.031-1.016L0-2.468h-.312c0 .5-.235.75-.5.75-.032 0-.125-.016-.141-.016l-1.297-.47V-4.64l1.516-.515a.368.368 0 0 1 .125-.032c.297 0 .297.547.297.813H0c-.031-.36-.031-1.047-.031-1.422ZM-2.562-4.53v2.234l-3.22-1.11Zm0 0"/><path id="g" d="M0-8.047h-.312c0 .516 0 .766-.297.781H-2.5c-.844 0-1.156 0-1.5.297-.172.14-.375.469-.375 1.047 0 .828.594 1.266.969 1.438-.86.125-.969.859-.969 1.312 0 .719.422 1.188 1.047 1.453h-1.047l.11 1.407h.312c0-.704.062-.782.547-.782H-.75c.438 0 .438.11.438.782H0l-.031-1.125L0-2.548h-.312c0 .672 0 .781-.438.781h-1.828c-1.016 0-1.578-.703-1.578-1.343 0-.625.531-.735 1.093-.735H-.75c.438 0 .438.11.438.781H0l-.031-1.124L0-5.297h-.312c0 .672 0 .781-.438.781h-1.828c-1.016 0-1.578-.703-1.578-1.343 0-.625.531-.735 1.093-.735H-.75c.438 0 .438.11.438.782H0l-.031-1.125Zm0 0"/><path id="h" d="M-2.14-5.156c-1.25 0-2.235.968-2.235 2.078 0 .765.438 1.172.656 1.375h-.656l.11 1.422h.312c0-.703.062-.766.484-.766h4.64c.438 0 .438.11.438.766h.313l-.031-1.11.03-1.109H1.61c0 .656 0 .766-.437.766h-1.75c.156-.047.687-.47.687-1.22 0-1.171-.968-2.202-2.25-2.202m0 .828c1.203 0 2.03.687 2.03 1.422 0 .39-.202.765-.609 1.031-.203.14-.219.14-.406.14h-2.203c-.516-.28-.797-.765-.797-1.265 0-.734.875-1.328 1.984-1.328m0 0"/><path id="i" d="M0-2.516h-.312c0 .657 0 .766-.438.766h-6.11l.11 1.422h.297c0-.688.078-.766.562-.766H-.75c.438 0 .438.11.438.766H0l-.031-1.094Zm0 0"/><path id="j" d="M0-2.437h-.312c0 .64-.047.687-.422.687h-3.641l.11 1.39h.312c0-.656.062-.734.547-.734H-.75c.438 0 .438.11.438.766H0l-.031-1.094c0-.344.015-.687.031-1.016m-5.969.53a.547.547 0 0 0-.531.532c0 .344.281.531.531.531a.52.52 0 0 0 .516-.515.537.537 0 0 0-.516-.547m0 0"/><path id="k" d="M-1.219-3.281h-.578v.25h.547c.734 0 1.11.297 1.11.656 0 .656-.891.656-1.063.656h-2.75v-1.406h-.313v1.406h-1.812v.25c.812.016 1.86.313 1.906 1.282h.219v-.844h2.734C-.016-1.031.11-1.953.11-2.297.11-3-.594-3.28-1.219-3.28m0 0"/><path id="l" d="M0-5.297h-.312c0 .703-.063.781-.547.781h-3.516l.11 1.454h.312c0-.704.062-.782.547-.782h1.765c.86 0 1.532.485 1.532 1.203 0 .829-.47.875-.985.875h-3.281l.11 1.454h.312c0-.782.031-.782.906-.782h1.485c.765 0 1.671 0 1.671-1.5 0-.547-.28-.984-.89-1.281h.89Zm0 0"/><path id="m" d="M0-5.219h-.312c0 .703-.063.782-.547.782h-6l.109 1.421h.297c0-.687.078-.765.562-.765h2.125c-.343.281-.609.703-.609 1.234 0 1.172.969 2.203 2.25 2.203 1.25 0 2.234-.968 2.234-2.093 0-.626-.343-1.079-.656-1.329H.11Zm-1.172 1.453c.188 0 .203 0 .375.11.469.297.688.75.688 1.172 0 .453-.25.797-.625 1.047-.407.25-.985.28-1.375.28-.375 0-.97-.015-1.407-.312-.312-.203-.64-.578-.64-1.11 0-.343.156-.765.593-1.077.172-.11.188-.11.376-.11Zm0 0"/><path id="n" d="M-1.172-4.11c-.11 0-.125.079-.125.141 0 .078.063.094.14.125C-.14-3.5-.14-2.609-.14-2.516c0 .5-.296.891-.656 1.125-.484.297-1.125.297-1.484.297v-2.765c0-.22 0-.25-.219-.25-.969 0-1.937.53-1.937 1.78 0 1.142 1.03 2.048 2.265 2.048C-.844-.281.11-1.312.11-2.453.11-3.656-.984-4.11-1.17-4.11m-1.328.657v2.344C-3.969-1.172-4.219-2-4.219-2.33c0-1.03 1.344-1.124 1.719-1.124m0 0"/><clipPath id="a"><path d="M228 40h3.84v5H228Zm0 0"/></clipPath><clipPath id="b"><path d="M222 35h9.84v15H222Zm0 0"/></clipPath><clipPath id="c"><path d="M16 3h1v81.883h-1Zm0 0"/></clipPath><clipPath id="d"><path d="M16.43 3H77v79H16.43Zm0 0"/></clipPath></defs><path fill="none" stroke="#000" stroke-miterlimit="10" stroke-width=".39639852000000003" d="M16.43 42.441h211.765"/><g clip-path="url(#a)"><path d="m231.25 42.441-2.953-1.754v3.504Zm0 0"/></g><g clip-path="url(#b)"><path fill="none" stroke="#000" stroke-miterlimit="10" stroke-width=".39639852000000003" d="m231.25 42.441-2.953-1.754v3.504Zm0 0"/></g><g clip-path="url(#c)"><path fill="none" stroke="#000" stroke-miterlimit="10" stroke-width=".39639852000000003" d="M16.43 84.684V3.648"/></g><path stroke="#000" stroke-miterlimit="10" stroke-width=".39639852000000003" d="m16.43.594-1.754 2.953h3.504Zm0 0"/><g clip-path="url(#d)"><path fill="none" stroke="#000" stroke-miterlimit="10" stroke-width=".7918035600000001" d="m16.43 42.441.164 4.13.164 4.034.16 3.864.164 3.601.164 3.266.164 2.855.164 2.387.164 1.867.164 1.305.164.71.16.11.165-.496.164-1.097.164-1.668.164-2.207.164-2.696.164-3.125.164-3.492.16-3.777.164-3.985.164-4.109.164-4.137.164-4.082.164-3.933.165-3.704.164-3.394.16-3.012.164-2.558.164-2.059.164-1.508.164-.926.164-.328.164.285.164.883.16 1.469.164 2.02.164 2.527.165 2.976.164 3.372.164 3.683.164 3.922.164 4.074.16 4.137.164 4.11.164 3.995.164 3.797.164 3.516.164 3.152.164 2.73.164 2.243.164 1.707.16 1.14.165.54.164-.063.164-.672.164-1.261.164-1.829.164-2.351.164-2.824.16-3.239.164-3.582.164-3.843.164-4.032.164-4.12.165-4.134.164-4.046.164-3.88.16-3.62.164-3.293.164-2.887.164-2.422.164-1.906.164-1.344.164-.758.164-.152.16.457.164 1.055.165 1.628.164 2.168.164 2.66.164 3.102.164 3.465.164 3.762.16 3.972.164 4.102.164 4.137.164 4.09.164 3.945.164 3.726.164 3.418.164 3.04.164 2.593.16 2.094.165 1.55.164.97.164.367.164-.239.164-.84.164-1.43.164-1.98.16-2.492.164-2.949.164-3.344.164-3.664.164-3.906.165-4.067.164-4.132.164-4.118.16-4.007.164-3.813.164-3.539.164-3.18.164-2.761.164-2.282.164-1.746.164-1.18.16-.585.164.023.165.625.164 1.223.164 1.789.164 2.312.164 2.793.164 3.211.16 3.559.164 3.832.164 4.02.164 4.117.164 4.132.164 4.06.164 3.89.164 3.644.165 3.32.16 2.918.164 2.458.164 1.94.164 1.388.164.8.164.196.164-.414.164-1.012.16-1.586.164-2.133.164-2.629.164-3.07.165-3.441.164-3.743.164-3.96.164-4.094.16-4.14.164-4.095.164-3.96.164-3.743.164-3.441.164-3.07.164-2.63.164-2.132.16-1.59.165-1.012.164-.41.164.195.164.801.164 1.383.164 1.945.164 2.457.16 2.918.164 3.317.164 3.644.164 3.895.164 4.054.164 4.133.164 4.121.164 4.02.165 3.828.16 3.559.164 3.21.164 2.793.164 2.317.164 1.789.164 1.219.164.629.164.023.16-.586.164-1.18.164-1.75.164-2.277.165-2.762.164-3.183.164-3.535.164-3.813.16-4.008.164-4.117.164-4.137.164-4.062.164-3.906.164-3.668.164-3.34.164-2.953.16-2.492.165-1.981.164-1.426.164-.843.164-.239.164.371.164.97.164 1.546.16 2.098.164 2.593.164 3.04.164 3.417.164 3.723.164 3.95.164 4.09.165 4.136.16 4.101.164 3.973.164 3.762.164 3.465.164 3.097.164 2.664.164 2.168.164 1.63.164 1.054.16.453.164-.148.164-.758.165-1.348.164-1.902.164-2.422.164-2.887.164-3.293.16-3.625.164-3.875.164-4.047.164-4.132.164-4.125.164-4.028.164-3.847.164-3.579.16-3.238.165-2.824.164-2.352.164-1.828.164-1.262.164-.671.164-.067.164.543.16 1.137.164 1.71.164 2.243.164 2.727.164 3.156.164 3.512.164 3.796.165 3.997.16 4.113.164 4.137.164 4.074.164 3.918.164 3.687.164 3.367.164 2.98.164 2.528.164 2.02.16 1.465.164.886.164.282.165-.325.164-.925.164-1.512.164-2.055.164-2.562.16-3.008.164-3.395.164-3.703.164-3.937.164-4.078.164-4.141.164-4.106.164-3.984.16-3.777.165-3.492.164-3.125.164-2.696.164-2.207.164-1.668.164-1.097.164-.5.16.109.164.715.164 1.304.164 1.864.164 2.386.164 2.86.165 3.262.164 3.605.16 3.86.164 4.038.164 4.13"/></g><path fill="none" stroke="#000" stroke-miterlimit="10" stroke-width=".7918035600000001" d="m65.34 42.441.164 1.239.164 1.21.164 1.16.164 1.079.164.98.164.856.16.719.164.558.165.39.164.216.164.03.164-.148.164-.328.164-.5.16-.664.164-.808.164-.938.164-1.047.164-1.133.164-1.195.164-1.234.164-1.238.16-1.227.165-1.18.164-1.11.164-1.019.164-.902.164-.77.164-.617.164-.453.16-.277.164-.098.164.086.164.266.164.437.164.606.165.758.164.894.16 1.012.164 1.105.164 1.176.164 1.223.164 1.242.164 1.23.164 1.2.164 1.14.164 1.055.16.945.164.82.165.672.164.512.164.34.164.164.164-.02.164-.199.16-.379.164-.55.164-.704.164-.847.164-.973.164-1.074.164-1.152.164-1.211.16-1.235.165-1.242.164-1.215.164-1.16.164-1.09.164-.984.164-.867.164-.727.16-.57.164-.406.164-.227.164-.047.164.137.165.316.164.488.164.653.16.797.164.93.164 1.042.164 1.125.164 1.196.164 1.23.164 1.238.164 1.227.16 1.187.164 1.118.165 1.023.164.914.164.778.164.628.164.465.164.29.164.109.16-.07.164-.255.164-.425.164-.594.164-.75.164-.883.164-1.004.164-1.097.16-1.176.165-1.219.164-1.238.164-1.235.164-1.203.164-1.144.164-1.063.164-.953.16-.828.164-.684.164-.523.164-.356.164-.175.165.008.164.187.164.367.16.535.164.696.164.836.164.964.164 1.067.164 1.148.164 1.207.164 1.235.16 1.242.164 1.215.165 1.168.164 1.093.164.997.164.875.164.738.164.582.164.418.16.238.164.059.164-.125.164-.301.164-.477.164-.64.164-.79.165-.921.16-1.031.164-1.125.164-1.188.164-1.227.164-1.242.164-1.23.164-1.188.164-1.12.16-1.036.164-.918.164-.789.164-.64.165-.477.164-.305.164-.12.164.058.16.238.164.418.164.582.164.738.164.875.164.992.164 1.094.164 1.168.16 1.219.329 2.476.164 1.204.164 1.148.164 1.07.164.961.164.84.164.695.16.536.164.367.164.187.164.008.164-.176.164-.355.164-.524.165-.683.16-.828.164-.957.164-1.059.164-1.144.164-1.204.164-1.234.164-1.242.164-1.219.16-1.172.164-1.097.164-1.004.164-.887.165-.746.164-.594.164-.43.164-.25.16-.074.164.113.164.29.164.464.164.63.164.777.164.914.164 1.023.16 1.117.165 1.184.164 1.226.164 1.243.164 1.23.164 1.192.164 1.128.164 1.04.164.93.16.8.164.648.164.489.164.316.164.137.164-.043.165-.23.164-.403.16-.57.164-.727.164-.867.164-.988.164-1.086.164-1.164.164-1.215.164-1.238.16-1.239.164-1.207.164-1.152.165-1.074.164-.973.164-.848.164-.707.164-.547.16-.378.164-.2.164-.02.164.161.164.344.164.511.164.672.164.82.16.946.165 1.055.164 1.136.164 1.2.164 1.234.164 1.242.164 1.219.164 1.18.164 1.105.16 1.008.164.894.164.758.164.606.164.441.164.266.165.086.164-.098.16-.281.164-.45.164-.617.164-.77.164-.902.164-1.02.164-1.108.164-1.184.16-1.223.164-1.242.164-1.23.165-1.196.164-1.133.164-1.046.164-.942.164-.808.16-.66.164-.5.164-.329.164-.152.164.035.164.215.164.39.164.56.16.714.165.86.164.976.164 1.082.164 1.16.164 1.211.164 1.238"/><path fill="none" stroke="#000" stroke-miterlimit="10" stroke-width=".7918035600000001" d="m114.254 42.441.164 4.125.16 4.04.164 3.863.164 3.601.164 3.266.164 2.855.164 2.387.165 1.867.164 1.305.164.71.16.11.164-.496.164-1.097.164-1.668.164-2.207.164-2.696.164-3.125.164-3.492.16-3.777.164-3.985.165-4.109.164-4.137.164-4.078.164-3.937.164-3.704.164-3.394.16-3.012.164-2.558.164-2.059.164-1.508.164-.926.164-.328.164.285.164.883.16 1.469.165 2.02.164 2.527.164 2.976.164 3.372.164 3.683.164 3.922.164 4.074.16 4.137.164 4.11.164 3.995.164 3.797.164 3.516.164 3.152.165 2.73.164 2.243.164 1.707.16 1.14.164.54.164-.063.164-.672.164-1.261.164-1.829.164-2.351.164-2.824.16-3.239.164-3.582.165-3.843.164-4.032.164-4.12.164-4.134.164-4.046.164-3.88.16-3.62.164-3.293.164-2.887.164-2.422.164-1.906.164-1.344.164-.758.164-.152.16.457.165 1.055.164 1.628.164 2.168.164 2.66.164 3.098.164 3.469.164 3.762.16 3.972.164 4.102.164 4.137.164 4.086.164 3.949.165 3.722.164 3.422.164 3.04.164 2.593.16 2.094.164 1.55.164.97.164.367.164-.239.164-.84.164-1.43.164-1.98.16-2.492.165-2.949.164-3.344.164-3.664.164-3.906.164-4.067.164-4.132.164-4.118.16-4.007.164-3.813.164-3.539.164-3.18.164-2.761.164-2.282.164-1.746.164-1.18.16-.585.165.023.164.625.164 1.223.164 1.789.164 2.312.164 2.793.164 3.211.16 3.559.164 3.832.164 4.016.164 4.12.164 4.133.165 4.06.164 3.89.164 3.644.164 3.32.16 2.918.164 2.458.164 1.94.164 1.388.164.8.164.196.164-.414.164-1.012.16-1.586.165-2.133.164-2.629.164-3.07.164-3.441.164-3.743.164-3.96.164-4.094.16-4.14.164-4.095.164-3.96.164-3.743.164-3.441.164-3.07.164-2.63.165-2.132.16-1.59.164-1.012.164-.41.164.195.164.801.164 1.383.164 1.945.164 2.457.16 2.918.164 3.317.164 3.644.164 3.895.165 4.054.164 4.133.164 4.121.164 4.02.16 3.828.164 3.559.164 3.21.164 2.793.164 2.317.164 1.789.164 1.219.164.629.164.023.16-.586.165-1.18.164-1.75.164-2.277.164-2.762.164-3.183.164-3.535.164-3.813.16-4.008.164-4.117.164-4.137.164-4.062.164-3.906.164-3.668.165-3.34.164-2.953.16-2.492.164-1.981.164-1.426.164-.843.164-.239.164.371.164.97.164 1.546.16 2.094.164 2.597.164 3.04.165 3.417.164 3.723.164 3.95.164 4.085.164 4.14.16 4.102.164 3.973.164 3.762.164 3.465.164 3.097.164 2.664.164 2.168.164 1.63.164 1.054.16.453.165-.148.164-.758.164-1.344.164-1.906.164-2.422.164-2.887.164-3.293.16-3.625.164-3.875.164-4.047.164-4.132.164-4.125.164-4.028.165-3.847.164-3.579.16-3.238.164-2.824.164-2.352.164-1.828.164-1.262.164-.671.164-.067.164.543.16 1.137.164 1.71.164 2.243.165 2.727.164 3.156.164 3.512.164 3.796.164 3.997.16 4.113.164 4.137.164 4.074.164 3.918.164 3.687.164 3.367.164 2.98.164 2.528.164 2.02.16 1.465.165.886.164.282.164-.325.164-.925.164-1.512.164-2.055.164-2.562.16-3.008.164-3.395.164-3.703.164-3.937.164-4.078.165-4.141.164-4.106.164-3.984.16-3.777.164-3.492.164-3.125.164-2.696.164-2.207.164-1.668.164-1.097.164-.5.16.109.164.715.165 1.304.164 1.864.164 2.386.164 2.86.164 3.262.164 3.605.16 3.86.164 4.038.164 4.13M163.164 42.441l.164 1.239.164 1.21.164 1.16.164 1.079.164.98.164.856.16.719.165.558.164.39.164.216.164.03.164-.148.164-.328.164-.5.16-.664.164-.808.164-.938.164-1.047.164-1.133.165-1.195.164-1.234.164-1.238.16-1.227.164-1.18.164-1.11.164-1.019.164-.902.164-.77.164-.617.164-.453.16-.277.164-.098.165.086.164.266.164.437.164.606.164.758.164.894.16 1.012.164 1.105.164 1.176.164 1.223.164 1.242.164 1.23.164 1.2.164 1.14.16 1.055.165.945.164.82.164.672.164.512.164.34.164.164.164-.02.164-.199.16-.379.164-.55.164-.704.164-.847.165-.973.164-1.074.164-1.152.164-1.211.16-1.235.164-1.242.164-1.215.164-1.16.164-1.09.164-.984.164-.867.164-.727.16-.57.165-.406.164-.227.164-.047.164.137.164.316.164.488.164.653.16.797.164.93.164 1.042.164 1.125.164 1.196.164 1.23.164 1.238.164 1.227.16 1.187.165 1.118.164 1.023.164.914.164.778.164.628.164.465.164.29.164.109.16-.07.164-.255.164-.425.164-.594.165-.75.164-.883.164-1.004.164-1.097.16-1.176.164-1.219.164-1.238.164-1.235.164-1.203.164-1.144.164-1.063.164-.953.16-.828.165-.684.164-.523.164-.356.164-.175.164.008.164.187.164.367.16.535.164.696.164.836.164.964.164 1.067.164 1.148.164 1.207.165 1.235.16 1.242.164 1.215.164 1.168.164 1.093.164.997.164.875.164.738.164.582.164.418.16.238.164.059.164-.125.165-.301.164-.477.164-.64.164-.79.164-.921.16-1.031.164-1.125.164-1.188.164-1.227.164-1.242.164-1.23.164-1.188.164-1.12.16-1.036.165-.918.164-.789.164-.64.164-.477.164-.305.164-.12.164.058.16.238.164.418.164.582.164.734.164.88.164.991.164 1.094.165 1.168.16 1.219.328 2.476.164 1.204.164 1.148.164 1.07.164.961.164.84.164.695.16.536.164.367.164.187.165.008.164-.176.164-.355.164-.524.164-.683.16-.828.164-.957.164-1.059.164-1.144.164-1.204.164-1.234.164-1.242.164-1.219.16-1.172.165-1.097.164-1.004.164-.887.164-.746.164-.594.164-.43.164-.25.16-.074.164.113.164.29.164.464.164.63.164.777.165.914.164 1.023.16 1.117.164 1.184.164 1.226.164 1.243.164 1.23.164 1.192.164 1.128.164 1.04.164.93.16.8.164.648.165.489.164.316.164.137.164-.043.164-.23.164-.403.16-.57.164-.727.164-.867.164-.988.164-1.086.164-1.164.164-1.215.164-1.238.16-1.239.165-1.207.164-1.152.164-1.074.164-.973.164-.848.164-.707.164-.547.16-.378.164-.2.164-.02.164.161.164.344.164.511.165.672.164.82.16.946.164 1.055.164 1.136.164 1.2.164 1.234.164 1.242.164 1.219.164 1.18.16 1.105.164 1.008.164.894.165.758.164.606.164.441.164.266.164.086.164-.098.16-.281.164-.45.164-.617.164-.77.164-.902.164-1.02.164-1.108.164-1.184.16-1.223.165-1.242.164-1.23.164-1.196.164-1.133.164-1.046.164-.942.164-.808.16-.66.164-.5.164-.329.164-.152.164.035.165.215.164.39.164.56.16.714.164.86.164.976.164 1.082.164 1.16.164 1.211.164 1.238"/><use xlink:href="#e" x="224.572" y="52.025"/><use xlink:href="#f" x="11.012" y="49.62"/><use xlink:href="#g" x="11.012" y="42.197"/><use xlink:href="#h" x="11.012" y="33.952"/><use xlink:href="#i" x="11.012" y="28.449"/><use xlink:href="#j" x="11.012" y="25.698"/><use xlink:href="#k" x="11.012" y="22.946"/><use xlink:href="#l" x="11.012" y="19.096"/><use xlink:href="#m" x="11.012" y="13.593"/><use xlink:href="#n" x="11.012" y="8.09"/></svg>