<svg xmlns="http://www.w3.org/2000/svg" xmlns:xlink="http://www.w3.org/1999/xlink" width="219.058" height="140.343"><defs><path id="c" d="M4.453-1.719h-.25c-.047.297-.11.735-.219.875-.062.078-.718.078-.937.078H1.266L2.313-1.78c1.546-1.375 2.14-1.906 2.14-2.907 0-1.125-.89-1.921-2.11-1.921C1.235-6.61.5-5.687.5-4.812c0 .562.484.562.516.562a.516.516 0 0 0 .515-.531c0-.266-.172-.516-.515-.516-.079 0-.11 0-.125.016.218-.657.75-1.016 1.328-1.016.906 0 1.328.797 1.328 1.61 0 .796-.485 1.578-1.031 2.203L.609-.36C.5-.266.5-.234.5 0h3.672Zm0 0"/><path id="d" d="M2.016-.016c0-.625-.235-1.03-.641-1.03-.344 0-.516.265-.516.515 0 .265.157.531.516.531a.625.625 0 0 0 .406-.156 2.56 2.56 0 0 1-.703 1.86c-.062.046-.062.062-.062.109 0 .062.046.109.093.109.125 0 .907-.797.907-1.938m0 0"/><path id="e" d="M4.813-6.39H2.406c-1.219 0-1.234-.126-1.281-.313H.891L.563-4.656h.234c.031-.172.125-.797.25-.907.078-.062.844-.062.984-.062h2.047l-1.11 1.563C2.079-2.72 1.75-1.344 1.75-.328c0 .094 0 .547.453.547s.453-.453.453-.547v-.5c0-.547.031-1.094.11-1.625.046-.235.187-1.094.625-1.703l1.328-1.89c.093-.11.093-.141.093-.345m0 0"/><path id="f" d="M5.063 0v-.312c-.36 0-.579 0-.954-.516L2.844-2.61c0-.016-.063-.079-.063-.11 0-.047.719-.64.813-.719.625-.5 1.047-.515 1.25-.53v-.313c-.297.031-.422.031-.703.031-.344 0-.97-.016-1.11-.031v.312c.188.016.297.125.297.25 0 .203-.14.313-.219.39L1.703-2.124v-4.766l-1.422.11v.312c.688 0 .766.063.766.563V-.75c0 .438-.11.438-.766.438V0L1.36-.031 2.453 0v-.312c-.672 0-.781 0-.781-.438v-1.031l.64-.547C3.079-1.266 3.5-.718 3.5-.531c0 .187-.172.219-.36.219V0l1.063-.031c.297 0 .578.015.86.031m0 0"/><path id="g" d="M6.719-1.61h-.25a4.838 4.838 0 0 1-.172.72c-.063.171-.078.25-.656.25h-.797c.125-.563.437-1.032.875-1.688.468-.703.875-1.39.875-2.172 0-1.39-1.328-2.5-3.016-2.5C1.875-7 .563-5.86.563-4.5c0 .781.406 1.469.859 2.172.437.656.766 1.125.89 1.687h-.796c-.578 0-.61-.078-.657-.234-.078-.219-.125-.484-.171-.734h-.25L.766 0h1.578c.219 0 .25 0 .25-.203 0-.703-.297-1.578-.531-2.203-.204-.578-.485-1.36-.485-2.11 0-1.593 1.094-2.265 2-2.265.953 0 2 .718 2 2.265 0 .75-.266 1.5-.562 2.313-.141.422-.47 1.312-.47 2 0 .203.032.203.266.203h1.579Zm0 0"/><clipPath id="a"><path d="M.043 74H7v35H.043Zm0 0"/></clipPath><clipPath id="b"><path d="M31 134h14v5.688H31Zm0 0"/></clipPath></defs><path fill="none" stroke="#000" stroke-miterlimit="10" stroke-width=".39714066000000003" d="M6.203 123.492v-16.12m0-31.602V59.645h15.965m0 0H54.09m0 0h15.96V87.62m0 7.899v27.972H54.09m0 0H22.168m0 0H6.203"/><g clip-path="url(#a)"><path fill="none" stroke="#000" stroke-linejoin="bevel" stroke-miterlimit="10" stroke-width=".7932859800000001" d="M6.363 107.766c-3.273 0-5.925-1.813-5.925-4.047 0-2.239 2.652-4.051 5.925-4.051-3.273 0-5.925-1.813-5.925-4.05 0-2.235 2.652-4.048 5.925-4.048-3.273 0-5.925-1.812-5.925-4.05 0-2.235 2.652-4.047 5.925-4.047-3.273 0-5.925-1.813-5.925-4.051 0-2.234 2.652-4.05 5.925-4.05"/></g><path stroke="#000" stroke-miterlimit="10" stroke-width=".39714066000000003" d="M39.707 59.645a1.58 1.58 0 1 0-3.161.003 1.58 1.58 0 0 0 3.161-.003Zm0 0"/><path fill="none" stroke="#000" stroke-miterlimit="10" stroke-width=".39714066000000003" d="M37.93 59.645V.395"/><path fill="none" stroke="#000" stroke-miterlimit="10" stroke-width=".7932859800000001" d="M37.93.395h9.875l-9.875 19.75L28.055.395h9.875"/><path stroke="#000" stroke-miterlimit="10" stroke-width=".39714066000000003" d="M71.633 59.645c0-.872-.711-1.579-1.582-1.579a1.58 1.58 0 1 0 1.582 1.578Zm0 0"/><path fill="none" stroke="#000" stroke-miterlimit="10" stroke-width=".7932859800000001" d="M81.902 95.52H58.2m23.703-7.899H58.2M58.2 103.418l20.452-20.45"/><path stroke="#000" stroke-miterlimit="10" stroke-width=".79327004" d="m81.34 80.281-4.082 1.012 3.07 3.07Zm0 0"/><path stroke="#000" stroke-miterlimit="10" stroke-width=".39714066000000003" d="M71.633 123.492c0-.87-.711-1.578-1.582-1.578a1.58 1.58 0 1 0 1.582 1.578ZM39.707 123.492a1.58 1.58 0 1 0-3.161.003 1.58 1.58 0 0 0 3.161-.003Zm0 0"/><path fill="none" stroke="#000" stroke-miterlimit="10" stroke-width=".39714066000000003" d="M38.129 123.492v11.852"/><g clip-path="url(#b)"><path fill="none" stroke="#000" stroke-miterlimit="10" stroke-width=".7932859800000001" d="M32.203 135.344h11.852m-9.875 1.972h7.898m-6.418 1.977h4.938"/></g><path fill="none" stroke="#000" stroke-miterlimit="10" stroke-width=".39714066000000003" d="M70.05 59.645h39.985m15.8 0h39.985V75.77m0 31.601v16.121h-47.883m0 0H70.051"/><path fill="none" stroke="#000" stroke-miterlimit="10" stroke-width=".7932859800000001" d="m125.836 59.645-15.8-9.875v19.753Zm0 0"/><path fill="none" stroke="#000" stroke-miterlimit="10" stroke-width=".39714066000000003" d="M125.836 59.645h-15.8"/><path fill="none" stroke="#000" stroke-miterlimit="10" stroke-width=".7932859800000001" d="M125.836 69.523V49.77M159.894 107.371V75.77h12.247v31.601Zm12.247-23.703 9.48-4.738v25.28l-9.48-4.741Zm0 0"/><use xlink:href="#c" x="184.802" y="93.706"/><use xlink:href="#d" x="189.76" y="93.706"/><use xlink:href="#e" x="192.516" y="93.706"/><use xlink:href="#f" x="200.777" y="93.706"/><use xlink:href="#g" x="206.012" y="93.706"/></svg>