<svg xmlns="http://www.w3.org/2000/svg" xmlns:xlink="http://www.w3.org/1999/xlink" width="226.772" height="149.15"><defs><path id="c" d="m.422-.453 1.5-1.719q.89-1.015.89-2-.001-1.249-.906-1.25-.363.001-.703.172-.112.364-.125.89-.11.017-.203.016c-.281 0-.422-.117-.422-.36q0-.544.422-.874.42-.328 1.156-.328.715 0 1.172.422.451.409.453 1.14 0 .691-.422 1.36-.268.44-.906 1.125L1.344-.797v.016h2.031l.188-.766q.058-.047.187-.047.218 0 .219.36 0 .344-.094 1.234H.5Zm0 0"/><path id="d" d="M.89-.922q.248.002.407.203.17.204.172.578 0 .592-.375.985-.316.328-.61.328c-.093 0-.164-.078-.203-.234q.574-.3.61-.891a.5.5 0 0 1-.344-.125.47.47 0 0 1-.14-.344c0-.156.038-.273.124-.36a.48.48 0 0 1 .36-.14m0 0"/><path id="e" d="M.484-4.64c0-.376.02-.758.063-1.157h3.562a.3.3 0 0 1 .047.172q-.002.188-.11.422L1.704 0h-.656l2.406-5.047H1.078l-.14.75a.6.6 0 0 1-.204.031q-.251 0-.25-.375m0 0"/><path id="f" d="M.828-.469v-5.468l-.656-.079a.2.2 0 0 1-.016-.078q0-.246.328-.281l1.063-.11v4h.531l1.203-1.374L2.656-4a.2.2 0 0 1-.015-.062q-.001-.219.25-.22h1.437c.07 0 .11.032.11.095A.5.5 0 0 1 4.375-4l-.516.156L2.594-2.39 4.109-.453l.454.11q.124.015.125.109A.35.35 0 0 1 4.594 0H3.437L1.954-2.047h-.406v1.594L2-.343q.124.015.125.109A.35.35 0 0 1 2.031 0H.22v-.062c0-.133.086-.235.265-.297Zm0 0"/><clipPath id="a"><path d="M.527 79H8v34H.527Zm0 0"/></clipPath><clipPath id="b"><path d="M36 143h14v5.305H36Zm0 0"/></clipPath></defs><path fill="none" stroke="#000" stroke-miterlimit="10" stroke-width=".39673767000000004" d="M6.688 132.125v-20.484m0-31.57V59.585H24.82m0 0h36.27m0 0h18.137V91.91m0 7.89v32.325H61.09m0 0H24.82m0 0H6.688"/><g clip-path="url(#a)"><path fill="none" stroke="#000" stroke-linejoin="bevel" stroke-miterlimit="10" stroke-width=".79248101" d="M6.844 112.035c-3.27 0-5.918-1.808-5.918-4.043 0-2.234 2.648-4.047 5.918-4.047-3.27 0-5.918-1.812-5.918-4.043 0-2.234 2.648-4.047 5.918-4.047-3.27 0-5.918-1.812-5.918-4.046 0-2.23 2.648-4.043 5.918-4.043-3.27 0-5.918-1.813-5.918-4.047s2.648-4.043 5.918-4.043"/></g><path stroke="#000" stroke-miterlimit="10" stroke-width=".39673767000000004" d="M44.535 59.586a1.579 1.579 0 1 0-3.157.001 1.579 1.579 0 0 0 3.157-.001Zm0 0"/><path fill="none" stroke="#000" stroke-miterlimit="10" stroke-width=".39673767000000004" d="M42.758 59.586V.395"/><path fill="none" stroke="#000" stroke-miterlimit="10" stroke-width=".79248101" d="M42.758.395h9.863l-9.863 19.73L32.89.395h9.867"/><path stroke="#000" stroke-miterlimit="10" stroke-width=".39673767000000004" d="M80.805 59.586a1.579 1.579 0 1 0-3.158.001 1.579 1.579 0 0 0 3.158-.001Zm0 0"/><path fill="none" stroke="#000" stroke-miterlimit="10" stroke-width=".79248101" d="M91.062 99.8H67.387m23.675-7.89H67.387M67.387 107.691l20.433-20.43"/><path stroke="#000" stroke-miterlimit="10" stroke-width=".7924650700000001" d="m90.504 84.578-4.078 1.012 3.066 3.066Zm0 0"/><path stroke="#000" stroke-miterlimit="10" stroke-width=".39673767000000004" d="M80.805 132.125a1.579 1.579 0 1 0-3.158.001 1.579 1.579 0 0 0 3.158-.001ZM44.535 132.125a1.579 1.579 0 1 0-3.157.001 1.579 1.579 0 0 0 3.157-.001Zm0 0"/><path fill="none" stroke="#000" stroke-miterlimit="10" stroke-width=".39673767000000004" d="M42.957 132.125v11.84"/><g clip-path="url(#b)"><path fill="none" stroke="#000" stroke-miterlimit="10" stroke-width=".79248101" d="M37.035 143.965h11.84m-9.867 1.972h7.894m-6.414 1.973h4.934"/></g><path fill="none" stroke="#000" stroke-miterlimit="10" stroke-width=".39673767000000004" d="M79.227 59.586h46.511m15.785 0h46.512V80.07m0 31.57v20.485H133.63m0 0H79.227"/><path fill="none" stroke="#000" stroke-miterlimit="10" stroke-width=".79248101" d="m141.523 59.586-15.785-9.867v19.73Zm0 0"/><path fill="none" stroke="#000" stroke-miterlimit="10" stroke-width=".39673767000000004" d="M141.523 59.586h-15.785"/><path fill="none" stroke="#000" stroke-miterlimit="10" stroke-width=".79248101" d="M141.523 69.45V49.718M182.117 111.64V80.07h12.23v31.57Zm12.23-23.675 9.473-4.738v25.257l-9.472-4.738Zm0 0"/><use xlink:href="#c" x="207" y="97.996"/><use xlink:href="#d" x="211.457" y="97.996"/><use xlink:href="#e" x="213.303" y="97.996"/><use xlink:href="#f" x="219.677" y="97.996"/></svg>