<svg xmlns="http://www.w3.org/2000/svg" xmlns:xlink="http://www.w3.org/1999/xlink" width="165.722" height="68.073"><defs><path id="b" d="M4.406-1.703h-.234c-.047.281-.125.719-.219.875-.078.078-.719.078-.937.078H1.25l1.047-1.016c1.531-1.359 2.11-1.89 2.11-2.875 0-1.125-.876-1.906-2.079-1.906-1.11 0-1.844.906-1.844 1.781 0 .547.5.547.532.547.156 0 .5-.11.5-.515C1.516-5 1.344-5.25 1-5.25c-.078 0-.094 0-.125.016.219-.641.75-1 1.328-1 .89 0 1.313.797 1.313 1.593 0 .782-.485 1.563-1.032 2.172L.594-.359C.484-.25.484-.234.484 0h3.657Zm0 0"/><path id="c" d="M4.125 0v-.297h-.328c-.875 0-.906-.11-.906-.484v-5.516c0-.234 0-.25-.235-.25-.61.625-1.469.625-1.781.625v.313c.203 0 .781 0 1.281-.266v5.094c0 .36-.031.484-.906.484H.938V0C1.28-.031 2.125-.031 2.53-.031c.39 0 1.25 0 1.594.031m0 0"/><path id="d" d="M8.64 0v-.297h-.234c-.765 0-.781-.11-.781-.469v-5.187c0-.344.016-.453.781-.453h.235v-.313H6.984c-.265 0-.265.016-.328.188L4.5-1 2.375-6.5c-.094-.219-.125-.219-.344-.219H.36v.313h.235c.765 0 .781.11.781.453v4.922c0 .265 0 .734-1.016.734V0l1.157-.031L2.656 0v-.297c-1 0-1-.469-1-.734v-5.297l2.375 6.11c.047.124.094.218.188.218.11 0 .14-.078.187-.187l2.422-6.22v5.641c0 .36-.016.47-.781.47h-.234V0c.375-.031 1.03-.031 1.421-.031.375 0 1.047 0 1.407.031m0 0"/><path id="e" d="M7.031 0v-.297h-.234c-.75 0-.766-.11-.766-.469v-5.187c0-.344.016-.453.766-.453h.234v-.313c-.343.032-1.062.032-1.437.032s-1.11 0-1.453-.032v.313h.234c.75 0 .781.11.781.453v2.312H2.22v-2.312c0-.344.015-.453.765-.453h.235v-.313c-.344.032-1.063.032-1.438.032s-1.11 0-1.453-.032v.313h.235c.75 0 .78.11.78.453v5.187c0 .36-.03.47-.78.47H.328V0c.344-.031 1.063-.031 1.438-.031s1.109 0 1.453.031v-.297h-.235c-.75 0-.765-.11-.765-.469v-2.578h2.937v2.578c0 .36-.031.47-.781.47h-.234V0c.343-.031 1.062-.031 1.437-.031s1.11 0 1.453.031m0 0"/><path id="f" d="M3.938-1.844h-.235C3.61-.672 3.406-.25 2.266-.25H1.094l2.734-3.687c.094-.11.094-.126.094-.172 0-.125-.078-.125-.25-.125H.516l-.11 1.578h.25c.063-1 .25-1.36 1.328-1.36H3.11L.36-.312c-.078.109-.078.125-.078.171C.281 0 .344 0 .531 0h3.25Zm0 0"/><path id="g" d="M4.078-5.61c0-.562-.39-1.312-1.86-1.312-1.062 0-1.671.656-1.671 1.297 0 .344.234.469.453.469.281 0 .453-.188.453-.453 0-.438-.406-.438-.547-.438.297-.516.875-.672 1.281-.672 1.079 0 1.079.672 1.079 1.063 0 .578-.157.75-.344.922a3.482 3.482 0 0 0-.86 2.218v.438c0 .187 0 .234.126.234.124 0 .124-.078.124-.265v-.344c0-1.235.954-1.938 1.297-2.188.266-.187.47-.546.47-.968M2.703-.515A.524.524 0 1 0 1.656-.53a.524.524 0 0 0 1.047.015m0 0"/><path id="h" d="M4.484-1.687c0-.797-.609-1.563-1.64-1.766.812-.266 1.375-.953 1.375-1.735 0-.812-.86-1.359-1.797-1.359-1 0-1.75.594-1.75 1.344 0 .312.219.5.5.5.312 0 .516-.203.516-.5 0-.484-.47-.484-.61-.484.297-.485.953-.61 1.297-.61.406 0 .953.219.953 1.094 0 .125-.031.687-.281 1.125-.297.469-.625.5-.875.516-.078 0-.313.03-.39.03-.079 0-.141.016-.141.11 0 .11.062.11.234.11h.438c.796 0 1.171.671 1.171 1.624 0 1.344-.687 1.626-1.109 1.626-.422 0-1.172-.157-1.516-.75.344.062.657-.157.657-.532 0-.36-.266-.547-.547-.547-.235 0-.563.125-.563.563 0 .89.922 1.547 1.985 1.547 1.203 0 2.093-.89 2.093-1.906m0 0"/><path id="i" d="M2-.016c0-.625-.234-1.03-.64-1.03-.344 0-.516.265-.516.53 0 .25.172.516.515.516a.625.625 0 0 0 .407-.156 2.577 2.577 0 0 1-.688 1.844C1.016 1.734 1 1.75 1 1.78c0 .078.047.11.094.11.125 0 .906-.766.906-1.907m0 0"/><path id="j" d="M4.766-6.328H2.375c-1.203 0-1.219-.125-1.25-.313h-.25L.547-4.625h.25c.031-.156.11-.766.25-.89.062-.063.828-.063.953-.063h2.047l-1.11 1.562c-.89 1.329-1.203 2.688-1.203 3.688 0 .11 0 .547.454.547.453 0 .453-.438.453-.547v-.5c0-.531.015-1.078.093-1.61.047-.218.188-1.078.61-1.687l1.328-1.86c.094-.124.094-.14.094-.343m0 0"/><clipPath id="a"><path d="M82 35h1v32.16h-1Zm0 0"/></clipPath></defs><path fill="none" stroke="#000" stroke-miterlimit="10" stroke-width=".78629629" d="M68.684 8.543H96.09v27.406H68.684Zm0 0"/><path fill="none" stroke="#000" stroke-miterlimit="10" stroke-width=".39364143" d="M91.977 22.246c0-5.297-4.293-9.594-9.59-9.594s-9.594 4.297-9.594 9.594 4.297 9.59 9.594 9.59a9.59 9.59 0 0 0 9.59-9.59ZM75.602 15.465l13.566 13.562m0-13.562L75.602 29.027M68.684 22.246H45.422m0 0H22.164"/><path d="M64.523 22.246v1.957l4.16-1.957-4.16-1.957Zm0 0"/><path fill="none" stroke="#000" stroke-miterlimit="10" stroke-width=".39364143" d="M96.09 22.246h23.258m0 0h23.261"/><path d="M138.45 22.246v1.957l4.16-1.957-4.16-1.957Zm0 0"/><g clip-path="url(#a)"><path fill="none" stroke="#000" stroke-miterlimit="10" stroke-width=".39364143" d="M82.387 35.95v15.507m0 0v15.504"/></g><path d="M82.387 40.11h1.957l-1.957-4.16-1.957 4.16Zm0 0"/><use xlink:href="#b" x="4.252" y="10.097"/><use xlink:href="#c" x="9.167" y="10.097"/><use xlink:href="#d" x="15.713" y="10.097"/><use xlink:href="#e" x="24.726" y="10.097"/><use xlink:href="#f" x="32.097" y="10.097"/><use xlink:href="#g" x="130.897" y="10.205"/><use xlink:href="#d" x="137.168" y="10.205"/><use xlink:href="#e" x="146.181" y="10.205"/><use xlink:href="#f" x="153.552" y="10.205"/><use xlink:href="#h" x="93.466" y="55.667"/><use xlink:href="#c" x="98.38" y="55.667"/><use xlink:href="#i" x="103.294" y="55.667"/><use xlink:href="#j" x="106.027" y="55.667"/><use xlink:href="#d" x="112.573" y="55.667"/><use xlink:href="#e" x="121.586" y="55.667"/><use xlink:href="#f" x="128.957" y="55.667"/></svg>