<svg xmlns="http://www.w3.org/2000/svg" xmlns:xlink="http://www.w3.org/1999/xlink" width="219.155" height="136.441"><defs><path id="b" d="M3.64-3.969h.86c.188 0 .297 0 .297-.203 0-.11-.11-.11-.266-.11h-.828l.203-1.124c.047-.203.188-.907.235-1.032.093-.187.265-.343.468-.343.047 0 .297 0 .485.187a.531.531 0 0 0-.532.532c0 .234.188.343.375.343.25 0 .547-.218.547-.593 0-.454-.468-.688-.875-.688-.328 0-.953.188-1.25 1.172-.062.203-.093.297-.328 1.547h-.687c-.188 0-.297 0-.297.187 0 .125.094.125.281.125h.64L2.235-.047c-.187.953-.343 1.86-.859 1.86-.047 0-.297 0-.484-.172a.547.547 0 0 0 .547-.547c0-.219-.172-.344-.36-.344-.266 0-.547.219-.547.594 0 .453.438.687.844.687.547 0 .938-.578 1.11-.953.328-.625.546-1.828.562-1.906Zm0 0"/><path id="c" d="M6.297-5.734c.11-.407.281-.703 1.078-.735.047 0 .172-.015.172-.203 0 0 0-.11-.14-.11-.329 0-.673.032-1 .032-.344 0-.72-.031-1.032-.031-.062 0-.187 0-.187.203 0 .11.093.11.187.11.563.015.672.218.672.437 0 .031-.031.172-.031.203l-.891 3.547C4.781-.953 3.641-.094 2.656-.094c-.687 0-1.219-.437-1.219-1.281 0-.031 0-.344.11-.781l.969-3.86c.078-.359.109-.453.828-.453.265 0 .344 0 .344-.203 0-.11-.11-.11-.141-.11-.281 0-1 .032-1.281.032-.282 0-.985-.031-1.282-.031-.078 0-.187 0-.187.203 0 .11.094.11.281.11.016 0 .219 0 .375.015.188.031.266.031.266.156 0 .063-.094.484-.157.703l-.218.875c-.094.39-.563 2.266-.61 2.453-.062.282-.062.438-.062.579 0 1.218.89 1.906 1.937 1.906 1.25 0 2.485-1.125 2.813-2.438Zm0 0"/><clipPath id="a"><path d="M205 112h13.29v16H205Zm0 0"/></clipPath></defs><path fill="none" stroke="#000" stroke-miterlimit="10" stroke-width=".39737208" d="M14.695 120.254h196.633"/><path d="m214.39 120.254-2.96-1.758v3.512Zm0 0"/><g clip-path="url(#a)"><path fill="none" stroke="#000" stroke-miterlimit="10" stroke-width=".39737208" d="m214.39 120.254-2.96-1.758v3.512Zm0 0"/></g><use xlink:href="#b" x="205.353" y="130.648"/><path fill="none" stroke="#000" stroke-miterlimit="10" stroke-width=".39737208" d="M14.695 120.254V3.656"/><path stroke="#000" stroke-miterlimit="10" stroke-width=".39737208" d="m14.695.594-1.758 2.96h3.516Zm0 0"/><use xlink:href="#c" x="3.334" y="10.484"/><path fill="none" stroke="#000" stroke-miterlimit="10" stroke-width=".7937482400000001" d="m86.727 20.207 20.402 72.86c4.203 15.015 11.02 15.015 15.223 0l20.402-72.86"/><path fill="none" stroke="#000" stroke-dasharray="2.9766355736000003 2.9766355736000003" stroke-miterlimit="10" stroke-width=".39737208" d="M114.742 120.254V.195"/></svg>