<svg xmlns="http://www.w3.org/2000/svg" xmlns:xlink="http://www.w3.org/1999/xlink" width="219.103" height="136.29"><defs><clipPath id="a"><path d="M205 112h13.09v16H205Zm0 0"/></clipPath><clipPath id="d"><path d="M3 28h215.09v104H3Zm0 0"/></clipPath><path id="b" d="M3.64-3.969h.844c.204 0 .297 0 .297-.187 0-.11-.093-.11-.265-.11h-.828l.218-1.14c.031-.203.172-.907.235-1.016.093-.203.25-.344.468-.344.032 0 .297 0 .485.172a.552.552 0 0 0-.532.547c0 .219.172.344.36.344.266 0 .547-.219.547-.594 0-.453-.453-.687-.86-.687-.343 0-.968.172-1.265 1.156-.063.219-.078.312-.328 1.562h-.672c-.188 0-.297 0-.297.188 0 .11.078.11.265.11h.657L2.234-.048c-.187.953-.359 1.86-.875 1.86-.03 0-.28 0-.468-.172a.547.547 0 0 0 .547-.547c0-.219-.172-.344-.375-.344-.25 0-.532.219-.532.594 0 .453.422.687.828.687.547 0 .954-.578 1.125-.969.313-.609.547-1.812.563-1.89Zm0 0"/><path id="c" d="M6.297-5.719c.094-.406.266-.703 1.062-.734.047 0 .172-.016.172-.203 0-.016 0-.11-.125-.11-.328 0-.687.032-1.015.032-.344 0-.703-.032-1.032-.032-.062 0-.171 0-.171.204 0 .109.093.109.171.109.563 0 .672.219.672.437 0 .016-.015.172-.031.204l-.89 3.53C4.78-.952 3.64-.093 2.64-.093c-.671 0-1.203-.437-1.203-1.281 0-.016 0-.344.11-.781L2.5-6c.094-.36.11-.453.844-.453.25 0 .328 0 .328-.203 0-.11-.11-.11-.14-.11-.266 0-.985.032-1.266.032-.282 0-.985-.032-1.282-.032-.078 0-.187 0-.187.204 0 .109.094.109.281.109.016 0 .203 0 .375.016.188.015.266.03.266.156 0 .062-.11.468-.157.703l-.218.875c-.094.39-.578 2.25-.61 2.437-.078.282-.078.438-.078.579C.656-.47 1.563.218 2.61.218c1.25 0 2.47-1.125 2.797-2.422Zm0 0"/></defs><path fill="none" stroke="#000" stroke-miterlimit="10" stroke-width=".39693318000000005" d="M14.773 119.969h196.169"/><path d="m214 119.969-2.96-1.754v3.508Zm0 0"/><g clip-path="url(#a)"><path fill="none" stroke="#000" stroke-miterlimit="10" stroke-width=".39693318000000005" d="m214 119.969-2.96-1.754v3.508Zm0 0"/></g><use xlink:href="#b" x="204.971" y="130.353"/><path fill="none" stroke="#000" stroke-miterlimit="10" stroke-width=".39693318000000005" d="M14.773 119.969V3.652"/><path stroke="#000" stroke-miterlimit="10" stroke-width=".39693318000000005" d="M14.773.594 13.02 3.55h3.507Zm0 0"/><use xlink:href="#c" x="3.425" y="10.472"/><g clip-path="url(#d)"><path fill="none" stroke="#000" stroke-miterlimit="10" stroke-width=".79287154" d="M14.773 119.969H78.18c4.672 0 9.375-3.676 10.511-8.207l15.856-63.434c1.133-4.531 5.84-8.207 10.512-8.207h99.336"/></g><path fill="none" stroke="#000" stroke-dasharray="2.9733478606 2.9733478606" stroke-miterlimit="10" stroke-width=".39693318000000005" d="M114.586 119.969V.195"/></svg>