<svg xmlns="http://www.w3.org/2000/svg" xmlns:xlink="http://www.w3.org/1999/xlink" width="227.845" height="122.666"><defs><path id="b" d="m4.734-3.125-.203-1.594H.391v.25h.172c.53 0 .546.063.546.313v3.593c0 .235-.015.313-.546.313H.39V0l1.062-.031L2.656 0v-.25h-.234c-.656 0-.656-.094-.656-.312v-1.672h.672c.703 0 .796.203.796.812h.235v-1.875h-.235c0 .594-.093.813-.796.813h-.672v-1.72c0-.218 0-.265.328-.265h.984c1.11 0 1.297.375 1.422 1.344Zm0 0"/><path id="c" d="M6.703 0v-.25h-.156C6-.25 6-.312 6-.562v-3.625c0-.235 0-.313.547-.313h.156v-.25H5.5c-.14 0-.203 0-.25.14L3.578-.671 1.906-4.594c-.062-.156-.11-.156-.265-.156H.438v.25h.156c.547 0 .547.078.547.313V-.75c0 .188 0 .5-.703.5V0c.28-.016.562-.031.843-.031.282 0 .563.015.844.031v-.25c-.719 0-.719-.312-.719-.5v-3.672h.016L3.219-.156c.047.078.078.156.187.156.047 0 .11-.016.156-.14l1.844-4.344v3.922c0 .234-.015.312-.547.312h-.171V0l1.015-.031Zm0 0"/><path id="e" d="M7.297-2.406v-.313l-1.203.031c-.407 0-1.25 0-1.61-.03v.312h.329c.89 0 .921.11.921.484v.625c0 1.125-1.265 1.203-1.546 1.203-.641 0-2.61-.343-2.61-3.312s1.953-3.297 2.563-3.297c1.062 0 1.968.906 2.156 2.36.016.14.016.171.156.171.172 0 .172-.031.172-.234v-2.36c0-.171 0-.234-.11-.234-.046 0-.093 0-.171.11l-.485.734C5.531-6.47 5-7 4.016-7 2.172-7 .563-5.437.563-3.406.563-1.36 2.14.219 4.03.219c.735 0 1.532-.266 1.86-.844.125.219.53.61.64.61.094 0 .094-.079.094-.22v-1.734c0-.39.031-.437.672-.437m0 0"/><path id="f" d="M7.11 0v-.312h-.235c-.766 0-.781-.11-.781-.47v-5.234c0-.359.015-.468.781-.468h.234v-.297c-.343.031-1.078.031-1.453.031s-1.125 0-1.468-.031v.297h.234c.766 0 .781.109.781.468v2.329H2.234v-2.329c0-.359.016-.468.782-.468h.25v-.297c-.36.031-1.094.031-1.47.031-.374 0-1.124 0-1.468-.031v.297h.235c.765 0 .78.109.78.468V-.78c0 .36-.015.469-.78.469H.328V0c.344-.031 1.078-.031 1.453-.031.39 0 1.125 0 1.485.031v-.312h-.25c-.766 0-.782-.11-.782-.47v-2.593h2.97v2.594c0 .36-.016.469-.782.469h-.234V0C4.53-.031 5.266-.031 5.64-.031s1.125 0 1.468.031m0 0"/><path id="g" d="M6.063-4.516 5.78-6.75H.328v.297h.235c.765 0 .78.11.78.469v5.203c0 .36-.015.469-.78.469H.328V0c.344-.031 1.125-.031 1.516-.031.406 0 1.312 0 1.672.031v-.312h-.328c-.954 0-.954-.125-.954-.47v-2.452h.86c.953 0 1.047.328 1.047 1.172h.25v-2.641h-.25c0 .844-.094 1.172-1.047 1.172h-.86v-2.516c0-.328.016-.406.485-.406h1.203c1.484 0 1.734.562 1.89 1.937Zm0 0"/><path id="h" d="M5.563-2.656h-.25c-.079 1.39-.266 2.312-2.11 2.312H1.578l3.86-6.093c.062-.11.062-.125.062-.188 0-.156-.047-.156-.25-.156H.797l-.11 2.234h.25c.063-1.125.36-1.937 2-1.937h1.547L.625-.375c-.062.11-.062.125-.062.203C.563 0 .609 0 .813 0H5.39Zm0 0"/><path id="i" d="M7.031-3.344c0-1.89-1.343-3.437-3.047-3.437H.344v.297h.25c.75 0 .781.109.781.468V-.78c0 .36-.031.469-.781.469h-.25V0h3.64c1.672 0 3.047-1.469 3.047-3.344m-1 0c0 1.11-.187 1.703-.547 2.188a2.192 2.192 0 0 1-1.765.843h-1c-.469 0-.5-.062-.5-.39v-5.375c0-.328.031-.406.5-.406h.984c.625 0 1.313.218 1.813.922.422.593.515 1.453.515 2.218m0 0"/><path id="j" d="M4.125-1.187c0-.094-.078-.11-.125-.11-.094 0-.11.047-.14.14C3.515-.14 2.624-.14 2.53-.14c-.5 0-.906-.296-1.125-.671-.297-.47-.297-1.125-.297-1.485h2.766c.219 0 .25 0 .25-.203 0-.984-.531-1.953-1.781-1.953C1.188-4.453.28-3.422.28-2.187.281-.86 1.328.108 2.47.108 3.672.11 4.125-1 4.125-1.187M3.469-2.5h-2.36C1.172-3.984 2-4.234 2.344-4.234c1.031 0 1.125 1.343 1.125 1.734m0 0"/><path id="k" d="M8.078 0v-.312c-.515 0-.765 0-.781-.297V-2.5c0-.86 0-1.172-.297-1.531-.14-.157-.469-.36-1.047-.36-.828 0-1.266.594-1.437.97-.141-.86-.875-.97-1.328-.97-.72 0-1.188.422-1.47 1.047V-4.39l-1.405.11v.312c.703 0 .78.063.78.547V-.75c0 .438-.109.438-.78.438V0l1.125-.031L2.547 0v-.312c-.656 0-.766 0-.766-.438v-1.828c0-1.047.703-1.594 1.344-1.594.625 0 .734.531.734 1.094V-.75c0 .438-.109.438-.78.438V0l1.124-.031L5.313 0v-.312c-.657 0-.766 0-.766-.438v-1.828c0-1.047.703-1.594 1.344-1.594.625 0 .734.531.734 1.094V-.75c0 .438-.11.438-.781.438V0l1.125-.031Zm0 0"/><path id="l" d="M4.688-2.125c0-1.281-1-2.328-2.204-2.328C1.25-4.453.281-3.375.281-2.125.281-.844 1.312.109 2.47.109a2.22 2.22 0 0 0 2.219-2.234m-.829-.078c0 .36 0 .89-.218 1.328a1.273 1.273 0 0 1-1.157.734c-.421 0-.859-.203-1.14-.671-.235-.438-.235-1.032-.235-1.391 0-.39 0-.922.235-1.36a1.308 1.308 0 0 1 1.125-.671c.437 0 .875.218 1.125.64.265.438.265 1.016.265 1.39m0 0"/><path id="m" d="M5.234 0v-.312c-.687 0-.765-.063-.765-.547v-6.032l-1.438.11v.297c.703 0 .781.078.781.562v2.14a1.6 1.6 0 0 0-1.265-.609c-1.172 0-2.203.97-2.203 2.25 0 1.266.969 2.25 2.094 2.25.64 0 1.093-.343 1.343-.656V.11ZM3.781-1.172c0 .172 0 .203-.11.36-.296.484-.75.703-1.171.703-.453 0-.812-.266-1.047-.641-.266-.406-.297-.969-.297-1.375 0-.375.032-.969.313-1.406.203-.313.593-.64 1.125-.64.344 0 .765.14 1.078.593.11.172.11.187.11.375Zm0 0"/><path id="n" d="M5.313 0v-.312c-.688 0-.766-.063-.766-.547v-3.532l-1.469.11v.312c.703 0 .781.063.781.547v1.766c0 .875-.484 1.547-1.203 1.547-.844 0-.875-.47-.875-.985V-4.39l-1.468.11v.312c.78 0 .78.031.78.906v1.5c0 .766 0 1.672 1.516 1.672.547 0 .985-.28 1.282-.89v.89Zm0 0"/><path id="o" d="M2.531 0v-.312c-.656 0-.765 0-.765-.438v-6.14l-1.438.109v.297c.703 0 .781.078.781.562V-.75c0 .438-.109.438-.78.438V0l1.109-.031Zm0 0"/><path id="p" d="M4.797-.89v-.547h-.25v.546c0 .579-.25.641-.36.641-.328 0-.359-.453-.359-.5v-1.984c0-.422 0-.797-.36-1.172-.39-.39-.89-.547-1.359-.547-.812 0-1.5.469-1.5 1.125 0 .297.204.469.454.469a.435.435 0 0 0 .453-.453c0-.126-.047-.454-.5-.47.265-.343.75-.452 1.078-.452.484 0 1.047.39 1.047 1.265v.375c-.5.031-1.203.063-1.828.36-.75.343-1 .859-1 1.297 0 .796.968 1.046 1.593 1.046.657 0 1.11-.39 1.297-.859.047.39.313.813.781.813.204 0 .813-.141.813-.954m-1.656-.5c0 .937-.72 1.28-1.157 1.28-.5 0-.906-.343-.906-.843 0-.547.422-1.375 2.063-1.438Zm0 0"/><path id="q" d="M3.297-1.234v-.563h-.25v.547c0 .734-.297 1.11-.656 1.11-.672 0-.672-.907-.672-1.079v-2.75H3.14v-.312H1.719V-6.11h-.25c-.016.812-.313 1.875-1.281 1.922v.218h.843v2.735c0 1.218.922 1.343 1.282 1.343.703 0 .984-.703.984-1.343m0 0"/><path id="r" d="M3.625-3.781c0-.328-.312-.61-.75-.61-.719 0-1.078.657-1.219 1.094V-4.39l-1.375.11v.312c.688 0 .766.063.766.547V-.75c0 .438-.11.438-.766.438V0l1.125-.031c.407 0 .875 0 1.266.031v-.312h-.203c-.735 0-.766-.11-.766-.47v-1.53c0-.985.422-1.86 1.172-1.86.078 0 .094 0 .11.016a.426.426 0 0 0-.22.375c0 .281.204.437.422.437.188 0 .438-.125.438-.437m0 0"/><path id="s" d="M7.11-6.484v-.297l-1.157.031-1.156-.031v.297c1.016 0 1.016.468 1.016.734v4.25l-3.5-5.156c-.094-.125-.11-.125-.297-.125H.328v.297H.61c.157 0 .36.015.5.03.235.032.235.032.235.22v5.187c0 .266 0 .734-1.016.734V0l1.156-.031L2.656 0v-.312c-1.031 0-1.031-.47-1.031-.735v-5.172c.047.063.063.063.11.125L5.78-.125c.094.11.11.125.172.125.14 0 .14-.062.14-.266V-5.75c0-.266 0-.734 1.016-.734m0 0"/><path id="t" d="M7.25-6.484v-.297c-.297.015-.703.031-.953.031l-1.14-.031v.297c.515.015.734.265.734.5 0 .078-.032.14-.063.203L4.016-1 2.109-6.016c-.046-.14-.046-.171-.046-.171 0-.297.562-.297.812-.297v-.297c-.36.031-1.047.031-1.422.031L.188-6.781v.297c.64 0 .843 0 .968.375L3.47 0c.062.188.125.219.25.219.172 0 .187-.047.234-.188l2.219-5.843c.14-.375.406-.657 1.078-.672m0 0"/><path id="u" d="M7.172-3.375C7.172-5.391 5.672-7 3.859-7 2.08-7 .563-5.422.563-3.375c0 2.047 1.53 3.594 3.296 3.594 1.813 0 3.313-1.578 3.313-3.594m-1.031-.14c0 2.64-1.36 3.468-2.282 3.468-.953 0-2.28-.875-2.28-3.469 0-2.562 1.452-3.234 2.28-3.234.86 0 2.282.703 2.282 3.234m0 0"/><path id="v" d="M4.156 0v-.312h-.312c-.89 0-.922-.11-.922-.47v-5.577c0-.235 0-.266-.235-.266-.609.64-1.484.64-1.796.64v.313c.187 0 .78 0 1.297-.266V-.78c0 .36-.032.469-.922.469H.938V0c.359-.031 1.218-.031 1.609-.031.406 0 1.265 0 1.61.031m0 0"/><path id="w" d="M4.469-1.734h-.25c-.063.297-.125.734-.219.89-.078.078-.734.078-.953.078H1.266L2.313-1.78c1.546-1.375 2.156-1.922 2.156-2.907 0-1.14-.907-1.937-2.11-1.937C1.234-6.625.5-5.703.5-4.812c0 .546.5.546.531.546.157 0 .516-.109.516-.53a.513.513 0 0 0-.531-.516c-.079 0-.094 0-.125.015.218-.64.765-1.016 1.328-1.016.906 0 1.344.813 1.344 1.625 0 .797-.5 1.579-1.047 2.188L.609-.375C.5-.265.5-.235.5 0h3.688Zm0 0"/><path id="x" d="M4.547-1.703c0-.813-.625-1.594-1.672-1.797.828-.266 1.39-.969 1.39-1.75 0-.812-.859-1.375-1.827-1.375-1 0-1.75.61-1.75 1.36 0 .327.218.515.5.515.312 0 .515-.219.515-.5 0-.5-.469-.5-.625-.5.313-.484.969-.625 1.328-.625.406 0 .953.219.953 1.125 0 .11-.015.688-.28 1.125-.298.484-.642.5-.876.516a3.9 3.9 0 0 1-.39.03c-.079.017-.157.017-.157.126 0 .11.078.11.235.11h.437c.828 0 1.188.671 1.188 1.64 0 1.36-.688 1.64-1.125 1.64-.422 0-1.172-.171-1.516-.75.344.047.656-.171.656-.546 0-.36-.265-.563-.562-.563-.235 0-.547.14-.547.578 0 .907.922 1.563 2 1.563 1.219 0 2.125-.906 2.125-1.922m0 0"/><path id="y" d="M4.688-1.64v-.313h-1V-6.47c0-.203 0-.265-.157-.265-.094 0-.125 0-.203.125L.281-1.953v.312h2.64v.86c0 .36-.015.469-.75.469h-.218V0c.406-.031.922-.031 1.344-.031.422 0 .953 0 1.36.031v-.312h-.22c-.734 0-.75-.11-.75-.47v-.859Zm-1.704-.313H.563l2.421-3.703Zm0 0"/><clipPath id="a"><path d="M.23 0H27v27H.23Zm0 0"/></clipPath><clipPath id="d"><path d="M196 21h31.457v48H196Zm0 0"/></clipPath></defs><path fill="none" stroke="#000" stroke-miterlimit="10" stroke-width=".39791472000000006" d="M8.059 44.984V.398"/><g clip-path="url(#a)"><path fill="none" stroke="#000" stroke-miterlimit="10" stroke-width=".7948321600000001" d="M8.059.398h7.433L8.06 15.258.629.398h7.43"/></g><path fill="none" stroke="#000" stroke-miterlimit="10" stroke-width=".39791472000000006" d="M8.258 44.984h5.308m0 0h5.309"/><path d="M14.668 44.984v1.977l4.207-1.977-4.207-1.98Zm0 0"/><path fill="none" stroke="#000" stroke-miterlimit="10" stroke-width=".7948321600000001" d="M18.875 34.578H39.68v20.809H18.875Zm0 0"/><path fill="none" stroke="#000" stroke-miterlimit="10" stroke-width=".39791472000000006" d="m21.996 36.973 14.563 8.011-14.563 8.008ZM39.68 44.984h5.308m0 0h5.309"/><path d="M46.094 44.984v1.977l4.203-1.977-4.203-1.98Zm0 0"/><path fill="none" stroke="#000" stroke-miterlimit="10" stroke-width=".7948321600000001" d="M50.297 34.578h20.805v20.809H50.297Zm0 0"/><path fill="none" stroke="#000" stroke-miterlimit="10" stroke-width=".39791472000000006" d="M67.98 44.984a7.282 7.282 0 1 0-14.562 0 7.281 7.281 0 1 0 14.563 0ZM55.55 39.832l10.298 10.3m0-10.3-10.297 10.3M71.102 44.984h5.308m0 0h5.309"/><path d="M77.516 44.984v1.977l4.203-1.977-4.203-1.98Zm0 0"/><path fill="none" stroke="#000" stroke-miterlimit="10" stroke-width=".7948321600000001" d="M81.719 34.578h20.808v20.809H81.72Zm0 0"/><path fill="none" stroke="#000" stroke-miterlimit="10" stroke-width=".39791472000000006" d="M86.922 39.781c.848-1.332 1.656-2.601 2.598-2.601.945 0 1.753 1.27 2.601 2.601.848 1.332 1.66 2.602 2.602 2.602.941 0 1.754-1.27 2.601-2.602m-3.64-1.562-3.121 3.12M86.922 44.984c.848-1.332 1.656-2.601 2.598-2.601.945 0 1.753 1.27 2.601 2.601.848 1.329 1.66 2.598 2.602 2.598.941 0 1.754-1.27 2.601-2.598M86.922 50.184c.848-1.332 1.656-2.602 2.598-2.602.945 0 1.753 1.27 2.601 2.602.848 1.332 1.66 2.601 2.602 2.601.941 0 1.754-1.27 2.601-2.601m-3.64-1.559-3.121 3.121M102.527 44.984h5.305m0 0h5.309"/><path d="M108.938 44.984v1.977l4.203-1.977-4.204-1.98Zm0 0"/><path fill="none" stroke="#000" stroke-miterlimit="10" stroke-width=".7948321600000001" d="M113.14 34.578h20.81v20.809h-20.81Zm0 0"/><path fill="none" stroke="#000" stroke-miterlimit="10" stroke-width=".39791472000000006" d="M118.344 39.781c.847-1.332 1.66-2.601 2.601-2.601.942 0 1.75 1.27 2.598 2.601.848 1.332 1.66 2.602 2.602 2.602.941 0 1.753-1.27 2.601-2.602"/><use xlink:href="#b" x="117.405" y="50.999"/><use xlink:href="#c" x="122.531" y="50.999"/><path fill="none" stroke="#000" stroke-miterlimit="10" stroke-width=".39791472000000006" d="M133.95 44.984h5.304m0 0h5.309"/><path d="M140.36 44.984v1.977l4.202-1.977-4.203-1.98Zm0 0"/><path fill="none" stroke="#000" stroke-miterlimit="10" stroke-width=".7948321600000001" d="M144.563 34.578h20.808v20.809h-20.808Zm0 0"/><path fill="none" stroke="#000" stroke-miterlimit="10" stroke-width=".39791472000000006" d="M149.766 39.781c.847-1.332 1.66-2.601 2.601-2.601.942 0 1.75 1.27 2.598 2.601.848 1.332 1.66 2.602 2.601 2.602.942 0 1.754-1.27 2.602-2.602m-3.64-1.562-3.122 3.12M149.766 44.984c.847-1.332 1.66-2.601 2.601-2.601.942 0 1.75 1.27 2.598 2.601.848 1.329 1.66 2.598 2.601 2.598.942 0 1.754-1.27 2.602-2.598M149.766 50.184c.847-1.332 1.66-2.602 2.601-2.602.942 0 1.75 1.27 2.598 2.602.848 1.332 1.66 2.601 2.601 2.601.942 0 1.754-1.27 2.602-2.601m-3.64-1.559-3.122 3.121M165.371 44.984h5.305m0 0h5.308"/><path d="M171.781 44.984v1.977l4.203-1.977-4.203-1.98Zm0 0"/><path fill="none" stroke="#000" stroke-miterlimit="10" stroke-width=".7948321600000001" d="M175.984 34.578h20.81v20.809h-20.81Zm0 0"/><path fill="none" stroke="#000" stroke-miterlimit="10" stroke-width=".39791472000000006" d="m179.106 36.973 14.566 8.011-14.566 8.008ZM196.793 44.984h5.305m0 0h5.308"/><path d="M203.203 44.984v1.977l4.203-1.977-4.203-1.98Zm0 0"/><g clip-path="url(#d)"><path fill="none" stroke="#000" stroke-miterlimit="10" stroke-width=".7948321600000001" d="M207.406 56.871V33.094h9.215V56.87Zm9.215-17.832 7.133-3.566v19.023l-7.133-3.57Zm0 0"/></g><path fill="none" stroke="#000" stroke-miterlimit="10" stroke-width=".39791472000000006" d="M60.7 55.387v5.308m0 0V66"/><path d="M60.7 59.59h1.98l-1.98-4.203-1.977 4.203Zm0 0"/><path fill="none" stroke="#000" stroke-miterlimit="10" stroke-width=".7948321600000001" d="M50.297 66h20.805v20.809H50.297Zm0 0"/><path fill="none" stroke="#000" stroke-miterlimit="10" stroke-width=".39791472000000006" d="M62 71.723c.426-.664.832-1.301 1.3-1.301.473 0 .876.637 1.302 1.3.421.669.828 1.301 1.3 1.301.47 0 .875-.632 1.301-1.3M62 74.324c.426-.664.832-1.3 1.3-1.3.473 0 .876.632 1.302 1.3.421.664.828 1.301 1.3 1.301.47 0 .875-.637 1.301-1.3M62 76.926c.426-.668.832-1.301 1.3-1.301.473 0 .876.633 1.302 1.3.421.665.828 1.302 1.3 1.302.47 0 .875-.637 1.301-1.301"/><use xlink:href="#e" x="52.118" y="77.197"/><path fill="none" stroke="#000" stroke-miterlimit="10" stroke-width=".39791472000000006" d="M53.418 80.047H67.98M53.418 83.688H67.98v-2.083H53.418ZM53.418 85.246H67.98"/><use xlink:href="#f" x="22.308" y="65.682"/><use xlink:href="#g" x="29.76" y="65.682"/><use xlink:href="#h" x="85.842" y="65.682"/><use xlink:href="#g" x="91.913" y="65.682"/><use xlink:href="#i" x="95.028" y="30.96"/><use xlink:href="#j" x="102.619" y="30.96"/><use xlink:href="#k" x="107.03" y="30.96"/><use xlink:href="#l" x="115.306" y="30.96"/><use xlink:href="#m" x="120.552" y="30.96"/><use xlink:href="#n" x="126.077" y="30.96"/><use xlink:href="#o" x="131.601" y="30.96"/><use xlink:href="#p" x="134.363" y="30.96"/><use xlink:href="#q" x="139.331" y="30.96"/><use xlink:href="#l" x="143.196" y="30.96"/><use xlink:href="#r" x="148.163" y="30.96"/><use xlink:href="#s" x="147.995" y="65.682"/><use xlink:href="#g" x="155.446" y="65.682"/><use xlink:href="#s" x="179.416" y="65.682"/><use xlink:href="#g" x="186.868" y="65.682"/><use xlink:href="#t" x="50.004" y="97.322"/><use xlink:href="#g" x="57.455" y="97.322"/><use xlink:href="#u" x="63.665" y="97.322"/><path fill="none" stroke="#000" stroke-dasharray="2.9807003824000002 2.9807003824000002" stroke-miterlimit="10" stroke-width=".39791472000000006" d="M44.988 44.984v63.692"/><use xlink:href="#v" x="42.505" y="118.803"/><path fill="none" stroke="#000" stroke-dasharray="2.9807003824000002 2.9807003824000002" stroke-miterlimit="10" stroke-width=".39791472000000006" d="M76.41 44.984v63.692"/><use xlink:href="#w" x="73.926" y="118.803"/><path fill="none" stroke="#000" stroke-dasharray="2.9807003824000002 2.9807003824000002" stroke-miterlimit="10" stroke-width=".39791472000000006" d="M107.832 44.984v63.692"/><use xlink:href="#x" x="105.348" y="118.803"/><path fill="none" stroke="#000" stroke-dasharray="2.9807003824000002 2.9807003824000002" stroke-miterlimit="10" stroke-width=".39791472000000006" d="M139.254 44.984v63.692"/><use xlink:href="#y" x="136.769" y="118.912"/></svg>