<svg xmlns="http://www.w3.org/2000/svg" xmlns:xlink="http://www.w3.org/1999/xlink" width="228.085" height="110.086"><defs><path id="c" d="m4.719-3.11-.203-1.593H.39v.25h.156c.547 0 .547.078.547.312v3.579c0 .234 0 .312-.547.312H.39V0l1.047-.031L2.656 0v-.25h-.25c-.64 0-.64-.094-.64-.312v-1.672h.656c.703 0 .797.218.797.812h.234v-1.86H3.22c0 .595-.094.798-.797.798h-.656v-1.703c0-.204 0-.266.328-.266h.969c1.109 0 1.296.375 1.421 1.344Zm0 0"/><path id="d" d="M6.672 0v-.25h-.156c-.532 0-.547-.062-.547-.312v-3.61c0-.234.015-.312.547-.312h.156v-.25H5.469c-.125 0-.188 0-.25.14L3.562-.672 1.907-4.578c-.062-.156-.125-.156-.265-.156H.42v.25h.173c.531 0 .547.078.547.312V-.75c0 .188 0 .5-.72.5V0c.298-.016.563-.031.86-.031.282 0 .547.015.844.031v-.25c-.719 0-.719-.312-.719-.5v-3.656L3.22-.156C3.25-.078 3.28 0 3.39 0c.046 0 .109-.016.156-.14L5.375-4.47h.016v3.907c0 .234-.016.312-.547.312h-.172V0l1-.031Zm0 0"/><path id="f" d="M7.266-2.39v-.313l-1.22.031c-.39 0-1.234 0-1.577-.031v.312h.312c.89 0 .922.11.922.47v.64c0 1.11-1.266 1.187-1.531 1.187-.64 0-2.61-.343-2.61-3.281 0-2.953 1.954-3.281 2.547-3.281 1.063 0 1.954.89 2.157 2.343.015.141.015.172.156.172.156 0 .156-.03.156-.25v-2.328c0-.172 0-.25-.11-.25-.046 0-.077 0-.155.125l-.5.735c-.313-.313-.844-.86-1.829-.86-1.828 0-3.437 1.563-3.437 3.594C.547-1.359 2.14.219 4.016.219c.718 0 1.5-.266 1.843-.844.125.219.516.61.625.61.094 0 .094-.079.094-.22v-1.718c0-.39.031-.438.688-.438m0 0"/><path id="g" d="M7.078-6.437v-.313l-1.156.031-1.156-.031v.313c1.015 0 1.015.468 1.015.734v4.219L2.297-6.61c-.094-.125-.11-.141-.297-.141H.328v.313H.61c.157 0 .344.015.5.015.22.031.235.047.235.234v5.157c0 .265 0 .718-1.016.718V0l1.156-.031L2.641 0v-.312c-1.016 0-1.016-.454-1.016-.72v-5.14c.047.047.047.063.094.125L5.75-.125c.094.11.094.125.172.125.125 0 .125-.062.125-.25v-5.453c0-.266 0-.734 1.031-.734m0 0"/><path id="h" d="M6.031-4.5 5.75-6.719H.328v.313h.235c.765 0 .78.11.78.468v5.172c0 .344-.015.454-.78.454H.328V0c.344-.031 1.11-.031 1.5-.031.406 0 1.297 0 1.656.031v-.312h-.328c-.937 0-.937-.125-.937-.47v-2.421h.86c.937 0 1.046.312 1.046 1.156h.234v-2.625h-.234c0 .828-.11 1.156-1.047 1.156h-.86v-2.5c0-.328.016-.39.485-.39h1.188c1.484 0 1.734.547 1.89 1.906Zm0 0"/><path id="i" d="M7.078 0v-.312h-.25c-.75 0-.781-.11-.781-.454v-5.203c0-.36.031-.468.781-.468h.25v-.313c-.36.031-1.078.031-1.453.031s-1.125 0-1.469-.031v.313h.235c.765 0 .78.109.78.468v2.313H2.22V-5.97c0-.36.015-.468.781-.468h.234v-.313c-.343.031-1.078.031-1.453.031s-1.11 0-1.453-.031v.313h.235c.765 0 .78.109.78.468v5.203c0 .344-.015.454-.78.454H.328V0c.344-.031 1.078-.031 1.453-.031s1.11 0 1.453.031v-.312H3c-.766 0-.781-.11-.781-.454v-2.593h2.953v2.593c0 .344-.016.454-.781.454h-.235V0C4.5-.031 5.234-.031 5.61-.031s1.11 0 1.47.031m0 0"/><path id="j" d="M7.203-6.437v-.313c-.297.031-.703.031-.953.031L5.125-6.75v.313c.516.015.719.265.719.5 0 .078-.032.125-.047.187L3.984-.984 2.11-5.97c-.062-.14-.062-.187-.062-.187 0-.282.562-.282.812-.282v-.312c-.359.031-1.046.031-1.421.031L.188-6.75v.313c.64 0 .828 0 .968.375L3.453 0c.063.188.11.219.235.219.171 0 .187-.047.25-.188L6.124-5.78c.14-.36.406-.64 1.078-.657m0 0"/><path id="k" d="M7.125-3.344c0-2.015-1.5-3.625-3.297-3.625-1.765 0-3.281 1.594-3.281 3.625C.547-1.328 2.078.22 3.828.22c1.797 0 3.297-1.578 3.297-3.563m-1.016-.14C6.11-.875 4.75-.047 3.844-.047c-.953 0-2.281-.86-2.281-3.437 0-2.563 1.453-3.235 2.265-3.235.86 0 2.281.703 2.281 3.235m0 0"/><path id="l" d="M8.688 0v-.312h-.25c-.75 0-.782-.11-.782-.454v-5.203c0-.36.032-.468.782-.468h.25v-.313H7.016c-.266 0-.266.016-.328.188L4.515-1 2.375-6.531c-.078-.219-.11-.219-.344-.219H.36v.313h.25c.75 0 .766.109.766.468v4.938c0 .265 0 .718-1.016.718V0l1.157-.031L2.672 0v-.312c-1.016 0-1.016-.454-1.016-.72v-5.327h.016L4.047-.22c.047.125.094.219.203.219.11 0 .14-.078.172-.187l2.437-6.25v5.671c0 .344-.015.454-.78.454h-.235V0c.375-.031 1.047-.031 1.422-.031.39 0 1.047 0 1.422.031m0 0"/><path id="m" d="M4.656-2.11c0-1.265-1-2.312-2.187-2.312C1.234-4.422.28-3.344.28-2.109.281-.844 1.297.109 2.453.109a2.204 2.204 0 0 0 2.203-2.218m-.828-.078c0 .344 0 .891-.219 1.313-.218.453-.64.734-1.14.734-.422 0-.86-.203-1.125-.656-.25-.437-.25-1.047-.25-1.39 0-.391 0-.922.234-1.36a1.324 1.324 0 0 1 1.125-.656c.438 0 .86.219 1.125.64.25.422.25 1 .25 1.376m0 0"/><path id="n" d="M5.203 0v-.312c-.687 0-.766-.063-.766-.547v-6l-1.421.109v.313c.687 0 .765.062.765.546v2.141a1.547 1.547 0 0 0-1.25-.61c-1.156 0-2.203.97-2.203 2.235 0 1.25.969 2.234 2.094 2.234.64 0 1.078-.343 1.328-.656V.11ZM3.75-1.172c0 .188 0 .203-.11.375-.296.469-.734.688-1.156.688-.453 0-.812-.25-1.046-.625-.25-.407-.282-.97-.282-1.375 0-.375.016-.97.313-1.407.203-.312.578-.625 1.11-.625.343 0 .765.141 1.062.579.109.171.109.187.109.374Zm0 0"/><path id="o" d="M5.281 0v-.312c-.687 0-.765-.063-.765-.547v-3.5l-1.453.109v.297c.687 0 .765.078.765.562v1.75c0 .86-.469 1.532-1.187 1.532-.828 0-.875-.47-.875-.985v-3.265L.313-4.25v.297c.78 0 .78.031.78.906v1.485c0 .765 0 1.671 1.5 1.671.548 0 .985-.28 1.266-.89v.89Zm0 0"/><path id="p" d="M2.516 0v-.312c-.657 0-.766 0-.766-.438v-6.11l-1.422.11v.313c.688 0 .766.062.766.546V-.75c0 .438-.11.438-.766.438V0l1.094-.031Zm0 0"/><path id="q" d="M4.766-.875v-.562h-.25v.562c0 .563-.235.625-.344.625-.328 0-.375-.437-.375-.484V-2.72c0-.406 0-.797-.344-1.156-.39-.39-.89-.547-1.36-.547-.812 0-1.484.469-1.484 1.11 0 .296.188.468.454.468a.444.444 0 0 0 .453-.453c0-.125-.047-.453-.516-.453.281-.344.75-.453 1.078-.453.485 0 1.047.375 1.047 1.266v.359c-.516.031-1.203.062-1.828.36-.734.327-.984.843-.984 1.28C.313-.14 1.28.11 1.89.11 2.547.11 3-.28 3.188-.75c.046.39.312.813.765.813.219 0 .813-.141.813-.938m-1.641-.5c0 .938-.719 1.266-1.156 1.266-.485 0-.89-.344-.89-.844 0-.531.405-1.36 2.046-1.422Zm0 0"/><path id="r" d="M3.281-1.219v-.562h-.25v.531c0 .734-.297 1.11-.656 1.11-.672 0-.672-.891-.672-1.063v-2.75h1.422v-.297H1.703v-1.828H1.47c-.016.812-.313 1.875-1.281 1.906v.219h.843v2.734C1.031-.016 1.953.11 2.297.11c.703 0 .984-.703.984-1.328m0 0"/><path id="s" d="M3.594-3.766c0-.312-.313-.593-.735-.593-.718 0-1.078.656-1.203 1.078V-4.36L.281-4.25v.297c.688 0 .766.078.766.562V-.75c0 .438-.11.438-.766.438V0l1.125-.031c.39 0 .86 0 1.25.031v-.312h-.203c-.734 0-.75-.11-.75-.454v-1.53c0-.97.406-1.845 1.156-1.845h.11a.43.43 0 0 0-.219.391c0 .281.203.422.422.422a.421.421 0 0 0 .422-.438m0 0"/><path id="t" d="M4.14 0v-.312h-.312c-.89 0-.922-.11-.922-.47v-5.53c0-.25 0-.266-.234-.266-.61.64-1.485.64-1.797.64v.297c.203 0 .781 0 1.297-.25v5.11c0 .36-.031.469-.922.469H.938V0C1.28-.031 2.14-.031 2.53-.031c.406 0 1.266 0 1.61.031m0 0"/><path id="u" d="M4.438-1.719h-.25c-.047.297-.125.735-.22.875-.062.078-.718.078-.937.078H1.25L2.297-1.78c1.547-1.36 2.14-1.89 2.14-2.875 0-1.125-.89-1.922-2.093-1.922A1.813 1.813 0 0 0 .5-4.797c0 .563.484.563.516.563a.516.516 0 0 0 .515-.532c0-.25-.172-.5-.531-.5H.875c.234-.64.766-1 1.344-1 .89 0 1.312.797 1.312 1.61 0 .781-.484 1.562-1.031 2.172L.61-.36C.5-.25.5-.234.5 0h3.656Zm0 0"/><path id="v" d="M4.516-1.687c0-.813-.625-1.579-1.657-1.782.813-.281 1.391-.969 1.391-1.75 0-.812-.875-1.36-1.828-1.36-.985 0-1.735.595-1.735 1.345 0 .328.22.515.5.515.297 0 .5-.218.5-.5 0-.5-.468-.5-.609-.5.297-.484.953-.61 1.313-.61.406 0 .953.22.953 1.11 0 .11-.031.688-.281 1.125-.297.469-.641.5-.876.516-.078 0-.328.015-.39.015-.078.016-.14.032-.14.126 0 .109.062.109.234.109h.437c.797 0 1.172.672 1.172 1.64 0 1.344-.687 1.626-1.125 1.626-.422 0-1.156-.172-1.5-.75.344.046.64-.172.64-.547a.533.533 0 0 0-.546-.547c-.235 0-.547.14-.547.578 0 .89.906 1.547 1.984 1.547 1.203 0 2.11-.906 2.11-1.906m0 0"/><path id="w" d="M4.656-1.625v-.312h-1v-4.485c0-.203 0-.266-.156-.266-.078 0-.11 0-.187.125L.28-1.936v.312h2.625v.86c0 .343-.015.453-.75.453h-.203V0c.39-.031.906-.031 1.328-.031.406 0 .938 0 1.344.031v-.312h-.203c-.734 0-.766-.11-.766-.454v-.859ZM2.97-1.937H.547l2.422-3.688Zm0 0"/><clipPath id="a"><path d="M.484 21H26v37H.484Zm0 0"/></clipPath><clipPath id="b"><path d="M.484 32H2v15H.484Zm0 0"/></clipPath><clipPath id="e"><path d="M198 0h28.691v25H198Zm0 0"/></clipPath></defs><g clip-path="url(#a)"><path fill="none" stroke="#000" stroke-miterlimit="10" stroke-width=".7904406900000001" d="M7.414 33.062a6.534 6.534 0 1 0 0 13.066 6.534 6.534 0 1 0 0-13.066Zm0 0"/></g><g clip-path="url(#b)"><path fill="none" stroke="#000" stroke-miterlimit="10" stroke-width=".7904406900000001" d="M.879 46.129V33.062"/></g><path fill="none" stroke="#000" stroke-miterlimit="10" stroke-width=".39571623000000006" d="M13.95 39.598h4.663m0 0h4.668"/><path d="M19.098 39.598v1.965l4.183-1.965-4.183-1.97Zm0 0"/><path fill="none" stroke="#000" stroke-miterlimit="10" stroke-width=".7904406900000001" d="M23.281 30.45h18.293v18.292H23.281Zm0 0"/><path fill="none" stroke="#000" stroke-miterlimit="10" stroke-width=".39571623000000006" d="m26.023 32.555 12.809 7.043-12.809 7.043ZM41.574 39.598h4.668m0 0h4.668"/><path d="M46.727 39.598v1.965l4.183-1.965-4.183-1.97Zm0 0"/><path fill="none" stroke="#000" stroke-miterlimit="10" stroke-width=".7904406900000001" d="M50.91 30.45h18.293v18.292H50.91Zm0 0"/><path fill="none" stroke="#000" stroke-miterlimit="10" stroke-width=".39571623000000006" d="M55.48 35.023c.747-1.171 1.461-2.289 2.29-2.289.828 0 1.539 1.118 2.285 2.29.746 1.171 1.46 2.285 2.289 2.285.828 0 1.539-1.114 2.285-2.286m-3.203-1.37-2.742 2.742M55.48 39.598c.747-1.172 1.461-2.29 2.29-2.29.828 0 1.539 1.118 2.285 2.29.746 1.168 1.46 2.285 2.289 2.285.828 0 1.539-1.117 2.285-2.285M55.48 44.168c.747-1.168 1.461-2.285 2.29-2.285.828 0 1.539 1.117 2.285 2.285.746 1.172 1.46 2.289 2.289 2.289.828 0 1.539-1.117 2.285-2.289m-3.203-1.371-2.742 2.746M69.203 39.598h4.668m0 0h4.664"/><path d="M74.355 39.598v1.965l4.18-1.965-4.18-1.97Zm0 0"/><path fill="none" stroke="#000" stroke-miterlimit="10" stroke-width=".7904406900000001" d="M78.535 30.45h18.293v18.292H78.535Zm0 0"/><path fill="none" stroke="#000" stroke-miterlimit="10" stroke-width=".39571623000000006" d="M83.11 35.023c.745-1.171 1.46-2.289 2.285-2.289.828 0 1.543 1.118 2.289 2.29.746 1.171 1.457 2.285 2.285 2.285.828 0 1.543-1.114 2.289-2.286"/><use xlink:href="#c" x="81.578" y="45.16"/><use xlink:href="#d" x="86.675" y="45.16"/><path fill="none" stroke="#000" stroke-miterlimit="10" stroke-width=".39571623000000006" d="M96.828 39.598h4.668m0 0h4.668"/><path d="M101.98 39.598v1.965l4.184-1.965-4.184-1.97Zm0 0"/><path fill="none" stroke="#000" stroke-miterlimit="10" stroke-width=".7904406900000001" d="M106.164 30.45h18.293v18.292h-18.293Zm0 0"/><path fill="none" stroke="#000" stroke-miterlimit="10" stroke-width=".39571623000000006" d="M121.715 39.598a6.4 6.4 0 0 0-6.402-6.403 6.402 6.402 0 1 0 0 12.805 6.403 6.403 0 0 0 6.402-6.402ZM110.781 35.07l9.059 9.055m0-9.055-9.059 9.055M124.457 39.598h4.668m0 0h4.668"/><path d="M129.61 39.598v1.965l4.183-1.965-4.184-1.97Zm0 0"/><path fill="none" stroke="#000" stroke-miterlimit="10" stroke-width=".7904406900000001" d="M133.793 30.45h18.293v18.292h-18.293Zm0 0"/><path fill="none" stroke="#000" stroke-miterlimit="10" stroke-width=".39571623000000006" d="M138.363 35.023c.746-1.171 1.461-2.289 2.29-2.289.827 0 1.538 1.118 2.285 2.29.746 1.171 1.46 2.285 2.289 2.285.824 0 1.539-1.114 2.285-2.286m-3.203-1.37-2.743 2.742M138.363 39.598c.746-1.172 1.461-2.29 2.29-2.29.827 0 1.538 1.118 2.285 2.29.746 1.168 1.46 2.285 2.289 2.285.824 0 1.539-1.117 2.285-2.285M138.363 44.168c.746-1.168 1.461-2.285 2.29-2.285.827 0 1.538 1.117 2.285 2.285.746 1.172 1.46 2.289 2.289 2.289.824 0 1.539-1.117 2.285-2.289m-3.203-1.371-2.743 2.746M152.086 39.598h4.664m0 0h4.668"/><path d="M157.238 39.598v1.965l4.18-1.965-4.18-1.97Zm0 0"/><path fill="none" stroke="#000" stroke-miterlimit="10" stroke-width=".7904406900000001" d="M161.418 30.45h18.293v18.292h-18.293Zm0 0"/><path fill="none" stroke="#000" stroke-miterlimit="10" stroke-width=".39571623000000006" d="m164.164 32.555 12.805 7.043-12.805 7.043ZM179.711 39.598h4.668m0 0h4.668"/><path d="M184.863 39.598v1.965l4.184-1.965-4.184-1.97Zm0 0"/><path fill="none" stroke="#000" stroke-miterlimit="10" stroke-width=".7904406900000001" d="M189.047 30.45h18.293v18.292h-18.293Zm0 0"/><path fill="none" stroke="#000" stroke-miterlimit="10" stroke-width=".39571623000000006" d="M193.621 35.023c.742-1.171 1.457-2.289 2.285-2.289.828 0 1.543 1.118 2.285 2.29.747 1.171 1.461 2.285 2.29 2.285.828 0 1.539-1.114 2.285-2.286m-3.2-1.37-2.746 2.742M193.621 39.598c.742-1.172 1.457-2.29 2.285-2.29.828 0 1.543 1.118 2.285 2.29.747 1.168 1.461 2.285 2.29 2.285.828 0 1.539-1.117 2.285-2.285M193.621 44.168c.742-1.168 1.457-2.285 2.285-2.285.828 0 1.543 1.117 2.285 2.285.747 1.172 1.461 2.289 2.29 2.289.828 0 1.539-1.117 2.285-2.289m-3.2-1.371-2.746 2.746M207.34 39.598h4.668m0 0h4.664M216.477 39.598V.395"/><g clip-path="url(#e)"><path fill="none" stroke="#000" stroke-miterlimit="10" stroke-width=".7904406900000001" d="M216.477.395h6.53l-6.53 13.066L209.94.395h6.536"/></g><path fill="none" stroke="#000" stroke-miterlimit="10" stroke-width=".39571623000000006" d="M115.313 48.742v4.668m0 0v4.668"/><path d="M115.313 52.926h1.964l-1.965-4.184-1.968 4.184Zm0 0"/><path fill="none" stroke="#000" stroke-miterlimit="10" stroke-width=".7904406900000001" d="M106.164 58.078h18.293v18.293h-18.293Zm0 0"/><path fill="none" stroke="#000" stroke-miterlimit="10" stroke-width=".39571623000000006" d="M116.453 63.11c.375-.587.73-1.145 1.145-1.145.414 0 .77.558 1.144 1.144.371.582.727 1.141 1.14 1.141.415 0 .774-.559 1.145-1.14M116.453 65.395c.375-.586.73-1.145 1.145-1.145.414 0 .77.559 1.144 1.145.371.585.727 1.144 1.14 1.144.415 0 .774-.559 1.145-1.144M116.453 67.68c.375-.582.73-1.14 1.145-1.14.414 0 .77.558 1.144 1.14.371.586.727 1.144 1.14 1.144.415 0 .774-.558 1.145-1.144"/><use xlink:href="#f" x="107.315" y="68.311"/><path fill="none" stroke="#000" stroke-miterlimit="10" stroke-width=".39571623000000006" d="M108.906 70.426h12.809M108.906 73.625h12.809v-1.828h-12.809ZM108.906 75h12.809"/><use xlink:href="#g" x="25.497" y="58.982"/><use xlink:href="#h" x="32.907" y="58.982"/><use xlink:href="#i" x="163.632" y="58.982"/><use xlink:href="#h" x="171.042" y="58.982"/><use xlink:href="#g" x="53.123" y="58.982"/><use xlink:href="#h" x="60.534" y="58.982"/><use xlink:href="#i" x="136.005" y="58.982"/><use xlink:href="#h" x="143.416" y="58.982"/><use xlink:href="#i" x="191.259" y="58.982"/><use xlink:href="#h" x="198.67" y="58.982"/><use xlink:href="#j" x="104.672" y="86.827"/><use xlink:href="#h" x="112.083" y="86.827"/><use xlink:href="#k" x="118.258" y="86.827"/><use xlink:href="#l" x="64.878" y="26.85"/><use xlink:href="#m" x="73.938" y="26.85"/><use xlink:href="#n" x="79.155" y="26.85"/><use xlink:href="#o" x="84.649" y="26.85"/><use xlink:href="#p" x="90.142" y="26.85"/><use xlink:href="#q" x="92.889" y="26.85"/><use xlink:href="#r" x="97.83" y="26.85"/><use xlink:href="#m" x="101.673" y="26.85"/><use xlink:href="#s" x="106.613" y="26.85"/><path fill="none" stroke="#000" stroke-dasharray="2.9642319291000003 2.9642319291000003" stroke-miterlimit="10" stroke-width=".39571623000000006" d="M46.242 39.598v56"/><use xlink:href="#t" x="43.771" y="105.669"/><path fill="none" stroke="#000" stroke-dasharray="2.9642319291000003 2.9642319291000003" stroke-miterlimit="10" stroke-width=".39571623000000006" d="M73.871 39.598v56"/><use xlink:href="#u" x="71.399" y="105.669"/><path fill="none" stroke="#000" stroke-dasharray="2.9642319291000003 2.9642319291000003" stroke-miterlimit="10" stroke-width=".39571623000000006" d="M101.496 39.598v56"/><use xlink:href="#v" x="99.025" y="105.669"/><path fill="none" stroke="#000" stroke-dasharray="2.9642319291000003 2.9642319291000003" stroke-miterlimit="10" stroke-width=".39571623000000006" d="M129.125 39.598v56"/><use xlink:href="#w" x="126.653" y="105.778"/></svg>