<svg xmlns="http://www.w3.org/2000/svg" xmlns:xlink="http://www.w3.org/1999/xlink" width="226.264" height="159.908"><defs><path id="a" d="M3.547-6.312c0-.36-.36-.688-.89-.688-.704 0-1.548.516-1.548 1.578v1.14H.33v.313h.78V-.75c0 .438-.109.438-.765.438V0l1.125-.031c.406 0 .86 0 1.265.031v-.312h-.203c-.75 0-.765-.11-.765-.47v-3.187h1.14v-.312H1.734v-1.157c0-.875.485-1.343.922-1.343.031 0 .172 0 .328.062a.44.44 0 0 0-.296.422.41.41 0 0 0 .421.422c.297 0 .438-.203.438-.437m0 0"/><path id="b" d="M4.469-1.734h-.25c-.063.297-.125.734-.219.89-.078.078-.734.078-.953.078H1.266L2.313-1.78c1.546-1.375 2.156-1.922 2.156-2.907 0-1.14-.907-1.937-2.11-1.937C1.234-6.625.5-5.703.5-4.812c0 .546.5.546.531.546.157 0 .516-.109.516-.53a.513.513 0 0 0-.531-.516c-.079 0-.094 0-.125.015.218-.64.765-1.016 1.328-1.016.906 0 1.344.813 1.344 1.625 0 .797-.5 1.579-1.047 2.188L.609-.375C.5-.265.5-.235.5 0h3.688Zm0 0"/><path id="e" d="M4.547-1.703c0-.813-.625-1.594-1.672-1.797.828-.266 1.39-.969 1.39-1.75 0-.812-.859-1.375-1.827-1.375-1 0-1.75.61-1.75 1.36 0 .327.218.515.5.515.312 0 .515-.219.515-.5 0-.5-.469-.5-.625-.5.313-.484.969-.625 1.328-.625.406 0 .953.219.953 1.125 0 .11-.015.688-.28 1.125-.298.484-.642.5-.876.516a3.9 3.9 0 0 1-.39.03c-.079.017-.157.017-.157.126 0 .11.078.11.235.11h.437c.828 0 1.188.671 1.188 1.64 0 1.36-.688 1.64-1.125 1.64-.422 0-1.172-.171-1.516-.75.344.047.656-.171.656-.546 0-.36-.265-.563-.562-.563-.235 0-.547.14-.547.578 0 .907.922 1.563 2 1.563 1.219 0 2.125-.906 2.125-1.922m0 0"/><path id="f" d="M7.25-6.484v-.297c-.297.015-.703.031-.953.031l-1.14-.031v.297c.515.015.734.265.734.5 0 .078-.032.14-.063.203L4.016-1 2.109-6.016c-.046-.14-.046-.171-.046-.171 0-.297.562-.297.812-.297v-.297c-.36.031-1.047.031-1.422.031L.188-6.781v.297c.64 0 .843 0 .968.375L3.47 0c.062.188.125.219.25.219.172 0 .187-.047.234-.188l2.219-5.843c.14-.375.406-.657 1.078-.672m0 0"/><path id="g" d="M6.063-4.516 5.78-6.75H.328v.297h.235c.765 0 .78.11.78.469v5.203c0 .36-.015.469-.78.469H.328V0c.344-.031 1.125-.031 1.516-.031.406 0 1.312 0 1.672.031v-.312h-.328c-.954 0-.954-.125-.954-.47v-2.452h.86c.953 0 1.047.328 1.047 1.172h.25v-2.641h-.25c0 .844-.094 1.172-1.047 1.172h-.86v-2.516c0-.328.016-.406.485-.406h1.203c1.484 0 1.734.562 1.89 1.937Zm0 0"/><path id="h" d="M7.172-3.375C7.172-5.391 5.672-7 3.859-7 2.08-7 .563-5.422.563-3.375c0 2.047 1.53 3.594 3.296 3.594 1.813 0 3.313-1.578 3.313-3.594m-1.031-.14c0 2.64-1.36 3.468-2.282 3.468-.953 0-2.28-.875-2.28-3.469 0-2.562 1.452-3.234 2.28-3.234.86 0 2.282.703 2.282 3.234m0 0"/><path id="i" d="M4.797-.89v-.547h-.25v.546c0 .579-.25.641-.36.641-.328 0-.359-.453-.359-.5v-1.984c0-.422 0-.797-.36-1.172-.39-.39-.89-.547-1.359-.547-.812 0-1.5.469-1.5 1.125 0 .297.204.469.454.469a.435.435 0 0 0 .453-.453c0-.126-.047-.454-.5-.47.265-.343.75-.452 1.078-.452.484 0 1.047.39 1.047 1.265v.375c-.5.031-1.203.063-1.828.36-.75.343-1 .859-1 1.297 0 .796.968 1.046 1.593 1.046.657 0 1.11-.39 1.297-.859.047.39.313.813.781.813.204 0 .813-.141.813-.954m-1.656-.5c0 .937-.72 1.28-1.157 1.28-.5 0-.906-.343-.906-.843 0-.547.422-1.375 2.063-1.438Zm0 0"/><clipPath id="c"><path d="M114 .215h29V29h-29Zm0 0"/></clipPath><clipPath id="d"><path d="M109 .215h39V34h-39Zm0 0"/></clipPath><clipPath id="j"><path d="M203 149h15v10.602h-15Zm0 0"/></clipPath></defs><path fill="none" stroke="#000" stroke-miterlimit="10" stroke-width=".79441772" d="M.398 57.348h27.688v27.687H.398Zm0 0"/><path fill="none" stroke="#000" stroke-miterlimit="10" stroke-width=".39770724" d="M7.32 64.27c1.13-1.774 2.207-3.461 3.461-3.461s2.332 1.687 3.461 3.46c1.13 1.77 2.207 3.461 3.461 3.461s2.332-1.69 3.461-3.46M7.32 71.191c1.13-1.773 2.207-3.46 3.461-3.46s2.332 1.687 3.461 3.46c1.13 1.77 2.207 3.461 3.461 3.461s2.332-1.691 3.461-3.46M7.32 78.113c1.13-1.773 2.207-3.46 3.461-3.46s2.332 1.687 3.461 3.46c1.13 1.774 2.207 3.461 3.461 3.461s2.332-1.687 3.461-3.46M28.086 71.191H42.27m0 0h14.183"/><path d="M52.25 71.191v1.977l4.203-1.977-4.203-1.98Zm0 0"/><path fill="none" stroke="#000" stroke-miterlimit="10" stroke-width=".79441772" d="M56.453 57.348h27.692v27.687H56.453Zm0 0"/><path fill="none" stroke="#000" stroke-miterlimit="10" stroke-width=".39770724" d="m56.453 85.035 27.692-27.687"/><use xlink:href="#a" x="62.55" y="68.461"/><use xlink:href="#b" x="71.699" y="80.921"/><use xlink:href="#a" x="78.312" y="80.921"/><path fill="none" stroke="#000" stroke-miterlimit="10" stroke-width=".39770724" d="M84.145 71.191h14.183m0 0h14.184"/><path d="M108.309 71.191v1.977l4.203-1.977-4.203-1.98Zm0 0"/><path fill="none" stroke="#000" stroke-miterlimit="10" stroke-width=".79441772" d="M112.512 57.348h27.687v27.687h-27.687Zm0 0"/><path fill="none" stroke="#000" stroke-miterlimit="10" stroke-width=".39770724" d="m112.512 85.035 27.687-27.687"/><use xlink:href="#a" x="118.606" y="68.461"/><use xlink:href="#b" x="127.755" y="80.921"/><use xlink:href="#a" x="134.369" y="80.921"/><path fill="none" stroke="#000" stroke-miterlimit="10" stroke-width=".39770724" d="M140.2 71.191h14.187m0 0h14.183"/><path d="M164.367 71.191v1.977l4.203-1.977-4.203-1.98Zm0 0"/><path fill="none" stroke="#000" stroke-miterlimit="10" stroke-width=".79441772" d="M168.57 57.348h27.688v27.687H168.57Zm0 0"/><path fill="none" stroke="#000" stroke-miterlimit="10" stroke-width=".39770724" d="m168.57 85.035 27.688-27.687"/><use xlink:href="#a" x="174.663" y="68.461"/><use xlink:href="#b" x="183.812" y="80.921"/><use xlink:href="#a" x="190.426" y="80.921"/><path fill="none" stroke="#000" stroke-miterlimit="10" stroke-width=".39770724" d="M196.258 71.191h7.094m0 0h7.09"/><path fill="#FFF" stroke="#000" stroke-miterlimit="10" stroke-width=".39770724" d="M212.023 71.191a1.583 1.583 0 1 0-3.162.002 1.583 1.583 0 0 0 3.162-.002Zm0 0"/><path fill="none" stroke="#000" stroke-miterlimit="10" stroke-width=".39770724" d="M98.328 71.191V42.824m0 0v-28.37"/><path stroke="#000" stroke-miterlimit="10" stroke-width=".39770724" d="M99.91 71.191a1.58 1.58 0 0 0-1.582-1.582 1.583 1.583 0 1 0 1.582 1.582Zm0 0"/><path fill="none" stroke="#000" stroke-miterlimit="10" stroke-width=".39770724" d="M158.64 71.191V42.824m0 0v-28.37 78.01h51.801M98.328 14.453h16.313m27.687 0h16.313"/><g clip-path="url(#c)"><path fill="none" stroke="#000" stroke-miterlimit="10" stroke-width=".79441772" d="M114.64.61h27.688V28.3h-27.687Zm0 0"/></g><path d="M110.438 14.453v1.98l4.203-1.98-4.204-1.976Zm0 0"/><g clip-path="url(#d)"><path fill="none" stroke="#000" stroke-miterlimit="10" stroke-width=".39770724" d="M114.64 28.3 142.329.61"/></g><use xlink:href="#a" x="120.733" y="11.726"/><use xlink:href="#e" x="129.884" y="24.077"/><use xlink:href="#a" x="136.497" y="24.077"/><path fill="none" stroke="#000" stroke-miterlimit="10" stroke-width=".39770724" d="M150.129 71.191v42.551h60.312"/><path stroke="#000" stroke-miterlimit="10" stroke-width=".39770724" d="M151.711 71.191a1.583 1.583 0 1 0-3.162.002 1.583 1.583 0 0 0 3.162-.002Zm0 0"/><path fill="none" stroke="#000" stroke-miterlimit="10" stroke-width=".39770724" d="M98.328 71.191v63.829h112.113"/><path fill="none" stroke="#000" stroke-miterlimit="10" stroke-width=".39770724" d="M42.27 71.191v85.102H210.44"/><path stroke="#000" stroke-miterlimit="10" stroke-width=".39770724" d="M43.852 71.191a1.583 1.583 0 1 0-3.162.002 1.583 1.583 0 0 0 3.162-.002Zm0 0"/><use xlink:href="#f" x="3.551" y="95.544"/><use xlink:href="#g" x="10.999" y="95.544"/><use xlink:href="#h" x="17.206" y="95.544"/><path fill="#FFF" stroke="#000" stroke-miterlimit="10" stroke-width=".39770724" d="M212.023 92.465a1.583 1.583 0 1 0-3.165.002 1.583 1.583 0 0 0 3.165-.002Zm0 0"/><use xlink:href="#i" x="213.949" y="94.636"/><path fill="#FFF" stroke="#000" stroke-miterlimit="10" stroke-width=".39770724" d="M212.023 113.742a1.583 1.583 0 1 0-3.162.002 1.583 1.583 0 0 0 3.162-.002ZM212.023 135.02a1.583 1.583 0 1 0-3.162.002 1.583 1.583 0 0 0 3.162-.002Zm0 0"/><path fill="#FFF" d="M212.023 156.293a1.583 1.583 0 1 0-3.165.002 1.583 1.583 0 0 0 3.165-.002m0 0"/><g clip-path="url(#j)"><path fill="none" stroke="#000" stroke-miterlimit="10" stroke-width=".39770724" d="M212.023 156.293a1.583 1.583 0 1 0-3.165.002 1.583 1.583 0 0 0 3.165-.002Zm0 0"/></g></svg>