<svg xmlns="http://www.w3.org/2000/svg" xmlns:xlink="http://www.w3.org/1999/xlink" width="226.771" height="43.54"><defs><clipPath id="a"><path d="M1.07 14H30v29.086H1.07Zm0 0"/></clipPath><clipPath id="c"><path d="M49 14h29v29.086H49Zm0 0"/></clipPath><clipPath id="d"><path d="M44 9h39v34.086H44Zm0 0"/></clipPath><clipPath id="g"><path d="M97 14h29v29.086H97Zm0 0"/></clipPath><clipPath id="h"><path d="M92 9h39v34.086H92Zm0 0"/></clipPath><clipPath id="j"><path d="M145 14h29v29.086h-29Zm0 0"/></clipPath><clipPath id="k"><path d="M140 9h40v34.086h-40Zm0 0"/></clipPath><clipPath id="l"><path d="M193 14h30v29.086h-30Zm0 0"/></clipPath><clipPath id="m"><path d="M192 12h32v31.086h-32Zm0 0"/></clipPath><path id="b" d="M7.25-2.39v-.297l-1.203.03c-.39 0-1.234 0-1.594-.03v.296h.313c.89 0 .922.11.922.485v.625c0 1.11-1.25 1.187-1.532 1.187-.64 0-2.593-.343-2.593-3.281 0-2.937 1.953-3.266 2.53-3.266 1.063 0 1.954.875 2.157 2.329.016.14.016.171.156.171.157 0 .157-.03.157-.234v-2.344c0-.156 0-.234-.11-.234-.031 0-.078 0-.156.125l-.484.719c-.329-.313-.86-.844-1.829-.844-1.828 0-3.437 1.562-3.437 3.578C.547-1.344 2.125.219 4 .219c.719 0 1.516-.266 1.844-.844.125.219.531.61.64.61.079 0 .079-.079.079-.22v-1.718c0-.39.046-.438.687-.438m0 0"/><path id="e" d="M3.516-6.266c0-.359-.36-.687-.891-.687-.687 0-1.516.531-1.516 1.562v1.141H.33v.313h.78V-.75c0 .438-.109.438-.78.438V0l1.124-.031c.406 0 .86 0 1.266.031v-.312H2.5c-.719 0-.75-.11-.75-.454v-3.171h1.125v-.313H1.719v-1.14c0-.876.484-1.344.906-1.344.031 0 .188 0 .328.062-.11.047-.297.172-.297.422 0 .219.156.422.438.422.281 0 .422-.203.422-.438m0 0"/><path id="f" d="M4.422-1.719h-.234c-.063.297-.125.735-.22.875-.077.078-.718.078-.937.078H1.25L2.297-1.78c1.531-1.36 2.125-1.89 2.125-2.875 0-1.125-.875-1.907-2.078-1.907A1.813 1.813 0 0 0 .5-4.78c0 .547.484.547.516.547.172 0 .515-.11.515-.516A.504.504 0 0 0 1-5.266c-.078 0-.094 0-.125.016.234-.64.766-1.016 1.328-1.016.906 0 1.328.797 1.328 1.61 0 .797-.5 1.562-1.031 2.187L.594-.359C.5-.25.5-.234.5 0h3.656Zm0 0"/><path id="i" d="M4.5-1.687c0-.813-.61-1.579-1.64-1.782.812-.265 1.374-.953 1.374-1.734 0-.813-.859-1.36-1.812-1.36-1 0-1.735.594-1.735 1.344 0 .313.204.5.5.5.297 0 .5-.203.5-.5 0-.484-.468-.484-.609-.484.297-.484.953-.61 1.313-.61.406 0 .937.204.937 1.094 0 .125-.015.688-.265 1.125-.297.469-.641.5-.891.516a3.306 3.306 0 0 1-.375.031c-.078 0-.156.016-.156.11 0 .109.078.109.25.109h.422c.812 0 1.171.672 1.171 1.64 0 1.344-.671 1.626-1.109 1.626-.422 0-1.156-.172-1.5-.75.344.046.64-.157.64-.532a.537.537 0 0 0-.546-.562c-.235 0-.547.14-.547.578 0 .89.906 1.547 1.984 1.547C3.61.219 4.5-.687 4.5-1.687m0 0"/><path id="n" d="M6.156-4.906c0-.953-.984-1.828-2.328-1.828H.344v.312h.234c.766 0 .781.11.781.453v5.203c0 .344-.015.454-.78.454H.343V0c.344-.031 1.078-.031 1.453-.031s1.11 0 1.453.031v-.312h-.234c-.766 0-.782-.11-.782-.454v-2.343h1.672c1.188 0 2.25-.813 2.25-1.797m-1.015 0c0 .468 0 1.531-1.578 1.531h-1.36v-2.656c0-.328.031-.39.485-.39h.874c1.579 0 1.579 1.03 1.579 1.515m0 0"/><path id="o" d="M7.063 0v-.312H6.89c-.594 0-.735-.063-.844-.391L3.922-6.86c-.047-.125-.063-.203-.219-.203s-.187.062-.25.203L1.422-.97c-.172.5-.578.657-1.11.657V0l1.016-.031L2.453 0v-.312c-.484 0-.734-.235-.734-.5 0-.032 0-.125.015-.141l.454-1.297h2.437l.516 1.516a.373.373 0 0 1 .03.14c0 .282-.546.282-.812.282V0c.36-.031 1.047-.031 1.422-.031ZM4.515-2.547h-2.22l1.11-3.219Zm0 0"/></defs><g clip-path="url(#a)"><path fill="none" stroke="#000" stroke-miterlimit="10" stroke-width=".7886713500000001" d="M1.465 15.203h27.492v27.488H1.465Zm0 0"/></g><path fill="none" stroke="#000" stroke-miterlimit="10" stroke-width=".39483045000000005" d="M16.93 22.762c.558-.88 1.093-1.719 1.718-1.719.622 0 1.157.84 1.715 1.719.563.879 1.098 1.718 1.719 1.718.625 0 1.16-.84 1.719-1.718M16.93 26.2c.558-.884 1.093-1.72 1.718-1.72.622 0 1.157.836 1.715 1.72.563.878 1.098 1.714 1.719 1.714.625 0 1.16-.836 1.719-1.715M16.93 29.633c.558-.88 1.093-1.719 1.718-1.719.622 0 1.157.84 1.715 1.719.563.879 1.098 1.719 1.719 1.719.625 0 1.16-.84 1.719-1.72"/><use xlink:href="#b" x="5.157" y="28.877"/><path fill="none" stroke="#000" stroke-miterlimit="10" stroke-width=".39483045000000005" d="M5.59 33.758h19.242M5.59 38.566h19.242V35.82H5.59ZM5.59 40.629h19.242M28.957 28.945h10.36m0 0h10.359"/><path d="M45.504 28.945v1.965l4.172-1.965-4.172-1.96Zm0 0"/><g clip-path="url(#c)"><path fill="none" stroke="#000" stroke-miterlimit="10" stroke-width=".7886713500000001" d="M49.676 15.203h27.492v27.488H49.676Zm0 0"/></g><g clip-path="url(#d)"><path fill="none" stroke="#000" stroke-miterlimit="10" stroke-width=".39483045000000005" d="m49.676 42.691 27.492-27.488"/></g><use xlink:href="#e" x="55.728" y="26.236"/><use xlink:href="#f" x="64.811" y="38.606"/><use xlink:href="#e" x="71.376" y="38.606"/><path fill="none" stroke="#000" stroke-miterlimit="10" stroke-width=".39483045000000005" d="M77.168 28.945h10.36m0 0h10.359"/><path d="M93.715 28.945v1.965l4.172-1.965-4.172-1.96Zm0 0"/><g clip-path="url(#g)"><path fill="none" stroke="#000" stroke-miterlimit="10" stroke-width=".7886713500000001" d="M97.887 15.203h27.488v27.488H97.887Zm0 0"/></g><g clip-path="url(#h)"><path fill="none" stroke="#000" stroke-miterlimit="10" stroke-width=".39483045000000005" d="m97.887 42.691 27.488-27.488"/></g><use xlink:href="#e" x="103.937" y="26.236"/><use xlink:href="#i" x="113.021" y="38.497"/><use xlink:href="#e" x="119.587" y="38.497"/><path fill="none" stroke="#000" stroke-miterlimit="10" stroke-width=".39483045000000005" d="M125.375 28.945h10.363m0 0h10.36"/><path d="M141.926 28.945v1.965l4.172-1.965-4.172-1.96Zm0 0"/><g clip-path="url(#j)"><path fill="none" stroke="#000" stroke-miterlimit="10" stroke-width=".7886713500000001" d="M146.098 15.203h27.488v27.488h-27.488Zm0 0"/></g><g clip-path="url(#k)"><path fill="none" stroke="#000" stroke-miterlimit="10" stroke-width=".39483045000000005" d="m146.098 42.691 27.488-27.488"/></g><use xlink:href="#e" x="152.147" y="26.236"/><use xlink:href="#f" x="161.231" y="38.606"/><use xlink:href="#e" x="167.797" y="38.606"/><path fill="none" stroke="#000" stroke-miterlimit="10" stroke-width=".39483045000000005" d="M173.586 28.945h10.363m0 0h10.36"/><path d="M190.137 28.945v1.965l4.172-1.965-4.172-1.96Zm0 0"/><g clip-path="url(#l)"><path fill="none" stroke="#000" stroke-miterlimit="10" stroke-width=".7886713500000001" d="M194.309 15.203h27.488v27.488h-27.488Zm0 0"/></g><g clip-path="url(#m)"><path fill="none" stroke="#000" stroke-miterlimit="10" stroke-width=".39483045000000005" d="m198.434 18.363 19.242 10.582-19.242 10.586Zm0 0"/></g><use xlink:href="#n" x="201.406" y="10.344"/><use xlink:href="#o" x="207.301" y="10.344"/></svg>