<svg xmlns="http://www.w3.org/2000/svg" xmlns:xlink="http://www.w3.org/1999/xlink" width="218.014" height="140.042"><defs><path id="b" d="M2.813-2.734H3.5c.14 0 .219 0 .219-.157 0-.093-.078-.093-.203-.093h-.657c.172-.875.22-1.203.282-1.391.03-.156.187-.297.343-.297.016 0 .204 0 .329.078a.41.41 0 0 0-.297.375c0 .157.109.266.265.266a.427.427 0 0 0 .406-.422c0-.328-.343-.5-.703-.5a.97.97 0 0 0-.828.516c-.14.265-.187.578-.344 1.375h-.546c-.125 0-.22 0-.22.156 0 .094.095.094.22.094h.5c0 .046-.438 2.53-.61 3.28-.031.141-.14.673-.484.673 0 0-.172 0-.297-.078A.413.413 0 0 0 1.172.75c0-.14-.11-.25-.266-.25A.416.416 0 0 0 .5.922c0 .312.328.484.672.484.453 0 .75-.453.828-.61.25-.452.422-1.312.422-1.39Zm0 0"/><path id="c" d="M2.234-1.875c.86-.656 1.079-.844 1.563-.86v-.25a5.055 5.055 0 0 1-.469.032c-.281 0-.562-.016-.844-.031v.25c.094.015.125.062.125.125 0 .109-.125.234-.203.297l-1.031.796v-3.28l-1.031.062v.25c.453 0 .515.046.515.39v3.547C.86-.25.797-.25.344-.25V0c.25-.016.5-.031.765-.031.25 0 .516.015.766.031v-.25c-.453 0-.516 0-.516-.297v-.656l.5-.39.75.937c.079.094.157.187.157.281 0 .11-.125.125-.188.125V0c.094 0 .578-.031.781-.031.204 0 .407.015.594.031v-.25c-.25 0-.406-.016-.61-.266Zm0 0"/><path id="d" d="M4.734-4.172c0-.234 0-.312.547-.312h.157v-.25a27.64 27.64 0 0 1-1.032.03c-.265 0-.703-.015-1.047-.03v.25h.157c.547 0 .547.078.547.312v1.594H1.765v-1.594c0-.234 0-.312.547-.312h.156v-.25a27.64 27.64 0 0 1-1.031.03c-.266 0-.704-.015-1.047-.03v.25h.156c.547 0 .547.078.547.312v3.61c0 .234 0 .312-.547.312H.39V0a27.64 27.64 0 0 1 1.03-.031c.266 0 .704.015 1.048.031v-.25h-.156c-.547 0-.547-.062-.547-.312v-1.766h2.297v1.765c0 .235 0 .313-.547.313h-.157V0a27.64 27.64 0 0 1 1.032-.031c.265 0 .703.015 1.047.031v-.25H5.28c-.547 0-.547-.062-.547-.312Zm0 0"/><path id="e" d="M3.047-2.734c.047-.063.062-.094.062-.141 0-.11-.078-.11-.187-.11H.453L.375-1.827h.234c.047-.719.204-.969 1-.969h.813L.328-.266c-.062.079-.062.11-.062.141C.266 0 .344 0 .469 0h2.547l.125-1.344h-.235C2.828-.53 2.687-.219 1.828-.219h-.86Zm0 0"/><path id="g" d="M3.11-4.781c-.047-.11-.063-.157-.188-.157-.14 0-.156.047-.203.157L1.125-.734C1.047-.547.938-.25.313-.25V0c.234-.016.484-.031.718-.031.266 0 .782.031.828.031v-.25c-.312 0-.5-.14-.5-.328 0-.063 0-.078.032-.14l.328-.86h1.969l.406 1.016a.294.294 0 0 1 .031.125c0 .187-.375.187-.562.187V0c.343-.016.796-.031 1.03-.031.329 0 .845.031.923.031v-.25h-.141c-.453 0-.516-.062-.578-.266Zm-.407.718.89 2.235H1.829Zm0 0"/><path id="f" d="M6.281-5.719c.094-.406.282-.703 1.063-.734.047 0 .172 0 .172-.188 0-.015 0-.109-.125-.109-.328 0-.672.031-1.016.031-.328 0-.703-.031-1.031-.031-.047 0-.172 0-.172.188 0 .109.094.109.172.109.578.016.672.219.672.437 0 .032-.016.188-.016.204l-.89 3.53C4.765-.952 3.624-.093 2.64-.093c-.671 0-1.203-.437-1.203-1.281 0-.016 0-.344.11-.766L2.5-6c.094-.344.11-.453.828-.453.266 0 .344 0 .344-.188 0-.109-.11-.109-.14-.109-.282 0-.985.031-1.266.031-.282 0-.985-.031-1.282-.031-.078 0-.187 0-.187.188 0 .109.094.109.281.109.016 0 .203 0 .375.031.172.016.266.016.266.156 0 .047-.11.47-.172.704l-.219.859C1.25-4.313.766-2.437.734-2.25c-.078.266-.078.422-.078.563C.656-.47 1.563.218 2.594.218c1.25 0 2.484-1.125 2.812-2.422Zm0 0"/><path id="h" d="M4.516-1.687c0-.813-.625-1.594-1.641-1.797.797-.266 1.375-.953 1.375-1.735 0-.812-.875-1.375-1.812-1.375-1 0-1.75.594-1.75 1.36 0 .312.218.5.5.5.312 0 .5-.203.5-.5 0-.5-.47-.5-.61-.5.313-.485.953-.61 1.313-.61.406 0 .953.219.953 1.11 0 .125-.016.687-.281 1.125-.297.484-.626.515-.876.515a3.29 3.29 0 0 1-.39.031c-.078.016-.14.016-.14.126 0 .109.062.109.234.109h.437c.813 0 1.172.672 1.172 1.64 0 1.344-.687 1.626-1.11 1.626-.437 0-1.171-.172-1.515-.75.344.046.64-.172.64-.547 0-.36-.265-.547-.546-.547-.235 0-.547.14-.547.578 0 .89.906 1.547 1.984 1.547 1.219 0 2.11-.906 2.11-1.906m0 0"/><path id="i" d="M2-.016c0-.625-.234-1.03-.625-1.03a.513.513 0 0 0-.531.515c0 .265.172.531.531.531.14 0 .281-.062.39-.156a2.451 2.451 0 0 1-.687 1.844c-.062.062-.062.078-.062.109 0 .078.046.11.093.11.11 0 .891-.782.891-1.923m0 0"/><path id="j" d="M4.547-3.172c0-.781-.047-1.578-.39-2.312-.454-.938-1.266-1.11-1.688-1.11-.594 0-1.313.266-1.719 1.188-.312.672-.36 1.453-.36 2.234 0 .75.032 1.64.438 2.39a1.83 1.83 0 0 0 1.64 1C3 .219 3.75.017 4.189-.936c.312-.672.359-1.454.359-2.235m-.813-.11c0 .735 0 1.407-.109 2.048C3.469-.297 2.906 0 2.469 0c-.39 0-.969-.25-1.156-1.203-.11-.594-.11-1.5-.11-2.078 0-.64 0-1.281.078-1.828.188-1.172.938-1.266 1.188-1.266.328 0 .969.188 1.156 1.156.11.563.11 1.313.11 1.938m0 0"/><clipPath id="a"><path d="M204 108h12.785v16H204Zm0 0"/></clipPath><clipPath id="k"><path d="M91 8h125.785v120H91Zm0 0"/></clipPath></defs><path fill="none" stroke="#000" stroke-miterlimit="10" stroke-width=".39629079000000006" d="M20.137 116.09h189.707"/><path d="m212.898 116.09-2.957-1.75v3.504Zm0 0"/><g clip-path="url(#a)"><path fill="none" stroke="#000" stroke-miterlimit="10" stroke-width=".39629079000000006" d="m212.898 116.09-2.957-1.75v3.504Zm0 0"/></g><use xlink:href="#b" x="199.532" y="124.396"/><path fill="none" stroke="#000" stroke-miterlimit="10" stroke-width=".44495808000000003" d="M195.09 126.41h13.52"/><use xlink:href="#c" x="195.091" y="132.523"/><use xlink:href="#d" x="199.248" y="132.523"/><use xlink:href="#e" x="205.089" y="132.523"/><path fill="none" stroke="#000" stroke-miterlimit="10" stroke-width=".39629079000000006" d="M20.137 116.09V3.644"/><path stroke="#000" stroke-miterlimit="10" stroke-width=".39629079000000006" d="m20.137.594-1.754 2.953h3.504Zm0 0"/><use xlink:href="#f" x="3.549" y="10.455"/><use xlink:href="#g" x="10.305" y="11.939"/><use xlink:href="#h" x="110.391" y="133.883"/><use xlink:href="#i" x="115.338" y="133.883"/><use xlink:href="#j" x="118.089" y="133.883"/><g clip-path="url(#k)"><path fill="none" stroke="#000" stroke-miterlimit="10" stroke-width=".79158837" d="m103.191 116.09 10.586-88.192c.555-4.632 4.786-8.386 9.454-8.386h88.128"/></g><path fill="none" stroke="#000" stroke-dasharray="2.9685358443000003 2.9685358443000003" stroke-miterlimit="10" stroke-width=".39629079000000006" d="M116.715 116.09V.195"/></svg>