<svg xmlns="http://www.w3.org/2000/svg" xmlns:xlink="http://www.w3.org/1999/xlink" width="228.409" height="146.021"><defs><path id="b" d="M7.234-.875c0-.062 0-.156-.125-.156C7-1.031 7-.953 7-.875 6.938-.172 6.594 0 6.344 0c-.485 0-.563-.5-.703-1.422l-.125-.797c-.188-.625-.672-.953-1.22-1.14.97-.235 1.735-.844 1.735-1.61 0-.953-1.125-1.781-2.578-1.781H.343v.297h.235c.766 0 .781.11.781.469v5.218c0 .344-.015.454-.78.454H.343V0c.36-.031 1.062-.031 1.453-.031.375 0 1.078 0 1.437.031v-.312H3c-.766 0-.781-.11-.781-.454V-3.28h1.14c.157 0 .563 0 .907.344.39.359.39.656.39 1.328 0 .64 0 1.03.39 1.406.407.36.954.422 1.25.422.782 0 .938-.813.938-1.094M5.016-4.969c0 .672-.235 1.485-1.703 1.485H2.218v-2.563c0-.234 0-.36.219-.375.093-.031.374-.031.578-.031.89 0 2 .047 2 1.484m0 0"/><path id="c" d="M7.188 0v-.312H7c-.516 0-.734-.047-.937-.344L3.969-3.812l1.36-2c.218-.313.562-.625 1.437-.641v-.297l-1.094.031c-.406 0-.875 0-1.266-.031v.297c.39.016.61.234.61.453 0 .11-.016.125-.094.234L3.797-4.094 2.516-6c-.016-.031-.063-.11-.063-.156 0-.11.219-.282.64-.297v-.297c-.343.031-1.062.031-1.437.031L.36-6.75v.297h.188c.547 0 .734.078.922.344l1.828 2.75L1.672-.953c-.14.187-.438.64-1.438.64V0l1.094-.031c.375 0 .922 0 1.266.031v-.312c-.453 0-.61-.266-.61-.454 0-.078.016-.125.094-.234l1.406-2.078 1.563 2.36c.016.046.047.077.047.109 0 .125-.219.297-.64.297V0c.343-.031 1.062-.031 1.437-.031Zm0 0"/><path id="d" d="m6.781-4.469-.187-2.234H.547L.359-4.47h.25C.734-6.062.891-6.39 2.391-6.39c.172 0 .422 0 .53.016.204.047.204.156.204.375v5.219c0 .344 0 .469-1.031.469h-.406V0c.406-.031 1.421-.031 1.875-.031.453 0 1.468 0 1.874.031v-.312h-.39C4-.312 4-.437 4-.782V-6c0-.187 0-.328.188-.375.109-.016.375-.016.562-.016 1.484 0 1.64.329 1.781 1.922Zm0 0"/><path id="n" d="M7.266-2.39v-.313l-1.203.031c-.391 0-1.235 0-1.594-.031v.312h.312c.89 0 .922.11.922.47v.64c0 1.11-1.25 1.187-1.531 1.187-.64 0-2.594-.343-2.594-3.281 0-2.969 1.938-3.297 2.531-3.297 1.063 0 1.97.89 2.157 2.344.03.14.03.172.156.172.172 0 .172-.032.172-.235v-2.343c0-.172 0-.235-.11-.235-.046 0-.078 0-.171.11l-.485.734c-.312-.312-.86-.844-1.828-.844-1.844 0-3.453 1.563-3.453 3.594C.547-1.359 2.14.219 4.016.219c.718 0 1.515-.266 1.843-.844.141.219.532.61.641.61.094 0 .094-.079.094-.22v-1.718c0-.39.031-.438.672-.438m0 0"/><path id="o" d="M4.14 0v-.312h-.312c-.89 0-.922-.11-.922-.47v-5.546c0-.234 0-.266-.219-.266-.624.64-1.484.64-1.812.64v.313c.203 0 .781 0 1.297-.265v5.125c0 .36-.031.469-.922.469H.938V0C1.28-.031 2.14-.031 2.547-.031c.39 0 1.25 0 1.594.031m0 0"/><path id="p" d="M4.516-1.687c0-.813-.625-1.594-1.641-1.797.797-.266 1.375-.953 1.375-1.735 0-.812-.875-1.375-1.812-1.375-1 0-1.75.594-1.75 1.36 0 .312.218.5.5.5.312 0 .5-.203.5-.5 0-.5-.47-.5-.61-.5.313-.485.953-.61 1.313-.61.406 0 .953.219.953 1.11 0 .125-.016.687-.281 1.125-.297.484-.626.515-.876.515a3.29 3.29 0 0 1-.39.031c-.078.016-.14.016-.14.126 0 .109.062.109.234.109h.437c.813 0 1.172.672 1.172 1.64 0 1.344-.687 1.626-1.11 1.626-.437 0-1.171-.172-1.515-.75.344.046.64-.172.64-.547 0-.36-.265-.547-.546-.547-.235 0-.547.14-.547.578 0 .89.906 1.547 1.984 1.547 1.219 0 2.11-.906 2.11-1.906m0 0"/><path id="q" d="M4.516-1.656c0-.36-.11-.813-.485-1.219-.187-.203-.343-.312-.968-.703.703-.375 1.187-.875 1.187-1.531 0-.907-.875-1.485-1.781-1.485-.985 0-1.781.735-1.781 1.657 0 .187.015.625.437 1.093.094.11.469.36.719.531C1.266-3.03.422-2.468.422-1.5c0 1.063 1 1.719 2.047 1.719 1.11 0 2.047-.828 2.047-1.875M3.813-5.11c0 .562-.376 1.03-.97 1.375L1.61-4.516c-.453-.296-.484-.64-.484-.812 0-.594.64-1.016 1.344-1.016.719 0 1.344.516 1.344 1.235m.218 3.797c0 .734-.75 1.25-1.562 1.25C1.625-.062.906-.672.906-1.5c0-.562.313-1.203 1.156-1.672l1.22.781c.28.188.75.485.75 1.079m0 0"/><path id="r" d="M2-.016c0-.625-.234-1.03-.625-1.03a.513.513 0 0 0-.531.515c0 .265.172.531.531.531.14 0 .281-.062.39-.156a2.451 2.451 0 0 1-.687 1.844c-.062.062-.062.078-.062.109 0 .078.046.11.093.11.11 0 .891-.782.891-1.923m0 0"/><path id="s" d="M4.516-2.016c0-1.265-.875-2.203-1.97-2.203-.671 0-1.046.5-1.233.969v-.234c0-2.5 1.218-2.86 1.718-2.86.25 0 .656.063.875.407-.14 0-.547 0-.547.437 0 .313.235.453.454.453.156 0 .453-.094.453-.469 0-.593-.422-1.078-1.25-1.078C1.75-6.594.422-5.312.422-3.125c0 2.64 1.14 3.344 2.062 3.344 1.094 0 2.032-.938 2.032-2.235m-.891-.015c0 .484 0 .969-.156 1.328-.297.594-.766.64-.985.64-.625 0-.921-.593-.984-.734-.172-.469-.172-1.265-.172-1.437C1.328-3 1.641-4 2.531-4c.156 0 .61 0 .922.625.172.36.172.86.172 1.344m0 0"/><path id="w" d="M4.438-1.719h-.25c-.047.297-.11.735-.22.875-.062.078-.718.078-.937.078H1.25L2.297-1.78c1.547-1.36 2.14-1.89 2.14-2.89 0-1.126-.89-1.923-2.093-1.923A1.826 1.826 0 0 0 .5-4.797c0 .547.484.547.516.547.172 0 .515-.11.515-.516 0-.265-.172-.515-.515-.515-.079 0-.11 0-.141.015.234-.656.766-1.015 1.344-1.015.89 0 1.328.797 1.328 1.61 0 .796-.5 1.577-1.047 2.187L.61-.36C.5-.25.5-.234.5 0h3.656Zm0 0"/><path id="x" d="M2.734-1.844v-.578H.11v.578Zm0 0"/><path id="y" d="M4.547-3.172c0-.781-.047-1.578-.39-2.312-.454-.938-1.266-1.11-1.688-1.11-.594 0-1.313.266-1.719 1.188-.312.672-.36 1.453-.36 2.234 0 .75.032 1.64.438 2.39a1.83 1.83 0 0 0 1.64 1C3 .219 3.75.017 4.189-.936c.312-.672.359-1.454.359-2.235m-.813-.11c0 .735 0 1.407-.109 2.048C3.469-.297 2.906 0 2.469 0c-.39 0-.969-.25-1.156-1.203-.11-.594-.11-1.5-.11-2.078 0-.64 0-1.281.078-1.828.188-1.172.938-1.266 1.188-1.266.328 0 .969.188 1.156 1.156.11.563.11 1.313.11 1.938m0 0"/><path id="k" d="M5.766-3.562 5.609-5.36H.453L.297-3.562h.25c.11-1.329.297-1.532 1.5-1.532.156 0 .406 0 .469.016.14.031.156.11.156.312v4.11c0 .281 0 .39-.828.39h-.297V0c.297-.031 1.14-.031 1.484-.031.344 0 1.203 0 1.485.031v-.266h-.297c-.813 0-.813-.109-.813-.39v-4.11c0-.187 0-.28.156-.312.079-.016.297-.016.454-.016 1.218 0 1.39.203 1.5 1.532Zm0 0"/><path id="l" d="M6.156-.719c0-.047 0-.156-.125-.156-.11 0-.11.094-.11.14-.046.5-.327.673-.546.673-.422 0-.469-.36-.61-1.36-.062-.453-.14-1-1.015-1.265.625-.172 1.39-.61 1.39-1.297 0-.782-1.015-1.422-2.187-1.422H.36v.25h.172c.625 0 .64.093.64.39V-.64c0 .297-.015.375-.64.375H.36V0l1.157-.031L2.672 0v-.266H2.5c-.61 0-.625-.078-.625-.375v-1.953h1c.578 0 .844.281.89.36.235.25.235.39.235.937 0 .5 0 .844.328 1.125.344.297.797.344 1.016.344.656 0 .812-.656.812-.89M4.313-3.984c0 .875-.641 1.172-1.47 1.172h-.968v-2.016c0-.203 0-.297.188-.313.078-.015.328-.015.484-.015.719 0 1.765 0 1.765 1.172m0 0"/><path id="m" d="M6.078 0v-.266h-.14c-.485 0-.594-.062-.75-.28l-1.813-2.5 1.188-1.595c.359-.5.968-.515 1.156-.515v-.25c-.282.015-.703.015-.89.015-.423 0-.5 0-.985-.015v.25c.36.015.437.234.437.343 0 .079-.015.141-.078.22L3.22-3.267l-1.11-1.53c-.03-.032-.062-.079-.062-.11 0-.094.156-.25.469-.25v-.25l-1.125.015c-.485 0-.594 0-1.047-.015v.25h.125c.484 0 .594.078.75.281l1.578 2.188L1.39-.766c-.375.5-1 .5-1.172.5V0c.281-.031.734-.031.89-.031.407 0 .5 0 .985.031v-.266c-.375-.015-.438-.25-.438-.343 0-.016 0-.094.094-.22l1.219-1.64L4.297-.625c.062.094.062.11.062.125 0 .11-.14.234-.468.234V0l1.14-.031c.39 0 .61 0 1.047.031m0 0"/><path id="t" d="M2.39-6.531c-.093-.219-.124-.219-.359-.219H.36v.297h.25c.75 0 .782.11.782.469v4.953c0 .265 0 .718-1.032.718V0c.36-.016.844-.031 1.157-.031.328 0 .812.015 1.172.031v-.312c-1.032 0-1.032-.454-1.032-.72v-5.343h.016l2.39 6.156c.047.125.094.219.188.219.11 0 .14-.078.188-.187l2.421-6.266h.016v5.687c0 .344-.016.454-.781.454h-.235V0c.36-.031 1.032-.031 1.422-.031.39 0 1.047 0 1.407.031v-.312h-.235c-.765 0-.781-.11-.781-.454v-5.218c0-.36.016-.47.781-.47h.235v-.296H7.016c-.25 0-.25 0-.313.188L4.531-1Zm0 0"/><path id="u" d="M6.063-5.984c0-.36.015-.47.78-.47h.235v-.296c-.344.031-1.078.031-1.453.031s-1.11 0-1.469-.031v.297h.25c.75 0 .782.11.782.469v2.312h-2.97v-2.312c0-.36.032-.47.782-.47h.25v-.296c-.36.031-1.078.031-1.453.031s-1.125 0-1.469-.031v.297h.235c.765 0 .78.11.78.469v5.218c0 .344-.015.454-.78.454H.328V0c.344-.031 1.078-.031 1.453-.031s1.11 0 1.469.031v-.312H3c-.75 0-.781-.11-.781-.454v-2.593h2.969v2.593c0 .344-.032.454-.782.454h-.25V0c.36-.031 1.078-.031 1.469-.031.375 0 1.11 0 1.453.031v-.312h-.234c-.766 0-.782-.11-.782-.454Zm0 0"/><path id="v" d="M3.86-3.969c.093-.11.093-.125.093-.172 0-.125-.078-.125-.265-.125H.53l-.11 1.594h.235C.72-3.672.906-4.047 2-4.047h1.125L.359-.313c-.078.11-.078.126-.078.172C.281 0 .344 0 .531 0h3.266l.172-1.844h-.25C3.625-.687 3.422-.25 2.28-.25H1.11Zm0 0"/><clipPath id="a"><path d="M.469 7H31v41H.469Zm0 0"/></clipPath><clipPath id="e"><path d="M53 119h27v26.047H53Zm0 0"/></clipPath><clipPath id="f"><path d="M51 116h30v29.047H51Zm0 0"/></clipPath><clipPath id="g"><path d="M91 119h27v26.047H91Zm0 0"/></clipPath><clipPath id="h"><path d="M90 116h29v29.047H90Zm0 0"/></clipPath><clipPath id="i"><path d="M129 119h27v26.047h-27Zm0 0"/></clipPath><clipPath id="j"><path d="M128 117h30v28.047h-30Zm0 0"/></clipPath></defs><path fill="none" stroke="#000" stroke-miterlimit="10" stroke-width=".39634266" d="M40.66 64.426h-8.414m8.414 16.199h-8.414m-22.183-8.102h8.414"/><path fill="#FFF" stroke="#000" stroke-miterlimit="10" stroke-width=".39634266" d="M33.824 64.426a1.579 1.579 0 0 0-3.156 0c0 .87.707 1.574 1.578 1.574.871 0 1.578-.703 1.578-1.574ZM33.824 80.625a1.579 1.579 0 1 0-3.157.001 1.579 1.579 0 0 0 3.157-.001ZM20.05 72.523a1.575 1.575 0 1 0-1.574 1.578c.872 0 1.575-.706 1.575-1.578Zm0 0"/><path fill="none" stroke="#000" stroke-miterlimit="10" stroke-width=".7916919800000001" d="m20.05 72.523 11.79-6.117"/><path fill="none" stroke="#000" stroke-miterlimit="10" stroke-width=".39634266" d="M9.863 72.523v-54"/><g clip-path="url(#a)"><path fill="none" stroke="#000" stroke-miterlimit="10" stroke-width=".7916919800000001" d="M9.863 18.523h9l-9 18-9-18h9"/></g><use xlink:href="#b" x="18.007" y="60.711"/><use xlink:href="#c" x="25.291" y="60.711"/><use xlink:href="#d" x="18.077" y="90.88"/><use xlink:href="#c" x="25.222" y="90.88"/><path fill="none" stroke="#000" stroke-miterlimit="10" stroke-width=".39634266" d="M40.66 64.426v-51.43h12.86"/><path d="M49.332 12.996v1.969l4.188-1.969-4.188-1.973Zm0 0"/><path fill="none" stroke="#000" stroke-miterlimit="10" stroke-width=".7916919800000001" d="M53.52.395h25.199v25.199h-25.2Zm0 0"/><path fill="none" stroke="#000" stroke-miterlimit="10" stroke-width=".39634266" d="m57.297 3.293 17.64 9.703-17.64 9.703ZM78.719 12.996h25.715m0 0h25.714"/><path d="M125.96 12.996v1.969l4.188-1.969-4.187-1.973Zm0 0"/><path fill="none" stroke="#000" stroke-miterlimit="10" stroke-width=".7916919800000001" d="M130.148.395h25.2v25.199h-25.2Zm0 0"/><path fill="none" stroke="#000" stroke-miterlimit="10" stroke-width=".39634266" d="M151.566 12.996a8.82 8.82 0 0 0-8.82-8.82c-4.871 0-8.816 3.949-8.816 8.82s3.945 8.82 8.816 8.82a8.82 8.82 0 0 0 8.82-8.82ZM136.512 6.758l12.472 12.472m0-12.472L136.512 19.23M40.66 80.625v51.43h12.86"/><g clip-path="url(#e)"><path fill="none" stroke="#000" stroke-miterlimit="10" stroke-width=".7916919800000001" d="M53.52 119.453h25.199v25.2h-25.2Zm0 0"/></g><g clip-path="url(#f)"><path fill="none" stroke="#000" stroke-miterlimit="10" stroke-width=".39634266" d="m74.937 141.758-17.64-9.703 17.64-9.703Zm0 0"/></g><path fill="none" stroke="#000" stroke-miterlimit="10" stroke-width=".39634266" d="M78.719 132.055h13.113m25.203 0h13.113"/><path d="M82.906 132.055v-1.973l-4.187 1.973 4.187 1.968Zm0 0"/><g clip-path="url(#g)"><path fill="none" stroke="#000" stroke-miterlimit="10" stroke-width=".7916919800000001" d="M91.832 144.652h25.203v-25.199H91.832Zm0 0"/></g><path d="M121.223 132.055v1.968l-4.188-1.968 4.188-1.973Zm0 0"/><g clip-path="url(#h)"><path fill="none" stroke="#000" stroke-miterlimit="10" stroke-width=".39634266" d="m113.254 122.352-17.64 9.703 17.64 9.703Zm0 0"/></g><g clip-path="url(#i)"><path fill="none" stroke="#000" stroke-miterlimit="10" stroke-width=".7916919800000001" d="M130.148 119.453h25.2v25.2h-25.2Zm0 0"/></g><g clip-path="url(#j)"><path fill="none" stroke="#000" stroke-miterlimit="10" stroke-width=".39634266" d="M151.566 132.055a8.82 8.82 0 0 0-8.82-8.82c-4.871 0-8.816 3.949-8.816 8.82 0 4.87 3.945 8.82 8.816 8.82a8.82 8.82 0 0 0 8.82-8.82Zm0 0"/></g><path fill="none" stroke="#000" stroke-miterlimit="10" stroke-width=".39634266" d="m136.512 125.816 12.472 12.473m0-12.473-12.472 12.473M142.746 25.594v46.93m0 0v46.93"/><path d="M142.746 29.785h1.973l-1.973-4.191-1.969 4.191ZM142.746 115.266h-1.969l1.97 4.187 1.972-4.187Zm0 0"/><path fill="none" stroke="#000" stroke-miterlimit="10" stroke-width=".39634266" d="M166.02 64.426h8.414m-8.414 16.199h8.414m22.187-8.102h-8.418"/><path fill="#FFF" stroke="#000" stroke-miterlimit="10" stroke-width=".39634266" d="M172.86 64.426a1.575 1.575 0 1 1 3.152 0c0 .87-.707 1.574-1.578 1.574a1.572 1.572 0 0 1-1.575-1.574ZM172.86 80.625a1.575 1.575 0 1 1 3.152 0 1.575 1.575 0 1 1-3.152 0ZM186.629 72.523a1.575 1.575 0 1 1 1.574 1.578 1.575 1.575 0 0 1-1.574-1.578Zm0 0"/><path fill="none" stroke="#000" stroke-miterlimit="10" stroke-width=".7916919800000001" d="m186.629 72.523-11.79-6.117"/><use xlink:href="#b" x="173.964" y="60.711"/><use xlink:href="#c" x="181.248" y="60.711"/><use xlink:href="#d" x="174.033" y="90.88"/><use xlink:href="#c" x="181.178" y="90.88"/><path fill="none" stroke="#000" stroke-miterlimit="10" stroke-width=".39634266" d="M155.348 12.996h10.672v51.43M155.348 132.055h10.672v-51.43"/><path fill="none" stroke="#000" stroke-miterlimit="10" stroke-width=".7916919800000001" d="M196.621 59.926h25.2v25.199h-25.2Zm0 0"/><use xlink:href="#k" x="199.935" y="75.145"/><use xlink:href="#l" x="206.007" y="75.145"/><use xlink:href="#m" x="212.198" y="75.145"/><path fill="none" stroke="#000" stroke-miterlimit="10" stroke-width=".7916919800000001" d="M53.52 59.926h25.199v25.199h-25.2Zm0 0"/><path fill="none" stroke="#000" stroke-miterlimit="10" stroke-width=".39634266" d="M67.695 66.855c.512-.808 1.004-1.574 1.575-1.574.57 0 1.062.766 1.574 1.574.511.805 1.004 1.575 1.574 1.575.57 0 1.062-.77 1.574-1.575M67.695 70.004c.512-.805 1.004-1.574 1.575-1.574.57 0 1.062.77 1.574 1.574.511.809 1.004 1.574 1.574 1.574.57 0 1.062-.765 1.574-1.574M67.695 73.156c.512-.808 1.004-1.578 1.575-1.578.57 0 1.062.77 1.574 1.578.511.805 1.004 1.574 1.574 1.574.57 0 1.062-.77 1.574-1.574"/><use xlink:href="#n" x="56.564" y="72.754"/><path fill="none" stroke="#000" stroke-miterlimit="10" stroke-width=".39634266" d="M57.297 76.934h17.64M57.297 81.344h17.64v-2.52h-17.64ZM57.297 83.234h17.64M78.719 72.523h19.414m25.199 0h19.414"/><path fill="none" stroke="#000" stroke-miterlimit="10" stroke-width=".7916919800000001" d="M98.133 59.926h25.199v25.199h-25.2Zm0 0"/><path d="M93.945 72.523v1.973l4.188-1.973-4.188-1.968Zm0 0"/><path fill="none" stroke="#000" stroke-miterlimit="10" stroke-width=".39634266" d="m98.133 85.125 25.199-25.2"/><use xlink:href="#o" x="102.587" y="70.15"/><use xlink:href="#p" x="113.927" y="81.381"/><path stroke="#000" stroke-miterlimit="10" stroke-width=".39634266" d="M144.324 72.523a1.575 1.575 0 1 0-3.15.003 1.575 1.575 0 0 0 3.15-.003Zm0 0"/><use xlink:href="#p" x="52.372" y="54.518"/><use xlink:href="#q" x="57.32" y="54.518"/><use xlink:href="#r" x="62.268" y="54.518"/><use xlink:href="#s" x="65.02" y="54.518"/><use xlink:href="#s" x="69.968" y="54.518"/><use xlink:href="#s" x="74.916" y="54.518"/><use xlink:href="#t" x="55.672" y="95.383"/><use xlink:href="#u" x="64.744" y="95.383"/><use xlink:href="#v" x="72.166" y="95.383"/><use xlink:href="#w" x="197.673" y="56.21"/><use xlink:href="#q" x="202.621" y="56.21"/><use xlink:href="#x" x="207.569" y="56.21"/><use xlink:href="#p" x="210.865" y="56.21"/><use xlink:href="#y" x="215.813" y="56.21"/><use xlink:href="#t" x="198.771" y="95.383"/><use xlink:href="#u" x="207.842" y="95.383"/><use xlink:href="#v" x="215.265" y="95.383"/></svg>