<svg xmlns="http://www.w3.org/2000/svg" xmlns:xlink="http://www.w3.org/1999/xlink" width="229.752" height="114.753"><defs><path id="a" d="M6.203-4.937c0-.97-.984-1.844-2.344-1.844H.344v.297h.25c.75 0 .781.109.781.468V-.78c0 .36-.031.469-.781.469h-.25V0c.36-.031 1.094-.031 1.469-.031s1.125 0 1.468.031v-.312h-.234c-.766 0-.797-.11-.797-.47V-3.14h1.688c1.187 0 2.265-.796 2.265-1.796m-1.031 0c0 .468 0 1.53-1.578 1.53H2.219v-2.671c0-.328.031-.406.5-.406h.875c1.578 0 1.578 1.062 1.578 1.547m0 0"/><path id="b" d="M5.781-2.562h-.25c-.11 1.015-.25 2.25-2 2.25H2.72c-.469 0-.485-.063-.485-.391V-6c0-.344 0-.484.954-.484h.328v-.297c-.36.031-1.266.031-1.672.031-.39 0-1.172 0-1.516-.031v.297h.235c.765 0 .78.109.78.468V-.78c0 .36-.015.469-.78.469H.328V0H5.5Zm0 0"/><path id="c" d="M7.297-2.406v-.313l-1.203.031c-.407 0-1.25 0-1.61-.03v.312h.329c.89 0 .921.11.921.484v.625c0 1.125-1.265 1.203-1.546 1.203-.641 0-2.61-.343-2.61-3.312s1.953-3.297 2.563-3.297c1.062 0 1.968.906 2.156 2.36.016.14.016.171.156.171.172 0 .172-.031.172-.234v-2.36c0-.171 0-.234-.11-.234-.046 0-.093 0-.171.11l-.485.734C5.531-6.47 5-7 4.016-7 2.172-7 .563-5.437.563-3.406.563-1.36 2.14.219 4.03.219c.735 0 1.532-.266 1.86-.844.125.219.53.61.64.61.094 0 .094-.079.094-.22v-1.734c0-.39.031-.437.672-.437m0 0"/><path id="e" d="M6.484-2.562h-.25c-.25 1.53-.484 2.25-2.187 2.25H2.719c-.469 0-.485-.063-.485-.391V-3.36h.891c.969 0 1.078.312 1.078 1.156h.25v-2.625h-.25c0 .86-.11 1.156-1.078 1.156h-.89v-2.375c0-.328.015-.406.484-.406H4c1.531 0 1.797.547 1.953 1.937h.25L5.922-6.75H.328v.297h.235c.765 0 .78.11.78.469v5.203c0 .36-.015.469-.78.469H.328V0h5.735Zm0 0"/><path id="f" d="M5.125 0v-.312c-.531 0-.719-.016-.937-.297L2.859-2.33c.297-.39.672-.874.907-1.124.312-.36.718-.516 1.187-.516v-.312c-.266.015-.562.031-.812.031-.313 0-.828-.016-.953-.031v.312c.203.016.28.14.28.297a.551.551 0 0 1-.155.36l-.61.765-.781-1c-.078-.094-.078-.125-.078-.187 0-.141.14-.235.343-.235v-.312L1.11-4.25c-.203 0-.671-.016-.937-.031v.312c.687 0 .703 0 1.172.594l.984 1.281c-.469.61-.469.625-.937 1.188a1.566 1.566 0 0 1-1.266.594V0c.25-.016.563-.031.813-.031L1.89 0v-.312c-.22-.032-.297-.157-.297-.297 0-.22.297-.547.906-1.266l.75.984c.078.11.203.282.203.329 0 .093-.078.25-.36.25V0l1.079-.031c.266 0 .656.015.953.031m0 0"/><path id="g" d="M3.297-1.234v-.563h-.25v.547c0 .734-.297 1.11-.656 1.11-.672 0-.672-.907-.672-1.079v-2.75H3.14v-.312H1.719V-6.11h-.25c-.016.812-.313 1.875-1.281 1.922v.218h.843v2.735c0 1.218.922 1.343 1.282 1.343.703 0 .984-.703.984-1.343m0 0"/><path id="h" d="M1.906-.531A.524.524 0 1 0 .86-.515a.524.524 0 0 0 1.047-.016m0 0"/><path id="i" d="M4.953-1.844c0-1-.656-1.812-1.484-2.015l-1.266-.297a1.308 1.308 0 0 1-1.015-1.266A1.3 1.3 0 0 1 2.5-6.734c1.656 0 1.875 1.64 1.938 2.078.015.062.015.125.125.125.125 0 .125-.047.125-.235v-2c0-.171 0-.234-.11-.234-.062 0-.078 0-.14.125l-.36.563C3.781-6.594 3.375-7 2.5-7 1.39-7 .563-6.125.563-5.078a1.9 1.9 0 0 0 1.296 1.812c.11.047.61.172 1.313.329.265.078.562.14.844.515.203.25.312.578.312.906 0 .704-.5 1.422-1.344 1.422-.28 0-1.03-.047-1.562-.531-.578-.531-.61-1.172-.61-1.531C.798-2.25.72-2.25.688-2.25c-.125 0-.125.063-.125.25v1.984c0 .172 0 .235.11.235.062 0 .078-.016.14-.125 0 0 .032-.047.36-.578.312.343.937.703 1.828.703 1.156 0 1.953-.969 1.953-2.063m0 0"/><path id="j" d="M7.031-3.344c0-1.89-1.343-3.437-3.047-3.437H.344v.297h.25c.75 0 .781.109.781.468V-.78c0 .36-.031.469-.781.469h-.25V0h3.64c1.672 0 3.047-1.469 3.047-3.344m-1 0c0 1.11-.187 1.703-.547 2.188a2.192 2.192 0 0 1-1.765.843h-1c-.469 0-.5-.062-.5-.39v-5.375c0-.328.031-.406.5-.406h.984c.625 0 1.313.218 1.813.922.422.593.515 1.453.515 2.218m0 0"/><path id="k" d="M7.172-3.375C7.172-5.391 5.672-7 3.859-7 2.08-7 .563-5.422.563-3.375c0 2.047 1.53 3.594 3.296 3.594 1.813 0 3.313-1.578 3.313-3.594m-1.031-.14c0 2.64-1.36 3.468-2.282 3.468-.953 0-2.28-.875-2.28-3.469 0-2.562 1.452-3.234 2.28-3.234.86 0 2.282.703 2.282 3.234m0 0"/><path id="t" d="m6.813-4.484-.188-2.25H.547l-.188 2.25h.25c.141-1.61.282-1.938 1.782-1.938.187 0 .437 0 .547.016.203.047.203.156.203.39V-.78c0 .328 0 .469-1.047.469h-.39V0c.405-.031 1.421-.031 1.874-.031.453 0 1.485 0 1.89.031v-.312h-.405c-1.032 0-1.032-.141-1.032-.47v-5.234c0-.203 0-.343.172-.39.11-.016.375-.016.563-.016 1.5 0 1.656.328 1.797 1.938Zm0 0"/><path id="u" d="M6.61-2.312c0-.11 0-.172-.126-.172-.109 0-.109.062-.125.156C6.281-.906 5.22-.094 4.141-.094c-.61 0-2.563-.328-2.563-3.297 0-2.968 1.938-3.312 2.547-3.312 1.078 0 1.969.906 2.172 2.36.016.14.016.171.156.171.156 0 .156-.031.156-.234v-2.36c0-.171 0-.234-.109-.234-.047 0-.078 0-.156.11l-.5.734C5.469-6.516 4.969-7 4.016-7 2.156-7 .563-5.422.563-3.406.563-1.344 2.172.219 4.015.219c1.625 0 2.593-1.375 2.593-2.531m0 0"/><path id="v" d="M7.219 0v-.312H7.03c-.515 0-.734-.047-.937-.36L4-3.828l1.36-2c.218-.328.546-.64 1.437-.656v-.297l-1.11.031c-.39 0-.875 0-1.265-.031v.297c.39.015.61.234.61.468 0 .094-.016.11-.079.22L3.813-4.11 2.53-6.031c-.015-.032-.062-.11-.062-.157 0-.109.219-.28.64-.296v-.297c-.343.031-1.078.031-1.453.031L.375-6.781v.297h.188c.546 0 .734.078.921.359l1.829 2.75L1.672-.969c-.125.203-.422.657-1.438.657V0l1.11-.031c.36 0 .906 0 1.265.031v-.312c-.453 0-.625-.282-.625-.454 0-.093.032-.125.11-.234L3.5-3.094 5.063-.719c.03.047.062.078.062.11 0 .125-.219.297-.656.297V0c.343-.031 1.078-.031 1.453-.031Zm0 0"/><path id="l" d="M2.922-6.36c0-.234 0-.265-.235-.265-.609.64-1.484.64-1.796.64v.313c.187 0 .78 0 1.297-.266V-.78c0 .36-.032.469-.922.469H.938V0c.359-.031 1.218-.031 1.609-.031.406 0 1.265 0 1.61.031v-.312h-.313c-.89 0-.922-.11-.922-.47Zm0 0"/><path id="m" d="M2.922-1.64v.859c0 .36-.016.469-.75.469h-.219V0c.406-.031.922-.031 1.344-.031.422 0 .953 0 1.36.031v-.312h-.22c-.734 0-.75-.11-.75-.47v-.859h1v-.312h-1V-6.47c0-.203 0-.265-.156-.265-.094 0-.125 0-.203.125L.281-1.953v.312Zm.062-.313H.563l2.421-3.703Zm0 0"/><path id="n" d="M2.39-6.562c-.078-.22-.109-.22-.343-.22H.375v.298h.234c.766 0 .782.109.782.468v4.97c0 .265 0 .734-1.016.734V0c.344-.016.828-.031 1.156-.031.328 0 .813.015 1.157.031v-.312c-1.016 0-1.016-.47-1.016-.735v-5.36L4.078-.218c.047.125.094.219.188.219.109 0 .14-.078.187-.187l2.438-6.297h.015v5.703c0 .36-.015.469-.781.469h-.234V0c.359-.031 1.03-.031 1.422-.031.39 0 1.062 0 1.421.031v-.312H8.5c-.766 0-.781-.11-.781-.47v-5.234c0-.359.015-.468.781-.468h.234v-.297H7.063c-.266 0-.266 0-.329.187L4.547-1Zm0 0"/><path id="o" d="M6.094-6.016c0-.359.015-.468.781-.468h.234v-.297c-.343.031-1.078.031-1.453.031s-1.125 0-1.468-.031v.297h.234c.766 0 .781.109.781.468v2.329H2.234v-2.329c0-.359.016-.468.782-.468h.25v-.297c-.36.031-1.094.031-1.47.031-.374 0-1.124 0-1.468-.031v.297h.235c.765 0 .78.109.78.468V-.78c0 .36-.015.469-.78.469H.328V0c.344-.031 1.078-.031 1.453-.031.39 0 1.125 0 1.485.031v-.312h-.25c-.766 0-.782-.11-.782-.47v-2.593h2.97v2.594c0 .36-.016.469-.782.469h-.234V0C4.53-.031 5.266-.031 5.64-.031s1.125 0 1.468.031v-.312h-.234c-.766 0-.781-.11-.781-.47Zm0 0"/><path id="p" d="M3.875-3.984c.094-.11.094-.125.094-.172 0-.125-.078-.125-.266-.125H.531l-.11 1.593h.25C.72-3.702.922-4.062 2-4.062h1.14L.376-.312c-.094.109-.094.125-.094.171C.281 0 .344 0 .531 0h3.282l.171-1.86h-.25C3.641-.686 3.438-.25 2.281-.25H1.11Zm0 0"/><path id="q" d="M1.266-.766 2.313-1.78c1.546-1.375 2.156-1.922 2.156-2.907 0-1.14-.907-1.937-2.11-1.937C1.234-6.625.5-5.703.5-4.812c0 .546.5.546.531.546.157 0 .516-.109.516-.53a.513.513 0 0 0-.531-.516c-.079 0-.094 0-.125.015.218-.64.765-1.016 1.328-1.016.906 0 1.344.813 1.344 1.625 0 .797-.5 1.579-1.047 2.188L.609-.375C.5-.265.5-.235.5 0h3.688l.28-1.734h-.25c-.062.297-.124.734-.218.89-.078.078-.734.078-.953.078Zm0 0"/><path id="s" d="M5.89-.625c.126.219.532.61.641.61.094 0 .094-.079.094-.22v-1.734c0-.39.031-.437.672-.437v-.313c-.36.016-.906.031-1.203.031-.407 0-1.25 0-1.61-.03v.312h.329c.89 0 .921.11.921.484v.625c0 1.125-1.265 1.203-1.546 1.203-.641 0-2.61-.343-2.61-3.312s1.953-3.297 2.563-3.297c1.062 0 1.968.906 2.156 2.36.016.14.016.171.156.171.172 0 .172-.031.172-.234v-2.36c0-.171 0-.234-.11-.234-.046 0-.093 0-.171.11l-.485.734C5.531-6.47 5-7 4.016-7 2.172-7 .563-5.437.563-3.406.563-1.36 2.14.219 4.03.219c.735 0 1.532-.266 1.86-.844m0 0"/><path id="w" d="M4.578-3.187c0-.782-.062-1.579-.406-2.313-.453-.953-1.266-1.125-1.688-1.125-.593 0-1.328.266-1.734 1.188C.438-4.75.39-3.97.39-3.187c0 .75.032 1.64.438 2.406.438.797 1.156 1 1.64 1 .548 0 1.298-.203 1.735-1.156.313-.688.375-1.454.375-2.25M2.468 0c-.374 0-.968-.25-1.14-1.203-.11-.594-.11-1.516-.11-2.094 0-.64 0-1.297.079-1.828.187-1.187.922-1.281 1.172-1.281.328 0 .984.187 1.172 1.172.109.547.109 1.312.109 1.937 0 .75 0 1.422-.11 2.047C3.485-.297 2.923 0 2.47 0m0 0"/><path id="x" d="M4.469-2c0-1.187-.828-2.172-1.89-2.172-.485 0-.907.156-1.267.5v-1.937c.204.062.532.14.844.14 1.219 0 1.922-.906 1.922-1.047 0-.046-.031-.109-.11-.109 0 0-.03 0-.077.031a3.13 3.13 0 0 1-1.344.297c-.406 0-.86-.078-1.328-.281-.078-.031-.094-.031-.11-.031C1-6.61 1-6.531 1-6.375v2.953c0 .172 0 .25.14.25.079 0 .094-.031.126-.094.109-.156.484-.687 1.28-.687.532 0 .767.453.86.64.156.36.172.75.172 1.25 0 .344 0 .938-.234 1.36-.25.39-.61.64-1.063.64-.734 0-1.297-.53-1.469-1.109.032.016.063.016.172.016.329 0 .5-.25.5-.485a.48.48 0 0 0-.5-.484c-.14 0-.484.063-.484.531C.5-.75 1.188.22 2.297.22 3.453.219 4.469-.734 4.469-2m0 0"/><path id="y" d="M1.313-3.266V-3.5c0-2.516 1.234-2.875 1.734-2.875.25 0 .656.063.875.406-.14 0-.547 0-.547.438 0 .312.25.468.453.468.172 0 .469-.093.469-.484 0-.594-.438-1.078-1.266-1.078-1.265 0-2.61 1.281-2.61 3.484C.422-.484 1.564.22 2.5.22c1.094 0 2.047-.938 2.047-2.25 0-1.266-.89-2.219-2-2.219-.672 0-1.031.516-1.235.984M2.5-.062c-.625 0-.937-.594-.984-.75-.188-.454-.188-1.25-.188-1.438 0-.766.328-1.766 1.219-1.766.156 0 .61 0 .922.61.172.375.172.875.172 1.375 0 .469 0 .969-.157 1.328-.296.594-.765.64-.984.64m0 0"/><path id="r" d="M2.016-.016c0-.656-.25-1.03-.641-1.03-.328 0-.516.234-.516.515 0 .265.188.531.516.531.125 0 .25-.047.36-.125.03-.031.03-.031.046-.031 0 0 .016 0 .016.14 0 .735-.344 1.344-.672 1.672-.11.11-.11.125-.11.157 0 .062.048.109.094.109.11 0 .907-.766.907-1.938m0 0"/><clipPath id="d"><path d="M80 100h16v14.508H80Zm0 0"/></clipPath></defs><path fill="none" stroke="#000" stroke-miterlimit="10" stroke-width=".39814215000000003" d="M22.215 15.55h13.222m0 0H48.66"/><path fill="#FFF" stroke="#000" stroke-miterlimit="10" stroke-width=".39814215000000003" d="M23.797 15.55a1.584 1.584 0 1 0-3.168.003 1.584 1.584 0 0 0 3.168-.002Zm0 0"/><path d="M44.453 15.55v1.981l4.207-1.98-4.207-1.98Zm0 0"/><path fill="none" stroke="#000" stroke-miterlimit="10" stroke-width=".7952864500000001" d="M48.66 2.594h25.914v25.914H48.66Zm0 0"/><path fill="none" stroke="#000" stroke-miterlimit="10" stroke-width=".39814215000000003" d="M55.137 9.074c1.058-1.66 2.07-3.242 3.242-3.242 1.172 0 2.183 1.582 3.238 3.242 1.055 1.656 2.067 3.239 3.238 3.239 1.176 0 2.184-1.583 3.243-3.239M63.562 7.13l-3.886 3.887M55.137 15.55c1.058-1.655 2.07-3.237 3.242-3.237 1.172 0 2.183 1.582 3.238 3.238 1.055 1.66 2.067 3.238 3.238 3.238 1.176 0 2.184-1.578 3.243-3.238M55.137 22.031c1.058-1.66 2.07-3.242 3.242-3.242 1.172 0 2.183 1.582 3.238 3.242 1.055 1.656 2.067 3.239 3.238 3.239 1.176 0 2.184-1.583 3.243-3.239m-4.536-1.945-3.886 3.887M74.574 15.55h13.223m0 0h13.223"/><path d="M96.813 15.55v1.981l4.207-1.98-4.207-1.98Zm0 0"/><path fill="none" stroke="#000" stroke-miterlimit="10" stroke-width=".7952864500000001" d="M101.02 2.594h25.917v25.914H101.02Zm0 0"/><path fill="none" stroke="#000" stroke-miterlimit="10" stroke-width=".39814215000000003" d="M123.05 15.55c0-5.007-4.062-9.07-9.07-9.07-5.011 0-9.074 4.063-9.074 9.07 0 5.012 4.063 9.071 9.074 9.071a9.07 9.07 0 0 0 9.07-9.07ZM107.566 9.137l12.825 12.828m0-12.828-12.825 12.828M126.937 15.55h13.223m0 0h13.223"/><path d="M149.176 15.55v1.981l4.207-1.98-4.207-1.98Zm0 0"/><path fill="none" stroke="#000" stroke-miterlimit="10" stroke-width=".7952864500000001" d="M153.383 2.594h25.914v25.914h-25.914Zm0 0"/><path fill="none" stroke="#000" stroke-miterlimit="10" stroke-width=".39814215000000003" d="M159.86 9.074c1.058-1.66 2.066-3.242 3.242-3.242 1.171 0 2.183 1.582 3.238 3.242 1.055 1.656 2.066 3.239 3.238 3.239 1.172 0 2.184-1.583 3.242-3.239m-4.535-1.945-3.89 3.887M159.86 15.55c1.058-1.655 2.066-3.237 3.242-3.237 1.171 0 2.183 1.582 3.238 3.238 1.055 1.66 2.066 3.238 3.238 3.238 1.172 0 2.184-1.578 3.242-3.238M159.86 22.031c1.058-1.66 2.066-3.242 3.242-3.242 1.171 0 2.183 1.582 3.238 3.242 1.055 1.656 2.066 3.239 3.238 3.239 1.172 0 2.184-1.583 3.242-3.239m-4.535-1.945-3.89 3.887M179.297 15.55h13.223m0 0h13.222"/><path fill="#FFF" stroke="#000" stroke-miterlimit="10" stroke-width=".39814215000000003" d="M207.328 15.55a1.584 1.584 0 1 0-3.167.004 1.584 1.584 0 0 0 3.167-.003Zm0 0"/><path fill="none" stroke="#000" stroke-miterlimit="10" stroke-width=".39814215000000003" d="M113.98 28.508v19.836m0 0v19.832h-6.613m0 0h-6.61"/><path d="M113.98 32.719h1.977l-1.977-4.211-1.98 4.21Zm0 0"/><path fill="none" stroke="#000" stroke-miterlimit="10" stroke-width=".7952864500000001" d="M74.84 55.219h25.918v25.918H74.84Zm0 0"/><use xlink:href="#a" x="78.199" y="71.572"/><use xlink:href="#b" x="84.969" y="71.572"/><use xlink:href="#b" x="91.182" y="71.572"/><path fill="none" stroke="#000" stroke-miterlimit="10" stroke-width=".39814215000000003" d="M74.84 68.176H61.617m0 0H48.395"/><path d="M70.633 68.176v1.98l4.207-1.98-4.207-1.98Zm0 0"/><path fill="none" stroke="#000" stroke-miterlimit="10" stroke-width=".7952864500000001" d="M22.48 55.219h25.915v25.918H22.48Zm0 0"/><path fill="none" stroke="#000" stroke-miterlimit="10" stroke-width=".39814215000000003" d="M37.059 62.348c.527-.832 1.03-1.621 1.617-1.621.586 0 1.094.789 1.62 1.62.528.829 1.032 1.618 1.618 1.618.59 0 1.094-.79 1.621-1.617M37.059 65.586c.527-.828 1.03-1.621 1.617-1.621.586 0 1.094.793 1.62 1.62.528.83 1.032 1.622 1.618 1.622.59 0 1.094-.793 1.621-1.621M37.059 68.824c.527-.828 1.03-1.617 1.617-1.617.586 0 1.094.79 1.62 1.617.528.832 1.032 1.621 1.618 1.621.59 0 1.094-.789 1.621-1.62"/><use xlink:href="#c" x="25.704" y="68.332"/><path fill="none" stroke="#000" stroke-miterlimit="10" stroke-width=".39814215000000003" d="M26.367 72.71h18.14M26.367 77.246h18.14v-2.59h-18.14ZM26.367 79.191h18.14M87.797 81.137v13.222m0 0v13.223"/><path d="M87.797 85.344h1.98l-1.98-4.207-1.98 4.207Zm0 0"/><path fill="#FFF" d="M89.383 107.582a1.584 1.584 0 1 0-3.168-.004 1.584 1.584 0 0 0 3.168.004m0 0"/><g clip-path="url(#d)"><path fill="none" stroke="#000" stroke-miterlimit="10" stroke-width=".39814215000000003" d="M89.383 107.582a1.584 1.584 0 1 0-3.168-.004 1.584 1.584 0 0 0 3.168.004Zm0 0"/></g><use xlink:href="#e" x="91.31" y="110.974"/><use xlink:href="#f" x="98.08" y="110.974"/><use xlink:href="#g" x="103.329" y="110.974"/><use xlink:href="#h" x="107.196" y="110.974"/><use xlink:href="#c" x="114.373" y="110.974"/><use xlink:href="#a" x="122.177" y="110.974"/><use xlink:href="#i" x="128.947" y="110.974"/><use xlink:href="#j" x="134.475" y="110.974"/><use xlink:href="#k" x="142.07" y="110.974"/><use xlink:href="#l" x="3.437" y="12.04"/><use xlink:href="#m" x="8.407" y="12.04"/><use xlink:href="#m" x="13.378" y="12.04"/><use xlink:href="#n" x="19.999" y="12.04"/><use xlink:href="#o" x="29.112" y="12.04"/><use xlink:href="#p" x="36.568" y="12.04"/><use xlink:href="#q" x="188.723" y="10.106"/><use xlink:href="#r" x="193.693" y="10.106"/><use xlink:href="#m" x="196.455" y="10.106"/><use xlink:href="#s" x="203.076" y="10.106"/><use xlink:href="#o" x="210.877" y="10.106"/><use xlink:href="#p" x="218.333" y="10.106"/><use xlink:href="#t" x="20.803" y="91.656"/><use xlink:href="#u" x="27.981" y="91.656"/><use xlink:href="#v" x="35.159" y="91.656"/><use xlink:href="#k" x="42.336" y="91.656"/><use xlink:href="#l" x="19.144" y="51.707"/><use xlink:href="#w" x="24.115" y="51.707"/><use xlink:href="#n" x="30.736" y="51.707"/><use xlink:href="#o" x="39.849" y="51.707"/><use xlink:href="#p" x="47.305" y="51.707"/><use xlink:href="#q" x="117.489" y="50.774"/><use xlink:href="#r" x="122.461" y="50.774"/><use xlink:href="#q" x="125.222" y="50.774"/><use xlink:href="#x" x="130.192" y="50.774"/><use xlink:href="#y" x="135.163" y="50.774"/><use xlink:href="#s" x="141.784" y="50.774"/><use xlink:href="#o" x="149.585" y="50.774"/><use xlink:href="#p" x="157.041" y="50.774"/></svg>