<svg xmlns="http://www.w3.org/2000/svg" xmlns:xlink="http://www.w3.org/1999/xlink" width="226.771" height="44.742"><defs><path id="b" d="M4.156 0v-.312h-.328c-.89 0-.922-.11-.922-.47v-5.562c0-.234 0-.25-.219-.25-.609.625-1.484.625-1.812.625v.313c.203 0 .797 0 1.297-.25v5.125c0 .36-.016.469-.906.469H.938V0c.343-.031 1.218-.031 1.609-.031.39 0 1.25 0 1.61.031m0 0"/><path id="c" d="M4.453-1.719h-.25c-.047.297-.125.735-.219.875-.078.078-.718.078-.937.078H1.266L2.313-1.78c1.546-1.375 2.14-1.906 2.14-2.89 0-1.141-.89-1.923-2.11-1.923C1.235-6.594.5-5.687.5-4.797c0 .547.484.547.516.547a.516.516 0 0 0 .515-.531c0-.25-.172-.516-.515-.516-.079 0-.11 0-.141.016.234-.64.766-1.016 1.344-1.016.906 0 1.328.813 1.328 1.625 0 .781-.5 1.578-1.047 2.188L.61-.36C.5-.25.5-.234.5 0h3.672Zm0 0"/><path id="d" d="M5.953-2.656c0-1.531-1.156-2.75-2.578-2.75H.359v.25h.172c.625 0 .64.093.64.39V-.64c0 .297-.015.375-.64.375H.36V0h3.016c1.422 0 2.578-1.187 2.578-2.656m-.797 0c0 .406 0 1.172-.5 1.765-.281.313-.797.625-1.5.625H2.25c-.36 0-.375-.046-.375-.328v-4.234c0-.266.016-.328.375-.328h.906c.625 0 1.14.265 1.485.656.515.61.515 1.453.515 1.844m0 0"/><path id="e" d="M2.063 0v-.266c-.516 0-.547-.03-.547-.343V-3.5l-1.157.094v.265c.5 0 .579.047.579.438v2.078c0 .36-.094.36-.61.36V0c.313-.031.75-.031.875-.031.11 0 .578 0 .86.031m-.454-4.766a.44.44 0 0 0-.437-.453.44.44 0 0 0-.438.453c0 .22.188.438.438.438s.437-.219.437-.438m0 0"/><path id="f" d="M4.078-3.172c0-.14-.094-.406-.453-.406-.125 0-.516.031-.875.36a1.573 1.573 0 0 0-.875-.282C1.078-3.5.5-2.953.5-2.328c0 .375.219.656.375.812a.987.987 0 0 0-.234.641c0 .328.156.563.328.703C.563-.062.234.25.234.61c0 .579.813 1.016 1.86 1.016 1 0 1.875-.406 1.875-1.031 0-.422-.266-.766-.516-.89-.469-.25-.86-.25-1.64-.25h-.438a.511.511 0 0 1-.453-.516c0-.204.047-.266.11-.344.327.203.64.234.827.234.782 0 1.36-.547 1.36-1.156a1.13 1.13 0 0 0-.313-.766c.11-.094.36-.25.75-.265-.031.03-.062.062-.062.187 0 .14.094.25.234.25.11 0 .25-.078.25-.25m-1.484.844c0 .297-.031.5-.156.656a.745.745 0 0 1-.563.281c-.734 0-.734-.765-.734-.937 0-.297.03-.5.156-.656a.668.668 0 0 1 .562-.282c.735 0 .735.766.735.938M3.5.609c0 .422-.61.782-1.406.782-.781 0-1.39-.36-1.39-.782 0-.171.124-.64.78-.64h.75c.22 0 1.266 0 1.266.64m0 0"/><path id="g" d="M2.797-.984v-.453h-.25V-1c0 .547-.235.828-.547.828-.531 0-.531-.672-.531-.797v-2.187h1.187v-.266H1.47v-1.453h-.235c-.015.719-.343 1.469-1.078 1.5v.219h.719v2.172c0 .922.703 1.062 1.078 1.062.531 0 .844-.469.844-1.062m0 0"/><path id="h" d="M4.078-.719v-.437h-.25v.437c0 .328-.125.453-.281.453-.297 0-.297-.359-.297-.453v-1.64c0-.782-.75-1.172-1.469-1.172-.672 0-1.25.25-1.25.781a.36.36 0 0 0 .375.375.361.361 0 0 0 .375-.375.356.356 0 0 0-.297-.36c.297-.203.72-.203.782-.203.437 0 .875.313.875.954v.25c-.453.03-.985.046-1.547.28-.688.298-.828.767-.828 1.017 0 .687.797.89 1.343.89a1.23 1.23 0 0 0 1.11-.64c.047.296.25.609.594.609.093 0 .765-.031.765-.766m-1.437-.39c0 .765-.641.968-.97.968-.405 0-.75-.28-.75-.656 0-.531.485-1.062 1.72-1.11Zm0 0"/><path id="i" d="M2.11 0v-.266c-.5 0-.594 0-.594-.359V-5.5l-1.188.094v.25c.547 0 .61.062.61.453v4.078c0 .36-.094.36-.61.36V0c.313-.031.75-.031.89-.031.157 0 .595 0 .891.031m0 0"/><path id="j" d="M3.5-.953c0-.031-.031-.11-.14-.11-.079 0-.094.063-.11.11a1.141 1.141 0 0 1-1.11.781c-.359 0-.718-.156-.953-.531-.25-.36-.25-.86-.25-1.11h2.329c.187 0 .234 0 .234-.171 0-.703-.39-1.547-1.516-1.547-.984 0-1.75.812-1.75 1.797 0 1.015.86 1.812 1.86 1.812S3.5-.766 3.5-.953m-.547-1.063h-2c.063-1.109.735-1.296 1.031-1.296.938 0 .97 1.124.97 1.296m0 0"/><path id="k" d="M4.203-1.469c0-.687-.453-1.39-1.266-1.578l-1.093-.25c-.5-.125-.875-.531-.875-1.015 0-.532.453-1.032 1.14-1.032 1.375 0 1.563 1.282 1.594 1.594.016.078.031.14.125.14.14 0 .14-.062.14-.203v-1.562c0-.125 0-.203-.109-.203-.062 0-.078.031-.14.11l-.266.452c-.406-.437-.906-.562-1.344-.562-.937 0-1.64.719-1.64 1.516 0 .609.344.937.484 1.093.297.281.547.344 1.406.547.688.156.797.188 1.063.453.078.094.281.36.281.75 0 .547-.422 1.125-1.172 1.125C1.656-.094.766-.516.72-1.609.703-1.75.703-1.797.594-1.797c-.125 0-.125.063-.125.219v1.531c0 .14 0 .219.11.219C.64.172.64.156.702.078.734.031.766-.047.984-.375c.5.438 1.079.547 1.563.547.984 0 1.656-.797 1.656-1.64m0 0"/><path id="l" d="M4.453 0v-.266c-.516 0-.61 0-.61-.359v-1.781c0-.656-.296-1.094-1.124-1.094-.781 0-1.14.578-1.235.766H1.47V-3.5l-1.14.094v.265c.53 0 .593.047.593.438v2.078c0 .36-.094.36-.594.36V0c.344-.031.688-.031.906-.031.22 0 .563 0 .891.031v-.266c-.5 0-.594 0-.594-.359v-1.422c0-.844.625-1.219 1.11-1.219.484 0 .609.329.609.829v1.812c0 .36-.094.36-.61.36V0c.344-.031.688-.031.907-.031.234 0 .562 0 .906.031m0 0"/><path id="m" d="M2.328-1.453v-.516H.094v.516Zm0 0"/><path id="n" d="M4.266-3.156v-.266c-.282.031-.297.031-.625.031-.063 0-.438 0-.688-.03v.265c.281.015.344.187.344.328a.371.371 0 0 1-.047.187l-.844 2-.937-2.14c-.047-.11-.047-.172-.047-.172 0-.203.281-.203.422-.203v-.266c-.344.031-.719.031-.875.031-.156 0-.547 0-.797-.03v.265c.484 0 .531.047.64.312L2-.094c.063.125.11.172.219.172.11 0 .172-.062.203-.156l1.094-2.516c.187-.453.453-.547.75-.562m0 0"/><path id="o" d="M3.047-3c0-.266-.266-.5-.61-.5-.515 0-.859.39-1.03.844V-3.5L.28-3.406v.265c.532 0 .594.047.594.438v2.078c0 .36-.094.36-.594.36V0c.313-.031.735-.031.938-.031.453 0 .468 0 .984.031v-.266h-.156c-.578 0-.594-.078-.594-.375v-1.171c0-.594.25-1.438 1.016-1.454-.047.032-.125.094-.125.266 0 .25.187.36.344.36.187 0 .359-.126.359-.36m0 0"/><path id="p" d="M4.39-1.719A1.79 1.79 0 0 0 2.61-3.5c-.626 0-1.016.344-1.157.484V-5.5l-1.172.094v.25c.532 0 .594.062.594.453V0h.25l.281-.484a1.35 1.35 0 0 0 1.11.562c1 0 1.875-.781 1.875-1.797m-.702 0c0 .188 0 .75-.282 1.11-.297.359-.672.468-.922.468-.39 0-.703-.203-.906-.515-.094-.14-.094-.156-.094-.297V-2.5c0-.156 0-.172.11-.312.234-.297.61-.454.968-.454.407 0 .72.235.876.485.14.203.25.484.25 1.062m0 0"/><path id="q" d="M4.453 0v-.266c-.547 0-.61-.046-.61-.437V-3.5l-1.202.094v.265c.547 0 .609.047.609.438v1.375c0 .687-.406 1.187-1.016 1.187-.671 0-.703-.343-.703-.734V-3.5l-1.203.094v.265c.594 0 .594.016.594.72v1.187c0 .578 0 1.312 1.265 1.312.75 0 1.032-.562 1.079-.64v.64Zm0 0"/><clipPath id="a"><path d="M.535 14H78v1H.535Zm0 0"/></clipPath></defs><g clip-path="url(#a)"><path fill="none" stroke="#000" stroke-miterlimit="10" stroke-width=".39671373000000004" d="M.734 14.207h24.371m27.622 0h24.37"/></g><path fill="none" stroke="#000" stroke-miterlimit="10" stroke-width=".79243319" d="M25.105.395h27.622v27.62H25.105Zm0 0"/><path d="M20.914 14.207v1.973l4.191-1.973-4.19-1.973Zm0 0"/><path fill="none" stroke="#000" stroke-miterlimit="10" stroke-width=".39671373000000004" d="M25.105 28.016 52.727.395"/><use xlink:href="#b" x="36.439" y="39.318"/><path d="M72.906 14.207v1.973l4.192-1.973-4.192-1.973Zm0 0"/><path fill="none" stroke="#000" stroke-miterlimit="10" stroke-width=".79243319" d="M77.098.395h69.05v27.62h-69.05Zm0 0"/><path fill="none" stroke="#000" stroke-miterlimit="10" stroke-width=".39671373000000004" d="M146.148 14.207h24.372m27.62 0h24.372"/><path fill="none" stroke="#000" stroke-miterlimit="10" stroke-width=".79243319" d="M170.52.395h27.62v27.62h-27.62Zm0 0"/><path d="M166.328 14.207v1.973l4.192-1.973-4.192-1.973Zm0 0"/><path fill="none" stroke="#000" stroke-miterlimit="10" stroke-width=".39671373000000004" d="M170.52 28.016 198.14.395"/><use xlink:href="#c" x="181.853" y="39.318"/><path d="M218.32 14.207v1.973l4.192-1.973-4.192-1.973Zm0 0"/><use xlink:href="#d" x="83.162" y="9.474"/><use xlink:href="#e" x="89.588" y="9.474"/><use xlink:href="#f" x="91.926" y="9.474"/><use xlink:href="#e" x="96.134" y="9.474"/><use xlink:href="#g" x="98.472" y="9.474"/><use xlink:href="#h" x="101.745" y="9.474"/><use xlink:href="#i" x="105.952" y="9.474"/><use xlink:href="#j" x="108.29" y="9.474"/><use xlink:href="#k" x="114.836" y="9.474"/><use xlink:href="#e" x="119.511" y="9.474"/><use xlink:href="#f" x="121.849" y="9.474"/><use xlink:href="#l" x="126.057" y="9.474"/><use xlink:href="#h" x="130.732" y="9.474"/><use xlink:href="#i" x="134.94" y="9.474"/><use xlink:href="#m" x="137.278" y="9.474"/><use xlink:href="#n" x="88.352" y="22.892"/><use xlink:href="#j" x="92.56" y="22.892"/><use xlink:href="#o" x="96.3" y="22.892"/><use xlink:href="#h" x="99.581" y="22.892"/><use xlink:href="#o" x="103.789" y="22.892"/><use xlink:href="#p" x="107.069" y="22.892"/><use xlink:href="#j" x="111.982" y="22.892"/><use xlink:href="#e" x="115.723" y="22.892"/><use xlink:href="#g" x="118.06" y="22.892"/><use xlink:href="#q" x="121.333" y="22.892"/><use xlink:href="#l" x="126.009" y="22.892"/><use xlink:href="#f" x="130.684" y="22.892"/></svg>