<svg xmlns="http://www.w3.org/2000/svg" xmlns:xlink="http://www.w3.org/1999/xlink" width="223.181" height="168.625"><defs><path id="a" d="M4.156 0v-.312h-.312c-.89 0-.922-.11-.922-.47v-5.562c0-.25 0-.265-.235-.265-.609.64-1.484.64-1.796.64v.297c.187 0 .78 0 1.297-.25v5.14c0 .36-.032.47-.922.47H.938V0c.359-.031 1.218-.031 1.609-.031.406 0 1.265 0 1.61.031m0 0"/><path id="b" d="M4.453-1.719h-.25c-.047.297-.11.735-.219.875-.062.078-.718.078-.937.078H1.266L2.313-1.78c1.546-1.375 2.14-1.906 2.14-2.907 0-1.125-.89-1.921-2.11-1.921C1.235-6.61.5-5.687.5-4.812c0 .562.484.562.516.562a.516.516 0 0 0 .515-.531c0-.266-.172-.516-.515-.516-.079 0-.11 0-.125.016.218-.657.75-1.016 1.328-1.016.906 0 1.328.797 1.328 1.61 0 .796-.485 1.578-1.031 2.203L.609-.36C.5-.266.5-.234.5 0h3.672Zm0 0"/><path id="c" d="M4.531-1.703c0-.813-.625-1.578-1.656-1.797.813-.266 1.39-.953 1.39-1.734 0-.813-.874-1.375-1.827-1.375-1 0-1.75.593-1.75 1.343 0 .329.218.516.5.516.312 0 .515-.203.515-.5 0-.5-.469-.5-.625-.5.313-.484.969-.61 1.328-.61.406 0 .953.22.953 1.11 0 .125-.03.703-.28 1.125-.298.484-.642.516-.892.516a3.306 3.306 0 0 1-.374.03c-.094.017-.157.032-.157.126 0 .11.063.11.235.11h.437c.813 0 1.188.671 1.188 1.64 0 1.36-.688 1.64-1.125 1.64-.422 0-1.172-.171-1.516-.75.344.047.656-.171.656-.546 0-.36-.265-.563-.562-.563-.235 0-.547.14-.547.578 0 .907.922 1.563 2 1.563 1.203 0 2.11-.906 2.11-1.922m0 0"/></defs><path fill="none" stroke="#000" stroke-miterlimit="10" stroke-width="1.19162264" d="M.598 6.734h193.34"/><use xlink:href="#a" x="210.787" y="10.04"/><path fill="none" stroke="#000" stroke-miterlimit="10" stroke-width="1.19162264" d="M87.602 103.402H58.598m0 0h-29a5.798 5.798 0 1 1 0-11.597"/><path fill="#FFF" stroke="#000" stroke-miterlimit="10" stroke-width="1.19162264" d="M89.18 103.402a1.58 1.58 0 1 0-3.161.003 1.58 1.58 0 0 0 3.16-.003Zm0 0"/><path fill="none" stroke="#000" stroke-miterlimit="10" stroke-width="1.19162264" d="M106.934 103.402h29m0 0h29.004a5.798 5.798 0 1 0 0-11.597"/><path fill="#FFF" stroke="#000" stroke-miterlimit="10" stroke-width="1.19162264" d="M108.516 103.402a1.582 1.582 0 0 0-3.164 0 1.583 1.583 0 0 0 3.164 0Zm0 0"/><path fill="none" stroke="#000" stroke-miterlimit="10" stroke-width="1.19162264" d="M29.598 91.805h135.34"/><use xlink:href="#b" x="181.787" y="100.911"/><path fill="none" stroke="#000" stroke-miterlimit="10" stroke-width="1.19162264" d="M29.598 161.406h135.34"/><use xlink:href="#c" x="181.787" y="164.603"/></svg>