<svg xmlns="http://www.w3.org/2000/svg" width="115.275" height="56.975"><defs><clipPath id="a"><path d="M0 .164h62v56.621H0Zm0 0"/></clipPath><clipPath id="b"><path d="M50 .164h64.555v56.621H50Zm0 0"/></clipPath><clipPath id="c"><path d="M55 .164h2V30h-2Zm0 0"/></clipPath><clipPath id="d"><path d="M55 27h2v29.785h-2Zm0 0"/></clipPath></defs><g clip-path="url(#a)"><path fill="none" stroke="#000" stroke-miterlimit="10" stroke-width=".39650625" d="M55.629 28.477c0-15.309-12.41-27.715-27.715-27.715C12.605.762.2 13.168.2 28.477.2 43.78 12.605 56.19 27.914 56.19c15.305 0 27.715-12.41 27.715-27.714Zm0 0"/></g><g clip-path="url(#b)"><path fill="none" stroke="#000" stroke-miterlimit="10" stroke-width=".39650625" d="M111.062 28.477c0-15.309-12.41-27.715-27.718-27.715-15.305 0-27.715 12.406-27.715 27.715 0 15.304 12.41 27.714 27.715 27.714 15.308 0 27.718-12.41 27.718-27.714Zm0 0"/></g><g clip-path="url(#c)"><path fill="none" stroke="#000" stroke-miterlimit="10" stroke-width="1.188525" d="M55.629 28.477V.762"/></g><g clip-path="url(#d)"><path fill="none" stroke="#000" stroke-miterlimit="10" stroke-width="1.188525" d="M55.629 28.477V56.19"/></g></svg>