<svg xmlns="http://www.w3.org/2000/svg" width="224.753" height="52.55"><defs><clipPath id="a"><path d="M39 0h169v52.105H39Zm0 0"/></clipPath></defs><g clip-path="url(#a)"><path fill="none" stroke="#000" stroke-miterlimit="10" stroke-width=".39561249000000004" d="M44.691 26.05s-.003 0 0 0c.008 0 .012 0 .032-.003.02-.004.054-.008.109-.02.055-.011.164-.035.29-.066.12-.031.362-.09.597-.16.234-.07.687-.203 1.086-.332.398-.13 1.16-.383 1.78-.598.618-.219 1.786-.637 2.688-.973.903-.332 2.579-.96 3.82-1.433 1.243-.473 3.509-1.344 5.141-1.961 1.633-.621 4.567-1.742 6.621-2.504 2.055-.758 5.696-2.102 8.188-2.973 2.492-.87 6.848-2.367 9.77-3.297 2.921-.93 7.976-2.488 11.289-3.402 3.312-.914 8.945-2.379 12.574-3.187 3.633-.809 9.746-2.032 13.597-2.641 3.848-.605 10.22-1.422 14.149-1.73 3.93-.313 10.32-.575 14.18-.516 3.855.059 10.023.45 13.625.922 3.601.472 9.167 1.59 12.328 2.492 3.156.902 7.89 2.707 10.441 4 2.55 1.293 6.14 3.703 7.93 5.312 1.789 1.61 4.023 4.47 4.953 6.282.93 1.812 1.734 4.906 1.734 6.789s-.804 4.976-1.734 6.789c-.93 1.812-3.164 4.672-4.953 6.281-1.79 1.61-5.387 4.02-7.938 5.313-2.547 1.293-7.277 3.097-10.433 4-3.16.902-8.727 2.02-12.328 2.492-3.598.472-9.758.867-13.618.926-3.859.054-10.254-.207-14.187-.52-3.934-.312-10.309-1.125-14.156-1.734-3.852-.606-9.957-1.832-13.59-2.637-3.63-.809-9.262-2.274-12.574-3.188-3.313-.914-8.364-2.468-11.286-3.398-2.921-.93-7.277-2.43-9.77-3.3-2.491-.872-6.136-2.216-8.19-2.973-2.055-.762-4.989-1.883-6.622-2.504-1.632-.618-3.898-1.489-5.14-1.961-1.242-.469-2.918-1.102-3.82-1.434a156.94 156.94 0 0 0-2.688-.969 83.5 83.5 0 0 0-1.785-.601c-.395-.13-.848-.262-1.082-.332-.235-.067-.477-.13-.598-.16-.125-.032-.234-.055-.289-.067-.055-.011-.09-.015-.11-.02-.019-.003-.023-.003-.03-.003-.004 0 0 0 0 0"/></g><path fill="none" stroke="#000" stroke-miterlimit="10" stroke-width=".39561249000000004" d="M44.691 26.05h-.007c-.004.005-.008.005-.02.009-.008 0-.027.007-.047.015l-.097.04-.176.085c-.067.031-.188.098-.29.153-.097.054-.284.16-.425.242-.145.086-.406.242-.606.363-.195.117-.55.336-.808.492-.258.156-.719.438-1.047.63-.324.19-.902.53-1.3.75-.4.218-1.095.597-1.567.831-.477.238-1.297.633-1.844.867-.543.23-1.48.606-2.09.817-.61.207-1.644.523-2.304.683-.66.16-1.766.375-2.454.461-.687.086-1.82.16-2.507.153-.692-.012-1.809-.102-2.465-.215a14.68 14.68 0 0 1-2.262-.625c-.586-.227-1.477-.684-1.953-1.016-.48-.328-1.16-.945-1.5-1.36-.34-.413-.766-1.152-.942-1.62-.18-.47-.332-1.266-.332-1.754s.153-1.285.332-1.754c.176-.469.602-1.207.942-1.621.34-.41 1.023-1.031 1.5-1.36.48-.332 1.367-.789 1.953-1.015.582-.227 1.61-.508 2.262-.621.656-.117 1.773-.211 2.46-.22a23.49 23.49 0 0 1 2.512.153c.688.086 1.793.301 2.454.461.66.16 1.695.477 2.304.684.61.21 1.547.586 2.09.816.547.235 1.367.63 1.84.867a46.188 46.188 0 0 1 2.871 1.582c.328.192.789.473 1.047.63l.808.492.606.363c.14.082.328.187.426.242.101.055.222.121.289.152.062.036.136.067.176.086l.097.04c.02.007.04.015.047.015.012.004.016.008.02.008h.007M7.613 26.05H213.61"/></svg>