<svg xmlns="http://www.w3.org/2000/svg" width="113.503" height="64.835"><defs><clipPath id="a"><path d="M21 .059h92.008v64.554H21Zm0 0"/></clipPath></defs><g clip-path="url(#a)"><path fill="none" stroke="#000" stroke-miterlimit="10" stroke-width=".39726036000000003" d="M27.527 32.332s-.004 0 0 0c0 0-.004.004 0 0l.016-.004c.008-.004.027-.012.055-.027.023-.012.074-.04.129-.078.05-.04.16-.118.257-.2.094-.082.282-.246.438-.402.156-.156.45-.457.68-.715.226-.258.652-.75.972-1.14.32-.391.903-1.125 1.332-1.676.43-.547 1.203-1.559 1.766-2.277.562-.72 1.566-2.016 2.289-2.903.723-.887 2.012-2.453 2.93-3.48.921-1.028 2.55-2.805 3.703-3.922 1.152-1.117 3.191-3.008 4.605-4.137 1.414-1.129 3.899-2.969 5.59-4.008 1.691-1.043 4.648-2.66 6.61-3.492 1.956-.828 5.34-2.004 7.519-2.5 2.18-.496 5.875-1.02 8.191-1.066 2.317-.047 6.176.238 8.496.726 2.317.489 6.051 1.727 8.207 2.785 2.157 1.063 5.516 3.247 7.34 4.852 1.825 1.602 4.489 4.648 5.813 6.703 1.324 2.055 3.031 5.754 3.73 8.11.7 2.351 1.313 6.394 1.313 8.851 0 2.461-.613 6.504-1.313 8.855-.699 2.356-2.406 6.055-3.73 8.11-1.324 2.055-3.992 5.098-5.817 6.703-1.828 1.602-5.18 3.79-7.336 4.852-2.156 1.058-5.89 2.296-8.207 2.785-2.32.488-6.175.777-8.492.73-2.312-.047-6.015-.578-8.195-1.074-2.184-.496-5.563-1.668-7.523-2.5-1.961-.832-4.915-2.445-6.606-3.488-1.691-1.04-4.176-2.88-5.59-4.008-1.414-1.129-3.453-3.02-4.605-4.137-1.153-1.117-2.782-2.894-3.7-3.922-.921-1.027-2.21-2.593-2.933-3.48-.727-.887-1.727-2.184-2.29-2.906-.562-.72-1.335-1.727-1.765-2.278-.43-.547-1.011-1.281-1.332-1.672-.32-.39-.746-.882-.972-1.14-.23-.258-.524-.559-.68-.715-.156-.156-.344-.32-.438-.402-.097-.083-.207-.16-.257-.2-.055-.039-.106-.066-.13-.082l-.054-.023-.016-.004c-.004-.004 0-.004 0-.004-.004 0 0 0 0 0"/></g><path fill="none" stroke="#000" stroke-miterlimit="10" stroke-width=".39726036000000003" d="M27.527 32.332h-.004c0 .004 0 .004-.003.004-.004 0-.008.004-.016.008-.012.004-.027.015-.047.027l-.082.067a1.858 1.858 0 0 0-.148.132c-.051.055-.149.153-.227.239-.074.086-.219.25-.324.382-.106.13-.301.375-.446.555l-.585.762c-.188.238-.524.672-.766.969a28.192 28.192 0 0 1-2.21 2.465 23.64 23.64 0 0 1-1.536 1.378c-.469.38-1.297.992-1.863 1.336-.563.348-1.547.887-2.2 1.164-.656.278-1.78.668-2.507.836-.727.164-1.961.34-2.731.356-.773.015-2.059-.082-2.832-.242-.773-.165-2.02-.579-2.738-.93-.719-.356-1.836-1.082-2.446-1.617-.609-.536-1.496-1.551-1.937-2.235-.441-.687-1.012-1.918-1.242-2.703-.235-.785-.438-2.133-.438-2.953 0-.816.203-2.164.438-2.95.23-.784.8-2.015 1.242-2.702.441-.684 1.332-1.7 1.941-2.235.606-.535 1.723-1.261 2.442-1.617.718-.351 1.965-.765 2.738-.93.773-.16 2.059-.257 2.828-.242.774.016 2.008.192 2.735.36.726.164 1.855.554 2.507.832.653.277 1.637.816 2.2 1.164.566.343 1.394.957 1.863 1.336a23.64 23.64 0 0 1 2.77 2.683c.308.344.738.867.976 1.16.242.297.578.73.766.97l.585.757c.145.184.34.43.446.559.105.132.25.296.324.382.078.086.176.184.227.239.05.05.113.105.148.132.031.028.066.055.082.067.02.012.035.023.047.027.008.004.012.008.016.008h.003c.004.004.004 0 .004 0"/><path fill="none" stroke="#000" stroke-miterlimit="10" stroke-width="1.19078544" d="M27.527 46V18.668"/></svg>