<svg xmlns="http://www.w3.org/2000/svg" width="116.124" height="45.043"><defs><clipPath id="a"><path d="M6 0h56v44.105H6Zm0 0"/></clipPath><clipPath id="b"><path d="M50 0h56v44.105H50Zm0 0"/></clipPath><clipPath id="c"><path d="M.777 21H57v2H.777Zm0 0"/></clipPath></defs><g clip-path="url(#a)"><path fill="none" stroke="#000" stroke-miterlimit="10" stroke-width=".3907008" d="M56.008 22.055c0-12.075-9.785-21.86-21.856-21.86-12.074 0-21.859 9.785-21.859 21.86 0 12.07 9.785 21.855 21.86 21.855 12.07 0 21.855-9.785 21.855-21.855Zm0 0"/></g><g clip-path="url(#b)"><path fill="none" stroke="#000" stroke-miterlimit="10" stroke-width=".3907008" d="M99.727 22.055c0-12.075-9.79-21.86-21.86-21.86-12.074 0-21.86 9.785-21.86 21.86 0 12.07 9.786 21.855 21.86 21.855 12.07 0 21.86-9.785 21.86-21.855Zm0 0"/></g><path fill="none" stroke="#000" stroke-miterlimit="10" stroke-width="1.1711231999999998" d="M56.008 22.055h54.644"/><g clip-path="url(#c)"><path fill="none" stroke="#000" stroke-miterlimit="10" stroke-width="1.1711231999999998" d="M56.008 22.055H1.363"/></g></svg>