<svg xmlns="http://www.w3.org/2000/svg" width="113.458" height="113.295"><defs><clipPath id="a"><path d="M38 39h74.836v62H38Zm0 0"/></clipPath><clipPath id="b"><path d="M48 1h64.836v85H48Zm0 0"/></clipPath><clipPath id="c"><path d="M.082 1H61v85H.082Zm0 0"/></clipPath><clipPath id="d"><path d="M.082 39H72v62H.082Zm0 0"/></clipPath><clipPath id="e"><path d="M8 73h94v39.594H8Zm0 0"/></clipPath></defs><g clip-path="url(#a)"><path fill="none" stroke="#000" stroke-miterlimit="10" stroke-width="1.18860872" d="m54.863 55.855 47.856 27.63"/></g><g clip-path="url(#b)"><path fill="none" stroke="#000" stroke-miterlimit="10" stroke-width=".39653418" d="M95.078 79.5s2.512-2.355 3.402-3.328a49.343 49.343 0 0 0 3.004-3.692 48.379 48.379 0 0 0 2.559-4.011 49.695 49.695 0 0 0 2.086-4.278 49.357 49.357 0 0 0 1.578-4.492 49.52 49.52 0 0 0 1.055-4.64c.215-1.301.445-3.414.515-4.73.067-1.317.051-3.446-.03-4.759a50.514 50.514 0 0 0-.579-4.726 50.822 50.822 0 0 0-1.113-4.63 50.551 50.551 0 0 0-1.64-4.468 49.659 49.659 0 0 0-2.138-4.25 50.508 50.508 0 0 0-2.613-3.976 49.578 49.578 0 0 0-3.05-3.657 50.588 50.588 0 0 0-3.45-3.277 50.105 50.105 0 0 0-3.805-2.86 49.016 49.016 0 0 0-4.105-2.406 48.623 48.623 0 0 0-4.356-1.922 49.727 49.727 0 0 0-4.546-1.406 48.553 48.553 0 0 0-4.676-.879 50.792 50.792 0 0 0-4.75-.336 50.869 50.869 0 0 0-4.754.211 50.48 50.48 0 0 0-4.7.754c-1.284.285-4.581 1.29-4.581 1.29"/></g><path fill="none" stroke="#000" stroke-miterlimit="10" stroke-width="1.18860872" d="M54.863 55.855V.594"/><g clip-path="url(#c)"><path fill="none" stroke="#000" stroke-miterlimit="10" stroke-width=".39653418" d="M55.23 9.207s-3.293-1.004-4.582-1.285a49.226 49.226 0 0 0-4.699-.758 50.869 50.869 0 0 0-4.754-.21c-1.32.015-3.441.167-4.746.335a50.083 50.083 0 0 0-4.68.875c-1.28.32-3.312.95-4.546 1.41-1.235.461-3.18 1.32-4.356 1.918a49.694 49.694 0 0 0-4.105 2.41 50.105 50.105 0 0 0-3.805 2.86 49.704 49.704 0 0 0-3.45 3.281 49.516 49.516 0 0 0-3.05 3.652 49.794 49.794 0 0 0-2.613 3.977 49.165 49.165 0 0 0-2.137 4.254 50.1 50.1 0 0 0-1.64 4.469A50.741 50.741 0 0 0 .952 41.02a49.301 49.301 0 0 0-.574 4.722A48.324 48.324 0 0 0 .348 50.5a50.67 50.67 0 0 0 .511 4.734c.22 1.301.692 3.375 1.055 4.641a49.308 49.308 0 0 0 1.582 4.488 49.732 49.732 0 0 0 2.082 4.282 49.42 49.42 0 0 0 2.559 4.011 49.526 49.526 0 0 0 3.004 3.692c.89.972 3.406 3.324 3.406 3.324"/></g><g clip-path="url(#d)"><path fill="none" stroke="#000" stroke-miterlimit="10" stroke-width="1.18860872" d="m54.863 55.855-47.86 27.63"/></g><g clip-path="url(#e)"><path fill="none" stroke="#000" stroke-miterlimit="10" stroke-width=".39653418" d="M14.277 78.86s.782 3.355 1.18 4.613a50.5 50.5 0 0 0 1.695 4.445c.54 1.203 1.52 3.09 2.192 4.223a50.605 50.605 0 0 0 2.668 3.945 48.527 48.527 0 0 0 3.097 3.61 49.673 49.673 0 0 0 3.493 3.234c1.02.84 2.734 2.097 3.84 2.812a50.12 50.12 0 0 0 4.136 2.352 50.084 50.084 0 0 0 4.379 1.863 50.14 50.14 0 0 0 4.566 1.348c1.282.3 3.38.664 4.688.816a49.5 49.5 0 0 0 4.75.277c1.32 0 3.445-.125 4.754-.277a50.028 50.028 0 0 0 4.687-.816 50.14 50.14 0 0 0 4.567-1.348 50.084 50.084 0 0 0 4.379-1.863c1.18-.586 3.03-1.633 4.136-2.352a49.833 49.833 0 0 0 3.84-2.812 49.618 49.618 0 0 0 3.492-3.23 49.53 49.53 0 0 0 3.098-3.614c.8-1.05 1.992-2.813 2.668-3.945a50.233 50.233 0 0 0 2.191-4.223 48.151 48.151 0 0 0 1.696-4.445c.398-1.258 1.176-4.614 1.176-4.614"/></g><path fill="#FFF" stroke="#000" stroke-miterlimit="10" stroke-width=".7920745400000001" d="M60.496 55.855a5.636 5.636 0 1 0-11.271-.002 5.636 5.636 0 0 0 11.271.002Zm0 0"/><path d="M57.117 55.855a2.255 2.255 0 1 0-4.51.002 2.255 2.255 0 0 0 4.51-.002m0 0"/></svg>