<svg xmlns="http://www.w3.org/2000/svg" xmlns:xlink="http://www.w3.org/1999/xlink" width="228.972" height="112.358"><defs><path id="b" d="m6.781-4.484-.187-2.22H.547l-.188 2.22h.25C.75-6.078.891-6.406 2.391-6.406c.172 0 .437 0 .53.031.204.031.204.14.204.375v5.219c0 .328 0 .469-1.031.469h-.406V0c.406-.031 1.421-.031 1.875-.031.453 0 1.484 0 1.89.031v-.312h-.406c-1.031 0-1.031-.141-1.031-.47V-6c0-.203 0-.344.172-.375.109-.031.375-.031.562-.031 1.5 0 1.656.328 1.781 1.922Zm0 0"/><path id="c" d="M7.188 0v-.312H7c-.516 0-.719-.047-.922-.344L3.984-3.828l1.36-1.985c.218-.312.547-.64 1.437-.64v-.313l-1.11.032c-.39 0-.874 0-1.265-.032v.313c.39 0 .61.219.61.453 0 .094-.016.11-.079.219l-1.14 1.687L2.53-6.016c-.031-.03-.078-.109-.078-.14 0-.125.219-.297.64-.297v-.313c-.343.032-1.062.032-1.437.032L.36-6.766v.313h.204c.53 0 .718.062.906.344l1.828 2.75L1.672-.953c-.14.187-.438.64-1.438.64V0l1.11-.031c.36 0 .906 0 1.265.031v-.312c-.453 0-.625-.266-.625-.454 0-.093.032-.125.094-.234l1.406-2.078 1.563 2.36c.031.046.062.077.062.109 0 .125-.218.297-.656.297V0c.344-.031 1.078-.031 1.453-.031Zm0 0"/><path id="d" d="M6.172 0v-.266c-.281 0-.563 0-.781-.312L3.375-3.297l1.563-1.375c.515-.469.937-.469 1.125-.484v-.25c-.313.015-.329.015-.735.015-.406 0-.437 0-.953-.015v.25c.156.015.297.093.297.25 0 .062-.016.156-.172.297L1.875-2.297v-2.469c0-.296.016-.39.625-.39h.172v-.25l-1.156.015-1.172-.015v.25h.172c.625 0 .64.093.64.39V-.64c0 .297-.015.375-.64.375H.344V0l1.172-.031L2.672 0v-.266H2.5c-.61 0-.625-.078-.625-.375v-1.328l1.031-.906L4.437-.75c.079.094.141.172.141.266 0 .218-.281.218-.422.218V0l1.078-.031c.22 0 .657 0 .938.031m0 0"/><path id="e" d="M4.078-.719v-.437h-.25v.437c0 .328-.125.453-.281.453-.297 0-.297-.359-.297-.453v-1.64c0-.782-.75-1.172-1.469-1.172-.672 0-1.25.25-1.25.781a.36.36 0 0 0 .375.375.361.361 0 0 0 .375-.375.356.356 0 0 0-.297-.36c.297-.203.72-.203.782-.203.437 0 .875.313.875.954v.25c-.453.03-.985.046-1.547.28-.688.298-.828.767-.828 1.017 0 .687.797.89 1.343.89a1.23 1.23 0 0 0 1.11-.64c.047.296.25.609.594.609.093 0 .765-.031.765-.766m-1.437-.39c0 .765-.641.968-.97.968-.405 0-.75-.28-.75-.656 0-.531.485-1.062 1.72-1.11Zm0 0"/><path id="f" d="M4.39-1.719A1.79 1.79 0 0 0 2.61-3.5c-.626 0-1.016.344-1.157.484V-5.5l-1.172.094v.25c.532 0 .594.062.594.453V0h.25l.281-.484a1.35 1.35 0 0 0 1.11.562c1 0 1.875-.781 1.875-1.797m-.702 0c0 .188 0 .75-.282 1.11-.297.359-.672.468-.922.468-.39 0-.703-.203-.906-.515-.094-.14-.094-.156-.094-.297V-2.5c0-.156 0-.172.11-.312.234-.297.61-.454.968-.454.407 0 .72.235.876.485.14.203.25.484.25 1.062m0 0"/><path id="g" d="M3.5-.953c0-.031-.031-.11-.14-.11-.079 0-.094.063-.11.11a1.141 1.141 0 0 1-1.11.781c-.359 0-.718-.156-.953-.531-.25-.36-.25-.86-.25-1.11h2.329c.187 0 .234 0 .234-.171 0-.703-.39-1.547-1.516-1.547-.984 0-1.75.812-1.75 1.797 0 1.015.86 1.812 1.86 1.812S3.5-.766 3.5-.953m-.547-1.063h-2c.063-1.109.735-1.296 1.031-1.296.938 0 .97 1.124.97 1.296m0 0"/><path id="h" d="M2.11 0v-.266c-.5 0-.594 0-.594-.359V-5.5l-1.188.094v.25c.547 0 .61.062.61.453v4.078c0 .36-.094.36-.61.36V0c.313-.031.75-.031.89-.031.157 0 .595 0 .891.031m0 0"/><path id="i" d="M3.547 0v-.266h-.281c-.75 0-.782-.093-.782-.39v-4.39c0-.22-.015-.22-.234-.22-.312.313-.734.5-1.484.5v.266c.203 0 .64 0 1.093-.219v4.063c0 .297-.015.39-.78.39H.812V0c.328-.031 1-.031 1.359-.031.36 0 1.047 0 1.375.031m0 0"/><path id="j" d="M3.781-1.422h-.25c-.015.156-.078.563-.187.703-.047.063-.64.063-.766.063H1.172l1.062-.953c.125-.125.454-.391.579-.5.5-.453.968-.891.968-1.61 0-.937-.797-1.547-1.781-1.547-.953 0-1.578.72-1.578 1.422 0 .39.312.438.422.438.156 0 .406-.11.406-.406 0-.422-.39-.422-.484-.422.218-.578.75-.766 1.14-.766.735 0 1.125.625 1.125 1.281 0 .828-.578 1.422-1.515 2.39l-1 1.032C.422-.219.422-.203.422 0h3.125Zm0 0"/><path id="k" d="M4.39 0v-.266c-.546 0-.609-.046-.609-.437V-5.5l-1.172.094v.25c.532 0 .594.062.594.453v1.672A1.406 1.406 0 0 0 2.141-3.5c-.985 0-1.86.781-1.86 1.797A1.78 1.78 0 0 0 2.062.078c.47 0 .86-.219 1.126-.5v.5ZM3.189-.984c0 .14 0 .172-.126.328a1.146 1.146 0 0 1-.953.515c-.359 0-.687-.187-.875-.484-.218-.312-.25-.703-.25-1.062 0-.47.063-.797.25-1.063a1.14 1.14 0 0 1 .954-.516c.374 0 .765.188 1 .594Zm0 0"/><path id="l" d="M5.484-1.453c0-.64-.609-1.266-1.609-1.375.875-.188 1.375-.703 1.375-1.25 0-.703-.797-1.328-1.86-1.328H.376v.25h.172c.625 0 .64.093.64.39V-.64c0 .297-.015.375-.64.375H.375V0h3.234c1.094 0 1.875-.703 1.875-1.453M4.47-4.078c0 .547-.469 1.156-1.375 1.156H1.859v-1.906c0-.266.016-.328.375-.328h1.094c.797 0 1.14.61 1.14 1.078m.218 2.625c0 .64-.53 1.187-1.343 1.187h-1.11c-.359 0-.375-.046-.375-.328v-2.11h1.61c.765 0 1.219.626 1.219 1.25m0 0"/><path id="m" d="M5.953-2.656c0-1.531-1.156-2.75-2.578-2.75H.359v.25h.172c.625 0 .64.093.64.39V-.64c0 .297-.015.375-.64.375H.36V0h3.016c1.422 0 2.578-1.187 2.578-2.656m-.797 0c0 .406 0 1.172-.5 1.765-.281.313-.797.625-1.5.625H2.25c-.36 0-.375-.046-.375-.328v-4.234c0-.266.016-.328.375-.328h.906c.625 0 1.14.265 1.485.656.515.61.515 1.453.515 1.844m0 0"/><path id="n" d="M4.078-.719v-.437h-.25v.437c0 .328-.125.453-.281.453-.297 0-.297-.359-.297-.453v-1.64c0-.782-.75-1.172-1.469-1.172-.672 0-1.25.25-1.25.781a.36.36 0 0 0 .375.375.361.361 0 0 0 .375-.375.356.356 0 0 0-.297-.36c.297-.203.72-.203.782-.203.437 0 .875.313.875.954v.25c-.453.03-.985.046-1.547.28-.688.298-.828.767-.828 1.017 0 .687.797.89 1.343.89a1.23 1.23 0 0 0 1.11-.64c.047.296.25.609.594.609.093 0 .765-.031.765-.766m-1.437-.39c0 .765-.641.968-.97.968-.405 0-.75-.28-.75-.656 0-.531.485-1.062 1.72-1.11Zm-.86-3.657a.4.4 0 0 0-.39-.406.4.4 0 0 0-.391.406c0 .204.156.391.39.391.22 0 .391-.187.391-.39m1.438 0a.403.403 0 0 0-.406-.406c-.204 0-.376.172-.376.406 0 .204.157.391.376.391a.4.4 0 0 0 .406-.39m0 0"/><path id="o" d="M6.797 0v-.266c-.516 0-.61 0-.61-.359v-1.781c0-.64-.28-1.094-1.14-1.094-.734 0-1.094.5-1.219.734-.14-.562-.594-.734-1.11-.734-.765 0-1.14.547-1.234.766H1.47V-3.5l-1.14.094v.265c.53 0 .593.047.593.438v2.078c0 .36-.094.36-.594.36V0c.344-.031.688-.031.906-.031.22 0 .563 0 .891.031v-.266c-.5 0-.594 0-.594-.359v-1.422c0-.844.625-1.219 1.125-1.219.516 0 .594.391.594.829v1.812c0 .36-.094.36-.594.36V0c.344-.031.688-.031.906-.031.22 0 .563 0 .891.031v-.266c-.5 0-.594 0-.594-.359v-1.422c0-.844.625-1.219 1.125-1.219.516 0 .594.391.594.829v1.812c0 .36-.094.36-.594.36V0c.344-.031.688-.031.907-.031.218 0 .562 0 .906.031m0 0"/><path id="p" d="M4.39-1.719c0-.984-.796-1.781-1.765-1.781-.297 0-.766.078-1.172.5v-.5l-1.172.094v.265c.563 0 .594.047.594.375V.922c0 .36-.094.36-.594.36v.25c.344-.016.688-.016.907-.016.218 0 .562 0 .89.015v-.25c-.5 0-.594 0-.594-.36V-.39c.375.407.766.47 1.032.47 1 0 1.875-.782 1.875-1.798m-.702 0c0 .922-.579 1.578-1.22 1.578-.28 0-.64-.125-.89-.515-.094-.14-.094-.14-.094-.297v-1.688c.172-.312.579-.609 1.079-.609.609 0 1.124.672 1.124 1.531m0 0"/><path id="q" d="M2.984-5c0-.344-.328-.578-.75-.578-.593 0-1.296.422-1.296 1.281v.875H.28v.266h.657v2.531c0 .36-.094.36-.61.36V0c.313-.031.75-.031.938-.031.468 0 .484 0 1 .031v-.266h-.157c-.578 0-.593-.078-.593-.375v-2.515h.953v-.266h-.985v-.89c0-.688.391-1.047.735-1.047.14 0 .203.03.234.046-.14.063-.172.204-.172.313 0 .203.14.344.344.344.219 0 .36-.14.36-.344m0 0"/><path id="r" d="M4.453 0v-.266c-.547 0-.61-.046-.61-.437V-3.5l-1.202.094v.265c.547 0 .609.047.609.438v1.375c0 .687-.406 1.187-1.016 1.187-.671 0-.703-.343-.703-.734V-3.5l-1.203.094v.265c.594 0 .594.016.594.72v1.187c0 .578 0 1.312 1.265 1.312.75 0 1.032-.562 1.079-.64v.64Zm0 0"/><path id="s" d="M4.453 0v-.266c-.516 0-.61 0-.61-.359v-1.781c0-.656-.296-1.094-1.124-1.094-.781 0-1.14.578-1.235.766H1.47V-3.5l-1.14.094v.265c.53 0 .593.047.593.438v2.078c0 .36-.094.36-.594.36V0c.344-.031.688-.031.906-.031.22 0 .563 0 .891.031v-.266c-.5 0-.594 0-.594-.359v-1.422c0-.844.625-1.219 1.11-1.219.484 0 .609.329.609.829v1.812c0 .36-.094.36-.61.36V0c.344-.031.688-.031.907-.031.234 0 .562 0 .906.031m0 0"/><path id="t" d="M4.078-3.172c0-.14-.094-.406-.453-.406-.125 0-.516.031-.875.36a1.573 1.573 0 0 0-.875-.282C1.078-3.5.5-2.953.5-2.328c0 .375.219.656.375.812a.987.987 0 0 0-.234.641c0 .328.156.563.328.703C.563-.062.234.25.234.61c0 .579.813 1.016 1.86 1.016 1 0 1.875-.406 1.875-1.031 0-.422-.266-.766-.516-.89-.469-.25-.86-.25-1.64-.25h-.438a.511.511 0 0 1-.453-.516c0-.204.047-.266.11-.344.327.203.64.234.827.234.782 0 1.36-.547 1.36-1.156a1.13 1.13 0 0 0-.313-.766c.11-.094.36-.25.75-.265-.031.03-.062.062-.062.187 0 .14.094.25.234.25.11 0 .25-.078.25-.25m-1.484.844c0 .297-.031.5-.156.656a.745.745 0 0 1-.563.281c-.734 0-.734-.765-.734-.937 0-.297.03-.5.156-.656a.668.668 0 0 1 .562-.282c.735 0 .735.766.735.938M3.5.609c0 .422-.61.782-1.406.782-.781 0-1.39-.36-1.39-.782 0-.171.124-.64.78-.64h.75c.22 0 1.266 0 1.266.64m0 0"/><path id="u" d="M3.844-1.61c0-1.03-.781-1.765-1.656-1.765-.579 0-.907.36-1.094.75 0-.656.062-1.234.343-1.719.235-.39.641-.718 1.141-.718.156 0 .516.03.703.296-.36.016-.39.297-.39.375a.37.37 0 0 0 .375.375.37.37 0 0 0 .375-.39c0-.469-.36-.86-1.078-.86-1.094 0-2.22 1.047-2.22 2.75 0 2.157 1 2.688 1.766 2.688.391 0 .797-.11 1.157-.453.312-.313.578-.64.578-1.328m-.735 0c0 .391 0 .75-.156 1.032-.219.36-.484.5-.844.5-.421 0-.671-.281-.796-.516-.172-.343-.204-.89-.204-1.187 0-.782.438-1.375 1.047-1.375.39 0 .625.203.781.484.172.297.172.656.172 1.063m0 0"/><path id="v" d="M6.125-5.156v-.25c-.234.015-.64.015-.781.015-.157 0-.516 0-.875-.015v.25c.343 0 .531.187.531.39 0 .063 0 .094-.047.172L3.391-.75 1.734-4.781c-.03-.078-.046-.11-.046-.14 0-.235.421-.235.625-.235v-.25l-1.11.015c-.39 0-.625 0-1.031-.015v.25c.484 0 .656 0 .781.312L2.938-.016c.062.157.124.188.203.188.14 0 .172-.063.218-.188L5.25-4.625c.219-.516.719-.531.875-.531m0 0"/><path id="w" d="M3.047-3c0-.266-.266-.5-.61-.5-.515 0-.859.39-1.03.844V-3.5L.28-3.406v.265c.532 0 .594.047.594.438v2.078c0 .36-.094.36-.594.36V0c.313-.031.735-.031.938-.031.453 0 .468 0 .984.031v-.266h-.156c-.578 0-.594-.078-.594-.375v-1.171c0-.594.25-1.438 1.016-1.454-.047.032-.125.094-.125.266 0 .25.187.36.344.36.187 0 .359-.126.359-.36m0 0"/><path id="x" d="M3.031-1.016c0-.39-.234-.937-1.172-1.109a9.724 9.724 0 0 0-.53-.094c-.25-.062-.626-.234-.626-.547 0-.234.172-.562.922-.562.89 0 .938.64.953.86 0 .062.063.093.11.093.124 0 .124-.062.124-.203v-.75c0-.125 0-.203-.093-.203-.047 0-.063 0-.188.125-.015 0-.094.078-.11.078 0 0-.03 0-.077-.031-.125-.094-.36-.172-.719-.172-1.11 0-1.344.594-1.344.984s.297.625.313.64c.312.25.5.282 1.031.376.375.062.984.172.984.718 0 .313-.203.672-.937.672C.875-.14.64-.766.532-1.187.5-1.281.5-1.328.405-1.328c-.125 0-.125.062-.125.219v.984c0 .125 0 .203.094.203.047 0 .063 0 .203-.156.047-.047.125-.14.172-.188.344.329.719.344.922.344 1.016 0 1.36-.578 1.36-1.094m0 0"/><path id="y" d="M2.797-.984v-.453h-.25V-1c0 .547-.235.828-.547.828-.531 0-.531-.672-.531-.797v-2.187h1.187v-.266H1.47v-1.453h-.235c-.015.719-.343 1.469-1.078 1.5v.219h.719v2.172c0 .922.703 1.062 1.078 1.062.531 0 .844-.469.844-1.062m0 0"/><path id="z" d="M4.297 0v-.266c-.328 0-.484-.03-.766-.406l-1.14-1.484.672-.531c.515-.422.843-.454 1.046-.47v-.265c-.187.031-.296.031-.625.031-.39 0-.5-.015-.843-.03v.265c.14.015.172.11.172.156 0 .172-.157.313-.22.36l-1.14.906V-5.5l-1.172.094v.25c.532 0 .594.062.594.453v4.078c0 .36-.094.36-.594.36V0c.313-.031.735-.031.875-.031.157 0 .563 0 .875.031v-.266c-.515 0-.61 0-.61-.359v-.766l.548-.421c.015 0 .218.28.36.421.108.172.233.329.358.485.11.156.282.375.282.484 0 .14-.156.156-.25.156V0c.344-.031.703-.031.844-.031.296 0 .453 0 .734.031m0 0"/><path id="A" d="M5.25-3.922c0-.781-.844-1.484-1.984-1.484H.359v.25h.172c.625 0 .64.093.64.39V-.64c0 .297-.015.375-.64.375H.36V0l1.172-.031L2.688 0v-.266h-.172c-.61 0-.625-.078-.625-.375v-1.828h1.437c.985 0 1.922-.625 1.922-1.453m-.828 0c0 .344 0 1.219-1.344 1.219H1.875v-2.125c0-.266.016-.328.375-.328h.828c1.344 0 1.344.875 1.344 1.234m0 0"/><path id="B" d="M6.016 0v-.266h-.141c-.5 0-.578-.062-.672-.328l-1.86-4.89c-.03-.094-.062-.172-.187-.172-.14 0-.172.062-.203.172L1.188-.812c-.094.203-.25.546-.907.546V0c.25-.031.672-.031.813-.031.265 0 .5 0 .89.031v-.266c-.359 0-.562-.156-.562-.39 0-.063 0-.078.047-.172l.375-.984H4l.438 1.171c.03.094.03.141.03.141 0 .234-.405.234-.624.234V0l1.125-.031c.437 0 .578 0 1.047.031M3.89-2.078H1.938l.984-2.594Zm0 0"/><path id="C" d="M3.844-1.36c0-.656-.516-1.25-1.328-1.421.625-.235 1.093-.766 1.093-1.406 0-.625-.703-1.079-1.53-1.079-.845 0-1.485.454-1.485 1.063 0 .297.187.422.39.422.25 0 .407-.188.407-.406 0-.297-.25-.407-.422-.422.328-.422.937-.453 1.078-.453.203 0 .812.062.812.875 0 .562-.234.89-.343 1.015-.235.25-.422.266-.907.297-.14 0-.203.016-.203.125 0 .11.063.11.203.11H2c.625 0 1.031.453 1.031 1.28 0 1-.562 1.282-.984 1.282-.438 0-1.031-.156-1.313-.578.282 0 .485-.172.485-.438A.427.427 0 0 0 .78-1.53a.43.43 0 0 0-.437.453c0 .75.812 1.25 1.719 1.25 1.046 0 1.78-.734 1.78-1.531m0 0"/><path id="D" d="M6.188-1.922v-.266c-.391.032-.625.032-1.063.032-.344 0-.984 0-1.297-.031v.265h.281c.75 0 .766.094.766.39v.5c0 .157 0 .485-.422.72-.39.218-.828.218-.922.218-.812 0-2.234-.5-2.234-2.61 0-2.155 1.437-2.608 2.172-2.608.797 0 1.687.578 1.875 1.875.015.093.015.14.125.14.14 0 .14-.062.14-.219v-1.859c0-.125 0-.203-.109-.203-.047 0-.062.016-.125.11l-.406.593a2.09 2.09 0 0 0-1.578-.703C1.813-5.578.469-4.297.469-2.703.469-1.141 1.766.172 3.422.172c.61 0 1.281-.188 1.594-.656.156.218.422.484.5.484.093 0 .093-.094.093-.203v-1.36c0-.328.032-.359.579-.359m0 0"/><path id="E" d="M5.906-3.156v-.266c-.265.031-.281.031-.625.031-.25 0-.468 0-.718-.03v.265c.343.015.437.219.437.375 0 .094-.031.14-.047.187l-.75 1.969-.812-2.156c-.047-.11-.047-.125-.047-.156 0-.204.265-.22.453-.22v-.265c-.313.031-.735.031-.813.031-.171 0-.5 0-.734-.03v.265c.484 0 .5.047.656.469L2.172-.734 1.39-2.781a.595.595 0 0 1-.047-.156c0-.22.297-.22.453-.22v-.265c-.344.031-.703.031-.86.031-.14 0-.546 0-.765-.03v.265c.39 0 .469.031.562.25L1.797-.11c.047.125.062.187.187.187.141 0 .172-.094.204-.187l.843-2.235.844 2.235c.031.093.063.187.203.187.125 0 .156-.078.188-.172l.968-2.515c.063-.188.204-.532.672-.547m0 0"/><path id="F" d="M2.063 0v-.266c-.516 0-.547-.03-.547-.343V-3.5l-1.157.094v.265c.5 0 .579.047.579.438v2.078c0 .36-.094.36-.61.36V0c.313-.031.75-.031.875-.031.11 0 .578 0 .86.031m-.454-4.766a.44.44 0 0 0-.437-.453.44.44 0 0 0-.438.453c0 .22.188.438.438.438s.437-.219.437-.438m0 0"/><clipPath id="a"><path d="M.637 58H28v28H.637Zm0 0"/></clipPath></defs><g clip-path="url(#a)"><path fill="none" stroke="#000" stroke-miterlimit="10" stroke-width=".7924730400000001" d="M1.031 59.39h26.16v26.16H1.031Zm0 0"/></g><use xlink:href="#b" x="6.822" y="75.853"/><use xlink:href="#c" x="13.974" y="75.853"/><path fill="none" stroke="#000" stroke-miterlimit="10" stroke-width=".39673368000000003" d="M27.191 72.469h67.004m26.16 0h67.004V45.777m0 0V19.082"/><path fill="none" stroke="#000" stroke-miterlimit="10" stroke-width=".7924730400000001" d="M94.195 59.39h26.16v26.16h-26.16Zm0 0"/><path d="M90.004 72.469v1.972l4.191-1.972-4.191-1.973Zm0 0"/><path fill="none" stroke="#000" stroke-miterlimit="10" stroke-width=".39673368000000003" d="m98.117 62.398 18.313 10.07-18.313 10.075Zm0 0"/><path fill="none" stroke="#000" stroke-linejoin="bevel" stroke-miterlimit="10" stroke-width=".7924730400000001" d="M187.36 19.082 178.015.395h18.683Zm0 0"/><path fill="none" stroke="#000" stroke-miterlimit="10" stroke-width=".39673368000000003" d="M187.36 19.082V.395"/><use xlink:href="#d" x="46.318" y="81.469"/><use xlink:href="#e" x="52.855" y="81.469"/><use xlink:href="#f" x="57.064" y="81.469"/><use xlink:href="#g" x="61.977" y="81.469"/><use xlink:href="#h" x="65.717" y="81.469"/><use xlink:href="#i" x="70.861" y="81.469"/><use xlink:href="#j" x="52.612" y="94.049"/><use xlink:href="#k" x="58.135" y="94.049"/><use xlink:href="#l" x="62.811" y="94.049"/><use xlink:href="#m" x="41.464" y="106.706"/><use xlink:href="#n" x="47.891" y="106.706"/><use xlink:href="#o" x="52.099" y="106.706"/><use xlink:href="#p" x="59.113" y="106.706"/><use xlink:href="#q" x="63.788" y="106.706"/><use xlink:href="#r" x="66.364" y="106.706"/><use xlink:href="#s" x="71.04" y="106.706"/><use xlink:href="#t" x="75.715" y="106.706"/><use xlink:href="#u" x="75.433" y="54.266"/><use xlink:href="#k" x="80.957" y="54.266"/><use xlink:href="#l" x="85.632" y="54.266"/><use xlink:href="#v" x="94.397" y="54.266"/><use xlink:href="#g" x="100.008" y="54.266"/><use xlink:href="#w" x="103.749" y="54.266"/><use xlink:href="#x" x="107.029" y="54.266"/><use xlink:href="#y" x="110.35" y="54.266"/><use xlink:href="#n" x="113.623" y="54.266"/><use xlink:href="#w" x="117.831" y="54.266"/><use xlink:href="#z" x="121.112" y="54.266"/><use xlink:href="#r" x="125.558" y="54.266"/><use xlink:href="#s" x="130.233" y="54.266"/><use xlink:href="#t" x="134.909" y="54.266"/><use xlink:href="#A" x="101.608" y="41.766"/><use xlink:href="#B" x="106.632" y="41.766"/><use xlink:href="#d" x="139.479" y="81.469"/><use xlink:href="#e" x="146.017" y="81.469"/><use xlink:href="#f" x="150.225" y="81.469"/><use xlink:href="#g" x="155.139" y="81.469"/><use xlink:href="#h" x="158.879" y="81.469"/><use xlink:href="#j" x="164.022" y="81.469"/><use xlink:href="#C" x="145.773" y="94.049"/><use xlink:href="#k" x="151.297" y="94.049"/><use xlink:href="#l" x="155.972" y="94.049"/><use xlink:href="#m" x="134.625" y="106.794"/><use xlink:href="#n" x="141.052" y="106.794"/><use xlink:href="#o" x="145.26" y="106.794"/><use xlink:href="#p" x="152.274" y="106.794"/><use xlink:href="#q" x="156.949" y="106.794"/><use xlink:href="#r" x="159.525" y="106.794"/><use xlink:href="#s" x="164.2" y="106.794"/><use xlink:href="#t" x="168.876" y="106.794"/><use xlink:href="#B" x="190.856" y="42.197"/><use xlink:href="#s" x="197.164" y="42.197"/><use xlink:href="#y" x="201.602" y="42.197"/><use xlink:href="#g" x="204.875" y="42.197"/><use xlink:href="#s" x="208.615" y="42.197"/><use xlink:href="#s" x="213.291" y="42.197"/><use xlink:href="#g" x="217.966" y="42.197"/><use xlink:href="#j" x="190.856" y="54.776"/><use xlink:href="#k" x="196.379" y="54.776"/><use xlink:href="#l" x="201.055" y="54.776"/><use xlink:href="#D" x="190.856" y="67.434"/><use xlink:href="#g" x="197.465" y="67.434"/><use xlink:href="#E" x="201.205" y="67.434"/><use xlink:href="#F" x="207.284" y="67.434"/><use xlink:href="#s" x="209.622" y="67.434"/><use xlink:href="#s" x="214.297" y="67.434"/></svg>