<svg xmlns="http://www.w3.org/2000/svg" xmlns:xlink="http://www.w3.org/1999/xlink" width="227.334" height="266.281"><defs><path id="a" d="M3.719-6.016c.094-.359.11-.468.906-.468.234 0 .313 0 .313-.188 0-.11-.11-.11-.141-.11-.297 0-1.031.032-1.313.032-.296 0-1.03-.031-1.328-.031-.062 0-.203 0-.203.187 0 .11.094.11.281.11.422 0 .688 0 .688.187 0 .063 0 .078-.016.172L1.562-.781c-.093.375-.125.469-.906.469-.234 0-.312 0-.312.203 0 .109.11.109.14.109C.781 0 1.5-.031 1.781-.031c.313 0 1.047.031 1.344.031.078 0 .188 0 .188-.187 0-.125-.079-.125-.297-.125-.172 0-.22 0-.422-.016-.203-.016-.25-.063-.25-.172a.5.5 0 0 1 .047-.219Zm0 0"/><path id="b" d="M2.328-4.422c0-.187-.015-.187-.203-.187-.453.437-1.078.437-1.36.437v.25c.157 0 .626 0 1-.187v3.547c0 .218 0 .312-.687.312H.812V0c.125 0 .97-.031 1.235-.031C2.266-.031 3.14 0 3.28 0v-.25h-.25c-.703 0-.703-.094-.703-.312Zm0 0"/><path id="c" d="M3.516-1.266H3.28c-.031.157-.094.563-.187.641-.063.031-.594.031-.688.031H1.125c.734-.64.969-.843 1.39-1.172.516-.406 1-.828 1-1.5 0-.843-.734-1.343-1.624-1.343-.875 0-1.453.593-1.453 1.234 0 .36.296.39.375.39.156 0 .359-.109.359-.359 0-.14-.047-.375-.406-.375.218-.5.687-.64 1.015-.64.688 0 1.063.53 1.063 1.093 0 .61-.438 1.094-.656 1.344L.5-.266C.438-.203.438-.187.438 0h2.859Zm0 0"/><path id="u" d="M1.89-2.328c.548 0 .938.375.938 1.125 0 .86-.5 1.125-.906 1.125-.281 0-.89-.078-1.172-.484.328-.016.39-.25.39-.391 0-.235-.156-.39-.374-.39-.203 0-.391.124-.391.406C.375-.281 1.094.14 1.938.14c.968 0 1.64-.641 1.64-1.344 0-.547-.453-1.078-1.219-1.25.735-.266 1-.781 1-1.203 0-.547-.64-.953-1.406-.953-.766 0-1.36.375-1.36.922 0 .234.157.374.36.374.219 0 .36-.171.36-.359 0-.203-.141-.344-.36-.36.25-.312.719-.39.985-.39.312 0 .75.156.75.766 0 .297-.094.61-.282.828-.234.265-.422.281-.765.297-.188.015-.188.015-.235.015-.015 0-.062.016-.062.094 0 .094.062.094.172.094Zm0 0"/><path id="f" d="M5.969-2.672c0-1.531-1.157-2.765-2.578-2.765H.359v.265h.188c.61 0 .625.094.625.39V-.64c0 .297-.016.375-.625.375H.359V0h3.032c1.422 0 2.578-1.187 2.578-2.672m-.797 0c0 .406 0 1.188-.5 1.766-.281.328-.797.64-1.5.64h-.906c-.375 0-.391-.046-.391-.328v-4.25c0-.265.016-.328.39-.328h.907c.625 0 1.14.25 1.484.656.516.61.516 1.454.516 1.844m0 0"/><path id="g" d="M2.063 0v-.266c-.516 0-.547-.03-.547-.343V-3.5l-1.157.078v.266c.5 0 .579.047.579.437v2.094c0 .36-.094.36-.61.36V0c.313-.031.766-.031.875-.031.11 0 .594 0 .86.031m-.454-4.781a.44.44 0 0 0-.437-.453.45.45 0 0 0-.438.453c0 .218.188.437.438.437s.437-.218.437-.437m0 0"/><path id="h" d="M4.406-1.719c0-1-.797-1.781-1.765-1.781-.313 0-.766.078-1.172.484V-3.5L.28-3.422v.266c.563 0 .594.047.594.375V.922c0 .36-.094.36-.594.36v.265c.344-.031.688-.031.907-.031.234 0 .562 0 .906.03v-.265c-.516 0-.61 0-.61-.36V-.39c.375.407.782.47 1.032.47 1.015 0 1.89-.782 1.89-1.798m-.703 0c0 .922-.578 1.578-1.219 1.578-.28 0-.64-.125-.906-.515-.094-.14-.094-.14-.094-.297v-1.688a1.253 1.253 0 0 1 1.079-.625c.624 0 1.14.688 1.14 1.547m0 0"/><path id="i" d="M3.984-1.687c0-1-.828-1.86-1.875-1.86-1.046 0-1.875.86-1.875 1.86 0 .984.86 1.765 1.875 1.765 1.032 0 1.875-.781 1.875-1.765m-.718-.079c0 .36-.016.797-.235 1.141-.219.313-.578.453-.922.453-.437 0-.765-.203-.937-.484-.203-.328-.219-.719-.219-1.11 0-.296 0-.78.235-1.125.218-.28.546-.437.921-.437.407 0 .75.203.938.484.219.328.219.766.219 1.078m0 0"/><path id="j" d="M2.125 0v-.266c-.516 0-.61 0-.61-.359v-4.89l-1.187.077v.266c.547 0 .61.063.61.453v4.094c0 .36-.094.36-.61.36V0c.313-.031.766-.031.89-.031.173 0 .595 0 .907.031m0 0"/><path id="k" d="M3.047-1.031c0-.375-.235-.938-1.172-1.11a10.121 10.121 0 0 0-.547-.093c-.25-.063-.625-.22-.625-.547 0-.235.172-.563.938-.563.89 0 .922.64.937.875.016.063.063.078.125.078.125 0 .125-.046.125-.203v-.75c0-.125 0-.203-.094-.203-.046 0-.062 0-.203.125-.015.016-.078.078-.11.078 0 0-.015 0-.062-.031-.125-.078-.359-.172-.718-.172-1.11 0-1.36.61-1.36.985 0 .406.297.624.313.656.328.234.5.265 1.031.36.375.077.984.187.984.734 0 .296-.203.671-.937.671C.875-.14.64-.766.547-1.187.516-1.281.5-1.328.407-1.328c-.126 0-.126.062-.126.219v.984c0 .125 0 .203.094.203.047 0 .063 0 .203-.156.047-.047.125-.14.172-.188.36.329.734.344.938.344 1.015 0 1.359-.578 1.359-1.11m0 0"/><path id="l" d="M3.5-.953c0-.094-.094-.094-.125-.094-.047 0-.094 0-.11.078-.062.172-.28.797-1.078.797-.5 0-1.203-.375-1.203-1.547 0-1.156.594-1.578 1.172-1.578.078 0 .485 0 .766.14a.348.348 0 0 0-.25.345c0 .218.156.374.375.374a.36.36 0 0 0 .375-.374c0-.5-.547-.735-1.297-.735A1.823 1.823 0 0 0 .281-1.719C.281-.703 1.11.078 2.11.078 3.234.078 3.5-.859 3.5-.953m0 0"/><path id="m" d="M4.469 0v-.266c-.516 0-.61 0-.61-.359v-1.781c0-.672-.296-1.094-1.125-1.094a1.37 1.37 0 0 0-1.218.688v-2.704l-1.188.079v.265c.531 0 .61.063.61.453v4.094c0 .36-.11.36-.61.36V0c.344-.031.688-.031.906-.031.235 0 .563 0 .907.031v-.266c-.516 0-.61 0-.61-.359v-1.437c0-.829.64-1.22 1.125-1.22s.61.345.61.845v1.812c0 .36-.094.36-.61.36V0c.344-.031.688-.031.906-.031.235 0 .563 0 .907.031m0 0"/><path id="n" d="M3.5-.953c0-.031-.016-.11-.125-.11-.078 0-.094.047-.11.094a1.155 1.155 0 0 1-1.124.797 1.11 1.11 0 0 1-.953-.531c-.235-.36-.235-.875-.235-1.11h2.328c.172 0 .219 0 .219-.187 0-.703-.375-1.547-1.5-1.547-.984 0-1.766.813-1.766 1.813 0 1.015.86 1.812 1.86 1.812C3.109.078 3.5-.766 3.5-.953m-.531-1.063H.953C1.031-3.14 1.703-3.328 2-3.328c.922 0 .953 1.125.969 1.312m0 0"/><path id="o" d="M4.469 0v-.266c-.516 0-.61 0-.61-.359v-1.781c0-.672-.296-1.094-1.125-1.094-.796 0-1.156.563-1.25.75v-.75l-1.156.078v.266c.531 0 .61.047.61.437v2.094c0 .36-.11.36-.61.36V0c.344-.031.688-.031.906-.031.235 0 .563 0 .907.031v-.266c-.516 0-.61 0-.61-.359v-1.437c0-.829.64-1.22 1.125-1.22s.61.345.61.845v1.812c0 .36-.094.36-.61.36V0c.344-.031.688-.031.906-.031.235 0 .563 0 .907.031m0 0"/><path id="p" d="M4.313 0v-.266c-.329 0-.485-.03-.766-.406L2.39-2.156l.672-.547c.53-.422.859-.453 1.062-.469v-.25c-.187.016-.297.016-.625.016-.39 0-.5 0-.86-.016v.25c.157.016.188.125.188.172 0 .156-.156.297-.219.344l-1.14.922v-3.782L.28-5.437v.265c.532 0 .594.063.594.453v4.094c0 .36-.094.36-.594.36V0c.313-.031.735-.031.875-.031.157 0 .563 0 .875.031v-.266c-.5 0-.594 0-.594-.359v-.766l.532-.437c.031 0 .234.281.36.437.124.172.25.329.374.485.11.156.281.36.281.484 0 .14-.156.156-.25.156V0c.344-.031.704-.031.844-.031.297 0 .453 0 .735.031m0 0"/><path id="q" d="M3.563 0v-.266H3.28c-.765 0-.781-.093-.781-.39v-4.406c0-.22-.016-.22-.234-.22-.328.313-.75.5-1.5.5v.266c.218 0 .64 0 1.109-.218v4.078c0 .297-.031.39-.781.39H.812V0c.329-.031 1.016-.031 1.36-.031.36 0 1.062 0 1.39.031m0 0"/><path id="s" d="M3.797-1.422h-.25c-.031.156-.094.563-.188.703-.046.063-.64.063-.78.063H1.171l1.078-.969c.125-.11.453-.375.578-.484.5-.453.969-.891.969-1.625C3.797-4.672 3-5.281 2-5.281c-.953 0-1.578.718-1.578 1.422 0 .39.312.453.422.453a.405.405 0 0 0 .406-.422c0-.422-.39-.422-.484-.422a1.242 1.242 0 0 1 1.156-.781c.734 0 1.11.64 1.11 1.297 0 .828-.579 1.437-1.516 2.39l-1 1.047C.422-.219.422-.203.422 0h3.14Zm0 0"/><path id="w" d="M4.625-3.656H.781c-.125 0-.219.094-.219.234 0 .125.094.219.22.219h3.843c.14 0 .234-.094.234-.219 0-.14-.093-.234-.234-.234m0 1.781H.781a.214.214 0 0 0-.219.219c0 .14.094.234.22.234h3.843c.14 0 .234-.094.234-.234 0-.125-.093-.219-.234-.219m0 0"/><path id="x" d="M.828-2.312h4.313c.125 0 .234-.11.234-.22a.24.24 0 0 0-.234-.234H.828a.24.24 0 0 0-.234.235c0 .11.11.219.234.219m0 0"/><clipPath id="d"><path d="M130 .031h27V27h-27Zm0 0"/></clipPath><clipPath id="e"><path d="M158 260h13v5.535h-13Zm0 0"/></clipPath><clipPath id="r"><path d="M52 .031h27V27H52Zm0 0"/></clipPath><clipPath id="t"><path d="M163 .031h27V27h-27Zm0 0"/></clipPath><clipPath id="v"><path d="M155 239h27v26.535h-27Zm0 0"/></clipPath></defs><path fill="none" stroke="#000" stroke-miterlimit="10" stroke-width=".39783492" d="M97.297 201.36v23.976c0 .66-1.074 1.2-2.399 1.2-1.324 0-2.398-.54-2.398-1.2v-23.977"/><path fill="#FFF" stroke="#000" stroke-miterlimit="10" stroke-width=".39783492" d="M130.863 201.36c0-9.93-16.101-17.981-35.965-17.981-19.859 0-35.96 8.05-35.96 17.98 0 9.934 16.101 17.985 35.96 17.985 19.864 0 35.965-8.051 35.965-17.985Zm0 0"/><path fill="none" stroke="#000" stroke-dasharray="2.9801026164 2.9801026164" stroke-miterlimit="10" stroke-width=".39783492" d="M126.066 201.36c0-7.282-13.953-13.184-31.168-13.184-17.214 0-31.168 5.902-31.168 13.183 0 7.286 13.954 13.188 31.168 13.188 17.215 0 31.168-5.902 31.168-13.188ZM63.73 57.512v143.847M126.066 57.512v143.847"/><path fill="#FFF" stroke="#000" stroke-dasharray="2.9801026164 2.9801026164" stroke-miterlimit="10" stroke-width=".39783492" d="M97.297 57.512v143.847H92.5V57.512"/><path fill="#FFF" fill-rule="evenodd" stroke="#000" stroke-miterlimit="10" stroke-width=".39783492" d="M130.863 57.512c0-9.93-16.101-17.98-35.965-17.98-19.859 0-35.96 8.05-35.96 17.98s16.101 17.98 35.96 17.98c19.864 0 35.965-8.05 35.965-17.98Zm-4.797 0c0-7.285-13.953-13.188-31.168-13.188-17.214 0-31.168 5.903-31.168 13.188 0 7.281 13.954 13.187 31.168 13.187 17.215 0 31.168-5.906 31.168-13.187Zm0 0"/><path fill="none" stroke="#000" stroke-miterlimit="10" stroke-width=".39783492" d="M58.937 57.512v143.847M130.863 57.512v143.847"/><path fill="#FFF" d="M92.5 49.121V34.734h4.797v14.387Zm0 0"/><path fill="none" stroke="#000" stroke-miterlimit="10" stroke-width=".39783492" d="M92.5 57.512v-17.98c0-9.934-8.047-17.985-17.98-17.985H14.582"/><path fill="none" stroke="#000" stroke-dasharray="2.9801026164 2.9801026164" stroke-miterlimit="10" stroke-width=".39783492" d="M14.582 21.547H.199M14.582 16.754H.199"/><path fill="none" stroke="#000" stroke-miterlimit="10" stroke-width=".39783492" d="M14.582 16.754H74.52c12.578 0 22.777 10.195 22.777 22.777v17.98"/><use xlink:href="#a" x="92.972" y="16.279"/><use xlink:href="#b" x="97.338" y="17.769"/><path fill="none" stroke="#000" stroke-miterlimit="10" stroke-width=".79467276" d="M97.816 26.172a26.863 26.863 0 0 0-20.957-13.39"/><path stroke="#000" stroke-miterlimit="10" stroke-width=".7946488500000001" d="m99.414 29.625.438-4.187-3.938 1.843Zm0 0"/><path fill="#FFF" d="M130.863 57.512v-17.98h-4.797v17.98Zm0 0"/><path fill="none" stroke="#000" stroke-miterlimit="10" stroke-width=".39783492" d="M130.863 57.512v-17.98c0-9.934 8.047-17.985 17.98-17.985h59.938"/><path fill="none" stroke="#000" stroke-dasharray="2.9801026164 2.9801026164" stroke-miterlimit="10" stroke-width=".39783492" d="M208.781 21.547h14.383M208.781 16.754h14.383"/><path fill="none" stroke="#000" stroke-miterlimit="10" stroke-width=".39783492" d="M208.781 16.754h-59.937c-12.582 0-22.778 10.195-22.778 22.777v17.98h4.797"/><use xlink:href="#a" x="121.567" y="16.279"/><use xlink:href="#c" x="125.934" y="17.769"/><path fill="none" stroke="#000" stroke-miterlimit="10" stroke-width=".79467276" d="M123.61 30.348a26.873 26.873 0 0 1 18.359-16.778"/><path d="m145.719 12.922-3.934-1.508.766 4.281Zm0 0"/><g clip-path="url(#d)"><path fill="none" stroke="#000" stroke-miterlimit="10" stroke-width=".79466479" d="m145.719 12.922-3.934-1.508.766 4.281Zm0 0"/></g><path fill="none" stroke="#000" stroke-miterlimit="10" stroke-width=".39783492" d="M128.465 201.36h35.96v47.953"/><path d="M131.34 201.36a2.875 2.875 0 0 0-2.875-2.876 2.878 2.878 0 0 0-2.88 2.875 2.876 2.876 0 1 0 5.754 0M167.305 225.336c0-1.59-1.29-2.875-2.88-2.875a2.872 2.872 0 0 0-2.874 2.875 2.872 2.872 0 0 0 2.875 2.875 2.876 2.876 0 0 0 2.879-2.875m0 0"/><path fill="none" stroke="#000" stroke-miterlimit="10" stroke-width=".39783492" d="M164.426 249.313v11.87"/><g clip-path="url(#e)"><path fill="none" stroke="#000" stroke-miterlimit="10" stroke-width=".79467276" d="M158.492 261.184h11.871m-9.894 1.976h7.914m-6.43 1.98h4.945"/></g><path fill="none" stroke="#000" stroke-miterlimit="10" stroke-width=".39783492" d="M97.297 225.336h67.129"/><path d="M100.172 225.336a2.872 2.872 0 0 0-2.875-2.875 2.876 2.876 0 1 0 0 5.75 2.872 2.872 0 0 0 2.875-2.875m0 0"/><path fill="#FFF" stroke="#000" stroke-miterlimit="10" stroke-width=".79467276" d="M132.176 225.332c0 6.555 5.316 11.871 11.87 11.871 6.56 0 11.872-5.316 11.872-11.871 0-6.559-5.313-11.871-11.871-11.871-6.555 0-11.871 5.312-11.871 11.871Zm0 0"/><path fill="none" stroke="#000" stroke-miterlimit="10" stroke-width=".79467276" d="M149.984 225.332c-.968 1.52-1.894 2.965-2.968 2.965-1.075 0-2-1.445-2.97-2.965-.968-1.52-1.894-2.969-2.968-2.969s-2 1.45-2.965 2.969"/><use xlink:href="#f" x="15.753" y="30.574"/><use xlink:href="#g" x="22.198" y="30.574"/><use xlink:href="#h" x="24.542" y="30.574"/><use xlink:href="#i" x="29.469" y="30.574"/><use xlink:href="#j" x="33.689" y="30.574"/><use xlink:href="#k" x="36.033" y="30.574"/><use xlink:href="#l" x="39.363" y="30.574"/><use xlink:href="#m" x="42.875" y="30.574"/><use xlink:href="#n" x="47.564" y="30.574"/><use xlink:href="#o" x="51.315" y="30.574"/><use xlink:href="#p" x="56.004" y="30.574"/><use xlink:href="#n" x="60.223" y="30.574"/><use xlink:href="#j" x="63.974" y="30.574"/><use xlink:href="#q" x="69.132" y="30.574"/><path fill="none" stroke="#000" stroke-miterlimit="10" stroke-width=".79467276" d="M44.55 12.68h19.376"/><path d="m67.73 12.68-3.605-2.176v4.348Zm0 0"/><g clip-path="url(#r)"><path fill="none" stroke="#000" stroke-miterlimit="10" stroke-width=".79467276" d="m67.73 12.68-3.605-2.176v4.348Zm0 0"/></g><use xlink:href="#a" x="52.128" y="8.805"/><use xlink:href="#b" x="56.494" y="10.294"/><use xlink:href="#f" x="150.011" y="30.574"/><use xlink:href="#g" x="156.455" y="30.574"/><use xlink:href="#h" x="158.8" y="30.574"/><use xlink:href="#i" x="163.727" y="30.574"/><use xlink:href="#j" x="167.947" y="30.574"/><use xlink:href="#k" x="170.291" y="30.574"/><use xlink:href="#l" x="173.621" y="30.574"/><use xlink:href="#m" x="177.133" y="30.574"/><use xlink:href="#n" x="181.822" y="30.574"/><use xlink:href="#o" x="185.573" y="30.574"/><use xlink:href="#p" x="190.261" y="30.574"/><use xlink:href="#n" x="194.481" y="30.574"/><use xlink:href="#j" x="198.232" y="30.574"/><use xlink:href="#s" x="203.389" y="30.574"/><path fill="none" stroke="#000" stroke-miterlimit="10" stroke-width=".79467276" d="M154.836 12.68h19.375"/><path d="m178.016 12.68-3.606-2.176v4.348Zm0 0"/><g clip-path="url(#t)"><path fill="none" stroke="#000" stroke-miterlimit="10" stroke-width=".79467276" d="m178.016 12.68-3.606-2.176v4.348Zm0 0"/></g><use xlink:href="#a" x="162.411" y="8.805"/><use xlink:href="#c" x="166.777" y="10.294"/><path fill="none" stroke="#000" stroke-miterlimit="10" stroke-width=".79467276" d="M101.371 81.484v19.375"/><path stroke="#000" stroke-miterlimit="10" stroke-width=".79467276" d="m101.371 104.668 2.176-3.61h-4.352Zm0 0"/><use xlink:href="#a" x="102.762" y="96.122"/><use xlink:href="#b" x="107.129" y="97.612"/><path fill="none" stroke="#000" stroke-miterlimit="10" stroke-width=".79467276" d="M101.371 117.45v19.37"/><path stroke="#000" stroke-miterlimit="10" stroke-width=".79467276" d="m101.371 140.629 2.176-3.61h-4.352Zm0 0"/><use xlink:href="#a" x="102.762" y="132.085"/><use xlink:href="#b" x="107.129" y="133.574"/><path fill="none" stroke="#000" stroke-miterlimit="10" stroke-width=".79467276" d="M101.371 153.41v19.375"/><path stroke="#000" stroke-miterlimit="10" stroke-width=".79467276" d="m101.371 176.59 2.176-3.606h-4.352Zm0 0"/><use xlink:href="#a" x="102.762" y="168.046"/><use xlink:href="#b" x="107.129" y="169.536"/><path fill="none" stroke="#000" stroke-miterlimit="10" stroke-width=".79467276" d="M121.992 105.46V86.087"/><path stroke="#000" stroke-miterlimit="10" stroke-width=".79467276" d="m121.992 82.281-2.176 3.61h4.352Zm0 0"/><use xlink:href="#a" x="111.777" y="96.122"/><use xlink:href="#b" x="116.143" y="97.612"/><path fill="none" stroke="#000" stroke-miterlimit="10" stroke-width=".79467276" d="M121.992 141.422V122.05"/><path stroke="#000" stroke-miterlimit="10" stroke-width=".79467276" d="m121.992 118.242-2.176 3.61h4.352Zm0 0"/><use xlink:href="#a" x="111.777" y="132.085"/><use xlink:href="#b" x="116.143" y="133.574"/><path fill="none" stroke="#000" stroke-miterlimit="10" stroke-width=".79467276" d="M121.992 177.387v-19.375"/><path stroke="#000" stroke-miterlimit="10" stroke-width=".79467276" d="m121.992 154.207-2.176 3.605h4.352Zm0 0"/><use xlink:href="#a" x="111.777" y="168.046"/><use xlink:href="#b" x="116.143" y="169.536"/><path fill="none" stroke="#000" stroke-miterlimit="10" stroke-width=".79467276" d="M121.992 67.102V40.535"/><path stroke="#000" stroke-miterlimit="10" stroke-width=".79467276" d="m121.992 36.727-2.176 3.609h4.352Zm0 0"/><use xlink:href="#a" x="110.783" y="58.53"/><use xlink:href="#c" x="115.15" y="60.02"/><path fill="none" stroke="#000" stroke-miterlimit="10" stroke-width=".79467276" d="M121.992 67.102c0-9.27 2.899-16.782 6.473-16.782 2.957 0 5.453 5.149 6.226 12.18"/><path stroke="#000" stroke-miterlimit="10" stroke-width=".7946408800000001" d="m134.89 66.309 1.973-3.727-2.172.121-2.171.125Zm0 0"/><use xlink:href="#a" x="136.083" y="59.886"/><use xlink:href="#u" x="140.451" y="61.376"/><path fill="none" stroke="#000" stroke-miterlimit="10" stroke-width=".79467276" d="M134.938 81.484v19.375"/><path stroke="#000" stroke-miterlimit="10" stroke-width=".79467276" d="m134.938 104.668 2.175-3.61h-4.351Zm0 0"/><use xlink:href="#a" x="137.321" y="96.122"/><use xlink:href="#u" x="141.687" y="97.612"/><path fill="none" stroke="#000" stroke-miterlimit="10" stroke-width=".79467276" d="M134.938 117.45v19.37"/><path stroke="#000" stroke-miterlimit="10" stroke-width=".79467276" d="m134.938 140.629 2.175-3.61h-4.351Zm0 0"/><use xlink:href="#a" x="137.321" y="132.085"/><use xlink:href="#u" x="141.687" y="133.574"/><path fill="none" stroke="#000" stroke-miterlimit="10" stroke-width=".79467276" d="M134.938 153.41v19.375"/><path stroke="#000" stroke-miterlimit="10" stroke-width=".79467276" d="m134.938 176.59 2.175-3.606h-4.351Zm0 0"/><use xlink:href="#a" x="137.321" y="168.046"/><use xlink:href="#u" x="141.687" y="169.536"/><path fill="none" stroke="#000" stroke-miterlimit="10" stroke-width=".79467276" d="M168.504 231.328v19.375"/><path d="m168.504 254.512 2.176-3.61h-4.352Zm0 0"/><g clip-path="url(#v)"><path fill="none" stroke="#000" stroke-miterlimit="10" stroke-width=".79467276" d="m168.504 254.512 2.176-3.61h-4.352Zm0 0"/></g><use xlink:href="#a" x="170.885" y="245.964"/><use xlink:href="#u" x="175.252" y="247.454"/><use xlink:href="#a" x="167.389" y="59.669"/><use xlink:href="#c" x="171.756" y="61.158"/><use xlink:href="#w" x="178.664" y="59.669"/><use xlink:href="#a" x="186.529" y="59.669"/><use xlink:href="#b" x="190.895" y="61.158"/><use xlink:href="#x" x="197.313" y="59.669"/><use xlink:href="#a" x="205.244" y="59.669"/><use xlink:href="#u" x="209.61" y="61.158"/><path fill="none" stroke="#7F7F7F" stroke-miterlimit="10" stroke-width=".39783492" d="m128.465 43.125 35.414 7.906"/></svg>