<svg xmlns="http://www.w3.org/2000/svg" xmlns:xlink="http://www.w3.org/1999/xlink" width="226.771" height="135.317"><defs><path id="c" d="M7.11 0v-.312h-.188c-.594 0-.734-.063-.844-.391l-2.14-6.188c-.047-.14-.063-.203-.22-.203-.155 0-.187.063-.234.203L1.422-.969c-.172.5-.563.657-1.11.657V0l1.016-.031L2.468 0v-.312c-.5 0-.75-.25-.75-.5 0-.032.016-.125.032-.141l.453-1.313h2.438L5.17-.75a.58.58 0 0 1 .032.14c0 .298-.562.298-.828.298V0c.36-.031 1.047-.031 1.438-.031ZM4.53-2.562H2.313l1.109-3.22Zm0 0"/><path id="e" d="M7.234-6.453v-.313c-.312.016-.703.032-.968.032L5.14-6.766v.313c.515 0 .718.266.718.484 0 .078-.03.14-.046.203L4-.984 2.11-6c-.063-.125-.063-.172-.063-.172 0-.281.562-.281.812-.281v-.313c-.359.032-1.03.032-1.406.032L.188-6.766v.313c.64 0 .828 0 .968.375L3.453 0c.078.188.125.219.25.219.172 0 .188-.047.235-.188l2.218-5.828c.14-.36.407-.656 1.078-.656m0 0"/><path id="d" d="M3.719-6.078c.062-.234.078-.344.281-.375h.594c.703 0 1.812 0 1.812.969 0 .343-.172 1.03-.547 1.406-.265.266-.78.578-1.671.578h-1.11ZM5.14-3.375c1-.219 2.187-.906 2.187-1.906 0-.844-.906-1.485-2.203-1.485H2.313c-.204 0-.297 0-.297.204 0 .109.093.109.28.109.017 0 .204 0 .376.016.187.015.265.03.265.156 0 .047 0 .062-.03.187L1.577-.766c-.11.375-.125.454-.906.454-.172 0-.266 0-.266.203C.406 0 .531 0 .546 0c.282 0 .97-.031 1.25-.031.282 0 .985.031 1.25.031.079 0 .204 0 .204-.203 0-.11-.094-.11-.281-.11-.36 0-.64 0-.64-.171 0-.063.015-.11.03-.172l.657-2.625h1.172c.906 0 1.078.562 1.078.906 0 .14-.079.453-.141.688-.062.265-.156.64-.156.828C4.969.219 6.156.219 6.297.219c.828 0 1.187-1 1.187-1.14 0-.126-.109-.126-.125-.126-.093 0-.109.078-.125.14-.25.735-.671.907-.906.907-.328 0-.39-.219-.39-.61 0-.296.062-.812.093-1.124.016-.141.047-.328.047-.47 0-.765-.672-1.062-.937-1.171m0 0"/><clipPath id="a"><path d="M.457 64H25v6H.457Zm0 0"/></clipPath><clipPath id="b"><path d="M86 99h47v35.637H86Zm0 0"/></clipPath></defs><path fill="none" stroke="#000" stroke-miterlimit="10" stroke-width=".39699702000000003" d="M12.7 12.242v49.153m0 11.847v49.153h84.538m23.692 0h84.539V83.113m0-31.59v-39.28h-84.54m-23.69 0h-84.54M12.7 69.273v3.97m0-7.88v-3.968"/><g clip-path="url(#a)"><path fill="none" stroke="#000" stroke-miterlimit="10" stroke-width=".79299906" d="M18.621 69.273H6.773m17.77-3.91H.852"/></g><g clip-path="url(#b)"><path fill="none" stroke="#000" stroke-miterlimit="10" stroke-width=".79299906" d="M109.082 110.55c-6.543 0-11.844 5.302-11.844 11.845 0 6.542 5.301 11.847 11.844 11.847 6.543 0 11.848-5.305 11.848-11.847 0-6.543-5.305-11.844-11.848-11.844Zm0 0"/></g><use xlink:href="#c" x="105.364" y="125.944"/><path fill="none" stroke="#000" stroke-miterlimit="10" stroke-width=".79299906" d="M211.39 51.523v31.59h-11.847v-31.59Zm0 0"/><use xlink:href="#d" x="213.582" y="69.455"/><path fill="none" stroke="#000" stroke-miterlimit="10" stroke-width=".79299906" d="M109.082 24.086c6.543 0 11.848-5.3 11.848-11.844 0-6.543-5.305-11.847-11.848-11.847-6.543 0-11.844 5.304-11.844 11.847 0 6.543 5.301 11.844 11.844 11.844Zm0 0"/><use xlink:href="#e" x="105.364" y="15.519"/></svg>