<svg xmlns="http://www.w3.org/2000/svg" xmlns:xlink="http://www.w3.org/1999/xlink" width="227.838" height="92.269"><defs><path id="a" d="M.563-4.562c-.657-.563-1.094-.813-1.657-.954-.765-.187-1.297.204-1.578.532-.64.765-.312 1.515-.219 1.734.266.594.844 1.11 1.172 1.39.39.329 1.016.829 1.75.938.688.094 1.172-.25 1.438-.578.25-.281.593-.89.25-1.687C1.469-3.766.937-4.25.563-4.563m-.532.468c.344.282.907.75 1.172 1.11.547.656.266 1.125.094 1.328-.172.203-.61.547-1.36.156-.406-.234-.968-.719-1.28-.969-.423-.36-.844-.719-1.126-1.047-.5-.656-.172-1.171-.047-1.328.172-.203.625-.531 1.282-.187.39.203.843.578 1.265.937m0 0"/><path id="b" d="m2.703-2.266-.172-.203-.219.172c-.562.485-.64.422-.812.219l-2.828-3.375c-.14-.156-.156-.156-.328-.016-.047.453-.235.86-.797 1.344l.172.203c.14-.14.484-.422.687-.875l2.61 3.125c.172.203.218.297-.36.781l-.203.172.172.203c.219-.234.75-.687 1.016-.906.265-.219.797-.672 1.062-.844m0 0"/><path id="c" d="M1.344-4.406c-.563-.657-.938-1-1.485-1.219-.687-.297-1.296-.016-1.625.266-.765.64-.578 1.437-.515 1.656.156.64.64 1.25.922 1.578.328.39.859.984 1.562 1.219.656.219 1.188-.047 1.516-.313.281-.25.734-.781.531-1.625-.14-.625-.594-1.187-.906-1.562m-.594.375c.281.343.75.906.953 1.297.406.734.063 1.172-.14 1.343-.204.172-.704.422-1.375-.109-.329-.281-.813-.844-1.063-1.156-.36-.422-.719-.844-.953-1.25-.375-.719.047-1.172.203-1.297.203-.172.688-.438 1.281.031.36.266.735.719 1.094 1.14m0 0"/><path id="d" d="M2.563-3.11 2.359-3c.047.172.204.531.172.703.016.094-.5.39-.625.453L.688-1.14 1.14-2.5c.046-.172.187-.578.25-.734.218-.625.39-1.22.03-1.844-.484-.828-1.468-.953-2.312-.469-.828.484-1.015 1.422-.656 2.031.188.329.5.22.594.157.125-.079.281-.313.125-.563-.203-.36-.531-.156-.625-.11a1.252 1.252 0 0 1 .61-1.25c.624-.359 1.265 0 1.609.579.406.703.203 1.516-.11 2.797L.313-.5c-.063.11-.047.125.046.297l2.72-1.563Zm0 0"/><path id="e" d="M2.094-4.094c-.438-.75-.75-1.156-1.235-1.453a1.572 1.572 0 0 0-1.671-.047c-.86.5-.797 1.328-.782 1.563.032.64.407 1.328.625 1.703.25.437.672 1.11 1.328 1.484A1.54 1.54 0 0 0 1.891-.89c.328-.187.859-.64.828-1.515-.031-.64-.375-1.266-.625-1.688m-.656.25c.218.39.578 1.016.718 1.453.281.782-.14 1.172-.375 1.297-.234.14-.765.297-1.328-.328-.297-.36-.656-1-.86-1.36-.28-.468-.562-.952-.718-1.359-.234-.796.25-1.156.422-1.265.234-.125.766-.297 1.265.25.297.328.594.843.876 1.312m0 0"/><path id="f" d="M3.14-2.594c-.218-.61-.906-1-1.734-.875.516-.422.766-1.094.563-1.687C1.75-5.75.922-5.922.156-5.641c-.812.282-1.25.938-1.047 1.485.094.281.329.343.516.265a.384.384 0 0 0 .25-.515c-.094-.266-.36-.282-.547-.235.172-.53.75-.765.875-.812.188-.063.781-.219 1.063.547.187.515.078.937.015 1.078-.14.297-.312.375-.75.578-.14.063-.187.078-.14.188.03.093.078.078.218.03l.36-.14c.594-.203 1.11.078 1.39.86.344.937-.078 1.39-.468 1.53-.407.157-1.016.22-1.422-.077.265-.094.39-.344.297-.594a.416.416 0 0 0-.563-.25c-.203.078-.344.266-.25.562C.22-.437 1.156-.234 2-.547c.984-.36 1.422-1.297 1.14-2.047m0 0"/><path id="g" d="M2.766-3.672c-.297-.812-.547-1.265-.97-1.656C1.25-5.844.579-5.797.173-5.656-.766-5.313-.86-4.5-.875-4.25c-.062.625.188 1.375.328 1.781C-.375-1.984-.078-1.25.5-.78c.531.422 1.14.36 1.531.219.344-.125.953-.47 1.047-1.344.094-.625-.14-1.297-.312-1.766m-.688.14c.156.423.406 1.11.453 1.548.14.828-.328 1.109-.578 1.203-.25.094-.812.172-1.25-.547C.47-1.734.22-2.422.078-2.812c-.187-.516-.375-1.047-.453-1.47-.11-.812.438-1.093.625-1.171.25-.094.813-.156 1.188.469.25.375.453.937.64 1.453m0 0"/><path id="h" d="m3.672-1.969-.047-.25-.828.14-.625-3.5c-.031-.155-.031-.234-.188-.202-.109.015-.109.031-.171.156L-.032-1.578l.047.25 2.203-.375.11.656c.046.281.03.36-.579.469l-.172.031.047.266L2.75-.516l1.11-.171-.047-.266-.172.031c-.594.11-.641.031-.688-.25l-.11-.656Zm-1.453 0-1.985.344 1.47-3.219Zm0 0"/><path id="i" d="M3.36-3.156C3.202-4 3.046-4.47 2.702-4.937c-.453-.61-1.11-.672-1.547-.594-.984.172-1.218.953-1.297 1.187-.156.625-.047 1.39.032 1.797.093.516.25 1.297.734 1.875.453.5 1.047.547 1.469.485a1.579 1.579 0 0 0 1.281-1.141c.188-.625.078-1.328-.016-1.828m-.704.047c.078.437.203 1.14.188 1.593-.016.844-.531 1.047-.797 1.094-.266.047-.813.016-1.125-.766C.766-1.624.64-2.343.562-2.734.47-3.281.376-3.828.376-4.281c.031-.813.61-1 .813-1.032.265-.046.812-.015 1.093.657.172.422.281 1 .375 1.547m0 0"/><path id="j" d="M3.766-1.578c0-.922-.657-1.734-1.594-1.734-.39 0-.766.124-1.063.39v-1.515c.094.03.422.109.75.109.985 0 1.594-.703 1.594-.813 0-.093-.062-.109-.094-.109 0 0-.03 0-.109.031A2.898 2.898 0 0 1 2.156-5c-.469 0-.86-.125-1.11-.219C.97-5.25.954-5.25.954-5.25c-.11 0-.11.078-.11.219v2.312c0 .156 0 .25.126.25.062 0 .094-.031.125-.094a1.281 1.281 0 0 1 1.078-.53c.437 0 .656.359.719.515.14.281.156.656.156.953 0 .297-.016.719-.235 1.078-.14.235-.468.469-.89.469-.5 0-1.016-.313-1.188-.828h.079c.218 0 .39-.14.39-.375a.388.388 0 0 0-.39-.407c-.141 0-.391.079-.391.422 0 .72.61 1.438 1.516 1.438 1 0 1.828-.766 1.828-1.75m0 0"/><path id="k" d="M3.86-2.516c0-.859-.079-1.359-.344-1.875-.344-.687-.985-.859-1.422-.859-1 0-1.36.734-1.469.953-.281.578-.297 1.36-.297 1.781 0 .516.016 1.313.406 1.954.36.578.938.734 1.36.734.375 0 1.062-.125 1.453-.906.297-.563.312-1.282.312-1.782m-.704-.093c0 .453 0 1.172-.094 1.609-.156.828-.703.938-.968.938-.266 0-.813-.125-.985-.954-.078-.453-.078-1.187-.078-1.593 0-.547 0-1.11.078-1.547.172-.797.782-.875.985-.875.265 0 .812.125.969.843.093.438.093 1.032.093 1.579m0 0"/><path id="B" d="M3.531 0v-.266H3.25c-.75 0-.766-.093-.766-.375v-4.39c0-.219-.015-.219-.234-.219-.328.313-.734.5-1.484.5v.266c.203 0 .64 0 1.093-.22V-.64c0 .282-.03.375-.78.375H.812V0c.312-.031 1-.031 1.359-.031.344 0 1.031 0 1.36.031m0 0"/><path id="l" d="M4.063-.906c.171-1.016-.454-1.89-1.313-2.047-.578-.094-.984.219-1.219.578.11-.656.266-1.203.64-1.64.298-.344.75-.594 1.235-.516.156.031.516.11.64.422-.343-.047-.421.203-.437.297-.046.234.11.39.297.421.156.032.36-.015.422-.312.078-.469-.203-.906-.89-1.031-1.079-.188-2.36.64-2.657 2.328C.406-.296 1.297.406 2.047.53c.375.078.797.031 1.203-.25.375-.219.688-.515.813-1.187m-.735-.14c-.078.39-.125.734-.344 1-.265.296-.546.39-.89.327-.422-.062-.61-.39-.703-.61-.125-.39-.047-.952.015-1.233.125-.782.657-1.266 1.266-1.157.39.063.578.313.687.61.094.297.032.656-.03 1.062m0 0"/><path id="m" d="M4.234-1.812c.157-.844.157-1.344 0-1.907C4-4.453 3.406-4.734 2.97-4.813c-.985-.171-1.469.485-1.61.688-.375.531-.515 1.297-.593 1.703-.094.516-.22 1.297.046 2 .266.625.797.89 1.22.953.374.063 1.062.063 1.593-.64.375-.5.516-1.203.61-1.703m-.671-.204c-.079.438-.204 1.141-.376 1.563-.296.781-.843.797-1.109.75C1.813.25 1.297.03 1.266-.813c0-.468.125-1.187.203-1.578.093-.546.187-1.093.343-1.515.313-.75.922-.719 1.126-.688.265.047.78.266.812 1 .016.453-.094 1.031-.187 1.578m0 0"/><path id="n" d="m5.578-3.39-1.89-.688a4.677 4.677 0 0 1-.594-.234c-.375-.172-.375-.25-.344-.36l-.234-.094-.828 1.47.234.093c.062-.11.328-.594.437-.625.11 0 .672.203.766.25L4.719-3l-1.14.719C2.311-1.453 1.718-.344 1.5.25c-.031.078-.156.422.188.547.343.125.468-.203.5-.297l.14-.36c.375-1.062.89-1.874 1.422-2.218l1.656-1.063c.094-.078.11-.093.172-.25m0 0"/><path id="o" d="M4.484-1.047c.297-.812.391-1.297.313-1.875-.078-.765-.625-1.156-1.031-1.297-.938-.343-1.532.219-1.703.407-.47.437-.75 1.156-.891 1.562C1-1.766.734-1 .875-.281 1.031.39 1.515.734 1.906.875c.344.125 1.047.25 1.672-.344.469-.437.735-1.11.906-1.578m-.625-.328c-.156.422-.406 1.11-.64 1.484-.422.735-.985.641-1.235.547-.25-.094-.718-.39-.593-1.234.078-.438.328-1.125.468-1.516.188-.515.375-1.047.61-1.437.422-.688 1.031-.563 1.219-.485.25.094.718.407.624 1.125-.062.438-.265 1-.453 1.516m0 0"/><path id="p" d="M3.984.766c.25-.422.188-.86.141-1.032-.047-.171-.047-.171-.437-.89.5.031 1.171-.047 1.468-.578.375-.657-.062-1.391-.703-1.766-.734-.422-1.61-.281-1.984.375-.156.25-.188.547-.14.844.03.203.062.219.343.75-1.078-.11-1.563.281-1.781.656-.438.766.093 1.64.843 2.078.844.484 1.829.297 2.25-.437m.829-2.703c-.22.39-.735.562-1.25.53l-.547-1c-.141-.25-.172-.546-.047-.78.25-.422.875-.422 1.36-.141.53.297.765.906.484 1.39M3.468.765c-.313.53-1.063.547-1.61.218C1.25.641.953-.078 1.281-.656c.297-.516.907-.703 1.516-.625L3.39-.187c.078.125.312.546.078.953m0 0"/><path id="q" d="M4.594-.25c.437-.75.625-1.219.64-1.797.047-.765-.421-1.234-.796-1.453-.86-.5-1.547-.047-1.75.094-.532.36-.938 1.015-1.157 1.39-.25.438-.64 1.141-.61 1.891.032.688.454 1.11.813 1.328.329.188.985.422 1.704-.078.53-.328.906-.953 1.156-1.375M4.03-.687c-.218.39-.578 1.015-.875 1.359-.562.625-1.078.453-1.312.328-.235-.14-.64-.516-.39-1.328.171-.422.53-1.063.734-1.422.28-.469.562-.953.843-1.297.547-.61 1.125-.375 1.297-.265.234.124.64.515.422 1.218-.14.422-.437.938-.719 1.406m0 0"/><path id="r" d="M4.61.484c1.327-1.578 1.015-2.609.39-3.14-.719-.594-1.828-.594-2.484.187-.657.797-.563 1.86.14 2.438.422.344.906.297 1.313.11l-.094.124c-1.234 1.469-2.156 1.14-2.516.844C1.25.937.938.657.938.344c.28.203.468 0 .53-.063a.346.346 0 0 0-.062-.5c-.11-.093-.328-.187-.515.047-.36.406-.235.938.328 1.406.828.704 2.297.547 3.39-.75M4.5-.562c-.406.468-1.14.828-1.687.375-.282-.235-.344-.5-.297-.844.062-.344.312-.625.562-.938.313-.36.516-.61.89-.734.329-.078.626-.031.907.203.406.344.25.89.219.938-.094.406-.5.875-.594 1m0 0"/><path id="s" d="M4.563.563c.562-.657.812-1.094.953-1.657.187-.765-.203-1.297-.532-1.578-.765-.64-1.515-.312-1.734-.219-.594.266-1.11.844-1.39 1.172-.329.39-.829 1.016-.938 1.75-.094.688.25 1.172.578 1.438.281.25.89.593 1.688.25.578-.25 1.062-.782 1.374-1.156M4.093.03c-.28.344-.75.907-1.109 1.172-.656.547-1.125.266-1.328.094-.203-.172-.547-.61-.156-1.36.234-.406.719-.968.969-1.28.36-.423.719-.844 1.047-1.126.656-.5 1.172-.172 1.328-.047.203.172.531.625.187 1.282-.203.39-.578.843-.937 1.265m0 0"/><path id="u" d="m2.266 2.703.203-.172-.172-.219c-.485-.562-.422-.64-.219-.812l3.375-2.828c.156-.14.156-.156.016-.328-.453-.047-.86-.235-1.344-.797l-.203.172c.14.14.422.484.875.687l-3.125 2.61c-.203.172-.297.218-.781-.36L.719.453.516.625c.234.219.687.75.906 1.016.219.265.672.797.844 1.062m0 0"/><path id="v" d="M4.406 1.344c.657-.563 1-.938 1.219-1.485.297-.687.016-1.296-.266-1.625-.64-.765-1.437-.578-1.656-.515-.64.156-1.25.64-1.578.922-.39.328-.984.859-1.219 1.562C.687.86.953 1.391 1.22 1.72c.25.281.781.734 1.625.531.625-.14 1.187-.594 1.562-.906M4.031.75c-.343.281-.906.75-1.297.953-.734.406-1.171.063-1.343-.14C1.219 1.359.969.859 1.5.188c.281-.329.844-.813 1.156-1.063.422-.36.844-.719 1.25-.953.719-.375 1.172.047 1.297.203.172.203.438.688-.031 1.281-.266.36-.719.735-1.14 1.094m0 0"/><path id="x" d="M.563-4.562c-.657-.563-1.094-.813-1.657-.954-.765-.187-1.297.204-1.578.532-.64.765-.312 1.515-.219 1.734.266.594.844 1.11 1.172 1.39.39.329 1.016.829 1.75.938.688.094 1.172-.25 1.438-.578.25-.281.593-.89.25-1.687C1.469-3.766.937-4.25.563-4.563m-.532.468c.344.282.907.75 1.172 1.11.547.656.266 1.125.094 1.328-.172.203-.61.547-1.36.156-.406-.234-.968-.719-1.28-.969-.423-.36-.844-.719-1.126-1.047-.5-.656-.172-1.171-.047-1.328.172-.203.625-.531 1.282-.187.39.203.843.578 1.265.937m0 0"/><path id="y" d="M2.281-3.375C1.766-4.156.781-4.469 0-3.953a1.603 1.603 0 0 0-.687.906l-.829-1.265c.094-.032.422-.141.688-.313.828-.547.953-1.469.89-1.562-.046-.079-.124-.063-.14-.047 0 0-.031.015-.078.093a2.718 2.718 0 0 1-.797.782c-.39.265-.781.359-1.047.422-.078.015-.094.015-.094.015-.094.063-.047.125.031.25l1.266 1.938c.094.125.14.203.25.14.047-.031.063-.078.047-.14 0-.172.047-.672.61-1.032.374-.25.75-.062.89.016.266.156.484.469.656.719.157.25.375.61.39 1.031.017.266-.14.656-.483.875C1.14-.844.53-.828.109-1.156c.016 0 .063-.047.063-.047.187-.11.25-.328.125-.531C.14-1.97-.11-1.937-.25-1.86c-.11.078-.281.28-.094.562.407.61 1.297.875 2.063.375.828-.547 1.094-1.64.562-2.453m0 0"/><path id="z" d="m3.39-1.016-.078-.25-.28.079c-.72.218-.766.125-.844-.141L.938-5.531c-.063-.219-.079-.203-.282-.14-.234.39-.562.687-1.281.905l.078.25c.188-.062.61-.187.985-.515l1.156 3.89c.078.266.078.36-.64.579l-.25.078.077.25c.282-.125.938-.313 1.281-.422.329-.094.985-.297 1.329-.36m0 0"/><path id="A" d="M2.984-3.516c-.25-.828-.468-1.28-.875-1.703C1.58-5.766.922-5.75.5-5.625c-.953.281-1.094 1.094-1.14 1.344-.094.625.109 1.375.234 1.781.14.484.39 1.25.953 1.766.5.437 1.11.422 1.5.312.36-.11 1-.437 1.14-1.297.126-.64-.062-1.328-.203-1.797m-.703.11c.125.437.344 1.125.375 1.578C2.734-1 2.25-.734 1.984-.656c-.25.062-.796.11-1.218-.625C.563-1.703.359-2.406.234-2.797c-.156-.531-.312-1.062-.359-1.5-.062-.828.5-1.062.688-1.11.265-.077.812-.124 1.171.516.22.391.391.954.547 1.485m0 0"/><path id="C" d="m4.016-.281-.22-.063c-.077.14-.25.5-.39.61-.062.078-.625-.094-.765-.141L1.297-.281l1.312-.625c.157-.078.547-.25.688-.297.61-.281 1.172-.578 1.375-1.266.266-.906-.313-1.703-1.25-1.984-.922-.281-1.719.234-1.922.906-.11.36.172.5.281.531.14.047.438 0 .516-.28.11-.392-.266-.5-.36-.532.375-.485.954-.531 1.329-.422.703.203.875.922.687 1.563-.234.78-.969 1.203-2.125 1.859l-1.25.687c-.11.063-.11.078-.172.266l2.985.89Zm0 0"/><path id="D" d="M4.422-1.297c.25-.828.312-1.344.219-1.89A1.616 1.616 0 0 0 3.5-4.437c-.953-.282-1.5.312-1.672.5-.437.468-.672 1.218-.797 1.624-.14.485-.36 1.25-.172 1.985.188.656.704.984 1.094 1.094.36.109 1.063.187 1.64-.453.47-.454.688-1.141.829-1.61m-.64-.297c-.126.438-.344 1.125-.563 1.516-.39.734-.938.687-1.203.61-.25-.063-.735-.329-.657-1.188.047-.453.25-1.156.375-1.547.157-.531.313-1.063.516-1.469.406-.703 1-.594 1.188-.547.265.078.75.344.703 1.078-.032.454-.203 1.016-.36 1.547m0 0"/><path id="E" d="M3.922.875 3.734.75c-.125.125-.39.422-.546.5-.079.031-.563-.297-.688-.375L1.328.109 2.75-.109c.172-.047.594-.078.75-.11.672-.093 1.281-.218 1.672-.812.531-.797.219-1.719-.61-2.266-.796-.515-1.718-.25-2.093.328-.219.313 0 .547.094.61.124.078.421.109.578-.141.218-.344-.11-.562-.188-.61a1.245 1.245 0 0 1 1.39-.015c.61.406.579 1.125.204 1.688C4.109-.766 3.28-.562 2-.282L.594.03C.484.047.469.063.359.234l2.61 1.72Zm0 0"/><path id="F" d="M4 .75c.516-.781.406-1.812-.375-2.328-.328-.203-.703-.313-1.094-.25l.828-1.266c.063.063.297.328.563.5.828.547 1.734.281 1.797.188.047-.078 0-.125-.016-.14 0 0-.031-.017-.11-.032a2.741 2.741 0 0 1-1.046-.406 2.918 2.918 0 0 1-.797-.797c-.047-.078-.062-.078-.062-.078-.094-.063-.141 0-.22.125L2.204-1.797c-.094.125-.14.203-.031.266.047.031.094.015.14-.016.157-.047.641-.203 1.204.156.375.25.343.657.328.829-.047.312-.235.625-.406.875-.157.25-.407.609-.797.78-.235.11-.641.126-.985-.093C1.234.719.97.172 1.11-.344c.016 0 .063.047.063.047.187.11.406.078.531-.125a.361.361 0 0 0-.11-.531c-.109-.078-.343-.156-.53.125-.407.61-.297 1.531.468 2.031C2.36 1.75 3.47 1.563 4 .75m0 0"/><path id="G" d="M3.516 2.063c.5-.422.625-1.188.218-1.922.579.343 1.297.343 1.782-.063.484-.406.359-1.234-.172-1.86-.547-.655-1.297-.859-1.75-.484-.219.188-.203.422-.078.579.172.203.406.203.578.062.218-.187.14-.437.047-.594.547-.015.937.422 1.03.531.141.157.485.672-.124 1.188-.422.36-.844.406-1.016.39-.328-.015-.468-.156-.797-.5-.109-.109-.14-.156-.218-.078-.094.063-.063.11.03.22l.25.296c.407.485.313 1.078-.312 1.61-.765.64-1.343.39-1.609.078C1.094 1.188.828.625.953.156c.188.219.469.25.672.078.188-.156.203-.421.047-.625a.425.425 0 0 0-.625-.03C.469.062.625 1 1.203 1.687c.672.796 1.703.89 2.313.375m0 0"/><path id="H" d="M4.406 1.344c.657-.563 1-.938 1.219-1.485.297-.687.016-1.296-.266-1.625-.64-.765-1.437-.578-1.656-.515-.64.156-1.25.64-1.578.922-.39.328-.984.859-1.219 1.562C.687.86.953 1.391 1.22 1.72c.25.281.781.734 1.625.531.625-.14 1.187-.594 1.562-.906M4.031.75c-.343.281-.906.75-1.297.953-.734.406-1.171.063-1.343-.14C1.219 1.359.969.859 1.5.188c.281-.329.844-.813 1.156-1.063.422-.36.844-.719 1.25-.953.719-.375 1.172.047 1.297.203.172.203.438.688-.031 1.281-.266.36-.719.735-1.14 1.094m0 0"/><path id="J" d="M16.766-16.156v-.64c-.563.046-1.203.046-1.813.046-.594 0-1.594 0-2.172-.047v.64c1.235.079 1.281.938 1.281 1.079 0 .265-.062.437-.14.64L9.078-1.812 4.016-15.078c-.079-.172-.125-.297-.125-.422 0-.656.984-.656 1.5-.656v-.64c-.797.046-1.953.046-2.766.046-.64 0-1.781 0-2.375-.047v.64c1.422 0 1.688.095 1.984.891L8.094 0c.125.344.14.39.422.39.265 0 .28-.046.406-.39l5.594-14.531c.218-.547.609-1.61 2.25-1.625m0 0"/><clipPath id="t"><path d="M212 53h11.57v13H212Zm0 0"/></clipPath><clipPath id="w"><path d="M.816 0H223.57v91.543H.816Zm0 0"/></clipPath><clipPath id="I"><path d="M52 13h71v78.543H52Zm0 0"/></clipPath></defs><path fill="none" stroke="#000" stroke-miterlimit="10" stroke-width=".39586386" d="m16.469 69.074-4.383-3.68M17.871 67.43l-4.32-3.754M19.305 65.809l-4.25-3.829M20.766 64.21l-4.184-3.898M22.254 62.645l-4.113-3.977M23.773 61.102l-4.046-4.047M25.316 59.582l-3.976-4.113M26.883 58.094 22.98 53.91M28.48 56.637l-3.828-4.254M30.098 55.2l-3.75-4.317M31.746 53.797l-3.68-4.383M33.414 52.418l-3.598-4.445M35.11 51.07l-3.524-4.508M36.824 49.754l-3.441-4.57M38.562 48.469l-3.359-4.63M40.324 47.21l-3.281-4.687M42.11 45.984l-3.2-4.742M43.91 44.793l-3.113-4.8M45.738 43.629l-3.031-4.852M47.582 42.5l-2.95-4.906M49.445 41.398l-2.86-4.953M51.328 40.336l-2.773-5.004M53.23 39.3l-2.683-5.05M55.148 38.305l-2.597-5.098M57.086 37.34l-2.508-5.145M59.04 36.406l-2.419-5.183M61.008 35.508 58.68 30.28M62.992 34.648l-2.234-5.27M64.992 33.82l-2.144-5.304M67.004 33.027l-2.05-5.343M69.031 32.266l-1.957-5.375M71.07 31.547l-1.863-5.41M73.121 30.86l-1.766-5.442M75.184 30.21l-1.672-5.472M77.262 29.594l-1.578-5.5M79.344 29.016l-1.48-5.528M81.441 28.473l-1.386-5.551M83.543 27.969l-1.285-5.574M85.656 27.5l-1.191-5.594M87.777 27.07l-1.093-5.617M89.902 26.676l-.992-5.637M92.04 26.32l-.9-5.652M94.176 26l-.797-5.668M96.32 25.715l-.695-5.68M98.473 25.473l-.598-5.692M100.625 25.266l-.5-5.7M102.781 25.094l-.398-5.707M104.941 24.96l-.3-5.71M107.105 24.867l-.203-5.719M109.266 24.812l-.102-5.722M111.43 24.793V19.07M113.594 24.812l.101-5.722M115.754 24.867l.203-5.719M117.918 24.96l.3-5.71M120.078 25.094l.399-5.707M122.234 25.266l.5-5.7M124.387 25.473l.597-5.692M126.54 25.715l.694-5.68M128.684 26l.796-5.668M130.82 26.32l.899-5.652M132.957 26.676l.992-5.637M135.082 27.07l1.094-5.617M137.203 27.5l1.192-5.594M139.316 27.969l1.286-5.574M141.418 28.473l1.387-5.551M143.516 29.016l1.48-5.528M145.598 29.594l1.578-5.5M147.676 30.21l1.672-5.472M149.738 30.86l1.766-5.442M151.79 31.547l1.862-5.41M153.828 32.266l1.957-5.375M155.855 33.027l2.051-5.343M157.867 33.82l2.145-5.304M159.867 34.648l2.235-5.27M161.852 35.508l2.328-5.227M163.82 36.406l2.418-5.183M165.773 37.34l2.508-5.145M167.71 38.305l2.599-5.098M169.629 39.3l2.684-5.05M171.531 40.336l2.774-5.004M173.414 41.398l2.86-4.953M175.277 42.5l2.95-4.906M177.121 43.629l3.031-4.852M178.95 44.793l3.113-4.8M180.75 45.984l3.2-4.742M182.535 47.21l3.281-4.687M184.297 48.469l3.36-4.63M186.035 49.754l3.445-4.57M187.75 51.07l3.523-4.508M189.445 52.418l3.598-4.445M191.113 53.797l3.68-4.383M192.762 55.2l3.75-4.317M194.379 56.637l3.828-4.254M195.977 58.094l3.902-4.184M197.543 59.582l3.977-4.113M199.086 61.102l4.047-4.047M200.605 62.645l4.114-3.977M202.094 64.21l4.183-3.898M203.555 65.809l4.25-3.829M204.988 67.43l4.32-3.754M206.39 69.074l4.383-3.68M12.086 65.395l-1.461-1.223M19.727 57.055l-1.348-1.348M28.066 49.414l-1.226-1.46M37.043 42.523l-1.094-1.562M46.586 36.445l-.953-1.652M56.621 31.223l-.805-1.73M67.074 26.89l-.652-1.792M77.863 23.488l-.492-1.84M88.91 21.039l-.332-1.879M100.125 19.566l-.164-1.902M111.43 19.07v-1.906M122.734 19.566l.164-1.902M133.95 21.039l.331-1.879M144.996 23.488l.492-1.84M155.785 26.89l.653-1.792M166.238 31.223l.805-1.73M176.273 36.445l.954-1.652M185.816 42.523l1.094-1.562M194.793 49.414l1.227-1.46M203.133 57.055l1.347-1.348M210.773 65.395l1.461-1.223M10.625 64.172 9.16 62.945M26.84 47.953l-1.223-1.46M45.633 34.793l-.953-1.652M66.422 25.098l-.652-1.79M88.578 19.16l-.332-1.879M111.43 17.164v-1.906M134.281 19.16l.332-1.879M156.438 25.098l.652-1.79M177.227 34.793l.953-1.652M196.02 47.953l1.222-1.46M212.234 64.172l1.465-1.227"/><use xlink:href="#a" x="5.382" y="62.513"/><use xlink:href="#b" x="20.359" y="46.759"/><use xlink:href="#c" x="23.576" y="44.06"/><use xlink:href="#d" x="39.456" y="32.493"/><use xlink:href="#e" x="43.092" y="30.393"/><use xlink:href="#f" x="60.737" y="21.761"/><use xlink:href="#g" x="64.683" y="20.324"/><use xlink:href="#h" x="83.568" y="14.926"/><use xlink:href="#i" x="87.704" y="14.197"/><use xlink:href="#j" x="107.231" y="12.082"/><use xlink:href="#k" x="111.43" y="12.082"/><use xlink:href="#l" x="131.027" y="13.429"/><use xlink:href="#m" x="135.163" y="14.158"/><use xlink:href="#n" x="154.216" y="18.929"/><use xlink:href="#o" x="158.161" y="20.365"/><use xlink:href="#p" x="176.131" y="28.294"/><use xlink:href="#q" x="179.767" y="30.393"/><use xlink:href="#r" x="196.067" y="41.36"/><use xlink:href="#s" x="199.284" y="44.059"/><g clip-path="url(#t)"><use xlink:href="#u" x="212.08" y="56.08"/><use xlink:href="#v" x="214.779" y="59.296"/><use xlink:href="#v" x="217.478" y="62.513"/></g><path fill="none" stroke="#000" stroke-miterlimit="10" stroke-width=".39586386" d="M206.406 69.039c-28.465-33.922-72.879-50.09-116.488-42.398A123.963 123.963 0 0 0 16.48 69.039"/><g fill="none" stroke-linecap="round" stroke-miterlimit="10" clip-path="url(#w)"><path stroke="#000" stroke-width="6.51240696" d="M191.531 82.008c-24.086-28.703-61.668-42.383-98.566-35.88a104.912 104.912 0 0 0-62.14 35.88"/><path stroke="#FFF" stroke-width="5.72167138" d="M191.531 82.008c-24.086-28.703-61.668-42.383-98.566-35.88a104.912 104.912 0 0 0-62.14 35.88"/></g><path fill="none" stroke="#000" stroke-miterlimit="10" stroke-width=".39586386" d="m16.469 69.074 2.191 1.84M18.828 66.352l2.137 1.898M21.266 63.691l2.078 1.965M23.773 61.102l2.024 2.023M26.363 58.594l1.961 2.082M29.02 56.156l1.902 2.14M31.746 53.797l1.84 2.191M34.547 51.523l1.773 2.247M37.406 49.324l1.707 2.297M40.328 47.215l1.64 2.34M43.312 45.191l1.57 2.391M46.352 43.254l1.503 2.433M49.445 41.402l1.43 2.477M52.602 39.648l1.355 2.52M55.797 37.984l1.285 2.555M59.04 36.41 60.25 39M62.332 34.937l1.133 2.625M65.664 33.555l1.055 2.66M69.031 32.27l.98 2.687M72.437 31.09l.903 2.715M75.879 30.008l.82 2.738M79.348 29.02l.738 2.761M82.844 28.137l.66 2.785M86.363 27.36l.578 2.8M89.906 26.676l.496 2.816M93.465 26.11l.414 2.827M97.04 25.637l.331 2.84M100.629 25.266l.246 2.851M104.223 25.008l.168 2.855M107.828 24.852l.082 2.859M111.43 24.793v2.86M115.031 24.852l-.082 2.859M118.637 25.008l-.168 2.855M122.23 25.266l-.246 2.851M125.82 25.637l-.332 2.84M129.395 26.11l-.415 2.827M132.953 26.676l-.496 2.816M136.496 27.36l-.578 2.8M140.016 28.137l-.66 2.785M143.512 29.02l-.739 2.761M146.98 30.008l-.82 2.738M150.422 31.09l-.902 2.715M153.828 32.27l-.98 2.687M157.195 33.555l-1.054 2.66M160.527 34.937l-1.132 2.625M163.82 36.41 162.61 39M167.063 37.984l-1.286 2.555M170.258 39.648l-1.356 2.52M173.414 41.402l-1.43 2.477M176.508 43.254l-1.504 2.433M179.547 45.191l-1.57 2.391M182.531 47.215l-1.64 2.34M185.453 49.324l-1.707 2.297M188.313 51.523l-1.774 2.247M191.113 53.797l-1.84 2.191M193.84 56.156l-1.902 2.14M196.496 58.594l-1.96 2.082M199.086 61.102l-2.023 2.023M201.594 63.691l-2.078 1.965M204.031 66.352l-2.136 1.898M206.39 69.074l-2.19 1.84M18.66 70.914l1.461 1.227M23.344 65.656l1.386 1.309M28.324 60.676l1.309 1.386M33.586 55.988l1.226 1.461M39.113 51.621l1.14 1.527M44.883 47.582l1.05 1.594M50.875 43.879l.957 1.652M57.082 40.539l.855 1.707M63.465 37.562l.754 1.75M70.012 34.957l.652 1.793M76.7 32.746l.546 1.828M83.504 30.922l.441 1.855M90.402 29.492l.332 1.88M97.371 28.477l.223 1.894M104.39 27.863l.11 1.903M111.43 27.652v1.907M118.469 27.863l-.11 1.903M125.488 28.477l-.222 1.894M132.457 29.492l-.332 1.88M139.355 30.922l-.44 1.855M146.16 32.746l-.547 1.828M152.848 34.957l-.653 1.793M159.395 37.562l-.754 1.75M165.777 40.539l-.855 1.707M171.984 43.879l-.957 1.652M177.977 47.582l-1.051 1.594M183.746 51.621l-1.137 1.527M189.273 55.988l-1.226 1.461M194.535 60.676l-1.308 1.386M199.516 65.656l-1.387 1.309M204.2 70.914l-1.462 1.227M20.121 72.14l2.191 1.84M45.934 49.176l1.57 2.386M77.246 34.574l.82 2.742M111.43 29.559v2.863M145.613 34.574l-.82 2.742M176.926 49.176l-1.57 2.386M202.738 72.14l-2.191 1.84"/><use xlink:href="#x" x="25.837" y="79.677"/><use xlink:href="#y" x="49.246" y="58.033"/><use xlink:href="#z" x="75.869" y="44.614"/><use xlink:href="#A" x="79.892" y="43.409"/><use xlink:href="#B" x="107.231" y="38.783"/><use xlink:href="#j" x="111.43" y="38.783"/><use xlink:href="#C" x="138.946" y="42.206"/><use xlink:href="#D" x="142.968" y="43.41"/><use xlink:href="#E" x="168.352" y="54.573"/><use xlink:href="#F" x="171.86" y="56.88"/><use xlink:href="#G" x="192.975" y="74.852"/><use xlink:href="#H" x="195.674" y="78.068"/><g clip-path="url(#I)"><path fill="none" stroke="#000" stroke-miterlimit="10" stroke-width=".7907355800000001" d="M111.43 148.758 64.055 24.793"/></g><use xlink:href="#J" x="102.908" y="84.488"/></svg>