<svg xmlns="http://www.w3.org/2000/svg" xmlns:xlink="http://www.w3.org/1999/xlink" width="226.771" height="124.799"><defs><clipPath id="a"><path d="M.066 65H25v5H.066Zm0 0"/></clipPath><clipPath id="b"><path d="M121 121h4v3.598h-4Zm0 0"/></clipPath><clipPath id="c"><path d="M115 115h16v9.598h-16Zm0 0"/></clipPath><path id="d" d="M3.734-6.11c.063-.234.094-.343.282-.374h.609c.703 0 1.797 0 1.797.984 0 .328-.156 1.016-.547 1.406-.25.266-.781.578-1.672.578H3.078Zm1.438 2.72c1-.22 2.187-.907 2.187-1.922 0-.844-.906-1.485-2.203-1.485H2.313c-.188 0-.282 0-.282.203 0 .11.094.11.281.11.016 0 .204 0 .376.015.171.016.265.032.265.157 0 .046 0 .078-.031.187L1.578-.781c-.094.39-.11.469-.906.469-.172 0-.266 0-.266.203C.406 0 .531 0 .546 0c.282 0 .97-.031 1.25-.031.282 0 .985.031 1.267.031.078 0 .203 0 .203-.203 0-.11-.094-.11-.282-.11-.359 0-.64 0-.64-.171 0-.063.015-.11.031-.172l.656-2.64h1.172c.906 0 1.094.562 1.094.905 0 .157-.078.454-.14.688-.063.281-.157.64-.157.844C5 .219 6.188.219 6.313.219c.859 0 1.203-1 1.203-1.14 0-.126-.11-.126-.125-.126-.079 0-.11.078-.125.14-.25.735-.672.907-.907.907-.328 0-.39-.219-.39-.61 0-.312.047-.812.093-1.124.016-.141.032-.328.032-.47 0-.765-.657-1.077-.922-1.187m0 0"/><path id="e" d="M7.266-6.484v-.313c-.313.016-.703.031-.97.031l-1.124-.03v.312c.516 0 .719.265.719.5 0 .078-.032.125-.047.187L4.016-1 2.125-6.016c-.062-.14-.062-.187-.062-.187 0-.281.562-.281.812-.281v-.313c-.36.031-1.047.031-1.422.031l-1.265-.03v.312c.656 0 .843 0 .984.375L3.469 0c.078.188.125.219.25.219.172 0 .187-.047.25-.188l2.219-5.86c.125-.359.406-.655 1.078-.655m0 0"/><path id="f" d="M7.14 0v-.312h-.187c-.594 0-.734-.063-.844-.391L3.97-6.922c-.063-.14-.078-.203-.235-.203-.156 0-.187.063-.234.203L1.438-.969c-.188.5-.579.657-1.125.657V0l1.015-.031L2.484 0v-.312c-.5 0-.75-.25-.75-.5 0-.032 0-.141.016-.157l.453-1.297h2.469L5.203-.75c0 .047.016.11.016.14 0 .298-.547.298-.813.298V0c.344-.031 1.047-.031 1.422-.031ZM4.564-2.578h-2.25l1.124-3.234Zm0 0"/></defs><path fill="none" stroke="#000" stroke-miterlimit="10" stroke-width=".39835761000000003" d="M12.352 12.285v49.32m0 11.887v49.324h55.265m0 0h96.715m0 0h41.45V83.398m0-31.699V12.285h-41.45m0 0H79.504m-23.774 0H12.352M12.352 69.512v3.98m0-7.902v-3.985"/><g clip-path="url(#a)"><path fill="none" stroke="#000" stroke-miterlimit="10" stroke-width=".79571683" d="M18.297 69.512H6.41m17.828-3.922H.465"/></g><g clip-path="url(#b)"><path d="M124.469 122.816a1.584 1.584 0 1 0-3.168-.004 1.584 1.584 0 0 0 3.168.004m0 0"/></g><g clip-path="url(#c)"><path fill="none" stroke="#000" stroke-miterlimit="10" stroke-width=".39835761000000003" d="M124.469 122.816a1.584 1.584 0 1 0-3.168-.004 1.584 1.584 0 0 0 3.168.004Zm0 0"/></g><path fill="none" stroke="#000" stroke-miterlimit="10" stroke-width=".79571683" d="M211.727 51.7v31.698H199.84V51.7Zm0 0"/><use xlink:href="#d" x="213.926" y="69.693"/><path fill="none" stroke="#000" stroke-miterlimit="10" stroke-width=".79571683" d="M67.617 24.172c6.567 0 11.887-5.324 11.887-11.887 0-6.566-5.32-11.887-11.887-11.887-6.562 0-11.887 5.32-11.887 11.887 0 6.563 5.325 11.887 11.887 11.887Zm0 0"/><use xlink:href="#e" x="63.887" y="15.572"/><path fill="none" stroke="#000" stroke-miterlimit="10" stroke-width=".39835761000000003" d="M122.883 122.816V79.437m0-23.773V12.285"/><path fill="none" stroke="#000" stroke-miterlimit="10" stroke-width=".79571683" d="M110.996 67.55c0 6.563 5.324 11.887 11.887 11.887 6.566 0 11.887-5.324 11.887-11.886 0-6.567-5.32-11.887-11.887-11.887-6.563 0-11.887 5.32-11.887 11.887Zm0 0"/><use xlink:href="#f" x="119.153" y="71.11"/><path stroke="#000" stroke-miterlimit="10" stroke-width=".39835761000000003" d="M124.469 12.285a1.585 1.585 0 1 0-3.17-.003 1.585 1.585 0 0 0 3.17.003Zm0 0"/></svg>