<svg xmlns="http://www.w3.org/2000/svg" xmlns:xlink="http://www.w3.org/1999/xlink" width="228.4" height="172.078"><defs><path id="b" d="M4.453-1.984c0-1.188-.812-2.172-1.89-2.172-.47 0-.891.156-1.25.5v-1.938c.187.063.515.14.843.14 1.219 0 1.906-.905 1.906-1.03 0-.063-.03-.11-.093-.11 0 0-.031 0-.078.032-.203.078-.688.28-1.36.28-.39 0-.844-.062-1.312-.28-.078-.032-.125-.032-.125-.032-.094 0-.094.078-.094.25v2.922c0 .188 0 .266.14.266.063 0 .094-.031.126-.094.109-.156.484-.687 1.28-.687.517 0 .767.453.845.624.156.376.172.75.172 1.25 0 .344 0 .938-.235 1.36-.234.39-.61.64-1.062.64-.72 0-1.282-.515-1.453-1.109.03.016.062.016.171.016.329 0 .485-.235.485-.485 0-.234-.157-.484-.485-.484-.14 0-.484.078-.484.531C.5-.75 1.172.22 2.281.22a2.194 2.194 0 0 0 2.172-2.203m0 0"/><path id="c" d="M4.563-3.172c0-.797-.063-1.578-.407-2.312-.453-.953-1.265-1.11-1.672-1.11-.609 0-1.328.25-1.734 1.172-.312.688-.36 1.453-.36 2.25 0 .75.032 1.64.438 2.39.438.798 1.156 1 1.64 1C3 .219 3.75.017 4.189-.936c.312-.672.375-1.454.375-2.235m-.829-.11c0 .735 0 1.407-.109 2.048C3.485-.297 2.906 0 2.469 0c-.39 0-.969-.25-1.156-1.203-.11-.594-.11-1.5-.11-2.078 0-.64 0-1.297.078-1.828.188-1.188.938-1.266 1.188-1.266.328 0 .984.172 1.172 1.156.093.547.093 1.313.093 1.938m0 0"/><path id="d" d="M5.297 0v-.312c-.703 0-.781-.063-.781-.563v-3.5l-1.47.11v.312c.704 0 .782.062.782.578v1.719c0 .875-.453 1.547-1.187 1.547-.828 0-.86-.47-.86-.985v-3.281l-1.468.11v.312c.703 0 .78.062.78.578v4.531c0 .453-.093.453-.78.453v.313l1.125-.031 1.125.03V1.61c-.688 0-.782 0-.782-.453V-.016c.157.063.422.125.797.125.547 0 .985-.265 1.266-.859h.015v.86Zm0 0"/><path id="e" d="M3.563-1.266c0-.53-.297-.828-.407-.937-.328-.328-.719-.406-1.14-.485-.547-.109-1.22-.234-1.22-.812 0-.344.266-.75 1.11-.75 1.094 0 1.14.89 1.172 1.203 0 .078.11.078.11.078.124 0 .124-.047.124-.234v-1c0-.172 0-.234-.109-.234-.047 0-.062 0-.187.125-.032.03-.141.125-.172.156-.375-.282-.781-.282-.938-.282-1.203 0-1.578.657-1.578 1.22 0 .343.156.624.422.843.313.25.594.313 1.313.453.218.047 1.03.203 1.03.906 0 .516-.343.907-1.124.907C1.14-.11.78-.672.594-1.516c-.031-.125-.031-.171-.14-.171-.126 0-.126.078-.126.25v1.312c0 .172 0 .234.11.234C.484.11.5.094.688-.094c.015-.015.015-.031.187-.218.438.406.89.421 1.094.421 1.14 0 1.594-.671 1.594-1.375m0 0"/><path id="f" d="M4.39-7.234a.207.207 0 0 0-.202-.203c-.141 0-.172.109-.204.203L.61 2.094c-.046.14-.046.187-.046.187 0 .11.078.203.187.203.14 0 .188-.109.203-.203l3.39-9.328c.048-.14.048-.187.048-.187m0 0"/><path id="g" d="M7-3.328c0-1.875-1.328-3.438-3.031-3.438H.344v.313h.234c.766 0 .781.11.781.453v5.234c0 .344-.015.454-.78.454H.343V0h3.625C5.64 0 7-1.469 7-3.328m-.984 0c0 1.094-.188 1.687-.547 2.172-.203.281-.766.843-1.766.843h-1c-.469 0-.484-.062-.484-.39v-5.36c0-.328.015-.39.484-.39h.985c.624 0 1.312.219 1.812.922.422.578.516 1.437.516 2.203m0 0"/><path id="h" d="M2.453 0v-.312c-.656 0-.703-.047-.703-.438v-3.625l-1.39.11v.296c.656 0 .734.063.734.547V-.75c0 .438-.11.438-.766.438V0l1.094-.031c.344 0 .687.015 1.031.031m-.547-5.984a.547.547 0 0 0-.531-.532.536.536 0 0 0-.531.532c0 .265.219.53.515.53a.54.54 0 0 0 .547-.53m0 0"/><path id="i" d="M5.031-3.969v-.297c-.234.016-.515.032-.734.032l-.875-.032v.297c.375.016.484.25.484.438a.525.525 0 0 1-.062.234L2.828-.766 1.718-3.53c-.046-.14-.046-.172-.046-.172 0-.266.375-.266.562-.266v-.297l-1.078.032c-.281 0-.672-.016-.968-.032v.297c.625 0 .671.063.796.375L2.406-.078c.063.14.078.187.203.187.141 0 .172-.093.22-.187l1.296-3.219c.078-.234.25-.656.906-.672m0 0"/><path id="j" d="M1.906-.531A.524.524 0 1 0 .86-.515a.524.524 0 0 0 1.047-.016m0 0"/><path id="r" d="M7.234-6.453v-.313c-.312.016-.703.032-.968.032L5.14-6.766v.313c.515 0 .718.266.718.484 0 .078-.03.14-.046.203L4-.984 2.11-6c-.063-.125-.063-.172-.063-.172 0-.281.562-.281.812-.281v-.313c-.359.032-1.03.032-1.406.032L.188-6.766v.313c.64 0 .828 0 .968.375L3.453 0c.078.188.125.219.25.219.172 0 .188-.047.235-.188l2.218-5.828c.14-.36.407-.656 1.078-.656m0 0"/><path id="k" d="M-1.687-4.531c-.813 0-1.594.625-1.797 1.656-.266-.812-.97-1.39-1.75-1.39-.813 0-1.36.874-1.36 1.827 0 1 .594 1.75 1.344 1.75.328 0 .516-.218.516-.5 0-.312-.22-.5-.5-.5-.5 0-.5.454-.5.61-.485-.313-.61-.969-.61-1.313 0-.406.219-.953 1.11-.953.109 0 .687.016 1.125.266.468.297.5.64.515.89 0 .079.031.313.031.391 0 .078.016.14.11.14.11 0 .11-.062.11-.234v-.437c0-.813.671-1.172 1.656-1.172 1.343 0 1.625.672 1.625 1.11 0 .421-.172 1.171-.75 1.515.046-.344-.172-.656-.547-.656-.36 0-.547.265-.547.562 0 .235.14.547.562.547.907 0 1.563-.922 1.563-2 0-1.203-.906-2.11-1.906-2.11m0 0"/><path id="l" d="M-6.453-7.234h-.313c.016.312.032.703.032.968l-.032 1.125h.313c0-.515.266-.718.484-.718.078 0 .14.03.203.046L-.984-4-6-2.11c-.125.063-.172.063-.172.063-.281 0-.281-.562-.281-.812h-.313c.032.359.032 1.03.032 1.406l-.032 1.266h.313c0-.641 0-.829.375-.97L0-3.452c.188-.078.219-.125.219-.25 0-.172-.047-.188-.188-.235l-5.828-2.218c-.36-.14-.656-.407-.656-1.078m0 0"/><path id="m" d="M-7.234-4.39a.207.207 0 0 0-.203.202c0 .141.109.172.203.204L2.094-.61a.74.74 0 0 0 .187.046c.11 0 .203-.078.203-.187 0-.14-.109-.187-.203-.203l-9.328-3.39c-.14-.048-.187-.048-.187-.048m0 0"/><path id="n" d="M-3.328-7c-1.875 0-3.438 1.328-3.438 3.031v3.625h.313v-.234c0-.766.11-.781.453-.781h5.234c.344 0 .454.015.454.78v.235H0v-3.625C0-5.64-1.469-7-3.328-7m0 .984c1.094 0 1.687.188 2.172.547.281.203.843.766.843 1.766v1c0 .469-.062.484-.39.484h-5.36c-.328 0-.39-.015-.39-.484v-.985c0-.624.219-1.312.922-1.812.578-.422 1.437-.516 2.203-.516m0 0"/><path id="o" d="M0-2.453h-.312c0 .656-.047.703-.438.703h-3.625l.11 1.39h.296c0-.656.063-.734.547-.734H-.75c.438 0 .438.11.438.766H0l-.031-1.094c0-.344.015-.687.031-1.031m-5.984.547a.547.547 0 0 0-.532.531c0 .328.282.531.532.531.265 0 .53-.219.53-.515a.54.54 0 0 0-.53-.547m0 0"/><path id="p" d="M-3.969-5.031h-.297c.016.234.032.515.032.734l-.032.875h.297c.016-.375.25-.484.438-.484.078 0 .125.015.234.062l2.531 1.016-2.765 1.11c-.14.046-.172.046-.172.046-.266 0-.266-.375-.266-.562h-.297l.032 1.078c0 .281-.016.672-.032.968h.297c0-.624.063-.671.375-.796l3.516-1.422c.14-.063.187-.078.187-.203 0-.141-.093-.172-.187-.22l-3.219-1.296c-.234-.078-.656-.25-.672-.906m0 0"/><path id="q" d="M-.531-1.906A.524.524 0 1 0-.515-.86a.524.524 0 0 0-.016-1.047m0 0"/><clipPath id="a"><path d="M.309 2h227.183v146H.31Zm0 0"/></clipPath></defs><path fill="none" stroke="#000" stroke-miterlimit="10" stroke-width=".39687333" d="M23.148 150.39h200.254M23.148 125.356h200.254m-200.254-25.03h200.254M23.148 75.292h200.254M23.148 50.262h200.254M23.148 25.23h200.254M23.148.207h200.254M23.148 150.391V.199M48.18 150.391V.199M73.21 150.391V.199m25.031 150.192V.199m25.031 150.192V.199m25.036 150.192V.199m25.03 150.192V.199m25.032 150.192V.199m25.02 150.192V.199"/><g clip-path="url(#a)"><path fill="none" stroke="#000" stroke-miterlimit="10" stroke-width="1.5855039800000001" d="M23.148 125.355h16.575c4.672 0 9.375-3.671 10.507-8.203l20.93-83.715c1.133-4.535 5.84-8.207 10.512-8.207h58.176c4.672 0 9.379 3.672 10.511 8.207l20.93 83.715c1.133 4.532 5.836 8.203 10.508 8.203h41.605"/></g><use xlink:href="#b" x="176.248" y="165.381"/><use xlink:href="#c" x="181.202" y="165.381"/><use xlink:href="#d" x="187.802" y="165.381"/><use xlink:href="#e" x="193.312" y="165.381"/><use xlink:href="#f" x="197.216" y="165.381"/><use xlink:href="#g" x="202.171" y="165.381"/><use xlink:href="#h" x="209.742" y="165.381"/><use xlink:href="#i" x="212.497" y="165.381"/><use xlink:href="#j" x="217.729" y="165.381"/><use xlink:href="#k" x="13.11" y="43.883"/><use xlink:href="#l" x="13.11" y="37.283"/><use xlink:href="#m" x="13.11" y="29.851"/><use xlink:href="#n" x="13.11" y="24.896"/><use xlink:href="#o" x="13.11" y="17.325"/><use xlink:href="#p" x="13.11" y="14.57"/><use xlink:href="#q" x="13.11" y="9.338"/><use xlink:href="#c" x="3.614" y="128.631"/><use xlink:href="#r" x="10.213" y="128.631"/></svg>