<svg xmlns="http://www.w3.org/2000/svg" width="226.877" height="168.068"><defs><clipPath id="a"><path d="M.563 0H226.19v167.14H.563Zm0 0"/></clipPath></defs><path fill="none" stroke="#000" stroke-miterlimit="10" stroke-width=".39679752" d="M1.355 166.348h220.747M1.355 138.758h220.747M1.355 111.164h220.747M1.355 83.57h220.747M1.355 55.977h220.747M1.355 28.383h220.747M1.355.8h220.747M1.355 166.348V.793M28.95 166.348V.793m27.594 165.555V.793m27.594 165.555V.793m27.593 165.555V.793m27.59 165.555V.793m27.594 165.555V.793m27.594 165.555V.793m27.582 165.555V.793"/><g clip-path="url(#a)"><path fill="none" stroke="#000" stroke-miterlimit="10" stroke-width="1.5852011200000002" d="M1.355 83.57C19.348 41.188 36.566.793 56.543.793c19.977 0 37.195 40.395 55.187 82.777 17.989 42.383 35.207 82.778 55.184 82.778 19.977 0 37.195-40.395 55.188-82.778"/></g></svg>