<svg xmlns="http://www.w3.org/2000/svg" xmlns:xlink="http://www.w3.org/1999/xlink" width="227.142" height="75.941"><defs><path id="a" d="M6.797-4.484 6.609-6.72H.547L.359-4.484h.25C.75-6.078.891-6.406 2.391-6.406c.172 0 .437 0 .53.015.22.047.22.157.22.375V-.78c0 .328 0 .469-1.047.469h-.39V0c.405-.031 1.405-.031 1.874-.031.453 0 1.469 0 1.875.031v-.312h-.39c-1.047 0-1.047-.141-1.047-.47v-5.234c0-.203 0-.328.187-.375.11-.015.375-.015.563-.015 1.5 0 1.64.328 1.78 1.922Zm0 0"/><path id="b" d="M7.203 0v-.312h-.187c-.516 0-.72-.047-.938-.36L3.984-3.828l1.36-2c.218-.313.562-.625 1.437-.64v-.313l-1.093.031c-.407 0-.875 0-1.266-.031v.312c.39.016.61.235.61.453 0 .11-.016.125-.095.235L3.813-4.11l-1.28-1.907c-.016-.03-.079-.109-.079-.156 0-.125.219-.281.656-.297v-.312c-.343.031-1.078.031-1.453.031L.36-6.781v.312h.204c.53 0 .734.063.921.344l1.813 2.766L1.672-.97c-.14.203-.438.657-1.438.657V0l1.11-.031c.36 0 .906 0 1.265.031v-.312c-.453 0-.625-.266-.625-.454 0-.093.032-.125.094-.234L3.5-3.078l1.563 2.36c.015.046.046.077.046.109 0 .125-.218.297-.64.297V0c.343-.031 1.062-.031 1.437-.031Zm0 0"/><path id="c" d="M4.156 0v-.312h-.312c-.89 0-.922-.11-.922-.47v-5.562c0-.25 0-.265-.235-.265-.609.64-1.484.64-1.796.64v.297c.187 0 .78 0 1.297-.25v5.14c0 .36-.032.47-.922.47H.938V0c.359-.031 1.218-.031 1.609-.031.406 0 1.265 0 1.61.031m0 0"/><path id="d" d="M4.453-2c0-1.172-.812-2.172-1.89-2.172a1.7 1.7 0 0 0-1.25.516v-1.938c.203.063.515.125.843.125 1.219 0 1.906-.906 1.906-1.031 0-.062-.03-.11-.093-.11 0 0-.031 0-.078.032a3.26 3.26 0 0 1-1.344.281c-.406 0-.86-.062-1.328-.266-.078-.03-.125-.03-.125-.03C1-6.594 1-6.517 1-6.36v2.937c0 .172 0 .25.14.25.063 0 .094-.015.126-.078.109-.156.484-.703 1.28-.703.517 0 .767.453.845.64.156.36.187.75.187 1.25 0 .344 0 .938-.25 1.36-.234.39-.594.64-1.062.64-.72 0-1.282-.515-1.453-1.109.03.016.062.016.171.016.329 0 .5-.25.5-.485a.48.48 0 0 0-.5-.484c-.14 0-.484.078-.484.531C.5-.75 1.188.22 2.297.22 3.437.219 4.453-.734 4.453-2m0 0"/><path id="e" d="M8.063 0v-.312c-.516 0-.766 0-.766-.297V-2.5c0-.86 0-1.156-.313-1.516-.14-.171-.468-.375-1.046-.375-.829 0-1.266.594-1.438.985-.14-.875-.875-.985-1.312-.985-.735 0-1.188.438-1.47 1.047V-4.39l-1.405.11v.312c.703 0 .78.063.78.563V-.75c0 .438-.109.438-.78.438V0l1.125-.031L2.547 0v-.312c-.656 0-.766 0-.766-.438v-1.828c0-1.031.703-1.594 1.328-1.594.625 0 .735.547.735 1.11V-.75c0 .438-.11.438-.766.438V0l1.125-.031L5.313 0v-.312c-.672 0-.782 0-.782-.438v-1.828c0-1.031.703-1.594 1.344-1.594.625 0 .734.547.734 1.11V-.75c0 .438-.109.438-.78.438V0l1.124-.031Zm0 0"/><path id="q" d="M4.453-1.719h-.25c-.047.297-.11.735-.219.875-.062.078-.718.078-.937.078H1.266L2.313-1.78c1.546-1.375 2.14-1.906 2.14-2.907 0-1.125-.89-1.921-2.11-1.921C1.235-6.61.5-5.687.5-4.812c0 .562.484.562.516.562a.516.516 0 0 0 .515-.531c0-.266-.172-.516-.515-.516-.079 0-.11 0-.125.016.218-.657.75-1.016 1.328-1.016.906 0 1.328.797 1.328 1.61 0 .796-.485 1.578-1.031 2.203L.609-.36C.5-.266.5-.234.5 0h3.672Zm0 0"/><path id="r" d="M4.531-1.703c0-.813-.625-1.578-1.656-1.797.813-.266 1.39-.953 1.39-1.734 0-.813-.874-1.375-1.827-1.375-1 0-1.75.593-1.75 1.343 0 .329.218.516.5.516.312 0 .515-.203.515-.5 0-.5-.469-.5-.625-.5.313-.484.969-.61 1.328-.61.406 0 .953.22.953 1.11 0 .125-.03.703-.28 1.125-.298.484-.642.516-.892.516a3.306 3.306 0 0 1-.374.03c-.094.017-.157.032-.157.126 0 .11.063.11.235.11h.437c.813 0 1.188.671 1.188 1.64 0 1.36-.688 1.64-1.125 1.64-.422 0-1.172-.171-1.516-.75.344.047.656-.171.656-.546 0-.36-.265-.563-.562-.563-.235 0-.547.14-.547.578 0 .907.922 1.563 2 1.563 1.203 0 2.11-.906 2.11-1.922m0 0"/><path id="s" d="M4.672-1.64v-.298h-.984v-4.515c0-.203 0-.266-.172-.266-.079 0-.11 0-.188.125L.281-1.937v.296h2.64v.86c0 .36-.03.469-.765.469h-.203V0c.406-.031.922-.031 1.344-.031.406 0 .937 0 1.344.031v-.312h-.203c-.735 0-.75-.11-.75-.47v-.859Zm-1.703-.298H.563L2.969-5.64Zm0 0"/><path id="j" d="M6.031 0v-.266h-.14c-.5 0-.578-.062-.672-.328L3.359-5.5c-.046-.094-.062-.172-.203-.172-.14 0-.156.063-.203.172L1.188-.812c-.079.203-.25.546-.907.546V0c.266-.031.672-.031.828-.031.25 0 .485 0 .875.031v-.266c-.343 0-.562-.156-.562-.39 0-.063 0-.078.047-.172l.375-.984H4l.438 1.171c.046.094.046.141.046.141 0 .234-.406.234-.64.234V0l1.14-.031c.438 0 .579 0 1.047.031m-2.14-2.078H1.938l.984-2.594Zm0 0"/><path id="k" d="M4.453 0v-.266c-.5 0-.594 0-.594-.359v-1.781c0-.672-.296-1.094-1.14-1.094-.781 0-1.14.578-1.235.766H1.47V-3.5l-1.14.094v.25c.53 0 .593.062.593.453v2.078c0 .36-.094.36-.594.36V0c.344-.031.688-.031.906-.031.22 0 .563 0 .907.031v-.266c-.516 0-.61 0-.61-.359v-1.437c0-.829.64-1.22 1.125-1.22s.594.345.594.845v1.812c0 .36-.094.36-.594.36V0c.344-.031.688-.031.906-.031.22 0 .563 0 .891.031m0 0"/><path id="l" d="M2.797-.984v-.453h-.235v.421c0 .563-.25.844-.546.844-.547 0-.547-.672-.547-.797v-2.187h1.187v-.266H1.47v-1.453h-.235c-.015.719-.343 1.469-1.078 1.5v.219h.719v2.172c0 .922.719 1.062 1.078 1.062.531 0 .844-.469.844-1.062m0 0"/><path id="m" d="M3.5-.953c0-.031-.016-.11-.125-.11-.094 0-.11.047-.125.11a1.141 1.141 0 0 1-1.11.781c-.359 0-.718-.156-.953-.531-.25-.36-.25-.875-.25-1.11h2.344c.172 0 .219 0 .219-.187 0-.703-.39-1.547-1.5-1.547-.984 0-1.766.828-1.766 1.813 0 1.015.86 1.812 1.86 1.812C3.109.078 3.5-.766 3.5-.953m-.547-1.063h-2c.078-1.109.75-1.296 1.047-1.296.922 0 .953 1.109.953 1.296m0 0"/><path id="n" d="M2.328-1.453v-.516H.094v.516Zm0 0"/><path id="o" d="M4.453 0v-.266c-.531 0-.594-.046-.594-.437V-3.5l-1.203.094v.25c.531 0 .594.062.594.453v1.375c0 .687-.406 1.187-1 1.187-.687 0-.719-.343-.719-.734V-3.5l-1.203.094v.25c.594 0 .594.031.594.734v1.188c0 .578 0 1.312 1.281 1.312.735 0 1.031-.562 1.063-.64h.015v.64Zm0 0"/><path id="p" d="M3.047-3c0-.281-.25-.5-.61-.5-.515 0-.859.39-1.03.828V-3.5L.28-3.406v.25c.532 0 .594.062.594.453v2.078c0 .36-.094.36-.594.36V0c.313-.031.75-.031.938-.031.468 0 .484 0 1 .031v-.266h-.156c-.594 0-.61-.078-.61-.375v-1.171c0-.594.25-1.454 1.016-1.47-.047.032-.125.095-.125.282 0 .25.187.36.344.36.187 0 .359-.126.359-.36m0 0"/><clipPath id="f"><path d="M213 .113h1V55h-1Zm0 0"/></clipPath><clipPath id="g"><path d="M193 .113h33.29V30H193Zm0 0"/></clipPath><clipPath id="h"><path d="M81 71h14v4.77H81Zm0 0"/></clipPath><clipPath id="i"><path d="M121 71h14v4.77h-14Zm0 0"/></clipPath></defs><path fill="none" stroke="#000" stroke-miterlimit="10" stroke-width=".7940032800000001" d="M.398 41.664H25.45v25.05H.4Zm0 0"/><use xlink:href="#a" x="5.617" y="57.578"/><use xlink:href="#b" x="12.783" y="57.578"/><path fill="none" stroke="#000" stroke-miterlimit="10" stroke-width=".39749976000000004" d="M25.45 54.188h9.581m0 0h9.586"/><path d="M40.418 54.188v1.98l4.2-1.98-4.2-1.977Zm0 0"/><path fill="none" stroke="#000" stroke-miterlimit="10" stroke-width=".7940032800000001" d="M44.617 41.664h25.051v25.05h-25.05Zm0 0"/><path fill="none" stroke="#000" stroke-miterlimit="10" stroke-width=".39749976000000004" d="M50.883 47.926c1.02-1.602 1.996-3.13 3.129-3.13s2.113 1.528 3.133 3.13c1.02 1.605 1.996 3.133 3.132 3.133 1.133 0 2.11-1.528 3.13-3.133m-4.384-1.88-3.757 3.759M50.883 54.188c1.02-1.602 1.996-3.13 3.129-3.13s2.113 1.528 3.133 3.13c1.02 1.605 1.996 3.132 3.132 3.132 1.133 0 2.11-1.527 3.13-3.132m-4.384-1.88-3.757 3.758M50.883 60.453c1.02-1.605 1.996-3.133 3.129-3.133s2.113 1.528 3.133 3.133c1.02 1.602 1.996 3.129 3.132 3.129 1.133 0 2.11-1.527 3.13-3.129M69.668 54.188h15.977m44.734 0h15.976"/><path fill="none" stroke="#000" stroke-miterlimit="10" stroke-width=".7940032800000001" d="M128.23 48.82H87.793c-1.188 0-2.148 2.403-2.148 5.368 0 2.964.96 5.37 2.148 5.37h40.437c1.188 0 2.149-2.406 2.149-5.37 0-2.965-.961-5.368-2.149-5.368"/><path fill="none" stroke="#000" stroke-miterlimit="10" stroke-width=".7940032800000001" d="M128.23 48.82c-1.183 0-2.144 2.403-2.144 5.368 0 2.964.96 5.37 2.144 5.37"/><path fill="none" stroke="#000" stroke-miterlimit="10" stroke-width=".39749976000000004" d="M128.23 54.188h2.149"/><use xlink:href="#c" x="98.087" y="45.077"/><use xlink:href="#d" x="103.05" y="45.077"/><use xlink:href="#e" x="109.66" y="45.077"/><path d="M142.156 54.188v1.98l4.2-1.98-4.2-1.977Zm0 0"/><path fill="none" stroke="#000" stroke-miterlimit="10" stroke-width=".7940032800000001" d="M146.355 41.664h48.313v25.05h-48.313Zm0 0"/><path fill="none" stroke="#000" stroke-miterlimit="10" stroke-width=".39749976000000004" d="M194.668 54.188h9.586m0 0h9.586"/><g clip-path="url(#f)"><path fill="none" stroke="#000" stroke-miterlimit="10" stroke-width=".39749976000000004" d="M213.64 54.188V.508"/></g><g clip-path="url(#g)"><path fill="none" stroke="#000" stroke-miterlimit="10" stroke-width=".7940032800000001" d="M213.64.508h8.946l-8.945 17.894L204.695.508h8.946"/></g><path stroke="#000" stroke-miterlimit="10" stroke-width=".39749976000000004" d="M89.375 59.559a1.58 1.58 0 0 0-1.582-1.582 1.58 1.58 0 1 0 0 3.16 1.58 1.58 0 0 0 1.582-1.578Zm0 0"/><path fill="none" stroke="#000" stroke-miterlimit="10" stroke-width=".39749976000000004" d="M87.793 59.559v11.859"/><g clip-path="url(#h)"><path fill="none" stroke="#000" stroke-miterlimit="10" stroke-width=".7940032800000001" d="M81.863 71.418h11.86m-9.883 1.977h7.906M85.32 75.37h4.946"/></g><path stroke="#000" stroke-miterlimit="10" stroke-width=".39749976000000004" d="M129.813 59.559a1.58 1.58 0 1 0-3.161-.004 1.58 1.58 0 0 0 3.16.004Zm0 0"/><path fill="none" stroke="#000" stroke-miterlimit="10" stroke-width=".39749976000000004" d="M128.23 59.559v11.859"/><g clip-path="url(#i)"><path fill="none" stroke="#000" stroke-miterlimit="10" stroke-width=".7940032800000001" d="M122.3 71.418h11.864m-9.887 1.977h7.91m-6.425 1.976h4.941"/></g><use xlink:href="#j" x="151.306" y="50.84"/><use xlink:href="#k" x="157.627" y="50.84"/><use xlink:href="#l" x="162.073" y="50.84"/><use xlink:href="#m" x="165.353" y="50.84"/><use xlink:href="#k" x="169.1" y="50.84"/><use xlink:href="#k" x="173.785" y="50.84"/><use xlink:href="#m" x="178.47" y="50.84"/><use xlink:href="#k" x="182.217" y="50.84"/><use xlink:href="#n" x="186.902" y="50.84"/><use xlink:href="#l" x="160.668" y="63.128"/><use xlink:href="#o" x="163.947" y="63.128"/><use xlink:href="#k" x="168.632" y="63.128"/><use xlink:href="#m" x="173.317" y="63.128"/><use xlink:href="#p" x="177.064" y="63.128"/><path fill="none" stroke="#000" stroke-dasharray="2.9775919992 2.9775919992" stroke-miterlimit="10" stroke-width=".39749976000000004" d="M35.031 54.188v-25.56"/><use xlink:href="#c" x="32.552" y="25.121"/><path fill="none" stroke="#000" stroke-dasharray="2.9775919992 2.9775919992" stroke-miterlimit="10" stroke-width=".39749976000000004" d="M77.656 54.188v-25.56"/><use xlink:href="#q" x="75.175" y="25.121"/><path fill="none" stroke="#000" stroke-dasharray="2.9775919992 2.9775919992" stroke-miterlimit="10" stroke-width=".39749976000000004" d="M138.367 54.188v-25.56"/><use xlink:href="#r" x="135.885" y="24.903"/><path fill="none" stroke="#000" stroke-dasharray="2.9775919992 2.9775919992" stroke-miterlimit="10" stroke-width=".39749976000000004" d="M204.254 54.188v-25.56"/><use xlink:href="#s" x="201.77" y="25.121"/></svg>