<svg xmlns="http://www.w3.org/2000/svg" xmlns:xlink="http://www.w3.org/1999/xlink" width="210.184" height="51.37"><defs><path id="b" d="M8.656 0v-.312h-.234c-.766 0-.781-.094-.781-.454v-5.187c0-.36.015-.469.78-.469h.235v-.297H6.984c-.25 0-.25 0-.312.188L4.516-1 2.375-6.5c-.094-.219-.125-.219-.344-.219H.36v.297h.235c.765 0 .781.11.781.469v4.922c0 .265 0 .718-1.016.718V0l1.157-.031L2.672 0v-.312c-1.016 0-1.016-.454-1.016-.72v-5.312L4.031-.219c.047.125.11.219.203.219.11 0 .141-.078.172-.187l2.422-6.235h.016v5.656c0 .36-.016.454-.782.454h-.234V0c.36-.031 1.031-.031 1.422-.031.375 0 1.031 0 1.406.031m0 0"/><path id="c" d="M7.047 0v-.312h-.234c-.766 0-.782-.094-.782-.454v-5.187c0-.36.016-.469.782-.469h.234v-.297c-.344.032-1.078.032-1.453.032-.36 0-1.11 0-1.453-.032v.297h.234c.766 0 .781.11.781.469v2.297H2.22v-2.297c0-.36.015-.469.781-.469h.234v-.297c-.343.032-1.078.032-1.453.032s-1.11 0-1.453-.032v.297h.235c.75 0 .78.11.78.469v5.187c0 .36-.03.454-.78.454H.328V0c.344-.031 1.063-.031 1.438-.031s1.125 0 1.468.031v-.312H3c-.766 0-.781-.094-.781-.454v-2.578h2.937v2.578c0 .36-.015.454-.781.454h-.234V0c.343-.031 1.078-.031 1.453-.031s1.11 0 1.453.031m0 0"/><path id="d" d="M3.953-1.844h-.25C3.61-.672 3.406-.25 2.266-.25H1.109l2.735-3.703c.078-.11.078-.125.078-.156 0-.141-.078-.141-.25-.141H.516l-.11 1.594h.25c.063-1 .25-1.375 1.328-1.375H3.11L.36-.313c-.078.11-.078.126-.078.172C.281 0 .344 0 .531 0h3.25Zm0 0"/><path id="e" d="M7.14 0v-.312h-.187c-.5 0-.719-.047-.922-.344l-2.078-3.14 1.36-1.985c.203-.313.546-.625 1.421-.64v-.298l-1.093.032c-.391 0-.86 0-1.266-.032v.297c.406.016.61.234.61.453 0 .11-.016.125-.079.235L3.781-4.078l-1.265-1.89c-.032-.032-.079-.11-.079-.157 0-.11.22-.281.641-.297v-.297c-.344.032-1.062.032-1.437.032L.359-6.72v.297h.188c.547 0 .734.078.922.344L3.28-3.344 1.656-.954c-.125.188-.422.642-1.422.642V0l1.094-.031c.36 0 .906 0 1.266.031v-.312c-.453 0-.625-.266-.625-.454 0-.078.031-.125.093-.234L3.47-3.062 5.016-.703a.169.169 0 0 1 .046.11c0 .109-.203.28-.625.28V0C4.782-.031 5.5-.031 5.86-.031Zm0 0"/><clipPath id="a"><path d="M59 40h16v10.746H59Zm0 0"/></clipPath></defs><path fill="none" stroke="#E5E5E5" stroke-miterlimit="10" stroke-width="3.93674165" d="M8.152 16.434h7.414"/><path fill="#E5E5E5" d="M9.137 18.402H6.184l-1.97-1.968 1.97-1.97h2.953ZM14.582 14.465h2.953l1.969 1.969-1.969 1.968h-2.953Zm0 0"/><path fill="none" stroke="#000" stroke-miterlimit="10" stroke-width="3.93674165" d="M19.7 20.566v7.414"/><path d="M17.734 21.55v-2.952l1.965-1.97 1.969 1.97v2.953ZM21.668 26.996v2.953l-1.969 1.969-1.965-1.969v-2.953Zm0 0"/><path fill="none" stroke="#000" stroke-miterlimit="10" stroke-width="3.93674165" d="M19.7 36.246v7.414"/><path d="M17.734 37.23v-2.949l1.965-1.968 1.969 1.968v2.95ZM21.668 42.68v2.949l-1.969 1.969-1.965-1.97V42.68Zm0 0"/><path fill="none" stroke="#E5E5E5" stroke-miterlimit="10" stroke-width="3.93674165" d="M15.566 47.797H8.152"/><path fill="#E5E5E5" d="M14.582 45.828h2.953l1.969 1.969-1.969 1.969h-2.953ZM9.137 49.766H6.184l-1.97-1.97 1.97-1.968h2.953Zm0 0"/><path fill="none" stroke="#E5E5E5" stroke-miterlimit="10" stroke-width="3.93674165" d="M4.02 43.66v-7.414"/><path fill="#E5E5E5" d="M5.988 42.68v2.949L4.02 47.598l-1.97-1.97V42.68ZM2.05 37.23v-2.949l1.97-1.968 1.968 1.968v2.95Zm0 0"/><path fill="none" stroke="#E5E5E5" stroke-miterlimit="10" stroke-width="3.93674165" d="M4.02 27.98v-7.414"/><path fill="#E5E5E5" d="M5.988 26.996v2.953L4.02 31.918l-1.97-1.969v-2.953ZM2.05 21.55v-2.952l1.97-1.97 1.968 1.97v2.953Zm0 0"/><path fill="none" stroke="#E5E5E5" stroke-miterlimit="10" stroke-width="3.93674165" d="M8.152 32.113h7.414"/><path fill="#E5E5E5" d="M9.137 34.082H6.184l-1.97-1.969 1.97-1.968h2.953ZM14.582 30.145h2.953l1.969 1.968-1.969 1.969h-2.953Zm0 0"/><path fill="none" stroke="#E5E5E5" stroke-miterlimit="10" stroke-width="3.93674165" d="M29.738 16.434h7.414"/><path fill="#E5E5E5" d="M30.723 18.402H27.77l-1.965-1.968 1.965-1.97h2.953ZM36.168 14.465h2.953l1.969 1.969-1.969 1.968h-2.953Zm0 0"/><path fill="none" stroke="#000" stroke-miterlimit="10" stroke-width="3.93674165" d="M41.29 20.566v7.414"/><path d="M39.32 21.55v-2.952l1.97-1.97 1.968 1.97v2.953ZM43.258 26.996v2.953l-1.969 1.969-1.969-1.969v-2.953Zm0 0"/><path fill="none" stroke="#000" stroke-miterlimit="10" stroke-width="3.93674165" d="M41.29 36.246v7.414"/><path d="M39.32 37.23v-2.949l1.97-1.968 1.968 1.968v2.95ZM43.258 42.68v2.949l-1.969 1.969-1.969-1.97V42.68Zm0 0"/><path fill="none" stroke="#E5E5E5" stroke-miterlimit="10" stroke-width="3.93674165" d="M37.152 47.797h-7.414"/><path fill="#E5E5E5" d="M36.168 45.828h2.953l1.969 1.969-1.969 1.969h-2.953ZM30.723 49.766H27.77l-1.965-1.97 1.965-1.968h2.953Zm0 0"/><path fill="none" stroke="#E5E5E5" stroke-miterlimit="10" stroke-width="3.93674165" d="M25.605 43.66v-7.414"/><path fill="#E5E5E5" d="M27.574 42.68v2.949l-1.969 1.969-1.968-1.97V42.68ZM23.637 37.23v-2.949l1.968-1.968 1.97 1.968v2.95Zm0 0"/><path fill="none" stroke="#000" stroke-miterlimit="10" stroke-width="3.93674165" d="M25.605 27.98v-7.414"/><path d="M27.574 26.996v2.953l-1.969 1.969-1.968-1.969v-2.953ZM23.637 21.55v-2.952l1.968-1.97 1.97 1.97v2.953Zm0 0"/><path fill="none" stroke="#000" stroke-miterlimit="10" stroke-width="3.93674165" d="M29.738 32.113h7.414"/><path d="M30.723 34.082H27.77l-1.965-1.969 1.965-1.968h2.953ZM36.168 30.145h2.953l1.969 1.968-1.969 1.969h-2.953Zm0 0"/><path fill="none" stroke="#000" stroke-miterlimit="10" stroke-width="3.93674165" d="M51.328 16.434h7.414"/><path d="M52.313 18.402h-2.954l-1.968-1.968 1.968-1.97h2.953ZM57.758 14.465h2.953l1.969 1.969-1.97 1.968h-2.952Zm0 0"/><path fill="none" stroke="#E5E5E5" stroke-miterlimit="10" stroke-width="3.93674165" d="M62.875 20.566v7.414"/><path fill="#E5E5E5" d="M60.906 21.55v-2.952l1.969-1.97 1.969 1.97v2.953ZM64.844 26.996v2.953l-1.969 1.969-1.969-1.969v-2.953Zm0 0"/><path fill="none" stroke="#000" stroke-miterlimit="10" stroke-width="3.93674165" d="M62.875 36.246v7.414"/><path d="M60.906 37.23v-2.949l1.969-1.968 1.969 1.968v2.95ZM64.844 42.68v2.949l-1.969 1.969-1.969-1.97V42.68Zm0 0"/><path fill="none" stroke="#000" stroke-miterlimit="10" stroke-width="3.93674165" d="M58.742 47.797h-7.414"/><path d="M57.758 45.828h2.953l1.969 1.969-1.97 1.969h-2.952ZM52.313 49.766h-2.954l-1.968-1.97 1.968-1.968h2.953Zm0 0"/><path fill="none" stroke="#E5E5E5" stroke-miterlimit="10" stroke-width="3.93674165" d="M47.191 43.66v-7.414"/><path fill="#E5E5E5" d="M49.16 42.68v2.949l-1.969 1.969-1.964-1.97V42.68ZM45.227 37.23v-2.949l1.964-1.968 1.97 1.968v2.95Zm0 0"/><path fill="none" stroke="#000" stroke-miterlimit="10" stroke-width="3.93674165" d="M47.191 27.98v-7.414"/><path d="M49.16 26.996v2.953l-1.969 1.969-1.964-1.969v-2.953ZM45.227 21.55v-2.952l1.964-1.97 1.97 1.97v2.953Zm0 0"/><path fill="none" stroke="#000" stroke-miterlimit="10" stroke-width="3.93674165" d="M51.328 32.113h7.414"/><path d="M52.313 34.082h-2.954l-1.968-1.969 1.968-1.968h2.953ZM57.758 30.145h2.953l1.969 1.968-1.97 1.969h-2.952ZM68.781 47.797a1.968 1.968 0 1 0-3.936-.002 1.968 1.968 0 0 0 3.936.002m0 0"/><g clip-path="url(#a)"><path fill="none" stroke="#000" stroke-miterlimit="10" stroke-width=".39416811" d="M68.781 47.797a1.968 1.968 0 1 0-3.936-.002 1.968 1.968 0 0 0 3.936.002Zm0 0"/></g><path fill="none" stroke="#000" stroke-miterlimit="10" stroke-width="3.93674165" d="M76.852 16.434h7.414"/><path d="M77.836 18.402h-2.953l-1.969-1.968 1.969-1.97h2.953ZM83.281 14.465h2.953l1.97 1.969-1.97 1.968h-2.953Zm0 0"/><path fill="none" stroke="#000" stroke-miterlimit="10" stroke-width="3.93674165" d="M88.398 20.566v7.414"/><path d="M86.43 21.55v-2.952l1.968-1.97 1.97 1.97v2.953ZM90.367 26.996v2.953l-1.969 1.969-1.968-1.969v-2.953Zm0 0"/><path fill="none" stroke="#000" stroke-miterlimit="10" stroke-width="3.93674165" d="M88.398 36.246v7.414"/><path d="M86.43 37.23v-2.949l1.968-1.968 1.97 1.968v2.95ZM90.367 42.68v2.949l-1.969 1.969-1.968-1.97V42.68Zm0 0"/><path fill="none" stroke="#000" stroke-miterlimit="10" stroke-width="3.93674165" d="M84.266 47.797h-7.414"/><path d="M83.281 45.828h2.953l1.97 1.969-1.97 1.969h-2.953ZM77.836 49.766h-2.953l-1.969-1.97 1.969-1.968h2.953Zm0 0"/><path fill="none" stroke="#000" stroke-miterlimit="10" stroke-width="3.93674165" d="M72.715 43.66v-7.414"/><path d="M74.684 42.68v2.949l-1.97 1.969-1.964-1.97V42.68ZM70.75 37.23v-2.949l1.965-1.968 1.969 1.968v2.95Zm0 0"/><path fill="none" stroke="#000" stroke-miterlimit="10" stroke-width="3.93674165" d="M72.715 27.98v-7.414"/><path d="M74.684 26.996v2.953l-1.97 1.969-1.964-1.969v-2.953ZM70.75 21.55v-2.952l1.965-1.97 1.969 1.97v2.953Zm0 0"/><path fill="none" stroke="#E5E5E5" stroke-miterlimit="10" stroke-width="3.93674165" d="M76.852 32.113h7.414"/><path fill="#E5E5E5" d="M77.836 34.082h-2.953l-1.969-1.969 1.969-1.968h2.953ZM83.281 30.145h2.953l1.97 1.968-1.97 1.969h-2.953Zm0 0"/><path fill="none" stroke="#000" stroke-miterlimit="10" stroke-width="3.93674165" d="M98.438 16.434h7.414"/><path d="M99.422 18.402h-2.953L94.5 16.434l1.969-1.97h2.953ZM104.867 14.465h2.953l1.97 1.969-1.97 1.968h-2.953Zm0 0"/><path fill="none" stroke="#000" stroke-miterlimit="10" stroke-width="3.93674165" d="M109.984 20.566v7.414"/><path d="M108.016 21.55v-2.952l1.968-1.97 1.97 1.97v2.953ZM111.953 26.996v2.953l-1.969 1.969-1.968-1.969v-2.953Zm0 0"/><path fill="none" stroke="#000" stroke-miterlimit="10" stroke-width="3.93674165" d="M109.984 36.246v7.414"/><path d="M108.016 37.23v-2.949l1.968-1.968 1.97 1.968v2.95ZM111.953 42.68v2.949l-1.969 1.969-1.968-1.97V42.68Zm0 0"/><path fill="none" stroke="#000" stroke-miterlimit="10" stroke-width="3.93674165" d="M105.852 47.797h-7.414"/><path d="M104.867 45.828h2.953l1.97 1.969-1.97 1.969h-2.953ZM99.422 49.766h-2.953l-1.969-1.97 1.969-1.968h2.953Zm0 0"/><path fill="none" stroke="#000" stroke-miterlimit="10" stroke-width="3.93674165" d="M94.305 43.66v-7.414"/><path d="M96.273 42.68v2.949l-1.968 1.969-1.97-1.97V42.68ZM92.336 37.23v-2.949l1.969-1.968 1.968 1.968v2.95Zm0 0"/><path fill="none" stroke="#000" stroke-miterlimit="10" stroke-width="3.93674165" d="M94.305 27.98v-7.414"/><path d="M96.273 26.996v2.953l-1.968 1.969-1.97-1.969v-2.953ZM92.336 21.55v-2.952l1.969-1.97 1.968 1.97v2.953Zm0 0"/><path fill="none" stroke="#E5E5E5" stroke-miterlimit="10" stroke-width="3.93674165" d="M98.438 32.113h7.414"/><path fill="#E5E5E5" d="M99.422 34.082h-2.953L94.5 32.113l1.969-1.968h2.953ZM104.867 30.145h2.953l1.97 1.968-1.97 1.969h-2.953Zm0 0"/><path fill="none" stroke="#E5E5E5" stroke-miterlimit="10" stroke-width="3.93674165" d="M120.023 16.434h7.415"/><path fill="#E5E5E5" d="M121.008 18.402h-2.953l-1.97-1.968 1.97-1.97h2.953ZM126.453 14.465h2.953l1.969 1.969-1.969 1.968h-2.953Zm0 0"/><path fill="none" stroke="#000" stroke-miterlimit="10" stroke-width="3.93674165" d="M131.57 20.566v7.414"/><path d="M129.602 21.55v-2.952l1.968-1.97 1.97 1.97v2.953ZM133.54 26.996v2.953l-1.97 1.969-1.968-1.969v-2.953Zm0 0"/><path fill="none" stroke="#000" stroke-miterlimit="10" stroke-width="3.93674165" d="M131.57 36.246v7.414"/><path d="M129.602 37.23v-2.949l1.968-1.968 1.97 1.968v2.95ZM133.54 42.68v2.949l-1.97 1.969-1.968-1.97V42.68Zm0 0"/><path fill="none" stroke="#E5E5E5" stroke-miterlimit="10" stroke-width="3.93674165" d="M127.438 47.797h-7.415"/><path fill="#E5E5E5" d="M126.453 45.828h2.953l1.969 1.969-1.969 1.969h-2.953ZM121.008 49.766h-2.953l-1.97-1.97 1.97-1.968h2.953Zm0 0"/><path fill="none" stroke="#E5E5E5" stroke-miterlimit="10" stroke-width="3.93674165" d="M115.89 43.66v-7.414"/><path fill="#E5E5E5" d="M117.86 42.68v2.949l-1.97 1.969-1.968-1.97V42.68ZM113.922 37.23v-2.949l1.969-1.968 1.968 1.968v2.95Zm0 0"/><path fill="none" stroke="#E5E5E5" stroke-miterlimit="10" stroke-width="3.93674165" d="M115.89 27.98v-7.414"/><path fill="#E5E5E5" d="M117.86 26.996v2.953l-1.97 1.969-1.968-1.969v-2.953ZM113.922 21.55v-2.952l1.969-1.97 1.968 1.97v2.953Zm0 0"/><path fill="none" stroke="#E5E5E5" stroke-miterlimit="10" stroke-width="3.93674165" d="M120.023 32.113h7.415"/><path fill="#E5E5E5" d="M121.008 34.082h-2.953l-1.97-1.969 1.97-1.968h2.953ZM126.453 30.145h2.953l1.969 1.968-1.969 1.969h-2.953Zm0 0"/><path fill="none" stroke="#000" stroke-miterlimit="10" stroke-width="3.93674165" d="M141.61 16.434h7.413"/><path d="M142.594 18.402h-2.953l-1.965-1.968 1.965-1.97h2.953ZM148.04 14.465h2.952l1.969 1.969-1.969 1.968h-2.953Zm0 0"/><path fill="none" stroke="#000" stroke-miterlimit="10" stroke-width="3.93674165" d="M153.16 20.566v7.414"/><path d="M151.191 21.55v-2.952l1.97-1.97 1.968 1.97v2.953ZM155.129 26.996v2.953l-1.969 1.969-1.969-1.969v-2.953Zm0 0"/><path fill="none" stroke="#000" stroke-miterlimit="10" stroke-width="3.93674165" d="M153.16 36.246v7.414"/><path d="M151.191 37.23v-2.949l1.97-1.968 1.968 1.968v2.95ZM155.129 42.68v2.949l-1.969 1.969-1.969-1.97V42.68Zm0 0"/><path fill="none" stroke="#000" stroke-miterlimit="10" stroke-width="3.93674165" d="M149.023 47.797h-7.414"/><path d="M148.04 45.828h2.952l1.969 1.969-1.969 1.969h-2.953ZM142.594 49.766h-2.953l-1.965-1.97 1.965-1.968h2.953Zm0 0"/><path fill="none" stroke="#E5E5E5" stroke-miterlimit="10" stroke-width="3.93674165" d="M137.477 43.66v-7.414"/><path fill="#E5E5E5" d="M139.445 42.68v2.949l-1.968 1.969-1.97-1.97V42.68ZM135.508 37.23v-2.949l1.969-1.968 1.968 1.968v2.95Zm0 0"/><path fill="none" stroke="#E5E5E5" stroke-miterlimit="10" stroke-width="3.93674165" d="M137.477 27.98v-7.414"/><path fill="#E5E5E5" d="M139.445 26.996v2.953l-1.968 1.969-1.97-1.969v-2.953ZM135.508 21.55v-2.952l1.969-1.97 1.968 1.97v2.953Zm0 0"/><path fill="none" stroke="#000" stroke-miterlimit="10" stroke-width="3.93674165" d="M141.61 32.113h7.413"/><path d="M142.594 34.082h-2.953l-1.965-1.969 1.965-1.968h2.953ZM148.04 30.145h2.952l1.969 1.968-1.969 1.969h-2.953Zm0 0"/><path fill="none" stroke="#000" stroke-miterlimit="10" stroke-width="3.93674165" d="M163.2 16.434h7.413"/><path d="M164.184 18.402h-2.954l-1.968-1.968 1.968-1.97h2.954ZM169.629 14.465h2.953l1.965 1.969-1.965 1.968h-2.953Zm0 0"/><path fill="none" stroke="#000" stroke-miterlimit="10" stroke-width="3.93674165" d="M174.746 20.566v7.414"/><path d="M172.777 21.55v-2.952l1.97-1.97 1.968 1.97v2.953ZM176.715 26.996v2.953l-1.969 1.969-1.969-1.969v-2.953Zm0 0"/><path fill="none" stroke="#000" stroke-miterlimit="10" stroke-width="3.93674165" d="M174.746 36.246v7.414"/><path d="M172.777 37.23v-2.949l1.97-1.968 1.968 1.968v2.95ZM176.715 42.68v2.949l-1.969 1.969-1.969-1.97V42.68Zm0 0"/><path fill="none" stroke="#E5E5E5" stroke-miterlimit="10" stroke-width="3.93674165" d="M170.613 47.797H163.2"/><path fill="#E5E5E5" d="M169.629 45.828h2.953l1.965 1.969-1.965 1.969h-2.953ZM164.184 49.766h-2.954l-1.968-1.97 1.968-1.968h2.954Zm0 0"/><path fill="none" stroke="#E5E5E5" stroke-miterlimit="10" stroke-width="3.93674165" d="M159.063 43.66v-7.414"/><path fill="#E5E5E5" d="M161.031 42.68v2.949l-1.969 1.969-1.968-1.97V42.68ZM157.094 37.23v-2.949l1.969-1.968 1.968 1.968v2.95Zm0 0"/><path fill="none" stroke="#E5E5E5" stroke-miterlimit="10" stroke-width="3.93674165" d="M159.063 27.98v-7.414"/><path fill="#E5E5E5" d="M161.031 26.996v2.953l-1.969 1.969-1.968-1.969v-2.953ZM157.094 21.55v-2.952l1.969-1.97 1.968 1.97v2.953Zm0 0"/><path fill="none" stroke="#E5E5E5" stroke-miterlimit="10" stroke-width="3.93674165" d="M163.2 32.113h7.413"/><path fill="#E5E5E5" d="M164.184 34.082h-2.954l-1.968-1.969 1.968-1.968h2.954ZM169.629 30.145h2.953l1.965 1.968-1.965 1.969h-2.953Zm0 0"/><use xlink:href="#b" x="181.173" y="35.475"/><use xlink:href="#c" x="190.198" y="35.475"/><use xlink:href="#d" x="197.579" y="35.475"/><use xlink:href="#e" x="163.212" y="10.002"/></svg>