<svg xmlns="http://www.w3.org/2000/svg" width="113.781" height="93.577"><defs><clipPath id="a"><path d="M.148 89H4v4H.148Zm0 0"/></clipPath><clipPath id="b"><path d="M.148 84H10v9.156H.148Zm0 0"/></clipPath><clipPath id="c"><path d="M34 84h16v9.156H34Zm0 0"/></clipPath><clipPath id="d"><path d="M101 84h12.414v9.156H101Zm0 0"/></clipPath><clipPath id="e"><path d="M.148 9H4v5H.148Zm0 0"/></clipPath><clipPath id="f"><path d="M.148 4H10v15H.148Zm0 0"/></clipPath><clipPath id="g"><path d="M101 4h12.414v15H101Zm0 0"/></clipPath></defs><path fill="none" stroke="#000" stroke-miterlimit="10" stroke-width=".3972045" d="M1.926 91.379h19.953m0 0h53.203m0 0h33.254"/><g clip-path="url(#a)"><path fill="#FFF" d="M3.504 91.379a1.58 1.58 0 1 0-3.16-.005 1.58 1.58 0 0 0 3.16.005m0 0"/></g><g clip-path="url(#b)"><path fill="none" stroke="#000" stroke-miterlimit="10" stroke-width=".3972045" d="M3.504 91.379a1.58 1.58 0 1 0-3.16-.005 1.58 1.58 0 0 0 3.16.005Zm0 0"/></g><path d="M43.41 91.379a1.58 1.58 0 1 0-3.16-.003 1.58 1.58 0 0 0 3.16.003m0 0"/><g clip-path="url(#c)"><path fill="none" stroke="#000" stroke-miterlimit="10" stroke-width=".3972045" d="M43.41 91.379a1.58 1.58 0 1 0-3.16-.003 1.58 1.58 0 0 0 3.16.003Zm0 0"/></g><path fill="#FFF" d="M109.918 91.379a1.58 1.58 0 1 0-3.161-.005 1.58 1.58 0 0 0 3.161.005m0 0"/><g clip-path="url(#d)"><path fill="none" stroke="#000" stroke-miterlimit="10" stroke-width=".3972045" d="M109.918 91.379a1.58 1.58 0 1 0-3.161-.005 1.58 1.58 0 0 0 3.161.005Zm0 0"/></g><path fill="none" stroke="#000" stroke-miterlimit="10" stroke-width=".3972045" d="M1.926 11.57h16.226m7.45 0h34.582m29.796 0h18.356"/><path fill="none" stroke="#000" stroke-miterlimit="10" stroke-width=".7934135000000001" d="M18.152.395v22.347M25.602.395v22.347"/><g clip-path="url(#e)"><path fill="#FFF" d="M3.504 11.57a1.58 1.58 0 1 0-3.16-.005 1.58 1.58 0 0 0 3.16.005m0 0"/></g><g clip-path="url(#f)"><path fill="none" stroke="#000" stroke-miterlimit="10" stroke-width=".3972045" d="M3.504 11.57a1.58 1.58 0 1 0-3.16-.005 1.58 1.58 0 0 0 3.16.005Zm0 0"/></g><path stroke="#000" stroke-miterlimit="10" stroke-width=".3972045" d="M43.41 11.57a1.58 1.58 0 1 0-3.16-.003 1.58 1.58 0 0 0 3.16.003Zm0 0"/><path fill="none" stroke="#000" stroke-linejoin="bevel" stroke-miterlimit="10" stroke-width=".7934135000000001" d="M59.79 11.727c0-3.082 1.71-5.586 3.823-5.586 2.11 0 3.824 2.504 3.824 5.586 0-3.082 1.711-5.586 3.82-5.586 2.114 0 3.825 2.504 3.825 5.586 0-3.082 1.711-5.586 3.824-5.586 2.114 0 3.824 2.504 3.824 5.586 0-3.082 1.711-5.586 3.825-5.586 2.11 0 3.82 2.504 3.82 5.586"/><path fill="#FFF" d="M109.918 11.57a1.58 1.58 0 1 0-3.161-.005 1.58 1.58 0 0 0 3.161.005m0 0"/><g clip-path="url(#g)"><path fill="none" stroke="#000" stroke-miterlimit="10" stroke-width=".3972045" d="M109.918 11.57a1.58 1.58 0 1 0-3.161-.005 1.58 1.58 0 0 0 3.161.005Zm0 0"/></g><path fill="none" stroke="#000" stroke-miterlimit="10" stroke-width=".3972045" d="M41.828 91.379v-36.18m0-7.449V11.57"/><path fill="none" stroke="#000" stroke-miterlimit="10" stroke-width=".7934135000000001" d="M30.656 55.2h22.348m-22.348-7.45h22.348"/></svg>