<svg xmlns="http://www.w3.org/2000/svg" width="113.781" height="87.805"><defs><clipPath id="a"><path d="M.016 84H4v3.61H.016Zm0 0"/></clipPath><clipPath id="b"><path d="M.016 78H10v9.61H.016Zm0 0"/></clipPath><clipPath id="c"><path d="M106 84h5v3.61h-5Zm0 0"/></clipPath><clipPath id="d"><path d="M101 78h12.547v9.61H101Zm0 0"/></clipPath><clipPath id="e"><path d="M.016 4H4v4H.016Zm0 0"/></clipPath><clipPath id="f"><path d="M.016 0H10v14H.016Zm0 0"/></clipPath><clipPath id="g"><path d="M26 84h5v3.61h-5Zm0 0"/></clipPath><clipPath id="h"><path d="M21 78h15v9.61H21Zm0 0"/></clipPath><clipPath id="i"><path d="M80 84h4v3.61h-4Zm0 0"/></clipPath><clipPath id="j"><path d="M74 78h15v9.61H74Zm0 0"/></clipPath></defs><path fill="none" stroke="#000" stroke-miterlimit="10" stroke-width=".39811422" d="M1.8 85.828H15.13m0 0h25.066m29.864 0H95.12m0 0h13.332"/><g clip-path="url(#a)"><path fill="#FFF" d="M3.383 85.828a1.583 1.583 0 1 0-3.166.002 1.583 1.583 0 0 0 3.166-.002m0 0"/></g><g clip-path="url(#b)"><path fill="none" stroke="#000" stroke-miterlimit="10" stroke-width=".39811422" d="M3.383 85.828a1.583 1.583 0 1 0-3.166.002 1.583 1.583 0 0 0 3.166-.002Zm0 0"/></g><path fill="none" stroke="#000" stroke-linejoin="bevel" stroke-miterlimit="10" stroke-width=".7952306600000001" d="M39.797 85.988c0-3.093 1.715-5.601 3.832-5.601s3.832 2.508 3.832 5.601c0-3.093 1.715-5.601 3.832-5.601s3.832 2.508 3.832 5.601c0-3.093 1.719-5.601 3.832-5.601 2.117 0 3.836 2.508 3.836 5.601 0-3.093 1.715-5.601 3.832-5.601 2.113 0 3.832 2.508 3.832 5.601"/><g clip-path="url(#c)"><path fill="#FFF" d="M110.04 85.828a1.584 1.584 0 0 0-3.169 0 1.584 1.584 0 0 0 3.168 0m0 0"/></g><g clip-path="url(#d)"><path fill="none" stroke="#000" stroke-miterlimit="10" stroke-width=".39811422" d="M110.04 85.828a1.584 1.584 0 0 0-3.169 0 1.584 1.584 0 0 0 3.168 0Zm0 0"/></g><path fill="none" stroke="#000" stroke-miterlimit="10" stroke-width=".39811422" d="M1.8 5.836H15.13m0 0h25.066m29.864 0H95.12m0 0h13.332"/><g clip-path="url(#e)"><path fill="#FFF" d="M3.383 5.836a1.583 1.583 0 1 0-3.166.002 1.583 1.583 0 0 0 3.166-.002m0 0"/></g><g clip-path="url(#f)"><path fill="none" stroke="#000" stroke-miterlimit="10" stroke-width=".39811422" d="M3.383 5.836a1.583 1.583 0 1 0-3.166.002 1.583 1.583 0 0 0 3.166-.002Zm0 0"/></g><path fill="none" stroke="#000" stroke-linejoin="bevel" stroke-miterlimit="10" stroke-width=".7952306600000001" d="M39.797 5.996c0-3.094 1.715-5.598 3.832-5.598s3.832 2.504 3.832 5.598c0-3.094 1.715-5.598 3.832-5.598s3.832 2.504 3.832 5.598c0-3.094 1.719-5.598 3.832-5.598 2.117 0 3.836 2.504 3.836 5.598 0-3.094 1.715-5.598 3.832-5.598 2.113 0 3.832 2.504 3.832 5.598"/><path fill="none" stroke="#000" stroke-miterlimit="10" stroke-width=".39811422" d="M28.46 85.828V49.566m0-7.464V5.836"/><path fill="none" stroke="#000" stroke-miterlimit="10" stroke-width=".7952306600000001" d="M17.266 49.566H39.66m-22.394-7.464H39.66"/><g clip-path="url(#g)"><path d="M30.047 85.828a1.584 1.584 0 0 0-3.168 0 1.583 1.583 0 0 0 3.168 0m0 0"/></g><g clip-path="url(#h)"><path fill="none" stroke="#000" stroke-miterlimit="10" stroke-width=".39811422" d="M30.047 85.828a1.584 1.584 0 0 0-3.168 0 1.583 1.583 0 0 0 3.168 0Zm0 0"/></g><path stroke="#000" stroke-miterlimit="10" stroke-width=".39811422" d="M30.047 5.836a1.584 1.584 0 1 0-3.168.003 1.584 1.584 0 0 0 3.168-.003Zm0 0"/><path fill="none" stroke="#000" stroke-miterlimit="10" stroke-width=".39811422" d="M81.79 85.828V49.566m0-7.464V5.836"/><path fill="none" stroke="#000" stroke-miterlimit="10" stroke-width=".7952306600000001" d="M70.59 49.566h22.398M70.59 42.102h22.398"/><g clip-path="url(#i)"><path d="M83.375 85.828a1.584 1.584 0 0 0-3.168 0 1.584 1.584 0 0 0 3.168 0m0 0"/></g><g clip-path="url(#j)"><path fill="none" stroke="#000" stroke-miterlimit="10" stroke-width=".39811422" d="M83.375 85.828a1.584 1.584 0 0 0-3.168 0 1.584 1.584 0 0 0 3.168 0Zm0 0"/></g><path stroke="#000" stroke-miterlimit="10" stroke-width=".39811422" d="M83.375 5.836a1.584 1.584 0 1 0-3.167.003 1.584 1.584 0 0 0 3.167-.003Zm0 0"/></svg>