<svg xmlns="http://www.w3.org/2000/svg" width="113.781" height="87.805"><defs><clipPath id="a"><path d="M.016 84H4v3.61H.016Zm0 0"/></clipPath><clipPath id="b"><path d="M.016 78H10v9.61H.016Zm0 0"/></clipPath><clipPath id="c"><path d="M106 84h5v3.61h-5Zm0 0"/></clipPath><clipPath id="d"><path d="M101 78h12.547v9.61H101Zm0 0"/></clipPath><clipPath id="e"><path d="M.016 4H4v4H.016Zm0 0"/></clipPath><clipPath id="f"><path d="M.016 0H10v14H.016Zm0 0"/></clipPath><clipPath id="g"><path d="M101 0h12.547v14H101Zm0 0"/></clipPath><clipPath id="h"><path d="M53 84h4v3.61h-4Zm0 0"/></clipPath><clipPath id="i"><path d="M47 78h16v9.61H47Zm0 0"/></clipPath></defs><path fill="none" stroke="#000" stroke-miterlimit="10" stroke-width=".39811422" d="M1.8 85.828h26.66m0 0h53.33m0 0h26.663"/><g clip-path="url(#a)"><path fill="#FFF" d="M3.383 85.828a1.583 1.583 0 1 0-3.166.002 1.583 1.583 0 0 0 3.166-.002m0 0"/></g><g clip-path="url(#b)"><path fill="none" stroke="#000" stroke-miterlimit="10" stroke-width=".39811422" d="M3.383 85.828a1.583 1.583 0 1 0-3.166.002 1.583 1.583 0 0 0 3.166-.002Zm0 0"/></g><g clip-path="url(#c)"><path fill="#FFF" d="M110.04 85.828a1.584 1.584 0 0 0-3.169 0 1.584 1.584 0 0 0 3.168 0m0 0"/></g><g clip-path="url(#d)"><path fill="none" stroke="#000" stroke-miterlimit="10" stroke-width=".39811422" d="M110.04 85.828a1.584 1.584 0 0 0-3.169 0 1.584 1.584 0 0 0 3.168 0Zm0 0"/></g><path fill="none" stroke="#000" stroke-miterlimit="10" stroke-width=".39811422" d="M1.8 5.836h11.731m29.864 0h23.464m29.864 0h11.73"/><path fill="none" stroke="#000" stroke-linejoin="bevel" stroke-miterlimit="10" stroke-width=".7952306600000001" d="M13.133 5.996c0-3.094 1.715-5.598 3.832-5.598s3.832 2.504 3.832 5.598c0-3.094 1.719-5.598 3.832-5.598 2.117 0 3.832 2.504 3.832 5.598 0-3.094 1.719-5.598 3.836-5.598 2.113 0 3.832 2.504 3.832 5.598 0-3.094 1.715-5.598 3.832-5.598s3.832 2.504 3.832 5.598"/><g clip-path="url(#e)"><path fill="#FFF" d="M3.383 5.836a1.583 1.583 0 1 0-3.166.002 1.583 1.583 0 0 0 3.166-.002m0 0"/></g><g clip-path="url(#f)"><path fill="none" stroke="#000" stroke-miterlimit="10" stroke-width=".39811422" d="M3.383 5.836a1.583 1.583 0 1 0-3.166.002 1.583 1.583 0 0 0 3.166-.002Zm0 0"/></g><path fill="none" stroke="#000" stroke-linejoin="bevel" stroke-miterlimit="10" stroke-width=".7952306600000001" d="M66.46 5.996c0-3.094 1.716-5.598 3.833-5.598s3.832 2.504 3.832 5.598c0-3.094 1.715-5.598 3.832-5.598s3.832 2.504 3.832 5.598c0-3.094 1.719-5.598 3.832-5.598 2.117 0 3.832 2.504 3.832 5.598 0-3.094 1.719-5.598 3.836-5.598 2.113 0 3.832 2.504 3.832 5.598"/><path fill="#FFF" d="M110.04 5.836a1.584 1.584 0 1 0-3.168.003 1.584 1.584 0 0 0 3.167-.003m0 0"/><g clip-path="url(#g)"><path fill="none" stroke="#000" stroke-miterlimit="10" stroke-width=".39811422" d="M110.04 5.836a1.584 1.584 0 1 0-3.168.003 1.584 1.584 0 0 0 3.167-.003Zm0 0"/></g><path fill="none" stroke="#000" stroke-miterlimit="10" stroke-width=".39811422" d="M55.125 85.828V49.566m0-7.464V5.836"/><path fill="none" stroke="#000" stroke-miterlimit="10" stroke-width=".7952306600000001" d="M43.926 49.566h22.398m-22.398-7.464h22.398"/><g clip-path="url(#h)"><path d="M56.71 85.828a1.584 1.584 0 0 0-3.167 0 1.584 1.584 0 0 0 3.168 0m0 0"/></g><g clip-path="url(#i)"><path fill="none" stroke="#000" stroke-miterlimit="10" stroke-width=".39811422" d="M56.71 85.828a1.584 1.584 0 0 0-3.167 0 1.584 1.584 0 0 0 3.168 0Zm0 0"/></g><path stroke="#000" stroke-miterlimit="10" stroke-width=".39811422" d="M56.71 5.836a1.584 1.584 0 1 0-3.167.003 1.584 1.584 0 0 0 3.168-.003Zm0 0"/></svg>