<svg xmlns="http://www.w3.org/2000/svg" xmlns:xlink="http://www.w3.org/1999/xlink" width="218.914" height="140.831"><defs><path id="c" d="M3.656-3.984h.86c.187 0 .296 0 .296-.204 0-.109-.109-.109-.28-.109h-.813l.203-1.125c.047-.219.172-.922.234-1.031.094-.203.266-.344.469-.344.047 0 .297 0 .484.172a.552.552 0 0 0-.53.547c0 .219.171.344.374.344.25 0 .547-.22.547-.594 0-.453-.469-.688-.875-.688-.328 0-.969.172-1.266 1.157-.062.218-.078.312-.328 1.562h-.687c-.188 0-.297 0-.297.203 0 .11.094.11.281.11h.656l-.75 3.937c-.171.969-.343 1.875-.859 1.875-.047 0-.297 0-.484-.187.468-.032.546-.391.546-.532 0-.234-.171-.359-.359-.359-.266 0-.547.219-.547.61 0 .437.438.687.844.687.547 0 .938-.594 1.125-.969.313-.625.547-1.828.563-1.906Zm0 0"/><path id="d" d="M-2.563-5.797v.25c1.016.11 2.25.25 2.25 2v.813c0 .468-.062.5-.39.5h-5.313c-.328 0-.468 0-.468-.954v-.328h-.313c.031.36.031 1.266.031 1.672 0 .39 0 1.172-.03 1.516h.312v-.234c0-.766.109-.797.468-.797H-.78c.36 0 .469.03.469.796v.235H0v-5.188Zm0 0"/><path id="e" d="M-1.188-4.125c-.093 0-.109.078-.109.125 0 .094.047.11.125.125C-.14-3.515-.14-2.625-.14-2.531c0 .5-.296.906-.671 1.125-.47.297-1.125.297-1.485.297v-2.766c0-.219 0-.25-.219-.25-.984 0-1.937.531-1.937 1.781 0 1.156 1.016 2.063 2.266 2.063C-.86-.281.108-1.328.108-2.47.11-3.688-1-4.125-1.187-4.125Zm-1.328.656v2.36c-1.468-.063-1.718-.907-1.718-1.235 0-1.031 1.343-1.125 1.718-1.125Zm0 0"/><path id="f" d="M0-2.453h-.313c0 .656-.046.687-.437.687h-3.656l.11 1.391h.312c0-.64.062-.734.546-.734H-.75c.438 0 .438.109.438.78H0l-.031-1.093c0-.344.015-.703.031-1.031Zm-6.016.547c-.265 0-.53.218-.53.515a.54.54 0 0 0 .53.547.547.547 0 0 0 .532-.531.525.525 0 0 0-.532-.531Zm0 0"/><path id="g" d="M-1.281-3.578c-.516 0-.813.297-.938.406-.312.328-.406.719-.484 1.14-.11.563-.235 1.22-.813 1.22-.343 0-.75-.25-.75-1.11 0-1.094.891-1.14 1.204-1.156.093-.016.093-.125.093-.125 0-.125-.062-.125-.25-.125h-1c-.172 0-.234 0-.234.11 0 .046 0 .062.11.187.046.031.14.14.155.172-.265.375-.265.796-.265.937 0 1.219.656 1.594 1.219 1.594.343 0 .625-.156.843-.422.266-.328.329-.61.454-1.313.046-.234.203-1.046.921-1.046.516 0 .907.359.907 1.125 0 .843-.563 1.203-1.407 1.39-.14.031-.171.031-.171.14 0 .126.062.126.25.126h1.312c.172 0 .234 0 .234-.11 0-.046-.015-.062-.203-.25-.015-.015-.031-.015-.218-.203a1.51 1.51 0 0 0 .421-1.093c0-1.141-.671-1.594-1.39-1.594Zm0 0"/><path id="h" d="M-1.234-3.297h-.563v.235h.547c.734 0 1.11.312 1.11.671 0 .672-.907.672-1.079.672h-2.765V-3.14h-.313v1.422h-1.828v.25c.813 0 1.89.297 1.922 1.282h.219v-.844h2.75c1.218 0 1.343-.922 1.343-1.282 0-.718-.703-.984-1.343-.984Zm0 0"/><path id="i" d="M0-5.328h-.313c0 .703-.062.781-.546.781h-3.547l.11 1.469h.312c0-.703.078-.781.562-.781h1.766c.875 0 1.547.468 1.547 1.203 0 .828-.47.875-.985.875h-3.312l.11 1.468h.312c0-.78.03-.78.921-.78h1.485c.781 0 1.687 0 1.687-1.516 0-.563-.28-1-.89-1.282h.89Zm0 0"/><path id="j" d="M0-5.328h-.313c0 .516 0 .766-.296.781h-1.907c-.843 0-1.156 0-1.515.313-.172.14-.375.468-.375 1.046 0 .72.437 1.188 1.047 1.47h-1.047l.11 1.405h.312c0-.703.078-.78.562-.78H-.75c.438 0 .438.109.438.78H0l-.031-1.125L0-2.563h-.313c0 .672 0 .782-.437.782h-1.844c-1.031 0-1.594-.703-1.594-1.344 0-.625.547-.734 1.11-.734H-.75c.438 0 .438.109.438.78H0l-.031-1.124Zm0 0"/><path id="k" d="M-4.016-4.828a.5.5 0 0 0-.5.516c0 .187.063.625.47 1.046-.329.422-.36.844-.36 1.063 0 .922.687 1.61 1.453 1.61.437 0 .828-.22 1.031-.47.156.125.484.313.828.313.313 0 .688-.14.89-.438.157.594.595.907.985.907.719 0 1.266-.985 1.266-2.203 0-1.172-.5-2.204-1.281-2.204-.344 0-.86.141-1.141.641-.266.531-.266 1.11-.266 1.719 0 .25 0 .672-.015.75-.047.312-.344.516-.672.516-.031 0-.266 0-.469-.157.281-.39.313-.797.313-.984 0-.938-.688-1.625-1.454-1.625-.359 0-.734.172-.968.422-.328-.36-.39-.719-.39-.906 0 0 0-.063.015-.094.047.11.156.156.265.156.172 0 .297-.125.297-.281 0-.11-.078-.297-.297-.297Zm1.063 1.75c.281 0 .594.015.844.156.125.078.39.313.39.719 0 .86-.984.86-1.218.86-.266 0-.579-.016-.829-.157-.125-.078-.406-.313-.406-.703 0-.875 1-.875 1.219-.875ZM.78-4.172c.547 0 1.047.703 1.047 1.688 0 1-.516 1.687-1.047 1.687a.855.855 0 0 1-.844-.812v-.594c0-.86 0-1.969.844-1.969Zm0 0"/><path id="l" d="M4.469-1.734h-.25c-.047.296-.125.734-.219.89-.063.078-.719.078-.938.078H1.266l1.046-1.03C3.875-3.173 4.47-3.704 4.47-4.704c0-1.125-.89-1.922-2.11-1.922A1.83 1.83 0 0 0 .5-4.828c0 .562.5.562.531.562.157 0 .516-.125.516-.53a.504.504 0 0 0-.531-.516H.89c.218-.641.765-1 1.343-1 .907 0 1.329.796 1.329 1.609 0 .797-.5 1.594-1.047 2.203L.609-.375C.5-.265.5-.235.5 0h3.688Zm0 0"/><path id="m" d="M4.547-3.281c0-2.672-1.14-3.344-2.031-3.344-.547 0-1.032.172-1.454.625-.421.453-.64.86-.64 1.61 0 1.25.875 2.218 1.984 2.218.61 0 1.016-.422 1.25-1v.328c0 2.328-1.031 2.781-1.61 2.781-.171 0-.718-.015-.983-.359.437 0 .515-.281.515-.453 0-.313-.234-.453-.453-.453-.156 0-.453.078-.453.469 0 .671.531 1.078 1.375 1.078 1.281 0 2.5-1.36 2.5-3.5Zm-.906-.906c0 .828-.344 1.78-1.22 1.78-.155 0-.624 0-.921-.624-.188-.36-.188-.86-.188-1.344 0-.547 0-1.016.204-1.375.28-.5.656-.625 1-.625.453 0 .78.328.953.781.125.313.172.953.172 1.407Zm0 0"/><path id="n" d="M8.75 0v-.313h-.234c-.766 0-.797-.109-.797-.468v-5.235c0-.359.031-.468.797-.468h.234v-.313H7.062c-.25 0-.25.016-.328.188L4.563-1 2.405-6.578c-.094-.219-.125-.219-.36-.219H.376v.313h.234c.766 0 .782.109.782.468v4.97c0 .265 0 .734-1.016.734V0l1.156-.031L2.703 0v-.313c-1.031 0-1.031-.468-1.031-.734v-5.36h.016l2.39 6.188c.047.125.11.219.203.219.11 0 .14-.078.172-.188l2.453-6.296h.016v5.703c0 .36-.031.469-.797.469h-.234V0c.375-.031 1.046-.031 1.437-.031.39 0 1.047 0 1.422.031Zm0 0"/><path id="o" d="M7.125 0v-.313h-.234c-.766 0-.797-.109-.797-.468v-5.235c0-.359.031-.468.797-.468h.234v-.313c-.344.031-1.078.031-1.469.031-.375 0-1.125 0-1.468-.03v.312h.234c.781 0 .797.109.797.468v2.329H2.234v-2.329c0-.359.032-.468.797-.468h.235v-.313c-.344.031-1.079.031-1.47.031-.374 0-1.124 0-1.468-.03v.312h.234c.766 0 .797.109.797.468V-.78c0 .36-.03.469-.796.469H.328V0c.344-.031 1.078-.031 1.469-.031.375 0 1.125 0 1.469.031v-.313H3.03c-.765 0-.797-.109-.797-.468v-2.61H5.22v2.61c0 .36-.016.469-.797.469h-.234V0C4.53-.031 5.28-.031 5.655-.031s1.125 0 1.469.031Zm0 0"/><path id="p" d="M3.984-1.86H3.75C3.656-.686 3.437-.25 2.297-.25H1.109l2.766-3.734c.094-.11.094-.141.094-.172 0-.14-.078-.14-.25-.14H.53l-.11 1.609h.25c.063-1.016.25-1.391 1.345-1.391H3.14L.375-.312c-.094.109-.094.124-.094.171C.281 0 .344 0 .531 0h3.297Zm0 0"/><clipPath id="a"><path d="M206 112h12.738v16H206Zm0 0"/></clipPath><clipPath id="b"><path d="M206 112h12.738v16H206Zm0 0"/></clipPath><clipPath id="q"><path d="M104 0h114.738v132H104Zm0 0"/></clipPath></defs><path fill="none" stroke="#000" stroke-miterlimit="10" stroke-width=".3985212" d="M15.766 119.875h195.996"/><path d="m214.832 119.875-2.973-1.762v3.524Zm0 0"/><g clip-path="url(#a)"><path fill="none" stroke="#000" stroke-miterlimit="10" stroke-width=".3985212" d="m214.832 119.875-2.973-1.762v3.524Zm0 0"/></g><path fill="none" stroke="#000" stroke-miterlimit="10" stroke-width=".3985212" d="M15.766 119.875h195.996"/><path d="m214.832 119.875-2.973-1.762v3.524Zm0 0"/><g clip-path="url(#b)"><path fill="none" stroke="#000" stroke-miterlimit="10" stroke-width=".3985212" d="m214.832 119.875-2.973-1.762v3.524Zm0 0"/></g><use xlink:href="#c" x="205.769" y="130.302"/><path fill="none" stroke="#000" stroke-miterlimit="10" stroke-width=".3985212" d="M15.766 119.875V3.665"/><path stroke="#000" stroke-miterlimit="10" stroke-width=".3985212" d="m15.766.594-1.762 2.972h3.523Zm0 0"/><use xlink:href="#d" x="10.201" y="40.95"/><use xlink:href="#e" x="10.201" y="34.731"/><use xlink:href="#f" x="10.201" y="30.313"/><use xlink:href="#g" x="10.201" y="27.546"/><use xlink:href="#h" x="10.201" y="23.626"/><use xlink:href="#i" x="10.201" y="19.755"/><use xlink:href="#j" x="10.201" y="14.222"/><use xlink:href="#k" x="10.201" y="8.69"/><use xlink:href="#l" x="99.189" y="137.126"/><use xlink:href="#m" x="104.165" y="137.126"/><use xlink:href="#n" x="110.792" y="137.126"/><use xlink:href="#o" x="119.917" y="137.126"/><use xlink:href="#p" x="127.38" y="137.126"/><path fill="none" stroke="#000" stroke-miterlimit="10" stroke-width=".7960436000000001" d="M15.766 119.875h3.992c31.77 0 59.152-48.668 84.992-94.793 1.531-2.726 3.922-7.2 5.34-9.984.031-.059 2.52-4.926 5.41-4.926"/><g clip-path="url(#q)"><path fill="none" stroke="#000" stroke-miterlimit="10" stroke-width=".7960436000000001" d="M211.242 119.875c-31.773 0-59.152-48.668-84.996-94.793a335.125 335.125 0 0 1-5.34-9.984c-.031-.059-2.52-4.926-5.406-4.926"/></g><path fill="none" stroke="#000" stroke-dasharray="2.985243404 2.985243404" stroke-miterlimit="10" stroke-width=".3985212" d="M115.5 119.875V.195"/></svg>