<svg xmlns="http://www.w3.org/2000/svg" xmlns:xlink="http://www.w3.org/1999/xlink" width="224.832" height="111.247"><defs><path id="c" d="M2.906-6.328c0-.234 0-.266-.219-.266-.624.64-1.484.64-1.812.64v.313c.203 0 .781 0 1.297-.265v5.125c0 .36-.031.469-.922.469H.938V0C1.28-.031 2.14-.031 2.547-.031c.39 0 1.25 0 1.594.031v-.312h-.313c-.89 0-.922-.11-.922-.47Zm0 0"/><path id="e" d="M4.438-1.984c0-1.188-.813-2.172-1.875-2.172-.47 0-.907.156-1.25.5v-1.922c.187.062.515.125.828.125 1.218 0 1.922-.89 1.922-1.031 0-.047-.032-.11-.11-.11 0 0-.031 0-.078.032a3.198 3.198 0 0 1-1.344.296c-.39 0-.844-.078-1.312-.28-.078-.032-.094-.032-.125-.032C1-6.578 1-6.5 1-6.344v2.938c0 .172 0 .25.14.25.063 0 .079-.031.126-.094.109-.156.468-.687 1.28-.687.517 0 .75.453.829.64.172.36.188.75.188 1.235 0 .343 0 .937-.235 1.359-.25.39-.61.64-1.062.64-.72 0-1.282-.515-1.453-1.109.03.016.062.031.171.031.329 0 .485-.25.485-.484 0-.25-.157-.484-.485-.484-.14 0-.484.062-.484.515C.5-.734 1.172.22 2.281.22c1.156 0 2.157-.953 2.157-2.203m0 0"/><path id="f" d="M6.14-5.781c.141-.375.407-.657 1.079-.672v-.297a22.29 22.29 0 0 1-.953.031c-.297 0-.875-.031-1.125-.031v.297c.5.016.718.266.718.5 0 .078-.03.14-.046.203L4-.984l-1.89-5c-.063-.141-.063-.157-.063-.172 0-.297.562-.297.812-.297v-.297c-.359.031-1.046.031-1.421.031-.47 0-.891-.031-1.25-.031v.297c.64 0 .828 0 .968.375L3.453 0c.063.188.125.219.25.219.172 0 .188-.047.235-.188Zm0 0"/><path id="d" d="M2-.016c0-.64-.234-1.03-.625-1.03a.514.514 0 0 0-.531.515c0 .281.203.531.531.531.125 0 .25-.047.344-.125.031-.016.047-.031.047-.031.015 0 .03.015.03.14 0 .735-.359 1.329-.671 1.657-.11.109-.11.125-.11.156 0 .078.048.11.094.11.11 0 .891-.766.891-1.923m0 0"/><path id="i" d="M7.219-6.453v-.297a22.29 22.29 0 0 1-.953.031L5.14-6.75v.297c.5.016.718.266.718.5 0 .078-.03.14-.046.203L4-.984l-1.89-5c-.063-.141-.063-.172-.063-.172 0-.297.562-.297.812-.297v-.297c-.359.031-1.046.031-1.421.031L.188-6.75v.297c.64 0 .828 0 .968.375L3.453 0c.063.188.125.219.25.219.172 0 .188-.047.235-.188L6.14-5.78c.14-.375.406-.657 1.078-.672m0 0"/><path id="j" d="M4.11-5.64c0-.579-.407-1.329-1.876-1.329-1.062 0-1.687.672-1.687 1.313 0 .328.234.468.469.468a.435.435 0 0 0 .453-.453c0-.437-.422-.437-.563-.437.313-.531.89-.672 1.297-.672 1.078 0 1.078.672 1.078 1.047 0 .594-.156.766-.328.953-.656.703-.875 1.61-.875 2.219v.437c0 .188 0 .25.125.25s.125-.093.125-.265v-.36c0-1.234.953-1.937 1.297-2.203.266-.187.484-.547.484-.969M2.718-.532a.524.524 0 1 0-1.047.016.524.524 0 0 0 1.047-.016m0 0"/><clipPath id="a"><path d="M.672 24H5v4H.672Zm0 0"/></clipPath><clipPath id="b"><path d="M.672 18H10v16H.672Zm0 0"/></clipPath><clipPath id="g"><path d="M211 18h12.992v16H211Zm0 0"/></clipPath><clipPath id="h"><path d="M87 75h47v35.5H87Zm0 0"/></clipPath><clipPath id="k"><path d="M211 18h12.992v16H211Zm0 0"/></clipPath></defs><path fill="none" stroke="#000" stroke-miterlimit="10" stroke-width=".39631872000000007" d="M2.445 26.117h48.207m11.828 0h48.208m108.238 0V62.2m0 0v36.078h-96.414m-23.653 0H2.445V62.2m0 0V26.117"/><g clip-path="url(#a)"><path d="M4.023 26.117c0-.87-.707-1.574-1.578-1.574a1.575 1.575 0 1 0 1.578 1.574m0 0"/></g><g clip-path="url(#b)"><path fill="none" stroke="#000" stroke-miterlimit="10" stroke-width=".39631872000000007" d="M4.023 26.117c0-.87-.707-1.574-1.578-1.574a1.575 1.575 0 1 0 1.578 1.574Zm0 0"/></g><path fill="none" stroke="#000" stroke-miterlimit="10" stroke-width=".39631872000000007" d="M58.516 26.117h3.964m-7.867 0h-3.96"/><path fill="none" stroke="#000" stroke-miterlimit="10" stroke-width=".79164416" d="M54.613 14.293v23.652"/><path fill="none" stroke="#000" stroke-miterlimit="10" stroke-width="2.37493248" d="M58.516 20.207v11.824"/><path stroke="#000" stroke-miterlimit="10" stroke-width=".39631872000000007" d="M112.262 26.117a1.575 1.575 0 1 0-1.574 1.578c.87 0 1.574-.707 1.574-1.578Zm0 0"/><use xlink:href="#c" x="45.639" y="9.912"/><use xlink:href="#d" x="50.587" y="9.912"/><use xlink:href="#e" x="53.336" y="9.912"/><use xlink:href="#f" x="59.926" y="9.912"/><path d="M220.504 26.117c0-.87-.707-1.574-1.578-1.574a1.575 1.575 0 1 0 0 3.152c.87 0 1.578-.707 1.578-1.578m0 0"/><g clip-path="url(#g)"><path fill="none" stroke="#000" stroke-miterlimit="10" stroke-width=".39631872000000007" d="M220.504 26.117c0-.87-.707-1.574-1.578-1.574a1.575 1.575 0 1 0 0 3.152c.87 0 1.578-.707 1.578-1.578Zm0 0"/></g><g clip-path="url(#h)"><path fill="none" stroke="#000" stroke-miterlimit="10" stroke-width=".79164416" d="M110.688 110.105c6.53 0 11.824-5.296 11.824-11.828 0-6.53-5.293-11.824-11.824-11.824-6.532 0-11.829 5.293-11.829 11.824 0 6.532 5.297 11.828 11.829 11.828Zm0 0"/></g><use xlink:href="#i" x="106.974" y="101.549"/><use xlink:href="#j" x="108.35" y="82.07"/><path fill="none" stroke="#000" stroke-miterlimit="10" stroke-width=".39631872000000007" d="M110.688 26.117h48.207m11.824 0h48.207M166.758 26.117h3.96m-7.862 0h-3.961"/><path fill="none" stroke="#000" stroke-miterlimit="10" stroke-width=".79164416" d="M162.856 14.293v23.652"/><path fill="none" stroke="#000" stroke-miterlimit="10" stroke-width="2.37493248" d="M166.758 20.207v11.824"/><path d="M220.504 26.117c0-.87-.707-1.574-1.578-1.574a1.575 1.575 0 1 0 0 3.152c.87 0 1.578-.707 1.578-1.578m0 0"/><g clip-path="url(#k)"><path fill="none" stroke="#000" stroke-miterlimit="10" stroke-width=".39631872000000007" d="M220.504 26.117c0-.87-.707-1.574-1.578-1.574a1.575 1.575 0 1 0 0 3.152c.87 0 1.578-.707 1.578-1.578Zm0 0"/></g><use xlink:href="#c" x="153.877" y="9.912"/><use xlink:href="#d" x="158.825" y="9.912"/><use xlink:href="#e" x="161.574" y="9.912"/><use xlink:href="#f" x="168.165" y="9.912"/></svg>