<svg xmlns="http://www.w3.org/2000/svg" xmlns:xlink="http://www.w3.org/1999/xlink" width="103.804" height="24.608"><defs><path id="a" d="M4.11 0v-.297h-.313c-.875 0-.906-.11-.906-.484v-5.5c0-.235 0-.25-.235-.25-.61.625-1.469.625-1.781.625v.297c.188 0 .781 0 1.281-.25v5.078c0 .36-.031.484-.906.484H.938V0c.343-.031 1.187-.031 1.578-.031.406 0 1.25 0 1.593.031m0 0"/><path id="c" d="M4.406-1.703h-.25c-.047.297-.11.719-.218.875-.063.078-.704.078-.922.078H1.25l1.031-1.016c1.531-1.359 2.125-1.89 2.125-2.859 0-1.125-.89-1.906-2.078-1.906-1.11 0-1.844.906-1.844 1.765 0 .563.5.563.532.563.156 0 .5-.125.5-.531 0-.25-.172-.5-.516-.5H.875c.219-.641.75-1 1.328-1 .89 0 1.313.797 1.313 1.609 0 .781-.5 1.547-1.032 2.156L.594-.359C.484-.25.484-.234.484 0h3.641Zm0 0"/><clipPath id="b"><path d="M47 0h2v24.223h-2Zm0 0"/></clipPath></defs><path fill="none" stroke="#000" stroke-miterlimit="10" stroke-width=".39274368" d="M12.355 12.11h31.958m11.718 0h31.961"/><use xlink:href="#a" x="3.986" y="15.376"/><path fill="none" stroke="#000" stroke-miterlimit="10" stroke-width=".39274368" d="M52.105 12.11h3.926m-7.793 0h-3.925"/><g clip-path="url(#b)"><path fill="none" stroke="#000" stroke-miterlimit="10" stroke-width=".78450304" d="M48.238.39v23.442"/></g><path fill="none" stroke="#000" stroke-miterlimit="10" stroke-width="2.35350912" d="M52.105 6.25v11.719"/><use xlink:href="#c" x="91.456" y="15.376"/></svg>