<svg xmlns="http://www.w3.org/2000/svg" xmlns:xlink="http://www.w3.org/1999/xlink" width="217.371" height="87.666"><defs><clipPath id="a"><path d="M12 11h190v76.332H12Zm0 0"/></clipPath><clipPath id="b"><path d="M.098 47H25v1H.098Zm0 0"/></clipPath><path id="c" d="M3.203-.375v-1.922h1.938a.24.24 0 0 0 .234-.234.24.24 0 0 0-.234-.235H3.203v-1.921a.23.23 0 0 0-.234-.235c-.11 0-.219.11-.219.234v1.922H.828a.24.24 0 0 0-.234.235c0 .125.11.234.234.234H2.75v1.922c0 .11.11.219.219.219.14 0 .234-.11.234-.219m0 0"/><path id="d" d="M.828-2.297h4.313a.24.24 0 0 0 .234-.234.24.24 0 0 0-.234-.235H.828a.24.24 0 0 0-.234.235c0 .125.11.234.234.234m0 0"/></defs><g clip-path="url(#a)"><path fill="none" stroke="#000" stroke-miterlimit="10" stroke-width=".39748779000000006" d="M12.355 11.645V43.46m0 11.86v31.816h37.747V55.32m0-11.859V11.645h37.746V43.46m0 11.86v31.816h37.746V55.32m0-11.859V11.645h37.746V43.46m0 11.86v31.816h37.746V55.32m0-11.859V11.645"/></g><path fill="#FFF" stroke="#000" stroke-miterlimit="10" stroke-width=".39748779000000006" d="M13.938 11.645a1.583 1.583 0 1 0-3.162.002 1.583 1.583 0 0 0 3.162-.002Zm0 0"/><path fill="none" stroke="#000" stroke-miterlimit="10" stroke-width=".39748779000000006" d="M12.355 51.348v3.972m0-7.886V43.46"/><g clip-path="url(#b)"><path fill="none" stroke="#000" stroke-miterlimit="10" stroke-width=".7939793700000001" d="M24.219 47.434H.496"/></g><path fill="none" stroke="#000" stroke-miterlimit="10" stroke-width="2.38193811" d="M18.285 51.348H6.425"/><path fill="none" stroke="#000" stroke-miterlimit="10" stroke-width=".39748779000000006" d="M50.102 47.434V43.46m0 7.887v3.972"/><path fill="none" stroke="#000" stroke-miterlimit="10" stroke-width=".7939793700000001" d="M38.242 51.348h23.719"/><path fill="none" stroke="#000" stroke-miterlimit="10" stroke-width="2.38193811" d="M44.172 47.434h11.86"/><path fill="none" stroke="#000" stroke-miterlimit="10" stroke-width=".39748779000000006" d="M87.848 51.348v3.972m0-7.886V43.46"/><path fill="none" stroke="#000" stroke-miterlimit="10" stroke-width=".7939793700000001" d="M99.707 47.434H75.988"/><path fill="none" stroke="#000" stroke-miterlimit="10" stroke-width="2.38193811" d="M93.777 51.348H81.918"/><path fill="none" stroke="#000" stroke-miterlimit="10" stroke-width=".39748779000000006" d="M125.594 47.434V43.46m0 7.887v3.972"/><path fill="none" stroke="#000" stroke-miterlimit="10" stroke-width=".7939793700000001" d="M113.734 51.348h23.72"/><path fill="none" stroke="#000" stroke-miterlimit="10" stroke-width="2.38193811" d="M119.664 47.434h11.86"/><path fill="none" stroke="#000" stroke-miterlimit="10" stroke-width=".39748779000000006" d="M163.34 51.348v3.972m0-7.886V43.46"/><path fill="none" stroke="#000" stroke-miterlimit="10" stroke-width=".7939793700000001" d="M175.2 47.434h-23.72"/><path fill="none" stroke="#000" stroke-miterlimit="10" stroke-width="2.38193811" d="M169.27 51.348h-11.86"/><path fill="none" stroke="#000" stroke-miterlimit="10" stroke-width=".39748779000000006" d="M201.086 47.434V43.46m0 7.887v3.972"/><path fill="none" stroke="#000" stroke-miterlimit="10" stroke-width=".7939793700000001" d="M189.223 51.348h23.722"/><path fill="none" stroke="#000" stroke-miterlimit="10" stroke-width="2.38193811" d="M195.156 47.434h11.86"/><path fill="#FFF" stroke="#000" stroke-miterlimit="10" stroke-width=".39748779000000006" d="M202.664 11.645a1.58 1.58 0 1 0-3.16 0 1.58 1.58 0 1 0 3.16 0Zm0 0"/><use xlink:href="#c" x="9.375" y="8.138"/><use xlink:href="#d" x="198.101" y="8.138"/></svg>