<svg xmlns="http://www.w3.org/2000/svg" width="223.148" height="24.608"><defs><clipPath id="a"><path d="M1.332 10H5v4H1.332Zm0 0"/></clipPath><clipPath id="b"><path d="M1.332 5H11v15H1.332Zm0 0"/></clipPath><clipPath id="c"><path d="M43 0h2v24.223h-2Zm0 0"/></clipPath><clipPath id="d"><path d="M171 0h1v24.223h-1Zm0 0"/></clipPath><clipPath id="e"><path d="M208 5h12.98v15H208Zm0 0"/></clipPath></defs><path fill="none" stroke="#000" stroke-miterlimit="10" stroke-width=".39274368" d="M3.09 12.11H39.8m11.723 0h58m0 0h58m11.72 0h36.714"/><g clip-path="url(#a)"><path fill="#FFF" d="M4.652 12.11a1.562 1.562 0 1 0-3.126 0 1.562 1.562 0 0 0 3.126 0m0 0"/></g><g clip-path="url(#b)"><path fill="none" stroke="#000" stroke-miterlimit="10" stroke-width=".39274368" d="M4.652 12.11a1.562 1.562 0 1 0-3.126 0 1.562 1.562 0 0 0 3.126 0Zm0 0"/></g><path fill="none" stroke="#000" stroke-miterlimit="10" stroke-width=".39274368" d="M47.594 12.11h3.93m-7.797 0H39.8"/><g clip-path="url(#c)"><path fill="none" stroke="#000" stroke-miterlimit="10" stroke-width=".78450304" d="M43.727.39v23.438"/></g><path fill="none" stroke="#000" stroke-miterlimit="10" stroke-width="2.35350912" d="M47.594 6.25v11.719"/><path fill="#FFF" stroke="#000" stroke-miterlimit="10" stroke-width=".39274368" d="M89.797 12.11a1.562 1.562 0 1 0-3.124-.001 1.562 1.562 0 0 0 3.124 0ZM132.371 12.11a1.562 1.562 0 1 0-3.124-.001 1.562 1.562 0 0 0 3.124 0Zm0 0"/><path stroke="#000" stroke-miterlimit="10" stroke-width=".39274368" d="M107.813 12.11v1.953l4.152-1.954-4.152-1.953Zm0 0"/><path fill="none" stroke="#000" stroke-miterlimit="10" stroke-width=".39274368" d="M175.316 12.11h3.926m-7.793 0h-3.926"/><g clip-path="url(#d)"><path fill="none" stroke="#000" stroke-miterlimit="10" stroke-width=".78450304" d="M171.45.39v23.438"/></g><path fill="none" stroke="#000" stroke-miterlimit="10" stroke-width="2.35350912" d="M175.316 6.25v11.719"/><path fill="#FFF" d="M217.52 12.11a1.562 1.562 0 1 0-3.125-.001 1.562 1.562 0 0 0 3.125 0m0 0"/><g clip-path="url(#e)"><path fill="none" stroke="#000" stroke-miterlimit="10" stroke-width=".39274368" d="M217.52 12.11a1.562 1.562 0 1 0-3.125-.001 1.562 1.562 0 0 0 3.125 0Zm0 0"/></g></svg>