<svg xmlns="http://www.w3.org/2000/svg" xmlns:xlink="http://www.w3.org/1999/xlink" width="227.628" height="170.408"><defs><path id="b" d="M4.156 0v-.312h-.312c-.89 0-.922-.11-.922-.47v-5.562c0-.25 0-.265-.235-.265-.609.64-1.484.64-1.796.64v.297c.187 0 .78 0 1.297-.25v5.14c0 .36-.032.47-.922.47H.938V0c.359-.031 1.218-.031 1.609-.031.406 0 1.265 0 1.61.031m0 0"/><path id="c" d="M4.453-1.719h-.25c-.047.297-.11.735-.219.875-.062.078-.718.078-.937.078H1.266L2.313-1.78c1.546-1.375 2.14-1.906 2.14-2.907 0-1.125-.89-1.921-2.11-1.921C1.235-6.61.5-5.687.5-4.812c0 .562.484.562.516.562a.516.516 0 0 0 .515-.531c0-.266-.172-.516-.515-.516-.079 0-.11 0-.125.016.218-.657.75-1.016 1.328-1.016.906 0 1.328.797 1.328 1.61 0 .796-.485 1.578-1.031 2.203L.609-.36C.5-.266.5-.234.5 0h3.672Zm0 0"/><path id="d" d="M2.047-3.969h.922c.203 0 .312 0 .312-.203 0-.11-.11-.11-.281-.11h-.875c.36-1.405.406-1.609.406-1.655a.27.27 0 0 0-.281-.282c-.031 0-.312.016-.406.36l-.39 1.578H.53c-.203 0-.297 0-.297.187 0 .125.078.125.266.125h.875C.672-1.156.625-.984.625-.797c0 .531.375.906.906.906C2.547.11 3.11-1.344 3.11-1.42c0-.095-.078-.095-.109-.095-.094 0-.11.032-.156.141C2.422-.344 1.89-.109 1.563-.109c-.22 0-.313-.125-.313-.453 0-.235.016-.313.063-.485Zm0 0"/><path id="e" d="M6.297-5.734c.11-.407.281-.703 1.078-.735.047 0 .172-.015.172-.203 0 0 0-.11-.14-.11-.329 0-.673.032-1 .032-.344 0-.72-.031-1.032-.031-.062 0-.187 0-.187.203 0 .11.093.11.187.11.563.015.672.218.672.437 0 .031-.031.172-.031.203l-.891 3.547C4.781-.953 3.641-.094 2.656-.094c-.687 0-1.219-.437-1.219-1.281 0-.031 0-.344.11-.781l.969-3.86c.078-.359.109-.453.828-.453.265 0 .344 0 .344-.203 0-.11-.11-.11-.141-.11-.281 0-1 .032-1.281.032-.282 0-.985-.031-1.282-.031-.078 0-.187 0-.187.203 0 .11.094.11.281.11.016 0 .219 0 .375.015.188.031.266.031.266.156 0 .063-.094.484-.157.703l-.218.875c-.094.39-.563 2.266-.61 2.453-.062.282-.062.438-.062.579 0 1.218.89 1.906 1.937 1.906 1.25 0 2.485-1.125 2.813-2.438Zm0 0"/><clipPath id="a"><path d="M.207 3h226.84v151H.207Zm0 0"/></clipPath></defs><path fill="none" stroke="#7F7F7F" stroke-miterlimit="10" stroke-width=".39761946000000004" d="M13.98 156.926h208.97M13.98 130.805h208.97M13.98 104.684h208.97M13.98 78.562h208.97M13.98 52.442h208.97M13.98 26.32h208.97M13.98.207h208.97M13.98 156.926V.199m26.122 156.727V.199m26.12 156.727V.199m26.122 156.727V.199m26.12 156.727V.199m26.122 156.727V.199m26.121 156.727V.199m26.121 156.727V.199m26.113 156.727V.199"/><path fill="none" stroke="#000" stroke-miterlimit="10" stroke-width=".39761946000000004" d="M13.98 156.926V.199h208.97v156.727Zm0 0"/><g clip-path="url(#a)"><path fill="none" stroke="#000" stroke-miterlimit="10" stroke-width="1.58848476" d="M13.98 78.562c8.516 26.747 16.665 52.243 26.122 52.243 9.453 0 17.605-25.496 26.12-52.243 8.516-26.75 16.665-52.242 26.122-52.242s17.605 25.492 26.12 52.242c8.516 26.747 16.665 52.243 26.122 52.243s17.605-25.496 26.121-52.243c8.516-26.75 16.668-52.242 26.121-52.242 9.457 0 17.606 25.492 26.121 52.242"/></g><path fill="none" stroke="#000" stroke-miterlimit="10" stroke-width=".79424238" d="M70.82 78.562h95.29"/><path stroke="#000" stroke-miterlimit="10" stroke-width=".79424238" d="m67.016 78.562 3.605 2.172v-4.347ZM169.914 78.562l-3.605-2.175v4.347Zm0 0"/><path fill="none" stroke="#000" stroke-miterlimit="10" stroke-width=".79424238" d="M92.344 73.96V30.919"/><path stroke="#000" stroke-miterlimit="10" stroke-width=".79424238" d="m92.344 77.77 2.172-3.61h-4.348ZM92.344 27.113l-2.176 3.606h4.348Zm0 0"/><path fill="#FFF" stroke="#000" stroke-miterlimit="10" stroke-width="1.1918618399999998" d="M99.254 52.441a6.913 6.913 0 0 0-6.91-6.914 6.913 6.913 0 0 0-6.91 6.914 6.91 6.91 0 1 0 13.82 0Zm0 0"/><use xlink:href="#b" x="89.86" y="55.747"/><path fill="#FFF" stroke="#000" stroke-miterlimit="10" stroke-width="1.1918618399999998" d="M151.496 78.562a6.91 6.91 0 1 0-13.82 0 6.91 6.91 0 0 0 13.82 0Zm0 0"/><use xlink:href="#c" x="142.103" y="81.868"/><use xlink:href="#d" x="214.625" y="166.509"/><use xlink:href="#e" x="3.518" y="10.121"/></svg>