<svg xmlns="http://www.w3.org/2000/svg" xmlns:xlink="http://www.w3.org/1999/xlink" width="227.232" height="130.783"><defs><path id="a" d="M7.156-3.36c0-2.03-1.5-3.64-3.312-3.64C2.078-7 .563-5.406.563-3.36.563-1.327 2.077.22 3.843.22c1.813 0 3.313-1.578 3.313-3.578M6.125-3.5c0 2.625-1.36 3.453-2.266 3.453-.953 0-2.28-.86-2.28-3.453 0-2.578 1.452-3.25 2.265-3.25.875 0 2.281.703 2.281 3.25m0 0"/><path id="b" d="M3.61-3.781c0-.313-.313-.61-.735-.61-.719 0-1.078.672-1.219 1.094V-4.39l-1.375.11v.312c.688 0 .766.063.766.563V-.75c0 .438-.11.438-.766.438V0l1.125-.031c.407 0 .86 0 1.266.031v-.312h-.219c-.734 0-.75-.11-.75-.47v-1.515c0-.984.422-1.875 1.172-1.875.078 0 .094 0 .11.016a.43.43 0 0 0-.22.39.41.41 0 0 0 .422.422.421.421 0 0 0 .422-.437m0 0"/><path id="c" d="M3.297-1.234v-.563h-.25v.547c0 .734-.297 1.11-.672 1.11-.656 0-.656-.907-.656-1.063V-3.97H3.14v-.312H1.719V-6.11h-.25c-.016.828-.313 1.875-1.281 1.922v.218h.843v2.735c0 1.218.922 1.343 1.282 1.343.703 0 .984-.703.984-1.343m0 0"/><path id="f" d="M6.047-4.516 5.78-6.75H.328v.313h.235c.765 0 .78.109.78.468V-.78c0 .36-.015.469-.78.469H.328V0c.344-.031 1.125-.031 1.5-.031.422 0 1.313 0 1.672.031v-.312h-.328c-.938 0-.938-.125-.938-.47v-2.437h.844c.953 0 1.063.313 1.063 1.156h.25v-2.624h-.25c0 .828-.11 1.156-1.063 1.156h-.844v-2.516c0-.328.016-.39.485-.39h1.187c1.485 0 1.735.546 1.89 1.921Zm0 0"/><path id="g" d="M4.125-1.187c0-.094-.094-.11-.14-.11-.079 0-.11.063-.126.14C3.516-.14 2.625-.14 2.516-.14c-.485 0-.891-.296-1.11-.656-.312-.484-.312-1.14-.312-1.5h2.781c.219 0 .25 0 .25-.203 0-.984-.547-1.937-1.781-1.937C1.188-4.437.28-3.423.28-2.187.281-.86 1.312.108 2.453.108c1.219 0 1.672-1.093 1.672-1.296M3.469-2.5h-2.36C1.172-3.984 2-4.234 2.344-4.234c1.015 0 1.125 1.343 1.125 1.734m0 0"/><path id="h" d="M2.531 0v-.312c-.672 0-.781 0-.781-.438v-6.14l-1.422.109v.312c.688 0 .766.063.766.563V-.75c0 .438-.11.438-.766.438V0l1.094-.031Zm0 0"/><path id="i" d="M5.234 0v-.312c-.703 0-.78-.063-.78-.547v-6.032l-1.423.11v.312c.688 0 .766.063.766.563v2.14a1.582 1.582 0 0 0-1.25-.625c-1.172 0-2.203.985-2.203 2.25 0 1.266.969 2.25 2.094 2.25.64 0 1.078-.343 1.328-.656V.11ZM3.766-1.172c0 .188 0 .203-.11.375-.297.469-.734.688-1.172.688-.437 0-.796-.25-1.03-.641-.266-.406-.298-.969-.298-1.375 0-.36.032-.953.313-1.406.203-.313.578-.64 1.125-.64.344 0 .765.155 1.062.593.11.172.11.187.11.375Zm0 0"/><path id="j" d="M3.578-1.266c0-.53-.297-.828-.422-.953-.328-.312-.719-.39-1.125-.469C1.47-2.796.797-2.921.797-3.5c0-.344.265-.75 1.125-.75 1.078 0 1.14.89 1.156 1.188 0 .093.11.093.11.093.14 0 .14-.047.14-.234v-1c0-.172 0-.234-.11-.234-.046 0-.077 0-.202.109a.819.819 0 0 1-.172.156c-.375-.266-.781-.266-.922-.266-1.219 0-1.594.657-1.594 1.22 0 .343.156.624.422.843.328.25.594.313 1.313.453.218.031 1.03.203 1.03.906 0 .516-.343.907-1.124.907C1.14-.11.78-.672.594-1.516c-.031-.125-.031-.171-.14-.171-.126 0-.126.062-.126.25v1.312c0 .172 0 .234.11.234C.484.11.5.094.688-.094.703-.109.703-.125.89-.312a1.48 1.48 0 0 0 1.078.421c1.14 0 1.61-.671 1.61-1.375m0 0"/><path id="k" d="M4.797-.89v-.547h-.25v.546c0 .579-.25.641-.36.641-.328 0-.375-.437-.375-.5v-1.984c0-.407 0-.797-.343-1.172a1.949 1.949 0 0 0-1.36-.531c-.812 0-1.5.453-1.5 1.109 0 .297.188.469.454.469a.435.435 0 0 0 .453-.453c0-.126-.047-.454-.5-.454.265-.359.75-.468 1.062-.468.485 0 1.063.39 1.063 1.28v.36c-.516.031-1.203.063-1.828.36-.75.343-1 .859-1 1.297 0 .796.968 1.046 1.593 1.046.657 0 1.11-.39 1.297-.859.047.39.313.813.781.813.204 0 .813-.141.813-.954m-1.656-.5c0 .937-.72 1.28-1.172 1.28-.485 0-.89-.343-.89-.843 0-.547.421-1.375 2.062-1.422ZM2.078-6a.48.48 0 0 0-.469-.469.473.473 0 0 0-.484.469c0 .25.203.469.469.469.312 0 .484-.25.484-.469m1.766 0a.48.48 0 0 0-.469-.469.473.473 0 0 0-.484.469c0 .25.203.469.468.469.313 0 .485-.25.485-.469m0 0"/><path id="l" d="M5.063 0v-.312c-.36 0-.579 0-.954-.516L2.844-2.61c0-.016-.063-.079-.063-.11 0-.047.719-.64.813-.719.625-.5 1.047-.515 1.25-.53v-.313c-.297.031-.422.031-.703.031-.344 0-.97-.016-1.11-.031v.312c.188.016.297.125.297.25 0 .203-.14.313-.219.39L1.703-2.124v-4.766l-1.422.11v.312c.688 0 .766.063.766.563V-.75c0 .438-.11.438-.766.438V0L1.36-.031 2.453 0v-.312c-.672 0-.781 0-.781-.438v-1.031l.64-.547C3.079-1.266 3.5-.718 3.5-.531c0 .187-.172.219-.36.219V0l1.063-.031c.297 0 .578.015.86.031m0 0"/><path id="n" d="M4.156 0v-.312h-.312c-.89 0-.922-.11-.922-.47v-5.562c0-.25 0-.265-.235-.265-.609.64-1.484.64-1.796.64v.297c.187 0 .78 0 1.297-.25v5.14c0 .36-.032.47-.922.47H.938V0c.359-.031 1.218-.031 1.609-.031.406 0 1.265 0 1.61.031m0 0"/><path id="o" d="M4.453-1.719h-.25c-.047.297-.11.735-.219.875-.062.078-.718.078-.937.078H1.266L2.313-1.78c1.546-1.375 2.14-1.906 2.14-2.907 0-1.125-.89-1.921-2.11-1.921C1.235-6.61.5-5.687.5-4.812c0 .562.484.562.516.562a.516.516 0 0 0 .515-.531c0-.266-.172-.516-.515-.516-.079 0-.11 0-.125.016.218-.657.75-1.016 1.328-1.016.906 0 1.328.797 1.328 1.61 0 .796-.485 1.578-1.031 2.203L.609-.36C.5-.266.5-.234.5 0h3.672Zm0 0"/><clipPath id="d"><path d="M12 .113h1v130.34h-1Zm0 0"/></clipPath><clipPath id="e"><path d="M10 .113h5V5h-5Zm0 0"/></clipPath><clipPath id="m"><path d="M0 .113h226.465v130.34H0Zm0 0"/></clipPath></defs><path fill="none" stroke="#000" stroke-miterlimit="10" stroke-width=".39765537" d="M.2 62.188h222.765"/><path d="M218.762 62.188v1.98l4.203-1.98-4.203-1.977Zm0 0"/><use xlink:href="#a" x="203.975" y="72.698"/><use xlink:href="#b" x="211.699" y="72.698"/><use xlink:href="#c" x="215.592" y="72.698"/><g clip-path="url(#d)"><path fill="none" stroke="#000" stroke-miterlimit="10" stroke-width=".39765537" d="M12.574 130.258V.308"/></g><g clip-path="url(#e)"><path d="M12.574 4.512h1.977L12.574.309l-1.976 4.203Zm0 0"/></g><use xlink:href="#f" x="16.083" y="10.709"/><use xlink:href="#g" x="21.742" y="10.709"/><use xlink:href="#h" x="26.151" y="10.709"/><use xlink:href="#i" x="28.911" y="10.709"/><use xlink:href="#j" x="34.432" y="10.709"/><use xlink:href="#c" x="38.344" y="10.709"/><use xlink:href="#k" x="42.206" y="10.709"/><use xlink:href="#b" x="47.171" y="10.709"/><use xlink:href="#l" x="51.063" y="10.709"/><use xlink:href="#g" x="56.027" y="10.709"/><g clip-path="url(#m)"><path fill="none" stroke="#000" stroke-miterlimit="10" stroke-width="1.5886282200000001" d="M12.574 62.188c8.07 25.347 15.793 49.503 24.754 49.503 8.957 0 16.68-24.156 24.75-49.503 8.07-25.344 15.793-49.5 24.75-49.5 8.961 0 16.684 24.156 24.754 49.5 8.07 25.347 15.793 49.503 24.75 49.503 8.961 0 16.684-24.156 24.754-49.503 8.07-25.344 15.793-49.5 24.75-49.5 8.961 0 16.684 24.156 24.754 49.5"/></g><path fill="none" stroke="#000" stroke-miterlimit="10" stroke-width=".7943141100000001" d="M66.68 62.188h89.804"/><path stroke="#000" stroke-miterlimit="10" stroke-width=".7943141100000001" d="m62.871 62.188 3.61 2.175v-4.347ZM160.293 62.188l-3.61-2.172v4.347Zm0 0"/><path fill="none" stroke="#000" stroke-miterlimit="10" stroke-width=".7943141100000001" d="M86.828 57.59V17.285"/><path stroke="#000" stroke-miterlimit="10" stroke-width=".7943141100000001" d="m86.828 61.395 2.176-3.606h-4.348ZM86.828 13.48l-2.172 3.606h4.348Zm0 0"/><path fill="#FFF" stroke="#000" stroke-miterlimit="10" stroke-width="1.19196948" d="M93.742 37.437a6.914 6.914 0 0 0-6.914-6.914 6.913 6.913 0 0 0-6.91 6.914 6.913 6.913 0 0 0 6.91 6.915 6.914 6.914 0 0 0 6.914-6.915Zm0 0"/><use xlink:href="#n" x="84.347" y="40.744"/><path fill="#FFF" stroke="#000" stroke-miterlimit="10" stroke-width="1.19196948" d="M143.246 62.188a6.911 6.911 0 0 0-6.914-6.91 6.91 6.91 0 0 0-6.91 6.91 6.912 6.912 0 1 0 13.824 0Zm0 0"/><use xlink:href="#o" x="133.85" y="65.496"/></svg>