<svg xmlns="http://www.w3.org/2000/svg" xmlns:xlink="http://www.w3.org/1999/xlink" width="169.224" height="102.198"><defs><path id="a" d="M3.625-3.14v.312c0 2.312-1.031 2.766-1.594 2.766-.172 0-.703-.016-.969-.36.438 0 .516-.281.516-.453a.452.452 0 0 0-.453-.453c-.172 0-.469.094-.469.484C.656-.187 1.203.22 2.031.22c1.281 0 2.485-1.344 2.485-3.469 0-2.672-1.141-3.344-2.016-3.344-.547 0-1.031.188-1.453.625-.406.453-.625.86-.625 1.61 0 1.234.86 2.203 1.969 2.203.609 0 1.015-.422 1.234-.985m-1.219.75c-.156 0-.61 0-.922-.61-.171-.375-.171-.875-.171-1.36 0-.53 0-.984.203-1.359.265-.5.64-.625.984-.625.453 0 .781.344.953.782.125.328.156.937.156 1.406 0 .812-.328 1.765-1.203 1.765m0 0"/><path id="b" d="M4.547-3.172c0-.781-.047-1.578-.39-2.312-.454-.938-1.266-1.11-1.688-1.11-.594 0-1.313.266-1.719 1.188-.312.672-.36 1.453-.36 2.234 0 .75.032 1.64.438 2.39a1.83 1.83 0 0 0 1.64 1C3 .219 3.75.017 4.189-.936c.312-.672.359-1.454.359-2.235M2.469 0c-.39 0-.969-.25-1.156-1.203-.11-.594-.11-1.5-.11-2.078 0-.64 0-1.281.078-1.828.188-1.172.938-1.266 1.188-1.266.328 0 .969.188 1.156 1.156.11.563.11 1.313.11 1.938 0 .734 0 1.406-.11 2.047C3.469-.297 2.906 0 2.469 0m0 0"/><path id="c" d="M1.094-3.406V-.75c0 .438-.11.438-.782.438V0c.344-.016.86-.031 1.126-.031.25 0 .765.015 1.109.031v-.312c-.672 0-.781 0-.781-.438v-1.828c0-1.016.703-1.578 1.343-1.578.625 0 .735.531.735 1.093V-.75c0 .438-.11.438-.781.438V0c.343-.016.859-.031 1.124-.031.25 0 .766.015 1.11.031v-.312c-.672 0-.781 0-.781-.438v-1.828c0-1.016.703-1.578 1.343-1.578.625 0 .735.531.735 1.093V-.75c0 .438-.11.438-.782.438V0c.344-.016.86-.031 1.125-.031.25 0 .766.015 1.11.031v-.312c-.516 0-.766 0-.781-.297V-2.5c0-.844 0-1.156-.297-1.5-.14-.172-.469-.375-1.047-.375-.828 0-1.266.594-1.438.969-.125-.86-.859-.969-1.312-.969-.719 0-1.188.422-1.453 1.047v-1.047l-1.406.11v.312c.703 0 .78.062.78.547m0 0"/><path id="d" d="M3.938-6.89c-.047-.126-.063-.188-.235-.188-.156 0-.187.062-.234.187L1.422-.969c-.172.5-.578.657-1.11.657V0C.548-.016.97-.031 1.329-.031c.297 0 .813.015 1.14.031v-.312c-.5 0-.75-.235-.75-.5 0-.032.016-.125.016-.141l.47-1.297H4.64l.515 1.516a.368.368 0 0 1 .032.125c0 .297-.547.297-.813.297V0c.36-.031 1.047-.031 1.422-.031.422 0 .875.015 1.297.031v-.312h-.188c-.593 0-.718-.063-.828-.391Zm-.532 1.109 1.125 3.218H2.297Zm0 0"/><path id="g" d="M2.906-6.328c0-.234 0-.266-.219-.266-.624.64-1.484.64-1.812.64v.313c.203 0 .781 0 1.297-.265v5.125c0 .36-.031.469-.922.469H.938V0C1.28-.031 2.14-.031 2.547-.031c.39 0 1.25 0 1.594.031v-.312h-.313c-.89 0-.922-.11-.922-.47Zm0 0"/><clipPath id="e"><path d="M12 13h147v88.402H12Zm0 0"/></clipPath><clipPath id="f"><path d="M.273 55H25v1H.273Zm0 0"/></clipPath></defs><path fill="none" stroke="#000" stroke-miterlimit="10" stroke-width=".39589179" d="M56.313 13.543h29.222m0 0h29.223"/><path stroke="#000" stroke-miterlimit="10" stroke-width=".39589179" d="M83.813 13.543v1.969l4.183-1.969-4.183-1.969Zm0 0"/><use xlink:href="#a" x="71.942" y="10.049"/><use xlink:href="#b" x="76.885" y="10.049"/><use xlink:href="#c" x="83.468" y="10.049"/><use xlink:href="#d" x="91.706" y="10.049"/><g clip-path="url(#e)"><path fill="none" stroke="#000" stroke-miterlimit="10" stroke-width=".39589179" d="M56.313 13.543H12.48v37.926m0 11.812v37.926h146.11V73.125m0-31.5V13.543h-43.832"/></g><path fill="none" stroke="#000" stroke-miterlimit="10" stroke-width=".39589179" d="M12.48 59.324v3.957m0-7.855v-3.957"/><g clip-path="url(#f)"><path fill="none" stroke="#000" stroke-miterlimit="10" stroke-width=".7907913700000001" d="M24.297 55.426H.668"/></g><path fill="none" stroke="#000" stroke-miterlimit="10" stroke-width="2.37237411" d="M18.387 59.324H6.574"/><path fill="none" stroke="#000" stroke-miterlimit="10" stroke-width=".7907913700000001" d="M164.496 41.625v31.5h-11.812v-31.5Zm0 0"/><use xlink:href="#g" x="134.016" y="59.503"/><use xlink:href="#b" x="138.959" y="59.503"/><use xlink:href="#b" x="143.901" y="59.503"/></svg>