<svg xmlns="http://www.w3.org/2000/svg" xmlns:xlink="http://www.w3.org/1999/xlink" width="169.224" height="104.135"><defs><path id="a" d="M4.547-3.156c0-.797-.047-1.578-.406-2.313-.453-.953-1.25-1.11-1.672-1.11-.594 0-1.313.266-1.719 1.173-.312.687-.36 1.453-.36 2.25 0 .734.032 1.625.438 2.375.422.797 1.14 1 1.625 1 .531 0 1.297-.203 1.719-1.14.328-.688.375-1.454.375-2.235M2.453 0c-.375 0-.969-.25-1.14-1.187-.11-.594-.11-1.516-.11-2.094 0-.625 0-1.281.078-1.813.188-1.172.938-1.265 1.172-1.265.328 0 .985.172 1.172 1.156.094.547.094 1.297.094 1.922 0 .75 0 1.422-.11 2.047C3.47-.297 2.906 0 2.453 0m0 0"/><path id="c" d="M2.86-3.469c.812-.281 1.39-.969 1.39-1.75 0-.812-.875-1.36-1.828-1.36-.985 0-1.735.595-1.735 1.345 0 .328.22.515.5.515.297 0 .5-.218.5-.5 0-.5-.468-.5-.609-.5.297-.484.953-.61 1.313-.61.406 0 .953.22.953 1.11 0 .11-.031.688-.281 1.125-.297.469-.641.5-.876.516-.078 0-.328.015-.39.015-.078.016-.14.032-.14.126 0 .109.062.109.234.109h.437c.797 0 1.172.672 1.172 1.64 0 1.344-.687 1.626-1.125 1.626-.422 0-1.156-.172-1.5-.75.344.046.64-.172.64-.547a.533.533 0 0 0-.546-.547c-.235 0-.547.14-.547.578 0 .89.906 1.547 1.984 1.547 1.203 0 2.11-.906 2.11-1.906 0-.813-.625-1.579-1.657-1.782m0 0"/><path id="d" d="M3.938-6.875c-.063-.125-.079-.203-.235-.203-.156 0-.187.062-.234.203L1.422-.969c-.172.5-.578.657-1.11.657V0C.548-.016.97-.031 1.329-.031c.297 0 .813.015 1.125.031v-.312c-.484 0-.734-.235-.734-.5 0-.032.015-.125.015-.141l.454-1.297h2.437l.531 1.516a.368.368 0 0 1 .032.125c0 .297-.563.297-.829.297V0c.36-.031 1.047-.031 1.422-.031.438 0 .89.015 1.297.031v-.312h-.172c-.593 0-.734-.063-.843-.391Zm-.532 1.11 1.11 3.202h-2.22Zm0 0"/><path id="g" d="M2.906-6.312c0-.25 0-.266-.234-.266-.61.64-1.485.64-1.797.64v.297c.203 0 .781 0 1.297-.25v5.11c0 .36-.031.469-.922.469H.938V0C1.28-.031 2.14-.031 2.53-.031c.406 0 1.266 0 1.61.031v-.312h-.313c-.89 0-.922-.11-.922-.47Zm0 0"/><path id="h" d="M1.25-.766 2.297-1.78c1.547-1.36 2.14-1.89 2.14-2.875 0-1.125-.89-1.922-2.093-1.922A1.813 1.813 0 0 0 .5-4.797c0 .563.484.563.516.563a.516.516 0 0 0 .515-.532c0-.25-.172-.5-.531-.5H.875c.234-.64.766-1 1.344-1 .89 0 1.312.797 1.312 1.61 0 .781-.484 1.562-1.031 2.172L.61-.36C.5-.25.5-.234.5 0h3.656l.282-1.719h-.25c-.047.297-.125.735-.22.875-.062.078-.718.078-.937.078Zm0 0"/><path id="i" d="M6.125-5.781c.14-.36.406-.64 1.078-.657v-.312c-.297.031-.703.031-.953.031-.297 0-.875-.015-1.125-.031v.313c.516.015.719.265.719.5 0 .078-.032.125-.047.187L3.984-.984 2.11-5.97c-.062-.14-.062-.156-.062-.187 0-.282.562-.282.812-.282v-.312c-.359.031-1.046.031-1.421.031-.47 0-.891-.015-1.25-.031v.313c.64 0 .828 0 .968.375L3.453 0c.063.188.11.219.235.219.171 0 .187-.047.25-.188Zm0 0"/><path id="b" d="M2-.016c0-.64-.25-1.03-.625-1.03a.517.517 0 0 0-.531.53c0 .266.203.516.531.516a.58.58 0 0 0 .344-.125c.031-.016.031-.031.047-.031.015 0 .015.015.015.14 0 .735-.343 1.329-.672 1.657C1 1.75 1 1.766 1 1.797c0 .062.063.11.11.11.109 0 .89-.766.89-1.923m0 0"/><clipPath id="e"><path d="M12 15h147v88.277H12Zm0 0"/></clipPath><clipPath id="f"><path d="M.313 56H25v2H.313Zm0 0"/></clipPath></defs><path fill="none" stroke="#000" stroke-miterlimit="10" stroke-width=".39571224" d="M56.328 15.457h29.207m0 0h29.207"/><path stroke="#000" stroke-miterlimit="10" stroke-width=".39571224" d="M83.813 15.457v1.969l4.183-1.969-4.183-1.969Zm0 0"/><use xlink:href="#a" x="74.692" y="10.045"/><use xlink:href="#b" x="79.633" y="10.045"/><use xlink:href="#c" x="82.378" y="10.045"/><use xlink:href="#d" x="88.958" y="10.045"/><g clip-path="url(#e)"><path fill="none" stroke="#000" stroke-miterlimit="10" stroke-width=".39571224" d="M56.328 15.457H12.516v37.906m0 11.809v37.91h146.039v-28.07m0-31.489V15.457h-43.813"/></g><path fill="none" stroke="#000" stroke-miterlimit="10" stroke-width=".39571224" d="M12.516 61.219v3.953m0-7.852v-3.957"/><g clip-path="url(#f)"><path fill="none" stroke="#000" stroke-miterlimit="10" stroke-width=".79043272" d="M24.324 57.32H.707"/></g><path fill="none" stroke="#000" stroke-miterlimit="10" stroke-width="2.37129816" d="M18.418 61.219H6.609"/><use xlink:href="#g" x="27.1" y="61.397"/><use xlink:href="#h" x="32.04" y="61.397"/><use xlink:href="#i" x="38.62" y="61.397"/><path fill="none" stroke="#000" stroke-miterlimit="10" stroke-width=".79043272" d="M164.457 43.523v31.489h-11.805V43.523Zm0 0"/></svg>