<svg xmlns="http://www.w3.org/2000/svg" width="113.503" height="14.009"><defs><clipPath id="a"><path d="M3.516 11H107v1H3.516Zm0 0"/></clipPath><clipPath id="b"><path d="M32 0h46v13.082H32Zm0 0"/></clipPath><clipPath id="c"><path d="M34 4h14v9.082H34Zm0 0"/></clipPath><clipPath id="d"><path d="M62 4h14v9.082H62Zm0 0"/></clipPath></defs><g clip-path="url(#a)"><path fill="none" stroke="#000" stroke-miterlimit="10" stroke-width=".37263807000000004" d="M3.703 11.414H41.07m27.801 0h37.367"/></g><g clip-path="url(#b)"><path fill="none" stroke="#000" stroke-linecap="round" stroke-miterlimit="10" stroke-width=".59304555" d="M41.07 11.414 68.871.297"/></g><path d="M42.555 11.414a1.483 1.483 0 1 0-2.966.005 1.483 1.483 0 0 0 2.966-.005m0 0"/><g clip-path="url(#c)"><path fill="none" stroke="#000" stroke-miterlimit="10" stroke-width=".37263807000000004" d="M42.555 11.414a1.483 1.483 0 1 0-2.966.005 1.483 1.483 0 0 0 2.966-.005Zm0 0"/></g><path d="M70.352 11.414a1.482 1.482 0 1 0-2.965.003 1.482 1.482 0 0 0 2.965-.003m0 0"/><g clip-path="url(#d)"><path fill="none" stroke="#000" stroke-miterlimit="10" stroke-width=".37263807000000004" d="M70.352 11.414a1.482 1.482 0 1 0-2.965.003 1.482 1.482 0 0 0 2.965-.003Zm0 0"/></g></svg>