<svg xmlns="http://www.w3.org/2000/svg" width="216.845" height="116.846"><defs><clipPath id="a"><path d="M.066 62H25v1H.066Zm0 0"/></clipPath><clipPath id="b"><path d="M79 105h48v11.691H79Zm0 0"/></clipPath><clipPath id="c"><path d="M86 113h4v3.691h-4Zm0 0"/></clipPath><clipPath id="d"><path d="M80 107h16v9.691H80Zm0 0"/></clipPath><clipPath id="e"><path d="M116 113h4v3.691h-4Zm0 0"/></clipPath><clipPath id="f"><path d="M110 107h15v9.691h-15Zm0 0"/></clipPath><clipPath id="g"><path d="M197 51h19.625v18H197Zm0 0"/></clipPath><clipPath id="h"><path d="M203 56h13.625v15H203Zm0 0"/></clipPath><clipPath id="i"><path d="M201 61h15.625v15H201Zm0 0"/></clipPath></defs><path fill="none" stroke="#000" stroke-miterlimit="10" stroke-width=".39847332" d="M12.352 6.344V54.68m0 11.89v48.34h75.613m29.723 0h75.609V68.55m0-15.85V6.343H118.68m-31.707 0H12.352M12.352 58.664V54.68m0 7.91v3.98"/><g clip-path="url(#a)"><path fill="none" stroke="#000" stroke-miterlimit="10" stroke-width=".79594796" d="M24.242 62.59H.465"/></g><path fill="none" stroke="#000" stroke-miterlimit="10" stroke-width="2.38784388" d="M18.297 58.664H6.407"/><g clip-path="url(#b)"><path fill="none" stroke="#000" stroke-linecap="round" stroke-miterlimit="10" stroke-width=".6341618" d="m87.965 114.91 29.723-.476"/></g><g clip-path="url(#c)"><path d="M89.547 114.91a1.584 1.584 0 1 0-3.168 0 1.584 1.584 0 1 0 3.168 0m0 0"/></g><g clip-path="url(#d)"><path fill="none" stroke="#000" stroke-miterlimit="10" stroke-width=".39847332" d="M89.547 114.91a1.584 1.584 0 1 0-3.168 0 1.584 1.584 0 1 0 3.168 0Zm0 0"/></g><g clip-path="url(#e)"><path d="M119.273 114.91a1.587 1.587 0 0 0-3.171 0 1.587 1.587 0 0 0 3.171 0m0 0"/></g><g clip-path="url(#f)"><path fill="none" stroke="#000" stroke-miterlimit="10" stroke-width=".39847332" d="M119.273 114.91a1.587 1.587 0 0 0-3.171 0 1.587 1.587 0 0 0 3.171 0Zm0 0"/></g><path fill="none" stroke="#000" stroke-miterlimit="10" stroke-width=".79594796" d="m193.297 68.55 9.91-15.85h-19.816Zm0 0"/><path fill="none" stroke="#000" stroke-miterlimit="10" stroke-width=".39847332" d="M193.297 68.55V52.7"/><path fill="none" stroke="#000" stroke-miterlimit="10" stroke-width=".79594796" d="M183.39 68.55h19.817"/><g clip-path="url(#g)"><path fill="none" stroke="#000" stroke-miterlimit="10" stroke-width=".39847332" d="m203.207 57.457 7.2 5.758"/></g><path d="m212.805 65.133-1.22-3.23-1.1 1.374-1.098 1.375Zm0 0"/><g clip-path="url(#h)"><path fill="none" stroke="#000" stroke-miterlimit="10" stroke-width=".39844938" d="m212.805 65.133-1.22-3.23-1.1 1.374-1.098 1.375Zm0 0"/></g><path fill="none" stroke="#000" stroke-miterlimit="10" stroke-width=".39847332" d="m201.227 62.211 7.199 5.762"/><path d="m210.824 69.89-1.222-3.23-1.098 1.375-1.102 1.375Zm0 0"/><g clip-path="url(#i)"><path fill="none" stroke="#000" stroke-miterlimit="10" stroke-width=".39844938" d="m210.824 69.89-1.222-3.23-1.098 1.375-1.102 1.375Zm0 0"/></g><path fill="none" stroke="#000" stroke-miterlimit="10" stroke-width=".79594796" d="M86.973.398h31.707V12.29H86.973Zm0 0"/></svg>