<svg xmlns="http://www.w3.org/2000/svg" xmlns:xlink="http://www.w3.org/1999/xlink" width="112.446" height="109.128"><defs><path id="a" d="M3.703-6c.078-.344.11-.453.89-.453.25 0 .329 0 .329-.188 0-.109-.11-.109-.156-.109-.282 0-1.016.031-1.297.031-.297 0-1.031-.031-1.328-.031-.063 0-.188 0-.188.188 0 .109.078.109.266.109.422 0 .687 0 .687.187 0 .047 0 .079-.015.157L1.547-.766c-.078.36-.11.454-.89.454-.235 0-.313 0-.313.203 0 .109.11.109.14.109C.766 0 1.5-.031 1.781-.031 2.078-.031 2.813 0 3.11 0c.079 0 .188 0 .188-.187 0-.125-.078-.125-.297-.125-.172 0-.219 0-.422-.016-.203-.016-.25-.063-.25-.172 0-.078.031-.156.047-.219Zm0 0"/></defs><path fill="none" stroke="#000" stroke-miterlimit="10" stroke-width=".39583593" d="M18.215 90.219V60.035m0-11.808V18.043h36.09m0 0H90.39v20.34m0 31.496v20.34H54.305m0 0h-36.09M18.215 56.078v3.957m0-7.851v-3.957"/><path fill="none" stroke="#000" stroke-miterlimit="10" stroke-width=".79067979" d="M6.402 52.184h23.625"/><path fill="none" stroke="#000" stroke-miterlimit="10" stroke-width="2.37203937" d="M12.309 56.078H24.12"/><path fill="none" stroke="#000" stroke-miterlimit="10" stroke-width=".79067979" d="M84.484 69.879V38.383h11.813v31.496Zm0 0"/><path stroke="#000" stroke-miterlimit="10" stroke-width=".39583593" d="M52.582 90.219v1.969l4.18-1.97-4.18-1.968Zm0 0"/><use xlink:href="#a" x="51.742" y="100.465"/></svg>