<svg xmlns="http://www.w3.org/2000/svg" xmlns:xlink="http://www.w3.org/1999/xlink" width="103.804" height="20.639"><defs><clipPath id="b"><path d="M31 0h39v20.285H31Zm0 0"/></clipPath><clipPath id="c"><path d="M57 0h2v20.285h-2Zm0 0"/></clipPath><path id="a" d="M4.11 0v-.297h-.313c-.89 0-.922-.11-.922-.484v-5.485c0-.234 0-.265-.219-.265-.61.64-1.469.64-1.781.64v.297c.188 0 .766 0 1.281-.25V-.78c0 .36-.031.484-.906.484H.938V0c.343-.031 1.187-.031 1.578-.031.39 0 1.25 0 1.593.031m0 0"/><path id="d" d="M4.406-1.703h-.25c-.047.297-.125.719-.218.875-.063.078-.72.078-.938.078H1.25l1.031-1.016C3.812-3.109 4.406-3.64 4.406-4.625c0-1.11-.89-1.906-2.078-1.906-1.11 0-1.844.906-1.844 1.781 0 .547.5.547.532.547.156 0 .5-.125.5-.516 0-.265-.172-.515-.516-.515-.078 0-.094 0-.125.015.219-.64.75-1 1.313-1 .906 0 1.312.797 1.312 1.594 0 .781-.484 1.563-1.016 2.172L.594-.36C.484-.25.484-.234.484 0h3.641Zm0 0"/></defs><path fill="none" stroke="#000" stroke-miterlimit="10" stroke-width=".39214119000000003" d="M12.414 10.14h29.961m15.602 0h29.96"/><use xlink:href="#a" x="4.06" y="13.403"/><g clip-path="url(#b)"><path fill="none" stroke="#000" stroke-miterlimit="10" stroke-width=".7832995700000001" d="M57.977 10.14 42.375.39v19.5Zm0 0"/></g><path fill="none" stroke="#000" stroke-miterlimit="10" stroke-width=".39214119000000003" d="M57.977 10.14H42.375"/><g clip-path="url(#c)"><path fill="none" stroke="#000" stroke-miterlimit="10" stroke-width=".7832995700000001" d="M57.977 19.89V.39"/></g><use xlink:href="#d" x="91.395" y="13.403"/></svg>