<svg xmlns="http://www.w3.org/2000/svg" width="110.127" height="30.361"><defs><clipPath id="a"><path d="M.707 9H106v2H.707Zm0 0"/></clipPath><clipPath id="b"><path d="M34 0h38v29.734H34Zm0 0"/></clipPath><clipPath id="c"><path d="M44 14h18v15.734H44Zm0 0"/></clipPath><clipPath id="d"><path d="M54 25h4v4.734h-4Zm0 0"/></clipPath><clipPath id="e"><path d="M48 20h15v9.734H48Zm0 0"/></clipPath><clipPath id="f"><path d="M49 12h17v17.734H49Zm0 0"/></clipPath><clipPath id="g"><path d="M53 18h15v11.734H53Zm0 0"/></clipPath></defs><g clip-path="url(#a)"><path fill="none" stroke="#000" stroke-miterlimit="10" stroke-width=".39077661" d="M.902 10.105h44.336m15.547 0h44.336"/></g><g clip-path="url(#b)"><path fill="none" stroke="#000" stroke-miterlimit="10" stroke-width=".78057383" d="m60.785 10.105-15.547 9.72V.39Zm0 0"/></g><path fill="none" stroke="#000" stroke-miterlimit="10" stroke-width=".39077661" d="M60.785 10.105H45.238"/><path fill="none" stroke="#000" stroke-miterlimit="10" stroke-width=".78057383" d="M60.785.39v19.434"/><g clip-path="url(#c)"><path fill="none" stroke="#000" stroke-miterlimit="10" stroke-width=".39077661" d="m49.902 19.824 5.649 7.059"/></g><g clip-path="url(#d)"><path d="m57.434 29.234-.473-3.351-2.695 2.156Zm0 0"/></g><g clip-path="url(#e)"><path fill="none" stroke="#000" stroke-miterlimit="10" stroke-width=".39074868" d="m57.434 29.234-.473-3.351-2.695 2.156Zm0 0"/></g><g clip-path="url(#f)"><path fill="none" stroke="#000" stroke-miterlimit="10" stroke-width=".39077661" d="m54.566 17.879 5.649 7.062"/></g><path d="m62.098 27.293-.473-3.355-1.348 1.078-1.347 1.082Zm0 0"/><g clip-path="url(#g)"><path fill="none" stroke="#000" stroke-miterlimit="10" stroke-width=".39074868" d="m62.098 27.293-.473-3.356-1.348 1.079-1.347 1.082Zm0 0"/></g></svg>