<svg xmlns="http://www.w3.org/2000/svg" width="218.306" height="128.319"><defs><clipPath id="a"><path d="M12 10h196v117.64H12Zm0 0"/></clipPath><clipPath id="b"><path d="M.23 66H25v2H.23Zm0 0"/></clipPath></defs><path fill="none" stroke="#000" stroke-miterlimit="10" stroke-width=".39689328" d="M71.059 10.266h31.164m15.793 0h31.164"/><path fill="none" stroke="#000" stroke-miterlimit="10" stroke-width=".79279184" d="M118.016 10.266 102.223.398v19.735Zm0 0"/><path fill="none" stroke="#000" stroke-miterlimit="10" stroke-width=".39689328" d="M118.016 10.266h-15.793"/><path fill="none" stroke="#000" stroke-miterlimit="10" stroke-width=".79279184" d="M118.016 20.133V.398"/><g clip-path="url(#a)"><path fill="none" stroke="#000" stroke-miterlimit="10" stroke-width=".39689328" d="M71.059 10.266h-58.59v52.668m0 11.843v52.668h195.3v-42.8m0-31.579v-42.8h-58.59"/></g><path fill="none" stroke="#000" stroke-miterlimit="10" stroke-width=".39689328" d="M12.469 70.809v3.968m0-7.875v-3.968"/><g clip-path="url(#b)"><path fill="none" stroke="#000" stroke-miterlimit="10" stroke-width=".79279184" d="M24.313 66.902H.629"/></g><path fill="none" stroke="#000" stroke-miterlimit="10" stroke-width="2.37837552" d="M18.39 70.809H6.548"/><path fill="none" stroke="#000" stroke-miterlimit="10" stroke-width=".79279184" d="M213.691 53.066v31.579h-11.843V53.066Zm0 0"/></svg>