<svg xmlns="http://www.w3.org/2000/svg" width="217.629" height="121.563"><defs><clipPath id="a"><path d="M12 6h192v115.129H12Zm0 0"/></clipPath><clipPath id="b"><path d="M.203 61H25v2H.203Zm0 0"/></clipPath><clipPath id="c"><path d="M182 44h35.055v39H182Zm0 0"/></clipPath></defs><path fill="none" stroke="#000" stroke-miterlimit="10" stroke-width=".39757158000000004" d="M69.766 6.328h22.382m31.637 0h22.383"/><path fill="none" stroke="#000" stroke-miterlimit="10" stroke-width=".7941467400000001" d="M92.148.398h31.637v11.864H92.148Zm0 0"/><g clip-path="url(#a)"><path fill="none" stroke="#000" stroke-miterlimit="10" stroke-width=".39757158000000004" d="M69.766 6.328H12.465V57.7m0 11.863v51.368h191.004V71.54m0-15.817V6.328h-57.301"/></g><path fill="none" stroke="#000" stroke-miterlimit="10" stroke-width=".39757158000000004" d="M12.465 65.586v3.976m0-7.89v-3.973"/><g clip-path="url(#b)"><path fill="none" stroke="#000" stroke-miterlimit="10" stroke-width=".7941467400000001" d="M24.328 61.672H.602"/></g><path fill="none" stroke="#000" stroke-miterlimit="10" stroke-width="2.38244022" d="M18.395 65.586H6.535"/><g clip-path="url(#c)"><path fill="none" stroke="#000" stroke-miterlimit="10" stroke-width=".7941467400000001" d="m203.469 55.723-9.887 15.816h19.773Zm0 0"/></g><path fill="none" stroke="#000" stroke-miterlimit="10" stroke-width=".39757158000000004" d="M203.469 55.723v15.816"/><path fill="none" stroke="#000" stroke-miterlimit="10" stroke-width=".7941467400000001" d="M213.355 55.723h-19.773"/></svg>