<svg xmlns="http://www.w3.org/2000/svg" xmlns:xlink="http://www.w3.org/1999/xlink" width="221.951" height="98.265"><defs><path id="b" d="M3.625-3.953h.86c.187 0 .296 0 .296-.203 0-.11-.11-.11-.265-.11h-.828L3.89-5.39c.046-.203.187-.906.25-1.03.078-.188.25-.329.453-.329.047 0 .297 0 .484.172a.563.563 0 0 0-.531.531c0 .234.187.344.375.344.25 0 .531-.219.531-.594 0-.453-.453-.672-.86-.672-.327 0-.952.172-1.25 1.157-.062.203-.093.296-.327 1.546h-.688c-.187 0-.297 0-.297.188 0 .125.094.125.281.125h.657l-.75 3.906c-.172.953-.344 1.86-.86 1.86-.03 0-.28 0-.468-.188a.527.527 0 0 0 .547-.531c0-.219-.188-.344-.375-.344-.25 0-.532.219-.532.594 0 .453.422.687.828.687.547 0 .938-.594 1.125-.969.313-.624.547-1.812.547-1.89Zm0 0"/><path id="c" d="M5.156-4.672H.484L.328-3.094h.235C.672-4.28.859-4.438 1.938-4.438c.125 0 .328 0 .406.016.14.031.14.11.14.266v3.593c0 .22 0 .313-.718.313h-.282V0c.344-.031.985-.031 1.344-.031.36 0 1 0 1.328.031v-.25h-.281c-.719 0-.719-.094-.719-.312v-3.594c0-.157 0-.235.14-.266.079-.016.282-.016.407-.016.39 0 .688 0 .938.141.312.188.359.64.359.672l.063.531h.234Zm0 0"/><path id="d" d="M4.781-.875v-.562h-.25v.562c0 .563-.25.625-.36.625-.327 0-.359-.437-.359-.484V-2.72c0-.422 0-.797-.359-1.172a1.94 1.94 0 0 0-1.36-.546C1.282-4.437.61-3.97.61-3.312c0 .296.188.468.454.468a.444.444 0 0 0 .453-.453c0-.125-.047-.453-.5-.469.265-.343.75-.453 1.062-.453.485 0 1.047.39 1.047 1.266v.375c-.5.031-1.203.062-1.812.36-.75.327-1 .843-1 1.28C.313-.14 1.28.11 1.906.11 2.546.11 3-.28 3.188-.75c.046.39.312.813.78.813.204 0 .813-.141.813-.938m-1.656-.516c0 .954-.719 1.282-1.156 1.282-.485 0-.89-.344-.89-.844 0-.547.421-1.36 2.046-1.422Zm0 0"/><path id="e" d="M5.156-2.14c0-1.25-.968-2.235-2.093-2.235-.782 0-1.204.469-1.36.64v-3.124L.281-6.75v.297c.688 0 .766.078.766.562V0h.25l.36-.61c.14.22.562.72 1.296.72 1.172 0 2.203-.97 2.203-2.25m-.828 0c0 .359-.016.953-.297 1.406-.218.297-.593.625-1.125.625-.437 0-.797-.235-1.031-.61-.14-.203-.14-.234-.14-.406v-2.047c0-.187 0-.187.109-.344.375-.562.922-.64 1.156-.64.453 0 .813.265 1.047.64.25.407.281.97.281 1.375m0 0"/><clipPath id="a"><path d="M.8 0H11v10H.8Zm0 0"/></clipPath></defs><path fill="none" stroke="#000" stroke-miterlimit="10" stroke-width=".39603942000000003" d="M2.848 69.965H198.18"/><path stroke="#000" stroke-miterlimit="10" stroke-width=".39603942000000003" d="m201.23 69.965-2.953-1.75v3.504Zm0 0"/><path fill="none" stroke="#000" stroke-miterlimit="10" stroke-width=".39603942000000003" d="M2.848 69.965V3.84"/><path d="m2.848.79-1.75 2.952h3.5Zm0 0"/><g clip-path="url(#a)"><path fill="none" stroke="#000" stroke-miterlimit="10" stroke-width=".39603942000000003" d="m2.848.79-1.75 2.952h3.5Zm0 0"/></g><path fill="none" stroke="#000" stroke-miterlimit="10" stroke-width=".79108626" d="M141.992 69.965V.395M147.953 69.965V20.273l19.88 19.875v29.817M136.027 69.965V20.273l-19.879 19.875v29.817"/><use xlink:href="#b" x="208.608" y="72.439"/><use xlink:href="#b" x="136.5" y="92.316"/><use xlink:href="#c" x="141.34" y="93.799"/><use xlink:href="#d" x="123.616" y="52.25"/><use xlink:href="#e" x="155.142" y="51.479"/></svg>