<svg xmlns="http://www.w3.org/2000/svg" xmlns:xlink="http://www.w3.org/1999/xlink" width="116.813" height="53.007"><defs><path id="b" d="M3.594-3.906h.844c.187 0 .28 0 .28-.203 0-.11-.093-.11-.265-.11h-.797l.203-1.11c.032-.202.172-.905.235-1.015.078-.187.25-.343.453-.343.047 0 .297 0 .484.187a.531.531 0 0 0-.531.531c0 .219.172.328.36.328a.56.56 0 0 0 .546-.578c0-.453-.453-.672-.86-.672-.327 0-.952.172-1.234 1.141-.062.203-.093.297-.328 1.531h-.671c-.188 0-.297 0-.297.188 0 .125.093.125.265.125h.656l-.734 3.86c-.172.952-.344 1.843-.86 1.843-.03 0-.28 0-.468-.188.453-.03.547-.375.547-.53 0-.22-.172-.329-.36-.329a.55.55 0 0 0-.546.578c0 .438.437.672.828.672.547 0 .937-.578 1.11-.937C2.765.438 3-.75 3-.812Zm0 0"/><path id="c" d="M5.094-4.625H.469l-.14 1.578h.233C.657-4.234.86-4.375 1.907-4.375h.407c.156.031.156.11.156.266v3.547c0 .234 0 .312-.719.312h-.281V0c.328-.031.968-.031 1.328-.031.344 0 .984 0 1.312.031v-.25h-.28c-.72 0-.72-.078-.72-.312V-4.11c0-.157 0-.235.157-.266h.406c.375 0 .672 0 .906.125.313.188.36.625.375.656l.063.547h.234Zm0 0"/><clipPath id="a"><path d="M.98 0H11v10H.98Zm0 0"/></clipPath></defs><path fill="none" stroke="#000" stroke-miterlimit="10" stroke-width=".39166239" d="M3.008 34.598H97.89"/><path stroke="#000" stroke-miterlimit="10" stroke-width=".39166239" d="m100.906 34.598-2.918-1.73v3.46Zm0 0"/><path fill="none" stroke="#000" stroke-miterlimit="10" stroke-width=".39166239" d="M3.008 34.598V3.605"/><path d="M3.008.586 1.273 3.508h3.465Zm0 0"/><g clip-path="url(#a)"><path fill="none" stroke="#000" stroke-miterlimit="10" stroke-width=".39166239" d="M3.008.586 1.273 3.508h3.465Zm0 0"/></g><path fill="none" stroke="#000" stroke-miterlimit="10" stroke-width=".78234317" d="M68.863 34.598V10.023l-9.832 9.832v14.743"/><use xlink:href="#b" x="103.291" y="37.042"/><use xlink:href="#b" x="66.38" y="46.871"/><use xlink:href="#c" x="71.167" y="48.337"/></svg>