<svg xmlns="http://www.w3.org/2000/svg" xmlns:xlink="http://www.w3.org/1999/xlink" width="116.813" height="53.206"><defs><path id="b" d="M3.594-3.922h.844c.203 0 .296 0 .296-.203 0-.11-.093-.11-.265-.11h-.813l.203-1.109c.047-.203.188-.906.25-1.031.079-.187.25-.328.454-.328.046 0 .296 0 .484.172-.438.047-.531.39-.531.531 0 .234.172.344.359.344a.57.57 0 0 0 .547-.578c0-.453-.453-.688-.86-.688-.328 0-.953.188-1.25 1.156-.062.204-.078.297-.312 1.532h-.687c-.188 0-.297 0-.297.187 0 .125.093.125.28.125h.642L2.203-.047c-.172.953-.344 1.844-.844 1.844-.046 0-.296 0-.468-.172a.54.54 0 0 0 .53-.531c0-.235-.171-.344-.359-.344a.56.56 0 0 0-.546.578c0 .453.437.688.843.688.532 0 .922-.578 1.11-.953C2.78.438 3-.75 3.016-.812Zm0 0"/><path id="c" d="M5.125-4.64H.469l-.14 1.577h.233C.657-4.25.86-4.405 1.923-4.405c.14 0 .328 0 .406.015.14.032.14.094.14.266v3.563c0 .218 0 .312-.702.312h-.297V0c.343-.031.984-.031 1.344-.031.343 0 .984 0 1.312.031v-.25h-.281c-.719 0-.719-.094-.719-.312v-3.563c0-.172 0-.234.156-.266.063-.015.266-.015.406-.015.376 0 .672 0 .922.14.313.188.36.625.36.657l.062.547h.235Zm0 0"/><clipPath id="a"><path d="M.766 0H11v10H.766Zm0 0"/></clipPath></defs><path fill="none" stroke="#000" stroke-miterlimit="10" stroke-width=".3931347" d="M2.797 34.922h95.242"/><path stroke="#000" stroke-miterlimit="10" stroke-width=".3931347" d="m101.066 34.922-2.93-1.735v3.473Zm0 0"/><path fill="none" stroke="#000" stroke-miterlimit="10" stroke-width=".3931347" d="M2.797 34.922V3.812"/><path d="m2.797.785-1.735 2.93h3.473Zm0 0"/><g clip-path="url(#a)"><path fill="none" stroke="#000" stroke-miterlimit="10" stroke-width=".3931347" d="m2.797.785-1.734 2.93h3.472Zm0 0"/></g><path fill="none" stroke="#000" stroke-miterlimit="10" stroke-width=".7852841" d="M71.86 34.922V.395M74.82 34.922V10.258l9.867 9.867v14.797"/><use xlink:href="#b" x="103.459" y="37.377"/><use xlink:href="#b" x="66.41" y="47.243"/><use xlink:href="#c" x="71.215" y="48.715"/></svg>