<svg xmlns="http://www.w3.org/2000/svg" width="233.311" height="76.198"><defs><clipPath id="a"><path d="M.875 0H33v32H.875Zm0 0"/></clipPath><clipPath id="b"><path d="M21 57h26v18.406H21Zm0 0"/></clipPath><clipPath id="c"><path d="M64 43h32v32.406H64Zm0 0"/></clipPath><clipPath id="d"><path d="M110 41h32v34.406h-32Zm0 0"/></clipPath><clipPath id="e"><path d="M156 43h32v32.406h-32Zm0 0"/></clipPath><clipPath id="f"><path d="M195 32h36.754v43.406H195Zm0 0"/></clipPath></defs><path fill="none" stroke="#000" stroke-miterlimit="10" stroke-width=".39484242" d="M11.285 59.3h9.219m27.488 0H66.43m27.492 0h18.437m27.493 0h18.437m27.492 0h14.957m0 0h5.742M11.086 59.3V.39"/><g clip-path="url(#a)"><path fill="none" stroke="#000" stroke-miterlimit="10" stroke-width=".78869526" d="M11.086.39h9.82l-9.82 19.637L1.27.391h9.816"/></g><path fill="none" stroke="#000" stroke-miterlimit="10" stroke-width=".78869526" d="M20.504 45.555h27.488v27.492H20.504Zm0 0"/><path fill="none" stroke="#000" stroke-miterlimit="10" stroke-width=".39484242" d="M27.375 52.43c1.121-1.762 2.191-3.438 3.437-3.438 1.243 0 2.317 1.676 3.434 3.438 1.121 1.758 2.195 3.433 3.438 3.433 1.246 0 2.316-1.675 3.437-3.433m-4.812-2.063-4.122 4.121M27.375 59.3c1.121-1.757 2.191-3.437 3.437-3.437 1.243 0 2.317 1.68 3.434 3.438 1.121 1.758 2.195 3.437 3.438 3.437 1.246 0 2.316-1.68 3.437-3.437"/><g clip-path="url(#b)"><path fill="none" stroke="#000" stroke-miterlimit="10" stroke-width=".39484242" d="M27.375 66.172c1.121-1.758 2.191-3.434 3.437-3.434 1.243 0 2.317 1.676 3.434 3.434 1.121 1.762 2.195 3.437 3.438 3.437 1.246 0 2.316-1.675 3.437-3.437m-4.812-2.059-4.122 4.121"/></g><path fill="none" stroke="#000" stroke-miterlimit="10" stroke-width=".78869526" d="M66.43 45.555h27.492v27.492H66.43Zm0 0"/><g clip-path="url(#c)"><path fill="none" stroke="#000" stroke-miterlimit="10" stroke-width=".39484242" d="M70.555 48.715 89.797 59.3 70.555 69.883Zm0 0"/></g><path fill="none" stroke="#000" stroke-miterlimit="10" stroke-width=".78869526" d="M112.36 45.555h27.492v27.492h-27.493Zm0 0"/><path fill="none" stroke="#000" stroke-miterlimit="10" stroke-width=".31567602" d="M115.797 59.3h20.617"/><g clip-path="url(#d)"><path fill="none" stroke="#000" stroke-miterlimit="10" stroke-width=".63135204" d="m132.977 59.3-13.743-8.589v17.18Zm0 0"/></g><path fill="none" stroke="#000" stroke-miterlimit="10" stroke-width=".63135204" d="M132.977 67.89V50.712"/><path fill="none" stroke="#000" stroke-miterlimit="10" stroke-width=".78869526" d="M158.289 45.555h27.492v27.492H158.29Zm0 0"/><g clip-path="url(#e)"><path fill="none" stroke="#000" stroke-miterlimit="10" stroke-width=".39484242" d="M162.414 48.715 181.656 59.3l-19.242 10.582Zm0 0"/></g><g clip-path="url(#f)"><path fill="none" stroke="#000" stroke-miterlimit="10" stroke-width=".78869526" d="M206.48 75.008V43.59h12.176v31.418Zm12.176-23.563 9.426-4.71v25.132l-9.426-4.71Zm0 0"/></g></svg>