<svg xmlns="http://www.w3.org/2000/svg" xmlns:xlink="http://www.w3.org/1999/xlink" width="227.241" height="102.354"><defs><clipPath id="a"><path d="M.336 32H30v41H.336Zm0 0"/></clipPath><clipPath id="b"><path d="M.336 43H2v19H.336Zm0 0"/></clipPath><clipPath id="c"><path d="M193 0h33.152v29H193Zm0 0"/></clipPath><clipPath id="d"><path d="M66 76h26v25.71H66Zm0 0"/></clipPath><path id="e" d="M7.281-2.39v-.313l-1.203.031c-.406 0-1.25 0-1.594-.031v.312h.313c.89 0 .922.11.922.47v.64c0 1.11-1.266 1.187-1.532 1.187-.656 0-2.609-.343-2.609-3.297 0-2.953 1.953-3.28 2.547-3.28 1.063 0 1.953.89 2.156 2.343.016.14.016.172.157.172.156 0 .156-.032.156-.235V-6.75c0-.172 0-.234-.11-.234-.03 0-.078 0-.156.125l-.5.734c-.312-.328-.844-.86-1.828-.86C2.156-6.984.563-5.421.563-3.39.563-1.359 2.14.22 4.015.22c.734 0 1.515-.266 1.859-.844.125.219.531.61.64.61.079 0 .079-.079.079-.22v-1.734c0-.375.047-.422.687-.422m0 0"/></defs><g clip-path="url(#a)"><path fill="none" stroke="#000" stroke-miterlimit="10" stroke-width=".7920028100000001" d="M9.41 43.79a8.68 8.68 0 0 0 0 17.358 8.68 8.68 0 0 0 0-17.359Zm0 0"/></g><g clip-path="url(#b)"><path fill="none" stroke="#000" stroke-miterlimit="10" stroke-width=".7920028100000001" d="M.73 61.148V43.79"/></g><path fill="none" stroke="#000" stroke-miterlimit="10" stroke-width=".39649827000000004" d="M18.09 52.469h6.2m0 0h6.198"/><path fill="none" stroke="#000" stroke-miterlimit="10" stroke-width=".7920028100000001" d="M30.488 40.316H54.79v24.301h-24.3Zm0 0"/><path fill="none" stroke="#000" stroke-miterlimit="10" stroke-width=".39649827000000004" d="M34.133 43.113 51.14 52.47l-17.008 9.355ZM54.79 52.469h6.194m0 0h6.2"/><path fill="none" stroke="#000" stroke-miterlimit="10" stroke-width=".7920028100000001" d="M67.184 40.316h24.3v24.301h-24.3Zm0 0"/><path fill="none" stroke="#000" stroke-miterlimit="10" stroke-width=".39649827000000004" d="M87.84 52.469a8.504 8.504 0 1 0-17.008 0 8.503 8.503 0 0 0 8.504 8.504 8.506 8.506 0 0 0 8.504-8.504ZM73.32 46.453 85.352 58.48m0-12.027L73.32 58.48M91.484 52.469h6.2m0 0h6.199"/><path fill="none" stroke="#000" stroke-miterlimit="10" stroke-width=".7920028100000001" d="M103.883 40.316h24.3v24.301h-24.3Zm0 0"/><path fill="none" stroke="#000" stroke-miterlimit="10" stroke-width=".39649827000000004" d="M109.96 46.395c.99-1.56 1.938-3.04 3.036-3.04 1.102 0 2.047 1.48 3.04 3.04.987 1.554 1.937 3.035 3.034 3.035 1.102 0 2.051-1.48 3.04-3.035m-4.255-1.825-3.644 3.645M109.96 52.469c.99-1.555 1.938-3.04 3.036-3.04 1.102 0 2.047 1.485 3.04 3.04.987 1.554 1.937 3.035 3.034 3.035 1.102 0 2.051-1.48 3.04-3.035M109.96 58.543c.99-1.555 1.938-3.04 3.036-3.04 1.102 0 2.047 1.485 3.04 3.04.987 1.555 1.937 3.039 3.034 3.039 1.102 0 2.051-1.484 3.04-3.039m-4.255-1.824-3.644 3.648M128.184 52.469h6.199m0 0h6.199"/><path fill="none" stroke="#000" stroke-miterlimit="10" stroke-width=".7920028100000001" d="M140.582 40.316h24.3v24.301h-24.3Zm0 0"/><path fill="none" stroke="#000" stroke-miterlimit="10" stroke-width=".39649827000000004" d="m144.227 43.113 17.011 9.356-17.011 9.355ZM164.883 52.469h6.199m0 0h6.2"/><path fill="none" stroke="#000" stroke-miterlimit="10" stroke-width=".7920028100000001" d="M177.281 40.316h24.301v24.301h-24.3Zm0 0"/><path fill="none" stroke="#000" stroke-miterlimit="10" stroke-width=".39649827000000004" d="M183.355 46.395c.993-1.56 1.938-3.04 3.04-3.04 1.097 0 2.046 1.48 3.039 3.04.988 1.554 1.937 3.035 3.035 3.035 1.101 0 2.047-1.48 3.039-3.035m-4.254-1.825-3.645 3.645M183.355 52.469c.993-1.555 1.938-3.04 3.04-3.04 1.097 0 2.046 1.485 3.039 3.04.988 1.554 1.937 3.035 3.035 3.035 1.101 0 2.047-1.48 3.039-3.035m-4.254-1.824-3.645 3.644M183.355 58.543c.993-1.555 1.938-3.04 3.04-3.04 1.097 0 2.046 1.485 3.039 3.04.988 1.555 1.937 3.039 3.035 3.039 1.101 0 2.047-1.484 3.039-3.039M201.582 52.469h6.2m0 0h6.198M213.781 52.469V.395"/><g clip-path="url(#c)"><path fill="none" stroke="#000" stroke-miterlimit="10" stroke-width=".7920028100000001" d="M213.781.395h8.68l-8.68 17.359-8.676-17.36h8.676"/></g><path fill="none" stroke="#000" stroke-miterlimit="10" stroke-width=".39649827000000004" d="M79.336 64.617v6.2m0 0v6.199"/><g clip-path="url(#d)"><path fill="none" stroke="#000" stroke-miterlimit="10" stroke-width=".7920028100000001" d="M67.184 77.016h24.3v24.3h-24.3Zm0 0"/></g><path fill="none" stroke="#000" stroke-miterlimit="10" stroke-width=".39649827000000004" d="M80.855 86.129c.493-.777.97-1.52 1.52-1.52.547 0 1.023.743 1.516 1.52.496.777.968 1.52 1.52 1.52.55 0 1.023-.743 1.519-1.52M80.855 89.168c.493-.777.97-1.52 1.52-1.52.547 0 1.023.743 1.516 1.52.496.777.968 1.516 1.52 1.516.55 0 1.023-.739 1.519-1.516M80.855 92.203c.493-.777.97-1.52 1.52-1.52.547 0 1.023.743 1.516 1.52.496.777.968 1.52 1.52 1.52.55 0 1.023-.743 1.519-1.52"/><use xlink:href="#e" x="69.982" y="92.547"/></svg>