<svg xmlns="http://www.w3.org/2000/svg" xmlns:xlink="http://www.w3.org/1999/xlink" width="227.241" height="102.354"><defs><path id="e" d="M7.281-2.39v-.313l-1.203.031c-.406 0-1.25 0-1.594-.031v.312h.313c.89 0 .922.11.922.47v.64c0 1.11-1.266 1.187-1.532 1.187-.656 0-2.609-.343-2.609-3.297 0-2.953 1.953-3.28 2.547-3.28 1.063 0 1.953.89 2.156 2.343.016.14.016.172.157.172.156 0 .156-.032.156-.235V-6.75c0-.172 0-.234-.11-.234-.03 0-.078 0-.156.125l-.5.734c-.312-.328-.844-.86-1.828-.86C2.156-6.984.563-5.421.563-3.39.563-1.359 2.14.22 4.015.22c.734 0 1.515-.266 1.859-.844.125.219.531.61.64.61.079 0 .079-.079.079-.22v-1.734c0-.375.047-.422.687-.422m0 0"/><path id="f" d="M4.156 0v-.312h-.328c-.89 0-.922-.11-.922-.47v-5.562c0-.234 0-.25-.219-.25-.609.625-1.484.625-1.812.625v.313c.203 0 .797 0 1.297-.25v5.125c0 .36-.016.469-.906.469H.938V0c.343-.031 1.218-.031 1.609-.031.39 0 1.25 0 1.61.031m0 0"/><path id="g" d="M4.453-1.719h-.25c-.047.297-.125.735-.219.875-.078.078-.718.078-.937.078H1.266L2.313-1.78c1.546-1.375 2.14-1.906 2.14-2.89 0-1.141-.89-1.923-2.11-1.923C1.235-6.594.5-5.687.5-4.797c0 .547.484.547.516.547a.516.516 0 0 0 .515-.531c0-.25-.172-.516-.515-.516-.079 0-.11 0-.141.016.234-.64.766-1.016 1.344-1.016.906 0 1.328.813 1.328 1.625 0 .781-.5 1.578-1.047 2.188L.61-.36C.5-.25.5-.234.5 0h3.672Zm0 0"/><path id="h" d="M4.531-1.687c0-.813-.625-1.594-1.656-1.797.813-.266 1.39-.97 1.39-1.75 0-.813-.874-1.36-1.827-1.36-1 0-1.75.594-1.75 1.344 0 .328.218.516.5.516.312 0 .5-.22.5-.5 0-.5-.454-.5-.61-.5.313-.485.969-.61 1.313-.61.406 0 .953.219.953 1.11 0 .109-.016.687-.266 1.125-.297.468-.64.5-.89.515-.079 0-.313.031-.391.031-.078 0-.14.016-.14.11 0 .11.062.11.234.11h.437c.813 0 1.172.671 1.172 1.656 0 1.343-.672 1.625-1.11 1.625-.421 0-1.171-.172-1.515-.75.344.046.656-.172.656-.547 0-.36-.265-.547-.562-.547-.235 0-.547.14-.547.562 0 .907.922 1.563 2 1.563 1.203 0 2.11-.906 2.11-1.906m0 0"/><path id="i" d="M4.672-1.64v-.298h-1v-4.515c0-.188 0-.25-.156-.25-.094 0-.125 0-.203.11L.28-1.938v.296h2.625v.875c0 .344-.015.454-.75.454h-.203V0c.406-.031.922-.031 1.328-.031.422 0 .953 0 1.36.031v-.312h-.22c-.734 0-.75-.11-.75-.454v-.875Zm-1.703-.298H.563L2.969-5.64Zm0 0"/><path id="j" d="M4.453-1.984c0-1.188-.812-2.172-1.89-2.172-.47 0-.891.156-1.25.5v-1.938c.187.063.515.14.843.14 1.219 0 1.906-.905 1.906-1.03 0-.063-.03-.11-.093-.11 0 0-.031 0-.078.032-.203.078-.688.28-1.36.28-.39 0-.844-.062-1.312-.28-.078-.032-.125-.032-.125-.032-.094 0-.094.078-.094.25v2.922c0 .188 0 .266.14.266.063 0 .094-.031.126-.094.109-.156.484-.687 1.28-.687.517 0 .767.453.845.624.156.376.172.75.172 1.25 0 .344 0 .938-.235 1.36-.234.39-.61.64-1.062.64-.72 0-1.282-.515-1.453-1.109.03.016.062.016.171.016.329 0 .485-.235.485-.485 0-.234-.157-.484-.485-.484-.14 0-.484.078-.484.531C.5-.75 1.172.22 2.281.22a2.194 2.194 0 0 0 2.172-2.203m0 0"/><path id="k" d="M4.531-2.016c0-1.265-.89-2.218-1.984-2.218-.672 0-1.047.515-1.235.984v-.234c0-2.516 1.22-2.86 1.735-2.86.234 0 .64.047.86.39-.141 0-.532 0-.532.438 0 .313.234.47.453.47a.446.446 0 0 0 .453-.485c0-.594-.437-1.063-1.265-1.063C1.75-6.594.422-5.312.422-3.125c0 2.64 1.14 3.344 2.062 3.344 1.11 0 2.047-.938 2.047-2.235m-.89-.015c0 .469 0 .969-.172 1.328-.297.594-.75.64-.985.64-.625 0-.921-.593-.984-.734-.172-.469-.172-1.265-.172-1.437C1.328-3.016 1.641-4 2.531-4c.156 0 .625 0 .922.61.188.374.188.874.188 1.359m0 0"/><clipPath id="a"><path d="M.336 32H30v41H.336Zm0 0"/></clipPath><clipPath id="b"><path d="M.336 43H2v19H.336Zm0 0"/></clipPath><clipPath id="c"><path d="M193 0h33.152v29H193Zm0 0"/></clipPath><clipPath id="d"><path d="M66 76h26v25.71H66Zm0 0"/></clipPath></defs><g clip-path="url(#a)"><path fill="none" stroke="#000" stroke-miterlimit="10" stroke-width=".7920028100000001" d="M9.41 43.79a8.68 8.68 0 0 0 0 17.358 8.68 8.68 0 0 0 0-17.359Zm0 0"/></g><g clip-path="url(#b)"><path fill="none" stroke="#000" stroke-miterlimit="10" stroke-width=".7920028100000001" d="M.73 61.148V43.79"/></g><path fill="none" stroke="#000" stroke-miterlimit="10" stroke-width=".39649827000000004" d="M18.09 52.469h6.2m0 0h6.198"/><path fill="none" stroke="#000" stroke-miterlimit="10" stroke-width=".7920028100000001" d="M30.488 40.316H54.79v24.301h-24.3Zm0 0"/><path fill="none" stroke="#000" stroke-miterlimit="10" stroke-width=".39649827000000004" d="M34.133 43.113 51.14 52.47l-17.008 9.355ZM54.79 52.469h6.194m0 0h6.2"/><path fill="none" stroke="#000" stroke-miterlimit="10" stroke-width=".7920028100000001" d="M67.184 40.316h24.3v24.301h-24.3Zm0 0"/><path fill="none" stroke="#000" stroke-miterlimit="10" stroke-width=".39649827000000004" d="M87.84 52.469a8.504 8.504 0 1 0-17.008 0 8.503 8.503 0 0 0 8.504 8.504 8.506 8.506 0 0 0 8.504-8.504ZM73.32 46.453 85.352 58.48m0-12.027L73.32 58.48M91.484 52.469h6.2m0 0h6.199"/><path fill="none" stroke="#000" stroke-miterlimit="10" stroke-width=".7920028100000001" d="M103.883 40.316h24.3v24.301h-24.3Zm0 0"/><path fill="none" stroke="#000" stroke-miterlimit="10" stroke-width=".39649827000000004" d="M109.96 46.395c.99-1.56 1.938-3.04 3.036-3.04 1.102 0 2.047 1.48 3.04 3.04.987 1.554 1.937 3.035 3.034 3.035 1.102 0 2.051-1.48 3.04-3.035m-4.255-1.825-3.644 3.645M109.96 52.469c.99-1.555 1.938-3.04 3.036-3.04 1.102 0 2.047 1.485 3.04 3.04.987 1.554 1.937 3.035 3.034 3.035 1.102 0 2.051-1.48 3.04-3.035M109.96 58.543c.99-1.555 1.938-3.04 3.036-3.04 1.102 0 2.047 1.485 3.04 3.04.987 1.555 1.937 3.039 3.034 3.039 1.102 0 2.051-1.484 3.04-3.039m-4.255-1.824-3.644 3.648M128.184 52.469h6.199m0 0h6.199"/><path fill="none" stroke="#000" stroke-miterlimit="10" stroke-width=".7920028100000001" d="M140.582 40.316h24.3v24.301h-24.3Zm0 0"/><path fill="none" stroke="#000" stroke-miterlimit="10" stroke-width=".39649827000000004" d="m144.227 43.113 17.011 9.356-17.011 9.355ZM164.883 52.469h6.199m0 0h6.2"/><path fill="none" stroke="#000" stroke-miterlimit="10" stroke-width=".7920028100000001" d="M177.281 40.316h24.301v24.301h-24.3Zm0 0"/><path fill="none" stroke="#000" stroke-miterlimit="10" stroke-width=".39649827000000004" d="M183.355 46.395c.993-1.56 1.938-3.04 3.04-3.04 1.097 0 2.046 1.48 3.039 3.04.988 1.554 1.937 3.035 3.035 3.035 1.101 0 2.047-1.48 3.039-3.035m-4.254-1.825-3.645 3.645M183.355 52.469c.993-1.555 1.938-3.04 3.04-3.04 1.097 0 2.046 1.485 3.039 3.04.988 1.554 1.937 3.035 3.035 3.035 1.101 0 2.047-1.48 3.039-3.035m-4.254-1.824-3.645 3.644M183.355 58.543c.993-1.555 1.938-3.04 3.04-3.04 1.097 0 2.046 1.485 3.039 3.04.988 1.555 1.937 3.039 3.035 3.039 1.101 0 2.047-1.484 3.039-3.039M201.582 52.469h6.2m0 0h6.198M213.781 52.469V.395"/><g clip-path="url(#c)"><path fill="none" stroke="#000" stroke-miterlimit="10" stroke-width=".7920028100000001" d="M213.781.395h8.68l-8.68 17.359-8.676-17.36h8.676"/></g><path fill="none" stroke="#000" stroke-miterlimit="10" stroke-width=".39649827000000004" d="M79.336 64.617v6.2m0 0v6.199"/><g clip-path="url(#d)"><path fill="none" stroke="#000" stroke-miterlimit="10" stroke-width=".7920028100000001" d="M67.184 77.016h24.3v24.3h-24.3Zm0 0"/></g><path fill="none" stroke="#000" stroke-miterlimit="10" stroke-width=".39649827000000004" d="M80.855 86.129c.493-.777.97-1.52 1.52-1.52.547 0 1.023.743 1.516 1.52.496.777.968 1.52 1.52 1.52.55 0 1.023-.743 1.519-1.52M80.855 89.168c.493-.777.97-1.52 1.52-1.52.547 0 1.023.743 1.516 1.52.496.777.968 1.516 1.52 1.516.55 0 1.023-.739 1.519-1.516M80.855 92.203c.493-.777.97-1.52 1.52-1.52.547 0 1.023.743 1.516 1.52.496.777.968 1.52 1.52 1.52.55 0 1.023-.743 1.519-1.52"/><use xlink:href="#e" x="69.982" y="92.547"/><use xlink:href="#f" x="40.162" y="36.82"/><use xlink:href="#g" x="76.861" y="36.82"/><use xlink:href="#h" x="58.738" y="92.354"/><use xlink:href="#i" x="113.559" y="36.82"/><use xlink:href="#j" x="150.257" y="36.602"/><use xlink:href="#k" x="186.955" y="36.602"/></svg>