<svg xmlns="http://www.w3.org/2000/svg" width="113.834" height="136.082"><defs><clipPath id="a"><path d="M44 121h22v14.172H44Zm0 0"/></clipPath><clipPath id="b"><path d="M54 129h2v6.172h-2Zm0 0"/></clipPath><clipPath id="c"><path d="M42 32h71.371v60H42Zm0 0"/></clipPath><clipPath id="d"><path d="M.3 32H68v60H.3Zm0 0"/></clipPath><clipPath id="e"><path d="M42 61h71.371v60H42Zm0 0"/></clipPath><clipPath id="f"><path d="M.3 61H68v60H.3Zm0 0"/></clipPath></defs><path fill="none" stroke="#000" stroke-miterlimit="10" stroke-width=".39632670000000003" d="M60.258 76.656c0-1.398-2.27-2.535-5.07-2.535-2.801 0-5.07 1.137-5.07 2.535 0 1.403 2.269 2.535 5.07 2.535 2.8 0 5.07-1.132 5.07-2.535M60.258 76.656v50.711M50.117 76.656v50.711"/><g clip-path="url(#a)"><path fill="none" stroke="#000" stroke-miterlimit="10" stroke-width=".39632670000000003" d="M60.258 127.367c0 1.399-2.27 2.535-5.07 2.535-2.801 0-5.07-1.136-5.07-2.535"/></g><g clip-path="url(#b)"><path fill="none" stroke="#000" stroke-miterlimit="10" stroke-width=".39632670000000003" d="M55.188 129.902v5.07"/></g><path fill="none" stroke="#000" stroke-dasharray="2.968804839 2.968804839" stroke-miterlimit="10" stroke-width=".39632670000000003" d="M55.188 129.902v-50.71"/><g clip-path="url(#c)"><path fill="none" stroke="#000" stroke-linecap="round" stroke-miterlimit="10" stroke-width="1.1879868" d="m59.215 74.645 50.265-25.137"/></g><path stroke="#000" stroke-linecap="round" stroke-miterlimit="10" stroke-width=".98924712" d="M58.328 75.086a.5.5 0 0 0 .664.223.494.494 0 1 0-.664-.223Zm0 0"/><g clip-path="url(#d)"><path fill="none" stroke="#000" stroke-linecap="round" stroke-miterlimit="10" stroke-width="1.1879868" d="M51.16 74.645.89 49.508"/></g><path stroke="#000" stroke-linecap="round" stroke-miterlimit="10" stroke-width=".98924712" d="M52.043 75.086a.494.494 0 1 0-.883-.441.495.495 0 0 0 .219.664c.246.12.543.02.664-.223Zm0 0"/><g clip-path="url(#e)"><path fill="none" stroke="#000" stroke-linecap="round" stroke-miterlimit="10" stroke-width="1.1879868" d="m59.215 78.672 50.265 25.133"/></g><path stroke="#000" stroke-linecap="round" stroke-miterlimit="10" stroke-width=".98924712" d="M58.328 78.227a.498.498 0 0 0 .223.664.493.493 0 1 0 .441-.883.498.498 0 0 0-.664.219Zm0 0"/><g clip-path="url(#f)"><path fill="none" stroke="#000" stroke-linecap="round" stroke-miterlimit="10" stroke-width="1.1879868" d="M51.16 78.672.89 103.805"/></g><path stroke="#000" stroke-linecap="round" stroke-miterlimit="10" stroke-width=".98924712" d="M52.043 78.227a.496.496 0 0 0-.664-.22.493.493 0 0 0-.219.665.493.493 0 0 0 .664.219.496.496 0 0 0 .219-.664Zm0 0"/><path fill="none" stroke="#000" stroke-miterlimit="10" stroke-width="1.1879868" d="M55.188 76.656V.594"/></svg>