<svg xmlns="http://www.w3.org/2000/svg" xmlns:xlink="http://www.w3.org/1999/xlink" width="223.535" height="36.093"><defs><clipPath id="a"><path d="M2.512 32H99v2H2.512Zm0 0"/></clipPath><clipPath id="b"><path d="M80 15h37v20.207H80Zm0 0"/></clipPath><clipPath id="c"><path d="M103 15h37v20.207h-37Zm0 0"/></clipPath><clipPath id="d"><path d="M2.512 2H13v15H2.512Zm0 0"/></clipPath><clipPath id="e"><path d="M207 2h13.57v15H207Zm0 0"/></clipPath><path id="f" d="M2.75-1.937c.328.765.719 1.75.797 1.843.125.157.25.157.36.157h.14c.125 0 .187 0 .187-.079 0-.03-.015-.046-.03-.062-.079-.078-.141-.234-.173-.297L2.375-4.281c-.047-.125-.187-.438-.906-.438-.078 0-.172 0-.172.094 0 .078.062.094.094.094.14.031.28.047.437.437l.813 1.89-2 1.813C.562-.312.5-.266.5-.156c0 .172.14.234.234.234C.86.078.938 0 .97-.032Zm0 0"/><path id="g" d="M3.438-1.234h-.235c-.015.14-.094.547-.172.609-.062.047-.578.047-.672.047H1.094c.718-.625.953-.828 1.36-1.14.515-.407.983-.829.983-1.47 0-.828-.718-1.328-1.593-1.328-.844 0-1.422.594-1.422 1.22 0 .343.297.374.36.374.171 0 .374-.11.374-.36 0-.109-.062-.359-.406-.359.203-.484.672-.625.984-.625.688 0 1.032.532 1.032 1.079 0 .593-.407 1.062-.625 1.312L.5-.265C.422-.204.422-.188.422 0h2.812Zm0 0"/></defs><g clip-path="url(#a)"><path fill="none" stroke="#000" stroke-miterlimit="10" stroke-width="1.1666860399999999" d="M3.098 33.078h47.48m0 0h47.477"/></g><path d="M99.605 33.078a1.549 1.549 0 1 0-3.098-.004 1.549 1.549 0 0 0 3.098.004m0 0"/><g clip-path="url(#b)"><path fill="none" stroke="#000" stroke-miterlimit="10" stroke-width="1.1666860399999999" d="M99.605 33.078a1.549 1.549 0 1 0-3.098-.004 1.549 1.549 0 0 0 3.098.004Zm0 0"/></g><path fill="none" stroke="#000" stroke-miterlimit="10" stroke-width="1.1666860399999999" d="M216.754 33.078h-47.48m0 0h-47.477"/><path d="M123.344 33.078a1.549 1.549 0 1 0-3.098-.004 1.549 1.549 0 0 0 3.098.004m0 0"/><g clip-path="url(#c)"><path fill="none" stroke="#000" stroke-miterlimit="10" stroke-width="1.1666860399999999" d="M123.344 33.078a1.549 1.549 0 1 0-3.098-.004 1.549 1.549 0 0 0 3.098.004Zm0 0"/></g><path fill="none" stroke="#999" stroke-miterlimit="10" stroke-width=".0097549" d="M216.754 9.336"/><path fill="none" stroke="#000" stroke-miterlimit="10" stroke-width=".38922051" d="M3.39 9.336h213.07"/><path d="m3.875 9.336 2.902 1.723V7.617Zm0 0"/><g clip-path="url(#d)"><path fill="none" stroke="#000" stroke-miterlimit="10" stroke-width=".38922051" d="m3.875 9.336 2.902 1.723V7.617Zm0 0"/></g><path fill="none" stroke="#000" stroke-miterlimit="10" stroke-width=".38922051" d="M3.293 11.574V7.102"/><path d="m215.977 9.336-2.903-1.719v3.442Zm0 0"/><g clip-path="url(#e)"><path fill="none" stroke="#000" stroke-miterlimit="10" stroke-width=".38922051" d="m215.977 9.336-2.903-1.719v3.442Zm0 0"/></g><path fill="none" stroke="#000" stroke-miterlimit="10" stroke-width=".38922051" d="M216.559 7.102v4.472"/><path fill="#FFF" d="M103.215 18.676h13.422V0h-13.422Zm0 0"/><use xlink:href="#f" x="107.618" y="7.963"/><path fill="none" stroke="#000" stroke-miterlimit="10" stroke-width=".43701952" d="M107.617 9.434h4.61"/><use xlink:href="#g" x="107.986" y="15.436"/></svg>