<svg xmlns="http://www.w3.org/2000/svg" xmlns:xlink="http://www.w3.org/1999/xlink" width="220.184" height="104.625"><defs><path id="b" d="M4.516 0v-.219H4.39c-.313 0-.391-.031-.453-.156L2.609-3.422c-.046-.094-.062-.14-.171-.14-.094 0-.126.03-.172.124L.984-.515c-.109.25-.39.297-.625.297V0C.531-.016.75-.016.922-.016c.078 0 .422 0 .656.016v-.219c-.281 0-.375-.125-.375-.218 0-.032 0-.047.016-.079l.265-.593h1.594l.297.703c.031.047.031.062.031.062 0 .125-.281.125-.422.125V0l.797-.016ZM2.984-1.328H1.578l.703-1.594Zm0 0"/><path id="c" d="M3.39 0v-.219h-.093c-.313 0-.313-.047-.313-.203V-1.5c0-.547-.375-.703-.843-.703-.532 0-.797.297-.922.5v-.5l-.813.062v.22c.375 0 .407.03.407.28v1.22c0 .155 0 .202-.313.202H.406V0c.219-.016.422-.016.64-.016.204 0 .423 0 .626.016v-.219h-.094c-.312 0-.312-.047-.312-.203v-.86c0-.562.515-.75.828-.75.36 0 .437.204.437.532v1.078c0 .156 0 .203-.312.203h-.094V0c.219-.016.422-.016.64-.016.204 0 .422 0 .626.016m0 0"/><path id="d" d="M3.36-1.078c0-.594-.547-1.125-1.282-1.125-.39 0-.703.14-.86.297v-.297l-.843.062v.22c.36 0 .422 0 .422.218v2.25c0 .156 0 .203-.328.203H.375v.219c.219-.016.422-.031.64-.031.204 0 .423.015.626.03V.75h-.079c-.328 0-.328-.047-.328-.203v-.781c.22.187.485.28.766.28.75 0 1.36-.5 1.36-1.124m-.5 0c0 .547-.407.969-.891.969a.856.856 0 0 1-.672-.313c-.063-.094-.063-.094-.063-.187v-1.047c.22-.297.594-.36.782-.36.5 0 .843.438.843.938m0 0"/><path id="e" d="M3.156-.453V-.72h-.203v.266c0 .047 0 .266-.203.266s-.203-.22-.203-.266V-1.47c0-.484-.5-.75-1.11-.75-.312 0-.89 0-.89.438 0 .172.14.265.265.265.141 0 .266-.093.266-.265 0-.125-.062-.203-.11-.219.157-.062.391-.062.454-.062.422 0 .687.234.687.593v.125c-.484.032-.75.047-1.14.172-.328.125-.61.328-.61.656 0 .47.579.563.97.563.39 0 .687-.14.843-.406.015.187.125.39.375.39.047 0 .61 0 .61-.484M2.11-.703c0 .547-.593.594-.718.594-.297 0-.578-.157-.578-.407 0-.171.109-.625 1.296-.671Zm0 0"/><path id="f" d="M2.375-.625c0-.219-.125-.39-.312-.516-.204-.109-.344-.14-.766-.203-.313-.047-.703-.11-.703-.375 0-.172.203-.36.734-.36.422 0 .656.173.688.517 0 .062 0 .093.093.093.11 0 .11-.031.11-.14v-.485c0-.078 0-.125-.078-.125-.032 0-.047 0-.079.031-.03.016-.109.094-.14.094 0 0-.016 0-.031-.015a1.249 1.249 0 0 0-.547-.11c-.828 0-1 .375-1 .594 0 .469.578.563 1.031.625.297.047.75.125.75.453 0 .172-.14.438-.75.438-.328 0-.656-.125-.812-.657C.547-.844.53-.859.453-.859c-.11 0-.11.03-.11.14v.64c0 .079 0 .126.079.126.047 0 .047 0 .14-.094l.141-.125c.235.219.547.219.672.219.844 0 1-.422 1-.672m0 0"/><path id="g" d="M1.86-.875v-.39H.202v.39Zm0 0"/><path id="h" d="M3.156-1.969c0-.125-.11-.281-.344-.281-.124 0-.39.031-.64.234a1.214 1.214 0 0 0-.656-.187c-.578 0-.985.36-.985.734 0 .25.172.438.25.5a.67.67 0 0 0-.14.407c0 .265.172.421.203.453-.25.062-.531.234-.531.484 0 .406.656.656 1.375.656.671 0 1.375-.218 1.375-.656a.637.637 0 0 0-.376-.578c-.328-.172-.64-.172-1.171-.172H1.14a.335.335 0 0 1-.297-.328c0-.094.062-.172.078-.172h.031c.188.11.39.14.563.14.593 0 1-.343 1-.734 0-.234-.172-.406-.235-.468.25-.141.469-.141.547-.157-.015.031-.047.063-.047.125a.19.19 0 0 0 .188.188c.125 0 .187-.094.187-.188m-1.078.5c0 .282-.125.563-.562.563-.438 0-.547-.281-.547-.563 0-.265.11-.562.547-.562.437 0 .562.281.562.562m.64 1.844c0 .25-.437.484-1.03.484C1.125.86.656.641.656.375c0-.156.172-.36.547-.36h.328c.485 0 1.188 0 1.188.36m0 0"/><path id="i" d="M1.656 0v-.219h-.093c-.313 0-.313-.047-.313-.203v-3.031l-.844.062v.22c.375 0 .422.03.422.28v2.47c0 .155 0 .202-.328.202H.406V0c.219-.016.422-.016.625-.016s.422 0 .625.016m0 0"/><path id="j" d="M1.625 0v-.219c-.344 0-.375 0-.375-.203v-1.781l-.812.062v.22c.343 0 .39.03.39.28v1.22c0 .155 0 .202-.328.202H.406V0c.203-.016.422-.016.625-.016.188 0 .407 0 .594.016m-.328-2.984A.287.287 0 0 0 1-3.281a.287.287 0 0 0-.297.297c0 .172.125.312.297.312.156 0 .297-.14.297-.312m0 0"/><path id="k" d="M2.719-.594c0-.078-.078-.078-.11-.078-.078 0-.078.016-.109.078-.14.344-.5.469-.781.469a.89.89 0 0 1-.703-.312C.813-.672.813-.984.813-1.125h1.75c.109 0 .156 0 .156-.11 0-.327-.188-.984-1.11-.984-.75 0-1.28.531-1.28 1.125 0 .625.593 1.14 1.359 1.14.78 0 1.03-.546 1.03-.64m-.39-.672h-1.5c.062-.656.546-.796.78-.796.688 0 .72.64.72.796m0 0"/><path id="l" d="M3.344 0v-.219c-.375 0-.406-.031-.406-.281v-2.953l-.844.062v.22c.375 0 .422.03.422.28v.97a1.248 1.248 0 0 0-.797-.282c-.75 0-1.36.515-1.36 1.14 0 .594.563 1.11 1.297 1.11.407 0 .688-.172.828-.297v.297Zm-.86-.547a.915.915 0 0 1-.796.438c-.25 0-.5-.094-.657-.313-.156-.203-.172-.5-.172-.64 0-.141 0-.47.22-.704a.986.986 0 0 1 .671-.265c.14 0 .5.031.734.36Zm0 0"/><path id="p" d="M3.547-2.89c.406 1.03.875 2.546 1.031 2.78.172.22.266.22.531.22h.22c.093-.016.109-.063.109-.094 0-.032-.016-.063-.047-.094-.11-.11-.157-.266-.235-.453L3.141-6.187c-.22-.563-.75-.704-1.22-.704-.046 0-.171 0-.171.11 0 .078.078.11.078.11.328.046.406.109.656.78l.954 2.704L.703-.47C.578-.344.531-.28.531-.156c0 .172.14.281.297.281.156 0 .25-.11.328-.203Zm0 0"/><path id="q" d="M1.266-.766 2.313-1.78c1.546-1.375 2.14-1.906 2.14-2.907 0-1.125-.89-1.921-2.11-1.921C1.235-6.61.5-5.687.5-4.812c0 .562.484.562.516.562a.516.516 0 0 0 .515-.531c0-.266-.172-.516-.515-.516-.079 0-.11 0-.125.016.218-.657.75-1.016 1.328-1.016.906 0 1.328.797 1.328 1.61 0 .796-.485 1.578-1.031 2.203L.609-.36C.5-.266.5-.234.5 0h3.672l.281-1.719h-.25c-.047.297-.11.735-.219.875-.062.078-.718.078-.937.078Zm0 0"/><clipPath id="a"><path d="M36 99h14v5.246H36Zm0 0"/></clipPath><clipPath id="m"><path d="M0 57.484h15.813v6.325H0Zm0 6.325h6.324v3.164H0Zm0 3.164h15.813v6.324H0Zm0 0"/></clipPath><clipPath id="n"><path d="M206 6h13.371v16H206Zm0 0"/></clipPath><clipPath id="o"><path d="M121 .008h16V28h-16Zm0 0"/></clipPath></defs><path fill="none" stroke="#000" stroke-miterlimit="10" stroke-width=".39752769000000004" d="M42.95 99.895V79.227m0-27.676V30.887"/><g clip-path="url(#a)"><path fill="none" stroke="#000" stroke-miterlimit="10" stroke-width=".7940590700000001" d="M37.02 99.895h11.859m-9.883 1.976h7.906m-6.422 1.977h4.942"/></g><path fill="none" stroke="#000" stroke-miterlimit="10" stroke-width=".7940590700000001" d="M56.79 51.55v27.677H29.11V51.55Zm0 0"/><path stroke="#000" stroke-miterlimit="10" stroke-width=".39752769000000004" d="M44.531 30.887a1.583 1.583 0 0 0-3.164 0 1.582 1.582 0 0 0 3.164 0Zm0 0"/><path fill="none" stroke="#000" stroke-miterlimit="10" stroke-width="1.19158676" d="M42.95 30.887h86.261m0 0h86.262"/><use xlink:href="#b" x="31.207" y="60.921"/><use xlink:href="#c" x="36.076" y="60.921"/><use xlink:href="#d" x="39.798" y="60.921"/><use xlink:href="#e" x="43.52" y="60.921"/><use xlink:href="#f" x="46.9" y="60.921"/><use xlink:href="#f" x="49.625" y="60.921"/><use xlink:href="#g" x="52.349" y="60.921"/><use xlink:href="#h" x="35.883" y="72.341"/><use xlink:href="#i" x="39.263" y="72.341"/><use xlink:href="#j" x="41.263" y="72.341"/><use xlink:href="#k" x="43.263" y="72.341"/><use xlink:href="#l" x="46.295" y="72.341"/><path fill="none" stroke="#000" stroke-miterlimit="10" stroke-width=".39752769000000004" d="M29.11 65.39H11.86"/><g clip-path="url(#m)"><path fill="none" stroke="#000" stroke-miterlimit="10" stroke-width=".7940590700000001" d="M11.86 65.39a3.953 3.953 0 1 0-7.906 0 3.953 3.953 0 0 0 7.905 0Zm0 0"/></g><path fill="none" stroke="#000" stroke-miterlimit="10" stroke-width=".7940590700000001" d="M9.488 65.39a1.583 1.583 0 1 0-3.166.002 1.583 1.583 0 0 0 3.166-.001Zm0 0"/><path fill="none" stroke="#000" stroke-miterlimit="10" stroke-width=".39752769000000004" d="M9.488 65.39h2.371"/><path fill="none" stroke="#999" stroke-miterlimit="10" stroke-width=".0099631" d="M215.473 13.633"/><path fill="none" stroke="#000" stroke-miterlimit="10" stroke-width=".39752769000000004" d="M43.246 13.633h171.93"/><path stroke="#000" stroke-miterlimit="10" stroke-width=".39752769000000004" d="m43.742 13.633 2.965 1.758v-3.516Zm0 0"/><path fill="none" stroke="#000" stroke-miterlimit="10" stroke-width=".39752769000000004" d="M43.148 15.914v-4.562"/><path d="m214.68 13.633-2.965-1.758v3.516Zm0 0"/><g clip-path="url(#n)"><path fill="none" stroke="#000" stroke-miterlimit="10" stroke-width=".39752769000000004" d="m214.68 13.633-2.965-1.758v3.516Zm0 0"/></g><path fill="none" stroke="#000" stroke-miterlimit="10" stroke-width=".39752769000000004" d="M215.273 11.352v4.562"/><g clip-path="url(#o)"><path fill="#FFF" d="M121.816 27.262h14.79V.004h-14.79Zm0 0"/></g><use xlink:href="#p" x="126.315" y="10.208"/><path fill="none" stroke="#000" stroke-miterlimit="10" stroke-width=".44634688" d="M126.316 14.336h5.79"/><use xlink:href="#q" x="126.728" y="23.954"/></svg>