<svg xmlns="http://www.w3.org/2000/svg" width="118.634" height="131.191"><defs><clipPath id="a"><path d="M24 62h61v68.387H24Zm0 0"/></clipPath><clipPath id="b"><path d="M50 34h26v96.387H50Zm0 0"/></clipPath><clipPath id="c"><path d="M.184 101H69v2H.184Zm0 0"/></clipPath></defs><g clip-path="url(#a)"><path fill="none" stroke="#7F7F7F" stroke-miterlimit="10" stroke-width="1.5842287800000001" d="M62.418 110.27c0-11.657-15.637-13.7-15.637-25.356"/></g><path fill="none" stroke="#000" stroke-linecap="round" stroke-miterlimit="10" stroke-width=".7921143900000001" d="M33.492 101.816 99.418.395M35.277 101.816 101.2.395M44.809 51.105h45.078M58.613 34.203h39.442M72.418 17.3h33.809M86.223.395h28.172"/><path fill="#FFF" d="M61.852 129.992V46.88c0-.777.632-1.406 1.41-1.406.777 0 1.41.629 1.41 1.406v83.113"/><g clip-path="url(#b)"><path fill="none" stroke="#000" stroke-linecap="round" stroke-miterlimit="10" stroke-width=".7921143900000001" d="M61.852 129.992V46.88c0-.777.632-1.406 1.41-1.406.777 0 1.41.629 1.41 1.406v83.113"/></g><g clip-path="url(#c)"><path fill="none" stroke="#000" stroke-linecap="round" stroke-miterlimit="10" stroke-width=".7921143900000001" d="M.578 101.816h67.613"/></g><path fill="none" stroke="#000" stroke-linecap="round" stroke-miterlimit="10" stroke-width=".7921143900000001" d="M46.262 84.914h28.175M44.48 84.914H16.31M31.004 68.012h50.71"/></svg>