<svg xmlns="http://www.w3.org/2000/svg" width="637.43" height="465.433"><path fill="none" stroke="#000" stroke-linecap="round" stroke-linejoin="round" stroke-miterlimit="10" stroke-width=".39851322" d="M261.469 412.906c11.082-.367 23.558-5.797 35.574-15.488M342.105 319.371c2.387-15.254.852-28.773-4.37-38.555M335.203 281.828l2.172 7.191 1.086 8.118.004 8.859-1.059 9.422M289.707 394.484l-7.254 4.946-7.3 3.921-7.239 2.872-7.066 1.793M329.215 284.656l1.238 12.285-1.152 13.735M281.527 389.707l-10.539 6.906-10.535 4.742M322.16 288.89l-.078 8.313-.988 8.785M273.379 385.035l-12.492 7.856M272.21 384.387c-3.698 2.906-7.468 5.437-11.226 7.527M319.309 290.89c.066 4.305-.239 8.833-.907 13.493M260.684 395.41l7.476-4 7.43-5.09M323.309 307.258l1.117-10.215-.168-9.524M260.508 403.281l11.605-4.84 11.649-7.43M331.496 311.98l1.113-14.984-.476-6.883-1.168-6.363"/><path fill="none" stroke="#000" stroke-linecap="round" stroke-linejoin="round" stroke-miterlimit="10" stroke-width=".39851322" d="m261.023 409.637 7.52-1.57 7.75-2.884 7.848-4.16 7.796-5.324M339.629 316.926l1.133-10.137-.16-9.445-1.415-8.547-2.601-7.504"/><path fill="none" stroke="#000" stroke-linecap="round" stroke-linejoin="round" stroke-miterlimit="10" stroke-width=".39851322" d="M246.082 440.637c-29.816-17.215-29.816-73.032 0-124.676 29.816-51.64 78.156-79.55 107.973-62.336M370.941 260.566c.465 1.16.907 2.348 1.313 3.563M370.375 262.008l.566-1.442M370.328 259.094l.047 2.914M369.433 257.105c.31.653.606 1.317.895 1.989M369.703 260.523l-.27-3.418M368.746 255.71l.957 4.813M365.238 249.789a51.84 51.84 0 0 1 3.508 5.922M364.535 251.797l.703-2.008M364.387 248.586l.148 3.21M363.16 246.984c.418.52.828 1.055 1.227 1.602M363.617 250.598l-.457-3.614M362.238 245.867l1.38 4.73M357.7 241.273a43.159 43.159 0 0 1 4.538 4.598M356.93 243.828l.77-2.555M356.629 240.375l.3 3.453M355.105 239.191c.516.38 1.024.778 1.52 1.18M355.789 242.941l-.684-3.75M353.973 238.387l1.816 4.554M348.512 235.234a40.543 40.543 0 0 1 5.457 3.153M347.738 238.297l.774-3.063M347.246 234.656l.492 3.64M345.46 233.926c.602.23 1.2.472 1.786.73M346.402 237.75l-.941-3.824M344.144 233.45l2.258 4.3M337.898 231.812c2.145.399 4.239.946 6.246 1.637M337.195 235.34l.703-3.528M336.473 231.574l.722 3.766M334.473 231.312c.668.075 1.34.16 1.996.262M335.7 235.148l-1.227-3.836M333.004 231.176l2.695 3.972M326.121 231.101a52.36 52.36 0 0 1 6.883.079M325.559 235.035l.562-3.934M324.57 231.207l.989 3.828M322.402 231.422c.723-.086 1.45-.16 2.164-.219M323.934 235.195l-1.532-3.773M320.816 231.625l3.118 3.57M313.473 233.113a67.672 67.672 0 0 1 7.347-1.488M313.11 237.383l.363-4.27M311.832 233.559l1.277 3.824M309.55 234.242a63.158 63.158 0 0 1 2.282-.683M311.402 237.898l-1.851-3.656M307.89 234.785l3.512 3.113M300.262 237.797a88.9 88.9 0 0 1 7.629-3.012M300.16 242.332l.102-4.535M298.574 238.57l1.586 3.762M296.234 239.707c.778-.39 1.563-.77 2.34-1.133M298.41 243.184l-2.176-3.477M294.539 240.578l3.871 2.606M286.816 245.039c2.57-1.617 5.153-3.11 7.723-4.46M287.027 249.754l-.21-4.715M285.121 246.125l1.906 3.629M282.781 247.687a135.38 135.38 0 0 1 2.34-1.562M285.277 250.926l-2.496-3.239M281.094 248.863l4.183 2.063M273.465 254.664c2.52-2.05 5.074-3.996 7.629-5.8M274.035 259.473l-.57-4.809M271.805 256.035l2.23 3.438M269.523 257.984c.758-.66 1.524-1.316 2.282-1.953M272.328 260.93l-2.805-2.946M267.883 259.434l4.445 1.496M260.539 266.43a168.083 168.083 0 0 1 7.344-6.996M261.504 271.242l-.965-4.812M258.953 268.05l2.55 3.192M256.785 270.34c.719-.77 1.445-1.535 2.168-2.29M259.883 272.953l-3.098-2.613M255.234 272.027l4.649.926M248.351 280.05a191.96 191.96 0 0 1 6.883-8.023M249.738 284.777l-1.387-4.726M246.883 281.883l2.855 2.894M244.883 284.453a224.32 224.32 0 0 1 2-2.57M248.242 286.7l-3.36-2.247M243.457 286.34l4.785.36M237.21 295.187a205.232 205.232 0 0 1 6.247-8.847M239.035 299.742l-1.824-4.555M235.894 297.187l3.141 2.555M234.11 299.976c.585-.933 1.183-1.867 1.78-2.789M237.7 301.828l-3.59-1.852M232.844 302.012l4.855-.184M227.383 311.473a214.038 214.038 0 0 1 5.457-9.454M229.648 315.77l-2.265-4.297M226.25 313.586l3.398 2.183M224.727 316.527c.5-.98 1.011-1.968 1.523-2.941M228.508 317.969l-3.781-1.442M223.656 318.664l4.852-.695M219.113 328.504a208.126 208.126 0 0 1 4.54-9.836M221.82 332.465l-2.707-3.961M218.195 330.68l3.625 1.785M216.969 333.7a222.04 222.04 0 0 1 1.226-3.02M220.902 334.723l-3.933-1.024M216.117 335.887l4.785-1.164M212.61 345.855a190.777 190.777 0 0 1 3.507-9.972M215.734 349.418l-3.125-3.563M211.922 348.047l3.812 1.37M211.027 351.066c.29-1.004.586-2.015.895-3.02M215.062 351.68l-4.035-.614M210.414 353.246l4.648-1.566M208.027 363.11c.684-3.259 1.48-6.56 2.387-9.86M211.547 366.207l-3.52-3.098M207.59 365.254l3.957.953M207.043 368.203c.172-.977.355-1.965.55-2.95M211.137 368.418l-4.094-.215M206.687 370.328l4.45-1.91M205.477 379.832c.289-3.117.69-6.297 1.207-9.504M209.355 382.426l-3.878-2.594M205.305 381.883l4.05.543M205.121 384.691c.05-.93.113-1.87.184-2.808M209.219 384.527l-4.098.164M205.027 386.7l4.192-2.173M205.027 395.621a113.239 113.239 0 0 1 0-8.922M209.219 397.668l-4.192-2.047M205.121 397.523l4.098.145M205.305 400.117a109.82 109.82 0 0 1-.184-2.598M209.355 399.613l-4.05.504M205.477 401.969l3.878-2.356M206.687 410.078a89.864 89.864 0 0 1-1.21-8.11M211.137 411.566l-4.45-1.488M207.043 411.789l4.094-.223M207.59 414.105a83.556 83.556 0 0 1-.547-2.316M211.547 413.3l-3.957.805M208.027 415.75l3.52-2.45M210.414 422.855a67.96 67.96 0 0 1-2.387-7.105M215.062 423.77l-4.648-.915M211.027 424.328l4.035-.559M211.922 426.312a70.965 70.965 0 0 1-.899-1.984M215.734 425.254l-3.812 1.058M212.61 427.71l3.124-2.456M216.117 433.633a52.235 52.235 0 0 1-3.508-5.926M220.902 433.98l-4.785-.347M216.969 434.832l3.933-.852M218.195 436.433a45.439 45.439 0 0 1-1.226-1.597M221.82 435.18l-3.625 1.253M219.113 437.55l2.707-2.37M223.656 442.144a43.119 43.119 0 0 1-4.539-4.593M228.508 441.95l-4.852.194M224.727 443.047l3.78-1.098M226.25 444.226a39.686 39.686 0 0 1-1.523-1.18M229.648 442.836l-3.398 1.39M227.383 445.031l2.265-2.195M232.844 448.187a41.397 41.397 0 0 1-5.457-3.152M237.7 447.48l-4.856.707M234.11 448.766l3.59-1.286M235.894 449.492c-.601-.23-1.199-.473-1.785-.726M239.035 448.027l-3.14 1.465M237.21 449.969l1.825-1.942M243.457 451.605a43.426 43.426 0 0 1-6.25-1.636M248.242 450.437l-4.785 1.168M244.883 451.844l3.36-1.407M246.883 452.105a48.22 48.22 0 0 1-2-.261M249.738 450.629l-2.855 1.476M248.351 452.242l1.387-1.613M255.234 452.316a52.37 52.37 0 0 1-6.883-.074M259.883 450.742l-4.649 1.574M256.785 452.215l3.098-1.473M258.953 452c-.723.086-1.45.16-2.168.215M261.504 450.582l-2.55 1.418M260.539 451.793l.965-1.211M264.277 451.14a65.174 65.174 0 0 1-3.738.649M168.957 411.441c-.254-.144-.508-.3-.762-.453M168.168 410.933l.023.055M167.02 410.25a41.445 41.445 0 0 1-5.122-3.965M161.852 405.691l.046.59M160.867 405.316a40.162 40.162 0 0 1-1.281-1.297M159.434 403.539l.152.48M158.617 402.965a47.568 47.568 0 0 1-4.12-5.387M154.457 396.484l.043 1.094M153.695 396.316a49.668 49.668 0 0 1-.996-1.672M152.504 393.742l.2.902M151.965 393.3a59.343 59.343 0 0 1-3.016-6.667M148.934 385.156l.015 1.477M148.387 385.105a60.47 60.47 0 0 1-.676-2.007M147.531 381.797l.18 1.3M147.223 381.5a78.747 78.747 0 0 1-1.84-7.785M145.394 371.957l-.011 1.754M145.082 371.957a85.12 85.12 0 0 1-.344-2.293M144.637 367.988l.101 1.676M144.512 367.851a100.601 100.601 0 0 1-.621-8.718M143.898 357.191l-.007 1.942M143.855 357.195a90.567 90.567 0 0 1 0-2.523M143.902 350.098l-.047 4.574M143.89 352.691l.012-2.593M143.89 352.691c.087-3.078.294-6.242.622-9.437M144.46 341.527l.052 1.73M144.738 341.184l-.277.343M144.738 341.184c.106-.891.219-1.79.344-2.688M145.398 334.168l-.316 4.328M145.383 336.39l.015-2.222M145.383 336.39a158.57 158.57 0 0 1 1.84-9.914M147.07 325.156l.153 1.317M147.71 324.316l-.64.84M147.71 324.316c.216-.925.446-1.863.677-2.789M148.918 317.523l-.531 4.004M148.95 319.351l-.032-1.828M148.95 319.351c.89-3.363 1.902-6.765 3.015-10.152M151.66 308.297l.305.902M152.703 307.008l-1.043 1.289M152.703 307.008c.32-.938.656-1.887.992-2.82M154.375 300.578l-.68 3.61M154.5 301.996l-.125-1.418M154.5 301.996a197.59 197.59 0 0 1 4.117-10.14M158.117 291.363l.5.492M159.586 289.684l-1.469 1.68M159.586 289.684c.418-.922.848-1.856 1.281-2.778M161.633 283.75l-.766 3.152M161.898 284.75l-.265-1M161.898 284.75a209.51 209.51 0 0 1 5.121-9.883M166.285 274.773l.734.098M168.191 272.777l-1.906 1.996M168.191 272.777c.508-.894 1.024-1.789 1.543-2.676M170.512 267.45l-.778 2.651M170.965 268.039l-.453-.59M170.965 268.039a206.397 206.397 0 0 1 5.996-9.379M175.96 258.934l1-.27M178.309 256.695l-2.348 2.239M178.309 256.695c.582-.836 1.175-1.676 1.77-2.5M180.797 252.082l-.719 2.11M181.473 252.27l-.676-.188M181.473 252.27a197.293 197.293 0 0 1 6.726-8.637M186.906 244.234l1.29-.601M189.691 241.84l-2.785 2.394M189.691 241.84c.641-.762 1.293-1.524 1.946-2.27M192.234 238.023l-.597 1.547M193.168 237.836l-.934.187M193.168 237.836a180.05 180.05 0 0 1 7.281-7.688M198.852 231.035l1.597-.887M202.055 228.574l-3.203 2.461M202.055 228.574c.683-.664 1.382-1.328 2.074-1.976M204.539 225.617l-.41.977M205.758 225.094l-1.219.523M205.758 225.094c2.523-2.301 5.086-4.492 7.668-6.551M211.504 219.664l1.922-1.125M215.094 217.227l-3.59 2.437M215.094 217.227c.715-.555 1.441-1.106 2.156-1.641M217.41 215.176l-.16.41M218.934 214.352l-1.524.824M218.934 214.352a129.746 129.746 0 0 1 7.859-5.25M224.555 210.402l2.238-1.3M228.492 208.074l-3.937 2.328M228.492 208.074c.727-.43 1.457-.855 2.184-1.262M232.375 205.879l-1.68.976M232.375 205.879a100.649 100.649 0 0 1 7.86-3.824M241.918 201.348l-1.504.746M241.918 201.348a82.187 82.187 0 0 1 2.156-.852M245.742 199.883l-1.512.883M245.742 199.883a77.766 77.766 0 0 1 7.668-2.305M255.039 197.203l-1.219.496M255.039 197.203a67.215 67.215 0 0 1 2.074-.418M258.719 196.508l-1.285.726M258.719 196.508a59.877 59.877 0 0 1 7.285-.723M267.531 195.754l-.879.273M267.531 195.754c.653-.004 1.305.004 1.945.023M270.973 195.84l-.97.512M270.973 195.84c2.296.137 4.55.43 6.722.875M279.09 197.027l-.492.106M279.09 197.027c.594.14 1.187.297 1.77.461M282.207 197.898l-.531.258M282.207 197.898a41.1 41.1 0 0 1 6 2.45M289.434 200.996l-.06.004M289.434 200.996c.257.14.523.285.777.434"/><path fill="none" stroke="#000" stroke-linecap="round" stroke-linejoin="round" stroke-miterlimit="10" stroke-width=".19875722" d="M143.848 346.258c0-49.324 34.636-109.317 77.351-133.98"/><path fill="none" stroke="#000" stroke-linecap="round" stroke-linejoin="round" stroke-miterlimit="10" stroke-width=".39851322" d="m370.348 260.496.593.07M369.433 257.105l-.488-.41M293.73 203.484l.606.336M295.27 204.367l-.934-.547M292.195 202.594v-.016M292.195 202.578l-2.761-1.582M294.336 203.82l-.016.02M295.219 204.394l.066-.035M288.203 200.348l4.934 2.78M364.43 249.59l.808.199M363.16 246.984l-.75-.547M318.226 217.625l.606.34M319.766 218.512l-.934-.547M318.832 217.965l-.016.02M316.691 216.734v-.011M301.687 208.387l-.214.254M295.285 204.36l6.402 4.027M316.691 216.723l-15.004-8.336M284.191 199.473l-.382.488M299.508 207.398l-.008-.171M299.5 207.227l-15.309-7.754M281.996 198.723l-.031-.329M281.965 198.394l-2.875-1.367M302.246 209.215l.344-.207M302.59 209.008l15.043 8.261M319.715 218.539l.066-.035M284.476 200.547l.579-.367M285.055 200.18l15.34 7.68M277.695 196.715l5.125 2.398M356.668 240.844l1.031.43M342.723 231.77l.605.335M355.105 239.191l-1.074-.664M344.262 232.652l-.934-.547M270.973 195.84l1.82 1.969M288.617 204.379l-15.824-6.57M288.617 204.379l-5.797-5.266M281.965 198.394l-1.106-.906M343.328 232.105l-.016.02M288.676 204.86l-.059-.481M341.187 230.879v-.016M319.781 218.504l6.403 4.027M341.187 230.863l-15.003-8.332M282.207 197.898l1.984 1.575M285.055 200.18l5.828 5.191M306.46 212.539l-15.577-7.168M306.46 212.539l-6.066-4.68M299.5 207.227l-6.363-4.098M326.184 222.531l-.215.25M306.492 212.863l-.031-.324M323.996 221.371l-6.363-4.102M324.004 221.543l-.008-.172M308.691 213.613l-.382.492M302.59 209.008l6.101 4.605M323.996 221.371l-15.305-7.758M270.598 197.527l-.106-.625M270.492 196.902l-2.96-1.148M272.793 197.809l-.637.988M290.883 205.371l-.524.738M272.637 199.363l.945-.68M273.582 198.684l15.852 6.5M266 195.785l5.281 2.004M290.93 206.687l.773-.523M291.703 206.164l15.613 7.09M308.973 214.687l.578-.367M309.55 214.32l15.34 7.684M326.742 223.355l.344-.203M327.086 223.152l15.043 8.262M344.21 232.684l.067-.036M344.277 232.648l4.235 2.586M347.246 234.656l-5.117-3.242M327.086 223.152l6.101 4.606M345.46 233.926l-12.273-6.168M333.187 227.758l-.382.488M330.957 226.68l-6.066-4.676M330.988 227.008l-.031-.328M309.55 214.32l5.829 5.192M330.957 226.68l-15.578-7.168M315.379 219.512l-.524.738M313.113 218.523l-5.797-5.27M313.172 219l-.059-.477M291.703 206.164l5.586 5.785M313.113 218.523l-15.824-6.574M270.492 196.902l-1.016-1.129M297.289 211.95l-.637.991M294.992 211.043l-5.558-5.86M295.094 211.672l-.102-.63M278.957 205.066l-.727 1.254M273.582 198.684l5.375 6.382M294.992 211.043l-16.035-5.977M260.414 198.867l-.793 1.524M276.789 205.016l-.16-.77M276.629 204.246l-16.215-5.379M258.293 199.039l-.227-.906M258.066 198.133l-3.027-.93M278.633 206.855l1.082-.824M279.715 206.031l16.062 5.903M297.137 213.504l.941-.676M298.078 212.828l15.852 6.496M259.95 200.879l1.202-.965M261.152 199.914l16.235 5.309M253.41 197.578l5.39 1.613M315.426 220.832l.773-.527M316.2 220.305l15.612 7.093M333.469 228.832l.578-.367M334.047 228.465l10.097 4.984M334.047 228.465l3.851 3.347M336.473 231.574l-4.66-4.176M316.2 220.305l5.585 5.789M334.473 231.312l-12.688-5.218M245.742 199.883l1.621 2.742M263.832 206.836l-16.469-4.211M263.832 206.836l-5.031-7.645M258.066 198.133l-.953-1.348M321.785 226.094l-.637.992M264.144 207.871l-.312-1.035M319.488 225.187l-5.558-5.863M319.59 225.812l-.102-.625M298.078 212.828l5.375 6.383M319.488 225.187l-16.035-5.976M258.719 196.508l1.695 2.36M261.152 199.914l5.051 7.57M282.562 212.273l-16.359-4.789M282.562 212.273l-5.175-7.05M276.629 204.246l-5.348-6.457M303.453 219.21l-.727 1.255M282.789 213.184l-.227-.91M301.125 218.39l-5.348-6.456M301.285 219.16l-.16-.77M284.91 213.008l-.793 1.527M279.715 206.031l5.195 6.977M301.125 218.39l-16.215-5.382M245.394 203.219l-.41-1.16M244.984 202.059l-3.066-.711M247.363 202.625l-.855 2.102M266.203 207.484l-.84 1.809M246.691 205.055l1.38-1.215M248.07 203.84l16.48 4.14M240.234 202.055l5.453 1.23M265.621 209.71l1.3-1.093M266.922 208.617l16.375 4.719M284.445 215.02l1.203-.961M285.648 214.059l16.235 5.308M303.129 220.996l1.082-.824M304.21 220.172l16.063 5.902M321.633 227.648l.941-.68M322.574 226.969l10.43 4.207M322.574 226.969l3.547 4.132M324.57 231.207l-4.297-5.133M304.21 220.172l5.196 6.98M322.402 231.422l-12.996-4.27M309.406 227.152l-.793 1.528M307.059 226.418l-5.176-7.05M307.285 227.324l-.226-.906M285.648 214.059l5.051 7.566M307.059 226.418l-16.36-4.793M290.7 221.625l-.84 1.812M288.328 220.977l-5.031-7.641M288.64 222.016l-.312-1.04M266.922 208.617l4.937 8.152M288.328 220.977l-16.469-4.208M244.984 202.059l-.91-1.563M271.86 216.77l-.856 2.101M269.48 216.203l-4.93-8.223M269.89 217.36l-.41-1.157M252.934 212.562l-.852 2.41M248.07 203.84l4.864 8.722M269.48 216.203l-16.546-3.64M233.965 208.988l-.82 2.746M251.066 213.352l-.52-1.278M250.547 212.074l-16.582-3.086M232.219 209.96l-.649-1.378M231.57 208.582l-3.078-.508M252.191 215.18l1.442-1.32M253.633 213.86l16.55 3.57M271.187 219.195l1.38-1.21M272.566 217.984l16.48 4.137M233.168 211.781l1.488-1.414M234.656 210.367l16.586 3.02M226.793 209.102l5.473.867M290.117 223.852l1.3-1.09M291.418 222.762l16.375 4.715M308.941 229.164l1.203-.965M310.144 228.2l10.672 3.425M310.144 228.2l3.329 4.913M311.832 233.559l-4.04-6.082M291.418 222.762l4.937 8.148M309.55 234.242l-13.195-3.332M218.934 214.352l1.605 3.453M237.09 219.844l-16.551-2.04M237.09 219.844l-4.824-9.875M231.57 208.582l-.894-1.77M296.355 230.91l-.855 2.106M238.797 222.992l-1.707-3.148M238.797 222.992l-3.32-6.582M293.976 230.344l-4.93-8.223M294.387 231.504l-.41-1.16M272.566 217.984l4.868 8.72M293.976 230.344l-16.542-3.64M232.375 205.879l1.59 3.11M234.656 210.367l4.824 9.809M256.066 222.727l-16.586-2.551M256.066 222.727l-4.824-9.34M250.547 212.074l-4.86-8.789M277.434 226.703l-.856 2.414M256.715 224.105l-.649-1.378M275.043 226.219l-4.86-8.79M275.562 227.492l-.52-1.273M258.46 223.133l-.82 2.746M253.633 213.86l4.828 9.273M275.043 226.219l-16.582-3.086M220.023 220.582l-1.863-3.035M218.16 217.547l-3.066-.32M220.539 217.805l-.516 2.777M239.48 220.176l-.683 2.816M237.789 221.305l1.008 1.687M220.023 220.582l1.223-1.254M221.246 219.328l16.543 1.977M218.863 219.078l1.16 1.504M213.426 218.539l5.437.54M238.797 222.992l1.383-1.363M240.18 221.629l16.582 2.484M257.664 225.926l1.488-1.418M259.152 224.508l16.586 3.02M276.687 229.324l1.442-1.32M278.129 228.004l16.55 3.57M295.684 233.34l1.378-1.211M297.062 232.129l10.829 2.656M297.062 232.129l3.2 5.668M298.574 238.57l-3.894-6.996M278.129 228.004l4.828 9.273M296.234 239.707l-13.277-2.43M282.957 237.277l-.82 2.742M280.562 236.871l-4.824-9.344M281.21 238.246l-.648-1.375M259.152 224.508l4.824 9.808M280.562 236.871l-16.586-2.555M263.293 237.137l-3.32-6.586M263.976 234.316l-.683 2.82M261.586 233.988l-4.824-9.875M263.293 237.137l-1.707-3.149M240.18 221.629l4.855 10.316M261.586 233.988l-16.55-2.043M218.16 217.547l-.91-1.961M244.52 234.723l-5.723-11.73M245.035 231.945l-.516 2.778M220.023 220.582l-2.613-5.406M242.656 231.687l-4.867-10.382M244.52 234.723l-1.864-3.036M225.824 232.855l-5.8-12.273M226.172 230.137l-.348 2.718M221.246 219.328l4.926 10.809M242.656 231.687l-16.484-1.55M207.43 228.851l-.18 2.645M225.824 232.855l-2.02-2.91M223.805 229.945l-16.375-1.094M207.25 231.496l-2.176-2.77M205.074 228.727l-3.02-.153M243.36 233.223l1.16 1.5M225.824 232.855l1.067-1.125M226.89 231.73l16.47 1.493M262.285 235.45l1.008 1.687M244.52 234.723l1.222-1.25M245.742 233.473l16.543 1.976M207.25 231.496l.914-.988M208.164 230.508l16.36 1.039M224.523 231.547l1.301 1.308M205.812 230.39l1.438 1.106M200.45 230.148l5.362.243M263.293 237.137l1.383-1.368M264.676 235.77l16.582 2.488M282.16 240.07l1.492-1.418M283.652 238.652l10.887 1.926M283.652 238.652l3.164 6.387M287.027 249.754l-2.554-5.059M285.121 246.125l-3.863-7.867M264.676 235.77l4.86 10.32M282.781 247.687l-13.246-1.597M193.168 237.836l1.781 4.023M211.008 242.133l-16.059-.274M211.008 242.133l-5.196-11.742M205.074 228.727l-.945-2.133M269.016 248.867l-5.723-11.73M269.535 246.09l-.52 2.777M213.332 244.75l-2.324-2.617M213.332 244.75l-6.082-13.254M207.25 231.496l-2.711-5.879M267.152 245.832l-4.867-10.383M269.016 248.867l-1.864-3.035M245.742 233.473l4.926 10.804M267.152 245.832l-16.484-1.555M205.758 225.094l1.672 3.757M208.164 230.508l5.176 11.695M229.57 242.867l-16.23-.664M229.57 242.867l-5.047-11.32M223.805 229.945l-4.942-10.867M250.32 246.996l-5.8-12.273M250.668 244.277l-.348 2.719M231.746 245.637l-2.176-2.77M231.746 245.637l-5.922-12.782M248.3 244.09l-4.94-10.867M250.32 246.996l-2.02-2.906M231.926 242.996l-.18 2.64M226.89 231.73l5.036 11.266M248.3 244.09l-16.374-1.094M195.117 244.305l-2.473-2.457M192.644 241.848l-2.953-.008M194.95 241.86l.167 2.445M213.34 242.203l-.008 2.547M211.77 243.855l1.562.895M195.117 244.305l.617-.676M195.734 243.629l16.035.226M193.437 243.621l1.68.684M188.195 243.633l5.242-.012M230.312 244.531l1.434 1.106M213.332 244.75l.766-.832M214.098 243.918l16.214.613M249.02 245.691l1.3 1.305M231.746 245.637l.914-.985M232.66 244.652l16.36 1.04M267.855 247.363l1.16 1.504M250.32 246.996l1.067-1.125M251.387 245.871l16.468 1.492M269.016 248.867l1.222-1.254M270.238 247.613l10.856 1.25M270.238 247.613l3.227 7.051M274.035 259.473l-5.02-10.606M271.805 256.035l-3.95-8.672M251.387 245.871l5.035 11.266M269.523 257.984l-13.101-.847M256.242 259.781l-5.922-12.785M256.422 257.137l-.18 2.644M254.07 257.012l-5.05-11.32M256.242 259.781l-2.172-2.77M232.66 244.652l5.176 11.692M254.07 257.012l-16.234-.668M237.828 258.894l-6.082-13.257M237.836 256.344l-.008 2.55M235.504 256.277l-5.192-11.746M237.828 258.894l-2.324-2.617M214.098 243.918l5.347 12.086M235.504 256.277l-16.059-.273M192.644 241.848l-1.007-2.278M219.613 258.445l-6.281-13.695M219.445 256.004l.168 2.441M195.117 244.305l-2.883-6.282M217.14 255.988l-5.37-12.133M219.613 258.445l-2.472-2.457M201.633 258.394l-6.516-14.09M201.289 256.07l.344 2.324M195.734 243.629l5.555 12.441M217.14 255.988l-15.851.082M183.41 256.508l.508 2.183M201.633 258.394l-2.614-2.285M199.02 256.11l-15.61.398M183.918 258.691l-2.742-2.105M181.176 256.586l-2.867.11M217.934 257.766l1.68.68M201.633 258.394l.476-.503M202.11 257.89l15.824-.124M236.266 258l1.562.894M219.613 258.445l.617-.672M220.23 257.773l16.036.227M183.918 258.691l.344-.324M184.262 258.367l15.582-.433M199.844 257.934l1.789.46M182.035 258.453l1.883.238M176.96 258.664l5.075-.21M254.809 258.676l1.433 1.105M237.828 258.894l.766-.835M238.594 258.059l16.215.617M256.242 259.781l.914-.988M257.156 258.793l10.727.64M257.156 258.793l3.383 7.637M261.504 271.242l-5.262-11.46M258.953 268.05l-4.144-9.374M238.594 258.059l5.347 12.085M256.785 270.34l-12.844-.196M170.965 268.039l2.129 4.395M188.137 271.523l-15.043.91M188.137 271.523l-6.102-13.07M181.176 256.586l-1.098-2.395M244.11 272.59l-6.282-13.696M243.941 270.144l.168 2.446M191.008 273.441l-2.871-1.918M191.008 273.441l-7.09-14.75M183.918 258.691l-3.121-6.609M241.64 270.133 236.267 258M244.11 272.59l-2.47-2.457M220.23 257.773l5.555 12.442M241.64 270.133l-15.855.082M181.473 252.27l1.937 4.238M184.262 258.367l6.066 13.04M205.672 270.73l-15.344.676M205.672 270.73l-5.828-12.796M199.02 256.11l-5.583-12.489M226.129 272.535l-6.516-14.09M225.785 270.215l.344 2.32M208.414 272.836l-2.742-2.106M208.414 272.836l-6.781-14.442M223.516 270.25l-5.582-12.484M226.129 272.535l-2.613-2.285M207.906 270.652l.508 2.184M202.11 257.89l5.796 12.762M223.516 270.25l-15.61.402M173.934 274.309l-2.989-1.727M170.945 272.582l-2.754.195M173.934 274.309l-7.649.464M173.094 272.434l.84 1.875M179.746 273.984l-5.812.325M190.328 271.406l.68 2.035M189.039 273.426l1.969.015M173.934 274.309l.097.054M174.031 274.363l15.008-.937M171.89 274.516l2.044-.207M167.02 274.871l4.87-.355M206.531 272.598l1.883.238M191.008 273.441l.215-.136M191.223 273.305l15.308-.707M224.34 272.074l1.789.461M208.414 272.836l.344-.324M208.758 272.512l15.582-.438M242.43 271.91l1.68.68M226.129 272.535l.476-.5M226.605 272.035l15.825-.125M244.11 272.59l.616-.676M244.726 271.914l10.508.113M244.726 271.914l3.625 8.137M249.738 284.777l-5.629-12.187M246.883 281.883l-4.453-9.973M226.605 272.035l5.797 12.758M244.883 284.453l-12.48.34M232.91 286.976l-6.781-14.44M232.402 284.793l.508 2.183M230.168 284.871l-5.828-12.797M232.91 286.976l-2.742-2.105M208.758 272.512l6.066 13.039M230.168 284.871l-15.344.68M215.504 287.586l-7.09-14.75M214.824 285.55l.68 2.036M212.633 285.664l-6.102-13.066M215.504 287.586l-2.871-1.922M191.223 273.305l6.367 13.273M212.633 285.664l-15.043.914M170.945 272.582l-1.21-2.48M198.43 288.45l-7.422-15.009M197.59 286.578l.84 1.871M173.934 274.309l-3.422-6.86M195.441 286.726l-6.402-13.3M198.43 288.45l-2.989-1.724M176.559 279.5l-2.625-5.191M180.723 287.828l.996 1.7M174.031 274.363l6.692 13.465M195.441 286.726l-14.718 1.102M164.254 289.25l1.148 1.512M181.719 289.527l-16.317 1.235M181.719 289.527 178.625 288M178.625 288l-14.371 1.25M198.43 288.45l-16.711 1.077M165.402 290.762l-3.195-1.32M162.207 289.441l-2.621.243M165.402 290.762l-7.285.601M204.242 288.129l-5.812.32M196.387 288.656l2.043-.207M181.719 289.527l-.008.254M181.71 289.781l14.677-1.125M213.535 287.57l1.969.016M198.43 288.45l.097.058M198.527 288.508l15.008-.938M165.402 290.762l-.105.46M165.297 291.223l14.324-1.266M179.621 289.957l2.098-.43M163.258 291.414l2.144-.652M158.617 291.855l4.64-.441M231.027 286.738l1.883.238M215.504 287.586l.219-.137M215.723 287.45l15.304-.712M232.91 286.976l.348-.32M233.258 286.656l10.199-.316M233.258 286.656l3.953 8.531M239.035 299.742l-6.125-12.766M235.894 297.187l-4.867-10.449M215.723 287.45l6.363 13.273M234.11 299.976l-12.024.747M154.5 301.996l2.61 4.543M170.715 305.133l-13.606 1.406M170.715 305.133l-7.457-13.719M162.207 289.441l-1.34-2.539M222.926 302.594l-7.422-15.008M222.086 300.723l.84 1.87M174 306.25l-3.285-1.117M219.937 300.867l-6.402-13.297M222.926 302.594l-2.989-1.727M198.527 288.508l6.692 13.465M219.937 300.867l-14.718 1.106M161.898 284.75l2.356 4.5M165.297 291.223l7.41 13.71M186.703 303.582l-13.996 1.352M186.703 303.582l-7.082-13.625M178.625 288l-6.734-13.484M201.055 293.644l-2.625-5.195M205.219 301.973l.996 1.695M189.898 304.906l-3.195-1.324M203.121 302.144l-6.734-13.488M206.215 303.668l-3.094-1.524M188.75 303.394l1.148 1.512M181.71 289.781l7.04 13.613M203.121 302.144l-14.371 1.25M158.539 307.656l-3.36-.914M155.18 306.742l-2.477.266M158.539 307.656l-6.879.64M157.11 306.539l1.429 1.117M174 306.25l-15.461 1.406M172.707 304.934 174 306.25M189.898 304.906 174 306.25M206.215 303.668l-16.317 1.238M222.926 302.594l-16.711 1.074M228.738 302.27l-5.812.324M171.82 307.117l2.18-.867M158.539 307.656l-.273.871M158.266 308.527l13.554-1.41M156.34 308.73l2.199-1.074M151.965 309.2l4.375-.47M187.754 305.555l2.144-.649M174 306.25l-.195.668M173.805 306.918l13.949-1.363M204.117 304.098l2.098-.43M189.898 304.906l-.105.461M189.793 305.367l14.324-1.27M220.883 302.8l2.043-.206M206.215 303.668l-.008.258M206.207 303.926l14.676-1.125M222.926 302.594l.097.058M223.023 302.652l9.82-.64M223.023 302.652l4.36 8.82M225.55 307.789l-2.624-5.195M226.25 313.586l-5.367-10.785M206.207 303.926l7.039 13.61M224.727 316.527l-11.481 1.008M213.246 317.535l1.148 1.516M211.2 317.726l-7.083-13.628M214.394 319.05l-3.195-1.324M189.793 305.367l7.41 13.711M211.2 317.726l-13.997 1.352M197.203 319.078l1.293 1.316M195.21 319.277l-7.456-13.722M198.496 320.394l-3.285-1.117M173.805 306.918l7.8 13.766M195.21 319.277l-13.605 1.407M155.18 306.742l-1.485-2.555M181.605 320.684l1.43 1.113M179.676 320.887l-7.856-13.77M183.035 321.797l-3.36-.91M166.48 322.3l1.559.907M158.266 308.527l8.214 13.774M179.676 320.887 166.48 322.3M151.84 323.875l1.676.691M168.039 323.207l-14.523 1.36M168.039 323.207l-3.43-.703M164.61 322.504l-12.77 1.37M183.035 321.797l-14.996 1.41M153.516 324.566l-3.485-.496M150.031 324.07l-2.32.246M153.516 324.566l-6.446.59M198.496 320.394l-15.46 1.403M214.394 319.05l-15.898 1.344M228.508 317.969l-14.114 1.082M180.836 322.875l2.2-1.078M168.039 323.207l-.344 1.078M167.695 324.285l13.14-1.41M196.316 321.262l2.18-.868M183.035 321.797l-.273.87M182.762 322.668l13.554-1.406M153.516 324.566l-.399 1.285M153.117 325.851l12.715-1.367M165.832 324.484l2.207-1.277M151.316 326.043l2.2-1.477M147.223 326.473l4.093-.43M212.25 319.7l2.144-.65M198.496 320.394l-.195.665M198.3 321.059l13.95-1.36M214.394 319.05l-.105.458M214.289 319.508l9.367-.844M214.289 319.508l4.824 8.996M218.195 330.68l-5.945-10.98M198.3 321.059l7.805 13.765M216.969 333.7l-10.864 1.124M145.383 336.39l3.187 4.442M160.45 339.676l-11.88 1.156M160.45 339.676l-9.134-13.633M150.031 324.07l-1.644-2.543M206.105 334.824l1.43 1.117M163.98 339.973l-3.53-.297M204.172 335.031l-7.856-13.77M207.535 335.941l-3.363-.91M182.762 322.668l8.215 13.773M204.172 335.031l-13.195 1.41M148.95 319.351l2.89 4.524M153.117 325.851l9.078 13.649M174.527 338.21l-12.332 1.29M174.527 338.21l-8.695-13.726M164.61 322.504l-8.27-13.774M190.977 336.441l1.558.91M178.012 338.71l-3.485-.5M189.105 336.644l-8.27-13.77M192.535 337.351l-3.43-.707M176.336 338.02l1.676.69M167.695 324.285l8.64 13.734M189.105 336.644l-12.77 1.375M150.45 341.082l-3.56-.094M146.89 340.988l-2.152.196M150.45 341.082l-5.99.445M148.57 340.832l1.88.25M163.98 339.973l-13.53 1.109M162.195 339.5l1.785.473M178.012 338.71l-14.032 1.263M192.535 337.351l-14.523 1.36M207.535 335.941l-15 1.41M220.902 334.723l-13.367 1.218M161.8 341.637l2.18-1.664M150.45 341.082l-.473 1.687M149.977 342.77l11.824-1.133M148.305 342.922l2.144-1.84M144.512 343.258l3.793-.336M175.812 340.187l2.2-1.476M163.98 339.973l-.441 1.488M163.539 341.46l12.273-1.273M190.328 338.629l2.207-1.278M178.012 338.71l-.399 1.286M177.613 339.996l12.715-1.367M205.332 337.016l2.203-1.075M192.535 337.351l-.344 1.075M192.191 338.426l13.141-1.41M207.535 335.941l-.277.871M207.258 336.812l8.86-.925M207.258 336.812l5.351 9.043M211.922 348.047l-6.59-11.031M192.191 338.426l8.641 13.734M211.027 351.066l-10.195 1.094M200.832 352.16l1.676.695M199.023 352.355l-8.695-13.726M202.508 352.855l-3.485-.5M177.613 339.996l9.078 13.645M199.023 352.355l-12.332 1.286M186.691 353.64l1.786.477M184.945 353.82l-9.133-13.633M188.477 354.117l-3.532-.297M163.539 341.46l9.527 13.516M184.945 353.82l-11.879 1.156M146.89 340.988l-1.808-2.492M173.066 354.976l1.88.25M171.387 355.133l-9.586-13.496M174.945 355.226l-3.558-.093M159.96 356.11l1.966.027M149.977 342.77l9.984 13.34M171.387 355.133l-11.426.976M161.926 356.137l-7.36.418M161.926 356.137l-3.578.097M158.348 356.234l-10.965.758M174.945 355.226l-13.02.91M147.352 356.957l-1.52.129M145.832 357.086l-1.977.11M188.477 354.117l-13.532 1.11M202.508 352.855l-14.031 1.262M215.062 351.68l-12.554 1.175M172.8 357.066l2.145-1.84M161.926 356.137l-.492 1.882M161.434 358.02l11.367-.954M186.297 355.777l2.18-1.66M174.945 355.226l-.472 1.688M174.473 356.914l11.824-1.137M149.402 356.867l-.48 2M148.922 358.867l10.906-.726M159.828 358.14l2.098-2.003M147.383 358.953l1.965-2.082M143.89 359.133l3.493-.18M200.309 354.328l2.199-1.473M188.477 354.117l-.442 1.484M188.035 355.601l12.274-1.273M202.508 352.855l-.399 1.282M202.11 354.137l8.304-.891M202.11 354.137l5.917 8.972M207.59 365.254l-7.281-10.926M188.035 355.601l9.527 13.516M207.043 368.203l-9.48.914M144.512 367.851l3.793 4.106M158.348 371.77l-10.043.187M158.348 371.77l-10.965-12.817M145.832 357.086l-1.977-2.414M197.562 369.117l1.88.254M159.71 371.586l-1.362.183M195.883 369.273l-9.586-13.496M199.441 369.371l-3.558-.098M174.473 356.914l9.984 13.34M195.883 369.273l-11.426.98M143.89 352.691l3.493 4.301M148.922 358.867l10.906 12.856M170.328 371.226l-10.5.497M170.328 371.226l-10.5-13.085M158.348 356.234l-10.043-13.312M184.457 370.254l1.965.027M171.848 371.098l-1.52.128M182.844 370.379 172.8 357.066M186.422 370.281l-3.578.098M161.434 358.02l10.445 13.117M182.844 370.379l-10.965.758M148.098 371.738l-1.207.223M146.89 371.96l-1.808-.003M186.422 370.281l-7.36.418M199.441 369.371l-13.02.91M211.137 368.418l-11.696.953M159.96 373.598l1.665-1.946M150.336 371.945l-.36 1.801M149.977 373.746l9.984-.148M148.57 373.742l1.39-1.793M145.383 373.71l3.187.032M171.879 373.098l1.965-2.082M161.855 371.644l-.421 1.91M161.434 373.555l10.445-.457M184.324 372.285l2.098-2.004M173.898 371.012l-.48 2M173.418 373.012l10.906-.727M197.297 371.207l2.144-1.836M186.422 370.281l-.492 1.88M185.93 372.16l11.367-.953M199.441 369.371l-.472 1.687M198.969 371.058l7.718-.73M198.969 371.058l6.508 8.774M205.305 381.883l-8.008-10.676M185.93 372.16l10.445 13.121M205.121 384.691l-8.746.59M194.824 385.371l-10.5-13.086M196.344 385.242l-1.52.129M173.418 373.012l10.906 12.851M194.824 385.371l-10.5.492M182.844 385.914l-10.965-12.816M184.207 385.73l-1.363.184M161.434 373.555 172.8 386.1M182.844 385.914l-10.043.187M146.89 371.96l-2.152-2.296M171.387 386.105l-11.426-12.507M172.594 385.879l-1.207.226M149.977 373.746l11.824 12.203M171.387 386.105l-9.586-.156M161.504 385.652l-1.055.246M160.45 385.898l-9.134-.539M150.93 385l-.899.254M150.031 385.254l-1.644-.149M209.219 384.527l-5.66.317M173.066 387.887l1.391-1.797M163.832 386.008l-.293 1.675M163.539 387.683l9.527.204M184.457 387.742l1.664-1.945M174.832 386.086l-.36 1.8M174.473 387.887l9.984-.145M153.348 385.516l-.23 1.523M153.117 387.039l9.078.586M162.195 387.625l1.149-1.629M151.84 386.922l.926-1.45M148.95 386.633l2.89.289M196.375 387.238l1.965-2.082M186.352 385.789l-.422 1.906M185.93 387.695l10.445-.457M198.394 385.156l-.48 1.996M197.914 387.152l7.113-.453M197.914 387.152l7.113 8.469M205.121 397.523l-8.746-10.285M185.93 387.695l11.367 12.551M205.305 400.117l-8.008.129M151.965 393.3l4.375 3.571M164.61 398.273l-8.27-1.402M164.61 398.273l-12.77-11.351M150.031 385.254l-2.32-2.156M165.355 398.027l-.746.246M195.883 400.25l-11.426-12.508M197.09 400.023l-1.207.227M174.473 387.887l11.824 12.203M195.883 400.25l-9.586-.16M147.223 381.5l4.093 3.86M153.117 387.039l12.715 11.406M174.527 399.398l-8.695-.953M174.527 399.398l-12.332-11.773M160.45 385.898l-11.88-12.156M175.426 399.144l-.899.254M184.945 400.043l-11.879-12.156M186 399.797l-1.055.246M163.539 387.683l12.273 11.82M184.945 400.043l-9.133-.54M155.773 396.414l-.593.223M155.18 396.637l-1.485-.32M166.48 399.879l.723-1.258M158.383 397.262l-.117 1.156M158.266 398.418l8.214 1.46M157.11 398.172l.542-1.047M154.5 397.578l2.61.594M176.336 401.066l.926-1.449M167.867 398.703l-.172 1.352M167.695 400.055l8.64 1.011M186.691 401.77l1.149-1.63M177.844 399.656l-.23 1.524M177.613 401.18l9.078.59M197.562 402.027l1.391-1.793M188.328 400.152l-.293 1.672M188.035 401.824l9.527.203M199.328 400.23l-.36 1.801M198.969 402.031l6.508-.062M198.969 402.031l7.718 8.047M207.043 411.789l-9.48-9.762M188.035 401.824l12.274 11.824M207.59 414.105l-7.281-.457M199.023 413.539l-12.332-11.77M199.922 413.285l-.899.254M177.613 401.18l12.715 11.406M199.023 413.539l-8.695-.953M189.105 412.418l-12.77-11.352M189.852 412.172l-.747.246M167.695 400.055l13.14 10.96M189.105 412.418l-8.27-1.402M155.18 396.637l-2.477-1.993M179.676 410.777 166.48 399.88M180.27 410.555l-.594.222M158.266 398.418l13.554 10.48M179.676 410.777l-7.856-1.879M171.16 408.402l-.445.188M170.715 408.59l-7.457-2.387M162.504 405.683l-.297.141M162.207 405.824l-1.34-.508M181.605 412.316l.543-1.047M173.871 409.437l-.066.934M173.805 410.371l7.8 1.945M190.977 414.023l.722-1.257M182.879 411.402l-.117 1.156M182.762 412.558l8.215 1.465M165.324 406.922l-.027.683M165.297 407.605l7.41 2.45M172.707 410.055l.379-.82M164.254 407.215l.234-.578M161.898 406.281l2.356.934M200.832 415.207l.926-1.45M192.363 412.848l-.172 1.351M192.191 414.2l8.641 1.007M202.34 413.8l-.23 1.524M202.11 415.324l5.917.426M202.11 415.324l8.304 7.531M211.027 424.328l-10.195-9.121M192.191 414.2l13.141 10.956M211.922 426.312l-6.59-1.156M167.02 410.25l4.87 2.879M178.625 416.594l-6.734-3.465M178.625 416.594l-14.371-9.38M162.207 405.824l-2.621-1.805M178.777 416.516l-.152.078M204.172 424.922l-13.195-10.899M204.766 424.7l-.594.222M182.762 412.558l13.554 10.48M204.172 424.922l-7.856-1.883M158.617 402.965l4.64 3.238M165.297 407.605l14.324 9.446M186.703 419.965l-7.082-2.914M186.703 419.965l-13.996-9.91M170.715 408.59l-13.606-10.418M187 419.828l-.297.137M195.21 422.73l-13.605-10.414M195.656 422.547l-.445.183M173.805 410.371l13.949 9.977M195.21 422.73l-7.456-2.382M170.957 412.582l-.012.008M180.723 417.906l.109-.312M174.031 414.3v.071M174.031 414.371l6.692 3.535M173.094 413.824l.004-.027M172.496 413.469l.598.355M188.75 421.355l.234-.574M181.715 417.976l-.004.399M181.71 418.375l7.04 2.98M197.203 424.2l.379-.821M189.82 421.066l-.027.68M189.793 421.746l7.41 2.453M206.105 426.457l.54-1.047M198.367 423.582l-.066.934M198.3 424.516l7.805 1.94M207.375 425.547l-.117 1.156M207.258 426.703l5.351 1.008M207.258 426.703l8.86 6.93M216.969 434.832l-10.864-8.375M198.3 424.516l13.95 9.972M218.195 436.433l-5.945-1.945M211.2 434.11l-13.997-9.91M211.496 433.969l-.297.14M189.793 421.746l14.324 9.45M211.2 434.11l-7.083-2.915M203.121 430.734l-14.371-9.379M203.273 430.656l-.152.078M181.71 418.375l14.677 8.898M203.121 430.734l-6.734-3.46M170.945 412.59l-2.754-1.602M195.441 426.734l-14.718-8.828M195.453 426.726l-.012.008M197.59 427.965l.004-.024M196.992 427.61l.598.355M205.219 432.047l.11-.313M198.527 428.445v.07M198.527 428.516l6.692 3.53M213.246 435.5l.234-.578M206.21 432.121l-.003.398M206.207 432.52l7.039 2.98M214.316 435.207l-.027.684M214.289 435.89l4.824 1.66M214.289 435.89l9.367 6.254M224.727 443.047l-11.481-7.547M206.207 432.52l14.676 8.898M226.25 444.226l-5.367-2.808M219.937 440.875l-14.718-8.828M219.95 440.871l-.013.004M174.031 414.36l-.937-.536M198.527 428.5l-.937-.535M222.086 442.11l.008-.024M221.488 441.754l.598.355M223.023 442.586v.074M223.023 442.66l4.36 2.371M234.11 448.766l-1.114-.602M223.023 442.644l-.937-.535M236.32 449.293l.89.676M244.883 451.844l-.848-.375M247.777 451.64l.574.602M256.785 452.215l-.598-.215M260.184 451.312l.355.48M261.043 391.348a114.05 114.05 0 0 0 9.707-7.809M316.941 303.535c.875-4.176 1.516-8.3 1.907-12.309M309.644 298.73c-.035.176-.074.356-.113.532M263.344 379.266c-.133.117-.27.242-.403.359M266.586 428.644c32.91-1.304 72.012-40.343 87.336-87.191 8.187-25.031 8.187-48.496 0-64.074"/><path fill="none" stroke="#000" stroke-linecap="round" stroke-linejoin="round" stroke-miterlimit="10" stroke-width=".39851322" d="M260.45 401.09c.448 41.652 30.237 58.011 66.534 36.539 36.297-21.477 65.36-72.653 64.91-114.305-.437-40.922-29.25-57.555-64.91-37.476"/><path fill="none" stroke="#000" stroke-linecap="round" stroke-linejoin="round" stroke-miterlimit="10" stroke-width=".39851322" d="M375.621 280.336c26.406 15.242 26.406 64.68 0 110.418-26.406 45.734-69.219 70.453-95.625 55.207-26.406-15.246-26.406-64.68 0-110.418s69.219-70.453 95.625-55.207m0 0"/><path fill="none" stroke="#000" stroke-linecap="round" stroke-linejoin="round" stroke-miterlimit="10" stroke-width=".19875722" d="M375.262 265.871c-29.817-17.215-78.157 10.695-107.97 62.336-29.816 51.644-29.816 107.46 0 124.676"/><path fill="none" stroke="#000" stroke-linecap="round" stroke-linejoin="round" stroke-miterlimit="10" stroke-width=".39851322" d="M312.14 353.098c.243.14.239.59 0 1.003-.238.415-.628.641-.867.504-.242-.14-.242-.59 0-1.004.239-.418.63-.64.868-.503m0 0"/><path fill="none" stroke="#000" stroke-linecap="round" stroke-linejoin="round" stroke-miterlimit="10" stroke-width=".19875722" d="M141.098 380.758c-29.922-17.438-29.805-73.649.254-125.555 29.957-51.726 78.39-79.687 108.347-62.555"/><path fill="none" stroke="#000" stroke-linecap="round" stroke-linejoin="round" stroke-miterlimit="10" stroke-width=".19875722" d="M143.176 345.32c0-31.71 14.656-69.484 38.437-99.07 14.688-18.27 31.781-32.047 48.594-39.164M143.848 356.652a92.999 92.999 0 0 1-.676-11.332"/><path fill="none" stroke="#000" stroke-linecap="round" stroke-linejoin="round" stroke-miterlimit="10" stroke-width=".39851322" d="M41.309 282.406c-20.223-11.734-20.18-49.668.093-84.726 20.235-34.985 52.996-53.899 73.23-42.278M80.422 242.25c-9.254 23.855-9.254 46.68 0 59.851M123.7 267.238 80.421 242.25M117.824 312.633c-2.562-12.875-.472-29.04 5.871-45.395M80.422 302.098l36.418 21.027"/><path fill="none" stroke="#000" stroke-linecap="round" stroke-linejoin="round" stroke-miterlimit="10" stroke-width=".39851322" d="M26.121 246.953c0-32.023 22.484-70.965 50.219-86.98"/><path fill="none" stroke="#000" stroke-linecap="round" stroke-linejoin="round" stroke-miterlimit="10" stroke-width=".39851322" d="M26.125 246.047c-7.457-18.598 2.578-49.945 22.414-70.012 8.703-8.808 18.309-14.351 27.016-15.598M11.219 210.023l-2.547-.402-1.828 1.309-2.059 4.605-1.168 12.063.238 6.472.93 6.942 2.059 6.976 1.828 3.422 2.547 2.54"/><path fill="none" stroke="#000" stroke-linecap="round" stroke-linejoin="round" stroke-miterlimit="10" stroke-width=".19875722" d="M11.219 210.023a110.717 110.717 0 0 1 5.86-15.109"/><path fill="none" stroke="#000" stroke-linecap="round" stroke-linejoin="round" stroke-miterlimit="10" stroke-width=".39851322" d="m17.078 194.914-1.75-2.473-.055-3.27 2.293-6.6 8.399-12.583 5-5.781 5.742-5.45 6.41-4.222 3.606-1.152 3.359.472"/><path fill="none" stroke="#000" stroke-linecap="round" stroke-linejoin="round" stroke-miterlimit="10" stroke-width=".19875722" d="M50.082 153.855c3.879-2.78 7.805-5.05 11.684-6.746"/><path fill="none" stroke="#000" stroke-linecap="round" stroke-linejoin="round" stroke-miterlimit="10" stroke-width=".39851322" d="m61.77 147.11-1.75-1.403-.055-.898 2.293-.801 8.398.18 5 .562 5.742.969 6.41 1.574 6.965 2.762M15.758 261.375l1.363.96"/><path fill="none" stroke="#000" stroke-linecap="round" stroke-linejoin="round" stroke-miterlimit="10" stroke-width=".19875722" d="M17.121 262.336c-2.375-2.266-4.36-5.086-5.902-8.387"/><path fill="none" stroke="#000" stroke-linecap="round" stroke-linejoin="round" stroke-miterlimit="10" stroke-width=".39851322" d="m11.219 253.95 6.125 3.534M17.344 257.484V213.56M17.344 213.559l-6.125-3.536M17.344 213.559c1.531-5.051 3.504-10.133 5.855-15.11M23.2 198.45l-6.122-3.536M23.2 198.45l33.003-41.06M56.203 157.39l-6.121-3.535M56.203 157.39c3.879-2.78 7.813-5.05 11.692-6.746M67.89 150.644l-6.12-3.535M67.89 150.644l25.231 2.254M98.293 152.09l-3.52-2.035M28.828 266.371l-5.586-.5M23.242 265.871l-6.12-3.535M23.242 265.871c-2.37-2.266-4.355-5.086-5.898-8.383M80.422 242.25v59.848"/><path fill="none" stroke="#000" stroke-linecap="round" stroke-linejoin="round" stroke-miterlimit="10" stroke-width=".19875722" d="M143.848 346.258c0-.352-.243-.688-.672-.938M377.36 277.324c27.366 15.8 27.366 67.031 0 114.434-27.364 47.398-71.735 73.015-99.102 57.215-27.367-15.801-27.367-67.032 0-114.434 27.367-47.398 71.738-73.016 99.101-57.215m0 0"/><path fill="none" stroke="#000" stroke-linecap="round" stroke-linejoin="round" stroke-miterlimit="10" stroke-width=".39851322" d="m346.816 336.93.844-1.227"/><path fill="none" stroke="#000" stroke-linecap="round" stroke-linejoin="round" stroke-miterlimit="10" stroke-width=".19875722" d="M337.293 315.285c-5.727-3.305-13.379-2.805-21.465 1.395"/><path fill="none" stroke="#000" stroke-linecap="round" stroke-linejoin="round" stroke-miterlimit="10" stroke-width=".39851322" d="m315.832 316.68 1.441 1.523.598 2.016"/><path fill="none" stroke="#000" stroke-linecap="round" stroke-linejoin="round" stroke-miterlimit="10" stroke-width=".19875722" d="m346.816 336.93-.734-5.602-1.719-5.086-2.754-4.219-3.718-3.058-4.504-1.692-5.036-.273-5.265 1.05-5.215 2.169"/><path fill="none" stroke="#000" stroke-linecap="round" stroke-linejoin="round" stroke-miterlimit="10" stroke-width=".39851322" d="m344.77 338.11 2.046-1.18M317.871 320.219v2.359M344.77 338.11c-.829-16.262-12.403-22.942-26.899-15.532M314.605 324.465c-14.496 9.328-26.066 29.367-26.898 46.586M314.605 324.465V322.1"/><path fill="none" stroke="#000" stroke-linecap="round" stroke-linejoin="round" stroke-miterlimit="10" stroke-width=".19875722" d="M285.66 372.234c.836-18.523 13.32-40.148 28.945-50.129"/><path fill="none" stroke="#000" stroke-linecap="round" stroke-linejoin="round" stroke-miterlimit="10" stroke-width=".39851322" d="m285.66 372.234 2.047-1.18M314.605 322.101l-.597-2.011-1.446-1.528"/><path fill="none" stroke="#000" stroke-linecap="round" stroke-linejoin="round" stroke-miterlimit="10" stroke-width=".19875722" d="M312.562 318.562c-16.75 10.641-30.148 33.844-30.984 53.672"/><path fill="none" stroke="#000" stroke-linecap="round" stroke-linejoin="round" stroke-miterlimit="10" stroke-width=".39851322" d="m281.574 372.238 2.047.488 2.04-.492"/><path fill="none" stroke="#000" stroke-linecap="round" stroke-linejoin="round" stroke-miterlimit="10" stroke-width=".19875722" d="M314.605 392.719c-15.625 8.054-28.109.847-28.945-16.711"/><path fill="none" stroke="#000" stroke-linecap="round" stroke-linejoin="round" stroke-miterlimit="10" stroke-width=".39851322" d="M314.605 392.719v-2.364M287.707 374.828c.828 16.258 12.402 22.938 26.898 15.527M287.707 374.828l-2.047 1.18"/><path fill="none" stroke="#000" stroke-linecap="round" stroke-linejoin="round" stroke-miterlimit="10" stroke-width=".19875722" d="M281.574 376.008c.406 9.101 3.8 15.98 9.527 19.285"/><path fill="none" stroke="#000" stroke-linecap="round" stroke-linejoin="round" stroke-miterlimit="10" stroke-width=".39851322" d="m313.969 394.062.636-1.343M285.66 376.008l-2.039.488-2.047-.488M300.488 307.82l15.344 8.86M317.871 322.578l26.898 15.531M317.871 322.578l-3.672-2.121M281.574 372.238l-14.3-8.262M298.258 310.305l14.304 8.257M287.707 374.828l26.898 15.527M287.707 374.828l-3.672-2.121M266.234 367.152l15.34 8.856M308.074 329.555c-.98 4.37-2.55 8.851-4.629 13.21M297.976 352.238c-2.738 3.98-5.832 7.582-9.128 10.617M317.871 388.469v2.363"/><path fill="none" stroke="#000" stroke-linecap="round" stroke-linejoin="round" stroke-miterlimit="10" stroke-width=".19875722" d="M346.816 340.7c-.836 18.523-13.32 40.148-28.945 50.132"/><path fill="none" stroke="#000" stroke-linecap="round" stroke-linejoin="round" stroke-miterlimit="10" stroke-width=".39851322" d="m346.816 340.7-2.047 1.179M317.871 388.469c14.496-9.325 26.066-29.368 26.898-46.586M287.707 371.055l30.164 17.414M344.77 341.879l-30.165-17.414M317.871 390.832l-.598 1.324-1.441-.144M346.816 338.34l.848 1.18-.848 1.18M314.605 391.305l1.227.707M346.816 338.34l-1.222-.707M221.203 212.277l8.383-4.84M143.848 346.258v9.68M290.21 201.43l1.985 1.148M295.285 204.36l21.406 12.363M319.781 218.504l21.406 12.36M344.277 232.648l7.028 4.055M233.812 213.086l1.665 3.324M258.309 227.23l1.664 3.32M282.805 241.371l1.668 3.324M154.566 356.555l-3.714.218M179.062 370.7l-3.714.218M203.559 384.844l-3.715.214M168.957 411.441l1.988 1.149M174.031 414.371l21.41 12.363M198.527 428.516l21.41 12.359M223.023 442.66l7.028 4.055M354.055 253.625l21.207 12.246M246.082 440.637l21.21 12.246M311.371 354.637l-18.648-3.34M312.219 353.168l-12.22-14.48M249.703 192.644l7.281 4.165M257.234 196.953l.348.195M141.098 380.758l7.246 4.222M148.59 385.125l.347.203M116.738 325.957l-75.43-43.55M190.066 198.95l-75.433-43.552M76.34 159.973l1.629-.942M26.121 246.953v1.887M60.871 144.285l-8.621 3.52-8.215 4.968-7.746 6.22-7.195 7.288M24.79 171.48l-7.478 11.02-6.078 11.875-4.464 12.332-2.645 12.418M6.203 246.328l3.84 8.094 5.715 6.953M141.098 380.758l-5.672-3.985-4.989-4.918-4.238-5.742-3.449-6.469-2.668-7.105-1.887-7.66-1.117-8.14-.367-8.548 1.48-18.047 4.297-18.812 6.926-18.945 9.285-18.422 11.313-17.254 12.941-15.469 14.145-13.129 14.89-10.3 7.586-3.961 7.606-3.102 7.578-2.191 7.488-1.247 7.328-.246 7.09.797 6.75 1.864 6.29 2.917"/><path fill="none" stroke="#000" stroke-linecap="round" stroke-linejoin="round" stroke-miterlimit="10" stroke-width=".39851322" d="m375.262 265.871 5.875 4.098 5.156 5.047 4.367 5.878 3.531 6.582 2.72 7.192 1.913 7.71 1.133 8.157.375 8.535-1.453 17.93-4.246 18.617-6.832 18.707-9.157 18.172-11.16 17.016-12.785 15.27-14 12.984-14.8 10.226-7.579 3.941-7.629 3.098-7.636 2.2-7.59 1.242-7.469.23-7.266-.836-6.953-1.945-6.484-3.04"/><path fill="none" stroke="#000" stroke-linecap="round" stroke-linejoin="round" stroke-miterlimit="10" stroke-width=".39851322" d="m337.293 315.285 4.285 3.477 3.188 4.734 2.023 5.723.871 6.484M313.969 394.062l-6.055 2.489-5.965 1.109-5.695-.394-5.153-1.973M309.246 299.094l28.047 16.191M263.055 379.098l28.046 16.195M347.66 339.559l-.844 7.28-1.882 7.52-2.856 7.543-3.73 7.332-4.485 6.895-5.101 6.242-5.575 5.395-5.878 4.367M493.57 109.309l-1.941-2.637M491.629 106.672l-6.809-9.156M484.664 97.477l-.961-1.434M483.703 96.043l-6.809-8.766M476.59 87.195l-.813-1.324M475.777 85.871l-6.832-8.36M468.5 77.375l-.68-1.203M467.82 76.172l-6.883-7.942M459.8 66.96l-4.702-5.124M460.36 68.039l-.56-1.078M501.512 120.125l-.872-1.063M501.512 120.125l-7.942-10.816M492.746 108.21l.824 1.099M499.586 117.742l-6.84-9.531M500.64 119.062l-1.054-1.32M470.351 76.957l-.66 1.45M463.46 69.074l6.891 7.883M462.105 69.55l1.356-.476M455.344 62.098l1.12-.575M462.324 67.816l-.644 1.25M456.465 61.523l5.86 6.293M478.316 86.586l-.66 1.652M471.48 78.285l6.836 8.3M470.016 78.797l1.464-.512M486.246 96.691l-.645 1.86M479.437 87.984l6.809 8.707M477.875 88.516l1.562-.532M494.168 107.258l-.598 2.05M487.363 98.156l6.805 9.102M485.71 98.695l1.653-.539M501.117 116.86l.395 3.265M495.289 108.785l5.828 8.074M493.57 109.309l1.719-.524M499.586 117.742l-15.399-3.023M484.187 114.719l-.363 2M501.36 120.238l-.72-1.176M477.305 104.879l15.441 3.332M477.305 104.879l6.882 9.84M475.695 105.32l1.61-.441M491.629 106.672l-15.45-3.383M476.18 103.289l-.485 2.031M469.348 93.809l15.472 3.707M469.348 93.809l6.832 9.48M467.629 94.332l1.719-.523M483.703 96.043l-15.477-3.762M468.226 92.281l-.597 2.051M461.422 83.18l15.472 4.097M461.422 83.18l6.804 9.101M459.77 83.719l1.652-.54M475.777 85.871l-15.472-4.156M460.305 81.715l-.645 1.86M453.496 73.008l15.45 4.504M453.496 73.008l6.809 8.707M457.777 61.258c-.433.082-.875.172-1.312.265M459.121 61.023l-.965.375M464.543 60.488c-1.77.063-3.586.242-5.422.535M464.957 60.863l.871-.402M467.055 60.473a42.445 42.445 0 0 0-1.227-.016M468.312 60.527l-.675.2M473.316 61.18a35.967 35.967 0 0 0-5.004-.653M473.95 61.66l.534-.219M475.601 61.734a27.434 27.434 0 0 0-1.113-.293M476.738 62.074l-.332.067M481.2 63.898a31.145 31.145 0 0 0-4.462-1.824M482.14 64.473l.09-.032M482.719 64.719c-.16-.09-.329-.184-.493-.274M391.297 221.941c.16.098.32.2.48.29M391.277 221.852l.02.09M386.5 218.371a30.995 30.995 0 0 0 3.812 2.953M386.5 218.371l-.11-.32M384.824 216.738c.266.278.54.551.813.817M384.746 216.164l.078.574M380.945 211.848a35.922 35.922 0 0 0 3.067 4.007M380.945 211.848l-.16-.684M379.644 209.73c.207.356.414.711.63 1.059M379.562 208.773l.082.957M376.781 203.64a44.248 44.248 0 0 0 2.246 4.965M376.781 203.64l-.16-1.023M375.887 201.09c.136.426.277.851.425 1.27M375.824 199.832l.063 1.258M374.105 193.953a57.661 57.661 0 0 0 1.371 5.797M374.105 193.953l-.109-1.336M373.637 191.031c.066.485.136.973.214 1.45M373.61 189.539l.027 1.492M372.98 183.02c.067 2.218.22 4.394.461 6.492M372.98 183.02l-.015-1.614M372.95 179.8c-.005.532-.005 1.067 0 1.594M372.953 177.992l-.004 1.809M372.98 178.14l-.027-.148M373.441 171.117a97.29 97.29 0 0 0-.46 7.024M373.441 171.117l.157-2.957M373.598 168.16l.039 1.215M373.851 167.676a91.85 91.85 0 0 0-.214 1.699M373.855 166.125l-.004 1.55M374.105 165.91l-.25.215M375.473 158.531c-.54 2.477-1 4.953-1.368 7.38M375.473 158.531l.3-2.738M375.773 155.793l.114.926M376.312 154.957c-.148.586-.289 1.176-.425 1.758M376.285 153.68l.027 1.277M376.781 153.133l-.496.547M379.027 145.574a132.408 132.408 0 0 0-2.246 7.559M379.027 145.574l.403-2.472M379.43 143.102l.214.632M380.273 141.953c-.215.59-.425 1.191-.629 1.781M380.18 140.965l.093.988M380.945 140.113l-.765.852M384.016 132.566a150.55 150.55 0 0 0-3.07 7.547M384.016 132.566l.457-2.168M384.473 130.398l.351.348M385.637 128.988c-.274.582-.547 1.172-.813 1.758M385.445 128.293l.192.695M386.5 127.18l-1.055 1.113M390.312 119.828a154.13 154.13 0 0 0-3.812 7.352M390.312 119.828l.47-1.832M390.781 117.996l.516.074M392.27 116.379c-.325.558-.653 1.129-.973 1.691M391.953 115.973l.316.406M393.3 114.648l-1.347 1.325M397.766 107.668a157.842 157.842 0 0 0-4.465 6.98M397.766 107.668l.433-1.465M398.2 106.203l.698-.183M400.016 104.437c-.375.524-.75 1.051-1.118 1.579M399.535 104.309l.48.128M401.183 102.824l-1.648 1.485M406.191 96.395a149.243 149.243 0 0 0-5.008 6.43M406.191 96.395l.352-1.09M406.543 95.305l.902-.414M408.672 93.457c-.406.473-.82.957-1.227 1.438M408.016 93.586l.656-.129M409.957 92.004l-1.941 1.582M415.379 86.277a135.548 135.548 0 0 0-5.422 5.727M415.379 86.277l.23-.703M415.61 85.574l1.116-.617M418.035 83.71c-.434.407-.875.829-1.309 1.247M417.18 84.074l.855-.363M419.402 82.45l-2.222 1.624M425.11 77.57a120.353 120.353 0 0 0-5.708 4.875M425.11 77.57l.058-.32M425.168 77.25l1.344-.781M427.871 75.434c-.45.336-.91.687-1.36 1.035M426.805 76.008l1.066-.574M429.285 74.395l-2.48 1.613M435.137 70.484a96.53 96.53 0 0 0-5.852 3.91M435.137 70.484l-.141.047M434.996 70.531l1.566-.906M437.941 68.832c-.457.258-.925.527-1.383.797M439.363 68.043l-1.406.793M445.215 65.195a75.709 75.709 0 0 0-5.848 2.848M445.32 65.328l1.309-.723M447.988 64.066c-.45.172-.906.352-1.36.536M449.39 63.55l-1.21.575M455.098 61.836a57.878 57.878 0 0 0-5.707 1.715"/><path fill="none" stroke="#000" stroke-linecap="round" stroke-linejoin="round" stroke-miterlimit="10" stroke-width=".39851322" d="M424.797 76.414c-18.52 10.691-35.64 31.988-44.903 55.855-4.55 11.727-6.949 23.446-6.949 33.95M477.633 73.227l-15.309-5.41M477.633 73.227l-7.067-7.079M457.777 61.258l12.79 4.89M451.933 73.539l1.563-.531M478.078 74.172l-.445-.945M486.3 83.016l-.558-1.075M485.742 81.941l-15.39-4.984M463.46 69.074l15.321 5.352M447.988 64.066l12.95 4.164M485.742 81.941l-6.96-7.515M446.629 64.605l5.746 7.004M467.82 76.172l-15.445-4.563M483.824 116.719l-2.164-2.469M483.824 116.719l-8.129-11.399M474.77 104.36l.925.96M481.66 114.25l-6.89-9.89M475.695 105.32l-2.05-2.554M475.695 105.32l-8.066-10.988M466.808 93.23l.82 1.102M473.644 102.766l-6.836-9.536M467.629 94.332l-1.942-2.637M465.687 91.695l-6.808-9.156M458.723 82.5l-.961-1.434M457.762 81.066l-6.809-8.765M449.836 70.895l-4.621-5.7M450.648 72.215l-.812-1.32M491.914 128.309l-.973-.957M491.914 128.309l-8.09-11.59M482.8 115.902l1.024.817M489.773 126.125l-6.972-10.223M490.941 127.352l-1.168-1.227M452.375 71.61l-.66 1.648M491.258 125.031l.656 3.278M485.32 116.363l5.938 8.668M483.824 116.719l1.496-.356M489.773 126.125l-15.218-2.367M474.555 123.758l-.114 1.898M491.765 128.45l-.824-1.098M467.492 113.262l15.309 2.64M467.492 113.262l7.063 10.496M466.101 113.52l1.391-.258M481.66 114.25l-15.32-2.684M466.34 111.566l-.239 1.953M459.379 101.387l15.39 2.972M459.379 101.387l6.96 10.18M457.883 101.742l1.496-.355M473.644 102.766l-15.398-3.024M458.246 99.742l-.363 2M451.363 89.902l15.445 3.328M451.363 89.902l6.883 9.84M449.754 90.344l1.61-.442M465.687 91.695l-15.453-3.383M450.234 88.312l-.48 2.032M443.406 78.832l15.473 3.707M443.406 78.832l6.828 9.48M441.687 79.355l1.72-.523M494.441 92.352l-.68-1.204M493.762 91.148l-15.446-4.562M471.48 78.285l15.399 4.926M437.941 68.832l13.012 3.469M493.762 91.148l-6.883-7.937M436.562 69.625l5.723 7.68M457.762 81.066l-15.477-3.761M474.441 125.656l-2.375-2.265M474.441 125.656l-8.34-12.137M464.984 112.855l1.117.664M472.066 123.39l-7.082-10.535M466.101 113.52l-2.27-2.372M466.101 113.52l-8.218-11.778M456.86 100.926l1.023.816M463.832 111.148l-6.973-10.222M457.883 101.742l-2.16-2.469M457.883 101.742l-8.13-11.398M448.828 89.383l.926.96M455.723 99.273l-6.895-9.89M449.754 90.344l-2.051-2.555M449.754 90.344l-8.067-10.989M440.863 78.254l.824 1.101M447.703 87.789l-6.84-9.535M439.746 76.719l-4.61-6.235M441.687 79.355l-1.941-2.636M482.793 137.922l-1.067-.844M482.793 137.922l-8.352-12.266M473.238 125.144l1.203.512M480.45 135.969l-7.212-10.825M481.726 137.078l-1.277-1.11M442.285 77.305l-.598 2.05M481.855 134.691l.938 3.23M475.726 125.504l6.13 9.187M474.441 125.656l1.285-.152M480.45 135.969l-14.934-1.82M465.516 134.148l.136 1.754M482.656 138.082l-.93-1.004M458.168 123.102l15.07 2.042M458.168 123.102l7.348 11.046M456.988 123.14l1.18-.038M472.066 123.39l-15.09-2.081M456.976 121.309l.012 1.832M449.785 110.527l15.2 2.328M449.785 110.527l7.191 10.782M448.5 110.68l1.285-.153M463.832 111.148l-15.219-2.37M448.613 108.777l-.113 1.903M441.55 98.285l15.31 2.64M441.55 98.285l7.063 10.492M440.16 98.543l1.39-.258M455.723 99.273l-15.325-2.687M440.398 96.586l-.238 1.957M433.437 86.41l15.391 2.973M433.437 86.41l6.961 10.176M431.941 86.762l1.496-.352M502.531 102.172l-.812-1.324M501.719 100.848l-15.473-4.157M479.437 87.984l15.45 4.504M427.871 75.434l12.992 2.82M501.719 100.848l-6.832-8.36M426.512 76.469l5.789 8.297M447.703 87.789l-15.402-3.023M465.652 135.902l-2.578-2.03M465.652 135.902l-8.664-12.761M455.707 122.789l1.281.352M463.074 133.871l-7.367-11.082M456.988 123.14l-2.48-2.148M456.988 123.14l-8.488-12.46M447.297 110.168l1.203.512M454.508 120.992l-7.211-10.824M448.5 110.68l-2.375-2.266M448.5 110.68l-8.34-12.137M439.043 97.879l1.117.664M446.125 108.414l-7.082-10.535M440.16 98.543l-2.27-2.371M440.16 98.543l-8.219-11.781M430.918 85.95l1.023.812M437.89 96.172l-6.972-10.223M429.777 84.297l-4.668-6.727M431.941 86.762l-2.164-2.465M431.941 86.762l-6.773-9.512M474.375 148.723l-1.152-.715M474.375 148.723l-8.723-12.82M464.3 135.71l1.352.192M471.848 147.023l-7.547-11.312M473.223 148.008l-1.375-.985M432.3 84.766l-.359 1.996M473.144 145.602l1.23 3.12M466.734 135.984l6.41 9.618M465.652 135.902l1.082.082M471.848 147.023l-14.563-1.379M457.285 145.644l.383 1.563M474.25 148.902l-16.582-1.695M474.25 148.902l-1.027-.894M449.566 134.16l14.735 1.55M449.566 134.16l7.719 11.484M460.894 135.336l-12.316-1.383M448.578 133.953l.988.207M463.074 133.871l-14.758-1.582M448.316 132.289l.262 1.664M440.793 121.008l14.914 1.781M440.793 121.008l7.523 11.281M439.71 120.926l1.083.082M454.508 120.992l-14.934-1.82M439.574 119.172l.137 1.754M432.226 108.125l15.07 2.043M432.226 108.125l7.348 11.047M431.047 108.164l1.18-.039M446.125 108.414l-15.09-2.082M431.035 106.332l.012 1.832M423.844 95.55l15.199 2.329M423.844 95.55l7.191 10.782M422.558 95.703l1.286-.152M511.191 113.652l-.61-1.23M510.582 112.422l-.938-1.402M509.644 111.02l-15.476-3.762M487.363 98.156l15.473 4.098M418.035 83.71l12.883 2.24M509.644 111.02l-6.808-8.766M416.726 84.957l5.946 8.844M437.89 96.172 422.673 93.8M457.668 147.207l-2.758-1.773M457.668 147.207l-9.09-13.254M447.164 133.922l1.414.031M454.91 145.434l-7.746-11.512M448.578 133.953l-2.672-1.906M448.578 133.953l-8.867-13.027M438.36 120.734l1.35.192M445.906 132.047l-7.547-11.313M439.71 120.926l-2.577-2.032M439.71 120.926l-8.663-12.762M429.766 107.812l1.28.352M437.133 118.894l-7.367-11.082M431.047 108.164l-2.48-2.152M431.047 108.164l-8.489-12.46M421.355 95.191l1.203.512M428.566 106.012l-7.21-10.82M420.183 93.437l-4.804-7.16M422.558 95.703l-2.375-2.266M422.558 95.703l-6.949-10.129M466.867 160.445l-1.226-.578M466.867 160.445l-9.2-13.238M456.203 147.34l1.465-.133M464.176 159.02l-7.973-11.68M465.64 159.867l-1.464-.848M422.672 93.8l-.114 1.903M465.336 157.488l1.531 2.957M458.57 147.547l6.766 9.941M457.668 147.207l.902.34M464.176 159.02l-14.102-1.063M450.074 157.957l.621 1.336M466.758 160.637l-16.063-1.344M466.758 160.637l-1.117-.77M441.894 146.156l14.309 1.184M441.894 146.156l8.18 11.801M457.668 147.207l-16.594-1.523M441.074 145.684l.82.472M454.91 145.434l-14.34-1.207M440.57 144.227l.504 1.457M432.629 132.57l14.535 1.352M432.629 132.57l7.941 11.657M448.578 133.953l-16.848-1.723M431.73 132.23l.899.34M445.906 132.047l-14.562-1.38M431.344 130.668l.386 1.562M423.625 119.18l14.734 1.554M423.625 119.18l7.719 11.488M434.953 120.36l-12.32-1.387M422.633 118.973l.992.207M437.133 118.894l-14.758-1.582M422.375 117.312l.258 1.66M414.851 106.031l14.915 1.781M414.851 106.031l7.524 11.281M420.183 93.437l-10.226-1.433M413.77 105.95l1.081.081M495.289 108.785l13.203 3.145M508.492 111.93l2.7 1.722M408.672 93.457l12.683 1.734M501.117 116.86a95.048 95.048 0 0 1 7.375-4.93M407.445 94.89l6.188 9.305M428.566 106.012l-14.933-1.817M450.695 159.293l-2.918-1.504M450.695 159.293l-9.62-13.61M439.562 145.973l1.512-.29M447.777 157.789l-8.215-11.816M441.074 145.684l-2.84-1.641M441.074 145.684l-9.344-13.454M430.262 132.36l1.468-.13M438.234 144.043l-7.972-11.684M431.73 132.23l-2.761-1.773M431.73 132.23l-9.097-13.257M421.219 118.941l1.414.032M428.969 130.457l-7.75-11.516M422.633 118.973l-2.668-1.907M422.633 118.973l-8.864-13.024M412.418 105.758l1.351.191M419.965 117.066l-7.547-11.308M411.191 103.918l-5-7.523M413.77 105.95l-2.579-2.032M413.77 105.95l-7.227-10.645M460.45 172.805l-1.286-.442M460.45 172.805l-9.755-13.512M449.148 159.742l1.547-.45M457.621 171.664l-8.473-11.922M459.164 172.363l-1.543-.699M413.633 104.195l.136 1.754M458.621 170.062l1.828 2.743M451.437 159.902l7.184 10.16M450.695 159.293l.742.61M457.621 171.664l-13.57-.883M444.05 170.781l.844 1.074M460.36 173.004l-15.466-1.149M460.36 173.004l-1.196-.64M435.34 158.797l13.808.945M435.34 158.797l8.71 11.984M450.695 159.293l-16.027-1.25M434.668 158.043l.672.754M447.777 157.789l-13.844-.953M433.933 156.836l.735 1.207M425.496 144.926l14.066 1.047M425.496 144.926l8.437 11.91M441.074 145.684l-16.32-1.372M424.754 144.312l.742.614M438.234 144.043l-14.101-1.063M424.133 142.98l.62 1.332M415.953 131.18l14.309 1.18M415.953 131.18l8.18 11.8M431.73 132.23l-16.597-1.527M415.133 130.703l.82.477M428.969 130.457l-14.34-1.207M414.629 129.25l.504 1.453M406.687 117.59l14.532 1.351M406.687 117.59l7.942 11.66M411.191 103.918l-10.008-1.094M422.633 118.973l-16.848-1.72M405.785 117.254l.902.336M409.012 105.383l-9.477-1.074M485.32 116.363l13.133 2.52M498.453 118.883l2.906 1.355M400.016 104.437l12.402 1.32M491.258 125.031a116.432 116.432 0 0 1 7.195-6.148M398.898 106.02l6.504 9.671M419.965 117.066l-14.563-1.375M444.894 171.855l-3.046-1.214M442.023 168.02l-7.355-9.977M433.094 158.652l1.574-.61M441.848 170.64l-8.754-11.988M434.668 158.043l-2.988-1.36M434.668 158.043l-9.914-13.73M423.207 144.766l1.547-.454M431.68 156.684l-8.473-11.918M424.754 144.312l-2.918-1.5M424.754 144.312l-9.621-13.609M413.621 130.996l1.512-.293M421.836 142.812l-8.215-11.816M415.133 130.703l-2.84-1.637M415.133 130.703l-9.348-13.45M404.32 117.383l1.465-.13M412.293 129.066l-7.973-11.683M403.027 115.477l-5.261-7.81M405.785 117.254l-2.758-1.777M405.785 117.254l-7.586-11.05M455.285 185.492l-1.332-.3M443.308 172.613l1.586-.758M452.348 184.64l-9.04-12.027M453.953 185.191l-1.605-.55M405.402 115.691l.383 1.563M453.172 183.016l2.113 2.476M445.508 172.754l7.664 10.262M444.894 171.855l.614.899M452.348 184.64l-12.977-.835M439.371 183.805l1.043.789M455.215 185.695l-14.801-1.101M455.215 185.695l-1.262-.504M430.066 171.777l13.242.836M430.066 171.777l9.305 12.028M444.894 171.855l-15.382-1.12M429.512 170.734l.554 1.043M441.848 170.64l-13.282-.84M428.566 169.8l.946.934M419.566 157.777l13.528.875M419.566 157.777l9 12.024M434.668 158.043l-15.715-1.164M418.953 156.879l.613.898M431.68 156.684l-13.57-.88M418.11 155.805l.843 1.074M409.398 143.82l13.809.946M409.398 143.82l8.711 11.985M424.754 144.312l-16.028-1.246M408.726 143.066l.672.754M421.836 142.812l-13.844-.953M407.992 141.86l.734 1.206M399.555 129.95l14.066 1.046M399.555 129.95l8.437 11.91M403.027 115.477l-9.726-.829M415.133 130.703l-16.325-1.367M398.808 129.336l.747.613M405.785 117.254l-13.832-1.281M475.726 125.504l12.965 1.973M488.691 127.477l3.074.972M392.27 116.379l12.05 1.004M481.855 134.691a135.386 135.386 0 0 1 6.836-7.214M391.297 118.07l6.89 9.93M412.293 129.066 398.187 128M440.414 184.594l-3.148-.926M427.918 171.64l1.594-.906M437.266 183.668l-9.348-12.027M429.512 170.734l-3.102-1.07M417.367 157.637l1.586-.758M426.41 169.664l-9.043-12.027M418.953 156.879l-3.047-1.215M416.082 153.043l-7.356-9.977M407.152 143.672l1.574-.606M415.906 155.664l-8.754-11.992M408.726 143.066l-2.988-1.359M408.726 143.066l-9.918-13.73M397.266 129.785l1.542-.45M405.738 141.707l-8.472-11.922M395.894 127.836l-5.582-8.008M398.808 129.336l-2.914-1.5M398.808 129.336l-8.027-11.34M451.496 198.2l-1.363-.165M438.828 185.64l1.586-1.046M448.488 197.637l-9.66-11.996M450.133 198.035l-1.645-.398M398.187 128l.621 1.336M449.113 196.023l2.383 2.176M440.926 185.781l8.187 10.242M440.414 184.594l.512 1.187M448.488 197.637l-12.34-.93M436.148 196.707l1.22.48M451.45 198.398l-14.083-1.21M451.45 198.398l-1.317-.363M426.207 184.77l12.621.87M426.207 184.77l9.941 11.937M440.414 184.594l-14.68-1.157M425.734 183.437l.473 1.332M437.266 183.668l-12.665-.863M424.601 182.805l1.133.632M414.984 170.805l12.934.836M414.984 170.805l9.617 12M429.512 170.734l-15.04-1.117M414.473 169.617l.511 1.188M426.41 169.664l-12.98-.836M413.43 168.828l1.043.79M404.129 156.8l13.238.837M404.129 156.8l9.3 12.028M418.953 156.879l-15.383-1.121M403.57 155.758l.559 1.043M415.906 155.664l-13.281-.84M402.625 154.824l.945.934M393.621 142.8l13.531.872M393.621 142.8l9.004 12.024M395.894 127.836l-9.394-.656M408.726 143.066l-15.714-1.164M393.012 141.902l.609.899M398.808 129.336l-13.363-1.043M466.734 135.984l12.719 1.508M479.453 137.492l3.203.59M385.637 128.988l11.629.797M473.144 145.602a146.97 146.97 0 0 1 6.309-8.11M384.824 130.746l7.344 10.082M405.738 141.707l-13.57-.879M437.367 197.187l-3.219-.64M424.16 184.621l1.574-1.184M434.148 196.547l-9.988-11.926M425.734 183.437l-3.187-.78M412.883 170.664l1.59-1.047M422.547 182.656l-9.664-11.992M414.473 169.617l-3.149-.926M401.976 156.664l1.594-.906M411.324 168.691l-9.348-12.027M403.57 155.758l-3.105-1.07M391.426 142.66l1.586-.758M400.465 154.687l-9.04-12.027M389.96 140.687l-5.944-8.12M393.012 141.902l-3.051-1.215M390.14 138.066l-5.667-7.668M449.183 210.61l-1.378-.032M435.816 198.5l1.551-1.313M446.133 210.324 435.816 198.5M447.805 210.578l-1.672-.254M392.168 140.828l.844 1.074M446.555 208.773l2.628 1.836M437.808 198.66l8.747 10.113M437.367 197.187l.441 1.473M446.133 210.324l-11.676-1.156M434.457 209.168l1.367.164M449.16 210.8l-13.336-1.468M449.16 210.8l-1.355-.222M423.851 197.46l11.965 1.04M423.851 197.46l10.606 11.708M437.367 197.187l-13.934-1.34M423.433 195.848l.418 1.613M434.148 196.547l-12.011-1.024M422.137 195.523l1.296.325M411.867 183.684l12.293.937M411.867 183.684l10.27 11.84M425.734 183.437l-14.308-1.226M411.426 182.21l.441 1.474M422.547 182.656l-12.34-.926M410.207 181.73l1.219.48M400.266 169.793l12.617.871M400.266 169.793l9.94 11.937M414.473 169.617l-14.68-1.156M399.793 168.46l.473 1.333M411.324 168.691l-12.664-.867M398.66 167.824l1.133.637M389.043 155.824l12.933.84M389.043 155.824l9.617 12M389.96 140.687l-9.015-.574M403.57 155.758l-15.039-1.121M388.531 154.637l.512 1.187M393.012 141.902l-12.832-.937M458.57 147.547l12.39 1.14M470.96 148.687l3.29.215M380.273 141.953l11.153.707M465.336 157.488c1.777-3 3.664-5.945 5.629-8.8M379.644 143.734l7.844 10.118M400.465 154.687l-12.977-.835M435.824 209.332l-3.254-.363M421.914 197.277l1.52-1.43M432.57 208.969l-10.656-11.692M423.433 195.848l-3.242-.5M409.871 183.523l1.555-1.312M420.191 195.348l-10.32-11.825M411.426 182.21l-3.22-.64M398.219 169.644l1.574-1.183M408.207 181.57l-9.988-11.926M399.793 168.46l-3.188-.78M386.941 155.687l1.59-1.05M396.605 167.68l-9.664-11.993M385.383 153.71l-6.356-8.136M388.531 154.637l-3.148-.926M448.394 222.422l-1.37.09M434.348 210.875l1.476-1.543M445.34 222.394l-10.992-11.52M447.023 222.512l-1.683-.118M387.488 153.852l1.043.785M445.55 220.945l2.844 1.477M436.23 211.082l9.32 9.863M435.824 209.332l.406 1.75M445.34 222.394l-10.992-1.507M448.394 222.602l-1.37-.09M423.058 209.531l11.29 1.344M423.058 209.531l11.29 11.356M422.7 207.832l.358 1.7M432.57 208.969l-11.336-1.317M410.285 196.102l11.629 1.175M410.285 196.102l10.95 11.55M423.433 195.848l-13.55-1.493M409.883 194.355l.402 1.747M420.191 195.348l-11.675-1.157M408.516 194.191l1.367.164M397.91 182.48l11.961 1.043M397.91 182.48l10.606 11.711M411.426 182.21l-13.934-1.339M397.492 180.871l.418 1.61M408.207 181.57l-12.012-1.023M396.195 180.547l1.297.324M385.922 168.707l12.297.937M385.922 168.707l10.273 11.84M385.383 153.71l-8.602-.577M399.793 168.46l-14.309-1.226M385.484 167.234l.438 1.473M388.531 154.637l-12.246-.957M451.437 159.902l11.993.887M463.43 160.789l3.328-.152M376.312 154.957l10.63.73M458.621 170.062a156.767 156.767 0 0 1 4.809-9.273M375.887 156.719l8.379 10.035M396.605 167.68l-12.34-.926M434.121 220.664l-1.55-.047M421.234 209.297l1.285-1.488M432.57 220.617l-11.336-11.32M421.121 207.535l-1.723-.117M408.406 195.898l1.477-1.543M419.398 207.418l-10.992-11.52M409.883 194.355l-3.254-.363M395.973 182.3l1.52-1.429M406.629 193.992l-10.656-11.691M397.492 180.871l-3.242-.5M383.933 168.547l1.551-1.313M394.25 180.371l-10.317-11.824M382.266 166.594l-6.793-8.063M385.484 167.234l-3.218-.64M449.16 233.34l-1.355.199M434.457 222.46l1.101-1.398M446.133 233.555l-11.676-11.094M447.805 233.539l-1.672.016M384.266 166.754l1.218.48M446.133 232.242l3.027 1.098M436.23 222.73l9.903 9.512M435.91 221.113l.32 1.617M446.133 233.555l-10.317-1.993M449.183 233.5l-1.378.039M423.851 220.691l10.606 1.77M423.851 220.691l11.965 10.871M423.558 219.168l.293 1.523M432.57 220.617l-10.656-1.734M410.285 207.754l10.95 1.543M410.285 207.754l11.629 11.129M409.969 206.137l.316 1.617M419.398 207.418l-10.992-1.512M397.117 194.555l11.29 1.343M397.117 194.555l11.29 11.351M396.758 192.855l.36 1.7M406.629 193.992l-11.336-1.32M384.348 181.125l11.625 1.176M384.348 181.125l10.945 11.547M382.266 166.594l-8.16-.684M397.492 180.871l-13.55-1.496M383.941 179.375l.407 1.75M385.484 167.234l-11.629-1.109M445.508 172.754l11.53.742M457.039 173.496l3.32-.492M373.851 167.676l10.082.87M453.172 183.016a148.095 148.095 0 0 1 3.863-9.52M373.637 169.375l8.937 9.84M394.25 180.371l-11.676-1.156M435.36 231.16l-1.212.055M422.137 220.379l.925-1.297M434.148 231.215l-12.011-10.836M421.574 218.562l-1.383.016M408.516 207.484l1.101-1.398M420.191 218.578l-11.675-11.094M408.18 205.684l-1.551-.043M395.293 194.32l1.285-1.488M406.629 205.64l-11.336-11.32M395.18 192.559l-1.723-.118M382.465 180.922l1.476-1.547M393.457 192.441l-10.992-11.52M380.683 179.012l-7.242-7.895M383.941 179.375l-3.258-.363M451.45 243.098l-1.317.296M436.148 232.973l.762-1.184M448.488 243.523l-12.34-10.55M450.133 243.394l-1.645.13M382.574 179.215l1.367.16M448.281 242.387l3.168.71M437.808 233.328l10.473 9.059M437.539 231.918l.27 1.41M448.488 243.523l-9.66-2.578M451.496 243.238l-1.363.156M426.207 230.66l9.941 2.313M426.207 230.66l12.621 10.285M425.96 229.379l.247 1.281M434.148 231.215l-9.988-2.27M411.867 218.352l10.27 2.027M411.867 218.352l12.293 10.593M411.598 216.941l.27 1.41M420.191 218.578l-10.32-1.992M397.91 205.715l10.606 1.77M397.91 205.715l11.961 10.87M397.617 204.191l.293 1.524M406.629 205.64l-10.656-1.734M384.348 192.777l10.945 1.543M384.348 192.777l11.625 11.13M380.683 179.012l-7.703-.871M384.023 191.156l.325 1.621M440.926 185.781l11.023.715M451.95 186.496l3.265-.8M372.95 179.8l9.515 1.122M449.113 196.023a135.56 135.56 0 0 1 2.836-9.527M372.95 181.394l9.515 9.536M393.457 192.441l-10.992-1.511M438.137 240.398l-.871.098M424.601 230.254l.614-1.055M437.266 240.496 424.6 230.254M423.59 228.46l-1.043.087M410.207 217.996l.762-1.184M422.547 228.547l-12.34-10.551M409.418 216.184l-1.211.054M396.195 205.402l.926-1.297M408.207 216.238l-12.012-10.836M395.633 203.586l-1.383.016M382.574 192.508l1.102-1.403M394.25 203.602l-11.676-11.094M380.683 190.664l-7.703-7.645M382.238 190.707l-1.555-.043M455.215 251.453l-1.262.379M439.371 242.152l.48-.914M452.348 252.059l-12.977-9.907M453.953 251.832l-1.605.227M451.95 251.125l3.265.328M440.926 242.61l11.023 8.515M440.7 241.473l.226 1.136M452.348 252.059l-9.04-3.262M455.285 251.574l-1.332.258M430.066 239.195l9.305 2.957M430.066 239.195l13.242 9.602M429.863 238.226l.203.97M437.266 240.496l-9.348-2.906M414.984 227.633l9.617 2.62M414.984 227.633l12.934 9.957M414.758 226.496l.226 1.137M422.547 228.547l-9.664-2.578M400.266 215.684l9.94 2.312M400.266 215.684l12.617 10.285M400.02 214.398l.246 1.286M408.207 216.238l-9.988-2.273M385.922 203.375l10.273 2.027M385.922 203.375l12.297 10.59M380.683 190.664l-7.242-1.152M385.656 201.965l.266 1.41M437.808 198.66l10.473.805M448.281 199.465l3.168-1.067M373.637 191.031l8.937 1.477M446.555 208.773a117.292 117.292 0 0 1 1.726-9.304M373.851 192.48l10.082 9.13M394.25 203.602l-10.317-1.993M442.375 248.14l-.527.094M428.566 238.68l.356-.762M441.848 248.234l-13.282-9.554M427.11 236.98l-.7.102M413.43 227.176l.48-.918M426.41 237.082l-12.98-9.906M412.195 225.418l-.87.101M398.66 215.277l.613-1.054M411.324 225.52l-12.664-10.243M397.648 213.484l-1.043.086M384.266 203.02l.761-1.184M396.605 213.57l-12.34-10.55M382.266 201.262l-8.16-7.309M383.476 201.203l-1.21.059M460.36 258.203l-1.196.438M444.05 249.773l.247-.597M457.621 258.95l-13.57-9.177M459.164 258.64l-1.543.31M457.039 258.246l3.32-.043M445.508 250.344l11.53 7.902M445.332 249.562l.176.782M457.621 258.95l-8.473-4.02M460.45 258.297l-1.286.344M435.34 246.086l8.71 3.687M435.34 246.086l13.808 8.844M435.203 245.516l.137.57M441.848 248.234l-8.754-3.633M419.566 235.367l9 3.313M419.566 235.367l13.528 9.234M419.39 234.586l.176.781M426.41 237.082l-9.043-3.262M404.129 224.219l9.3 2.957M404.129 224.219l13.238 9.601M403.926 223.246l.203.973M411.324 225.52l-9.348-2.91M389.043 212.652l9.617 2.625M389.043 212.652l12.933 9.957M382.266 201.262l-6.793-1.512M388.816 211.52l.227 1.132M436.23 211.082l9.903 1.008M446.133 212.09l3.027-1.29M375.887 201.09l8.379 1.93M445.55 220.945c.051-2.875.25-5.843.583-8.855M376.312 202.36l10.63 8.632M396.605 213.57l-9.664-2.578M447.965 254.191l-.188.043M433.933 245.45l.149-.419M447.777 254.234l-13.844-8.785M432.039 243.898l-.36.075M418.11 234.793l.245-.594M431.68 243.973l-13.57-9.18M416.433 233.16l-.527.094M402.625 223.703l.355-.762M415.906 233.254l-13.281-9.55M401.168 222.004l-.703.101M387.488 212.195l.48-.914M400.465 222.105l-12.977-9.91M385.383 210.543l-8.602-6.902M386.254 210.441l-.871.102M466.758 263.184l-1.117.476M450.074 255.644l.067-.222M464.176 264.027l-14.102-8.383M465.64 263.66l-1.464.367M463.43 263.57l3.328-.386M451.437 256.348l11.993 7.222M451.351 256.016l.086.332M466.867 263.246l-1.226.414M441.894 251.16l8.18 4.484M441.879 251.105l.015.055M447.777 254.234l-8.215-4.425M425.496 241.371l8.437 4.078M425.496 241.371l14.066 8.438M425.41 241.039l.086.332M431.68 243.973l-8.473-4.024M409.398 231.105l8.711 3.688M409.398 231.105l13.809 8.844M409.262 230.539l.136.566M415.906 233.254l-8.754-3.633M393.621 220.39l9.004 3.313M393.621 220.39l13.531 9.231M385.383 210.543l-6.356-1.938M393.45 219.61l.171.78M436.23 222.73l9.32 1.329M445.55 224.059l2.844-1.457M379.644 209.73l7.844 2.465M446.133 232.242a75.395 75.395 0 0 1-.582-8.183M380.273 210.789l11.153 8.055M400.465 222.105l-9.04-3.261M440.57 250.39l.004-.011M441.887 251.14l-1.317-.75M438.254 249.043l-.02.004M424.133 240.668l.066-.223M438.234 249.047l-14.101-8.38M422.023 239.215l-.187.043M407.992 230.469l.149-.414M421.836 239.258l-13.844-8.79M406.098 228.922l-.36.074M392.168 219.816l.246-.593M405.738 228.996l-13.57-9.18M389.96 218.277l-9.015-6.43M390.492 218.184l-.531.093M474.25 266.266l-1.027.492M471.848 267.164l-.528-.266M473.223 266.758l-1.375.406M470.96 266.973l3.29-.707M474.375 266.297l-1.152.46M440.07 250.094l.5.297M415.953 236.184l8.18 4.484M415.937 236.125l.016.059M421.836 239.258l-8.215-4.426M399.555 226.394l8.437 4.075M399.555 226.394l14.066 8.438M389.96 218.277l-5.944-2.422M399.469 226.062l.086.332M437.808 233.328l8.747 1.746M446.555 235.074l2.628-1.574M384.824 216.738l7.344 3.078M448.281 242.387a59.02 59.02 0 0 1-1.726-7.313M385.637 217.559l11.629 7.414M405.738 228.996l-8.472-4.023M414.629 235.414l.004-.012M415.945 236.164l-1.316-.75M412.312 234.066l-.02.004M398.187 225.691l.07-.222M412.293 234.07l-14.106-8.379M395.894 224.281l-9.394-5.91M396.082 224.234l-.188.047M414.129 235.117l.5.297M395.894 224.281l-5.582-2.957M440.926 242.61l8.187 2.253M449.113 244.863l2.383-1.625M391.297 221.941l6.89 3.75M451.95 251.125a44.24 44.24 0 0 1-2.833-6.262M445.508 250.344l7.664 2.847M453.172 253.191l2.113-1.617M457.039 258.246a35.323 35.323 0 0 1-3.867-5.055M451.437 256.348l7.184 3.5M458.621 259.848l1.828-1.551M463.43 263.57a30.873 30.873 0 0 1-4.809-3.722M464.234 264.012l1.102.66M465.336 264.672l1.531-1.426M470.96 266.973a30.967 30.967 0 0 1-5.624-2.301M472.41 266.996l.734.547M473.144 267.543l1.23-1.246M477.133 268.195a33.958 33.958 0 0 1-3.989-.648M562.18 114.215l-.176-1.227M562.004 112.988l-.336-1.394M562.644 112.523l-.464 1.692M561.8 112.164l.844.36M561.668 111.594l-.496-.325M562.09 114.121l-.086-1.133M555.785 109.238l-.258-1.27M555.527 107.969l-.414-1.453M556.254 107.2l-.469 2.038M555.129 106.574l1.125.625M555.113 106.516l-14.308-8.02M540.805 98.496l-.16.168M555.672 109.172l-.145-1.203M532.832 93.652l7.973 4.844M532.773 93.668l.059-.016M532.812 93.656l-1.308-.765M531.504 92.89l-.012.008M530.996 92.605l.508.286M538.492 97.398l-.059-.187M538.433 97.21l-7.937-4.901M529.176 91.559l-.004-.02M548.289 106.156l-.348-1.289M547.441 103.379l-7.722-5.328M547.941 104.867l-.5-1.488M548.719 103.797l-.43 2.36M542.094 99.324l6.625 4.473M541.765 99.414l.329-.09M547.441 103.379l-14.734-7.164M532.707 96.215l-.395.512M548.164 106.121l-.223-1.254M525.16 90.516l14.559 7.535M525.16 90.516l7.547 5.699M524.598 90.684l.562-.168M538.433 97.21l-14.53-7.597M523.902 89.613l-.285.34M516.152 84.348l14.344 7.96M516.152 84.348l7.75 5.265M515.824 84.437l.328-.09M529.172 91.539l-14.309-8.023M514.863 83.516l-.16.171M506.89 78.676l7.973 4.84M506.832 78.691l.058-.015M506.871 78.68l-1.309-.766M505.562 77.914l-.011.008M505.055 77.629l.507.285M530.457 95.582l-.188-.508M530.27 95.074l-7.52-5.762M521.613 88.75l-.113-.348M521.5 88.402l-7.723-5.328M512.55 82.418l-.058-.184M512.492 82.234l-7.937-4.902M503.234 76.582l-.004-.02M539.883 105.043l-.442-1.281M538.836 102.258l-7.344-6.2M539.441 103.762l-.605-1.504M540.226 102.406l-.343 2.637M533.933 97.187l6.293 5.22M533.168 97.43l.765-.243M538.836 102.258l-15.067-6.285M523.77 95.973l-.555.87M539.746 105.043l-.305-1.281M516.555 89.395l14.937 6.664M516.555 89.395l7.214 6.578M515.613 89.703l.942-.308M530.27 95.074l-14.91-6.722M515.36 88.352l-.485.687M507.988 82.21l14.762 7.102M507.988 82.21l7.371 6.142M507.226 82.453l.762-.242M521.5 88.402l-14.735-7.164M506.765 81.238l-.394.512M499.219 75.539l14.558 7.535M499.219 75.539l7.546 5.7M498.656 75.703l.563-.164M512.492 82.234l-14.531-7.597M497.96 74.637l-.284.336M490.21 69.371l14.345 7.961M490.21 69.371l7.75 5.266M489.883 69.46l.328-.089M482.23 64.441l6.692 4.098M503.23 76.562l-14.308-8.023M521.629 95.781l-.348-.804M521.281 94.977l-7.191-6.641M513.156 87.937l-.262-.656M512.894 87.281l-7.343-6.199M504.515 80.605l-.187-.507M504.328 80.098l-7.52-5.762M495.672 73.773l-.114-.347M495.558 73.426l-7.722-5.328M486.55 67.258l-5.35-3.36M486.61 67.441l-.06-.183M530.773 105.93l-.55-1.258M529.515 103.184l-7.066-7.079M530.223 104.672l-.708-1.488M488.922 68.539l-.16.168M530.988 103.055l-.215 2.875M524.941 97.09l6.047 5.965M523.844 97.46l1.097-.37M529.515 103.184l-15.308-5.414M514.207 97.77l-.645 1.253M530.625 105.96l-.402-1.288M507.234 90.316l15.215 5.79M507.234 90.316l6.973 7.454M506 90.746l1.234-.43M521.281 94.977l-15.203-5.848M506.078 89.129l-.605 1.062M499 82.113l15.09 6.223M499 82.113l7.078 7.016M497.902 82.484l1.098-.37M512.894 87.281l-15.07-6.285M497.824 80.996l-.55.871M490.613 74.418l14.938 6.664M490.613 74.418l7.211 6.578M489.672 74.727l.941-.31M504.328 80.098l-14.91-6.723M489.418 73.375l-.485.687M482.047 67.234l14.761 7.102M482.047 67.234l7.37 6.141M486.55 67.258l-9.812-5.184M481.285 67.473l.762-.239M475.601 61.734l12.235 6.364M562.644 112.523a34.725 34.725 0 0 1 2.559 3.133M474.484 61.441l6.34 4.82M495.558 73.426l-14.734-7.164M513.988 99.504l1.356-.473M521.23 105.734l-.047 3.059M515.344 99.031l5.886 6.703M480.824 66.262l-.394.511M519.703 106.125l-6.883-7.938M520.527 107.582l-.824-1.457M521.183 108.793l-.656-1.211M511.683 96.918l-6.96-7.516M512.242 97.996l-.559-1.078M503.574 88.207l-7.062-7.082M504.02 89.148l-.446-.941M495.34 80l-7.192-6.64M495.687 80.805 495.34 80M486.953 72.305l-7.344-6.203M487.215 72.96l-.262-.655M478.387 65.121l-5.07-3.941M478.574 65.625l-.187-.504M478.387 65.121l-10.075-4.594M561.058 110.922l1.032 3.2M467.055 60.473l12.554 5.629M465.828 60.46l6.055 5.56M486.953 72.305l-15.07-6.285M556.254 107.2a30.843 30.843 0 0 1 4.804 3.722M471.883 66.02l-.551.87M542.094 99.324l12.254 6.774M554.348 106.098l1.324 3.074M473.058 67.137l15.09 6.222M473.058 67.137l7.079 7.015M495.34 80l-15.203-5.848M548.719 103.797a31.005 31.005 0 0 1 5.629 2.3M480.137 74.152l-.606 1.059M533.933 97.187l12.606 6.04M546.539 103.227l1.625 2.894M481.293 75.34l15.219 5.785M481.293 75.34l6.972 7.453M503.574 88.207l-15.309-5.414M540.226 102.406a35.31 35.31 0 0 1 6.313.82M488.265 82.793l-.644 1.254M524.941 97.09l12.883 5.289M537.824 102.379l1.922 2.664M489.402 84.05l15.32 5.352M489.402 84.05l6.895 7.884M511.683 96.918l-15.386-4.984M530.988 103.055a44.406 44.406 0 0 1 6.836-.676M496.297 91.934l-.664 1.449M495.957 93.773l1.465-.511M497.422 93.262l15.398 4.925M528.426 103.574l2.199 2.387M521.23 105.734a57.912 57.912 0 0 1 7.196-2.16M521.027 108.855l-.5-1.273M518.566 106.785l2.461 2.07M511.187 110.371a76.948 76.948 0 0 1 7.38-3.59M511.187 110.371l.16 3.191M511.348 113.562l-.766-1.14"/><path fill="none" stroke="#000" stroke-linecap="round" stroke-linejoin="round" stroke-miterlimit="10" stroke-width=".39851322" d="M563.2 115.605c-19.544-21.699-58.544-7.632-87.106 31.426-18.477 25.262-28.809 56.106-27.102 80.89 1.45 21.036 11.422 35.22 27.102 38.555M497.422 93.262l6.836 8.3M519.703 106.125l-15.445-4.563M515.344 99.031l13.082 4.543"/><path fill="none" stroke="#000" stroke-linecap="round" stroke-linejoin="round" stroke-miterlimit="10" stroke-width=".39851322" d="M524.375 130.133c-19.688 11.367-37.887 34.004-47.73 59.375-4.837 12.465-7.387 24.922-7.387 36.09"/><path fill="none" stroke="#000" stroke-linecap="round" stroke-linejoin="round" stroke-miterlimit="10" stroke-width=".39851322" d="M581.035 120.45c-24.852-15.513-65.965 7.28-91.828 50.91-16.727 28.222-23.61 59.66-18.055 82.46 3.113 12.77 9.946 21.992 19.606 26.453"/><path fill="none" stroke="#000" stroke-linecap="round" stroke-linejoin="round" stroke-miterlimit="10" stroke-width=".39851322" d="M525.207 293.832c-32.543 1.375-46.703-35.027-31.621-81.313 15.078-46.285 53.687-84.925 86.23-86.304 19.739-.836 33.594 12.457 36.89 35.387"/><path fill="none" stroke="#000" stroke-linecap="round" stroke-linejoin="round" stroke-miterlimit="10" stroke-width=".39851322" d="m581.91 121.016-4.637-2.141-5.023-1.375-5.36-.59-5.652.203-5.894 1.012-6.086 1.836-12.473 6.035-12.473 8.883-11.996 11.371-11.043 13.496-9.617 15.129-7.867 16.14-5.84 16.536-3.527 16.308-1.016 15.43 1.465 14 1.633 6.309 2.219 5.761 2.796 5.153 3.364 4.484 3.902 3.758 4.39 3.004"/><path fill="none" stroke="#000" stroke-linecap="round" stroke-linejoin="round" stroke-miterlimit="10" stroke-width=".39851322" d="m588.055 124.512-4.641-2.13-5.031-1.347-5.375-.566-5.66.222-5.891 1.012-6.078 1.805-12.473 5.984-12.465 8.91-11.988 11.41-11.055 13.48-9.644 15.11-7.844 16.14-5.805 16.54-3.547 16.312-1.062 15.454 1.484 13.98 3.895 12.035 2.8 5.153 3.352 4.5 3.875 3.789 4.38 3.03"/><path fill="none" stroke="#000" stroke-linecap="round" stroke-linejoin="round" stroke-miterlimit="10" stroke-width=".39851322" d="m594.187 128.023-4.632-2.14-5.036-1.34-5.379-.547-5.667.242-5.899 1.031-6.078 1.81-12.469 5.937-12.465 8.898-11.98 11.438-11.047 13.496-9.664 15.09-7.856 16.136-5.777 16.535-3.527 16.313-1.098 15.469 1.465 13.992 1.668 6.277 2.254 5.73 2.816 5.137 3.356 4.492 3.87 3.801 4.36 3.059"/><path fill="none" stroke="#000" stroke-linecap="round" stroke-linejoin="round" stroke-miterlimit="10" stroke-width=".39851322" d="m506.469 289.387-4.45-3.051-3.96-3.793-3.438-4.5-2.871-5.184-2.258-5.828-1.625-6.414-1.348-14.273 1.157-15.7 3.632-16.53 6.043-16.74 8.172-16.269 9.914-15.191 11.278-13.523 12.226-11.254 12.668-8.563 12.598-5.633 6.121-1.64 5.914-.82 5.645.03 5.308.891 4.93 1.711 4.512 2.5"/><path fill="none" stroke="#000" stroke-linecap="round" stroke-linejoin="round" stroke-miterlimit="10" stroke-width=".39851322" d="m502.86 287.195-4.778-2.738-4.29-3.535-3.76-4.29-3.2-5.003-2.594-5.672-1.953-6.305-1.273-6.883-.594-7.37.816-15.887 3.395-16.848 5.867-17.137 8.172-16.715 10.058-15.613 11.497-13.914 12.48-11.617 12.957-8.758 6.48-3.219 6.395-2.41 6.246-1.59 6.024-.746 5.746.117 5.394 1.004 4.977 1.887 4.511 2.73"/><path fill="none" stroke="#000" stroke-linecap="round" stroke-linejoin="round" stroke-miterlimit="10" stroke-width=".39851322" d="m496.715 283.687-4.778-2.734-4.277-3.547-3.746-4.308-3.184-5.024-2.59-5.683-1.96-6.297-1.301-6.856-.614-7.367.829-15.887 3.43-16.855 5.866-17.14 8.137-16.727 10.067-15.602 11.511-13.89 12.48-11.63 12.954-8.8 6.48-3.211 6.391-2.395 6.238-1.566 6.024-.73 5.742.12 5.402.985 4.992 1.855 4.524 2.723"/><path fill="none" stroke="#000" stroke-linecap="round" stroke-linejoin="round" stroke-miterlimit="10" stroke-width=".39851322" d="m486.082 236.234 1.7-13.695 3.651-14.215 5.457-14.262 7.032-13.863 8.367-13.035 9.469-11.77 10.277-10.082 10.723-8.125"/><path fill="none" stroke="#000" stroke-linecap="round" stroke-linejoin="round" stroke-miterlimit="10" stroke-width=".39851322" d="m479.976 232.7 1.73-13.712 3.602-14.21 5.418-14.266 7.055-13.84 8.406-13.008 9.47-11.777 10.253-10.149 10.719-8.136M473.8 229.191l2.102-15.324 4.403-15.875 6.527-15.808 8.445-15.118"/><path fill="none" stroke="#000" stroke-linecap="round" stroke-linejoin="round" stroke-miterlimit="10" stroke-width=".39851322" d="m485.633 275.82-3.727-3.68-3.207-4.355-2.66-4.996-2.094-5.602-2.398-12.796.07-14.47 2.547-15.609 4.93-16.101 7.132-15.973 9.051-15.172M542.676 289.832c-6.04 2.418-11.922 3.766-17.465 4M495.277 167.066c6.79-10.343 14.703-19.586 23.184-27.078M601.558 149.664c-21.207-12.242-55.59 7.61-76.793 44.336-21.207 36.73-21.207 76.43 0 88.672M469.746 65.824l-.348-.8M469.398 65.023l-10.277-4M471.96 67.508l1.098-.371M469.398 65.023l-4.855-4.535M459.8 66.96l-10.41-3.41M480.058 75.77l1.235-.43M449.836 70.895l-10.473-2.852M488.047 84.527l1.355-.476M439.746 76.719l-10.461-2.324M504.258 101.562l-.66 1.653M429.777 84.297l-10.375-1.848M503.816 103.492l1.563-.531M505.379 102.96l13.187 3.825M505.379 102.96l5.808 7.411M293.117 44.809a93.118 93.118 0 0 0-13.379 23.171"/><path fill="none" stroke="#000" stroke-linecap="round" stroke-linejoin="round" stroke-miterlimit="10" stroke-width=".39851322" d="M324.375 16.793c-17.574-3.531-41.426 15.605-53.27 42.738-8.734 20.008-8.734 39.606 0 49.531M252.098 66.234l-2.547-.402-1.828 1.313-2.055 4.601-1.172 12.063.238 6.472.934 6.942 2.055 6.98 1.828 3.418 2.547 2.543"/><path fill="none" stroke="#000" stroke-linecap="round" stroke-linejoin="round" stroke-miterlimit="10" stroke-width=".19875722" d="M258 51.035a111.072 111.072 0 0 0-5.902 15.2"/><path fill="none" stroke="#000" stroke-linecap="round" stroke-linejoin="round" stroke-miterlimit="10" stroke-width=".39851322" d="m258 51.035-1.742-2.465-.055-3.254 2.281-6.582 8.367-12.539 4.985-5.761 5.726-5.43 6.387-4.207 3.594-1.149 3.348.473"/><path fill="none" stroke="#000" stroke-linecap="round" stroke-linejoin="round" stroke-miterlimit="10" stroke-width=".19875722" d="M302.719 3.29c-3.926 1.71-7.903 4.007-11.828 6.831"/><path fill="none" stroke="#000" stroke-linecap="round" stroke-linejoin="round" stroke-miterlimit="10" stroke-width=".39851322" d="m302.719 3.29-1.743-1.395-.054-.895 2.281-.8 8.367.175 4.985.562 5.726.965 6.387 1.575 6.941 2.75M256.582 117.539l1.375.969"/><path fill="none" stroke="#000" stroke-linecap="round" stroke-linejoin="round" stroke-miterlimit="10" stroke-width=".19875722" d="M252.098 110.164c1.535 3.277 3.503 6.082 5.859 8.344M544.59 262.66c13.39 8.395 35.574-3.871 49.543-27.402 9.035-15.219 12.765-32.184 9.78-44.5-1.585-6.543-4.98-11.371-9.78-13.914"/><path fill="none" stroke="#000" stroke-linecap="round" stroke-linejoin="round" stroke-miterlimit="10" stroke-width=".19875722" d="M605.73 172.605c16.297 9.41 16.297 39.918.004 68.141-16.297 28.227-42.719 43.48-59.015 34.07-16.293-9.406-16.297-39.914 0-68.14 16.296-28.223 42.718-43.477 59.011-34.07m0 0"/><path fill="none" stroke="#000" stroke-linecap="round" stroke-linejoin="round" stroke-miterlimit="10" stroke-width=".39851322" d="M615.219 171.707c-13.075-18.508-41.97-10.715-64.536 17.41-22.566 28.125-30.261 65.934-17.187 84.442 4.133 5.843 10.062 9.269 17.187 9.921"/><path fill="none" stroke="#000" stroke-linecap="round" stroke-linejoin="round" stroke-miterlimit="10" stroke-width=".39851322" d="M609.258 166.496c18.246 10.535 18.246 44.688.004 76.29-18.247 31.597-47.825 48.675-66.07 38.14-18.243-10.532-18.247-44.688 0-76.285 18.241-31.602 47.823-48.68 66.066-38.145m0 0"/><path fill="none" stroke="#000" stroke-linecap="round" stroke-linejoin="round" stroke-miterlimit="10" stroke-width=".39851322" d="M612.906 159.805c20.348 11.746 20.348 49.84 0 85.086-20.348 35.242-53.34 54.289-73.687 42.543-20.348-11.75-20.348-49.844 0-85.086 20.347-35.246 53.34-54.293 73.687-42.543m0 0"/><path fill="none" stroke="#000" stroke-linecap="round" stroke-linejoin="round" stroke-miterlimit="10" stroke-width=".39851322" d="M616.48 161.27c-15.035-21.286-48.257-12.32-74.203 20.023-25.949 32.34-34.797 75.808-19.762 97.09 4.75 6.722 11.567 10.66 19.762 11.41M548.8 117.95c-22.398-10.872-57.265 10.929-77.878 48.69-19.41 35.563-19.41 73.047 0 86.196M368.66 125.809c-9.254 23.855-9.254 46.675 0 59.847M368.66 185.656l-43.277-24.984M325.383 160.672c-9.25-13.172-9.25-35.996 0-59.852M325.383 100.82l43.277 24.989M359.598 13.969c-20.25-11.688-53.079 7.265-73.329 42.336-20.25 35.074-20.25 72.984 0 84.672"/><path fill="none" stroke="#000" stroke-linecap="round" stroke-linejoin="round" stroke-miterlimit="10" stroke-width=".39851322" d="M271.082 105.523c0-32.02 22.488-70.964 50.219-86.976M325.383 100.82v59.852M342.676 10.715a24.086 24.086 0 0 0-.942-.953M308.844 6.824l32.89 2.938M308.844 6.824c-3.926 1.711-7.903 4.008-11.828 6.832M264.125 54.57l32.89-40.914M264.125 54.57a111.072 111.072 0 0 0-5.902 15.2M258.223 69.77v43.93M258.223 113.7c1.535 3.277 3.503 6.085 5.859 8.343M273.121 122.852l-9.039-.81M335.61 6.227l6.124 3.535M308.844 6.824l-6.125-3.535M290.89 10.121l6.126 3.535M264.125 54.57 258 51.035M258.223 69.77l-6.125-3.536M252.098 110.164l6.125 3.535M257.957 118.508l6.125 3.535M543.531 217.07c5.688-3.715 10.219-11.566 10.594-18.347M424.797 76.414l12.453-7.191M372.945 166.223v14.379M464.176 264.027l-22.282-12.867M438.234 249.047l-22.281-12.863M412.293 234.07l-20.512-11.84M555.113 106.516l-22.281-12.864M529.172 91.539 506.89 78.676M503.23 76.562 482.72 64.72M524.375 130.133l9.832-5.676M469.258 225.598v11.351M506.246 289.367l-.848-.488M500.121 285.832l-.844-.488M493.996 282.297l-.844-.488M595.035 128.512l-.848-.489M588.91 124.977l-.848-.489M582.785 121.441l-.844-.488M266.23 26.977l-7.683 11.144-6.25 12.047-4.586 12.539-2.707 12.629M247.082 102.543l3.824 8.059 5.676 6.937M301.836.473l-8.828 3.609-8.399 5.125-7.906 6.422-7.32 7.539"/><path fill="none" stroke="#000" stroke-linecap="round" stroke-linejoin="round" stroke-miterlimit="10" stroke-width=".39851322" d="m544.59 262.66-2.739-2.445-2.32-3.934-1.617-5.61-.55-7.16.741-8.327 2.114-9.063 3.441-9.344 4.64-9.187 5.637-8.613 6.371-7.653 6.793-6.363 6.84-4.805 6.473-3.101 5.676-1.41 4.558.046 3.489 1.149M552.894 283.684l-2.21-.2M616.5 173.52l-1.281-1.813M550.039 290.508l-7.766-.711M620.98 167.637l-4.5-6.368M531.101 286.332l-6.336-3.66M607.89 153.324l-6.332-3.66M373.695 191.453l-87.426-50.476M447.023 64.445 359.598 13.97M321.3 18.547l1.634-.945M271.082 105.523v1.887"/></svg>