<svg xmlns="http://www.w3.org/2000/svg" width="639.519" height="468.409"><path fill="none" stroke="#000" stroke-linecap="round" stroke-linejoin="round" stroke-miterlimit="10" stroke-width=".39849726" d="m204.004 225.395.418-1.747M247.766 248.672l-.512 2.133M204.422 223.648l43.344 25.024M246.281 249.8l-43.343-25.023M247.254 250.805l-.973-1.004M255.125 209.297l.219-.258M298.688 234.063l-1.489 1.746M255.344 209.04l43.344 25.023M297.469 233.746l-43.34-25.023M297.2 235.809l.269-2.063M245.848 208.234l.379-.543M289.566 232.719l-1.347 1.922M246.227 207.691l43.34 25.028M288.23 232.703l-43.343-25.023M288.219 234.64l.012-1.937M192.29 382.738l1.655-.664M148.945 357.711l43.344 25.027M149.41 359.094l.485-.832M192.754 384.117l-43.344-25.023M193.945 382.074l-1.191 2.043M160.125 282.059l-.77-1.274M203.465 307.082l-43.34-25.023M202.7 305.809l.765 1.273M159.355 280.785 202.7 305.81M158.473 282.7l1.652-.641M201.816 307.723l-43.343-25.024M203.465 307.082l-1.649.64M196.3 391.957l1.677-.98M152.957 366.934l43.344 25.023M153.64 368.086l.278-.602M196.984 393.11l-43.343-25.024M197.977 390.977l-.993 2.132M201.828 399.434l1.649-1.266M158.484 374.41l43.344 25.024M159.367 375.305l.113-.317M202.711 400.328l-43.344-25.023M203.477 398.168l-.766 2.16M192.746 333.516l1.192.672M149.406 308.492l43.34 25.024M148.941 310.41l1.641-1.238M192.285 335.434l-43.344-25.024M193.938 334.188l-1.653 1.246M216.84 408.48l.96-1.128M218.055 408.8l-.996-.577M218.215 407.59l-.16 1.21M189.89 372.004l1.594-.332M146.547 346.98l43.344 25.024M146.781 348.559l.727-1.024M190.125 373.582l-43.344-25.023M191.484 371.672l-1.359 1.91M263.453 212.531h0M306.797 237.555l-1.59 1.527M263.453 212.531l43.344 25.024M305.734 236.941l-43.343-25.023M305.207 239.082l.527-2.14M313.7 243.11l-.973.746M312.703 242.535l.996.574M312.316 243.617l.5-1.402M225.363 212.664l.52-1.14M269.227 236.547l-.977 2.133M225.883 211.523l43.344 25.024M267.742 237.133l-43.34-25.024M268.25 238.68l-.508-1.547M183.945 244.805l-.007-1.926M227.29 269.828l-43.345-25.023M227.277 267.902l.012 1.926M183.938 242.879l43.34 25.023M182.598 244.438l1.347.367M225.941 269.461l-43.343-25.023M227.29 269.828l-1.349-.367M193.676 234.52l.25-2.043M237.27 257.5l-.254 2.059M193.926 232.477 237.27 257.5M235.84 258.863l-43.344-25.023M237.016 259.559l-1.176-.696M189.16 360.023l1.496.004M145.816 335l43.344 25.023M145.816 336.734l1-1.156M189.16 361.758l-43.344-25.024M190.656 360.027l-1.496 1.73M154.625 295.602l-.992-.985M197.965 320.625l-43.34-25.023M196.973 319.64l.992.985M153.633 294.617l43.34 25.024M152.95 296.559l1.675-.957M196.293 321.582l-43.344-25.023M197.965 320.625l-1.672.957M208.73 404.988l1.586-1.523M165.387 379.965l43.343 25.023M209.793 405.602l-1.063-.614M210.316 403.465l-.523 2.137M166.961 268.863l-.527-1.53M210.305 293.887l-43.344-25.024M209.777 292.356l.528 1.53M166.434 267.332l43.343 25.024M165.375 269.172l1.586-.309M208.715 294.195l-43.34-25.023M210.305 293.887l-1.59.308M190.121 347.086l1.36.344M146.777 322.063l43.344 25.023M146.543 323.91l1.305-1.23M189.887 348.938l-43.344-25.028M191.48 347.43l-1.593 1.508M235.844 209.367l.48-.84M279.668 233.55l-1.176 2.055M236.324 208.527l43.344 25.024M278.238 233.84l-43.343-25.024M278.492 235.605l-.254-1.765M174.969 256.344l-.274-1.75M218.313 281.367l-43.344-25.023M218.04 279.617l.273 1.75M174.695 254.594l43.344 25.023M173.48 256.313l1.489.03M216.824 281.336l-43.344-25.023M218.313 281.367l-1.489-.031M257.754 243.79l-.75-1.294M257.004 242.496l-43.344-25.023M258.504 241.629l-.75 2.16M215.16 216.605l43.344 25.024M214.66 218.05l.5-1.445M210.5 403.133c-26.105-15.07-26.105-63.938 0-109.149 26.102-45.21 68.422-69.644 94.527-54.574"/><path fill="none" stroke="#000" stroke-linecap="round" stroke-linejoin="round" stroke-miterlimit="10" stroke-width=".39849726" d="M237.27 257.5a124.002 124.002 0 0 1 9.011-7.7M227.277 267.902c2.77-3.183 5.637-6.21 8.563-9.039M218.04 279.617a158.79 158.79 0 0 1 7.901-10.156M209.777 292.356a168.4 168.4 0 0 1 7.047-11.016M202.7 305.809a167.56 167.56 0 0 1 6.015-11.61M196.973 319.64a159.822 159.822 0 0 1 4.843-11.921M192.746 333.516c.988-3.95 2.172-7.946 3.543-11.934M190.121 347.086a124.376 124.376 0 0 1 2.164-11.652M189.16 360.023c.035-3.585.278-7.3.727-11.09M189.89 372.004c-.452-3.27-.695-6.7-.73-10.246M192.29 382.738a62.143 62.143 0 0 1-2.165-9.156M196.3 391.957c-1.37-2.402-2.558-5.031-3.546-7.84M201.828 399.434a37.688 37.688 0 0 1-4.844-6.328M208.73 404.988a33.075 33.075 0 0 1-6.019-4.66M216.84 408.48a32.76 32.76 0 0 1-7.047-2.878M222.375 409.57a36.958 36.958 0 0 1-4.32-.773M313.7 243.11a36.56 36.56 0 0 1 2.84 3.363M306.797 237.555a33.05 33.05 0 0 1 6.016 4.66M298.688 234.063c2.476.695 4.84 1.66 7.046 2.878M289.566 232.719c2.739.07 5.387.414 7.903 1.023M279.668 233.55c2.926-.55 5.793-.835 8.563-.85M269.227 236.547c3.043-1.16 6.066-2.067 9.011-2.703M258.504 241.629c3.09-1.742 6.184-3.254 9.238-4.496M247.766 248.672A101.879 101.879 0 0 1 257 242.5M166.434 267.332a167.36 167.36 0 0 1 7.046-11.016M145.816 335c.036-3.586.278-7.3.727-11.09M174.695 254.594c2.52-3.52 5.168-6.922 7.903-10.156M183.938 242.879a143.255 143.255 0 0 1 8.558-9.04M215.16 216.605a80.49 80.49 0 0 1 9.242-4.496M225.883 211.523c3.047-1.16 6.066-2.07 9.012-2.707M146.547 346.98c-.45-3.269-.695-6.699-.727-10.246M146.777 322.063a124.142 124.142 0 0 1 2.164-11.653M149.406 308.492c.985-3.949 2.168-7.945 3.543-11.933M165.387 379.965a33.075 33.075 0 0 1-6.02-4.66M158.484 374.41a37.896 37.896 0 0 1-4.843-6.328M153.633 294.617c1.43-3.988 3.05-7.976 4.84-11.918M159.355 280.785a167.56 167.56 0 0 1 6.016-11.61M152.957 366.934c-1.371-2.403-2.559-5.032-3.547-7.84M148.945 357.711c-.922-2.867-1.648-5.938-2.164-9.152M236.324 208.527c2.926-.55 5.797-.84 8.563-.851M246.227 207.691c2.734.075 5.382.418 7.898 1.028M255.344 209.04a32.842 32.842 0 0 1 7.047 2.878M193.926 232.477a124.694 124.694 0 0 1 9.012-7.7M204.422 223.648a101.384 101.384 0 0 1 9.238-6.171M356.98 327.063c-12.312-7.11-32.277 4.418-44.593 25.746-12.313 21.332-12.313 44.386 0 51.496"/><path fill="none" stroke="#000" stroke-linecap="round" stroke-linejoin="round" stroke-miterlimit="10" stroke-width=".39849726" d="M332.219 359.27c1.191.691 1.191 2.921 0 4.988-1.196 2.066-3.13 3.183-4.32 2.496-1.196-.688-1.196-2.922 0-4.988 1.19-2.067 3.124-3.184 4.32-2.496Zm0 0"/><path fill="none" stroke="#000" stroke-linecap="round" stroke-linejoin="round" stroke-miterlimit="10" stroke-width=".39849726" d="M352.203 337.082c9.258 5.344 9.258 22.676 0 38.715-9.262 16.035-24.27 24.703-33.527 19.36-9.258-5.348-9.258-22.68 0-38.716 9.258-16.039 24.27-24.707 33.527-19.359Zm0 0"/><path fill="none" stroke="#000" stroke-linecap="round" stroke-linejoin="round" stroke-miterlimit="10" stroke-width=".39849726" d="M357.82 327.352c12.36 7.136 12.36 30.277 0 51.687-12.363 21.41-32.402 32.98-44.761 25.844-12.36-7.137-12.36-30.277 0-51.688 12.359-21.41 32.402-32.98 44.761-25.843ZM285.953 277.504c-6.629-3.828-15.547-3.117-24.918 1.973M233.906 367.54c.016.007.032.023.047.03M102.492 184.707c-11.23-6.46-29.422 4.063-40.633 23.504-11.195 19.414-11.191 40.39 0 46.875"/><path fill="none" stroke="#000" stroke-linecap="round" stroke-linejoin="round" stroke-miterlimit="10" stroke-width=".39849726" d="M89.3 179.969c-11.75-3.973-28.827 8.168-38.14 27.113-7.828 15.926-7.828 32.063 0 38.95M14.277 225.031c-10.601-6.12-10.601-25.968 0-44.336 10.602-18.363 27.793-28.289 38.399-22.168M171.89 187.219l13.344 7.707M89.86 308.809c-14.79-13.254-14.79-43.899 0-74.227M89.86 308.809l22.218 12.828M89.86 234.578l25.206 14.55M176.32 194.785c6.668-.777 12.739.332 17.817 3.262M176.32 194.785l28.91 16.688M119.238 327.777c-13.379-7.722-18.605-27.226-13.707-51.156 4.32-21.121 16.012-43.058 31.52-59.164M137.05 217.457l36.052 20.813M155.957 371.645c-26.105-15.07-26.105-63.938 0-109.153 26.102-45.21 68.422-69.644 94.524-54.574M254.68 407.965c-36.442 14.262-61.227-11.035-55.356-56.508 5.871-45.473 40.172-93.894 76.617-108.156 28.454-11.137 50.774 1.75 55.356 31.96M286.984 400.988l4.36.172"/><path fill="none" stroke="#000" stroke-linecap="round" stroke-linejoin="round" stroke-miterlimit="10" stroke-width=".39849726" d="m261.977 278.273 3.652-3.246 4.848-2.16 5.746-.945 5.906.226 5.937 1.208 5.47 1.972 4.362 2.371 3.16 2.7"/><path fill="none" stroke="#000" stroke-linecap="round" stroke-linejoin="round" stroke-miterlimit="10" stroke-width=".39849726" d="m280.02 291.102 10.964-3.22 4.598-2.472 3.543-2.746 2.34-2.95.851-2.894-.628-2.812-2.133-2.77-3.426-2.5-4.508-2.152-5.398-1.652-5.66-.875-5.657.039-5.422 1.117-4.539 2.156-3.46 3.098"/><path fill="none" stroke="#000" stroke-linecap="round" stroke-linejoin="round" stroke-miterlimit="10" stroke-width=".39849726" d="M227 391.984c-21.117-12.28-21.055-51.925.137-88.55 21.14-36.528 55.344-56.274 76.484-44.157"/><path fill="none" stroke="#000" stroke-linecap="round" stroke-linejoin="round" stroke-miterlimit="10" stroke-width=".39849726" d="M229.586 379.367c-3.348-19.05.914-46.594 11.172-72.234 5.719-14.281 12.937-27.047 20.723-36.652M252.856 366.371c2.73-25.863 13.171-54.808 27.16-75.262M258.238 369.48l-5.382-3.109M374.027 340.465l-5.543-3.2M254.746 393.895l-25.16-14.528"/><path fill="none" stroke="#000" stroke-linecap="round" stroke-linejoin="round" stroke-miterlimit="10" stroke-width=".39849726" d="M261.977 278.273c-12.153 15.211-22.204 38.614-26.36 61.38-2.402 13.14-2.664 25.18-.762 34.449M298.191 410.68l-11.207-6.473M255.277 385.902l-20.422-11.793M298.191 410.68c6.32 25.535 31.938 28.492 57.215 6.601 16.895-14.633 30.098-37.5 34.325-59.449M389.73 357.828l-20.925-12.078M389.73 331.398l-34.324-19.816M298.191 384.246c6.32-32.836 31.938-65.367 57.215-72.664 16.895-4.875 30.098 2.746 34.325 19.816M248.508 381.992a47.408 47.408 0 0 0 6.351-2.355"/><path fill="none" stroke="#000" stroke-linecap="round" stroke-linejoin="round" stroke-miterlimit="10" stroke-width=".39849726" d="M274.152 439.09c-25.89-14.992-25.859-63.524.07-108.395 25.9-44.812 67.868-69.043 93.766-54.136"/><path fill="none" stroke="#000" stroke-linecap="round" stroke-linejoin="round" stroke-miterlimit="10" stroke-width=".39849726" d="M391.055 289.469c26.011 15.015 26.011 63.71 0 108.762-26.008 45.046-68.176 69.394-94.188 54.378-26.011-15.02-26.011-63.71 0-108.761 26.008-45.051 68.18-69.395 94.188-54.38ZM389.73 357.828l11.211-6.472M286.984 417.148l11.207-6.468M286.984 390.719v26.43M298.191 384.246l-11.207 6.473M400.941 324.926l-11.21 6.472M400.941 351.356v-26.43M374.027 340.465l4.024-2.324M378.05 338.14v-13.484M400.941 351.356l-22.89-13.215M229.586 379.367l5.27-5.258M176.32 194.785l-39.27 22.672M171.89 187.219l-82.03 47.36"/><path fill="none" stroke="#000" stroke-linecap="round" stroke-linejoin="round" stroke-miterlimit="10" stroke-width=".39849726" d="m286.984 392.488 1.895 4.614 2.617 4.265 3.348 3.766 4.023 3.078 4.559 2.23 4.879 1.305 4.992.395 4.973-.43 9.593-2.93 8.996-5.183 8.27-7.004 7.383-8.48 6.273-9.587 4.938-10.324 3.386-10.66 1.637-10.64-.351-10.305-2.664-9.645-2.34-4.402-3.086-3.969-3.785-3.355-4.387-2.559M328.11 366.836l-12.227-4.719M332.395 359.41l-10.2-8.226M313.14 404.738l-.753-.433M357.734 327.5l-.753-.437M290.8 400.39l-3.816-2.206M256.016 380.305l-22.059-12.735M297.418 284.125l-11.465-6.621M79.82 265.457l-17.96-10.371M139.367 205.996l-36.875-21.289M89.3 179.969l10.723 3.625M51.16 246.031l8.5 7.477M52.133 246.887 14.277 225.03M90.527 180.383l-37.851-21.856M211.832 208.27l-17.695-10.22M136.938 337.996l-17.7-10.219M250.48 207.918l.27.156M155.957 371.645l.266.152M305.027 239.41l7.547 4.356M210.5 403.133l7.547 4.36M303.621 259.273l28.672 16.56M227 391.984l28.676 16.555M367.992 276.559l22.887 13.214M274.152 439.09l22.891 13.215M513.586 117.09c-17.969-10.375-47.105 6.445-65.074 37.57-17.973 31.125-17.973 64.77 0 75.145M490.172 212.156l6.059-15.691 8.77-15.18 10.82-13.547 12.1-10.976 6.243-4.254 6.211-3.32 6.055-2.325 5.816-1.293 5.465-.238 5 .828 4.473 1.871 3.851 2.89M490.172 212.156l4.914 6.063 5.5 4.414 5.402 1.36 4.871-.68M511.223 223.602a23.505 23.505 0 0 0-.364-.29"/><path fill="none" stroke="#000" stroke-linecap="round" stroke-linejoin="round" stroke-miterlimit="10" stroke-width=".39849726" d="m511.223 223.602 4.773-15.309 7.262-14.797 9.289-13.336 10.766-11.058 5.71-4.43 5.836-3.617 5.856-2.735 5.777-1.804 5.602-.848 5.34.125 4.976 1.082 4.555 2.031M507.27 262.988l-4.157-1.687-3.765-2.422-3.324-3.121-2.856-3.781M521.414 272.441l-3.281-2.367-2.809-3.035-4.101-7.926M511.223 259.113c-.117-.125-.242-.254-.364-.379M510.86 258.734l-4.067-5.363-4.371-4.453M545.785 234.129c7.188.426 16.223-7.813 20.184-18.399 2.46-6.574 2.46-12.828 0-16.562"/><path fill="none" stroke="#000" stroke-linecap="round" stroke-linejoin="round" stroke-miterlimit="10" stroke-width=".39849726" d="M547.758 228.746c5.16.34 11.668-5.562 14.539-13.176 1.797-4.765 1.797-9.308 0-12.004M497.668 251.703c-3.719 2.149-9.75-1.336-13.473-7.781-3.718-6.442-3.718-13.406 0-15.555 3.72-2.148 9.75 1.336 13.473 7.778 3.719 6.445 3.719 13.41 0 15.558ZM506.75 246.398c3.688-2.171 3.652-9.128-.074-15.539-3.695-6.355-9.649-9.793-13.348-7.707"/><path fill="none" stroke="#000" stroke-linecap="round" stroke-linejoin="round" stroke-miterlimit="10" stroke-width=".39849726" d="m483.246 208.156-3.543 2.555-2.828 3.422-1.781 4.117-.613 4.523.609 4.81 1.773 4.98 6.364 9.418M490.172 212.156l-6.926-4M617.203 176.082c18.168 10.488 18.168 44.504 0 75.973-18.168 31.468-47.625 48.476-65.797 37.988-18.168-10.492-18.168-44.508 0-75.977 18.168-31.468 47.625-48.476 65.797-37.984ZM516.121 226.43l-4.898-2.828M516.121 261.941l1.922-1.382 1.422-2.52.848-3.668.277-4.574-.277-5.371-.848-5.98-3.344-12.016M516.121 261.941l-4.898-2.828"/><path fill="none" stroke="#000" stroke-linecap="round" stroke-linejoin="round" stroke-miterlimit="10" stroke-width=".39849726" d="M543.547 271.14c9.297 17.923 33.184 14.31 53.355-8.07 20.168-22.379 28.985-55.05 19.688-72.972-4.008-7.73-10.992-11.762-19.688-11.371"/><path fill="none" stroke="#000" stroke-linecap="round" stroke-linejoin="round" stroke-miterlimit="10" stroke-width=".39849726" d="M614.582 180.617c16.723 9.653 16.723 40.961 0 69.926-16.723 28.965-43.836 44.617-60.555 34.96-16.722-9.651-16.722-40.96 0-69.92 16.723-28.966 43.832-44.622 60.555-34.966ZM516.121 261.941l.09-.117M516.211 261.824l-5.352-3.09M516.211 261.824a11.062 11.062 0 0 0 2.578-2.304M483.246 208.156c-7.297 5.442-7.332 19.809-.078 33.696"/><path fill="none" stroke="#000" stroke-linecap="round" stroke-linejoin="round" stroke-miterlimit="10" stroke-width=".39849726" d="M549.89 223.82c.255-.117.509-.246.766-.39M550.61 222.3l.046 1.13M557.094 210.836c-.363 3.617-2.692 7.648-5.645 9.773M550.797 221.922l.05 1.394"/><path fill="none" stroke="#000" stroke-linecap="round" stroke-linejoin="round" stroke-miterlimit="10" stroke-width=".39849726" d="M550.848 223.316c4.558-2.691 8.238-9.066 8.289-14.359M557.902 209.61l1.239-.653M559.14 208.734l-1 .524M559.14 208.734c-.003-.293-.019-.578-.046-.859M559.14 208.957l-.199-.117M550.848 223.316l-.2-.109M571.035 150.922l4.63 3.406 5.218 2.102M516.887 268.871l-4.34-3.488-5.277-2.395M484.219 228.41l9.11-5.258M497.64 251.656l9.11-5.258M502.168 260.781l-53.656-30.976M567.246 148.066l-53.66-30.976M551.531 289.828l-30.117-17.387M617.078 176.293l-30.113-17.387M479.152 60.324h0M522.492 85.348l-1.586 1.527M479.152 60.324l43.34 25.024M521.43 84.734l-43.34-25.023M520.906 86.875l.524-2.14M408.445 181.309l1.192.671M365.102 156.285l43.343 25.024M364.637 158.203l1.644-1.238M407.98 183.227l-43.343-25.024M409.637 181.98l-1.656 1.247M441.059 60.457l.523-1.14M484.926 84.34l-.977 2.133M441.582 59.316l43.344 25.024M483.441 84.926l-43.343-25.024M483.95 86.473l-.509-1.547M405.82 194.879l1.36.344M362.477 169.855l43.343 25.024M362.242 171.703l1.301-1.23M405.586 196.73l-43.344-25.027M407.18 195.223l-1.594 1.507M399.645 92.598l-.012-1.926M442.988 117.621l-43.343-25.023M442.977 115.695l.011 1.926M399.633 90.672l43.344 25.023M398.297 92.23l1.348.368M441.637 117.254l-43.34-25.024M442.988 117.621l-1.351-.367M432.54 256.273l.96-1.128M433.754 256.594l-.996-.578M433.914 255.379l-.16 1.215M405.586 219.797l1.598-.332M362.242 194.773l43.344 25.024M362.48 196.352l.727-1.024M405.824 221.375l-43.343-25.023M407.184 219.465l-1.36 1.91M382.66 116.656l-.527-1.531M426.004 141.68l-43.344-25.024M425.477 140.148l.527 1.532M382.133 115.125l43.344 25.023M381.07 116.965l1.59-.309M424.414 141.988l-43.344-25.023M426.004 141.68l-1.59.308M430.356 65.844l.503-1.446M474.203 89.422l-.75 2.16M430.86 64.398l43.343 25.024M472.7 90.29l-43.344-25.024M473.453 91.582l-.754-1.293M390.668 104.137l-.273-1.75M434.008 129.16l-43.34-25.023M433.738 127.41l.27 1.75M390.395 102.387l43.343 25.023M389.18 104.105l1.488.032M432.523 129.129l-43.343-25.024M434.008 129.16l-1.485-.031M470.82 57.09l.22-.258M514.383 81.855l-1.484 1.747M471.04 56.832l43.343 25.023M513.168 81.54l-43.344-25.028M512.899 83.602l.269-2.063M370.32 143.395l-.992-.985M413.664 168.418l-43.344-25.023M412.672 167.434l.992.984M369.328 142.41l43.344 25.024M368.648 144.352l1.672-.957M411.992 169.375l-43.344-25.023M413.664 168.418l-1.672.957M529.395 90.902l-.973.746M528.399 90.328l.996.574M528.016 91.41l.496-1.402M409.375 82.313l.25-2.043M452.965 105.293l-.25 2.059M409.625 80.27l43.34 25.023M451.54 106.656l-43.345-25.023M452.715 107.352l-1.176-.696M404.86 207.816l1.496.004M361.516 182.793l43.343 25.023M361.516 184.527l1-1.156M404.86 209.55l-43.344-25.023M406.356 207.82l-1.497 1.73M417.523 247.227l1.653-1.266M374.18 222.203l43.343 25.024M375.066 223.098l.114-.32M418.406 248.121l-43.34-25.023M419.176 245.961l-.77 2.16M412 239.75l1.672-.98M368.656 214.727 412 239.75M369.34 215.875l.277-.598M412.68 240.902l-43.34-25.027M413.672 238.77l-.992 2.132M424.426 252.781l1.59-1.523M381.086 227.758l43.34 25.023M425.488 253.395l-1.062-.614M426.016 251.258l-.528 2.137M407.988 230.531l1.653-.664M364.645 205.504l43.343 25.027M365.11 206.887l.484-.832M408.453 231.91l-43.344-25.023M409.64 229.867l-1.187 2.043M461.543 56.027l.379-.543M505.266 80.512l-1.348 1.922M461.922 55.484l43.344 25.028M503.926 80.496l-43.34-25.023M503.918 82.434l.008-1.938M419.703 73.188l.414-1.747M463.461 96.465l-.508 2.133M420.117 71.441l43.344 25.024M461.977 97.594l-43.34-25.024M462.953 98.598l-.976-1.004M451.543 57.16l.48-.84M495.363 81.344l-1.175 2.054M452.023 56.32l43.34 25.024M493.938 81.633l-43.344-25.024M494.188 83.398l-.25-1.765M375.82 129.852l-.765-1.274M419.164 154.875l-43.344-25.023M418.395 153.602l.77 1.273M375.055 128.578l43.34 25.024M374.172 130.492l1.648-.64M417.512 155.516l-43.34-25.024M419.164 154.875l-1.652.64M426.195 250.926c-26.101-15.07-26.101-63.938 0-109.149 26.106-45.21 68.426-69.644 94.528-54.574M514.383 81.855a32.792 32.792 0 0 1 7.05 2.88"/><path fill="none" stroke="#000" stroke-linecap="round" stroke-linejoin="round" stroke-miterlimit="10" stroke-width=".39849726" d="M505.266 80.512c2.738.07 5.383.414 7.902 1.023M495.363 81.344c2.93-.551 5.797-.836 8.563-.852M484.926 84.34c3.043-1.16 6.062-2.067 9.012-2.703M474.203 89.422c3.086-1.742 6.184-3.254 9.238-4.496M463.461 96.465a101.384 101.384 0 0 1 9.238-6.172M452.965 105.293a125.687 125.687 0 0 1 9.012-7.7M442.977 115.695a143.303 143.303 0 0 1 8.562-9.039M433.738 127.41a157.395 157.395 0 0 1 7.903-10.156M425.477 140.148a165.76 165.76 0 0 1 7.046-11.015M418.395 153.602a167.696 167.696 0 0 1 6.02-11.614M412.672 167.434a161.378 161.378 0 0 1 4.84-11.918M408.445 181.309c.989-3.95 2.172-7.946 3.543-11.934M405.82 194.879a124.34 124.34 0 0 1 2.16-11.652M404.86 207.816c.03-3.586.277-7.3.726-11.09M405.586 219.797c-.45-3.27-.691-6.7-.727-10.246M407.988 230.531c-.925-2.87-1.648-5.937-2.168-9.156M412 239.75a47.564 47.564 0 0 1-3.547-7.84M417.523 247.227a37.896 37.896 0 0 1-4.843-6.329M424.426 252.781a32.916 32.916 0 0 1-6.016-4.66M432.54 256.273a32.96 32.96 0 0 1-7.048-2.878M438.074 257.363a36.958 36.958 0 0 1-4.32-.773M529.395 90.902a36.56 36.56 0 0 1 2.84 3.364M522.492 85.348a33.075 33.075 0 0 1 6.02 4.66M452.023 56.32c2.926-.55 5.793-.836 8.563-.847M368.656 214.727c-1.37-2.403-2.558-5.032-3.547-7.84M381.086 227.758a32.942 32.942 0 0 1-6.02-4.66M374.18 222.203a38.054 38.054 0 0 1-4.84-6.324M409.625 80.27a124.07 124.07 0 0 1 9.012-7.704M369.328 142.41a159.822 159.822 0 0 1 4.844-11.922M461.922 55.484c2.738.075 5.387.418 7.902 1.028M420.117 71.441a102.81 102.81 0 0 1 9.239-6.175M375.055 128.578a165.87 165.87 0 0 1 6.015-11.61M382.133 115.125a166.866 166.866 0 0 1 7.047-11.02M364.645 205.504a62.208 62.208 0 0 1-2.164-9.152M362.242 194.773c-.449-3.27-.691-6.699-.726-10.246M390.395 102.387a157.395 157.395 0 0 1 7.902-10.157M399.633 90.672c2.77-3.184 5.637-6.211 8.562-9.04M361.516 182.793c.035-3.586.277-7.3.726-11.09M430.86 64.398a80.132 80.132 0 0 1 9.238-4.496M441.582 59.316c3.043-1.16 6.063-2.07 9.012-2.707M362.477 169.855a122.892 122.892 0 0 1 2.164-11.652M365.102 156.285c.988-3.949 2.171-7.945 3.543-11.933M471.04 56.832a32.76 32.76 0 0 1 7.046 2.879M318.191 32.5c-11.222-6.48-29.414 4.023-40.636 23.46-11.219 19.435-11.219 40.442 0 46.919"/><path fill="none" stroke="#000" stroke-linecap="round" stroke-linejoin="round" stroke-miterlimit="10" stroke-width=".39849726" d="M305 27.762c-11.75-3.973-28.828 8.168-38.14 27.113-7.833 15.926-7.833 32.063 0 38.945M229.977 72.824c-10.606-6.12-10.606-25.969 0-44.336C240.578 10.125 257.77.2 268.37 6.32M305.559 82.371l25.203 14.55M305.559 156.602c-14.79-13.254-14.79-43.899 0-74.227M305.559 156.602l22.218 12.828M387.59 35.012l13.344 7.707M352.75 65.25l36.047 20.813M334.934 175.57c-13.375-7.722-18.602-27.226-13.703-51.156 4.32-21.121 16.011-43.059 31.519-59.16M392.02 42.578c6.668-.777 12.738.332 17.816 3.262M392.02 42.578l28.91 16.688M371.652 219.438c-26.082-15.11-26.043-64 .082-109.196 26.09-45.137 68.356-69.543 94.446-54.527M482.75 249.57c-36.898 22.418-67.594 6.496-68.555-35.558-.96-42.051 28.172-94.313 65.07-116.73 23.868-14.497 46.262-13.384 58.735 2.925 6.746 8.816 10.16 21.559 9.824 36.656M392.02 42.578 352.75 65.25M305.559 82.371l82.03-47.36M295.52 113.25l-17.965-10.371M355.066 53.79 318.191 32.5M305 27.762l10.723 3.62M266.856 93.824l8.5 7.477M267.828 94.68l-37.851-21.856M306.227 28.176 268.37 6.32M352.633 185.79l-17.7-10.22M427.531 56.063l-17.699-10.22M466.18 55.71l.265.157M371.652 219.438l.266.152M520.723 87.203l7.55 4.356M426.195 250.926l7.551 4.36"/></svg>