<svg xmlns="http://www.w3.org/2000/svg" width="640.067" height="459.518"><path fill="none" stroke="#000" stroke-linecap="round" stroke-linejoin="round" stroke-miterlimit="10" stroke-width=".39841746" d="m374.328 378.11-5.535 11.167-7.051 10.453M364.496 372.422l-5.012 10.168M354.555 390.383l-2.68 3.66M322.336 408.414l6.086-3.379 5.965-4.473 5.707-5.39 5.3-6.137M354.48 374.715l3.559-8.36 2.355-8.273 1.137-7.895-.074-7.25"/><path fill="none" stroke="#000" stroke-linecap="round" stroke-linejoin="round" stroke-miterlimit="10" stroke-width=".39841746" d="m321.676 417.023 5.218-1.011 5.375-1.973 5.438-2.938 5.36-3.843 10.03-9.895 8.489-11.969 6.187-13.011 3.242-12.864.48-6.004-.269-5.554-1.011-4.977-1.743-4.27"/><path fill="none" stroke="#000" stroke-linecap="round" stroke-linejoin="round" stroke-miterlimit="10" stroke-width=".39841746" d="m322.555 422.039 5.746.82 6.242-.64 6.547-2.067 6.656-3.488 6.539-4.84 6.2-5.977 5.687-6.867 5.008-7.511 4.164-7.903 3.156-8.054 2.004-7.903.828-7.472-.309-6.82-1.414-5.942-2.488-4.848-3.52-3.531"/><path fill="none" stroke="#000" stroke-linecap="round" stroke-linejoin="round" stroke-miterlimit="10" stroke-width=".39841746" d="M327.57 425.488c14.461 6.156 36.367-8.266 48.93-32.215 8.129-15.492 10.648-31.937 6.613-43.133-2.36-6.539-6.805-10.832-12.707-12.265M327.57 425.488l-1.82-.926"/><path fill="none" stroke="#000" stroke-linecap="round" stroke-linejoin="round" stroke-miterlimit="10" stroke-width=".39841746" d="m372.097 338.39 3.075 3.782 2.14 4.906 1.168 5.855.145 6.618-.918 7.207-2.024 7.59-3.058 7.703-3.965 7.578-4.738 7.222-5.367 6.653-5.868 5.855-6.222 4.832-6.364 3.625-6.316 2.367-6.094 1.075-5.695-.254"/><path fill="none" stroke="#000" stroke-linecap="round" stroke-linejoin="round" stroke-miterlimit="10" stroke-width=".39841746" d="m366.84 339.515 1.254 4.247.648 4.777-.586 10.789-3.18 11.809-5.629 11.898M354.75 390.219l-7.426 9.07-8.281 7.488-8.719 5.348-8.629 2.922M358.969 344.832l-.82 9.61-2.77 10.335M257.398 270.676C239.52 281 222.992 301.558 214.055 324.6c-4.395 11.32-6.707 22.63-6.707 32.77M358.2 382.574c.976.566.976 2.398 0 4.094-.981 1.695-2.567 2.61-3.548 2.047-.976-.567-.976-2.399 0-4.094.98-1.695 2.567-2.61 3.547-2.047m0 0"/><path fill="none" stroke="#000" stroke-linecap="round" stroke-linejoin="round" stroke-miterlimit="10" stroke-width=".39841746" d="M359.297 383.496c1.25-4.27-.227-7.461-3.297-7.133-3.07.332-6.574 4.059-7.824 8.324-1.25 4.266.226 7.461 3.296 7.13 1.45-.153 3.075-1.095 4.528-2.61"/><path fill="none" stroke="#000" stroke-linecap="round" stroke-linejoin="round" stroke-miterlimit="10" stroke-width=".39841746" d="M399.976 335.625c17.977 10.379 17.977 44.031 0 75.164-17.976 31.137-47.117 47.96-65.093 37.582-17.973-10.375-17.973-44.027 0-75.164 17.976-31.133 47.12-47.961 65.093-37.582m0 0"/><path fill="none" stroke="#000" stroke-linecap="round" stroke-linejoin="round" stroke-miterlimit="10" stroke-width=".39841746" d="M321.605 416.496c.903 26.574 20.657 36.289 44.125 21.695 23.465-14.59 41.754-47.96 40.852-74.535-.856-25.137-18.656-35.414-40.852-23.586"/><path fill="none" stroke="#000" stroke-linecap="round" stroke-linejoin="round" stroke-miterlimit="10" stroke-width=".39841746" d="M390.644 336.39c14.66 12.72 11.672 45.34-6.672 72.86-15.519 23.281-37.57 36.012-53.09 30.648"/><path fill="none" stroke="#000" stroke-linecap="round" stroke-linejoin="round" stroke-miterlimit="10" stroke-width=".39841746" d="M387.972 335.66c15.75 10.387 14.844 41.445-2.027 69.371-16.055 26.574-40.98 40.965-57.031 32.926M322.047 421.637a16.581 16.581 0 0 0 5.523 3.851M322.8 405.61c7.337-2.911 14.84-9.13 21.04-17.427M352.328 373.476c4.09-9.515 5.719-19.125 4.574-26.933M354.066 349.062c.91 6.77-.453 14.993-3.847 23.196M341.73 386.965c-5.406 7.039-11.847 12.332-18.164 14.925"/><path fill="none" stroke="#000" stroke-linecap="round" stroke-linejoin="round" stroke-miterlimit="10" stroke-width=".39841746" d="M323.832 400.758c5.918-2.758 11.863-7.817 16.894-14.371M349.219 371.68c3.16-7.637 4.566-15.313 3.996-21.817M370.633 309.433c-20.188-11.656-52.918 7.243-73.106 42.207-20.187 34.965-20.187 72.762 0 84.414M308.562 442.426l-12.902 2.898M375.726 312.375l-3.757-4.578-4.5-5.09-5.36-5.723-6.375-6.496"/><path fill="none" stroke="#000" stroke-linecap="round" stroke-linejoin="round" stroke-miterlimit="10" stroke-width=".39841746" d="m355.734 290.488-4.574 6.879-5.121 5.816-5.758 4.98-6.535 4.313-7.469 3.77-8.629 3.328-10.07 2.953-11.918 2.645M295.66 325.172l-.453 12.746-1.32 11.219-2.164 10.097-3.032 9.293-3.972 8.754-5.028 8.441-6.277 8.36-7.793 8.508M265.621 402.59l7.793 7.984 6.277 6.832 5.028 5.945 3.972 5.25 3.032 4.711 2.164 4.29 1.32 3.972.453 3.75M297.46 256.844l58.274 33.644M297.46 256.844l-11.913 2.64-10.074 2.957-8.63 3.324-7.468 3.774-6.531 4.312-5.762 4.98-5.117 5.817-4.578 6.88M237.387 291.527l58.273 33.645M237.387 291.527l-7.793 8.508-6.278 8.36-5.027 8.44-3.969 8.755-3.035 9.293-2.164 10.097-1.32 11.22-.453 12.745M207.348 368.945l58.273 33.645M207.348 368.945l.453 3.746 1.32 3.973 2.164 4.289 3.035 4.71 3.969 5.25 5.027 5.946 6.278 6.832 7.793 7.985M237.387 411.676l58.273 33.648M357.367 387.773 356 389.207M358.738 385.398l.559-1.902M349.492 391.445l-18.453-10.652M357.98 376.738l-18.449-10.652M325.875 452.422l4.476 2.097 4.786 1.336 10.117.422 10.386-2.348 10.325-4.777 10.015-6.918 9.453-8.765 8.618-10.293 7.52-11.465 6.167-12.246 4.61-12.61 2.863-12.57.984-12.133-1.023-11.328-3.164-10.172-5.418-8.547-3.555-3.48-4.055-2.824M325.875 452.422l-28.348-16.368M398.98 325.8l-28.347-16.367M257.398 270.676l1.977-1.137M207.348 357.37v11.575M86.312 154.652c-18-10.265-47.097 6.637-64.988 37.75-17.812 30.977-17.812 64.403 0 74.813M182.133 352.558c-16.153-9.324-16.153-39.562 0-67.539 16.152-27.98 42.34-43.097 58.492-33.773"/><path fill="none" stroke="#000" stroke-linecap="round" stroke-linejoin="round" stroke-miterlimit="10" stroke-width=".39841746" d="M254.789 259.426c-8.328-22.875-34.516-22.403-58.488 1.058-23.977 23.457-36.657 61.02-28.328 83.89 4.613 12.669 15.05 18.696 28.328 16.356M207.348 367.117l-25.215-14.559M266.238 266.035l-25.613-14.789M86.312 154.652l157.563 90.965M21.32 267.219l157.563 90.968M296.394 10.617C278.426.293 249.332 17.133 231.406 48.23c-17.894 31.04-17.894 64.57-.004 74.954M448.695 237.797c-20.367-.18-28.496-24.23-18.156-53.719 10.34-29.488 35.234-53.25 55.601-53.066 7.82.066 14.184 3.742 18.157 10.48M392.215 208.523c-16.153-9.324-16.153-39.562 0-67.539 16.152-27.976 42.34-43.097 58.492-33.77"/><path fill="none" stroke="#000" stroke-linecap="round" stroke-linejoin="round" stroke-miterlimit="10" stroke-width=".39841746" d="M464.87 115.39c-8.327-22.87-34.515-22.398-58.487 1.063-23.973 23.457-36.657 61.02-28.328 83.89 4.613 12.665 15.054 18.696 28.328 16.356M438.172 235.058l-45.957-26.535M496.664 133.746l-45.957-26.531M296.394 10.617l157.563 90.969M231.402 123.184l157.563 90.968M426.715 207.902l40.57 23.426M487.636 178.871l-.304 8.637-.895 7.601-1.468 6.844-2.055 6.297-6.098 11.648-4.25 5.664-5.281 5.766M447.066 155.45l40.57 23.421M447.066 236.855l40.57 23.426M467.285 231.328l5.281 5.406 4.25 4.633 3.41 4.027 2.688 3.559 3.523 6.098 1.2 5.23M487.636 260.281l8.754-1.969M528.34 155.371l-3.102 4.664-3.465 3.938-8.332 6.296-5.062 2.559-5.844 2.25-6.824 2.004-8.075 1.789M487.77 131.95l40.57 23.421M541.898 170.219l-5.597-6.555-3.637-3.883-4.324-4.41M565.261 302.87l5.97-1.347M565.261 302.87c1.993-.198 4.051-.616 6.149-1.245M620.351 215.516l-3.629-7.239-5.433-4.914-6.942-2.305-8.058.446-8.723 3.187-8.894 5.774-8.555 8.05-7.723 9.899-6.426 11.207-4.722 11.867-2.715 11.828-.512 11.121 1.77 9.715 3.972 7.688 2.762 2.93 3.223 2.242 3.637 1.515 3.984.762"/><path fill="none" stroke="#000" stroke-linecap="round" stroke-linejoin="round" stroke-miterlimit="10" stroke-width=".39841746" d="M562.285 296.36c-13.668-7.907-13.66-33.516.023-57.2 13.668-23.664 35.828-36.457 49.496-28.578M538.437 168.219c-13.683-7.883-35.855 4.93-49.523 28.62-13.66 23.673-13.656 49.259 0 57.157"/><path fill="none" stroke="#000" stroke-linecap="round" stroke-linejoin="round" stroke-miterlimit="10" stroke-width=".39841746" d="M495.332 240.953c0-22.332 15.68-49.488 35.02-60.652"/><path fill="none" stroke="#000" stroke-linecap="round" stroke-linejoin="round" stroke-miterlimit="10" stroke-width=".39841746" d="m498.16 226.625-2.637 14.121-.156 6.637.637 6.16 1.414 5.57 2.16 4.863 2.867 4.07 3.52 3.192M498.16 226.625l4.453-11.867 6.23-11.403 7.66-10.296 8.65-8.61"/><path fill="none" stroke="#000" stroke-linecap="round" stroke-linejoin="round" stroke-miterlimit="10" stroke-width=".39841746" d="m525.152 184.45 7.785-5.618 7.985-4.086M544.148 173.184c8.07-2.872 15.5-2.618 21.309.738M539.875 178.8l-6.137 4.38-5.98 5.425-5.684 6.34-5.234 7.11-4.653 7.703-3.957 8.117-3.156 8.34-2.281 8.363-1.336 8.18-.363 7.816.632 7.258 1.614 6.535 2.562 5.645 3.457 4.628 4.27 3.508 4.984 2.301"/><path fill="none" stroke="#000" stroke-linecap="round" stroke-linejoin="round" stroke-miterlimit="10" stroke-width=".39841746" d="m580.765 183.492-5.632-3.836-6.864-1.492-7.77.926-8.308 3.304-8.457 5.551-8.183 7.531-7.56 9.2-6.55 10.453-5.23 11.21-3.672 11.5-1.918 11.27-.07 10.516 1.796 9.305 3.598 7.68 5.25 5.706 6.68 3.48"/><path fill="none" stroke="#000" stroke-linecap="round" stroke-linejoin="round" stroke-miterlimit="10" stroke-width=".39841746" d="m590.031 188.84-5.629-3.832-6.855-1.492-7.766.918-8.309 3.3-8.449 5.543-8.199 7.535-7.55 9.192-6.555 10.449-5.239 11.227-3.676 11.503-1.921 11.266-.07 10.524 1.796 9.308 3.602 7.676 5.25 5.707 6.68 3.48"/><path fill="none" stroke="#000" stroke-linecap="round" stroke-linejoin="round" stroke-miterlimit="10" stroke-width=".39841746" d="m527.742 263.336.031-9.613 1.84-10.329 3.477-10.52 4.902-10.21 6.156-9.387 7.055-8.117 7.547-6.484 7.718-4.473"/><path fill="none" stroke="#000" stroke-linecap="round" stroke-linejoin="round" stroke-miterlimit="10" stroke-width=".39841746" d="m518.476 258.012.04-9.7 1.863-10.363 3.496-10.547 4.93-10.226 6.164-9.352 7.03-8.078 7.524-6.445 7.653-4.43"/><path fill="none" stroke="#000" stroke-linecap="round" stroke-linejoin="round" stroke-miterlimit="10" stroke-width=".39841746" d="m509.21 252.691.04-9.687 1.855-10.363 3.489-10.551 4.93-10.23 6.16-9.352 7.027-8.086 7.523-6.457 7.656-4.426M499.945 247.36l.04-9.716 1.862-10.445M501.847 227.191l-3.687-.566M571.504 178.14l-6.203-4.062-7.641-1.273-8.633 1.597-9.152 4.399"/><path fill="none" stroke="#000" stroke-linecap="round" stroke-linejoin="round" stroke-miterlimit="10" stroke-width=".39841746" d="m502.402 230.707-1.629 7.789-.781 7.539.098 7.133.976 6.562 1.836 5.871 2.66 5.051 3.438 4.125 4.144 3.11M575.87 179.934l-5.933-2.137-6.812-.117-7.418 1.918-7.727 3.882-7.726 5.707-7.414 7.313-6.813 8.656-5.937 9.66-4.817 10.305-3.508 10.562-2.046 10.41-.5 9.88 1.078 8.96 2.629 7.72 4.085 6.175 5.395 4.406"/><path fill="none" stroke="#000" stroke-linecap="round" stroke-linejoin="round" stroke-miterlimit="10" stroke-width=".39841746" d="m585.136 185.285-5.937-2.14-6.813-.114-7.421 1.918-7.727 3.887-7.715 5.7-7.414 7.312-6.816 8.652-5.938 9.66-4.816 10.297-3.508 10.562-2.047 10.414-.504 9.875 1.078 8.973 2.63 7.715 4.085 6.18 5.399 4.406"/><path fill="none" stroke="#000" stroke-linecap="round" stroke-linejoin="round" stroke-miterlimit="10" stroke-width=".39841746" d="m594.398 190.633-5.937-2.137-6.813-.117-7.418 1.918-7.73 3.887-7.711 5.699-7.418 7.312-6.813 8.653-5.937 9.664-4.82 10.304-3.508 10.559-2.047 10.418-.5 9.867 1.078 8.969 2.629 7.719 4.086 6.18 5.398 4.402"/><path fill="none" stroke="#000" stroke-linecap="round" stroke-linejoin="round" stroke-miterlimit="10" stroke-width=".39841746" d="m603.664 195.98-5.938-2.136-6.808-.118-7.418 1.918-7.723 3.883-7.726 5.703-7.418 7.32-6.817 8.65-5.933 9.663-4.82 10.3-3.505 10.563-2.047 10.414-.5 9.875 1.079 8.965 2.625 7.72 4.086 6.175 5.398 4.406"/><path fill="none" stroke="#000" stroke-linecap="round" stroke-linejoin="round" stroke-miterlimit="10" stroke-width=".39841746" d="m565.261 302.87-4.605-.034-4.313-.793-3.964-1.543-3.559-2.27-3.105-2.965-2.622-3.628-3.62-9.02-1.329-10.898 1.016-12.22 3.285-12.843 5.348-12.742 7.09-11.914 8.386-10.402 9.188-8.325 9.472-5.8 9.176-2.938 4.309-.34 4.031.422 3.691 1.18 3.297 1.906 2.852 2.61 2.371 3.273"/><path fill="none" stroke="#000" stroke-linecap="round" stroke-linejoin="round" stroke-miterlimit="10" stroke-width=".39841746" d="m546.402 296.492-6.68-3.48-5.257-5.711-3.594-7.684-1.793-9.285.066-10.516 1.914-11.238 3.668-11.508 5.239-11.238 6.558-10.457 7.547-9.195 8.207-7.547 8.457-5.547 8.313-3.305 7.773-.918 6.863 1.5 5.61 3.824M536.969 177.125l7.18-3.941M502.402 230.707l5.3-16.133 8.075-15.105 4.844-6.785 5.23-6.063 5.493-5.227 5.625-4.27"/><path fill="none" stroke="#000" stroke-linecap="round" stroke-linejoin="round" stroke-miterlimit="10" stroke-width=".39841746" d="m555.988 294.289-3.781-3.668-2.942-4.758-2.015-5.715-1.047-6.527-.059-7.152.934-7.598 1.879-7.828 2.781-7.848 3.594-7.66 4.293-7.262 4.883-6.664 5.32-5.898 5.605-4.961 5.73-3.899 5.696-2.734 5.492-1.488"/><path fill="none" stroke="#000" stroke-linecap="round" stroke-linejoin="round" stroke-miterlimit="10" stroke-width=".39841746" d="m537 268.945.023-9.691 1.805-10.395 3.473-10.59 4.96-10.265 6.176-9.438 7.07-8.144 7.59-6.461 7.723-4.461M621.906 216.2c13.727 7.925 13.727 33.62 0 57.398-13.727 23.773-35.98 36.62-49.707 28.695-13.73-7.922-13.73-33.621-.004-57.395 13.727-23.777 35.984-36.625 49.711-28.699m0 0"/><path fill="none" stroke="#000" stroke-linecap="round" stroke-linejoin="round" stroke-miterlimit="10" stroke-width=".39841746" d="M618.59 221.937c11.898 6.868 11.898 29.141 0 49.746-11.895 20.606-31.184 31.743-43.079 24.872-11.898-6.868-11.898-29.137 0-49.743 11.895-20.609 31.184-31.742 43.079-24.875m0 0"/><path fill="none" stroke="#000" stroke-linecap="round" stroke-linejoin="round" stroke-miterlimit="10" stroke-width=".39841746" d="M601.168 222.148c1.472 11.551-2.899 26.446-11.465 39.067-6.445 9.492-14.637 16.758-22.719 20.144"/><path fill="none" stroke="#000" stroke-linecap="round" stroke-linejoin="round" stroke-miterlimit="10" stroke-width=".39841746" d="M566.722 278.047c9.454-3.403 19.141-12.922 25.41-24.965 5.329-10.238 7.551-21.094 6.036-29.5"/><path fill="none" stroke="#000" stroke-linecap="round" stroke-linejoin="round" stroke-miterlimit="10" stroke-width=".39841746" d="M597.336 224.039c1.43 10.16-2.328 23.363-9.852 34.629-5.851 8.758-13.383 15.437-20.781 18.426M578.765 241.832c-.765 3.797-3.035 7.726-5.937 10.285"/><path fill="none" stroke="#000" stroke-linecap="round" stroke-linejoin="round" stroke-miterlimit="10" stroke-width=".39841746" d="M578.183 242.687c-.843 3.11-2.636 6.211-4.906 8.496"/><path fill="none" stroke="#000" stroke-linecap="round" stroke-linejoin="round" stroke-miterlimit="10" stroke-width=".39841746" d="M574.511 248.793a18.6 18.6 0 0 0 2.22-3.84M503.094 227.914l-1.25-.723M501.847 227.191l3.422-11.738 5.274-11.43 6.781-10.554 7.828-9.02M538.437 168.219l7.547 4.359M488.914 253.996l8.418 4.86M530.351 180.3l4.07-2.35M495.332 240.953v4.45M565.457 173.922l2.308 1.332M575.87 179.934l1.157.667M585.136 185.285l1.157.668M594.398 190.633l1.156.668M603.664 195.98l1.156.668M513.144 277.887l1.157.664M522.41 283.234l1.156.668M531.672 288.582l1.156.668M540.937 293.93l1.156.668M550.199 299.281l1.156.668M611.808 210.582l10.004 5.777M562.285 296.36l10.004 5.773"/></svg>