<svg xmlns="http://www.w3.org/2000/svg" width="634.821" height="468.409"><path fill="none" stroke="#000" stroke-linecap="round" stroke-linejoin="round" stroke-miterlimit="10" stroke-width=".39849726" d="m202.773 225.395.415-1.747M246.531 248.672l-.508 2.133M203.188 223.648l43.343 25.024M245.047 249.8l-43.34-25.023M246.023 250.805l-.976-1.004M253.89 209.297l.22-.258M297.453 234.063l-1.484 1.746M254.11 209.04l43.343 25.023M296.238 233.746l-43.343-25.023M295.969 235.809l.27-2.063M244.617 208.234l.375-.543M288.336 232.719l-1.348 1.922M244.992 207.691l43.344 25.028M286.996 232.703l-43.34-25.023M286.988 234.64l.008-1.937M191.059 382.738l1.652-.664M147.715 357.711l43.344 25.027M148.18 359.094l.484-.832M191.523 384.117l-43.343-25.023M192.711 382.074l-1.188 2.043M158.895 282.059l-.77-1.274M202.234 307.082l-43.34-25.023M201.469 305.809l.765 1.273M158.125 280.785l43.344 25.024M157.242 282.7l1.653-.641M200.586 307.723l-43.344-25.024M202.234 307.082l-1.648.64M195.07 391.957l1.672-.98M151.727 366.934l43.343 25.023M152.41 368.086l.278-.602M195.75 393.11l-43.34-25.024M196.742 390.977l-.992 2.132M200.594 399.434l1.652-1.266M157.254 374.41l43.34 25.024M158.137 375.305l.113-.317M201.477 400.328l-43.34-25.023M202.246 398.168l-.77 2.16M191.516 333.516l1.191.672M148.172 308.492l43.344 25.024M147.711 310.41l1.64-1.238M191.05 335.434l-43.339-25.024M192.707 334.188l-1.656 1.246M215.61 408.48l.96-1.128M216.824 408.8l-.996-.577M216.984 407.59l-.16 1.21M188.656 372.004l1.598-.332M145.316 346.98l43.34 25.024M145.55 348.559l.727-1.024M188.895 373.582 145.55 348.56M190.254 371.672l-1.36 1.91M305.563 237.555l-1.586 1.527M262.223 212.531l43.34 25.024M304.5 236.941l-43.34-25.023M303.977 239.082l.523-2.14M312.469 243.11l-.977.746M311.473 242.535l.996.574M311.086 243.617l.496-1.402M224.129 212.664l.523-1.14M267.996 236.547l-.976 2.133M224.652 211.523l43.344 25.024M266.512 237.133l-43.344-25.024M267.02 238.68l-.508-1.547M182.715 244.805l-.012-1.926M226.059 269.828l-43.344-25.023M226.047 267.902l.012 1.926M182.703 242.879l43.344 25.023M181.367 244.438l1.348.367M224.707 269.461l-43.34-25.023M226.059 269.828l-1.352-.367M192.445 234.52l.25-2.043M236.04 257.5l-.255 2.059M192.695 232.477 236.04 257.5M234.61 258.863l-43.344-25.023M235.785 259.559l-1.176-.696M187.93 360.023l1.496.004M144.586 335l43.344 25.023M144.586 336.734l1-1.156M187.93 361.758l-43.344-25.024M189.426 360.027l-1.496 1.73M153.39 295.602l-.988-.985M196.734 320.625l-43.343-25.023M195.742 319.64l.992.985M152.402 294.617l43.34 25.024M151.719 296.559l1.672-.957M195.063 321.582l-43.344-25.023M196.734 320.625l-1.671.957M207.496 404.988l1.59-1.523M164.156 379.965l43.34 25.023M208.563 405.602l-1.067-.614M209.086 403.465l-.523 2.137M165.73 268.863l-.527-1.53M209.074 293.887l-43.344-25.024M208.547 292.356l.527 1.53M165.203 267.332l43.344 25.024M164.14 269.172l1.59-.309M207.484 294.195l-43.343-25.023M209.074 293.887l-1.59.308M188.89 347.086l1.36.344M145.547 322.063l43.344 25.023M145.313 323.91l1.304-1.23M188.656 348.938l-43.343-25.028M190.25 347.43l-1.594 1.508M234.613 209.367l.48-.84M278.438 233.55l-1.18 2.055M235.094 208.527l43.344 25.024M277.008 233.84l-43.344-25.024M277.258 235.605l-.25-1.765M173.738 256.344l-.273-1.75M217.078 281.367l-43.34-25.023M216.809 279.617l.27 1.75M173.465 254.594l43.344 25.023M172.25 256.313l1.488.03M215.594 281.336l-43.344-25.023M217.078 281.367l-1.484-.031M256.523 243.79l-.753-1.294M255.77 242.496l-43.344-25.023M257.273 241.629l-.75 2.16M213.93 216.605l43.343 25.024M213.426 218.05l.504-1.445M209.27 403.133c-26.106-15.07-26.106-63.938 0-109.149 26.101-45.21 68.421-69.644 94.527-54.574"/><path fill="none" stroke="#000" stroke-linecap="round" stroke-linejoin="round" stroke-miterlimit="10" stroke-width=".39849726" d="M236.04 257.5a125 125 0 0 1 9.007-7.7M226.047 267.902c2.77-3.183 5.637-6.21 8.562-9.039M216.809 279.617a159 159 0 0 1 7.898-10.156M208.547 292.356a167 167 0 0 1 7.047-11.016M201.469 305.809a168 168 0 0 1 6.011-11.61M195.742 319.64a160 160 0 0 1 4.844-11.921M191.516 333.516c.988-3.95 2.172-7.946 3.543-11.934M188.89 347.086a124 124 0 0 1 2.16-11.652M187.93 360.023c.035-3.585.277-7.3.726-11.09M188.656 372.004c-.449-3.27-.691-6.7-.726-10.246M191.059 382.738a62 62 0 0 1-2.164-9.156M195.07 391.957c-1.375-2.402-2.558-5.031-3.547-7.84M200.594 399.434a38 38 0 0 1-4.844-6.328M207.496 404.988a33 33 0 0 1-6.016-4.66M215.61 408.48a32.8 32.8 0 0 1-7.047-2.878M221.145 409.57a37 37 0 0 1-4.32-.773M312.469 243.11a37 37 0 0 1 2.836 3.363M305.563 237.555a33 33 0 0 1 6.02 4.66M297.453 234.063a33 33 0 0 1 7.047 2.878M288.336 232.719c2.738.07 5.383.414 7.902 1.023M278.438 233.55c2.925-.55 5.793-.835 8.558-.85M267.996 236.547c3.043-1.16 6.063-2.067 9.012-2.703M257.273 241.629c3.086-1.742 6.184-3.254 9.239-4.496M246.531 248.672a103 103 0 0 1 9.239-6.172M165.203 267.332a166 166 0 0 1 7.047-11.016M144.586 335c.035-3.586.277-7.3.727-11.09M173.465 254.594c2.52-3.52 5.168-6.922 7.902-10.156M182.703 242.879c2.77-3.184 5.637-6.211 8.563-9.04M213.93 216.605c3.09-1.746 6.183-3.253 9.238-4.496M224.652 211.523c3.047-1.16 6.063-2.07 9.012-2.707M145.316 346.98c-.453-3.269-.695-6.699-.73-10.246M145.547 322.063a124 124 0 0 1 2.164-11.653M148.172 308.492c.988-3.949 2.172-7.945 3.543-11.933M164.156 379.965a33 33 0 0 1-6.02-4.66M157.254 374.41a38 38 0 0 1-4.844-6.328M152.402 294.617c1.43-3.988 3.051-7.976 4.836-11.918M158.125 280.785a168 168 0 0 1 6.016-11.61M151.727 366.934c-1.372-2.403-2.559-5.032-3.547-7.84M147.715 357.711c-.922-2.867-1.649-5.938-2.164-9.152M235.094 208.527c2.926-.55 5.797-.84 8.562-.851M244.992 207.691c2.739.075 5.383.418 7.903 1.028M254.11 209.04a32.8 32.8 0 0 1 7.05 2.878M192.695 232.477a123 123 0 0 1 9.012-7.7M203.188 223.648a103 103 0 0 1 9.238-6.171M355.75 327.063c-12.312-7.11-32.281 4.418-44.594 25.746-12.316 21.332-12.316 44.386 0 51.496"/><path fill="none" stroke="#000" stroke-linecap="round" stroke-linejoin="round" stroke-miterlimit="10" stroke-width=".39849726" d="M330.988 359.27c1.192.691 1.192 2.921 0 4.988-1.195 2.066-3.129 3.183-4.32 2.496-1.195-.688-1.195-2.922 0-4.988 1.191-2.067 3.125-3.184 4.32-2.496m0 0"/><path fill="none" stroke="#000" stroke-linecap="round" stroke-linejoin="round" stroke-miterlimit="10" stroke-width=".39849726" d="M350.973 337.082c9.258 5.344 9.258 22.676-.004 38.715-9.258 16.035-24.266 24.703-33.528 19.36-9.257-5.348-9.253-22.68.004-38.716 9.258-16.039 24.27-24.707 33.528-19.359m0 0"/><path fill="none" stroke="#000" stroke-linecap="round" stroke-linejoin="round" stroke-miterlimit="10" stroke-width=".39849726" d="M356.59 327.352c12.36 7.136 12.36 30.277-.004 51.687-12.36 21.41-32.398 32.98-44.758 25.844-12.363-7.137-12.363-30.277 0-51.688 12.36-21.41 32.403-32.98 44.762-25.843M284.723 277.504c-6.63-3.828-15.551-3.117-24.918 1.973M232.672 367.54c.02.007.035.023.05.03M101.262 184.707c-11.23-6.46-29.426 4.063-40.633 23.504-11.195 19.414-11.195 40.39 0 46.875"/><path fill="none" stroke="#000" stroke-linecap="round" stroke-linejoin="round" stroke-miterlimit="10" stroke-width=".39849726" d="M88.07 179.969c-11.75-3.973-28.828 8.168-38.14 27.113-7.828 15.926-7.828 32.063 0 38.95M13.047 225.031c-10.602-6.12-10.602-25.968 0-44.336 10.601-18.363 27.793-28.289 38.394-22.168M170.66 187.219l13.344 7.707M88.629 308.809c-14.79-13.254-14.79-43.899 0-74.227M88.629 308.809l22.219 12.828M88.629 234.578l25.203 14.55M175.09 194.785c6.668-.777 12.738.332 17.816 3.262M175.09 194.785 204 211.473M118.008 327.777c-13.38-7.722-18.606-27.226-13.711-51.156 4.324-21.121 16.016-43.058 31.523-59.164M135.82 217.457l36.047 20.813M154.723 371.645c-26.102-15.07-26.102-63.938 0-109.153 26.105-45.21 68.425-69.644 94.527-54.574M253.45 407.965c-36.442 14.262-61.231-11.035-55.36-56.508s40.176-93.894 76.617-108.156c28.457-11.137 50.777 1.75 55.36 31.96M285.75 400.988l4.363.172"/><path fill="none" stroke="#000" stroke-linecap="round" stroke-linejoin="round" stroke-miterlimit="10" stroke-width=".39849726" d="m260.746 278.273 3.649-3.246 4.847-2.16 5.75-.945 5.906.226 5.934 1.208 5.473 1.972 4.363 2.371 3.16 2.7"/><path fill="none" stroke="#000" stroke-linecap="round" stroke-linejoin="round" stroke-miterlimit="10" stroke-width=".39849726" d="m278.785 291.102 10.969-3.22 4.598-2.472 3.543-2.746 2.34-2.95.851-2.894-.629-2.812-2.133-2.77-3.43-2.5-4.503-2.152-5.403-1.652-5.66-.875-5.656.039-5.418 1.117-4.54 2.156-3.46 3.098"/><path fill="none" stroke="#000" stroke-linecap="round" stroke-linejoin="round" stroke-miterlimit="10" stroke-width=".39849726" d="M225.77 391.984c-21.122-12.28-21.059-51.925.136-88.55 21.14-36.528 55.344-56.274 76.48-44.157"/><path fill="none" stroke="#000" stroke-linecap="round" stroke-linejoin="round" stroke-miterlimit="10" stroke-width=".39849726" d="M228.355 379.367c-3.347-19.05.91-46.594 11.172-72.234 5.715-14.281 12.934-27.047 20.723-36.652M251.625 366.371c2.73-25.863 13.172-54.808 27.16-75.262M257.008 369.48l-5.383-3.109M372.797 340.465l-5.543-3.2M253.516 393.895l-25.16-14.528"/><path fill="none" stroke="#000" stroke-linecap="round" stroke-linejoin="round" stroke-miterlimit="10" stroke-width=".39849726" d="M260.746 278.273c-12.152 15.211-22.203 38.614-26.36 61.38-2.402 13.14-2.667 25.18-.761 34.449M296.961 410.68l-11.211-6.473M254.047 385.902 233.62 374.11M296.961 410.68c6.32 25.535 31.934 28.492 57.21 6.601 16.9-14.633 30.102-37.5 34.325-59.449M388.5 357.828l-20.926-12.078M388.5 331.398l-34.324-19.816M296.961 384.246c6.32-32.836 31.934-65.367 57.21-72.664 16.9-4.875 30.102 2.746 34.325 19.816M247.277 381.992a47 47 0 0 0 6.348-2.355"/><path fill="none" stroke="#000" stroke-linecap="round" stroke-linejoin="round" stroke-miterlimit="10" stroke-width=".39849726" d="M272.922 439.09c-25.895-14.992-25.86-63.524.07-108.395 25.899-44.812 67.867-69.043 93.766-54.136"/><path fill="none" stroke="#000" stroke-linecap="round" stroke-linejoin="round" stroke-miterlimit="10" stroke-width=".39849726" d="M389.824 289.469c26.008 15.015 26.012 63.71 0 108.762-26.008 45.046-68.18 69.394-94.187 54.378-26.012-15.02-26.012-63.71 0-108.761 26.008-45.051 68.176-69.395 94.187-54.38M388.5 357.828l11.207-6.472M285.75 417.148l11.211-6.468M285.75 390.719v26.43M296.961 384.246l-11.211 6.473M399.707 324.926l-11.207 6.472M399.707 351.356v-26.43M372.797 340.465l4.023-2.324M376.82 338.14v-13.484M399.707 351.356 376.82 338.14M228.355 379.367l5.266-5.258M175.09 194.785l-39.27 22.672M170.66 187.219l-82.031 47.36"/><path fill="none" stroke="#000" stroke-linecap="round" stroke-linejoin="round" stroke-miterlimit="10" stroke-width=".39849726" d="m285.75 392.488 1.898 4.614 2.618 4.265 3.347 3.766 4.02 3.078 4.562 2.23 4.88 1.305 4.991.395 4.973-.43 9.594-2.93 8.992-5.183 8.273-7.004 7.383-8.48 6.274-9.587 4.937-10.324 3.387-10.66 1.633-10.64-.348-10.305-2.664-9.645-2.344-4.402-3.082-3.969-3.785-3.355-4.387-2.559M326.875 366.836l-12.223-4.719M331.164 359.41l-10.203-8.226M311.91 404.738l-.754-.433M356.504 327.5l-.754-.437M289.57 400.39l-3.82-2.206M254.785 380.305l-22.062-12.735M296.188 284.125l-11.465-6.621M78.59 265.457l-17.961-10.371M138.137 205.996l-36.875-21.289M88.07 179.969l10.723 3.625M49.93 246.031l8.496 7.477M50.898 246.887 13.047 225.03M89.297 180.383 51.44 158.527M210.602 208.27l-17.696-10.22M135.703 337.996l-17.695-10.219M249.25 207.918l.266.156M154.723 371.645l.27.152M303.793 239.41l7.55 4.356M209.27 403.133l7.546 4.36M302.39 259.273l28.673 16.56M225.77 391.984l28.671 16.555M366.762 276.559l22.886 13.214M272.922 439.09l22.89 13.215M512.356 117.09c-17.97-10.375-47.106 6.445-65.075 37.57-17.972 31.125-17.972 64.77 0 75.145M488.941 212.156l6.06-15.691 8.769-15.18 10.82-13.547 12.101-10.976 6.239-4.254 6.215-3.32 6.054-2.325 5.813-1.293 5.469-.238 5 .828 4.472 1.871 3.852 2.89M488.941 212.156l4.915 6.063 5.496 4.414 5.402 1.36 4.875-.68M509.992 223.602c-.12-.098-.246-.196-.363-.29"/><path fill="none" stroke="#000" stroke-linecap="round" stroke-linejoin="round" stroke-miterlimit="10" stroke-width=".39849726" d="m509.992 223.602 4.77-15.309 7.262-14.797 9.289-13.336 10.77-11.058 5.71-4.43 5.836-3.617 5.855-2.735 5.778-1.804 5.601-.848 5.34.125 4.977 1.082 4.554 2.031M506.04 262.988l-4.157-1.687-3.766-2.422-3.328-3.121-2.851-3.781M520.184 272.441l-3.282-2.367-2.812-3.035-4.098-7.926M509.992 259.113c-.12-.125-.246-.254-.363-.379M509.629 258.734l-4.07-5.363-4.368-4.453M544.555 234.129c7.183.426 16.222-7.813 20.183-18.399 2.461-6.574 2.461-12.828 0-16.562"/><path fill="none" stroke="#000" stroke-linecap="round" stroke-linejoin="round" stroke-miterlimit="10" stroke-width=".39849726" d="M546.527 228.746c5.16.34 11.668-5.562 14.54-13.176 1.796-4.765 1.796-9.308 0-12.004M496.438 251.703c-3.723 2.149-9.754-1.336-13.473-7.781-3.723-6.442-3.723-13.406 0-15.555 3.719-2.148 9.75 1.336 13.469 7.778 3.722 6.445 3.722 13.41.004 15.558M505.52 246.398c3.683-2.171 3.652-9.128-.075-15.539-3.695-6.355-9.652-9.793-13.347-7.707"/><path fill="none" stroke="#000" stroke-linecap="round" stroke-linejoin="round" stroke-miterlimit="10" stroke-width=".39849726" d="m482.016 208.156-3.543 2.555-2.828 3.422-1.782 4.117-.613 4.523.606 4.81 1.777 4.98 6.36 9.418M488.941 212.156l-6.925-4M615.969 176.082c18.172 10.488 18.172 44.504.004 75.973-18.172 31.468-47.63 48.476-65.797 37.988-18.172-10.492-18.172-44.508 0-75.977 18.168-31.468 47.625-48.476 65.793-37.984M514.887 226.43l-4.895-2.828M514.887 261.941l1.926-1.382 1.421-2.52.844-3.668.281-4.574-.28-5.371-.845-5.98-3.347-12.016M514.887 261.941l-4.895-2.828"/><path fill="none" stroke="#000" stroke-linecap="round" stroke-linejoin="round" stroke-miterlimit="10" stroke-width=".39849726" d="M542.316 271.14c9.297 17.923 33.184 14.31 53.352-8.07 20.172-22.379 28.988-55.05 19.691-72.972-4.007-7.73-10.992-11.762-19.691-11.371"/><path fill="none" stroke="#000" stroke-linecap="round" stroke-linejoin="round" stroke-miterlimit="10" stroke-width=".39849726" d="M613.352 180.617c16.722 9.653 16.722 40.961 0 69.926s-43.836 44.617-60.559 34.96c-16.723-9.651-16.719-40.96.004-69.92 16.723-28.966 43.832-44.622 60.555-34.966M514.887 261.941l.094-.117M514.98 261.824l-5.351-3.09M514.98 261.824a11 11 0 0 0 2.575-2.304M482.016 208.156c-7.297 5.442-7.332 19.809-.078 33.696"/><path fill="none" stroke="#000" stroke-linecap="round" stroke-linejoin="round" stroke-miterlimit="10" stroke-width=".39849726" d="M548.656 223.82q.382-.175.77-.39M549.379 222.3l.047 1.13M555.863 210.836c-.363 3.617-2.691 7.648-5.644 9.773M549.563 221.922l.054 1.394"/><path fill="none" stroke="#000" stroke-linecap="round" stroke-linejoin="round" stroke-miterlimit="10" stroke-width=".39849726" d="M549.617 223.316c4.555-2.691 8.239-9.066 8.29-14.359M556.672 209.61l1.234-.653M557.906 208.734l-.996.524M557.906 208.734q0-.439-.043-.859M557.906 208.957l-.195-.117M549.617 223.316l-.203-.109M569.805 150.922l4.625 3.406 5.222 2.102M515.656 268.871l-4.343-3.488-5.274-2.395M482.988 228.41l9.11-5.258M496.41 251.656l9.11-5.258M500.938 260.781l-53.657-30.976M566.012 148.066l-53.656-30.976M550.297 289.828l-30.113-17.387M615.848 176.293l-30.114-17.387M521.262 85.348l-1.59 1.527M477.918 60.324l43.344 25.024M520.2 84.734l-43.344-25.023M519.672 86.875l.527-2.14M407.215 181.309l1.191.671M363.871 156.285l43.344 25.024M363.406 158.203l1.645-1.238M406.75 183.227l-43.344-25.024M408.406 181.98l-1.656 1.247M439.828 60.457l.524-1.14M483.691 84.34l-.972 2.133M440.352 59.316l43.34 25.024M482.211 84.926l-43.344-25.024M482.719 86.473l-.508-1.547M404.586 194.879l1.363.344M361.246 169.855l43.34 25.024M361.012 171.703l1.3-1.23M404.352 196.73l-43.34-25.027M405.95 195.223l-1.598 1.507M398.414 92.598l-.012-1.926M441.754 117.621l-43.34-25.023M441.746 115.695l.008 1.926M398.402 90.672l43.344 25.023M397.063 92.23l1.351.368M440.406 117.254 397.063 92.23M441.754 117.621l-1.348-.367M431.305 256.273l.965-1.128M432.523 256.594l-1-.578M432.68 255.379l-.157 1.215M404.356 219.797l1.593-.332M361.012 194.773l43.344 25.024M361.25 196.352l.727-1.024M404.59 221.375l-43.34-25.023M405.95 219.465l-1.36 1.91M381.43 116.656l-.528-1.531M424.773 141.68l-43.343-25.024M424.246 140.148l.527 1.532M380.902 115.125l43.344 25.023M379.84 116.965l1.59-.309M423.184 141.988l-43.344-25.023M424.773 141.68l-1.59.308M429.125 65.844l.504-1.446M472.969 89.422l-.75 2.16M429.629 64.398l43.34 25.024M471.469 90.29l-43.344-25.024M472.219 91.582l-.75-1.293M389.434 104.137l-.27-1.75M432.777 129.16l-43.343-25.023M432.504 127.41l.273 1.75M389.164 102.387l43.34 25.023M387.95 104.105l1.484.032M431.29 129.129l-43.34-25.024M432.777 129.16l-1.488-.031M469.59 57.09l.219-.258M513.152 81.855l-1.488 1.747M469.809 56.832l43.343 25.023M511.938 81.54l-43.344-25.028M511.664 83.602l.274-2.063M369.09 143.395l-.992-.985M412.434 168.418l-43.344-25.023M411.441 167.434l.993.984M368.098 142.41l43.343 25.024M367.418 144.352l1.672-.957M410.758 169.375l-43.34-25.023M412.434 168.418l-1.676.957M528.164 90.902l-.973.746M527.168 90.328l.996.574M526.781 91.41l.5-1.402M408.14 82.313l.255-2.043M451.734 105.293l-.25 2.059M408.395 80.27l43.34 25.023M450.305 106.656l-43.34-25.023M451.484 107.352l-1.18-.696M403.625 207.816l1.5.004M360.285 182.793l43.34 25.023M360.285 184.527l1-1.156M403.629 209.55l-43.344-25.023M405.125 207.82l-1.496 1.73M416.293 247.227l1.652-1.266M372.95 222.203l43.343 25.024M373.832 223.098l.113-.32M417.176 248.121l-43.344-25.023M417.945 245.961l-.77 2.16M410.77 239.75l1.671-.98M367.426 214.727l43.344 25.023M368.106 215.875l.28-.598M411.45 240.902l-43.344-25.027M412.441 238.77l-.992 2.132M423.195 252.781l1.59-1.523M379.852 227.758l43.343 25.023M424.258 253.395l-1.063-.614M424.785 251.258l-.527 2.137M406.754 230.531l1.656-.664M363.414 205.504l43.34 25.027M363.879 206.887l.484-.832M407.219 231.91l-43.34-25.023M408.41 229.867l-1.191 2.043M460.313 56.027l.378-.543M504.035 80.512l-1.347 1.922M460.691 55.484l43.344 25.028M502.695 80.496l-43.343-25.023M502.688 82.434l.007-1.938M418.473 73.188l.414-1.747M462.23 96.465l-.507 2.133M418.887 71.441l43.344 25.024M460.746 97.594 417.402 72.57M461.723 98.598l-.977-1.004M450.313 57.16l.48-.84M494.133 81.344l-1.176 2.054M450.793 56.32l43.34 25.024M492.703 81.633l-43.34-25.024M492.957 83.398l-.254-1.765M374.59 129.852l-.766-1.274M417.934 154.875l-43.344-25.023M417.164 153.602l.77 1.273M373.824 128.578l43.34 25.024M372.941 130.492l1.649-.64M416.281 155.516l-43.34-25.024M417.934 154.875l-1.653.64M424.965 250.926c-26.102-15.07-26.102-63.938 0-109.149 26.105-45.21 68.426-69.644 94.527-54.574M513.152 81.855a32.8 32.8 0 0 1 7.047 2.88"/><path fill="none" stroke="#000" stroke-linecap="round" stroke-linejoin="round" stroke-miterlimit="10" stroke-width=".39849726" d="M504.035 80.512c2.735.07 5.383.414 7.903 1.023M494.133 81.344c2.926-.551 5.797-.836 8.562-.852M483.691 84.34c3.047-1.16 6.067-2.067 9.016-2.703M472.969 89.422c3.09-1.742 6.187-3.254 9.242-4.496M462.23 96.465a101 101 0 0 1 9.239-6.172M451.734 105.293a126 126 0 0 1 9.012-7.7M441.746 115.695a143 143 0 0 1 8.559-9.039M432.504 127.41c2.52-3.52 5.168-6.922 7.906-10.156M424.246 140.148a167 167 0 0 1 7.043-11.015M417.164 153.602a168 168 0 0 1 6.02-11.614M411.441 167.434a160 160 0 0 1 4.84-11.918M407.215 181.309c.984-3.95 2.172-7.946 3.543-11.934M404.586 194.879c.52-3.813 1.242-7.715 2.164-11.652M403.625 207.816c.035-3.586.277-7.3.727-11.09M404.356 219.797c-.45-3.27-.692-6.7-.727-10.246M406.754 230.531c-.922-2.87-1.645-5.937-2.164-9.156M410.77 239.75c-1.375-2.402-2.563-5.031-3.547-7.84M416.293 247.227a38 38 0 0 1-4.844-6.329M423.195 252.781a33 33 0 0 1-6.02-4.66M431.305 256.273a33 33 0 0 1-7.047-2.878M436.84 257.363a37 37 0 0 1-4.317-.773M528.164 90.902a37 37 0 0 1 2.84 3.364M521.262 85.348a33 33 0 0 1 6.02 4.66M450.793 56.32c2.926-.55 5.793-.836 8.559-.847M367.426 214.727c-1.375-2.403-2.563-5.032-3.547-7.84M379.852 227.758a33 33 0 0 1-6.016-4.66M372.95 222.203a38 38 0 0 1-4.844-6.324M408.395 80.27a125 125 0 0 1 9.007-7.704M368.098 142.41a162 162 0 0 1 4.84-11.922M460.691 55.484c2.739.075 5.383.418 7.903 1.028M418.887 71.441a102 102 0 0 1 9.238-6.175M373.824 128.578a166 166 0 0 1 6.016-11.61M380.902 115.125a167 167 0 0 1 7.047-11.02M363.414 205.504a62 62 0 0 1-2.164-9.152M361.012 194.773c-.45-3.27-.692-6.699-.727-10.246M389.164 102.387a159 159 0 0 1 7.899-10.157M398.402 90.672a143 143 0 0 1 8.563-9.04M360.285 182.793c.035-3.586.278-7.3.727-11.09M429.629 64.398a80 80 0 0 1 9.238-4.496M440.352 59.316c3.043-1.16 6.062-2.07 9.007-2.707M361.246 169.855a124 124 0 0 1 2.16-11.652M363.871 156.285c.985-3.949 2.172-7.945 3.543-11.933M469.809 56.832a32.8 32.8 0 0 1 7.047 2.879M316.961 32.5c-11.223-6.48-29.414 4.023-40.637 23.46-11.218 19.435-11.218 40.442 0 46.919"/><path fill="none" stroke="#000" stroke-linecap="round" stroke-linejoin="round" stroke-miterlimit="10" stroke-width=".39849726" d="M303.77 27.762c-11.754-3.973-28.829 8.168-38.141 27.113-7.832 15.926-7.832 32.063 0 38.945M228.746 72.824c-10.605-6.12-10.605-25.969-.004-44.336C239.348 10.125 256.54.2 267.141 6.32M304.328 82.371l25.203 14.55M304.328 156.602c-14.789-13.254-14.789-43.899 0-74.227M304.328 156.602l22.219 12.828M386.356 35.012l13.347 7.707M351.52 65.25l36.046 20.813M333.703 175.57c-13.375-7.722-18.601-27.226-13.703-51.156 4.32-21.121 16.008-43.059 31.52-59.16M390.79 42.578c6.667-.777 12.733.332 17.812 3.262M390.79 42.578l28.905 16.688M370.422 219.438c-26.082-15.11-26.043-64 .082-109.196 26.086-45.137 68.355-69.543 94.441-54.527M481.52 249.57c-36.903 22.418-67.594 6.496-68.555-35.558-.965-42.051 28.172-94.313 65.07-116.73 23.867-14.497 46.262-13.384 58.735 2.925 6.746 8.816 10.16 21.559 9.82 36.656M390.79 42.578 351.52 65.25M304.328 82.371l82.028-47.36M294.285 113.25l-17.96-10.371M353.836 53.79 316.961 32.5M303.77 27.762l10.722 3.62M265.625 93.824l8.5 7.477M266.598 94.68l-37.852-21.856M304.992 28.176 267.141 6.32M351.402 185.79l-17.699-10.22M426.3 56.063l-17.698-10.22M464.95 55.71l.265.157M370.422 219.438l.266.152M519.492 87.203l7.551 4.356M424.965 250.926l7.55 4.36"/></svg>