<svg xmlns="http://www.w3.org/2000/svg" width="636.957" height="441.573"><defs><clipPath id="a"><path d="M285 247h135v194.145H285Zm0 0"/></clipPath></defs><path fill="none" stroke="#000" stroke-linecap="round" stroke-linejoin="round" stroke-miterlimit="10" stroke-width=".39861297" d="M304.621 345.918c-6.07-3.445-6.113-14.742-.094-25.23 3.895-6.782 9.59-11.864 14.942-13.325 2.668-.73 5.105-.515 7.05.63"/><path fill="none" stroke="#000" stroke-linecap="round" stroke-linejoin="round" stroke-miterlimit="10" stroke-width=".39861297" d="M304.66 345.941c-6.047-3.492-6.047-14.812 0-25.285 6.047-10.472 15.852-16.133 21.899-12.644M321.832 396.188c32.133-19.422 57.574-64.895 56.824-101.567-.281-13.601-4.215-24.668-11.273-31.691M332.992 313.66l.73-1.726M321.66 350.578l2.633-3.543M337.418 325.266l4.043-8.868"/><path fill="none" stroke="#000" stroke-linecap="round" stroke-linejoin="round" stroke-miterlimit="10" stroke-width=".39861297" d="m329.422 355.066 11-16.52 8.75-17.683M337.176 359.543l10.996-16.52 8.73-17.69M344.918 364.008l11.012-16.504 8.707-17.695M321.832 396.188l-9.512 4.617-9.3 2.781-8.872.914-8.222-.973"/><path fill="none" stroke="#000" stroke-linecap="round" stroke-linejoin="round" stroke-miterlimit="10" stroke-width=".39861297" d="m365.105 263.316 3.985 7.262 2.586 8.719 1.117 9.941-.426 10.93-2.004 11.645-3.492 12.023-4.86 12.082-6.109 11.828-7.226 11.246-8.188 10.344-8.91 9.18-9.387 7.804-9.625 6.23-9.625 4.442-9.367 2.48-8.867.512"/><path fill="none" stroke="#000" stroke-linecap="round" stroke-linejoin="round" stroke-miterlimit="10" stroke-width=".39861297" d="m360.645 264.355 2.66 7.579 1.449 8.656.23 9.535-1 10.207-2.25 10.68-3.488 10.922-4.621 10.906-5.637 10.668-6.52 10.2-7.288 9.507-7.926 8.582-8.383 7.445-8.656 6.192-8.746 4.824-8.649 3.347-8.375 1.77"/><path fill="none" stroke="#000" stroke-linecap="round" stroke-linejoin="round" stroke-miterlimit="10" stroke-width=".39861297" d="m355.254 266.164 1.543 7.563.523 8.336-.472 8.949-1.461 9.394-2.422 9.68-3.371 9.809-4.293 9.765-5.121 9.531-5.848 9.149-6.465 8.613-6.972 7.926-7.38 7.09-7.671 6.101-7.817 4.993-7.828 3.843-7.71 2.637"/><path fill="none" stroke="#000" stroke-linecap="round" stroke-linejoin="round" stroke-miterlimit="10" stroke-width=".39861297" d="m349.008 268.961.52 12.809-1.86 14.078-4.086 14.75-6.148 14.832M324.387 347.012l-9.676 11.707-10.535 10.094-11.035 8.113-11.172 5.765M341.848 273.145l-.496 9.55-1.684 10.086-2.828 10.395-3.887 10.496M311.988 348.566l-6.972 7.778-7.364 6.945-7.625 6.012-7.757 4.976M282.098 376.766l8.562-5.157 8.418-6.492 8.106-7.656 7.64-8.645"/><path fill="none" stroke="#000" stroke-linecap="round" stroke-linejoin="round" stroke-miterlimit="10" stroke-width=".39861297" d="m334.582 316.09 4.29-11.516 3.03-11.398 1.707-11.016.32-10.36M282.059 384.633l12.652-6.195 12.516-9.153 11.8-11.773 10.582-13.766M336.988 331.582l7.617-16.625 4.918-16.684 2.082-15.886-.042-7.399-.774-6.902"/><path fill="none" stroke="#000" stroke-linecap="round" stroke-linejoin="round" stroke-miterlimit="10" stroke-width=".39861297" d="m282.703 391.29 7.906-2.454 8.063-3.77 8.078-4.996 7.941-6.125 7.668-7.16 7.246-8.094 6.672-8.863 6.008-9.453 5.246-9.852 4.395-10.078 3.449-10.117 2.414-9.965 1.332-9.617.262-9.101-.79-8.43-1.823-7.606"/><path fill="none" stroke="#000" stroke-linecap="round" stroke-linejoin="round" stroke-miterlimit="10" stroke-width=".39861297" d="m283.79 396.684 8.51-1.399 8.848-3.097 8.985-4.754 8.91-6.258 8.648-7.582 8.2-8.73 7.554-9.7 6.72-10.473 5.733-10.984 4.66-11.23 3.493-11.223 2.242-10.957.898-10.434-.468-9.644-1.782-8.66-3.027-7.504"/><path fill="none" stroke="#000" stroke-linecap="round" stroke-linejoin="round" stroke-miterlimit="10" stroke-width=".39861297" d="m285.04 401.098 9.003-.207 9.559-2.243 9.859-4.218 9.898-6.149 9.66-7.914 9.16-9.394 8.434-10.598 7.473-11.52 6.27-12.14 4.886-12.406 3.426-12.329 1.895-11.902.292-11.144-1.363-10.04-2.969-8.648-4.43-7.062M300.797 360.535l10.226-12.148M331.203 311.602l3.102-9.34 2.297-9.23 1.464-9.016.602-8.676M286.027 403.844c10.36 2.804 22.953.11 35.805-7.656"/><path fill="none" stroke="#000" stroke-linecap="round" stroke-linejoin="round" stroke-miterlimit="10" stroke-width=".39861297" d="M378.719 262.906c18.605 23.282 9.8 73.36-19.664 111.852-20.575 26.879-46.797 42.02-67.371 38.898M279.742 238.559l-1.387-1.106M263.29 236.504l-1.157.766M278.355 237.453l-15.066-.95M262.133 237.27l-1.516-.903M245.688 235.805l-1.016.625M260.617 236.367l-14.93-.562M244.672 236.43l-1.629-.692M228.277 235.535l-.875.469M243.043 235.738l-14.766-.203M211.098 235.645l-.746.308M225.668 235.527l-14.57.118M227.402 236.004l-1.734-.477M194.176 236.102l-.617.136M208.52 235.695l-14.344.407M210.352 235.953l-1.832-.258M186.527 236.41l-.82.067M191.645 236.195l-5.118.215M193.559 236.238l-1.914-.043M293.797 239.926l-4.262-1.543M281.047 237.66l-1.305.899M289.535 238.383l-8.488-.723M242.18 233.781l2.492 2.649M227.387 233.523l14.793.258M227.402 236.004l-.015-2.48M210.352 235.953l-.184-2.375M224.77 233.508l2.632 2.496M210.168 233.578l14.602-.07M259.781 234.477l2.352 2.793M244.828 233.855l14.953.622M244.672 236.43l.156-2.575M193.559 236.238l-.356-2.254M207.586 233.621l2.766 2.332M193.203 233.984l14.383-.363M277.535 235.633l2.207 2.926M262.453 234.621l15.082 1.012M262.133 237.27l.32-2.649M185.707 236.477l2.352-2.305M190.664 234.074l2.895 2.164M188.059 234.172l2.605-.098M291.43 236.875l2.367 3.05M280.23 235.852l11.2 1.023M279.742 238.559l.488-2.707M289.535 238.383a148.072 148.072 0 0 0-5.902 5.043M283.629 243.426l.559 4.71M284.188 248.137l-2.41-3.016M281.777 245.121c-.902.84-1.804 1.703-2.695 2.57M279.078 247.691l2.66 2.778M281.738 250.469l-4.476-.977M277.262 249.492a168.849 168.849 0 0 0-5.606 5.918M271.656 255.414l.95 4.695M272.605 260.11l-2.695-2.735M269.91 257.375a169.26 169.26 0 0 0-2.527 2.945M267.383 260.32l2.93 2.465M270.313 262.785l-4.625-.418M265.688 262.367a195.663 195.663 0 0 0-5.176 6.649M260.512 269.02l1.375 4.59M261.887 273.61l-2.969-2.415M258.918 271.195a178.94 178.94 0 0 0-2.293 3.25M256.625 274.445l3.176 2.118M259.8 276.563l-4.702.125M255.098 276.688a194.977 194.977 0 0 0-4.618 7.218M250.48 283.906l1.805 4.407M252.285 288.313l-3.207-2.067M249.078 286.246a190.805 190.805 0 0 0-2.008 3.473M247.07 289.723l3.395 1.746M250.465 291.469l-4.719.636M245.746 292.105a194.895 194.895 0 0 0-3.941 7.61M241.805 299.715l2.242 4.137M244.047 303.852l-3.422-1.692M240.625 302.16c-.57 1.2-1.129 2.406-1.672 3.61M238.957 305.77l3.574 1.363M242.531 307.133l-4.664 1.11M237.867 308.242c-1.12 2.586-2.18 5.2-3.172 7.805M234.695 316.047l2.672 3.797M237.367 319.844l-3.597-1.305M233.77 318.54a163.418 163.418 0 0 0-1.29 3.663M232.48 322.2l3.72.968M236.2 323.168l-4.544 1.523M231.656 324.691a170.231 170.231 0 0 0-2.324 7.82M229.332 332.508l3.086 3.387M232.418 335.895l-3.734-.91M228.684 334.984a157.18 157.18 0 0 0-.88 3.621M227.809 338.605l3.812.579M231.621 339.184l-4.355 1.87M227.266 341.055a146.396 146.396 0 0 0-1.418 7.636M225.848 348.691l3.465 2.922M229.313 351.613l-3.825-.527M225.488 351.086a139.967 139.967 0 0 0-.445 3.492M225.047 354.578l3.863.203M228.91 354.781l-4.11 2.149M224.8 356.93a120.314 120.314 0 0 0-.476 7.265M224.324 364.195l3.813 2.41M228.137 366.605l-3.871-.152M224.266 366.453c-.016 1.102-.016 2.2 0 3.277M224.266 369.73l3.87-.148M228.137 369.582l-3.813 2.344M224.324 371.926c.082 2.285.242 4.531.477 6.715M224.8 378.64l4.11 1.872M228.91 380.512l-3.863.195M225.047 380.707a79.2 79.2 0 0 0 .441 2.98M225.488 383.688l3.825-.473M229.313 383.215l-3.465 2.453M225.848 385.668a73.175 73.175 0 0 0 1.418 6M227.266 391.668l4.355 1.312M231.621 392.98l-3.812.512M227.809 393.492c.273.883.566 1.758.87 2.61M228.684 396.102l3.734-.754M232.418 395.348l-3.086 2.476M229.332 397.824a56 56 0 0 0 2.324 5.137M231.656 402.961l4.543.746M236.2 403.707l-3.72.793M232.48 404.5c.415.738.848 1.465 1.29 2.172M233.77 406.676l3.597-.992M237.367 405.684l-2.672 2.41M234.695 408.094a45.127 45.127 0 0 0 3.172 4.144M237.867 412.238l4.664.196M242.531 412.434l-3.574 1.02M238.957 413.453a39.83 39.83 0 0 0 1.664 1.684M240.625 415.14l3.422-1.175M244.047 413.965l-2.242 2.258M241.805 416.223a38.766 38.766 0 0 0 3.941 3.05M245.746 419.277l4.719-.34M250.465 418.938l-3.395 1.195M247.07 420.133c.657.406 1.325.793 2.004 1.16M249.078 421.293l3.207-1.305M252.285 419.988l-1.805 2.024M250.48 422.012a39.375 39.375 0 0 0 4.614 1.886M255.098 423.898l4.703-.84M259.8 423.059l-3.175 1.32M256.625 424.379c.754.219 1.52.422 2.293.601M258.918 424.977l2.969-1.372M261.887 423.605l-1.375 1.708M260.512 425.313c1.683.324 3.418.546 5.18.675M265.688 425.988l3.132-.863M269.09 425.281l-1.707.801M267.383 426.082c.832.031 1.68.04 2.527.027M269.91 426.11l.324-.169M378.629 238.195l-.02-.363M378.61 237.832a47.45 47.45 0 0 0-1.29-2.172M377.324 235.656l.16 1.88M377.215 237.379l-.817-3.14M376.398 234.238a44.477 44.477 0 0 0-3.175-4.144M373.223 230.094l-.793 2.043M372.43 232.137l-.293-3.258M372.137 228.879a42.489 42.489 0 0 0-1.672-1.684M370.469 227.191l.449 3.41M370.918 230.602l-1.629-4.493M369.29 226.11a39.824 39.824 0 0 0-3.942-3.055M365.348 223.055l-.848 2.574M364.5 225.629l-.477-3.43M364.023 222.2a39.245 39.245 0 0 0-2.003-1.16M362.016 221.04l.66 3.538M362.676 224.578l-2.063-4.258M360.613 220.32a39.433 39.433 0 0 0-4.617-1.886M355.996 218.434l-.836 3.074M355.16 221.508l-.691-3.555M354.469 217.953a43.835 43.835 0 0 0-2.293-.601M352.172 217.355l.906 3.606M353.078 220.961l-2.5-3.945M350.578 217.016a45.35 45.35 0 0 0-5.176-.672M345.402 216.344l-.75 3.52M344.652 219.863l-.941-3.613M343.711 216.25c-.832-.031-1.68-.039-2.527-.027M341.184 216.223l1.171 3.617M342.355 219.84l-2.917-3.563M339.438 216.277c-1.836.09-3.715.274-5.61.555M333.828 216.832l-.601 3.91M333.227 220.742l-1.215-3.61M332.012 217.133c-.895.16-1.797.344-2.7.543M329.313 217.676l1.464 3.562M330.777 221.238l-3.316-3.117M327.461 218.121a74.69 74.69 0 0 0-5.902 1.77M321.559 219.895l-.395 4.226M321.164 224.121l-1.5-3.547M319.664 220.574c-.93.348-1.867.715-2.805 1.106M316.86 221.68l1.761 3.445M318.621 225.125l-3.676-2.625M314.945 222.5a96.44 96.44 0 0 0-6.05 2.941M308.895 225.445l-.125 4.473M308.77 229.918l-1.805-3.426M306.965 226.492c-.942.528-1.895 1.074-2.836 1.64M304.129 228.133l2.066 3.273M306.195 231.406l-3.996-2.093M302.2 229.313a120.974 120.974 0 0 0-6.055 4.046M296.148 233.355l.192 4.633M296.34 237.988l-2.106-3.246M294.234 234.742c-.937.692-1.875 1.406-2.804 2.133M255.992 417.719c-29.863-17.395-29.75-73.496.246-125.301 29.899-51.629 78.25-79.543 108.149-62.438M281.047 237.66l2.582 5.766M181.262 244.64c1.687-2.788 3.449-5.538 5.261-8.226M181.262 244.64l2.144 4.434M183.406 249.074l13.86-.84M197.266 248.234l-5.621-12.039M190.664 234.074l-.996-2.18M188.059 234.172c.53-.762 1.066-1.524 1.605-2.274M284.188 248.137l-4.446-9.578M197.266 248.234l3.011 1.989M200.277 250.223l-6.718-13.985M193.559 236.238l-3.079-6.52M189.668 231.895l.812-2.176M281.777 245.121l-3.422-7.668M263.29 236.504l4.765 10.762M268.055 247.266l11.023.425M191.254 229.715l1.95 4.27M190.48 229.719l.774-.004M194.176 236.102l5.582 12.003M199.758 248.105l14.133-.62M213.89 247.484l-5.37-11.789M207.586 233.621l-5.145-11.504M202.441 222.117l-5.285.012M191.254 229.715a187.672 187.672 0 0 1 5.902-7.586M267.902 249.84l-5.77-12.57M267.902 249.84l.153-2.574M213.89 247.484l2.895 2.164M216.785 249.648l-6.433-13.695M210.352 235.953l-6.176-13.36M202.441 222.117l1.735.477M265.402 247.188l-4.785-10.82M265.402 247.188l2.5 2.652M245.688 235.805l4.925 11.129M250.613 246.934l14.79.254M205.05 222.125l5.118 11.453M204.176 222.594l.875-.469M224.77 233.508l-4.954-11.18M219.816 222.328l-14.765-.203M250.629 249.414l-5.957-12.984M250.629 249.414l-.016-2.48M227.402 236.004l-5.953-12.984M219.816 222.328l1.633.692M244.672 236.43l-5.766-12.57M237.395 222.961l1.511.898M242.18 233.781l-4.785-10.82M222.461 222.398l4.926 11.125M221.45 223.02l1.011-.622M233.578 249.363l-6.176-13.36M233.578 249.363l-.183-2.375M228.277 235.535l5.118 11.453M237.395 222.961l-14.934-.563M233.395 246.988l14.601-.07M247.996 246.918l-4.953-11.18M265.594 181.61l1.484-.934M271.73 187.64l-1.007 1.97M267.078 180.676l4.652 6.965M277.098 196.426l-1.04 2.281M272.547 188.93l4.55 7.496M270.945 189.973l1.602-1.043M263.05 177.91l1.473-.797M266.238 179.484l-.949 1.668M264.523 177.113l1.715 2.371M282.383 205.832l-1.047 2.606M277.902 197.809l4.48 8.023M276.195 198.953l1.707-1.144M287.621 215.84l-.965 2.785M283.176 207.309l4.445 8.53M281.387 208.531l1.789-1.222M286.656 218.625l-1.683-3.191M292.852 226.43l-.809 2.777M288.41 217.406l4.442 9.024M286.656 218.625l1.754-1.219M292.043 229.207l-5.387-10.582M292.043 229.207l-1.906-3.152M285.691 216.957l.965 1.668M290.137 226.055l-4.446-9.098M286.656 218.625l-1.754-3.246M284.902 215.379l-4.445-8.61M280.363 206.75l-.699-1.469M279.664 205.281l-4.473-8.101M274.957 197.125l-.566-1.344M274.39 195.781l-4.535-7.578M269.04 186.902l-4.638-7.047M269.484 188.105l-.445-1.203M263.566 178.648l-.863-1.226M263.91 179.707l-.344-1.059M296.34 237.988l-4.297-8.781M290.93 227.719l1.113 1.488M294.234 234.742l-3.304-7.023M293.645 228.082l2.503 5.273M292.043 229.207l1.602-1.125M290.93 227.719l-15.235-1.817M275.695 225.902l4.535 9.95M274.242 226.922l1.453-1.02M274.89 224.172l15.247 1.883M274.89 224.172l-.648 2.75M285.691 216.957l-15.273-2.285M270.418 214.672l4.473 9.5M268.816 215.8l1.602-1.128M269.625 213.023l15.277 2.356M269.625 213.023l-.809 2.778M280.457 206.77l-15.273-2.774M265.184 203.996l4.441 9.027M263.43 205.219l1.754-1.223M264.395 202.43l15.27 2.851M264.395 202.43l-.965 2.789M275.191 197.18l-15.242-3.282M259.95 193.898l4.445 8.532M258.16 195.121l1.79-1.223M260.816 177.805a67.163 67.163 0 0 1 1.887-.38M260.816 177.805l2.75.843M266.238 179.484l14.934 4.965M281.172 184.45l-4.926-5.958M276.246 178.492l-5.328-2.015M264.523 177.113a57.035 57.035 0 0 1 6.395-.633M259.156 192.422l15.235 3.36M259.156 192.422l-1.043 2.605M269.855 188.203l-15.18-3.805M254.676 184.398l4.48 8.024M259.418 178.367l1.398-.562M281.172 184.45l.25.898M252.969 185.543l1.707-1.145M264.402 179.855l-5.437-1.62M253.871 183.016l15.168 3.886M253.871 183.016l-1.039 2.28M286.793 192.059l.344 1.058M271.73 187.64l15.063 4.419M252.238 180.258a72.436 72.436 0 0 1 6.727-2.02M252.238 180.258l1.633 2.758M286.793 192.059l-4.762-6.5M282.031 185.559l-14.953-4.883M267.902 249.84l-1.632-.692M251.504 248.941l-.875.473M266.27 249.148l-14.766-.207M250.629 249.414l-1.738-.476M234.324 249.055l-.746.308M248.89 248.938l-14.566.117M233.578 249.363l-1.828-.261M217.402 249.508l-.617.14M231.75 249.102l-14.348.406M216.785 249.648l-1.914-.043M206.266 249.98l-5.989.243M200.777 250.262l-.5-.04M214.871 249.605l-14.094.657M200.277 250.223l-1.984.175M200.277 250.223l-16.187.82M184.477 251.266l-.387-.223M198.293 250.398l-13.816.868M184.09 251.043l-2.047.395M184.09 251.043l-7.543.46M177.129 251.797l-.582-.293M182.043 251.438l-4.914.359M268.914 249.215l-1.012.625M277.262 249.492l-8.348-.277M180.965 249.238l3.125 1.805M178.46 249.414l2.505-.176M176.547 251.504l1.914-2.09M184.09 251.043l-.684-1.969M200.277 250.223l-.52-2.118M230.813 247.027l2.765 2.336M216.43 247.395l14.383-.368M216.785 249.648l-.355-2.253M247.996 246.918l2.633 2.496M268.914 249.215l2.742 6.2M272.605 260.11l-4.703-10.27M269.91 257.375l-3.64-8.227M251.504 248.941l5.117 11.457M256.621 260.398l10.762-.078M256.805 262.773l-6.176-13.359M256.805 262.773l-.184-2.375M254.04 260.438l-5.15-11.5M254.04 260.438l2.765 2.335M234.324 249.055l5.332 11.75M239.656 260.805l14.383-.367M240.012 263.059l-6.434-13.696M240.012 263.059l-.356-2.254M237.117 260.895l-5.367-11.793M237.117 260.895l2.895 2.164M217.402 249.508l5.582 12.008M222.984 261.516l14.133-.621M223.504 263.633l-6.719-13.985M223.504 263.633l-.52-2.117M220.492 261.645l-5.62-12.04M220.492 261.645l3.012 1.988M200.777 250.262l5.856 12.222M206.633 262.484l13.86-.84M207.316 264.453l-7.039-14.23M207.316 264.453l-.683-1.969M204.191 262.648l-5.898-12.25M204.191 262.648l3.125 1.805M184.477 251.266l6.156 12.398M190.633 263.664l13.558-1.016M191.473 265.473l-7.383-14.43M191.473 265.473l-.84-1.809M197.156 222.129l-1.082.398M196.074 222.527l2.781-2.437M198.855 220.09c.583-.692 1.176-1.383 1.766-2.063M200.625 218.027l.707-1.629M201.332 216.398l1.031-.34M202.363 216.059a170.02 170.02 0 0 1 6.395-6.746M208.758 209.309l-1.363.691M207.395 210l3.183-2.48M210.578 207.52c.625-.606 1.258-1.207 1.89-1.797M212.469 205.719l.539-1.063M213.008 204.656l1.308-.64M214.316 204.016a145.993 145.993 0 0 1 6.73-5.75M221.047 198.262l-1.66.941M219.387 199.203l3.558-2.437M222.945 196.766a136.76 136.76 0 0 1 1.961-1.493M224.906 195.273l.309-.5M225.215 194.773l1.605-.898M226.82 193.875a120.518 120.518 0 0 1 6.899-4.613M233.719 189.266l-1.961 1.132M231.758 190.398l3.89-2.3M235.648 188.098c.66-.391 1.329-.778 1.989-1.149M237.637 186.95l.02.042M237.656 186.992l1.907-1.101M239.563 185.89a94.661 94.661 0 0 1 6.902-3.355M246.656 182.574l1.723-.851M248.379 181.723a88.02 88.02 0 0 1 1.957-.77M250.508 181.238l1.73-.98M271.645 176.75l1.015-.312M272.66 176.438c.59-.004 1.184.003 1.77.019M275.008 177.094l1.12-.559M276.129 176.535a44.57 44.57 0 0 1 5.898.77M283.043 177.773l.574-.12M283.617 177.652c.54.133 1.078.27 1.606.422M286.137 178.82l.62-.277M286.758 178.543a39.21 39.21 0 0 1 5.262 2.152M293.348 181.43l.07-.004M293.418 181.426c.234.129.473.262.707.394M179.16 380.945c-.23-.132-.465-.273-.695-.414M178.46 380.531l-.026-.062M177.129 379.688a39.068 39.068 0 0 1-4.496-3.48M172.637 376.207l-.07-.68M171.465 375.113a37.11 37.11 0 0 1-1.168-1.183M170.297 373.93l-.184-.555M169.2 372.73a44.802 44.802 0 0 1-3.614-4.73M165.582 368.004l-.074-1.25M164.668 366.574c-.309-.5-.613-1.008-.906-1.523M163.766 365.05l-.243-1.034M162.93 363.523a56.785 56.785 0 0 1-2.649-5.855M160.281 357.668l-.047-1.68M159.64 355.934c-.21-.598-.417-1.211-.613-1.825M159.027 354.11l-.214-1.493M158.477 352.293a75.109 75.109 0 0 1-1.618-6.84M156.86 345.453l-.012-1.988M156.512 343.461c-.11-.688-.215-1.387-.313-2.086M156.2 341.375l-.122-1.914M155.945 339.316a96.348 96.348 0 0 1-.543-7.652M155.402 331.664l.004-2.207M155.402 329.457l-.047.004M155.355 329.461c-.007-.758-.007-1.527 0-2.293M155.355 327.168l.051-4.523M155.406 322.645l-.004 2.27M155.402 324.914c.082-2.707.266-5.48.543-8.281M155.945 316.633l-.027-1.84M155.918 314.793l.281-.516M156.2 314.277c.097-.812.202-1.629.312-2.445M156.512 311.832l.332-4.3M156.844 307.531l.015 1.907M156.86 309.438c.44-2.868.984-5.778 1.617-8.704M158.477 300.734l-.102-1.457M158.375 299.277l.652-.996M159.027 298.281c.196-.84.403-1.691.614-2.535M159.64 295.746l.56-3.996M160.2 291.75l.081 1.523M160.281 293.273c.79-2.957 1.68-5.937 2.649-8.914M162.93 284.36l-.223-1.063M162.707 283.297l1.059-1.426M163.766 281.871c.293-.855.593-1.71.902-2.562M164.668 279.305l.719-3.625M165.387 275.68l.195 1.136M165.582 276.816a188.893 188.893 0 0 1 3.617-8.902M169.2 267.914l-.384-.672M168.816 267.242l1.48-1.797M170.297 265.445c.383-.84.773-1.687 1.168-2.527M171.465 262.918l.82-3.191M172.285 259.727l.352.742M172.637 260.469a200.38 200.38 0 0 1 4.496-8.672M178.46 249.414c.462-.809.93-1.625 1.403-2.43M179.867 246.984l.852-2.703M180.719 244.281l.543.36"/><path fill="none" stroke="#000" stroke-linecap="round" stroke-linejoin="round" stroke-miterlimit="10" stroke-width=".39861297" d="M155.352 320.273c0-47.398 33.273-105.035 74.324-128.734M184.09 251.043l-3.371-6.762M180.965 249.238l-1.098-2.254M172.637 260.469l2.37 4.539M175.008 265.008l13.238-1.149M188.246 263.86l-6.203-12.422M263.43 205.219l-1.684-3.196M268.816 215.8l-5.386-10.581M274.242 226.922l-5.426-11.121M274.242 226.922l-2.058-3.047M267.703 214.309l1.113 1.492M272.184 223.875l-4.48-9.566M268.816 215.8l-1.906-3.155M262.465 203.547l.965 1.672M266.91 212.645l-4.445-9.098M263.43 205.219l-1.758-3.25M261.672 201.969l-4.442-8.61M256.438 191.871l-4.473-8.101M257.137 193.34l-.7-1.469M251.164 182.371l-.824-1.422M251.73 183.715l-.566-1.344M279.742 238.559l-5.5-11.637M272.984 225.621l1.258 1.3M277.535 235.633l-4.55-10.012M272.984 225.621l-15.164-1.371M257.82 224.25l4.633 10.371M256.516 225.148l1.304-.898M257.004 222.441l15.18 1.434M257.004 222.441l-.488 2.707M267.703 214.309l-15.234-1.817M252.469 212.492l4.535 9.95M251.016 213.512l1.453-1.02M251.668 210.762l15.242 1.883M251.668 210.762l-.652 2.75M262.465 203.547l-15.274-2.285M247.191 201.262l4.477 9.5M245.59 202.39l1.601-1.128M248.379 181.723l2.785.648M246.398 199.613l15.274 2.356M246.398 199.613l-.808 2.778M257.23 193.36l-15.273-2.774M241.957 190.586l4.441 9.027M240.203 191.809l1.754-1.223M251.965 183.77l-5.5-1.235M241.168 189.023l15.27 2.848M241.168 189.023l-.965 2.786M292.266 200.309l.445 1.207M277.098 196.426l15.168 3.883M239.563 185.89l1.605 3.133M292.266 200.309l-4.637-7.043M287.629 193.266l-15.082-4.336M256.805 262.773l-1.832-.261M240.629 262.918l-.617.14M254.973 262.512l-14.344.406M240.012 263.059l-1.914-.043M229.492 263.39l-5.988.243M224.004 263.672l-.5-.04M238.098 263.016l-14.094.656M223.504 263.633l-1.984.176M223.504 263.633l-16.188.82M207.703 264.676l-.387-.223M221.52 263.809l-13.817.867M191.758 265.887l-.285-.414M205.27 264.848l-13.512 1.039M207.316 264.453l-2.046.395M207.316 264.453l-15.843 1.02M176.191 267.25l-.187-.605M189.379 266.082l-13.188 1.168M191.473 265.473l-2.094.609M191.473 265.473l-15.47 1.172M173.875 267.465l-4.676.45M176.004 266.645l-2.129.82M176.004 266.645l-7.188.597M257.55 262.465l-.745.308M265.688 262.367l-8.137.098M176.004 266.645l-.996-1.637M188.246 263.86l3.227 1.613M172.68 265.223l3.324 1.422M170.297 265.445l2.383-.222M257.55 262.465l2.962 6.555M165.582 276.816l2.633 4.582M168.215 281.398l12.531-1.293M180.746 280.105l-6.871-12.64M172.68 265.223l-1.215-2.305M261.887 273.61l-5.082-10.837M180.746 280.105l3.406 1.227M258.918 271.195l-3.945-8.683M240.629 262.918l5.582 12.004M246.211 274.922l10.414-.477M176.191 267.25l6.82 12.625M183.012 279.875l12.894-1.242M195.906 278.633l-6.527-12.551M246.73 277.043l-6.718-13.984M246.73 277.043l-.519-2.121M195.906 278.633l3.32 1.422M194.258 270.777l-2.785-5.304M243.719 275.055l-5.621-12.04M243.719 275.055l3.011 1.988M224.004 263.672l5.855 12.219M229.86 275.89l13.859-.835M191.758 265.887l6.476 12.531M198.234 278.418l13.239-1.148M211.473 277.27l-6.203-12.422M230.543 277.863l-7.04-14.23M230.543 277.863l-.684-1.972M211.473 277.27l3.226 1.613M214.7 278.883l-7.384-14.43M214.7 278.883l-.84-1.809M207.703 264.676l6.156 12.398M213.86 277.074l13.558-1.015M227.418 276.059l-5.898-12.25M245.59 202.39l-5.387-10.581M251.016 213.512l-5.426-11.121M240.203 191.809l-2.52-4.762M256.516 225.148l-5.5-11.636M256.516 225.148l-2.207-2.925M249.762 212.211l1.254 1.3M254.309 222.223l-4.547-10.012M251.016 213.512l-2.059-3.047M244.477 200.898l1.113 1.493M248.957 210.465l-4.48-9.567M239.238 190.137l.965 1.672M243.684 199.234l-4.446-9.097M245.59 202.39l-1.906-3.156M238.45 188.559l-.813-1.61M240.203 191.809l-1.754-3.25M262.133 237.27l-5.617-12.122M255.129 224.043l1.387 1.105M259.781 234.477l-4.652-10.434M255.129 224.043l-15.066-.95M240.063 223.094l4.765 10.761M238.906 223.86l1.157-.766M239.227 221.211l15.082 1.012M239.227 221.211l-.32 2.648M249.762 212.211l-15.168-1.371M234.594 210.84l4.633 10.371M233.29 211.738l1.304-.898M235.648 188.098l2.801.46M233.777 209.031l15.18 1.434M233.777 209.031l-.488 2.707M244.477 200.898l-15.235-1.816M229.242 199.082l4.535 9.95M227.79 200.102l1.452-1.02M239.238 190.137l-5.52-.871M228.441 197.352l15.243 1.882M228.441 197.352l-.652 2.75M297.617 209.191l.567 1.344M282.383 205.832l15.234 3.36M226.82 193.875l1.621 3.477M297.617 209.191l-4.539-7.578M293.078 201.613l-15.176-3.804M169.496 282.664l-1.281-1.266M184.152 281.332l-14.656 1.332M184.152 281.332l-1.14-1.457M199.227 280.055l-15.075 1.277M199.227 280.055l-.993-1.637M214.7 278.883l-15.473 1.172M230.543 277.863l-15.844 1.02M227.418 276.059l3.125 1.804M246.73 277.043l-16.187.82M252.719 276.8l-5.989.243M169.496 282.664l-6.789.633M166.016 281.629l3.48 1.035M163.766 281.871l2.25-.242M214.984 279.293l-.285-.41M228.496 278.258l-13.512 1.035M230.543 277.863l-2.047.395M246.73 277.043l-1.988.176M230.93 278.086l-.387-.223M244.742 277.219l-13.812.867M199.418 280.66l-.191-.605M212.605 279.492l-13.187 1.168M214.7 278.883l-2.095.61M247.23 277.082l-.5-.039M255.098 276.688l-7.868.394M184.258 282.129l-.106-.797M197.102 280.875l-12.844 1.254M199.227 280.055l-2.125.82M169.527 283.656l-.03-.992M182.004 282.36l-12.477 1.296M184.152 281.332l-2.148 1.027M167.34 283.89l-4.41.47M169.496 282.664l-2.156 1.227M160.281 293.273l2.914 4.563M163.195 297.836l11.762-1.266M174.957 296.57l-7.617-12.68M166.016 281.629l-1.348-2.324M174.957 296.57l3.543.836M169.527 283.656l7.559 12.688M177.086 296.344l12.156-1.305M189.242 295.04l-7.238-12.68M189.242 295.04l3.48 1.03M184.258 282.129l7.183 12.68M191.441 294.809l12.536-1.297M203.977 293.512l-6.875-12.637M203.977 293.512l3.402 1.23M247.23 277.082l3.25 6.824M199.418 280.66l6.82 12.625M206.238 293.285l12.895-1.242M219.133 292.043l-6.528-12.55M252.285 288.313l-5.555-11.27M219.133 292.043l3.32 1.422M217.484 284.188l-2.785-5.305M249.078 286.246l-4.336-9.027M222.453 293.465l-.992-1.637M214.984 279.293l6.477 12.535M230.93 278.086l6.156 12.398M237.086 290.484l9.984-.761M221.461 291.828l13.238-1.152M234.7 290.676l-6.204-12.418M237.926 292.293l-7.383-14.43M237.926 292.293l-.84-1.809M234.7 290.676l3.226 1.617M233.29 211.738l-5.5-11.636M238.906 223.86l-5.617-12.122M227.79 200.102l-2.575-5.329M238.906 223.86l-2.351-2.794M231.902 210.633l1.387 1.105M236.555 221.066l-4.653-10.433M226.535 198.8l1.254 1.302M231.086 208.813l-4.55-10.012M233.29 211.738l-2.204-2.925M225.73 197.059l-.824-1.786M227.79 200.102l-2.06-3.043M221.602 220.445l14.953.621M221.602 220.445l-.153 2.575M231.902 210.633l-15.066-.95M216.836 209.684l4.766 10.761M215.68 210.45l1.156-.766M226.535 198.8l-5.488-.538M216.004 207.8l15.082 1.013M216.004 207.8l-.324 2.65M302.89 218.691l.7 1.47M287.621 215.84l15.27 2.851M214.316 204.016l1.688 3.785M302.89 218.691l-4.472-8.101M298.418 210.59l-15.242-3.281M237.926 292.293l-2.094.61M237.926 292.293l-15.473 1.172M222.645 294.07l-.192-.605M235.832 292.902l-13.187 1.168M207.484 295.54l-.105-.798M220.328 294.285l-12.844 1.254M222.453 293.465l-2.125.82M222.453 293.465l-15.074 1.277M250.465 291.469l-12.54.824M238.207 292.703l-.281-.41M245.746 292.105l-7.539.598M192.754 297.066l-.031-.996M205.23 295.77l-12.476 1.296M207.379 294.742l-2.149 1.028M207.379 294.742l-14.656 1.328M178.469 298.598l.031-1.192M190.566 297.3l-12.097 1.298M192.723 296.07l-2.157 1.23M192.723 296.07l-14.223 1.336M164.645 300.082l.085-1.383M176.348 298.828l-11.703 1.254M178.5 297.406l-2.152 1.422M178.5 297.406l-13.77 1.293M164.73 298.7l-1.535-.864M178.5 297.406l-1.414-1.062M192.723 296.07l-1.282-1.261M207.379 294.742l-1.14-1.457M164.73 298.7l-6.355.577M161.133 298.059l3.597.64M159.027 298.281l2.106-.222M162.598 300.3l-4.121.434M164.73 298.7l-2.132 1.6M156.86 309.438l3.21 4.484M160.07 313.922l10.946-1.067M171.016 312.855l-8.418-12.554M161.133 298.059l-1.492-2.313M171.016 312.855l3.636.45M164.645 300.082l8.355 12.57M173 312.652l11.36-1.187M184.36 311.465l-8.012-12.637M184.36 311.465l3.597.644M178.469 298.598l7.949 12.648M186.418 311.246l11.766-1.266M198.184 309.98l-7.618-12.68M198.184 309.98l3.543.836M192.754 297.066l7.559 12.684M200.313 309.75l12.156-1.3M212.469 308.45l-7.239-12.68M212.469 308.45l3.48 1.03M238.207 292.703l3.598 7.012M240.711 297.598l-2.785-5.305M230.605 308.152l-1.14-1.457M222.645 294.07l6.82 12.625M229.465 306.695l9.492-.925M240.625 302.16l-4.793-9.258M221.45 223.02l-5.77-12.57M215.68 210.45l-2.672-5.794M214.168 209.55l1.512.9M218.953 220.371l-4.785-10.82M221.45 223.02l-2.497-2.649M230.813 247.027l-5.145-11.5M213.328 207.656l-.86-1.937M215.68 210.45l-2.352-2.794M211.098 235.645l5.332 11.75M214.168 209.55l-5.41-.241M204.16 220.113l14.793.258M204.16 220.113l.016 2.48M292.852 226.43l11.277 1.703M202.363 216.059l1.797 4.054M306.965 226.492l-3.281-6.312M303.684 220.18l-15.274-2.774M158.156 314.098l3.668.261M156.2 314.277l1.956-.18M161.824 314.36l-5.906.433M161.824 314.36l-1.754-.438M174.652 313.305l-12.828 1.054M174.652 313.305l-1.652-.653M187.957 312.11l-13.305 1.195M187.957 312.11l-1.539-.864M201.727 310.816l-13.77 1.293M201.727 310.816l-1.414-1.066M215.95 309.48l-14.223 1.336M227.2 306.922l3.405 1.23M214.668 308.219l12.531-1.297M215.95 309.48l-1.282-1.261M230.605 308.152l-14.656 1.328M230.605 308.152l-2.148 1.028M215.98 310.477l-.03-.997M228.457 309.18l-12.477 1.297M215.95 309.48l-2.16 1.227M201.695 312.008l.032-1.192M213.79 310.707l-12.095 1.3M201.727 310.816l-2.153 1.418M187.871 313.492l.086-1.383M199.574 312.234l-11.703 1.258M187.957 312.11l-2.133 1.601M174.523 314.883l.13-1.578M185.824 313.711l-11.3 1.172M174.652 313.305l-2.101 1.777M161.668 316.125l.156-1.766M172.55 315.082l-10.882 1.043M161.824 314.36l-2.058 1.937M159.766 316.297l-3.82.336M242.531 307.133l-11.926 1.02M230.711 308.95l-.106-.798M237.867 308.242l-7.156.707M230.711 308.95l3.984 7.097M233.77 318.54l-5.313-9.36M215.98 310.477l7.56 12.683M223.54 323.16l8.94-.96M224.953 324.227l-1.414-1.067M221.41 323.39l-7.62-12.683M221.41 323.39l3.543.837M201.695 312.008l7.95 12.648M209.645 324.656l11.765-1.265M211.184 325.516l-1.54-.86M207.586 324.875l-8.012-12.64M207.586 324.875l3.598.64M187.871 313.492l8.356 12.57M196.227 326.063l11.359-1.188M197.879 326.715l-1.652-.652M194.242 326.266l-8.418-12.555M194.242 326.266l3.637.449M174.523 314.883l8.77 12.45M183.293 327.332l10.95-1.066M185.05 327.77l-1.757-.438M181.383 327.508l-8.832-12.426M181.383 327.508l3.668.262M161.668 316.125l9.187 12.285M170.855 328.41l10.528-.902M172.703 328.629l-1.848-.219M169.02 328.555l-9.254-12.258M169.02 328.555l3.683.074M158.156 314.098l-1.644-2.266M155.402 324.914l3.516 4.344M158.918 329.258l10.102-.703M204.176 222.594l-2.633-2.496M204.176 222.594l-2.844-6.196M201.543 220.098l-.918-2.07M198.855 220.09l2.688.008M224.953 324.227l-2.152 1.418M224.953 324.227l-13.77 1.289M211.098 326.902l.086-1.386M222.8 325.645l-11.702 1.257M211.184 325.516l-2.133 1.605M211.184 325.516l-13.305 1.199M197.754 328.293l.125-1.578M209.05 327.121l-11.296 1.172M197.879 326.715l-2.102 1.777M197.879 326.715l-12.828 1.055M184.895 329.535l.156-1.765M195.777 328.492l-10.882 1.043M185.05 327.77l-2.058 1.937M185.05 327.77l-12.347.859M172.531 330.582l.172-1.953M182.992 329.707l-10.46.875M172.703 328.629l-2 2.094M172.703 328.629l-11.855.629M160.668 331.387l.18-2.13M170.703 330.723l-10.035.664M160.848 329.258l-1.93 2.226M160.848 329.258l-5.383.195M158.918 331.484l-3.516.18M236.2 323.168l-11.247 1.059M224.918 325.418l.035-1.191M231.656 324.691l-6.738.727M157.156 329.36l3.692-.102M155.355 329.461l1.801-.102M160.848 329.258h-1.93M224.918 325.418l4.414 7.09M228.684 334.984l-5.883-9.34M211.098 326.902l8.355 12.57M219.453 339.473l8.356-.868M221.105 340.125l-1.652-.652M217.469 339.676l-8.418-12.555M217.469 339.676l3.636.449M197.754 328.293l8.766 12.45M206.52 340.742l10.949-1.066M208.277 341.176l-1.757-.434M204.61 340.918l-8.833-12.426M204.61 340.918l3.667.258M184.895 329.535l9.187 12.285M194.082 341.82l10.527-.902M195.93 342.04l-1.848-.22M192.246 341.965l-9.254-12.258M192.246 341.965l3.684.074M172.531 330.582l9.614 12.086M182.145 342.668l10.101-.703M184.074 342.668h-1.93M180.383 342.77l-9.68-12.047M180.383 342.77l3.691-.102M160.668 331.387l10.035 11.84M170.703 343.227l9.68-.457M157.156 329.36l-1.8-2.192M155.945 339.316l3.82 4.145M159.766 343.461l9.254-.176M169.02 343.285l-10.102-11.8M227.2 306.922l-6.872-12.637M207.484 295.54l7.184 12.679M302.2 229.313l-8.555-1.231M231.621 339.184l-10.516.941M220.977 341.703l.128-1.578M227.266 341.055l-6.29.648M208.121 342.945l.156-1.77M219.004 341.898l-10.883 1.047M221.105 340.125l-2.101 1.773M221.105 340.125l-12.828 1.05M195.754 343.992l.176-1.953M206.219 343.117l-10.465.875M208.277 341.176l-2.058 1.941M208.277 341.176l-12.347.863M183.89 344.797l.184-2.129M193.93 344.129l-10.04.668M195.93 342.04l-2 2.089M195.93 342.04l-11.856.628M172.531 345.313l.164-2.16M182.145 344.895l-9.614.418M184.074 342.668l-1.93 2.227M184.074 342.668l-3.61.137M161.668 345.492l.137-2.047M170.855 345.363l-9.187.13M172.59 343.156l-1.735 2.207M169.02 343.285l1.625-.129M158.156 343.465l1.446-.18M156.512 343.461l1.644.004M160.07 345.488l-3.21-.035M161.523 343.45l-1.453 2.038M158.477 352.293l4.12 3.898M162.598 356.191l8.418.493M171.016 356.684l-10.946-11.196M158.156 343.465l-1.957-2.09M171.016 356.684l1.265-.22M161.668 345.492l10.883 11.246M172.55 356.738l8.833.137M181.383 356.875l-10.528-11.512M181.383 356.875l1.445-.18M172.531 345.313l10.461 11.558M182.992 356.871l9.254-.176M192.246 356.695l-10.101-11.8M192.246 356.695l1.621-.129M183.89 344.797l10.04 11.84M193.93 356.637l9.68-.457M203.61 356.18l-9.68-12.051M203.61 356.18l3.69-.106M195.754 343.992l9.613 12.082M205.367 356.074l10.106-.699M215.473 355.375l-9.254-12.258M215.473 355.375l3.683.074M220.977 341.703l4.87 6.988M219.156 355.45l-2 2.09M219.156 355.45l-11.855.624M207.117 358.207l.184-2.133M217.156 357.54l-10.039.667M207.3 356.074l-1.933 2.23M207.3 356.074l-3.609.14M195.754 358.723l.168-2.16M205.367 358.305l-9.613.418M195.816 356.566l-1.734 2.207M184.895 358.902l.136-2.047M194.082 358.773l-9.187.13M184.75 356.86l-1.457 2.038M174.523 358.707l.106-1.91M183.293 358.898l-8.77-.19M174.203 356.785l-1.203 1.86M164.645 358.098l.066-1.75M173 358.645l-8.355-.547M164.16 356.309l-.965 1.656M163.195 357.965l-2.914-.297M228.91 354.781l-9.754.668M218.984 357.402l.172-1.953M224.8 356.93l-5.816.472M161.133 356.07l1.09-.23M159.64 355.934l1.493.136M207.3 356.074h-1.933M217.309 355.23l7.738-.652M219.156 355.45l-1.847-.22M218.984 357.402l5.34 6.793M224.266 366.453l-7.11-8.914M207.117 358.207l10.04 11.84M217.156 370.047l7.11-.317M215.473 370.105l-10.106-11.8M215.473 370.105l1.62-.128M195.754 358.723l10.465 11.558M206.219 370.281l9.254-.176M204.61 370.285l-10.528-11.512M204.61 370.285l1.445-.18M184.895 358.902l10.882 11.246M195.777 370.148l8.832.137M194.242 370.09l-10.949-11.192M194.242 370.09l1.266-.215M174.523 358.707l11.301 10.895M185.824 369.602l8.418.488M184.36 369.48 173 358.645M184.36 369.48l1.09-.23M164.645 358.098l11.703 10.507M176.348 368.605l8.011.875M161.133 356.07l-2.106-1.96M162.93 363.523l4.41 3.606M167.34 367.129l7.617 1.285M174.957 368.414l-11.762-10.45M225.488 351.086l-6.484-9.188M208.121 342.945l9.188 12.285M228.137 369.582l-1.219.043M218.984 372.133l.164-2.16M224.324 371.926l-5.34.207M208.121 372.313l.137-2.047M217.309 372.18l-9.188.133M219.043 369.977l-1.734 2.203M197.754 372.117l.101-1.91M206.52 372.309l-8.766-.192M207.977 370.27l-1.457 2.039M187.871 371.508l.067-1.754M196.227 372.055l-8.356-.547M197.426 370.195l-1.2 1.86M178.469 370.441l.027-1.562M186.418 371.375l-7.95-.934M187.387 369.719l-.969 1.656M169.527 368.887l-.004-1.348M177.086 370.238l-7.559-1.351M177.84 368.797l-.754 1.441M174.957 368.414l.906-.23M166.016 366.86l.726-.215M164.668 366.574l1.348.285M168.215 368.61l-2.633-.606M168.777 367.402l-.562 1.207M169.2 372.73l4.675 3.274M173.875 376.004l6.871 2.191M180.746 378.195l-12.531-9.586M166.016 366.86l-2.25-1.81M180.746 378.195l.55-.183M169.527 368.887l12.477 9.656M182.004 378.543l7.238 1.727M189.242 380.27l-12.156-10.032M189.242 380.27l.727-.215M178.469 370.441l12.097 10.098M190.566 380.54l7.618 1.284M198.184 381.824l-11.766-10.449M198.184 381.824l.906-.23M187.871 371.508l11.703 10.508M199.574 382.016l8.012.875M207.586 382.89l-11.36-10.835M207.586 382.89l1.086-.23M197.754 372.117l11.297 10.895M209.05 383.012l8.419.488M217.469 383.5l-10.95-11.191M217.469 383.5l1.265-.215M218.984 372.133l5.817 6.508M220.652 383.605l-1.199 1.856M211.098 384.918l.066-1.754M219.453 385.461l-8.355-.543M210.613 383.129l-.968 1.656M201.695 383.852l.028-1.563M209.645 384.785l-7.95-.933M201.066 382.207l-.753 1.441M192.754 382.297l-.004-1.348M200.313 383.648l-7.56-1.351M192.004 380.813l-.563 1.203M184.258 380.223l-.024-1.098M191.441 382.016l-7.183-1.793M183.402 378.914l-.39.945M176.191 377.598l-.039-.813M183.012 379.86l-6.82-2.262M175.246 376.484l-.238.668M175.008 377.152l-2.371-.945M220.977 385.527l.101-1.91M225.848 385.668l-4.871-.14M172.68 375.57l.37-.136M171.465 375.113l1.215.457M219.004 383.555l6.484.133M220.977 385.527l6.289 6.141M227.809 393.492l-8.356-8.031M211.098 384.918l11.703 10.508M222.8 395.426l5.884.676M221.41 395.234l-11.765-10.449M221.41 395.234l.906-.23M201.695 383.852l12.094 10.097M213.79 393.95l7.62 1.284M212.469 393.68l-12.156-10.032M212.469 393.68l.726-.215M192.754 382.297l12.476 9.656M205.23 391.953l7.239 1.727M203.977 391.605l-12.536-9.59M203.977 391.605l.546-.183M184.258 380.223l12.844 9.191M197.102 389.414l6.875 2.191M195.906 388.98l-12.894-9.12M195.906 388.98l.371-.136M176.191 377.598l13.188 8.707M189.379 386.305l6.527 2.675M172.68 375.57l-2.383-1.64M177.129 379.688l4.914 2.914M182.043 382.602l6.203 3.18M188.246 385.781l-13.238-8.629M225.047 380.707l-7.738-8.527M208.121 372.313l10.883 11.242M224.918 397.262l.031-1.567M229.332 397.824l-4.414-.562M215.98 395.707l-.003-1.348M223.54 397.059l-7.56-1.352M224.293 395.617l-.754 1.442M207.484 393.633l-.027-1.098M214.668 395.426l-7.184-1.793M215.23 394.223l-.562 1.203M199.418 391.008l-.04-.813M206.238 393.27l-6.82-2.262M206.629 392.324l-.39.946M191.758 387.809l-.04-.485M198.234 390.563l-6.476-2.754M198.473 389.89l-.239.673M184.477 384.016l-.012-.102M190.633 387.273l-6.156-3.257M190.742 386.906l-.11.367M188.246 385.781l.192-.078M180.965 381.988l.02-.008M183.406 383.387l-.676-.403M183.414 383.355l-.008.032M184.473 383.996l-1.067-.61M180.965 381.988l-2.504-1.457M204.191 395.398l-13.558-8.125M204.191 395.398l.02-.007M191.758 387.809l13.512 8.203M205.27 396.012l6.203 3.18M211.473 399.191l-13.239-8.628M211.473 399.191l.191-.078M199.418 391.008l13.187 8.707M212.605 399.715l6.528 2.676M219.133 402.39l-12.895-9.12M219.133 402.39l.37-.136M207.484 393.633l12.844 9.191M220.328 402.824l6.871 2.192M227.2 405.016l-12.532-9.59M227.2 405.016l.546-.184M224.918 397.262l6.738 5.699M229.855 405.734l-.39.946M222.645 404.418l-.04-.813M229.465 406.68l-6.82-2.262M221.7 403.3l-.239.673M214.984 401.219l-.039-.485M221.461 403.973l-6.477-2.754M213.969 400.316l-.11.368M207.703 397.426l-.012-.106M213.86 400.684l-6.157-3.258M206.64 396.766l-.007.03M206.633 396.797l-.676-.402M230.711 407.043l-.027-1.098M234.695 408.094l-3.984-1.051M228.457 405.363l5.313 1.313M230.711 407.043l7.156 5.195M238.957 413.453l-9.492-6.773M222.645 404.418l13.187 8.703M235.832 413.121l4.793 2.02M234.7 412.602l-13.239-8.63M234.7 412.602l.19-.079M214.984 401.219l13.512 8.203M228.496 409.422l6.203 3.18M227.418 408.809l-13.559-8.125M227.418 408.809l.02-.008M207.7 397.402l-1.067-.605M232.48 404.5l-8.94-7.441M215.98 395.707l12.477 9.656M238.207 414.629l-.035-.484M241.805 416.223l-3.598-1.594M230.93 410.836l-.012-.106M237.086 414.094l-6.156-3.258M237.195 413.727l-.109.367M229.86 410.207l-.676-.406M229.867 410.176l-.008.031M230.926 410.813l-1.067-.606M238.207 414.629l7.54 4.648M250.48 422.012l-1.222-.797M256.625 424.379l-1.117-.55M247.07 420.133l-9.984-6.04M260.512 425.313l-.782-.711M267.383 426.082l-.82-.332M297.676 183.898l.687.383M298.363 184.281l1.059.617M299.441 184.89l-.097.044M298.34 184.305l.023-.024M295.93 182.867l.004.02M293.418 181.426l2.512 1.441M297 183.492l-4.98-2.797M286.758 178.543l2.004 1.582M288.762 180.125l14.093 7.148M302.855 187.273l-5.855-3.78M302.855 187.273l.028.207M299.441 184.89l5.899 3.704M305.34 188.594l13.816 7.68M319.156 196.273l.004.02M320.902 197.309l.688.379M321.59 197.688l1.058.62M322.668 198.3l-.098.044M306.367 189.3l-.437.212M320.227 196.902l-13.86-7.601M289.738 180.926l-.718.37M303.875 187.992l-14.137-7.066M287.2 179.715l-5.173-2.41M286.23 178.898l.063.391M283.617 177.652l2.613 1.246M288.3 180.664l.462-.539M305.078 188.871l.262-.277M321.563 197.715l.027-.027M376.629 235.113l.695.543M372.215 229.77l1.008.324M369.434 226.5l1.035.691M344.125 210.715l.691.383M344.816 211.098l1.059.62M344.79 211.121l.026-.023M342.383 209.684v.02M322.668 198.3l5.898 3.704M328.566 202.004l13.817 7.68M328.305 202.281l.261-.277M326.082 200.684l-5.855-3.782M326.082 200.684l.027.207M306.367 189.3l5.621 4.235M311.988 193.535l14.094 7.149M311.527 194.074l.461-.539M309.457 192.309l-5.582-4.317M309.457 192.309l.063.39M289.738 180.926l5.371 4.777M295.11 185.703l14.347 6.606M294.484 186.512l.625-.809M286.23 178.898l-1.007-.824M276.129 176.535l1.836 1.977M277.965 178.512l14.57 6.062M292.535 184.574l-5.336-4.86M345.895 211.711l-.098.043M329.594 202.711l-.438.207M343.453 210.313l-13.86-7.602M312.965 194.336l-.723.371M327.102 201.402l-14.137-7.066M296.047 186.602l-.965.523M310.426 193.125l-14.38-6.523M278.863 179.508l-1.168.672M293.465 185.488l-14.602-5.98M277.203 179.602l.762-1.09M292.535 184.574l.117.567M275.352 177.484l.18.735M272.66 176.438l2.692 1.046M275.352 177.484l-.922-1.027M278.863 179.508l4.95 5.87M283.813 185.379l14.769 5.512M298.582 190.89l-5.117-5.402M298.582 190.89l.176.739M296.047 186.602l5.144 5.32M301.191 191.922l14.57 6.062M315.762 197.984l-5.336-4.859M315.762 197.984l.113.563M312.965 194.336l5.371 4.773M318.336 199.11l14.348 6.609M332.684 205.719l-5.582-4.317M332.684 205.719l.062.386M329.594 202.711l5.62 4.23M335.215 206.941l14.094 7.153M349.309 214.094l-5.856-3.781M349.309 214.094l.027.207M364.05 222.395l1.298.66M282.945 186.754l.868-1.375M300.43 193.012l.761-1.09M317.711 199.922l.625-.813M334.754 207.484l.46-.543M351.793 215.414l10.223 5.625M351.531 215.691l.262-.277M352.82 216.121l-.437.207M360.613 220.32l-7.793-4.199M336.191 207.746l-.722.371M350.328 214.813l-14.137-7.067M319.273 200.008l-.964.527M333.652 206.535l-14.379-6.527M302.09 192.918l-1.168.672M316.691 198.895l-14.601-5.977M284.68 186.477l-1.34.804M299.473 191.902l-14.793-5.425M284.68 186.477l4.785 6.418M289.465 192.895l14.93 4.964M304.395 197.86l-4.922-5.958M304.395 197.86l.253.898M302.09 192.918l4.95 5.871M307.04 198.79l14.765 5.51M321.805 204.3l-5.114-5.405M321.805 204.3l.18.74M319.273 200.008l5.145 5.324M324.418 205.332l14.57 6.063M338.988 211.395l-5.336-4.86M338.988 211.395l.114.562M352.82 216.121l3.176 2.313M325.316 206.328l-1.168.672M339.918 212.305l-14.602-5.977M307.906 199.883l-1.34.808M322.7 205.313l-14.794-5.43M342.5 213.418l-.965.527M350.578 217.016l-8.078-3.598M290.305 194.086l-1.485.934M305.258 198.969l-14.953-4.883M288.512 194.563l.953-1.668M306.172 200.164l.867-1.375M323.656 206.422l.762-1.09M341.563 212.52l10.609 4.835M340.938 213.332l.625-.812M290.305 194.086l4.652 6.965M294.957 201.05l15.063 4.419M310.02 205.469l-4.762-6.5M310.02 205.469l.343 1.058M342.5 213.418l2.902 2.926M329.398 213.574l.868-1.375M325.316 206.328l4.95 5.871M330.266 212.2l10.918 4.023M343.711 216.25l-3.793-3.945M345.895 211.711l5.898 3.703M354.469 217.953l-4.14-3.14M336.191 207.746l5.372 4.774M313.531 207.496l-1.484.934M328.484 212.375l-14.953-4.879M295.773 202.336l-1.605 1.047M310.855 206.676l-15.082-4.34M331.133 213.293l-1.34.809M339.438 216.277l-8.305-2.984M293.95 203.02l1.007-1.97M327.621 211.27l.254.898M312.691 206.305l14.93 4.965M311.738 207.973l.953-1.668M222.945 196.766l2.785.293M331.133 213.293l2.695 3.539M327.621 211.27l-4.922-5.957M307.906 199.883l4.785 6.422M317.172 216.426l1.012-1.965M313.531 207.496l4.653 6.965M318.184 214.461l11.129 3.215M332.012 217.133l-3.528-4.758M301.129 211.219l-1.707 1.144M316.305 215.023l-15.176-3.804M319 215.746l-1.605 1.047M327.461 218.121 319 215.746M315.492 213.719l.446 1.207M300.324 209.836l15.168 3.883M299.285 212.117l1.04-2.281M319 215.746l2.559 4.149M315.492 213.719l-4.637-7.043M295.773 202.336l4.551 7.5M304.563 221.848l1.046-2.606M301.129 211.219l4.48 8.023M305.61 219.242l11.25 2.438M319.664 220.574l-3.36-5.55M306.402 220.719l-1.789 1.222M314.945 222.5l-8.543-1.781M210.578 207.52l2.75.136M306.402 220.719l2.493 4.726M308.77 229.918l-.57-1.074"/><path fill="none" stroke="#000" stroke-linecap="round" stroke-linejoin="round" stroke-miterlimit="10" stroke-width=".39861297" d="M205.96 189.285c-22.105 11.719-43.019 36.453-54.855 64.867-6.738 16.172-10.074 32.477-9.558 46.707M284.715 358.906c5.465-4.355 10.742-9.574 15.637-15.453M322.25 305.523c2.645-7.175 4.523-14.355 5.566-21.265M287.883 347.461a95.135 95.135 0 0 0 7.004-7.164M316.785 302.371a96.388 96.388 0 0 0 2.703-9.648M345.8 270.664c34.845-19.625 62.747-2.723 62.321 37.758-.426 40.48-29.016 89.207-63.86 108.832-34.241 19.289-61.902 3.316-62.32-35.98"/><path fill="none" stroke="#000" stroke-linecap="round" stroke-linejoin="round" stroke-miterlimit="10" stroke-width=".39861297" d="M392.461 265.383c25.344 14.633 25.34 62.07 0 105.965-25.34 43.89-66.426 67.61-91.766 52.98-25.34-14.629-25.34-62.07 0-105.96 25.344-43.895 66.426-67.614 91.766-52.985M283.324 212.273l1.649 3.16M229.676 191.54l6.965-4.024M155.352 320.273v8.043M260.098 198.863l1.648 3.16M180.465 342.805l-3.563.152M203.691 356.215l-3.562.152M226.918 369.625l-3.563.152M179.16 380.945l1.805 1.043M184.477 384.016l19.714 11.382M207.703 397.426l19.715 11.383M230.93 410.836l17.133 9.89M294.125 181.82l1.805 1.047M299.441 184.89l19.715 11.383M322.668 198.3l19.715 11.384M345.895 211.711l17.132 9.894M306.55 225.68l1.65 3.164M313.148 300.27l13.336 7.699M291.25 338.195l13.336 7.7"/><path fill="none" stroke="#000" stroke-linecap="round" stroke-linejoin="round" stroke-miterlimit="10" stroke-width=".39861297" d="M326.559 308.012c10.472 6.047 14.062 19.441 8.015 29.914-6.047 10.472-19.437 14.062-29.914 8.015M157.563 351.703l-4.157-4.394-3.558-5.036-2.938-5.605-2.312-6.102-2.77-13.48-.367-14.824 1.95-15.754 4.152-16.242L153.77 254l8.058-15.809 9.66-14.886 10.989-13.508 11.988-11.715 12.668-9.566 13.023-7.094 13.055-4.34 6.441-1.05 6.325-.259 6.14.563 5.883 1.402M258 177.738l1.66.532M157.563 351.703l1.289 1.172M364.39 229.977l30.192 17.43M255.992 417.719l30.196 17.433"/><g clip-path="url(#a)"><path fill="none" stroke="#000" stroke-linecap="round" stroke-linejoin="round" stroke-miterlimit="10" stroke-width=".39861297" d="m394.582 247.406 5.852 4.082 5.136 5.032 4.356 5.859 3.527 6.574 2.719 7.195 1.914 7.723 1.137 8.172.375 8.562-1.461 18.008-4.266 18.715L407 356.141l-9.21 18.28-11.227 17.118-12.856 15.36-14.074 13.05-14.867 10.27-7.602 3.957-7.648 3.101-7.645 2.203-7.59 1.243-7.457.23-7.25-.836-6.926-1.937-6.46-3.028"/></g><path fill="none" stroke="#000" stroke-linecap="round" stroke-linejoin="round" stroke-miterlimit="10" stroke-width=".39861297" d="M535.918 96.91c-22.09-10.926-56.625 10.496-77.133 47.848-19.433 35.394-19.433 72.8 0 85.754"/><path fill="none" stroke="#000" stroke-linecap="round" stroke-linejoin="round" stroke-miterlimit="10" stroke-width=".39861297" d="M551.895 97.074c-17.606-23.703-55.653-12.71-84.98 24.551-29.329 37.262-38.833 86.68-21.227 110.383 5.226 7.035 12.52 11.246 21.226 12.254"/><path fill="none" stroke="#000" stroke-linecap="round" stroke-linejoin="round" stroke-miterlimit="10" stroke-width=".39861297" d="M439.508 231.457c-24.11-14.094-23.988-59.45.273-101.297 24.153-41.66 63.164-64.183 87.317-50.41M569.207 183.54l-1.531.058M569.246 181.773l-.039 1.766M568.219 181.121l1.027.652M565.918 185.621l8.93 5.672M570.191 183.05c2.735 1.22 4.407 4.18 4.657 8.243M586.41 193.473l1.59-.871M574.848 191.293l5.082.957 6.48 1.223"/><path fill="none" stroke="#000" stroke-linecap="round" stroke-linejoin="round" stroke-miterlimit="10" stroke-width=".39861297" d="M569.207 183.54c9.328-4.923 16.8-.61 17.203 9.933"/><path fill="none" stroke="#000" stroke-linecap="round" stroke-linejoin="round" stroke-miterlimit="10" stroke-width=".39861297" d="M569.246 181.773c10.184-5.414 18.352-.699 18.754 10.829M559.988 217.035l-9.379-4.898M567.656 225.957l-4.3-5.004-3.368-3.918M567.695 227.77l-.039-1.813"/><path fill="none" stroke="#000" stroke-linecap="round" stroke-linejoin="round" stroke-miterlimit="10" stroke-width=".39861297" d="M559.988 217.035c-3.644 1.813-7.047 1.844-9.468.09M548.941 216.941c-.34-.175-.718-.375-1.058-.55M550.45 216.023l-1.509.918M549.734 214.672l.715 1.351"/><path fill="none" stroke="#000" stroke-linecap="round" stroke-linejoin="round" stroke-miterlimit="10" stroke-width=".39861297" d="M567.656 225.957c-9.332 4.922-16.804.61-17.207-9.934"/><path fill="none" stroke="#000" stroke-linecap="round" stroke-linejoin="round" stroke-miterlimit="10" stroke-width=".39861297" d="M567.695 227.77c-10.183 5.414-18.347.699-18.754-10.829M567.695 182.668c-.277-.16-.597-.348-.875-.508M567.656 184.434l.04-1.766M548.047 214.637l.894.515M548.941 215.152c.403-11.992 8.57-26.136 18.754-32.48M548.941 215.152l1.508-.918"/><path fill="none" stroke="#000" stroke-linecap="round" stroke-linejoin="round" stroke-miterlimit="10" stroke-width=".39861297" d="M550.45 214.234c.402-11.004 7.874-23.949 17.206-29.796"/><path fill="none" stroke="#000" stroke-linecap="round" stroke-linejoin="round" stroke-miterlimit="10" stroke-width=".39861297" d="M586.477 178.047c8.875 5.129 8.879 21.746 0 37.121-8.875 15.375-23.27 23.684-32.145 18.559-8.879-5.125-8.879-21.747-.004-37.122 8.88-15.375 23.27-23.683 32.149-18.558M533.246 211.918c1.531-5.805 3.785-11.688 6.664-17.387M544.52 186.402c3.367-5.32 7.21-10.238 11.359-14.527"/><path fill="none" stroke="#000" stroke-linecap="round" stroke-linejoin="round" stroke-miterlimit="10" stroke-width=".39861297" d="M560.781 167.227c21.149-18.348 42.598-15.914 47.914 5.437 5.313 21.352-7.523 53.535-28.672 71.883-21.144 18.348-42.597 15.91-47.914-5.442-1.503-6.042-1.582-13.234-.23-20.968M458.945 185.168c5.47-24.086 19.66-48.664 37.785-65.441"/><path fill="none" stroke="#000" stroke-linecap="round" stroke-linejoin="round" stroke-miterlimit="10" stroke-width=".39861297" d="M473.477 249.438c-23.747-13.829-23.66-58.43.187-99.618 23.774-41.054 62.219-63.25 85.992-49.644"/><path fill="none" stroke="#000" stroke-linecap="round" stroke-linejoin="round" stroke-miterlimit="10" stroke-width=".39861297" d="M477.574 251.559c-25.414-10.805-28.129-53.68-6.066-95.762 14.273-27.219 36.238-48.652 57.605-56.207 13.371-4.73 25.496-3.645 34.426 3.074"/><path fill="none" stroke="#000" stroke-linecap="round" stroke-linejoin="round" stroke-miterlimit="10" stroke-width=".39861297" d="M465.969 189.223c5.469-24.086 19.656-48.664 37.781-65.442"/><path fill="none" stroke="#000" stroke-linecap="round" stroke-linejoin="round" stroke-miterlimit="10" stroke-width=".39861297" d="M480.5 253.492c-23.746-13.828-23.66-58.43.188-99.617 23.77-41.055 62.218-63.254 85.988-49.645"/><path fill="none" stroke="#000" stroke-linecap="round" stroke-linejoin="round" stroke-miterlimit="10" stroke-width=".39861297" d="M484.598 255.613c-25.414-10.804-28.13-53.68-6.067-95.761 14.27-27.22 36.235-48.653 57.606-56.207 13.367-4.73 25.496-3.645 34.422 3.074"/><path fill="none" stroke="#000" stroke-linecap="round" stroke-linejoin="round" stroke-miterlimit="10" stroke-width=".39861297" d="M472.992 193.277c5.469-24.086 19.656-48.664 37.781-65.441"/><path fill="none" stroke="#000" stroke-linecap="round" stroke-linejoin="round" stroke-miterlimit="10" stroke-width=".39861297" d="M487.52 257.547c-23.743-13.828-23.66-58.43.191-99.617 23.77-41.055 62.219-63.254 85.988-49.645"/><path fill="none" stroke="#000" stroke-linecap="round" stroke-linejoin="round" stroke-miterlimit="10" stroke-width=".39861297" d="M491.617 259.664c-25.41-10.805-28.125-53.68-6.062-95.762 14.273-27.218 36.234-48.648 57.605-56.203 13.367-4.73 25.492-3.644 34.422 3.074"/><path fill="none" stroke="#000" stroke-linecap="round" stroke-linejoin="round" stroke-miterlimit="10" stroke-width=".39861297" d="M480.012 197.328c5.468-24.082 19.66-48.66 37.785-65.437"/><path fill="none" stroke="#000" stroke-linecap="round" stroke-linejoin="round" stroke-miterlimit="10" stroke-width=".39861297" d="M494.543 261.602c-23.77-13.786-23.727-58.364.098-99.567 23.785-41.133 62.297-63.367 86.078-49.7"/><path fill="none" stroke="#000" stroke-linecap="round" stroke-linejoin="round" stroke-miterlimit="10" stroke-width=".39861297" d="M498.64 263.719c-25.413-10.805-28.128-53.68-6.062-95.762 14.27-27.219 36.235-48.648 57.606-56.207 13.367-4.727 25.492-3.64 34.422 3.074"/><path fill="none" stroke="#000" stroke-linecap="round" stroke-linejoin="round" stroke-miterlimit="10" stroke-width=".39861297" d="M487.035 201.383c5.469-24.086 19.656-48.66 37.781-65.442"/><path fill="none" stroke="#000" stroke-linecap="round" stroke-linejoin="round" stroke-miterlimit="10" stroke-width=".39861297" d="M501.566 265.656c-23.726-13.867-23.605-58.484.262-99.66 23.762-40.992 62.153-63.156 85.914-49.605"/><path fill="none" stroke="#000" stroke-linecap="round" stroke-linejoin="round" stroke-miterlimit="10" stroke-width=".39861297" d="M505.66 267.773c-25.41-10.804-28.129-53.675-6.062-95.757 14.27-27.22 36.234-48.653 57.601-56.207 13.371-4.73 25.496-3.649 34.426 3.074"/><path fill="none" stroke="#000" stroke-linecap="round" stroke-linejoin="round" stroke-miterlimit="10" stroke-width=".39861297" d="M494.059 205.438c5.468-24.086 19.656-48.66 37.78-65.442"/><path fill="none" stroke="#000" stroke-linecap="round" stroke-linejoin="round" stroke-miterlimit="10" stroke-width=".39861297" d="M508.586 269.711c-23.746-13.828-23.66-58.43.187-99.617 23.774-41.059 62.22-63.254 85.993-49.645"/><path fill="none" stroke="#000" stroke-linecap="round" stroke-linejoin="round" stroke-miterlimit="10" stroke-width=".39861297" d="M512.684 271.828c-25.41-10.805-28.125-53.68-6.063-95.762 14.274-27.218 36.238-48.648 57.606-56.207 13.367-4.726 25.492-3.644 34.421 3.075"/><path fill="none" stroke="#000" stroke-linecap="round" stroke-linejoin="round" stroke-miterlimit="10" stroke-width=".39861297" d="M501.078 209.492c5.469-24.086 19.66-48.66 37.785-65.441"/><path fill="none" stroke="#000" stroke-linecap="round" stroke-linejoin="round" stroke-miterlimit="10" stroke-width=".39861297" d="M515.61 273.762c-23.747-13.828-23.66-58.43.187-99.617 23.773-41.055 62.219-63.25 85.988-49.645M543.328 276.902c-.394.102-.789.2-1.18.29"/><path fill="none" stroke="#000" stroke-linecap="round" stroke-linejoin="round" stroke-miterlimit="10" stroke-width=".39861297" d="M540.227 277.594c-31.895 6.023-49.055-23.973-38.325-66.996 10.735-43.028 45.29-82.793 77.184-88.817 18.062-3.41 32.246 4.782 38.324 22.125M618.23 146.457c.086.29.168.59.247.879"/><path fill="none" stroke="#000" stroke-linecap="round" stroke-linejoin="round" stroke-miterlimit="10" stroke-width=".39861297" d="M511.207 258.719c-13.45-24.762-1.516-70.606 26.652-102.395 15.395-17.375 33.301-27.71 48.696-28.113M514.645 105.586c-20.383 10.977-39.59 33.894-50.38 60.105-5.988 14.559-8.988 29.207-8.605 42.059"/><path fill="none" stroke="#000" stroke-linecap="round" stroke-linejoin="round" stroke-miterlimit="10" stroke-width=".39861297" d="M536.996 275.73c-27.965-.785-38.746-34.464-24.082-75.218 14.664-40.758 49.219-73.164 77.184-72.375 10.285.289 18.691 5.14 24.086 13.906M624.387 163.922l2.336 4.215M619.863 164.379l-1.023.598-.078 1.664 2.496 4.648M455.625 202.648c0-34.804 24.441-77.136 54.582-94.539"/><path fill="none" stroke="#000" stroke-linecap="round" stroke-linejoin="round" stroke-miterlimit="10" stroke-width=".39861297" d="M527.55 270.277c-21.269-12.386-21.19-52.336.169-89.226 21.293-36.774 55.726-56.653 77.02-44.465M633.106 177.957c.015 1.106.007 2.23-.028 3.367M633.078 181.324l-.531 1.985-1.344 1.05M631.203 184.36c-1.515.234-3.066.468-4.644.71M626.559 185.07l-1.621.97-.895 2.144.074 2.761 1.04 2.618M625.156 193.563a451.746 451.746 0 0 1 3.598 5.75M628.742 199.313l.766 2.457-.188 2.57M629.32 204.34a113.59 113.59 0 0 1-1.132 3.742M628.188 208.086l-1.247 2.184-1.894 1.183M625.047 211.453c-1.84.309-3.723.613-5.621.906M619.426 212.36l-2.153 1.05-1.601 2.219-.629 2.8.54 2.63M615.582 221.059a827.326 827.326 0 0 1 2.715 5.718M618.29 226.773l.3 2.415-.785 2.488M617.805 231.676a133.084 133.084 0 0 1-2.07 3.543M615.73 235.223l-1.832 2.015-2.34 1.035M611.559 238.273c-2.11.211-4.254.403-6.403.579M605.152 238.855l-2.562.844-2.149 1.91-1.152 2.465.168 2.356M599.457 246.43c.695 1.742 1.395 3.484 2.074 5.191M601.531 251.621l-.027 2.113-1.195 2.063M600.309 255.797c-.887.96-1.79 1.898-2.692 2.812M597.617 258.61l-2.215 1.503-2.613.614"/><path fill="none" stroke="#000" stroke-linecap="round" stroke-linejoin="round" stroke-miterlimit="10" stroke-width=".39861297" d="M592.79 260.727c-2.27-.043-4.571-.114-6.872-.211"/><path fill="none" stroke="#000" stroke-linecap="round" stroke-linejoin="round" stroke-miterlimit="10" stroke-width=".39861297" d="m585.922 260.516-2.984.453-2.512 1.418M581.102 270.668l-.414 1.289-1.188 1.082M579.5 273.04a68.34 68.34 0 0 1-2.906 1.644M576.594 274.684l-2.317.722h-2.68"/><path fill="none" stroke="#000" stroke-linecap="round" stroke-linejoin="round" stroke-miterlimit="10" stroke-width=".39861297" d="M571.598 275.406a302.044 302.044 0 0 1-6.946-1.355M564.652 274.05l-2.867-.241M559.953 279.973l-1.41.797M558.543 280.77a37.49 37.49 0 0 1-2.676.23M555.867 281l-4.66-.934M551.207 280.066a269.392 269.392 0 0 1-6.621-2.668M544.586 277.398l-2.102-.793M541.555 278.211l-.926-.398M540.629 277.813a24.969 24.969 0 0 1-2.035-1.215M538.59 276.598l-3.86-2.594M534.73 274.004a280.616 280.616 0 0 1-5.953-3.957M528.777 270.047l-3.867-3.207-.531-1.027.684-.2M525.063 265.613c1.015.219 2.07.41 3.125.586"/><path fill="none" stroke="#000" stroke-linecap="round" stroke-linejoin="round" stroke-miterlimit="10" stroke-width=".39861297" d="m528.18 266.207.605-.379-.3-1.203M528.484 264.625a38.75 38.75 0 0 1-1.09-2.484M527.395 262.14l-2.727-4M524.668 258.14a320.889 320.889 0 0 1-5.035-5.019M519.633 253.117l-1.73-2.23-.919-2.297.188-1.754 1.21-.715M518.383 246.121a228.63 228.63 0 0 0 4.066-.289M522.453 245.828l1.125-.836.383-1.785M523.961 243.207a69.554 69.554 0 0 1 .023-3.371M523.984 239.836l-1.433-4.945M522.55 234.89a435.829 435.829 0 0 1-4.003-5.702M518.547 229.188l-1.168-2.583-.152-2.746.953-2.168 1.77-.996M519.95 220.695c1.66-.25 3.359-.504 5.058-.754M525.012 219.941l1.652-1.062 1.078-2.059M527.742 216.82c.356-1.242.735-2.496 1.137-3.742M528.879 213.078l.379-2.687-.55-2.594M528.707 207.797a698.483 698.483 0 0 1-3.023-5.895M525.68 201.898l-.64-2.66.558-2.824 1.652-2.21 2.273-1.005M529.523 193.2c1.961-.247 3.954-.485 5.942-.72M535.465 192.48l2.121-1.019 1.672-1.973M539.258 189.488a139.832 139.832 0 0 1 2.07-3.547M541.332 185.938l.969-2.516-.102-2.442M542.2 180.98c-.755-1.863-1.505-3.73-2.247-5.574M539.953 175.402l-.23-2.457 1.105-2.511 2.18-1.871 2.64-.735M545.648 167.828c2.172-.082 4.391-.148 6.583-.2"/><path fill="none" stroke="#000" stroke-linecap="round" stroke-linejoin="round" stroke-miterlimit="10" stroke-width=".39861297" d="m552.223 167.629 2.445-.715 2.086-1.55M556.754 165.363c.887-.957 1.789-1.898 2.695-2.812M559.45 162.55l1.343-2.003.172-2.024M560.965 158.523a423.467 423.467 0 0 0-1.781-4.785"/><path fill="none" stroke="#000" stroke-linecap="round" stroke-linejoin="round" stroke-miterlimit="10" stroke-width=".39861297" d="m559.184 153.742.007-2.004 1.403-1.87 2.453-1.2 2.82-.23M565.867 148.438c2.281.222 4.594.472 6.875.738M572.734 149.172l4.829-1.047M577.563 148.125a75.887 75.887 0 0 1 2.906-1.648M580.469 146.477l1.453-1.223.238-1.406M582.16 143.848a131.065 131.065 0 0 0-1.707-3.641M580.453 140.207l.028-1.367 1.41-.988 2.43-.301 2.788.43M587.11 137.98c2.253.622 4.523 1.278 6.769 1.946M593.879 139.922l4.644.473M598.523 140.395a35.028 35.028 0 0 1 2.676-.235M601.195 140.16l1.27-.293.082-.683M602.547 139.184a54.978 54.978 0 0 0-2.027-2.325"/><path fill="none" stroke="#000" stroke-linecap="round" stroke-linejoin="round" stroke-miterlimit="10" stroke-width=".39861297" d="m600.52 136.86-.168-.645h1.12l4.66 1.84M606.133 138.055a308.876 308.876 0 0 1 6.305 3.222M612.434 141.277l4.004 2.07M616.438 143.348c.695.375 1.375.78 2.035 1.218M618.473 144.566l.855.73M617.902 146.809l2.141 1.836M620.043 148.645a273.2 273.2 0 0 1 5.54 4.394M625.574 153.043l3.008 3.496M628.582 156.54c.387.8.75 1.632 1.086 2.483"/><path fill="none" stroke="#000" stroke-linecap="round" stroke-linejoin="round" stroke-miterlimit="10" stroke-width=".39861297" d="m629.668 159.02.234 1.226-.43.738M626.723 168.137c1.539 1.742 3.07 3.523 4.574 5.293M631.3 173.422l1.806 4.535M627.695 181.86l-.457 1.968-1.297 1.05M627.684 181.086c.004.254.007.516.007.773M627.684 181.086l-.512-2.297-1.309-2.23M625.863 176.559a344.121 344.121 0 0 0-4.605-5.266M619.863 164.379c1.211-.008 2.395-.004 3.532.02M623.395 164.398l.722-.62-.277-1.391M623.574 161.824c.09.184.18.375.266.563M623.574 161.824l-3.023-3.48M620.55 158.344a300.294 300.294 0 0 0-5.558-4.371M614.992 153.973l-3.738-3.383-.621-.895.512-.015M611.145 149.68a42.28 42.28 0 0 1 2.62 1.12M613.766 150.8l.222.013-.902-.563M612.606 149.984c.16.086.324.176.48.266M612.606 149.984l-4.016-2.046M608.59 147.938a259.092 259.092 0 0 0-6.324-3.2M602.266 144.746l-2.028-.914M598.563 146.727l-1.489.574M596.45 147.371c.206-.023.417-.05.624-.07M596.45 147.371l-4.653-.45M591.797 146.922a272.49 272.49 0 0 0-6.777-1.906M585.016 145.02l-2.825-.403M579.965 152.121l-1.727 1.863M577.563 154.383c.222-.133.453-.27.675-.399M577.563 154.383l-4.829 1.066M572.734 155.45a342.96 342.96 0 0 0-6.863-.692M565.867 154.746l-3.09.336-2.535 1.48M561.05 165.828l-1.6 3.457M558.828 169.95c.203-.223.414-.45.617-.669M558.828 169.95l-2.082 1.554-2.441.723M554.305 172.227c-2.196.054-4.39.128-6.567.222M547.738 172.45l-2.636.757-2.16 1.902-1.086 2.551.242 2.488M542.098 180.148a4318.77 4318.77 0 0 0 2.277 5.649M544.375 185.797l.125 2.496-.937 2.578M543.09 191.7l.473-.829M543.09 191.7l-1.668 1.976-2.113 1.023M539.309 194.7c-1.985.234-3.965.48-5.918.734M533.387 195.43l-2.258 1.02-1.625 2.226-.523 2.836.667 2.676M529.648 204.188a568.49 568.49 0 0 0 3.086 5.93M532.734 210.121l.59 2.629-.324 2.707M532.75 216.324c.082-.285.164-.578.25-.867M532.75 216.324l-1.07 2.055-1.645 1.062M530.035 219.441c-1.699.254-3.39.504-5.043.754M524.996 220.195l-1.75.996-.918 2.168.195 2.739 1.204 2.574"/><path fill="none" stroke="#000" stroke-linecap="round" stroke-linejoin="round" stroke-miterlimit="10" stroke-width=".39861297" d="M523.727 228.672a424.296 424.296 0 0 0 4.086 5.7M527.813 234.371l1.558 4.934M529.379 240.078c-.004-.258-.008-.52-.008-.773M529.379 240.078l-1.004 2.43M522.606 245.79l2.636 4.089M525.242 249.879a321.543 321.543 0 0 0 5.117 4.976M530.36 254.855l2.867 3.918M533.492 259.336c-.09-.184-.18-.371-.27-.559M533.492 259.336l.196 1.43M531.648 262.922l2.313 1.656M533.961 264.578a241.286 241.286 0 0 0 6.027 3.871M539.992 268.45l3.985 2.46M544.461 271.176c-.16-.086-.324-.176-.484-.266M544.461 271.176l.875.394-.168-.257M545.168 271.313a44.626 44.626 0 0 1-2.336-1.793M542.84 269.508l-.25-.496 1.117.05 4.844 1.465M548.55 270.527c2.227.895 4.466 1.75 6.688 2.567M555.234 273.094l4.754.765M560.617 273.79c-.207.026-.422.05-.629.073M560.617 273.79l1.242-.513.098-.949M561.957 272.328a93.018 93.018 0 0 1-1.863-3.101"/><path fill="none" stroke="#000" stroke-linecap="round" stroke-linejoin="round" stroke-miterlimit="10" stroke-width=".39861297" d="m560.09 269.238-.012-1.222 1.418-.942 5.3-.246M566.797 266.828c2.332.45 4.668.863 6.98 1.242"/><path fill="none" stroke="#000" stroke-linecap="round" stroke-linejoin="round" stroke-miterlimit="10" stroke-width=".39861297" d="m573.773 268.07 2.711-.07 2.34-.82M579.5 266.777l-.676.403M579.5 266.777l1.356-1.375.164-1.601M581.02 263.8a368.676 368.676 0 0 1-1.786-4.288M579.238 259.512l.012-1.883 1.43-1.836 2.445-1.316 2.797-.438M585.922 254.04c2.305.065 4.598.105 6.863.112M592.79 254.152l2.624-.683 2.203-1.59M598.234 251.215c-.203.219-.41.445-.617.664M598.234 251.215l1.196-2.07.02-2.122M599.45 247.023a3600.73 3600.73 0 0 0-2.083-5.21M597.367 241.809l-.176-2.383 1.141-2.492 2.129-1.946 2.547-.879M603.008 234.11c2.148-.2 4.277-.419 6.367-.657M609.379 233.453l2.324-1.082 1.8-2.078M613.973 229.461c-.157.277-.313.559-.47.828M613.973 229.461l.78-2.488-.308-2.422M614.445 224.55c-.89-1.894-1.812-3.82-2.73-5.73M611.719 218.828l-.555-2.644.602-2.817 1.57-2.234 2.121-1.063M615.457 210.07c1.887-.304 3.742-.62 5.559-.941M621.02 209.129l1.859-1.215 1.184-2.21M624.313 204.836c-.082.285-.165.582-.25.867M624.313 204.836l.183-2.566-.777-2.461M623.719 199.809a399.044 399.044 0 0 0-3.61-5.746M620.11 194.063l-1.063-2.622-.106-2.757.848-2.133 1.59-.965M621.379 185.586c1.55-.238 3.078-.477 4.562-.707M605.324 146.266c16.95 14.707 13.492 52.422-7.718 84.238-18.098 27.144-43.84 41.848-61.782 35.289"/><path fill="none" stroke="#000" stroke-linecap="round" stroke-linejoin="round" stroke-miterlimit="10" stroke-width=".39861297" d="M600.11 144.055c19.445 9.937 20.347 44.777 2.019 77.812-11.856 21.367-29.527 37.692-46.348 42.805-9.113 2.773-17.41 2.07-23.875-2.024M631.3 173.422l-5.437 3.137M631.203 184.36l-5.262.519M628.742 199.313l-5.023.496M625.047 211.453l-4.027-2.324M618.29 226.773l-3.845-2.222M611.559 238.273l-2.18-4.82M601.531 251.621l-2.082-4.598M592.79 260.727v-6.575M571.598 275.406l2.175-7.336M551.207 280.066l4.027-6.972M534.73 274.004l5.262-5.555M524.668 258.14l5.691-3.285M522.55 234.89l5.263-.519M525.012 219.941l5.023-.5M528.707 207.797l4.027 2.324M535.465 192.48l3.844 2.22M542.2 180.98l2.175 4.817M552.223 167.629l2.082 4.598M572.734 149.172v6.277M593.879 139.922l-2.082 7M612.434 141.277l-3.844 6.66M625.574 153.043l-5.023 5.3M551 209.637l10.902 6.289"/><path fill="none" stroke="#000" stroke-linecap="round" stroke-linejoin="round" stroke-miterlimit="10" stroke-width=".39861297" d="M574.848 193.508c-.477 8.289-6.004 17.86-12.946 22.418M574.848 193.508l-10.899-6.297M569.246 226.875c-.52-.297-1.078-.617-1.594-.918M569.207 225.063l.04 1.812M561.902 215.926l3.207 4.015 4.098 5.122M586.41 193.469l1.59.922M588 194.39c-.402 11.993-8.57 26.141-18.754 32.485M586.41 195.262l-6.48-.985-5.082-.77M588 194.39l-1.59.872"/><path fill="none" stroke="#000" stroke-linecap="round" stroke-linejoin="round" stroke-miterlimit="10" stroke-width=".39861297" d="M586.41 195.262c-.402 11.004-7.875 23.949-17.203 29.8M527.102 79.746l15.484 8.938M439.508 231.457l15.484 8.941M582.547 180.988l-6.098-3.789M554.91 228.855l-6.332-3.386M581.285 147.691l17.04 9.836M525.262 244.305l17.222 9.941M559.656 100.172l.957.555M473.477 249.438l.957.554M566.68 104.227l.957.55M480.5 253.492l.957.555M573.7 108.281l.96.551M487.52 257.547l.96.555M580.723 112.332l.957.555M494.543 261.602l.957.554M587.742 116.387l.961.554M501.566 265.656l.957.551M594.766 120.441l.96.555M508.586 269.711l.96.55M601.79 124.496l.956.555M515.61 273.762l.956.554M604.738 136.582l12.39 7.152M527.55 270.277l12.388 7.153M510.207 108.11l2.516-1.454M455.625 202.648v2.903M623.762 164.281l5.71-3.297M581.102 264.395v6.273M562.031 272.98l-2.078 6.993M545.398 271.563l-3.84 6.648M533.691 260.766l-5.02 5.297M528.375 242.508l-5.434 3.137M561.05 165.828v-6.598M579.969 152.121l2.191-7.371M598.566 146.727l4.051-7.02M614.043 150.883l5.29-5.586M205.96 189.285c-22.105 11.719-43.019 36.453-54.855 64.867-6.738 16.172-10.074 32.477-9.558 46.707"/><path fill="none" stroke="#000" stroke-linecap="round" stroke-linejoin="round" stroke-miterlimit="10" stroke-width=".39861297" d="M142.09 319.207c-14.313-26.246-1.688-74.906 28.2-108.687 16.382-18.52 35.444-29.528 51.827-29.926M92.54 117.89c-19.204-11.085-50.337 6.891-69.536 40.15-19.203 33.257-19.203 69.206 0 80.292"/><path fill="none" stroke="#000" stroke-linecap="round" stroke-linejoin="round" stroke-miterlimit="10" stroke-width=".39861297" d="M47.984 250.434c-23.23-2.829-30.66-33.446-16.597-68.387 14.066-34.945 44.297-60.98 67.527-58.149 6.79.825 12.484 4.114 16.594 9.579"/><path fill="none" stroke="#000" stroke-linecap="round" stroke-linejoin="round" stroke-miterlimit="10" stroke-width=".39861297" d="M40.86 224.652c-8.93-15.625-1.583-45.074 16.413-65.777 10.188-11.719 22.16-18.629 32.344-18.676"/><path fill="none" stroke="#000" stroke-linecap="round" stroke-linejoin="round" stroke-miterlimit="10" stroke-width=".39861297" d="M87.7 141.305c-25.868 14.937-46.84 51.261-46.84 81.129"/><path fill="none" stroke="#000" stroke-linecap="round" stroke-linejoin="round" stroke-miterlimit="10" stroke-width=".39861297" d="M55.258 256.945c-19.172-11.132-19.125-47.101.101-80.34 19.184-33.164 50.239-51.097 69.426-40.082M169.98 165.355l24.102 13.915M169.98 165.355l-49.144 28.372M120.836 193.727l32.512 18.77M169.98 165.355c-15.203-1.351-33.94 9.465-49.14 28.372M126.441 284.36c0-36.782 25.825-81.512 57.68-99.903"/><path fill="none" stroke="#000" stroke-linecap="round" stroke-linejoin="round" stroke-miterlimit="10" stroke-width=".39861297" d="M228.043 178.457c-23.875-12.75-61.855 10.02-84.836 50.856-22.355 39.73-22.355 82.171.004 96.085M58.73 120.793l-10.433 6.988-9.567 8.719-8.57 10.145-7.402 11.253-6.043 12.04-4.5 12.492-2.77 12.644-.836 12.531M38.68 247.387 23 238.332M108.215 126.945l-15.676-9.054M87.7 141.305l2.323-1.34M40.86 222.434v2.683M127.355 298.57l-72.097-41.625M196.883 178.148l-72.098-41.625M184.121 184.457l2.32-1.34M126.441 284.36v2.683M527.102 79.746c-24.262-13.836-63.477 8.95-87.59 50.883-24.004 41.746-24.004 86.793 0 100.824"/><path fill="none" stroke="#000" stroke-linecap="round" stroke-linejoin="round" stroke-miterlimit="10" stroke-width=".39861297" d="M426.383 218.945c-18.567-20.972-11.367-68.199 16.078-105.484 20.305-27.586 46.934-42.961 67.238-38.824M372.414 11.285C353.214.2 322.082 18.172 302.88 51.434c-19.203 33.257-19.203 69.207 0 80.293"/><path fill="none" stroke="#000" stroke-linecap="round" stroke-linejoin="round" stroke-miterlimit="10" stroke-width=".39861297" d="M327.86 143.828c-23.231-2.828-30.66-33.45-16.594-68.39 14.062-34.942 44.297-60.977 67.523-58.149 6.79.828 12.484 4.117 16.594 9.582"/><path fill="none" stroke="#000" stroke-linecap="round" stroke-linejoin="round" stroke-miterlimit="10" stroke-width=".39861297" d="M320.734 118.047c-8.93-15.625-1.578-45.078 16.418-65.781 10.184-11.715 22.157-18.63 32.34-18.672"/><path fill="none" stroke="#000" stroke-linecap="round" stroke-linejoin="round" stroke-miterlimit="10" stroke-width=".39861297" d="M367.574 34.7c-25.867 14.933-46.84 51.257-46.84 81.128"/><path fill="none" stroke="#000" stroke-linecap="round" stroke-linejoin="round" stroke-miterlimit="10" stroke-width=".39861297" d="M335.137 150.336c-19.196-11.094-19.184-47.043.02-80.293 19.195-33.23 50.308-51.195 69.503-40.125M449.855 58.75l24.102 13.914M449.855 58.75l-49.14 28.371M400.715 87.121l32.508 18.77M449.855 58.75c-15.199-1.355-33.94 9.465-49.14 28.371M406.316 177.754c0-36.781 25.825-81.512 57.68-99.902"/><path fill="none" stroke="#000" stroke-linecap="round" stroke-linejoin="round" stroke-miterlimit="10" stroke-width=".39861297" d="M508.746 72.309c-23.476-13.45-61.465 8.566-84.851 49.175-23.32 40.496-23.32 84.227 0 97.793M509.7 74.633l8.308 1.695M426.383 218.945l5.62 6.348M338.605 14.184l-10.43 6.988-9.566 8.723-8.574 10.144-7.402 11.25-6.043 12.04-4.5 12.495-2.77 12.645-.836 12.527M318.555 140.777l-15.676-9.05M388.094 20.336l-15.68-9.05M367.574 34.7l2.324-1.34M320.734 115.828v2.684M407.23 191.961l-72.093-41.625M476.758 71.54 404.66 29.913M463.996 77.852l2.324-1.34M406.316 177.754v2.684M429.598 222.574l-5.707-3.293M514.453 75.602l-5.707-3.293"/></svg>