<svg xmlns="http://www.w3.org/2000/svg" xmlns:xlink="http://www.w3.org/1999/xlink" width="207.322" height="41.637"><defs><path id="b" d="M4.922-1.844c0-.984-.64-1.797-1.469-1.984l-1.265-.313c-.626-.14-1-.671-1-1.25 0-.687.53-1.296 1.296-1.296 1.657 0 1.875 1.625 1.938 2.062 0 .063 0 .125.11.125.124 0 .124-.047.124-.234V-6.72c0-.172 0-.25-.11-.25-.062 0-.077.016-.14.14l-.343.563c-.297-.296-.704-.703-1.579-.703-1.109 0-1.937.875-1.937 1.922 0 .828.531 1.547 1.297 1.813.11.03.61.156 1.312.328.266.062.563.125.828.5.22.25.313.578.313.906 0 .703-.5 1.406-1.328 1.406-.281 0-1.031-.047-1.563-.531-.562-.531-.593-1.156-.61-1.516 0-.093-.077-.093-.109-.093-.14 0-.14.062-.14.234v1.984c0 .157 0 .235.11.235.077 0 .077-.016.155-.125 0 0 .032-.047.36-.563.297.328.937.688 1.812.688 1.157 0 1.938-.969 1.938-2.063m0 0"/><path id="c" d="M6.438-2.547h-.25c-.25 1.516-.47 2.235-2.172 2.235H2.703c-.469 0-.484-.063-.484-.391v-2.64h.89c.954 0 1.063.327 1.063 1.156h.25v-2.61h-.25c0 .844-.11 1.156-1.063 1.156h-.89v-2.375c0-.328.015-.39.484-.39h1.281c1.5 0 1.766.547 1.938 1.906h.234l-.265-2.219H.328v.313h.235c.765 0 .78.11.78.468v5.172c0 .344-.015.454-.78.454H.328V0h5.703Zm0 0"/><path id="e" d="M2.313-4.39c0-.188-.016-.188-.204-.188-.437.422-1.078.437-1.359.437v.25c.172 0 .625 0 1-.203v3.532c0 .218 0 .312-.687.312H.797V0C.922 0 1.78-.031 2.03-.031 2.25-.031 3.11 0 3.266 0v-.25H3c-.687 0-.687-.094-.687-.312Zm0 0"/><path id="g" d="M3.484-1.25H3.25c-.016.14-.094.547-.172.625-.062.031-.594.031-.687.031H1.125c.719-.64.953-.828 1.375-1.156.516-.406.984-.828.984-1.484 0-.844-.734-1.344-1.609-1.344-.86 0-1.437.594-1.437 1.234 0 .344.296.375.359.375.172 0 .375-.11.375-.36 0-.124-.047-.358-.406-.358.203-.5.672-.657 1-.657.687 0 1.047.547 1.047 1.11 0 .593-.422 1.078-.641 1.328L.5-.266C.438-.203.438-.187.438 0H3.28Zm0 0"/><path id="i" d="M1.89-2.312c.532 0 .923.374.923 1.124 0 .844-.5 1.11-.907 1.11-.265 0-.875-.078-1.172-.484.329-.016.407-.25.407-.391a.37.37 0 0 0-.375-.375c-.203 0-.391.11-.391.39 0 .657.719 1.079 1.547 1.079.969 0 1.625-.641 1.625-1.328 0-.547-.438-1.079-1.203-1.25.734-.25.984-.782.984-1.188 0-.547-.625-.953-1.39-.953-.766 0-1.344.36-1.344.922 0 .234.14.36.36.36a.337.337 0 0 0 .343-.345c0-.203-.14-.343-.344-.359.235-.312.719-.39.969-.39.312 0 .75.156.75.765 0 .281-.11.594-.281.813-.235.265-.422.28-.766.296-.172.016-.187.016-.219.016-.015 0-.078.016-.078.094 0 .094.063.094.188.094Zm0 0"/><path id="k" d="M3.656-1.125v-.25h-.765v-3.094c0-.14 0-.187-.157-.187-.078 0-.109 0-.171.093L.265-1.374v.25h2.03v.563c0 .234 0 .312-.562.312h-.187V0c.36-.016.797-.031 1.047-.031.25 0 .687.015 1.031.031v-.25h-.172c-.562 0-.562-.078-.562-.312v-.563ZM2.344-3.906v2.531H.53Zm0 0"/><clipPath id="a"><path d="M.559 1h205.53v31H.56Zm0 0"/></clipPath><clipPath id="d"><path d="M103 36h3v5.277h-3Zm0 0"/></clipPath><clipPath id="f"><path d="M127 36h4v5.277h-4Zm0 0"/></clipPath><clipPath id="h"><path d="M170 36h4v5.277h-4Zm0 0"/></clipPath><clipPath id="j"><path d="M198 36h5v5.277h-5Zm0 0"/></clipPath></defs><g clip-path="url(#a)"><path fill="none" stroke="#000" stroke-width=".79011392" d="M4.242 25.734C11.125 20.676 13.79 9.562 18.398 6.52c3.59-1.915 7.754 2.699 7.754 2.699C36.36 20.066 37.942 24.324 53.79 24.723c16.543.34 19.773-4.2 25.617-10.114 4.461-5.203 7.36-6.601 10.785-3.03 8.598 7.374 13.786 14.585 21.91 15.503 5.786.219 33.266-2.715 52.637-8.863 7.242-1.969 10.973-10.848 18.875-7.117 6.57 3.855 12.867 9.222 18.5 10.585"/></g><path fill="none" stroke="#000" stroke-miterlimit="10" stroke-width=".20917696" d="M20.32 6.113V.211"/><path fill="none" stroke="#000" stroke-miterlimit="10" stroke-width=".41835392" d="M20.32.21h.985l-.985 1.97-.984-1.97h.984"/><use xlink:href="#b" x="17.302" y="33.159"/><path fill="none" stroke="#000" stroke-miterlimit="10" stroke-width=".20917696" d="M100.582 21.125v-5.902"/><path fill="none" stroke="#000" stroke-miterlimit="10" stroke-width=".41835392" d="M100.582 15.223h.984l-.984 1.968-.98-1.968h.98"/><use xlink:href="#c" x="95.906" y="39.796"/><g clip-path="url(#d)"><use xlink:href="#e" x="102.632" y="41.277"/></g><path fill="none" stroke="#000" stroke-miterlimit="10" stroke-width=".20917696" d="M120.102 26.441V20.54"/><path fill="none" stroke="#000" stroke-miterlimit="10" stroke-width=".41835392" d="M120.102 20.539h.98l-.98 1.969-.985-1.969h.985"/><use xlink:href="#c" x="120.109" y="39.796"/><g clip-path="url(#f)"><use xlink:href="#g" x="126.834" y="41.277"/></g><path fill="none" stroke="#000" stroke-miterlimit="10" stroke-width=".20917696" d="M169.785 15.594V9.69"/><path fill="none" stroke="#000" stroke-miterlimit="10" stroke-width=".41835392" d="M169.785 9.691h.98l-.98 1.97-.984-1.97h.984"/><use xlink:href="#c" x="163.489" y="39.796"/><g clip-path="url(#h)"><use xlink:href="#i" x="170.216" y="41.277"/></g><path fill="none" stroke="#000" stroke-miterlimit="10" stroke-width=".20917696" d="M197.375 19.543v-5.898"/><path fill="none" stroke="#000" stroke-miterlimit="10" stroke-width=".41835392" d="M197.375 13.645h.984l-.984 1.964-.984-1.964h.984"/><use xlink:href="#c" x="191.644" y="39.796"/><g clip-path="url(#j)"><use xlink:href="#k" x="198.37" y="41.277"/></g></svg>