<svg xmlns="http://www.w3.org/2000/svg" xmlns:xlink="http://www.w3.org/1999/xlink" width="202.325" height="41.637"><defs><clipPath id="a"><path d="M.54 1h200.577v31H.54Zm0 0"/></clipPath><clipPath id="d"><path d="M100 36h3v5.277h-3Zm0 0"/></clipPath><clipPath id="f"><path d="M124 36h3v5.277h-3Zm0 0"/></clipPath><clipPath id="h"><path d="M167 36h4v5.277h-4Zm0 0"/></clipPath><clipPath id="j"><path d="M189 7h12.117v15H189Zm0 0"/></clipPath><clipPath id="k"><path d="M195 36h4v5.277h-4Zm0 0"/></clipPath><path id="b" d="M3.188-5.516c-.305-.164-.602-.25-.891-.25q-.518.001-.813.266-.297.269-.296.719-.001.392.25.656a2.3 2.3 0 0 0 .5.344l.843.453q.638.362.906.672.36.392.36.984 0 .797-.516 1.266-.533.516-1.453.515A3.4 3.4 0 0 1 .594-.25q-.047-.482-.047-1-.002-.389.265-.39.094 0 .204.046l.218.938q.386.298.938.297.575 0 .89-.328c.188-.196.282-.454.282-.766a.98.98 0 0 0-.297-.703q-.205-.187-.906-.578l-.563-.313q-.516-.279-.75-.594-.313-.404-.312-.984-.002-.75.547-1.187.513-.422 1.343-.422.764 0 1.375.328.03.644.031.843-.001.392-.265.391a.4.4 0 0 1-.188-.047Zm0 0"/><path id="c" d="M1.094-.484v-5.172l-.547-.125c-.086-.02-.125-.055-.125-.11q0-.074.094-.25h4q.06.751.062 1.063c0 .262-.086.39-.25.39a.4.4 0 0 1-.187-.046l-.22-.922H1.86v2.297h1.985v.5H1.859V-.5h2.125l.235-.969a.7.7 0 0 1 .203-.031q.234 0 .234.36 0 .361-.093 1.14H.422a.16.16 0 0 1-.016-.078Q.404-.324.72-.406Zm0 0"/><path id="e" d="M2.047-.875v-2.453c0-.438 0-.86.015-.953 0-.047-.015-.047-.03-.047-.391.25-.766.422-1.407.719a.3.3 0 0 0 .11.187c.328-.14.484-.172.624-.172.125 0 .141.172.141.406v2.313c0 .594-.187.64-.687.656-.047.047-.047.188 0 .235C1.156 0 1.422 0 1.797 0c.344 0 .516 0 .875.016.031-.047.031-.188 0-.235-.5-.015-.625-.062-.625-.656m0 0"/><path id="g" d="M.438-3.328a.28.28 0 0 0 .28.281c.126 0 .329-.125.329-.281 0-.063-.016-.11-.016-.156-.015-.047-.062-.11-.062-.172 0-.172.187-.438.703-.438.25 0 .625.188.625.86 0 .468-.172.828-.594 1.265l-.516.516C.485-.75.375-.406.375.016c0 0 .36-.016.578-.016h1.25c.235 0 .563.016.563.016.078-.375.156-.907.156-1.125-.031-.032-.125-.047-.203-.032-.11.5-.235.672-.5.672H.953c0-.328.5-.812.531-.86l.72-.687c.405-.39.718-.703.718-1.234 0-.781-.625-1.094-1.203-1.094-.797 0-1.281.594-1.281 1.016m0 0"/><path id="i" d="M1.531-4.094c.297 0 .594.188.594.64 0 .36-.422.907-1.125 1l.031.235c.125-.015.25-.015.344-.015.406 0 .938.109.938.922 0 .937-.641 1.14-.891 1.14-.36 0-.422-.172-.5-.297C.844-.563.75-.656.609-.656c-.14 0-.296.14-.296.25 0 .281.593.484 1.03.484.845 0 1.595-.547 1.595-1.5 0-.766-.579-1.047-1-1.11l-.016-.015c.594-.281.75-.578.75-.953a.74.74 0 0 0-.219-.562c-.156-.157-.406-.282-.781-.282-1.047 0-1.344.688-1.344.922 0 .11.078.25.25.25.25 0 .281-.234.281-.375 0-.453.485-.547.672-.547m0 0"/><path id="l" d="M3.063-1.562h-.594v-2.079c0-.343 0-.625.015-.687l-.015-.016h-.235c-.046 0-.078.047-.109.078C1.672-3.719.859-2.53.203-1.516c.016.094.063.297.266.297h1.453v.657c0 .328-.266.328-.578.343-.032.047-.032.188 0 .235C1.578 0 1.859 0 2.187 0c.282 0 .547 0 .782.016C3-.031 3-.172 2.969-.22c-.36-.031-.5-.015-.5-.343v-.657h.484c.11 0 .203-.14.203-.218 0-.079-.015-.125-.094-.125M1.922-3.61v2.047H.562c.375-.579.876-1.375 1.36-2.047m0 0"/></defs><g clip-path="url(#a)"><path fill="none" stroke="#000" stroke-width=".79011392" d="M2.855 25.734c6.88-5.058 9.547-16.172 14.157-19.214 3.586-1.915 7.754 2.699 7.754 2.699 10.203 10.847 11.789 15.105 27.636 15.504 16.543.34 19.77-4.2 25.618-10.114 4.457-5.203 7.355-6.601 10.785-3.03 8.593 7.374 13.785 14.585 21.906 15.503 5.785.219 33.27-2.715 52.64-8.863 7.243-1.969 10.973-10.848 18.876-7.117 6.566 3.855 12.863 9.222 18.5 10.585"/></g><path fill="none" stroke="#000" stroke-miterlimit="10" stroke-width=".20917696" d="M18.934 6.113V.211"/><path fill="none" stroke="#000" stroke-miterlimit="10" stroke-width=".41835392" d="M18.934.21h.98l-.98 1.97-.985-1.97h.985"/><use xlink:href="#b" x="15.913" y="33.269"/><path fill="none" stroke="#000" stroke-miterlimit="10" stroke-width=".20917696" d="M99.195 21.125v-5.902"/><path fill="none" stroke="#000" stroke-miterlimit="10" stroke-width=".41835392" d="M99.195 15.223h.985l-.985 1.968-.984-1.968h.984"/><use xlink:href="#c" x="94.516" y="39.397"/><g clip-path="url(#d)"><use xlink:href="#e" x="99.557" y="41.263"/></g><path fill="none" stroke="#000" stroke-miterlimit="10" stroke-width=".20917696" d="M118.71 26.441V20.54"/><path fill="none" stroke="#000" stroke-miterlimit="10" stroke-width=".41835392" d="M118.71 20.539h.985l-.984 1.969-.984-1.969h.984"/><use xlink:href="#c" x="118.719" y="39.397"/><g clip-path="url(#f)"><use xlink:href="#g" x="123.759" y="41.263"/></g><path fill="none" stroke="#000" stroke-miterlimit="10" stroke-width=".20917696" d="M168.394 15.594V9.69"/><path fill="none" stroke="#000" stroke-miterlimit="10" stroke-width=".41835392" d="M168.394 9.691h.985l-.985 1.97-.984-1.97h.984"/><use xlink:href="#c" x="162.1" y="39.339"/><g clip-path="url(#h)"><use xlink:href="#i" x="167.14" y="41.206"/></g><path fill="none" stroke="#000" stroke-miterlimit="10" stroke-width=".20917696" d="M195.988 19.543v-5.898"/><g clip-path="url(#j)"><path fill="none" stroke="#000" stroke-miterlimit="10" stroke-width=".41835392" d="M195.988 13.645h.98l-.98 1.964-.984-1.964h.984"/></g><use xlink:href="#c" x="190.255" y="39.397"/><g clip-path="url(#k)"><use xlink:href="#l" x="195.295" y="41.263"/></g></svg>