<svg xmlns="http://www.w3.org/2000/svg" xmlns:xlink="http://www.w3.org/1999/xlink" width="216.845" height="151.496"><defs><clipPath id="b"><path d="M12 6h182v144.992H12Zm0 0"/></clipPath><clipPath id="c"><path d="M.281 76H25v2H.281Zm0 0"/></clipPath><clipPath id="d"><path d="M203 74h13.41v15H203Zm0 0"/></clipPath><clipPath id="e"><path d="M201 78h15.41v16H201Zm0 0"/></clipPath><path id="a" d="M7.25-6.469v-.312c-.312.031-.719.031-.969.031l-1.125-.031v.312c.516.016.719.266.719.5 0 .078-.031.14-.047.188L4.016-.984 2.109-6c-.062-.14-.062-.187-.062-.187 0-.282.578-.282.828-.282v-.312c-.36.031-1.047.031-1.422.031L.188-6.781v.312c.64 0 .828 0 .968.375L3.47 0c.062.188.11.219.234.219.172 0 .203-.047.25-.188l2.203-5.828c.14-.375.407-.656 1.094-.672m0 0"/></defs><path fill="none" stroke="#000" stroke-miterlimit="10" stroke-width=".39767532" d="M12.547 42.45h78.422m23.734 0h78.426"/><path fill="none" stroke="#000" stroke-miterlimit="10" stroke-width=".79435396" d="M102.836 30.582c-6.55 0-11.867 5.313-11.867 11.867 0 6.551 5.316 11.863 11.867 11.863 6.555 0 11.867-5.312 11.867-11.863 0-6.554-5.312-11.867-11.867-11.867Zm0 0"/><use xlink:href="#a" x="99.112" y="45.729"/><path stroke="#000" stroke-miterlimit="10" stroke-width=".39767532" d="M14.129 42.45a1.583 1.583 0 1 0-3.166.001 1.583 1.583 0 0 0 3.166-.002ZM194.71 42.45a1.58 1.58 0 0 0-1.581-1.583 1.583 1.583 0 1 0 1.582 1.582Zm0 0"/><g clip-path="url(#b)"><path fill="none" stroke="#000" stroke-miterlimit="10" stroke-width=".39767532" d="M12.547 6.332v66.3m0 11.864v66.3H48.66m0 0h54.176m0 0h54.176m0 0h36.117v-64.32m0-15.824V6.332H118.66m-31.644 0h-74.47"/></g><path fill="none" stroke="#000" stroke-miterlimit="10" stroke-width=".39767532" d="M12.547 80.523v3.973m0-7.89v-3.973"/><g clip-path="url(#c)"><path fill="none" stroke="#000" stroke-miterlimit="10" stroke-width=".79435396" d="M24.41 76.605H.68"/></g><path fill="none" stroke="#000" stroke-miterlimit="10" stroke-width="2.38306188" d="M18.48 80.523H6.613"/><path fill="none" stroke="#000" stroke-miterlimit="10" stroke-width=".79435396" d="m193.129 86.477 9.887-15.825h-19.778Zm0 0"/><path fill="none" stroke="#000" stroke-miterlimit="10" stroke-width=".39767532" d="M193.129 86.477V70.652"/><path fill="none" stroke="#000" stroke-miterlimit="10" stroke-width=".79435396" d="M183.238 86.477h19.778"/><path fill="none" stroke="#000" stroke-miterlimit="10" stroke-width=".39767532" d="m203.016 75.398 7.187 5.75"/><path d="m212.594 83.063-1.215-3.223-2.195 2.742Zm0 0"/><g clip-path="url(#d)"><path fill="none" stroke="#000" stroke-miterlimit="10" stroke-width=".39765138" d="m212.594 83.063-1.215-3.223-2.195 2.742Zm0 0"/></g><path fill="none" stroke="#000" stroke-miterlimit="10" stroke-width=".39767532" d="m201.039 80.145 7.188 5.75"/><path d="m210.617 87.809-1.215-3.223-2.195 2.742Zm0 0"/><g clip-path="url(#e)"><path fill="none" stroke="#000" stroke-miterlimit="10" stroke-width=".39765138" d="m210.617 87.809-1.215-3.223-2.195 2.742Zm0 0"/></g><path fill="none" stroke="#000" stroke-miterlimit="10" stroke-width=".79435396" d="M87.016.398h31.644v11.868H87.016Zm0 0"/></svg>