<svg xmlns="http://www.w3.org/2000/svg" xmlns:xlink="http://www.w3.org/1999/xlink" width="110.127" height="24.608"><defs><clipPath id="a"><path d="M.434 11H106v2H.434Zm0 0"/></clipPath><clipPath id="b"><path d="M30 0h46v24.223H30Zm0 0"/></clipPath><path id="c" d="M7.156-6.39v-.313a20.84 20.84 0 0 1-.937.031l-1.125-.031v.312c.515 0 .718.25.718.485 0 .078-.03.14-.046.203L3.969-.984 2.094-5.937c-.063-.141-.063-.172-.063-.172 0-.282.563-.282.797-.282v-.312c-.344.031-1.015.031-1.39.031l-1.25-.031v.312c.64 0 .828 0 .953.36L3.42 0c.079.188.126.219.25.219.173 0 .188-.047.235-.188l2.188-5.765c.14-.375.406-.657 1.062-.657m0 0"/></defs><g clip-path="url(#a)"><path fill="none" stroke="#000" stroke-miterlimit="10" stroke-width=".39274368" d="M.629 12.11H41.28m23.438 0h40.656"/></g><g clip-path="url(#b)"><path fill="none" stroke="#000" stroke-miterlimit="10" stroke-width=".78450304" d="M53 .39c-6.473 0-11.719 5.25-11.719 11.72 0 6.472 5.246 11.722 11.719 11.722 6.473 0 11.719-5.25 11.719-11.723C64.719 5.641 59.473.391 53 .391Zm0 0"/></g><use xlink:href="#c" x="49.324" y="15.352"/></svg>