<svg xmlns="http://www.w3.org/2000/svg" xmlns:xlink="http://www.w3.org/1999/xlink" width="110.127" height="24.608"><defs><clipPath id="a"><path d="M.434 11H106v2H.434Zm0 0"/></clipPath><clipPath id="b"><path d="M30 0h46v24.223H30Zm0 0"/></clipPath><path id="c" d="M7.031 0v-.297H6.86c-.593 0-.718-.078-.828-.406L3.906-6.828c-.047-.125-.062-.203-.219-.203-.171 0-.187.062-.25.203l-2.03 5.86c-.173.5-.563.656-1.094.671V0l1-.031L2.438 0v-.297c-.485 0-.735-.25-.735-.5 0-.031.016-.14.031-.156l.438-1.281h2.437l.516 1.5c0 .03.031.093.031.14 0 .297-.547.297-.812.297V0c.343-.031 1.031-.031 1.406-.031ZM4.5-2.547H2.281l1.11-3.187Zm0 0"/></defs><g clip-path="url(#a)"><path fill="none" stroke="#000" stroke-miterlimit="10" stroke-width=".39274368" d="M.629 12.11H41.28m23.438 0h40.656"/></g><g clip-path="url(#b)"><path fill="none" stroke="#000" stroke-miterlimit="10" stroke-width=".78450304" d="M53 .39c-6.473 0-11.719 5.25-11.719 11.72 0 6.472 5.246 11.722 11.719 11.722 6.473 0 11.719-5.25 11.719-11.723C64.719 5.641 59.473.391 53 .391Zm0 0"/></g><use xlink:href="#c" x="49.324" y="15.622"/></svg>