<svg xmlns="http://www.w3.org/2000/svg" xmlns:xlink="http://www.w3.org/1999/xlink" width="216.845" height="153.083"><defs><clipPath id="b"><path d="M140 143h16v9.172h-16Zm0 0"/></clipPath><clipPath id="c"><path d="M.57 76H26v1H.57Zm0 0"/></clipPath><clipPath id="d"><path d="M203 74h13.121v15H203Zm0 0"/></clipPath><path id="a" d="M7.11 0v-.312h-.188c-.594 0-.734-.063-.844-.391l-2.14-6.188c-.047-.14-.063-.203-.22-.203-.155 0-.187.063-.234.203L1.422-.969c-.172.5-.563.657-1.11.657V0l1.016-.031L2.468 0v-.312c-.5 0-.75-.25-.75-.5 0-.032.016-.125.032-.141l.453-1.313h2.438L5.17-.75a.58.58 0 0 1 .032.14c0 .298-.562.298-.828.298V0c.36-.031 1.047-.031 1.438-.031ZM4.53-2.562H2.313l1.109-3.22Zm0 0"/></defs><path fill="none" stroke="#000" stroke-miterlimit="10" stroke-width=".39662196000000005" d="M147.879 6.313V66.52m0 23.671v60.207"/><path fill="none" stroke="#000" stroke-miterlimit="10" stroke-width=".7922498800000001" d="M159.71 78.355c0-6.535-5.296-11.835-11.831-11.835-6.54 0-11.836 5.3-11.836 11.835 0 6.536 5.297 11.836 11.836 11.836 6.535 0 11.832-5.3 11.832-11.836Zm0 0"/><use xlink:href="#a" x="144.162" y="81.9"/><path stroke="#000" stroke-miterlimit="10" stroke-width=".39662196000000005" d="M149.457 6.313c0-.872-.707-1.575-1.578-1.575a1.575 1.575 0 1 0 0 3.153c.87 0 1.578-.707 1.578-1.578Zm0 0"/><path d="M149.457 150.398a1.579 1.579 0 1 0-3.157.002 1.579 1.579 0 0 0 3.157-.002m0 0"/><g clip-path="url(#b)"><path fill="none" stroke="#000" stroke-miterlimit="10" stroke-width=".39662196000000005" d="M149.457 150.398a1.579 1.579 0 1 0-3.158.002 1.579 1.579 0 0 0 3.158-.002Zm0 0"/></g><path fill="none" stroke="#000" stroke-miterlimit="10" stroke-width=".39662196000000005" d="M12.8 6.313v66.124m0 11.836v66.125h36.02m0 0h54.032m0 0h54.03m0 0h36.02V86.246m0-15.781V6.313h-74.27m-31.562 0H12.8M12.8 80.309v3.964m0-7.87v-3.966"/><g clip-path="url(#c)"><path fill="none" stroke="#000" stroke-miterlimit="10" stroke-width=".7922498800000001" d="M24.633 76.402H.965"/></g><path fill="none" stroke="#000" stroke-miterlimit="10" stroke-width="2.37674964" d="M18.715 80.309H6.883"/><path fill="none" stroke="#000" stroke-miterlimit="10" stroke-width=".7922498800000001" d="m192.902 86.246 9.864-15.781h-19.723Zm0 0"/><path fill="none" stroke="#000" stroke-miterlimit="10" stroke-width=".39662196000000005" d="M192.902 86.246V70.465"/><path fill="none" stroke="#000" stroke-miterlimit="10" stroke-width=".7922498800000001" d="M183.043 86.246h19.723"/><path fill="none" stroke="#000" stroke-miterlimit="10" stroke-width=".39662196000000005" d="m202.766 75.2 7.168 5.734"/><path d="m212.32 82.844-1.215-3.215-1.093 1.367-1.098 1.367Zm0 0"/><g clip-path="url(#d)"><path fill="none" stroke="#000" stroke-miterlimit="10" stroke-width=".39659802" d="m212.32 82.844-1.215-3.215-1.093 1.367-1.098 1.367Zm0 0"/></g><path fill="none" stroke="#000" stroke-miterlimit="10" stroke-width=".39662196000000005" d="m200.793 79.934 7.168 5.734"/><path stroke="#000" stroke-miterlimit="10" stroke-width=".39659802" d="m210.348 87.578-1.215-3.219-1.094 1.371-1.094 1.368Zm0 0"/><path fill="none" stroke="#000" stroke-miterlimit="10" stroke-width=".7922498800000001" d="M87.07.398h31.563V12.23H87.07Zm0 0"/></svg>