<svg xmlns="http://www.w3.org/2000/svg" xmlns:xlink="http://www.w3.org/1999/xlink" width="216.845" height="163.6"><defs><clipPath id="a"><path d="M.188 76H25v2H.188Zm0 0"/></clipPath><clipPath id="b"><path d="M79 127h47v36.2H79Zm0 0"/></clipPath><clipPath id="d"><path d="M203 74h13.504v15H203Zm0 0"/></clipPath><clipPath id="e"><path d="M201 79h15.504v15H201Zm0 0"/></clipPath><path id="c" d="M7.25-6.484v-.297c-.297.015-.703.031-.953.031l-1.14-.031v.297c.515.015.734.265.734.5 0 .078-.032.14-.063.203L4.016-1 2.109-6.016c-.046-.14-.046-.171-.046-.171 0-.297.562-.297.812-.297v-.297c-.36.031-1.047.031-1.422.031L.188-6.781v.297c.64 0 .843 0 .968.375L3.47 0c.062.188.125.219.25.219.172 0 .187-.047.234-.188l2.219-5.843c.14-.375.406-.657 1.078-.672m0 0"/></defs><path fill="none" stroke="#000" stroke-miterlimit="10" stroke-width=".39802644000000004" d="M12.46 6.336v66.36m0 11.874v66.36h36.15m0 0h42.347m23.75 0h42.348m0 0h36.148V86.55m0-15.835V6.335h-74.535m-31.672 0H12.461M12.46 80.594v3.976m0-7.898v-3.977"/><g clip-path="url(#a)"><path fill="none" stroke="#000" stroke-miterlimit="10" stroke-width=".79505532" d="M24.336 76.672H.586"/></g><path fill="none" stroke="#000" stroke-miterlimit="10" stroke-width="2.38516596" d="M18.398 80.594H6.523"/><g clip-path="url(#b)"><path fill="none" stroke="#000" stroke-miterlimit="10" stroke-width=".79505532" d="M102.832 139.05c-6.559 0-11.875 5.321-11.875 11.88 0 6.558 5.316 11.875 11.875 11.875s11.875-5.317 11.875-11.875c0-6.559-5.316-11.88-11.875-11.88Zm0 0"/></g><use xlink:href="#c" x="99.104" y="154.212"/><path fill="none" stroke="#000" stroke-miterlimit="10" stroke-width=".79505532" d="m193.203 86.55 9.899-15.835h-19.797Zm0 0"/><path fill="none" stroke="#000" stroke-miterlimit="10" stroke-width=".39802644000000004" d="M193.203 86.55V70.716"/><path fill="none" stroke="#000" stroke-miterlimit="10" stroke-width=".79505532" d="M183.305 86.55h19.797"/><path fill="none" stroke="#000" stroke-miterlimit="10" stroke-width=".39802644000000004" d="m203.102 75.465 7.191 5.754"/><path d="m212.688 83.133-1.22-3.227-1.097 1.375-1.101 1.375Zm0 0"/><g clip-path="url(#d)"><path fill="none" stroke="#000" stroke-miterlimit="10" stroke-width=".39799851" d="m212.688 83.133-1.22-3.227-1.097 1.375-1.101 1.375Zm0 0"/></g><path fill="none" stroke="#000" stroke-miterlimit="10" stroke-width=".39802644000000004" d="m201.121 80.215 7.192 5.754"/><path d="m210.707 87.887-1.219-3.227-1.097 1.371-1.098 1.375Zm0 0"/><g clip-path="url(#e)"><path fill="none" stroke="#000" stroke-miterlimit="10" stroke-width=".39799851" d="m210.707 87.887-1.219-3.227-1.097 1.371-1.098 1.375Zm0 0"/></g><path fill="none" stroke="#000" stroke-miterlimit="10" stroke-width=".79505532" d="M86.996.398h31.672v11.875H86.996Zm0 0"/></svg>