<svg xmlns="http://www.w3.org/2000/svg" xmlns:xlink="http://www.w3.org/1999/xlink" width="216.845" height="151.496"><defs><clipPath id="b"><path d="M12 6h182v144.992H12Zm0 0"/></clipPath><clipPath id="c"><path d="M.281 76H25v2H.281Zm0 0"/></clipPath><clipPath id="d"><path d="M203 74h13.41v15H203Zm0 0"/></clipPath><clipPath id="e"><path d="M201 78h15.41v16H201Zm0 0"/></clipPath><path id="a" d="M7.11 0v-.312h-.173c-.593 0-.734-.063-.843-.391l-2.14-6.203c-.048-.125-.079-.203-.235-.203-.156 0-.188.062-.235.203L1.422-.97c-.172.5-.563.657-1.11.657V0l1.016-.031L2.468 0v-.312c-.5 0-.75-.25-.75-.5 0-.032.016-.125.032-.157l.453-1.297h2.453L5.172-.75a.58.58 0 0 1 .031.14c0 .298-.547.298-.812.298V0c.359-.031 1.047-.031 1.422-.031ZM4.546-2.562H2.313l1.109-3.235Zm0 0"/></defs><path fill="none" stroke="#000" stroke-miterlimit="10" stroke-width=".39767532" d="M12.547 42.45h78.422m23.734 0h78.426"/><path fill="none" stroke="#000" stroke-miterlimit="10" stroke-width=".79435396" d="M102.836 30.582c-6.55 0-11.867 5.313-11.867 11.867 0 6.551 5.316 11.863 11.867 11.863 6.555 0 11.867-5.312 11.867-11.863 0-6.554-5.312-11.867-11.867-11.867Zm0 0"/><use xlink:href="#a" x="99.112" y="46.002"/><path stroke="#000" stroke-miterlimit="10" stroke-width=".39767532" d="M14.129 42.45a1.583 1.583 0 1 0-3.166.001 1.583 1.583 0 0 0 3.166-.002ZM194.71 42.45a1.58 1.58 0 0 0-1.581-1.583 1.583 1.583 0 1 0 1.582 1.582Zm0 0"/><g clip-path="url(#b)"><path fill="none" stroke="#000" stroke-miterlimit="10" stroke-width=".39767532" d="M12.547 6.332v66.3m0 11.864v66.3H48.66m0 0h54.176m0 0h54.176m0 0h36.117v-64.32m0-15.824V6.332H118.66m-31.644 0h-74.47"/></g><path fill="none" stroke="#000" stroke-miterlimit="10" stroke-width=".39767532" d="M12.547 80.523v3.973m0-7.89v-3.973"/><g clip-path="url(#c)"><path fill="none" stroke="#000" stroke-miterlimit="10" stroke-width=".79435396" d="M24.41 76.605H.68"/></g><path fill="none" stroke="#000" stroke-miterlimit="10" stroke-width="2.38306188" d="M18.48 80.523H6.613"/><path fill="none" stroke="#000" stroke-miterlimit="10" stroke-width=".79435396" d="m193.129 86.477 9.887-15.825h-19.778Zm0 0"/><path fill="none" stroke="#000" stroke-miterlimit="10" stroke-width=".39767532" d="M193.129 86.477V70.652"/><path fill="none" stroke="#000" stroke-miterlimit="10" stroke-width=".79435396" d="M183.238 86.477h19.778"/><path fill="none" stroke="#000" stroke-miterlimit="10" stroke-width=".39767532" d="m203.016 75.398 7.187 5.75"/><path d="m212.594 83.063-1.215-3.223-2.195 2.742Zm0 0"/><g clip-path="url(#d)"><path fill="none" stroke="#000" stroke-miterlimit="10" stroke-width=".39765138" d="m212.594 83.063-1.215-3.223-2.195 2.742Zm0 0"/></g><path fill="none" stroke="#000" stroke-miterlimit="10" stroke-width=".39767532" d="m201.039 80.145 7.188 5.75"/><path d="m210.617 87.809-1.215-3.223-2.195 2.742Zm0 0"/><g clip-path="url(#e)"><path fill="none" stroke="#000" stroke-miterlimit="10" stroke-width=".39765138" d="m210.617 87.809-1.215-3.223-2.195 2.742Zm0 0"/></g><path fill="none" stroke="#000" stroke-miterlimit="10" stroke-width=".79435396" d="M87.016.398h31.644v11.868H87.016Zm0 0"/></svg>