<svg xmlns="http://www.w3.org/2000/svg" xmlns:xlink="http://www.w3.org/1999/xlink" width="216.845" height="153.083"><defs><clipPath id="b"><path d="M50 143h16v9.172H50Zm0 0"/></clipPath><clipPath id="c"><path d="M.57 76H26v1H.57Zm0 0"/></clipPath><clipPath id="d"><path d="M203 74h13.121v15H203Zm0 0"/></clipPath><path id="a" d="M7.234-6.453v-.313c-.312.016-.703.032-.968.032L5.14-6.766v.313c.515 0 .718.266.718.484 0 .078-.03.14-.046.203L4-.984 2.11-6c-.063-.125-.063-.172-.063-.172 0-.281.562-.281.812-.281v-.313c-.359.032-1.03.032-1.406.032L.188-6.766v.313c.64 0 .828 0 .968.375L3.453 0c.078.188.125.219.25.219.172 0 .188-.047.235-.188l2.218-5.828c.14-.36.407-.656 1.078-.656m0 0"/></defs><path fill="none" stroke="#000" stroke-miterlimit="10" stroke-width=".39662196000000005" d="M57.824 6.313V66.52m0 23.671v60.207"/><path fill="none" stroke="#000" stroke-miterlimit="10" stroke-width=".7922498800000001" d="M69.66 78.355c0-6.535-5.297-11.835-11.836-11.835-6.535 0-11.832 5.3-11.832 11.835 0 6.536 5.297 11.836 11.832 11.836 6.54 0 11.836-5.3 11.836-11.836Zm0 0"/><use xlink:href="#a" x="54.111" y="81.628"/><path stroke="#000" stroke-miterlimit="10" stroke-width=".39662196000000005" d="M59.402 6.313c0-.872-.707-1.575-1.578-1.575a1.575 1.575 0 1 0 0 3.153c.871 0 1.578-.707 1.578-1.578Zm0 0"/><path d="M59.402 150.398a1.579 1.579 0 1 0-3.157.002 1.579 1.579 0 0 0 3.157-.002m0 0"/><g clip-path="url(#b)"><path fill="none" stroke="#000" stroke-miterlimit="10" stroke-width=".39662196000000005" d="M59.402 150.398a1.579 1.579 0 1 0-3.157.002 1.579 1.579 0 0 0 3.157-.002Zm0 0"/></g><path fill="none" stroke="#000" stroke-miterlimit="10" stroke-width=".39662196000000005" d="M12.8 6.313v66.124m0 11.836v66.125h36.02m0 0h54.032m0 0h54.03m0 0h36.02V86.246m0-15.781V6.313h-74.27m-31.562 0H12.8M12.8 80.309v3.964m0-7.87v-3.966"/><g clip-path="url(#c)"><path fill="none" stroke="#000" stroke-miterlimit="10" stroke-width=".7922498800000001" d="M24.633 76.402H.965"/></g><path fill="none" stroke="#000" stroke-miterlimit="10" stroke-width="2.37674964" d="M18.715 80.309H6.883"/><path fill="none" stroke="#000" stroke-miterlimit="10" stroke-width=".7922498800000001" d="m192.902 86.246 9.864-15.781h-19.723Zm0 0"/><path fill="none" stroke="#000" stroke-miterlimit="10" stroke-width=".39662196000000005" d="M192.902 86.246V70.465"/><path fill="none" stroke="#000" stroke-miterlimit="10" stroke-width=".7922498800000001" d="M183.043 86.246h19.723"/><path fill="none" stroke="#000" stroke-miterlimit="10" stroke-width=".39662196000000005" d="m202.766 75.2 7.168 5.734"/><path d="m212.32 82.844-1.215-3.215-1.093 1.367-1.098 1.367Zm0 0"/><g clip-path="url(#d)"><path fill="none" stroke="#000" stroke-miterlimit="10" stroke-width=".39659802" d="m212.32 82.844-1.215-3.215-1.093 1.367-1.098 1.367Zm0 0"/></g><path fill="none" stroke="#000" stroke-miterlimit="10" stroke-width=".39662196000000005" d="m200.793 79.934 7.168 5.734"/><path stroke="#000" stroke-miterlimit="10" stroke-width=".39659802" d="m210.348 87.578-1.215-3.219-1.094 1.371-1.094 1.368Zm0 0"/><path fill="none" stroke="#000" stroke-miterlimit="10" stroke-width=".7922498800000001" d="M87.07.398h31.563V12.23H87.07Zm0 0"/></svg>