<?xml version="1.0" encoding="UTF-8" standalone="no"?>
<!-- Created with Inkscape (http://www.inkscape.org/) -->

<svg
   width="94.219261mm"
   height="33.739639mm"
   viewBox="0 0 94.219261 33.739639"
   version="1.1"
   id="svg1"
   xml:space="preserve"
   inkscape:version="1.3.2 (091e20e, 2023-11-25)"
   sodipodi:docname="50ohm.svg"
   xmlns:inkscape="http://www.inkscape.org/namespaces/inkscape"
   xmlns:sodipodi="http://sodipodi.sourceforge.net/DTD/sodipodi-0.dtd"
   xmlns="http://www.w3.org/2000/svg"
   xmlns:svg="http://www.w3.org/2000/svg"><g
     inkscape:label="Ebene 1"
     inkscape:groupmode="layer"
     id="layer1"
     transform="translate(-25.26127,-186.84696)"><g
       id="g1"><path
         id="path17"
         style="font-weight:bold;font-size:42.3333px;line-height:1;font-family:Futura;-inkscape-font-specification:'Futura Bold';fill:#b2e6fa;fill-opacity:1"
         d="m 102.39472,187.77818 v 1.60611 c 7.73583,0.5131 13.82987,6.00776 14.69006,13.19712 h 1.69706 c -0.68965,-7.67763 -7.30782,-14.24873 -16.38712,-14.80323 z m 0,3.25717 v 1.42627 c 5.88373,0.47241 10.53069,4.42649 11.19157,10.11979 h 1.80712 c -0.73398,-6.5152 -6.1553,-11.07113 -12.99869,-11.54606 z m 0,2.85305 v 1.71204 c 3.90207,0.49061 6.89906,3.34285 7.5799,6.98097 h 1.69551 c -0.67496,-4.61233 -4.43476,-8.18265 -9.27541,-8.69301 z"
          /><path
         style="font-weight:bold;font-size:42.3333px;line-height:1;font-family:Futura;-inkscape-font-specification:'Futura Bold';fill:#00adef"
         d="m 60.863589,203.69561 q 0,2.11667 0.380999,3.85233 0.381,1.73567 1.058333,3.00567 0.719666,1.27 1.693332,1.98966 0.973666,0.67734 2.201332,0.67734 1.185332,0 2.158998,-0.67734 1.015999,-0.71966 1.693332,-1.98966 0.677333,-1.27 1.058333,-3.00567 0.380999,-1.73566 0.380999,-3.85233 0,-2.07433 -0.380999,-3.80999 -0.381,-1.778 -1.058333,-3.00567 -0.677333,-1.27 -1.693332,-1.94733 -0.973666,-0.71967 -2.158998,-0.71967 -1.227666,0 -2.201332,0.71967 -0.973666,0.67733 -1.693332,1.94733 -0.677333,1.22767 -1.058333,3.00567 -0.380999,1.73566 -0.380999,3.80999 z m -8.212661,0 q 0,-3.80999 0.973666,-6.90032 1.015999,-3.13267 2.793998,-5.334 1.820332,-2.20133 4.275663,-3.38666 2.497665,-1.22767 5.50333,-1.22767 2.963331,0 5.460996,1.22767 2.497664,1.18533 4.275663,3.38666 1.777999,2.20133 2.751665,5.334 1.015999,3.09033 1.015999,6.90032 0,3.81 -1.015999,6.94266 -0.973666,3.09034 -2.751665,5.334 -1.777999,2.20133 -4.275663,3.429 -2.497665,1.18533 -5.460996,1.18533 -3.005665,0 -5.50333,-1.18533 -2.455331,-1.22767 -4.275663,-3.429 -1.777999,-2.24366 -2.793998,-5.334 -0.973666,-3.13266 -0.973666,-6.94266 z"
         id="path5" /><path
         style="font-weight:bold;font-size:42.3333px;line-height:1;font-family:Futura;-inkscape-font-specification:'Futura Bold';fill:#00adef"
         d="M 46.724254,194.80562 H 35.675262 l -0.550333,3.51366 q 0.761999,-0.0847 1.396999,-0.127 0.635,-0.0847 1.312332,-0.0847 2.412999,0 4.48733,0.84666 2.074332,0.84667 3.555998,2.32834 1.481665,1.48166 2.328331,3.55599 0.846666,2.07433 0.846666,4.52967 0,2.58233 -0.973666,4.65666 -0.931332,2.07433 -2.666998,3.556 -1.735665,1.43933 -4.23333,2.20133 -2.497665,0.80433 -5.545662,0.80433 -2.878665,0 -5.50333,-0.71967 -2.582331,-0.67733 -4.868329,-2.11666 l 1.227666,-7.78933 q 2.116665,1.82033 4.317996,2.794 2.201332,0.93133 4.190997,0.93133 2.539998,0 4.021664,-1.35466 1.481665,-1.397 1.481665,-3.429 0,-2.37067 -1.989665,-3.81 -1.989665,-1.48166 -5.206996,-1.48166 -1.439332,0 -2.963331,0.33866 -1.523999,0.29634 -3.005664,0.97367 L 30.0026,187.77829 h 16.721654 z"
         id="text3" /><path
         id="text4"
         style="font-weight:bold;font-size:42.3333px;line-height:1;font-family:Futura;-inkscape-font-specification:'Futura Bold';fill:#00adef"
         d="m 101.15036,187.73581 c -2.539988,0 -4.882598,0.43769 -7.027478,1.31258 -2.14489,0.84666 -4.00733,2.0177 -5.58777,3.51348 -1.58044,1.46755 -2.82225,3.18899 -3.72536,5.16454 -0.87488,1.94733 -1.31258,4.00791 -1.31258,6.18102 0,0.70555 0.08492,1.52381 0.25425,2.45515 0.19755,0.9031 0.49372,1.83459 0.88883,2.79414 0.39511,0.93133 0.90305,1.83451 1.52394,2.7094 0.62089,0.87488 1.36891,1.62238 2.24379,2.24327 h -5.5454 v 6.47712 h 15.875 v -7.11171 c -0.95956,-0.28222 -1.83442,-0.71991 -2.62464,-1.31258 -0.79022,-0.62089 -1.48214,-1.3406 -2.07481,-2.15904 -0.56445,-0.84666 -1.01577,-1.76399 -1.35444,-2.75177 -0.31044,-1.016 -0.4656,-2.03188 -0.4656,-3.04788 0,-1.21355 0.22592,-2.34213 0.67747,-3.38635 0.47978,-1.04422 1.11458,-1.96155 1.9048,-2.75177 0.81844,-0.79022 1.76407,-1.41138 2.83652,-1.86294 1.10066,-0.45155 2.28585,-0.67696 3.555848,-0.67696 0.004,0 0.008,5.1e-4 0.0114,5.2e-4 v -7.78919 c -0.0181,-5e-5 -0.0356,-0.001 -0.0537,-0.001 z m 8.95087,15.97008 c 0.009,0.1656 0.0238,0.32876 0.0238,0.49764 0,1.016 -0.16931,2.03188 -0.50798,3.04788 -0.31044,0.98778 -0.76177,1.90511 -1.35444,2.75177 -0.56444,0.81844 -1.25637,1.53815 -2.0748,2.15904 -0.79023,0.59267 -1.6651,1.03036 -2.62465,1.31258 v 7.11171 h 15.91737 v -6.47712 h -5.50302 c 0.87489,-0.62089 1.62239,-1.36839 2.24327,-2.24327 0.62089,-0.87489 1.11519,-1.77807 1.48208,-2.7094 0.39511,-0.95955 0.67713,-1.89104 0.84646,-2.79414 0.19756,-0.93134 0.29663,-1.7496 0.29663,-2.45515 0,-0.0676 -0.004,-0.13415 -0.005,-0.20154 z" /></g></g></svg>
