<?xml version="1.0" encoding="UTF-8" standalone="no"?>
<!-- Created with Inkscape (http://www.inkscape.org/) -->

<svg
   width="62.652981mm"
   height="62.652981mm"
   viewBox="0 0 62.652981 62.652981"
   version="1.1"
   id="svg1"
   xml:space="preserve"
   inkscape:version="1.3.2 (091e20e, 2023-11-25)"
   sodipodi:docname="ohm.svg"
   xmlns:inkscape="http://www.inkscape.org/namespaces/inkscape"
   xmlns:sodipodi="http://sodipodi.sourceforge.net/DTD/sodipodi-0.dtd"
   xmlns="http://www.w3.org/2000/svg"
   xmlns:svg="http://www.w3.org/2000/svg"><sodipodi:namedview
     id="namedview1"
     pagecolor="#ffffff"
     bordercolor="#000000"
     borderopacity="0.25"
     inkscape:showpageshadow="2"
     inkscape:pageopacity="0.0"
     inkscape:pagecheckerboard="0"
     inkscape:deskcolor="#d1d1d1"
     inkscape:document-units="mm"
     showguides="true"
     inkscape:zoom="0.29560976"
     inkscape:cx="57.50825"
     inkscape:cy="749.29867"
     inkscape:window-width="1512"
     inkscape:window-height="870"
     inkscape:window-x="0"
     inkscape:window-y="38"
     inkscape:window-maximized="0"
     inkscape:current-layer="layer1"><sodipodi:guide
       position="152.30991,402.50469"
       orientation="1,0"
       id="guide6"
       inkscape:locked="false" /><sodipodi:guide
       position="143.29145,380.02793"
       orientation="0,-1"
       id="guide7"
       inkscape:locked="false" /><sodipodi:guide
       position="149.81248,422.48404"
       orientation="0,-1"
       id="guide11"
       inkscape:locked="false" /><sodipodi:guide
       position="163.00227,427.93461"
       orientation="1,0"
       id="guide12"
       inkscape:locked="false" /><sodipodi:guide
       position="164.76105,428.10482"
       orientation="1,0"
       id="guide13"
       inkscape:locked="false" /><sodipodi:guide
       position="168.33533,431.73583"
       orientation="1,0"
       id="guide15"
       inkscape:locked="false" /><sodipodi:guide
       position="161.18961,415.13053"
       orientation="1,0"
       id="guide16"
       inkscape:locked="false" /><sodipodi:guide
       position="170.00513,427.07744"
       orientation="1,0"
       id="guide17"
       inkscape:locked="false" /></sodipodi:namedview><defs
     id="defs1" /><g
     inkscape:label="Ebene 1"
     inkscape:groupmode="layer"
     id="layer1"
     transform="translate(-32.221535,-163.50027)"><rect
       style="fill:#ffffff;stroke-width:1"
       id="rect1"
       width="62.652981"
       height="62.652981"
       x="32.221535"
       y="163.50027" /><g
       id="g1"
       transform="translate(-8.2940999,-64.73102)"><path
         id="path17-6"
         style="font-weight:bold;font-size:42.3333px;line-height:1;font-family:Futura;-inkscape-font-specification:'Futura Bold';fill:#b2e6fa;fill-opacity:1"
         d="m 73.065305,243.17481 v 1.60611 c 7.73583,0.5131 13.82987,6.00776 14.69006,13.19712 h 1.69706 c -0.68965,-7.67763 -7.30782,-14.24873 -16.38712,-14.80323 z m 0,3.25717 v 1.42627 c 5.88373,0.47241 10.53069,4.42649 11.19157,10.11979 h 1.80712 c -0.73398,-6.5152 -6.1553,-11.07113 -12.99869,-11.54606 z m 0,2.85305 v 1.71204 c 3.90207,0.49061 6.89906,3.34285 7.5799,6.98097 h 1.69551 c -0.67496,-4.61233 -4.43476,-8.18265 -9.27541,-8.69301 z"
         sodipodi:nodetypes="ccccccccccccccc" /><path
         id="text4-0"
         style="font-weight:bold;font-size:42.3333px;line-height:1;font-family:Futura;-inkscape-font-specification:'Futura Bold';fill:#00adef"
         d="m 71.820945,243.13244 c -2.53999,0 -4.8826,0.43769 -7.02748,1.31258 -2.14489,0.84666 -4.00733,2.0177 -5.58777,3.51348 -1.58044,1.46755 -2.82225,3.18899 -3.72536,5.16454 -0.87488,1.94733 -1.31258,4.00791 -1.31258,6.18102 0,0.70555 0.08492,1.52381 0.25425,2.45515 0.19755,0.9031 0.49372,1.83459 0.88883,2.79414 0.39511,0.93133 0.90305,1.83451 1.52394,2.7094 0.62089,0.87488 1.36891,1.62238 2.24379,2.24327 h -5.5454 v 6.47712 h 15.875 v -7.11171 c -0.95956,-0.28222 -1.83442,-0.71991 -2.62464,-1.31258 -0.79022,-0.62089 -1.48214,-1.3406 -2.07481,-2.15904 -0.56445,-0.84666 -1.01577,-1.76399 -1.35444,-2.75177 -0.31044,-1.016 -0.4656,-2.03188 -0.4656,-3.04788 0,-1.21355 0.22592,-2.34213 0.67747,-3.38635 0.47978,-1.04422 1.11458,-1.96155 1.9048,-2.75177 0.81844,-0.79022 1.76407,-1.41138 2.83652,-1.86294 1.10066,-0.45155 2.28585,-0.67696 3.55585,-0.67696 0.0039,0 0.0075,5.1e-4 0.01137,5.2e-4 v -7.78919 c -0.01807,-5e-5 -0.03565,-10e-4 -0.05374,-10e-4 z m 8.95087,15.97008 c 0.0088,0.1656 0.02377,0.32876 0.02377,0.49764 0,1.016 -0.16931,2.03188 -0.50798,3.04788 -0.31044,0.98778 -0.76177,1.90511 -1.35444,2.75177 -0.56444,0.81844 -1.25637,1.53815 -2.0748,2.15904 -0.79023,0.59267 -1.6651,1.03036 -2.62465,1.31258 v 7.11171 h 15.91737 v -6.47712 h -5.50302 c 0.87489,-0.62089 1.62239,-1.36839 2.24327,-2.24327 0.62089,-0.87489 1.11519,-1.77807 1.48208,-2.7094 0.39511,-0.95955 0.67713,-1.89104 0.84646,-2.79414 0.19756,-0.93134 0.29663,-1.7496 0.29663,-2.45515 0,-0.0676 -0.004,-0.13415 -0.005,-0.20154 z" /></g></g></svg>
