<svg width="496" height="641" viewBox="0 0 496 641" fill="none" xmlns="http://www.w3.org/2000/svg">
<path d="M48.1979 410.704L48.6211 411.595L49.5178 411.184L95.8516 389.955L101.015 400.827L43.0105 427.029L30.024 399.683L40.78 395.084L48.1979 410.704ZM16.9687 434.275L80.8484 457.513L78.1613 464.9L14.2816 441.661L16.9687 434.275Z" stroke="#777777" stroke-width="2"/>
<path d="M376.535 423.734L376.61 424.035L376.843 424.24C383.354 429.976 392.542 432.453 401.541 430.042C410.54 427.631 417.258 420.892 420.029 412.669L420.128 412.375L420.043 412.076C419.457 410.013 417.921 408.537 416.003 407.513C414.09 406.493 411.713 405.873 409.245 405.54C404.312 404.875 398.754 405.323 395.175 406.282C391.578 407.246 386.541 409.637 382.605 412.678C380.635 414.2 378.89 415.925 377.746 417.765C376.6 419.61 376.011 421.655 376.535 423.734ZM360.916 413.155C355.935 394.563 366.981 375.43 385.573 370.449C404.165 365.467 423.298 376.513 428.279 395.105C433.261 413.697 422.215 432.83 403.623 437.812C385.031 442.793 365.898 431.747 360.916 413.155ZM402.244 387.227C400.56 380.942 394.125 377.227 387.84 378.911C381.555 380.595 377.84 387.03 379.524 393.315C381.208 399.6 387.643 403.315 393.928 401.631C400.213 399.947 403.929 393.512 402.244 387.227Z" stroke="#777777" stroke-width="2"/>
<path d="M194.286 64.898L194.294 64.892L194.303 64.8857L244.503 26.8265L248.384 31.9256L215.83 56.4708L216.691 58.2351L269.679 44.0372C274.172 42.8331 278.735 45.4672 279.939 49.9608L294.501 104.307C295.694 108.758 293.068 113.364 288.577 114.567L216.116 133.983C211.625 135.186 207.048 132.511 205.856 128.059L191.294 73.7132C190.39 70.3416 191.665 66.801 194.286 64.898ZM276.96 71.2103L277.926 70.9515L277.667 69.9855L272.813 51.8701L272.554 50.9042L271.588 51.163L199.127 70.5791L198.161 70.8379L198.42 71.8038L203.274 89.9192L203.532 90.8851L204.498 90.6263L258.845 76.0643L259.81 75.8055L259.552 74.8395L257.383 66.7478L264.509 64.8384L266.677 72.9302L266.936 73.8961L267.902 73.6373L276.96 71.2103ZM209.341 112.563C211.498 120.615 219.742 125.374 227.793 123.217C235.844 121.059 240.603 112.816 238.446 104.765C236.289 96.7135 228.046 91.9543 219.994 94.1117C211.943 96.269 207.184 104.512 209.341 112.563Z" stroke="#777777" stroke-width="2"/>
<path d="M428.385 289.975L427.742 290.076L427.574 290.704L424.059 303.821L423.952 304.221L424.159 304.58L433.581 320.899L428.207 324.002L419.978 309.749L419.478 308.883L418.612 309.383L404.359 317.612L401.257 312.238L417.576 302.816L417.935 302.608L418.042 302.208L421.556 289.092L421.725 288.463L421.219 288.055C418.428 285.803 417.055 282.045 418.033 278.392C419.36 273.441 424.456 270.498 429.408 271.825C434.36 273.152 437.302 278.248 435.975 283.2C434.986 286.89 431.93 289.42 428.385 289.975ZM400.423 272.638C404.789 258.374 419.675 250.047 434.2 253.939C448.726 257.831 457.454 272.486 454.103 287.022L448.08 285.408C450.538 274.217 443.768 262.952 432.588 259.956C421.408 256.961 409.913 263.332 406.446 274.252L400.423 272.638ZM436.848 244.058C416.883 238.708 396.366 250.285 390.537 269.989L384.518 268.376C391.235 245.366 415.19 231.805 438.461 238.04C461.731 244.275 475.696 267.998 470.008 291.284L463.989 289.671C468.793 269.692 456.813 249.407 436.848 244.058Z" stroke="#777777" stroke-width="2"/>
<path d="M61.6398 64.7452L61.6399 64.7446C62.6702 60.8996 66.6225 58.5948 70.4549 59.6217L110.202 70.2719C114.041 71.3005 116.343 75.2879 115.314 79.1266L98.6665 141.257L75.2303 122.816L74.8935 122.551L74.4693 122.612L44.9534 126.864L61.6398 64.7452ZM93.8622 129.709L95.0562 130.66L95.4514 129.185L109.297 77.5142L109.556 76.5483L108.59 76.2894L68.8425 65.6392L67.8766 65.3804L67.6177 66.3463L53.7725 118.018L53.3773 119.492L54.8872 119.265L76.6513 115.99L93.8622 129.709Z" stroke="#777777" stroke-width="2"/>
<path d="M290.229 183.907L290.932 184.194L291.397 183.595C295.794 177.928 303.468 174.18 311.129 172.128C315.7 170.903 320.602 170.218 325.262 170.42C328.259 170.601 330.909 171.044 333.494 172.015L348.912 229.556C348.961 229.739 348.93 230.029 348.757 230.33C348.583 230.63 348.347 230.802 348.164 230.851C347.946 230.909 347.881 230.924 347.823 230.93C347.791 230.933 347.734 230.936 347.589 230.907C341.02 229.373 333.775 230.021 327.119 231.804C323.633 232.738 319.6 234.53 315.883 236.688C312.414 238.701 309.16 241.068 306.854 243.414C299.737 240.758 291.009 241.48 283.397 243.519C277.545 245.087 270.231 248.961 265.443 253.032C265.214 253.123 265.047 253.234 264.942 253.304L264.927 253.314C264.791 253.403 264.775 253.408 264.748 253.415C264.566 253.464 264.275 253.434 263.975 253.26C263.674 253.087 263.502 252.85 263.453 252.667L247.981 194.925C252.423 189.473 259.921 185.849 267.407 183.843C275.068 181.79 283.588 181.199 290.229 183.907ZM339.646 224.079L341.012 224.142L340.658 222.821L328.41 177.112L328.221 176.406L327.49 176.372C322.621 176.147 317.588 176.847 312.741 178.145C309.255 179.079 305.222 180.871 301.505 183.029C297.792 185.184 294.325 187.745 292.003 190.251L291.628 190.656L291.771 191.19L304.019 236.899L304.487 238.648L305.718 237.32C307.857 235.01 311.143 232.566 314.757 230.468C318.367 228.372 322.235 226.663 325.507 225.786C330.2 224.529 335.025 223.865 339.646 224.079Z" stroke="#777777" stroke-width="2"/>
<path d="M300.968 201.887L299.799 197.524C304.039 194.32 309.533 191.726 315.921 190.014C318.991 189.191 322.111 188.671 325.105 188.404L326.191 192.455C323.234 192.674 320.124 193.208 317.001 194.044C310.458 195.797 304.906 198.511 300.968 201.887Z" stroke="#00A0E3" stroke-width="2"/>
<path d="M329.023 203.028C326.067 203.247 322.956 203.78 319.834 204.617C313.291 206.37 307.739 209.084 303.801 212.46L302.633 208.102C306.887 204.926 312.373 202.297 318.754 200.587C321.824 199.764 324.943 199.244 327.938 198.977L329.023 203.028Z" stroke="#00A0E3" stroke-width="2"/>
<path d="M306.644 223.073L305.475 218.71C309.716 215.506 315.21 212.911 321.598 211.2C324.677 210.374 327.789 209.822 330.779 209.581L331.867 213.641C328.911 213.86 325.8 214.393 322.678 215.23C316.134 216.983 310.583 219.697 306.644 223.073Z" stroke="#00A0E3" stroke-width="2"/>
<path d="M146.604 431.765L145.615 431.618L145.763 430.629L154.967 368.84L155.114 367.851L156.103 367.998L170.225 370.102L172.998 351.487L140.227 346.605L125.181 447.605L158.942 452.634C184.021 456.37 207.641 440.302 214.442 415.921L196.053 413.181C190.952 427.222 176.782 436.26 161.715 434.016L146.604 431.765Z" stroke="#777777" stroke-width="2"/>
<path d="M179.988 355.175C202.176 361.683 216.848 383.904 213.947 407.823L215.999 408.129C219.089 382.949 203.634 359.701 180.311 353.007L179.988 355.175Z" stroke="#00A0E3" stroke-width="2"/>
<path d="M178.747 363.504C196.5 369.266 208.128 387.244 205.886 406.622L207.938 406.928C210.351 386.351 197.91 367.287 179.07 361.338L178.747 363.504Z" stroke="#00A0E3" stroke-width="2"/>
<path d="M197.821 405.421L199.873 405.727C201.634 389.697 192.245 374.87 177.825 369.697L177.499 371.885C190.832 376.853 199.413 390.582 197.821 405.421Z" stroke="#00A0E3" stroke-width="2"/>
<path d="M324.954 457.157L324.901 457.922L325.626 458.172C336.3 461.848 342.456 473.2 339.46 484.379C336.327 496.073 324.404 503.032 312.865 499.94L255.951 484.69C242.003 480.952 233.721 466.445 237.507 452.316C241.041 439.126 253.83 430.903 266.878 432.938L267.41 433.021L267.772 432.622C275.853 423.727 288.407 419.544 300.679 422.832C316.136 426.974 326.038 441.547 324.954 457.157ZM265.749 440.017L265.748 440.017C256.092 438.483 246.891 444.589 244.331 454.144C241.569 464.45 247.586 475.03 257.805 477.768L314.719 493.018C322.486 495.099 330.539 490.377 332.636 482.55C334.608 475.191 330.553 467.428 323.335 464.981C323.334 464.981 323.333 464.98 323.331 464.98L317.491 462.951L317.906 456.721C318.754 444.278 310.765 432.953 298.824 429.754C289.437 427.239 279.559 430.224 272.983 437.481C272.982 437.482 272.982 437.482 272.981 437.483L270.032 440.701L265.749 440.017ZM284.881 460.265L285.139 459.299L284.173 459.04L275.323 456.669L294.639 445.374L305.72 464.813L296.87 462.442L295.904 462.183L295.645 463.149L292.345 475.463L281.581 472.579L284.881 460.265Z" stroke="#777777" stroke-width="2"/>
<path d="M204.265 290.379C205.059 283.822 202.601 278.278 198.494 273.706C203.427 275.348 208.508 277.63 212.538 280.392C217.698 283.93 220.799 288.01 220.278 292.318L218.764 304.824L202.751 302.885L204.265 290.379Z" stroke="#777777" stroke-width="2"/>
<path d="M207.182 249.643C206.044 259.038 197.513 265.727 188.117 264.589C186.625 264.409 185.22 263.995 183.865 263.445C187.762 259.238 190.43 253.809 191.169 247.704C191.908 241.599 190.613 235.69 187.832 230.675C189.28 230.464 190.742 230.398 192.235 230.578C201.63 231.716 208.319 240.247 207.182 249.643Z" stroke="#777777" stroke-width="2"/>
<path d="M180.184 246.374C179.047 255.77 170.516 262.459 161.12 261.321C151.724 260.184 145.035 251.653 146.173 242.257C147.31 232.861 155.841 226.173 165.237 227.31C174.633 228.447 181.322 236.978 180.184 246.374ZM173.17 245.525C173.836 240.027 169.886 234.989 164.388 234.324C158.89 233.658 153.852 237.608 153.187 243.106C152.521 248.604 156.471 253.642 161.969 254.308C167.467 254.973 172.505 251.023 173.17 245.525Z" stroke="#777777" stroke-width="2"/>
<path d="M184.609 293.572L185.602 293.693L185.722 292.7L186.266 288.2L186.283 288.063L186.262 287.927C186.157 287.249 185.759 286.601 185.281 286.026C184.787 285.431 184.123 284.813 183.338 284.192C181.766 282.948 179.621 281.622 177.134 280.366C172.162 277.857 165.701 275.572 159.486 274.82C153.271 274.068 146.451 274.745 141.023 276.001C138.307 276.629 135.906 277.41 134.081 278.25C133.17 278.669 132.377 279.115 131.755 279.58C131.152 280.03 130.612 280.569 130.349 281.207L130.297 281.333L130.28 281.468L129.741 285.923L129.621 286.916L130.614 287.036L184.609 293.572ZM123.272 280.574C123.59 277.947 125.186 275.73 127.751 273.88C130.324 272.024 133.796 270.597 137.663 269.566C145.399 267.504 154.452 267.094 160.335 267.806C166.218 268.518 174.912 271.077 181.932 274.925C185.441 276.849 188.472 279.064 190.528 281.48C192.577 283.888 193.598 286.422 193.28 289.049L191.766 301.555L121.758 293.08L123.272 280.574Z" stroke="#777777" stroke-width="2"/>
<path d="M466.444 548.63L467.347 548.257L466.995 547.346C463.223 537.565 455.445 529.786 445.66 526.058L444.751 525.712L444.38 526.61L439.167 539.21L438.769 540.174L439.749 540.532C445.678 542.696 450.314 547.372 452.526 553.269L452.889 554.237L453.844 553.842L466.444 548.63ZM420.164 526.559L419.788 525.666L418.884 526.014C409.056 529.786 401.278 537.565 397.505 547.393L397.156 548.3L398.053 548.674L410.653 553.932L411.615 554.333L411.976 553.355C414.187 547.374 418.91 542.653 424.886 540.488L425.875 540.129L425.467 539.159L420.164 526.559ZM398.056 572.843L397.155 573.216L397.505 574.126C401.277 583.953 409.055 591.731 418.837 595.504L419.742 595.853L420.119 594.959L425.421 582.359L425.83 581.389L424.84 581.031C418.865 578.866 414.187 574.19 411.976 568.208L411.616 567.234L410.656 567.631L398.056 572.843ZM444.38 594.953L444.753 595.855L445.664 595.504C455.445 591.731 463.222 583.954 466.995 574.172L467.344 573.267L466.45 572.891L453.85 567.588L452.88 567.18L452.522 568.169C450.357 574.145 445.679 578.824 439.743 581.034L438.771 581.395L439.167 582.353L444.38 594.953ZM387.926 560.759C387.926 536.292 407.784 516.435 432.25 516.435C456.717 516.435 476.575 536.292 476.575 560.759C476.575 585.226 456.717 605.084 432.25 605.084C407.784 605.084 387.926 585.226 387.926 560.759ZM417.653 560.759C417.653 568.835 424.174 575.356 432.25 575.356C440.326 575.356 446.848 568.835 446.848 560.759C446.848 552.683 440.326 546.162 432.25 546.162C424.174 546.162 417.653 552.683 417.653 560.759Z" stroke="#777777" stroke-width="2"/>
<path d="M123.024 559.155L122.986 559.577L123.262 559.898L133.68 572L123.262 584.102L122.986 584.423L123.024 584.845L124.475 600.845L109.08 604.397L108.659 604.494L108.441 604.868L100.384 618.682L85.8998 612.363L85.4986 612.188L85.0979 612.364L70.6145 618.726L62.5588 604.913L62.341 604.54L61.9198 604.443L46.5245 600.89L47.9759 584.844L48.0141 584.423L47.7379 584.102L37.3185 571.999L47.739 559.851L48.014 559.531L47.9759 559.11L46.5247 543.066L61.9172 539.558L62.3402 539.461L62.5588 539.087L70.6156 525.272L85.1002 531.591L85.5 531.765L85.8998 531.591L100.383 525.273L108.44 539.131L108.658 539.506L109.08 539.603L124.475 543.155L123.024 559.155ZM76.1914 594.278L76.905 595.005L77.6186 594.278L110.604 560.678L111.292 559.976L110.603 559.276L103.943 552.51L103.229 551.785L102.516 552.511L76.9053 578.617L67.1792 568.694L66.4665 567.967L65.7523 568.693L59.0923 575.458L58.4027 576.159L59.0914 576.861L76.1914 594.278Z" stroke="#777777" stroke-width="2"/>
<path d="M254.343 588.663L252.869 595.573L245.959 594.099L247.433 587.189L254.343 588.663ZM211.53 559.971C216.634 536.042 240.197 520.764 264.126 525.868C288.054 530.973 303.332 554.536 298.228 578.464C293.124 602.393 269.56 617.671 245.632 612.566C221.703 607.462 206.425 583.899 211.53 559.971ZM218.439 561.444C214.154 581.533 227.017 601.372 247.106 605.657C267.194 609.942 287.033 597.079 291.318 576.99C295.603 556.902 282.74 537.063 262.652 532.778C242.563 528.493 222.724 541.356 218.439 561.444ZM248.818 580.805C249.579 577.9 250.786 575.893 252.185 574.404C253.748 572.741 255.599 571.67 257.509 570.725C257.942 570.511 258.386 570.3 258.832 570.088C260.296 569.392 261.789 568.683 263.035 567.79C264.732 566.575 266.078 564.96 266.613 562.452C267.769 557.036 264.286 551.664 258.869 550.509C253.783 549.424 248.736 552.429 247.183 557.285L240.254 555.806C242.637 547.114 251.416 541.695 260.343 543.599C269.6 545.574 275.497 554.669 273.523 563.926C272.444 568.983 268.871 571.132 264.912 573.34C264.777 573.415 264.641 573.491 264.505 573.567C260.983 575.524 257.147 577.657 255.746 582.283L248.818 580.805Z" stroke="#777777" stroke-width="2"/>
<path d="M414.254 109.782C414.254 119.242 406.584 126.912 397.124 126.912C387.663 126.912 379.994 119.242 379.994 109.782C379.994 100.321 387.663 92.6521 397.124 92.6521C406.584 92.6521 414.254 100.321 414.254 109.782Z" stroke="#777777" stroke-width="2"/>
<path d="M361.864 155.106C361.864 152.459 363.182 150.067 365.506 147.922C367.837 145.771 371.113 143.937 374.828 142.449C382.26 139.471 391.198 137.976 397.124 137.976C403.05 137.976 411.988 139.471 419.42 142.449C423.135 143.937 426.411 145.771 428.741 147.922C431.065 150.067 432.383 152.459 432.383 155.106V163.171H361.864V155.106ZM425.97 118.453C429.392 113.098 429.392 106.421 425.97 101.066L432.253 94.7449C440.144 104.009 440.11 116.304 432.283 124.804L425.97 118.453ZM441.27 134.067C453.327 119.577 453.358 99.3262 441.286 85.4811L447.278 79.4889C463.697 97.2054 463.639 123.072 447.291 140.088L441.27 134.067Z" stroke="#777777" stroke-width="2"/>
<path d="M259.111 369V370H260.111H277.333V377H260.111C255.598 377 252 373.389 252 369V315C252 310.611 255.598 307 260.111 307H323.889C328.402 307 332 310.611 332 315V369C332 373.386 328.359 377 323.889 377H306.667V370H323.889H324.889V369V324V323H323.889H260.111H259.111V324V369ZM288.444 351V350H287.444H276.213L292 334.406L307.787 350H296.556H295.556V351V377H288.444V351Z" stroke="#777777" stroke-width="2"/>
<path d="M55 204.727V203.727H54C38.5433 203.727 26 216.412 26 232C26 236.49 27.0392 240.777 28.9269 244.541L23.7727 249.748C20.757 244.544 19 238.485 19 232C19 212.452 34.6717 196.636 54 196.636H55V195.636V184.431L70.5928 200.182L55 215.932V204.727ZM84.2273 214.252C87.243 219.456 89 225.515 89 232C89 251.548 73.3283 267.364 54 267.364H53V268.364V279.569L37.4072 263.818L53 248.068V259.273V260.273H54C69.4567 260.273 82 247.588 82 232C82 227.497 80.915 223.252 79.0664 219.465L84.2273 214.252Z" stroke="#777777" stroke-width="2"/>
</svg>
